<?xml version="1.0" encoding="UTF-8" standalone="no"?>
<!DOCTYPE svg PUBLIC "-//W3C//DTD SVG 1.1//EN"
 "http://www.w3.org/Graphics/SVG/1.1/DTD/svg11.dtd">
<!-- Generated by graphviz version 2.38.0 (20140413.2041)
 -->
<!-- Title: Actor.hpp Pages: 1 -->
<svg width="177pt" height="196pt"
 viewBox="0.00 0.00 176.50 196.00" xmlns="http://www.w3.org/2000/svg" xmlns:xlink="http://www.w3.org/1999/xlink">
<g id="graph0" class="graph" transform="scale(1 1) rotate(0) translate(4 192)">
<title>Actor.hpp</title>
<!-- Node1 -->
<g id="node1" class="node"><title>Node1</title>
<polygon fill="#bfbfbf" stroke="black" points="76,-168.5 76,-187.5 138,-187.5 138,-168.5 76,-168.5"/>
<text text-anchor="middle" x="107" y="-175.5" font-family="Helvetica,sans-Serif" font-size="10.00">Actor.hpp</text>
</g>
<!-- Node2 -->
<g id="node2" class="node"><title>Node2</title>
<g id="a_node2"><a xlink:href="SystemInterface_8hpp.html" target="_top" xlink:title="SystemInterface.hpp">
<polygon fill="none" stroke="black" points="48,-112.5 48,-131.5 166,-131.5 166,-112.5 48,-112.5"/>
<text text-anchor="middle" x="107" y="-119.5" font-family="Helvetica,sans-Serif" font-size="10.00">SystemInterface.hpp</text>
</a>
</g>
</g>
<!-- Node1&#45;&gt;Node2 -->
<g id="edge1" class="edge"><title>Node1&#45;&gt;Node2</title>
<path fill="none" stroke="midnightblue" d="M107,-168.083C107,-161.006 107,-150.861 107,-141.986"/>
<polygon fill="midnightblue" stroke="midnightblue" points="110.5,-141.751 107,-131.751 103.5,-141.751 110.5,-141.751"/>
</g>
<!-- Node3 -->
<g id="node3" class="node"><title>Node3</title>
<g id="a_node3"><a xlink:href="Vector_8hpp.html" target="_top" xlink:title="Vector.hpp">
<polygon fill="none" stroke="black" points="35,-56.5 35,-75.5 103,-75.5 103,-56.5 35,-56.5"/>
<text text-anchor="middle" x="69" y="-63.5" font-family="Helvetica,sans-Serif" font-size="10.00">Vector.hpp</text>
</a>
</g>
</g>
<!-- Node2&#45;&gt;Node3 -->
<g id="edge2" class="edge"><title>Node2&#45;&gt;Node3</title>
<path fill="none" stroke="midnightblue" d="M100.725,-112.083C95.3575,-104.455 87.4824,-93.2645 80.9213,-83.9408"/>
<polygon fill="midnightblue" stroke="midnightblue" points="83.7755,-81.9149 75.1582,-75.7511 78.0508,-85.9434 83.7755,-81.9149"/>
</g>
<!-- Node6 -->
<g id="node6" class="node"><title>Node6</title>
<polygon fill="none" stroke="#bfbfbf" points="121.5,-56.5 121.5,-75.5 168.5,-75.5 168.5,-56.5 121.5,-56.5"/>
<text text-anchor="middle" x="145" y="-63.5" font-family="Helvetica,sans-Serif" font-size="10.00">vector</text>
</g>
<!-- Node2&#45;&gt;Node6 -->
<g id="edge5" class="edge"><title>Node2&#45;&gt;Node6</title>
<path fill="none" stroke="midnightblue" d="M113.275,-112.083C118.642,-104.455 126.518,-93.2645 133.079,-83.9408"/>
<polygon fill="midnightblue" stroke="midnightblue" points="135.949,-85.9434 138.842,-75.7511 130.225,-81.9149 135.949,-85.9434"/>
</g>
<!-- Node4 -->
<g id="node4" class="node"><title>Node4</title>
<polygon fill="none" stroke="#bfbfbf" points="0,-0.5 0,-19.5 64,-19.5 64,-0.5 0,-0.5"/>
<text text-anchor="middle" x="32" y="-7.5" font-family="Helvetica,sans-Serif" font-size="10.00">algorithm</text>
</g>
<!-- Node3&#45;&gt;Node4 -->
<g id="edge3" class="edge"><title>Node3&#45;&gt;Node4</title>
<path fill="none" stroke="midnightblue" d="M62.8902,-56.083C57.7178,-48.5341 50.1539,-37.4948 43.8056,-28.2298"/>
<polygon fill="midnightblue" stroke="midnightblue" points="46.5357,-26.0221 37.9961,-19.7511 40.7612,-29.9787 46.5357,-26.0221"/>
</g>
<!-- Node5 -->
<g id="node5" class="node"><title>Node5</title>
<polygon fill="none" stroke="#bfbfbf" points="82.5,-0.5 82.5,-19.5 129.5,-19.5 129.5,-0.5 82.5,-0.5"/>
<text text-anchor="middle" x="106" y="-7.5" font-family="Helvetica,sans-Serif" font-size="10.00">cmath</text>
</g>
<!-- Node3&#45;&gt;Node5 -->
<g id="edge4" class="edge"><title>Node3&#45;&gt;Node5</title>
<path fill="none" stroke="midnightblue" d="M75.1098,-56.083C80.2822,-48.5341 87.8461,-37.4948 94.1944,-28.2298"/>
<polygon fill="midnightblue" stroke="midnightblue" points="97.2388,-29.9787 100.004,-19.7511 91.4643,-26.0221 97.2388,-29.9787"/>
</g>
</g>
</svg>
