<?xml version="1.0" encoding="UTF-8" standalone="no"?>
<!DOCTYPE svg PUBLIC "-//W3C//DTD SVG 1.1//EN"
 "http://www.w3.org/Graphics/SVG/1.1/DTD/svg11.dtd">
<!-- Generated by graphviz version 2.38.0 (20140413.2041)
 -->
<!-- Title: angledist_tcl.cpp Pages: 1 -->
<!--zoomable 420 -->
<svg id="main" version="1.1" xmlns="http://www.w3.org/2000/svg" xmlns:xlink="http://www.w3.org/1999/xlink" xml:space="preserve" onload="init(evt)">
<style type="text/css"><![CDATA[
.edge:hover path { stroke: red; }
.edge:hover polygon { stroke: red; fill: red; }
]]></style>
<script type="text/javascript"><![CDATA[
var edges = document.getElementsByTagName('g');
if (edges && edges.length) {
  for (var i=0;i<edges.length;i++) {
    if (edges[i].id.substr(0,4)=='edge') {
      edges[i].setAttribute('class','edge');
    }
  }
}
]]></script>
        <defs>
                <circle id="rim" cx="0" cy="0" r="7"/>
                <circle id="rim2" cx="0" cy="0" r="3.5"/>
                <g id="zoomPlus">
                        <use xlink:href="#rim" fill="#404040">
                                <set attributeName="fill" to="#808080" begin="zoomplus.mouseover" end="zoomplus.mouseout"/>
                        </use>
                        <path d="M-4,0h8M0,-4v8" fill="none" stroke="white" stroke-width="1.5" pointer-events="none"/>
                </g>
                <g id="zoomMin">
                        <use xlink:href="#rim" fill="#404040">
                                <set attributeName="fill" to="#808080" begin="zoomminus.mouseover" end="zoomminus.mouseout"/>
                        </use>
                        <path d="M-4,0h8" fill="none" stroke="white" stroke-width="1.5" pointer-events="none"/>
                </g>
                <g id="dirArrow">
                        <path fill="none" stroke="white" stroke-width="1.5" d="M0,-3.0v7 M-2.5,-0.5L0,-3.0L2.5,-0.5"/>
                </g>
               <g id="resetDef">
                       <use xlink:href="#rim2" fill="#404040">
                               <set attributeName="fill" to="#808080" begin="reset.mouseover" end="reset.mouseout"/>
                       </use>
               </g>
        </defs>

<script type="text/javascript">
var viewWidth = 772;
var viewHeight = 420;
var sectionId = 'dynsection-0';
</script>
<script xlink:href="svgpan.js"/>
<svg id="graph" class="graph">
<g id="viewport">
<title>angledist_tcl.cpp</title>
<!-- Node1 -->
<g id="node1" class="node"><title>Node1</title>
<polygon fill="#bfbfbf" stroke="black" points="192.5,-392.5 192.5,-411.5 291.5,-411.5 291.5,-392.5 192.5,-392.5"/>
<text text-anchor="middle" x="242" y="-399.5" font-family="Helvetica,sans-Serif" font-size="10.00">angledist_tcl.cpp</text>
</g>
<!-- Node2 -->
<g id="node2" class="node"><title>Node2</title>
<g id="a_node2"><a xlink:href="angledist__tcl_8hpp.html" target="_top" xlink:title="Tcl interface for angledist.hpp. ">
<polygon fill="none" stroke="black" points="137,-336.5 137,-355.5 237,-355.5 237,-336.5 137,-336.5"/>
<text text-anchor="middle" x="187" y="-343.5" font-family="Helvetica,sans-Serif" font-size="10.00">angledist_tcl.hpp</text>
</a>
</g>
</g>
<!-- Node1&#45;&gt;Node2 -->
<g id="edge1" class="edge"><title>Node1&#45;&gt;Node2</title>
<path fill="none" stroke="midnightblue" d="M232.918,-392.083C224.829,-384.141 212.805,-372.335 203.09,-362.797"/>
<polygon fill="midnightblue" stroke="midnightblue" points="205.501,-360.26 195.913,-355.751 200.597,-365.254 205.501,-360.26"/>
</g>
<!-- Node24 -->
<g id="node24" class="node"><title>Node24</title>
<g id="a_node24"><a xlink:href="angledist_8hpp.html" target="_top" xlink:title="Routines to calculate the angle and distance dependent (from a constraint) energy or/and and force fo...">
<polygon fill="none" stroke="black" points="255.5,-336.5 255.5,-355.5 338.5,-355.5 338.5,-336.5 255.5,-336.5"/>
<text text-anchor="middle" x="297" y="-343.5" font-family="Helvetica,sans-Serif" font-size="10.00">angledist.hpp</text>
</a>
</g>
</g>
<!-- Node1&#45;&gt;Node24 -->
<g id="edge29" class="edge"><title>Node1&#45;&gt;Node24</title>
<path fill="none" stroke="midnightblue" d="M251.082,-392.083C259.171,-384.141 271.195,-372.335 280.91,-362.797"/>
<polygon fill="midnightblue" stroke="midnightblue" points="283.403,-365.254 288.087,-355.751 278.499,-360.26 283.403,-365.254"/>
</g>
<!-- Node3 -->
<g id="node3" class="node"><title>Node3</title>
<g id="a_node3"><a xlink:href="parser_8hpp.html" target="_top" xlink:title="This file contains macros for parsing the parameters to the &#39;inter&#39; command. ">
<polygon fill="none" stroke="black" points="89,-224.5 89,-243.5 157,-243.5 157,-224.5 89,-224.5"/>
<text text-anchor="middle" x="123" y="-231.5" font-family="Helvetica,sans-Serif" font-size="10.00">parser.hpp</text>
</a>
</g>
</g>
<!-- Node2&#45;&gt;Node3 -->
<g id="edge2" class="edge"><title>Node2&#45;&gt;Node3</title>
<path fill="none" stroke="midnightblue" d="M175.392,-336.233C165.196,-327.949 150.673,-314.638 142,-300 133.479,-285.618 128.562,-267.16 125.874,-253.591"/>
<polygon fill="midnightblue" stroke="midnightblue" points="129.286,-252.784 124.111,-243.539 122.391,-253.994 129.286,-252.784"/>
</g>
<!-- Node22 -->
<g id="node22" class="node"><title>Node22</title>
<g id="a_node22"><a xlink:href="interaction__data_8hpp.html" target="_top" xlink:title="Various procedures concerning interactions between particles. ">
<polygon fill="none" stroke="black" points="151.5,-280.5 151.5,-299.5 268.5,-299.5 268.5,-280.5 151.5,-280.5"/>
<text text-anchor="middle" x="210" y="-287.5" font-family="Helvetica,sans-Serif" font-size="10.00">interaction_data.hpp</text>
</a>
</g>
</g>
<!-- Node2&#45;&gt;Node22 -->
<g id="edge25" class="edge"><title>Node2&#45;&gt;Node22</title>
<path fill="none" stroke="midnightblue" d="M190.798,-336.083C193.913,-328.77 198.423,-318.181 202.289,-309.103"/>
<polygon fill="midnightblue" stroke="midnightblue" points="205.574,-310.323 206.273,-299.751 199.134,-307.58 205.574,-310.323"/>
</g>
<!-- Node4 -->
<g id="node4" class="node"><title>Node4</title>
<g id="a_node4"><a xlink:href="utils_8hpp.html" target="_top" xlink:title="Small functions that are useful not only for one modul. ">
<polygon fill="none" stroke="black" points="246.5,-168.5 246.5,-187.5 305.5,-187.5 305.5,-168.5 246.5,-168.5"/>
<text text-anchor="middle" x="276" y="-175.5" font-family="Helvetica,sans-Serif" font-size="10.00">utils.hpp</text>
</a>
</g>
</g>
<!-- Node3&#45;&gt;Node4 -->
<g id="edge3" class="edge"><title>Node3&#45;&gt;Node4</title>
<path fill="none" stroke="midnightblue" d="M147.243,-224.444C172.871,-215.399 213.485,-201.064 242.238,-190.916"/>
<polygon fill="midnightblue" stroke="midnightblue" points="243.605,-194.145 251.87,-187.516 241.275,-187.544 243.605,-194.145"/>
</g>
<!-- Node8 -->
<g id="node8" class="node"><title>Node8</title>
<polygon fill="none" stroke="#bfbfbf" points="0,-112.5 0,-131.5 50,-131.5 50,-112.5 0,-112.5"/>
<text text-anchor="middle" x="25" y="-119.5" font-family="Helvetica,sans-Serif" font-size="10.00">cstring</text>
</g>
<!-- Node3&#45;&gt;Node8 -->
<g id="edge23" class="edge"><title>Node3&#45;&gt;Node8</title>
<path fill="none" stroke="midnightblue" d="M115.31,-224.368C98.9942,-206.055 60.68,-163.049 39.5774,-139.362"/>
<polygon fill="midnightblue" stroke="midnightblue" points="41.9196,-136.73 32.6542,-131.591 36.6929,-141.386 41.9196,-136.73"/>
</g>
<!-- Node21 -->
<g id="node21" class="node"><title>Node21</title>
<polygon fill="none" stroke="#bfbfbf" points="104,-168.5 104,-187.5 142,-187.5 142,-168.5 104,-168.5"/>
<text text-anchor="middle" x="123" y="-175.5" font-family="Helvetica,sans-Serif" font-size="10.00">tcl.h</text>
</g>
<!-- Node3&#45;&gt;Node21 -->
<g id="edge24" class="edge"><title>Node3&#45;&gt;Node21</title>
<path fill="none" stroke="midnightblue" d="M123,-224.083C123,-217.006 123,-206.861 123,-197.986"/>
<polygon fill="midnightblue" stroke="midnightblue" points="126.5,-197.751 123,-187.751 119.5,-197.751 126.5,-197.751"/>
</g>
<!-- Node5 -->
<g id="node5" class="node"><title>Node5</title>
<polygon fill="none" stroke="#bfbfbf" points="68.5,-112.5 68.5,-131.5 115.5,-131.5 115.5,-112.5 68.5,-112.5"/>
<text text-anchor="middle" x="92" y="-119.5" font-family="Helvetica,sans-Serif" font-size="10.00">cmath</text>
</g>
<!-- Node4&#45;&gt;Node5 -->
<g id="edge4" class="edge"><title>Node4&#45;&gt;Node5</title>
<path fill="none" stroke="midnightblue" d="M246.845,-168.444C213.826,-158.753 160.121,-142.992 125.432,-132.811"/>
<polygon fill="midnightblue" stroke="midnightblue" points="126.334,-129.429 115.753,-129.971 124.363,-136.145 126.334,-129.429"/>
</g>
<!-- Node6 -->
<g id="node6" class="node"><title>Node6</title>
<polygon fill="none" stroke="#bfbfbf" points="134,-112.5 134,-131.5 180,-131.5 180,-112.5 134,-112.5"/>
<text text-anchor="middle" x="157" y="-119.5" font-family="Helvetica,sans-Serif" font-size="10.00">cstdio</text>
</g>
<!-- Node4&#45;&gt;Node6 -->
<g id="edge5" class="edge"><title>Node4&#45;&gt;Node6</title>
<path fill="none" stroke="midnightblue" d="M257.144,-168.444C237.734,-159.636 207.27,-145.812 185.035,-135.722"/>
<polygon fill="midnightblue" stroke="midnightblue" points="186.32,-132.462 175.768,-131.516 183.428,-138.836 186.32,-132.462"/>
</g>
<!-- Node7 -->
<g id="node7" class="node"><title>Node7</title>
<polygon fill="none" stroke="#bfbfbf" points="198.5,-112.5 198.5,-131.5 247.5,-131.5 247.5,-112.5 198.5,-112.5"/>
<text text-anchor="middle" x="223" y="-119.5" font-family="Helvetica,sans-Serif" font-size="10.00">cstdlib</text>
</g>
<!-- Node4&#45;&gt;Node7 -->
<g id="edge6" class="edge"><title>Node4&#45;&gt;Node7</title>
<path fill="none" stroke="midnightblue" d="M267.248,-168.083C259.53,-160.22 248.095,-148.569 238.783,-139.081"/>
<polygon fill="midnightblue" stroke="midnightblue" points="241.092,-136.436 231.589,-131.751 236.096,-141.34 241.092,-136.436"/>
</g>
<!-- Node4&#45;&gt;Node8 -->
<g id="edge7" class="edge"><title>Node4&#45;&gt;Node8</title>
<path fill="none" stroke="midnightblue" d="M246.405,-171.392C206.329,-163.682 132.367,-149.049 59.9537,-132.129"/>
<polygon fill="midnightblue" stroke="midnightblue" points="60.7486,-128.721 50.2127,-129.837 59.145,-135.535 60.7486,-128.721"/>
</g>
<!-- Node9 -->
<g id="node9" class="node"><title>Node9</title>
<g id="a_node9"><a xlink:href="config_8hpp.html" target="_top" xlink:title="This file contains the defaults for Espresso. ">
<polygon fill="none" stroke="black" points="346.5,-56.5 346.5,-75.5 413.5,-75.5 413.5,-56.5 346.5,-56.5"/>
<text text-anchor="middle" x="380" y="-63.5" font-family="Helvetica,sans-Serif" font-size="10.00">config.hpp</text>
</a>
</g>
</g>
<!-- Node4&#45;&gt;Node9 -->
<g id="edge8" class="edge"><title>Node4&#45;&gt;Node9</title>
<path fill="none" stroke="midnightblue" d="M276.419,-168.446C277.494,-155.009 281.328,-128.765 295,-112 307.086,-97.1808 325.369,-86.6148 341.886,-79.4623"/>
<polygon fill="midnightblue" stroke="midnightblue" points="343.387,-82.631 351.347,-75.6392 340.764,-76.1409 343.387,-82.631"/>
</g>
<!-- Node13 -->
<g id="node13" class="node"><title>Node13</title>
<g id="a_node13"><a xlink:href="debug_8hpp.html" target="_top" xlink:title="This file controls debug facilities. ">
<polygon fill="none" stroke="black" points="304,-112.5 304,-131.5 372,-131.5 372,-112.5 304,-112.5"/>
<text text-anchor="middle" x="338" y="-119.5" font-family="Helvetica,sans-Serif" font-size="10.00">debug.hpp</text>
</a>
</g>
</g>
<!-- Node4&#45;&gt;Node13 -->
<g id="edge12" class="edge"><title>Node4&#45;&gt;Node13</title>
<path fill="none" stroke="midnightblue" d="M285.961,-168.324C295.127,-160.341 308.937,-148.313 320.028,-138.653"/>
<polygon fill="midnightblue" stroke="midnightblue" points="322.615,-141.041 327.857,-131.834 318.018,-135.762 322.615,-141.041"/>
</g>
<!-- Node14 -->
<g id="node14" class="node"><title>Node14</title>
<g id="a_node14"><a xlink:href="lees__edwards_8hpp.html" target="_top" xlink:title="lees_edwards.hpp">
<polygon fill="none" stroke="black" points="390,-112.5 390,-131.5 494,-131.5 494,-112.5 390,-112.5"/>
<text text-anchor="middle" x="442" y="-119.5" font-family="Helvetica,sans-Serif" font-size="10.00">lees_edwards.hpp</text>
</a>
</g>
</g>
<!-- Node4&#45;&gt;Node14 -->
<g id="edge14" class="edge"><title>Node4&#45;&gt;Node14</title>
<path fill="none" stroke="midnightblue" d="M302.303,-168.444C330.351,-159.32 374.944,-144.813 406.184,-134.651"/>
<polygon fill="midnightblue" stroke="midnightblue" points="407.393,-137.938 415.82,-131.516 405.228,-131.282 407.393,-137.938"/>
</g>
<!-- Node15 -->
<g id="node15" class="node"><title>Node15</title>
<g id="a_node15"><a xlink:href="errorhandling_8hpp.html" target="_top" xlink:title="This file contains the errorhandling code for severe errors, like a broken bond or illegal parameter ...">
<polygon fill="none" stroke="black" points="512.5,-112.5 512.5,-131.5 615.5,-131.5 615.5,-112.5 512.5,-112.5"/>
<text text-anchor="middle" x="564" y="-119.5" font-family="Helvetica,sans-Serif" font-size="10.00">errorhandling.hpp</text>
</a>
</g>
</g>
<!-- Node4&#45;&gt;Node15 -->
<g id="edge16" class="edge"><title>Node4&#45;&gt;Node15</title>
<path fill="none" stroke="midnightblue" d="M305.736,-171.424C353.423,-162.483 447.767,-144.794 508.268,-133.45"/>
<polygon fill="midnightblue" stroke="midnightblue" points="509.229,-136.831 518.413,-131.548 507.939,-129.951 509.229,-136.831"/>
</g>
<!-- Node19 -->
<g id="node19" class="node"><title>Node19</title>
<polygon fill="none" stroke="#bfbfbf" points="633.5,-112.5 633.5,-131.5 680.5,-131.5 680.5,-112.5 633.5,-112.5"/>
<text text-anchor="middle" x="657" y="-119.5" font-family="Helvetica,sans-Serif" font-size="10.00">vector</text>
</g>
<!-- Node4&#45;&gt;Node19 -->
<g id="edge21" class="edge"><title>Node4&#45;&gt;Node19</title>
<path fill="none" stroke="midnightblue" d="M305.655,-174.647C364.557,-169.66 500.552,-156.583 623.38,-132.088"/>
<polygon fill="midnightblue" stroke="midnightblue" points="624.223,-135.489 633.329,-130.073 622.833,-128.628 624.223,-135.489"/>
</g>
<!-- Node20 -->
<g id="node20" class="node"><title>Node20</title>
<polygon fill="none" stroke="#bfbfbf" points="698.5,-112.5 698.5,-131.5 763.5,-131.5 763.5,-112.5 698.5,-112.5"/>
<text text-anchor="middle" x="731" y="-119.5" font-family="Helvetica,sans-Serif" font-size="10.00">exception</text>
</g>
<!-- Node4&#45;&gt;Node20 -->
<g id="edge22" class="edge"><title>Node4&#45;&gt;Node20</title>
<path fill="none" stroke="midnightblue" d="M305.512,-174.891C372.061,-169.902 539.039,-156.075 688.139,-132.156"/>
<polygon fill="midnightblue" stroke="midnightblue" points="689.078,-135.549 698.387,-130.491 687.956,-128.64 689.078,-135.549"/>
</g>
<!-- Node10 -->
<g id="node10" class="node"><title>Node10</title>
<g id="a_node10"><a xlink:href="acconfig_8hpp.html" target="_top" xlink:title="acconfig.hpp">
<polygon fill="none" stroke="black" points="230,-0.5 230,-19.5 308,-19.5 308,-0.5 230,-0.5"/>
<text text-anchor="middle" x="269" y="-7.5" font-family="Helvetica,sans-Serif" font-size="10.00">acconfig.hpp</text>
</a>
</g>
</g>
<!-- Node9&#45;&gt;Node10 -->
<g id="edge9" class="edge"><title>Node9&#45;&gt;Node10</title>
<path fill="none" stroke="midnightblue" d="M362.166,-56.324C344.284,-47.6247 316.525,-34.1202 295.954,-24.113"/>
<polygon fill="midnightblue" stroke="midnightblue" points="297.313,-20.8819 286.79,-19.6545 294.251,-27.1765 297.313,-20.8819"/>
</g>
<!-- Node11 -->
<g id="node11" class="node"><title>Node11</title>
<g id="a_node11"><a xlink:href="myconfig-final_8hpp.html" target="_top" xlink:title="myconfig&#45;final.hpp">
<polygon fill="none" stroke="black" points="326.5,-0.5 326.5,-19.5 433.5,-19.5 433.5,-0.5 326.5,-0.5"/>
<text text-anchor="middle" x="380" y="-7.5" font-family="Helvetica,sans-Serif" font-size="10.00">myconfig&#45;final.hpp</text>
</a>
</g>
</g>
<!-- Node9&#45;&gt;Node11 -->
<g id="edge10" class="edge"><title>Node9&#45;&gt;Node11</title>
<path fill="none" stroke="midnightblue" d="M380,-56.083C380,-49.0059 380,-38.8611 380,-29.9865"/>
<polygon fill="midnightblue" stroke="midnightblue" points="383.5,-29.751 380,-19.7511 376.5,-29.7511 383.5,-29.751"/>
</g>
<!-- Node12 -->
<g id="node12" class="node"><title>Node12</title>
<g id="a_node12"><a xlink:href="config-features_8hpp.html" target="_top" xlink:title="config&#45;features.hpp">
<polygon fill="none" stroke="black" points="451.5,-0.5 451.5,-19.5 562.5,-19.5 562.5,-0.5 451.5,-0.5"/>
<text text-anchor="middle" x="507" y="-7.5" font-family="Helvetica,sans-Serif" font-size="10.00">config&#45;features.hpp</text>
</a>
</g>
</g>
<!-- Node9&#45;&gt;Node12 -->
<g id="edge11" class="edge"><title>Node9&#45;&gt;Node12</title>
<path fill="none" stroke="midnightblue" d="M400.124,-56.4435C421.024,-47.5566 453.935,-33.5632 477.716,-23.4514"/>
<polygon fill="midnightblue" stroke="midnightblue" points="479.138,-26.6504 486.971,-19.5164 476.398,-20.2085 479.138,-26.6504"/>
</g>
<!-- Node13&#45;&gt;Node9 -->
<g id="edge13" class="edge"><title>Node13&#45;&gt;Node9</title>
<path fill="none" stroke="midnightblue" d="M344.935,-112.083C350.929,-104.377 359.752,-93.0333 367.048,-83.6531"/>
<polygon fill="midnightblue" stroke="midnightblue" points="369.817,-85.7934 373.194,-75.7511 364.291,-81.4958 369.817,-85.7934"/>
</g>
<!-- Node14&#45;&gt;Node9 -->
<g id="edge15" class="edge"><title>Node14&#45;&gt;Node9</title>
<path fill="none" stroke="midnightblue" d="M432.039,-112.324C422.873,-104.341 409.063,-92.3128 397.972,-82.6529"/>
<polygon fill="midnightblue" stroke="midnightblue" points="399.982,-79.7624 390.143,-75.8339 395.385,-85.041 399.982,-79.7624"/>
</g>
<!-- Node15&#45;&gt;Node9 -->
<g id="edge17" class="edge"><title>Node15&#45;&gt;Node9</title>
<path fill="none" stroke="midnightblue" d="M534.845,-112.444C503.487,-103.241 453.469,-88.5617 418.803,-78.3879"/>
<polygon fill="midnightblue" stroke="midnightblue" points="419.6,-74.9742 409.019,-75.5164 417.629,-81.6909 419.6,-74.9742"/>
</g>
<!-- Node16 -->
<g id="node16" class="node"><title>Node16</title>
<polygon fill="none" stroke="#bfbfbf" points="474,-56.5 474,-75.5 518,-75.5 518,-56.5 474,-56.5"/>
<text text-anchor="middle" x="496" y="-63.5" font-family="Helvetica,sans-Serif" font-size="10.00">string</text>
</g>
<!-- Node15&#45;&gt;Node16 -->
<g id="edge18" class="edge"><title>Node15&#45;&gt;Node16</title>
<path fill="none" stroke="midnightblue" d="M553.075,-112.324C542.825,-104.185 527.279,-91.8395 514.999,-82.0874"/>
<polygon fill="midnightblue" stroke="midnightblue" points="517.132,-79.3119 507.124,-75.8339 512.779,-84.7937 517.132,-79.3119"/>
</g>
<!-- Node17 -->
<g id="node17" class="node"><title>Node17</title>
<polygon fill="none" stroke="#bfbfbf" points="536,-56.5 536,-75.5 592,-75.5 592,-56.5 536,-56.5"/>
<text text-anchor="middle" x="564" y="-63.5" font-family="Helvetica,sans-Serif" font-size="10.00">sstream</text>
</g>
<!-- Node15&#45;&gt;Node17 -->
<g id="edge19" class="edge"><title>Node15&#45;&gt;Node17</title>
<path fill="none" stroke="midnightblue" d="M564,-112.083C564,-105.006 564,-94.8611 564,-85.9865"/>
<polygon fill="midnightblue" stroke="midnightblue" points="567.5,-85.751 564,-75.7511 560.5,-85.7511 567.5,-85.751"/>
</g>
<!-- Node18 -->
<g id="node18" class="node"><title>Node18</title>
<polygon fill="none" stroke="#bfbfbf" points="610,-56.5 610,-75.5 642,-75.5 642,-56.5 610,-56.5"/>
<text text-anchor="middle" x="626" y="-63.5" font-family="Helvetica,sans-Serif" font-size="10.00">list</text>
</g>
<!-- Node15&#45;&gt;Node18 -->
<g id="edge20" class="edge"><title>Node15&#45;&gt;Node18</title>
<path fill="none" stroke="midnightblue" d="M573.961,-112.324C583.127,-104.341 596.937,-92.3128 608.028,-82.6529"/>
<polygon fill="midnightblue" stroke="midnightblue" points="610.615,-85.041 615.857,-75.8339 606.018,-79.7624 610.615,-85.041"/>
</g>
<!-- Node22&#45;&gt;Node4 -->
<g id="edge26" class="edge"><title>Node22&#45;&gt;Node4</title>
<path fill="none" stroke="midnightblue" d="M208.692,-280.359C207.15,-267.262 205.937,-242.004 216,-224 223.391,-210.776 236.457,-200.278 248.512,-192.759"/>
<polygon fill="midnightblue" stroke="midnightblue" points="250.527,-195.636 257.424,-187.594 247.017,-189.58 250.527,-195.636"/>
</g>
<!-- Node23 -->
<g id="node23" class="node"><title>Node23</title>
<g id="a_node23"><a xlink:href="particle__data_8hpp.html" target="_top" xlink:title="For more information on particle_data, see particle_data.c. ">
<polygon fill="none" stroke="black" points="225.5,-224.5 225.5,-243.5 326.5,-243.5 326.5,-224.5 225.5,-224.5"/>
<text text-anchor="middle" x="276" y="-231.5" font-family="Helvetica,sans-Serif" font-size="10.00">particle_data.hpp</text>
</a>
</g>
</g>
<!-- Node22&#45;&gt;Node23 -->
<g id="edge27" class="edge"><title>Node22&#45;&gt;Node23</title>
<path fill="none" stroke="midnightblue" d="M220.604,-280.324C230.456,-272.263 245.351,-260.077 257.215,-250.369"/>
<polygon fill="midnightblue" stroke="midnightblue" points="259.68,-252.875 265.203,-243.834 255.247,-247.457 259.68,-252.875"/>
</g>
<!-- Node23&#45;&gt;Node4 -->
<g id="edge28" class="edge"><title>Node23&#45;&gt;Node4</title>
<path fill="none" stroke="midnightblue" d="M276,-224.083C276,-217.006 276,-206.861 276,-197.986"/>
<polygon fill="midnightblue" stroke="midnightblue" points="279.5,-197.751 276,-187.751 272.5,-197.751 279.5,-197.751"/>
</g>
<!-- Node24&#45;&gt;Node4 -->
<g id="edge30" class="edge"><title>Node24&#45;&gt;Node4</title>
<path fill="none" stroke="midnightblue" d="M303.993,-336.441C319.664,-316.154 354.73,-263.862 335,-224 328.397,-210.659 315.735,-200.194 303.829,-192.726"/>
<polygon fill="midnightblue" stroke="midnightblue" points="305.391,-189.587 294.984,-187.602 301.882,-195.643 305.391,-189.587"/>
</g>
<!-- Node24&#45;&gt;Node22 -->
<g id="edge31" class="edge"><title>Node24&#45;&gt;Node22</title>
<path fill="none" stroke="midnightblue" d="M283.022,-336.324C269.45,-327.9 248.62,-314.971 232.675,-305.074"/>
<polygon fill="midnightblue" stroke="midnightblue" points="234.286,-301.954 223.943,-299.655 230.594,-307.902 234.286,-301.954"/>
</g>
<!-- Node24&#45;&gt;Node23 -->
<g id="edge32" class="edge"><title>Node24&#45;&gt;Node23</title>
<path fill="none" stroke="midnightblue" d="M295.352,-336.368C291.963,-318.617 284.145,-277.666 279.55,-253.597"/>
<polygon fill="midnightblue" stroke="midnightblue" points="282.953,-252.758 277.64,-243.591 276.078,-254.07 282.953,-252.758"/>
</g>
</g>
</svg>
        <g id="navigator" transform="translate(0 0)" fill="#404254">
                <rect fill="#f2f5e9" fill-opacity="0.5" stroke="#606060" stroke-width=".5" x="0" y="0" width="60" height="60"/>
                <use id="zoomplus" xlink:href="#zoomPlus" x="17" y="9" onmousedown="handleZoom(evt,'in')"/>
                <use id="zoomminus" xlink:href="#zoomMin" x="42" y="9" onmousedown="handleZoom(evt,'out')"/>
                <use id="reset" xlink:href="#resetDef" x="30" y="36" onmousedown="handleReset()"/>
                <g id="arrowUp" xlink:href="#dirArrow" transform="translate(30 24)" onmousedown="handlePan(0,-1)">
                  <use xlink:href="#rim" fill="#404040">
                        <set attributeName="fill" to="#808080" begin="arrowUp.mouseover" end="arrowUp.mouseout"/>
                  </use>
                  <path fill="none" stroke="white" stroke-width="1.5" d="M0,-3.0v7 M-2.5,-0.5L0,-3.0L2.5,-0.5"/>
                </g>
                <g id="arrowRight" xlink:href="#dirArrow" transform="rotate(90) translate(36 -43)" onmousedown="handlePan(1,0)">
                  <use xlink:href="#rim" fill="#404040">
                        <set attributeName="fill" to="#808080" begin="arrowRight.mouseover" end="arrowRight.mouseout"/>
                  </use>
                  <path fill="none" stroke="white" stroke-width="1.5" d="M0,-3.0v7 M-2.5,-0.5L0,-3.0L2.5,-0.5"/>
                </g>
                <g id="arrowDown" xlink:href="#dirArrow" transform="rotate(180) translate(-30 -48)" onmousedown="handlePan(0,1)">
                  <use xlink:href="#rim" fill="#404040">
                        <set attributeName="fill" to="#808080" begin="arrowDown.mouseover" end="arrowDown.mouseout"/>
                  </use>
                  <path fill="none" stroke="white" stroke-width="1.5" d="M0,-3.0v7 M-2.5,-0.5L0,-3.0L2.5,-0.5"/>
                </g>
                <g id="arrowLeft" xlink:href="#dirArrow" transform="rotate(270) translate(-36 17)" onmousedown="handlePan(-1,0)">
                  <use xlink:href="#rim" fill="#404040">
                        <set attributeName="fill" to="#808080" begin="arrowLeft.mouseover" end="arrowLeft.mouseout"/>
                  </use>
                  <path fill="none" stroke="white" stroke-width="1.5" d="M0,-3.0v7 M-2.5,-0.5L0,-3.0L2.5,-0.5"/>
                </g>
        </g>
        <svg viewBox="0 0 15 15" width="100%" height="30px" preserveAspectRatio="xMaxYMin meet">
         <g id="arrow_out" transform="scale(0.3 0.3)">
          <a xlink:href="angledist__tcl_8cpp__incl_org.svg" target="_base">
           <rect id="button" ry="5" rx="5" y="6" x="6" height="38" width="38"
                fill="#f2f5e9" fill-opacity="0.5" stroke="#606060" stroke-width="1.0"/>
           <path id="arrow"
             d="M 11.500037,31.436501 C 11.940474,20.09759 22.043105,11.32322 32.158766,21.979434 L 37.068811,17.246167 C 37.068811,17.246167 37.088388,32 37.088388,32 L 22.160133,31.978069 C 22.160133,31.978069 26.997745,27.140456 26.997745,27.140456 C 18.528582,18.264221 13.291696,25.230495 11.500037,31.436501 z"
             style="fill:#404040;"/>
          </a>
         </g>
        </svg>
</svg>
