<?xml version="1.0" encoding="UTF-8" standalone="no"?>
<!DOCTYPE svg PUBLIC "-//W3C//DTD SVG 1.1//EN"
 "http://www.w3.org/Graphics/SVG/1.1/DTD/svg11.dtd">
<!-- Generated by graphviz version 2.38.0 (20140413.2041)
 -->
<!-- Title: angle_cossquare_tcl.cpp Pages: 1 -->
<!--zoomable 476 -->
<svg id="main" version="1.1" xmlns="http://www.w3.org/2000/svg" xmlns:xlink="http://www.w3.org/1999/xlink" xml:space="preserve" onload="init(evt)">
<style type="text/css"><![CDATA[
.edge:hover path { stroke: red; }
.edge:hover polygon { stroke: red; fill: red; }
]]></style>
<script type="text/javascript"><![CDATA[
var edges = document.getElementsByTagName('g');
if (edges && edges.length) {
  for (var i=0;i<edges.length;i++) {
    if (edges[i].id.substr(0,4)=='edge') {
      edges[i].setAttribute('class','edge');
    }
  }
}
]]></script>
        <defs>
                <circle id="rim" cx="0" cy="0" r="7"/>
                <circle id="rim2" cx="0" cy="0" r="3.5"/>
                <g id="zoomPlus">
                        <use xlink:href="#rim" fill="#404040">
                                <set attributeName="fill" to="#808080" begin="zoomplus.mouseover" end="zoomplus.mouseout"/>
                        </use>
                        <path d="M-4,0h8M0,-4v8" fill="none" stroke="white" stroke-width="1.5" pointer-events="none"/>
                </g>
                <g id="zoomMin">
                        <use xlink:href="#rim" fill="#404040">
                                <set attributeName="fill" to="#808080" begin="zoomminus.mouseover" end="zoomminus.mouseout"/>
                        </use>
                        <path d="M-4,0h8" fill="none" stroke="white" stroke-width="1.5" pointer-events="none"/>
                </g>
                <g id="dirArrow">
                        <path fill="none" stroke="white" stroke-width="1.5" d="M0,-3.0v7 M-2.5,-0.5L0,-3.0L2.5,-0.5"/>
                </g>
               <g id="resetDef">
                       <use xlink:href="#rim2" fill="#404040">
                               <set attributeName="fill" to="#808080" begin="reset.mouseover" end="reset.mouseout"/>
                       </use>
               </g>
        </defs>

<script type="text/javascript">
var viewWidth = 943;
var viewHeight = 476;
var sectionId = 'dynsection-0';
</script>
<script xlink:href="svgpan.js"/>
<svg id="graph" class="graph">
<g id="viewport">
<title>angle_cossquare_tcl.cpp</title>
<!-- Node1 -->
<g id="node1" class="node"><title>Node1</title>
<polygon fill="#bfbfbf" stroke="black" points="305,-448.5 305,-467.5 441,-467.5 441,-448.5 305,-448.5"/>
<text text-anchor="middle" x="373" y="-455.5" font-family="Helvetica,sans-Serif" font-size="10.00">angle_cossquare_tcl.cpp</text>
</g>
<!-- Node2 -->
<g id="node2" class="node"><title>Node2</title>
<g id="a_node2"><a xlink:href="angle__cossquare__tcl_8hpp.html" target="_top" xlink:title="Tcl interface for angle_cossquare.hpp. ">
<polygon fill="none" stroke="black" points="150.5,-336.5 150.5,-355.5 287.5,-355.5 287.5,-336.5 150.5,-336.5"/>
<text text-anchor="middle" x="219" y="-343.5" font-family="Helvetica,sans-Serif" font-size="10.00">angle_cossquare_tcl.hpp</text>
</a>
</g>
</g>
<!-- Node1&#45;&gt;Node2 -->
<g id="edge1" class="edge"><title>Node1&#45;&gt;Node2</title>
<path fill="none" stroke="midnightblue" d="M359.314,-448.5C345.245,-439.664 322.802,-425.292 304,-412 280.748,-395.562 254.868,-375.506 237.842,-362.057"/>
<polygon fill="midnightblue" stroke="midnightblue" points="239.816,-359.155 229.807,-355.681 235.465,-364.639 239.816,-359.155"/>
</g>
<!-- Node24 -->
<g id="node24" class="node"><title>Node24</title>
<g id="a_node24"><a xlink:href="angle__cossquare_8hpp.html" target="_top" xlink:title="Routines to calculate the angle energy or/and and force for a particle triple. ">
<polygon fill="none" stroke="black" points="313.5,-392.5 313.5,-411.5 432.5,-411.5 432.5,-392.5 313.5,-392.5"/>
<text text-anchor="middle" x="373" y="-399.5" font-family="Helvetica,sans-Serif" font-size="10.00">angle_cossquare.hpp</text>
</a>
</g>
</g>
<!-- Node1&#45;&gt;Node24 -->
<g id="edge29" class="edge"><title>Node1&#45;&gt;Node24</title>
<path fill="none" stroke="midnightblue" d="M373,-448.083C373,-441.006 373,-430.861 373,-421.986"/>
<polygon fill="midnightblue" stroke="midnightblue" points="376.5,-421.751 373,-411.751 369.5,-421.751 376.5,-421.751"/>
</g>
<!-- Node27 -->
<g id="node27" class="node"><title>Node27</title>
<g id="a_node27"><a xlink:href="communication_8hpp.html" target="_top" xlink:title="This file contains the asynchronous MPI communication. ">
<polygon fill="none" stroke="black" points="526.5,-280.5 526.5,-299.5 639.5,-299.5 639.5,-280.5 526.5,-280.5"/>
<text text-anchor="middle" x="583" y="-287.5" font-family="Helvetica,sans-Serif" font-size="10.00">communication.hpp</text>
</a>
</g>
</g>
<!-- Node1&#45;&gt;Node27 -->
<g id="edge50" class="edge"><title>Node1&#45;&gt;Node27</title>
<path fill="none" stroke="midnightblue" d="M386.119,-448.496C399.875,-439.539 422.08,-424.961 441,-412 476.505,-387.677 487.329,-384.015 520,-356 537.783,-340.751 556.217,-321.222 568.514,-307.568"/>
<polygon fill="midnightblue" stroke="midnightblue" points="571.288,-309.715 575.317,-299.916 566.057,-305.064 571.288,-309.715"/>
</g>
<!-- Node3 -->
<g id="node3" class="node"><title>Node3</title>
<g id="a_node3"><a xlink:href="parser_8hpp.html" target="_top" xlink:title="This file contains macros for parsing the parameters to the &#39;inter&#39; command. ">
<polygon fill="none" stroke="black" points="138,-224.5 138,-243.5 206,-243.5 206,-224.5 138,-224.5"/>
<text text-anchor="middle" x="172" y="-231.5" font-family="Helvetica,sans-Serif" font-size="10.00">parser.hpp</text>
</a>
</g>
</g>
<!-- Node2&#45;&gt;Node3 -->
<g id="edge2" class="edge"><title>Node2&#45;&gt;Node3</title>
<path fill="none" stroke="midnightblue" d="M213.816,-336.231C208.659,-327.301 200.712,-312.964 195,-300 188.213,-284.596 181.942,-266.501 177.668,-253.321"/>
<polygon fill="midnightblue" stroke="midnightblue" points="180.937,-252.048 174.581,-243.571 174.263,-254.162 180.937,-252.048"/>
</g>
<!-- Node22 -->
<g id="node22" class="node"><title>Node22</title>
<g id="a_node22"><a xlink:href="interaction__data_8hpp.html" target="_top" xlink:title="Various procedures concerning interactions between particles. ">
<polygon fill="none" stroke="black" points="204.5,-280.5 204.5,-299.5 321.5,-299.5 321.5,-280.5 204.5,-280.5"/>
<text text-anchor="middle" x="263" y="-287.5" font-family="Helvetica,sans-Serif" font-size="10.00">interaction_data.hpp</text>
</a>
</g>
</g>
<!-- Node2&#45;&gt;Node22 -->
<g id="edge25" class="edge"><title>Node2&#45;&gt;Node22</title>
<path fill="none" stroke="midnightblue" d="M226.266,-336.083C232.545,-328.377 241.788,-317.033 249.431,-307.653"/>
<polygon fill="midnightblue" stroke="midnightblue" points="252.266,-309.714 255.869,-299.751 246.839,-305.293 252.266,-309.714"/>
</g>
<!-- Node4 -->
<g id="node4" class="node"><title>Node4</title>
<g id="a_node4"><a xlink:href="utils_8hpp.html" target="_top" xlink:title="Small functions that are useful not only for one modul. ">
<polygon fill="none" stroke="black" points="362.5,-168.5 362.5,-187.5 421.5,-187.5 421.5,-168.5 362.5,-168.5"/>
<text text-anchor="middle" x="392" y="-175.5" font-family="Helvetica,sans-Serif" font-size="10.00">utils.hpp</text>
</a>
</g>
</g>
<!-- Node3&#45;&gt;Node4 -->
<g id="edge3" class="edge"><title>Node3&#45;&gt;Node4</title>
<path fill="none" stroke="midnightblue" d="M206.375,-224.562C246.009,-214.834 311.03,-198.875 352.653,-188.658"/>
<polygon fill="midnightblue" stroke="midnightblue" points="353.567,-192.038 362.444,-186.255 351.898,-185.239 353.567,-192.038"/>
</g>
<!-- Node8 -->
<g id="node8" class="node"><title>Node8</title>
<polygon fill="none" stroke="#bfbfbf" points="0,-112.5 0,-131.5 50,-131.5 50,-112.5 0,-112.5"/>
<text text-anchor="middle" x="25" y="-119.5" font-family="Helvetica,sans-Serif" font-size="10.00">cstring</text>
</g>
<!-- Node3&#45;&gt;Node8 -->
<g id="edge23" class="edge"><title>Node3&#45;&gt;Node8</title>
<path fill="none" stroke="midnightblue" d="M160.465,-224.368C135.455,-205.653 75.9834,-161.151 44.8215,-137.832"/>
<polygon fill="midnightblue" stroke="midnightblue" points="46.5848,-134.78 36.4813,-131.591 42.3908,-140.385 46.5848,-134.78"/>
</g>
<!-- Node21 -->
<g id="node21" class="node"><title>Node21</title>
<polygon fill="none" stroke="#bfbfbf" points="153,-168.5 153,-187.5 191,-187.5 191,-168.5 153,-168.5"/>
<text text-anchor="middle" x="172" y="-175.5" font-family="Helvetica,sans-Serif" font-size="10.00">tcl.h</text>
</g>
<!-- Node3&#45;&gt;Node21 -->
<g id="edge24" class="edge"><title>Node3&#45;&gt;Node21</title>
<path fill="none" stroke="midnightblue" d="M172,-224.083C172,-217.006 172,-206.861 172,-197.986"/>
<polygon fill="midnightblue" stroke="midnightblue" points="175.5,-197.751 172,-187.751 168.5,-197.751 175.5,-197.751"/>
</g>
<!-- Node5 -->
<g id="node5" class="node"><title>Node5</title>
<polygon fill="none" stroke="#bfbfbf" points="529.5,-112.5 529.5,-131.5 576.5,-131.5 576.5,-112.5 529.5,-112.5"/>
<text text-anchor="middle" x="553" y="-119.5" font-family="Helvetica,sans-Serif" font-size="10.00">cmath</text>
</g>
<!-- Node4&#45;&gt;Node5 -->
<g id="edge4" class="edge"><title>Node4&#45;&gt;Node5</title>
<path fill="none" stroke="midnightblue" d="M417.511,-168.444C445.154,-159.172 489.367,-144.343 519.723,-134.161"/>
<polygon fill="midnightblue" stroke="midnightblue" points="521.074,-137.4 529.442,-130.902 518.848,-130.763 521.074,-137.4"/>
</g>
<!-- Node6 -->
<g id="node6" class="node"><title>Node6</title>
<polygon fill="none" stroke="#bfbfbf" points="154,-112.5 154,-131.5 200,-131.5 200,-112.5 154,-112.5"/>
<text text-anchor="middle" x="177" y="-119.5" font-family="Helvetica,sans-Serif" font-size="10.00">cstdio</text>
</g>
<!-- Node4&#45;&gt;Node6 -->
<g id="edge5" class="edge"><title>Node4&#45;&gt;Node6</title>
<path fill="none" stroke="midnightblue" d="M362.448,-170.051C328.117,-161.908 269.539,-147.803 209.996,-132.199"/>
<polygon fill="midnightblue" stroke="midnightblue" points="210.609,-128.741 200.047,-129.58 208.827,-135.511 210.609,-128.741"/>
</g>
<!-- Node7 -->
<g id="node7" class="node"><title>Node7</title>
<polygon fill="none" stroke="#bfbfbf" points="218.5,-112.5 218.5,-131.5 267.5,-131.5 267.5,-112.5 218.5,-112.5"/>
<text text-anchor="middle" x="243" y="-119.5" font-family="Helvetica,sans-Serif" font-size="10.00">cstdlib</text>
</g>
<!-- Node4&#45;&gt;Node7 -->
<g id="edge6" class="edge"><title>Node4&#45;&gt;Node7</title>
<path fill="none" stroke="midnightblue" d="M368.391,-168.444C343.542,-159.438 304.226,-145.189 276.246,-135.049"/>
<polygon fill="midnightblue" stroke="midnightblue" points="277.093,-131.633 266.499,-131.516 274.708,-138.214 277.093,-131.633"/>
</g>
<!-- Node4&#45;&gt;Node8 -->
<g id="edge7" class="edge"><title>Node4&#45;&gt;Node8</title>
<path fill="none" stroke="midnightblue" d="M362.396,-174.249C305.596,-168.704 177.268,-154.885 60.029,-131.988"/>
<polygon fill="midnightblue" stroke="midnightblue" points="60.6589,-128.545 50.1695,-130.036 59.299,-135.412 60.6589,-128.545"/>
</g>
<!-- Node9 -->
<g id="node9" class="node"><title>Node9</title>
<g id="a_node9"><a xlink:href="config_8hpp.html" target="_top" xlink:title="This file contains the defaults for Espresso. ">
<polygon fill="none" stroke="black" points="384.5,-56.5 384.5,-75.5 451.5,-75.5 451.5,-56.5 384.5,-56.5"/>
<text text-anchor="middle" x="418" y="-63.5" font-family="Helvetica,sans-Serif" font-size="10.00">config.hpp</text>
</a>
</g>
</g>
<!-- Node4&#45;&gt;Node9 -->
<g id="edge8" class="edge"><title>Node4&#45;&gt;Node9</title>
<path fill="none" stroke="midnightblue" d="M394.04,-168.368C398.236,-150.617 407.915,-109.666 413.604,-85.5974"/>
<polygon fill="midnightblue" stroke="midnightblue" points="417.075,-86.1284 415.969,-75.5914 410.263,-84.5182 417.075,-86.1284"/>
</g>
<!-- Node13 -->
<g id="node13" class="node"><title>Node13</title>
<g id="a_node13"><a xlink:href="debug_8hpp.html" target="_top" xlink:title="This file controls debug facilities. ">
<polygon fill="none" stroke="black" points="68,-112.5 68,-131.5 136,-131.5 136,-112.5 68,-112.5"/>
<text text-anchor="middle" x="102" y="-119.5" font-family="Helvetica,sans-Serif" font-size="10.00">debug.hpp</text>
</a>
</g>
</g>
<!-- Node4&#45;&gt;Node13 -->
<g id="edge12" class="edge"><title>Node4&#45;&gt;Node13</title>
<path fill="none" stroke="midnightblue" d="M362.297,-171.847C317.63,-164.041 230.266,-148.558 146.216,-132.2"/>
<polygon fill="midnightblue" stroke="midnightblue" points="146.737,-128.735 136.251,-130.253 145.395,-135.605 146.737,-128.735"/>
</g>
<!-- Node14 -->
<g id="node14" class="node"><title>Node14</title>
<g id="a_node14"><a xlink:href="lees__edwards_8hpp.html" target="_top" xlink:title="lees_edwards.hpp">
<polygon fill="none" stroke="black" points="286,-112.5 286,-131.5 390,-131.5 390,-112.5 286,-112.5"/>
<text text-anchor="middle" x="338" y="-119.5" font-family="Helvetica,sans-Serif" font-size="10.00">lees_edwards.hpp</text>
</a>
</g>
</g>
<!-- Node4&#45;&gt;Node14 -->
<g id="edge14" class="edge"><title>Node4&#45;&gt;Node14</title>
<path fill="none" stroke="midnightblue" d="M383.083,-168.083C375.22,-160.22 363.569,-148.569 354.081,-139.081"/>
<polygon fill="midnightblue" stroke="midnightblue" points="356.297,-136.347 346.751,-131.751 351.347,-141.297 356.297,-136.347"/>
</g>
<!-- Node15 -->
<g id="node15" class="node"><title>Node15</title>
<g id="a_node15"><a xlink:href="errorhandling_8hpp.html" target="_top" xlink:title="This file contains the errorhandling code for severe errors, like a broken bond or illegal parameter ...">
<polygon fill="none" stroke="black" points="698.5,-112.5 698.5,-131.5 801.5,-131.5 801.5,-112.5 698.5,-112.5"/>
<text text-anchor="middle" x="750" y="-119.5" font-family="Helvetica,sans-Serif" font-size="10.00">errorhandling.hpp</text>
</a>
</g>
</g>
<!-- Node4&#45;&gt;Node15 -->
<g id="edge16" class="edge"><title>Node4&#45;&gt;Node15</title>
<path fill="none" stroke="midnightblue" d="M421.601,-172.535C479.799,-163.757 610.212,-144.085 688.047,-132.345"/>
<polygon fill="midnightblue" stroke="midnightblue" points="688.835,-135.766 698.201,-130.813 687.791,-128.844 688.835,-135.766"/>
</g>
<!-- Node19 -->
<g id="node19" class="node"><title>Node19</title>
<polygon fill="none" stroke="#bfbfbf" points="594.5,-112.5 594.5,-131.5 641.5,-131.5 641.5,-112.5 594.5,-112.5"/>
<text text-anchor="middle" x="618" y="-119.5" font-family="Helvetica,sans-Serif" font-size="10.00">vector</text>
</g>
<!-- Node4&#45;&gt;Node19 -->
<g id="edge21" class="edge"><title>Node4&#45;&gt;Node19</title>
<path fill="none" stroke="midnightblue" d="M421.51,-170.478C457.59,-162.425 520.739,-148.08 584.426,-132.073"/>
<polygon fill="midnightblue" stroke="midnightblue" points="585.397,-135.437 594.235,-129.595 583.682,-128.651 585.397,-135.437"/>
</g>
<!-- Node20 -->
<g id="node20" class="node"><title>Node20</title>
<polygon fill="none" stroke="#bfbfbf" points="446.5,-112.5 446.5,-131.5 511.5,-131.5 511.5,-112.5 446.5,-112.5"/>
<text text-anchor="middle" x="479" y="-119.5" font-family="Helvetica,sans-Serif" font-size="10.00">exception</text>
</g>
<!-- Node4&#45;&gt;Node20 -->
<g id="edge22" class="edge"><title>Node4&#45;&gt;Node20</title>
<path fill="none" stroke="midnightblue" d="M405.978,-168.324C419.55,-159.9 440.38,-146.971 456.325,-137.074"/>
<polygon fill="midnightblue" stroke="midnightblue" points="458.406,-139.902 465.057,-131.655 454.714,-133.954 458.406,-139.902"/>
</g>
<!-- Node10 -->
<g id="node10" class="node"><title>Node10</title>
<g id="a_node10"><a xlink:href="acconfig_8hpp.html" target="_top" xlink:title="acconfig.hpp">
<polygon fill="none" stroke="black" points="268,-0.5 268,-19.5 346,-19.5 346,-0.5 268,-0.5"/>
<text text-anchor="middle" x="307" y="-7.5" font-family="Helvetica,sans-Serif" font-size="10.00">acconfig.hpp</text>
</a>
</g>
</g>
<!-- Node9&#45;&gt;Node10 -->
<g id="edge9" class="edge"><title>Node9&#45;&gt;Node10</title>
<path fill="none" stroke="midnightblue" d="M400.166,-56.324C382.284,-47.6247 354.525,-34.1202 333.954,-24.113"/>
<polygon fill="midnightblue" stroke="midnightblue" points="335.313,-20.8819 324.79,-19.6545 332.251,-27.1765 335.313,-20.8819"/>
</g>
<!-- Node11 -->
<g id="node11" class="node"><title>Node11</title>
<g id="a_node11"><a xlink:href="myconfig-final_8hpp.html" target="_top" xlink:title="myconfig&#45;final.hpp">
<polygon fill="none" stroke="black" points="364.5,-0.5 364.5,-19.5 471.5,-19.5 471.5,-0.5 364.5,-0.5"/>
<text text-anchor="middle" x="418" y="-7.5" font-family="Helvetica,sans-Serif" font-size="10.00">myconfig&#45;final.hpp</text>
</a>
</g>
</g>
<!-- Node9&#45;&gt;Node11 -->
<g id="edge10" class="edge"><title>Node9&#45;&gt;Node11</title>
<path fill="none" stroke="midnightblue" d="M418,-56.083C418,-49.0059 418,-38.8611 418,-29.9865"/>
<polygon fill="midnightblue" stroke="midnightblue" points="421.5,-29.751 418,-19.7511 414.5,-29.7511 421.5,-29.751"/>
</g>
<!-- Node12 -->
<g id="node12" class="node"><title>Node12</title>
<g id="a_node12"><a xlink:href="config-features_8hpp.html" target="_top" xlink:title="config&#45;features.hpp">
<polygon fill="none" stroke="black" points="489.5,-0.5 489.5,-19.5 600.5,-19.5 600.5,-0.5 489.5,-0.5"/>
<text text-anchor="middle" x="545" y="-7.5" font-family="Helvetica,sans-Serif" font-size="10.00">config&#45;features.hpp</text>
</a>
</g>
</g>
<!-- Node9&#45;&gt;Node12 -->
<g id="edge11" class="edge"><title>Node9&#45;&gt;Node12</title>
<path fill="none" stroke="midnightblue" d="M438.124,-56.4435C459.024,-47.5566 491.935,-33.5632 515.716,-23.4514"/>
<polygon fill="midnightblue" stroke="midnightblue" points="517.138,-26.6504 524.971,-19.5164 514.398,-20.2085 517.138,-26.6504"/>
</g>
<!-- Node13&#45;&gt;Node9 -->
<g id="edge13" class="edge"><title>Node13&#45;&gt;Node9</title>
<path fill="none" stroke="midnightblue" d="M136.241,-113.695C139.201,-113.106 142.151,-112.533 145,-112 225.732,-96.9048 320.403,-81.8999 374.381,-73.5984"/>
<polygon fill="midnightblue" stroke="midnightblue" points="374.942,-77.0534 384.296,-72.0786 373.881,-70.1342 374.942,-77.0534"/>
</g>
<!-- Node14&#45;&gt;Node9 -->
<g id="edge15" class="edge"><title>Node14&#45;&gt;Node9</title>
<path fill="none" stroke="midnightblue" d="M350.853,-112.324C363.216,-103.979 382.13,-91.2122 396.737,-81.3524"/>
<polygon fill="midnightblue" stroke="midnightblue" points="398.848,-84.1503 405.179,-75.6545 394.932,-78.3483 398.848,-84.1503"/>
</g>
<!-- Node15&#45;&gt;Node9 -->
<g id="edge17" class="edge"><title>Node15&#45;&gt;Node9</title>
<path fill="none" stroke="midnightblue" d="M698.489,-112.622C633.58,-102.064 523.135,-84.1003 461.994,-74.1557"/>
<polygon fill="midnightblue" stroke="midnightblue" points="462.329,-70.6642 451.897,-72.5133 461.205,-77.5734 462.329,-70.6642"/>
</g>
<!-- Node16 -->
<g id="node16" class="node"><title>Node16</title>
<polygon fill="none" stroke="#bfbfbf" points="784,-56.5 784,-75.5 828,-75.5 828,-56.5 784,-56.5"/>
<text text-anchor="middle" x="806" y="-63.5" font-family="Helvetica,sans-Serif" font-size="10.00">string</text>
</g>
<!-- Node15&#45;&gt;Node16 -->
<g id="edge18" class="edge"><title>Node15&#45;&gt;Node16</title>
<path fill="none" stroke="midnightblue" d="M758.997,-112.324C767.194,-104.42 779.506,-92.5482 789.472,-82.9377"/>
<polygon fill="midnightblue" stroke="midnightblue" points="792.07,-85.2947 796.839,-75.8339 787.211,-80.2558 792.07,-85.2947"/>
</g>
<!-- Node17 -->
<g id="node17" class="node"><title>Node17</title>
<polygon fill="none" stroke="#bfbfbf" points="660,-56.5 660,-75.5 716,-75.5 716,-56.5 660,-56.5"/>
<text text-anchor="middle" x="688" y="-63.5" font-family="Helvetica,sans-Serif" font-size="10.00">sstream</text>
</g>
<!-- Node15&#45;&gt;Node17 -->
<g id="edge19" class="edge"><title>Node15&#45;&gt;Node17</title>
<path fill="none" stroke="midnightblue" d="M740.039,-112.324C730.873,-104.341 717.063,-92.3128 705.972,-82.6529"/>
<polygon fill="midnightblue" stroke="midnightblue" points="707.982,-79.7624 698.143,-75.8339 703.385,-85.041 707.982,-79.7624"/>
</g>
<!-- Node18 -->
<g id="node18" class="node"><title>Node18</title>
<polygon fill="none" stroke="#bfbfbf" points="734,-56.5 734,-75.5 766,-75.5 766,-56.5 734,-56.5"/>
<text text-anchor="middle" x="750" y="-63.5" font-family="Helvetica,sans-Serif" font-size="10.00">list</text>
</g>
<!-- Node15&#45;&gt;Node18 -->
<g id="edge20" class="edge"><title>Node15&#45;&gt;Node18</title>
<path fill="none" stroke="midnightblue" d="M750,-112.083C750,-105.006 750,-94.8611 750,-85.9865"/>
<polygon fill="midnightblue" stroke="midnightblue" points="753.5,-85.751 750,-75.7511 746.5,-85.7511 753.5,-85.751"/>
</g>
<!-- Node22&#45;&gt;Node4 -->
<g id="edge26" class="edge"><title>Node22&#45;&gt;Node4</title>
<path fill="none" stroke="midnightblue" d="M258.139,-280.499C251.215,-267.136 240.643,-240.989 253,-224 275.483,-193.089 319.66,-182.976 352.201,-179.887"/>
<polygon fill="midnightblue" stroke="midnightblue" points="352.611,-183.366 362.315,-179.114 352.078,-176.387 352.611,-183.366"/>
</g>
<!-- Node23 -->
<g id="node23" class="node"><title>Node23</title>
<g id="a_node23"><a xlink:href="particle__data_8hpp.html" target="_top" xlink:title="For more information on particle_data, see particle_data.c. ">
<polygon fill="none" stroke="black" points="262.5,-224.5 262.5,-243.5 363.5,-243.5 363.5,-224.5 262.5,-224.5"/>
<text text-anchor="middle" x="313" y="-231.5" font-family="Helvetica,sans-Serif" font-size="10.00">particle_data.hpp</text>
</a>
</g>
</g>
<!-- Node22&#45;&gt;Node23 -->
<g id="edge27" class="edge"><title>Node22&#45;&gt;Node23</title>
<path fill="none" stroke="midnightblue" d="M271.256,-280.083C278.465,-272.298 289.11,-260.801 297.846,-251.367"/>
<polygon fill="midnightblue" stroke="midnightblue" points="300.671,-253.467 304.897,-243.751 295.535,-248.711 300.671,-253.467"/>
</g>
<!-- Node23&#45;&gt;Node4 -->
<g id="edge28" class="edge"><title>Node23&#45;&gt;Node4</title>
<path fill="none" stroke="midnightblue" d="M325.693,-224.324C337.901,-215.979 356.578,-203.212 371.003,-193.352"/>
<polygon fill="midnightblue" stroke="midnightblue" points="373.058,-196.187 379.339,-187.655 369.108,-190.408 373.058,-196.187"/>
</g>
<!-- Node24&#45;&gt;Node4 -->
<g id="edge30" class="edge"><title>Node24&#45;&gt;Node4</title>
<path fill="none" stroke="midnightblue" d="M373.745,-392.297C376.54,-359.633 386.448,-243.866 390.378,-197.957"/>
<polygon fill="midnightblue" stroke="midnightblue" points="393.874,-198.146 391.24,-187.884 386.9,-197.549 393.874,-198.146"/>
</g>
<!-- Node24&#45;&gt;Node22 -->
<g id="edge31" class="edge"><title>Node24&#45;&gt;Node22</title>
<path fill="none" stroke="midnightblue" d="M364.368,-392.368C345.894,-373.894 302.293,-330.293 278.744,-306.744"/>
<polygon fill="midnightblue" stroke="midnightblue" points="281.137,-304.188 271.591,-299.591 276.188,-309.137 281.137,-304.188"/>
</g>
<!-- Node24&#45;&gt;Node23 -->
<g id="edge32" class="edge"><title>Node24&#45;&gt;Node23</title>
<path fill="none" stroke="midnightblue" d="M370.034,-392.471C363.135,-372.671 345.421,-322.074 330,-280 326.763,-271.168 323.083,-261.396 319.977,-253.221"/>
<polygon fill="midnightblue" stroke="midnightblue" points="323.144,-251.704 316.31,-243.608 316.604,-254.199 323.144,-251.704"/>
</g>
<!-- Node25 -->
<g id="node25" class="node"><title>Node25</title>
<g id="a_node25"><a xlink:href="grid_8hpp.html" target="_top" xlink:title="Domain decomposition for parallel computing. ">
<polygon fill="none" stroke="black" points="455,-336.5 455,-355.5 511,-355.5 511,-336.5 455,-336.5"/>
<text text-anchor="middle" x="483" y="-343.5" font-family="Helvetica,sans-Serif" font-size="10.00">grid.hpp</text>
</a>
</g>
</g>
<!-- Node24&#45;&gt;Node25 -->
<g id="edge33" class="edge"><title>Node24&#45;&gt;Node25</title>
<path fill="none" stroke="midnightblue" d="M390.673,-392.324C408.394,-383.625 435.903,-370.12 456.288,-360.113"/>
<polygon fill="midnightblue" stroke="midnightblue" points="457.936,-363.203 465.37,-355.655 454.851,-356.919 457.936,-363.203"/>
</g>
<!-- Node25&#45;&gt;Node4 -->
<g id="edge34" class="edge"><title>Node25&#45;&gt;Node4</title>
<path fill="none" stroke="midnightblue" d="M475.661,-336.418C468.359,-327.634 457.104,-313.408 449,-300 427.865,-265.031 408.855,-220.968 399.033,-196.833"/>
<polygon fill="midnightblue" stroke="midnightblue" points="402.27,-195.501 395.3,-187.522 395.773,-198.106 402.27,-195.501"/>
</g>
<!-- Node25&#45;&gt;Node15 -->
<g id="edge49" class="edge"><title>Node25&#45;&gt;Node15</title>
<path fill="none" stroke="midnightblue" d="M511.268,-343.746C546.629,-340.842 607.448,-331.287 648,-300 676.286,-278.177 723.222,-181.083 741.936,-140.705"/>
<polygon fill="midnightblue" stroke="midnightblue" points="745.154,-142.085 746.151,-131.537 738.794,-139.161 745.154,-142.085"/>
</g>
<!-- Node26 -->
<g id="node26" class="node"><title>Node26</title>
<polygon fill="none" stroke="#bfbfbf" points="458,-280.5 458,-299.5 508,-299.5 508,-280.5 458,-280.5"/>
<text text-anchor="middle" x="483" y="-287.5" font-family="Helvetica,sans-Serif" font-size="10.00">climits</text>
</g>
<!-- Node25&#45;&gt;Node26 -->
<g id="edge35" class="edge"><title>Node25&#45;&gt;Node26</title>
<path fill="none" stroke="midnightblue" d="M483,-336.083C483,-329.006 483,-318.861 483,-309.986"/>
<polygon fill="midnightblue" stroke="midnightblue" points="486.5,-309.751 483,-299.751 479.5,-309.751 486.5,-309.751"/>
</g>
<!-- Node25&#45;&gt;Node27 -->
<g id="edge36" class="edge"><title>Node25&#45;&gt;Node27</title>
<path fill="none" stroke="midnightblue" d="M499.067,-336.324C514.958,-327.743 539.507,-314.486 557.958,-304.522"/>
<polygon fill="midnightblue" stroke="midnightblue" points="559.837,-307.486 566.973,-299.655 556.511,-301.326 559.837,-307.486"/>
</g>
<!-- Node27&#45;&gt;Node23 -->
<g id="edge37" class="edge"><title>Node27&#45;&gt;Node23</title>
<path fill="none" stroke="midnightblue" d="M540.218,-280.444C492.821,-270.964 416.374,-255.675 365.417,-245.483"/>
<polygon fill="midnightblue" stroke="midnightblue" points="366.074,-242.046 355.582,-243.516 364.702,-248.91 366.074,-242.046"/>
</g>
<!-- Node28 -->
<g id="node28" class="node"><title>Node28</title>
<g id="a_node28"><a xlink:href="random_8hpp.html" target="_top" xlink:title="A random generator. ">
<polygon fill="none" stroke="black" points="458.5,-224.5 458.5,-243.5 533.5,-243.5 533.5,-224.5 458.5,-224.5"/>
<text text-anchor="middle" x="496" y="-231.5" font-family="Helvetica,sans-Serif" font-size="10.00">random.hpp</text>
</a>
</g>
</g>
<!-- Node27&#45;&gt;Node28 -->
<g id="edge38" class="edge"><title>Node27&#45;&gt;Node28</title>
<path fill="none" stroke="midnightblue" d="M569.022,-280.324C555.45,-271.9 534.62,-258.971 518.675,-249.074"/>
<polygon fill="midnightblue" stroke="midnightblue" points="520.286,-245.954 509.943,-243.655 516.594,-251.902 520.286,-245.954"/>
</g>
<!-- Node29 -->
<g id="node29" class="node"><title>Node29</title>
<g id="a_node29"><a xlink:href="topology_8hpp.html" target="_top" xlink:title="This file contains functions for handling the system topology. ">
<polygon fill="none" stroke="black" points="551.5,-224.5 551.5,-243.5 630.5,-243.5 630.5,-224.5 551.5,-224.5"/>
<text text-anchor="middle" x="591" y="-231.5" font-family="Helvetica,sans-Serif" font-size="10.00">topology.hpp</text>
</a>
</g>
</g>
<!-- Node27&#45;&gt;Node29 -->
<g id="edge40" class="edge"><title>Node27&#45;&gt;Node29</title>
<path fill="none" stroke="midnightblue" d="M584.321,-280.083C585.381,-272.927 586.906,-262.635 588.231,-253.691"/>
<polygon fill="midnightblue" stroke="midnightblue" points="591.7,-254.156 589.704,-243.751 584.776,-253.13 591.7,-254.156"/>
</g>
<!-- Node30 -->
<g id="node30" class="node"><title>Node30</title>
<g id="a_node30"><a xlink:href="mpi_8h.html" target="_top" xlink:title="This is the MPIfake implementation. ">
<polygon fill="none" stroke="black" points="781,-224.5 781,-243.5 825,-243.5 825,-224.5 781,-224.5"/>
<text text-anchor="middle" x="803" y="-231.5" font-family="Helvetica,sans-Serif" font-size="10.00">mpi.h</text>
</a>
</g>
</g>
<!-- Node27&#45;&gt;Node30 -->
<g id="edge42" class="edge"><title>Node27&#45;&gt;Node30</title>
<path fill="none" stroke="midnightblue" d="M617.86,-280.444C659.879,-270.13 729.92,-252.938 770.742,-242.918"/>
<polygon fill="midnightblue" stroke="midnightblue" points="771.823,-246.257 780.7,-240.474 770.154,-239.458 771.823,-246.257"/>
</g>
<!-- Node34 -->
<g id="node34" class="node"><title>Node34</title>
<g id="a_node34"><a xlink:href="cuda__init_8hpp.html" target="_top" xlink:title="cuda_init.hpp">
<polygon fill="none" stroke="black" points="603,-168.5 603,-187.5 685,-187.5 685,-168.5 603,-168.5"/>
<text text-anchor="middle" x="644" y="-175.5" font-family="Helvetica,sans-Serif" font-size="10.00">cuda_init.hpp</text>
</a>
</g>
</g>
<!-- Node27&#45;&gt;Node34 -->
<g id="edge46" class="edge"><title>Node27&#45;&gt;Node34</title>
<path fill="none" stroke="midnightblue" d="M599.893,-280.448C613.018,-272.816 630.389,-260.327 639,-244 646.507,-229.765 647.218,-211.291 646.365,-197.678"/>
<polygon fill="midnightblue" stroke="midnightblue" points="649.836,-197.206 645.397,-187.586 642.868,-197.875 649.836,-197.206"/>
</g>
<!-- Node28&#45;&gt;Node4 -->
<g id="edge39" class="edge"><title>Node28&#45;&gt;Node4</title>
<path fill="none" stroke="midnightblue" d="M479.291,-224.324C462.688,-215.703 436.998,-202.364 417.78,-192.386"/>
<polygon fill="midnightblue" stroke="midnightblue" points="419.156,-189.156 408.668,-187.655 415.93,-195.369 419.156,-189.156"/>
</g>
<!-- Node29&#45;&gt;Node4 -->
<g id="edge41" class="edge"><title>Node29&#45;&gt;Node4</title>
<path fill="none" stroke="midnightblue" d="M559.468,-224.444C524.907,-215.065 469.389,-200 431.841,-189.811"/>
<polygon fill="midnightblue" stroke="midnightblue" points="432.327,-186.317 421.76,-187.075 430.494,-193.072 432.327,-186.317"/>
</g>
<!-- Node31 -->
<g id="node31" class="node"><title>Node31</title>
<polygon fill="none" stroke="#bfbfbf" points="741.5,-168.5 741.5,-187.5 794.5,-187.5 794.5,-168.5 741.5,-168.5"/>
<text text-anchor="middle" x="768" y="-175.5" font-family="Helvetica,sans-Serif" font-size="10.00">string.h</text>
</g>
<!-- Node30&#45;&gt;Node31 -->
<g id="edge43" class="edge"><title>Node30&#45;&gt;Node31</title>
<path fill="none" stroke="midnightblue" d="M797.22,-224.083C792.328,-216.534 785.173,-205.495 779.167,-196.23"/>
<polygon fill="midnightblue" stroke="midnightblue" points="782.048,-194.239 773.672,-187.751 776.174,-198.046 782.048,-194.239"/>
</g>
<!-- Node32 -->
<g id="node32" class="node"><title>Node32</title>
<polygon fill="none" stroke="#bfbfbf" points="813,-168.5 813,-187.5 863,-187.5 863,-168.5 813,-168.5"/>
<text text-anchor="middle" x="838" y="-175.5" font-family="Helvetica,sans-Serif" font-size="10.00">stdio.h</text>
</g>
<!-- Node30&#45;&gt;Node32 -->
<g id="edge44" class="edge"><title>Node30&#45;&gt;Node32</title>
<path fill="none" stroke="midnightblue" d="M808.78,-224.083C813.672,-216.534 820.827,-205.495 826.833,-196.23"/>
<polygon fill="midnightblue" stroke="midnightblue" points="829.826,-198.046 832.328,-187.751 823.952,-194.239 829.826,-198.046"/>
</g>
<!-- Node33 -->
<g id="node33" class="node"><title>Node33</title>
<polygon fill="none" stroke="#bfbfbf" points="881.5,-168.5 881.5,-187.5 934.5,-187.5 934.5,-168.5 881.5,-168.5"/>
<text text-anchor="middle" x="908" y="-175.5" font-family="Helvetica,sans-Serif" font-size="10.00">stdlib.h</text>
</g>
<!-- Node30&#45;&gt;Node33 -->
<g id="edge45" class="edge"><title>Node30&#45;&gt;Node33</title>
<path fill="none" stroke="midnightblue" d="M819.87,-224.324C836.709,-215.664 862.807,-202.242 882.238,-192.249"/>
<polygon fill="midnightblue" stroke="midnightblue" points="883.88,-195.341 891.172,-187.655 880.678,-189.116 883.88,-195.341"/>
</g>
<!-- Node34&#45;&gt;Node9 -->
<g id="edge47" class="edge"><title>Node34&#45;&gt;Node9</title>
<path fill="none" stroke="midnightblue" d="M648.305,-168.285C654.363,-154.628 663.267,-128.087 650,-112 626.619,-83.6486 522.36,-72.9407 461.861,-69.0665"/>
<polygon fill="midnightblue" stroke="midnightblue" points="462.017,-65.5697 451.825,-68.4607 461.596,-72.557 462.017,-65.5697"/>
</g>
<!-- Node34&#45;&gt;Node19 -->
<g id="edge48" class="edge"><title>Node34&#45;&gt;Node19</title>
<path fill="none" stroke="midnightblue" d="M639.707,-168.083C636.148,-160.691 630.978,-149.953 626.576,-140.811"/>
<polygon fill="midnightblue" stroke="midnightblue" points="629.705,-139.243 622.213,-131.751 623.398,-142.279 629.705,-139.243"/>
</g>
</g>
</svg>
        <g id="navigator" transform="translate(0 0)" fill="#404254">
                <rect fill="#f2f5e9" fill-opacity="0.5" stroke="#606060" stroke-width=".5" x="0" y="0" width="60" height="60"/>
                <use id="zoomplus" xlink:href="#zoomPlus" x="17" y="9" onmousedown="handleZoom(evt,'in')"/>
                <use id="zoomminus" xlink:href="#zoomMin" x="42" y="9" onmousedown="handleZoom(evt,'out')"/>
                <use id="reset" xlink:href="#resetDef" x="30" y="36" onmousedown="handleReset()"/>
                <g id="arrowUp" xlink:href="#dirArrow" transform="translate(30 24)" onmousedown="handlePan(0,-1)">
                  <use xlink:href="#rim" fill="#404040">
                        <set attributeName="fill" to="#808080" begin="arrowUp.mouseover" end="arrowUp.mouseout"/>
                  </use>
                  <path fill="none" stroke="white" stroke-width="1.5" d="M0,-3.0v7 M-2.5,-0.5L0,-3.0L2.5,-0.5"/>
                </g>
                <g id="arrowRight" xlink:href="#dirArrow" transform="rotate(90) translate(36 -43)" onmousedown="handlePan(1,0)">
                  <use xlink:href="#rim" fill="#404040">
                        <set attributeName="fill" to="#808080" begin="arrowRight.mouseover" end="arrowRight.mouseout"/>
                  </use>
                  <path fill="none" stroke="white" stroke-width="1.5" d="M0,-3.0v7 M-2.5,-0.5L0,-3.0L2.5,-0.5"/>
                </g>
                <g id="arrowDown" xlink:href="#dirArrow" transform="rotate(180) translate(-30 -48)" onmousedown="handlePan(0,1)">
                  <use xlink:href="#rim" fill="#404040">
                        <set attributeName="fill" to="#808080" begin="arrowDown.mouseover" end="arrowDown.mouseout"/>
                  </use>
                  <path fill="none" stroke="white" stroke-width="1.5" d="M0,-3.0v7 M-2.5,-0.5L0,-3.0L2.5,-0.5"/>
                </g>
                <g id="arrowLeft" xlink:href="#dirArrow" transform="rotate(270) translate(-36 17)" onmousedown="handlePan(-1,0)">
                  <use xlink:href="#rim" fill="#404040">
                        <set attributeName="fill" to="#808080" begin="arrowLeft.mouseover" end="arrowLeft.mouseout"/>
                  </use>
                  <path fill="none" stroke="white" stroke-width="1.5" d="M0,-3.0v7 M-2.5,-0.5L0,-3.0L2.5,-0.5"/>
                </g>
        </g>
        <svg viewBox="0 0 15 15" width="100%" height="30px" preserveAspectRatio="xMaxYMin meet">
         <g id="arrow_out" transform="scale(0.3 0.3)">
          <a xlink:href="angle__cossquare__tcl_8cpp__incl_org.svg" target="_base">
           <rect id="button" ry="5" rx="5" y="6" x="6" height="38" width="38"
                fill="#f2f5e9" fill-opacity="0.5" stroke="#606060" stroke-width="1.0"/>
           <path id="arrow"
             d="M 11.500037,31.436501 C 11.940474,20.09759 22.043105,11.32322 32.158766,21.979434 L 37.068811,17.246167 C 37.068811,17.246167 37.088388,32 37.088388,32 L 22.160133,31.978069 C 22.160133,31.978069 26.997745,27.140456 26.997745,27.140456 C 18.528582,18.264221 13.291696,25.230495 11.500037,31.436501 z"
             style="fill:#404040;"/>
          </a>
         </g>
        </svg>
</svg>
