<?xml version="1.0" encoding="UTF-8" standalone="no"?>
<!DOCTYPE svg PUBLIC "-//W3C//DTD SVG 1.1//EN"
 "http://www.w3.org/Graphics/SVG/1.1/DTD/svg11.dtd">
<!-- Generated by graphviz version 2.38.0 (20140413.2041)
 -->
<!-- Title: angle_harmonic_tcl.cpp Pages: 1 -->
<svg width="950pt" height="476pt"
 viewBox="0.00 0.00 949.53 476.00" xmlns="http://www.w3.org/2000/svg" xmlns:xlink="http://www.w3.org/1999/xlink">
<g id="graph0" class="graph" transform="scale(1 1) rotate(0) translate(4 472)">
<title>angle_harmonic_tcl.cpp</title>
<!-- Node1 -->
<g id="node1" class="node"><title>Node1</title>
<polygon fill="#bfbfbf" stroke="black" points="303.026,-448.5 303.026,-467.5 435.026,-467.5 435.026,-448.5 303.026,-448.5"/>
<text text-anchor="middle" x="369.026" y="-455.5" font-family="Helvetica,sans-Serif" font-size="10.00">angle_harmonic_tcl.cpp</text>
</g>
<!-- Node2 -->
<g id="node2" class="node"><title>Node2</title>
<g id="a_node2"><a xlink:href="angle__harmonic__tcl_8hpp.html" target="_top" xlink:title="Tcl interface for angle_harmonic.hpp. ">
<polygon fill="none" stroke="black" points="112.526,-336.5 112.526,-355.5 245.526,-355.5 245.526,-336.5 112.526,-336.5"/>
<text text-anchor="middle" x="179.026" y="-343.5" font-family="Helvetica,sans-Serif" font-size="10.00">angle_harmonic_tcl.hpp</text>
</a>
</g>
</g>
<!-- Node1&#45;&gt;Node2 -->
<g id="edge1" class="edge"><title>Node1&#45;&gt;Node2</title>
<path fill="none" stroke="midnightblue" d="M354.117,-448.368C321.236,-429.332 242.271,-383.615 202.604,-360.65"/>
<polygon fill="midnightblue" stroke="midnightblue" points="204.274,-357.573 193.866,-355.591 200.767,-363.631 204.274,-357.573"/>
</g>
<!-- Node24 -->
<g id="node24" class="node"><title>Node24</title>
<g id="a_node24"><a xlink:href="angle__harmonic_8hpp.html" target="_top" xlink:title="Routines to calculate the angle energy or/and and force for a particle triple. ">
<polygon fill="none" stroke="black" points="311.026,-392.5 311.026,-411.5 427.026,-411.5 427.026,-392.5 311.026,-392.5"/>
<text text-anchor="middle" x="369.026" y="-399.5" font-family="Helvetica,sans-Serif" font-size="10.00">angle_harmonic.hpp</text>
</a>
</g>
</g>
<!-- Node1&#45;&gt;Node24 -->
<g id="edge30" class="edge"><title>Node1&#45;&gt;Node24</title>
<path fill="none" stroke="midnightblue" d="M369.026,-448.083C369.026,-441.006 369.026,-430.861 369.026,-421.986"/>
<polygon fill="midnightblue" stroke="midnightblue" points="372.526,-421.751 369.026,-411.751 365.526,-421.751 372.526,-421.751"/>
</g>
<!-- Node27 -->
<g id="node27" class="node"><title>Node27</title>
<g id="a_node27"><a xlink:href="communication_8hpp.html" target="_top" xlink:title="This file contains the asynchronous MPI communication. ">
<polygon fill="none" stroke="black" points="524.526,-280.5 524.526,-299.5 637.526,-299.5 637.526,-280.5 524.526,-280.5"/>
<text text-anchor="middle" x="581.026" y="-287.5" font-family="Helvetica,sans-Serif" font-size="10.00">communication.hpp</text>
</a>
</g>
</g>
<!-- Node1&#45;&gt;Node27 -->
<g id="edge51" class="edge"><title>Node1&#45;&gt;Node27</title>
<path fill="none" stroke="midnightblue" d="M381.891,-448.403C395.394,-439.368 417.232,-424.729 436.026,-412 472.567,-387.252 484.275,-384.434 518.026,-356 536.141,-340.739 554.763,-320.918 567.016,-307.195"/>
<polygon fill="midnightblue" stroke="midnightblue" points="569.779,-309.353 573.761,-299.534 564.526,-304.727 569.779,-309.353"/>
</g>
<!-- Node3 -->
<g id="node3" class="node"><title>Node3</title>
<g id="a_node3"><a xlink:href="config_8hpp.html" target="_top" xlink:title="This file contains the defaults for Espresso. ">
<polygon fill="none" stroke="black" points="414.526,-56.5 414.526,-75.5 481.526,-75.5 481.526,-56.5 414.526,-56.5"/>
<text text-anchor="middle" x="448.026" y="-63.5" font-family="Helvetica,sans-Serif" font-size="10.00">config.hpp</text>
</a>
</g>
</g>
<!-- Node2&#45;&gt;Node3 -->
<g id="edge2" class="edge"><title>Node2&#45;&gt;Node3</title>
<path fill="none" stroke="midnightblue" d="M129.916,-336.467C77.2289,-324.163 1.02637,-295.849 1.02637,-235 1.02637,-235 1.02637,-235 1.02637,-177 1.02637,-146.902 -3.0791,-131.288 20.0264,-112 49.1391,-87.6977 301.273,-73.6389 404.372,-68.8613"/>
<polygon fill="midnightblue" stroke="midnightblue" points="404.622,-72.3536 414.452,-68.4018 404.303,-65.3609 404.622,-72.3536"/>
</g>
<!-- Node7 -->
<g id="node7" class="node"><title>Node7</title>
<g id="a_node7"><a xlink:href="parser_8hpp.html" target="_top" xlink:title="This file contains macros for parsing the parameters to the &#39;inter&#39; command. ">
<polygon fill="none" stroke="black" points="136.026,-224.5 136.026,-243.5 204.026,-243.5 204.026,-224.5 136.026,-224.5"/>
<text text-anchor="middle" x="170.026" y="-231.5" font-family="Helvetica,sans-Serif" font-size="10.00">parser.hpp</text>
</a>
</g>
</g>
<!-- Node2&#45;&gt;Node7 -->
<g id="edge6" class="edge"><title>Node2&#45;&gt;Node7</title>
<path fill="none" stroke="midnightblue" d="M178.32,-336.368C176.868,-318.617 173.517,-277.666 171.548,-253.597"/>
<polygon fill="midnightblue" stroke="midnightblue" points="175.033,-253.273 170.729,-243.591 168.057,-253.844 175.033,-253.273"/>
</g>
<!-- Node22 -->
<g id="node22" class="node"><title>Node22</title>
<g id="a_node22"><a xlink:href="interaction__data_8hpp.html" target="_top" xlink:title="Various procedures concerning interactions between particles. ">
<polygon fill="none" stroke="black" points="200.526,-280.5 200.526,-299.5 317.526,-299.5 317.526,-280.5 200.526,-280.5"/>
<text text-anchor="middle" x="259.026" y="-287.5" font-family="Helvetica,sans-Serif" font-size="10.00">interaction_data.hpp</text>
</a>
</g>
</g>
<!-- Node2&#45;&gt;Node22 -->
<g id="edge26" class="edge"><title>Node2&#45;&gt;Node22</title>
<path fill="none" stroke="midnightblue" d="M191.88,-336.324C204.243,-327.979 223.156,-315.212 237.764,-305.352"/>
<polygon fill="midnightblue" stroke="midnightblue" points="239.875,-308.15 246.205,-299.655 235.958,-302.348 239.875,-308.15"/>
</g>
<!-- Node4 -->
<g id="node4" class="node"><title>Node4</title>
<g id="a_node4"><a xlink:href="acconfig_8hpp.html" target="_top" xlink:title="acconfig.hpp">
<polygon fill="none" stroke="black" points="298.026,-0.5 298.026,-19.5 376.026,-19.5 376.026,-0.5 298.026,-0.5"/>
<text text-anchor="middle" x="337.026" y="-7.5" font-family="Helvetica,sans-Serif" font-size="10.00">acconfig.hpp</text>
</a>
</g>
</g>
<!-- Node3&#45;&gt;Node4 -->
<g id="edge3" class="edge"><title>Node3&#45;&gt;Node4</title>
<path fill="none" stroke="midnightblue" d="M430.192,-56.324C412.31,-47.6247 384.551,-34.1202 363.981,-24.113"/>
<polygon fill="midnightblue" stroke="midnightblue" points="365.34,-20.8819 354.816,-19.6545 362.277,-27.1765 365.34,-20.8819"/>
</g>
<!-- Node5 -->
<g id="node5" class="node"><title>Node5</title>
<g id="a_node5"><a xlink:href="myconfig-final_8hpp.html" target="_top" xlink:title="myconfig&#45;final.hpp">
<polygon fill="none" stroke="black" points="394.526,-0.5 394.526,-19.5 501.526,-19.5 501.526,-0.5 394.526,-0.5"/>
<text text-anchor="middle" x="448.026" y="-7.5" font-family="Helvetica,sans-Serif" font-size="10.00">myconfig&#45;final.hpp</text>
</a>
</g>
</g>
<!-- Node3&#45;&gt;Node5 -->
<g id="edge4" class="edge"><title>Node3&#45;&gt;Node5</title>
<path fill="none" stroke="midnightblue" d="M448.026,-56.083C448.026,-49.0059 448.026,-38.8611 448.026,-29.9865"/>
<polygon fill="midnightblue" stroke="midnightblue" points="451.526,-29.751 448.026,-19.7511 444.526,-29.7511 451.526,-29.751"/>
</g>
<!-- Node6 -->
<g id="node6" class="node"><title>Node6</title>
<g id="a_node6"><a xlink:href="config-features_8hpp.html" target="_top" xlink:title="config&#45;features.hpp">
<polygon fill="none" stroke="black" points="519.526,-0.5 519.526,-19.5 630.526,-19.5 630.526,-0.5 519.526,-0.5"/>
<text text-anchor="middle" x="575.026" y="-7.5" font-family="Helvetica,sans-Serif" font-size="10.00">config&#45;features.hpp</text>
</a>
</g>
</g>
<!-- Node3&#45;&gt;Node6 -->
<g id="edge5" class="edge"><title>Node3&#45;&gt;Node6</title>
<path fill="none" stroke="midnightblue" d="M468.15,-56.4435C489.051,-47.5566 521.961,-33.5632 545.742,-23.4514"/>
<polygon fill="midnightblue" stroke="midnightblue" points="547.164,-26.6504 554.997,-19.5164 544.425,-20.2085 547.164,-26.6504"/>
</g>
<!-- Node8 -->
<g id="node8" class="node"><title>Node8</title>
<g id="a_node8"><a xlink:href="utils_8hpp.html" target="_top" xlink:title="Small functions that are useful not only for one modul. ">
<polygon fill="none" stroke="black" points="364.526,-168.5 364.526,-187.5 423.526,-187.5 423.526,-168.5 364.526,-168.5"/>
<text text-anchor="middle" x="394.026" y="-175.5" font-family="Helvetica,sans-Serif" font-size="10.00">utils.hpp</text>
</a>
</g>
</g>
<!-- Node7&#45;&gt;Node8 -->
<g id="edge7" class="edge"><title>Node7&#45;&gt;Node8</title>
<path fill="none" stroke="midnightblue" d="M204.047,-224.799C244.497,-215.047 311.888,-198.801 354.582,-188.509"/>
<polygon fill="midnightblue" stroke="midnightblue" points="355.447,-191.901 364.348,-186.155 353.806,-185.096 355.447,-191.901"/>
</g>
<!-- Node12 -->
<g id="node12" class="node"><title>Node12</title>
<polygon fill="none" stroke="#bfbfbf" points="29.0264,-112.5 29.0264,-131.5 79.0264,-131.5 79.0264,-112.5 29.0264,-112.5"/>
<text text-anchor="middle" x="54.0264" y="-119.5" font-family="Helvetica,sans-Serif" font-size="10.00">cstring</text>
</g>
<!-- Node7&#45;&gt;Node12 -->
<g id="edge24" class="edge"><title>Node7&#45;&gt;Node12</title>
<path fill="none" stroke="midnightblue" d="M169.711,-224.359C168.777,-210.804 165.134,-184.4 151.026,-168 142.248,-157.795 112.288,-144.712 87.9608,-135.285"/>
<polygon fill="midnightblue" stroke="midnightblue" points="88.8878,-131.894 78.2966,-131.615 86.4022,-138.437 88.8878,-131.894"/>
</g>
<!-- Node21 -->
<g id="node21" class="node"><title>Node21</title>
<polygon fill="none" stroke="#bfbfbf" points="104.026,-168.5 104.026,-187.5 142.026,-187.5 142.026,-168.5 104.026,-168.5"/>
<text text-anchor="middle" x="123.026" y="-175.5" font-family="Helvetica,sans-Serif" font-size="10.00">tcl.h</text>
</g>
<!-- Node7&#45;&gt;Node21 -->
<g id="edge25" class="edge"><title>Node7&#45;&gt;Node21</title>
<path fill="none" stroke="midnightblue" d="M162.265,-224.083C155.49,-216.298 145.483,-204.801 137.271,-195.367"/>
<polygon fill="midnightblue" stroke="midnightblue" points="139.848,-192.996 130.643,-187.751 134.568,-197.592 139.848,-192.996"/>
</g>
<!-- Node8&#45;&gt;Node3 -->
<g id="edge12" class="edge"><title>Node8&#45;&gt;Node3</title>
<path fill="none" stroke="midnightblue" d="M423.599,-174.05C470.216,-168.72 557.417,-155.771 576.026,-132 601.933,-98.9072 538.173,-81.2083 491.633,-72.9819"/>
<polygon fill="midnightblue" stroke="midnightblue" points="492.149,-69.5196 481.708,-71.3217 490.994,-76.4237 492.149,-69.5196"/>
</g>
<!-- Node9 -->
<g id="node9" class="node"><title>Node9</title>
<polygon fill="none" stroke="#bfbfbf" points="183.526,-112.5 183.526,-131.5 230.526,-131.5 230.526,-112.5 183.526,-112.5"/>
<text text-anchor="middle" x="207.026" y="-119.5" font-family="Helvetica,sans-Serif" font-size="10.00">cmath</text>
</g>
<!-- Node8&#45;&gt;Node9 -->
<g id="edge8" class="edge"><title>Node8&#45;&gt;Node9</title>
<path fill="none" stroke="midnightblue" d="M364.396,-168.444C330.652,-158.699 275.648,-142.816 240.414,-132.641"/>
<polygon fill="midnightblue" stroke="midnightblue" points="241.176,-129.218 230.598,-129.807 239.234,-135.944 241.176,-129.218"/>
</g>
<!-- Node10 -->
<g id="node10" class="node"><title>Node10</title>
<polygon fill="none" stroke="#bfbfbf" points="371.026,-112.5 371.026,-131.5 417.026,-131.5 417.026,-112.5 371.026,-112.5"/>
<text text-anchor="middle" x="394.026" y="-119.5" font-family="Helvetica,sans-Serif" font-size="10.00">cstdio</text>
</g>
<!-- Node8&#45;&gt;Node10 -->
<g id="edge9" class="edge"><title>Node8&#45;&gt;Node10</title>
<path fill="none" stroke="midnightblue" d="M394.026,-168.083C394.026,-161.006 394.026,-150.861 394.026,-141.986"/>
<polygon fill="midnightblue" stroke="midnightblue" points="397.526,-141.751 394.026,-131.751 390.526,-141.751 397.526,-141.751"/>
</g>
<!-- Node11 -->
<g id="node11" class="node"><title>Node11</title>
<polygon fill="none" stroke="#bfbfbf" points="435.526,-112.5 435.526,-131.5 484.526,-131.5 484.526,-112.5 435.526,-112.5"/>
<text text-anchor="middle" x="460.026" y="-119.5" font-family="Helvetica,sans-Serif" font-size="10.00">cstdlib</text>
</g>
<!-- Node8&#45;&gt;Node11 -->
<g id="edge10" class="edge"><title>Node8&#45;&gt;Node11</title>
<path fill="none" stroke="midnightblue" d="M404.63,-168.324C414.483,-160.263 429.377,-148.077 441.241,-138.369"/>
<polygon fill="midnightblue" stroke="midnightblue" points="443.706,-140.875 449.229,-131.834 439.273,-135.457 443.706,-140.875"/>
</g>
<!-- Node8&#45;&gt;Node12 -->
<g id="edge11" class="edge"><title>Node8&#45;&gt;Node12</title>
<path fill="none" stroke="midnightblue" d="M364.293,-173.757C311.044,-167.707 195.752,-153.51 89.1581,-132.035"/>
<polygon fill="midnightblue" stroke="midnightblue" points="89.7006,-128.574 79.2026,-130.003 88.3003,-135.432 89.7006,-128.574"/>
</g>
<!-- Node13 -->
<g id="node13" class="node"><title>Node13</title>
<g id="a_node13"><a xlink:href="debug_8hpp.html" target="_top" xlink:title="This file controls debug facilities. ">
<polygon fill="none" stroke="black" points="97.0264,-112.5 97.0264,-131.5 165.026,-131.5 165.026,-112.5 97.0264,-112.5"/>
<text text-anchor="middle" x="131.026" y="-119.5" font-family="Helvetica,sans-Serif" font-size="10.00">debug.hpp</text>
</a>
</g>
</g>
<!-- Node8&#45;&gt;Node13 -->
<g id="edge13" class="edge"><title>Node8&#45;&gt;Node13</title>
<path fill="none" stroke="midnightblue" d="M364.483,-171.001C324.06,-162.785 248.983,-147.489 175.216,-132.239"/>
<polygon fill="midnightblue" stroke="midnightblue" points="175.793,-128.785 165.291,-130.186 174.375,-135.64 175.793,-128.785"/>
</g>
<!-- Node14 -->
<g id="node14" class="node"><title>Node14</title>
<g id="a_node14"><a xlink:href="lees__edwards_8hpp.html" target="_top" xlink:title="lees_edwards.hpp">
<polygon fill="none" stroke="black" points="249.026,-112.5 249.026,-131.5 353.026,-131.5 353.026,-112.5 249.026,-112.5"/>
<text text-anchor="middle" x="301.026" y="-119.5" font-family="Helvetica,sans-Serif" font-size="10.00">lees_edwards.hpp</text>
</a>
</g>
</g>
<!-- Node8&#45;&gt;Node14 -->
<g id="edge15" class="edge"><title>Node8&#45;&gt;Node14</title>
<path fill="none" stroke="midnightblue" d="M379.084,-168.324C364.441,-159.822 341.893,-146.729 324.789,-136.797"/>
<polygon fill="midnightblue" stroke="midnightblue" points="326.337,-133.649 315.931,-131.655 322.822,-139.703 326.337,-133.649"/>
</g>
<!-- Node15 -->
<g id="node15" class="node"><title>Node15</title>
<g id="a_node15"><a xlink:href="errorhandling_8hpp.html" target="_top" xlink:title="This file contains the errorhandling code for severe errors, like a broken bond or illegal parameter ...">
<polygon fill="none" stroke="black" points="728.526,-112.5 728.526,-131.5 831.526,-131.5 831.526,-112.5 728.526,-112.5"/>
<text text-anchor="middle" x="780.026" y="-119.5" font-family="Helvetica,sans-Serif" font-size="10.00">errorhandling.hpp</text>
</a>
</g>
</g>
<!-- Node8&#45;&gt;Node15 -->
<g id="edge17" class="edge"><title>Node8&#45;&gt;Node15</title>
<path fill="none" stroke="midnightblue" d="M423.674,-172.852C486.526,-164.06 634.276,-143.39 718.463,-131.613"/>
<polygon fill="midnightblue" stroke="midnightblue" points="718.986,-135.074 728.404,-130.222 718.016,-128.141 718.986,-135.074"/>
</g>
<!-- Node19 -->
<g id="node19" class="node"><title>Node19</title>
<polygon fill="none" stroke="#bfbfbf" points="624.526,-112.5 624.526,-131.5 671.526,-131.5 671.526,-112.5 624.526,-112.5"/>
<text text-anchor="middle" x="648.026" y="-119.5" font-family="Helvetica,sans-Serif" font-size="10.00">vector</text>
</g>
<!-- Node8&#45;&gt;Node19 -->
<g id="edge22" class="edge"><title>Node8&#45;&gt;Node19</title>
<path fill="none" stroke="midnightblue" d="M423.78,-171.067C465.483,-162.692 543.658,-146.77 610.026,-132 611.474,-131.678 612.952,-131.345 614.444,-131.006"/>
<polygon fill="midnightblue" stroke="midnightblue" points="615.379,-134.382 624.333,-128.717 613.801,-127.562 615.379,-134.382"/>
</g>
<!-- Node20 -->
<g id="node20" class="node"><title>Node20</title>
<polygon fill="none" stroke="#bfbfbf" points="502.526,-112.5 502.526,-131.5 567.526,-131.5 567.526,-112.5 502.526,-112.5"/>
<text text-anchor="middle" x="535.026" y="-119.5" font-family="Helvetica,sans-Serif" font-size="10.00">exception</text>
</g>
<!-- Node8&#45;&gt;Node20 -->
<g id="edge23" class="edge"><title>Node8&#45;&gt;Node20</title>
<path fill="none" stroke="midnightblue" d="M416.368,-168.444C439.779,-159.478 476.762,-145.314 503.216,-135.183"/>
<polygon fill="midnightblue" stroke="midnightblue" points="504.702,-138.361 512.789,-131.516 502.199,-131.824 504.702,-138.361"/>
</g>
<!-- Node13&#45;&gt;Node3 -->
<g id="edge14" class="edge"><title>Node13&#45;&gt;Node3</title>
<path fill="none" stroke="midnightblue" d="M165.267,-113.693C168.227,-113.104 171.177,-112.532 174.026,-112 255.051,-96.8747 350.07,-81.8799 404.247,-73.5884"/>
<polygon fill="midnightblue" stroke="midnightblue" points="404.84,-77.0385 414.198,-72.0706 403.784,-70.1185 404.84,-77.0385"/>
</g>
<!-- Node14&#45;&gt;Node3 -->
<g id="edge16" class="edge"><title>Node14&#45;&gt;Node3</title>
<path fill="none" stroke="midnightblue" d="M324.319,-112.444C348.834,-103.438 387.623,-89.1891 415.226,-79.049"/>
<polygon fill="midnightblue" stroke="midnightblue" points="416.663,-82.25 424.843,-75.5164 414.249,-75.6793 416.663,-82.25"/>
</g>
<!-- Node15&#45;&gt;Node3 -->
<g id="edge18" class="edge"><title>Node15&#45;&gt;Node3</title>
<path fill="none" stroke="midnightblue" d="M728.516,-112.622C663.606,-102.064 553.162,-84.1003 492.021,-74.1557"/>
<polygon fill="midnightblue" stroke="midnightblue" points="492.355,-70.6642 481.923,-72.5133 491.231,-77.5734 492.355,-70.6642"/>
</g>
<!-- Node16 -->
<g id="node16" class="node"><title>Node16</title>
<polygon fill="none" stroke="#bfbfbf" points="758.026,-56.5 758.026,-75.5 802.026,-75.5 802.026,-56.5 758.026,-56.5"/>
<text text-anchor="middle" x="780.026" y="-63.5" font-family="Helvetica,sans-Serif" font-size="10.00">string</text>
</g>
<!-- Node15&#45;&gt;Node16 -->
<g id="edge19" class="edge"><title>Node15&#45;&gt;Node16</title>
<path fill="none" stroke="midnightblue" d="M780.026,-112.083C780.026,-105.006 780.026,-94.8611 780.026,-85.9865"/>
<polygon fill="midnightblue" stroke="midnightblue" points="783.526,-85.751 780.026,-75.7511 776.526,-85.7511 783.526,-85.751"/>
</g>
<!-- Node17 -->
<g id="node17" class="node"><title>Node17</title>
<polygon fill="none" stroke="#bfbfbf" points="820.026,-56.5 820.026,-75.5 876.026,-75.5 876.026,-56.5 820.026,-56.5"/>
<text text-anchor="middle" x="848.026" y="-63.5" font-family="Helvetica,sans-Serif" font-size="10.00">sstream</text>
</g>
<!-- Node15&#45;&gt;Node17 -->
<g id="edge20" class="edge"><title>Node15&#45;&gt;Node17</title>
<path fill="none" stroke="midnightblue" d="M790.952,-112.324C801.201,-104.185 816.747,-91.8395 829.027,-82.0874"/>
<polygon fill="midnightblue" stroke="midnightblue" points="831.248,-84.7937 836.902,-75.8339 826.894,-79.3119 831.248,-84.7937"/>
</g>
<!-- Node18 -->
<g id="node18" class="node"><title>Node18</title>
<polygon fill="none" stroke="#bfbfbf" points="708.026,-56.5 708.026,-75.5 740.026,-75.5 740.026,-56.5 708.026,-56.5"/>
<text text-anchor="middle" x="724.026" y="-63.5" font-family="Helvetica,sans-Serif" font-size="10.00">list</text>
</g>
<!-- Node15&#45;&gt;Node18 -->
<g id="edge21" class="edge"><title>Node15&#45;&gt;Node18</title>
<path fill="none" stroke="midnightblue" d="M771.029,-112.324C762.832,-104.42 750.521,-92.5482 740.554,-82.9377"/>
<polygon fill="midnightblue" stroke="midnightblue" points="742.815,-80.2558 733.187,-75.8339 737.956,-85.2947 742.815,-80.2558"/>
</g>
<!-- Node22&#45;&gt;Node8 -->
<g id="edge27" class="edge"><title>Node22&#45;&gt;Node8</title>
<path fill="none" stroke="midnightblue" d="M254.547,-280.47C248.198,-267.067 238.651,-240.868 251.026,-224 274.435,-192.094 320.48,-182.214 354.016,-179.451"/>
<polygon fill="midnightblue" stroke="midnightblue" points="354.664,-182.917 364.42,-178.785 354.217,-175.931 354.664,-182.917"/>
</g>
<!-- Node23 -->
<g id="node23" class="node"><title>Node23</title>
<g id="a_node23"><a xlink:href="particle__data_8hpp.html" target="_top" xlink:title="For more information on particle_data, see particle_data.c. ">
<polygon fill="none" stroke="black" points="260.526,-224.5 260.526,-243.5 361.526,-243.5 361.526,-224.5 260.526,-224.5"/>
<text text-anchor="middle" x="311.026" y="-231.5" font-family="Helvetica,sans-Serif" font-size="10.00">particle_data.hpp</text>
</a>
</g>
</g>
<!-- Node22&#45;&gt;Node23 -->
<g id="edge28" class="edge"><title>Node22&#45;&gt;Node23</title>
<path fill="none" stroke="midnightblue" d="M267.613,-280.083C275.185,-272.22 286.405,-260.569 295.541,-251.081"/>
<polygon fill="midnightblue" stroke="midnightblue" points="298.184,-253.382 302.599,-243.751 293.142,-248.527 298.184,-253.382"/>
</g>
<!-- Node23&#45;&gt;Node8 -->
<g id="edge29" class="edge"><title>Node23&#45;&gt;Node8</title>
<path fill="none" stroke="midnightblue" d="M324.362,-224.324C337.188,-215.979 356.811,-203.212 371.966,-193.352"/>
<polygon fill="midnightblue" stroke="midnightblue" points="374.251,-196.042 380.724,-187.655 370.433,-190.174 374.251,-196.042"/>
</g>
<!-- Node24&#45;&gt;Node8 -->
<g id="edge31" class="edge"><title>Node24&#45;&gt;Node8</title>
<path fill="none" stroke="midnightblue" d="M370.006,-392.297C373.685,-359.633 386.722,-243.866 391.892,-197.957"/>
<polygon fill="midnightblue" stroke="midnightblue" points="395.385,-198.213 393.026,-187.884 388.429,-197.429 395.385,-198.213"/>
</g>
<!-- Node24&#45;&gt;Node22 -->
<g id="edge32" class="edge"><title>Node24&#45;&gt;Node22</title>
<path fill="none" stroke="midnightblue" d="M360.395,-392.368C341.92,-373.894 298.319,-330.293 274.77,-306.744"/>
<polygon fill="midnightblue" stroke="midnightblue" points="277.164,-304.188 267.618,-299.591 272.214,-309.137 277.164,-304.188"/>
</g>
<!-- Node24&#45;&gt;Node23 -->
<g id="edge33" class="edge"><title>Node24&#45;&gt;Node23</title>
<path fill="none" stroke="midnightblue" d="M365.908,-392.075C356.739,-365.832 329.735,-288.545 317.356,-253.117"/>
<polygon fill="midnightblue" stroke="midnightblue" points="320.623,-251.854 314.02,-243.568 314.014,-254.163 320.623,-251.854"/>
</g>
<!-- Node25 -->
<g id="node25" class="node"><title>Node25</title>
<g id="a_node25"><a xlink:href="grid_8hpp.html" target="_top" xlink:title="Domain decomposition for parallel computing. ">
<polygon fill="none" stroke="black" points="453.026,-336.5 453.026,-355.5 509.026,-355.5 509.026,-336.5 453.026,-336.5"/>
<text text-anchor="middle" x="481.026" y="-343.5" font-family="Helvetica,sans-Serif" font-size="10.00">grid.hpp</text>
</a>
</g>
</g>
<!-- Node24&#45;&gt;Node25 -->
<g id="edge34" class="edge"><title>Node24&#45;&gt;Node25</title>
<path fill="none" stroke="midnightblue" d="M387.021,-392.324C405.064,-383.625 433.073,-370.12 453.829,-360.113"/>
<polygon fill="midnightblue" stroke="midnightblue" points="455.589,-363.15 463.076,-355.655 452.549,-356.845 455.589,-363.15"/>
</g>
<!-- Node25&#45;&gt;Node8 -->
<g id="edge35" class="edge"><title>Node25&#45;&gt;Node8</title>
<path fill="none" stroke="midnightblue" d="M473.61,-336.465C466.247,-327.716 454.946,-313.518 447.026,-300 426.719,-265.337 409.387,-221.457 400.467,-197.203"/>
<polygon fill="midnightblue" stroke="midnightblue" points="403.668,-195.762 396.98,-187.545 397.084,-198.139 403.668,-195.762"/>
</g>
<!-- Node25&#45;&gt;Node15 -->
<g id="edge50" class="edge"><title>Node25&#45;&gt;Node15</title>
<path fill="none" stroke="midnightblue" d="M509.158,-343.117C544.104,-339.558 604.215,-329.325 646.026,-300 704.781,-258.792 694.105,-223.967 739.026,-168 747.048,-158.006 756.668,-147.384 764.574,-138.971"/>
<polygon fill="midnightblue" stroke="midnightblue" points="767.16,-141.331 771.519,-131.675 762.089,-136.505 767.16,-141.331"/>
</g>
<!-- Node26 -->
<g id="node26" class="node"><title>Node26</title>
<polygon fill="none" stroke="#bfbfbf" points="456.026,-280.5 456.026,-299.5 506.026,-299.5 506.026,-280.5 456.026,-280.5"/>
<text text-anchor="middle" x="481.026" y="-287.5" font-family="Helvetica,sans-Serif" font-size="10.00">climits</text>
</g>
<!-- Node25&#45;&gt;Node26 -->
<g id="edge36" class="edge"><title>Node25&#45;&gt;Node26</title>
<path fill="none" stroke="midnightblue" d="M481.026,-336.083C481.026,-329.006 481.026,-318.861 481.026,-309.986"/>
<polygon fill="midnightblue" stroke="midnightblue" points="484.526,-309.751 481.026,-299.751 477.526,-309.751 484.526,-309.751"/>
</g>
<!-- Node25&#45;&gt;Node27 -->
<g id="edge37" class="edge"><title>Node25&#45;&gt;Node27</title>
<path fill="none" stroke="midnightblue" d="M497.093,-336.324C512.984,-327.743 537.534,-314.486 555.985,-304.522"/>
<polygon fill="midnightblue" stroke="midnightblue" points="557.863,-307.486 565,-299.655 554.537,-301.326 557.863,-307.486"/>
</g>
<!-- Node27&#45;&gt;Node23 -->
<g id="edge38" class="edge"><title>Node27&#45;&gt;Node23</title>
<path fill="none" stroke="midnightblue" d="M538.244,-280.444C490.847,-270.964 414.4,-255.675 363.444,-245.483"/>
<polygon fill="midnightblue" stroke="midnightblue" points="364.101,-242.046 353.609,-243.516 362.728,-248.91 364.101,-242.046"/>
</g>
<!-- Node28 -->
<g id="node28" class="node"><title>Node28</title>
<g id="a_node28"><a xlink:href="random_8hpp.html" target="_top" xlink:title="A random generator. ">
<polygon fill="none" stroke="black" points="553.526,-224.5 553.526,-243.5 628.526,-243.5 628.526,-224.5 553.526,-224.5"/>
<text text-anchor="middle" x="591.026" y="-231.5" font-family="Helvetica,sans-Serif" font-size="10.00">random.hpp</text>
</a>
</g>
</g>
<!-- Node27&#45;&gt;Node28 -->
<g id="edge39" class="edge"><title>Node27&#45;&gt;Node28</title>
<path fill="none" stroke="midnightblue" d="M582.678,-280.083C584.003,-272.927 585.909,-262.635 587.565,-253.691"/>
<polygon fill="midnightblue" stroke="midnightblue" points="591.026,-254.221 589.406,-243.751 584.143,-252.947 591.026,-254.221"/>
</g>
<!-- Node29 -->
<g id="node29" class="node"><title>Node29</title>
<g id="a_node29"><a xlink:href="topology_8hpp.html" target="_top" xlink:title="This file contains functions for handling the system topology. ">
<polygon fill="none" stroke="black" points="456.526,-224.5 456.526,-243.5 535.526,-243.5 535.526,-224.5 456.526,-224.5"/>
<text text-anchor="middle" x="496.026" y="-231.5" font-family="Helvetica,sans-Serif" font-size="10.00">topology.hpp</text>
</a>
</g>
</g>
<!-- Node27&#45;&gt;Node29 -->
<g id="edge41" class="edge"><title>Node27&#45;&gt;Node29</title>
<path fill="none" stroke="midnightblue" d="M567.37,-280.324C554.11,-271.9 533.758,-258.971 518.18,-249.074"/>
<polygon fill="midnightblue" stroke="midnightblue" points="519.967,-246.063 509.649,-243.655 516.213,-251.971 519.967,-246.063"/>
</g>
<!-- Node30 -->
<g id="node30" class="node"><title>Node30</title>
<g id="a_node30"><a xlink:href="mpi_8h.html" target="_top" xlink:title="This is the MPIfake implementation. ">
<polygon fill="none" stroke="black" points="788.026,-224.5 788.026,-243.5 832.026,-243.5 832.026,-224.5 788.026,-224.5"/>
<text text-anchor="middle" x="810.026" y="-231.5" font-family="Helvetica,sans-Serif" font-size="10.00">mpi.h</text>
</a>
</g>
</g>
<!-- Node27&#45;&gt;Node30 -->
<g id="edge43" class="edge"><title>Node27&#45;&gt;Node30</title>
<path fill="none" stroke="midnightblue" d="M617.312,-280.444C661.586,-270.003 735.746,-252.516 777.995,-242.553"/>
<polygon fill="midnightblue" stroke="midnightblue" points="778.83,-245.952 787.76,-240.251 777.223,-239.139 778.83,-245.952"/>
</g>
<!-- Node34 -->
<g id="node34" class="node"><title>Node34</title>
<g id="a_node34"><a xlink:href="cuda__init_8hpp.html" target="_top" xlink:title="cuda_init.hpp">
<polygon fill="none" stroke="black" points="610.026,-168.5 610.026,-187.5 692.026,-187.5 692.026,-168.5 610.026,-168.5"/>
<text text-anchor="middle" x="651.026" y="-175.5" font-family="Helvetica,sans-Serif" font-size="10.00">cuda_init.hpp</text>
</a>
</g>
</g>
<!-- Node27&#45;&gt;Node34 -->
<g id="edge47" class="edge"><title>Node27&#45;&gt;Node34</title>
<path fill="none" stroke="midnightblue" d="M596.824,-280.432C609.663,-272.633 627.2,-259.92 637.026,-244 645.648,-230.033 649.011,-211.529 650.297,-197.837"/>
<polygon fill="midnightblue" stroke="midnightblue" points="653.802,-197.879 650.959,-187.672 646.817,-197.424 653.802,-197.879"/>
</g>
<!-- Node28&#45;&gt;Node8 -->
<g id="edge40" class="edge"><title>Node28&#45;&gt;Node8</title>
<path fill="none" stroke="midnightblue" d="M559.811,-224.444C525.697,-215.092 470.956,-200.087 433.791,-189.9"/>
<polygon fill="midnightblue" stroke="midnightblue" points="434.376,-186.431 423.806,-187.163 432.525,-193.182 434.376,-186.431"/>
</g>
<!-- Node29&#45;&gt;Node8 -->
<g id="edge42" class="edge"><title>Node29&#45;&gt;Node8</title>
<path fill="none" stroke="midnightblue" d="M479.638,-224.324C463.355,-215.703 438.159,-202.364 419.31,-192.386"/>
<polygon fill="midnightblue" stroke="midnightblue" points="420.849,-189.24 410.374,-187.655 417.574,-195.427 420.849,-189.24"/>
</g>
<!-- Node31 -->
<g id="node31" class="node"><title>Node31</title>
<polygon fill="none" stroke="#bfbfbf" points="748.526,-168.5 748.526,-187.5 801.526,-187.5 801.526,-168.5 748.526,-168.5"/>
<text text-anchor="middle" x="775.026" y="-175.5" font-family="Helvetica,sans-Serif" font-size="10.00">string.h</text>
</g>
<!-- Node30&#45;&gt;Node31 -->
<g id="edge44" class="edge"><title>Node30&#45;&gt;Node31</title>
<path fill="none" stroke="midnightblue" d="M804.247,-224.083C799.354,-216.534 792.199,-205.495 786.194,-196.23"/>
<polygon fill="midnightblue" stroke="midnightblue" points="789.074,-194.239 780.698,-187.751 783.2,-198.046 789.074,-194.239"/>
</g>
<!-- Node32 -->
<g id="node32" class="node"><title>Node32</title>
<polygon fill="none" stroke="#bfbfbf" points="820.026,-168.5 820.026,-187.5 870.026,-187.5 870.026,-168.5 820.026,-168.5"/>
<text text-anchor="middle" x="845.026" y="-175.5" font-family="Helvetica,sans-Serif" font-size="10.00">stdio.h</text>
</g>
<!-- Node30&#45;&gt;Node32 -->
<g id="edge45" class="edge"><title>Node30&#45;&gt;Node32</title>
<path fill="none" stroke="midnightblue" d="M815.806,-224.083C820.699,-216.534 827.854,-205.495 833.859,-196.23"/>
<polygon fill="midnightblue" stroke="midnightblue" points="836.852,-198.046 839.354,-187.751 830.978,-194.239 836.852,-198.046"/>
</g>
<!-- Node33 -->
<g id="node33" class="node"><title>Node33</title>
<polygon fill="none" stroke="#bfbfbf" points="888.526,-168.5 888.526,-187.5 941.526,-187.5 941.526,-168.5 888.526,-168.5"/>
<text text-anchor="middle" x="915.026" y="-175.5" font-family="Helvetica,sans-Serif" font-size="10.00">stdlib.h</text>
</g>
<!-- Node30&#45;&gt;Node33 -->
<g id="edge46" class="edge"><title>Node30&#45;&gt;Node33</title>
<path fill="none" stroke="midnightblue" d="M826.896,-224.324C843.735,-215.664 869.833,-202.242 889.264,-192.249"/>
<polygon fill="midnightblue" stroke="midnightblue" points="890.906,-195.341 898.198,-187.655 887.705,-189.116 890.906,-195.341"/>
</g>
<!-- Node34&#45;&gt;Node3 -->
<g id="edge48" class="edge"><title>Node34&#45;&gt;Node3</title>
<path fill="none" stroke="midnightblue" d="M660.482,-168.196C673.641,-154.884 694.335,-129.351 680.026,-112 656.646,-83.6486 552.387,-72.9407 491.887,-69.0665"/>
<polygon fill="midnightblue" stroke="midnightblue" points="492.044,-65.5697 481.851,-68.4607 491.622,-72.557 492.044,-65.5697"/>
</g>
<!-- Node34&#45;&gt;Node19 -->
<g id="edge49" class="edge"><title>Node34&#45;&gt;Node19</title>
<path fill="none" stroke="midnightblue" d="M650.531,-168.083C650.138,-161.006 649.574,-150.861 649.081,-141.986"/>
<polygon fill="midnightblue" stroke="midnightblue" points="652.562,-141.542 648.513,-131.751 645.573,-141.93 652.562,-141.542"/>
</g>
</g>
</svg>
