<?xml version="1.0" encoding="UTF-8" standalone="no"?>
<!DOCTYPE svg PUBLIC "-//W3C//DTD SVG 1.1//EN"
 "http://www.w3.org/Graphics/SVG/1.1/DTD/svg11.dtd">
<!-- Generated by graphviz version 2.38.0 (20140413.2041)
 -->
<!-- Title: angle_harmonic.hpp Pages: 1 -->
<!--zoomable 420 -->
<svg id="main" version="1.1" xmlns="http://www.w3.org/2000/svg" xmlns:xlink="http://www.w3.org/1999/xlink" xml:space="preserve" onload="init(evt)">
<style type="text/css"><![CDATA[
.edge:hover path { stroke: red; }
.edge:hover polygon { stroke: red; fill: red; }
]]></style>
<script type="text/javascript"><![CDATA[
var edges = document.getElementsByTagName('g');
if (edges && edges.length) {
  for (var i=0;i<edges.length;i++) {
    if (edges[i].id.substr(0,4)=='edge') {
      edges[i].setAttribute('class','edge');
    }
  }
}
]]></script>
        <defs>
                <circle id="rim" cx="0" cy="0" r="7"/>
                <circle id="rim2" cx="0" cy="0" r="3.5"/>
                <g id="zoomPlus">
                        <use xlink:href="#rim" fill="#404040">
                                <set attributeName="fill" to="#808080" begin="zoomplus.mouseover" end="zoomplus.mouseout"/>
                        </use>
                        <path d="M-4,0h8M0,-4v8" fill="none" stroke="white" stroke-width="1.5" pointer-events="none"/>
                </g>
                <g id="zoomMin">
                        <use xlink:href="#rim" fill="#404040">
                                <set attributeName="fill" to="#808080" begin="zoomminus.mouseover" end="zoomminus.mouseout"/>
                        </use>
                        <path d="M-4,0h8" fill="none" stroke="white" stroke-width="1.5" pointer-events="none"/>
                </g>
                <g id="dirArrow">
                        <path fill="none" stroke="white" stroke-width="1.5" d="M0,-3.0v7 M-2.5,-0.5L0,-3.0L2.5,-0.5"/>
                </g>
               <g id="resetDef">
                       <use xlink:href="#rim2" fill="#404040">
                               <set attributeName="fill" to="#808080" begin="reset.mouseover" end="reset.mouseout"/>
                       </use>
               </g>
        </defs>

<script type="text/javascript">
var viewWidth = 876;
var viewHeight = 420;
var sectionId = 'dynsection-0';
</script>
<script xlink:href="svgpan.js"/>
<svg id="graph" class="graph">
<g id="viewport">
<title>angle_harmonic.hpp</title>
<!-- Node1 -->
<g id="node1" class="node"><title>Node1</title>
<polygon fill="#bfbfbf" stroke="black" points="308,-392.5 308,-411.5 424,-411.5 424,-392.5 308,-392.5"/>
<text text-anchor="middle" x="366" y="-399.5" font-family="Helvetica,sans-Serif" font-size="10.00">angle_harmonic.hpp</text>
</g>
<!-- Node2 -->
<g id="node2" class="node"><title>Node2</title>
<g id="a_node2"><a xlink:href="utils_8hpp.html" target="_top" xlink:title="Small functions that are useful not only for one modul. ">
<polygon fill="none" stroke="black" points="327.5,-168.5 327.5,-187.5 386.5,-187.5 386.5,-168.5 327.5,-168.5"/>
<text text-anchor="middle" x="357" y="-175.5" font-family="Helvetica,sans-Serif" font-size="10.00">utils.hpp</text>
</a>
</g>
</g>
<!-- Node1&#45;&gt;Node2 -->
<g id="edge1" class="edge"><title>Node1&#45;&gt;Node2</title>
<path fill="none" stroke="midnightblue" d="M347.441,-392.433C318.766,-378.031 264.731,-345.963 243,-300 220.672,-252.775 286.897,-211.845 327.623,-191.914"/>
<polygon fill="midnightblue" stroke="midnightblue" points="329.33,-194.978 336.867,-187.533 326.332,-188.653 329.33,-194.978"/>
</g>
<!-- Node19 -->
<g id="node19" class="node"><title>Node19</title>
<g id="a_node19"><a xlink:href="interaction__data_8hpp.html" target="_top" xlink:title="Various procedures concerning interactions between particles. ">
<polygon fill="none" stroke="black" points="252.5,-280.5 252.5,-299.5 369.5,-299.5 369.5,-280.5 252.5,-280.5"/>
<text text-anchor="middle" x="311" y="-287.5" font-family="Helvetica,sans-Serif" font-size="10.00">interaction_data.hpp</text>
</a>
</g>
</g>
<!-- Node1&#45;&gt;Node19 -->
<g id="edge21" class="edge"><title>Node1&#45;&gt;Node19</title>
<path fill="none" stroke="midnightblue" d="M361.684,-392.368C352.688,-374.376 331.775,-332.55 319.813,-308.627"/>
<polygon fill="midnightblue" stroke="midnightblue" points="322.898,-306.97 315.296,-299.591 316.637,-310.101 322.898,-306.97"/>
</g>
<!-- Node20 -->
<g id="node20" class="node"><title>Node20</title>
<g id="a_node20"><a xlink:href="particle__data_8hpp.html" target="_top" xlink:title="For more information on particle_data, see particle_data.c. ">
<polygon fill="none" stroke="black" points="306.5,-224.5 306.5,-243.5 407.5,-243.5 407.5,-224.5 306.5,-224.5"/>
<text text-anchor="middle" x="357" y="-231.5" font-family="Helvetica,sans-Serif" font-size="10.00">particle_data.hpp</text>
</a>
</g>
</g>
<!-- Node1&#45;&gt;Node20 -->
<g id="edge25" class="edge"><title>Node1&#45;&gt;Node20</title>
<path fill="none" stroke="midnightblue" d="M368.696,-392.381C374.551,-372.392 387.19,-321.424 378,-280 375.876,-270.426 371.493,-260.476 367.279,-252.374"/>
<polygon fill="midnightblue" stroke="midnightblue" points="370.298,-250.601 362.384,-243.557 364.178,-253.999 370.298,-250.601"/>
</g>
<!-- Node21 -->
<g id="node21" class="node"><title>Node21</title>
<g id="a_node21"><a xlink:href="grid_8hpp.html" target="_top" xlink:title="Domain decomposition for parallel computing. ">
<polygon fill="none" stroke="black" points="532,-336.5 532,-355.5 588,-355.5 588,-336.5 532,-336.5"/>
<text text-anchor="middle" x="560" y="-343.5" font-family="Helvetica,sans-Serif" font-size="10.00">grid.hpp</text>
</a>
</g>
</g>
<!-- Node1&#45;&gt;Node21 -->
<g id="edge26" class="edge"><title>Node1&#45;&gt;Node21</title>
<path fill="none" stroke="midnightblue" d="M396.74,-392.444C430.725,-382.984 485.498,-367.738 522.111,-357.546"/>
<polygon fill="midnightblue" stroke="midnightblue" points="523.228,-360.869 531.924,-354.815 521.351,-354.125 523.228,-360.869"/>
</g>
<!-- Node3 -->
<g id="node3" class="node"><title>Node3</title>
<polygon fill="none" stroke="#bfbfbf" points="407.5,-112.5 407.5,-131.5 454.5,-131.5 454.5,-112.5 407.5,-112.5"/>
<text text-anchor="middle" x="431" y="-119.5" font-family="Helvetica,sans-Serif" font-size="10.00">cmath</text>
</g>
<!-- Node2&#45;&gt;Node3 -->
<g id="edge2" class="edge"><title>Node2&#45;&gt;Node3</title>
<path fill="none" stroke="midnightblue" d="M368.889,-168.324C380.15,-160.107 397.287,-147.602 410.709,-137.807"/>
<polygon fill="midnightblue" stroke="midnightblue" points="412.88,-140.556 418.894,-131.834 408.753,-134.901 412.88,-140.556"/>
</g>
<!-- Node4 -->
<g id="node4" class="node"><title>Node4</title>
<polygon fill="none" stroke="#bfbfbf" points="0,-112.5 0,-131.5 46,-131.5 46,-112.5 0,-112.5"/>
<text text-anchor="middle" x="23" y="-119.5" font-family="Helvetica,sans-Serif" font-size="10.00">cstdio</text>
</g>
<!-- Node2&#45;&gt;Node4 -->
<g id="edge3" class="edge"><title>Node2&#45;&gt;Node4</title>
<path fill="none" stroke="midnightblue" d="M327.199,-173.824C274.407,-167.927 160.889,-154.029 56.1184,-132.015"/>
<polygon fill="midnightblue" stroke="midnightblue" points="56.8437,-128.591 46.3337,-129.93 55.3844,-135.438 56.8437,-128.591"/>
</g>
<!-- Node5 -->
<g id="node5" class="node"><title>Node5</title>
<polygon fill="none" stroke="#bfbfbf" points="64.5,-112.5 64.5,-131.5 113.5,-131.5 113.5,-112.5 64.5,-112.5"/>
<text text-anchor="middle" x="89" y="-119.5" font-family="Helvetica,sans-Serif" font-size="10.00">cstdlib</text>
</g>
<!-- Node2&#45;&gt;Node5 -->
<g id="edge4" class="edge"><title>Node2&#45;&gt;Node5</title>
<path fill="none" stroke="midnightblue" d="M327.312,-171.966C284.577,-164.573 203.047,-149.927 123.964,-132.09"/>
<polygon fill="midnightblue" stroke="midnightblue" points="124.361,-128.591 113.834,-129.785 122.807,-135.417 124.361,-128.591"/>
</g>
<!-- Node6 -->
<g id="node6" class="node"><title>Node6</title>
<polygon fill="none" stroke="#bfbfbf" points="132,-112.5 132,-131.5 182,-131.5 182,-112.5 132,-112.5"/>
<text text-anchor="middle" x="157" y="-119.5" font-family="Helvetica,sans-Serif" font-size="10.00">cstring</text>
</g>
<!-- Node2&#45;&gt;Node6 -->
<g id="edge5" class="edge"><title>Node2&#45;&gt;Node6</title>
<path fill="none" stroke="midnightblue" d="M327.489,-169.032C291.381,-159.283 230.326,-142.798 191.918,-132.428"/>
<polygon fill="midnightblue" stroke="midnightblue" points="192.764,-129.031 182.197,-129.803 190.939,-135.789 192.764,-129.031"/>
</g>
<!-- Node7 -->
<g id="node7" class="node"><title>Node7</title>
<g id="a_node7"><a xlink:href="config_8hpp.html" target="_top" xlink:title="This file contains the defaults for Espresso. ">
<polygon fill="none" stroke="black" points="491.5,-56.5 491.5,-75.5 558.5,-75.5 558.5,-56.5 491.5,-56.5"/>
<text text-anchor="middle" x="525" y="-63.5" font-family="Helvetica,sans-Serif" font-size="10.00">config.hpp</text>
</a>
</g>
</g>
<!-- Node2&#45;&gt;Node7 -->
<g id="edge6" class="edge"><title>Node2&#45;&gt;Node7</title>
<path fill="none" stroke="midnightblue" d="M327.495,-173.083C280.923,-165.737 198.622,-147.346 229,-112 260.969,-74.8031 406.662,-67.9933 481.035,-66.9831"/>
<polygon fill="midnightblue" stroke="midnightblue" points="481.506,-70.4785 491.468,-66.8732 481.432,-63.4788 481.506,-70.4785"/>
</g>
<!-- Node11 -->
<g id="node11" class="node"><title>Node11</title>
<g id="a_node11"><a xlink:href="debug_8hpp.html" target="_top" xlink:title="This file controls debug facilities. ">
<polygon fill="none" stroke="black" points="238,-112.5 238,-131.5 306,-131.5 306,-112.5 238,-112.5"/>
<text text-anchor="middle" x="272" y="-119.5" font-family="Helvetica,sans-Serif" font-size="10.00">debug.hpp</text>
</a>
</g>
</g>
<!-- Node2&#45;&gt;Node11 -->
<g id="edge10" class="edge"><title>Node2&#45;&gt;Node11</title>
<path fill="none" stroke="midnightblue" d="M343.343,-168.324C330.084,-159.9 309.732,-146.971 294.154,-137.074"/>
<polygon fill="midnightblue" stroke="midnightblue" points="295.94,-134.063 285.623,-131.655 292.187,-139.971 295.94,-134.063"/>
</g>
<!-- Node12 -->
<g id="node12" class="node"><title>Node12</title>
<g id="a_node12"><a xlink:href="lees__edwards_8hpp.html" target="_top" xlink:title="lees_edwards.hpp">
<polygon fill="none" stroke="black" points="473,-112.5 473,-131.5 577,-131.5 577,-112.5 473,-112.5"/>
<text text-anchor="middle" x="525" y="-119.5" font-family="Helvetica,sans-Serif" font-size="10.00">lees_edwards.hpp</text>
</a>
</g>
</g>
<!-- Node2&#45;&gt;Node12 -->
<g id="edge12" class="edge"><title>Node2&#45;&gt;Node12</title>
<path fill="none" stroke="midnightblue" d="M383.62,-168.444C412.006,-159.32 457.137,-144.813 488.753,-134.651"/>
<polygon fill="midnightblue" stroke="midnightblue" points="490.055,-137.909 498.504,-131.516 487.913,-131.244 490.055,-137.909"/>
</g>
<!-- Node13 -->
<g id="node13" class="node"><title>Node13</title>
<g id="a_node13"><a xlink:href="errorhandling_8hpp.html" target="_top" xlink:title="This file contains the errorhandling code for severe errors, like a broken bond or illegal parameter ...">
<polygon fill="none" stroke="black" points="699.5,-112.5 699.5,-131.5 802.5,-131.5 802.5,-112.5 699.5,-112.5"/>
<text text-anchor="middle" x="751" y="-119.5" font-family="Helvetica,sans-Serif" font-size="10.00">errorhandling.hpp</text>
</a>
</g>
</g>
<!-- Node2&#45;&gt;Node13 -->
<g id="edge14" class="edge"><title>Node2&#45;&gt;Node13</title>
<path fill="none" stroke="midnightblue" d="M386.614,-172.941C450.674,-164.161 603.263,-143.248 689.286,-131.458"/>
<polygon fill="midnightblue" stroke="midnightblue" points="690.004,-134.893 699.436,-130.067 689.053,-127.958 690.004,-134.893"/>
</g>
<!-- Node17 -->
<g id="node17" class="node"><title>Node17</title>
<polygon fill="none" stroke="#bfbfbf" points="595.5,-112.5 595.5,-131.5 642.5,-131.5 642.5,-112.5 595.5,-112.5"/>
<text text-anchor="middle" x="619" y="-119.5" font-family="Helvetica,sans-Serif" font-size="10.00">vector</text>
</g>
<!-- Node2&#45;&gt;Node17 -->
<g id="edge19" class="edge"><title>Node2&#45;&gt;Node17</title>
<path fill="none" stroke="midnightblue" d="M386.79,-171.856C428.827,-164.442 508.139,-149.894 585.365,-132.008"/>
<polygon fill="midnightblue" stroke="midnightblue" points="586.318,-135.379 595.259,-129.695 584.725,-128.563 586.318,-135.379"/>
</g>
<!-- Node18 -->
<g id="node18" class="node"><title>Node18</title>
<polygon fill="none" stroke="#bfbfbf" points="324.5,-112.5 324.5,-131.5 389.5,-131.5 389.5,-112.5 324.5,-112.5"/>
<text text-anchor="middle" x="357" y="-119.5" font-family="Helvetica,sans-Serif" font-size="10.00">exception</text>
</g>
<!-- Node2&#45;&gt;Node18 -->
<g id="edge20" class="edge"><title>Node2&#45;&gt;Node18</title>
<path fill="none" stroke="midnightblue" d="M357,-168.083C357,-161.006 357,-150.861 357,-141.986"/>
<polygon fill="midnightblue" stroke="midnightblue" points="360.5,-141.751 357,-131.751 353.5,-141.751 360.5,-141.751"/>
</g>
<!-- Node8 -->
<g id="node8" class="node"><title>Node8</title>
<g id="a_node8"><a xlink:href="acconfig_8hpp.html" target="_top" xlink:title="acconfig.hpp">
<polygon fill="none" stroke="black" points="375,-0.5 375,-19.5 453,-19.5 453,-0.5 375,-0.5"/>
<text text-anchor="middle" x="414" y="-7.5" font-family="Helvetica,sans-Serif" font-size="10.00">acconfig.hpp</text>
</a>
</g>
</g>
<!-- Node7&#45;&gt;Node8 -->
<g id="edge7" class="edge"><title>Node7&#45;&gt;Node8</title>
<path fill="none" stroke="midnightblue" d="M507.166,-56.324C489.284,-47.6247 461.525,-34.1202 440.954,-24.113"/>
<polygon fill="midnightblue" stroke="midnightblue" points="442.313,-20.8819 431.79,-19.6545 439.251,-27.1765 442.313,-20.8819"/>
</g>
<!-- Node9 -->
<g id="node9" class="node"><title>Node9</title>
<g id="a_node9"><a xlink:href="myconfig-final_8hpp.html" target="_top" xlink:title="myconfig&#45;final.hpp">
<polygon fill="none" stroke="black" points="471.5,-0.5 471.5,-19.5 578.5,-19.5 578.5,-0.5 471.5,-0.5"/>
<text text-anchor="middle" x="525" y="-7.5" font-family="Helvetica,sans-Serif" font-size="10.00">myconfig&#45;final.hpp</text>
</a>
</g>
</g>
<!-- Node7&#45;&gt;Node9 -->
<g id="edge8" class="edge"><title>Node7&#45;&gt;Node9</title>
<path fill="none" stroke="midnightblue" d="M525,-56.083C525,-49.0059 525,-38.8611 525,-29.9865"/>
<polygon fill="midnightblue" stroke="midnightblue" points="528.5,-29.751 525,-19.7511 521.5,-29.7511 528.5,-29.751"/>
</g>
<!-- Node10 -->
<g id="node10" class="node"><title>Node10</title>
<g id="a_node10"><a xlink:href="config-features_8hpp.html" target="_top" xlink:title="config&#45;features.hpp">
<polygon fill="none" stroke="black" points="596.5,-0.5 596.5,-19.5 707.5,-19.5 707.5,-0.5 596.5,-0.5"/>
<text text-anchor="middle" x="652" y="-7.5" font-family="Helvetica,sans-Serif" font-size="10.00">config&#45;features.hpp</text>
</a>
</g>
</g>
<!-- Node7&#45;&gt;Node10 -->
<g id="edge9" class="edge"><title>Node7&#45;&gt;Node10</title>
<path fill="none" stroke="midnightblue" d="M545.124,-56.4435C566.024,-47.5566 598.935,-33.5632 622.716,-23.4514"/>
<polygon fill="midnightblue" stroke="midnightblue" points="624.138,-26.6504 631.971,-19.5164 621.398,-20.2085 624.138,-26.6504"/>
</g>
<!-- Node11&#45;&gt;Node7 -->
<g id="edge11" class="edge"><title>Node11&#45;&gt;Node7</title>
<path fill="none" stroke="midnightblue" d="M306.121,-113.717C351.548,-104.021 431.921,-86.8666 481.609,-76.2614"/>
<polygon fill="midnightblue" stroke="midnightblue" points="482.371,-79.6776 491.42,-74.1673 480.91,-72.8318 482.371,-79.6776"/>
</g>
<!-- Node12&#45;&gt;Node7 -->
<g id="edge13" class="edge"><title>Node12&#45;&gt;Node7</title>
<path fill="none" stroke="midnightblue" d="M525,-112.083C525,-105.006 525,-94.8611 525,-85.9865"/>
<polygon fill="midnightblue" stroke="midnightblue" points="528.5,-85.751 525,-75.7511 521.5,-85.7511 528.5,-85.751"/>
</g>
<!-- Node13&#45;&gt;Node7 -->
<g id="edge15" class="edge"><title>Node13&#45;&gt;Node7</title>
<path fill="none" stroke="midnightblue" d="M715.19,-112.444C675.436,-102.945 611.269,-87.6129 568.617,-77.4217"/>
<polygon fill="midnightblue" stroke="midnightblue" points="569.337,-73.9953 558.797,-75.0755 567.71,-80.8037 569.337,-73.9953"/>
</g>
<!-- Node14 -->
<g id="node14" class="node"><title>Node14</title>
<polygon fill="none" stroke="#bfbfbf" points="661,-56.5 661,-75.5 705,-75.5 705,-56.5 661,-56.5"/>
<text text-anchor="middle" x="683" y="-63.5" font-family="Helvetica,sans-Serif" font-size="10.00">string</text>
</g>
<!-- Node13&#45;&gt;Node14 -->
<g id="edge16" class="edge"><title>Node13&#45;&gt;Node14</title>
<path fill="none" stroke="midnightblue" d="M740.075,-112.324C729.825,-104.185 714.279,-91.8395 701.999,-82.0874"/>
<polygon fill="midnightblue" stroke="midnightblue" points="704.132,-79.3119 694.124,-75.8339 699.779,-84.7937 704.132,-79.3119"/>
</g>
<!-- Node15 -->
<g id="node15" class="node"><title>Node15</title>
<polygon fill="none" stroke="#bfbfbf" points="723,-56.5 723,-75.5 779,-75.5 779,-56.5 723,-56.5"/>
<text text-anchor="middle" x="751" y="-63.5" font-family="Helvetica,sans-Serif" font-size="10.00">sstream</text>
</g>
<!-- Node13&#45;&gt;Node15 -->
<g id="edge17" class="edge"><title>Node13&#45;&gt;Node15</title>
<path fill="none" stroke="midnightblue" d="M751,-112.083C751,-105.006 751,-94.8611 751,-85.9865"/>
<polygon fill="midnightblue" stroke="midnightblue" points="754.5,-85.751 751,-75.7511 747.5,-85.7511 754.5,-85.751"/>
</g>
<!-- Node16 -->
<g id="node16" class="node"><title>Node16</title>
<polygon fill="none" stroke="#bfbfbf" points="797,-56.5 797,-75.5 829,-75.5 829,-56.5 797,-56.5"/>
<text text-anchor="middle" x="813" y="-63.5" font-family="Helvetica,sans-Serif" font-size="10.00">list</text>
</g>
<!-- Node13&#45;&gt;Node16 -->
<g id="edge18" class="edge"><title>Node13&#45;&gt;Node16</title>
<path fill="none" stroke="midnightblue" d="M760.961,-112.324C770.127,-104.341 783.937,-92.3128 795.028,-82.6529"/>
<polygon fill="midnightblue" stroke="midnightblue" points="797.615,-85.041 802.857,-75.8339 793.018,-79.7624 797.615,-85.041"/>
</g>
<!-- Node19&#45;&gt;Node2 -->
<g id="edge22" class="edge"><title>Node19&#45;&gt;Node2</title>
<path fill="none" stroke="midnightblue" d="M305.574,-280.129C298.404,-267.17 287.708,-242.585 297,-224 303.728,-210.543 316.606,-200.067 328.712,-192.621"/>
<polygon fill="midnightblue" stroke="midnightblue" points="330.733,-195.498 337.704,-187.52 327.279,-189.41 330.733,-195.498"/>
</g>
<!-- Node19&#45;&gt;Node20 -->
<g id="edge23" class="edge"><title>Node19&#45;&gt;Node20</title>
<path fill="none" stroke="midnightblue" d="M318.596,-280.083C325.227,-272.298 335.021,-260.801 343.058,-251.367"/>
<polygon fill="midnightblue" stroke="midnightblue" points="345.725,-253.633 349.545,-243.751 340.396,-249.094 345.725,-253.633"/>
</g>
<!-- Node20&#45;&gt;Node2 -->
<g id="edge24" class="edge"><title>Node20&#45;&gt;Node2</title>
<path fill="none" stroke="midnightblue" d="M357,-224.083C357,-217.006 357,-206.861 357,-197.986"/>
<polygon fill="midnightblue" stroke="midnightblue" points="360.5,-197.751 357,-187.751 353.5,-197.751 360.5,-197.751"/>
</g>
<!-- Node21&#45;&gt;Node2 -->
<g id="edge27" class="edge"><title>Node21&#45;&gt;Node2</title>
<path fill="none" stroke="midnightblue" d="M545.847,-336.363C532.128,-327.761 510.963,-313.87 494,-300 456.53,-269.362 452.643,-255.623 416,-224 403.565,-213.269 388.882,-202.065 377.274,-193.52"/>
<polygon fill="midnightblue" stroke="midnightblue" points="379.229,-190.614 369.085,-187.557 375.108,-196.273 379.229,-190.614"/>
</g>
<!-- Node21&#45;&gt;Node13 -->
<g id="edge42" class="edge"><title>Node21&#45;&gt;Node13</title>
<path fill="none" stroke="midnightblue" d="M588.226,-340.929C652.262,-329.952 807.376,-293.114 864,-188 878.864,-160.408 844.581,-143.647 809.973,-134.073"/>
<polygon fill="midnightblue" stroke="midnightblue" points="810.802,-130.672 800.244,-131.561 809.051,-137.45 810.802,-130.672"/>
</g>
<!-- Node22 -->
<g id="node22" class="node"><title>Node22</title>
<polygon fill="none" stroke="#bfbfbf" points="635,-280.5 635,-299.5 685,-299.5 685,-280.5 635,-280.5"/>
<text text-anchor="middle" x="660" y="-287.5" font-family="Helvetica,sans-Serif" font-size="10.00">climits</text>
</g>
<!-- Node21&#45;&gt;Node22 -->
<g id="edge28" class="edge"><title>Node21&#45;&gt;Node22</title>
<path fill="none" stroke="midnightblue" d="M576.067,-336.324C591.958,-327.743 616.507,-314.486 634.958,-304.522"/>
<polygon fill="midnightblue" stroke="midnightblue" points="636.837,-307.486 643.973,-299.655 633.511,-301.326 636.837,-307.486"/>
</g>
<!-- Node23 -->
<g id="node23" class="node"><title>Node23</title>
<g id="a_node23"><a xlink:href="communication_8hpp.html" target="_top" xlink:title="This file contains the asynchronous MPI communication. ">
<polygon fill="none" stroke="black" points="503.5,-280.5 503.5,-299.5 616.5,-299.5 616.5,-280.5 503.5,-280.5"/>
<text text-anchor="middle" x="560" y="-287.5" font-family="Helvetica,sans-Serif" font-size="10.00">communication.hpp</text>
</a>
</g>
</g>
<!-- Node21&#45;&gt;Node23 -->
<g id="edge29" class="edge"><title>Node21&#45;&gt;Node23</title>
<path fill="none" stroke="midnightblue" d="M560,-336.083C560,-329.006 560,-318.861 560,-309.986"/>
<polygon fill="midnightblue" stroke="midnightblue" points="563.5,-309.751 560,-299.751 556.5,-309.751 563.5,-309.751"/>
</g>
<!-- Node23&#45;&gt;Node20 -->
<g id="edge30" class="edge"><title>Node23&#45;&gt;Node20</title>
<path fill="none" stroke="midnightblue" d="M527.834,-280.444C492.941,-271.162 437.107,-256.309 398.829,-246.127"/>
<polygon fill="midnightblue" stroke="midnightblue" points="399.579,-242.705 389.015,-243.516 397.78,-249.47 399.579,-242.705"/>
</g>
<!-- Node24 -->
<g id="node24" class="node"><title>Node24</title>
<g id="a_node24"><a xlink:href="random_8hpp.html" target="_top" xlink:title="A random generator. ">
<polygon fill="none" stroke="black" points="561.5,-224.5 561.5,-243.5 636.5,-243.5 636.5,-224.5 561.5,-224.5"/>
<text text-anchor="middle" x="599" y="-231.5" font-family="Helvetica,sans-Serif" font-size="10.00">random.hpp</text>
</a>
</g>
</g>
<!-- Node23&#45;&gt;Node24 -->
<g id="edge31" class="edge"><title>Node23&#45;&gt;Node24</title>
<path fill="none" stroke="midnightblue" d="M566.44,-280.083C571.949,-272.455 580.031,-261.264 586.765,-251.941"/>
<polygon fill="midnightblue" stroke="midnightblue" points="589.662,-253.907 592.68,-243.751 583.987,-249.809 589.662,-253.907"/>
</g>
<!-- Node25 -->
<g id="node25" class="node"><title>Node25</title>
<g id="a_node25"><a xlink:href="topology_8hpp.html" target="_top" xlink:title="This file contains functions for handling the system topology. ">
<polygon fill="none" stroke="black" points="464.5,-224.5 464.5,-243.5 543.5,-243.5 543.5,-224.5 464.5,-224.5"/>
<text text-anchor="middle" x="504" y="-231.5" font-family="Helvetica,sans-Serif" font-size="10.00">topology.hpp</text>
</a>
</g>
</g>
<!-- Node23&#45;&gt;Node25 -->
<g id="edge33" class="edge"><title>Node23&#45;&gt;Node25</title>
<path fill="none" stroke="midnightblue" d="M551.003,-280.324C542.806,-272.42 530.494,-260.548 520.528,-250.938"/>
<polygon fill="midnightblue" stroke="midnightblue" points="522.789,-248.256 513.161,-243.834 517.93,-253.295 522.789,-248.256"/>
</g>
<!-- Node26 -->
<g id="node26" class="node"><title>Node26</title>
<g id="a_node26"><a xlink:href="mpi_8h.html" target="_top" xlink:title="This is the MPIfake implementation. ">
<polygon fill="none" stroke="black" points="708,-224.5 708,-243.5 752,-243.5 752,-224.5 708,-224.5"/>
<text text-anchor="middle" x="730" y="-231.5" font-family="Helvetica,sans-Serif" font-size="10.00">mpi.h</text>
</a>
</g>
</g>
<!-- Node23&#45;&gt;Node26 -->
<g id="edge35" class="edge"><title>Node23&#45;&gt;Node26</title>
<path fill="none" stroke="midnightblue" d="M586.937,-280.444C617.097,-270.863 665.938,-255.349 698.014,-245.16"/>
<polygon fill="midnightblue" stroke="midnightblue" points="699.323,-248.417 707.794,-242.054 697.204,-241.745 699.323,-248.417"/>
</g>
<!-- Node30 -->
<g id="node30" class="node"><title>Node30</title>
<g id="a_node30"><a xlink:href="cuda__init_8hpp.html" target="_top" xlink:title="cuda_init.hpp">
<polygon fill="none" stroke="black" points="562,-168.5 562,-187.5 644,-187.5 644,-168.5 562,-168.5"/>
<text text-anchor="middle" x="603" y="-175.5" font-family="Helvetica,sans-Serif" font-size="10.00">cuda_init.hpp</text>
</a>
</g>
</g>
<!-- Node23&#45;&gt;Node30 -->
<g id="edge39" class="edge"><title>Node23&#45;&gt;Node30</title>
<path fill="none" stroke="midnightblue" d="M593.799,-280.388C612.393,-273.735 633.89,-262.453 645,-244 655.467,-226.616 638.965,-207.12 623.673,-194.055"/>
<polygon fill="midnightblue" stroke="midnightblue" points="625.478,-191.018 615.48,-187.512 621.11,-196.487 625.478,-191.018"/>
</g>
<!-- Node24&#45;&gt;Node2 -->
<g id="edge32" class="edge"><title>Node24&#45;&gt;Node2</title>
<path fill="none" stroke="midnightblue" d="M561.453,-224.622C516.65,-214.624 442.083,-197.985 396.454,-187.804"/>
<polygon fill="midnightblue" stroke="midnightblue" points="397.146,-184.372 386.623,-185.61 395.621,-191.204 397.146,-184.372"/>
</g>
<!-- Node25&#45;&gt;Node2 -->
<g id="edge34" class="edge"><title>Node25&#45;&gt;Node2</title>
<path fill="none" stroke="midnightblue" d="M480.707,-224.444C456.193,-215.438 417.404,-201.189 389.8,-191.049"/>
<polygon fill="midnightblue" stroke="midnightblue" points="390.777,-187.679 380.184,-187.516 388.363,-194.25 390.777,-187.679"/>
</g>
<!-- Node27 -->
<g id="node27" class="node"><title>Node27</title>
<polygon fill="none" stroke="#bfbfbf" points="733.5,-168.5 733.5,-187.5 786.5,-187.5 786.5,-168.5 733.5,-168.5"/>
<text text-anchor="middle" x="760" y="-175.5" font-family="Helvetica,sans-Serif" font-size="10.00">string.h</text>
</g>
<!-- Node26&#45;&gt;Node27 -->
<g id="edge36" class="edge"><title>Node26&#45;&gt;Node27</title>
<path fill="none" stroke="midnightblue" d="M734.954,-224.083C739.104,-216.613 745.153,-205.724 750.267,-196.52"/>
<polygon fill="midnightblue" stroke="midnightblue" points="753.341,-198.192 755.138,-187.751 747.222,-194.793 753.341,-198.192"/>
</g>
<!-- Node28 -->
<g id="node28" class="node"><title>Node28</title>
<polygon fill="none" stroke="#bfbfbf" points="805,-168.5 805,-187.5 855,-187.5 855,-168.5 805,-168.5"/>
<text text-anchor="middle" x="830" y="-175.5" font-family="Helvetica,sans-Serif" font-size="10.00">stdio.h</text>
</g>
<!-- Node26&#45;&gt;Node28 -->
<g id="edge37" class="edge"><title>Node26&#45;&gt;Node28</title>
<path fill="none" stroke="midnightblue" d="M746.067,-224.324C761.958,-215.743 786.507,-202.486 804.958,-192.522"/>
<polygon fill="midnightblue" stroke="midnightblue" points="806.837,-195.486 813.973,-187.655 803.511,-189.326 806.837,-195.486"/>
</g>
<!-- Node29 -->
<g id="node29" class="node"><title>Node29</title>
<polygon fill="none" stroke="#bfbfbf" points="662.5,-168.5 662.5,-187.5 715.5,-187.5 715.5,-168.5 662.5,-168.5"/>
<text text-anchor="middle" x="689" y="-175.5" font-family="Helvetica,sans-Serif" font-size="10.00">stdlib.h</text>
</g>
<!-- Node26&#45;&gt;Node29 -->
<g id="edge38" class="edge"><title>Node26&#45;&gt;Node29</title>
<path fill="none" stroke="midnightblue" d="M723.23,-224.083C717.438,-216.455 708.942,-205.264 701.862,-195.941"/>
<polygon fill="midnightblue" stroke="midnightblue" points="704.479,-193.599 695.644,-187.751 698.904,-197.832 704.479,-193.599"/>
</g>
<!-- Node30&#45;&gt;Node7 -->
<g id="edge40" class="edge"><title>Node30&#45;&gt;Node7</title>
<path fill="none" stroke="midnightblue" d="M617.341,-168.467C636.234,-156.126 665.465,-132.526 651,-112 632.529,-85.7889 597.339,-74.7609 568.834,-70.1629"/>
<polygon fill="midnightblue" stroke="midnightblue" points="569.065,-66.6614 558.677,-68.7437 568.097,-73.594 569.065,-66.6614"/>
</g>
<!-- Node30&#45;&gt;Node17 -->
<g id="edge41" class="edge"><title>Node30&#45;&gt;Node17</title>
<path fill="none" stroke="midnightblue" d="M605.642,-168.083C607.786,-160.849 610.879,-150.409 613.549,-141.397"/>
<polygon fill="midnightblue" stroke="midnightblue" points="616.922,-142.333 616.407,-131.751 610.21,-140.345 616.922,-142.333"/>
</g>
</g>
</svg>
        <g id="navigator" transform="translate(0 0)" fill="#404254">
                <rect fill="#f2f5e9" fill-opacity="0.5" stroke="#606060" stroke-width=".5" x="0" y="0" width="60" height="60"/>
                <use id="zoomplus" xlink:href="#zoomPlus" x="17" y="9" onmousedown="handleZoom(evt,'in')"/>
                <use id="zoomminus" xlink:href="#zoomMin" x="42" y="9" onmousedown="handleZoom(evt,'out')"/>
                <use id="reset" xlink:href="#resetDef" x="30" y="36" onmousedown="handleReset()"/>
                <g id="arrowUp" xlink:href="#dirArrow" transform="translate(30 24)" onmousedown="handlePan(0,-1)">
                  <use xlink:href="#rim" fill="#404040">
                        <set attributeName="fill" to="#808080" begin="arrowUp.mouseover" end="arrowUp.mouseout"/>
                  </use>
                  <path fill="none" stroke="white" stroke-width="1.5" d="M0,-3.0v7 M-2.5,-0.5L0,-3.0L2.5,-0.5"/>
                </g>
                <g id="arrowRight" xlink:href="#dirArrow" transform="rotate(90) translate(36 -43)" onmousedown="handlePan(1,0)">
                  <use xlink:href="#rim" fill="#404040">
                        <set attributeName="fill" to="#808080" begin="arrowRight.mouseover" end="arrowRight.mouseout"/>
                  </use>
                  <path fill="none" stroke="white" stroke-width="1.5" d="M0,-3.0v7 M-2.5,-0.5L0,-3.0L2.5,-0.5"/>
                </g>
                <g id="arrowDown" xlink:href="#dirArrow" transform="rotate(180) translate(-30 -48)" onmousedown="handlePan(0,1)">
                  <use xlink:href="#rim" fill="#404040">
                        <set attributeName="fill" to="#808080" begin="arrowDown.mouseover" end="arrowDown.mouseout"/>
                  </use>
                  <path fill="none" stroke="white" stroke-width="1.5" d="M0,-3.0v7 M-2.5,-0.5L0,-3.0L2.5,-0.5"/>
                </g>
                <g id="arrowLeft" xlink:href="#dirArrow" transform="rotate(270) translate(-36 17)" onmousedown="handlePan(-1,0)">
                  <use xlink:href="#rim" fill="#404040">
                        <set attributeName="fill" to="#808080" begin="arrowLeft.mouseover" end="arrowLeft.mouseout"/>
                  </use>
                  <path fill="none" stroke="white" stroke-width="1.5" d="M0,-3.0v7 M-2.5,-0.5L0,-3.0L2.5,-0.5"/>
                </g>
        </g>
        <svg viewBox="0 0 15 15" width="100%" height="30px" preserveAspectRatio="xMaxYMin meet">
         <g id="arrow_out" transform="scale(0.3 0.3)">
          <a xlink:href="angle__harmonic_8hpp__incl_org.svg" target="_base">
           <rect id="button" ry="5" rx="5" y="6" x="6" height="38" width="38"
                fill="#f2f5e9" fill-opacity="0.5" stroke="#606060" stroke-width="1.0"/>
           <path id="arrow"
             d="M 11.500037,31.436501 C 11.940474,20.09759 22.043105,11.32322 32.158766,21.979434 L 37.068811,17.246167 C 37.068811,17.246167 37.088388,32 37.088388,32 L 22.160133,31.978069 C 22.160133,31.978069 26.997745,27.140456 26.997745,27.140456 C 18.528582,18.264221 13.291696,25.230495 11.500037,31.436501 z"
             style="fill:#404040;"/>
          </a>
         </g>
        </svg>
</svg>
