<?xml version="1.0" encoding="UTF-8" standalone="no"?>
<!DOCTYPE svg PUBLIC "-//W3C//DTD SVG 1.1//EN"
 "http://www.w3.org/Graphics/SVG/1.1/DTD/svg11.dtd">
<!-- Generated by graphviz version 2.38.0 (20140413.2041)
 -->
<!-- Title: area_force_local_tcl.cpp Pages: 1 -->
<!--zoomable 487 -->
<svg id="main" version="1.1" xmlns="http://www.w3.org/2000/svg" xmlns:xlink="http://www.w3.org/1999/xlink" xml:space="preserve" onload="init(evt)">
<style type="text/css"><![CDATA[
.edge:hover path { stroke: red; }
.edge:hover polygon { stroke: red; fill: red; }
]]></style>
<script type="text/javascript"><![CDATA[
var edges = document.getElementsByTagName('g');
if (edges && edges.length) {
  for (var i=0;i<edges.length;i++) {
    if (edges[i].id.substr(0,4)=='edge') {
      edges[i].setAttribute('class','edge');
    }
  }
}
]]></script>
        <defs>
                <circle id="rim" cx="0" cy="0" r="7"/>
                <circle id="rim2" cx="0" cy="0" r="3.5"/>
                <g id="zoomPlus">
                        <use xlink:href="#rim" fill="#404040">
                                <set attributeName="fill" to="#808080" begin="zoomplus.mouseover" end="zoomplus.mouseout"/>
                        </use>
                        <path d="M-4,0h8M0,-4v8" fill="none" stroke="white" stroke-width="1.5" pointer-events="none"/>
                </g>
                <g id="zoomMin">
                        <use xlink:href="#rim" fill="#404040">
                                <set attributeName="fill" to="#808080" begin="zoomminus.mouseover" end="zoomminus.mouseout"/>
                        </use>
                        <path d="M-4,0h8" fill="none" stroke="white" stroke-width="1.5" pointer-events="none"/>
                </g>
                <g id="dirArrow">
                        <path fill="none" stroke="white" stroke-width="1.5" d="M0,-3.0v7 M-2.5,-0.5L0,-3.0L2.5,-0.5"/>
                </g>
               <g id="resetDef">
                       <use xlink:href="#rim2" fill="#404040">
                               <set attributeName="fill" to="#808080" begin="reset.mouseover" end="reset.mouseout"/>
                       </use>
               </g>
        </defs>

<script type="text/javascript">
var viewWidth = 981;
var viewHeight = 487;
var sectionId = 'dynsection-0';
</script>
<script xlink:href="svgpan.js"/>
<svg id="graph" class="graph">
<g id="viewport">
<title>area_force_local_tcl.cpp</title>
<!-- Node1 -->
<g id="node1" class="node"><title>Node1</title>
<polygon fill="#bfbfbf" stroke="black" points="739,-459.5 739,-478.5 873,-478.5 873,-459.5 739,-459.5"/>
<text text-anchor="middle" x="806" y="-466.5" font-family="Helvetica,sans-Serif" font-size="10.00">area_force_local_tcl.cpp</text>
</g>
<!-- Node2 -->
<g id="node2" class="node"><title>Node2</title>
<g id="a_node2"><a xlink:href="utils_8hpp.html" target="_top" xlink:title="Small functions that are useful not only for one modul. ">
<polygon fill="none" stroke="black" points="550.5,-168.5 550.5,-187.5 609.5,-187.5 609.5,-168.5 550.5,-168.5"/>
<text text-anchor="middle" x="580" y="-175.5" font-family="Helvetica,sans-Serif" font-size="10.00">utils.hpp</text>
</a>
</g>
</g>
<!-- Node1&#45;&gt;Node2 -->
<g id="edge1" class="edge"><title>Node1&#45;&gt;Node2</title>
<path fill="none" stroke="midnightblue" d="M801.954,-459.415C793.142,-439.905 773,-390.548 773,-347 773,-347 773,-347 773,-289 773,-219.108 676.285,-193.046 619.783,-183.784"/>
<polygon fill="midnightblue" stroke="midnightblue" points="620.148,-180.299 609.733,-182.243 619.087,-187.218 620.148,-180.299"/>
</g>
<!-- Node19 -->
<g id="node19" class="node"><title>Node19</title>
<g id="a_node19"><a xlink:href="parser_8hpp.html" target="_top" xlink:title="This file contains macros for parsing the parameters to the &#39;inter&#39; command. ">
<polygon fill="none" stroke="black" points="845.5,-280.5 845.5,-299.5 928.5,-299.5 928.5,-280.5 845.5,-280.5"/>
<text text-anchor="middle" x="887" y="-287.5" font-family="Helvetica,sans-Serif" font-size="10.00">tcl/parser.hpp</text>
</a>
</g>
</g>
<!-- Node1&#45;&gt;Node19 -->
<g id="edge21" class="edge"><title>Node1&#45;&gt;Node19</title>
<path fill="none" stroke="midnightblue" d="M825.143,-459.493C857.013,-444.133 919.92,-408.417 945,-356 954.793,-335.533 933.189,-316.731 913.624,-304.672"/>
<polygon fill="midnightblue" stroke="midnightblue" points="915.307,-301.602 904.898,-299.624 911.802,-307.662 915.307,-301.602"/>
</g>
<!-- Node21 -->
<g id="node21" class="node"><title>Node21</title>
<g id="a_node21"><a xlink:href="area__force__local__tcl_8hpp.html" target="_top" xlink:title="area_force_local_tcl.hpp">
<polygon fill="none" stroke="black" points="801.5,-336.5 801.5,-355.5 936.5,-355.5 936.5,-336.5 801.5,-336.5"/>
<text text-anchor="middle" x="869" y="-343.5" font-family="Helvetica,sans-Serif" font-size="10.00">area_force_local_tcl.hpp</text>
</a>
</g>
</g>
<!-- Node1&#45;&gt;Node21 -->
<g id="edge25" class="edge"><title>Node1&#45;&gt;Node21</title>
<path fill="none" stroke="midnightblue" d="M810.531,-459.298C820.838,-439.502 846.204,-390.782 859.892,-364.493"/>
<polygon fill="midnightblue" stroke="midnightblue" points="862.996,-366.109 864.51,-355.623 856.788,-362.877 862.996,-366.109"/>
</g>
<!-- Node24 -->
<g id="node24" class="node"><title>Node24</title>
<g id="a_node24"><a xlink:href="area__force__local_8hpp.html" target="_top" xlink:title="Routines to calculate the AREA_FORCE_LOCAL energy or/and and force for a particle triple (triangle fr...">
<polygon fill="none" stroke="black" points="544.5,-392.5 544.5,-422.5 653.5,-422.5 653.5,-392.5 544.5,-392.5"/>
<text text-anchor="start" x="552.5" y="-410.5" font-family="Helvetica,sans-Serif" font-size="10.00">object&#45;in&#45;fluid/area</text>
<text text-anchor="middle" x="599" y="-399.5" font-family="Helvetica,sans-Serif" font-size="10.00">_force_local.hpp</text>
</a>
</g>
</g>
<!-- Node1&#45;&gt;Node24 -->
<g id="edge31" class="edge"><title>Node1&#45;&gt;Node24</title>
<path fill="none" stroke="midnightblue" d="M776.342,-459.475C745.425,-450.588 696.164,-436.429 657.398,-425.286"/>
<polygon fill="midnightblue" stroke="midnightblue" points="658.364,-421.922 647.786,-422.523 656.43,-428.649 658.364,-421.922"/>
</g>
<!-- Node3 -->
<g id="node3" class="node"><title>Node3</title>
<polygon fill="none" stroke="#bfbfbf" points="735.5,-112.5 735.5,-131.5 782.5,-131.5 782.5,-112.5 735.5,-112.5"/>
<text text-anchor="middle" x="759" y="-119.5" font-family="Helvetica,sans-Serif" font-size="10.00">cmath</text>
</g>
<!-- Node2&#45;&gt;Node3 -->
<g id="edge2" class="edge"><title>Node2&#45;&gt;Node3</title>
<path fill="none" stroke="midnightblue" d="M608.363,-168.444C640.168,-158.849 691.702,-143.302 725.474,-133.114"/>
<polygon fill="midnightblue" stroke="midnightblue" points="726.78,-136.376 735.343,-130.137 724.758,-129.674 726.78,-136.376"/>
</g>
<!-- Node4 -->
<g id="node4" class="node"><title>Node4</title>
<polygon fill="none" stroke="#bfbfbf" points="434,-112.5 434,-131.5 480,-131.5 480,-112.5 434,-112.5"/>
<text text-anchor="middle" x="457" y="-119.5" font-family="Helvetica,sans-Serif" font-size="10.00">cstdio</text>
</g>
<!-- Node2&#45;&gt;Node4 -->
<g id="edge3" class="edge"><title>Node2&#45;&gt;Node4</title>
<path fill="none" stroke="midnightblue" d="M560.51,-168.444C540.358,-159.596 508.677,-145.687 485.669,-135.586"/>
<polygon fill="midnightblue" stroke="midnightblue" points="486.962,-132.332 476.399,-131.516 484.148,-138.741 486.962,-132.332"/>
</g>
<!-- Node5 -->
<g id="node5" class="node"><title>Node5</title>
<polygon fill="none" stroke="#bfbfbf" points="498.5,-112.5 498.5,-131.5 547.5,-131.5 547.5,-112.5 498.5,-112.5"/>
<text text-anchor="middle" x="523" y="-119.5" font-family="Helvetica,sans-Serif" font-size="10.00">cstdlib</text>
</g>
<!-- Node2&#45;&gt;Node5 -->
<g id="edge4" class="edge"><title>Node2&#45;&gt;Node5</title>
<path fill="none" stroke="midnightblue" d="M570.842,-168.324C562.499,-160.42 549.968,-148.548 539.823,-138.938"/>
<polygon fill="midnightblue" stroke="midnightblue" points="541.991,-136.171 532.325,-131.834 537.177,-141.252 541.991,-136.171"/>
</g>
<!-- Node6 -->
<g id="node6" class="node"><title>Node6</title>
<polygon fill="none" stroke="#bfbfbf" points="923,-112.5 923,-131.5 973,-131.5 973,-112.5 923,-112.5"/>
<text text-anchor="middle" x="948" y="-119.5" font-family="Helvetica,sans-Serif" font-size="10.00">cstring</text>
</g>
<!-- Node2&#45;&gt;Node6 -->
<g id="edge5" class="edge"><title>Node2&#45;&gt;Node6</title>
<path fill="none" stroke="midnightblue" d="M609.693,-174.257C666.664,-168.724 795.378,-154.927 912.944,-131.993"/>
<polygon fill="midnightblue" stroke="midnightblue" points="913.7,-135.411 922.831,-130.037 912.342,-128.544 913.7,-135.411"/>
</g>
<!-- Node7 -->
<g id="node7" class="node"><title>Node7</title>
<g id="a_node7"><a xlink:href="config_8hpp.html" target="_top" xlink:title="This file contains the defaults for Espresso. ">
<polygon fill="none" stroke="black" points="372.5,-56.5 372.5,-75.5 439.5,-75.5 439.5,-56.5 372.5,-56.5"/>
<text text-anchor="middle" x="406" y="-63.5" font-family="Helvetica,sans-Serif" font-size="10.00">config.hpp</text>
</a>
</g>
</g>
<!-- Node2&#45;&gt;Node7 -->
<g id="edge6" class="edge"><title>Node2&#45;&gt;Node7</title>
<path fill="none" stroke="midnightblue" d="M550.383,-176.551C515.667,-174.402 458.615,-165.554 425,-132 412.919,-119.941 408.43,-100.653 406.807,-86.2149"/>
<polygon fill="midnightblue" stroke="midnightblue" points="410.272,-85.6146 406.03,-75.906 403.292,-86.1408 410.272,-85.6146"/>
</g>
<!-- Node11 -->
<g id="node11" class="node"><title>Node11</title>
<g id="a_node11"><a xlink:href="debug_8hpp.html" target="_top" xlink:title="This file controls debug facilities. ">
<polygon fill="none" stroke="black" points="566,-112.5 566,-131.5 634,-131.5 634,-112.5 566,-112.5"/>
<text text-anchor="middle" x="600" y="-119.5" font-family="Helvetica,sans-Serif" font-size="10.00">debug.hpp</text>
</a>
</g>
</g>
<!-- Node2&#45;&gt;Node11 -->
<g id="edge10" class="edge"><title>Node2&#45;&gt;Node11</title>
<path fill="none" stroke="midnightblue" d="M583.303,-168.083C585.982,-160.849 589.849,-150.409 593.186,-141.397"/>
<polygon fill="midnightblue" stroke="midnightblue" points="596.568,-142.344 596.759,-131.751 590.004,-139.913 596.568,-142.344"/>
</g>
<!-- Node12 -->
<g id="node12" class="node"><title>Node12</title>
<g id="a_node12"><a xlink:href="lees__edwards_8hpp.html" target="_top" xlink:title="lees_edwards.hpp">
<polygon fill="none" stroke="black" points="801,-112.5 801,-131.5 905,-131.5 905,-112.5 801,-112.5"/>
<text text-anchor="middle" x="853" y="-119.5" font-family="Helvetica,sans-Serif" font-size="10.00">lees_edwards.hpp</text>
</a>
</g>
</g>
<!-- Node2&#45;&gt;Node12 -->
<g id="edge12" class="edge"><title>Node2&#45;&gt;Node12</title>
<path fill="none" stroke="midnightblue" d="M609.735,-171.118C655.364,-162.093 743.308,-144.697 800.016,-133.48"/>
<polygon fill="midnightblue" stroke="midnightblue" points="800.746,-136.904 809.877,-131.53 799.387,-130.037 800.746,-136.904"/>
</g>
<!-- Node13 -->
<g id="node13" class="node"><title>Node13</title>
<g id="a_node13"><a xlink:href="errorhandling_8hpp.html" target="_top" xlink:title="This file contains the errorhandling code for severe errors, like a broken bond or illegal parameter ...">
<polygon fill="none" stroke="black" points="170.5,-112.5 170.5,-131.5 273.5,-131.5 273.5,-112.5 170.5,-112.5"/>
<text text-anchor="middle" x="222" y="-119.5" font-family="Helvetica,sans-Serif" font-size="10.00">errorhandling.hpp</text>
</a>
</g>
</g>
<!-- Node2&#45;&gt;Node13 -->
<g id="edge14" class="edge"><title>Node2&#45;&gt;Node13</title>
<path fill="none" stroke="midnightblue" d="M550.399,-172.535C492.201,-163.757 361.788,-144.085 283.953,-132.345"/>
<polygon fill="midnightblue" stroke="midnightblue" points="284.209,-128.844 273.799,-130.813 283.165,-135.766 284.209,-128.844"/>
</g>
<!-- Node17 -->
<g id="node17" class="node"><title>Node17</title>
<polygon fill="none" stroke="#bfbfbf" points="330.5,-112.5 330.5,-131.5 377.5,-131.5 377.5,-112.5 330.5,-112.5"/>
<text text-anchor="middle" x="354" y="-119.5" font-family="Helvetica,sans-Serif" font-size="10.00">vector</text>
</g>
<!-- Node2&#45;&gt;Node17 -->
<g id="edge19" class="edge"><title>Node2&#45;&gt;Node17</title>
<path fill="none" stroke="midnightblue" d="M550.454,-169.94C508.473,-159.91 431.77,-141.582 387.65,-131.04"/>
<polygon fill="midnightblue" stroke="midnightblue" points="388.242,-127.583 377.702,-128.663 386.615,-134.392 388.242,-127.583"/>
</g>
<!-- Node18 -->
<g id="node18" class="node"><title>Node18</title>
<polygon fill="none" stroke="#bfbfbf" points="652.5,-112.5 652.5,-131.5 717.5,-131.5 717.5,-112.5 652.5,-112.5"/>
<text text-anchor="middle" x="685" y="-119.5" font-family="Helvetica,sans-Serif" font-size="10.00">exception</text>
</g>
<!-- Node2&#45;&gt;Node18 -->
<g id="edge20" class="edge"><title>Node2&#45;&gt;Node18</title>
<path fill="none" stroke="midnightblue" d="M596.87,-168.324C613.709,-159.664 639.807,-146.242 659.238,-136.249"/>
<polygon fill="midnightblue" stroke="midnightblue" points="660.88,-139.341 668.172,-131.655 657.678,-133.116 660.88,-139.341"/>
</g>
<!-- Node8 -->
<g id="node8" class="node"><title>Node8</title>
<g id="a_node8"><a xlink:href="acconfig_8hpp.html" target="_top" xlink:title="acconfig.hpp">
<polygon fill="none" stroke="black" points="256,-0.5 256,-19.5 334,-19.5 334,-0.5 256,-0.5"/>
<text text-anchor="middle" x="295" y="-7.5" font-family="Helvetica,sans-Serif" font-size="10.00">acconfig.hpp</text>
</a>
</g>
</g>
<!-- Node7&#45;&gt;Node8 -->
<g id="edge7" class="edge"><title>Node7&#45;&gt;Node8</title>
<path fill="none" stroke="midnightblue" d="M388.166,-56.324C370.284,-47.6247 342.525,-34.1202 321.954,-24.113"/>
<polygon fill="midnightblue" stroke="midnightblue" points="323.313,-20.8819 312.79,-19.6545 320.251,-27.1765 323.313,-20.8819"/>
</g>
<!-- Node9 -->
<g id="node9" class="node"><title>Node9</title>
<g id="a_node9"><a xlink:href="myconfig-final_8hpp.html" target="_top" xlink:title="myconfig&#45;final.hpp">
<polygon fill="none" stroke="black" points="352.5,-0.5 352.5,-19.5 459.5,-19.5 459.5,-0.5 352.5,-0.5"/>
<text text-anchor="middle" x="406" y="-7.5" font-family="Helvetica,sans-Serif" font-size="10.00">myconfig&#45;final.hpp</text>
</a>
</g>
</g>
<!-- Node7&#45;&gt;Node9 -->
<g id="edge8" class="edge"><title>Node7&#45;&gt;Node9</title>
<path fill="none" stroke="midnightblue" d="M406,-56.083C406,-49.0059 406,-38.8611 406,-29.9865"/>
<polygon fill="midnightblue" stroke="midnightblue" points="409.5,-29.751 406,-19.7511 402.5,-29.7511 409.5,-29.751"/>
</g>
<!-- Node10 -->
<g id="node10" class="node"><title>Node10</title>
<g id="a_node10"><a xlink:href="config-features_8hpp.html" target="_top" xlink:title="config&#45;features.hpp">
<polygon fill="none" stroke="black" points="477.5,-0.5 477.5,-19.5 588.5,-19.5 588.5,-0.5 477.5,-0.5"/>
<text text-anchor="middle" x="533" y="-7.5" font-family="Helvetica,sans-Serif" font-size="10.00">config&#45;features.hpp</text>
</a>
</g>
</g>
<!-- Node7&#45;&gt;Node10 -->
<g id="edge9" class="edge"><title>Node7&#45;&gt;Node10</title>
<path fill="none" stroke="midnightblue" d="M426.124,-56.4435C447.024,-47.5566 479.935,-33.5632 503.716,-23.4514"/>
<polygon fill="midnightblue" stroke="midnightblue" points="505.138,-26.6504 512.971,-19.5164 502.398,-20.2085 505.138,-26.6504"/>
</g>
<!-- Node11&#45;&gt;Node7 -->
<g id="edge11" class="edge"><title>Node11&#45;&gt;Node7</title>
<path fill="none" stroke="midnightblue" d="M569.26,-112.444C536.056,-103.201 483.009,-88.4356 446.443,-78.2572"/>
<polygon fill="midnightblue" stroke="midnightblue" points="447.168,-74.8262 436.596,-75.5164 445.291,-81.5699 447.168,-74.8262"/>
</g>
<!-- Node12&#45;&gt;Node7 -->
<g id="edge13" class="edge"><title>Node12&#45;&gt;Node7</title>
<path fill="none" stroke="midnightblue" d="M800.919,-113.333C797.564,-112.872 794.235,-112.424 791,-112 667.303,-95.7961 520.864,-79.4626 449.487,-71.6844"/>
<polygon fill="midnightblue" stroke="midnightblue" points="449.832,-68.2014 439.512,-70.5999 449.075,-75.1604 449.832,-68.2014"/>
</g>
<!-- Node13&#45;&gt;Node7 -->
<g id="edge15" class="edge"><title>Node13&#45;&gt;Node7</title>
<path fill="none" stroke="midnightblue" d="M251.155,-112.444C282.513,-103.241 332.531,-88.5617 367.197,-78.3879"/>
<polygon fill="midnightblue" stroke="midnightblue" points="368.371,-81.6909 376.981,-75.5164 366.4,-74.9742 368.371,-81.6909"/>
</g>
<!-- Node14 -->
<g id="node14" class="node"><title>Node14</title>
<polygon fill="none" stroke="#bfbfbf" points="132,-56.5 132,-75.5 176,-75.5 176,-56.5 132,-56.5"/>
<text text-anchor="middle" x="154" y="-63.5" font-family="Helvetica,sans-Serif" font-size="10.00">string</text>
</g>
<!-- Node13&#45;&gt;Node14 -->
<g id="edge16" class="edge"><title>Node13&#45;&gt;Node14</title>
<path fill="none" stroke="midnightblue" d="M211.075,-112.324C200.825,-104.185 185.279,-91.8395 172.999,-82.0874"/>
<polygon fill="midnightblue" stroke="midnightblue" points="175.132,-79.3119 165.124,-75.8339 170.779,-84.7937 175.132,-79.3119"/>
</g>
<!-- Node15 -->
<g id="node15" class="node"><title>Node15</title>
<polygon fill="none" stroke="#bfbfbf" points="194,-56.5 194,-75.5 250,-75.5 250,-56.5 194,-56.5"/>
<text text-anchor="middle" x="222" y="-63.5" font-family="Helvetica,sans-Serif" font-size="10.00">sstream</text>
</g>
<!-- Node13&#45;&gt;Node15 -->
<g id="edge17" class="edge"><title>Node13&#45;&gt;Node15</title>
<path fill="none" stroke="midnightblue" d="M222,-112.083C222,-105.006 222,-94.8611 222,-85.9865"/>
<polygon fill="midnightblue" stroke="midnightblue" points="225.5,-85.751 222,-75.7511 218.5,-85.7511 225.5,-85.751"/>
</g>
<!-- Node16 -->
<g id="node16" class="node"><title>Node16</title>
<polygon fill="none" stroke="#bfbfbf" points="268,-56.5 268,-75.5 300,-75.5 300,-56.5 268,-56.5"/>
<text text-anchor="middle" x="284" y="-63.5" font-family="Helvetica,sans-Serif" font-size="10.00">list</text>
</g>
<!-- Node13&#45;&gt;Node16 -->
<g id="edge18" class="edge"><title>Node13&#45;&gt;Node16</title>
<path fill="none" stroke="midnightblue" d="M231.961,-112.324C241.127,-104.341 254.937,-92.3128 266.028,-82.6529"/>
<polygon fill="midnightblue" stroke="midnightblue" points="268.615,-85.041 273.857,-75.8339 264.018,-79.7624 268.615,-85.041"/>
</g>
<!-- Node19&#45;&gt;Node2 -->
<g id="edge22" class="edge"><title>Node19&#45;&gt;Node2</title>
<path fill="none" stroke="midnightblue" d="M876.631,-280.404C859.228,-266.422 822.545,-238.828 787,-224 731.499,-200.847 662.446,-188.912 619.797,-183.31"/>
<polygon fill="midnightblue" stroke="midnightblue" points="620.167,-179.829 609.808,-182.051 619.292,-186.774 620.167,-179.829"/>
</g>
<!-- Node19&#45;&gt;Node6 -->
<g id="edge23" class="edge"><title>Node19&#45;&gt;Node6</title>
<path fill="none" stroke="midnightblue" d="M893.376,-280.454C899.647,-271.698 909.112,-257.494 915,-244 930.11,-209.37 939.898,-166.095 944.636,-141.804"/>
<polygon fill="midnightblue" stroke="midnightblue" points="948.109,-142.274 946.509,-131.801 941.228,-140.986 948.109,-142.274"/>
</g>
<!-- Node20 -->
<g id="node20" class="node"><title>Node20</title>
<polygon fill="none" stroke="#bfbfbf" points="868,-224.5 868,-243.5 906,-243.5 906,-224.5 868,-224.5"/>
<text text-anchor="middle" x="887" y="-231.5" font-family="Helvetica,sans-Serif" font-size="10.00">tcl.h</text>
</g>
<!-- Node19&#45;&gt;Node20 -->
<g id="edge24" class="edge"><title>Node19&#45;&gt;Node20</title>
<path fill="none" stroke="midnightblue" d="M887,-280.083C887,-273.006 887,-262.861 887,-253.986"/>
<polygon fill="midnightblue" stroke="midnightblue" points="890.5,-253.751 887,-243.751 883.5,-253.751 890.5,-253.751"/>
</g>
<!-- Node21&#45;&gt;Node19 -->
<g id="edge26" class="edge"><title>Node21&#45;&gt;Node19</title>
<path fill="none" stroke="midnightblue" d="M871.972,-336.083C874.384,-328.849 877.864,-318.409 880.868,-309.397"/>
<polygon fill="midnightblue" stroke="midnightblue" points="884.241,-310.345 884.083,-299.751 877.6,-308.131 884.241,-310.345"/>
</g>
<!-- Node22 -->
<g id="node22" class="node"><title>Node22</title>
<g id="a_node22"><a xlink:href="interaction__data_8hpp.html" target="_top" xlink:title="Various procedures concerning interactions between particles. ">
<polygon fill="none" stroke="black" points="627.5,-280.5 627.5,-299.5 744.5,-299.5 744.5,-280.5 627.5,-280.5"/>
<text text-anchor="middle" x="686" y="-287.5" font-family="Helvetica,sans-Serif" font-size="10.00">interaction_data.hpp</text>
</a>
</g>
</g>
<!-- Node21&#45;&gt;Node22 -->
<g id="edge27" class="edge"><title>Node21&#45;&gt;Node22</title>
<path fill="none" stroke="midnightblue" d="M840.003,-336.444C808.815,-327.241 759.07,-312.562 724.592,-302.388"/>
<polygon fill="midnightblue" stroke="midnightblue" points="725.443,-298.99 714.861,-299.516 723.462,-305.704 725.443,-298.99"/>
</g>
<!-- Node22&#45;&gt;Node2 -->
<g id="edge28" class="edge"><title>Node22&#45;&gt;Node2</title>
<path fill="none" stroke="midnightblue" d="M683.398,-280.08C679.107,-266.618 669.452,-240.89 654,-224 641.678,-210.531 624.4,-199.717 609.638,-192.068"/>
<polygon fill="midnightblue" stroke="midnightblue" points="610.895,-188.785 600.378,-187.503 607.8,-195.064 610.895,-188.785"/>
</g>
<!-- Node23 -->
<g id="node23" class="node"><title>Node23</title>
<g id="a_node23"><a xlink:href="particle__data_8hpp.html" target="_top" xlink:title="For more information on particle_data, see particle_data.c. ">
<polygon fill="none" stroke="black" points="510.5,-224.5 510.5,-243.5 611.5,-243.5 611.5,-224.5 510.5,-224.5"/>
<text text-anchor="middle" x="561" y="-231.5" font-family="Helvetica,sans-Serif" font-size="10.00">particle_data.hpp</text>
</a>
</g>
</g>
<!-- Node22&#45;&gt;Node23 -->
<g id="edge29" class="edge"><title>Node22&#45;&gt;Node23</title>
<path fill="none" stroke="midnightblue" d="M666.193,-280.444C645.713,-271.596 613.517,-257.687 590.135,-247.586"/>
<polygon fill="midnightblue" stroke="midnightblue" points="591.282,-244.269 580.714,-243.516 588.506,-250.695 591.282,-244.269"/>
</g>
<!-- Node23&#45;&gt;Node2 -->
<g id="edge30" class="edge"><title>Node23&#45;&gt;Node2</title>
<path fill="none" stroke="midnightblue" d="M564.137,-224.083C566.683,-216.849 570.356,-206.409 573.527,-197.397"/>
<polygon fill="midnightblue" stroke="midnightblue" points="576.903,-198.346 576.921,-187.751 570.3,-196.023 576.903,-198.346"/>
</g>
<!-- Node24&#45;&gt;Node2 -->
<g id="edge32" class="edge"><title>Node24&#45;&gt;Node2</title>
<path fill="none" stroke="midnightblue" d="M601.367,-392.456C608.007,-352.431 625.95,-239.651 620,-224 615.665,-212.598 606.969,-202.239 598.79,-194.343"/>
<polygon fill="midnightblue" stroke="midnightblue" points="601.041,-191.66 591.266,-187.573 596.358,-196.863 601.041,-191.66"/>
</g>
<!-- Node24&#45;&gt;Node22 -->
<g id="edge33" class="edge"><title>Node24&#45;&gt;Node22</title>
<path fill="none" stroke="midnightblue" d="M609.668,-392.337C625.771,-370.96 656.224,-330.53 673.397,-307.731"/>
<polygon fill="midnightblue" stroke="midnightblue" points="676.249,-309.763 679.47,-299.669 670.657,-305.551 676.249,-309.763"/>
</g>
<!-- Node24&#45;&gt;Node23 -->
<g id="edge34" class="edge"><title>Node24&#45;&gt;Node23</title>
<path fill="none" stroke="midnightblue" d="M594.794,-392.424C591.854,-382.334 587.942,-368.393 585,-356 576.454,-320.008 568.514,-277.498 564.253,-253.652"/>
<polygon fill="midnightblue" stroke="midnightblue" points="567.656,-252.795 562.47,-243.556 560.763,-254.012 567.656,-252.795"/>
</g>
<!-- Node25 -->
<g id="node25" class="node"><title>Node25</title>
<g id="a_node25"><a xlink:href="grid_8hpp.html" target="_top" xlink:title="Domain decomposition for parallel computing. ">
<polygon fill="none" stroke="black" points="291,-336.5 291,-355.5 347,-355.5 347,-336.5 291,-336.5"/>
<text text-anchor="middle" x="319" y="-343.5" font-family="Helvetica,sans-Serif" font-size="10.00">grid.hpp</text>
</a>
</g>
</g>
<!-- Node24&#45;&gt;Node25 -->
<g id="edge35" class="edge"><title>Node24&#45;&gt;Node25</title>
<path fill="none" stroke="midnightblue" d="M544.348,-394.887C489.192,-383.166 405.454,-365.371 357.1,-355.096"/>
<polygon fill="midnightblue" stroke="midnightblue" points="357.562,-351.616 347.053,-352.961 356.107,-358.463 357.562,-351.616"/>
</g>
<!-- Node25&#45;&gt;Node2 -->
<g id="edge36" class="edge"><title>Node25&#45;&gt;Node2</title>
<path fill="none" stroke="midnightblue" d="M331.168,-336.487C360.155,-316.3 435.749,-264.209 501,-224 518.805,-213.028 539.342,-201.359 555.014,-192.654"/>
<polygon fill="midnightblue" stroke="midnightblue" points="557.013,-195.548 564.074,-187.649 553.629,-189.42 557.013,-195.548"/>
</g>
<!-- Node25&#45;&gt;Node13 -->
<g id="edge51" class="edge"><title>Node25&#45;&gt;Node13</title>
<path fill="none" stroke="midnightblue" d="M293.844,-336.382C244.919,-318.063 138.149,-270.078 97,-188 81.437,-156.957 121.578,-140.354 160.427,-131.723"/>
<polygon fill="midnightblue" stroke="midnightblue" points="161.155,-135.147 170.241,-129.696 159.74,-128.291 161.155,-135.147"/>
</g>
<!-- Node26 -->
<g id="node26" class="node"><title>Node26</title>
<polygon fill="none" stroke="#bfbfbf" points="0,-280.5 0,-299.5 50,-299.5 50,-280.5 0,-280.5"/>
<text text-anchor="middle" x="25" y="-287.5" font-family="Helvetica,sans-Serif" font-size="10.00">climits</text>
</g>
<!-- Node25&#45;&gt;Node26 -->
<g id="edge37" class="edge"><title>Node25&#45;&gt;Node26</title>
<path fill="none" stroke="midnightblue" d="M290.987,-340.547C243.946,-332.96 146.157,-316.717 64,-300 62.736,-299.743 61.4503,-299.476 60.1526,-299.201"/>
<polygon fill="midnightblue" stroke="midnightblue" points="60.6511,-295.727 50.1333,-297.003 59.1508,-302.565 60.6511,-295.727"/>
</g>
<!-- Node27 -->
<g id="node27" class="node"><title>Node27</title>
<g id="a_node27"><a xlink:href="communication_8hpp.html" target="_top" xlink:title="This file contains the asynchronous MPI communication. ">
<polygon fill="none" stroke="black" points="262.5,-280.5 262.5,-299.5 375.5,-299.5 375.5,-280.5 262.5,-280.5"/>
<text text-anchor="middle" x="319" y="-287.5" font-family="Helvetica,sans-Serif" font-size="10.00">communication.hpp</text>
</a>
</g>
</g>
<!-- Node25&#45;&gt;Node27 -->
<g id="edge38" class="edge"><title>Node25&#45;&gt;Node27</title>
<path fill="none" stroke="midnightblue" d="M319,-336.083C319,-329.006 319,-318.861 319,-309.986"/>
<polygon fill="midnightblue" stroke="midnightblue" points="322.5,-309.751 319,-299.751 315.5,-309.751 322.5,-309.751"/>
</g>
<!-- Node27&#45;&gt;Node23 -->
<g id="edge39" class="edge"><title>Node27&#45;&gt;Node23</title>
<path fill="none" stroke="midnightblue" d="M357.346,-280.444C399.473,-271.043 467.206,-255.929 512.872,-245.739"/>
<polygon fill="midnightblue" stroke="midnightblue" points="513.836,-249.11 522.834,-243.516 512.312,-242.278 513.836,-249.11"/>
</g>
<!-- Node28 -->
<g id="node28" class="node"><title>Node28</title>
<g id="a_node28"><a xlink:href="random_8hpp.html" target="_top" xlink:title="A random generator. ">
<polygon fill="none" stroke="black" points="281.5,-224.5 281.5,-243.5 356.5,-243.5 356.5,-224.5 281.5,-224.5"/>
<text text-anchor="middle" x="319" y="-231.5" font-family="Helvetica,sans-Serif" font-size="10.00">random.hpp</text>
</a>
</g>
</g>
<!-- Node27&#45;&gt;Node28 -->
<g id="edge40" class="edge"><title>Node27&#45;&gt;Node28</title>
<path fill="none" stroke="midnightblue" d="M319,-280.083C319,-273.006 319,-262.861 319,-253.986"/>
<polygon fill="midnightblue" stroke="midnightblue" points="322.5,-253.751 319,-243.751 315.5,-253.751 322.5,-253.751"/>
</g>
<!-- Node29 -->
<g id="node29" class="node"><title>Node29</title>
<g id="a_node29"><a xlink:href="topology_8hpp.html" target="_top" xlink:title="This file contains functions for handling the system topology. ">
<polygon fill="none" stroke="black" points="374.5,-224.5 374.5,-243.5 453.5,-243.5 453.5,-224.5 374.5,-224.5"/>
<text text-anchor="middle" x="414" y="-231.5" font-family="Helvetica,sans-Serif" font-size="10.00">topology.hpp</text>
</a>
</g>
</g>
<!-- Node27&#45;&gt;Node29 -->
<g id="edge42" class="edge"><title>Node27&#45;&gt;Node29</title>
<path fill="none" stroke="midnightblue" d="M334.263,-280.324C349.221,-271.822 372.255,-258.729 389.727,-248.797"/>
<polygon fill="midnightblue" stroke="midnightblue" points="391.81,-251.639 398.774,-243.655 388.351,-245.553 391.81,-251.639"/>
</g>
<!-- Node30 -->
<g id="node30" class="node"><title>Node30</title>
<g id="a_node30"><a xlink:href="mpi_8h.html" target="_top" xlink:title="This is the MPIfake implementation. ">
<polygon fill="none" stroke="black" points="181,-224.5 181,-243.5 225,-243.5 225,-224.5 181,-224.5"/>
<text text-anchor="middle" x="203" y="-231.5" font-family="Helvetica,sans-Serif" font-size="10.00">mpi.h</text>
</a>
</g>
</g>
<!-- Node27&#45;&gt;Node30 -->
<g id="edge44" class="edge"><title>Node27&#45;&gt;Node30</title>
<path fill="none" stroke="midnightblue" d="M300.619,-280.444C281.784,-271.675 252.269,-257.935 230.621,-247.858"/>
<polygon fill="midnightblue" stroke="midnightblue" points="231.838,-244.564 221.295,-243.516 228.883,-250.91 231.838,-244.564"/>
</g>
<!-- Node34 -->
<g id="node34" class="node"><title>Node34</title>
<g id="a_node34"><a xlink:href="cuda__init_8hpp.html" target="_top" xlink:title="cuda_init.hpp">
<polygon fill="none" stroke="black" points="318,-168.5 318,-187.5 400,-187.5 400,-168.5 318,-168.5"/>
<text text-anchor="middle" x="359" y="-175.5" font-family="Helvetica,sans-Serif" font-size="10.00">cuda_init.hpp</text>
</a>
</g>
</g>
<!-- Node27&#45;&gt;Node34 -->
<g id="edge48" class="edge"><title>Node27&#45;&gt;Node34</title>
<path fill="none" stroke="midnightblue" d="M304.98,-280.472C286.87,-268.328 259.113,-245.175 272,-224 281.46,-208.457 298.21,-198.045 314.505,-191.191"/>
<polygon fill="midnightblue" stroke="midnightblue" points="315.903,-194.403 323.987,-187.555 313.397,-187.868 315.903,-194.403"/>
</g>
<!-- Node28&#45;&gt;Node2 -->
<g id="edge41" class="edge"><title>Node28&#45;&gt;Node2</title>
<path fill="none" stroke="midnightblue" d="M356.673,-225.206C405.569,-215.089 490.513,-197.515 540.356,-187.202"/>
<polygon fill="midnightblue" stroke="midnightblue" points="541.35,-190.571 550.433,-185.117 539.932,-183.716 541.35,-190.571"/>
</g>
<!-- Node29&#45;&gt;Node2 -->
<g id="edge43" class="edge"><title>Node29&#45;&gt;Node2</title>
<path fill="none" stroke="midnightblue" d="M440.303,-224.444C468.351,-215.32 512.944,-200.813 544.184,-190.651"/>
<polygon fill="midnightblue" stroke="midnightblue" points="545.393,-193.938 553.82,-187.516 543.228,-187.282 545.393,-193.938"/>
</g>
<!-- Node31 -->
<g id="node31" class="node"><title>Node31</title>
<polygon fill="none" stroke="#bfbfbf" points="106.5,-168.5 106.5,-187.5 159.5,-187.5 159.5,-168.5 106.5,-168.5"/>
<text text-anchor="middle" x="133" y="-175.5" font-family="Helvetica,sans-Serif" font-size="10.00">string.h</text>
</g>
<!-- Node30&#45;&gt;Node31 -->
<g id="edge45" class="edge"><title>Node30&#45;&gt;Node31</title>
<path fill="none" stroke="midnightblue" d="M191.753,-224.324C181.203,-216.185 165.199,-203.839 152.558,-194.087"/>
<polygon fill="midnightblue" stroke="midnightblue" points="154.507,-191.171 144.451,-187.834 150.231,-196.713 154.507,-191.171"/>
</g>
<!-- Node32 -->
<g id="node32" class="node"><title>Node32</title>
<polygon fill="none" stroke="#bfbfbf" points="178,-168.5 178,-187.5 228,-187.5 228,-168.5 178,-168.5"/>
<text text-anchor="middle" x="203" y="-175.5" font-family="Helvetica,sans-Serif" font-size="10.00">stdio.h</text>
</g>
<!-- Node30&#45;&gt;Node32 -->
<g id="edge46" class="edge"><title>Node30&#45;&gt;Node32</title>
<path fill="none" stroke="midnightblue" d="M203,-224.083C203,-217.006 203,-206.861 203,-197.986"/>
<polygon fill="midnightblue" stroke="midnightblue" points="206.5,-197.751 203,-187.751 199.5,-197.751 206.5,-197.751"/>
</g>
<!-- Node33 -->
<g id="node33" class="node"><title>Node33</title>
<polygon fill="none" stroke="#bfbfbf" points="246.5,-168.5 246.5,-187.5 299.5,-187.5 299.5,-168.5 246.5,-168.5"/>
<text text-anchor="middle" x="273" y="-175.5" font-family="Helvetica,sans-Serif" font-size="10.00">stdlib.h</text>
</g>
<!-- Node30&#45;&gt;Node33 -->
<g id="edge47" class="edge"><title>Node30&#45;&gt;Node33</title>
<path fill="none" stroke="midnightblue" d="M214.247,-224.324C224.797,-216.185 240.801,-203.839 253.442,-194.087"/>
<polygon fill="midnightblue" stroke="midnightblue" points="255.769,-196.713 261.549,-187.834 251.493,-191.171 255.769,-196.713"/>
</g>
<!-- Node34&#45;&gt;Node7 -->
<g id="edge49" class="edge"><title>Node34&#45;&gt;Node7</title>
<path fill="none" stroke="midnightblue" d="M347.479,-168.336C332.318,-155.838 308.931,-132.045 321,-112 330.287,-96.5744 346.833,-86.1596 362.874,-79.2713"/>
<polygon fill="midnightblue" stroke="midnightblue" points="364.17,-82.5224 372.201,-75.6119 361.614,-76.006 364.17,-82.5224"/>
</g>
<!-- Node34&#45;&gt;Node17 -->
<g id="edge50" class="edge"><title>Node34&#45;&gt;Node17</title>
<path fill="none" stroke="midnightblue" d="M358.174,-168.083C357.519,-161.006 356.58,-150.861 355.758,-141.986"/>
<polygon fill="midnightblue" stroke="midnightblue" points="359.217,-141.386 354.81,-131.751 352.247,-142.031 359.217,-141.386"/>
</g>
</g>
</svg>
        <g id="navigator" transform="translate(0 0)" fill="#404254">
                <rect fill="#f2f5e9" fill-opacity="0.5" stroke="#606060" stroke-width=".5" x="0" y="0" width="60" height="60"/>
                <use id="zoomplus" xlink:href="#zoomPlus" x="17" y="9" onmousedown="handleZoom(evt,'in')"/>
                <use id="zoomminus" xlink:href="#zoomMin" x="42" y="9" onmousedown="handleZoom(evt,'out')"/>
                <use id="reset" xlink:href="#resetDef" x="30" y="36" onmousedown="handleReset()"/>
                <g id="arrowUp" xlink:href="#dirArrow" transform="translate(30 24)" onmousedown="handlePan(0,-1)">
                  <use xlink:href="#rim" fill="#404040">
                        <set attributeName="fill" to="#808080" begin="arrowUp.mouseover" end="arrowUp.mouseout"/>
                  </use>
                  <path fill="none" stroke="white" stroke-width="1.5" d="M0,-3.0v7 M-2.5,-0.5L0,-3.0L2.5,-0.5"/>
                </g>
                <g id="arrowRight" xlink:href="#dirArrow" transform="rotate(90) translate(36 -43)" onmousedown="handlePan(1,0)">
                  <use xlink:href="#rim" fill="#404040">
                        <set attributeName="fill" to="#808080" begin="arrowRight.mouseover" end="arrowRight.mouseout"/>
                  </use>
                  <path fill="none" stroke="white" stroke-width="1.5" d="M0,-3.0v7 M-2.5,-0.5L0,-3.0L2.5,-0.5"/>
                </g>
                <g id="arrowDown" xlink:href="#dirArrow" transform="rotate(180) translate(-30 -48)" onmousedown="handlePan(0,1)">
                  <use xlink:href="#rim" fill="#404040">
                        <set attributeName="fill" to="#808080" begin="arrowDown.mouseover" end="arrowDown.mouseout"/>
                  </use>
                  <path fill="none" stroke="white" stroke-width="1.5" d="M0,-3.0v7 M-2.5,-0.5L0,-3.0L2.5,-0.5"/>
                </g>
                <g id="arrowLeft" xlink:href="#dirArrow" transform="rotate(270) translate(-36 17)" onmousedown="handlePan(-1,0)">
                  <use xlink:href="#rim" fill="#404040">
                        <set attributeName="fill" to="#808080" begin="arrowLeft.mouseover" end="arrowLeft.mouseout"/>
                  </use>
                  <path fill="none" stroke="white" stroke-width="1.5" d="M0,-3.0v7 M-2.5,-0.5L0,-3.0L2.5,-0.5"/>
                </g>
        </g>
        <svg viewBox="0 0 15 15" width="100%" height="30px" preserveAspectRatio="xMaxYMin meet">
         <g id="arrow_out" transform="scale(0.3 0.3)">
          <a xlink:href="area__force__local__tcl_8cpp__incl_org.svg" target="_base">
           <rect id="button" ry="5" rx="5" y="6" x="6" height="38" width="38"
                fill="#f2f5e9" fill-opacity="0.5" stroke="#606060" stroke-width="1.0"/>
           <path id="arrow"
             d="M 11.500037,31.436501 C 11.940474,20.09759 22.043105,11.32322 32.158766,21.979434 L 37.068811,17.246167 C 37.068811,17.246167 37.088388,32 37.088388,32 L 22.160133,31.978069 C 22.160133,31.978069 26.997745,27.140456 26.997745,27.140456 C 18.528582,18.264221 13.291696,25.230495 11.500037,31.436501 z"
             style="fill:#404040;"/>
          </a>
         </g>
        </svg>
</svg>
