<?xml version="1.0" encoding="UTF-8" standalone="no"?>
<!DOCTYPE svg PUBLIC "-//W3C//DTD SVG 1.1//EN"
 "http://www.w3.org/Graphics/SVG/1.1/DTD/svg11.dtd">
<!-- Generated by graphviz version 2.38.0 (20140413.2041)
 -->
<!-- Title: area_force_global.hpp Pages: 1 -->
<svg width="1105pt" height="588pt"
 viewBox="0.00 0.00 1104.50 588.00" xmlns="http://www.w3.org/2000/svg" xmlns:xlink="http://www.w3.org/1999/xlink">
<g id="graph0" class="graph" transform="scale(1 1) rotate(0) translate(4 584)">
<title>area_force_global.hpp</title>
<!-- Node1 -->
<g id="node1" class="node"><title>Node1</title>
<polygon fill="#bfbfbf" stroke="black" points="562,-560.5 562,-579.5 687,-579.5 687,-560.5 562,-560.5"/>
<text text-anchor="middle" x="624.5" y="-567.5" font-family="Helvetica,sans-Serif" font-size="10.00">area_force_global.hpp</text>
</g>
<!-- Node2 -->
<g id="node2" class="node"><title>Node2</title>
<g id="a_node2"><a xlink:href="utils_8hpp.html" target="_top" xlink:title="Small functions that are useful not only for one modul. ">
<polygon fill="none" stroke="black" points="594,-168.5 594,-187.5 653,-187.5 653,-168.5 594,-168.5"/>
<text text-anchor="middle" x="623.5" y="-175.5" font-family="Helvetica,sans-Serif" font-size="10.00">utils.hpp</text>
</a>
</g>
</g>
<!-- Node1&#45;&gt;Node2 -->
<g id="edge1" class="edge"><title>Node1&#45;&gt;Node2</title>
<path fill="none" stroke="midnightblue" d="M655.746,-560.415C698.097,-546.655 768.5,-515.313 768.5,-459 768.5,-459 768.5,-459 768.5,-345 768.5,-314.902 766.239,-305.014 749.5,-280 735.177,-258.596 676.514,-215.893 644.533,-193.487"/>
<polygon fill="midnightblue" stroke="midnightblue" points="646.485,-190.582 636.279,-187.74 642.486,-196.326 646.485,-190.582"/>
</g>
<!-- Node13 -->
<g id="node13" class="node"><title>Node13</title>
<g id="a_node13"><a xlink:href="errorhandling_8hpp.html" target="_top" xlink:title="This file contains the errorhandling code for severe errors, like a broken bond or illegal parameter ...">
<polygon fill="none" stroke="black" points="967,-112.5 967,-131.5 1070,-131.5 1070,-112.5 967,-112.5"/>
<text text-anchor="middle" x="1018.5" y="-119.5" font-family="Helvetica,sans-Serif" font-size="10.00">errorhandling.hpp</text>
</a>
</g>
</g>
<!-- Node1&#45;&gt;Node13 -->
<g id="edge65" class="edge"><title>Node1&#45;&gt;Node13</title>
<path fill="none" stroke="midnightblue" d="M687.207,-564.451C798.161,-554.665 1017.5,-526.752 1017.5,-459 1017.5,-459 1017.5,-459 1017.5,-233 1017.5,-200.947 1017.93,-163.642 1018.23,-141.748"/>
<polygon fill="midnightblue" stroke="midnightblue" points="1021.73,-141.606 1018.37,-131.558 1014.73,-141.507 1021.73,-141.606"/>
</g>
<!-- Node19 -->
<g id="node19" class="node"><title>Node19</title>
<g id="a_node19"><a xlink:href="interaction__data_8hpp.html" target="_top" xlink:title="Various procedures concerning interactions between particles. ">
<polygon fill="none" stroke="black" points="149,-280.5 149,-299.5 266,-299.5 266,-280.5 149,-280.5"/>
<text text-anchor="middle" x="207.5" y="-287.5" font-family="Helvetica,sans-Serif" font-size="10.00">interaction_data.hpp</text>
</a>
</g>
</g>
<!-- Node1&#45;&gt;Node19 -->
<g id="edge21" class="edge"><title>Node1&#45;&gt;Node19</title>
<path fill="none" stroke="midnightblue" d="M561.84,-564.32C451.596,-554.349 234.5,-526.184 234.5,-459 234.5,-459 234.5,-459 234.5,-401 234.5,-367.861 222.799,-330.682 214.803,-309.144"/>
<polygon fill="midnightblue" stroke="midnightblue" points="218.009,-307.73 211.141,-299.662 211.478,-310.252 218.009,-307.73"/>
</g>
<!-- Node20 -->
<g id="node20" class="node"><title>Node20</title>
<g id="a_node20"><a xlink:href="particle__data_8hpp.html" target="_top" xlink:title="For more information on particle_data, see particle_data.c. ">
<polygon fill="none" stroke="black" points="266,-224.5 266,-243.5 367,-243.5 367,-224.5 266,-224.5"/>
<text text-anchor="middle" x="316.5" y="-231.5" font-family="Helvetica,sans-Serif" font-size="10.00">particle_data.hpp</text>
</a>
</g>
</g>
<!-- Node1&#45;&gt;Node20 -->
<g id="edge25" class="edge"><title>Node1&#45;&gt;Node20</title>
<path fill="none" stroke="midnightblue" d="M561.811,-562.311C500.567,-551.893 416.5,-525.483 416.5,-459 416.5,-459 416.5,-459 416.5,-345 416.5,-300.984 372.12,-266.796 342.49,-248.875"/>
<polygon fill="midnightblue" stroke="midnightblue" points="343.869,-245.629 333.464,-243.636 340.356,-251.683 343.869,-245.629"/>
</g>
<!-- Node21 -->
<g id="node21" class="node"><title>Node21</title>
<g id="a_node21"><a xlink:href="cells_8hpp.html" target="_top" xlink:title="This file contains everything related to the cell structure / cell system. ">
<polygon fill="none" stroke="black" points="308.5,-336.5 308.5,-355.5 368.5,-355.5 368.5,-336.5 308.5,-336.5"/>
<text text-anchor="middle" x="338.5" y="-343.5" font-family="Helvetica,sans-Serif" font-size="10.00">cells.hpp</text>
</a>
</g>
</g>
<!-- Node1&#45;&gt;Node21 -->
<g id="edge26" class="edge"><title>Node1&#45;&gt;Node21</title>
<path fill="none" stroke="midnightblue" d="M561.879,-563.157C504.823,-556.641 425.984,-544.264 402.5,-524 354.504,-482.586 342.498,-402.29 339.498,-365.828"/>
<polygon fill="midnightblue" stroke="midnightblue" points="342.975,-365.374 338.806,-355.634 335.991,-365.848 342.975,-365.374"/>
</g>
<!-- Node28 -->
<g id="node28" class="node"><title>Node28</title>
<g id="a_node28"><a xlink:href="lb_8hpp.html" target="_top" xlink:title="Header file for lb.cpp. ">
<polygon fill="none" stroke="black" points="601,-504.5 601,-523.5 648,-523.5 648,-504.5 601,-504.5"/>
<text text-anchor="middle" x="624.5" y="-511.5" font-family="Helvetica,sans-Serif" font-size="10.00">lb.hpp</text>
</a>
</g>
</g>
<!-- Node1&#45;&gt;Node28 -->
<g id="edge36" class="edge"><title>Node1&#45;&gt;Node28</title>
<path fill="none" stroke="midnightblue" d="M624.5,-560.083C624.5,-553.006 624.5,-542.861 624.5,-533.986"/>
<polygon fill="midnightblue" stroke="midnightblue" points="628,-533.751 624.5,-523.751 621,-533.751 628,-533.751"/>
</g>
<!-- Node31 -->
<g id="node31" class="node"><title>Node31</title>
<g id="a_node31"><a xlink:href="grid_8hpp.html" target="_top" xlink:title="Domain decomposition for parallel computing. ">
<polygon fill="none" stroke="black" points="668.5,-336.5 668.5,-355.5 724.5,-355.5 724.5,-336.5 668.5,-336.5"/>
<text text-anchor="middle" x="696.5" y="-343.5" font-family="Helvetica,sans-Serif" font-size="10.00">grid.hpp</text>
</a>
</g>
</g>
<!-- Node1&#45;&gt;Node31 -->
<g id="edge64" class="edge"><title>Node1&#45;&gt;Node31</title>
<path fill="none" stroke="midnightblue" d="M632.262,-560.345C639.58,-551.729 650.321,-537.829 656.5,-524 680.757,-469.71 690.989,-399.258 694.691,-365.989"/>
<polygon fill="midnightblue" stroke="midnightblue" points="698.191,-366.166 695.74,-355.859 691.229,-365.445 698.191,-366.166"/>
</g>
<!-- Node3 -->
<g id="node3" class="node"><title>Node3</title>
<polygon fill="none" stroke="#bfbfbf" points="761,-112.5 761,-131.5 808,-131.5 808,-112.5 761,-112.5"/>
<text text-anchor="middle" x="784.5" y="-119.5" font-family="Helvetica,sans-Serif" font-size="10.00">cmath</text>
</g>
<!-- Node2&#45;&gt;Node3 -->
<g id="edge2" class="edge"><title>Node2&#45;&gt;Node3</title>
<path fill="none" stroke="midnightblue" d="M649.011,-168.444C676.654,-159.172 720.867,-144.343 751.223,-134.161"/>
<polygon fill="midnightblue" stroke="midnightblue" points="752.574,-137.4 760.942,-130.902 750.348,-130.763 752.574,-137.4"/>
</g>
<!-- Node4 -->
<g id="node4" class="node"><title>Node4</title>
<polygon fill="none" stroke="#bfbfbf" points="826.5,-112.5 826.5,-131.5 872.5,-131.5 872.5,-112.5 826.5,-112.5"/>
<text text-anchor="middle" x="849.5" y="-119.5" font-family="Helvetica,sans-Serif" font-size="10.00">cstdio</text>
</g>
<!-- Node2&#45;&gt;Node4 -->
<g id="edge3" class="edge"><title>Node2&#45;&gt;Node4</title>
<path fill="none" stroke="midnightblue" d="M653.01,-170.478C690.942,-162.012 758.794,-146.591 816.5,-132 816.601,-131.975 816.702,-131.949 816.803,-131.923"/>
<polygon fill="midnightblue" stroke="midnightblue" points="817.659,-135.317 826.45,-129.404 815.89,-128.544 817.659,-135.317"/>
</g>
<!-- Node5 -->
<g id="node5" class="node"><title>Node5</title>
<polygon fill="none" stroke="#bfbfbf" points="694,-112.5 694,-131.5 743,-131.5 743,-112.5 694,-112.5"/>
<text text-anchor="middle" x="718.5" y="-119.5" font-family="Helvetica,sans-Serif" font-size="10.00">cstdlib</text>
</g>
<!-- Node2&#45;&gt;Node5 -->
<g id="edge4" class="edge"><title>Node2&#45;&gt;Node5</title>
<path fill="none" stroke="midnightblue" d="M638.763,-168.324C653.721,-159.822 676.755,-146.729 694.227,-136.797"/>
<polygon fill="midnightblue" stroke="midnightblue" points="696.31,-139.639 703.274,-131.655 692.851,-133.553 696.31,-139.639"/>
</g>
<!-- Node6 -->
<g id="node6" class="node"><title>Node6</title>
<polygon fill="none" stroke="#bfbfbf" points="503.5,-112.5 503.5,-131.5 553.5,-131.5 553.5,-112.5 503.5,-112.5"/>
<text text-anchor="middle" x="528.5" y="-119.5" font-family="Helvetica,sans-Serif" font-size="10.00">cstring</text>
</g>
<!-- Node2&#45;&gt;Node6 -->
<g id="edge5" class="edge"><title>Node2&#45;&gt;Node6</title>
<path fill="none" stroke="midnightblue" d="M608.237,-168.324C593.279,-159.822 570.245,-146.729 552.773,-136.797"/>
<polygon fill="midnightblue" stroke="midnightblue" points="554.149,-133.553 543.726,-131.655 550.69,-139.639 554.149,-133.553"/>
</g>
<!-- Node7 -->
<g id="node7" class="node"><title>Node7</title>
<g id="a_node7"><a xlink:href="config_8hpp.html" target="_top" xlink:title="This file contains the defaults for Espresso. ">
<polygon fill="none" stroke="black" points="590,-56.5 590,-75.5 657,-75.5 657,-56.5 590,-56.5"/>
<text text-anchor="middle" x="623.5" y="-63.5" font-family="Helvetica,sans-Serif" font-size="10.00">config.hpp</text>
</a>
</g>
</g>
<!-- Node2&#45;&gt;Node7 -->
<g id="edge6" class="edge"><title>Node2&#45;&gt;Node7</title>
<path fill="none" stroke="midnightblue" d="M593.818,-177.202C525.255,-176.97 359.088,-172.183 324.5,-132 318.701,-125.263 318.701,-118.737 324.5,-112 356.921,-74.3343 504.95,-67.7685 579.838,-66.903"/>
<polygon fill="midnightblue" stroke="midnightblue" points="579.931,-70.4024 589.9,-66.816 579.87,-63.4027 579.931,-70.4024"/>
</g>
<!-- Node11 -->
<g id="node11" class="node"><title>Node11</title>
<g id="a_node11"><a xlink:href="debug_8hpp.html" target="_top" xlink:title="This file controls debug facilities. ">
<polygon fill="none" stroke="black" points="333.5,-112.5 333.5,-131.5 401.5,-131.5 401.5,-112.5 333.5,-112.5"/>
<text text-anchor="middle" x="367.5" y="-119.5" font-family="Helvetica,sans-Serif" font-size="10.00">debug.hpp</text>
</a>
</g>
</g>
<!-- Node2&#45;&gt;Node11 -->
<g id="edge10" class="edge"><title>Node2&#45;&gt;Node11</title>
<path fill="none" stroke="midnightblue" d="M593.883,-170.753C549.093,-161.305 463.831,-143.32 411.685,-132.32"/>
<polygon fill="midnightblue" stroke="midnightblue" points="412.227,-128.858 401.72,-130.218 410.782,-135.707 412.227,-128.858"/>
</g>
<!-- Node12 -->
<g id="node12" class="node"><title>Node12</title>
<g id="a_node12"><a xlink:href="lees__edwards_8hpp.html" target="_top" xlink:title="lees_edwards.hpp">
<polygon fill="none" stroke="black" points="571.5,-112.5 571.5,-131.5 675.5,-131.5 675.5,-112.5 571.5,-112.5"/>
<text text-anchor="middle" x="623.5" y="-119.5" font-family="Helvetica,sans-Serif" font-size="10.00">lees_edwards.hpp</text>
</a>
</g>
</g>
<!-- Node2&#45;&gt;Node12 -->
<g id="edge12" class="edge"><title>Node2&#45;&gt;Node12</title>
<path fill="none" stroke="midnightblue" d="M623.5,-168.083C623.5,-161.006 623.5,-150.861 623.5,-141.986"/>
<polygon fill="midnightblue" stroke="midnightblue" points="627,-141.751 623.5,-131.751 620,-141.751 627,-141.751"/>
</g>
<!-- Node2&#45;&gt;Node13 -->
<g id="edge14" class="edge"><title>Node2&#45;&gt;Node13</title>
<path fill="none" stroke="midnightblue" d="M653.189,-172.941C717.477,-164.153 870.699,-143.206 956.892,-131.422"/>
<polygon fill="midnightblue" stroke="midnightblue" points="957.371,-134.889 966.805,-130.067 956.423,-127.954 957.371,-134.889"/>
</g>
<!-- Node17 -->
<g id="node17" class="node"><title>Node17</title>
<polygon fill="none" stroke="#bfbfbf" points="230,-112.5 230,-131.5 277,-131.5 277,-112.5 230,-112.5"/>
<text text-anchor="middle" x="253.5" y="-119.5" font-family="Helvetica,sans-Serif" font-size="10.00">vector</text>
</g>
<!-- Node2&#45;&gt;Node17 -->
<g id="edge19" class="edge"><title>Node2&#45;&gt;Node17</title>
<path fill="none" stroke="midnightblue" d="M593.584,-173.938C535.212,-167.745 402.159,-152.553 291.5,-132 290.042,-131.729 288.555,-131.439 287.056,-131.135"/>
<polygon fill="midnightblue" stroke="midnightblue" points="287.656,-127.683 277.141,-128.977 286.168,-134.523 287.656,-127.683"/>
</g>
<!-- Node18 -->
<g id="node18" class="node"><title>Node18</title>
<polygon fill="none" stroke="#bfbfbf" points="420,-112.5 420,-131.5 485,-131.5 485,-112.5 420,-112.5"/>
<text text-anchor="middle" x="452.5" y="-119.5" font-family="Helvetica,sans-Serif" font-size="10.00">exception</text>
</g>
<!-- Node2&#45;&gt;Node18 -->
<g id="edge20" class="edge"><title>Node2&#45;&gt;Node18</title>
<path fill="none" stroke="midnightblue" d="M596.405,-168.444C567.512,-159.32 521.575,-144.813 489.395,-134.651"/>
<polygon fill="midnightblue" stroke="midnightblue" points="490.059,-131.19 479.469,-131.516 487.951,-137.865 490.059,-131.19"/>
</g>
<!-- Node8 -->
<g id="node8" class="node"><title>Node8</title>
<g id="a_node8"><a xlink:href="acconfig_8hpp.html" target="_top" xlink:title="acconfig.hpp">
<polygon fill="none" stroke="black" points="473.5,-0.5 473.5,-19.5 551.5,-19.5 551.5,-0.5 473.5,-0.5"/>
<text text-anchor="middle" x="512.5" y="-7.5" font-family="Helvetica,sans-Serif" font-size="10.00">acconfig.hpp</text>
</a>
</g>
</g>
<!-- Node7&#45;&gt;Node8 -->
<g id="edge7" class="edge"><title>Node7&#45;&gt;Node8</title>
<path fill="none" stroke="midnightblue" d="M605.666,-56.324C587.784,-47.6247 560.025,-34.1202 539.454,-24.113"/>
<polygon fill="midnightblue" stroke="midnightblue" points="540.813,-20.8819 530.29,-19.6545 537.751,-27.1765 540.813,-20.8819"/>
</g>
<!-- Node9 -->
<g id="node9" class="node"><title>Node9</title>
<g id="a_node9"><a xlink:href="myconfig-final_8hpp.html" target="_top" xlink:title="myconfig&#45;final.hpp">
<polygon fill="none" stroke="black" points="570,-0.5 570,-19.5 677,-19.5 677,-0.5 570,-0.5"/>
<text text-anchor="middle" x="623.5" y="-7.5" font-family="Helvetica,sans-Serif" font-size="10.00">myconfig&#45;final.hpp</text>
</a>
</g>
</g>
<!-- Node7&#45;&gt;Node9 -->
<g id="edge8" class="edge"><title>Node7&#45;&gt;Node9</title>
<path fill="none" stroke="midnightblue" d="M623.5,-56.083C623.5,-49.0059 623.5,-38.8611 623.5,-29.9865"/>
<polygon fill="midnightblue" stroke="midnightblue" points="627,-29.751 623.5,-19.7511 620,-29.7511 627,-29.751"/>
</g>
<!-- Node10 -->
<g id="node10" class="node"><title>Node10</title>
<g id="a_node10"><a xlink:href="config-features_8hpp.html" target="_top" xlink:title="config&#45;features.hpp">
<polygon fill="none" stroke="black" points="695,-0.5 695,-19.5 806,-19.5 806,-0.5 695,-0.5"/>
<text text-anchor="middle" x="750.5" y="-7.5" font-family="Helvetica,sans-Serif" font-size="10.00">config&#45;features.hpp</text>
</a>
</g>
</g>
<!-- Node7&#45;&gt;Node10 -->
<g id="edge9" class="edge"><title>Node7&#45;&gt;Node10</title>
<path fill="none" stroke="midnightblue" d="M643.624,-56.4435C664.524,-47.5566 697.435,-33.5632 721.216,-23.4514"/>
<polygon fill="midnightblue" stroke="midnightblue" points="722.638,-26.6504 730.471,-19.5164 719.898,-20.2085 722.638,-26.6504"/>
</g>
<!-- Node11&#45;&gt;Node7 -->
<g id="edge11" class="edge"><title>Node11&#45;&gt;Node7</title>
<path fill="none" stroke="midnightblue" d="M401.76,-113.773C447.774,-104.067 529.566,-86.8142 579.914,-76.194"/>
<polygon fill="midnightblue" stroke="midnightblue" points="580.788,-79.5867 589.85,-74.098 579.343,-72.7374 580.788,-79.5867"/>
</g>
<!-- Node12&#45;&gt;Node7 -->
<g id="edge13" class="edge"><title>Node12&#45;&gt;Node7</title>
<path fill="none" stroke="midnightblue" d="M623.5,-112.083C623.5,-105.006 623.5,-94.8611 623.5,-85.9865"/>
<polygon fill="midnightblue" stroke="midnightblue" points="627,-85.751 623.5,-75.7511 620,-85.7511 627,-85.751"/>
</g>
<!-- Node13&#45;&gt;Node7 -->
<g id="edge15" class="edge"><title>Node13&#45;&gt;Node7</title>
<path fill="none" stroke="midnightblue" d="M966.861,-113.94C888.529,-103.232 741.033,-83.0678 667.5,-73.0151"/>
<polygon fill="midnightblue" stroke="midnightblue" points="667.586,-69.4945 657.204,-71.6077 666.638,-76.43 667.586,-69.4945"/>
</g>
<!-- Node14 -->
<g id="node14" class="node"><title>Node14</title>
<polygon fill="none" stroke="#bfbfbf" points="1052.5,-56.5 1052.5,-75.5 1096.5,-75.5 1096.5,-56.5 1052.5,-56.5"/>
<text text-anchor="middle" x="1074.5" y="-63.5" font-family="Helvetica,sans-Serif" font-size="10.00">string</text>
</g>
<!-- Node13&#45;&gt;Node14 -->
<g id="edge16" class="edge"><title>Node13&#45;&gt;Node14</title>
<path fill="none" stroke="midnightblue" d="M1027.5,-112.324C1035.69,-104.42 1048.01,-92.5482 1057.97,-82.9377"/>
<polygon fill="midnightblue" stroke="midnightblue" points="1060.57,-85.2947 1065.34,-75.8339 1055.71,-80.2558 1060.57,-85.2947"/>
</g>
<!-- Node15 -->
<g id="node15" class="node"><title>Node15</title>
<polygon fill="none" stroke="#bfbfbf" points="928.5,-56.5 928.5,-75.5 984.5,-75.5 984.5,-56.5 928.5,-56.5"/>
<text text-anchor="middle" x="956.5" y="-63.5" font-family="Helvetica,sans-Serif" font-size="10.00">sstream</text>
</g>
<!-- Node13&#45;&gt;Node15 -->
<g id="edge17" class="edge"><title>Node13&#45;&gt;Node15</title>
<path fill="none" stroke="midnightblue" d="M1008.54,-112.324C999.373,-104.341 985.563,-92.3128 974.472,-82.6529"/>
<polygon fill="midnightblue" stroke="midnightblue" points="976.482,-79.7624 966.643,-75.8339 971.885,-85.041 976.482,-79.7624"/>
</g>
<!-- Node16 -->
<g id="node16" class="node"><title>Node16</title>
<polygon fill="none" stroke="#bfbfbf" points="1002.5,-56.5 1002.5,-75.5 1034.5,-75.5 1034.5,-56.5 1002.5,-56.5"/>
<text text-anchor="middle" x="1018.5" y="-63.5" font-family="Helvetica,sans-Serif" font-size="10.00">list</text>
</g>
<!-- Node13&#45;&gt;Node16 -->
<g id="edge18" class="edge"><title>Node13&#45;&gt;Node16</title>
<path fill="none" stroke="midnightblue" d="M1018.5,-112.083C1018.5,-105.006 1018.5,-94.8611 1018.5,-85.9865"/>
<polygon fill="midnightblue" stroke="midnightblue" points="1022,-85.751 1018.5,-75.7511 1015,-85.7511 1022,-85.751"/>
</g>
<!-- Node19&#45;&gt;Node2 -->
<g id="edge22" class="edge"><title>Node19&#45;&gt;Node2</title>
<path fill="none" stroke="midnightblue" d="M211.164,-280.489C217.849,-266.11 233.489,-237.28 256.5,-224 311.484,-192.268 500.582,-182.707 583.733,-180"/>
<polygon fill="midnightblue" stroke="midnightblue" points="583.915,-183.496 593.802,-179.689 583.699,-176.499 583.915,-183.496"/>
</g>
<!-- Node19&#45;&gt;Node20 -->
<g id="edge23" class="edge"><title>Node19&#45;&gt;Node20</title>
<path fill="none" stroke="midnightblue" d="M225.013,-280.324C242.572,-271.625 269.831,-258.12 290.031,-248.113"/>
<polygon fill="midnightblue" stroke="midnightblue" points="291.624,-251.23 299.031,-243.655 288.516,-244.958 291.624,-251.23"/>
</g>
<!-- Node20&#45;&gt;Node2 -->
<g id="edge24" class="edge"><title>Node20&#45;&gt;Node2</title>
<path fill="none" stroke="midnightblue" d="M365.145,-224.444C425.628,-213.805 527.717,-195.848 583.744,-185.993"/>
<polygon fill="midnightblue" stroke="midnightblue" points="584.407,-189.43 593.649,-184.251 583.194,-182.536 584.407,-189.43"/>
</g>
<!-- Node21&#45;&gt;Node20 -->
<g id="edge27" class="edge"><title>Node21&#45;&gt;Node20</title>
<path fill="none" stroke="midnightblue" d="M345.054,-336.454C353.835,-323.899 367.444,-299.813 359.5,-280 354.82,-268.328 345.509,-257.969 336.744,-250.141"/>
<polygon fill="midnightblue" stroke="midnightblue" points="338.924,-247.401 328.997,-243.698 334.448,-252.783 338.924,-247.401"/>
</g>
<!-- Node22 -->
<g id="node22" class="node"><title>Node22</title>
<g id="a_node22"><a xlink:href="ghosts_8hpp.html" target="_top" xlink:title="Ghost particles and particle exchange. ">
<polygon fill="none" stroke="black" points="60.5,-280.5 60.5,-299.5 130.5,-299.5 130.5,-280.5 60.5,-280.5"/>
<text text-anchor="middle" x="95.5" y="-287.5" font-family="Helvetica,sans-Serif" font-size="10.00">ghosts.hpp</text>
</a>
</g>
</g>
<!-- Node21&#45;&gt;Node22 -->
<g id="edge28" class="edge"><title>Node21&#45;&gt;Node22</title>
<path fill="none" stroke="midnightblue" d="M308.215,-338.27C266.168,-328.926 189.773,-311.949 140.892,-301.087"/>
<polygon fill="midnightblue" stroke="midnightblue" points="141.422,-297.62 130.901,-298.867 139.904,-304.453 141.422,-297.62"/>
</g>
<!-- Node27 -->
<g id="node27" class="node"><title>Node27</title>
<g id="a_node27"><a xlink:href="verlet_8hpp.html" target="_top" xlink:title="This file contains routines to setup and handle interaction pair lists (verlet pair lists) for the no...">
<polygon fill="none" stroke="black" points="284.5,-280.5 284.5,-299.5 350.5,-299.5 350.5,-280.5 284.5,-280.5"/>
<text text-anchor="middle" x="317.5" y="-287.5" font-family="Helvetica,sans-Serif" font-size="10.00">verlet.hpp</text>
</a>
</g>
</g>
<!-- Node21&#45;&gt;Node27 -->
<g id="edge34" class="edge"><title>Node21&#45;&gt;Node27</title>
<path fill="none" stroke="midnightblue" d="M335.032,-336.083C332.188,-328.77 328.071,-318.181 324.54,-309.103"/>
<polygon fill="midnightblue" stroke="midnightblue" points="327.79,-307.803 320.903,-299.751 321.266,-310.34 327.79,-307.803"/>
</g>
<!-- Node22&#45;&gt;Node20 -->
<g id="edge33" class="edge"><title>Node22&#45;&gt;Node20</title>
<path fill="none" stroke="midnightblue" d="M130.518,-280.444C168.748,-271.102 230.067,-256.119 271.757,-245.933"/>
<polygon fill="midnightblue" stroke="midnightblue" points="272.762,-249.29 281.646,-243.516 271.101,-242.49 272.762,-249.29"/>
</g>
<!-- Node23 -->
<g id="node23" class="node"><title>Node23</title>
<g id="a_node23"><a xlink:href="mpi_8h.html" target="_top" xlink:title="This is the MPIfake implementation. ">
<polygon fill="none" stroke="black" points="75.5,-224.5 75.5,-243.5 119.5,-243.5 119.5,-224.5 75.5,-224.5"/>
<text text-anchor="middle" x="97.5" y="-231.5" font-family="Helvetica,sans-Serif" font-size="10.00">mpi.h</text>
</a>
</g>
</g>
<!-- Node22&#45;&gt;Node23 -->
<g id="edge29" class="edge"><title>Node22&#45;&gt;Node23</title>
<path fill="none" stroke="midnightblue" d="M95.8303,-280.083C96.0924,-273.006 96.4681,-262.861 96.7968,-253.986"/>
<polygon fill="midnightblue" stroke="midnightblue" points="100.303,-253.874 97.1759,-243.751 93.3081,-253.615 100.303,-253.874"/>
</g>
<!-- Node24 -->
<g id="node24" class="node"><title>Node24</title>
<polygon fill="none" stroke="#bfbfbf" points="71,-168.5 71,-187.5 124,-187.5 124,-168.5 71,-168.5"/>
<text text-anchor="middle" x="97.5" y="-175.5" font-family="Helvetica,sans-Serif" font-size="10.00">string.h</text>
</g>
<!-- Node23&#45;&gt;Node24 -->
<g id="edge30" class="edge"><title>Node23&#45;&gt;Node24</title>
<path fill="none" stroke="midnightblue" d="M97.5,-224.083C97.5,-217.006 97.5,-206.861 97.5,-197.986"/>
<polygon fill="midnightblue" stroke="midnightblue" points="101,-197.751 97.5,-187.751 94.0001,-197.751 101,-197.751"/>
</g>
<!-- Node25 -->
<g id="node25" class="node"><title>Node25</title>
<polygon fill="none" stroke="#bfbfbf" points="142.5,-168.5 142.5,-187.5 192.5,-187.5 192.5,-168.5 142.5,-168.5"/>
<text text-anchor="middle" x="167.5" y="-175.5" font-family="Helvetica,sans-Serif" font-size="10.00">stdio.h</text>
</g>
<!-- Node23&#45;&gt;Node25 -->
<g id="edge31" class="edge"><title>Node23&#45;&gt;Node25</title>
<path fill="none" stroke="midnightblue" d="M108.747,-224.324C119.297,-216.185 135.301,-203.839 147.942,-194.087"/>
<polygon fill="midnightblue" stroke="midnightblue" points="150.269,-196.713 156.049,-187.834 145.993,-191.171 150.269,-196.713"/>
</g>
<!-- Node26 -->
<g id="node26" class="node"><title>Node26</title>
<polygon fill="none" stroke="#bfbfbf" points="0,-168.5 0,-187.5 53,-187.5 53,-168.5 0,-168.5"/>
<text text-anchor="middle" x="26.5" y="-175.5" font-family="Helvetica,sans-Serif" font-size="10.00">stdlib.h</text>
</g>
<!-- Node23&#45;&gt;Node26 -->
<g id="edge32" class="edge"><title>Node23&#45;&gt;Node26</title>
<path fill="none" stroke="midnightblue" d="M86.0926,-224.324C75.3912,-216.185 59.1593,-203.839 46.3372,-194.087"/>
<polygon fill="midnightblue" stroke="midnightblue" points="48.1932,-191.102 38.1149,-187.834 43.9556,-196.673 48.1932,-191.102"/>
</g>
<!-- Node27&#45;&gt;Node20 -->
<g id="edge35" class="edge"><title>Node27&#45;&gt;Node20</title>
<path fill="none" stroke="midnightblue" d="M317.335,-280.083C317.204,-273.006 317.016,-262.861 316.852,-253.986"/>
<polygon fill="midnightblue" stroke="midnightblue" points="320.347,-253.685 316.662,-243.751 313.348,-253.814 320.347,-253.685"/>
</g>
<!-- Node28&#45;&gt;Node2 -->
<g id="edge37" class="edge"><title>Node28&#45;&gt;Node2</title>
<path fill="none" stroke="midnightblue" d="M624.5,-504.442C624.5,-485.936 624.5,-440.812 624.5,-403 624.5,-403 624.5,-403 624.5,-289 624.5,-256.947 624.07,-219.642 623.774,-197.748"/>
<polygon fill="midnightblue" stroke="midnightblue" points="627.271,-197.507 623.631,-187.558 620.272,-197.606 627.271,-197.507"/>
</g>
<!-- Node29 -->
<g id="node29" class="node"><title>Node29</title>
<g id="a_node29"><a xlink:href="lattice__inline_8hpp.html" target="_top" xlink:title="lattice_inline.hpp">
<polygon fill="none" stroke="black" points="495,-448.5 495,-467.5 596,-467.5 596,-448.5 495,-448.5"/>
<text text-anchor="middle" x="545.5" y="-455.5" font-family="Helvetica,sans-Serif" font-size="10.00">lattice_inline.hpp</text>
</a>
</g>
</g>
<!-- Node28&#45;&gt;Node29 -->
<g id="edge38" class="edge"><title>Node28&#45;&gt;Node29</title>
<path fill="none" stroke="midnightblue" d="M611.807,-504.324C599.599,-495.979 580.922,-483.212 566.497,-473.352"/>
<polygon fill="midnightblue" stroke="midnightblue" points="568.392,-470.408 558.161,-467.655 564.442,-476.187 568.392,-470.408"/>
</g>
<!-- Node37 -->
<g id="node37" class="node"><title>Node37</title>
<g id="a_node37"><a xlink:href="lbgpu_8hpp.html" target="_top" xlink:title="Header file for lbgpu.cpp. ">
<polygon fill="none" stroke="black" points="802,-280.5 802,-299.5 867,-299.5 867,-280.5 802,-280.5"/>
<text text-anchor="middle" x="834.5" y="-287.5" font-family="Helvetica,sans-Serif" font-size="10.00">lbgpu.hpp</text>
</a>
</g>
</g>
<!-- Node28&#45;&gt;Node37 -->
<g id="edge55" class="edge"><title>Node28&#45;&gt;Node37</title>
<path fill="none" stroke="midnightblue" d="M632.732,-504.297C664.221,-471.01 777.345,-351.421 818.979,-307.408"/>
<polygon fill="midnightblue" stroke="midnightblue" points="821.767,-309.554 826.096,-299.884 816.682,-304.743 821.767,-309.554"/>
</g>
<!-- Node30 -->
<g id="node30" class="node"><title>Node30</title>
<g id="a_node30"><a xlink:href="lattice_8hpp.html" target="_top" xlink:title="Lattice class definition Contains the lattice layout and pointers to the data fields. ">
<polygon fill="none" stroke="black" points="511.5,-392.5 511.5,-411.5 579.5,-411.5 579.5,-392.5 511.5,-392.5"/>
<text text-anchor="middle" x="545.5" y="-399.5" font-family="Helvetica,sans-Serif" font-size="10.00">lattice.hpp</text>
</a>
</g>
</g>
<!-- Node29&#45;&gt;Node30 -->
<g id="edge39" class="edge"><title>Node29&#45;&gt;Node30</title>
<path fill="none" stroke="midnightblue" d="M545.5,-448.083C545.5,-441.006 545.5,-430.861 545.5,-421.986"/>
<polygon fill="midnightblue" stroke="midnightblue" points="549,-421.751 545.5,-411.751 542,-421.751 549,-421.751"/>
</g>
<!-- Node30&#45;&gt;Node20 -->
<g id="edge54" class="edge"><title>Node30&#45;&gt;Node20</title>
<path fill="none" stroke="midnightblue" d="M539.491,-392.462C523.869,-370.828 479.755,-313.221 430.5,-280 408.449,-265.127 380.752,-254.05 358.18,-246.607"/>
<polygon fill="midnightblue" stroke="midnightblue" points="359.122,-243.234 348.531,-243.541 357.002,-249.905 359.122,-243.234"/>
</g>
<!-- Node30&#45;&gt;Node31 -->
<g id="edge40" class="edge"><title>Node30&#45;&gt;Node31</title>
<path fill="none" stroke="midnightblue" d="M569.426,-392.444C594.719,-383.399 634.802,-369.064 663.18,-358.916"/>
<polygon fill="midnightblue" stroke="midnightblue" points="664.448,-362.179 672.686,-355.516 662.091,-355.588 664.448,-362.179"/>
</g>
<!-- Node31&#45;&gt;Node2 -->
<g id="edge41" class="edge"><title>Node31&#45;&gt;Node2</title>
<path fill="none" stroke="midnightblue" d="M692.575,-336.075C681.035,-309.832 647.047,-232.545 631.467,-197.117"/>
<polygon fill="midnightblue" stroke="midnightblue" points="634.497,-195.313 627.268,-187.568 628.09,-198.131 634.497,-195.313"/>
</g>
<!-- Node31&#45;&gt;Node13 -->
<g id="edge53" class="edge"><title>Node31&#45;&gt;Node13</title>
<path fill="none" stroke="midnightblue" d="M724.569,-341.955C761.042,-337.123 825.916,-325.497 875.5,-300 944.864,-264.332 992.293,-178.4 1010.36,-140.95"/>
<polygon fill="midnightblue" stroke="midnightblue" points="1013.6,-142.295 1014.68,-131.755 1007.26,-139.323 1013.6,-142.295"/>
</g>
<!-- Node32 -->
<g id="node32" class="node"><title>Node32</title>
<polygon fill="none" stroke="#bfbfbf" points="690.5,-280.5 690.5,-299.5 740.5,-299.5 740.5,-280.5 690.5,-280.5"/>
<text text-anchor="middle" x="715.5" y="-287.5" font-family="Helvetica,sans-Serif" font-size="10.00">climits</text>
</g>
<!-- Node31&#45;&gt;Node32 -->
<g id="edge42" class="edge"><title>Node31&#45;&gt;Node32</title>
<path fill="none" stroke="midnightblue" d="M699.637,-336.083C702.183,-328.849 705.856,-318.409 709.027,-309.397"/>
<polygon fill="midnightblue" stroke="midnightblue" points="712.403,-310.346 712.421,-299.751 705.8,-308.023 712.403,-310.346"/>
</g>
<!-- Node33 -->
<g id="node33" class="node"><title>Node33</title>
<g id="a_node33"><a xlink:href="communication_8hpp.html" target="_top" xlink:title="This file contains the asynchronous MPI communication. ">
<polygon fill="none" stroke="black" points="483,-280.5 483,-299.5 596,-299.5 596,-280.5 483,-280.5"/>
<text text-anchor="middle" x="539.5" y="-287.5" font-family="Helvetica,sans-Serif" font-size="10.00">communication.hpp</text>
</a>
</g>
</g>
<!-- Node31&#45;&gt;Node33 -->
<g id="edge43" class="edge"><title>Node31&#45;&gt;Node33</title>
<path fill="none" stroke="midnightblue" d="M671.623,-336.444C645.211,-327.359 603.285,-312.939 573.758,-302.783"/>
<polygon fill="midnightblue" stroke="midnightblue" points="574.855,-299.459 564.261,-299.516 572.579,-306.079 574.855,-299.459"/>
</g>
<!-- Node33&#45;&gt;Node20 -->
<g id="edge44" class="edge"><title>Node33&#45;&gt;Node20</title>
<path fill="none" stroke="midnightblue" d="M504.165,-280.444C465.589,-271.102 403.715,-256.119 361.647,-245.933"/>
<polygon fill="midnightblue" stroke="midnightblue" points="362.213,-242.468 351.67,-243.516 360.565,-249.272 362.213,-242.468"/>
</g>
<!-- Node33&#45;&gt;Node23 -->
<g id="edge49" class="edge"><title>Node33&#45;&gt;Node23</title>
<path fill="none" stroke="midnightblue" d="M482.621,-282.051C388.84,-270.594 204.731,-248.101 130.09,-238.982"/>
<polygon fill="midnightblue" stroke="midnightblue" points="130.246,-235.475 119.895,-237.736 129.397,-242.423 130.246,-235.475"/>
</g>
<!-- Node34 -->
<g id="node34" class="node"><title>Node34</title>
<g id="a_node34"><a xlink:href="random_8hpp.html" target="_top" xlink:title="A random generator. ">
<polygon fill="none" stroke="black" points="424,-224.5 424,-243.5 499,-243.5 499,-224.5 424,-224.5"/>
<text text-anchor="middle" x="461.5" y="-231.5" font-family="Helvetica,sans-Serif" font-size="10.00">random.hpp</text>
</a>
</g>
</g>
<!-- Node33&#45;&gt;Node34 -->
<g id="edge45" class="edge"><title>Node33&#45;&gt;Node34</title>
<path fill="none" stroke="midnightblue" d="M526.968,-280.324C514.914,-271.979 496.473,-259.212 482.231,-249.352"/>
<polygon fill="midnightblue" stroke="midnightblue" points="484.215,-246.469 474.001,-243.655 480.231,-252.224 484.215,-246.469"/>
</g>
<!-- Node35 -->
<g id="node35" class="node"><title>Node35</title>
<g id="a_node35"><a xlink:href="topology_8hpp.html" target="_top" xlink:title="This file contains functions for handling the system topology. ">
<polygon fill="none" stroke="black" points="517,-224.5 517,-243.5 596,-243.5 596,-224.5 517,-224.5"/>
<text text-anchor="middle" x="556.5" y="-231.5" font-family="Helvetica,sans-Serif" font-size="10.00">topology.hpp</text>
</a>
</g>
</g>
<!-- Node33&#45;&gt;Node35 -->
<g id="edge47" class="edge"><title>Node33&#45;&gt;Node35</title>
<path fill="none" stroke="midnightblue" d="M542.307,-280.083C544.585,-272.849 547.871,-262.409 550.708,-253.397"/>
<polygon fill="midnightblue" stroke="midnightblue" points="554.081,-254.341 553.745,-243.751 547.404,-252.239 554.081,-254.341"/>
</g>
<!-- Node36 -->
<g id="node36" class="node"><title>Node36</title>
<g id="a_node36"><a xlink:href="cuda__init_8hpp.html" target="_top" xlink:title="cuda_init.hpp">
<polygon fill="none" stroke="black" points="212.5,-168.5 212.5,-187.5 294.5,-187.5 294.5,-168.5 212.5,-168.5"/>
<text text-anchor="middle" x="253.5" y="-175.5" font-family="Helvetica,sans-Serif" font-size="10.00">cuda_init.hpp</text>
</a>
</g>
</g>
<!-- Node33&#45;&gt;Node36 -->
<g id="edge50" class="edge"><title>Node33&#45;&gt;Node36</title>
<path fill="none" stroke="midnightblue" d="M512.779,-280.487C487.204,-272.082 447.715,-258.424 414.5,-244 396.633,-236.241 393.337,-231.829 375.5,-224 346.975,-211.48 313.755,-199.382 289.189,-190.89"/>
<polygon fill="midnightblue" stroke="midnightblue" points="290.158,-187.522 279.563,-187.593 287.89,-194.144 290.158,-187.522"/>
</g>
<!-- Node34&#45;&gt;Node2 -->
<g id="edge46" class="edge"><title>Node34&#45;&gt;Node2</title>
<path fill="none" stroke="midnightblue" d="M487.169,-224.444C514.423,-215.359 557.684,-200.939 588.151,-190.783"/>
<polygon fill="midnightblue" stroke="midnightblue" points="589.571,-193.999 597.951,-187.516 587.357,-187.358 589.571,-193.999"/>
</g>
<!-- Node35&#45;&gt;Node2 -->
<g id="edge48" class="edge"><title>Node35&#45;&gt;Node2</title>
<path fill="none" stroke="midnightblue" d="M567.265,-224.324C577.266,-216.263 592.387,-204.077 604.43,-194.369"/>
<polygon fill="midnightblue" stroke="midnightblue" points="606.95,-196.834 612.539,-187.834 602.557,-191.384 606.95,-196.834"/>
</g>
<!-- Node36&#45;&gt;Node7 -->
<g id="edge51" class="edge"><title>Node36&#45;&gt;Node7</title>
<path fill="none" stroke="midnightblue" d="M242.972,-168.15C228.301,-154.778 205.143,-129.167 220.5,-112 244.158,-85.5532 480.512,-72.852 579.867,-68.6491"/>
<polygon fill="midnightblue" stroke="midnightblue" points="580.038,-72.1451 589.885,-68.2346 579.749,-65.1511 580.038,-72.1451"/>
</g>
<!-- Node36&#45;&gt;Node17 -->
<g id="edge52" class="edge"><title>Node36&#45;&gt;Node17</title>
<path fill="none" stroke="midnightblue" d="M253.5,-168.083C253.5,-161.006 253.5,-150.861 253.5,-141.986"/>
<polygon fill="midnightblue" stroke="midnightblue" points="257,-141.751 253.5,-131.751 250,-141.751 257,-141.751"/>
</g>
<!-- Node37&#45;&gt;Node2 -->
<g id="edge56" class="edge"><title>Node37&#45;&gt;Node2</title>
<path fill="none" stroke="midnightblue" d="M819.364,-280.326C797.043,-267.613 753.899,-243.331 716.5,-224 694.654,-212.708 669.534,-200.604 650.912,-191.797"/>
<polygon fill="midnightblue" stroke="midnightblue" points="652.356,-188.608 641.818,-187.513 649.373,-194.941 652.356,-188.608"/>
</g>
<!-- Node37&#45;&gt;Node7 -->
<g id="edge57" class="edge"><title>Node37&#45;&gt;Node7</title>
<path fill="none" stroke="midnightblue" d="M867.061,-280.591C885.632,-273.942 907.367,-262.595 918.5,-244 938.596,-210.436 989.073,-200.724 900.5,-112 868.537,-79.9825 737.169,-70.7367 667.445,-68.0732"/>
<polygon fill="midnightblue" stroke="midnightblue" points="667.333,-64.5672 657.216,-67.7129 667.087,-71.5629 667.333,-64.5672"/>
</g>
<!-- Node38 -->
<g id="node38" class="node"><title>Node38</title>
<g id="a_node38"><a xlink:href="statistics__observable_8hpp.html" target="_top" xlink:title="statistics_observable.hpp">
<polygon fill="none" stroke="black" points="769,-224.5 769,-243.5 910,-243.5 910,-224.5 769,-224.5"/>
<text text-anchor="middle" x="839.5" y="-231.5" font-family="Helvetica,sans-Serif" font-size="10.00">statistics_observable.hpp</text>
</a>
</g>
</g>
<!-- Node37&#45;&gt;Node38 -->
<g id="edge58" class="edge"><title>Node37&#45;&gt;Node38</title>
<path fill="none" stroke="midnightblue" d="M835.326,-280.083C835.981,-273.006 836.92,-262.861 837.742,-253.986"/>
<polygon fill="midnightblue" stroke="midnightblue" points="841.253,-254.031 838.69,-243.751 834.283,-253.386 841.253,-254.031"/>
</g>
<!-- Node38&#45;&gt;Node2 -->
<g id="edge60" class="edge"><title>Node38&#45;&gt;Node2</title>
<path fill="none" stroke="midnightblue" d="M805.274,-224.444C766.563,-214.766 703.628,-199.032 662.901,-188.85"/>
<polygon fill="midnightblue" stroke="midnightblue" points="663.604,-185.418 653.054,-186.388 661.906,-192.209 663.604,-185.418"/>
</g>
<!-- Node38&#45;&gt;Node3 -->
<g id="edge63" class="edge"><title>Node38&#45;&gt;Node3</title>
<path fill="none" stroke="midnightblue" d="M835.184,-224.368C826.188,-206.376 805.275,-164.55 793.313,-140.627"/>
<polygon fill="midnightblue" stroke="midnightblue" points="796.398,-138.97 788.796,-131.591 790.137,-142.101 796.398,-138.97"/>
</g>
<!-- Node38&#45;&gt;Node4 -->
<g id="edge61" class="edge"><title>Node38&#45;&gt;Node4</title>
<path fill="none" stroke="midnightblue" d="M840.285,-224.368C841.898,-206.617 845.621,-165.666 847.809,-141.597"/>
<polygon fill="midnightblue" stroke="midnightblue" points="851.299,-141.867 848.719,-131.591 844.328,-141.233 851.299,-141.867"/>
</g>
<!-- Node38&#45;&gt;Node5 -->
<g id="edge62" class="edge"><title>Node38&#45;&gt;Node5</title>
<path fill="none" stroke="midnightblue" d="M830.005,-224.368C809.595,-205.814 761.304,-161.913 735.481,-138.438"/>
<polygon fill="midnightblue" stroke="midnightblue" points="737.704,-135.728 727.951,-131.591 732.996,-140.908 737.704,-135.728"/>
</g>
<!-- Node38&#45;&gt;Node7 -->
<g id="edge59" class="edge"><title>Node38&#45;&gt;Node7</title>
<path fill="none" stroke="midnightblue" d="M847.608,-224.349C866.688,-202.942 910.691,-146.723 881.5,-112 854.63,-80.0377 733.506,-70.775 667.21,-68.0924"/>
<polygon fill="midnightblue" stroke="midnightblue" points="667.186,-64.5892 657.063,-67.7159 666.927,-71.5844 667.186,-64.5892"/>
</g>
</g>
</svg>
