<?xml version="1.0" encoding="UTF-8" standalone="no"?>
<!DOCTYPE svg PUBLIC "-//W3C//DTD SVG 1.1//EN"
 "http://www.w3.org/Graphics/SVG/1.1/DTD/svg11.dtd">
<!-- Generated by graphviz version 2.38.0 (20140413.2041)
 -->
<!-- Title: bending_force.cpp Pages: 1 -->
<!--zoomable 476 -->
<svg id="main" version="1.1" xmlns="http://www.w3.org/2000/svg" xmlns:xlink="http://www.w3.org/1999/xlink" xml:space="preserve" onload="init(evt)">
<style type="text/css"><![CDATA[
.edge:hover path { stroke: red; }
.edge:hover polygon { stroke: red; fill: red; }
]]></style>
<script type="text/javascript"><![CDATA[
var edges = document.getElementsByTagName('g');
if (edges && edges.length) {
  for (var i=0;i<edges.length;i++) {
    if (edges[i].id.substr(0,4)=='edge') {
      edges[i].setAttribute('class','edge');
    }
  }
}
]]></script>
        <defs>
                <circle id="rim" cx="0" cy="0" r="7"/>
                <circle id="rim2" cx="0" cy="0" r="3.5"/>
                <g id="zoomPlus">
                        <use xlink:href="#rim" fill="#404040">
                                <set attributeName="fill" to="#808080" begin="zoomplus.mouseover" end="zoomplus.mouseout"/>
                        </use>
                        <path d="M-4,0h8M0,-4v8" fill="none" stroke="white" stroke-width="1.5" pointer-events="none"/>
                </g>
                <g id="zoomMin">
                        <use xlink:href="#rim" fill="#404040">
                                <set attributeName="fill" to="#808080" begin="zoomminus.mouseover" end="zoomminus.mouseout"/>
                        </use>
                        <path d="M-4,0h8" fill="none" stroke="white" stroke-width="1.5" pointer-events="none"/>
                </g>
                <g id="dirArrow">
                        <path fill="none" stroke="white" stroke-width="1.5" d="M0,-3.0v7 M-2.5,-0.5L0,-3.0L2.5,-0.5"/>
                </g>
               <g id="resetDef">
                       <use xlink:href="#rim2" fill="#404040">
                               <set attributeName="fill" to="#808080" begin="reset.mouseover" end="reset.mouseout"/>
                       </use>
               </g>
        </defs>

<script type="text/javascript">
var viewWidth = 1027;
var viewHeight = 476;
var sectionId = 'dynsection-0';
</script>
<script xlink:href="svgpan.js"/>
<svg id="graph" class="graph">
<g id="viewport">
<title>bending_force.cpp</title>
<!-- Node1 -->
<g id="node1" class="node"><title>Node1</title>
<polygon fill="#bfbfbf" stroke="black" points="423.5,-448.5 423.5,-467.5 529.5,-467.5 529.5,-448.5 423.5,-448.5"/>
<text text-anchor="middle" x="476.5" y="-455.5" font-family="Helvetica,sans-Serif" font-size="10.00">bending_force.cpp</text>
</g>
<!-- Node2 -->
<g id="node2" class="node"><title>Node2</title>
<g id="a_node2"><a xlink:href="communication_8hpp.html" target="_top" xlink:title="This file contains the asynchronous MPI communication. ">
<polygon fill="none" stroke="black" points="322,-280.5 322,-299.5 435,-299.5 435,-280.5 322,-280.5"/>
<text text-anchor="middle" x="378.5" y="-287.5" font-family="Helvetica,sans-Serif" font-size="10.00">communication.hpp</text>
</a>
</g>
</g>
<!-- Node1&#45;&gt;Node2 -->
<g id="edge1" class="edge"><title>Node1&#45;&gt;Node2</title>
<path fill="none" stroke="midnightblue" d="M471.231,-448.075C455.605,-421.606 409.322,-343.209 388.66,-308.21"/>
<polygon fill="midnightblue" stroke="midnightblue" points="391.656,-306.4 383.558,-299.568 385.628,-309.959 391.656,-306.4"/>
</g>
<!-- Node28 -->
<g id="node28" class="node"><title>Node28</title>
<g id="a_node28"><a xlink:href="bending__force_8hpp.html" target="_top" xlink:title="Routines to calculate the bending_force energy or/and and force for a particle quadruple (two triangl...">
<polygon fill="none" stroke="black" points="497,-392.5 497,-411.5 604,-411.5 604,-392.5 497,-392.5"/>
<text text-anchor="middle" x="550.5" y="-399.5" font-family="Helvetica,sans-Serif" font-size="10.00">bending_force.hpp</text>
</a>
</g>
</g>
<!-- Node1&#45;&gt;Node28 -->
<g id="edge34" class="edge"><title>Node1&#45;&gt;Node28</title>
<path fill="none" stroke="midnightblue" d="M488.389,-448.324C499.65,-440.107 516.787,-427.602 530.209,-417.807"/>
<polygon fill="midnightblue" stroke="midnightblue" points="532.38,-420.556 538.394,-411.834 528.253,-414.901 532.38,-420.556"/>
</g>
<!-- Node3 -->
<g id="node3" class="node"><title>Node3</title>
<g id="a_node3"><a xlink:href="particle__data_8hpp.html" target="_top" xlink:title="For more information on particle_data, see particle_data.c. ">
<polygon fill="none" stroke="black" points="470,-224.5 470,-243.5 571,-243.5 571,-224.5 470,-224.5"/>
<text text-anchor="middle" x="520.5" y="-231.5" font-family="Helvetica,sans-Serif" font-size="10.00">particle_data.hpp</text>
</a>
</g>
</g>
<!-- Node2&#45;&gt;Node3 -->
<g id="edge2" class="edge"><title>Node2&#45;&gt;Node3</title>
<path fill="none" stroke="midnightblue" d="M401,-280.444C424.577,-271.478 461.822,-257.314 488.464,-247.183"/>
<polygon fill="midnightblue" stroke="midnightblue" points="490.002,-250.342 498.105,-243.516 487.514,-243.8 490.002,-250.342"/>
</g>
<!-- Node21 -->
<g id="node21" class="node"><title>Node21</title>
<g id="a_node21"><a xlink:href="random_8hpp.html" target="_top" xlink:title="A random generator. ">
<polygon fill="none" stroke="black" points="280,-224.5 280,-243.5 355,-243.5 355,-224.5 280,-224.5"/>
<text text-anchor="middle" x="317.5" y="-231.5" font-family="Helvetica,sans-Serif" font-size="10.00">random.hpp</text>
</a>
</g>
</g>
<!-- Node2&#45;&gt;Node21 -->
<g id="edge23" class="edge"><title>Node2&#45;&gt;Node21</title>
<path fill="none" stroke="midnightblue" d="M368.699,-280.324C359.682,-272.341 346.094,-260.313 335.182,-250.653"/>
<polygon fill="midnightblue" stroke="midnightblue" points="337.287,-247.842 327.479,-243.834 332.647,-253.083 337.287,-247.842"/>
</g>
<!-- Node22 -->
<g id="node22" class="node"><title>Node22</title>
<g id="a_node22"><a xlink:href="topology_8hpp.html" target="_top" xlink:title="This file contains functions for handling the system topology. ">
<polygon fill="none" stroke="black" points="373,-224.5 373,-243.5 452,-243.5 452,-224.5 373,-224.5"/>
<text text-anchor="middle" x="412.5" y="-231.5" font-family="Helvetica,sans-Serif" font-size="10.00">topology.hpp</text>
</a>
</g>
</g>
<!-- Node2&#45;&gt;Node22 -->
<g id="edge25" class="edge"><title>Node2&#45;&gt;Node22</title>
<path fill="none" stroke="midnightblue" d="M384.114,-280.083C388.867,-272.534 395.818,-261.495 401.652,-252.23"/>
<polygon fill="midnightblue" stroke="midnightblue" points="404.624,-254.078 406.99,-243.751 398.7,-250.349 404.624,-254.078"/>
</g>
<!-- Node23 -->
<g id="node23" class="node"><title>Node23</title>
<g id="a_node23"><a xlink:href="mpi_8h.html" target="_top" xlink:title="This is the MPIfake implementation. ">
<polygon fill="none" stroke="black" points="110.5,-224.5 110.5,-243.5 154.5,-243.5 154.5,-224.5 110.5,-224.5"/>
<text text-anchor="middle" x="132.5" y="-231.5" font-family="Helvetica,sans-Serif" font-size="10.00">mpi.h</text>
</a>
</g>
</g>
<!-- Node2&#45;&gt;Node23 -->
<g id="edge27" class="edge"><title>Node2&#45;&gt;Node23</title>
<path fill="none" stroke="midnightblue" d="M339.521,-280.444C291.13,-269.821 209.506,-251.904 164.566,-242.039"/>
<polygon fill="midnightblue" stroke="midnightblue" points="165.283,-238.613 154.766,-239.888 163.783,-245.45 165.283,-238.613"/>
</g>
<!-- Node27 -->
<g id="node27" class="node"><title>Node27</title>
<g id="a_node27"><a xlink:href="cuda__init_8hpp.html" target="_top" xlink:title="cuda_init.hpp">
<polygon fill="none" stroke="black" points="210.5,-168.5 210.5,-187.5 292.5,-187.5 292.5,-168.5 210.5,-168.5"/>
<text text-anchor="middle" x="251.5" y="-175.5" font-family="Helvetica,sans-Serif" font-size="10.00">cuda_init.hpp</text>
</a>
</g>
</g>
<!-- Node2&#45;&gt;Node27 -->
<g id="edge31" class="edge"><title>Node2&#45;&gt;Node27</title>
<path fill="none" stroke="midnightblue" d="M335.638,-280.492C313.373,-274 287.368,-262.841 270.5,-244 259.114,-231.282 254.532,-212.083 252.698,-197.845"/>
<polygon fill="midnightblue" stroke="midnightblue" points="256.165,-197.334 251.739,-187.708 249.197,-197.993 256.165,-197.334"/>
</g>
<!-- Node4 -->
<g id="node4" class="node"><title>Node4</title>
<g id="a_node4"><a xlink:href="utils_8hpp.html" target="_top" xlink:title="Small functions that are useful not only for one modul. ">
<polygon fill="none" stroke="black" points="527,-168.5 527,-187.5 586,-187.5 586,-168.5 527,-168.5"/>
<text text-anchor="middle" x="556.5" y="-175.5" font-family="Helvetica,sans-Serif" font-size="10.00">utils.hpp</text>
</a>
</g>
</g>
<!-- Node3&#45;&gt;Node4 -->
<g id="edge3" class="edge"><title>Node3&#45;&gt;Node4</title>
<path fill="none" stroke="midnightblue" d="M526.445,-224.083C531.477,-216.534 538.837,-205.495 545.013,-196.23"/>
<polygon fill="midnightblue" stroke="midnightblue" points="548.031,-198.013 550.666,-187.751 542.207,-194.13 548.031,-198.013"/>
</g>
<!-- Node5 -->
<g id="node5" class="node"><title>Node5</title>
<polygon fill="none" stroke="#bfbfbf" points="569,-112.5 569,-131.5 616,-131.5 616,-112.5 569,-112.5"/>
<text text-anchor="middle" x="592.5" y="-119.5" font-family="Helvetica,sans-Serif" font-size="10.00">cmath</text>
</g>
<!-- Node4&#45;&gt;Node5 -->
<g id="edge4" class="edge"><title>Node4&#45;&gt;Node5</title>
<path fill="none" stroke="midnightblue" d="M562.445,-168.083C567.477,-160.534 574.837,-149.495 581.013,-140.23"/>
<polygon fill="midnightblue" stroke="midnightblue" points="584.031,-142.013 586.666,-131.751 578.207,-138.13 584.031,-142.013"/>
</g>
<!-- Node6 -->
<g id="node6" class="node"><title>Node6</title>
<polygon fill="none" stroke="#bfbfbf" points="634.5,-112.5 634.5,-131.5 680.5,-131.5 680.5,-112.5 634.5,-112.5"/>
<text text-anchor="middle" x="657.5" y="-119.5" font-family="Helvetica,sans-Serif" font-size="10.00">cstdio</text>
</g>
<!-- Node4&#45;&gt;Node6 -->
<g id="edge5" class="edge"><title>Node4&#45;&gt;Node6</title>
<path fill="none" stroke="midnightblue" d="M572.727,-168.324C588.851,-159.703 613.8,-146.364 632.464,-136.386"/>
<polygon fill="midnightblue" stroke="midnightblue" points="634.144,-139.456 641.313,-131.655 630.844,-133.283 634.144,-139.456"/>
</g>
<!-- Node7 -->
<g id="node7" class="node"><title>Node7</title>
<polygon fill="none" stroke="#bfbfbf" points="699,-112.5 699,-131.5 748,-131.5 748,-112.5 699,-112.5"/>
<text text-anchor="middle" x="723.5" y="-119.5" font-family="Helvetica,sans-Serif" font-size="10.00">cstdlib</text>
</g>
<!-- Node4&#45;&gt;Node7 -->
<g id="edge6" class="edge"><title>Node4&#45;&gt;Node7</title>
<path fill="none" stroke="midnightblue" d="M582.962,-168.444C611.676,-159.159 657.629,-144.3 689.12,-134.117"/>
<polygon fill="midnightblue" stroke="midnightblue" points="690.357,-137.395 698.795,-130.988 688.204,-130.735 690.357,-137.395"/>
</g>
<!-- Node8 -->
<g id="node8" class="node"><title>Node8</title>
<polygon fill="none" stroke="#bfbfbf" points="293.5,-112.5 293.5,-131.5 343.5,-131.5 343.5,-112.5 293.5,-112.5"/>
<text text-anchor="middle" x="318.5" y="-119.5" font-family="Helvetica,sans-Serif" font-size="10.00">cstring</text>
</g>
<!-- Node4&#45;&gt;Node8 -->
<g id="edge7" class="edge"><title>Node4&#45;&gt;Node8</title>
<path fill="none" stroke="midnightblue" d="M526.822,-170.332C487.925,-161.582 417.584,-145.726 357.5,-132 356.243,-131.713 354.962,-131.42 353.669,-131.124"/>
<polygon fill="midnightblue" stroke="midnightblue" points="354.201,-127.655 343.671,-128.826 352.634,-134.477 354.201,-127.655"/>
</g>
<!-- Node9 -->
<g id="node9" class="node"><title>Node9</title>
<g id="a_node9"><a xlink:href="config_8hpp.html" target="_top" xlink:title="This file contains the defaults for Espresso. ">
<polygon fill="none" stroke="black" points="400,-56.5 400,-75.5 467,-75.5 467,-56.5 400,-56.5"/>
<text text-anchor="middle" x="433.5" y="-63.5" font-family="Helvetica,sans-Serif" font-size="10.00">config.hpp</text>
</a>
</g>
</g>
<!-- Node4&#45;&gt;Node9 -->
<g id="edge8" class="edge"><title>Node4&#45;&gt;Node9</title>
<path fill="none" stroke="midnightblue" d="M526.69,-173.253C483.524,-167.146 406.965,-153.522 390.5,-132 377.898,-115.528 395.803,-95.4781 412.2,-82.0406"/>
<polygon fill="midnightblue" stroke="midnightblue" points="414.683,-84.5462 420.468,-75.6703 410.411,-79.0013 414.683,-84.5462"/>
</g>
<!-- Node13 -->
<g id="node13" class="node"><title>Node13</title>
<g id="a_node13"><a xlink:href="debug_8hpp.html" target="_top" xlink:title="This file controls debug facilities. ">
<polygon fill="none" stroke="black" points="399.5,-112.5 399.5,-131.5 467.5,-131.5 467.5,-112.5 399.5,-112.5"/>
<text text-anchor="middle" x="433.5" y="-119.5" font-family="Helvetica,sans-Serif" font-size="10.00">debug.hpp</text>
</a>
</g>
</g>
<!-- Node4&#45;&gt;Node13 -->
<g id="edge12" class="edge"><title>Node4&#45;&gt;Node13</title>
<path fill="none" stroke="midnightblue" d="M537.01,-168.444C516.858,-159.596 485.177,-145.687 462.169,-135.586"/>
<polygon fill="midnightblue" stroke="midnightblue" points="463.462,-132.332 452.899,-131.516 460.648,-138.741 463.462,-132.332"/>
</g>
<!-- Node14 -->
<g id="node14" class="node"><title>Node14</title>
<g id="a_node14"><a xlink:href="lees__edwards_8hpp.html" target="_top" xlink:title="lees_edwards.hpp">
<polygon fill="none" stroke="black" points="766.5,-112.5 766.5,-131.5 870.5,-131.5 870.5,-112.5 766.5,-112.5"/>
<text text-anchor="middle" x="818.5" y="-119.5" font-family="Helvetica,sans-Serif" font-size="10.00">lees_edwards.hpp</text>
</a>
</g>
</g>
<!-- Node4&#45;&gt;Node14 -->
<g id="edge14" class="edge"><title>Node4&#45;&gt;Node14</title>
<path fill="none" stroke="midnightblue" d="M586.045,-170.91C629.923,-161.867 712.928,-144.759 766.956,-133.624"/>
<polygon fill="midnightblue" stroke="midnightblue" points="767.935,-136.995 777.023,-131.549 766.522,-130.14 767.935,-136.995"/>
</g>
<!-- Node15 -->
<g id="node15" class="node"><title>Node15</title>
<g id="a_node15"><a xlink:href="errorhandling_8hpp.html" target="_top" xlink:title="This file contains the errorhandling code for severe errors, like a broken bond or illegal parameter ...">
<polygon fill="none" stroke="black" points="889,-112.5 889,-131.5 992,-131.5 992,-112.5 889,-112.5"/>
<text text-anchor="middle" x="940.5" y="-119.5" font-family="Helvetica,sans-Serif" font-size="10.00">errorhandling.hpp</text>
</a>
</g>
</g>
<!-- Node4&#45;&gt;Node15 -->
<g id="edge16" class="edge"><title>Node4&#45;&gt;Node15</title>
<path fill="none" stroke="midnightblue" d="M586.347,-172.924C641.729,-165.342 764.406,-148.465 878.929,-132.072"/>
<polygon fill="midnightblue" stroke="midnightblue" points="879.517,-135.523 888.92,-130.64 878.524,-128.594 879.517,-135.523"/>
</g>
<!-- Node19 -->
<g id="node19" class="node"><title>Node19</title>
<polygon fill="none" stroke="#bfbfbf" points="228,-112.5 228,-131.5 275,-131.5 275,-112.5 228,-112.5"/>
<text text-anchor="middle" x="251.5" y="-119.5" font-family="Helvetica,sans-Serif" font-size="10.00">vector</text>
</g>
<!-- Node4&#45;&gt;Node19 -->
<g id="edge21" class="edge"><title>Node4&#45;&gt;Node19</title>
<path fill="none" stroke="midnightblue" d="M526.929,-173.119C478.487,-166.543 379.045,-152.135 285.165,-131.946"/>
<polygon fill="midnightblue" stroke="midnightblue" points="285.737,-128.489 275.221,-129.781 284.248,-135.329 285.737,-128.489"/>
</g>
<!-- Node20 -->
<g id="node20" class="node"><title>Node20</title>
<polygon fill="none" stroke="#bfbfbf" points="486,-112.5 486,-131.5 551,-131.5 551,-112.5 486,-112.5"/>
<text text-anchor="middle" x="518.5" y="-119.5" font-family="Helvetica,sans-Serif" font-size="10.00">exception</text>
</g>
<!-- Node4&#45;&gt;Node20 -->
<g id="edge22" class="edge"><title>Node4&#45;&gt;Node20</title>
<path fill="none" stroke="midnightblue" d="M550.225,-168.083C544.858,-160.455 536.982,-149.264 530.421,-139.941"/>
<polygon fill="midnightblue" stroke="midnightblue" points="533.275,-137.915 524.658,-131.751 527.551,-141.943 533.275,-137.915"/>
</g>
<!-- Node10 -->
<g id="node10" class="node"><title>Node10</title>
<g id="a_node10"><a xlink:href="acconfig_8hpp.html" target="_top" xlink:title="acconfig.hpp">
<polygon fill="none" stroke="black" points="283.5,-0.5 283.5,-19.5 361.5,-19.5 361.5,-0.5 283.5,-0.5"/>
<text text-anchor="middle" x="322.5" y="-7.5" font-family="Helvetica,sans-Serif" font-size="10.00">acconfig.hpp</text>
</a>
</g>
</g>
<!-- Node9&#45;&gt;Node10 -->
<g id="edge9" class="edge"><title>Node9&#45;&gt;Node10</title>
<path fill="none" stroke="midnightblue" d="M415.666,-56.324C397.784,-47.6247 370.025,-34.1202 349.454,-24.113"/>
<polygon fill="midnightblue" stroke="midnightblue" points="350.813,-20.8819 340.29,-19.6545 347.751,-27.1765 350.813,-20.8819"/>
</g>
<!-- Node11 -->
<g id="node11" class="node"><title>Node11</title>
<g id="a_node11"><a xlink:href="myconfig-final_8hpp.html" target="_top" xlink:title="myconfig&#45;final.hpp">
<polygon fill="none" stroke="black" points="380,-0.5 380,-19.5 487,-19.5 487,-0.5 380,-0.5"/>
<text text-anchor="middle" x="433.5" y="-7.5" font-family="Helvetica,sans-Serif" font-size="10.00">myconfig&#45;final.hpp</text>
</a>
</g>
</g>
<!-- Node9&#45;&gt;Node11 -->
<g id="edge10" class="edge"><title>Node9&#45;&gt;Node11</title>
<path fill="none" stroke="midnightblue" d="M433.5,-56.083C433.5,-49.0059 433.5,-38.8611 433.5,-29.9865"/>
<polygon fill="midnightblue" stroke="midnightblue" points="437,-29.751 433.5,-19.7511 430,-29.7511 437,-29.751"/>
</g>
<!-- Node12 -->
<g id="node12" class="node"><title>Node12</title>
<g id="a_node12"><a xlink:href="config-features_8hpp.html" target="_top" xlink:title="config&#45;features.hpp">
<polygon fill="none" stroke="black" points="505,-0.5 505,-19.5 616,-19.5 616,-0.5 505,-0.5"/>
<text text-anchor="middle" x="560.5" y="-7.5" font-family="Helvetica,sans-Serif" font-size="10.00">config&#45;features.hpp</text>
</a>
</g>
</g>
<!-- Node9&#45;&gt;Node12 -->
<g id="edge11" class="edge"><title>Node9&#45;&gt;Node12</title>
<path fill="none" stroke="midnightblue" d="M453.624,-56.4435C474.524,-47.5566 507.435,-33.5632 531.216,-23.4514"/>
<polygon fill="midnightblue" stroke="midnightblue" points="532.638,-26.6504 540.471,-19.5164 529.898,-20.2085 532.638,-26.6504"/>
</g>
<!-- Node13&#45;&gt;Node9 -->
<g id="edge13" class="edge"><title>Node13&#45;&gt;Node9</title>
<path fill="none" stroke="midnightblue" d="M433.5,-112.083C433.5,-105.006 433.5,-94.8611 433.5,-85.9865"/>
<polygon fill="midnightblue" stroke="midnightblue" points="437,-85.751 433.5,-75.7511 430,-85.7511 437,-85.751"/>
</g>
<!-- Node14&#45;&gt;Node9 -->
<g id="edge15" class="edge"><title>Node14&#45;&gt;Node9</title>
<path fill="none" stroke="midnightblue" d="M766.261,-113.263C763.297,-112.833 760.361,-112.41 757.5,-112 657.327,-97.654 539.629,-81.4769 477.337,-72.9684"/>
<polygon fill="midnightblue" stroke="midnightblue" points="477.478,-69.4553 467.096,-71.5706 476.531,-76.3909 477.478,-69.4553"/>
</g>
<!-- Node15&#45;&gt;Node9 -->
<g id="edge17" class="edge"><title>Node15&#45;&gt;Node9</title>
<path fill="none" stroke="midnightblue" d="M888.938,-113.223C885.746,-112.794 882.581,-112.382 879.5,-112 732.415,-93.739 557.337,-77.743 477.32,-70.7485"/>
<polygon fill="midnightblue" stroke="midnightblue" points="477.394,-67.2418 467.128,-69.8614 476.787,-74.2154 477.394,-67.2418"/>
</g>
<!-- Node16 -->
<g id="node16" class="node"><title>Node16</title>
<polygon fill="none" stroke="#bfbfbf" points="974.5,-56.5 974.5,-75.5 1018.5,-75.5 1018.5,-56.5 974.5,-56.5"/>
<text text-anchor="middle" x="996.5" y="-63.5" font-family="Helvetica,sans-Serif" font-size="10.00">string</text>
</g>
<!-- Node15&#45;&gt;Node16 -->
<g id="edge18" class="edge"><title>Node15&#45;&gt;Node16</title>
<path fill="none" stroke="midnightblue" d="M949.497,-112.324C957.694,-104.42 970.006,-92.5482 979.972,-82.9377"/>
<polygon fill="midnightblue" stroke="midnightblue" points="982.57,-85.2947 987.339,-75.8339 977.711,-80.2558 982.57,-85.2947"/>
</g>
<!-- Node17 -->
<g id="node17" class="node"><title>Node17</title>
<polygon fill="none" stroke="#bfbfbf" points="850.5,-56.5 850.5,-75.5 906.5,-75.5 906.5,-56.5 850.5,-56.5"/>
<text text-anchor="middle" x="878.5" y="-63.5" font-family="Helvetica,sans-Serif" font-size="10.00">sstream</text>
</g>
<!-- Node15&#45;&gt;Node17 -->
<g id="edge19" class="edge"><title>Node15&#45;&gt;Node17</title>
<path fill="none" stroke="midnightblue" d="M930.539,-112.324C921.373,-104.341 907.563,-92.3128 896.472,-82.6529"/>
<polygon fill="midnightblue" stroke="midnightblue" points="898.482,-79.7624 888.643,-75.8339 893.885,-85.041 898.482,-79.7624"/>
</g>
<!-- Node18 -->
<g id="node18" class="node"><title>Node18</title>
<polygon fill="none" stroke="#bfbfbf" points="924.5,-56.5 924.5,-75.5 956.5,-75.5 956.5,-56.5 924.5,-56.5"/>
<text text-anchor="middle" x="940.5" y="-63.5" font-family="Helvetica,sans-Serif" font-size="10.00">list</text>
</g>
<!-- Node15&#45;&gt;Node18 -->
<g id="edge20" class="edge"><title>Node15&#45;&gt;Node18</title>
<path fill="none" stroke="midnightblue" d="M940.5,-112.083C940.5,-105.006 940.5,-94.8611 940.5,-85.9865"/>
<polygon fill="midnightblue" stroke="midnightblue" points="944,-85.751 940.5,-75.7511 937,-85.7511 944,-85.751"/>
</g>
<!-- Node21&#45;&gt;Node4 -->
<g id="edge24" class="edge"><title>Node21&#45;&gt;Node4</title>
<path fill="none" stroke="midnightblue" d="M355.107,-224.503C399.133,-214.556 471.734,-198.152 516.689,-187.995"/>
<polygon fill="midnightblue" stroke="midnightblue" points="517.682,-191.359 526.664,-185.741 516.139,-184.531 517.682,-191.359"/>
</g>
<!-- Node22&#45;&gt;Node4 -->
<g id="edge26" class="edge"><title>Node22&#45;&gt;Node4</title>
<path fill="none" stroke="midnightblue" d="M435.317,-224.444C459.332,-215.438 497.329,-201.189 524.369,-191.049"/>
<polygon fill="midnightblue" stroke="midnightblue" points="525.655,-194.305 533.79,-187.516 523.197,-187.751 525.655,-194.305"/>
</g>
<!-- Node24 -->
<g id="node24" class="node"><title>Node24</title>
<polygon fill="none" stroke="#bfbfbf" points="71,-168.5 71,-187.5 124,-187.5 124,-168.5 71,-168.5"/>
<text text-anchor="middle" x="97.5" y="-175.5" font-family="Helvetica,sans-Serif" font-size="10.00">string.h</text>
</g>
<!-- Node23&#45;&gt;Node24 -->
<g id="edge28" class="edge"><title>Node23&#45;&gt;Node24</title>
<path fill="none" stroke="midnightblue" d="M126.72,-224.083C121.828,-216.534 114.673,-205.495 108.667,-196.23"/>
<polygon fill="midnightblue" stroke="midnightblue" points="111.548,-194.239 103.172,-187.751 105.674,-198.046 111.548,-194.239"/>
</g>
<!-- Node25 -->
<g id="node25" class="node"><title>Node25</title>
<polygon fill="none" stroke="#bfbfbf" points="142.5,-168.5 142.5,-187.5 192.5,-187.5 192.5,-168.5 142.5,-168.5"/>
<text text-anchor="middle" x="167.5" y="-175.5" font-family="Helvetica,sans-Serif" font-size="10.00">stdio.h</text>
</g>
<!-- Node23&#45;&gt;Node25 -->
<g id="edge29" class="edge"><title>Node23&#45;&gt;Node25</title>
<path fill="none" stroke="midnightblue" d="M138.28,-224.083C143.172,-216.534 150.327,-205.495 156.333,-196.23"/>
<polygon fill="midnightblue" stroke="midnightblue" points="159.326,-198.046 161.828,-187.751 153.452,-194.239 159.326,-198.046"/>
</g>
<!-- Node26 -->
<g id="node26" class="node"><title>Node26</title>
<polygon fill="none" stroke="#bfbfbf" points="0,-168.5 0,-187.5 53,-187.5 53,-168.5 0,-168.5"/>
<text text-anchor="middle" x="26.5" y="-175.5" font-family="Helvetica,sans-Serif" font-size="10.00">stdlib.h</text>
</g>
<!-- Node23&#45;&gt;Node26 -->
<g id="edge30" class="edge"><title>Node23&#45;&gt;Node26</title>
<path fill="none" stroke="midnightblue" d="M115.469,-224.324C98.4702,-215.664 72.1239,-202.242 52.5074,-192.249"/>
<polygon fill="midnightblue" stroke="midnightblue" points="53.9876,-189.075 43.4885,-187.655 50.8101,-195.312 53.9876,-189.075"/>
</g>
<!-- Node27&#45;&gt;Node9 -->
<g id="edge32" class="edge"><title>Node27&#45;&gt;Node9</title>
<path fill="none" stroke="midnightblue" d="M241.181,-168.328C226.783,-155.189 203.977,-129.878 218.5,-112 239.665,-85.9463 333.392,-74.4453 389.875,-69.8026"/>
<polygon fill="midnightblue" stroke="midnightblue" points="390.266,-73.2828 399.962,-69.0135 389.72,-66.3041 390.266,-73.2828"/>
</g>
<!-- Node27&#45;&gt;Node19 -->
<g id="edge33" class="edge"><title>Node27&#45;&gt;Node19</title>
<path fill="none" stroke="midnightblue" d="M251.5,-168.083C251.5,-161.006 251.5,-150.861 251.5,-141.986"/>
<polygon fill="midnightblue" stroke="midnightblue" points="255,-141.751 251.5,-131.751 248,-141.751 255,-141.751"/>
</g>
<!-- Node28&#45;&gt;Node3 -->
<g id="edge39" class="edge"><title>Node28&#45;&gt;Node3</title>
<path fill="none" stroke="midnightblue" d="M542.218,-392.471C527.019,-376.153 495.163,-338.681 483.5,-300 480.934,-291.49 480.502,-288.368 483.5,-280 487.441,-269.003 495.357,-258.769 502.86,-250.848"/>
<polygon fill="midnightblue" stroke="midnightblue" points="505.392,-253.266 510.062,-243.755 500.481,-248.278 505.392,-253.266"/>
</g>
<!-- Node28&#45;&gt;Node4 -->
<g id="edge35" class="edge"><title>Node28&#45;&gt;Node4</title>
<path fill="none" stroke="midnightblue" d="M558.903,-392.497C574.325,-376.221 606.65,-338.818 618.5,-300 630.768,-259.813 595.996,-217.008 573.672,-194.658"/>
<polygon fill="midnightblue" stroke="midnightblue" points="576.022,-192.062 566.392,-187.643 571.164,-197.102 576.022,-192.062"/>
</g>
<!-- Node29 -->
<g id="node29" class="node"><title>Node29</title>
<g id="a_node29"><a xlink:href="interaction__data_8hpp.html" target="_top" xlink:title="Various procedures concerning interactions between particles. ">
<polygon fill="none" stroke="black" points="492,-280.5 492,-299.5 609,-299.5 609,-280.5 492,-280.5"/>
<text text-anchor="middle" x="550.5" y="-287.5" font-family="Helvetica,sans-Serif" font-size="10.00">interaction_data.hpp</text>
</a>
</g>
</g>
<!-- Node28&#45;&gt;Node29 -->
<g id="edge36" class="edge"><title>Node28&#45;&gt;Node29</title>
<path fill="none" stroke="midnightblue" d="M550.5,-392.368C550.5,-374.617 550.5,-333.666 550.5,-309.597"/>
<polygon fill="midnightblue" stroke="midnightblue" points="554,-309.591 550.5,-299.591 547,-309.591 554,-309.591"/>
</g>
<!-- Node30 -->
<g id="node30" class="node"><title>Node30</title>
<g id="a_node30"><a xlink:href="grid_8hpp.html" target="_top" xlink:title="Domain decomposition for parallel computing. ">
<polygon fill="none" stroke="black" points="665.5,-336.5 665.5,-355.5 721.5,-355.5 721.5,-336.5 665.5,-336.5"/>
<text text-anchor="middle" x="693.5" y="-343.5" font-family="Helvetica,sans-Serif" font-size="10.00">grid.hpp</text>
</a>
</g>
</g>
<!-- Node28&#45;&gt;Node30 -->
<g id="edge40" class="edge"><title>Node28&#45;&gt;Node30</title>
<path fill="none" stroke="midnightblue" d="M573.159,-392.444C596.902,-383.478 634.409,-369.314 661.238,-359.183"/>
<polygon fill="midnightblue" stroke="midnightblue" points="662.829,-362.324 670.947,-355.516 660.356,-355.775 662.829,-362.324"/>
</g>
<!-- Node29&#45;&gt;Node3 -->
<g id="edge38" class="edge"><title>Node29&#45;&gt;Node3</title>
<path fill="none" stroke="midnightblue" d="M545.546,-280.083C541.396,-272.613 535.347,-261.724 530.233,-252.52"/>
<polygon fill="midnightblue" stroke="midnightblue" points="533.278,-250.793 525.362,-243.751 527.159,-254.192 533.278,-250.793"/>
</g>
<!-- Node29&#45;&gt;Node4 -->
<g id="edge37" class="edge"><title>Node29&#45;&gt;Node4</title>
<path fill="none" stroke="midnightblue" d="M558.714,-280.182C566.044,-271.663 576.255,-258.019 580.5,-244 585.493,-227.509 577.386,-209.124 569.274,-196.126"/>
<polygon fill="midnightblue" stroke="midnightblue" points="572.073,-194.018 563.554,-187.718 566.285,-197.955 572.073,-194.018"/>
</g>
<!-- Node30&#45;&gt;Node2 -->
<g id="edge43" class="edge"><title>Node30&#45;&gt;Node2</title>
<path fill="none" stroke="midnightblue" d="M665.269,-340.16C614.421,-331.444 506.426,-312.93 438.441,-301.276"/>
<polygon fill="midnightblue" stroke="midnightblue" points="438.748,-297.777 428.3,-299.537 437.565,-304.677 438.748,-297.777"/>
</g>
<!-- Node30&#45;&gt;Node4 -->
<g id="edge41" class="edge"><title>Node30&#45;&gt;Node4</title>
<path fill="none" stroke="midnightblue" d="M692.755,-336.23C690.477,-314.553 681.793,-257.765 651.5,-224 636.867,-207.69 615.062,-196.78 596.031,-189.793"/>
<polygon fill="midnightblue" stroke="midnightblue" points="596.98,-186.418 586.385,-186.489 594.712,-193.04 596.98,-186.418"/>
</g>
<!-- Node30&#45;&gt;Node15 -->
<g id="edge44" class="edge"><title>Node30&#45;&gt;Node15</title>
<path fill="none" stroke="midnightblue" d="M708.644,-336.352C723.047,-327.848 745.044,-314.123 762.5,-300 828.434,-246.655 896.988,-172.128 926.076,-139.451"/>
<polygon fill="midnightblue" stroke="midnightblue" points="928.894,-141.548 932.898,-131.739 923.651,-136.91 928.894,-141.548"/>
</g>
<!-- Node31 -->
<g id="node31" class="node"><title>Node31</title>
<polygon fill="none" stroke="#bfbfbf" points="703.5,-280.5 703.5,-299.5 753.5,-299.5 753.5,-280.5 703.5,-280.5"/>
<text text-anchor="middle" x="728.5" y="-287.5" font-family="Helvetica,sans-Serif" font-size="10.00">climits</text>
</g>
<!-- Node30&#45;&gt;Node31 -->
<g id="edge42" class="edge"><title>Node30&#45;&gt;Node31</title>
<path fill="none" stroke="midnightblue" d="M699.28,-336.083C704.172,-328.534 711.327,-317.495 717.333,-308.23"/>
<polygon fill="midnightblue" stroke="midnightblue" points="720.326,-310.046 722.828,-299.751 714.452,-306.239 720.326,-310.046"/>
</g>
</g>
</svg>
        <g id="navigator" transform="translate(0 0)" fill="#404254">
                <rect fill="#f2f5e9" fill-opacity="0.5" stroke="#606060" stroke-width=".5" x="0" y="0" width="60" height="60"/>
                <use id="zoomplus" xlink:href="#zoomPlus" x="17" y="9" onmousedown="handleZoom(evt,'in')"/>
                <use id="zoomminus" xlink:href="#zoomMin" x="42" y="9" onmousedown="handleZoom(evt,'out')"/>
                <use id="reset" xlink:href="#resetDef" x="30" y="36" onmousedown="handleReset()"/>
                <g id="arrowUp" xlink:href="#dirArrow" transform="translate(30 24)" onmousedown="handlePan(0,-1)">
                  <use xlink:href="#rim" fill="#404040">
                        <set attributeName="fill" to="#808080" begin="arrowUp.mouseover" end="arrowUp.mouseout"/>
                  </use>
                  <path fill="none" stroke="white" stroke-width="1.5" d="M0,-3.0v7 M-2.5,-0.5L0,-3.0L2.5,-0.5"/>
                </g>
                <g id="arrowRight" xlink:href="#dirArrow" transform="rotate(90) translate(36 -43)" onmousedown="handlePan(1,0)">
                  <use xlink:href="#rim" fill="#404040">
                        <set attributeName="fill" to="#808080" begin="arrowRight.mouseover" end="arrowRight.mouseout"/>
                  </use>
                  <path fill="none" stroke="white" stroke-width="1.5" d="M0,-3.0v7 M-2.5,-0.5L0,-3.0L2.5,-0.5"/>
                </g>
                <g id="arrowDown" xlink:href="#dirArrow" transform="rotate(180) translate(-30 -48)" onmousedown="handlePan(0,1)">
                  <use xlink:href="#rim" fill="#404040">
                        <set attributeName="fill" to="#808080" begin="arrowDown.mouseover" end="arrowDown.mouseout"/>
                  </use>
                  <path fill="none" stroke="white" stroke-width="1.5" d="M0,-3.0v7 M-2.5,-0.5L0,-3.0L2.5,-0.5"/>
                </g>
                <g id="arrowLeft" xlink:href="#dirArrow" transform="rotate(270) translate(-36 17)" onmousedown="handlePan(-1,0)">
                  <use xlink:href="#rim" fill="#404040">
                        <set attributeName="fill" to="#808080" begin="arrowLeft.mouseover" end="arrowLeft.mouseout"/>
                  </use>
                  <path fill="none" stroke="white" stroke-width="1.5" d="M0,-3.0v7 M-2.5,-0.5L0,-3.0L2.5,-0.5"/>
                </g>
        </g>
        <svg viewBox="0 0 15 15" width="100%" height="30px" preserveAspectRatio="xMaxYMin meet">
         <g id="arrow_out" transform="scale(0.3 0.3)">
          <a xlink:href="bending__force_8cpp__incl_org.svg" target="_base">
           <rect id="button" ry="5" rx="5" y="6" x="6" height="38" width="38"
                fill="#f2f5e9" fill-opacity="0.5" stroke="#606060" stroke-width="1.0"/>
           <path id="arrow"
             d="M 11.500037,31.436501 C 11.940474,20.09759 22.043105,11.32322 32.158766,21.979434 L 37.068811,17.246167 C 37.068811,17.246167 37.088388,32 37.088388,32 L 22.160133,31.978069 C 22.160133,31.978069 26.997745,27.140456 26.997745,27.140456 C 18.528582,18.264221 13.291696,25.230495 11.500037,31.436501 z"
             style="fill:#404040;"/>
          </a>
         </g>
        </svg>
</svg>
