<?xml version="1.0" encoding="UTF-8" standalone="no"?>
<!DOCTYPE svg PUBLIC "-//W3C//DTD SVG 1.1//EN"
 "http://www.w3.org/Graphics/SVG/1.1/DTD/svg11.dtd">
<!-- Generated by graphviz version 2.38.0 (20140413.2041)
 -->
<!-- Title: blockfile_tcl.cpp Pages: 1 -->
<svg width="969pt" height="364pt"
 viewBox="0.00 0.00 969.00 364.00" xmlns="http://www.w3.org/2000/svg" xmlns:xlink="http://www.w3.org/1999/xlink">
<g id="graph0" class="graph" transform="scale(1 1) rotate(0) translate(4 360)">
<title>blockfile_tcl.cpp</title>
<!-- Node1 -->
<g id="node1" class="node"><title>Node1</title>
<polygon fill="#bfbfbf" stroke="black" points="97.5,-336.5 97.5,-355.5 192.5,-355.5 192.5,-336.5 97.5,-336.5"/>
<text text-anchor="middle" x="145" y="-343.5" font-family="Helvetica,sans-Serif" font-size="10.00">blockfile_tcl.cpp</text>
</g>
<!-- Node2 -->
<g id="node2" class="node"><title>Node2</title>
<polygon fill="none" stroke="#bfbfbf" points="0,-112.5 0,-131.5 46,-131.5 46,-112.5 0,-112.5"/>
<text text-anchor="middle" x="23" y="-119.5" font-family="Helvetica,sans-Serif" font-size="10.00">cstdio</text>
</g>
<!-- Node1&#45;&gt;Node2 -->
<g id="edge1" class="edge"><title>Node1&#45;&gt;Node2</title>
<path fill="none" stroke="midnightblue" d="M97.3996,-337.47C74.7734,-331.314 49.5492,-320.162 35,-300 0.36002,-251.997 10.9699,-176.304 18.4099,-141.557"/>
<polygon fill="midnightblue" stroke="midnightblue" points="21.8231,-142.331 20.6527,-131.801 15.0011,-140.763 21.8231,-142.331"/>
</g>
<!-- Node3 -->
<g id="node3" class="node"><title>Node3</title>
<polygon fill="none" stroke="#bfbfbf" points="44.5,-280.5 44.5,-299.5 97.5,-299.5 97.5,-280.5 44.5,-280.5"/>
<text text-anchor="middle" x="71" y="-287.5" font-family="Helvetica,sans-Serif" font-size="10.00">ctype.h</text>
</g>
<!-- Node1&#45;&gt;Node3 -->
<g id="edge2" class="edge"><title>Node1&#45;&gt;Node3</title>
<path fill="none" stroke="midnightblue" d="M133.111,-336.324C121.85,-328.107 104.713,-315.602 91.2909,-305.807"/>
<polygon fill="midnightblue" stroke="midnightblue" points="93.2468,-302.901 83.1057,-299.834 89.1205,-308.556 93.2468,-302.901"/>
</g>
<!-- Node4 -->
<g id="node4" class="node"><title>Node4</title>
<polygon fill="none" stroke="#bfbfbf" points="135.5,-112.5 135.5,-131.5 184.5,-131.5 184.5,-112.5 135.5,-112.5"/>
<text text-anchor="middle" x="160" y="-119.5" font-family="Helvetica,sans-Serif" font-size="10.00">cstdlib</text>
</g>
<!-- Node1&#45;&gt;Node4 -->
<g id="edge3" class="edge"><title>Node1&#45;&gt;Node4</title>
<path fill="none" stroke="midnightblue" d="M145.588,-336.297C147.795,-303.633 155.617,-187.866 158.719,-141.957"/>
<polygon fill="midnightblue" stroke="midnightblue" points="162.218,-142.097 159.4,-131.884 155.233,-141.625 162.218,-142.097"/>
</g>
<!-- Node5 -->
<g id="node5" class="node"><title>Node5</title>
<polygon fill="none" stroke="#bfbfbf" points="67,-112.5 67,-131.5 117,-131.5 117,-112.5 67,-112.5"/>
<text text-anchor="middle" x="92" y="-119.5" font-family="Helvetica,sans-Serif" font-size="10.00">cstring</text>
</g>
<!-- Node1&#45;&gt;Node5 -->
<g id="edge4" class="edge"><title>Node1&#45;&gt;Node5</title>
<path fill="none" stroke="midnightblue" d="M142.922,-336.297C135.107,-303.563 107.369,-187.375 96.4564,-141.666"/>
<polygon fill="midnightblue" stroke="midnightblue" points="99.8474,-140.798 94.1209,-131.884 93.0388,-142.423 99.8474,-140.798"/>
</g>
<!-- Node6 -->
<g id="node6" class="node"><title>Node6</title>
<g id="a_node6"><a xlink:href="parser_8hpp.html" target="_top" xlink:title="This file contains macros for parsing the parameters to the &#39;inter&#39; command. ">
<polygon fill="none" stroke="black" points="203,-224.5 203,-243.5 271,-243.5 271,-224.5 203,-224.5"/>
<text text-anchor="middle" x="237" y="-231.5" font-family="Helvetica,sans-Serif" font-size="10.00">parser.hpp</text>
</a>
</g>
</g>
<!-- Node1&#45;&gt;Node6 -->
<g id="edge5" class="edge"><title>Node1&#45;&gt;Node6</title>
<path fill="none" stroke="midnightblue" d="M152.219,-336.368C167.536,-318.055 203.505,-275.049 223.315,-251.362"/>
<polygon fill="midnightblue" stroke="midnightblue" points="226.084,-253.508 229.814,-243.591 220.714,-249.017 226.084,-253.508"/>
</g>
<!-- Node22 -->
<g id="node22" class="node"><title>Node22</title>
<g id="a_node22"><a xlink:href="communication_8hpp.html" target="_top" xlink:title="This file contains the asynchronous MPI communication. ">
<polygon fill="none" stroke="black" points="442.5,-280.5 442.5,-299.5 555.5,-299.5 555.5,-280.5 442.5,-280.5"/>
<text text-anchor="middle" x="499" y="-287.5" font-family="Helvetica,sans-Serif" font-size="10.00">communication.hpp</text>
</a>
</g>
</g>
<!-- Node1&#45;&gt;Node22 -->
<g id="edge28" class="edge"><title>Node1&#45;&gt;Node22</title>
<path fill="none" stroke="midnightblue" d="M192.742,-337.717C254.71,-328.265 363.154,-311.722 432.977,-301.071"/>
<polygon fill="midnightblue" stroke="midnightblue" points="433.631,-304.512 442.989,-299.544 432.575,-297.592 433.631,-304.512"/>
</g>
<!-- Node6&#45;&gt;Node5 -->
<g id="edge26" class="edge"><title>Node6&#45;&gt;Node5</title>
<path fill="none" stroke="midnightblue" d="M225.622,-224.368C200.952,-205.653 142.29,-161.151 111.552,-137.832"/>
<polygon fill="midnightblue" stroke="midnightblue" points="113.407,-134.847 103.325,-131.591 109.177,-140.424 113.407,-134.847"/>
</g>
<!-- Node7 -->
<g id="node7" class="node"><title>Node7</title>
<g id="a_node7"><a xlink:href="utils_8hpp.html" target="_top" xlink:title="Small functions that are useful not only for one modul. ">
<polygon fill="none" stroke="black" points="372.5,-168.5 372.5,-187.5 431.5,-187.5 431.5,-168.5 372.5,-168.5"/>
<text text-anchor="middle" x="402" y="-175.5" font-family="Helvetica,sans-Serif" font-size="10.00">utils.hpp</text>
</a>
</g>
</g>
<!-- Node6&#45;&gt;Node7 -->
<g id="edge6" class="edge"><title>Node6&#45;&gt;Node7</title>
<path fill="none" stroke="midnightblue" d="M263.145,-224.444C291.023,-215.32 335.348,-200.813 366.4,-190.651"/>
<polygon fill="midnightblue" stroke="midnightblue" points="367.562,-193.953 375.978,-187.516 365.385,-187.3 367.562,-193.953"/>
</g>
<!-- Node21 -->
<g id="node21" class="node"><title>Node21</title>
<polygon fill="none" stroke="#bfbfbf" points="230,-168.5 230,-187.5 268,-187.5 268,-168.5 230,-168.5"/>
<text text-anchor="middle" x="249" y="-175.5" font-family="Helvetica,sans-Serif" font-size="10.00">tcl.h</text>
</g>
<!-- Node6&#45;&gt;Node21 -->
<g id="edge27" class="edge"><title>Node6&#45;&gt;Node21</title>
<path fill="none" stroke="midnightblue" d="M238.982,-224.083C240.572,-216.927 242.859,-206.635 244.846,-197.691"/>
<polygon fill="midnightblue" stroke="midnightblue" points="248.303,-198.272 247.055,-187.751 241.469,-196.754 248.303,-198.272"/>
</g>
<!-- Node7&#45;&gt;Node2 -->
<g id="edge8" class="edge"><title>Node7&#45;&gt;Node2</title>
<path fill="none" stroke="midnightblue" d="M372.356,-174.348C312.55,-168.729 173.317,-154.283 58,-132 57.4032,-131.885 56.8015,-131.765 56.1961,-131.642"/>
<polygon fill="midnightblue" stroke="midnightblue" points="56.7806,-128.186 46.2556,-129.401 55.2408,-135.015 56.7806,-128.186"/>
</g>
<!-- Node7&#45;&gt;Node4 -->
<g id="edge9" class="edge"><title>Node7&#45;&gt;Node4</title>
<path fill="none" stroke="midnightblue" d="M372.465,-171.166C333.78,-163.411 263.622,-148.957 194.947,-132.386"/>
<polygon fill="midnightblue" stroke="midnightblue" points="195.373,-128.888 184.829,-129.926 193.719,-135.69 195.373,-128.888"/>
</g>
<!-- Node7&#45;&gt;Node5 -->
<g id="edge10" class="edge"><title>Node7&#45;&gt;Node5</title>
<path fill="none" stroke="midnightblue" d="M372.414,-173.138C323.434,-166.538 222.253,-152.03 127.246,-132.095"/>
<polygon fill="midnightblue" stroke="midnightblue" points="127.694,-128.612 117.185,-129.958 126.24,-135.46 127.694,-128.612"/>
</g>
<!-- Node8 -->
<g id="node8" class="node"><title>Node8</title>
<polygon fill="none" stroke="#bfbfbf" points="615.5,-112.5 615.5,-131.5 662.5,-131.5 662.5,-112.5 615.5,-112.5"/>
<text text-anchor="middle" x="639" y="-119.5" font-family="Helvetica,sans-Serif" font-size="10.00">cmath</text>
</g>
<!-- Node7&#45;&gt;Node8 -->
<g id="edge7" class="edge"><title>Node7&#45;&gt;Node8</title>
<path fill="none" stroke="midnightblue" d="M431.837,-170.898C469.807,-163.028 537.632,-148.623 605.269,-132.084"/>
<polygon fill="midnightblue" stroke="midnightblue" points="606.37,-135.418 615.243,-129.629 604.697,-128.621 606.37,-135.418"/>
</g>
<!-- Node9 -->
<g id="node9" class="node"><title>Node9</title>
<g id="a_node9"><a xlink:href="config_8hpp.html" target="_top" xlink:title="This file contains the defaults for Espresso. ">
<polygon fill="none" stroke="black" points="428.5,-56.5 428.5,-75.5 495.5,-75.5 495.5,-56.5 428.5,-56.5"/>
<text text-anchor="middle" x="462" y="-63.5" font-family="Helvetica,sans-Serif" font-size="10.00">config.hpp</text>
</a>
</g>
</g>
<!-- Node7&#45;&gt;Node9 -->
<g id="edge11" class="edge"><title>Node7&#45;&gt;Node9</title>
<path fill="none" stroke="midnightblue" d="M431.541,-176.649C494.897,-175.204 640.558,-167.958 671,-132 717.665,-76.8797 579.84,-67.7771 505.743,-66.7449"/>
<polygon fill="midnightblue" stroke="midnightblue" points="505.77,-63.2451 495.737,-66.6488 505.703,-70.2447 505.77,-63.2451"/>
</g>
<!-- Node13 -->
<g id="node13" class="node"><title>Node13</title>
<g id="a_node13"><a xlink:href="debug_8hpp.html" target="_top" xlink:title="This file controls debug facilities. ">
<polygon fill="none" stroke="black" points="324,-112.5 324,-131.5 392,-131.5 392,-112.5 324,-112.5"/>
<text text-anchor="middle" x="358" y="-119.5" font-family="Helvetica,sans-Serif" font-size="10.00">debug.hpp</text>
</a>
</g>
</g>
<!-- Node7&#45;&gt;Node13 -->
<g id="edge15" class="edge"><title>Node7&#45;&gt;Node13</title>
<path fill="none" stroke="midnightblue" d="M394.734,-168.083C388.455,-160.377 379.212,-149.033 371.569,-139.653"/>
<polygon fill="midnightblue" stroke="midnightblue" points="374.161,-137.293 365.131,-131.751 368.734,-141.714 374.161,-137.293"/>
</g>
<!-- Node14 -->
<g id="node14" class="node"><title>Node14</title>
<g id="a_node14"><a xlink:href="lees__edwards_8hpp.html" target="_top" xlink:title="lees_edwards.hpp">
<polygon fill="none" stroke="black" points="410,-112.5 410,-131.5 514,-131.5 514,-112.5 410,-112.5"/>
<text text-anchor="middle" x="462" y="-119.5" font-family="Helvetica,sans-Serif" font-size="10.00">lees_edwards.hpp</text>
</a>
</g>
</g>
<!-- Node7&#45;&gt;Node14 -->
<g id="edge17" class="edge"><title>Node7&#45;&gt;Node14</title>
<path fill="none" stroke="midnightblue" d="M411.64,-168.324C420.51,-160.341 433.875,-148.313 444.608,-138.653"/>
<polygon fill="midnightblue" stroke="midnightblue" points="447.093,-141.125 452.185,-131.834 442.41,-135.922 447.093,-141.125"/>
</g>
<!-- Node15 -->
<g id="node15" class="node"><title>Node15</title>
<g id="a_node15"><a xlink:href="errorhandling_8hpp.html" target="_top" xlink:title="This file contains the errorhandling code for severe errors, like a broken bond or illegal parameter ...">
<polygon fill="none" stroke="black" points="202.5,-112.5 202.5,-131.5 305.5,-131.5 305.5,-112.5 202.5,-112.5"/>
<text text-anchor="middle" x="254" y="-119.5" font-family="Helvetica,sans-Serif" font-size="10.00">errorhandling.hpp</text>
</a>
</g>
</g>
<!-- Node7&#45;&gt;Node15 -->
<g id="edge19" class="edge"><title>Node7&#45;&gt;Node15</title>
<path fill="none" stroke="midnightblue" d="M378.549,-168.444C353.867,-159.438 314.815,-145.189 287.023,-135.049"/>
<polygon fill="midnightblue" stroke="midnightblue" points="287.935,-131.656 277.341,-131.516 285.536,-138.232 287.935,-131.656"/>
</g>
<!-- Node19 -->
<g id="node19" class="node"><title>Node19</title>
<polygon fill="none" stroke="#bfbfbf" points="719.5,-112.5 719.5,-131.5 766.5,-131.5 766.5,-112.5 719.5,-112.5"/>
<text text-anchor="middle" x="743" y="-119.5" font-family="Helvetica,sans-Serif" font-size="10.00">vector</text>
</g>
<!-- Node7&#45;&gt;Node19 -->
<g id="edge24" class="edge"><title>Node7&#45;&gt;Node19</title>
<path fill="none" stroke="midnightblue" d="M431.818,-173.427C486.306,-166.709 605.513,-151.133 705,-132 706.456,-131.72 707.941,-131.422 709.439,-131.111"/>
<polygon fill="midnightblue" stroke="midnightblue" points="710.337,-134.498 719.35,-128.93 708.832,-127.661 710.337,-134.498"/>
</g>
<!-- Node20 -->
<g id="node20" class="node"><title>Node20</title>
<polygon fill="none" stroke="#bfbfbf" points="532.5,-112.5 532.5,-131.5 597.5,-131.5 597.5,-112.5 532.5,-112.5"/>
<text text-anchor="middle" x="565" y="-119.5" font-family="Helvetica,sans-Serif" font-size="10.00">exception</text>
</g>
<!-- Node7&#45;&gt;Node20 -->
<g id="edge25" class="edge"><title>Node7&#45;&gt;Node20</title>
<path fill="none" stroke="midnightblue" d="M427.828,-168.444C455.249,-159.359 498.777,-144.939 529.432,-134.783"/>
<polygon fill="midnightblue" stroke="midnightblue" points="530.901,-137.984 539.293,-131.516 528.7,-131.339 530.901,-137.984"/>
</g>
<!-- Node10 -->
<g id="node10" class="node"><title>Node10</title>
<g id="a_node10"><a xlink:href="acconfig_8hpp.html" target="_top" xlink:title="acconfig.hpp">
<polygon fill="none" stroke="black" points="312,-0.5 312,-19.5 390,-19.5 390,-0.5 312,-0.5"/>
<text text-anchor="middle" x="351" y="-7.5" font-family="Helvetica,sans-Serif" font-size="10.00">acconfig.hpp</text>
</a>
</g>
</g>
<!-- Node9&#45;&gt;Node10 -->
<g id="edge12" class="edge"><title>Node9&#45;&gt;Node10</title>
<path fill="none" stroke="midnightblue" d="M444.166,-56.324C426.284,-47.6247 398.525,-34.1202 377.954,-24.113"/>
<polygon fill="midnightblue" stroke="midnightblue" points="379.313,-20.8819 368.79,-19.6545 376.251,-27.1765 379.313,-20.8819"/>
</g>
<!-- Node11 -->
<g id="node11" class="node"><title>Node11</title>
<g id="a_node11"><a xlink:href="myconfig-final_8hpp.html" target="_top" xlink:title="myconfig&#45;final.hpp">
<polygon fill="none" stroke="black" points="408.5,-0.5 408.5,-19.5 515.5,-19.5 515.5,-0.5 408.5,-0.5"/>
<text text-anchor="middle" x="462" y="-7.5" font-family="Helvetica,sans-Serif" font-size="10.00">myconfig&#45;final.hpp</text>
</a>
</g>
</g>
<!-- Node9&#45;&gt;Node11 -->
<g id="edge13" class="edge"><title>Node9&#45;&gt;Node11</title>
<path fill="none" stroke="midnightblue" d="M462,-56.083C462,-49.0059 462,-38.8611 462,-29.9865"/>
<polygon fill="midnightblue" stroke="midnightblue" points="465.5,-29.751 462,-19.7511 458.5,-29.7511 465.5,-29.751"/>
</g>
<!-- Node12 -->
<g id="node12" class="node"><title>Node12</title>
<g id="a_node12"><a xlink:href="config-features_8hpp.html" target="_top" xlink:title="config&#45;features.hpp">
<polygon fill="none" stroke="black" points="533.5,-0.5 533.5,-19.5 644.5,-19.5 644.5,-0.5 533.5,-0.5"/>
<text text-anchor="middle" x="589" y="-7.5" font-family="Helvetica,sans-Serif" font-size="10.00">config&#45;features.hpp</text>
</a>
</g>
</g>
<!-- Node9&#45;&gt;Node12 -->
<g id="edge14" class="edge"><title>Node9&#45;&gt;Node12</title>
<path fill="none" stroke="midnightblue" d="M482.124,-56.4435C503.024,-47.5566 535.935,-33.5632 559.716,-23.4514"/>
<polygon fill="midnightblue" stroke="midnightblue" points="561.138,-26.6504 568.971,-19.5164 558.398,-20.2085 561.138,-26.6504"/>
</g>
<!-- Node13&#45;&gt;Node9 -->
<g id="edge16" class="edge"><title>Node13&#45;&gt;Node9</title>
<path fill="none" stroke="midnightblue" d="M374.709,-112.324C391.312,-103.703 417.002,-90.3643 436.22,-80.3855"/>
<polygon fill="midnightblue" stroke="midnightblue" points="438.07,-83.3689 445.332,-75.6545 434.844,-77.1565 438.07,-83.3689"/>
</g>
<!-- Node14&#45;&gt;Node9 -->
<g id="edge18" class="edge"><title>Node14&#45;&gt;Node9</title>
<path fill="none" stroke="midnightblue" d="M462,-112.083C462,-105.006 462,-94.8611 462,-85.9865"/>
<polygon fill="midnightblue" stroke="midnightblue" points="465.5,-85.751 462,-75.7511 458.5,-85.7511 465.5,-85.751"/>
</g>
<!-- Node15&#45;&gt;Node9 -->
<g id="edge20" class="edge"><title>Node15&#45;&gt;Node9</title>
<path fill="none" stroke="midnightblue" d="M286.958,-112.444C322.787,-103.142 380.163,-88.246 419.391,-78.062"/>
<polygon fill="midnightblue" stroke="midnightblue" points="420.396,-81.4171 429.196,-75.5164 418.637,-74.6417 420.396,-81.4171"/>
</g>
<!-- Node16 -->
<g id="node16" class="node"><title>Node16</title>
<polygon fill="none" stroke="#bfbfbf" points="288,-56.5 288,-75.5 332,-75.5 332,-56.5 288,-56.5"/>
<text text-anchor="middle" x="310" y="-63.5" font-family="Helvetica,sans-Serif" font-size="10.00">string</text>
</g>
<!-- Node15&#45;&gt;Node16 -->
<g id="edge21" class="edge"><title>Node15&#45;&gt;Node16</title>
<path fill="none" stroke="midnightblue" d="M262.997,-112.324C271.194,-104.42 283.506,-92.5482 293.472,-82.9377"/>
<polygon fill="midnightblue" stroke="midnightblue" points="296.07,-85.2947 300.839,-75.8339 291.211,-80.2558 296.07,-85.2947"/>
</g>
<!-- Node17 -->
<g id="node17" class="node"><title>Node17</title>
<polygon fill="none" stroke="#bfbfbf" points="164,-56.5 164,-75.5 220,-75.5 220,-56.5 164,-56.5"/>
<text text-anchor="middle" x="192" y="-63.5" font-family="Helvetica,sans-Serif" font-size="10.00">sstream</text>
</g>
<!-- Node15&#45;&gt;Node17 -->
<g id="edge22" class="edge"><title>Node15&#45;&gt;Node17</title>
<path fill="none" stroke="midnightblue" d="M244.039,-112.324C234.873,-104.341 221.063,-92.3128 209.972,-82.6529"/>
<polygon fill="midnightblue" stroke="midnightblue" points="211.982,-79.7624 202.143,-75.8339 207.385,-85.041 211.982,-79.7624"/>
</g>
<!-- Node18 -->
<g id="node18" class="node"><title>Node18</title>
<polygon fill="none" stroke="#bfbfbf" points="238,-56.5 238,-75.5 270,-75.5 270,-56.5 238,-56.5"/>
<text text-anchor="middle" x="254" y="-63.5" font-family="Helvetica,sans-Serif" font-size="10.00">list</text>
</g>
<!-- Node15&#45;&gt;Node18 -->
<g id="edge23" class="edge"><title>Node15&#45;&gt;Node18</title>
<path fill="none" stroke="midnightblue" d="M254,-112.083C254,-105.006 254,-94.8611 254,-85.9865"/>
<polygon fill="midnightblue" stroke="midnightblue" points="257.5,-85.751 254,-75.7511 250.5,-85.7511 257.5,-85.751"/>
</g>
<!-- Node23 -->
<g id="node23" class="node"><title>Node23</title>
<g id="a_node23"><a xlink:href="particle__data_8hpp.html" target="_top" xlink:title="For more information on particle_data, see particle_data.c. ">
<polygon fill="none" stroke="black" points="395.5,-224.5 395.5,-243.5 496.5,-243.5 496.5,-224.5 395.5,-224.5"/>
<text text-anchor="middle" x="446" y="-231.5" font-family="Helvetica,sans-Serif" font-size="10.00">particle_data.hpp</text>
</a>
</g>
</g>
<!-- Node22&#45;&gt;Node23 -->
<g id="edge29" class="edge"><title>Node22&#45;&gt;Node23</title>
<path fill="none" stroke="midnightblue" d="M490.248,-280.083C482.53,-272.22 471.095,-260.569 461.783,-251.081"/>
<polygon fill="midnightblue" stroke="midnightblue" points="464.092,-248.436 454.589,-243.751 459.096,-253.34 464.092,-248.436"/>
</g>
<!-- Node24 -->
<g id="node24" class="node"><title>Node24</title>
<g id="a_node24"><a xlink:href="random_8hpp.html" target="_top" xlink:title="A random generator. ">
<polygon fill="none" stroke="black" points="514.5,-224.5 514.5,-243.5 589.5,-243.5 589.5,-224.5 514.5,-224.5"/>
<text text-anchor="middle" x="552" y="-231.5" font-family="Helvetica,sans-Serif" font-size="10.00">random.hpp</text>
</a>
</g>
</g>
<!-- Node22&#45;&gt;Node24 -->
<g id="edge31" class="edge"><title>Node22&#45;&gt;Node24</title>
<path fill="none" stroke="midnightblue" d="M507.752,-280.083C515.47,-272.22 526.905,-260.569 536.217,-251.081"/>
<polygon fill="midnightblue" stroke="midnightblue" points="538.904,-253.34 543.411,-243.751 533.908,-248.436 538.904,-253.34"/>
</g>
<!-- Node25 -->
<g id="node25" class="node"><title>Node25</title>
<g id="a_node25"><a xlink:href="topology_8hpp.html" target="_top" xlink:title="This file contains functions for handling the system topology. ">
<polygon fill="none" stroke="black" points="298.5,-224.5 298.5,-243.5 377.5,-243.5 377.5,-224.5 298.5,-224.5"/>
<text text-anchor="middle" x="338" y="-231.5" font-family="Helvetica,sans-Serif" font-size="10.00">topology.hpp</text>
</a>
</g>
</g>
<!-- Node22&#45;&gt;Node25 -->
<g id="edge33" class="edge"><title>Node22&#45;&gt;Node25</title>
<path fill="none" stroke="midnightblue" d="M473.489,-280.444C446.404,-271.359 403.41,-256.939 373.131,-246.783"/>
<polygon fill="midnightblue" stroke="midnightblue" points="373.986,-243.378 363.392,-243.516 371.76,-250.015 373.986,-243.378"/>
</g>
<!-- Node26 -->
<g id="node26" class="node"><title>Node26</title>
<g id="a_node26"><a xlink:href="mpi_8h.html" target="_top" xlink:title="This is the MPIfake implementation. ">
<polygon fill="none" stroke="black" points="808,-224.5 808,-243.5 852,-243.5 852,-224.5 808,-224.5"/>
<text text-anchor="middle" x="830" y="-231.5" font-family="Helvetica,sans-Serif" font-size="10.00">mpi.h</text>
</a>
</g>
</g>
<!-- Node22&#45;&gt;Node26 -->
<g id="edge35" class="edge"><title>Node22&#45;&gt;Node26</title>
<path fill="none" stroke="midnightblue" d="M551.448,-280.444C620.778,-269.133 740.811,-249.55 797.964,-240.226"/>
<polygon fill="midnightblue" stroke="midnightblue" points="798.571,-243.674 807.877,-238.609 797.444,-236.765 798.571,-243.674"/>
</g>
<!-- Node30 -->
<g id="node30" class="node"><title>Node30</title>
<g id="a_node30"><a xlink:href="cuda__init_8hpp.html" target="_top" xlink:title="cuda_init.hpp">
<polygon fill="none" stroke="black" points="668,-168.5 668,-187.5 750,-187.5 750,-168.5 668,-168.5"/>
<text text-anchor="middle" x="709" y="-175.5" font-family="Helvetica,sans-Serif" font-size="10.00">cuda_init.hpp</text>
</a>
</g>
</g>
<!-- Node22&#45;&gt;Node30 -->
<g id="edge39" class="edge"><title>Node22&#45;&gt;Node30</title>
<path fill="none" stroke="midnightblue" d="M519.39,-280.464C539.613,-271.827 571.348,-257.814 598,-244 629.401,-227.725 664.432,-206.709 686.584,-193.048"/>
<polygon fill="midnightblue" stroke="midnightblue" points="688.588,-195.924 695.241,-187.679 684.898,-189.975 688.588,-195.924"/>
</g>
<!-- Node23&#45;&gt;Node7 -->
<g id="edge30" class="edge"><title>Node23&#45;&gt;Node7</title>
<path fill="none" stroke="midnightblue" d="M438.734,-224.083C432.455,-216.377 423.212,-205.033 415.569,-195.653"/>
<polygon fill="midnightblue" stroke="midnightblue" points="418.161,-193.293 409.131,-187.751 412.734,-197.714 418.161,-193.293"/>
</g>
<!-- Node24&#45;&gt;Node7 -->
<g id="edge32" class="edge"><title>Node24&#45;&gt;Node7</title>
<path fill="none" stroke="midnightblue" d="M528.232,-224.444C503.107,-215.399 463.289,-201.064 435.1,-190.916"/>
<polygon fill="midnightblue" stroke="midnightblue" points="436.251,-187.611 425.657,-187.516 433.88,-194.197 436.251,-187.611"/>
</g>
<!-- Node25&#45;&gt;Node7 -->
<g id="edge34" class="edge"><title>Node25&#45;&gt;Node7</title>
<path fill="none" stroke="midnightblue" d="M348.283,-224.324C357.836,-216.263 372.28,-204.077 383.784,-194.369"/>
<polygon fill="midnightblue" stroke="midnightblue" points="386.144,-196.958 391.53,-187.834 381.63,-191.608 386.144,-196.958"/>
</g>
<!-- Node27 -->
<g id="node27" class="node"><title>Node27</title>
<polygon fill="none" stroke="#bfbfbf" points="839.5,-168.5 839.5,-187.5 892.5,-187.5 892.5,-168.5 839.5,-168.5"/>
<text text-anchor="middle" x="866" y="-175.5" font-family="Helvetica,sans-Serif" font-size="10.00">string.h</text>
</g>
<!-- Node26&#45;&gt;Node27 -->
<g id="edge36" class="edge"><title>Node26&#45;&gt;Node27</title>
<path fill="none" stroke="midnightblue" d="M835.945,-224.083C840.977,-216.534 848.337,-205.495 854.513,-196.23"/>
<polygon fill="midnightblue" stroke="midnightblue" points="857.531,-198.013 860.166,-187.751 851.707,-194.13 857.531,-198.013"/>
</g>
<!-- Node28 -->
<g id="node28" class="node"><title>Node28</title>
<polygon fill="none" stroke="#bfbfbf" points="911,-168.5 911,-187.5 961,-187.5 961,-168.5 911,-168.5"/>
<text text-anchor="middle" x="936" y="-175.5" font-family="Helvetica,sans-Serif" font-size="10.00">stdio.h</text>
</g>
<!-- Node26&#45;&gt;Node28 -->
<g id="edge37" class="edge"><title>Node26&#45;&gt;Node28</title>
<path fill="none" stroke="midnightblue" d="M847.031,-224.324C864.03,-215.664 890.376,-202.242 909.993,-192.249"/>
<polygon fill="midnightblue" stroke="midnightblue" points="911.69,-195.312 919.012,-187.655 908.512,-189.075 911.69,-195.312"/>
</g>
<!-- Node29 -->
<g id="node29" class="node"><title>Node29</title>
<polygon fill="none" stroke="#bfbfbf" points="768.5,-168.5 768.5,-187.5 821.5,-187.5 821.5,-168.5 768.5,-168.5"/>
<text text-anchor="middle" x="795" y="-175.5" font-family="Helvetica,sans-Serif" font-size="10.00">stdlib.h</text>
</g>
<!-- Node26&#45;&gt;Node29 -->
<g id="edge38" class="edge"><title>Node26&#45;&gt;Node29</title>
<path fill="none" stroke="midnightblue" d="M824.22,-224.083C819.328,-216.534 812.173,-205.495 806.167,-196.23"/>
<polygon fill="midnightblue" stroke="midnightblue" points="809.048,-194.239 800.672,-187.751 803.174,-198.046 809.048,-194.239"/>
</g>
<!-- Node30&#45;&gt;Node9 -->
<g id="edge40" class="edge"><title>Node30&#45;&gt;Node9</title>
<path fill="none" stroke="midnightblue" d="M729.302,-168.396C754.954,-156.35 793.641,-133.513 775,-112 740.749,-72.4731 584.092,-66.8566 506.214,-66.5688"/>
<polygon fill="midnightblue" stroke="midnightblue" points="505.771,-63.0685 495.768,-66.5606 505.766,-70.0685 505.771,-63.0685"/>
</g>
<!-- Node30&#45;&gt;Node19 -->
<g id="edge41" class="edge"><title>Node30&#45;&gt;Node19</title>
<path fill="none" stroke="midnightblue" d="M714.614,-168.083C719.367,-160.534 726.318,-149.495 732.152,-140.23"/>
<polygon fill="midnightblue" stroke="midnightblue" points="735.124,-142.078 737.49,-131.751 729.2,-138.349 735.124,-142.078"/>
</g>
</g>
</svg>
