<?xml version="1.0" encoding="UTF-8" standalone="no"?>
<!DOCTYPE svg PUBLIC "-//W3C//DTD SVG 1.1//EN"
 "http://www.w3.org/Graphics/SVG/1.1/DTD/svg11.dtd">
<!-- Generated by graphviz version 2.38.0 (20140413.2041)
 -->
<!-- Title: bmhtf&#45;nacl_tcl.cpp Pages: 1 -->
<!--zoomable 532 -->
<svg id="main" version="1.1" xmlns="http://www.w3.org/2000/svg" xmlns:xlink="http://www.w3.org/1999/xlink" xml:space="preserve" onload="init(evt)">
<style type="text/css"><![CDATA[
.edge:hover path { stroke: red; }
.edge:hover polygon { stroke: red; fill: red; }
]]></style>
<script type="text/javascript"><![CDATA[
var edges = document.getElementsByTagName('g');
if (edges && edges.length) {
  for (var i=0;i<edges.length;i++) {
    if (edges[i].id.substr(0,4)=='edge') {
      edges[i].setAttribute('class','edge');
    }
  }
}
]]></script>
        <defs>
                <circle id="rim" cx="0" cy="0" r="7"/>
                <circle id="rim2" cx="0" cy="0" r="3.5"/>
                <g id="zoomPlus">
                        <use xlink:href="#rim" fill="#404040">
                                <set attributeName="fill" to="#808080" begin="zoomplus.mouseover" end="zoomplus.mouseout"/>
                        </use>
                        <path d="M-4,0h8M0,-4v8" fill="none" stroke="white" stroke-width="1.5" pointer-events="none"/>
                </g>
                <g id="zoomMin">
                        <use xlink:href="#rim" fill="#404040">
                                <set attributeName="fill" to="#808080" begin="zoomminus.mouseover" end="zoomminus.mouseout"/>
                        </use>
                        <path d="M-4,0h8" fill="none" stroke="white" stroke-width="1.5" pointer-events="none"/>
                </g>
                <g id="dirArrow">
                        <path fill="none" stroke="white" stroke-width="1.5" d="M0,-3.0v7 M-2.5,-0.5L0,-3.0L2.5,-0.5"/>
                </g>
               <g id="resetDef">
                       <use xlink:href="#rim2" fill="#404040">
                               <set attributeName="fill" to="#808080" begin="reset.mouseover" end="reset.mouseout"/>
                       </use>
               </g>
        </defs>

<script type="text/javascript">
var viewWidth = 1076;
var viewHeight = 532;
var sectionId = 'dynsection-0';
</script>
<script xlink:href="svgpan.js"/>
<svg id="graph" class="graph">
<g id="viewport">
<title>bmhtf&#45;nacl_tcl.cpp</title>
<!-- Node1 -->
<g id="node1" class="node"><title>Node1</title>
<polygon fill="#bfbfbf" stroke="black" points="375.371,-504.5 375.371,-523.5 482.371,-523.5 482.371,-504.5 375.371,-504.5"/>
<text text-anchor="middle" x="428.871" y="-511.5" font-family="Helvetica,sans-Serif" font-size="10.00">bmhtf&#45;nacl_tcl.cpp</text>
</g>
<!-- Node2 -->
<g id="node2" class="node"><title>Node2</title>
<g id="a_node2"><a xlink:href="bmhtf-nacl__tcl_8hpp.html" target="_top" xlink:title="Tcl interface for bmhtf&#45;nacl.hpp. ">
<polygon fill="none" stroke="black" points="110.371,-448.5 110.371,-467.5 217.371,-467.5 217.371,-448.5 110.371,-448.5"/>
<text text-anchor="middle" x="163.871" y="-455.5" font-family="Helvetica,sans-Serif" font-size="10.00">bmhtf&#45;nacl_tcl.hpp</text>
</a>
</g>
</g>
<!-- Node1&#45;&gt;Node2 -->
<g id="edge1" class="edge"><title>Node1&#45;&gt;Node2</title>
<path fill="none" stroke="midnightblue" d="M386.881,-504.444C340.458,-494.984 265.642,-479.738 215.63,-469.547"/>
<polygon fill="midnightblue" stroke="midnightblue" points="216.162,-466.084 205.664,-467.516 214.764,-472.943 216.162,-466.084"/>
</g>
<!-- Node22 -->
<g id="node22" class="node"><title>Node22</title>
<g id="a_node22"><a xlink:href="bmhtf-nacl_8hpp.html" target="_top" xlink:title="Routines to calculate the Born&#45;Meyer&#45;Huggins&#45;Tosi&#45;Fumi energy and/or force for a particle pair...">
<polygon fill="none" stroke="black" points="383.871,-448.5 383.871,-467.5 473.871,-467.5 473.871,-448.5 383.871,-448.5"/>
<text text-anchor="middle" x="428.871" y="-455.5" font-family="Helvetica,sans-Serif" font-size="10.00">bmhtf&#45;nacl.hpp</text>
</a>
</g>
</g>
<!-- Node1&#45;&gt;Node22 -->
<g id="edge25" class="edge"><title>Node1&#45;&gt;Node22</title>
<path fill="none" stroke="midnightblue" d="M428.871,-504.083C428.871,-497.006 428.871,-486.861 428.871,-477.986"/>
<polygon fill="midnightblue" stroke="midnightblue" points="432.371,-477.751 428.871,-467.751 425.371,-477.751 432.371,-477.751"/>
</g>
<!-- Node29 -->
<g id="node29" class="node"><title>Node29</title>
<g id="a_node29"><a xlink:href="communication_8hpp.html" target="_top" xlink:title="This file contains the asynchronous MPI communication. ">
<polygon fill="none" stroke="black" points="645.371,-280.5 645.371,-299.5 758.371,-299.5 758.371,-280.5 645.371,-280.5"/>
<text text-anchor="middle" x="701.871" y="-287.5" font-family="Helvetica,sans-Serif" font-size="10.00">communication.hpp</text>
</a>
</g>
</g>
<!-- Node1&#45;&gt;Node29 -->
<g id="edge43" class="edge"><title>Node1&#45;&gt;Node29</title>
<path fill="none" stroke="midnightblue" d="M444.855,-504.385C474.213,-488.209 538.092,-451.359 585.871,-412 626.48,-378.547 667.587,-331.994 688.234,-307.53"/>
<polygon fill="midnightblue" stroke="midnightblue" points="691.15,-309.499 694.876,-299.582 685.778,-305.011 691.15,-309.499"/>
</g>
<!-- Node3 -->
<g id="node3" class="node"><title>Node3</title>
<g id="a_node3"><a xlink:href="parser_8hpp.html" target="_top" xlink:title="This file contains macros for parsing the parameters to the &#39;inter&#39; command. ">
<polygon fill="none" stroke="black" points="98.8707,-224.5 98.8707,-243.5 166.871,-243.5 166.871,-224.5 98.8707,-224.5"/>
<text text-anchor="middle" x="132.871" y="-231.5" font-family="Helvetica,sans-Serif" font-size="10.00">parser.hpp</text>
</a>
</g>
</g>
<!-- Node2&#45;&gt;Node3 -->
<g id="edge2" class="edge"><title>Node2&#45;&gt;Node3</title>
<path fill="none" stroke="midnightblue" d="M148.991,-448.386C115.222,-427.856 33.3563,-372.309 2.87068,-300 -13.2719,-261.711 45.1438,-245.786 88.8774,-239.296"/>
<polygon fill="midnightblue" stroke="midnightblue" points="89.3522,-242.764 98.7878,-237.945 88.4067,-235.828 89.3522,-242.764"/>
</g>
<!-- Node4 -->
<g id="node4" class="node"><title>Node4</title>
<g id="a_node4"><a xlink:href="utils_8hpp.html" target="_top" xlink:title="Small functions that are useful not only for one modul. ">
<polygon fill="none" stroke="black" points="518.371,-168.5 518.371,-187.5 577.371,-187.5 577.371,-168.5 518.371,-168.5"/>
<text text-anchor="middle" x="547.871" y="-175.5" font-family="Helvetica,sans-Serif" font-size="10.00">utils.hpp</text>
</a>
</g>
</g>
<!-- Node3&#45;&gt;Node4 -->
<g id="edge3" class="edge"><title>Node3&#45;&gt;Node4</title>
<path fill="none" stroke="midnightblue" d="M167.185,-228.535C243.477,-218.608 426.823,-194.751 508.019,-184.186"/>
<polygon fill="midnightblue" stroke="midnightblue" points="508.854,-187.607 518.318,-182.845 507.95,-180.665 508.854,-187.607"/>
</g>
<!-- Node8 -->
<g id="node8" class="node"><title>Node8</title>
<polygon fill="none" stroke="#bfbfbf" points="215.871,-112.5 215.871,-131.5 265.871,-131.5 265.871,-112.5 215.871,-112.5"/>
<text text-anchor="middle" x="240.871" y="-119.5" font-family="Helvetica,sans-Serif" font-size="10.00">cstring</text>
</g>
<!-- Node3&#45;&gt;Node8 -->
<g id="edge23" class="edge"><title>Node3&#45;&gt;Node8</title>
<path fill="none" stroke="midnightblue" d="M141.345,-224.368C159.484,-205.894 202.293,-162.293 225.413,-138.744"/>
<polygon fill="midnightblue" stroke="midnightblue" points="227.927,-141.179 232.435,-131.591 222.932,-136.275 227.927,-141.179"/>
</g>
<!-- Node21 -->
<g id="node21" class="node"><title>Node21</title>
<polygon fill="none" stroke="#bfbfbf" points="94.8707,-168.5 94.8707,-187.5 132.871,-187.5 132.871,-168.5 94.8707,-168.5"/>
<text text-anchor="middle" x="113.871" y="-175.5" font-family="Helvetica,sans-Serif" font-size="10.00">tcl.h</text>
</g>
<!-- Node3&#45;&gt;Node21 -->
<g id="edge24" class="edge"><title>Node3&#45;&gt;Node21</title>
<path fill="none" stroke="midnightblue" d="M129.733,-224.083C127.188,-216.849 123.514,-206.409 120.344,-197.397"/>
<polygon fill="midnightblue" stroke="midnightblue" points="123.57,-196.023 116.95,-187.751 116.967,-198.346 123.57,-196.023"/>
</g>
<!-- Node5 -->
<g id="node5" class="node"><title>Node5</title>
<polygon fill="none" stroke="#bfbfbf" points="406.371,-112.5 406.371,-131.5 453.371,-131.5 453.371,-112.5 406.371,-112.5"/>
<text text-anchor="middle" x="429.871" y="-119.5" font-family="Helvetica,sans-Serif" font-size="10.00">cmath</text>
</g>
<!-- Node4&#45;&gt;Node5 -->
<g id="edge4" class="edge"><title>Node4&#45;&gt;Node5</title>
<path fill="none" stroke="midnightblue" d="M529.173,-168.444C509.926,-159.636 479.718,-145.812 457.671,-135.722"/>
<polygon fill="midnightblue" stroke="midnightblue" points="459.03,-132.495 448.481,-131.516 456.117,-138.86 459.03,-132.495"/>
</g>
<!-- Node6 -->
<g id="node6" class="node"><title>Node6</title>
<polygon fill="none" stroke="#bfbfbf" points="593.871,-112.5 593.871,-131.5 639.871,-131.5 639.871,-112.5 593.871,-112.5"/>
<text text-anchor="middle" x="616.871" y="-119.5" font-family="Helvetica,sans-Serif" font-size="10.00">cstdio</text>
</g>
<!-- Node4&#45;&gt;Node6 -->
<g id="edge5" class="edge"><title>Node4&#45;&gt;Node6</title>
<path fill="none" stroke="midnightblue" d="M558.957,-168.324C569.357,-160.185 585.131,-147.839 597.592,-138.087"/>
<polygon fill="midnightblue" stroke="midnightblue" points="599.865,-140.753 605.583,-131.834 595.551,-135.241 599.865,-140.753"/>
</g>
<!-- Node7 -->
<g id="node7" class="node"><title>Node7</title>
<polygon fill="none" stroke="#bfbfbf" points="658.371,-112.5 658.371,-131.5 707.371,-131.5 707.371,-112.5 658.371,-112.5"/>
<text text-anchor="middle" x="682.871" y="-119.5" font-family="Helvetica,sans-Serif" font-size="10.00">cstdlib</text>
</g>
<!-- Node4&#45;&gt;Node7 -->
<g id="edge6" class="edge"><title>Node4&#45;&gt;Node7</title>
<path fill="none" stroke="midnightblue" d="M569.262,-168.444C591.578,-159.517 626.774,-145.439 652.079,-135.317"/>
<polygon fill="midnightblue" stroke="midnightblue" points="653.595,-138.48 661.58,-131.516 650.995,-131.981 653.595,-138.48"/>
</g>
<!-- Node4&#45;&gt;Node8 -->
<g id="edge7" class="edge"><title>Node4&#45;&gt;Node8</title>
<path fill="none" stroke="midnightblue" d="M518.206,-173.056C469.607,-166.392 369.83,-151.858 275.995,-132.073"/>
<polygon fill="midnightblue" stroke="midnightblue" points="276.567,-128.617 266.057,-129.953 275.107,-135.463 276.567,-128.617"/>
</g>
<!-- Node9 -->
<g id="node9" class="node"><title>Node9</title>
<g id="a_node9"><a xlink:href="config_8hpp.html" target="_top" xlink:title="This file contains the defaults for Espresso. ">
<polygon fill="none" stroke="black" points="448.371,-56.5 448.371,-75.5 515.371,-75.5 515.371,-56.5 448.371,-56.5"/>
<text text-anchor="middle" x="481.871" y="-63.5" font-family="Helvetica,sans-Serif" font-size="10.00">config.hpp</text>
</a>
</g>
</g>
<!-- Node4&#45;&gt;Node9 -->
<g id="edge8" class="edge"><title>Node4&#45;&gt;Node9</title>
<path fill="none" stroke="midnightblue" d="M535.733,-168.343C525.075,-160.134 509.901,-146.87 500.871,-132 492.193,-117.712 487.294,-99.2433 484.652,-85.6463"/>
<polygon fill="midnightblue" stroke="midnightblue" points="488.065,-84.8371 482.931,-75.5691 481.165,-86.0156 488.065,-84.8371"/>
</g>
<!-- Node13 -->
<g id="node13" class="node"><title>Node13</title>
<g id="a_node13"><a xlink:href="debug_8hpp.html" target="_top" xlink:title="This file controls debug facilities. ">
<polygon fill="none" stroke="black" points="725.871,-112.5 725.871,-131.5 793.871,-131.5 793.871,-112.5 725.871,-112.5"/>
<text text-anchor="middle" x="759.871" y="-119.5" font-family="Helvetica,sans-Serif" font-size="10.00">debug.hpp</text>
</a>
</g>
</g>
<!-- Node4&#45;&gt;Node13 -->
<g id="edge12" class="edge"><title>Node4&#45;&gt;Node13</title>
<path fill="none" stroke="midnightblue" d="M577.795,-169.378C613.962,-160.165 675.102,-144.592 716.451,-134.06"/>
<polygon fill="midnightblue" stroke="midnightblue" points="717.424,-137.424 726.25,-131.564 715.696,-130.64 717.424,-137.424"/>
</g>
<!-- Node14 -->
<g id="node14" class="node"><title>Node14</title>
<g id="a_node14"><a xlink:href="lees__edwards_8hpp.html" target="_top" xlink:title="lees_edwards.hpp">
<polygon fill="none" stroke="black" points="283.871,-112.5 283.871,-131.5 387.871,-131.5 387.871,-112.5 283.871,-112.5"/>
<text text-anchor="middle" x="335.871" y="-119.5" font-family="Helvetica,sans-Serif" font-size="10.00">lees_edwards.hpp</text>
</a>
</g>
</g>
<!-- Node4&#45;&gt;Node14 -->
<g id="edge14" class="edge"><title>Node4&#45;&gt;Node14</title>
<path fill="none" stroke="midnightblue" d="M517.946,-169.378C481.779,-160.165 420.639,-144.592 379.29,-134.06"/>
<polygon fill="midnightblue" stroke="midnightblue" points="380.046,-130.64 369.491,-131.564 378.318,-137.424 380.046,-130.64"/>
</g>
<!-- Node15 -->
<g id="node15" class="node"><title>Node15</title>
<g id="a_node15"><a xlink:href="errorhandling_8hpp.html" target="_top" xlink:title="This file contains the errorhandling code for severe errors, like a broken bond or illegal parameter ...">
<polygon fill="none" stroke="black" points="916.371,-112.5 916.371,-131.5 1019.37,-131.5 1019.37,-112.5 916.371,-112.5"/>
<text text-anchor="middle" x="967.871" y="-119.5" font-family="Helvetica,sans-Serif" font-size="10.00">errorhandling.hpp</text>
</a>
</g>
</g>
<!-- Node4&#45;&gt;Node15 -->
<g id="edge16" class="edge"><title>Node4&#45;&gt;Node15</title>
<path fill="none" stroke="midnightblue" d="M577.404,-173.203C645.434,-164.456 814.368,-142.736 906.15,-130.936"/>
<polygon fill="midnightblue" stroke="midnightblue" points="906.665,-134.398 916.137,-129.651 905.772,-127.455 906.665,-134.398"/>
</g>
<!-- Node19 -->
<g id="node19" class="node"><title>Node19</title>
<polygon fill="none" stroke="#bfbfbf" points="812.371,-112.5 812.371,-131.5 859.371,-131.5 859.371,-112.5 812.371,-112.5"/>
<text text-anchor="middle" x="835.871" y="-119.5" font-family="Helvetica,sans-Serif" font-size="10.00">vector</text>
</g>
<!-- Node4&#45;&gt;Node19 -->
<g id="edge21" class="edge"><title>Node4&#45;&gt;Node19</title>
<path fill="none" stroke="midnightblue" d="M577.494,-172.675C623.487,-165.764 715.01,-151.238 802.341,-131.941"/>
<polygon fill="midnightblue" stroke="midnightblue" points="803.147,-135.347 812.143,-129.75 801.62,-128.516 803.147,-135.347"/>
</g>
<!-- Node20 -->
<g id="node20" class="node"><title>Node20</title>
<polygon fill="none" stroke="#bfbfbf" points="510.371,-112.5 510.371,-131.5 575.371,-131.5 575.371,-112.5 510.371,-112.5"/>
<text text-anchor="middle" x="542.871" y="-119.5" font-family="Helvetica,sans-Serif" font-size="10.00">exception</text>
</g>
<!-- Node4&#45;&gt;Node20 -->
<g id="edge22" class="edge"><title>Node4&#45;&gt;Node20</title>
<path fill="none" stroke="midnightblue" d="M547.045,-168.083C546.39,-161.006 545.45,-150.861 544.629,-141.986"/>
<polygon fill="midnightblue" stroke="midnightblue" points="548.088,-141.386 543.681,-131.751 541.118,-142.031 548.088,-141.386"/>
</g>
<!-- Node10 -->
<g id="node10" class="node"><title>Node10</title>
<g id="a_node10"><a xlink:href="acconfig_8hpp.html" target="_top" xlink:title="acconfig.hpp">
<polygon fill="none" stroke="black" points="331.871,-0.5 331.871,-19.5 409.871,-19.5 409.871,-0.5 331.871,-0.5"/>
<text text-anchor="middle" x="370.871" y="-7.5" font-family="Helvetica,sans-Serif" font-size="10.00">acconfig.hpp</text>
</a>
</g>
</g>
<!-- Node9&#45;&gt;Node10 -->
<g id="edge9" class="edge"><title>Node9&#45;&gt;Node10</title>
<path fill="none" stroke="midnightblue" d="M464.037,-56.324C446.155,-47.6247 418.396,-34.1202 397.825,-24.113"/>
<polygon fill="midnightblue" stroke="midnightblue" points="399.184,-20.8819 388.66,-19.6545 396.122,-27.1765 399.184,-20.8819"/>
</g>
<!-- Node11 -->
<g id="node11" class="node"><title>Node11</title>
<g id="a_node11"><a xlink:href="myconfig-final_8hpp.html" target="_top" xlink:title="myconfig&#45;final.hpp">
<polygon fill="none" stroke="black" points="428.371,-0.5 428.371,-19.5 535.371,-19.5 535.371,-0.5 428.371,-0.5"/>
<text text-anchor="middle" x="481.871" y="-7.5" font-family="Helvetica,sans-Serif" font-size="10.00">myconfig&#45;final.hpp</text>
</a>
</g>
</g>
<!-- Node9&#45;&gt;Node11 -->
<g id="edge10" class="edge"><title>Node9&#45;&gt;Node11</title>
<path fill="none" stroke="midnightblue" d="M481.871,-56.083C481.871,-49.0059 481.871,-38.8611 481.871,-29.9865"/>
<polygon fill="midnightblue" stroke="midnightblue" points="485.371,-29.751 481.871,-19.7511 478.371,-29.7511 485.371,-29.751"/>
</g>
<!-- Node12 -->
<g id="node12" class="node"><title>Node12</title>
<g id="a_node12"><a xlink:href="config-features_8hpp.html" target="_top" xlink:title="config&#45;features.hpp">
<polygon fill="none" stroke="black" points="553.371,-0.5 553.371,-19.5 664.371,-19.5 664.371,-0.5 553.371,-0.5"/>
<text text-anchor="middle" x="608.871" y="-7.5" font-family="Helvetica,sans-Serif" font-size="10.00">config&#45;features.hpp</text>
</a>
</g>
</g>
<!-- Node9&#45;&gt;Node12 -->
<g id="edge11" class="edge"><title>Node9&#45;&gt;Node12</title>
<path fill="none" stroke="midnightblue" d="M501.994,-56.4435C522.895,-47.5566 555.805,-33.5632 579.587,-23.4514"/>
<polygon fill="midnightblue" stroke="midnightblue" points="581.008,-26.6504 588.841,-19.5164 578.269,-20.2085 581.008,-26.6504"/>
</g>
<!-- Node13&#45;&gt;Node9 -->
<g id="edge13" class="edge"><title>Node13&#45;&gt;Node9</title>
<path fill="none" stroke="midnightblue" d="M725.769,-113.983C722.425,-113.308 719.083,-112.637 715.871,-112 649.524,-98.8355 572.474,-84.1307 525.456,-75.2231"/>
<polygon fill="midnightblue" stroke="midnightblue" points="526.084,-71.7799 515.608,-73.3588 524.782,-78.6577 526.084,-71.7799"/>
</g>
<!-- Node14&#45;&gt;Node9 -->
<g id="edge15" class="edge"><title>Node14&#45;&gt;Node9</title>
<path fill="none" stroke="midnightblue" d="M359.005,-112.444C383.353,-103.438 421.878,-89.1891 449.294,-79.049"/>
<polygon fill="midnightblue" stroke="midnightblue" points="450.68,-82.2681 458.845,-75.5164 448.252,-75.7028 450.68,-82.2681"/>
</g>
<!-- Node15&#45;&gt;Node9 -->
<g id="edge17" class="edge"><title>Node15&#45;&gt;Node9</title>
<path fill="none" stroke="midnightblue" d="M916.366,-113.831C911.469,-113.193 906.577,-112.573 901.871,-112 764.73,-95.3062 601.984,-78.8128 525.586,-71.2652"/>
<polygon fill="midnightblue" stroke="midnightblue" points="525.686,-67.7582 515.391,-70.2605 524.999,-74.7244 525.686,-67.7582"/>
</g>
<!-- Node16 -->
<g id="node16" class="node"><title>Node16</title>
<polygon fill="none" stroke="#bfbfbf" points="877.871,-56.5 877.871,-75.5 921.871,-75.5 921.871,-56.5 877.871,-56.5"/>
<text text-anchor="middle" x="899.871" y="-63.5" font-family="Helvetica,sans-Serif" font-size="10.00">string</text>
</g>
<!-- Node15&#45;&gt;Node16 -->
<g id="edge18" class="edge"><title>Node15&#45;&gt;Node16</title>
<path fill="none" stroke="midnightblue" d="M956.945,-112.324C946.696,-104.185 931.15,-91.8395 918.87,-82.0874"/>
<polygon fill="midnightblue" stroke="midnightblue" points="921.003,-79.3119 910.995,-75.8339 916.649,-84.7937 921.003,-79.3119"/>
</g>
<!-- Node17 -->
<g id="node17" class="node"><title>Node17</title>
<polygon fill="none" stroke="#bfbfbf" points="939.871,-56.5 939.871,-75.5 995.871,-75.5 995.871,-56.5 939.871,-56.5"/>
<text text-anchor="middle" x="967.871" y="-63.5" font-family="Helvetica,sans-Serif" font-size="10.00">sstream</text>
</g>
<!-- Node15&#45;&gt;Node17 -->
<g id="edge19" class="edge"><title>Node15&#45;&gt;Node17</title>
<path fill="none" stroke="midnightblue" d="M967.871,-112.083C967.871,-105.006 967.871,-94.8611 967.871,-85.9865"/>
<polygon fill="midnightblue" stroke="midnightblue" points="971.371,-85.751 967.871,-75.7511 964.371,-85.7511 971.371,-85.751"/>
</g>
<!-- Node18 -->
<g id="node18" class="node"><title>Node18</title>
<polygon fill="none" stroke="#bfbfbf" points="1013.87,-56.5 1013.87,-75.5 1045.87,-75.5 1045.87,-56.5 1013.87,-56.5"/>
<text text-anchor="middle" x="1029.87" y="-63.5" font-family="Helvetica,sans-Serif" font-size="10.00">list</text>
</g>
<!-- Node15&#45;&gt;Node18 -->
<g id="edge20" class="edge"><title>Node15&#45;&gt;Node18</title>
<path fill="none" stroke="midnightblue" d="M977.832,-112.324C986.997,-104.341 1000.81,-92.3128 1011.9,-82.6529"/>
<polygon fill="midnightblue" stroke="midnightblue" points="1014.49,-85.041 1019.73,-75.8339 1009.89,-79.7624 1014.49,-85.041"/>
</g>
<!-- Node22&#45;&gt;Node4 -->
<g id="edge26" class="edge"><title>Node22&#45;&gt;Node4</title>
<path fill="none" stroke="midnightblue" d="M459.548,-448.464C501.566,-434.682 571.871,-403.223 571.871,-347 571.871,-347 571.871,-347 571.871,-289 571.871,-256.059 561.47,-218.818 554.362,-197.214"/>
<polygon fill="midnightblue" stroke="midnightblue" points="557.656,-196.028 551.107,-187.699 551.032,-198.294 557.656,-196.028"/>
</g>
<!-- Node23 -->
<g id="node23" class="node"><title>Node23</title>
<g id="a_node23"><a xlink:href="interaction__data_8hpp.html" target="_top" xlink:title="Various procedures concerning interactions between particles. ">
<polygon fill="none" stroke="black" points="426.371,-336.5 426.371,-355.5 543.371,-355.5 543.371,-336.5 426.371,-336.5"/>
<text text-anchor="middle" x="484.871" y="-343.5" font-family="Helvetica,sans-Serif" font-size="10.00">interaction_data.hpp</text>
</a>
</g>
</g>
<!-- Node22&#45;&gt;Node23 -->
<g id="edge27" class="edge"><title>Node22&#45;&gt;Node23</title>
<path fill="none" stroke="midnightblue" d="M433.265,-448.368C442.425,-430.376 463.718,-388.55 475.897,-364.627"/>
<polygon fill="midnightblue" stroke="midnightblue" points="479.079,-366.091 480.497,-355.591 472.841,-362.915 479.079,-366.091"/>
</g>
<!-- Node24 -->
<g id="node24" class="node"><title>Node24</title>
<g id="a_node24"><a xlink:href="particle__data_8hpp.html" target="_top" xlink:title="For more information on particle_data, see particle_data.c. ">
<polygon fill="none" stroke="black" points="328.371,-224.5 328.371,-243.5 429.371,-243.5 429.371,-224.5 328.371,-224.5"/>
<text text-anchor="middle" x="378.871" y="-231.5" font-family="Helvetica,sans-Serif" font-size="10.00">particle_data.hpp</text>
</a>
</g>
</g>
<!-- Node22&#45;&gt;Node24 -->
<g id="edge31" class="edge"><title>Node22&#45;&gt;Node24</title>
<path fill="none" stroke="midnightblue" d="M426.911,-448.297C419.538,-415.563 393.37,-299.375 383.075,-253.666"/>
<polygon fill="midnightblue" stroke="midnightblue" points="386.483,-252.87 380.872,-243.884 379.654,-254.408 386.483,-252.87"/>
</g>
<!-- Node25 -->
<g id="node25" class="node"><title>Node25</title>
<g id="a_node25"><a xlink:href="mol__cut_8hpp.html" target="_top" xlink:title="mol_cut.hpp">
<polygon fill="none" stroke="black" points="292.371,-392.5 292.371,-411.5 369.371,-411.5 369.371,-392.5 292.371,-392.5"/>
<text text-anchor="middle" x="330.871" y="-399.5" font-family="Helvetica,sans-Serif" font-size="10.00">mol_cut.hpp</text>
</a>
</g>
</g>
<!-- Node22&#45;&gt;Node25 -->
<g id="edge32" class="edge"><title>Node22&#45;&gt;Node25</title>
<path fill="none" stroke="midnightblue" d="M413.125,-448.324C397.552,-439.743 373.493,-426.486 355.411,-416.522"/>
<polygon fill="midnightblue" stroke="midnightblue" points="357.025,-413.415 346.577,-411.655 353.646,-419.546 357.025,-413.415"/>
</g>
<!-- Node23&#45;&gt;Node4 -->
<g id="edge28" class="edge"><title>Node23&#45;&gt;Node4</title>
<path fill="none" stroke="midnightblue" d="M488.258,-336.075C498.218,-309.832 527.549,-232.545 540.995,-197.117"/>
<polygon fill="midnightblue" stroke="midnightblue" points="544.343,-198.159 544.619,-187.568 537.798,-195.676 544.343,-198.159"/>
</g>
<!-- Node23&#45;&gt;Node24 -->
<g id="edge29" class="edge"><title>Node23&#45;&gt;Node24</title>
<path fill="none" stroke="midnightblue" d="M476.553,-336.368C458.828,-317.974 417.099,-274.671 394.339,-251.052"/>
<polygon fill="midnightblue" stroke="midnightblue" points="396.609,-248.364 387.15,-243.591 391.568,-253.221 396.609,-248.364"/>
</g>
<!-- Node24&#45;&gt;Node4 -->
<g id="edge30" class="edge"><title>Node24&#45;&gt;Node4</title>
<path fill="none" stroke="midnightblue" d="M405.649,-224.444C434.204,-215.32 479.603,-200.813 511.408,-190.651"/>
<polygon fill="midnightblue" stroke="midnightblue" points="512.757,-193.894 521.217,-187.516 510.627,-187.226 512.757,-193.894"/>
</g>
<!-- Node25&#45;&gt;Node23 -->
<g id="edge42" class="edge"><title>Node25&#45;&gt;Node23</title>
<path fill="none" stroke="midnightblue" d="M355.272,-392.444C381.067,-383.399 421.947,-369.064 450.888,-358.916"/>
<polygon fill="midnightblue" stroke="midnightblue" points="452.305,-362.128 460.583,-355.516 449.988,-355.523 452.305,-362.128"/>
</g>
<!-- Node25&#45;&gt;Node24 -->
<g id="edge41" class="edge"><title>Node25&#45;&gt;Node24</title>
<path fill="none" stroke="midnightblue" d="M333.451,-392.075C341.007,-365.945 363.195,-289.211 373.499,-253.577"/>
<polygon fill="midnightblue" stroke="midnightblue" points="376.978,-254.147 376.393,-243.568 370.253,-252.202 376.978,-254.147"/>
</g>
<!-- Node26 -->
<g id="node26" class="node"><title>Node26</title>
<g id="a_node26"><a xlink:href="virtual__sites_8hpp.html" target="_top" xlink:title="This file contains routine to handle virtual sites Virtual sites are like particles, but they will be not integrated. ">
<polygon fill="none" stroke="black" points="208.871,-336.5 208.871,-355.5 306.871,-355.5 306.871,-336.5 208.871,-336.5"/>
<text text-anchor="middle" x="257.871" y="-343.5" font-family="Helvetica,sans-Serif" font-size="10.00">virtual_sites.hpp</text>
</a>
</g>
</g>
<!-- Node25&#45;&gt;Node26 -->
<g id="edge33" class="edge"><title>Node25&#45;&gt;Node26</title>
<path fill="none" stroke="midnightblue" d="M319.142,-392.324C308.033,-384.107 291.129,-371.602 277.887,-361.807"/>
<polygon fill="midnightblue" stroke="midnightblue" points="279.934,-358.967 269.813,-355.834 275.771,-364.595 279.934,-358.967"/>
</g>
<!-- Node26&#45;&gt;Node24 -->
<g id="edge34" class="edge"><title>Node26&#45;&gt;Node24</title>
<path fill="none" stroke="midnightblue" d="M267.365,-336.368C287.776,-317.814 336.066,-273.913 361.889,-250.438"/>
<polygon fill="midnightblue" stroke="midnightblue" points="364.375,-252.908 369.42,-243.591 359.666,-247.728 364.375,-252.908"/>
</g>
<!-- Node27 -->
<g id="node27" class="node"><title>Node27</title>
<g id="a_node27"><a xlink:href="virtual__sites__com_8hpp.html" target="_top" xlink:title="virtual_sites_com.hpp">
<polygon fill="none" stroke="black" points="169.871,-280.5 169.871,-299.5 293.871,-299.5 293.871,-280.5 169.871,-280.5"/>
<text text-anchor="middle" x="231.871" y="-287.5" font-family="Helvetica,sans-Serif" font-size="10.00">virtual_sites_com.hpp</text>
</a>
</g>
</g>
<!-- Node26&#45;&gt;Node27 -->
<g id="edge35" class="edge"><title>Node26&#45;&gt;Node27</title>
<path fill="none" stroke="midnightblue" d="M253.577,-336.083C250.018,-328.691 244.848,-317.953 240.446,-308.811"/>
<polygon fill="midnightblue" stroke="midnightblue" points="243.576,-307.243 236.084,-299.751 237.269,-310.279 243.576,-307.243"/>
</g>
<!-- Node28 -->
<g id="node28" class="node"><title>Node28</title>
<g id="a_node28"><a xlink:href="virtual__sites__relative_8hpp.html" target="_top" xlink:title="virtual_sites_relative.hpp">
<polygon fill="none" stroke="black" points="11.8707,-280.5 11.8707,-299.5 151.871,-299.5 151.871,-280.5 11.8707,-280.5"/>
<text text-anchor="middle" x="81.8707" y="-287.5" font-family="Helvetica,sans-Serif" font-size="10.00">virtual_sites_relative.hpp</text>
</a>
</g>
</g>
<!-- Node26&#45;&gt;Node28 -->
<g id="edge38" class="edge"><title>Node26&#45;&gt;Node28</title>
<path fill="none" stroke="midnightblue" d="M229.983,-336.444C200.117,-327.28 152.556,-312.688 119.415,-302.519"/>
<polygon fill="midnightblue" stroke="midnightblue" points="120.215,-299.104 109.628,-299.516 118.161,-305.796 120.215,-299.104"/>
</g>
<!-- Node27&#45;&gt;Node9 -->
<g id="edge36" class="edge"><title>Node27&#45;&gt;Node9</title>
<path fill="none" stroke="midnightblue" d="M226.6,-280.357C210.23,-252.293 163.868,-162.611 206.871,-112 235.996,-77.7219 367.908,-69.4984 437.914,-67.5645"/>
<polygon fill="midnightblue" stroke="midnightblue" points="438.272,-71.0569 448.184,-67.3137 438.101,-64.059 438.272,-71.0569"/>
</g>
<!-- Node27&#45;&gt;Node24 -->
<g id="edge37" class="edge"><title>Node27&#45;&gt;Node24</title>
<path fill="none" stroke="midnightblue" d="M255.163,-280.444C279.678,-271.438 318.467,-257.189 346.071,-247.049"/>
<polygon fill="midnightblue" stroke="midnightblue" points="347.507,-250.25 355.687,-243.516 345.093,-243.679 347.507,-250.25"/>
</g>
<!-- Node28&#45;&gt;Node9 -->
<g id="edge39" class="edge"><title>Node28&#45;&gt;Node9</title>
<path fill="none" stroke="midnightblue" d="M79.4048,-280.24C73.9874,-259.063 63.2459,-204.175 85.8707,-168 114.124,-122.826 141.294,-128.76 191.871,-112 276.101,-84.0882 379.945,-73.3267 437.731,-69.2987"/>
<polygon fill="midnightblue" stroke="midnightblue" points="438.223,-72.774 447.97,-68.6224 437.761,-65.7892 438.223,-72.774"/>
</g>
<!-- Node28&#45;&gt;Node24 -->
<g id="edge40" class="edge"><title>Node28&#45;&gt;Node24</title>
<path fill="none" stroke="midnightblue" d="M128.931,-280.444C181.285,-270.925 265.861,-255.547 321.911,-245.356"/>
<polygon fill="midnightblue" stroke="midnightblue" points="322.818,-248.749 332.03,-243.516 321.565,-241.862 322.818,-248.749"/>
</g>
<!-- Node29&#45;&gt;Node24 -->
<g id="edge44" class="edge"><title>Node29&#45;&gt;Node24</title>
<path fill="none" stroke="midnightblue" d="M650.69,-280.444C593.315,-270.851 500.354,-255.31 439.414,-245.122"/>
<polygon fill="midnightblue" stroke="midnightblue" points="439.986,-241.669 429.545,-243.472 438.831,-248.573 439.986,-241.669"/>
</g>
<!-- Node30 -->
<g id="node30" class="node"><title>Node30</title>
<g id="a_node30"><a xlink:href="random_8hpp.html" target="_top" xlink:title="A random generator. ">
<polygon fill="none" stroke="black" points="600.371,-224.5 600.371,-243.5 675.371,-243.5 675.371,-224.5 600.371,-224.5"/>
<text text-anchor="middle" x="637.871" y="-231.5" font-family="Helvetica,sans-Serif" font-size="10.00">random.hpp</text>
</a>
</g>
</g>
<!-- Node29&#45;&gt;Node30 -->
<g id="edge45" class="edge"><title>Node29&#45;&gt;Node30</title>
<path fill="none" stroke="midnightblue" d="M691.588,-280.324C682.034,-272.263 667.591,-260.077 656.086,-250.369"/>
<polygon fill="midnightblue" stroke="midnightblue" points="658.24,-247.608 648.34,-243.834 653.726,-252.958 658.24,-247.608"/>
</g>
<!-- Node31 -->
<g id="node31" class="node"><title>Node31</title>
<g id="a_node31"><a xlink:href="topology_8hpp.html" target="_top" xlink:title="This file contains functions for handling the system topology. ">
<polygon fill="none" stroke="black" points="693.371,-224.5 693.371,-243.5 772.371,-243.5 772.371,-224.5 693.371,-224.5"/>
<text text-anchor="middle" x="732.871" y="-231.5" font-family="Helvetica,sans-Serif" font-size="10.00">topology.hpp</text>
</a>
</g>
</g>
<!-- Node29&#45;&gt;Node31 -->
<g id="edge47" class="edge"><title>Node29&#45;&gt;Node31</title>
<path fill="none" stroke="midnightblue" d="M706.99,-280.083C711.278,-272.613 717.529,-261.724 722.813,-252.52"/>
<polygon fill="midnightblue" stroke="midnightblue" points="725.904,-254.166 727.847,-243.751 719.833,-250.681 725.904,-254.166"/>
</g>
<!-- Node32 -->
<g id="node32" class="node"><title>Node32</title>
<g id="a_node32"><a xlink:href="mpi_8h.html" target="_top" xlink:title="This is the MPIfake implementation. ">
<polygon fill="none" stroke="black" points="914.871,-224.5 914.871,-243.5 958.871,-243.5 958.871,-224.5 914.871,-224.5"/>
<text text-anchor="middle" x="936.871" y="-231.5" font-family="Helvetica,sans-Serif" font-size="10.00">mpi.h</text>
</a>
</g>
</g>
<!-- Node29&#45;&gt;Node32 -->
<g id="edge49" class="edge"><title>Node29&#45;&gt;Node32</title>
<path fill="none" stroke="midnightblue" d="M739.107,-280.444C784.78,-269.948 861.446,-252.332 904.682,-242.397"/>
<polygon fill="midnightblue" stroke="midnightblue" points="905.696,-245.755 914.658,-240.104 904.128,-238.933 905.696,-245.755"/>
</g>
<!-- Node36 -->
<g id="node36" class="node"><title>Node36</title>
<g id="a_node36"><a xlink:href="cuda__init_8hpp.html" target="_top" xlink:title="cuda_init.hpp">
<polygon fill="none" stroke="black" points="774.871,-168.5 774.871,-187.5 856.871,-187.5 856.871,-168.5 774.871,-168.5"/>
<text text-anchor="middle" x="815.871" y="-175.5" font-family="Helvetica,sans-Serif" font-size="10.00">cuda_init.hpp</text>
</a>
</g>
</g>
<!-- Node29&#45;&gt;Node36 -->
<g id="edge53" class="edge"><title>Node29&#45;&gt;Node36</title>
<path fill="none" stroke="midnightblue" d="M724.176,-280.348C741.34,-272.806 764.771,-260.488 780.871,-244 794,-230.554 803.571,-211.188 809.353,-197.093"/>
<polygon fill="midnightblue" stroke="midnightblue" points="812.709,-198.118 813.032,-187.529 806.175,-195.605 812.709,-198.118"/>
</g>
<!-- Node30&#45;&gt;Node4 -->
<g id="edge46" class="edge"><title>Node30&#45;&gt;Node4</title>
<path fill="none" stroke="midnightblue" d="M623.411,-224.324C609.371,-215.9 587.822,-202.971 571.328,-193.074"/>
<polygon fill="midnightblue" stroke="midnightblue" points="572.671,-189.798 562.295,-187.655 569.069,-195.801 572.671,-189.798"/>
</g>
<!-- Node31&#45;&gt;Node4 -->
<g id="edge48" class="edge"><title>Node31&#45;&gt;Node4</title>
<path fill="none" stroke="midnightblue" d="M703.557,-224.444C672.028,-215.241 621.739,-200.562 586.885,-190.388"/>
<polygon fill="midnightblue" stroke="midnightblue" points="587.627,-186.959 577.047,-187.516 585.666,-193.678 587.627,-186.959"/>
</g>
<!-- Node33 -->
<g id="node33" class="node"><title>Node33</title>
<polygon fill="none" stroke="#bfbfbf" points="875.371,-168.5 875.371,-187.5 928.371,-187.5 928.371,-168.5 875.371,-168.5"/>
<text text-anchor="middle" x="901.871" y="-175.5" font-family="Helvetica,sans-Serif" font-size="10.00">string.h</text>
</g>
<!-- Node32&#45;&gt;Node33 -->
<g id="edge50" class="edge"><title>Node32&#45;&gt;Node33</title>
<path fill="none" stroke="midnightblue" d="M931.091,-224.083C926.198,-216.534 919.043,-205.495 913.038,-196.23"/>
<polygon fill="midnightblue" stroke="midnightblue" points="915.919,-194.239 907.543,-187.751 910.045,-198.046 915.919,-194.239"/>
</g>
<!-- Node34 -->
<g id="node34" class="node"><title>Node34</title>
<polygon fill="none" stroke="#bfbfbf" points="946.871,-168.5 946.871,-187.5 996.871,-187.5 996.871,-168.5 946.871,-168.5"/>
<text text-anchor="middle" x="971.871" y="-175.5" font-family="Helvetica,sans-Serif" font-size="10.00">stdio.h</text>
</g>
<!-- Node32&#45;&gt;Node34 -->
<g id="edge51" class="edge"><title>Node32&#45;&gt;Node34</title>
<path fill="none" stroke="midnightblue" d="M942.65,-224.083C947.543,-216.534 954.698,-205.495 960.703,-196.23"/>
<polygon fill="midnightblue" stroke="midnightblue" points="963.697,-198.046 966.199,-187.751 957.823,-194.239 963.697,-198.046"/>
</g>
<!-- Node35 -->
<g id="node35" class="node"><title>Node35</title>
<polygon fill="none" stroke="#bfbfbf" points="1015.37,-168.5 1015.37,-187.5 1068.37,-187.5 1068.37,-168.5 1015.37,-168.5"/>
<text text-anchor="middle" x="1041.87" y="-175.5" font-family="Helvetica,sans-Serif" font-size="10.00">stdlib.h</text>
</g>
<!-- Node32&#45;&gt;Node35 -->
<g id="edge52" class="edge"><title>Node32&#45;&gt;Node35</title>
<path fill="none" stroke="midnightblue" d="M953.741,-224.324C970.579,-215.664 996.677,-202.242 1016.11,-192.249"/>
<polygon fill="midnightblue" stroke="midnightblue" points="1017.75,-195.341 1025.04,-187.655 1014.55,-189.116 1017.75,-195.341"/>
</g>
<!-- Node36&#45;&gt;Node9 -->
<g id="edge54" class="edge"><title>Node36&#45;&gt;Node9</title>
<path fill="none" stroke="midnightblue" d="M831.472,-168.352C852.432,-155.671 885.167,-131.43 867.871,-112 845.418,-86.7775 622.004,-73.4834 525.686,-68.8866"/>
<polygon fill="midnightblue" stroke="midnightblue" points="525.831,-65.3897 515.679,-68.4186 525.504,-72.3821 525.831,-65.3897"/>
</g>
<!-- Node36&#45;&gt;Node19 -->
<g id="edge55" class="edge"><title>Node36&#45;&gt;Node19</title>
<path fill="none" stroke="midnightblue" d="M819.173,-168.083C821.853,-160.849 825.719,-150.409 829.057,-141.397"/>
<polygon fill="midnightblue" stroke="midnightblue" points="832.438,-142.344 832.63,-131.751 825.874,-139.913 832.438,-142.344"/>
</g>
</g>
</svg>
        <g id="navigator" transform="translate(0 0)" fill="#404254">
                <rect fill="#f2f5e9" fill-opacity="0.5" stroke="#606060" stroke-width=".5" x="0" y="0" width="60" height="60"/>
                <use id="zoomplus" xlink:href="#zoomPlus" x="17" y="9" onmousedown="handleZoom(evt,'in')"/>
                <use id="zoomminus" xlink:href="#zoomMin" x="42" y="9" onmousedown="handleZoom(evt,'out')"/>
                <use id="reset" xlink:href="#resetDef" x="30" y="36" onmousedown="handleReset()"/>
                <g id="arrowUp" xlink:href="#dirArrow" transform="translate(30 24)" onmousedown="handlePan(0,-1)">
                  <use xlink:href="#rim" fill="#404040">
                        <set attributeName="fill" to="#808080" begin="arrowUp.mouseover" end="arrowUp.mouseout"/>
                  </use>
                  <path fill="none" stroke="white" stroke-width="1.5" d="M0,-3.0v7 M-2.5,-0.5L0,-3.0L2.5,-0.5"/>
                </g>
                <g id="arrowRight" xlink:href="#dirArrow" transform="rotate(90) translate(36 -43)" onmousedown="handlePan(1,0)">
                  <use xlink:href="#rim" fill="#404040">
                        <set attributeName="fill" to="#808080" begin="arrowRight.mouseover" end="arrowRight.mouseout"/>
                  </use>
                  <path fill="none" stroke="white" stroke-width="1.5" d="M0,-3.0v7 M-2.5,-0.5L0,-3.0L2.5,-0.5"/>
                </g>
                <g id="arrowDown" xlink:href="#dirArrow" transform="rotate(180) translate(-30 -48)" onmousedown="handlePan(0,1)">
                  <use xlink:href="#rim" fill="#404040">
                        <set attributeName="fill" to="#808080" begin="arrowDown.mouseover" end="arrowDown.mouseout"/>
                  </use>
                  <path fill="none" stroke="white" stroke-width="1.5" d="M0,-3.0v7 M-2.5,-0.5L0,-3.0L2.5,-0.5"/>
                </g>
                <g id="arrowLeft" xlink:href="#dirArrow" transform="rotate(270) translate(-36 17)" onmousedown="handlePan(-1,0)">
                  <use xlink:href="#rim" fill="#404040">
                        <set attributeName="fill" to="#808080" begin="arrowLeft.mouseover" end="arrowLeft.mouseout"/>
                  </use>
                  <path fill="none" stroke="white" stroke-width="1.5" d="M0,-3.0v7 M-2.5,-0.5L0,-3.0L2.5,-0.5"/>
                </g>
        </g>
        <svg viewBox="0 0 15 15" width="100%" height="30px" preserveAspectRatio="xMaxYMin meet">
         <g id="arrow_out" transform="scale(0.3 0.3)">
          <a xlink:href="bmhtf-nacl__tcl_8cpp__incl_org.svg" target="_base">
           <rect id="button" ry="5" rx="5" y="6" x="6" height="38" width="38"
                fill="#f2f5e9" fill-opacity="0.5" stroke="#606060" stroke-width="1.0"/>
           <path id="arrow"
             d="M 11.500037,31.436501 C 11.940474,20.09759 22.043105,11.32322 32.158766,21.979434 L 37.068811,17.246167 C 37.068811,17.246167 37.088388,32 37.088388,32 L 22.160133,31.978069 C 22.160133,31.978069 26.997745,27.140456 26.997745,27.140456 C 18.528582,18.264221 13.291696,25.230495 11.500037,31.436501 z"
             style="fill:#404040;"/>
          </a>
         </g>
        </svg>
</svg>
