<?xml version="1.0" encoding="UTF-8" standalone="no"?>
<!DOCTYPE svg PUBLIC "-//W3C//DTD SVG 1.1//EN"
 "http://www.w3.org/Graphics/SVG/1.1/DTD/svg11.dtd">
<!-- Generated by graphviz version 2.38.0 (20140413.2041)
 -->
<!-- Title: buckingham.hpp Pages: 1 -->
<!--zoomable 207 -->
<svg id="main" version="1.1" xmlns="http://www.w3.org/2000/svg" xmlns:xlink="http://www.w3.org/1999/xlink" xml:space="preserve" onload="init(evt)">
<style type="text/css"><![CDATA[
.edge:hover path { stroke: red; }
.edge:hover polygon { stroke: red; fill: red; }
]]></style>
<script type="text/javascript"><![CDATA[
var edges = document.getElementsByTagName('g');
if (edges && edges.length) {
  for (var i=0;i<edges.length;i++) {
    if (edges[i].id.substr(0,4)=='edge') {
      edges[i].setAttribute('class','edge');
    }
  }
}
]]></script>
        <defs>
                <circle id="rim" cx="0" cy="0" r="7"/>
                <circle id="rim2" cx="0" cy="0" r="3.5"/>
                <g id="zoomPlus">
                        <use xlink:href="#rim" fill="#404040">
                                <set attributeName="fill" to="#808080" begin="zoomplus.mouseover" end="zoomplus.mouseout"/>
                        </use>
                        <path d="M-4,0h8M0,-4v8" fill="none" stroke="white" stroke-width="1.5" pointer-events="none"/>
                </g>
                <g id="zoomMin">
                        <use xlink:href="#rim" fill="#404040">
                                <set attributeName="fill" to="#808080" begin="zoomminus.mouseover" end="zoomminus.mouseout"/>
                        </use>
                        <path d="M-4,0h8" fill="none" stroke="white" stroke-width="1.5" pointer-events="none"/>
                </g>
                <g id="dirArrow">
                        <path fill="none" stroke="white" stroke-width="1.5" d="M0,-3.0v7 M-2.5,-0.5L0,-3.0L2.5,-0.5"/>
                </g>
               <g id="resetDef">
                       <use xlink:href="#rim2" fill="#404040">
                               <set attributeName="fill" to="#808080" begin="reset.mouseover" end="reset.mouseout"/>
                       </use>
               </g>
        </defs>

<script type="text/javascript">
var viewWidth = 2284;
var viewHeight = 207;
var sectionId = 'dynsection-1';
</script>
<script xlink:href="svgpan.js"/>
<svg id="graph" class="graph">
<g id="viewport">
<title>buckingham.hpp</title>
<!-- Node1 -->
<g id="node1" class="node"><title>Node1</title>
<polygon fill="#bfbfbf" stroke="black" points="1801,-179.5 1801,-198.5 1899,-198.5 1899,-179.5 1801,-179.5"/>
<text text-anchor="middle" x="1850" y="-186.5" font-family="Helvetica,sans-Serif" font-size="10.00">buckingham.hpp</text>
</g>
<!-- Node2 -->
<g id="node2" class="node"><title>Node2</title>
<g id="a_node2"><a xlink:href="buckingham_8cpp.html" target="_top" xlink:title="Implementation of buckingham.hpp. ">
<polygon fill="none" stroke="black" points="1248.5,-123.5 1248.5,-142.5 1345.5,-142.5 1345.5,-123.5 1248.5,-123.5"/>
<text text-anchor="middle" x="1297" y="-130.5" font-family="Helvetica,sans-Serif" font-size="10.00">buckingham.cpp</text>
</a>
</g>
</g>
<!-- Node1&#45;&gt;Node2 -->
<g id="edge1" class="edge"><title>Node1&#45;&gt;Node2</title>
<path fill="none" stroke="midnightblue" d="M1790.91,-183.539C1698.73,-176.362 1515.18,-161.198 1360,-143 1355.39,-142.46 1350.6,-141.854 1345.81,-141.22"/>
<polygon fill="midnightblue" stroke="midnightblue" points="1790.64,-187.029 1800.88,-184.312 1791.18,-180.05 1790.64,-187.029"/>
</g>
<!-- Node3 -->
<g id="node3" class="node"><title>Node3</title>
<g id="a_node3"><a xlink:href="forces__inline_8hpp.html" target="_top" xlink:title="forces_inline.hpp">
<polygon fill="none" stroke="black" points="1402,-123.5 1402,-142.5 1502,-142.5 1502,-123.5 1402,-123.5"/>
<text text-anchor="middle" x="1452" y="-130.5" font-family="Helvetica,sans-Serif" font-size="10.00">forces_inline.hpp</text>
</a>
</g>
</g>
<!-- Node1&#45;&gt;Node3 -->
<g id="edge2" class="edge"><title>Node1&#45;&gt;Node3</title>
<path fill="none" stroke="midnightblue" d="M1790.6,-179.94C1712.17,-169.299 1575.45,-150.75 1502.03,-140.788"/>
<polygon fill="midnightblue" stroke="midnightblue" points="1790.42,-183.448 1800.8,-181.324 1791.36,-176.512 1790.42,-183.448"/>
</g>
<!-- Node5 -->
<g id="node5" class="node"><title>Node5</title>
<g id="a_node5"><a xlink:href="communication_8cpp.html" target="_top" xlink:title="communication.cpp">
<polygon fill="none" stroke="black" points="2028.5,-6 2028.5,-25 2141.5,-25 2141.5,-6 2028.5,-6"/>
<text text-anchor="middle" x="2085" y="-13" font-family="Helvetica,sans-Serif" font-size="10.00">communication.cpp</text>
</a>
</g>
</g>
<!-- Node1&#45;&gt;Node5 -->
<g id="edge29" class="edge"><title>Node1&#45;&gt;Node5</title>
<path fill="none" stroke="midnightblue" d="M1847.98,-169.055C1846.29,-142.551 1847.49,-94.5661 1874,-67 1877.04,-63.8438 1987.05,-38.6154 2046.98,-25.0545"/>
<polygon fill="midnightblue" stroke="midnightblue" points="1844.52,-169.608 1848.85,-179.274 1851.49,-169.013 1844.52,-169.608"/>
</g>
<!-- Node11 -->
<g id="node11" class="node"><title>Node11</title>
<g id="a_node11"><a xlink:href="interaction__data_8cpp.html" target="_top" xlink:title="Implementation of interaction_data.hpp. ">
<polygon fill="none" stroke="black" points="2160,-6 2160,-25 2276,-25 2276,-6 2160,-6"/>
<text text-anchor="middle" x="2218" y="-13" font-family="Helvetica,sans-Serif" font-size="10.00">interaction_data.cpp</text>
</a>
</g>
</g>
<!-- Node1&#45;&gt;Node11 -->
<g id="edge37" class="edge"><title>Node1&#45;&gt;Node11</title>
<path fill="none" stroke="midnightblue" d="M1861.41,-170.515C1871.74,-155.947 1888.18,-135.612 1907,-123 1954.35,-91.2685 2117.15,-44.2154 2186.41,-25.0698"/>
<polygon fill="midnightblue" stroke="midnightblue" points="1858.29,-168.882 1855.55,-179.116 1864.07,-172.826 1858.29,-168.882"/>
</g>
<!-- Node27 -->
<g id="node27" class="node"><title>Node27</title>
<g id="a_node27"><a xlink:href="energy__inline_8hpp.html" target="_top" xlink:title="Implementation of the energy calculation. ">
<polygon fill="none" stroke="black" points="341,-67.5 341,-86.5 445,-86.5 445,-67.5 341,-67.5"/>
<text text-anchor="middle" x="393" y="-74.5" font-family="Helvetica,sans-Serif" font-size="10.00">energy_inline.hpp</text>
</a>
</g>
</g>
<!-- Node1&#45;&gt;Node27 -->
<g id="edge30" class="edge"><title>Node1&#45;&gt;Node27</title>
<path fill="none" stroke="midnightblue" d="M1790.52,-184.914C1684.24,-178.941 1466,-164.467 1393,-143 1374.31,-137.504 1372.82,-128.014 1354,-123 1266.14,-99.5971 632.465,-83.4492 445.066,-79.1462"/>
<polygon fill="midnightblue" stroke="midnightblue" points="1790.58,-188.423 1800.76,-185.483 1790.97,-181.433 1790.58,-188.423"/>
</g>
<!-- Node29 -->
<g id="node29" class="node"><title>Node29</title>
<g id="a_node29"><a xlink:href="buckingham__tcl_8cpp.html" target="_top" xlink:title="Implementation of buckingham_tcl.hpp. ">
<polygon fill="none" stroke="black" points="1916,-123.5 1916,-142.5 2030,-142.5 2030,-123.5 1916,-123.5"/>
<text text-anchor="middle" x="1973" y="-130.5" font-family="Helvetica,sans-Serif" font-size="10.00">buckingham_tcl.cpp</text>
</a>
</g>
</g>
<!-- Node1&#45;&gt;Node29 -->
<g id="edge38" class="edge"><title>Node1&#45;&gt;Node29</title>
<path fill="none" stroke="midnightblue" d="M1878.77,-175.368C1901.81,-165.255 1933.48,-151.349 1953.6,-142.516"/>
<polygon fill="midnightblue" stroke="midnightblue" points="1877.24,-172.219 1869.49,-179.444 1880.05,-178.628 1877.24,-172.219"/>
</g>
<!-- Node30 -->
<g id="node30" class="node"><title>Node30</title>
<g id="a_node30"><a xlink:href="interaction__data__tcl_8cpp.html" target="_top" xlink:title="interaction_data_tcl.cpp">
<polygon fill="none" stroke="black" points="2048,-123.5 2048,-142.5 2182,-142.5 2182,-123.5 2048,-123.5"/>
<text text-anchor="middle" x="2115" y="-130.5" font-family="Helvetica,sans-Serif" font-size="10.00">interaction_data_tcl.cpp</text>
</a>
</g>
</g>
<!-- Node1&#45;&gt;Node30 -->
<g id="edge39" class="edge"><title>Node1&#45;&gt;Node30</title>
<path fill="none" stroke="midnightblue" d="M1901.97,-177.41C1952.05,-167.204 2026.86,-151.96 2073.21,-142.516"/>
<polygon fill="midnightblue" stroke="midnightblue" points="1901.09,-174.017 1891.99,-179.444 1902.49,-180.876 1901.09,-174.017"/>
</g>
<!-- Node4 -->
<g id="node4" class="node"><title>Node4</title>
<g id="a_node4"><a xlink:href="pressure_8hpp.html" target="_top" xlink:title="Pressure calculation. ">
<polygon fill="none" stroke="black" points="1189,-67.5 1189,-86.5 1269,-86.5 1269,-67.5 1189,-67.5"/>
<text text-anchor="middle" x="1229" y="-74.5" font-family="Helvetica,sans-Serif" font-size="10.00">pressure.hpp</text>
</a>
</g>
</g>
<!-- Node3&#45;&gt;Node4 -->
<g id="edge3" class="edge"><title>Node3&#45;&gt;Node4</title>
<path fill="none" stroke="midnightblue" d="M1406.94,-121.088C1364.81,-110.887 1302.76,-95.8612 1264.17,-86.5164"/>
<polygon fill="midnightblue" stroke="midnightblue" points="1406.12,-124.492 1416.66,-123.444 1407.77,-117.688 1406.12,-124.492"/>
</g>
<!-- Node12 -->
<g id="node12" class="node"><title>Node12</title>
<g id="a_node12"><a xlink:href="layered_8cpp.html" target="_top" xlink:title="Implementation of layered.h. ">
<polygon fill="none" stroke="black" points="444,-6 444,-25 518,-25 518,-6 444,-6"/>
<text text-anchor="middle" x="481" y="-13" font-family="Helvetica,sans-Serif" font-size="10.00">layered.cpp</text>
</a>
</g>
</g>
<!-- Node3&#45;&gt;Node12 -->
<g id="edge28" class="edge"><title>Node3&#45;&gt;Node12</title>
<path fill="none" stroke="midnightblue" d="M1391.8,-123.476C1390.52,-123.314 1389.25,-123.155 1388,-123 1006.07,-75.7533 903.716,-109.682 527,-31 519.787,-29.4935 512.097,-27.3093 505.111,-25.0914"/>
<polygon fill="midnightblue" stroke="midnightblue" points="1391.34,-126.946 1401.71,-124.767 1392.25,-120.005 1391.34,-126.946"/>
</g>
<!-- Node21 -->
<g id="node21" class="node"><title>Node21</title>
<g id="a_node21"><a xlink:href="minimize__energy_8hpp.html" target="_top" xlink:title="minimize_energy.hpp">
<polygon fill="none" stroke="black" points="1613.5,-67.5 1613.5,-86.5 1734.5,-86.5 1734.5,-67.5 1613.5,-67.5"/>
<text text-anchor="middle" x="1674" y="-74.5" font-family="Helvetica,sans-Serif" font-size="10.00">minimize_energy.hpp</text>
</a>
</g>
</g>
<!-- Node3&#45;&gt;Node21 -->
<g id="edge20" class="edge"><title>Node3&#45;&gt;Node21</title>
<path fill="none" stroke="midnightblue" d="M1497.12,-121.024C1539.06,-110.823 1600.65,-95.8414 1638.99,-86.5164"/>
<polygon fill="midnightblue" stroke="midnightblue" points="1496.07,-117.679 1487.18,-123.444 1497.72,-124.481 1496.07,-117.679"/>
</g>
<!-- Node24 -->
<g id="node24" class="node"><title>Node24</title>
<g id="a_node24"><a xlink:href="constraint_8cpp.html" target="_top" xlink:title="Implementation of constraint.hpp, here it&#39;s just the parsing stuff. ">
<polygon fill="none" stroke="black" points="0,-6 0,-25 86,-25 86,-6 0,-6"/>
<text text-anchor="middle" x="43" y="-13" font-family="Helvetica,sans-Serif" font-size="10.00">constraint.cpp</text>
</a>
</g>
</g>
<!-- Node3&#45;&gt;Node24 -->
<g id="edge25" class="edge"><title>Node3&#45;&gt;Node24</title>
<path fill="none" stroke="midnightblue" d="M1391.65,-125.919C1379.21,-124.817 1366.19,-123.774 1354,-123 900.409,-94.2059 782.452,-147.551 332,-87 233.726,-73.7898 120.3,-40.7386 69.7298,-25.0387"/>
<polygon fill="midnightblue" stroke="midnightblue" points="1391.66,-129.434 1401.94,-126.854 1392.29,-122.463 1391.66,-129.434"/>
</g>
<!-- Node25 -->
<g id="node25" class="node"><title>Node25</title>
<g id="a_node25"><a xlink:href="forces_8cpp.html" target="_top" xlink:title="Force calculation. ">
<polygon fill="none" stroke="black" points="1103.5,-67.5 1103.5,-86.5 1170.5,-86.5 1170.5,-67.5 1103.5,-67.5"/>
<text text-anchor="middle" x="1137" y="-74.5" font-family="Helvetica,sans-Serif" font-size="10.00">forces.cpp</text>
</a>
</g>
</g>
<!-- Node3&#45;&gt;Node25 -->
<g id="edge26" class="edge"><title>Node3&#45;&gt;Node25</title>
<path fill="none" stroke="midnightblue" d="M1391.79,-122.789C1336.59,-114.166 1252.63,-100.603 1180,-87 1177,-86.4384 1173.89,-85.8326 1170.77,-85.21"/>
<polygon fill="midnightblue" stroke="midnightblue" points="1391.34,-126.26 1401.76,-124.341 1392.41,-119.344 1391.34,-126.26"/>
</g>
<!-- Node26 -->
<g id="node26" class="node"><title>Node26</title>
<g id="a_node26"><a xlink:href="ghosts_8cpp.html" target="_top" xlink:title="Ghost particles and particle exchange. ">
<polygon fill="none" stroke="black" points="1752.5,-67.5 1752.5,-86.5 1821.5,-86.5 1821.5,-67.5 1752.5,-67.5"/>
<text text-anchor="middle" x="1787" y="-74.5" font-family="Helvetica,sans-Serif" font-size="10.00">ghosts.cpp</text>
</a>
</g>
</g>
<!-- Node3&#45;&gt;Node26 -->
<g id="edge27" class="edge"><title>Node3&#45;&gt;Node26</title>
<path fill="none" stroke="midnightblue" d="M1512.32,-123.541C1571.27,-115.069 1663.49,-101.27 1743,-87 1746.07,-86.449 1749.25,-85.8505 1752.44,-85.2327"/>
<polygon fill="midnightblue" stroke="midnightblue" points="1511.47,-120.126 1502.07,-125.008 1512.46,-127.055 1511.47,-120.126"/>
</g>
<!-- Node4&#45;&gt;Node5 -->
<g id="edge4" class="edge"><title>Node4&#45;&gt;Node5</title>
<path fill="none" stroke="midnightblue" d="M1279.15,-75.9075C1404.5,-75.0777 1741.34,-69.16 2019,-31 2029.46,-29.5624 2040.72,-27.3435 2050.93,-25.0703"/>
<polygon fill="midnightblue" stroke="midnightblue" points="1279.07,-72.4078 1269.09,-75.966 1279.11,-79.4077 1279.07,-72.4078"/>
</g>
<!-- Node6 -->
<g id="node6" class="node"><title>Node6</title>
<g id="a_node6"><a xlink:href="domain__decomposition_8cpp.html" target="_top" xlink:title="This file contains everything related to the cell system: domain decomposition. ">
<polygon fill="none" stroke="black" points="191.5,-6 191.5,-25 342.5,-25 342.5,-6 191.5,-6"/>
<text text-anchor="middle" x="267" y="-13" font-family="Helvetica,sans-Serif" font-size="10.00">domain_decomposition.cpp</text>
</a>
</g>
</g>
<!-- Node4&#45;&gt;Node6 -->
<g id="edge5" class="edge"><title>Node4&#45;&gt;Node6</title>
<path fill="none" stroke="midnightblue" d="M1179.3,-67.0341C1179.2,-67.0226 1179.1,-67.0113 1179,-67 812.91,-26.2808 717.233,-70.4086 351,-31 337.61,-29.5592 323.126,-27.3105 310.017,-25.0104"/>
<polygon fill="midnightblue" stroke="midnightblue" points="1178.58,-70.4691 1188.95,-68.3017 1179.49,-63.5287 1178.58,-70.4691"/>
</g>
<!-- Node7 -->
<g id="node7" class="node"><title>Node7</title>
<g id="a_node7"><a xlink:href="elc_8cpp.html" target="_top" xlink:title="For more information about ELC, see elc.hpp. ">
<polygon fill="none" stroke="black" points="1255.5,-6 1255.5,-25 1306.5,-25 1306.5,-6 1255.5,-6"/>
<text text-anchor="middle" x="1281" y="-13" font-family="Helvetica,sans-Serif" font-size="10.00">elc.cpp</text>
</a>
</g>
</g>
<!-- Node4&#45;&gt;Node7 -->
<g id="edge6" class="edge"><title>Node4&#45;&gt;Node7</title>
<path fill="none" stroke="midnightblue" d="M1243.27,-59.6685C1253.08,-48.452 1265.69,-34.0161 1273.56,-25.0091"/>
<polygon fill="midnightblue" stroke="midnightblue" points="1240.4,-57.6422 1236.45,-67.4751 1245.67,-62.2486 1240.4,-57.6422"/>
</g>
<!-- Node8 -->
<g id="node8" class="node"><title>Node8</title>
<g id="a_node8"><a xlink:href="initialize_8cpp.html" target="_top" xlink:title="Implementation of initialize.hpp. ">
<polygon fill="none" stroke="black" points="1324.5,-6 1324.5,-25 1403.5,-25 1403.5,-6 1324.5,-6"/>
<text text-anchor="middle" x="1364" y="-13" font-family="Helvetica,sans-Serif" font-size="10.00">initialize.cpp</text>
</a>
</g>
</g>
<!-- Node4&#45;&gt;Node8 -->
<g id="edge7" class="edge"><title>Node4&#45;&gt;Node8</title>
<path fill="none" stroke="midnightblue" d="M1257.75,-63.3272C1283.96,-51.7761 1321.95,-35.0316 1344.69,-25.0091"/>
<polygon fill="midnightblue" stroke="midnightblue" points="1256.08,-60.2392 1248.34,-67.4751 1258.9,-66.6447 1256.08,-60.2392"/>
</g>
<!-- Node9 -->
<g id="node9" class="node"><title>Node9</title>
<g id="a_node9"><a xlink:href="core_2integrate_8cpp.html" target="_top" xlink:title="integrate.cpp">
<polygon fill="none" stroke="black" points="1633.5,-6 1633.5,-25 1714.5,-25 1714.5,-6 1633.5,-6"/>
<text text-anchor="middle" x="1674" y="-13" font-family="Helvetica,sans-Serif" font-size="10.00">integrate.cpp</text>
</a>
</g>
</g>
<!-- Node4&#45;&gt;Node9 -->
<g id="edge8" class="edge"><title>Node4&#45;&gt;Node9</title>
<path fill="none" stroke="midnightblue" d="M1279.32,-72.9977C1354.79,-67.8813 1501.52,-55.5535 1624,-31 1631.8,-29.4367 1640.14,-27.2347 1647.74,-25.018"/>
<polygon fill="midnightblue" stroke="midnightblue" points="1278.9,-69.5178 1269.15,-73.6723 1279.36,-76.5024 1278.9,-69.5178"/>
</g>
<!-- Node10 -->
<g id="node10" class="node"><title>Node10</title>
<g id="a_node10"><a xlink:href="integrate__sd_8cpp.html" target="_top" xlink:title="Stokesian dynamics integrator. ">
<polygon fill="none" stroke="black" points="1421,-6 1421,-25 1519,-25 1519,-6 1421,-6"/>
<text text-anchor="middle" x="1470" y="-13" font-family="Helvetica,sans-Serif" font-size="10.00">integrate_sd.cpp</text>
</a>
</g>
</g>
<!-- Node4&#45;&gt;Node10 -->
<g id="edge9" class="edge"><title>Node4&#45;&gt;Node10</title>
<path fill="none" stroke="midnightblue" d="M1273.73,-65.0509C1310.79,-55.9683 1364.83,-42.6954 1412,-31 1419.76,-29.0766 1428.1,-26.9984 1435.96,-25.0326"/>
<polygon fill="midnightblue" stroke="midnightblue" points="1272.63,-61.7174 1263.75,-67.4968 1274.3,-68.5163 1272.63,-61.7174"/>
</g>
<!-- Node4&#45;&gt;Node11 -->
<g id="edge10" class="edge"><title>Node4&#45;&gt;Node11</title>
<path fill="none" stroke="midnightblue" d="M1279.67,-74.6021C1446.79,-69.8229 1979.52,-53.1938 2150,-31 2160.89,-29.582 2172.63,-27.3399 2183.24,-25.0388"/>
<polygon fill="midnightblue" stroke="midnightblue" points="1279.1,-71.117 1269.2,-74.8997 1279.3,-78.1141 1279.1,-71.117"/>
</g>
<!-- Node4&#45;&gt;Node12 -->
<g id="edge11" class="edge"><title>Node4&#45;&gt;Node12</title>
<path fill="none" stroke="midnightblue" d="M1179.3,-67.0358C1179.2,-67.0238 1179.1,-67.0119 1179,-67 890.752,-33.2296 812.517,-83.0317 527,-31 519.421,-29.6189 511.349,-27.3577 504.116,-25.0275"/>
<polygon fill="midnightblue" stroke="midnightblue" points="1178.57,-70.4679 1188.95,-68.3434 1179.51,-63.5314 1178.57,-70.4679"/>
</g>
<!-- Node13 -->
<g id="node13" class="node"><title>Node13</title>
<g id="a_node13"><a xlink:href="nsquare_8cpp.html" target="_top" xlink:title="Implementation of nsquare.h. ">
<polygon fill="none" stroke="black" points="536,-6 536,-25 612,-25 612,-6 536,-6"/>
<text text-anchor="middle" x="574" y="-13" font-family="Helvetica,sans-Serif" font-size="10.00">nsquare.cpp</text>
</a>
</g>
</g>
<!-- Node4&#45;&gt;Node13 -->
<g id="edge12" class="edge"><title>Node4&#45;&gt;Node13</title>
<path fill="none" stroke="midnightblue" d="M1179.3,-67.0372C1179.2,-67.0247 1179.1,-67.0123 1179,-67 932.309,-36.9388 865.418,-75.9406 621,-31 613.441,-29.6102 605.388,-27.4055 598.123,-25.1306"/>
<polygon fill="midnightblue" stroke="midnightblue" points="1178.56,-70.467 1188.94,-68.3763 1179.52,-63.5336 1178.56,-70.467"/>
</g>
<!-- Node14 -->
<g id="node14" class="node"><title>Node14</title>
<g id="a_node14"><a xlink:href="pressure_8cpp.html" target="_top" xlink:title="Implementation of pressure.h. ">
<polygon fill="none" stroke="black" points="1536.5,-6 1536.5,-25 1615.5,-25 1615.5,-6 1536.5,-6"/>
<text text-anchor="middle" x="1576" y="-13" font-family="Helvetica,sans-Serif" font-size="10.00">pressure.cpp</text>
</a>
</g>
</g>
<!-- Node4&#45;&gt;Node14 -->
<g id="edge13" class="edge"><title>Node4&#45;&gt;Node14</title>
<path fill="none" stroke="midnightblue" d="M1279.79,-70.6157C1339.61,-63.7544 1441.76,-50.4089 1528,-31 1535.3,-29.3562 1543.12,-27.1804 1550.27,-25.0156"/>
<polygon fill="midnightblue" stroke="midnightblue" points="1279.03,-67.1794 1269.48,-71.7813 1279.81,-74.135 1279.03,-67.1794"/>
</g>
<!-- Node15 -->
<g id="node15" class="node"><title>Node15</title>
<g id="a_node15"><a xlink:href="statistics_8cpp.html" target="_top" xlink:title="This is the place for analysis (so far...). ">
<polygon fill="none" stroke="black" points="630.5,-6 630.5,-25 711.5,-25 711.5,-6 630.5,-6"/>
<text text-anchor="middle" x="671" y="-13" font-family="Helvetica,sans-Serif" font-size="10.00">statistics.cpp</text>
</a>
</g>
</g>
<!-- Node4&#45;&gt;Node15 -->
<g id="edge14" class="edge"><title>Node4&#45;&gt;Node15</title>
<path fill="none" stroke="midnightblue" d="M1179.3,-67.0393C1179.2,-67.0262 1179.1,-67.013 1179,-67 976.494,-40.8817 921.872,-67.6251 721,-31 712.998,-29.5409 704.442,-27.3156 696.711,-25.0431"/>
<polygon fill="midnightblue" stroke="midnightblue" points="1178.54,-70.4655 1188.94,-68.4262 1179.54,-63.5369 1178.54,-70.4655"/>
</g>
<!-- Node16 -->
<g id="node16" class="node"><title>Node16</title>
<g id="a_node16"><a xlink:href="statistics__observable_8cpp.html" target="_top" xlink:title="statistics_observable.cpp">
<polygon fill="none" stroke="black" points="730,-6 730,-25 870,-25 870,-6 730,-6"/>
<text text-anchor="middle" x="800" y="-13" font-family="Helvetica,sans-Serif" font-size="10.00">statistics_observable.cpp</text>
</a>
</g>
</g>
<!-- Node4&#45;&gt;Node16 -->
<g id="edge15" class="edge"><title>Node4&#45;&gt;Node16</title>
<path fill="none" stroke="midnightblue" d="M1179.3,-67.0455C1179.2,-67.0303 1179.1,-67.0151 1179,-67 1046.19,-47.0965 1011.77,-51.1313 879,-31 867.557,-29.265 855.23,-27.1308 843.794,-25.0387"/>
<polygon fill="midnightblue" stroke="midnightblue" points="1178.49,-70.4605 1188.92,-68.5716 1179.59,-63.5471 1178.49,-70.4605"/>
</g>
<!-- Node17 -->
<g id="node17" class="node"><title>Node17</title>
<g id="a_node17"><a xlink:href="verlet_8cpp.html" target="_top" xlink:title="Verlet list. ">
<polygon fill="none" stroke="black" points="360.5,-6 360.5,-25 425.5,-25 425.5,-6 360.5,-6"/>
<text text-anchor="middle" x="393" y="-13" font-family="Helvetica,sans-Serif" font-size="10.00">verlet.cpp</text>
</a>
</g>
</g>
<!-- Node4&#45;&gt;Node17 -->
<g id="edge16" class="edge"><title>Node4&#45;&gt;Node17</title>
<path fill="none" stroke="midnightblue" d="M1179.3,-67.0348C1179.2,-67.0231 1179.1,-67.0115 1179,-67 850.066,-29.5978 760.072,-93.6485 435,-31 428.031,-29.657 420.647,-27.4066 414.046,-25.0744"/>
<polygon fill="midnightblue" stroke="midnightblue" points="1178.58,-70.4686 1188.95,-68.3191 1179.5,-63.5299 1178.58,-70.4686"/>
</g>
<!-- Node18 -->
<g id="node18" class="node"><title>Node18</title>
<g id="a_node18"><a xlink:href="virtual__sites_8cpp.html" target="_top" xlink:title="virtual_sites.cpp">
<polygon fill="none" stroke="black" points="888.5,-6 888.5,-25 985.5,-25 985.5,-6 888.5,-6"/>
<text text-anchor="middle" x="937" y="-13" font-family="Helvetica,sans-Serif" font-size="10.00">virtual_sites.cpp</text>
</a>
</g>
</g>
<!-- Node4&#45;&gt;Node18 -->
<g id="edge17" class="edge"><title>Node4&#45;&gt;Node18</title>
<path fill="none" stroke="midnightblue" d="M1178.94,-66.7083C1121.05,-55.902 1029.3,-38.5787 995,-31 986.791,-29.1859 977.97,-27.0682 969.746,-25.0206"/>
<polygon fill="midnightblue" stroke="midnightblue" points="1178.52,-70.1885 1188.99,-68.5808 1179.8,-63.3071 1178.52,-70.1885"/>
</g>
<!-- Node19 -->
<g id="node19" class="node"><title>Node19</title>
<g id="a_node19"><a xlink:href="pressure__tcl_8cpp.html" target="_top" xlink:title="pressure_tcl.cpp">
<polygon fill="none" stroke="black" points="1004,-6 1004,-25 1100,-25 1100,-6 1004,-6"/>
<text text-anchor="middle" x="1052" y="-13" font-family="Helvetica,sans-Serif" font-size="10.00">pressure_tcl.cpp</text>
</a>
</g>
</g>
<!-- Node4&#45;&gt;Node19 -->
<g id="edge18" class="edge"><title>Node4&#45;&gt;Node19</title>
<path fill="none" stroke="midnightblue" d="M1193.99,-64.232C1159.59,-52.666 1107.92,-35.2966 1077.31,-25.0091"/>
<polygon fill="midnightblue" stroke="midnightblue" points="1193.05,-67.6062 1203.64,-67.4751 1195.28,-60.9711 1193.05,-67.6062"/>
</g>
<!-- Node20 -->
<g id="node20" class="node"><title>Node20</title>
<g id="a_node20"><a xlink:href="statistics__observable__tcl_8cpp.html" target="_top" xlink:title="statistics_observable\l_tcl.cpp">
<polygon fill="none" stroke="black" points="1118,-0.5 1118,-30.5 1238,-30.5 1238,-0.5 1118,-0.5"/>
<text text-anchor="start" x="1126" y="-18.5" font-family="Helvetica,sans-Serif" font-size="10.00">statistics_observable</text>
<text text-anchor="middle" x="1178" y="-7.5" font-family="Helvetica,sans-Serif" font-size="10.00">_tcl.cpp</text>
</a>
</g>
</g>
<!-- Node4&#45;&gt;Node20 -->
<g id="edge19" class="edge"><title>Node4&#45;&gt;Node20</title>
<path fill="none" stroke="midnightblue" d="M1215.12,-59.8108C1207.27,-50.6486 1197.55,-39.3032 1190.02,-30.523"/>
<polygon fill="midnightblue" stroke="midnightblue" points="1212.53,-62.1603 1221.69,-67.4751 1217.84,-57.6047 1212.53,-62.1603"/>
</g>
<!-- Node21&#45;&gt;Node5 -->
<g id="edge21" class="edge"><title>Node21&#45;&gt;Node5</title>
<path fill="none" stroke="midnightblue" d="M1744.97,-66.7453C1845.89,-53.5849 2018.79,-31.0368 2019,-31 2028.71,-29.3038 2039.15,-27.1596 2048.8,-25.044"/>
<polygon fill="midnightblue" stroke="midnightblue" points="1744.3,-63.3029 1734.84,-68.0667 1745.21,-70.2441 1744.3,-63.3029"/>
</g>
<!-- Node21&#45;&gt;Node9 -->
<g id="edge22" class="edge"><title>Node21&#45;&gt;Node9</title>
<path fill="none" stroke="midnightblue" d="M1674,-57.3165C1674,-46.4962 1674,-33.398 1674,-25.0091"/>
<polygon fill="midnightblue" stroke="midnightblue" points="1670.5,-57.4751 1674,-67.4751 1677.5,-57.4751 1670.5,-57.4751"/>
</g>
<!-- Node22 -->
<g id="node22" class="node"><title>Node22</title>
<g id="a_node22"><a xlink:href="minimize__energy_8cpp.html" target="_top" xlink:title="minimize_energy.cpp">
<polygon fill="none" stroke="black" points="1733,-6 1733,-25 1853,-25 1853,-6 1733,-6"/>
<text text-anchor="middle" x="1793" y="-13" font-family="Helvetica,sans-Serif" font-size="10.00">minimize_energy.cpp</text>
</a>
</g>
</g>
<!-- Node21&#45;&gt;Node22 -->
<g id="edge23" class="edge"><title>Node21&#45;&gt;Node22</title>
<path fill="none" stroke="midnightblue" d="M1700.27,-62.8665C1723.33,-51.3347 1756.2,-34.8992 1775.98,-25.0091"/>
<polygon fill="midnightblue" stroke="midnightblue" points="1698.43,-59.8724 1691.05,-67.4751 1701.56,-66.1334 1698.43,-59.8724"/>
</g>
<!-- Node23 -->
<g id="node23" class="node"><title>Node23</title>
<g id="a_node23"><a xlink:href="minimize__energy__tcl_8cpp.html" target="_top" xlink:title="minimize_energy_tcl.cpp">
<polygon fill="none" stroke="black" points="1871.5,-6 1871.5,-25 2010.5,-25 2010.5,-6 1871.5,-6"/>
<text text-anchor="middle" x="1941" y="-13" font-family="Helvetica,sans-Serif" font-size="10.00">minimize_energy_tcl.cpp</text>
</a>
</g>
</g>
<!-- Node21&#45;&gt;Node23 -->
<g id="edge24" class="edge"><title>Node21&#45;&gt;Node23</title>
<path fill="none" stroke="midnightblue" d="M1722.2,-65.2584C1774,-53.716 1855.27,-35.6056 1902.82,-25.0091"/>
<polygon fill="midnightblue" stroke="midnightblue" points="1721.25,-61.8837 1712.25,-67.4751 1722.78,-68.7161 1721.25,-61.8837"/>
</g>
<!-- Node27&#45;&gt;Node6 -->
<g id="edge32" class="edge"><title>Node27&#45;&gt;Node6</title>
<path fill="none" stroke="midnightblue" d="M365.84,-63.1742C341.39,-51.6287 306.15,-34.9875 285.019,-25.0091"/>
<polygon fill="midnightblue" stroke="midnightblue" points="364.41,-66.3699 374.947,-67.4751 367.399,-60.0401 364.41,-66.3699"/>
</g>
<!-- Node27&#45;&gt;Node12 -->
<g id="edge34" class="edge"><title>Node27&#45;&gt;Node12</title>
<path fill="none" stroke="midnightblue" d="M414.279,-61.6127C431.204,-50.1691 454.31,-34.546 468.415,-25.0091"/>
<polygon fill="midnightblue" stroke="midnightblue" points="411.932,-58.9744 405.608,-67.4751 415.853,-64.7733 411.932,-58.9744"/>
</g>
<!-- Node27&#45;&gt;Node13 -->
<g id="edge35" class="edge"><title>Node27&#45;&gt;Node13</title>
<path fill="none" stroke="midnightblue" d="M428.798,-64.232C463.982,-52.666 516.821,-35.2966 548.115,-25.0091"/>
<polygon fill="midnightblue" stroke="midnightblue" points="427.34,-61.0272 418.933,-67.4751 429.526,-67.6771 427.34,-61.0272"/>
</g>
<!-- Node27&#45;&gt;Node17 -->
<g id="edge36" class="edge"><title>Node27&#45;&gt;Node17</title>
<path fill="none" stroke="midnightblue" d="M393,-57.3165C393,-46.4962 393,-33.398 393,-25.0091"/>
<polygon fill="midnightblue" stroke="midnightblue" points="389.5,-57.4751 393,-67.4751 396.5,-57.4751 389.5,-57.4751"/>
</g>
<!-- Node27&#45;&gt;Node24 -->
<g id="edge31" class="edge"><title>Node27&#45;&gt;Node24</title>
<path fill="none" stroke="midnightblue" d="M330.81,-68.8551C270.247,-61.3698 175.77,-48.2921 95,-31 87.2102,-29.3323 78.8605,-27.1735 71.1816,-25.0336"/>
<polygon fill="midnightblue" stroke="midnightblue" points="330.62,-72.3578 340.971,-70.0977 331.47,-65.4096 330.62,-72.3578"/>
</g>
<!-- Node28 -->
<g id="node28" class="node"><title>Node28</title>
<g id="a_node28"><a xlink:href="energy_8cpp.html" target="_top" xlink:title="Implementation of energy.hpp. ">
<polygon fill="none" stroke="black" points="104.5,-6 104.5,-25 173.5,-25 173.5,-6 104.5,-6"/>
<text text-anchor="middle" x="139" y="-13" font-family="Helvetica,sans-Serif" font-size="10.00">energy.cpp</text>
</a>
</g>
</g>
<!-- Node27&#45;&gt;Node28 -->
<g id="edge33" class="edge"><title>Node27&#45;&gt;Node28</title>
<path fill="none" stroke="midnightblue" d="M335.351,-65.5642C292.693,-57.3931 233.332,-45.0783 182,-31 175.77,-29.2913 169.119,-27.1896 162.956,-25.1219"/>
<polygon fill="midnightblue" stroke="midnightblue" points="334.799,-69.0218 345.276,-67.4483 336.104,-62.1446 334.799,-69.0218"/>
</g>
</g>
</svg>
        <g id="navigator" transform="translate(0 0)" fill="#404254">
                <rect fill="#f2f5e9" fill-opacity="0.5" stroke="#606060" stroke-width=".5" x="0" y="0" width="60" height="60"/>
                <use id="zoomplus" xlink:href="#zoomPlus" x="17" y="9" onmousedown="handleZoom(evt,'in')"/>
                <use id="zoomminus" xlink:href="#zoomMin" x="42" y="9" onmousedown="handleZoom(evt,'out')"/>
                <use id="reset" xlink:href="#resetDef" x="30" y="36" onmousedown="handleReset()"/>
                <g id="arrowUp" xlink:href="#dirArrow" transform="translate(30 24)" onmousedown="handlePan(0,-1)">
                  <use xlink:href="#rim" fill="#404040">
                        <set attributeName="fill" to="#808080" begin="arrowUp.mouseover" end="arrowUp.mouseout"/>
                  </use>
                  <path fill="none" stroke="white" stroke-width="1.5" d="M0,-3.0v7 M-2.5,-0.5L0,-3.0L2.5,-0.5"/>
                </g>
                <g id="arrowRight" xlink:href="#dirArrow" transform="rotate(90) translate(36 -43)" onmousedown="handlePan(1,0)">
                  <use xlink:href="#rim" fill="#404040">
                        <set attributeName="fill" to="#808080" begin="arrowRight.mouseover" end="arrowRight.mouseout"/>
                  </use>
                  <path fill="none" stroke="white" stroke-width="1.5" d="M0,-3.0v7 M-2.5,-0.5L0,-3.0L2.5,-0.5"/>
                </g>
                <g id="arrowDown" xlink:href="#dirArrow" transform="rotate(180) translate(-30 -48)" onmousedown="handlePan(0,1)">
                  <use xlink:href="#rim" fill="#404040">
                        <set attributeName="fill" to="#808080" begin="arrowDown.mouseover" end="arrowDown.mouseout"/>
                  </use>
                  <path fill="none" stroke="white" stroke-width="1.5" d="M0,-3.0v7 M-2.5,-0.5L0,-3.0L2.5,-0.5"/>
                </g>
                <g id="arrowLeft" xlink:href="#dirArrow" transform="rotate(270) translate(-36 17)" onmousedown="handlePan(-1,0)">
                  <use xlink:href="#rim" fill="#404040">
                        <set attributeName="fill" to="#808080" begin="arrowLeft.mouseover" end="arrowLeft.mouseout"/>
                  </use>
                  <path fill="none" stroke="white" stroke-width="1.5" d="M0,-3.0v7 M-2.5,-0.5L0,-3.0L2.5,-0.5"/>
                </g>
        </g>
        <svg viewBox="0 0 15 15" width="100%" height="30px" preserveAspectRatio="xMaxYMin meet">
         <g id="arrow_out" transform="scale(0.3 0.3)">
          <a xlink:href="buckingham_8hpp__dep__incl_org.svg" target="_base">
           <rect id="button" ry="5" rx="5" y="6" x="6" height="38" width="38"
                fill="#f2f5e9" fill-opacity="0.5" stroke="#606060" stroke-width="1.0"/>
           <path id="arrow"
             d="M 11.500037,31.436501 C 11.940474,20.09759 22.043105,11.32322 32.158766,21.979434 L 37.068811,17.246167 C 37.068811,17.246167 37.088388,32 37.088388,32 L 22.160133,31.978069 C 22.160133,31.978069 26.997745,27.140456 26.997745,27.140456 C 18.528582,18.264221 13.291696,25.230495 11.500037,31.436501 z"
             style="fill:#404040;"/>
          </a>
         </g>
        </svg>
</svg>
