<?xml version="1.0" encoding="UTF-8" standalone="no"?>
<!DOCTYPE svg PUBLIC "-//W3C//DTD SVG 1.1//EN"
 "http://www.w3.org/Graphics/SVG/1.1/DTD/svg11.dtd">
<!-- Generated by graphviz version 2.38.0 (20140413.2041)
 -->
<!-- Title: buckingham_tcl.cpp Pages: 1 -->
<svg width="915pt" height="532pt"
 viewBox="0.00 0.00 914.50 532.00" xmlns="http://www.w3.org/2000/svg" xmlns:xlink="http://www.w3.org/1999/xlink">
<g id="graph0" class="graph" transform="scale(1 1) rotate(0) translate(4 528)">
<title>buckingham_tcl.cpp</title>
<!-- Node1 -->
<g id="node1" class="node"><title>Node1</title>
<polygon fill="#bfbfbf" stroke="black" points="115.5,-504.5 115.5,-523.5 229.5,-523.5 229.5,-504.5 115.5,-504.5"/>
<text text-anchor="middle" x="172.5" y="-511.5" font-family="Helvetica,sans-Serif" font-size="10.00">buckingham_tcl.cpp</text>
</g>
<!-- Node2 -->
<g id="node2" class="node"><title>Node2</title>
<g id="a_node2"><a xlink:href="buckingham__tcl_8hpp.html" target="_top" xlink:title="Tcl interface for buckingham.hpp. ">
<polygon fill="none" stroke="black" points="115,-448.5 115,-467.5 230,-467.5 230,-448.5 115,-448.5"/>
<text text-anchor="middle" x="172.5" y="-455.5" font-family="Helvetica,sans-Serif" font-size="10.00">buckingham_tcl.hpp</text>
</a>
</g>
</g>
<!-- Node1&#45;&gt;Node2 -->
<g id="edge1" class="edge"><title>Node1&#45;&gt;Node2</title>
<path fill="none" stroke="midnightblue" d="M172.5,-504.083C172.5,-497.006 172.5,-486.861 172.5,-477.986"/>
<polygon fill="midnightblue" stroke="midnightblue" points="176,-477.751 172.5,-467.751 169,-477.751 176,-477.751"/>
</g>
<!-- Node22 -->
<g id="node22" class="node"><title>Node22</title>
<g id="a_node22"><a xlink:href="buckingham_8hpp.html" target="_top" xlink:title="Routines to calculate the Buckingham energy and/or force for a particle pair. ">
<polygon fill="none" stroke="black" points="247.5,-448.5 247.5,-467.5 345.5,-467.5 345.5,-448.5 247.5,-448.5"/>
<text text-anchor="middle" x="296.5" y="-455.5" font-family="Helvetica,sans-Serif" font-size="10.00">buckingham.hpp</text>
</a>
</g>
</g>
<!-- Node1&#45;&gt;Node22 -->
<g id="edge25" class="edge"><title>Node1&#45;&gt;Node22</title>
<path fill="none" stroke="midnightblue" d="M192.148,-504.444C212.465,-495.596 244.403,-481.687 267.598,-471.586"/>
<polygon fill="midnightblue" stroke="midnightblue" points="269.173,-474.718 276.944,-467.516 266.378,-468.3 269.173,-474.718"/>
</g>
<!-- Node30 -->
<g id="node30" class="node"><title>Node30</title>
<g id="a_node30"><a xlink:href="forcecap__tcl_8hpp.html" target="_top" xlink:title="forcecap_tcl.hpp">
<polygon fill="none" stroke="black" points="0,-448.5 0,-467.5 97,-467.5 97,-448.5 0,-448.5"/>
<text text-anchor="middle" x="48.5" y="-455.5" font-family="Helvetica,sans-Serif" font-size="10.00">forcecap_tcl.hpp</text>
</a>
</g>
</g>
<!-- Node1&#45;&gt;Node30 -->
<g id="edge44" class="edge"><title>Node1&#45;&gt;Node30</title>
<path fill="none" stroke="midnightblue" d="M152.852,-504.444C132.535,-495.596 100.597,-481.687 77.4023,-471.586"/>
<polygon fill="midnightblue" stroke="midnightblue" points="78.6221,-468.3 68.0562,-467.516 75.8271,-474.718 78.6221,-468.3"/>
</g>
<!-- Node3 -->
<g id="node3" class="node"><title>Node3</title>
<g id="a_node3"><a xlink:href="parser_8hpp.html" target="_top" xlink:title="This file contains macros for parsing the parameters to the &#39;inter&#39; command. ">
<polygon fill="none" stroke="black" points="41.5,-392.5 41.5,-411.5 109.5,-411.5 109.5,-392.5 41.5,-392.5"/>
<text text-anchor="middle" x="75.5" y="-399.5" font-family="Helvetica,sans-Serif" font-size="10.00">parser.hpp</text>
</a>
</g>
</g>
<!-- Node2&#45;&gt;Node3 -->
<g id="edge2" class="edge"><title>Node2&#45;&gt;Node3</title>
<path fill="none" stroke="midnightblue" d="M156.915,-448.324C141.501,-439.743 117.688,-426.486 99.7903,-416.522"/>
<polygon fill="midnightblue" stroke="midnightblue" points="101.486,-413.461 91.0461,-411.655 98.0809,-419.577 101.486,-413.461"/>
</g>
<!-- Node4 -->
<g id="node4" class="node"><title>Node4</title>
<g id="a_node4"><a xlink:href="utils_8hpp.html" target="_top" xlink:title="Small functions that are useful not only for one modul. ">
<polygon fill="none" stroke="black" points="279,-168.5 279,-187.5 338,-187.5 338,-168.5 279,-168.5"/>
<text text-anchor="middle" x="308.5" y="-175.5" font-family="Helvetica,sans-Serif" font-size="10.00">utils.hpp</text>
</a>
</g>
</g>
<!-- Node3&#45;&gt;Node4 -->
<g id="edge3" class="edge"><title>Node3&#45;&gt;Node4</title>
<path fill="none" stroke="midnightblue" d="M81.3267,-392.182C87.171,-383.214 96.3114,-368.848 103.5,-356 121.94,-323.043 115.89,-307.754 141.5,-280 180.146,-238.119 240.094,-207.674 276.673,-191.715"/>
<polygon fill="midnightblue" stroke="midnightblue" points="278.505,-194.74 286.334,-187.601 275.762,-188.299 278.505,-194.74"/>
</g>
<!-- Node8 -->
<g id="node8" class="node"><title>Node8</title>
<polygon fill="none" stroke="#bfbfbf" points="2.5,-112.5 2.5,-131.5 52.5,-131.5 52.5,-112.5 2.5,-112.5"/>
<text text-anchor="middle" x="27.5" y="-119.5" font-family="Helvetica,sans-Serif" font-size="10.00">cstring</text>
</g>
<!-- Node3&#45;&gt;Node8 -->
<g id="edge23" class="edge"><title>Node3&#45;&gt;Node8</title>
<path fill="none" stroke="midnightblue" d="M68.8258,-392.435C55.6367,-374.623 27.5,-331.839 27.5,-291 27.5,-291 27.5,-291 27.5,-233 27.5,-200.948 27.5,-163.643 27.5,-141.749"/>
<polygon fill="midnightblue" stroke="midnightblue" points="31.0001,-141.558 27.5,-131.558 24.0001,-141.558 31.0001,-141.558"/>
</g>
<!-- Node21 -->
<g id="node21" class="node"><title>Node21</title>
<polygon fill="none" stroke="#bfbfbf" points="56.5,-336.5 56.5,-355.5 94.5,-355.5 94.5,-336.5 56.5,-336.5"/>
<text text-anchor="middle" x="75.5" y="-343.5" font-family="Helvetica,sans-Serif" font-size="10.00">tcl.h</text>
</g>
<!-- Node3&#45;&gt;Node21 -->
<g id="edge24" class="edge"><title>Node3&#45;&gt;Node21</title>
<path fill="none" stroke="midnightblue" d="M75.5,-392.083C75.5,-385.006 75.5,-374.861 75.5,-365.986"/>
<polygon fill="midnightblue" stroke="midnightblue" points="79.0001,-365.751 75.5,-355.751 72.0001,-365.751 79.0001,-365.751"/>
</g>
<!-- Node5 -->
<g id="node5" class="node"><title>Node5</title>
<polygon fill="none" stroke="#bfbfbf" points="195,-112.5 195,-131.5 242,-131.5 242,-112.5 195,-112.5"/>
<text text-anchor="middle" x="218.5" y="-119.5" font-family="Helvetica,sans-Serif" font-size="10.00">cmath</text>
</g>
<!-- Node4&#45;&gt;Node5 -->
<g id="edge4" class="edge"><title>Node4&#45;&gt;Node5</title>
<path fill="none" stroke="midnightblue" d="M294.04,-168.324C280,-159.9 258.452,-146.971 241.957,-137.074"/>
<polygon fill="midnightblue" stroke="midnightblue" points="243.3,-133.798 232.924,-131.655 239.698,-139.801 243.3,-133.798"/>
</g>
<!-- Node6 -->
<g id="node6" class="node"><title>Node6</title>
<polygon fill="none" stroke="#bfbfbf" points="260.5,-112.5 260.5,-131.5 306.5,-131.5 306.5,-112.5 260.5,-112.5"/>
<text text-anchor="middle" x="283.5" y="-119.5" font-family="Helvetica,sans-Serif" font-size="10.00">cstdio</text>
</g>
<!-- Node4&#45;&gt;Node6 -->
<g id="edge5" class="edge"><title>Node4&#45;&gt;Node6</title>
<path fill="none" stroke="midnightblue" d="M304.372,-168.083C300.986,-160.77 296.084,-150.181 291.881,-141.103"/>
<polygon fill="midnightblue" stroke="midnightblue" points="294.929,-139.355 287.551,-131.751 288.577,-142.296 294.929,-139.355"/>
</g>
<!-- Node7 -->
<g id="node7" class="node"><title>Node7</title>
<polygon fill="none" stroke="#bfbfbf" points="325,-112.5 325,-131.5 374,-131.5 374,-112.5 325,-112.5"/>
<text text-anchor="middle" x="349.5" y="-119.5" font-family="Helvetica,sans-Serif" font-size="10.00">cstdlib</text>
</g>
<!-- Node4&#45;&gt;Node7 -->
<g id="edge6" class="edge"><title>Node4&#45;&gt;Node7</title>
<path fill="none" stroke="midnightblue" d="M315.27,-168.083C321.062,-160.455 329.558,-149.264 336.638,-139.941"/>
<polygon fill="midnightblue" stroke="midnightblue" points="339.596,-141.832 342.856,-131.751 334.021,-137.599 339.596,-141.832"/>
</g>
<!-- Node4&#45;&gt;Node8 -->
<g id="edge7" class="edge"><title>Node4&#45;&gt;Node8</title>
<path fill="none" stroke="midnightblue" d="M278.991,-171.934C233.33,-164 142.852,-147.901 66.5,-132 65.2372,-131.737 63.9525,-131.465 62.6557,-131.186"/>
<polygon fill="midnightblue" stroke="midnightblue" points="63.1605,-127.713 52.6403,-128.969 61.6472,-134.548 63.1605,-127.713"/>
</g>
<!-- Node9 -->
<g id="node9" class="node"><title>Node9</title>
<g id="a_node9"><a xlink:href="config_8hpp.html" target="_top" xlink:title="This file contains the defaults for Espresso. ">
<polygon fill="none" stroke="black" points="525,-56.5 525,-75.5 592,-75.5 592,-56.5 525,-56.5"/>
<text text-anchor="middle" x="558.5" y="-63.5" font-family="Helvetica,sans-Serif" font-size="10.00">config.hpp</text>
</a>
</g>
</g>
<!-- Node4&#45;&gt;Node9 -->
<g id="edge8" class="edge"><title>Node4&#45;&gt;Node9</title>
<path fill="none" stroke="midnightblue" d="M278.927,-177.146C209.863,-176.551 47.6207,-169.214 99.5,-112 127.083,-81.5811 405.177,-71.0178 514.602,-68.021"/>
<polygon fill="midnightblue" stroke="midnightblue" points="514.748,-71.5185 524.651,-67.7542 514.562,-64.5209 514.748,-71.5185"/>
</g>
<!-- Node13 -->
<g id="node13" class="node"><title>Node13</title>
<g id="a_node13"><a xlink:href="debug_8hpp.html" target="_top" xlink:title="This file controls debug facilities. ">
<polygon fill="none" stroke="black" points="108.5,-112.5 108.5,-131.5 176.5,-131.5 176.5,-112.5 108.5,-112.5"/>
<text text-anchor="middle" x="142.5" y="-119.5" font-family="Helvetica,sans-Serif" font-size="10.00">debug.hpp</text>
</a>
</g>
</g>
<!-- Node4&#45;&gt;Node13 -->
<g id="edge12" class="edge"><title>Node4&#45;&gt;Node13</title>
<path fill="none" stroke="midnightblue" d="M282.197,-168.444C254.149,-159.32 209.556,-144.813 178.316,-134.651"/>
<polygon fill="midnightblue" stroke="midnightblue" points="179.272,-131.282 168.68,-131.516 177.107,-137.938 179.272,-131.282"/>
</g>
<!-- Node14 -->
<g id="node14" class="node"><title>Node14</title>
<g id="a_node14"><a xlink:href="lees__edwards_8hpp.html" target="_top" xlink:title="lees_edwards.hpp">
<polygon fill="none" stroke="black" points="392.5,-112.5 392.5,-131.5 496.5,-131.5 496.5,-112.5 392.5,-112.5"/>
<text text-anchor="middle" x="444.5" y="-119.5" font-family="Helvetica,sans-Serif" font-size="10.00">lees_edwards.hpp</text>
</a>
</g>
</g>
<!-- Node4&#45;&gt;Node14 -->
<g id="edge14" class="edge"><title>Node4&#45;&gt;Node14</title>
<path fill="none" stroke="midnightblue" d="M330.05,-168.444C352.531,-159.517 387.988,-145.439 413.48,-135.317"/>
<polygon fill="midnightblue" stroke="midnightblue" points="415.049,-138.46 423.051,-131.516 412.465,-131.954 415.049,-138.46"/>
</g>
<!-- Node15 -->
<g id="node15" class="node"><title>Node15</title>
<g id="a_node15"><a xlink:href="errorhandling_8hpp.html" target="_top" xlink:title="This file contains the errorhandling code for severe errors, like a broken bond or illegal parameter ...">
<polygon fill="none" stroke="black" points="777,-112.5 777,-131.5 880,-131.5 880,-112.5 777,-112.5"/>
<text text-anchor="middle" x="828.5" y="-119.5" font-family="Helvetica,sans-Serif" font-size="10.00">errorhandling.hpp</text>
</a>
</g>
</g>
<!-- Node4&#45;&gt;Node15 -->
<g id="edge16" class="edge"><title>Node4&#45;&gt;Node15</title>
<path fill="none" stroke="midnightblue" d="M338.325,-173.903C420.988,-165.319 654.315,-141.088 766.608,-129.427"/>
<polygon fill="midnightblue" stroke="midnightblue" points="767.178,-132.887 776.763,-128.373 766.455,-125.924 767.178,-132.887"/>
</g>
<!-- Node19 -->
<g id="node19" class="node"><title>Node19</title>
<polygon fill="none" stroke="#bfbfbf" points="515,-112.5 515,-131.5 562,-131.5 562,-112.5 515,-112.5"/>
<text text-anchor="middle" x="538.5" y="-119.5" font-family="Helvetica,sans-Serif" font-size="10.00">vector</text>
</g>
<!-- Node4&#45;&gt;Node19 -->
<g id="edge21" class="edge"><title>Node4&#45;&gt;Node19</title>
<path fill="none" stroke="midnightblue" d="M338.296,-170.599C375.07,-162.611 439.742,-148.277 504.731,-132.111"/>
<polygon fill="midnightblue" stroke="midnightblue" points="505.886,-135.43 514.738,-129.608 504.188,-128.639 505.886,-135.43"/>
</g>
<!-- Node20 -->
<g id="node20" class="node"><title>Node20</title>
<polygon fill="none" stroke="#bfbfbf" points="580,-112.5 580,-131.5 645,-131.5 645,-112.5 580,-112.5"/>
<text text-anchor="middle" x="612.5" y="-119.5" font-family="Helvetica,sans-Serif" font-size="10.00">exception</text>
</g>
<!-- Node4&#45;&gt;Node20 -->
<g id="edge22" class="edge"><title>Node4&#45;&gt;Node20</title>
<path fill="none" stroke="midnightblue" d="M338.163,-172.387C385.195,-164.973 479.988,-149.624 569.78,-132.27"/>
<polygon fill="midnightblue" stroke="midnightblue" points="570.707,-135.655 579.855,-130.31 569.37,-128.784 570.707,-135.655"/>
</g>
<!-- Node10 -->
<g id="node10" class="node"><title>Node10</title>
<g id="a_node10"><a xlink:href="acconfig_8hpp.html" target="_top" xlink:title="acconfig.hpp">
<polygon fill="none" stroke="black" points="408.5,-0.5 408.5,-19.5 486.5,-19.5 486.5,-0.5 408.5,-0.5"/>
<text text-anchor="middle" x="447.5" y="-7.5" font-family="Helvetica,sans-Serif" font-size="10.00">acconfig.hpp</text>
</a>
</g>
</g>
<!-- Node9&#45;&gt;Node10 -->
<g id="edge9" class="edge"><title>Node9&#45;&gt;Node10</title>
<path fill="none" stroke="midnightblue" d="M540.666,-56.324C522.784,-47.6247 495.025,-34.1202 474.454,-24.113"/>
<polygon fill="midnightblue" stroke="midnightblue" points="475.813,-20.8819 465.29,-19.6545 472.751,-27.1765 475.813,-20.8819"/>
</g>
<!-- Node11 -->
<g id="node11" class="node"><title>Node11</title>
<g id="a_node11"><a xlink:href="myconfig-final_8hpp.html" target="_top" xlink:title="myconfig&#45;final.hpp">
<polygon fill="none" stroke="black" points="505,-0.5 505,-19.5 612,-19.5 612,-0.5 505,-0.5"/>
<text text-anchor="middle" x="558.5" y="-7.5" font-family="Helvetica,sans-Serif" font-size="10.00">myconfig&#45;final.hpp</text>
</a>
</g>
</g>
<!-- Node9&#45;&gt;Node11 -->
<g id="edge10" class="edge"><title>Node9&#45;&gt;Node11</title>
<path fill="none" stroke="midnightblue" d="M558.5,-56.083C558.5,-49.0059 558.5,-38.8611 558.5,-29.9865"/>
<polygon fill="midnightblue" stroke="midnightblue" points="562,-29.751 558.5,-19.7511 555,-29.7511 562,-29.751"/>
</g>
<!-- Node12 -->
<g id="node12" class="node"><title>Node12</title>
<g id="a_node12"><a xlink:href="config-features_8hpp.html" target="_top" xlink:title="config&#45;features.hpp">
<polygon fill="none" stroke="black" points="630,-0.5 630,-19.5 741,-19.5 741,-0.5 630,-0.5"/>
<text text-anchor="middle" x="685.5" y="-7.5" font-family="Helvetica,sans-Serif" font-size="10.00">config&#45;features.hpp</text>
</a>
</g>
</g>
<!-- Node9&#45;&gt;Node12 -->
<g id="edge11" class="edge"><title>Node9&#45;&gt;Node12</title>
<path fill="none" stroke="midnightblue" d="M578.624,-56.4435C599.524,-47.5566 632.435,-33.5632 656.216,-23.4514"/>
<polygon fill="midnightblue" stroke="midnightblue" points="657.638,-26.6504 665.471,-19.5164 654.898,-20.2085 657.638,-26.6504"/>
</g>
<!-- Node13&#45;&gt;Node9 -->
<g id="edge13" class="edge"><title>Node13&#45;&gt;Node9</title>
<path fill="none" stroke="midnightblue" d="M176.718,-113.56C179.682,-113 182.64,-112.471 185.5,-112 303.955,-92.4954 444.884,-77.7764 514.743,-71.0435"/>
<polygon fill="midnightblue" stroke="midnightblue" points="515.305,-74.5058 524.927,-70.0702 514.639,-67.5376 515.305,-74.5058"/>
</g>
<!-- Node14&#45;&gt;Node9 -->
<g id="edge15" class="edge"><title>Node14&#45;&gt;Node9</title>
<path fill="none" stroke="midnightblue" d="M462.564,-112.444C481.075,-103.675 510.081,-89.9355 531.355,-79.8579"/>
<polygon fill="midnightblue" stroke="midnightblue" points="532.982,-82.9604 540.521,-75.5164 529.985,-76.6343 532.982,-82.9604"/>
</g>
<!-- Node15&#45;&gt;Node9 -->
<g id="edge17" class="edge"><title>Node15&#45;&gt;Node9</title>
<path fill="none" stroke="midnightblue" d="M785.718,-112.444C735.498,-102.4 652.665,-85.8331 602.096,-75.7193"/>
<polygon fill="midnightblue" stroke="midnightblue" points="602.618,-72.2543 592.125,-73.7251 601.245,-79.1183 602.618,-72.2543"/>
</g>
<!-- Node16 -->
<g id="node16" class="node"><title>Node16</title>
<polygon fill="none" stroke="#bfbfbf" points="738.5,-56.5 738.5,-75.5 782.5,-75.5 782.5,-56.5 738.5,-56.5"/>
<text text-anchor="middle" x="760.5" y="-63.5" font-family="Helvetica,sans-Serif" font-size="10.00">string</text>
</g>
<!-- Node15&#45;&gt;Node16 -->
<g id="edge18" class="edge"><title>Node15&#45;&gt;Node16</title>
<path fill="none" stroke="midnightblue" d="M817.575,-112.324C807.325,-104.185 791.779,-91.8395 779.499,-82.0874"/>
<polygon fill="midnightblue" stroke="midnightblue" points="781.632,-79.3119 771.624,-75.8339 777.279,-84.7937 781.632,-79.3119"/>
</g>
<!-- Node17 -->
<g id="node17" class="node"><title>Node17</title>
<polygon fill="none" stroke="#bfbfbf" points="800.5,-56.5 800.5,-75.5 856.5,-75.5 856.5,-56.5 800.5,-56.5"/>
<text text-anchor="middle" x="828.5" y="-63.5" font-family="Helvetica,sans-Serif" font-size="10.00">sstream</text>
</g>
<!-- Node15&#45;&gt;Node17 -->
<g id="edge19" class="edge"><title>Node15&#45;&gt;Node17</title>
<path fill="none" stroke="midnightblue" d="M828.5,-112.083C828.5,-105.006 828.5,-94.8611 828.5,-85.9865"/>
<polygon fill="midnightblue" stroke="midnightblue" points="832,-85.751 828.5,-75.7511 825,-85.7511 832,-85.751"/>
</g>
<!-- Node18 -->
<g id="node18" class="node"><title>Node18</title>
<polygon fill="none" stroke="#bfbfbf" points="874.5,-56.5 874.5,-75.5 906.5,-75.5 906.5,-56.5 874.5,-56.5"/>
<text text-anchor="middle" x="890.5" y="-63.5" font-family="Helvetica,sans-Serif" font-size="10.00">list</text>
</g>
<!-- Node15&#45;&gt;Node18 -->
<g id="edge20" class="edge"><title>Node15&#45;&gt;Node18</title>
<path fill="none" stroke="midnightblue" d="M838.461,-112.324C847.627,-104.341 861.437,-92.3128 872.528,-82.6529"/>
<polygon fill="midnightblue" stroke="midnightblue" points="875.115,-85.041 880.357,-75.8339 870.518,-79.7624 875.115,-85.041"/>
</g>
<!-- Node22&#45;&gt;Node4 -->
<g id="edge26" class="edge"><title>Node22&#45;&gt;Node4</title>
<path fill="none" stroke="midnightblue" d="M345.617,-454.299C455.281,-446.927 710.5,-421.741 710.5,-347 710.5,-347 710.5,-347 710.5,-289 710.5,-214.399 449.684,-188.609 348.215,-181.399"/>
<polygon fill="midnightblue" stroke="midnightblue" points="348.276,-177.895 338.06,-180.702 347.797,-184.879 348.276,-177.895"/>
</g>
<!-- Node23 -->
<g id="node23" class="node"><title>Node23</title>
<g id="a_node23"><a xlink:href="interaction__data_8hpp.html" target="_top" xlink:title="Various procedures concerning interactions between particles. ">
<polygon fill="none" stroke="black" points="151,-280.5 151,-299.5 268,-299.5 268,-280.5 151,-280.5"/>
<text text-anchor="middle" x="209.5" y="-287.5" font-family="Helvetica,sans-Serif" font-size="10.00">interaction_data.hpp</text>
</a>
</g>
</g>
<!-- Node22&#45;&gt;Node23 -->
<g id="edge27" class="edge"><title>Node22&#45;&gt;Node23</title>
<path fill="none" stroke="midnightblue" d="M262.469,-448.496C231.52,-439.992 189.234,-426.172 179.5,-412 157.444,-379.886 181.237,-333.11 197.307,-308.169"/>
<polygon fill="midnightblue" stroke="midnightblue" points="200.291,-310.003 202.976,-299.755 194.486,-306.092 200.291,-310.003"/>
</g>
<!-- Node24 -->
<g id="node24" class="node"><title>Node24</title>
<g id="a_node24"><a xlink:href="particle__data_8hpp.html" target="_top" xlink:title="For more information on particle_data, see particle_data.c. ">
<polygon fill="none" stroke="black" points="284,-224.5 284,-243.5 385,-243.5 385,-224.5 284,-224.5"/>
<text text-anchor="middle" x="334.5" y="-231.5" font-family="Helvetica,sans-Serif" font-size="10.00">particle_data.hpp</text>
</a>
</g>
</g>
<!-- Node22&#45;&gt;Node24 -->
<g id="edge31" class="edge"><title>Node22&#45;&gt;Node24</title>
<path fill="none" stroke="midnightblue" d="M297.99,-448.297C303.581,-415.633 323.397,-299.866 331.255,-253.957"/>
<polygon fill="midnightblue" stroke="midnightblue" points="334.742,-254.331 332.979,-243.884 327.842,-253.15 334.742,-254.331"/>
</g>
<!-- Node25 -->
<g id="node25" class="node"><title>Node25</title>
<g id="a_node25"><a xlink:href="mol__cut_8hpp.html" target="_top" xlink:title="mol_cut.hpp">
<polygon fill="none" stroke="black" points="325,-392.5 325,-411.5 402,-411.5 402,-392.5 325,-392.5"/>
<text text-anchor="middle" x="363.5" y="-399.5" font-family="Helvetica,sans-Serif" font-size="10.00">mol_cut.hpp</text>
</a>
</g>
</g>
<!-- Node22&#45;&gt;Node25 -->
<g id="edge32" class="edge"><title>Node22&#45;&gt;Node25</title>
<path fill="none" stroke="midnightblue" d="M307.265,-448.324C317.266,-440.263 332.387,-428.077 344.43,-418.369"/>
<polygon fill="midnightblue" stroke="midnightblue" points="346.95,-420.834 352.539,-411.834 342.557,-415.384 346.95,-420.834"/>
</g>
<!-- Node29 -->
<g id="node29" class="node"><title>Node29</title>
<g id="a_node29"><a xlink:href="forcecap_8hpp.html" target="_top" xlink:title="forcecap.hpp">
<polygon fill="none" stroke="black" points="188.5,-392.5 188.5,-411.5 268.5,-411.5 268.5,-392.5 188.5,-392.5"/>
<text text-anchor="middle" x="228.5" y="-399.5" font-family="Helvetica,sans-Serif" font-size="10.00">forcecap.hpp</text>
</a>
</g>
</g>
<!-- Node22&#45;&gt;Node29 -->
<g id="edge43" class="edge"><title>Node22&#45;&gt;Node29</title>
<path fill="none" stroke="midnightblue" d="M285.575,-448.324C275.325,-440.185 259.779,-427.839 247.499,-418.087"/>
<polygon fill="midnightblue" stroke="midnightblue" points="249.632,-415.312 239.624,-411.834 245.279,-420.794 249.632,-415.312"/>
</g>
<!-- Node23&#45;&gt;Node4 -->
<g id="edge28" class="edge"><title>Node23&#45;&gt;Node4</title>
<path fill="none" stroke="midnightblue" d="M217.268,-280.368C233.823,-261.974 272.796,-218.671 294.053,-195.052"/>
<polygon fill="midnightblue" stroke="midnightblue" points="296.68,-197.366 300.768,-187.591 291.477,-192.683 296.68,-197.366"/>
</g>
<!-- Node23&#45;&gt;Node24 -->
<g id="edge29" class="edge"><title>Node23&#45;&gt;Node24</title>
<path fill="none" stroke="midnightblue" d="M229.307,-280.444C249.787,-271.596 281.983,-257.687 305.365,-247.586"/>
<polygon fill="midnightblue" stroke="midnightblue" points="306.994,-250.695 314.786,-243.516 304.218,-244.269 306.994,-250.695"/>
</g>
<!-- Node24&#45;&gt;Node4 -->
<g id="edge30" class="edge"><title>Node24&#45;&gt;Node4</title>
<path fill="none" stroke="midnightblue" d="M330.207,-224.083C326.648,-216.691 321.478,-205.953 317.076,-196.811"/>
<polygon fill="midnightblue" stroke="midnightblue" points="320.205,-195.243 312.713,-187.751 313.898,-198.279 320.205,-195.243"/>
</g>
<!-- Node25&#45;&gt;Node23 -->
<g id="edge42" class="edge"><title>Node25&#45;&gt;Node23</title>
<path fill="none" stroke="midnightblue" d="M351.416,-392.368C325.102,-373.573 262.376,-328.768 229.847,-305.533"/>
<polygon fill="midnightblue" stroke="midnightblue" points="231.7,-302.556 221.528,-299.591 227.631,-308.252 231.7,-302.556"/>
</g>
<!-- Node25&#45;&gt;Node24 -->
<g id="edge41" class="edge"><title>Node25&#45;&gt;Node24</title>
<path fill="none" stroke="midnightblue" d="M361.941,-392.075C357.376,-365.945 343.971,-289.211 337.745,-253.577"/>
<polygon fill="midnightblue" stroke="midnightblue" points="341.166,-252.817 335.997,-243.568 334.27,-254.021 341.166,-252.817"/>
</g>
<!-- Node26 -->
<g id="node26" class="node"><title>Node26</title>
<g id="a_node26"><a xlink:href="virtual__sites_8hpp.html" target="_top" xlink:title="This file contains routine to handle virtual sites Virtual sites are like particles, but they will be not integrated. ">
<polygon fill="none" stroke="black" points="388.5,-336.5 388.5,-355.5 486.5,-355.5 486.5,-336.5 388.5,-336.5"/>
<text text-anchor="middle" x="437.5" y="-343.5" font-family="Helvetica,sans-Serif" font-size="10.00">virtual_sites.hpp</text>
</a>
</g>
</g>
<!-- Node25&#45;&gt;Node26 -->
<g id="edge33" class="edge"><title>Node25&#45;&gt;Node26</title>
<path fill="none" stroke="midnightblue" d="M375.389,-392.324C386.65,-384.107 403.787,-371.602 417.209,-361.807"/>
<polygon fill="midnightblue" stroke="midnightblue" points="419.38,-364.556 425.394,-355.834 415.253,-358.901 419.38,-364.556"/>
</g>
<!-- Node26&#45;&gt;Node24 -->
<g id="edge34" class="edge"><title>Node26&#45;&gt;Node24</title>
<path fill="none" stroke="midnightblue" d="M428.13,-336.237C418.687,-327.313 403.791,-312.979 391.5,-300 376.262,-283.908 359.639,-264.755 348.299,-251.426"/>
<polygon fill="midnightblue" stroke="midnightblue" points="350.807,-248.972 341.677,-243.598 345.463,-253.493 350.807,-248.972"/>
</g>
<!-- Node27 -->
<g id="node27" class="node"><title>Node27</title>
<g id="a_node27"><a xlink:href="virtual__sites__com_8hpp.html" target="_top" xlink:title="virtual_sites_com.hpp">
<polygon fill="none" stroke="black" points="400.5,-280.5 400.5,-299.5 524.5,-299.5 524.5,-280.5 400.5,-280.5"/>
<text text-anchor="middle" x="462.5" y="-287.5" font-family="Helvetica,sans-Serif" font-size="10.00">virtual_sites_com.hpp</text>
</a>
</g>
</g>
<!-- Node26&#45;&gt;Node27 -->
<g id="edge35" class="edge"><title>Node26&#45;&gt;Node27</title>
<path fill="none" stroke="midnightblue" d="M441.628,-336.083C445.014,-328.77 449.916,-318.181 454.119,-309.103"/>
<polygon fill="midnightblue" stroke="midnightblue" points="457.423,-310.296 458.449,-299.751 451.071,-307.355 457.423,-310.296"/>
</g>
<!-- Node28 -->
<g id="node28" class="node"><title>Node28</title>
<g id="a_node28"><a xlink:href="virtual__sites__relative_8hpp.html" target="_top" xlink:title="virtual_sites_relative.hpp">
<polygon fill="none" stroke="black" points="542.5,-280.5 542.5,-299.5 682.5,-299.5 682.5,-280.5 542.5,-280.5"/>
<text text-anchor="middle" x="612.5" y="-287.5" font-family="Helvetica,sans-Serif" font-size="10.00">virtual_sites_relative.hpp</text>
</a>
</g>
</g>
<!-- Node26&#45;&gt;Node28 -->
<g id="edge38" class="edge"><title>Node26&#45;&gt;Node28</title>
<path fill="none" stroke="midnightblue" d="M465.229,-336.444C494.926,-327.28 542.216,-312.688 575.169,-302.519"/>
<polygon fill="midnightblue" stroke="midnightblue" points="576.377,-305.809 584.9,-299.516 574.313,-299.121 576.377,-305.809"/>
</g>
<!-- Node27&#45;&gt;Node9 -->
<g id="edge36" class="edge"><title>Node27&#45;&gt;Node9</title>
<path fill="none" stroke="midnightblue" d="M481.666,-280.485C522.617,-261.088 617.888,-209.233 654.5,-132 667.259,-105.085 633.188,-87.5672 602.165,-77.5757"/>
<polygon fill="midnightblue" stroke="midnightblue" points="602.847,-74.126 592.262,-74.5939 600.828,-80.8287 602.847,-74.126"/>
</g>
<!-- Node27&#45;&gt;Node24 -->
<g id="edge37" class="edge"><title>Node27&#45;&gt;Node24</title>
<path fill="none" stroke="midnightblue" d="M442.218,-280.444C421.153,-271.557 387.983,-257.563 364.014,-247.451"/>
<polygon fill="midnightblue" stroke="midnightblue" points="365.261,-244.179 354.687,-243.516 362.54,-250.628 365.261,-244.179"/>
</g>
<!-- Node28&#45;&gt;Node9 -->
<g id="edge39" class="edge"><title>Node28&#45;&gt;Node9</title>
<path fill="none" stroke="midnightblue" d="M639.008,-280.479C655.846,-273.539 676.324,-261.911 686.5,-244 715.482,-192.99 721.473,-159.831 687.5,-112 668.272,-84.9279 631.496,-74.0076 602.116,-69.6696"/>
<polygon fill="midnightblue" stroke="midnightblue" points="602.434,-66.1819 592.072,-68.394 601.552,-73.1262 602.434,-66.1819"/>
</g>
<!-- Node28&#45;&gt;Node24 -->
<g id="edge40" class="edge"><title>Node28&#45;&gt;Node24</title>
<path fill="none" stroke="midnightblue" d="M568.45,-280.444C519.649,-270.964 440.937,-255.675 388.47,-245.483"/>
<polygon fill="midnightblue" stroke="midnightblue" points="388.828,-241.988 378.344,-243.516 387.493,-248.859 388.828,-241.988"/>
</g>
<!-- Node30&#45;&gt;Node3 -->
<g id="edge45" class="edge"><title>Node30&#45;&gt;Node3</title>
<path fill="none" stroke="midnightblue" d="M52.9585,-448.083C56.6543,-440.691 62.0234,-429.953 66.5945,-420.811"/>
<polygon fill="midnightblue" stroke="midnightblue" points="69.7828,-422.261 71.1245,-411.751 63.5218,-419.13 69.7828,-422.261"/>
</g>
</g>
</svg>
