<?xml version="1.0" encoding="UTF-8" standalone="no"?>
<!DOCTYPE svg PUBLIC "-//W3C//DTD SVG 1.1//EN"
 "http://www.w3.org/Graphics/SVG/1.1/DTD/svg11.dtd">
<!-- Generated by graphviz version 2.38.0 (20140413.2041)
 -->
<!-- Title: Actor Pages: 1 -->
<svg width="376pt" height="84pt"
 viewBox="0.00 0.00 375.50 84.00" xmlns="http://www.w3.org/2000/svg" xmlns:xlink="http://www.w3.org/1999/xlink">
<g id="graph0" class="graph" transform="scale(1 1) rotate(0) translate(4 80)">
<title>Actor</title>
<!-- Node1 -->
<g id="node1" class="node"><title>Node1</title>
<polygon fill="#bfbfbf" stroke="black" points="157,-56.5 157,-75.5 199,-75.5 199,-56.5 157,-56.5"/>
<text text-anchor="middle" x="178" y="-63.5" font-family="Helvetica,sans-Serif" font-size="10.00">Actor</text>
</g>
<!-- Node2 -->
<g id="node2" class="node"><title>Node2</title>
<g id="a_node2"><a xlink:href="classEwaldgpuForce.html" target="_top" xlink:title="EwaldgpuForce">
<polygon fill="none" stroke="black" points="0,-0.5 0,-19.5 90,-19.5 90,-0.5 0,-0.5"/>
<text text-anchor="middle" x="45" y="-7.5" font-family="Helvetica,sans-Serif" font-size="10.00">EwaldgpuForce</text>
</a>
</g>
</g>
<!-- Node1&#45;&gt;Node2 -->
<g id="edge1" class="edge"><title>Node1&#45;&gt;Node2</title>
<path fill="none" stroke="midnightblue" d="M147.552,-52.6377C122.593,-42.504 87.9231,-28.4274 65.9756,-19.5164"/>
<polygon fill="midnightblue" stroke="midnightblue" points="146.344,-55.9245 156.926,-56.4435 148.977,-49.4387 146.344,-55.9245"/>
</g>
<!-- Node3 -->
<g id="node3" class="node"><title>Node3</title>
<g id="a_node3"><a xlink:href="classHarmonicOrientationWell.html" target="_top" xlink:title="HarmonicOrientationWell">
<polygon fill="none" stroke="black" points="108,-0.5 108,-19.5 248,-19.5 248,-0.5 108,-0.5"/>
<text text-anchor="middle" x="178" y="-7.5" font-family="Helvetica,sans-Serif" font-size="10.00">HarmonicOrientationWell</text>
</a>
</g>
</g>
<!-- Node1&#45;&gt;Node3 -->
<g id="edge2" class="edge"><title>Node1&#45;&gt;Node3</title>
<path fill="none" stroke="midnightblue" d="M178,-45.8045C178,-36.9102 178,-26.7798 178,-19.7511"/>
<polygon fill="midnightblue" stroke="midnightblue" points="174.5,-46.083 178,-56.083 181.5,-46.083 174.5,-46.083"/>
</g>
<!-- Node4 -->
<g id="node4" class="node"><title>Node4</title>
<g id="a_node4"><a xlink:href="classMmm1dgpuForce.html" target="_top" xlink:title="Mmm1dgpuForce">
<polygon fill="none" stroke="black" points="266.5,-0.5 266.5,-19.5 367.5,-19.5 367.5,-0.5 266.5,-0.5"/>
<text text-anchor="middle" x="317" y="-7.5" font-family="Helvetica,sans-Serif" font-size="10.00">Mmm1dgpuForce</text>
</a>
</g>
</g>
<!-- Node1&#45;&gt;Node4 -->
<g id="edge3" class="edge"><title>Node1&#45;&gt;Node4</title>
<path fill="none" stroke="midnightblue" d="M208.517,-53.1445C234.571,-43.0228 271.429,-28.704 294.768,-19.6367"/>
<polygon fill="midnightblue" stroke="midnightblue" points="207.165,-49.9148 199.111,-56.7986 209.7,-56.4397 207.165,-49.9148"/>
</g>
</g>
</svg>
