<?xml version="1.0" encoding="UTF-8" standalone="no"?>
<!DOCTYPE svg PUBLIC "-//W3C//DTD SVG 1.1//EN"
 "http://www.w3.org/Graphics/SVG/1.1/DTD/svg11.dtd">
<!-- Generated by graphviz version 2.38.0 (20140413.2041)
 -->
<!-- Title: EwaldgpuForce Pages: 1 -->
<svg width="652pt" height="98pt"
 viewBox="0.00 0.00 652.00 97.50" xmlns="http://www.w3.org/2000/svg" xmlns:xlink="http://www.w3.org/1999/xlink">
<g id="graph0" class="graph" transform="scale(1 1) rotate(0) translate(4 93.5)">
<title>EwaldgpuForce</title>
<!-- Node1 -->
<g id="node1" class="node"><title>Node1</title>
<polygon fill="#bfbfbf" stroke="black" points="554,-54 554,-73 644,-73 644,-54 554,-54"/>
<text text-anchor="middle" x="599" y="-61" font-family="Helvetica,sans-Serif" font-size="10.00">EwaldgpuForce</text>
</g>
<!-- Node2 -->
<g id="node2" class="node"><title>Node2</title>
<g id="a_node2"><a xlink:href="classActor.html" target="_top" xlink:title="Generic abstract potential class. ">
<polygon fill="none" stroke="black" points="408.5,-70 408.5,-89 450.5,-89 450.5,-70 408.5,-70"/>
<text text-anchor="middle" x="429.5" y="-77" font-family="Helvetica,sans-Serif" font-size="10.00">Actor</text>
</a>
</g>
</g>
<!-- Node2&#45;&gt;Node1 -->
<g id="edge1" class="edge"><title>Node2&#45;&gt;Node1</title>
<path fill="none" stroke="midnightblue" d="M460.714,-76.6139C486.689,-74.1327 524.493,-70.5215 553.858,-67.7166"/>
<polygon fill="midnightblue" stroke="midnightblue" points="460.326,-73.1349 450.704,-77.57 460.992,-80.1032 460.326,-73.1349"/>
</g>
<!-- Node3 -->
<g id="node3" class="node"><title>Node3</title>
<g id="a_node3"><a xlink:href="classSystemInterface.html" target="_top" xlink:title="SystemInterface">
<polygon fill="none" stroke="black" points="381,-32 381,-51 478,-51 478,-32 381,-32"/>
<text text-anchor="middle" x="429.5" y="-39" font-family="Helvetica,sans-Serif" font-size="10.00">SystemInterface</text>
</a>
</g>
</g>
<!-- Node3&#45;&gt;Node1 -->
<g id="edge2" class="edge"><title>Node3&#45;&gt;Node1</title>
<path fill="none" stroke="#9a32cd" stroke-dasharray="5,2" d="M488.074,-48.3665C503.638,-50.2849 520.471,-52.4164 536,-54.5 541.821,-55.2811 547.945,-56.1331 553.985,-56.9913"/>
<polygon fill="#9a32cd" stroke="#9a32cd" points="488.408,-44.8813 478.057,-47.1393 487.557,-51.8294 488.408,-44.8813"/>
<text text-anchor="middle" x="516" y="-57.5" font-family="Helvetica,sans-Serif" font-size="10.00"> System</text>
</g>
<!-- Node4 -->
<g id="node4" class="node"><title>Node4</title>
<g id="a_node4"><a xlink:href="classSystemInterface_1_1null__vec__iterator.html" target="_top" xlink:title="SystemInterface::null\l_vec_iterator">
<polygon fill="none" stroke="black" points="166,-49.5 166,-79.5 287,-79.5 287,-49.5 166,-49.5"/>
<text text-anchor="start" x="174" y="-67.5" font-family="Helvetica,sans-Serif" font-size="10.00">SystemInterface::null</text>
<text text-anchor="middle" x="226.5" y="-56.5" font-family="Helvetica,sans-Serif" font-size="10.00">_vec_iterator</text>
</a>
</g>
</g>
<!-- Node4&#45;&gt;Node3 -->
<g id="edge3" class="edge"><title>Node4&#45;&gt;Node3</title>
<path fill="none" stroke="#9a32cd" stroke-dasharray="5,2" d="M297.249,-56.5188C324.821,-53.3637 355.811,-49.8176 380.752,-46.9637"/>
<polygon fill="#9a32cd" stroke="#9a32cd" points="296.8,-53.0473 287.262,-57.6615 297.596,-60.0019 296.8,-53.0473"/>
<text text-anchor="middle" x="334" y="-57.5" font-family="Helvetica,sans-Serif" font-size="10.00"> null_vector</text>
</g>
<!-- Node5 -->
<g id="node5" class="node"><title>Node5</title>
<g id="a_node5"><a xlink:href="classSystemInterface_1_1const__iterator.html" target="_top" xlink:title="SystemInterface::const\l_iterator\&lt; Vector3 \&gt;">
<polygon fill="none" stroke="black" points="0,-49.5 0,-79.5 129,-79.5 129,-49.5 0,-49.5"/>
<text text-anchor="start" x="8" y="-67.5" font-family="Helvetica,sans-Serif" font-size="10.00">SystemInterface::const</text>
<text text-anchor="middle" x="64.5" y="-56.5" font-family="Helvetica,sans-Serif" font-size="10.00">_iterator&lt; Vector3 &gt;</text>
</a>
</g>
</g>
<!-- Node5&#45;&gt;Node4 -->
<g id="edge4" class="edge"><title>Node5&#45;&gt;Node4</title>
<path fill="none" stroke="midnightblue" d="M139.225,-64.5C148.17,-64.5 157.219,-64.5 165.923,-64.5"/>
<polygon fill="midnightblue" stroke="midnightblue" points="139.196,-61.0001 129.196,-64.5 139.196,-68.0001 139.196,-61.0001"/>
</g>
<!-- Node6 -->
<g id="node6" class="node"><title>Node6</title>
<g id="a_node6"><a xlink:href="classSystemInterface_1_1null__real__iterator.html" target="_top" xlink:title="SystemInterface::null\l_real_iterator">
<polygon fill="none" stroke="black" points="166,-0.5 166,-30.5 287,-30.5 287,-0.5 166,-0.5"/>
<text text-anchor="start" x="174" y="-18.5" font-family="Helvetica,sans-Serif" font-size="10.00">SystemInterface::null</text>
<text text-anchor="middle" x="226.5" y="-7.5" font-family="Helvetica,sans-Serif" font-size="10.00">_real_iterator</text>
</a>
</g>
</g>
<!-- Node6&#45;&gt;Node3 -->
<g id="edge5" class="edge"><title>Node6&#45;&gt;Node3</title>
<path fill="none" stroke="#9a32cd" stroke-dasharray="5,2" d="M297.249,-24.5222C324.821,-28.0888 355.811,-32.0975 380.752,-35.3237"/>
<polygon fill="#9a32cd" stroke="#9a32cd" points="297.629,-21.0423 287.262,-23.2305 296.731,-27.9845 297.629,-21.0423"/>
<text text-anchor="middle" x="334" y="-34.5" font-family="Helvetica,sans-Serif" font-size="10.00"> null_scalar</text>
</g>
<!-- Node7 -->
<g id="node7" class="node"><title>Node7</title>
<g id="a_node7"><a xlink:href="classSystemInterface_1_1const__iterator.html" target="_top" xlink:title="SystemInterface::const\l_iterator\&lt; Real \&gt;">
<polygon fill="none" stroke="black" points="0,-0.5 0,-30.5 129,-30.5 129,-0.5 0,-0.5"/>
<text text-anchor="start" x="8" y="-18.5" font-family="Helvetica,sans-Serif" font-size="10.00">SystemInterface::const</text>
<text text-anchor="middle" x="64.5" y="-7.5" font-family="Helvetica,sans-Serif" font-size="10.00">_iterator&lt; Real &gt;</text>
</a>
</g>
</g>
<!-- Node7&#45;&gt;Node6 -->
<g id="edge6" class="edge"><title>Node7&#45;&gt;Node6</title>
<path fill="none" stroke="midnightblue" d="M139.225,-15.5C148.17,-15.5 157.219,-15.5 165.923,-15.5"/>
<polygon fill="midnightblue" stroke="midnightblue" points="139.196,-12.0001 129.196,-15.5 139.196,-19.0001 139.196,-12.0001"/>
</g>
</g>
</svg>
