<?xml version="1.0" encoding="UTF-8" standalone="no"?>
<!DOCTYPE svg PUBLIC "-//W3C//DTD SVG 1.1//EN"
 "http://www.w3.org/Graphics/SVG/1.1/DTD/svg11.dtd">
<!-- Generated by graphviz version 2.38.0 (20140413.2041)
 -->
<!-- Title: collision.cpp Pages: 1 -->
<svg width="1015pt" height="476pt"
 viewBox="0.00 0.00 1015.00 476.00" xmlns="http://www.w3.org/2000/svg" xmlns:xlink="http://www.w3.org/1999/xlink">
<g id="graph0" class="graph" transform="scale(1 1) rotate(0) translate(4 472)">
<title>collision.cpp</title>
<!-- Node1 -->
<g id="node1" class="node"><title>Node1</title>
<polygon fill="#bfbfbf" stroke="black" points="651.5,-448.5 651.5,-467.5 728.5,-467.5 728.5,-448.5 651.5,-448.5"/>
<text text-anchor="middle" x="690" y="-455.5" font-family="Helvetica,sans-Serif" font-size="10.00">collision.cpp</text>
</g>
<!-- Node2 -->
<g id="node2" class="node"><title>Node2</title>
<g id="a_node2"><a xlink:href="collision_8hpp.html" target="_top" xlink:title="collision.hpp">
<polygon fill="none" stroke="black" points="271,-392.5 271,-411.5 349,-411.5 349,-392.5 271,-392.5"/>
<text text-anchor="middle" x="310" y="-399.5" font-family="Helvetica,sans-Serif" font-size="10.00">collision.hpp</text>
</a>
</g>
</g>
<!-- Node1&#45;&gt;Node2 -->
<g id="edge1" class="edge"><title>Node1&#45;&gt;Node2</title>
<path fill="none" stroke="midnightblue" d="M651.472,-451.525C582.092,-441.666 436.243,-420.94 359.546,-410.041"/>
<polygon fill="midnightblue" stroke="midnightblue" points="359.591,-406.512 349.198,-408.57 358.606,-413.442 359.591,-406.512"/>
</g>
<!-- Node15 -->
<g id="node15" class="node"><title>Node15</title>
<g id="a_node15"><a xlink:href="errorhandling_8hpp.html" target="_top" xlink:title="This file contains the errorhandling code for severe errors, like a broken bond or illegal parameter ...">
<polygon fill="none" stroke="black" points="877.5,-112.5 877.5,-131.5 980.5,-131.5 980.5,-112.5 877.5,-112.5"/>
<text text-anchor="middle" x="929" y="-119.5" font-family="Helvetica,sans-Serif" font-size="10.00">errorhandling.hpp</text>
</a>
</g>
</g>
<!-- Node1&#45;&gt;Node15 -->
<g id="edge56" class="edge"><title>Node1&#45;&gt;Node15</title>
<path fill="none" stroke="midnightblue" d="M728.737,-455.766C794.991,-451.366 923,-431.88 923,-347 923,-347 923,-347 923,-233 923,-200.9 925.579,-163.61 927.355,-141.732"/>
<polygon fill="midnightblue" stroke="midnightblue" points="930.861,-141.808 928.216,-131.549 923.886,-141.219 930.861,-141.808"/>
</g>
<!-- Node26 -->
<g id="node26" class="node"><title>Node26</title>
<g id="a_node26"><a xlink:href="cells_8hpp.html" target="_top" xlink:title="This file contains everything related to the cell structure / cell system. ">
<polygon fill="none" stroke="black" points="605,-336.5 605,-355.5 665,-355.5 665,-336.5 605,-336.5"/>
<text text-anchor="middle" x="635" y="-343.5" font-family="Helvetica,sans-Serif" font-size="10.00">cells.hpp</text>
</a>
</g>
</g>
<!-- Node1&#45;&gt;Node26 -->
<g id="edge36" class="edge"><title>Node1&#45;&gt;Node26</title>
<path fill="none" stroke="midnightblue" d="M685.684,-448.368C676.688,-430.376 655.775,-388.55 643.813,-364.627"/>
<polygon fill="midnightblue" stroke="midnightblue" points="646.898,-362.97 639.296,-355.591 640.637,-366.101 646.898,-362.97"/>
</g>
<!-- Node33 -->
<g id="node33" class="node"><title>Node33</title>
<g id="a_node33"><a xlink:href="communication_8hpp.html" target="_top" xlink:title="This file contains the asynchronous MPI communication. ">
<polygon fill="none" stroke="black" points="722.5,-280.5 722.5,-299.5 835.5,-299.5 835.5,-280.5 722.5,-280.5"/>
<text text-anchor="middle" x="779" y="-287.5" font-family="Helvetica,sans-Serif" font-size="10.00">communication.hpp</text>
</a>
</g>
</g>
<!-- Node1&#45;&gt;Node33 -->
<g id="edge46" class="edge"><title>Node1&#45;&gt;Node33</title>
<path fill="none" stroke="midnightblue" d="M694.785,-448.075C708.916,-421.719 750.65,-343.878 769.531,-308.661"/>
<polygon fill="midnightblue" stroke="midnightblue" points="772.766,-310.035 774.406,-299.568 766.596,-306.728 772.766,-310.035"/>
</g>
<!-- Node3 -->
<g id="node3" class="node"><title>Node3</title>
<g id="a_node3"><a xlink:href="particle__data_8hpp.html" target="_top" xlink:title="For more information on particle_data, see particle_data.c. ">
<polygon fill="none" stroke="black" points="434.5,-224.5 434.5,-243.5 535.5,-243.5 535.5,-224.5 434.5,-224.5"/>
<text text-anchor="middle" x="485" y="-231.5" font-family="Helvetica,sans-Serif" font-size="10.00">particle_data.hpp</text>
</a>
</g>
</g>
<!-- Node2&#45;&gt;Node3 -->
<g id="edge2" class="edge"><title>Node2&#45;&gt;Node3</title>
<path fill="none" stroke="midnightblue" d="M313.673,-392.247C324.807,-365.857 357.974,-288.366 367,-280 384.501,-263.78 408.448,-253.218 430.197,-246.435"/>
<polygon fill="midnightblue" stroke="midnightblue" points="431.383,-249.735 440.005,-243.577 429.425,-243.014 431.383,-249.735"/>
</g>
<!-- Node21 -->
<g id="node21" class="node"><title>Node21</title>
<g id="a_node21"><a xlink:href="interaction__data_8hpp.html" target="_top" xlink:title="Various procedures concerning interactions between particles. ">
<polygon fill="none" stroke="black" points="376.5,-280.5 376.5,-299.5 493.5,-299.5 493.5,-280.5 376.5,-280.5"/>
<text text-anchor="middle" x="435" y="-287.5" font-family="Helvetica,sans-Serif" font-size="10.00">interaction_data.hpp</text>
</a>
</g>
</g>
<!-- Node2&#45;&gt;Node21 -->
<g id="edge23" class="edge"><title>Node2&#45;&gt;Node21</title>
<path fill="none" stroke="midnightblue" d="M320.005,-392.415C330.502,-383.39 347.465,-368.759 362,-356 380.976,-339.342 402.555,-320.089 417.3,-306.886"/>
<polygon fill="midnightblue" stroke="midnightblue" points="420.011,-309.157 425.121,-299.876 415.338,-303.944 420.011,-309.157"/>
</g>
<!-- Node22 -->
<g id="node22" class="node"><title>Node22</title>
<g id="a_node22"><a xlink:href="virtual__sites__relative_8hpp.html" target="_top" xlink:title="virtual_sites_relative.hpp">
<polygon fill="none" stroke="black" points="0,-280.5 0,-299.5 140,-299.5 140,-280.5 0,-280.5"/>
<text text-anchor="middle" x="70" y="-287.5" font-family="Helvetica,sans-Serif" font-size="10.00">virtual_sites_relative.hpp</text>
</a>
</g>
</g>
<!-- Node2&#45;&gt;Node22 -->
<g id="edge26" class="edge"><title>Node2&#45;&gt;Node22</title>
<path fill="none" stroke="midnightblue" d="M270.676,-400.451C228.263,-398.06 160.452,-388.845 113,-356 96.1868,-344.362 84.2392,-323.813 77.2718,-308.929"/>
<polygon fill="midnightblue" stroke="midnightblue" points="80.4551,-307.473 73.2453,-299.709 74.0401,-310.274 80.4551,-307.473"/>
</g>
<!-- Node23 -->
<g id="node23" class="node"><title>Node23</title>
<g id="a_node23"><a xlink:href="virtual__sites_8hpp.html" target="_top" xlink:title="This file contains routine to handle virtual sites Virtual sites are like particles, but they will be not integrated. ">
<polygon fill="none" stroke="black" points="222,-336.5 222,-355.5 320,-355.5 320,-336.5 222,-336.5"/>
<text text-anchor="middle" x="271" y="-343.5" font-family="Helvetica,sans-Serif" font-size="10.00">virtual_sites.hpp</text>
</a>
</g>
</g>
<!-- Node2&#45;&gt;Node23 -->
<g id="edge29" class="edge"><title>Node2&#45;&gt;Node23</title>
<path fill="none" stroke="midnightblue" d="M303.56,-392.083C298.051,-384.455 289.969,-373.264 283.235,-363.941"/>
<polygon fill="midnightblue" stroke="midnightblue" points="286.013,-361.809 277.32,-355.751 280.338,-365.907 286.013,-361.809"/>
</g>
<!-- Node25 -->
<g id="node25" class="node"><title>Node25</title>
<g id="a_node25"><a xlink:href="integrate_8hpp.html" target="_top" xlink:title="Molecular dynamics integrator. ">
<polygon fill="none" stroke="black" points="122,-336.5 122,-355.5 204,-355.5 204,-336.5 122,-336.5"/>
<text text-anchor="middle" x="163" y="-343.5" font-family="Helvetica,sans-Serif" font-size="10.00">integrate.hpp</text>
</a>
</g>
</g>
<!-- Node2&#45;&gt;Node25 -->
<g id="edge35" class="edge"><title>Node2&#45;&gt;Node25</title>
<path fill="none" stroke="midnightblue" d="M286.707,-392.444C262.193,-383.438 223.404,-369.189 195.8,-359.049"/>
<polygon fill="midnightblue" stroke="midnightblue" points="196.777,-355.679 186.184,-355.516 194.363,-362.25 196.777,-355.679"/>
</g>
<!-- Node4 -->
<g id="node4" class="node"><title>Node4</title>
<g id="a_node4"><a xlink:href="utils_8hpp.html" target="_top" xlink:title="Small functions that are useful not only for one modul. ">
<polygon fill="none" stroke="black" points="510.5,-168.5 510.5,-187.5 569.5,-187.5 569.5,-168.5 510.5,-168.5"/>
<text text-anchor="middle" x="540" y="-175.5" font-family="Helvetica,sans-Serif" font-size="10.00">utils.hpp</text>
</a>
</g>
</g>
<!-- Node3&#45;&gt;Node4 -->
<g id="edge3" class="edge"><title>Node3&#45;&gt;Node4</title>
<path fill="none" stroke="midnightblue" d="M494.082,-224.083C502.171,-216.141 514.195,-204.335 523.91,-194.797"/>
<polygon fill="midnightblue" stroke="midnightblue" points="526.403,-197.254 531.087,-187.751 521.499,-192.26 526.403,-197.254"/>
</g>
<!-- Node5 -->
<g id="node5" class="node"><title>Node5</title>
<polygon fill="none" stroke="#bfbfbf" points="507.5,-112.5 507.5,-131.5 554.5,-131.5 554.5,-112.5 507.5,-112.5"/>
<text text-anchor="middle" x="531" y="-119.5" font-family="Helvetica,sans-Serif" font-size="10.00">cmath</text>
</g>
<!-- Node4&#45;&gt;Node5 -->
<g id="edge4" class="edge"><title>Node4&#45;&gt;Node5</title>
<path fill="none" stroke="midnightblue" d="M538.514,-168.083C537.321,-160.927 535.606,-150.635 534.115,-141.691"/>
<polygon fill="midnightblue" stroke="midnightblue" points="537.555,-141.04 532.459,-131.751 530.65,-142.19 537.555,-141.04"/>
</g>
<!-- Node6 -->
<g id="node6" class="node"><title>Node6</title>
<polygon fill="none" stroke="#bfbfbf" points="573,-112.5 573,-131.5 619,-131.5 619,-112.5 573,-112.5"/>
<text text-anchor="middle" x="596" y="-119.5" font-family="Helvetica,sans-Serif" font-size="10.00">cstdio</text>
</g>
<!-- Node4&#45;&gt;Node6 -->
<g id="edge5" class="edge"><title>Node4&#45;&gt;Node6</title>
<path fill="none" stroke="midnightblue" d="M548.997,-168.324C557.194,-160.42 569.506,-148.548 579.472,-138.938"/>
<polygon fill="midnightblue" stroke="midnightblue" points="582.07,-141.295 586.839,-131.834 577.211,-136.256 582.07,-141.295"/>
</g>
<!-- Node7 -->
<g id="node7" class="node"><title>Node7</title>
<polygon fill="none" stroke="#bfbfbf" points="637.5,-112.5 637.5,-131.5 686.5,-131.5 686.5,-112.5 637.5,-112.5"/>
<text text-anchor="middle" x="662" y="-119.5" font-family="Helvetica,sans-Serif" font-size="10.00">cstdlib</text>
</g>
<!-- Node4&#45;&gt;Node7 -->
<g id="edge6" class="edge"><title>Node4&#45;&gt;Node7</title>
<path fill="none" stroke="midnightblue" d="M559.331,-168.444C579.32,-159.596 610.743,-145.687 633.564,-135.586"/>
<polygon fill="midnightblue" stroke="midnightblue" points="635.032,-138.764 642.759,-131.516 632.198,-132.363 635.032,-138.764"/>
</g>
<!-- Node8 -->
<g id="node8" class="node"><title>Node8</title>
<polygon fill="none" stroke="#bfbfbf" points="705,-112.5 705,-131.5 755,-131.5 755,-112.5 705,-112.5"/>
<text text-anchor="middle" x="730" y="-119.5" font-family="Helvetica,sans-Serif" font-size="10.00">cstring</text>
</g>
<!-- Node4&#45;&gt;Node8 -->
<g id="edge7" class="edge"><title>Node4&#45;&gt;Node8</title>
<path fill="none" stroke="midnightblue" d="M569.688,-168.562C603.505,-158.951 658.724,-143.257 694.713,-133.029"/>
<polygon fill="midnightblue" stroke="midnightblue" points="696.107,-136.271 704.769,-130.171 694.194,-129.538 696.107,-136.271"/>
</g>
<!-- Node9 -->
<g id="node9" class="node"><title>Node9</title>
<g id="a_node9"><a xlink:href="config_8hpp.html" target="_top" xlink:title="This file contains the defaults for Espresso. ">
<polygon fill="none" stroke="black" points="282.5,-56.5 282.5,-75.5 349.5,-75.5 349.5,-56.5 282.5,-56.5"/>
<text text-anchor="middle" x="316" y="-63.5" font-family="Helvetica,sans-Serif" font-size="10.00">config.hpp</text>
</a>
</g>
</g>
<!-- Node4&#45;&gt;Node9 -->
<g id="edge8" class="edge"><title>Node4&#45;&gt;Node9</title>
<path fill="none" stroke="midnightblue" d="M510.401,-168.511C484.55,-160.593 446.363,-147.667 415,-132 385.783,-117.405 354.708,-95.8971 335.33,-81.6738"/>
<polygon fill="midnightblue" stroke="midnightblue" points="337.169,-78.6803 327.057,-75.5207 332.992,-84.2971 337.169,-78.6803"/>
</g>
<!-- Node13 -->
<g id="node13" class="node"><title>Node13</title>
<g id="a_node13"><a xlink:href="debug_8hpp.html" target="_top" xlink:title="This file controls debug facilities. ">
<polygon fill="none" stroke="black" points="178,-112.5 178,-131.5 246,-131.5 246,-112.5 178,-112.5"/>
<text text-anchor="middle" x="212" y="-119.5" font-family="Helvetica,sans-Serif" font-size="10.00">debug.hpp</text>
</a>
</g>
</g>
<!-- Node4&#45;&gt;Node13 -->
<g id="edge12" class="edge"><title>Node4&#45;&gt;Node13</title>
<path fill="none" stroke="midnightblue" d="M510.377,-172.818C460.169,-165.624 354.942,-150.085 256.089,-132.128"/>
<polygon fill="midnightblue" stroke="midnightblue" points="256.704,-128.682 246.237,-130.326 255.445,-135.568 256.704,-128.682"/>
</g>
<!-- Node14 -->
<g id="node14" class="node"><title>Node14</title>
<g id="a_node14"><a xlink:href="lees__edwards_8hpp.html" target="_top" xlink:title="lees_edwards.hpp">
<polygon fill="none" stroke="black" points="264,-112.5 264,-131.5 368,-131.5 368,-112.5 264,-112.5"/>
<text text-anchor="middle" x="316" y="-119.5" font-family="Helvetica,sans-Serif" font-size="10.00">lees_edwards.hpp</text>
</a>
</g>
</g>
<!-- Node4&#45;&gt;Node14 -->
<g id="edge14" class="edge"><title>Node4&#45;&gt;Node14</title>
<path fill="none" stroke="midnightblue" d="M510.255,-169.829C472.164,-160.647 405.783,-144.644 361.369,-133.937"/>
<polygon fill="midnightblue" stroke="midnightblue" points="361.955,-130.478 351.413,-131.537 360.315,-137.283 361.955,-130.478"/>
</g>
<!-- Node4&#45;&gt;Node15 -->
<g id="edge16" class="edge"><title>Node4&#45;&gt;Node15</title>
<path fill="none" stroke="midnightblue" d="M569.658,-171.179C575.716,-170.064 582.055,-168.949 588,-168 685.314,-152.467 798.87,-138.26 867.287,-130.125"/>
<polygon fill="midnightblue" stroke="midnightblue" points="867.939,-133.572 877.458,-128.92 867.116,-126.621 867.939,-133.572"/>
</g>
<!-- Node19 -->
<g id="node19" class="node"><title>Node19</title>
<polygon fill="none" stroke="#bfbfbf" points="773.5,-112.5 773.5,-131.5 820.5,-131.5 820.5,-112.5 773.5,-112.5"/>
<text text-anchor="middle" x="797" y="-119.5" font-family="Helvetica,sans-Serif" font-size="10.00">vector</text>
</g>
<!-- Node4&#45;&gt;Node19 -->
<g id="edge21" class="edge"><title>Node4&#45;&gt;Node19</title>
<path fill="none" stroke="midnightblue" d="M569.677,-171.299C618.248,-161.927 713.537,-143.361 763.35,-131.993"/>
<polygon fill="midnightblue" stroke="midnightblue" points="764.313,-135.363 773.256,-129.683 762.723,-128.546 764.313,-135.363"/>
</g>
<!-- Node20 -->
<g id="node20" class="node"><title>Node20</title>
<polygon fill="none" stroke="#bfbfbf" points="424.5,-112.5 424.5,-131.5 489.5,-131.5 489.5,-112.5 424.5,-112.5"/>
<text text-anchor="middle" x="457" y="-119.5" font-family="Helvetica,sans-Serif" font-size="10.00">exception</text>
</g>
<!-- Node4&#45;&gt;Node20 -->
<g id="edge22" class="edge"><title>Node4&#45;&gt;Node20</title>
<path fill="none" stroke="midnightblue" d="M526.665,-168.324C513.838,-159.979 494.215,-147.212 479.06,-137.352"/>
<polygon fill="midnightblue" stroke="midnightblue" points="480.593,-134.174 470.302,-131.655 476.776,-140.042 480.593,-134.174"/>
</g>
<!-- Node10 -->
<g id="node10" class="node"><title>Node10</title>
<g id="a_node10"><a xlink:href="acconfig_8hpp.html" target="_top" xlink:title="acconfig.hpp">
<polygon fill="none" stroke="black" points="166,-0.5 166,-19.5 244,-19.5 244,-0.5 166,-0.5"/>
<text text-anchor="middle" x="205" y="-7.5" font-family="Helvetica,sans-Serif" font-size="10.00">acconfig.hpp</text>
</a>
</g>
</g>
<!-- Node9&#45;&gt;Node10 -->
<g id="edge9" class="edge"><title>Node9&#45;&gt;Node10</title>
<path fill="none" stroke="midnightblue" d="M298.166,-56.324C280.284,-47.6247 252.525,-34.1202 231.954,-24.113"/>
<polygon fill="midnightblue" stroke="midnightblue" points="233.313,-20.8819 222.79,-19.6545 230.251,-27.1765 233.313,-20.8819"/>
</g>
<!-- Node11 -->
<g id="node11" class="node"><title>Node11</title>
<g id="a_node11"><a xlink:href="myconfig-final_8hpp.html" target="_top" xlink:title="myconfig&#45;final.hpp">
<polygon fill="none" stroke="black" points="262.5,-0.5 262.5,-19.5 369.5,-19.5 369.5,-0.5 262.5,-0.5"/>
<text text-anchor="middle" x="316" y="-7.5" font-family="Helvetica,sans-Serif" font-size="10.00">myconfig&#45;final.hpp</text>
</a>
</g>
</g>
<!-- Node9&#45;&gt;Node11 -->
<g id="edge10" class="edge"><title>Node9&#45;&gt;Node11</title>
<path fill="none" stroke="midnightblue" d="M316,-56.083C316,-49.0059 316,-38.8611 316,-29.9865"/>
<polygon fill="midnightblue" stroke="midnightblue" points="319.5,-29.751 316,-19.7511 312.5,-29.7511 319.5,-29.751"/>
</g>
<!-- Node12 -->
<g id="node12" class="node"><title>Node12</title>
<g id="a_node12"><a xlink:href="config-features_8hpp.html" target="_top" xlink:title="config&#45;features.hpp">
<polygon fill="none" stroke="black" points="387.5,-0.5 387.5,-19.5 498.5,-19.5 498.5,-0.5 387.5,-0.5"/>
<text text-anchor="middle" x="443" y="-7.5" font-family="Helvetica,sans-Serif" font-size="10.00">config&#45;features.hpp</text>
</a>
</g>
</g>
<!-- Node9&#45;&gt;Node12 -->
<g id="edge11" class="edge"><title>Node9&#45;&gt;Node12</title>
<path fill="none" stroke="midnightblue" d="M336.124,-56.4435C357.024,-47.5566 389.935,-33.5632 413.716,-23.4514"/>
<polygon fill="midnightblue" stroke="midnightblue" points="415.138,-26.6504 422.971,-19.5164 412.398,-20.2085 415.138,-26.6504"/>
</g>
<!-- Node13&#45;&gt;Node9 -->
<g id="edge13" class="edge"><title>Node13&#45;&gt;Node9</title>
<path fill="none" stroke="midnightblue" d="M228.709,-112.324C245.312,-103.703 271.002,-90.3643 290.22,-80.3855"/>
<polygon fill="midnightblue" stroke="midnightblue" points="292.07,-83.3689 299.332,-75.6545 288.844,-77.1565 292.07,-83.3689"/>
</g>
<!-- Node14&#45;&gt;Node9 -->
<g id="edge15" class="edge"><title>Node14&#45;&gt;Node9</title>
<path fill="none" stroke="midnightblue" d="M316,-112.083C316,-105.006 316,-94.8611 316,-85.9865"/>
<polygon fill="midnightblue" stroke="midnightblue" points="319.5,-85.751 316,-75.7511 312.5,-85.7511 319.5,-85.751"/>
</g>
<!-- Node15&#45;&gt;Node9 -->
<g id="edge17" class="edge"><title>Node15&#45;&gt;Node9</title>
<path fill="none" stroke="midnightblue" d="M877.151,-113.663C872.371,-113.067 867.598,-112.502 863,-112 676.253,-91.6004 452.722,-75.9321 359.821,-69.8066"/>
<polygon fill="midnightblue" stroke="midnightblue" points="359.879,-66.303 349.672,-69.1412 359.421,-73.288 359.879,-66.303"/>
</g>
<!-- Node16 -->
<g id="node16" class="node"><title>Node16</title>
<polygon fill="none" stroke="#bfbfbf" points="963,-56.5 963,-75.5 1007,-75.5 1007,-56.5 963,-56.5"/>
<text text-anchor="middle" x="985" y="-63.5" font-family="Helvetica,sans-Serif" font-size="10.00">string</text>
</g>
<!-- Node15&#45;&gt;Node16 -->
<g id="edge18" class="edge"><title>Node15&#45;&gt;Node16</title>
<path fill="none" stroke="midnightblue" d="M937.997,-112.324C946.194,-104.42 958.506,-92.5482 968.472,-82.9377"/>
<polygon fill="midnightblue" stroke="midnightblue" points="971.07,-85.2947 975.839,-75.8339 966.211,-80.2558 971.07,-85.2947"/>
</g>
<!-- Node17 -->
<g id="node17" class="node"><title>Node17</title>
<polygon fill="none" stroke="#bfbfbf" points="839,-56.5 839,-75.5 895,-75.5 895,-56.5 839,-56.5"/>
<text text-anchor="middle" x="867" y="-63.5" font-family="Helvetica,sans-Serif" font-size="10.00">sstream</text>
</g>
<!-- Node15&#45;&gt;Node17 -->
<g id="edge19" class="edge"><title>Node15&#45;&gt;Node17</title>
<path fill="none" stroke="midnightblue" d="M919.039,-112.324C909.873,-104.341 896.063,-92.3128 884.972,-82.6529"/>
<polygon fill="midnightblue" stroke="midnightblue" points="886.982,-79.7624 877.143,-75.8339 882.385,-85.041 886.982,-79.7624"/>
</g>
<!-- Node18 -->
<g id="node18" class="node"><title>Node18</title>
<polygon fill="none" stroke="#bfbfbf" points="913,-56.5 913,-75.5 945,-75.5 945,-56.5 913,-56.5"/>
<text text-anchor="middle" x="929" y="-63.5" font-family="Helvetica,sans-Serif" font-size="10.00">list</text>
</g>
<!-- Node15&#45;&gt;Node18 -->
<g id="edge20" class="edge"><title>Node15&#45;&gt;Node18</title>
<path fill="none" stroke="midnightblue" d="M929,-112.083C929,-105.006 929,-94.8611 929,-85.9865"/>
<polygon fill="midnightblue" stroke="midnightblue" points="932.5,-85.751 929,-75.7511 925.5,-85.7511 932.5,-85.751"/>
</g>
<!-- Node21&#45;&gt;Node3 -->
<g id="edge25" class="edge"><title>Node21&#45;&gt;Node3</title>
<path fill="none" stroke="midnightblue" d="M443.256,-280.083C450.465,-272.298 461.11,-260.801 469.846,-251.367"/>
<polygon fill="midnightblue" stroke="midnightblue" points="472.671,-253.467 476.897,-243.751 467.535,-248.711 472.671,-253.467"/>
</g>
<!-- Node21&#45;&gt;Node4 -->
<g id="edge24" class="edge"><title>Node21&#45;&gt;Node4</title>
<path fill="none" stroke="midnightblue" d="M430.04,-280.149C423.282,-266.776 413.286,-241.163 425,-224 441.805,-199.378 474.28,-188.228 500.445,-183.178"/>
<polygon fill="midnightblue" stroke="midnightblue" points="501.208,-186.599 510.48,-181.472 500.035,-179.698 501.208,-186.599"/>
</g>
<!-- Node22&#45;&gt;Node3 -->
<g id="edge28" class="edge"><title>Node22&#45;&gt;Node3</title>
<path fill="none" stroke="midnightblue" d="M135.758,-280.444C215.048,-270.126 347.231,-252.927 424.225,-242.908"/>
<polygon fill="midnightblue" stroke="midnightblue" points="424.787,-246.365 434.252,-241.603 423.884,-239.423 424.787,-246.365"/>
</g>
<!-- Node22&#45;&gt;Node9 -->
<g id="edge27" class="edge"><title>Node22&#45;&gt;Node9</title>
<path fill="none" stroke="midnightblue" d="M71.5748,-280.459C77.2904,-251.936 99.6469,-159.114 156,-112 188.702,-84.6597 236.937,-73.8884 271.892,-69.6678"/>
<polygon fill="midnightblue" stroke="midnightblue" points="272.71,-73.1003 282.281,-68.5572 271.966,-66.14 272.71,-73.1003"/>
</g>
<!-- Node23&#45;&gt;Node3 -->
<g id="edge30" class="edge"><title>Node23&#45;&gt;Node3</title>
<path fill="none" stroke="midnightblue" d="M276.95,-336.479C287.076,-322.605 309.009,-295.162 334,-280 361.51,-263.31 395.621,-252.456 424.457,-245.6"/>
<polygon fill="midnightblue" stroke="midnightblue" points="425.44,-248.966 434.417,-243.338 423.89,-242.14 425.44,-248.966"/>
</g>
<!-- Node23&#45;&gt;Node22 -->
<g id="edge34" class="edge"><title>Node23&#45;&gt;Node22</title>
<path fill="none" stroke="midnightblue" d="M239.151,-336.444C204.602,-327.162 149.318,-312.309 111.417,-302.127"/>
<polygon fill="midnightblue" stroke="midnightblue" points="112.266,-298.731 101.7,-299.516 110.449,-305.491 112.266,-298.731"/>
</g>
<!-- Node24 -->
<g id="node24" class="node"><title>Node24</title>
<g id="a_node24"><a xlink:href="virtual__sites__com_8hpp.html" target="_top" xlink:title="virtual_sites_com.hpp">
<polygon fill="none" stroke="black" points="158,-280.5 158,-299.5 282,-299.5 282,-280.5 158,-280.5"/>
<text text-anchor="middle" x="220" y="-287.5" font-family="Helvetica,sans-Serif" font-size="10.00">virtual_sites_com.hpp</text>
</a>
</g>
</g>
<!-- Node23&#45;&gt;Node24 -->
<g id="edge31" class="edge"><title>Node23&#45;&gt;Node24</title>
<path fill="none" stroke="midnightblue" d="M262.578,-336.083C255.152,-328.22 244.148,-316.569 235.188,-307.081"/>
<polygon fill="midnightblue" stroke="midnightblue" points="237.676,-304.618 228.265,-299.751 232.587,-309.424 237.676,-304.618"/>
</g>
<!-- Node24&#45;&gt;Node3 -->
<g id="edge33" class="edge"><title>Node24&#45;&gt;Node3</title>
<path fill="none" stroke="midnightblue" d="M261.99,-280.444C308.412,-270.984 383.228,-255.738 433.24,-245.547"/>
<polygon fill="midnightblue" stroke="midnightblue" points="434.107,-248.943 443.206,-243.516 432.709,-242.084 434.107,-248.943"/>
</g>
<!-- Node24&#45;&gt;Node9 -->
<g id="edge32" class="edge"><title>Node24&#45;&gt;Node9</title>
<path fill="none" stroke="midnightblue" d="M212.738,-280.331C190.698,-252.93 128.493,-166.763 169,-112 192.518,-80.2058 238.057,-70.1411 272.248,-67.3032"/>
<polygon fill="midnightblue" stroke="midnightblue" points="272.706,-70.7809 282.457,-66.6384 272.251,-63.7957 272.706,-70.7809"/>
</g>
<!-- Node26&#45;&gt;Node3 -->
<g id="edge37" class="edge"><title>Node26&#45;&gt;Node3</title>
<path fill="none" stroke="midnightblue" d="M630.527,-336.296C623.131,-322.653 607.15,-296.132 587,-280 568.562,-265.238 544.525,-254.325 524.416,-246.945"/>
<polygon fill="midnightblue" stroke="midnightblue" points="525.497,-243.615 514.902,-243.604 523.178,-250.22 525.497,-243.615"/>
</g>
<!-- Node27 -->
<g id="node27" class="node"><title>Node27</title>
<g id="a_node27"><a xlink:href="ghosts_8hpp.html" target="_top" xlink:title="Ghost particles and particle exchange. ">
<polygon fill="none" stroke="black" points="634,-280.5 634,-299.5 704,-299.5 704,-280.5 634,-280.5"/>
<text text-anchor="middle" x="669" y="-287.5" font-family="Helvetica,sans-Serif" font-size="10.00">ghosts.hpp</text>
</a>
</g>
</g>
<!-- Node26&#45;&gt;Node27 -->
<g id="edge38" class="edge"><title>Node26&#45;&gt;Node27</title>
<path fill="none" stroke="midnightblue" d="M640.614,-336.083C645.367,-328.534 652.318,-317.495 658.152,-308.23"/>
<polygon fill="midnightblue" stroke="midnightblue" points="661.124,-310.078 663.49,-299.751 655.2,-306.349 661.124,-310.078"/>
</g>
<!-- Node32 -->
<g id="node32" class="node"><title>Node32</title>
<g id="a_node32"><a xlink:href="verlet_8hpp.html" target="_top" xlink:title="This file contains routines to setup and handle interaction pair lists (verlet pair lists) for the no...">
<polygon fill="none" stroke="black" points="512,-280.5 512,-299.5 578,-299.5 578,-280.5 512,-280.5"/>
<text text-anchor="middle" x="545" y="-287.5" font-family="Helvetica,sans-Serif" font-size="10.00">verlet.hpp</text>
</a>
</g>
</g>
<!-- Node26&#45;&gt;Node32 -->
<g id="edge44" class="edge"><title>Node26&#45;&gt;Node32</title>
<path fill="none" stroke="midnightblue" d="M620.54,-336.324C606.5,-327.9 584.952,-314.971 568.457,-305.074"/>
<polygon fill="midnightblue" stroke="midnightblue" points="569.8,-301.798 559.424,-299.655 566.198,-307.801 569.8,-301.798"/>
</g>
<!-- Node27&#45;&gt;Node3 -->
<g id="edge43" class="edge"><title>Node27&#45;&gt;Node3</title>
<path fill="none" stroke="midnightblue" d="M639.845,-280.444C608.487,-271.241 558.469,-256.562 523.803,-246.388"/>
<polygon fill="midnightblue" stroke="midnightblue" points="524.6,-242.974 514.019,-243.516 522.629,-249.691 524.6,-242.974"/>
</g>
<!-- Node28 -->
<g id="node28" class="node"><title>Node28</title>
<g id="a_node28"><a xlink:href="mpi_8h.html" target="_top" xlink:title="This is the MPIfake implementation. ">
<polygon fill="none" stroke="black" points="743,-224.5 743,-243.5 787,-243.5 787,-224.5 743,-224.5"/>
<text text-anchor="middle" x="765" y="-231.5" font-family="Helvetica,sans-Serif" font-size="10.00">mpi.h</text>
</a>
</g>
</g>
<!-- Node27&#45;&gt;Node28 -->
<g id="edge39" class="edge"><title>Node27&#45;&gt;Node28</title>
<path fill="none" stroke="midnightblue" d="M684.424,-280.324C699.54,-271.822 722.815,-258.729 740.471,-248.797"/>
<polygon fill="midnightblue" stroke="midnightblue" points="742.614,-251.608 749.614,-243.655 739.183,-245.507 742.614,-251.608"/>
</g>
<!-- Node29 -->
<g id="node29" class="node"><title>Node29</title>
<polygon fill="none" stroke="#bfbfbf" points="668.5,-168.5 668.5,-187.5 721.5,-187.5 721.5,-168.5 668.5,-168.5"/>
<text text-anchor="middle" x="695" y="-175.5" font-family="Helvetica,sans-Serif" font-size="10.00">string.h</text>
</g>
<!-- Node28&#45;&gt;Node29 -->
<g id="edge40" class="edge"><title>Node28&#45;&gt;Node29</title>
<path fill="none" stroke="midnightblue" d="M753.753,-224.324C743.203,-216.185 727.199,-203.839 714.558,-194.087"/>
<polygon fill="midnightblue" stroke="midnightblue" points="716.507,-191.171 706.451,-187.834 712.231,-196.713 716.507,-191.171"/>
</g>
<!-- Node30 -->
<g id="node30" class="node"><title>Node30</title>
<polygon fill="none" stroke="#bfbfbf" points="740,-168.5 740,-187.5 790,-187.5 790,-168.5 740,-168.5"/>
<text text-anchor="middle" x="765" y="-175.5" font-family="Helvetica,sans-Serif" font-size="10.00">stdio.h</text>
</g>
<!-- Node28&#45;&gt;Node30 -->
<g id="edge41" class="edge"><title>Node28&#45;&gt;Node30</title>
<path fill="none" stroke="midnightblue" d="M765,-224.083C765,-217.006 765,-206.861 765,-197.986"/>
<polygon fill="midnightblue" stroke="midnightblue" points="768.5,-197.751 765,-187.751 761.5,-197.751 768.5,-197.751"/>
</g>
<!-- Node31 -->
<g id="node31" class="node"><title>Node31</title>
<polygon fill="none" stroke="#bfbfbf" points="597.5,-168.5 597.5,-187.5 650.5,-187.5 650.5,-168.5 597.5,-168.5"/>
<text text-anchor="middle" x="624" y="-175.5" font-family="Helvetica,sans-Serif" font-size="10.00">stdlib.h</text>
</g>
<!-- Node28&#45;&gt;Node31 -->
<g id="edge42" class="edge"><title>Node28&#45;&gt;Node31</title>
<path fill="none" stroke="midnightblue" d="M742.969,-224.562C719.618,-215.62 682.517,-201.411 655.955,-191.238"/>
<polygon fill="midnightblue" stroke="midnightblue" points="656.932,-187.864 646.342,-187.556 654.429,-194.401 656.932,-187.864"/>
</g>
<!-- Node32&#45;&gt;Node3 -->
<g id="edge45" class="edge"><title>Node32&#45;&gt;Node3</title>
<path fill="none" stroke="midnightblue" d="M535.36,-280.324C526.49,-272.341 513.125,-260.313 502.392,-250.653"/>
<polygon fill="midnightblue" stroke="midnightblue" points="504.59,-247.922 494.815,-243.834 499.907,-253.125 504.59,-247.922"/>
</g>
<!-- Node33&#45;&gt;Node3 -->
<g id="edge47" class="edge"><title>Node33&#45;&gt;Node3</title>
<path fill="none" stroke="midnightblue" d="M732.415,-280.444C680.59,-270.925 596.868,-255.547 541.385,-245.356"/>
<polygon fill="midnightblue" stroke="midnightblue" points="541.835,-241.881 531.367,-243.516 540.57,-248.765 541.835,-241.881"/>
</g>
<!-- Node33&#45;&gt;Node28 -->
<g id="edge52" class="edge"><title>Node33&#45;&gt;Node28</title>
<path fill="none" stroke="midnightblue" d="M776.688,-280.083C774.833,-272.927 772.165,-262.635 769.846,-253.691"/>
<polygon fill="midnightblue" stroke="midnightblue" points="773.166,-252.553 767.269,-243.751 766.391,-254.309 773.166,-252.553"/>
</g>
<!-- Node34 -->
<g id="node34" class="node"><title>Node34</title>
<g id="a_node34"><a xlink:href="random_8hpp.html" target="_top" xlink:title="A random generator. ">
<polygon fill="none" stroke="black" points="553.5,-224.5 553.5,-243.5 628.5,-243.5 628.5,-224.5 553.5,-224.5"/>
<text text-anchor="middle" x="591" y="-231.5" font-family="Helvetica,sans-Serif" font-size="10.00">random.hpp</text>
</a>
</g>
</g>
<!-- Node33&#45;&gt;Node34 -->
<g id="edge48" class="edge"><title>Node33&#45;&gt;Node34</title>
<path fill="none" stroke="midnightblue" d="M749.211,-280.444C717.171,-271.241 666.067,-256.562 630.647,-246.388"/>
<polygon fill="midnightblue" stroke="midnightblue" points="631.227,-242.913 620.65,-243.516 629.295,-249.641 631.227,-242.913"/>
</g>
<!-- Node35 -->
<g id="node35" class="node"><title>Node35</title>
<g id="a_node35"><a xlink:href="topology_8hpp.html" target="_top" xlink:title="This file contains functions for handling the system topology. ">
<polygon fill="none" stroke="black" points="646.5,-224.5 646.5,-243.5 725.5,-243.5 725.5,-224.5 646.5,-224.5"/>
<text text-anchor="middle" x="686" y="-231.5" font-family="Helvetica,sans-Serif" font-size="10.00">topology.hpp</text>
</a>
</g>
</g>
<!-- Node33&#45;&gt;Node35 -->
<g id="edge50" class="edge"><title>Node33&#45;&gt;Node35</title>
<path fill="none" stroke="midnightblue" d="M764.058,-280.324C749.415,-271.822 726.866,-258.729 709.762,-248.797"/>
<polygon fill="midnightblue" stroke="midnightblue" points="711.31,-245.649 700.905,-243.655 707.795,-251.703 711.31,-245.649"/>
</g>
<!-- Node36 -->
<g id="node36" class="node"><title>Node36</title>
<g id="a_node36"><a xlink:href="cuda__init_8hpp.html" target="_top" xlink:title="cuda_init.hpp">
<polygon fill="none" stroke="black" points="808,-168.5 808,-187.5 890,-187.5 890,-168.5 808,-168.5"/>
<text text-anchor="middle" x="849" y="-175.5" font-family="Helvetica,sans-Serif" font-size="10.00">cuda_init.hpp</text>
</a>
</g>
</g>
<!-- Node33&#45;&gt;Node36 -->
<g id="edge53" class="edge"><title>Node33&#45;&gt;Node36</title>
<path fill="none" stroke="midnightblue" d="M784.493,-280.368C795.994,-262.296 822.797,-220.176 837.986,-196.307"/>
<polygon fill="midnightblue" stroke="midnightblue" points="841.117,-197.907 843.533,-187.591 835.211,-194.149 841.117,-197.907"/>
</g>
<!-- Node34&#45;&gt;Node4 -->
<g id="edge49" class="edge"><title>Node34&#45;&gt;Node4</title>
<path fill="none" stroke="midnightblue" d="M582.578,-224.083C575.152,-216.22 564.148,-204.569 555.188,-195.081"/>
<polygon fill="midnightblue" stroke="midnightblue" points="557.676,-192.618 548.265,-187.751 552.587,-197.424 557.676,-192.618"/>
</g>
<!-- Node35&#45;&gt;Node4 -->
<g id="edge51" class="edge"><title>Node35&#45;&gt;Node4</title>
<path fill="none" stroke="midnightblue" d="M662.866,-224.444C638.518,-215.438 599.993,-201.189 572.577,-191.049"/>
<polygon fill="midnightblue" stroke="midnightblue" points="573.619,-187.703 563.026,-187.516 571.191,-194.268 573.619,-187.703"/>
</g>
<!-- Node36&#45;&gt;Node9 -->
<g id="edge54" class="edge"><title>Node36&#45;&gt;Node9</title>
<path fill="none" stroke="midnightblue" d="M849.308,-168.188C849.277,-153.896 846.909,-125.867 830,-112 793.987,-82.4664 477.255,-71.2193 359.681,-68.0388"/>
<polygon fill="midnightblue" stroke="midnightblue" points="359.682,-64.5377 349.593,-67.7726 359.497,-71.5352 359.682,-64.5377"/>
</g>
<!-- Node36&#45;&gt;Node19 -->
<g id="edge55" class="edge"><title>Node36&#45;&gt;Node19</title>
<path fill="none" stroke="midnightblue" d="M840.413,-168.083C832.841,-160.22 821.622,-148.569 812.486,-139.081"/>
<polygon fill="midnightblue" stroke="midnightblue" points="814.885,-136.527 805.427,-131.751 809.842,-141.382 814.885,-136.527"/>
</g>
</g>
</svg>
