<?xml version="1.0" encoding="UTF-8" standalone="no"?>
<!DOCTYPE svg PUBLIC "-//W3C//DTD SVG 1.1//EN"
 "http://www.w3.org/Graphics/SVG/1.1/DTD/svg11.dtd">
<!-- Generated by graphviz version 2.38.0 (20140413.2041)
 -->
<!-- Title: collision_tcl.cpp Pages: 1 -->
<!--zoomable 476 -->
<svg id="main" version="1.1" xmlns="http://www.w3.org/2000/svg" xmlns:xlink="http://www.w3.org/1999/xlink" xml:space="preserve" onload="init(evt)">
<style type="text/css"><![CDATA[
.edge:hover path { stroke: red; }
.edge:hover polygon { stroke: red; fill: red; }
]]></style>
<script type="text/javascript"><![CDATA[
var edges = document.getElementsByTagName('g');
if (edges && edges.length) {
  for (var i=0;i<edges.length;i++) {
    if (edges[i].id.substr(0,4)=='edge') {
      edges[i].setAttribute('class','edge');
    }
  }
}
]]></script>
        <defs>
                <circle id="rim" cx="0" cy="0" r="7"/>
                <circle id="rim2" cx="0" cy="0" r="3.5"/>
                <g id="zoomPlus">
                        <use xlink:href="#rim" fill="#404040">
                                <set attributeName="fill" to="#808080" begin="zoomplus.mouseover" end="zoomplus.mouseout"/>
                        </use>
                        <path d="M-4,0h8M0,-4v8" fill="none" stroke="white" stroke-width="1.5" pointer-events="none"/>
                </g>
                <g id="zoomMin">
                        <use xlink:href="#rim" fill="#404040">
                                <set attributeName="fill" to="#808080" begin="zoomminus.mouseover" end="zoomminus.mouseout"/>
                        </use>
                        <path d="M-4,0h8" fill="none" stroke="white" stroke-width="1.5" pointer-events="none"/>
                </g>
                <g id="dirArrow">
                        <path fill="none" stroke="white" stroke-width="1.5" d="M0,-3.0v7 M-2.5,-0.5L0,-3.0L2.5,-0.5"/>
                </g>
               <g id="resetDef">
                       <use xlink:href="#rim2" fill="#404040">
                               <set attributeName="fill" to="#808080" begin="reset.mouseover" end="reset.mouseout"/>
                       </use>
               </g>
        </defs>

<script type="text/javascript">
var viewWidth = 1008;
var viewHeight = 476;
var sectionId = 'dynsection-0';
</script>
<script xlink:href="svgpan.js"/>
<svg id="graph" class="graph">
<g id="viewport">
<title>collision_tcl.cpp</title>
<!-- Node1 -->
<g id="node1" class="node"><title>Node1</title>
<polygon fill="#bfbfbf" stroke="black" points="586,-448.5 586,-467.5 681,-467.5 681,-448.5 586,-448.5"/>
<text text-anchor="middle" x="633.5" y="-455.5" font-family="Helvetica,sans-Serif" font-size="10.00">collision_tcl.cpp</text>
</g>
<!-- Node2 -->
<g id="node2" class="node"><title>Node2</title>
<g id="a_node2"><a xlink:href="particle__data_8hpp.html" target="_top" xlink:title="For more information on particle_data, see particle_data.c. ">
<polygon fill="none" stroke="black" points="517,-224.5 517,-243.5 618,-243.5 618,-224.5 517,-224.5"/>
<text text-anchor="middle" x="567.5" y="-231.5" font-family="Helvetica,sans-Serif" font-size="10.00">particle_data.hpp</text>
</a>
</g>
</g>
<!-- Node1&#45;&gt;Node2 -->
<g id="edge1" class="edge"><title>Node1&#45;&gt;Node2</title>
<path fill="none" stroke="midnightblue" d="M681.157,-452.171C766.631,-441.539 932.368,-410.828 879.5,-336 823.021,-256.061 701.697,-237.939 628.09,-234.658"/>
<polygon fill="midnightblue" stroke="midnightblue" points="628.153,-231.159 618.032,-234.289 627.896,-238.154 628.153,-231.159"/>
</g>
<!-- Node20 -->
<g id="node20" class="node"><title>Node20</title>
<g id="a_node20"><a xlink:href="interaction__data_8hpp.html" target="_top" xlink:title="Various procedures concerning interactions between particles. ">
<polygon fill="none" stroke="black" points="653,-336.5 653,-355.5 770,-355.5 770,-336.5 653,-336.5"/>
<text text-anchor="middle" x="711.5" y="-343.5" font-family="Helvetica,sans-Serif" font-size="10.00">interaction_data.hpp</text>
</a>
</g>
</g>
<!-- Node1&#45;&gt;Node20 -->
<g id="edge22" class="edge"><title>Node1&#45;&gt;Node20</title>
<path fill="none" stroke="midnightblue" d="M644.978,-448.38C655.53,-440 671.073,-426.451 681.5,-412 691.944,-397.526 700.111,-378.836 705.269,-365.215"/>
<polygon fill="midnightblue" stroke="midnightblue" points="708.652,-366.15 708.747,-355.555 702.066,-363.779 708.652,-366.15"/>
</g>
<!-- Node21 -->
<g id="node21" class="node"><title>Node21</title>
<g id="a_node21"><a xlink:href="virtual__sites__relative_8hpp.html" target="_top" xlink:title="virtual_sites_relative.hpp">
<polygon fill="none" stroke="black" points="131.5,-280.5 131.5,-299.5 271.5,-299.5 271.5,-280.5 131.5,-280.5"/>
<text text-anchor="middle" x="201.5" y="-287.5" font-family="Helvetica,sans-Serif" font-size="10.00">virtual_sites_relative.hpp</text>
</a>
</g>
</g>
<!-- Node1&#45;&gt;Node21 -->
<g id="edge25" class="edge"><title>Node1&#45;&gt;Node21</title>
<path fill="none" stroke="midnightblue" d="M599.729,-448.435C541.355,-433.128 418.348,-398.651 319.5,-356 284.96,-341.097 247.243,-319.262 223.975,-305.089"/>
<polygon fill="midnightblue" stroke="midnightblue" points="225.577,-301.966 215.226,-299.705 221.909,-307.927 225.577,-301.966"/>
</g>
<!-- Node22 -->
<g id="node22" class="node"><title>Node22</title>
<g id="a_node22"><a xlink:href="collision_8hpp.html" target="_top" xlink:title="collision.hpp">
<polygon fill="none" stroke="black" points="594.5,-392.5 594.5,-411.5 672.5,-411.5 672.5,-392.5 594.5,-392.5"/>
<text text-anchor="middle" x="633.5" y="-399.5" font-family="Helvetica,sans-Serif" font-size="10.00">collision.hpp</text>
</a>
</g>
</g>
<!-- Node1&#45;&gt;Node22 -->
<g id="edge28" class="edge"><title>Node1&#45;&gt;Node22</title>
<path fill="none" stroke="midnightblue" d="M633.5,-448.083C633.5,-441.006 633.5,-430.861 633.5,-421.986"/>
<polygon fill="midnightblue" stroke="midnightblue" points="637,-421.751 633.5,-411.751 630,-421.751 637,-421.751"/>
</g>
<!-- Node23 -->
<g id="node23" class="node"><title>Node23</title>
<g id="a_node23"><a xlink:href="virtual__sites_8hpp.html" target="_top" xlink:title="This file contains routine to handle virtual sites Virtual sites are like particles, but they will be not integrated. ">
<polygon fill="none" stroke="black" points="392.5,-336.5 392.5,-355.5 490.5,-355.5 490.5,-336.5 392.5,-336.5"/>
<text text-anchor="middle" x="441.5" y="-343.5" font-family="Helvetica,sans-Serif" font-size="10.00">virtual_sites.hpp</text>
</a>
</g>
</g>
<!-- Node1&#45;&gt;Node23 -->
<g id="edge39" class="edge"><title>Node1&#45;&gt;Node23</title>
<path fill="none" stroke="midnightblue" d="M618.434,-448.368C585.206,-429.332 505.41,-383.615 465.326,-360.65"/>
<polygon fill="midnightblue" stroke="midnightblue" points="466.913,-357.526 456.496,-355.591 463.433,-363.599 466.913,-357.526"/>
</g>
<!-- Node25 -->
<g id="node25" class="node"><title>Node25</title>
<g id="a_node25"><a xlink:href="integrate_8hpp.html" target="_top" xlink:title="Molecular dynamics integrator. ">
<polygon fill="none" stroke="black" points="788.5,-336.5 788.5,-355.5 870.5,-355.5 870.5,-336.5 788.5,-336.5"/>
<text text-anchor="middle" x="829.5" y="-343.5" font-family="Helvetica,sans-Serif" font-size="10.00">integrate.hpp</text>
</a>
</g>
</g>
<!-- Node1&#45;&gt;Node25 -->
<g id="edge40" class="edge"><title>Node1&#45;&gt;Node25</title>
<path fill="none" stroke="midnightblue" d="M648.88,-448.368C682.871,-429.292 764.602,-383.422 805.436,-360.505"/>
<polygon fill="midnightblue" stroke="midnightblue" points="807.184,-363.538 814.192,-355.591 803.758,-357.433 807.184,-363.538"/>
</g>
<!-- Node26 -->
<g id="node26" class="node"><title>Node26</title>
<g id="a_node26"><a xlink:href="cells_8hpp.html" target="_top" xlink:title="This file contains everything related to the cell structure / cell system. ">
<polygon fill="none" stroke="black" points="536.5,-336.5 536.5,-355.5 596.5,-355.5 596.5,-336.5 536.5,-336.5"/>
<text text-anchor="middle" x="566.5" y="-343.5" font-family="Helvetica,sans-Serif" font-size="10.00">cells.hpp</text>
</a>
</g>
</g>
<!-- Node1&#45;&gt;Node26 -->
<g id="edge41" class="edge"><title>Node1&#45;&gt;Node26</title>
<path fill="none" stroke="midnightblue" d="M621.098,-448.399C610.209,-440.228 594.71,-426.987 585.5,-412 576.748,-397.757 571.857,-379.284 569.237,-365.673"/>
<polygon fill="midnightblue" stroke="midnightblue" points="572.65,-364.863 567.537,-355.584 565.748,-366.026 572.65,-364.863"/>
</g>
<!-- Node33 -->
<g id="node33" class="node"><title>Node33</title>
<g id="a_node33"><a xlink:href="communication_8hpp.html" target="_top" xlink:title="This file contains the asynchronous MPI communication. ">
<polygon fill="none" stroke="black" points="0,-280.5 0,-299.5 113,-299.5 113,-280.5 0,-280.5"/>
<text text-anchor="middle" x="56.5" y="-287.5" font-family="Helvetica,sans-Serif" font-size="10.00">communication.hpp</text>
</a>
</g>
</g>
<!-- Node1&#45;&gt;Node33 -->
<g id="edge51" class="edge"><title>Node1&#45;&gt;Node33</title>
<path fill="none" stroke="midnightblue" d="M585.67,-449.068C540.63,-441.174 471.462,-427.954 412.5,-412 290.734,-379.052 149.949,-326.9 88.2409,-303.31"/>
<polygon fill="midnightblue" stroke="midnightblue" points="89.2772,-299.959 78.6871,-299.644 86.7695,-306.494 89.2772,-299.959"/>
</g>
<!-- Node37 -->
<g id="node37" class="node"><title>Node37</title>
<g id="a_node37"><a xlink:href="parser_8hpp.html" target="_top" xlink:title="This file contains macros for parsing the parameters to the &#39;inter&#39; command. ">
<polygon fill="none" stroke="black" points="900.5,-224.5 900.5,-243.5 968.5,-243.5 968.5,-224.5 900.5,-224.5"/>
<text text-anchor="middle" x="934.5" y="-231.5" font-family="Helvetica,sans-Serif" font-size="10.00">parser.hpp</text>
</a>
</g>
</g>
<!-- Node1&#45;&gt;Node37 -->
<g id="edge61" class="edge"><title>Node1&#45;&gt;Node37</title>
<path fill="none" stroke="midnightblue" d="M681.146,-453.464C742.721,-448.006 845.484,-435.601 874.5,-412 923.334,-372.28 932.611,-291.11 934.24,-254.126"/>
<polygon fill="midnightblue" stroke="midnightblue" points="937.748,-253.876 934.54,-243.779 930.751,-253.673 937.748,-253.876"/>
</g>
<!-- Node3 -->
<g id="node3" class="node"><title>Node3</title>
<g id="a_node3"><a xlink:href="utils_8hpp.html" target="_top" xlink:title="Small functions that are useful not only for one modul. ">
<polygon fill="none" stroke="black" points="538,-168.5 538,-187.5 597,-187.5 597,-168.5 538,-168.5"/>
<text text-anchor="middle" x="567.5" y="-175.5" font-family="Helvetica,sans-Serif" font-size="10.00">utils.hpp</text>
</a>
</g>
</g>
<!-- Node2&#45;&gt;Node3 -->
<g id="edge2" class="edge"><title>Node2&#45;&gt;Node3</title>
<path fill="none" stroke="midnightblue" d="M567.5,-224.083C567.5,-217.006 567.5,-206.861 567.5,-197.986"/>
<polygon fill="midnightblue" stroke="midnightblue" points="571,-197.751 567.5,-187.751 564,-197.751 571,-197.751"/>
</g>
<!-- Node4 -->
<g id="node4" class="node"><title>Node4</title>
<polygon fill="none" stroke="#bfbfbf" points="657,-112.5 657,-131.5 704,-131.5 704,-112.5 657,-112.5"/>
<text text-anchor="middle" x="680.5" y="-119.5" font-family="Helvetica,sans-Serif" font-size="10.00">cmath</text>
</g>
<!-- Node3&#45;&gt;Node4 -->
<g id="edge3" class="edge"><title>Node3&#45;&gt;Node4</title>
<path fill="none" stroke="midnightblue" d="M585.405,-168.444C603.754,-159.675 632.505,-145.935 653.594,-135.858"/>
<polygon fill="midnightblue" stroke="midnightblue" points="655.165,-138.986 662.679,-131.516 652.147,-132.67 655.165,-138.986"/>
</g>
<!-- Node5 -->
<g id="node5" class="node"><title>Node5</title>
<polygon fill="none" stroke="#bfbfbf" points="722.5,-112.5 722.5,-131.5 768.5,-131.5 768.5,-112.5 722.5,-112.5"/>
<text text-anchor="middle" x="745.5" y="-119.5" font-family="Helvetica,sans-Serif" font-size="10.00">cstdio</text>
</g>
<!-- Node3&#45;&gt;Node5 -->
<g id="edge4" class="edge"><title>Node3&#45;&gt;Node5</title>
<path fill="none" stroke="midnightblue" d="M595.705,-168.444C627.42,-158.822 678.866,-143.215 712.444,-133.028"/>
<polygon fill="midnightblue" stroke="midnightblue" points="713.696,-136.306 722.249,-130.054 711.663,-129.608 713.696,-136.306"/>
</g>
<!-- Node6 -->
<g id="node6" class="node"><title>Node6</title>
<polygon fill="none" stroke="#bfbfbf" points="346,-112.5 346,-131.5 395,-131.5 395,-112.5 346,-112.5"/>
<text text-anchor="middle" x="370.5" y="-119.5" font-family="Helvetica,sans-Serif" font-size="10.00">cstdlib</text>
</g>
<!-- Node3&#45;&gt;Node6 -->
<g id="edge5" class="edge"><title>Node3&#45;&gt;Node6</title>
<path fill="none" stroke="midnightblue" d="M537.58,-168.799C501.964,-159.036 442.599,-142.763 405.058,-132.473"/>
<polygon fill="midnightblue" stroke="midnightblue" points="405.656,-129.007 395.086,-129.739 403.805,-135.758 405.656,-129.007"/>
</g>
<!-- Node7 -->
<g id="node7" class="node"><title>Node7</title>
<polygon fill="none" stroke="#bfbfbf" points="908.5,-112.5 908.5,-131.5 958.5,-131.5 958.5,-112.5 908.5,-112.5"/>
<text text-anchor="middle" x="933.5" y="-119.5" font-family="Helvetica,sans-Serif" font-size="10.00">cstring</text>
</g>
<!-- Node3&#45;&gt;Node7 -->
<g id="edge6" class="edge"><title>Node3&#45;&gt;Node7</title>
<path fill="none" stroke="midnightblue" d="M597.015,-174.242C653.644,-168.683 781.585,-154.843 898.498,-131.984"/>
<polygon fill="midnightblue" stroke="midnightblue" points="899.202,-135.413 908.33,-130.035 897.841,-128.546 899.202,-135.413"/>
</g>
<!-- Node8 -->
<g id="node8" class="node"><title>Node8</title>
<g id="a_node8"><a xlink:href="config_8hpp.html" target="_top" xlink:title="This file contains the defaults for Espresso. ">
<polygon fill="none" stroke="black" points="260,-56.5 260,-75.5 327,-75.5 327,-56.5 260,-56.5"/>
<text text-anchor="middle" x="293.5" y="-63.5" font-family="Helvetica,sans-Serif" font-size="10.00">config.hpp</text>
</a>
</g>
</g>
<!-- Node3&#45;&gt;Node8 -->
<g id="edge7" class="edge"><title>Node3&#45;&gt;Node8</title>
<path fill="none" stroke="midnightblue" d="M564.576,-168.218C559.349,-153.97 546.99,-126 526.5,-112 496.336,-91.3891 396.139,-77.7384 337.421,-71.2961"/>
<polygon fill="midnightblue" stroke="midnightblue" points="337.633,-67.7989 327.317,-70.2138 336.888,-74.7591 337.633,-67.7989"/>
</g>
<!-- Node12 -->
<g id="node12" class="node"><title>Node12</title>
<g id="a_node12"><a xlink:href="debug_8hpp.html" target="_top" xlink:title="This file controls debug facilities. ">
<polygon fill="none" stroke="black" points="259.5,-112.5 259.5,-131.5 327.5,-131.5 327.5,-112.5 259.5,-112.5"/>
<text text-anchor="middle" x="293.5" y="-119.5" font-family="Helvetica,sans-Serif" font-size="10.00">debug.hpp</text>
</a>
</g>
</g>
<!-- Node3&#45;&gt;Node12 -->
<g id="edge11" class="edge"><title>Node3&#45;&gt;Node12</title>
<path fill="none" stroke="midnightblue" d="M537.937,-171.378C495.78,-163.33 415.707,-147.936 337.747,-132.231"/>
<polygon fill="midnightblue" stroke="midnightblue" points="338.254,-128.763 327.759,-130.215 336.868,-135.625 338.254,-128.763"/>
</g>
<!-- Node13 -->
<g id="node13" class="node"><title>Node13</title>
<g id="a_node13"><a xlink:href="lees__edwards_8hpp.html" target="_top" xlink:title="lees_edwards.hpp">
<polygon fill="none" stroke="black" points="413.5,-112.5 413.5,-131.5 517.5,-131.5 517.5,-112.5 413.5,-112.5"/>
<text text-anchor="middle" x="465.5" y="-119.5" font-family="Helvetica,sans-Serif" font-size="10.00">lees_edwards.hpp</text>
</a>
</g>
</g>
<!-- Node3&#45;&gt;Node13 -->
<g id="edge13" class="edge"><title>Node3&#45;&gt;Node13</title>
<path fill="none" stroke="midnightblue" d="M551.112,-168.324C534.829,-159.703 509.633,-146.364 490.784,-136.386"/>
<polygon fill="midnightblue" stroke="midnightblue" points="492.323,-133.24 481.847,-131.655 489.048,-139.427 492.323,-133.24"/>
</g>
<!-- Node14 -->
<g id="node14" class="node"><title>Node14</title>
<g id="a_node14"><a xlink:href="errorhandling_8hpp.html" target="_top" xlink:title="This file contains the errorhandling code for severe errors, like a broken bond or illegal parameter ...">
<polygon fill="none" stroke="black" points="787,-112.5 787,-131.5 890,-131.5 890,-112.5 787,-112.5"/>
<text text-anchor="middle" x="838.5" y="-119.5" font-family="Helvetica,sans-Serif" font-size="10.00">errorhandling.hpp</text>
</a>
</g>
</g>
<!-- Node3&#45;&gt;Node14 -->
<g id="edge15" class="edge"><title>Node3&#45;&gt;Node14</title>
<path fill="none" stroke="midnightblue" d="M597.018,-171.118C642.218,-162.112 729.25,-144.769 785.554,-133.55"/>
<polygon fill="midnightblue" stroke="midnightblue" points="786.569,-136.917 795.692,-131.53 785.201,-130.052 786.569,-136.917"/>
</g>
<!-- Node18 -->
<g id="node18" class="node"><title>Node18</title>
<polygon fill="none" stroke="#bfbfbf" points="156,-112.5 156,-131.5 203,-131.5 203,-112.5 156,-112.5"/>
<text text-anchor="middle" x="179.5" y="-119.5" font-family="Helvetica,sans-Serif" font-size="10.00">vector</text>
</g>
<!-- Node3&#45;&gt;Node18 -->
<g id="edge20" class="edge"><title>Node3&#45;&gt;Node18</title>
<path fill="none" stroke="midnightblue" d="M537.699,-172.852C466.832,-162.989 288.59,-138.183 213.593,-127.745"/>
<polygon fill="midnightblue" stroke="midnightblue" points="213.689,-124.225 203.302,-126.313 212.724,-131.158 213.689,-124.225"/>
</g>
<!-- Node19 -->
<g id="node19" class="node"><title>Node19</title>
<polygon fill="none" stroke="#bfbfbf" points="574,-112.5 574,-131.5 639,-131.5 639,-112.5 574,-112.5"/>
<text text-anchor="middle" x="606.5" y="-119.5" font-family="Helvetica,sans-Serif" font-size="10.00">exception</text>
</g>
<!-- Node3&#45;&gt;Node19 -->
<g id="edge21" class="edge"><title>Node3&#45;&gt;Node19</title>
<path fill="none" stroke="midnightblue" d="M573.94,-168.083C579.449,-160.455 587.531,-149.264 594.265,-139.941"/>
<polygon fill="midnightblue" stroke="midnightblue" points="597.162,-141.907 600.18,-131.751 591.487,-137.809 597.162,-141.907"/>
</g>
<!-- Node9 -->
<g id="node9" class="node"><title>Node9</title>
<g id="a_node9"><a xlink:href="acconfig_8hpp.html" target="_top" xlink:title="acconfig.hpp">
<polygon fill="none" stroke="black" points="143.5,-0.5 143.5,-19.5 221.5,-19.5 221.5,-0.5 143.5,-0.5"/>
<text text-anchor="middle" x="182.5" y="-7.5" font-family="Helvetica,sans-Serif" font-size="10.00">acconfig.hpp</text>
</a>
</g>
</g>
<!-- Node8&#45;&gt;Node9 -->
<g id="edge8" class="edge"><title>Node8&#45;&gt;Node9</title>
<path fill="none" stroke="midnightblue" d="M275.666,-56.324C257.784,-47.6247 230.025,-34.1202 209.454,-24.113"/>
<polygon fill="midnightblue" stroke="midnightblue" points="210.813,-20.8819 200.29,-19.6545 207.751,-27.1765 210.813,-20.8819"/>
</g>
<!-- Node10 -->
<g id="node10" class="node"><title>Node10</title>
<g id="a_node10"><a xlink:href="myconfig-final_8hpp.html" target="_top" xlink:title="myconfig&#45;final.hpp">
<polygon fill="none" stroke="black" points="240,-0.5 240,-19.5 347,-19.5 347,-0.5 240,-0.5"/>
<text text-anchor="middle" x="293.5" y="-7.5" font-family="Helvetica,sans-Serif" font-size="10.00">myconfig&#45;final.hpp</text>
</a>
</g>
</g>
<!-- Node8&#45;&gt;Node10 -->
<g id="edge9" class="edge"><title>Node8&#45;&gt;Node10</title>
<path fill="none" stroke="midnightblue" d="M293.5,-56.083C293.5,-49.0059 293.5,-38.8611 293.5,-29.9865"/>
<polygon fill="midnightblue" stroke="midnightblue" points="297,-29.751 293.5,-19.7511 290,-29.7511 297,-29.751"/>
</g>
<!-- Node11 -->
<g id="node11" class="node"><title>Node11</title>
<g id="a_node11"><a xlink:href="config-features_8hpp.html" target="_top" xlink:title="config&#45;features.hpp">
<polygon fill="none" stroke="black" points="365,-0.5 365,-19.5 476,-19.5 476,-0.5 365,-0.5"/>
<text text-anchor="middle" x="420.5" y="-7.5" font-family="Helvetica,sans-Serif" font-size="10.00">config&#45;features.hpp</text>
</a>
</g>
</g>
<!-- Node8&#45;&gt;Node11 -->
<g id="edge10" class="edge"><title>Node8&#45;&gt;Node11</title>
<path fill="none" stroke="midnightblue" d="M313.624,-56.4435C334.524,-47.5566 367.435,-33.5632 391.216,-23.4514"/>
<polygon fill="midnightblue" stroke="midnightblue" points="392.638,-26.6504 400.471,-19.5164 389.898,-20.2085 392.638,-26.6504"/>
</g>
<!-- Node12&#45;&gt;Node8 -->
<g id="edge12" class="edge"><title>Node12&#45;&gt;Node8</title>
<path fill="none" stroke="midnightblue" d="M293.5,-112.083C293.5,-105.006 293.5,-94.8611 293.5,-85.9865"/>
<polygon fill="midnightblue" stroke="midnightblue" points="297,-85.751 293.5,-75.7511 290,-85.7511 297,-85.751"/>
</g>
<!-- Node13&#45;&gt;Node8 -->
<g id="edge14" class="edge"><title>Node13&#45;&gt;Node8</title>
<path fill="none" stroke="midnightblue" d="M438.246,-112.444C409.059,-103.28 362.579,-88.6876 330.191,-78.5192"/>
<polygon fill="midnightblue" stroke="midnightblue" points="331.216,-75.1726 320.626,-75.5164 329.119,-81.8512 331.216,-75.1726"/>
</g>
<!-- Node14&#45;&gt;Node8 -->
<g id="edge16" class="edge"><title>Node14&#45;&gt;Node8</title>
<path fill="none" stroke="midnightblue" d="M786.941,-113.194C783.749,-112.772 780.582,-112.37 777.5,-112 615.428,-92.5239 421.951,-76.7883 337.058,-70.26"/>
<polygon fill="midnightblue" stroke="midnightblue" points="337.25,-66.7646 327.013,-69.4916 336.717,-73.7442 337.25,-66.7646"/>
</g>
<!-- Node15 -->
<g id="node15" class="node"><title>Node15</title>
<polygon fill="none" stroke="#bfbfbf" points="872.5,-56.5 872.5,-75.5 916.5,-75.5 916.5,-56.5 872.5,-56.5"/>
<text text-anchor="middle" x="894.5" y="-63.5" font-family="Helvetica,sans-Serif" font-size="10.00">string</text>
</g>
<!-- Node14&#45;&gt;Node15 -->
<g id="edge17" class="edge"><title>Node14&#45;&gt;Node15</title>
<path fill="none" stroke="midnightblue" d="M847.497,-112.324C855.694,-104.42 868.006,-92.5482 877.972,-82.9377"/>
<polygon fill="midnightblue" stroke="midnightblue" points="880.57,-85.2947 885.339,-75.8339 875.711,-80.2558 880.57,-85.2947"/>
</g>
<!-- Node16 -->
<g id="node16" class="node"><title>Node16</title>
<polygon fill="none" stroke="#bfbfbf" points="748.5,-56.5 748.5,-75.5 804.5,-75.5 804.5,-56.5 748.5,-56.5"/>
<text text-anchor="middle" x="776.5" y="-63.5" font-family="Helvetica,sans-Serif" font-size="10.00">sstream</text>
</g>
<!-- Node14&#45;&gt;Node16 -->
<g id="edge18" class="edge"><title>Node14&#45;&gt;Node16</title>
<path fill="none" stroke="midnightblue" d="M828.539,-112.324C819.373,-104.341 805.563,-92.3128 794.472,-82.6529"/>
<polygon fill="midnightblue" stroke="midnightblue" points="796.482,-79.7624 786.643,-75.8339 791.885,-85.041 796.482,-79.7624"/>
</g>
<!-- Node17 -->
<g id="node17" class="node"><title>Node17</title>
<polygon fill="none" stroke="#bfbfbf" points="822.5,-56.5 822.5,-75.5 854.5,-75.5 854.5,-56.5 822.5,-56.5"/>
<text text-anchor="middle" x="838.5" y="-63.5" font-family="Helvetica,sans-Serif" font-size="10.00">list</text>
</g>
<!-- Node14&#45;&gt;Node17 -->
<g id="edge19" class="edge"><title>Node14&#45;&gt;Node17</title>
<path fill="none" stroke="midnightblue" d="M838.5,-112.083C838.5,-105.006 838.5,-94.8611 838.5,-85.9865"/>
<polygon fill="midnightblue" stroke="midnightblue" points="842,-85.751 838.5,-75.7511 835,-85.7511 842,-85.751"/>
</g>
<!-- Node20&#45;&gt;Node2 -->
<g id="edge24" class="edge"><title>Node20&#45;&gt;Node2</title>
<path fill="none" stroke="midnightblue" d="M713.106,-336.306C715.095,-322.678 716.766,-296.177 703.5,-280 685.181,-257.662 655.486,-246.33 628.51,-240.616"/>
<polygon fill="midnightblue" stroke="midnightblue" points="628.81,-237.111 618.333,-238.69 627.508,-243.989 628.81,-237.111"/>
</g>
<!-- Node20&#45;&gt;Node3 -->
<g id="edge23" class="edge"><title>Node20&#45;&gt;Node3</title>
<path fill="none" stroke="midnightblue" d="M715.999,-336.43C722.154,-323.424 731.374,-298.284 721.5,-280 696.745,-234.16 641.115,-205.757 603.942,-191.164"/>
<polygon fill="midnightblue" stroke="midnightblue" points="605.045,-187.839 594.454,-187.58 602.572,-194.388 605.045,-187.839"/>
</g>
<!-- Node21&#45;&gt;Node2 -->
<g id="edge27" class="edge"><title>Node21&#45;&gt;Node2</title>
<path fill="none" stroke="midnightblue" d="M259.885,-280.465C319.3,-271.768 414.349,-257.823 506.682,-244.118"/>
<polygon fill="midnightblue" stroke="midnightblue" points="507.385,-247.552 516.763,-242.621 506.357,-240.628 507.385,-247.552"/>
</g>
<!-- Node21&#45;&gt;Node8 -->
<g id="edge26" class="edge"><title>Node21&#45;&gt;Node8</title>
<path fill="none" stroke="midnightblue" d="M193.916,-280.36C170.883,-253.044 105.741,-167.104 146.5,-112 170.018,-80.2058 215.557,-70.1411 249.748,-67.3032"/>
<polygon fill="midnightblue" stroke="midnightblue" points="250.206,-70.7809 259.957,-66.6384 249.751,-63.7957 250.206,-70.7809"/>
</g>
<!-- Node22&#45;&gt;Node2 -->
<g id="edge29" class="edge"><title>Node22&#45;&gt;Node2</title>
<path fill="none" stroke="midnightblue" d="M633.514,-392.224C633.826,-379.383 635.533,-354.945 643.5,-336 654.211,-310.53 685.63,-303.12 670.5,-280 659.997,-263.949 642.374,-253.59 624.647,-246.918"/>
<polygon fill="midnightblue" stroke="midnightblue" points="625.427,-243.487 614.833,-243.578 623.172,-250.113 625.427,-243.487"/>
</g>
<!-- Node22&#45;&gt;Node20 -->
<g id="edge30" class="edge"><title>Node22&#45;&gt;Node20</title>
<path fill="none" stroke="midnightblue" d="M646.032,-392.324C658.086,-383.979 676.527,-371.212 690.769,-361.352"/>
<polygon fill="midnightblue" stroke="midnightblue" points="692.769,-364.224 698.999,-355.655 688.785,-358.469 692.769,-364.224"/>
</g>
<!-- Node22&#45;&gt;Node21 -->
<g id="edge31" class="edge"><title>Node22&#45;&gt;Node21</title>
<path fill="none" stroke="midnightblue" d="M594.088,-395.956C544.452,-389.138 456.792,-375.541 383.5,-356 328.678,-341.383 266.87,-317.715 231.225,-303.332"/>
<polygon fill="midnightblue" stroke="midnightblue" points="232.475,-300.061 221.893,-299.536 229.837,-306.546 232.475,-300.061"/>
</g>
<!-- Node22&#45;&gt;Node23 -->
<g id="edge32" class="edge"><title>Node22&#45;&gt;Node23</title>
<path fill="none" stroke="midnightblue" d="M603.077,-392.444C570.215,-383.201 517.715,-368.436 481.526,-358.257"/>
<polygon fill="midnightblue" stroke="midnightblue" points="482.355,-354.855 471.781,-355.516 480.46,-361.593 482.355,-354.855"/>
</g>
<!-- Node22&#45;&gt;Node25 -->
<g id="edge38" class="edge"><title>Node22&#45;&gt;Node25</title>
<path fill="none" stroke="midnightblue" d="M664.557,-392.444C698.103,-383.201 751.697,-368.436 788.641,-358.257"/>
<polygon fill="midnightblue" stroke="midnightblue" points="789.877,-361.547 798.589,-355.516 788.018,-354.798 789.877,-361.547"/>
</g>
<!-- Node23&#45;&gt;Node2 -->
<g id="edge33" class="edge"><title>Node23&#45;&gt;Node2</title>
<path fill="none" stroke="midnightblue" d="M441.746,-336.298C442.583,-322.659 446.097,-296.141 460.5,-280 474.847,-263.921 495.878,-253.423 515.506,-246.649"/>
<polygon fill="midnightblue" stroke="midnightblue" points="516.832,-249.9 525.294,-243.525 514.704,-243.231 516.832,-249.9"/>
</g>
<!-- Node23&#45;&gt;Node21 -->
<g id="edge37" class="edge"><title>Node23&#45;&gt;Node21</title>
<path fill="none" stroke="midnightblue" d="M403.471,-336.444C361.692,-327.043 294.518,-311.929 249.23,-301.739"/>
<polygon fill="midnightblue" stroke="midnightblue" points="249.875,-298.297 239.351,-299.516 248.339,-305.126 249.875,-298.297"/>
</g>
<!-- Node24 -->
<g id="node24" class="node"><title>Node24</title>
<g id="a_node24"><a xlink:href="virtual__sites__com_8hpp.html" target="_top" xlink:title="virtual_sites_com.hpp">
<polygon fill="none" stroke="black" points="289.5,-280.5 289.5,-299.5 413.5,-299.5 413.5,-280.5 289.5,-280.5"/>
<text text-anchor="middle" x="351.5" y="-287.5" font-family="Helvetica,sans-Serif" font-size="10.00">virtual_sites_com.hpp</text>
</a>
</g>
</g>
<!-- Node23&#45;&gt;Node24 -->
<g id="edge34" class="edge"><title>Node23&#45;&gt;Node24</title>
<path fill="none" stroke="midnightblue" d="M427.04,-336.324C413,-327.9 391.452,-314.971 374.957,-305.074"/>
<polygon fill="midnightblue" stroke="midnightblue" points="376.3,-301.798 365.924,-299.655 372.698,-307.801 376.3,-301.798"/>
</g>
<!-- Node24&#45;&gt;Node2 -->
<g id="edge36" class="edge"><title>Node24&#45;&gt;Node2</title>
<path fill="none" stroke="midnightblue" d="M385.726,-280.444C423.012,-271.122 482.769,-256.183 523.511,-245.997"/>
<polygon fill="midnightblue" stroke="midnightblue" points="524.582,-249.337 533.434,-243.516 522.884,-242.546 524.582,-249.337"/>
</g>
<!-- Node24&#45;&gt;Node8 -->
<g id="edge35" class="edge"><title>Node24&#45;&gt;Node8</title>
<path fill="none" stroke="midnightblue" d="M313.188,-280.476C293.037,-273.941 269.815,-262.747 256.5,-244 222.493,-196.121 228.644,-166.509 250.5,-112 255.18,-100.328 264.491,-89.9687 273.256,-82.1405"/>
<polygon fill="midnightblue" stroke="midnightblue" points="275.552,-84.7832 281.003,-75.698 271.076,-79.4011 275.552,-84.7832"/>
</g>
<!-- Node26&#45;&gt;Node2 -->
<g id="edge42" class="edge"><title>Node26&#45;&gt;Node2</title>
<path fill="none" stroke="midnightblue" d="M566.578,-336.368C566.74,-318.617 567.112,-277.666 567.331,-253.597"/>
<polygon fill="midnightblue" stroke="midnightblue" points="570.831,-253.623 567.422,-243.591 563.831,-253.559 570.831,-253.623"/>
</g>
<!-- Node27 -->
<g id="node27" class="node"><title>Node27</title>
<g id="a_node27"><a xlink:href="ghosts_8hpp.html" target="_top" xlink:title="Ghost particles and particle exchange. ">
<polygon fill="none" stroke="black" points="469.5,-280.5 469.5,-299.5 539.5,-299.5 539.5,-280.5 469.5,-280.5"/>
<text text-anchor="middle" x="504.5" y="-287.5" font-family="Helvetica,sans-Serif" font-size="10.00">ghosts.hpp</text>
</a>
</g>
</g>
<!-- Node26&#45;&gt;Node27 -->
<g id="edge43" class="edge"><title>Node26&#45;&gt;Node27</title>
<path fill="none" stroke="midnightblue" d="M556.539,-336.324C547.373,-328.341 533.563,-316.313 522.472,-306.653"/>
<polygon fill="midnightblue" stroke="midnightblue" points="524.482,-303.762 514.643,-299.834 519.885,-309.041 524.482,-303.762"/>
</g>
<!-- Node32 -->
<g id="node32" class="node"><title>Node32</title>
<g id="a_node32"><a xlink:href="verlet_8hpp.html" target="_top" xlink:title="This file contains routines to setup and handle interaction pair lists (verlet pair lists) for the no...">
<polygon fill="none" stroke="black" points="595.5,-280.5 595.5,-299.5 661.5,-299.5 661.5,-280.5 595.5,-280.5"/>
<text text-anchor="middle" x="628.5" y="-287.5" font-family="Helvetica,sans-Serif" font-size="10.00">verlet.hpp</text>
</a>
</g>
</g>
<!-- Node26&#45;&gt;Node32 -->
<g id="edge49" class="edge"><title>Node26&#45;&gt;Node32</title>
<path fill="none" stroke="midnightblue" d="M576.461,-336.324C585.627,-328.341 599.437,-316.313 610.528,-306.653"/>
<polygon fill="midnightblue" stroke="midnightblue" points="613.115,-309.041 618.357,-299.834 608.518,-303.762 613.115,-309.041"/>
</g>
<!-- Node27&#45;&gt;Node2 -->
<g id="edge48" class="edge"><title>Node27&#45;&gt;Node2</title>
<path fill="none" stroke="midnightblue" d="M514.622,-280.324C524.026,-272.263 538.244,-260.077 549.569,-250.369"/>
<polygon fill="midnightblue" stroke="midnightblue" points="551.879,-252.999 557.194,-243.834 547.323,-247.684 551.879,-252.999"/>
</g>
<!-- Node28 -->
<g id="node28" class="node"><title>Node28</title>
<g id="a_node28"><a xlink:href="mpi_8h.html" target="_top" xlink:title="This is the MPIfake implementation. ">
<polygon fill="none" stroke="black" points="265.5,-224.5 265.5,-243.5 309.5,-243.5 309.5,-224.5 265.5,-224.5"/>
<text text-anchor="middle" x="287.5" y="-231.5" font-family="Helvetica,sans-Serif" font-size="10.00">mpi.h</text>
</a>
</g>
</g>
<!-- Node27&#45;&gt;Node28 -->
<g id="edge44" class="edge"><title>Node27&#45;&gt;Node28</title>
<path fill="none" stroke="midnightblue" d="M469.198,-281.118C433.552,-273.024 376.696,-259.746 319.641,-244.489"/>
<polygon fill="midnightblue" stroke="midnightblue" points="320.307,-241.044 309.741,-241.822 318.486,-247.803 320.307,-241.044"/>
</g>
<!-- Node29 -->
<g id="node29" class="node"><title>Node29</title>
<polygon fill="none" stroke="#bfbfbf" points="331,-168.5 331,-187.5 384,-187.5 384,-168.5 331,-168.5"/>
<text text-anchor="middle" x="357.5" y="-175.5" font-family="Helvetica,sans-Serif" font-size="10.00">string.h</text>
</g>
<!-- Node28&#45;&gt;Node29 -->
<g id="edge45" class="edge"><title>Node28&#45;&gt;Node29</title>
<path fill="none" stroke="midnightblue" d="M298.747,-224.324C309.297,-216.185 325.301,-203.839 337.942,-194.087"/>
<polygon fill="midnightblue" stroke="midnightblue" points="340.269,-196.713 346.049,-187.834 335.993,-191.171 340.269,-196.713"/>
</g>
<!-- Node30 -->
<g id="node30" class="node"><title>Node30</title>
<polygon fill="none" stroke="#bfbfbf" points="402.5,-168.5 402.5,-187.5 452.5,-187.5 452.5,-168.5 402.5,-168.5"/>
<text text-anchor="middle" x="427.5" y="-175.5" font-family="Helvetica,sans-Serif" font-size="10.00">stdio.h</text>
</g>
<!-- Node28&#45;&gt;Node30 -->
<g id="edge46" class="edge"><title>Node28&#45;&gt;Node30</title>
<path fill="none" stroke="midnightblue" d="M309.683,-224.444C332.928,-215.478 369.649,-201.314 395.915,-191.183"/>
<polygon fill="midnightblue" stroke="midnightblue" points="397.35,-194.381 405.42,-187.516 394.831,-187.85 397.35,-194.381"/>
</g>
<!-- Node31 -->
<g id="node31" class="node"><title>Node31</title>
<polygon fill="none" stroke="#bfbfbf" points="260,-168.5 260,-187.5 313,-187.5 313,-168.5 260,-168.5"/>
<text text-anchor="middle" x="286.5" y="-175.5" font-family="Helvetica,sans-Serif" font-size="10.00">stdlib.h</text>
</g>
<!-- Node28&#45;&gt;Node31 -->
<g id="edge47" class="edge"><title>Node28&#45;&gt;Node31</title>
<path fill="none" stroke="midnightblue" d="M287.335,-224.083C287.204,-217.006 287.016,-206.861 286.852,-197.986"/>
<polygon fill="midnightblue" stroke="midnightblue" points="290.347,-197.685 286.662,-187.751 283.348,-197.814 290.347,-197.685"/>
</g>
<!-- Node32&#45;&gt;Node2 -->
<g id="edge50" class="edge"><title>Node32&#45;&gt;Node2</title>
<path fill="none" stroke="midnightblue" d="M618.699,-280.324C609.682,-272.341 596.094,-260.313 585.182,-250.653"/>
<polygon fill="midnightblue" stroke="midnightblue" points="587.287,-247.842 577.479,-243.834 582.647,-253.083 587.287,-247.842"/>
</g>
<!-- Node33&#45;&gt;Node2 -->
<g id="edge52" class="edge"><title>Node33&#45;&gt;Node2</title>
<path fill="none" stroke="midnightblue" d="M113.006,-281.135C116.216,-280.738 119.398,-280.356 122.5,-280 289.983,-260.759 335.191,-264.597 506.658,-244.035"/>
<polygon fill="midnightblue" stroke="midnightblue" points="507.281,-247.485 516.788,-242.81 506.44,-240.536 507.281,-247.485"/>
</g>
<!-- Node33&#45;&gt;Node28 -->
<g id="edge57" class="edge"><title>Node33&#45;&gt;Node28</title>
<path fill="none" stroke="midnightblue" d="M93.1026,-280.444C137.881,-269.976 212.965,-252.424 255.524,-242.475"/>
<polygon fill="midnightblue" stroke="midnightblue" points="256.412,-245.862 265.353,-240.177 254.819,-239.045 256.412,-245.862"/>
</g>
<!-- Node34 -->
<g id="node34" class="node"><title>Node34</title>
<g id="a_node34"><a xlink:href="random_8hpp.html" target="_top" xlink:title="A random generator. ">
<polygon fill="none" stroke="black" points="327,-224.5 327,-243.5 402,-243.5 402,-224.5 327,-224.5"/>
<text text-anchor="middle" x="364.5" y="-231.5" font-family="Helvetica,sans-Serif" font-size="10.00">random.hpp</text>
</a>
</g>
</g>
<!-- Node33&#45;&gt;Node34 -->
<g id="edge53" class="edge"><title>Node33&#45;&gt;Node34</title>
<path fill="none" stroke="midnightblue" d="M108.263,-280.472C158.989,-272.033 238.767,-258.545 316.851,-244.273"/>
<polygon fill="midnightblue" stroke="midnightblue" points="317.653,-247.685 326.858,-242.438 316.391,-240.8 317.653,-247.685"/>
</g>
<!-- Node35 -->
<g id="node35" class="node"><title>Node35</title>
<g id="a_node35"><a xlink:href="topology_8hpp.html" target="_top" xlink:title="This file contains functions for handling the system topology. ">
<polygon fill="none" stroke="black" points="420,-224.5 420,-243.5 499,-243.5 499,-224.5 420,-224.5"/>
<text text-anchor="middle" x="459.5" y="-231.5" font-family="Helvetica,sans-Serif" font-size="10.00">topology.hpp</text>
</a>
</g>
</g>
<!-- Node33&#45;&gt;Node35 -->
<g id="edge55" class="edge"><title>Node33&#45;&gt;Node35</title>
<path fill="none" stroke="midnightblue" d="M113.02,-281.25C116.227,-280.824 119.404,-280.405 122.5,-280 247.161,-263.71 281.294,-263.652 409.72,-244.038"/>
<polygon fill="midnightblue" stroke="midnightblue" points="410.601,-247.444 419.953,-242.465 409.537,-240.525 410.601,-247.444"/>
</g>
<!-- Node36 -->
<g id="node36" class="node"><title>Node36</title>
<g id="a_node36"><a xlink:href="cuda__init_8hpp.html" target="_top" xlink:title="cuda_init.hpp">
<polygon fill="none" stroke="black" points="17.5,-168.5 17.5,-187.5 99.5,-187.5 99.5,-168.5 17.5,-168.5"/>
<text text-anchor="middle" x="58.5" y="-175.5" font-family="Helvetica,sans-Serif" font-size="10.00">cuda_init.hpp</text>
</a>
</g>
</g>
<!-- Node33&#45;&gt;Node36 -->
<g id="edge58" class="edge"><title>Node33&#45;&gt;Node36</title>
<path fill="none" stroke="midnightblue" d="M56.6569,-280.368C56.9797,-262.617 57.7242,-221.666 58.1619,-197.597"/>
<polygon fill="midnightblue" stroke="midnightblue" points="61.6613,-197.653 58.3438,-187.591 54.6625,-197.526 61.6613,-197.653"/>
</g>
<!-- Node34&#45;&gt;Node3 -->
<g id="edge54" class="edge"><title>Node34&#45;&gt;Node3</title>
<path fill="none" stroke="midnightblue" d="M396.666,-224.444C432.277,-214.971 489.701,-199.695 528.012,-189.504"/>
<polygon fill="midnightblue" stroke="midnightblue" points="529.032,-192.855 537.796,-186.902 527.232,-186.09 529.032,-192.855"/>
</g>
<!-- Node35&#45;&gt;Node3 -->
<g id="edge56" class="edge"><title>Node35&#45;&gt;Node3</title>
<path fill="none" stroke="midnightblue" d="M476.852,-224.324C494.172,-215.664 521.015,-202.242 541.002,-192.249"/>
<polygon fill="midnightblue" stroke="midnightblue" points="542.812,-195.257 550.191,-187.655 539.681,-188.996 542.812,-195.257"/>
</g>
<!-- Node36&#45;&gt;Node8 -->
<g id="edge59" class="edge"><title>Node36&#45;&gt;Node8</title>
<path fill="none" stroke="midnightblue" d="M63.352,-168.337C71.7003,-154.259 90.1572,-126.53 113.5,-112 155.245,-86.0163 211.206,-75.02 249.587,-70.3762"/>
<polygon fill="midnightblue" stroke="midnightblue" points="250.367,-73.8111 259.919,-69.2277 249.594,-66.8539 250.367,-73.8111"/>
</g>
<!-- Node36&#45;&gt;Node18 -->
<g id="edge60" class="edge"><title>Node36&#45;&gt;Node18</title>
<path fill="none" stroke="midnightblue" d="M77.6728,-168.444C97.4091,-159.636 128.385,-145.812 150.993,-135.722"/>
<polygon fill="midnightblue" stroke="midnightblue" points="152.711,-138.788 160.417,-131.516 149.859,-132.396 152.711,-138.788"/>
</g>
<!-- Node37&#45;&gt;Node3 -->
<g id="edge62" class="edge"><title>Node37&#45;&gt;Node3</title>
<path fill="none" stroke="midnightblue" d="M900.303,-227.968C832.122,-217.936 679.608,-195.495 607.166,-184.836"/>
<polygon fill="midnightblue" stroke="midnightblue" points="607.481,-181.345 597.078,-183.352 606.462,-188.271 607.481,-181.345"/>
</g>
<!-- Node37&#45;&gt;Node7 -->
<g id="edge63" class="edge"><title>Node37&#45;&gt;Node7</title>
<path fill="none" stroke="midnightblue" d="M934.422,-224.368C934.26,-206.617 933.888,-165.666 933.669,-141.597"/>
<polygon fill="midnightblue" stroke="midnightblue" points="937.169,-141.559 933.578,-131.591 930.169,-141.623 937.169,-141.559"/>
</g>
<!-- Node38 -->
<g id="node38" class="node"><title>Node38</title>
<polygon fill="none" stroke="#bfbfbf" points="961.5,-168.5 961.5,-187.5 999.5,-187.5 999.5,-168.5 961.5,-168.5"/>
<text text-anchor="middle" x="980.5" y="-175.5" font-family="Helvetica,sans-Serif" font-size="10.00">tcl.h</text>
</g>
<!-- Node37&#45;&gt;Node38 -->
<g id="edge64" class="edge"><title>Node37&#45;&gt;Node38</title>
<path fill="none" stroke="midnightblue" d="M942.096,-224.083C948.727,-216.298 958.521,-204.801 966.558,-195.367"/>
<polygon fill="midnightblue" stroke="midnightblue" points="969.225,-197.633 973.045,-187.751 963.896,-193.094 969.225,-197.633"/>
</g>
</g>
</svg>
        <g id="navigator" transform="translate(0 0)" fill="#404254">
                <rect fill="#f2f5e9" fill-opacity="0.5" stroke="#606060" stroke-width=".5" x="0" y="0" width="60" height="60"/>
                <use id="zoomplus" xlink:href="#zoomPlus" x="17" y="9" onmousedown="handleZoom(evt,'in')"/>
                <use id="zoomminus" xlink:href="#zoomMin" x="42" y="9" onmousedown="handleZoom(evt,'out')"/>
                <use id="reset" xlink:href="#resetDef" x="30" y="36" onmousedown="handleReset()"/>
                <g id="arrowUp" xlink:href="#dirArrow" transform="translate(30 24)" onmousedown="handlePan(0,-1)">
                  <use xlink:href="#rim" fill="#404040">
                        <set attributeName="fill" to="#808080" begin="arrowUp.mouseover" end="arrowUp.mouseout"/>
                  </use>
                  <path fill="none" stroke="white" stroke-width="1.5" d="M0,-3.0v7 M-2.5,-0.5L0,-3.0L2.5,-0.5"/>
                </g>
                <g id="arrowRight" xlink:href="#dirArrow" transform="rotate(90) translate(36 -43)" onmousedown="handlePan(1,0)">
                  <use xlink:href="#rim" fill="#404040">
                        <set attributeName="fill" to="#808080" begin="arrowRight.mouseover" end="arrowRight.mouseout"/>
                  </use>
                  <path fill="none" stroke="white" stroke-width="1.5" d="M0,-3.0v7 M-2.5,-0.5L0,-3.0L2.5,-0.5"/>
                </g>
                <g id="arrowDown" xlink:href="#dirArrow" transform="rotate(180) translate(-30 -48)" onmousedown="handlePan(0,1)">
                  <use xlink:href="#rim" fill="#404040">
                        <set attributeName="fill" to="#808080" begin="arrowDown.mouseover" end="arrowDown.mouseout"/>
                  </use>
                  <path fill="none" stroke="white" stroke-width="1.5" d="M0,-3.0v7 M-2.5,-0.5L0,-3.0L2.5,-0.5"/>
                </g>
                <g id="arrowLeft" xlink:href="#dirArrow" transform="rotate(270) translate(-36 17)" onmousedown="handlePan(-1,0)">
                  <use xlink:href="#rim" fill="#404040">
                        <set attributeName="fill" to="#808080" begin="arrowLeft.mouseover" end="arrowLeft.mouseout"/>
                  </use>
                  <path fill="none" stroke="white" stroke-width="1.5" d="M0,-3.0v7 M-2.5,-0.5L0,-3.0L2.5,-0.5"/>
                </g>
        </g>
        <svg viewBox="0 0 15 15" width="100%" height="30px" preserveAspectRatio="xMaxYMin meet">
         <g id="arrow_out" transform="scale(0.3 0.3)">
          <a xlink:href="collision__tcl_8cpp__incl_org.svg" target="_base">
           <rect id="button" ry="5" rx="5" y="6" x="6" height="38" width="38"
                fill="#f2f5e9" fill-opacity="0.5" stroke="#606060" stroke-width="1.0"/>
           <path id="arrow"
             d="M 11.500037,31.436501 C 11.940474,20.09759 22.043105,11.32322 32.158766,21.979434 L 37.068811,17.246167 C 37.068811,17.246167 37.088388,32 37.088388,32 L 22.160133,31.978069 C 22.160133,31.978069 26.997745,27.140456 26.997745,27.140456 C 18.528582,18.264221 13.291696,25.230495 11.500037,31.436501 z"
             style="fill:#404040;"/>
          </a>
         </g>
        </svg>
</svg>
