<?xml version="1.0" encoding="UTF-8" standalone="no"?>
<!DOCTYPE svg PUBLIC "-//W3C//DTD SVG 1.1//EN"
 "http://www.w3.org/Graphics/SVG/1.1/DTD/svg11.dtd">
<!-- Generated by graphviz version 2.38.0 (20140413.2041)
 -->
<!-- Title: comforce.cpp Pages: 1 -->
<!--zoomable 532 -->
<svg id="main" version="1.1" xmlns="http://www.w3.org/2000/svg" xmlns:xlink="http://www.w3.org/1999/xlink" xml:space="preserve" onload="init(evt)">
<style type="text/css"><![CDATA[
.edge:hover path { stroke: red; }
.edge:hover polygon { stroke: red; fill: red; }
]]></style>
<script type="text/javascript"><![CDATA[
var edges = document.getElementsByTagName('g');
if (edges && edges.length) {
  for (var i=0;i<edges.length;i++) {
    if (edges[i].id.substr(0,4)=='edge') {
      edges[i].setAttribute('class','edge');
    }
  }
}
]]></script>
        <defs>
                <circle id="rim" cx="0" cy="0" r="7"/>
                <circle id="rim2" cx="0" cy="0" r="3.5"/>
                <g id="zoomPlus">
                        <use xlink:href="#rim" fill="#404040">
                                <set attributeName="fill" to="#808080" begin="zoomplus.mouseover" end="zoomplus.mouseout"/>
                        </use>
                        <path d="M-4,0h8M0,-4v8" fill="none" stroke="white" stroke-width="1.5" pointer-events="none"/>
                </g>
                <g id="zoomMin">
                        <use xlink:href="#rim" fill="#404040">
                                <set attributeName="fill" to="#808080" begin="zoomminus.mouseover" end="zoomminus.mouseout"/>
                        </use>
                        <path d="M-4,0h8" fill="none" stroke="white" stroke-width="1.5" pointer-events="none"/>
                </g>
                <g id="dirArrow">
                        <path fill="none" stroke="white" stroke-width="1.5" d="M0,-3.0v7 M-2.5,-0.5L0,-3.0L2.5,-0.5"/>
                </g>
               <g id="resetDef">
                       <use xlink:href="#rim2" fill="#404040">
                               <set attributeName="fill" to="#808080" begin="reset.mouseover" end="reset.mouseout"/>
                       </use>
               </g>
        </defs>

<script type="text/javascript">
var viewWidth = 1011;
var viewHeight = 532;
var sectionId = 'dynsection-0';
</script>
<script xlink:href="svgpan.js"/>
<svg id="graph" class="graph">
<g id="viewport">
<title>comforce.cpp</title>
<!-- Node1 -->
<g id="node1" class="node"><title>Node1</title>
<polygon fill="#bfbfbf" stroke="black" points="508.5,-504.5 508.5,-523.5 591.5,-523.5 591.5,-504.5 508.5,-504.5"/>
<text text-anchor="middle" x="550" y="-511.5" font-family="Helvetica,sans-Serif" font-size="10.00">comforce.cpp</text>
</g>
<!-- Node2 -->
<g id="node2" class="node"><title>Node2</title>
<g id="a_node2"><a xlink:href="utils_8hpp.html" target="_top" xlink:title="Small functions that are useful not only for one modul. ">
<polygon fill="none" stroke="black" points="359.5,-168.5 359.5,-187.5 418.5,-187.5 418.5,-168.5 359.5,-168.5"/>
<text text-anchor="middle" x="389" y="-175.5" font-family="Helvetica,sans-Serif" font-size="10.00">utils.hpp</text>
</a>
</g>
</g>
<!-- Node1&#45;&gt;Node2 -->
<g id="edge1" class="edge"><title>Node1&#45;&gt;Node2</title>
<path fill="none" stroke="midnightblue" d="M508.209,-513.512C379.859,-513.972 0,-506.585 0,-403 0,-403 0,-403 0,-289 0,-216.968 250.105,-189.728 349.228,-181.761"/>
<polygon fill="midnightblue" stroke="midnightblue" points="349.744,-185.231 359.442,-180.965 349.201,-178.252 349.744,-185.231"/>
</g>
<!-- Node19 -->
<g id="node19" class="node"><title>Node19</title>
<g id="a_node19"><a xlink:href="comforce_8hpp.html" target="_top" xlink:title="Routines for center of mass forces. ">
<polygon fill="none" stroke="black" points="444.5,-448.5 444.5,-467.5 527.5,-467.5 527.5,-448.5 444.5,-448.5"/>
<text text-anchor="middle" x="486" y="-455.5" font-family="Helvetica,sans-Serif" font-size="10.00">comforce.hpp</text>
</a>
</g>
</g>
<!-- Node1&#45;&gt;Node19 -->
<g id="edge21" class="edge"><title>Node1&#45;&gt;Node19</title>
<path fill="none" stroke="midnightblue" d="M539.717,-504.324C530.164,-496.263 515.72,-484.077 504.216,-474.369"/>
<polygon fill="midnightblue" stroke="midnightblue" points="506.37,-471.608 496.47,-467.834 501.856,-476.958 506.37,-471.608"/>
</g>
<!-- Node24 -->
<g id="node24" class="node"><title>Node24</title>
<g id="a_node24"><a xlink:href="communication_8hpp.html" target="_top" xlink:title="This file contains the asynchronous MPI communication. ">
<polygon fill="none" stroke="black" points="788.5,-280.5 788.5,-299.5 901.5,-299.5 901.5,-280.5 788.5,-280.5"/>
<text text-anchor="middle" x="845" y="-287.5" font-family="Helvetica,sans-Serif" font-size="10.00">communication.hpp</text>
</a>
</g>
</g>
<!-- Node1&#45;&gt;Node24 -->
<g id="edge59" class="edge"><title>Node1&#45;&gt;Node24</title>
<path fill="none" stroke="midnightblue" d="M561.564,-504.297C606.359,-470.588 768.76,-348.374 825.372,-305.771"/>
<polygon fill="midnightblue" stroke="midnightblue" points="827.63,-308.452 833.516,-299.643 823.421,-302.859 827.63,-308.452"/>
</g>
<!-- Node34 -->
<g id="node34" class="node"><title>Node34</title>
<g id="a_node34"><a xlink:href="cells_8hpp.html" target="_top" xlink:title="This file contains everything related to the cell structure / cell system. ">
<polygon fill="none" stroke="black" points="611,-336.5 611,-355.5 671,-355.5 671,-336.5 611,-336.5"/>
<text text-anchor="middle" x="641" y="-343.5" font-family="Helvetica,sans-Serif" font-size="10.00">cells.hpp</text>
</a>
</g>
</g>
<!-- Node1&#45;&gt;Node34 -->
<g id="edge52" class="edge"><title>Node1&#45;&gt;Node34</title>
<path fill="none" stroke="midnightblue" d="M554.893,-504.075C569.341,-477.719 612.013,-399.878 631.319,-364.661"/>
<polygon fill="midnightblue" stroke="midnightblue" points="634.565,-366.019 636.303,-355.568 628.427,-362.654 634.565,-366.019"/>
</g>
<!-- Node3 -->
<g id="node3" class="node"><title>Node3</title>
<polygon fill="none" stroke="#bfbfbf" points="187.5,-112.5 187.5,-131.5 234.5,-131.5 234.5,-112.5 187.5,-112.5"/>
<text text-anchor="middle" x="211" y="-119.5" font-family="Helvetica,sans-Serif" font-size="10.00">cmath</text>
</g>
<!-- Node2&#45;&gt;Node3 -->
<g id="edge2" class="edge"><title>Node2&#45;&gt;Node3</title>
<path fill="none" stroke="midnightblue" d="M360.795,-168.444C329.169,-158.849 277.922,-143.302 244.339,-133.114"/>
<polygon fill="midnightblue" stroke="midnightblue" points="245.111,-129.691 234.525,-130.137 243.078,-136.389 245.111,-129.691"/>
</g>
<!-- Node4 -->
<g id="node4" class="node"><title>Node4</title>
<polygon fill="none" stroke="#bfbfbf" points="253,-112.5 253,-131.5 299,-131.5 299,-112.5 253,-112.5"/>
<text text-anchor="middle" x="276" y="-119.5" font-family="Helvetica,sans-Serif" font-size="10.00">cstdio</text>
</g>
<!-- Node2&#45;&gt;Node4 -->
<g id="edge3" class="edge"><title>Node2&#45;&gt;Node4</title>
<path fill="none" stroke="midnightblue" d="M371.095,-168.444C352.746,-159.675 323.995,-145.935 302.906,-135.858"/>
<polygon fill="midnightblue" stroke="midnightblue" points="304.353,-132.67 293.821,-131.516 301.335,-138.986 304.353,-132.67"/>
</g>
<!-- Node5 -->
<g id="node5" class="node"><title>Node5</title>
<polygon fill="none" stroke="#bfbfbf" points="317.5,-112.5 317.5,-131.5 366.5,-131.5 366.5,-112.5 317.5,-112.5"/>
<text text-anchor="middle" x="342" y="-119.5" font-family="Helvetica,sans-Serif" font-size="10.00">cstdlib</text>
</g>
<!-- Node2&#45;&gt;Node5 -->
<g id="edge4" class="edge"><title>Node2&#45;&gt;Node5</title>
<path fill="none" stroke="midnightblue" d="M381.239,-168.083C374.463,-160.298 364.457,-148.801 356.245,-139.367"/>
<polygon fill="midnightblue" stroke="midnightblue" points="358.822,-136.996 349.617,-131.751 353.542,-141.592 358.822,-136.996"/>
</g>
<!-- Node6 -->
<g id="node6" class="node"><title>Node6</title>
<polygon fill="none" stroke="#bfbfbf" points="385,-112.5 385,-131.5 435,-131.5 435,-112.5 385,-112.5"/>
<text text-anchor="middle" x="410" y="-119.5" font-family="Helvetica,sans-Serif" font-size="10.00">cstring</text>
</g>
<!-- Node2&#45;&gt;Node6 -->
<g id="edge5" class="edge"><title>Node2&#45;&gt;Node6</title>
<path fill="none" stroke="midnightblue" d="M392.468,-168.083C395.312,-160.77 399.429,-150.181 402.96,-141.103"/>
<polygon fill="midnightblue" stroke="midnightblue" points="406.234,-142.34 406.597,-131.751 399.71,-139.803 406.234,-142.34"/>
</g>
<!-- Node7 -->
<g id="node7" class="node"><title>Node7</title>
<g id="a_node7"><a xlink:href="config_8hpp.html" target="_top" xlink:title="This file contains the defaults for Espresso. ">
<polygon fill="none" stroke="black" points="491.5,-56.5 491.5,-75.5 558.5,-75.5 558.5,-56.5 491.5,-56.5"/>
<text text-anchor="middle" x="525" y="-63.5" font-family="Helvetica,sans-Serif" font-size="10.00">config.hpp</text>
</a>
</g>
</g>
<!-- Node2&#45;&gt;Node7 -->
<g id="edge6" class="edge"><title>Node2&#45;&gt;Node7</title>
<path fill="none" stroke="midnightblue" d="M399.672,-168.368C422.711,-149.733 477.36,-105.532 506.289,-82.1338"/>
<polygon fill="midnightblue" stroke="midnightblue" points="508.804,-84.6014 514.378,-75.5914 504.402,-79.1589 508.804,-84.6014"/>
</g>
<!-- Node11 -->
<g id="node11" class="node"><title>Node11</title>
<g id="a_node11"><a xlink:href="debug_8hpp.html" target="_top" xlink:title="This file controls debug facilities. ">
<polygon fill="none" stroke="black" points="491,-112.5 491,-131.5 559,-131.5 559,-112.5 491,-112.5"/>
<text text-anchor="middle" x="525" y="-119.5" font-family="Helvetica,sans-Serif" font-size="10.00">debug.hpp</text>
</a>
</g>
</g>
<!-- Node2&#45;&gt;Node11 -->
<g id="edge10" class="edge"><title>Node2&#45;&gt;Node11</title>
<path fill="none" stroke="midnightblue" d="M410.55,-168.444C433.031,-159.517 468.488,-145.439 493.98,-135.317"/>
<polygon fill="midnightblue" stroke="midnightblue" points="495.549,-138.46 503.551,-131.516 492.965,-131.954 495.549,-138.46"/>
</g>
<!-- Node12 -->
<g id="node12" class="node"><title>Node12</title>
<g id="a_node12"><a xlink:href="lees__edwards_8hpp.html" target="_top" xlink:title="lees_edwards.hpp">
<polygon fill="none" stroke="black" points="661,-112.5 661,-131.5 765,-131.5 765,-112.5 661,-112.5"/>
<text text-anchor="middle" x="713" y="-119.5" font-family="Helvetica,sans-Serif" font-size="10.00">lees_edwards.hpp</text>
</a>
</g>
</g>
<!-- Node2&#45;&gt;Node12 -->
<g id="edge12" class="edge"><title>Node2&#45;&gt;Node12</title>
<path fill="none" stroke="midnightblue" d="M418.612,-172.065C471.32,-163.28 582.405,-144.766 652.037,-133.161"/>
<polygon fill="midnightblue" stroke="midnightblue" points="652.709,-136.597 661.998,-131.5 651.558,-129.692 652.709,-136.597"/>
</g>
<!-- Node13 -->
<g id="node13" class="node"><title>Node13</title>
<g id="a_node13"><a xlink:href="errorhandling_8hpp.html" target="_top" xlink:title="This file contains the errorhandling code for severe errors, like a broken bond or illegal parameter ...">
<polygon fill="none" stroke="black" points="66.5,-112.5 66.5,-131.5 169.5,-131.5 169.5,-112.5 66.5,-112.5"/>
<text text-anchor="middle" x="118" y="-119.5" font-family="Helvetica,sans-Serif" font-size="10.00">errorhandling.hpp</text>
</a>
</g>
</g>
<!-- Node2&#45;&gt;Node13 -->
<g id="edge14" class="edge"><title>Node2&#45;&gt;Node13</title>
<path fill="none" stroke="midnightblue" d="M359.482,-171.118C314.282,-162.112 227.25,-144.769 170.946,-133.55"/>
<polygon fill="midnightblue" stroke="midnightblue" points="171.299,-130.052 160.808,-131.53 169.931,-136.917 171.299,-130.052"/>
</g>
<!-- Node17 -->
<g id="node17" class="node"><title>Node17</title>
<polygon fill="none" stroke="#bfbfbf" points="821.5,-112.5 821.5,-131.5 868.5,-131.5 868.5,-112.5 821.5,-112.5"/>
<text text-anchor="middle" x="845" y="-119.5" font-family="Helvetica,sans-Serif" font-size="10.00">vector</text>
</g>
<!-- Node2&#45;&gt;Node17 -->
<g id="edge19" class="edge"><title>Node2&#45;&gt;Node17</title>
<path fill="none" stroke="midnightblue" d="M418.964,-173.598C483.757,-166.22 641.733,-148.113 774,-132 786.211,-130.513 799.595,-128.83 811.42,-127.325"/>
<polygon fill="midnightblue" stroke="midnightblue" points="811.865,-130.796 821.34,-126.058 810.978,-123.853 811.865,-130.796"/>
</g>
<!-- Node18 -->
<g id="node18" class="node"><title>Node18</title>
<polygon fill="none" stroke="#bfbfbf" points="577.5,-112.5 577.5,-131.5 642.5,-131.5 642.5,-112.5 577.5,-112.5"/>
<text text-anchor="middle" x="610" y="-119.5" font-family="Helvetica,sans-Serif" font-size="10.00">exception</text>
</g>
<!-- Node2&#45;&gt;Node18 -->
<g id="edge20" class="edge"><title>Node2&#45;&gt;Node18</title>
<path fill="none" stroke="midnightblue" d="M418.805,-169.717C457.171,-160.343 524.074,-143.995 567.695,-133.337"/>
<polygon fill="midnightblue" stroke="midnightblue" points="568.557,-136.729 577.441,-130.956 566.896,-129.929 568.557,-136.729"/>
</g>
<!-- Node8 -->
<g id="node8" class="node"><title>Node8</title>
<g id="a_node8"><a xlink:href="acconfig_8hpp.html" target="_top" xlink:title="acconfig.hpp">
<polygon fill="none" stroke="black" points="375,-0.5 375,-19.5 453,-19.5 453,-0.5 375,-0.5"/>
<text text-anchor="middle" x="414" y="-7.5" font-family="Helvetica,sans-Serif" font-size="10.00">acconfig.hpp</text>
</a>
</g>
</g>
<!-- Node7&#45;&gt;Node8 -->
<g id="edge7" class="edge"><title>Node7&#45;&gt;Node8</title>
<path fill="none" stroke="midnightblue" d="M507.166,-56.324C489.284,-47.6247 461.525,-34.1202 440.954,-24.113"/>
<polygon fill="midnightblue" stroke="midnightblue" points="442.313,-20.8819 431.79,-19.6545 439.251,-27.1765 442.313,-20.8819"/>
</g>
<!-- Node9 -->
<g id="node9" class="node"><title>Node9</title>
<g id="a_node9"><a xlink:href="myconfig-final_8hpp.html" target="_top" xlink:title="myconfig&#45;final.hpp">
<polygon fill="none" stroke="black" points="471.5,-0.5 471.5,-19.5 578.5,-19.5 578.5,-0.5 471.5,-0.5"/>
<text text-anchor="middle" x="525" y="-7.5" font-family="Helvetica,sans-Serif" font-size="10.00">myconfig&#45;final.hpp</text>
</a>
</g>
</g>
<!-- Node7&#45;&gt;Node9 -->
<g id="edge8" class="edge"><title>Node7&#45;&gt;Node9</title>
<path fill="none" stroke="midnightblue" d="M525,-56.083C525,-49.0059 525,-38.8611 525,-29.9865"/>
<polygon fill="midnightblue" stroke="midnightblue" points="528.5,-29.751 525,-19.7511 521.5,-29.7511 528.5,-29.751"/>
</g>
<!-- Node10 -->
<g id="node10" class="node"><title>Node10</title>
<g id="a_node10"><a xlink:href="config-features_8hpp.html" target="_top" xlink:title="config&#45;features.hpp">
<polygon fill="none" stroke="black" points="596.5,-0.5 596.5,-19.5 707.5,-19.5 707.5,-0.5 596.5,-0.5"/>
<text text-anchor="middle" x="652" y="-7.5" font-family="Helvetica,sans-Serif" font-size="10.00">config&#45;features.hpp</text>
</a>
</g>
</g>
<!-- Node7&#45;&gt;Node10 -->
<g id="edge9" class="edge"><title>Node7&#45;&gt;Node10</title>
<path fill="none" stroke="midnightblue" d="M545.124,-56.4435C566.024,-47.5566 598.935,-33.5632 622.716,-23.4514"/>
<polygon fill="midnightblue" stroke="midnightblue" points="624.138,-26.6504 631.971,-19.5164 621.398,-20.2085 624.138,-26.6504"/>
</g>
<!-- Node11&#45;&gt;Node7 -->
<g id="edge11" class="edge"><title>Node11&#45;&gt;Node7</title>
<path fill="none" stroke="midnightblue" d="M525,-112.083C525,-105.006 525,-94.8611 525,-85.9865"/>
<polygon fill="midnightblue" stroke="midnightblue" points="528.5,-85.751 525,-75.7511 521.5,-85.7511 528.5,-85.751"/>
</g>
<!-- Node12&#45;&gt;Node7 -->
<g id="edge13" class="edge"><title>Node12&#45;&gt;Node7</title>
<path fill="none" stroke="midnightblue" d="M683.211,-112.444C651.171,-103.241 600.067,-88.5617 564.647,-78.3879"/>
<polygon fill="midnightblue" stroke="midnightblue" points="565.227,-74.9132 554.65,-75.5164 563.295,-81.6412 565.227,-74.9132"/>
</g>
<!-- Node13&#45;&gt;Node7 -->
<g id="edge15" class="edge"><title>Node13&#45;&gt;Node7</title>
<path fill="none" stroke="midnightblue" d="M169.701,-113.178C172.508,-112.774 175.288,-112.379 178,-112 287.075,-96.7484 415.695,-80.5293 481.469,-72.3627"/>
<polygon fill="midnightblue" stroke="midnightblue" points="481.979,-75.8262 491.473,-71.1225 481.118,-68.8794 481.979,-75.8262"/>
</g>
<!-- Node14 -->
<g id="node14" class="node"><title>Node14</title>
<polygon fill="none" stroke="#bfbfbf" points="19,-56.5 19,-75.5 63,-75.5 63,-56.5 19,-56.5"/>
<text text-anchor="middle" x="41" y="-63.5" font-family="Helvetica,sans-Serif" font-size="10.00">string</text>
</g>
<!-- Node13&#45;&gt;Node14 -->
<g id="edge16" class="edge"><title>Node13&#45;&gt;Node14</title>
<path fill="none" stroke="midnightblue" d="M105.629,-112.324C93.8415,-104.058 75.8677,-91.4527 61.8645,-81.6322"/>
<polygon fill="midnightblue" stroke="midnightblue" points="63.5376,-78.5307 53.3407,-75.6545 59.5184,-84.2619 63.5376,-78.5307"/>
</g>
<!-- Node15 -->
<g id="node15" class="node"><title>Node15</title>
<polygon fill="none" stroke="#bfbfbf" points="84,-56.5 84,-75.5 140,-75.5 140,-56.5 84,-56.5"/>
<text text-anchor="middle" x="112" y="-63.5" font-family="Helvetica,sans-Serif" font-size="10.00">sstream</text>
</g>
<!-- Node13&#45;&gt;Node15 -->
<g id="edge17" class="edge"><title>Node13&#45;&gt;Node15</title>
<path fill="none" stroke="midnightblue" d="M117.009,-112.083C116.214,-104.927 115.071,-94.6353 114.077,-85.6911"/>
<polygon fill="midnightblue" stroke="midnightblue" points="117.555,-85.3034 112.972,-75.7511 110.598,-86.0765 117.555,-85.3034"/>
</g>
<!-- Node16 -->
<g id="node16" class="node"><title>Node16</title>
<polygon fill="none" stroke="#bfbfbf" points="158,-56.5 158,-75.5 190,-75.5 190,-56.5 158,-56.5"/>
<text text-anchor="middle" x="174" y="-63.5" font-family="Helvetica,sans-Serif" font-size="10.00">list</text>
</g>
<!-- Node13&#45;&gt;Node16 -->
<g id="edge18" class="edge"><title>Node13&#45;&gt;Node16</title>
<path fill="none" stroke="midnightblue" d="M126.997,-112.324C135.194,-104.42 147.506,-92.5482 157.472,-82.9377"/>
<polygon fill="midnightblue" stroke="midnightblue" points="160.07,-85.2947 164.839,-75.8339 155.211,-80.2558 160.07,-85.2947"/>
</g>
<!-- Node19&#45;&gt;Node2 -->
<g id="edge22" class="edge"><title>Node19&#45;&gt;Node2</title>
<path fill="none" stroke="midnightblue" d="M444.273,-451.265C373.249,-438.807 233.563,-401.699 203,-300 193.038,-266.852 195.107,-248.049 220,-224 254.631,-190.544 311.212,-181.27 349.257,-179.056"/>
<polygon fill="midnightblue" stroke="midnightblue" points="349.627,-182.543 359.462,-178.604 349.317,-175.55 349.627,-182.543"/>
</g>
<!-- Node20 -->
<g id="node20" class="node"><title>Node20</title>
<g id="a_node20"><a xlink:href="particle__data_8hpp.html" target="_top" xlink:title="For more information on particle_data, see particle_data.c. ">
<polygon fill="none" stroke="black" points="461.5,-224.5 461.5,-243.5 562.5,-243.5 562.5,-224.5 461.5,-224.5"/>
<text text-anchor="middle" x="512" y="-231.5" font-family="Helvetica,sans-Serif" font-size="10.00">particle_data.hpp</text>
</a>
</g>
</g>
<!-- Node19&#45;&gt;Node20 -->
<g id="edge23" class="edge"><title>Node19&#45;&gt;Node20</title>
<path fill="none" stroke="midnightblue" d="M487.019,-448.297C490.845,-415.633 504.403,-299.866 509.78,-253.957"/>
<polygon fill="midnightblue" stroke="midnightblue" points="513.272,-254.223 510.96,-243.884 506.32,-253.409 513.272,-254.223"/>
</g>
<!-- Node21 -->
<g id="node21" class="node"><title>Node21</title>
<g id="a_node21"><a xlink:href="statistics_8hpp.html" target="_top" xlink:title="This file contains the code for statistics on the data. ">
<polygon fill="none" stroke="black" points="386,-392.5 386,-411.5 468,-411.5 468,-392.5 386,-392.5"/>
<text text-anchor="middle" x="427" y="-399.5" font-family="Helvetica,sans-Serif" font-size="10.00">statistics.hpp</text>
</a>
</g>
</g>
<!-- Node19&#45;&gt;Node21 -->
<g id="edge25" class="edge"><title>Node19&#45;&gt;Node21</title>
<path fill="none" stroke="midnightblue" d="M476.521,-448.324C467.799,-440.341 454.657,-428.313 444.102,-418.653"/>
<polygon fill="midnightblue" stroke="midnightblue" points="446.392,-416.004 436.652,-411.834 441.666,-421.167 446.392,-416.004"/>
</g>
<!-- Node20&#45;&gt;Node2 -->
<g id="edge24" class="edge"><title>Node20&#45;&gt;Node2</title>
<path fill="none" stroke="midnightblue" d="M492.51,-224.444C472.358,-215.596 440.677,-201.687 417.669,-191.586"/>
<polygon fill="midnightblue" stroke="midnightblue" points="418.962,-188.332 408.399,-187.516 416.148,-194.741 418.962,-188.332"/>
</g>
<!-- Node21&#45;&gt;Node2 -->
<g id="edge48" class="edge"><title>Node21&#45;&gt;Node2</title>
<path fill="none" stroke="midnightblue" d="M385.93,-395.758C334.201,-386.636 247.87,-362.402 213,-300 179.332,-239.749 287.671,-203.145 349.309,-187.654"/>
<polygon fill="midnightblue" stroke="midnightblue" points="350.248,-191.028 359.137,-185.263 348.593,-184.227 350.248,-191.028"/>
</g>
<!-- Node21&#45;&gt;Node14 -->
<g id="edge50" class="edge"><title>Node21&#45;&gt;Node14</title>
<path fill="none" stroke="midnightblue" d="M385.738,-398.119C285.625,-390 38,-362.674 38,-291 38,-291 38,-291 38,-177 38,-144.936 39.2895,-107.634 40.1776,-85.7446"/>
<polygon fill="midnightblue" stroke="midnightblue" points="43.6828,-85.6944 40.6078,-75.5556 36.689,-85.399 43.6828,-85.6944"/>
</g>
<!-- Node21&#45;&gt;Node17 -->
<g id="edge26" class="edge"><title>Node21&#45;&gt;Node17</title>
<path fill="none" stroke="midnightblue" d="M468.424,-397.487C600.496,-385.739 1003,-345.467 1003,-291 1003,-291 1003,-291 1003,-233 1003,-202.902 1004.97,-189.586 984,-168 956.208,-139.398 910.123,-128.955 878.698,-125.154"/>
<polygon fill="midnightblue" stroke="midnightblue" points="878.96,-121.663 868.65,-124.103 878.232,-128.625 878.96,-121.663"/>
</g>
<!-- Node21&#45;&gt;Node20 -->
<g id="edge44" class="edge"><title>Node21&#45;&gt;Node20</title>
<path fill="none" stroke="midnightblue" d="M432.89,-392.217C438.784,-383.276 447.962,-368.931 455,-356 474.436,-320.289 493.949,-276.825 504.342,-252.919"/>
<polygon fill="midnightblue" stroke="midnightblue" points="507.581,-254.247 508.327,-243.679 501.153,-251.475 507.581,-254.247"/>
</g>
<!-- Node22 -->
<g id="node22" class="node"><title>Node22</title>
<g id="a_node22"><a xlink:href="grid_8hpp.html" target="_top" xlink:title="Domain decomposition for parallel computing. ">
<polygon fill="none" stroke="black" points="334,-336.5 334,-355.5 390,-355.5 390,-336.5 334,-336.5"/>
<text text-anchor="middle" x="362" y="-343.5" font-family="Helvetica,sans-Serif" font-size="10.00">grid.hpp</text>
</a>
</g>
</g>
<!-- Node21&#45;&gt;Node22 -->
<g id="edge27" class="edge"><title>Node21&#45;&gt;Node22</title>
<path fill="none" stroke="midnightblue" d="M416.557,-392.324C406.854,-384.263 392.185,-372.077 380.5,-362.369"/>
<polygon fill="midnightblue" stroke="midnightblue" points="382.562,-359.532 372.633,-355.834 378.089,-364.916 382.562,-359.532"/>
</g>
<!-- Node26 -->
<g id="node26" class="node"><title>Node26</title>
<g id="a_node26"><a xlink:href="topology_8hpp.html" target="_top" xlink:title="This file contains functions for handling the system topology. ">
<polygon fill="none" stroke="black" points="580.5,-224.5 580.5,-243.5 659.5,-243.5 659.5,-224.5 580.5,-224.5"/>
<text text-anchor="middle" x="620" y="-231.5" font-family="Helvetica,sans-Serif" font-size="10.00">topology.hpp</text>
</a>
</g>
</g>
<!-- Node21&#45;&gt;Node26 -->
<g id="edge49" class="edge"><title>Node21&#45;&gt;Node26</title>
<path fill="none" stroke="midnightblue" d="M437.105,-392.309C468.111,-365.64 562.198,-284.716 601.957,-250.519"/>
<polygon fill="midnightblue" stroke="midnightblue" points="604.696,-252.78 609.995,-243.605 600.131,-247.472 604.696,-252.78"/>
</g>
<!-- Node32 -->
<g id="node32" class="node"><title>Node32</title>
<g id="a_node32"><a xlink:href="interaction__data_8hpp.html" target="_top" xlink:title="Various procedures concerning interactions between particles. ">
<polygon fill="none" stroke="black" points="222.5,-280.5 222.5,-299.5 339.5,-299.5 339.5,-280.5 222.5,-280.5"/>
<text text-anchor="middle" x="281" y="-287.5" font-family="Helvetica,sans-Serif" font-size="10.00">interaction_data.hpp</text>
</a>
</g>
</g>
<!-- Node21&#45;&gt;Node32 -->
<g id="edge45" class="edge"><title>Node21&#45;&gt;Node32</title>
<path fill="none" stroke="midnightblue" d="M395.964,-392.351C374.357,-385.196 345.801,-373.365 325,-356 309.511,-343.07 297.22,-323.353 289.61,-309.026"/>
<polygon fill="midnightblue" stroke="midnightblue" points="292.544,-307.072 284.916,-299.719 286.294,-310.224 292.544,-307.072"/>
</g>
<!-- Node33 -->
<g id="node33" class="node"><title>Node33</title>
<polygon fill="none" stroke="#bfbfbf" points="408,-336.5 408,-355.5 446,-355.5 446,-336.5 408,-336.5"/>
<text text-anchor="middle" x="427" y="-343.5" font-family="Helvetica,sans-Serif" font-size="10.00">map</text>
</g>
<!-- Node21&#45;&gt;Node33 -->
<g id="edge51" class="edge"><title>Node21&#45;&gt;Node33</title>
<path fill="none" stroke="midnightblue" d="M427,-392.083C427,-385.006 427,-374.861 427,-365.986"/>
<polygon fill="midnightblue" stroke="midnightblue" points="430.5,-365.751 427,-355.751 423.5,-365.751 430.5,-365.751"/>
</g>
<!-- Node22&#45;&gt;Node2 -->
<g id="edge28" class="edge"><title>Node22&#45;&gt;Node2</title>
<path fill="none" stroke="midnightblue" d="M363.452,-336.075C367.702,-309.945 380.183,-233.211 385.978,-197.577"/>
<polygon fill="midnightblue" stroke="midnightblue" points="389.456,-198 387.606,-187.568 382.546,-196.876 389.456,-198"/>
</g>
<!-- Node22&#45;&gt;Node13 -->
<g id="edge43" class="edge"><title>Node22&#45;&gt;Node13</title>
<path fill="none" stroke="midnightblue" d="M333.74,-342.894C301.324,-339.144 248.135,-328.748 213,-300 160.635,-257.154 133.079,-177.596 122.803,-141.576"/>
<polygon fill="midnightblue" stroke="midnightblue" points="126.067,-140.242 120.064,-131.512 119.313,-142.08 126.067,-140.242"/>
</g>
<!-- Node23 -->
<g id="node23" class="node"><title>Node23</title>
<polygon fill="none" stroke="#bfbfbf" points="396,-280.5 396,-299.5 446,-299.5 446,-280.5 396,-280.5"/>
<text text-anchor="middle" x="421" y="-287.5" font-family="Helvetica,sans-Serif" font-size="10.00">climits</text>
</g>
<!-- Node22&#45;&gt;Node23 -->
<g id="edge29" class="edge"><title>Node22&#45;&gt;Node23</title>
<path fill="none" stroke="midnightblue" d="M371.479,-336.324C380.201,-328.341 393.343,-316.313 403.898,-306.653"/>
<polygon fill="midnightblue" stroke="midnightblue" points="406.334,-309.167 411.348,-299.834 401.608,-304.004 406.334,-309.167"/>
</g>
<!-- Node22&#45;&gt;Node24 -->
<g id="edge30" class="edge"><title>Node22&#45;&gt;Node24</title>
<path fill="none" stroke="midnightblue" d="M390.195,-337.698C393.156,-337.064 396.131,-336.482 399,-336 563.112,-308.415 608.748,-319.038 778.467,-300.003"/>
<polygon fill="midnightblue" stroke="midnightblue" points="778.954,-303.471 788.494,-298.861 778.162,-296.516 778.954,-303.471"/>
</g>
<!-- Node24&#45;&gt;Node20 -->
<g id="edge31" class="edge"><title>Node24&#45;&gt;Node20</title>
<path fill="none" stroke="midnightblue" d="M792.235,-280.444C732.562,-270.767 635.553,-255.036 572.765,-244.854"/>
<polygon fill="midnightblue" stroke="midnightblue" points="573.04,-241.353 562.609,-243.207 571.92,-248.262 573.04,-241.353"/>
</g>
<!-- Node25 -->
<g id="node25" class="node"><title>Node25</title>
<g id="a_node25"><a xlink:href="random_8hpp.html" target="_top" xlink:title="A random generator. ">
<polygon fill="none" stroke="black" points="684.5,-224.5 684.5,-243.5 759.5,-243.5 759.5,-224.5 684.5,-224.5"/>
<text text-anchor="middle" x="722" y="-231.5" font-family="Helvetica,sans-Serif" font-size="10.00">random.hpp</text>
</a>
</g>
</g>
<!-- Node24&#45;&gt;Node25 -->
<g id="edge32" class="edge"><title>Node24&#45;&gt;Node25</title>
<path fill="none" stroke="midnightblue" d="M825.51,-280.444C805.358,-271.596 773.677,-257.687 750.669,-247.586"/>
<polygon fill="midnightblue" stroke="midnightblue" points="751.962,-244.332 741.399,-243.516 749.148,-250.741 751.962,-244.332"/>
</g>
<!-- Node24&#45;&gt;Node26 -->
<g id="edge34" class="edge"><title>Node24&#45;&gt;Node26</title>
<path fill="none" stroke="midnightblue" d="M809.348,-280.444C770.344,-271.083 707.734,-256.056 665.283,-245.868"/>
<polygon fill="midnightblue" stroke="midnightblue" points="666.026,-242.447 655.485,-243.516 664.392,-249.254 666.026,-242.447"/>
</g>
<!-- Node27 -->
<g id="node27" class="node"><title>Node27</title>
<g id="a_node27"><a xlink:href="mpi_8h.html" target="_top" xlink:title="This is the MPIfake implementation. ">
<polygon fill="none" stroke="black" points="823,-224.5 823,-243.5 867,-243.5 867,-224.5 823,-224.5"/>
<text text-anchor="middle" x="845" y="-231.5" font-family="Helvetica,sans-Serif" font-size="10.00">mpi.h</text>
</a>
</g>
</g>
<!-- Node24&#45;&gt;Node27 -->
<g id="edge36" class="edge"><title>Node24&#45;&gt;Node27</title>
<path fill="none" stroke="midnightblue" d="M845,-280.083C845,-273.006 845,-262.861 845,-253.986"/>
<polygon fill="midnightblue" stroke="midnightblue" points="848.5,-253.751 845,-243.751 841.5,-253.751 848.5,-253.751"/>
</g>
<!-- Node31 -->
<g id="node31" class="node"><title>Node31</title>
<g id="a_node31"><a xlink:href="cuda__init_8hpp.html" target="_top" xlink:title="cuda_init.hpp">
<polygon fill="none" stroke="black" points="682,-168.5 682,-187.5 764,-187.5 764,-168.5 682,-168.5"/>
<text text-anchor="middle" x="723" y="-175.5" font-family="Helvetica,sans-Serif" font-size="10.00">cuda_init.hpp</text>
</a>
</g>
</g>
<!-- Node24&#45;&gt;Node31 -->
<g id="edge40" class="edge"><title>Node24&#45;&gt;Node31</title>
<path fill="none" stroke="midnightblue" d="M835.427,-280.368C814.848,-261.814 766.158,-217.913 740.122,-194.438"/>
<polygon fill="midnightblue" stroke="midnightblue" points="742.299,-191.688 732.529,-187.591 737.612,-196.887 742.299,-191.688"/>
</g>
<!-- Node25&#45;&gt;Node2 -->
<g id="edge33" class="edge"><title>Node25&#45;&gt;Node2</title>
<path fill="none" stroke="midnightblue" d="M684.239,-226.681C678.791,-225.776 673.252,-224.861 668,-224 582.892,-210.044 483.119,-194.037 428.947,-185.376"/>
<polygon fill="midnightblue" stroke="midnightblue" points="429.165,-181.866 418.738,-183.744 428.06,-188.778 429.165,-181.866"/>
</g>
<!-- Node26&#45;&gt;Node2 -->
<g id="edge35" class="edge"><title>Node26&#45;&gt;Node2</title>
<path fill="none" stroke="midnightblue" d="M583.397,-224.444C541.233,-214.587 472.199,-198.449 428.75,-188.292"/>
<polygon fill="midnightblue" stroke="midnightblue" points="429.354,-184.839 418.82,-185.971 427.761,-191.655 429.354,-184.839"/>
</g>
<!-- Node28 -->
<g id="node28" class="node"><title>Node28</title>
<polygon fill="none" stroke="#bfbfbf" points="853.5,-168.5 853.5,-187.5 906.5,-187.5 906.5,-168.5 853.5,-168.5"/>
<text text-anchor="middle" x="880" y="-175.5" font-family="Helvetica,sans-Serif" font-size="10.00">string.h</text>
</g>
<!-- Node27&#45;&gt;Node28 -->
<g id="edge37" class="edge"><title>Node27&#45;&gt;Node28</title>
<path fill="none" stroke="midnightblue" d="M850.78,-224.083C855.672,-216.534 862.827,-205.495 868.833,-196.23"/>
<polygon fill="midnightblue" stroke="midnightblue" points="871.826,-198.046 874.328,-187.751 865.952,-194.239 871.826,-198.046"/>
</g>
<!-- Node29 -->
<g id="node29" class="node"><title>Node29</title>
<polygon fill="none" stroke="#bfbfbf" points="925,-168.5 925,-187.5 975,-187.5 975,-168.5 925,-168.5"/>
<text text-anchor="middle" x="950" y="-175.5" font-family="Helvetica,sans-Serif" font-size="10.00">stdio.h</text>
</g>
<!-- Node27&#45;&gt;Node29 -->
<g id="edge38" class="edge"><title>Node27&#45;&gt;Node29</title>
<path fill="none" stroke="midnightblue" d="M861.87,-224.324C878.709,-215.664 904.807,-202.242 924.238,-192.249"/>
<polygon fill="midnightblue" stroke="midnightblue" points="925.88,-195.341 933.172,-187.655 922.678,-189.116 925.88,-195.341"/>
</g>
<!-- Node30 -->
<g id="node30" class="node"><title>Node30</title>
<polygon fill="none" stroke="#bfbfbf" points="782.5,-168.5 782.5,-187.5 835.5,-187.5 835.5,-168.5 782.5,-168.5"/>
<text text-anchor="middle" x="809" y="-175.5" font-family="Helvetica,sans-Serif" font-size="10.00">stdlib.h</text>
</g>
<!-- Node27&#45;&gt;Node30 -->
<g id="edge39" class="edge"><title>Node27&#45;&gt;Node30</title>
<path fill="none" stroke="midnightblue" d="M839.055,-224.083C834.023,-216.534 826.663,-205.495 820.487,-196.23"/>
<polygon fill="midnightblue" stroke="midnightblue" points="823.293,-194.13 814.834,-187.751 817.469,-198.013 823.293,-194.13"/>
</g>
<!-- Node31&#45;&gt;Node7 -->
<g id="edge41" class="edge"><title>Node31&#45;&gt;Node7</title>
<path fill="none" stroke="midnightblue" d="M738.193,-168.454C758.615,-155.899 790.554,-131.814 774,-112 748.387,-81.3432 633.488,-71.5334 569.097,-68.4228"/>
<polygon fill="midnightblue" stroke="midnightblue" points="568.983,-64.9142 558.836,-67.9631 568.67,-71.9072 568.983,-64.9142"/>
</g>
<!-- Node31&#45;&gt;Node17 -->
<g id="edge42" class="edge"><title>Node31&#45;&gt;Node17</title>
<path fill="none" stroke="midnightblue" d="M742.331,-168.444C762.32,-159.596 793.743,-145.687 816.564,-135.586"/>
<polygon fill="midnightblue" stroke="midnightblue" points="818.032,-138.764 825.759,-131.516 815.198,-132.363 818.032,-138.764"/>
</g>
<!-- Node32&#45;&gt;Node2 -->
<g id="edge46" class="edge"><title>Node32&#45;&gt;Node2</title>
<path fill="none" stroke="midnightblue" d="M289.475,-280.368C307.613,-261.894 350.422,-218.293 373.543,-194.744"/>
<polygon fill="midnightblue" stroke="midnightblue" points="376.056,-197.179 380.565,-187.591 371.061,-192.275 376.056,-197.179"/>
</g>
<!-- Node32&#45;&gt;Node20 -->
<g id="edge47" class="edge"><title>Node32&#45;&gt;Node20</title>
<path fill="none" stroke="midnightblue" d="M317.603,-280.444C357.731,-271.063 422.198,-255.993 465.785,-245.804"/>
<polygon fill="midnightblue" stroke="midnightblue" points="466.628,-249.201 475.569,-243.516 465.034,-242.385 466.628,-249.201"/>
</g>
<!-- Node34&#45;&gt;Node20 -->
<g id="edge53" class="edge"><title>Node34&#45;&gt;Node20</title>
<path fill="none" stroke="midnightblue" d="M646.517,-336.074C654.057,-322.603 665.32,-296.864 653,-280 642.55,-265.695 602.45,-253.745 567.673,-245.763"/>
<polygon fill="midnightblue" stroke="midnightblue" points="568.084,-242.269 557.563,-243.517 566.566,-249.102 568.084,-242.269"/>
</g>
<!-- Node35 -->
<g id="node35" class="node"><title>Node35</title>
<g id="a_node35"><a xlink:href="ghosts_8hpp.html" target="_top" xlink:title="Ghost particles and particle exchange. ">
<polygon fill="none" stroke="black" points="700,-280.5 700,-299.5 770,-299.5 770,-280.5 700,-280.5"/>
<text text-anchor="middle" x="735" y="-287.5" font-family="Helvetica,sans-Serif" font-size="10.00">ghosts.hpp</text>
</a>
</g>
</g>
<!-- Node34&#45;&gt;Node35 -->
<g id="edge54" class="edge"><title>Node34&#45;&gt;Node35</title>
<path fill="none" stroke="midnightblue" d="M656.103,-336.324C670.903,-327.822 693.694,-314.729 710.982,-304.797"/>
<polygon fill="midnightblue" stroke="midnightblue" points="713.007,-307.671 719.935,-299.655 709.52,-301.601 713.007,-307.671"/>
</g>
<!-- Node36 -->
<g id="node36" class="node"><title>Node36</title>
<g id="a_node36"><a xlink:href="verlet_8hpp.html" target="_top" xlink:title="This file contains routines to setup and handle interaction pair lists (verlet pair lists) for the no...">
<polygon fill="none" stroke="black" points="578,-280.5 578,-299.5 644,-299.5 644,-280.5 578,-280.5"/>
<text text-anchor="middle" x="611" y="-287.5" font-family="Helvetica,sans-Serif" font-size="10.00">verlet.hpp</text>
</a>
</g>
</g>
<!-- Node34&#45;&gt;Node36 -->
<g id="edge57" class="edge"><title>Node34&#45;&gt;Node36</title>
<path fill="none" stroke="midnightblue" d="M636.046,-336.083C631.896,-328.613 625.847,-317.724 620.733,-308.52"/>
<polygon fill="midnightblue" stroke="midnightblue" points="623.778,-306.793 615.862,-299.751 617.659,-310.192 623.778,-306.793"/>
</g>
<!-- Node35&#45;&gt;Node20 -->
<g id="edge56" class="edge"><title>Node35&#45;&gt;Node20</title>
<path fill="none" stroke="midnightblue" d="M699.665,-280.444C661.089,-271.102 599.215,-256.119 557.147,-245.933"/>
<polygon fill="midnightblue" stroke="midnightblue" points="557.713,-242.468 547.17,-243.516 556.065,-249.272 557.713,-242.468"/>
</g>
<!-- Node35&#45;&gt;Node27 -->
<g id="edge55" class="edge"><title>Node35&#45;&gt;Node27</title>
<path fill="none" stroke="midnightblue" d="M752.673,-280.324C770.394,-271.625 797.903,-258.12 818.288,-248.113"/>
<polygon fill="midnightblue" stroke="midnightblue" points="819.936,-251.203 827.37,-243.655 816.851,-244.919 819.936,-251.203"/>
</g>
<!-- Node36&#45;&gt;Node20 -->
<g id="edge58" class="edge"><title>Node36&#45;&gt;Node20</title>
<path fill="none" stroke="midnightblue" d="M595.094,-280.324C579.362,-271.743 555.058,-258.486 536.791,-248.522"/>
<polygon fill="midnightblue" stroke="midnightblue" points="538.322,-245.37 527.867,-243.655 534.97,-251.516 538.322,-245.37"/>
</g>
</g>
</svg>
        <g id="navigator" transform="translate(0 0)" fill="#404254">
                <rect fill="#f2f5e9" fill-opacity="0.5" stroke="#606060" stroke-width=".5" x="0" y="0" width="60" height="60"/>
                <use id="zoomplus" xlink:href="#zoomPlus" x="17" y="9" onmousedown="handleZoom(evt,'in')"/>
                <use id="zoomminus" xlink:href="#zoomMin" x="42" y="9" onmousedown="handleZoom(evt,'out')"/>
                <use id="reset" xlink:href="#resetDef" x="30" y="36" onmousedown="handleReset()"/>
                <g id="arrowUp" xlink:href="#dirArrow" transform="translate(30 24)" onmousedown="handlePan(0,-1)">
                  <use xlink:href="#rim" fill="#404040">
                        <set attributeName="fill" to="#808080" begin="arrowUp.mouseover" end="arrowUp.mouseout"/>
                  </use>
                  <path fill="none" stroke="white" stroke-width="1.5" d="M0,-3.0v7 M-2.5,-0.5L0,-3.0L2.5,-0.5"/>
                </g>
                <g id="arrowRight" xlink:href="#dirArrow" transform="rotate(90) translate(36 -43)" onmousedown="handlePan(1,0)">
                  <use xlink:href="#rim" fill="#404040">
                        <set attributeName="fill" to="#808080" begin="arrowRight.mouseover" end="arrowRight.mouseout"/>
                  </use>
                  <path fill="none" stroke="white" stroke-width="1.5" d="M0,-3.0v7 M-2.5,-0.5L0,-3.0L2.5,-0.5"/>
                </g>
                <g id="arrowDown" xlink:href="#dirArrow" transform="rotate(180) translate(-30 -48)" onmousedown="handlePan(0,1)">
                  <use xlink:href="#rim" fill="#404040">
                        <set attributeName="fill" to="#808080" begin="arrowDown.mouseover" end="arrowDown.mouseout"/>
                  </use>
                  <path fill="none" stroke="white" stroke-width="1.5" d="M0,-3.0v7 M-2.5,-0.5L0,-3.0L2.5,-0.5"/>
                </g>
                <g id="arrowLeft" xlink:href="#dirArrow" transform="rotate(270) translate(-36 17)" onmousedown="handlePan(-1,0)">
                  <use xlink:href="#rim" fill="#404040">
                        <set attributeName="fill" to="#808080" begin="arrowLeft.mouseover" end="arrowLeft.mouseout"/>
                  </use>
                  <path fill="none" stroke="white" stroke-width="1.5" d="M0,-3.0v7 M-2.5,-0.5L0,-3.0L2.5,-0.5"/>
                </g>
        </g>
        <svg viewBox="0 0 15 15" width="100%" height="30px" preserveAspectRatio="xMaxYMin meet">
         <g id="arrow_out" transform="scale(0.3 0.3)">
          <a xlink:href="comforce_8cpp__incl_org.svg" target="_base">
           <rect id="button" ry="5" rx="5" y="6" x="6" height="38" width="38"
                fill="#f2f5e9" fill-opacity="0.5" stroke="#606060" stroke-width="1.0"/>
           <path id="arrow"
             d="M 11.500037,31.436501 C 11.940474,20.09759 22.043105,11.32322 32.158766,21.979434 L 37.068811,17.246167 C 37.068811,17.246167 37.088388,32 37.088388,32 L 22.160133,31.978069 C 22.160133,31.978069 26.997745,27.140456 26.997745,27.140456 C 18.528582,18.264221 13.291696,25.230495 11.500037,31.436501 z"
             style="fill:#404040;"/>
          </a>
         </g>
        </svg>
</svg>
