<?xml version="1.0" encoding="UTF-8" standalone="no"?>
<!DOCTYPE svg PUBLIC "-//W3C//DTD SVG 1.1//EN"
 "http://www.w3.org/Graphics/SVG/1.1/DTD/svg11.dtd">
<!-- Generated by graphviz version 2.38.0 (20140413.2041)
 -->
<!-- Title: comforce.hpp Pages: 1 -->
<svg width="2094pt" height="207pt"
 viewBox="0.00 0.00 2093.50 207.00" xmlns="http://www.w3.org/2000/svg" xmlns:xlink="http://www.w3.org/1999/xlink">
<g id="graph0" class="graph" transform="scale(1 1) rotate(0) translate(4 203)">
<title>comforce.hpp</title>
<!-- Node1 -->
<g id="node1" class="node"><title>Node1</title>
<polygon fill="#bfbfbf" stroke="black" points="755.5,-179.5 755.5,-198.5 838.5,-198.5 838.5,-179.5 755.5,-179.5"/>
<text text-anchor="middle" x="797" y="-186.5" font-family="Helvetica,sans-Serif" font-size="10.00">comforce.hpp</text>
</g>
<!-- Node2 -->
<g id="node2" class="node"><title>Node2</title>
<g id="a_node2"><a xlink:href="comforce_8cpp.html" target="_top" xlink:title="Implementation of comforce.hpp. ">
<polygon fill="none" stroke="black" points="582.5,-123.5 582.5,-142.5 665.5,-142.5 665.5,-123.5 582.5,-123.5"/>
<text text-anchor="middle" x="624" y="-130.5" font-family="Helvetica,sans-Serif" font-size="10.00">comforce.cpp</text>
</a>
</g>
</g>
<!-- Node1&#45;&gt;Node2 -->
<g id="edge1" class="edge"><title>Node1&#45;&gt;Node2</title>
<path fill="none" stroke="midnightblue" d="M759.953,-176.436C727.336,-166.255 680.59,-151.664 651.284,-142.516"/>
<polygon fill="midnightblue" stroke="midnightblue" points="758.999,-179.805 769.588,-179.444 761.085,-173.123 758.999,-179.805"/>
</g>
<!-- Node3 -->
<g id="node3" class="node"><title>Node3</title>
<g id="a_node3"><a xlink:href="forces__inline_8hpp.html" target="_top" xlink:title="forces_inline.hpp">
<polygon fill="none" stroke="black" points="801,-123.5 801,-142.5 901,-142.5 901,-123.5 801,-123.5"/>
<text text-anchor="middle" x="851" y="-130.5" font-family="Helvetica,sans-Serif" font-size="10.00">forces_inline.hpp</text>
</a>
</g>
</g>
<!-- Node1&#45;&gt;Node3 -->
<g id="edge2" class="edge"><title>Node1&#45;&gt;Node3</title>
<path fill="none" stroke="midnightblue" d="M812.998,-172.002C822.567,-162.433 834.361,-150.639 842.249,-142.751"/>
<polygon fill="midnightblue" stroke="midnightblue" points="810.513,-169.537 805.917,-179.083 815.463,-174.487 810.513,-169.537"/>
</g>
<!-- Node11 -->
<g id="node11" class="node"><title>Node11</title>
<g id="a_node11"><a xlink:href="interaction__data_8cpp.html" target="_top" xlink:title="Implementation of interaction_data.hpp. ">
<polygon fill="none" stroke="black" points="0,-6 0,-25 116,-25 116,-6 0,-6"/>
<text text-anchor="middle" x="58" y="-13" font-family="Helvetica,sans-Serif" font-size="10.00">interaction_data.cpp</text>
</a>
</g>
</g>
<!-- Node1&#45;&gt;Node11 -->
<g id="edge29" class="edge"><title>Node1&#45;&gt;Node11</title>
<path fill="none" stroke="midnightblue" d="M775.582,-173.812C751.951,-158.837 712.311,-135.681 675,-123 440.343,-43.2437 368.407,-77.6693 125,-31 115.532,-29.1848 105.349,-27.0666 95.8494,-25.0189"/>
<polygon fill="midnightblue" stroke="midnightblue" points="773.801,-176.828 784.103,-179.3 777.591,-170.943 773.801,-176.828"/>
</g>
<!-- Node27 -->
<g id="node27" class="node"><title>Node27</title>
<g id="a_node27"><a xlink:href="comforce__tcl_8cpp.html" target="_top" xlink:title="Implementation of comforce_tcl.hpp. ">
<polygon fill="none" stroke="black" points="919,-123.5 919,-142.5 1019,-142.5 1019,-123.5 919,-123.5"/>
<text text-anchor="middle" x="969" y="-130.5" font-family="Helvetica,sans-Serif" font-size="10.00">comforce_tcl.cpp</text>
</a>
</g>
</g>
<!-- Node1&#45;&gt;Node27 -->
<g id="edge30" class="edge"><title>Node1&#45;&gt;Node27</title>
<path fill="none" stroke="midnightblue" d="M833.832,-176.436C866.262,-166.255 912.737,-151.664 941.874,-142.516"/>
<polygon fill="midnightblue" stroke="midnightblue" points="832.746,-173.109 824.254,-179.444 834.843,-179.787 832.746,-173.109"/>
</g>
<!-- Node4 -->
<g id="node4" class="node"><title>Node4</title>
<g id="a_node4"><a xlink:href="pressure_8hpp.html" target="_top" xlink:title="Pressure calculation. ">
<polygon fill="none" stroke="black" points="760,-67.5 760,-86.5 840,-86.5 840,-67.5 760,-67.5"/>
<text text-anchor="middle" x="800" y="-74.5" font-family="Helvetica,sans-Serif" font-size="10.00">pressure.hpp</text>
</a>
</g>
</g>
<!-- Node3&#45;&gt;Node4 -->
<g id="edge3" class="edge"><title>Node3&#45;&gt;Node4</title>
<path fill="none" stroke="midnightblue" d="M835.622,-115.718C826.633,-106.2 815.641,-94.5608 808.265,-86.7511"/>
<polygon fill="midnightblue" stroke="midnightblue" points="833.168,-118.216 842.578,-123.083 838.257,-113.41 833.168,-118.216"/>
</g>
<!-- Node12 -->
<g id="node12" class="node"><title>Node12</title>
<g id="a_node12"><a xlink:href="layered_8cpp.html" target="_top" xlink:title="Implementation of layered.h. ">
<polygon fill="none" stroke="black" points="134,-6 134,-25 208,-25 208,-6 134,-6"/>
<text text-anchor="middle" x="171" y="-13" font-family="Helvetica,sans-Serif" font-size="10.00">layered.cpp</text>
</a>
</g>
</g>
<!-- Node3&#45;&gt;Node12 -->
<g id="edge28" class="edge"><title>Node3&#45;&gt;Node12</title>
<path fill="none" stroke="midnightblue" d="M822.603,-119.335C802.563,-110.369 775.101,-98.0273 751,-87 731.834,-78.2307 728.399,-72.3017 708,-67 496.227,-11.961 431.9,-72.1678 217,-31 209.598,-29.5821 201.716,-27.369 194.605,-25.0951"/>
<polygon fill="midnightblue" stroke="midnightblue" points="821.239,-122.559 831.797,-123.444 824.096,-116.168 821.239,-122.559"/>
</g>
<!-- Node21 -->
<g id="node21" class="node"><title>Node21</title>
<g id="a_node21"><a xlink:href="minimize__energy_8hpp.html" target="_top" xlink:title="minimize_energy.hpp">
<polygon fill="none" stroke="black" points="1688.5,-67.5 1688.5,-86.5 1809.5,-86.5 1809.5,-67.5 1688.5,-67.5"/>
<text text-anchor="middle" x="1749" y="-74.5" font-family="Helvetica,sans-Serif" font-size="10.00">minimize_energy.hpp</text>
</a>
</g>
</g>
<!-- Node3&#45;&gt;Node21 -->
<g id="edge20" class="edge"><title>Node3&#45;&gt;Node21</title>
<path fill="none" stroke="midnightblue" d="M911.275,-122.973C1208.39,-92.8791 1551.48,-82.4141 1688.3,-79.2214"/>
<polygon fill="midnightblue" stroke="midnightblue" points="910.762,-119.507 901.169,-124.006 911.473,-126.471 910.762,-119.507"/>
</g>
<!-- Node24 -->
<g id="node24" class="node"><title>Node24</title>
<g id="a_node24"><a xlink:href="constraint_8cpp.html" target="_top" xlink:title="Implementation of constraint.hpp, here it&#39;s just the parsing stuff. ">
<polygon fill="none" stroke="black" points="858,-67.5 858,-86.5 944,-86.5 944,-67.5 858,-67.5"/>
<text text-anchor="middle" x="901" y="-74.5" font-family="Helvetica,sans-Serif" font-size="10.00">constraint.cpp</text>
</a>
</g>
</g>
<!-- Node3&#45;&gt;Node24 -->
<g id="edge25" class="edge"><title>Node3&#45;&gt;Node24</title>
<path fill="none" stroke="midnightblue" d="M866.076,-115.718C874.889,-106.2 885.666,-94.5608 892.897,-86.7511"/>
<polygon fill="midnightblue" stroke="midnightblue" points="863.482,-113.367 859.256,-123.083 868.619,-118.123 863.482,-113.367"/>
</g>
<!-- Node25 -->
<g id="node25" class="node"><title>Node25</title>
<g id="a_node25"><a xlink:href="forces_8cpp.html" target="_top" xlink:title="Force calculation. ">
<polygon fill="none" stroke="black" points="962.5,-67.5 962.5,-86.5 1029.5,-86.5 1029.5,-67.5 962.5,-67.5"/>
<text text-anchor="middle" x="996" y="-74.5" font-family="Helvetica,sans-Serif" font-size="10.00">forces.cpp</text>
</a>
</g>
</g>
<!-- Node3&#45;&gt;Node25 -->
<g id="edge26" class="edge"><title>Node3&#45;&gt;Node25</title>
<path fill="none" stroke="midnightblue" d="M883.475,-119.906C910.736,-109.754 948.992,-95.5063 973.132,-86.5164"/>
<polygon fill="midnightblue" stroke="midnightblue" points="882.125,-116.674 873.976,-123.444 884.568,-123.233 882.125,-116.674"/>
</g>
<!-- Node26 -->
<g id="node26" class="node"><title>Node26</title>
<g id="a_node26"><a xlink:href="ghosts_8cpp.html" target="_top" xlink:title="Ghost particles and particle exchange. ">
<polygon fill="none" stroke="black" points="1047.5,-67.5 1047.5,-86.5 1116.5,-86.5 1116.5,-67.5 1047.5,-67.5"/>
<text text-anchor="middle" x="1082" y="-74.5" font-family="Helvetica,sans-Serif" font-size="10.00">ghosts.cpp</text>
</a>
</g>
</g>
<!-- Node3&#45;&gt;Node26 -->
<g id="edge27" class="edge"><title>Node3&#45;&gt;Node26</title>
<path fill="none" stroke="midnightblue" d="M897.552,-121.118C941.888,-110.754 1007.6,-95.3914 1047.46,-86.0755"/>
<polygon fill="midnightblue" stroke="midnightblue" points="896.543,-117.759 887.603,-123.444 898.137,-124.575 896.543,-117.759"/>
</g>
<!-- Node5 -->
<g id="node5" class="node"><title>Node5</title>
<g id="a_node5"><a xlink:href="communication_8cpp.html" target="_top" xlink:title="communication.cpp">
<polygon fill="none" stroke="black" points="1577.5,-6 1577.5,-25 1690.5,-25 1690.5,-6 1577.5,-6"/>
<text text-anchor="middle" x="1634" y="-13" font-family="Helvetica,sans-Serif" font-size="10.00">communication.cpp</text>
</a>
</g>
</g>
<!-- Node4&#45;&gt;Node5 -->
<g id="edge4" class="edge"><title>Node4&#45;&gt;Node5</title>
<path fill="none" stroke="midnightblue" d="M850.036,-67.0507C1169.01,-30.8737 1254.76,-73.5928 1569,-31 1579.43,-29.5868 1590.65,-27.3461 1600.79,-25.0448"/>
<polygon fill="midnightblue" stroke="midnightblue" points="849.581,-63.5799 840.047,-68.2007 850.381,-70.534 849.581,-63.5799"/>
</g>
<!-- Node6 -->
<g id="node6" class="node"><title>Node6</title>
<g id="a_node6"><a xlink:href="domain__decomposition_8cpp.html" target="_top" xlink:title="This file contains everything related to the cell system: domain decomposition. ">
<polygon fill="none" stroke="black" points="1339.5,-6 1339.5,-25 1490.5,-25 1490.5,-6 1339.5,-6"/>
<text text-anchor="middle" x="1415" y="-13" font-family="Helvetica,sans-Serif" font-size="10.00">domain_decomposition.cpp</text>
</a>
</g>
</g>
<!-- Node4&#45;&gt;Node6 -->
<g id="edge5" class="edge"><title>Node4&#45;&gt;Node6</title>
<path fill="none" stroke="midnightblue" d="M850.005,-67.011C1063.34,-40.1157 1120.43,-56.6592 1330,-31 1342.93,-29.4172 1356.89,-27.2355 1369.68,-25.0448"/>
<polygon fill="midnightblue" stroke="midnightblue" points="849.532,-63.5428 840.057,-68.2821 850.42,-70.4863 849.532,-63.5428"/>
</g>
<!-- Node7 -->
<g id="node7" class="node"><title>Node7</title>
<g id="a_node7"><a xlink:href="elc_8cpp.html" target="_top" xlink:title="For more information about ELC, see elc.hpp. ">
<polygon fill="none" stroke="black" points="1508.5,-6 1508.5,-25 1559.5,-25 1559.5,-6 1508.5,-6"/>
<text text-anchor="middle" x="1534" y="-13" font-family="Helvetica,sans-Serif" font-size="10.00">elc.cpp</text>
</a>
</g>
</g>
<!-- Node4&#45;&gt;Node7 -->
<g id="edge6" class="edge"><title>Node4&#45;&gt;Node7</title>
<path fill="none" stroke="midnightblue" d="M850.391,-67.0121C1138.67,-34.2413 1221.11,-96.0593 1500,-31 1505.75,-29.6588 1511.76,-27.4089 1517.1,-25.0766"/>
<polygon fill="midnightblue" stroke="midnightblue" points="849.576,-63.5833 840.049,-68.2181 850.387,-70.5362 849.576,-63.5833"/>
</g>
<!-- Node8 -->
<g id="node8" class="node"><title>Node8</title>
<g id="a_node8"><a xlink:href="initialize_8cpp.html" target="_top" xlink:title="Implementation of initialize.hpp. ">
<polygon fill="none" stroke="black" points="226.5,-6 226.5,-25 305.5,-25 305.5,-6 226.5,-6"/>
<text text-anchor="middle" x="266" y="-13" font-family="Helvetica,sans-Serif" font-size="10.00">initialize.cpp</text>
</a>
</g>
</g>
<!-- Node4&#45;&gt;Node8 -->
<g id="edge7" class="edge"><title>Node4&#45;&gt;Node8</title>
<path fill="none" stroke="midnightblue" d="M749.862,-67.5001C748.562,-67.326 747.273,-67.1589 746,-67 554.817,-43.1429 503.262,-67.0562 314,-31 306.304,-29.5338 298.086,-27.3063 290.665,-25.0342"/>
<polygon fill="midnightblue" stroke="midnightblue" points="749.553,-70.9916 759.949,-68.9493 750.548,-64.0627 749.553,-70.9916"/>
</g>
<!-- Node9 -->
<g id="node9" class="node"><title>Node9</title>
<g id="a_node9"><a xlink:href="core_2integrate_8cpp.html" target="_top" xlink:title="integrate.cpp">
<polygon fill="none" stroke="black" points="1708.5,-6 1708.5,-25 1789.5,-25 1789.5,-6 1708.5,-6"/>
<text text-anchor="middle" x="1749" y="-13" font-family="Helvetica,sans-Serif" font-size="10.00">integrate.cpp</text>
</a>
</g>
</g>
<!-- Node4&#45;&gt;Node9 -->
<g id="edge8" class="edge"><title>Node4&#45;&gt;Node9</title>
<path fill="none" stroke="midnightblue" d="M850.134,-67.0549C1226.99,-25.8971 1329.86,-92.6303 1700,-31 1708.14,-29.6449 1716.83,-27.3607 1724.6,-25.0014"/>
<polygon fill="midnightblue" stroke="midnightblue" points="849.596,-63.593 840.044,-68.1754 850.369,-70.5502 849.596,-63.593"/>
</g>
<!-- Node10 -->
<g id="node10" class="node"><title>Node10</title>
<g id="a_node10"><a xlink:href="integrate__sd_8cpp.html" target="_top" xlink:title="Stokesian dynamics integrator. ">
<polygon fill="none" stroke="black" points="323,-6 323,-25 421,-25 421,-6 323,-6"/>
<text text-anchor="middle" x="372" y="-13" font-family="Helvetica,sans-Serif" font-size="10.00">integrate_sd.cpp</text>
</a>
</g>
</g>
<!-- Node4&#45;&gt;Node10 -->
<g id="edge9" class="edge"><title>Node4&#45;&gt;Node10</title>
<path fill="none" stroke="midnightblue" d="M749.855,-67.552C748.557,-67.3625 747.271,-67.1781 746,-67 606.016,-47.3743 569.089,-56.196 430,-31 421.115,-29.3904 411.57,-27.2002 402.84,-25.0099"/>
<polygon fill="midnightblue" stroke="midnightblue" points="749.518,-71.0409 759.931,-69.085 750.571,-64.1206 749.518,-71.0409"/>
</g>
<!-- Node4&#45;&gt;Node11 -->
<g id="edge10" class="edge"><title>Node4&#45;&gt;Node11</title>
<path fill="none" stroke="midnightblue" d="M749.639,-70.7446C736.125,-69.4242 721.513,-68.0778 708,-67 449.217,-46.359 382.158,-66.5578 125,-31 114.39,-29.5329 102.959,-27.3052 92.5959,-25.0331"/>
<polygon fill="midnightblue" stroke="midnightblue" points="749.427,-74.2406 759.723,-71.7444 750.117,-67.2748 749.427,-74.2406"/>
</g>
<!-- Node4&#45;&gt;Node12 -->
<g id="edge11" class="edge"><title>Node4&#45;&gt;Node12</title>
<path fill="none" stroke="midnightblue" d="M749.865,-67.4741C748.565,-67.3077 747.274,-67.1492 746,-67 511.944,-39.5969 448.562,-74.7308 217,-31 209.595,-29.6015 201.711,-27.3942 194.6,-25.1196"/>
<polygon fill="midnightblue" stroke="midnightblue" points="749.57,-70.9666 759.957,-68.8812 750.536,-64.0337 749.57,-70.9666"/>
</g>
<!-- Node13 -->
<g id="node13" class="node"><title>Node13</title>
<g id="a_node13"><a xlink:href="nsquare_8cpp.html" target="_top" xlink:title="Implementation of nsquare.h. ">
<polygon fill="none" stroke="black" points="439,-6 439,-25 515,-25 515,-6 439,-6"/>
<text text-anchor="middle" x="477" y="-13" font-family="Helvetica,sans-Serif" font-size="10.00">nsquare.cpp</text>
</a>
</g>
</g>
<!-- Node4&#45;&gt;Node13 -->
<g id="edge12" class="edge"><title>Node4&#45;&gt;Node13</title>
<path fill="none" stroke="midnightblue" d="M749.843,-67.634C748.549,-67.4203 747.266,-67.2086 746,-67 647.807,-50.8197 621.954,-53.4378 525,-31 517.791,-29.3317 510.078,-27.1727 502.989,-25.0327"/>
<polygon fill="midnightblue" stroke="midnightblue" points="749.461,-71.1184 759.898,-69.2996 750.605,-64.2124 749.461,-71.1184"/>
</g>
<!-- Node14 -->
<g id="node14" class="node"><title>Node14</title>
<g id="a_node14"><a xlink:href="pressure_8cpp.html" target="_top" xlink:title="Implementation of pressure.h. ">
<polygon fill="none" stroke="black" points="533.5,-6 533.5,-25 612.5,-25 612.5,-6 533.5,-6"/>
<text text-anchor="middle" x="573" y="-13" font-family="Helvetica,sans-Serif" font-size="10.00">pressure.cpp</text>
</a>
</g>
</g>
<!-- Node4&#45;&gt;Node14 -->
<g id="edge13" class="edge"><title>Node4&#45;&gt;Node14</title>
<path fill="none" stroke="midnightblue" d="M754.694,-65.0775C718.641,-56.2581 666.957,-43.3293 622,-31 615.241,-29.1464 607.987,-27.056 601.188,-25.0514"/>
<polygon fill="midnightblue" stroke="midnightblue" points="753.885,-68.4827 764.429,-67.4522 755.543,-61.6821 753.885,-68.4827"/>
</g>
<!-- Node15 -->
<g id="node15" class="node"><title>Node15</title>
<g id="a_node15"><a xlink:href="statistics_8cpp.html" target="_top" xlink:title="This is the place for analysis (so far...). ">
<polygon fill="none" stroke="black" points="630.5,-6 630.5,-25 711.5,-25 711.5,-6 630.5,-6"/>
<text text-anchor="middle" x="671" y="-13" font-family="Helvetica,sans-Serif" font-size="10.00">statistics.cpp</text>
</a>
</g>
</g>
<!-- Node4&#45;&gt;Node15 -->
<g id="edge14" class="edge"><title>Node4&#45;&gt;Node15</title>
<path fill="none" stroke="midnightblue" d="M772.193,-63.1742C747.161,-51.6287 711.082,-34.9875 689.448,-25.0091"/>
<polygon fill="midnightblue" stroke="midnightblue" points="770.971,-66.4649 781.517,-67.4751 773.903,-60.1085 770.971,-66.4649"/>
</g>
<!-- Node16 -->
<g id="node16" class="node"><title>Node16</title>
<g id="a_node16"><a xlink:href="statistics__observable_8cpp.html" target="_top" xlink:title="statistics_observable.cpp">
<polygon fill="none" stroke="black" points="730,-6 730,-25 870,-25 870,-6 730,-6"/>
<text text-anchor="middle" x="800" y="-13" font-family="Helvetica,sans-Serif" font-size="10.00">statistics_observable.cpp</text>
</a>
</g>
</g>
<!-- Node4&#45;&gt;Node16 -->
<g id="edge15" class="edge"><title>Node4&#45;&gt;Node16</title>
<path fill="none" stroke="midnightblue" d="M800,-57.3165C800,-46.4962 800,-33.398 800,-25.0091"/>
<polygon fill="midnightblue" stroke="midnightblue" points="796.5,-57.4751 800,-67.4751 803.5,-57.4751 796.5,-57.4751"/>
</g>
<!-- Node17 -->
<g id="node17" class="node"><title>Node17</title>
<g id="a_node17"><a xlink:href="verlet_8cpp.html" target="_top" xlink:title="Verlet list. ">
<polygon fill="none" stroke="black" points="888.5,-6 888.5,-25 953.5,-25 953.5,-6 888.5,-6"/>
<text text-anchor="middle" x="921" y="-13" font-family="Helvetica,sans-Serif" font-size="10.00">verlet.cpp</text>
</a>
</g>
</g>
<!-- Node4&#45;&gt;Node17 -->
<g id="edge16" class="edge"><title>Node4&#45;&gt;Node17</title>
<path fill="none" stroke="midnightblue" d="M826.395,-63.0207C849.861,-51.4816 883.493,-34.9433 903.696,-25.0091"/>
<polygon fill="midnightblue" stroke="midnightblue" points="824.766,-59.9215 817.336,-67.4751 827.855,-66.2032 824.766,-59.9215"/>
</g>
<!-- Node18 -->
<g id="node18" class="node"><title>Node18</title>
<g id="a_node18"><a xlink:href="virtual__sites_8cpp.html" target="_top" xlink:title="virtual_sites.cpp">
<polygon fill="none" stroke="black" points="971.5,-6 971.5,-25 1068.5,-25 1068.5,-6 971.5,-6"/>
<text text-anchor="middle" x="1020" y="-13" font-family="Helvetica,sans-Serif" font-size="10.00">virtual_sites.cpp</text>
</a>
</g>
</g>
<!-- Node4&#45;&gt;Node18 -->
<g id="edge17" class="edge"><title>Node4&#45;&gt;Node18</title>
<path fill="none" stroke="midnightblue" d="M841.329,-64.8225C884.064,-53.2645 949.847,-35.4732 988.538,-25.0091"/>
<polygon fill="midnightblue" stroke="midnightblue" points="840.26,-61.4857 831.521,-67.4751 842.088,-68.2429 840.26,-61.4857"/>
</g>
<!-- Node19 -->
<g id="node19" class="node"><title>Node19</title>
<g id="a_node19"><a xlink:href="pressure__tcl_8cpp.html" target="_top" xlink:title="pressure_tcl.cpp">
<polygon fill="none" stroke="black" points="1087,-6 1087,-25 1183,-25 1183,-6 1087,-6"/>
<text text-anchor="middle" x="1135" y="-13" font-family="Helvetica,sans-Serif" font-size="10.00">pressure_tcl.cpp</text>
</a>
</g>
</g>
<!-- Node4&#45;&gt;Node19 -->
<g id="edge18" class="edge"><title>Node4&#45;&gt;Node19</title>
<path fill="none" stroke="midnightblue" d="M850.212,-66.8407C952.293,-49.7972 980.232,-51.0748 1078,-31 1086.4,-29.2748 1095.43,-27.1206 1103.76,-25.0047"/>
<polygon fill="midnightblue" stroke="midnightblue" points="849.374,-63.4325 840.096,-68.5486 850.54,-70.3348 849.374,-63.4325"/>
</g>
<!-- Node20 -->
<g id="node20" class="node"><title>Node20</title>
<g id="a_node20"><a xlink:href="statistics__observable__tcl_8cpp.html" target="_top" xlink:title="statistics_observable\l_tcl.cpp">
<polygon fill="none" stroke="black" points="1201,-0.5 1201,-30.5 1321,-30.5 1321,-0.5 1201,-0.5"/>
<text text-anchor="start" x="1209" y="-18.5" font-family="Helvetica,sans-Serif" font-size="10.00">statistics_observable</text>
<text text-anchor="middle" x="1261" y="-7.5" font-family="Helvetica,sans-Serif" font-size="10.00">_tcl.cpp</text>
</a>
</g>
</g>
<!-- Node4&#45;&gt;Node20 -->
<g id="edge19" class="edge"><title>Node4&#45;&gt;Node20</title>
<path fill="none" stroke="midnightblue" d="M850.259,-66.9272C1002.48,-45.5379 1043.83,-54.2815 1192,-31 1194.9,-30.544 1197.87,-30.046 1200.86,-29.518"/>
<polygon fill="midnightblue" stroke="midnightblue" points="849.476,-63.5034 840.07,-68.3803 850.464,-70.4333 849.476,-63.5034"/>
</g>
<!-- Node21&#45;&gt;Node5 -->
<g id="edge21" class="edge"><title>Node21&#45;&gt;Node5</title>
<path fill="none" stroke="midnightblue" d="M1723.62,-62.8665C1701.33,-51.3347 1669.56,-34.8992 1650.45,-25.0091"/>
<polygon fill="midnightblue" stroke="midnightblue" points="1722.03,-65.9883 1732.52,-67.4751 1725.25,-59.7712 1722.03,-65.9883"/>
</g>
<!-- Node21&#45;&gt;Node9 -->
<g id="edge22" class="edge"><title>Node21&#45;&gt;Node9</title>
<path fill="none" stroke="midnightblue" d="M1749,-57.3165C1749,-46.4962 1749,-33.398 1749,-25.0091"/>
<polygon fill="midnightblue" stroke="midnightblue" points="1745.5,-57.4751 1749,-67.4751 1752.5,-57.4751 1745.5,-57.4751"/>
</g>
<!-- Node22 -->
<g id="node22" class="node"><title>Node22</title>
<g id="a_node22"><a xlink:href="minimize__energy_8cpp.html" target="_top" xlink:title="minimize_energy.cpp">
<polygon fill="none" stroke="black" points="1808,-6 1808,-25 1928,-25 1928,-6 1808,-6"/>
<text text-anchor="middle" x="1868" y="-13" font-family="Helvetica,sans-Serif" font-size="10.00">minimize_energy.cpp</text>
</a>
</g>
</g>
<!-- Node21&#45;&gt;Node22 -->
<g id="edge23" class="edge"><title>Node21&#45;&gt;Node22</title>
<path fill="none" stroke="midnightblue" d="M1775.27,-62.8665C1798.33,-51.3347 1831.2,-34.8992 1850.98,-25.0091"/>
<polygon fill="midnightblue" stroke="midnightblue" points="1773.43,-59.8724 1766.05,-67.4751 1776.56,-66.1334 1773.43,-59.8724"/>
</g>
<!-- Node23 -->
<g id="node23" class="node"><title>Node23</title>
<g id="a_node23"><a xlink:href="minimize__energy__tcl_8cpp.html" target="_top" xlink:title="minimize_energy_tcl.cpp">
<polygon fill="none" stroke="black" points="1946.5,-6 1946.5,-25 2085.5,-25 2085.5,-6 1946.5,-6"/>
<text text-anchor="middle" x="2016" y="-13" font-family="Helvetica,sans-Serif" font-size="10.00">minimize_energy_tcl.cpp</text>
</a>
</g>
</g>
<!-- Node21&#45;&gt;Node23 -->
<g id="edge24" class="edge"><title>Node21&#45;&gt;Node23</title>
<path fill="none" stroke="midnightblue" d="M1797.2,-65.2584C1849,-53.716 1930.27,-35.6056 1977.82,-25.0091"/>
<polygon fill="midnightblue" stroke="midnightblue" points="1796.25,-61.8837 1787.25,-67.4751 1797.78,-68.7161 1796.25,-61.8837"/>
</g>
</g>
</svg>
