<?xml version="1.0" encoding="UTF-8" standalone="no"?>
<!DOCTYPE svg PUBLIC "-//W3C//DTD SVG 1.1//EN"
 "http://www.w3.org/Graphics/SVG/1.1/DTD/svg11.dtd">
<!-- Generated by graphviz version 2.38.0 (20140413.2041)
 -->
<!-- Title: comforce.hpp Pages: 1 -->
<svg width="838pt" height="476pt"
 viewBox="0.00 0.00 837.50 476.00" xmlns="http://www.w3.org/2000/svg" xmlns:xlink="http://www.w3.org/1999/xlink">
<g id="graph0" class="graph" transform="scale(1 1) rotate(0) translate(4 472)">
<title>comforce.hpp</title>
<!-- Node1 -->
<g id="node1" class="node"><title>Node1</title>
<polygon fill="#bfbfbf" stroke="black" points="88,-448.5 88,-467.5 171,-467.5 171,-448.5 88,-448.5"/>
<text text-anchor="middle" x="129.5" y="-455.5" font-family="Helvetica,sans-Serif" font-size="10.00">comforce.hpp</text>
</g>
<!-- Node2 -->
<g id="node2" class="node"><title>Node2</title>
<g id="a_node2"><a xlink:href="utils_8hpp.html" target="_top" xlink:title="Small functions that are useful not only for one modul. ">
<polygon fill="none" stroke="black" points="312,-168.5 312,-187.5 371,-187.5 371,-168.5 312,-168.5"/>
<text text-anchor="middle" x="341.5" y="-175.5" font-family="Helvetica,sans-Serif" font-size="10.00">utils.hpp</text>
</a>
</g>
</g>
<!-- Node1&#45;&gt;Node2 -->
<g id="edge1" class="edge"><title>Node1&#45;&gt;Node2</title>
<path fill="none" stroke="midnightblue" d="M124.216,-448.231C113.775,-430.043 91.5,-386.601 91.5,-347 91.5,-347 91.5,-347 91.5,-289 91.5,-198.343 230.934,-181.743 301.539,-179.149"/>
<polygon fill="midnightblue" stroke="midnightblue" points="301.945,-182.639 311.84,-178.852 301.743,-175.642 301.945,-182.639"/>
</g>
<!-- Node19 -->
<g id="node19" class="node"><title>Node19</title>
<g id="a_node19"><a xlink:href="particle__data_8hpp.html" target="_top" xlink:title="For more information on particle_data, see particle_data.c. ">
<polygon fill="none" stroke="black" points="174,-224.5 174,-243.5 275,-243.5 275,-224.5 174,-224.5"/>
<text text-anchor="middle" x="224.5" y="-231.5" font-family="Helvetica,sans-Serif" font-size="10.00">particle_data.hpp</text>
</a>
</g>
</g>
<!-- Node1&#45;&gt;Node19 -->
<g id="edge21" class="edge"><title>Node1&#45;&gt;Node19</title>
<path fill="none" stroke="midnightblue" d="M130.389,-448.286C133.439,-421.459 145.257,-338.396 179.5,-280 186.09,-268.763 196.155,-258.331 205.096,-250.346"/>
<polygon fill="midnightblue" stroke="midnightblue" points="207.506,-252.891 212.86,-243.749 202.974,-247.557 207.506,-252.891"/>
</g>
<!-- Node20 -->
<g id="node20" class="node"><title>Node20</title>
<g id="a_node20"><a xlink:href="statistics_8hpp.html" target="_top" xlink:title="This file contains the code for statistics on the data. ">
<polygon fill="none" stroke="black" points="336.5,-392.5 336.5,-411.5 418.5,-411.5 418.5,-392.5 336.5,-392.5"/>
<text text-anchor="middle" x="377.5" y="-399.5" font-family="Helvetica,sans-Serif" font-size="10.00">statistics.hpp</text>
</a>
</g>
</g>
<!-- Node1&#45;&gt;Node20 -->
<g id="edge23" class="edge"><title>Node1&#45;&gt;Node20</title>
<path fill="none" stroke="midnightblue" d="M168.796,-448.444C212.059,-439.023 281.673,-423.866 328.473,-413.675"/>
<polygon fill="midnightblue" stroke="midnightblue" points="329.361,-417.064 338.388,-411.516 327.872,-410.224 329.361,-417.064"/>
</g>
<!-- Node3 -->
<g id="node3" class="node"><title>Node3</title>
<polygon fill="none" stroke="#bfbfbf" points="83,-112.5 83,-131.5 130,-131.5 130,-112.5 83,-112.5"/>
<text text-anchor="middle" x="106.5" y="-119.5" font-family="Helvetica,sans-Serif" font-size="10.00">cmath</text>
</g>
<!-- Node2&#45;&gt;Node3 -->
<g id="edge2" class="edge"><title>Node2&#45;&gt;Node3</title>
<path fill="none" stroke="midnightblue" d="M311.959,-170.874C274.366,-162.98 207.21,-148.547 140.148,-132.069"/>
<polygon fill="midnightblue" stroke="midnightblue" points="140.806,-128.626 130.258,-129.623 139.126,-135.421 140.806,-128.626"/>
</g>
<!-- Node4 -->
<g id="node4" class="node"><title>Node4</title>
<polygon fill="none" stroke="#bfbfbf" points="148.5,-112.5 148.5,-131.5 194.5,-131.5 194.5,-112.5 148.5,-112.5"/>
<text text-anchor="middle" x="171.5" y="-119.5" font-family="Helvetica,sans-Serif" font-size="10.00">cstdio</text>
</g>
<!-- Node2&#45;&gt;Node4 -->
<g id="edge3" class="edge"><title>Node2&#45;&gt;Node4</title>
<path fill="none" stroke="midnightblue" d="M314.563,-168.444C284.741,-158.971 236.654,-143.696 204.571,-133.505"/>
<polygon fill="midnightblue" stroke="midnightblue" points="205.35,-130.08 194.76,-130.388 203.231,-136.752 205.35,-130.08"/>
</g>
<!-- Node5 -->
<g id="node5" class="node"><title>Node5</title>
<polygon fill="none" stroke="#bfbfbf" points="213,-112.5 213,-131.5 262,-131.5 262,-112.5 213,-112.5"/>
<text text-anchor="middle" x="237.5" y="-119.5" font-family="Helvetica,sans-Serif" font-size="10.00">cstdlib</text>
</g>
<!-- Node2&#45;&gt;Node5 -->
<g id="edge4" class="edge"><title>Node2&#45;&gt;Node5</title>
<path fill="none" stroke="midnightblue" d="M324.791,-168.324C308.188,-159.703 282.498,-146.364 263.28,-136.386"/>
<polygon fill="midnightblue" stroke="midnightblue" points="264.656,-133.156 254.168,-131.655 261.43,-139.369 264.656,-133.156"/>
</g>
<!-- Node6 -->
<g id="node6" class="node"><title>Node6</title>
<polygon fill="none" stroke="#bfbfbf" points="280.5,-112.5 280.5,-131.5 330.5,-131.5 330.5,-112.5 280.5,-112.5"/>
<text text-anchor="middle" x="305.5" y="-119.5" font-family="Helvetica,sans-Serif" font-size="10.00">cstring</text>
</g>
<!-- Node2&#45;&gt;Node6 -->
<g id="edge5" class="edge"><title>Node2&#45;&gt;Node6</title>
<path fill="none" stroke="midnightblue" d="M335.555,-168.083C330.523,-160.534 323.163,-149.495 316.987,-140.23"/>
<polygon fill="midnightblue" stroke="midnightblue" points="319.793,-138.13 311.334,-131.751 313.969,-142.013 319.793,-138.13"/>
</g>
<!-- Node7 -->
<g id="node7" class="node"><title>Node7</title>
<g id="a_node7"><a xlink:href="config_8hpp.html" target="_top" xlink:title="This file contains the defaults for Espresso. ">
<polygon fill="none" stroke="black" points="491,-56.5 491,-75.5 558,-75.5 558,-56.5 491,-56.5"/>
<text text-anchor="middle" x="524.5" y="-63.5" font-family="Helvetica,sans-Serif" font-size="10.00">config.hpp</text>
</a>
</g>
</g>
<!-- Node2&#45;&gt;Node7 -->
<g id="edge6" class="edge"><title>Node2&#45;&gt;Node7</title>
<path fill="none" stroke="midnightblue" d="M343.922,-168.466C348.301,-154.574 358.859,-127.106 377.5,-112 406.935,-88.1464 448.925,-76.9103 480.496,-71.6331"/>
<polygon fill="midnightblue" stroke="midnightblue" points="481.414,-75.0335 490.77,-70.0623 480.356,-68.1139 481.414,-75.0335"/>
</g>
<!-- Node11 -->
<g id="node11" class="node"><title>Node11</title>
<g id="a_node11"><a xlink:href="debug_8hpp.html" target="_top" xlink:title="This file controls debug facilities. ">
<polygon fill="none" stroke="black" points="386.5,-112.5 386.5,-131.5 454.5,-131.5 454.5,-112.5 386.5,-112.5"/>
<text text-anchor="middle" x="420.5" y="-119.5" font-family="Helvetica,sans-Serif" font-size="10.00">debug.hpp</text>
</a>
</g>
</g>
<!-- Node2&#45;&gt;Node11 -->
<g id="edge10" class="edge"><title>Node2&#45;&gt;Node11</title>
<path fill="none" stroke="midnightblue" d="M354.193,-168.324C366.401,-159.979 385.078,-147.212 399.503,-137.352"/>
<polygon fill="midnightblue" stroke="midnightblue" points="401.558,-140.187 407.839,-131.655 397.608,-134.408 401.558,-140.187"/>
</g>
<!-- Node12 -->
<g id="node12" class="node"><title>Node12</title>
<g id="a_node12"><a xlink:href="lees__edwards_8hpp.html" target="_top" xlink:title="lees_edwards.hpp">
<polygon fill="none" stroke="black" points="472.5,-112.5 472.5,-131.5 576.5,-131.5 576.5,-112.5 472.5,-112.5"/>
<text text-anchor="middle" x="524.5" y="-119.5" font-family="Helvetica,sans-Serif" font-size="10.00">lees_edwards.hpp</text>
</a>
</g>
</g>
<!-- Node2&#45;&gt;Node12 -->
<g id="edge12" class="edge"><title>Node2&#45;&gt;Node12</title>
<path fill="none" stroke="midnightblue" d="M370.497,-168.444C401.685,-159.241 451.43,-144.562 485.908,-134.388"/>
<polygon fill="midnightblue" stroke="midnightblue" points="487.038,-137.704 495.639,-131.516 485.057,-130.99 487.038,-137.704"/>
</g>
<!-- Node13 -->
<g id="node13" class="node"><title>Node13</title>
<g id="a_node13"><a xlink:href="errorhandling_8hpp.html" target="_top" xlink:title="This file contains the errorhandling code for severe errors, like a broken bond or illegal parameter ...">
<polygon fill="none" stroke="black" points="633,-112.5 633,-131.5 736,-131.5 736,-112.5 633,-112.5"/>
<text text-anchor="middle" x="684.5" y="-119.5" font-family="Helvetica,sans-Serif" font-size="10.00">errorhandling.hpp</text>
</a>
</g>
</g>
<!-- Node2&#45;&gt;Node13 -->
<g id="edge14" class="edge"><title>Node2&#45;&gt;Node13</title>
<path fill="none" stroke="midnightblue" d="M371.041,-172.349C426.757,-163.578 548.425,-144.423 622.725,-132.725"/>
<polygon fill="midnightblue" stroke="midnightblue" points="623.549,-136.139 632.883,-131.126 622.461,-129.224 623.549,-136.139"/>
</g>
<!-- Node17 -->
<g id="node17" class="node"><title>Node17</title>
<polygon fill="none" stroke="#bfbfbf" points="754,-112.5 754,-131.5 801,-131.5 801,-112.5 754,-112.5"/>
<text text-anchor="middle" x="777.5" y="-119.5" font-family="Helvetica,sans-Serif" font-size="10.00">vector</text>
</g>
<!-- Node2&#45;&gt;Node17 -->
<g id="edge19" class="edge"><title>Node2&#45;&gt;Node17</title>
<path fill="none" stroke="midnightblue" d="M371.27,-172.899C383.154,-171.304 396.967,-169.503 409.5,-168 554.987,-150.558 595.621,-159.388 743.888,-131.815"/>
<polygon fill="midnightblue" stroke="midnightblue" points="744.633,-135.236 753.812,-129.945 743.337,-128.357 744.633,-135.236"/>
</g>
<!-- Node18 -->
<g id="node18" class="node"><title>Node18</title>
<polygon fill="none" stroke="#bfbfbf" points="0,-112.5 0,-131.5 65,-131.5 65,-112.5 0,-112.5"/>
<text text-anchor="middle" x="32.5" y="-119.5" font-family="Helvetica,sans-Serif" font-size="10.00">exception</text>
</g>
<!-- Node2&#45;&gt;Node18 -->
<g id="edge20" class="edge"><title>Node2&#45;&gt;Node18</title>
<path fill="none" stroke="midnightblue" d="M311.669,-172.487C263.834,-165.144 166.791,-149.807 75.138,-132.247"/>
<polygon fill="midnightblue" stroke="midnightblue" points="75.6253,-128.777 65.1434,-130.319 74.2994,-135.65 75.6253,-128.777"/>
</g>
<!-- Node8 -->
<g id="node8" class="node"><title>Node8</title>
<g id="a_node8"><a xlink:href="acconfig_8hpp.html" target="_top" xlink:title="acconfig.hpp">
<polygon fill="none" stroke="black" points="374.5,-0.5 374.5,-19.5 452.5,-19.5 452.5,-0.5 374.5,-0.5"/>
<text text-anchor="middle" x="413.5" y="-7.5" font-family="Helvetica,sans-Serif" font-size="10.00">acconfig.hpp</text>
</a>
</g>
</g>
<!-- Node7&#45;&gt;Node8 -->
<g id="edge7" class="edge"><title>Node7&#45;&gt;Node8</title>
<path fill="none" stroke="midnightblue" d="M506.666,-56.324C488.784,-47.6247 461.025,-34.1202 440.454,-24.113"/>
<polygon fill="midnightblue" stroke="midnightblue" points="441.813,-20.8819 431.29,-19.6545 438.751,-27.1765 441.813,-20.8819"/>
</g>
<!-- Node9 -->
<g id="node9" class="node"><title>Node9</title>
<g id="a_node9"><a xlink:href="myconfig-final_8hpp.html" target="_top" xlink:title="myconfig&#45;final.hpp">
<polygon fill="none" stroke="black" points="471,-0.5 471,-19.5 578,-19.5 578,-0.5 471,-0.5"/>
<text text-anchor="middle" x="524.5" y="-7.5" font-family="Helvetica,sans-Serif" font-size="10.00">myconfig&#45;final.hpp</text>
</a>
</g>
</g>
<!-- Node7&#45;&gt;Node9 -->
<g id="edge8" class="edge"><title>Node7&#45;&gt;Node9</title>
<path fill="none" stroke="midnightblue" d="M524.5,-56.083C524.5,-49.0059 524.5,-38.8611 524.5,-29.9865"/>
<polygon fill="midnightblue" stroke="midnightblue" points="528,-29.751 524.5,-19.7511 521,-29.7511 528,-29.751"/>
</g>
<!-- Node10 -->
<g id="node10" class="node"><title>Node10</title>
<g id="a_node10"><a xlink:href="config-features_8hpp.html" target="_top" xlink:title="config&#45;features.hpp">
<polygon fill="none" stroke="black" points="596,-0.5 596,-19.5 707,-19.5 707,-0.5 596,-0.5"/>
<text text-anchor="middle" x="651.5" y="-7.5" font-family="Helvetica,sans-Serif" font-size="10.00">config&#45;features.hpp</text>
</a>
</g>
</g>
<!-- Node7&#45;&gt;Node10 -->
<g id="edge9" class="edge"><title>Node7&#45;&gt;Node10</title>
<path fill="none" stroke="midnightblue" d="M544.624,-56.4435C565.524,-47.5566 598.435,-33.5632 622.216,-23.4514"/>
<polygon fill="midnightblue" stroke="midnightblue" points="623.638,-26.6504 631.471,-19.5164 620.898,-20.2085 623.638,-26.6504"/>
</g>
<!-- Node11&#45;&gt;Node7 -->
<g id="edge11" class="edge"><title>Node11&#45;&gt;Node7</title>
<path fill="none" stroke="midnightblue" d="M437.209,-112.324C453.812,-103.703 479.502,-90.3643 498.72,-80.3855"/>
<polygon fill="midnightblue" stroke="midnightblue" points="500.57,-83.3689 507.832,-75.6545 497.344,-77.1565 500.57,-83.3689"/>
</g>
<!-- Node12&#45;&gt;Node7 -->
<g id="edge13" class="edge"><title>Node12&#45;&gt;Node7</title>
<path fill="none" stroke="midnightblue" d="M524.5,-112.083C524.5,-105.006 524.5,-94.8611 524.5,-85.9865"/>
<polygon fill="midnightblue" stroke="midnightblue" points="528,-85.751 524.5,-75.7511 521,-85.7511 528,-85.751"/>
</g>
<!-- Node13&#45;&gt;Node7 -->
<g id="edge15" class="edge"><title>Node13&#45;&gt;Node7</title>
<path fill="none" stroke="midnightblue" d="M659.148,-112.444C632.231,-103.359 589.504,-88.9388 559.413,-78.7831"/>
<polygon fill="midnightblue" stroke="midnightblue" points="560.328,-75.3981 549.734,-75.5164 558.09,-82.0305 560.328,-75.3981"/>
</g>
<!-- Node14 -->
<g id="node14" class="node"><title>Node14</title>
<polygon fill="none" stroke="#bfbfbf" points="784.5,-56.5 784.5,-75.5 828.5,-75.5 828.5,-56.5 784.5,-56.5"/>
<text text-anchor="middle" x="806.5" y="-63.5" font-family="Helvetica,sans-Serif" font-size="10.00">string</text>
</g>
<!-- Node13&#45;&gt;Node14 -->
<g id="edge16" class="edge"><title>Node13&#45;&gt;Node14</title>
<path fill="none" stroke="midnightblue" d="M703.831,-112.444C723.82,-103.596 755.243,-89.6875 778.064,-79.5865"/>
<polygon fill="midnightblue" stroke="midnightblue" points="779.532,-82.7645 787.259,-75.5164 776.698,-76.3635 779.532,-82.7645"/>
</g>
<!-- Node15 -->
<g id="node15" class="node"><title>Node15</title>
<polygon fill="none" stroke="#bfbfbf" points="616.5,-56.5 616.5,-75.5 672.5,-75.5 672.5,-56.5 616.5,-56.5"/>
<text text-anchor="middle" x="644.5" y="-63.5" font-family="Helvetica,sans-Serif" font-size="10.00">sstream</text>
</g>
<!-- Node13&#45;&gt;Node15 -->
<g id="edge17" class="edge"><title>Node13&#45;&gt;Node15</title>
<path fill="none" stroke="midnightblue" d="M677.895,-112.083C672.245,-104.455 663.955,-93.2645 657.049,-83.9408"/>
<polygon fill="midnightblue" stroke="midnightblue" points="659.747,-81.7034 650.982,-75.7511 654.122,-85.87 659.747,-81.7034"/>
</g>
<!-- Node16 -->
<g id="node16" class="node"><title>Node16</title>
<polygon fill="none" stroke="#bfbfbf" points="690.5,-56.5 690.5,-75.5 722.5,-75.5 722.5,-56.5 690.5,-56.5"/>
<text text-anchor="middle" x="706.5" y="-63.5" font-family="Helvetica,sans-Serif" font-size="10.00">list</text>
</g>
<!-- Node13&#45;&gt;Node16 -->
<g id="edge18" class="edge"><title>Node13&#45;&gt;Node16</title>
<path fill="none" stroke="midnightblue" d="M688.133,-112.083C691.112,-104.77 695.426,-94.1814 699.125,-85.1034"/>
<polygon fill="midnightblue" stroke="midnightblue" points="702.403,-86.3326 702.935,-75.7511 695.92,-83.6914 702.403,-86.3326"/>
</g>
<!-- Node19&#45;&gt;Node2 -->
<g id="edge22" class="edge"><title>Node19&#45;&gt;Node2</title>
<path fill="none" stroke="midnightblue" d="M243.039,-224.444C262.123,-215.636 292.075,-201.812 313.936,-191.722"/>
<polygon fill="midnightblue" stroke="midnightblue" points="315.435,-194.885 323.048,-187.516 312.501,-188.529 315.435,-194.885"/>
</g>
<!-- Node20&#45;&gt;Node2 -->
<g id="edge46" class="edge"><title>Node20&#45;&gt;Node2</title>
<path fill="none" stroke="midnightblue" d="M370.226,-392.37C363.465,-383.772 353.809,-369.885 349.5,-356 332.293,-300.549 336.11,-230.648 339.304,-197.748"/>
<polygon fill="midnightblue" stroke="midnightblue" points="342.791,-198.053 340.372,-187.738 335.83,-197.311 342.791,-198.053"/>
</g>
<!-- Node20&#45;&gt;Node14 -->
<g id="edge48" class="edge"><title>Node20&#45;&gt;Node14</title>
<path fill="none" stroke="midnightblue" d="M418.81,-399.724C530.392,-395.163 829.5,-375.094 829.5,-291 829.5,-291 829.5,-291 829.5,-177 829.5,-144.12 819.532,-106.86 812.721,-85.2353"/>
<polygon fill="midnightblue" stroke="midnightblue" points="816.04,-84.1248 809.602,-75.7105 809.388,-86.3032 816.04,-84.1248"/>
</g>
<!-- Node20&#45;&gt;Node17 -->
<g id="edge24" class="edge"><title>Node20&#45;&gt;Node17</title>
<path fill="none" stroke="midnightblue" d="M418.8,-398.432C521,-390.951 777.5,-364.823 777.5,-291 777.5,-291 777.5,-291 777.5,-233 777.5,-200.948 777.5,-163.643 777.5,-141.749"/>
<polygon fill="midnightblue" stroke="midnightblue" points="781,-141.558 777.5,-131.558 774,-141.558 781,-141.558"/>
</g>
<!-- Node20&#45;&gt;Node19 -->
<g id="edge42" class="edge"><title>Node20&#45;&gt;Node19</title>
<path fill="none" stroke="midnightblue" d="M336.427,-392.43C290.684,-380.449 218.921,-353.819 186.5,-300 176.313,-283.089 191.372,-263.508 205.434,-250.293"/>
<polygon fill="midnightblue" stroke="midnightblue" points="207.777,-252.895 212.978,-243.664 203.156,-247.637 207.777,-252.895"/>
</g>
<!-- Node21 -->
<g id="node21" class="node"><title>Node21</title>
<g id="a_node21"><a xlink:href="grid_8hpp.html" target="_top" xlink:title="Domain decomposition for parallel computing. ">
<polygon fill="none" stroke="black" points="571.5,-336.5 571.5,-355.5 627.5,-355.5 627.5,-336.5 571.5,-336.5"/>
<text text-anchor="middle" x="599.5" y="-343.5" font-family="Helvetica,sans-Serif" font-size="10.00">grid.hpp</text>
</a>
</g>
</g>
<!-- Node20&#45;&gt;Node21 -->
<g id="edge25" class="edge"><title>Node20&#45;&gt;Node21</title>
<path fill="none" stroke="midnightblue" d="M412.677,-392.444C453.225,-382.58 519.632,-366.427 561.384,-356.272"/>
<polygon fill="midnightblue" stroke="midnightblue" points="562.291,-359.653 571.18,-353.889 560.636,-352.851 562.291,-359.653"/>
</g>
<!-- Node25 -->
<g id="node25" class="node"><title>Node25</title>
<g id="a_node25"><a xlink:href="topology_8hpp.html" target="_top" xlink:title="This file contains functions for handling the system topology. ">
<polygon fill="none" stroke="black" points="370,-224.5 370,-243.5 449,-243.5 449,-224.5 370,-224.5"/>
<text text-anchor="middle" x="409.5" y="-231.5" font-family="Helvetica,sans-Serif" font-size="10.00">topology.hpp</text>
</a>
</g>
</g>
<!-- Node20&#45;&gt;Node25 -->
<g id="edge47" class="edge"><title>Node20&#45;&gt;Node25</title>
<path fill="none" stroke="midnightblue" d="M384.811,-392.381C391.6,-383.792 401.276,-369.911 405.5,-356 416.097,-321.103 414.166,-277.922 411.822,-253.72"/>
<polygon fill="midnightblue" stroke="midnightblue" points="415.299,-253.315 410.725,-243.758 408.341,-254.081 415.299,-253.315"/>
</g>
<!-- Node31 -->
<g id="node31" class="node"><title>Node31</title>
<g id="a_node31"><a xlink:href="interaction__data_8hpp.html" target="_top" xlink:title="Various procedures concerning interactions between particles. ">
<polygon fill="none" stroke="black" points="196,-280.5 196,-299.5 313,-299.5 313,-280.5 196,-280.5"/>
<text text-anchor="middle" x="254.5" y="-287.5" font-family="Helvetica,sans-Serif" font-size="10.00">interaction_data.hpp</text>
</a>
</g>
</g>
<!-- Node20&#45;&gt;Node31 -->
<g id="edge43" class="edge"><title>Node20&#45;&gt;Node31</title>
<path fill="none" stroke="midnightblue" d="M364.385,-392.309C351.68,-383.666 332.101,-369.747 316.5,-356 299.059,-340.632 280.908,-321.123 268.787,-307.505"/>
<polygon fill="midnightblue" stroke="midnightblue" points="271.312,-305.076 262.08,-299.878 266.055,-309.699 271.312,-305.076"/>
</g>
<!-- Node32 -->
<g id="node32" class="node"><title>Node32</title>
<polygon fill="none" stroke="#bfbfbf" points="358.5,-336.5 358.5,-355.5 396.5,-355.5 396.5,-336.5 358.5,-336.5"/>
<text text-anchor="middle" x="377.5" y="-343.5" font-family="Helvetica,sans-Serif" font-size="10.00">map</text>
</g>
<!-- Node20&#45;&gt;Node32 -->
<g id="edge49" class="edge"><title>Node20&#45;&gt;Node32</title>
<path fill="none" stroke="midnightblue" d="M377.5,-392.083C377.5,-385.006 377.5,-374.861 377.5,-365.986"/>
<polygon fill="midnightblue" stroke="midnightblue" points="381,-365.751 377.5,-355.751 374,-365.751 381,-365.751"/>
</g>
<!-- Node21&#45;&gt;Node2 -->
<g id="edge26" class="edge"><title>Node21&#45;&gt;Node2</title>
<path fill="none" stroke="midnightblue" d="M610.009,-336.149C623.547,-323.622 644.141,-300.016 633.5,-280 623.056,-260.354 570.969,-232.722 550.5,-224 520.472,-211.205 433.051,-194.75 381.274,-185.704"/>
<polygon fill="midnightblue" stroke="midnightblue" points="381.562,-182.202 371.111,-183.943 380.367,-189.099 381.562,-182.202"/>
</g>
<!-- Node21&#45;&gt;Node13 -->
<g id="edge41" class="edge"><title>Node21&#45;&gt;Node13</title>
<path fill="none" stroke="midnightblue" d="M610.637,-336.462C621.337,-327.933 637.592,-314.095 649.5,-300 687.535,-254.979 704.071,-244.601 720.5,-188 722.978,-179.463 723.442,-176.388 720.5,-168 716.715,-157.209 709.133,-147.084 701.9,-139.181"/>
<polygon fill="midnightblue" stroke="midnightblue" points="704.167,-136.494 694.662,-131.815 699.174,-141.4 704.167,-136.494"/>
</g>
<!-- Node22 -->
<g id="node22" class="node"><title>Node22</title>
<polygon fill="none" stroke="#bfbfbf" points="574.5,-280.5 574.5,-299.5 624.5,-299.5 624.5,-280.5 574.5,-280.5"/>
<text text-anchor="middle" x="599.5" y="-287.5" font-family="Helvetica,sans-Serif" font-size="10.00">climits</text>
</g>
<!-- Node21&#45;&gt;Node22 -->
<g id="edge27" class="edge"><title>Node21&#45;&gt;Node22</title>
<path fill="none" stroke="midnightblue" d="M599.5,-336.083C599.5,-329.006 599.5,-318.861 599.5,-309.986"/>
<polygon fill="midnightblue" stroke="midnightblue" points="603,-309.751 599.5,-299.751 596,-309.751 603,-309.751"/>
</g>
<!-- Node23 -->
<g id="node23" class="node"><title>Node23</title>
<g id="a_node23"><a xlink:href="communication_8hpp.html" target="_top" xlink:title="This file contains the asynchronous MPI communication. ">
<polygon fill="none" stroke="black" points="443,-280.5 443,-299.5 556,-299.5 556,-280.5 443,-280.5"/>
<text text-anchor="middle" x="499.5" y="-287.5" font-family="Helvetica,sans-Serif" font-size="10.00">communication.hpp</text>
</a>
</g>
</g>
<!-- Node21&#45;&gt;Node23 -->
<g id="edge28" class="edge"><title>Node21&#45;&gt;Node23</title>
<path fill="none" stroke="midnightblue" d="M583.433,-336.324C567.542,-327.743 542.993,-314.486 524.542,-304.522"/>
<polygon fill="midnightblue" stroke="midnightblue" points="525.989,-301.326 515.527,-299.655 522.663,-307.486 525.989,-301.326"/>
</g>
<!-- Node23&#45;&gt;Node19 -->
<g id="edge29" class="edge"><title>Node23&#45;&gt;Node19</title>
<path fill="none" stroke="midnightblue" d="M455.925,-280.444C407.651,-270.964 329.788,-255.675 277.888,-245.483"/>
<polygon fill="midnightblue" stroke="midnightblue" points="278.358,-242.009 267.871,-243.516 277.009,-248.878 278.358,-242.009"/>
</g>
<!-- Node24 -->
<g id="node24" class="node"><title>Node24</title>
<g id="a_node24"><a xlink:href="random_8hpp.html" target="_top" xlink:title="A random generator. ">
<polygon fill="none" stroke="black" points="467,-224.5 467,-243.5 542,-243.5 542,-224.5 467,-224.5"/>
<text text-anchor="middle" x="504.5" y="-231.5" font-family="Helvetica,sans-Serif" font-size="10.00">random.hpp</text>
</a>
</g>
</g>
<!-- Node23&#45;&gt;Node24 -->
<g id="edge30" class="edge"><title>Node23&#45;&gt;Node24</title>
<path fill="none" stroke="midnightblue" d="M500.326,-280.083C500.981,-273.006 501.92,-262.861 502.742,-253.986"/>
<polygon fill="midnightblue" stroke="midnightblue" points="506.253,-254.031 503.69,-243.751 499.283,-253.386 506.253,-254.031"/>
</g>
<!-- Node23&#45;&gt;Node25 -->
<g id="edge32" class="edge"><title>Node23&#45;&gt;Node25</title>
<path fill="none" stroke="midnightblue" d="M485.04,-280.324C471,-271.9 449.452,-258.971 432.957,-249.074"/>
<polygon fill="midnightblue" stroke="midnightblue" points="434.3,-245.798 423.924,-243.655 430.698,-251.801 434.3,-245.798"/>
</g>
<!-- Node26 -->
<g id="node26" class="node"><title>Node26</title>
<g id="a_node26"><a xlink:href="mpi_8h.html" target="_top" xlink:title="This is the MPIfake implementation. ">
<polygon fill="none" stroke="black" points="598.5,-224.5 598.5,-243.5 642.5,-243.5 642.5,-224.5 598.5,-224.5"/>
<text text-anchor="middle" x="620.5" y="-231.5" font-family="Helvetica,sans-Serif" font-size="10.00">mpi.h</text>
</a>
</g>
</g>
<!-- Node23&#45;&gt;Node26 -->
<g id="edge34" class="edge"><title>Node23&#45;&gt;Node26</title>
<path fill="none" stroke="midnightblue" d="M518.673,-280.444C538.409,-271.636 569.385,-257.812 591.993,-247.722"/>
<polygon fill="midnightblue" stroke="midnightblue" points="593.711,-250.788 601.417,-243.516 590.859,-244.396 593.711,-250.788"/>
</g>
<!-- Node30 -->
<g id="node30" class="node"><title>Node30</title>
<g id="a_node30"><a xlink:href="cuda__init_8hpp.html" target="_top" xlink:title="cuda_init.hpp">
<polygon fill="none" stroke="black" points="629.5,-168.5 629.5,-187.5 711.5,-187.5 711.5,-168.5 629.5,-168.5"/>
<text text-anchor="middle" x="670.5" y="-175.5" font-family="Helvetica,sans-Serif" font-size="10.00">cuda_init.hpp</text>
</a>
</g>
</g>
<!-- Node23&#45;&gt;Node30 -->
<g id="edge38" class="edge"><title>Node23&#45;&gt;Node30</title>
<path fill="none" stroke="midnightblue" d="M545.158,-280.489C584.237,-272.332 636.493,-259.059 651.5,-244 663.549,-231.909 668.043,-212.626 669.675,-198.197"/>
<polygon fill="midnightblue" stroke="midnightblue" points="673.19,-198.134 670.46,-187.896 666.21,-197.601 673.19,-198.134"/>
</g>
<!-- Node24&#45;&gt;Node2 -->
<g id="edge31" class="edge"><title>Node24&#45;&gt;Node2</title>
<path fill="none" stroke="midnightblue" d="M478.672,-224.444C451.251,-215.359 407.723,-200.939 377.068,-190.783"/>
<polygon fill="midnightblue" stroke="midnightblue" points="377.8,-187.339 367.207,-187.516 375.599,-193.984 377.8,-187.339"/>
</g>
<!-- Node25&#45;&gt;Node2 -->
<g id="edge33" class="edge"><title>Node25&#45;&gt;Node2</title>
<path fill="none" stroke="midnightblue" d="M398.575,-224.324C388.325,-216.185 372.779,-203.839 360.499,-194.087"/>
<polygon fill="midnightblue" stroke="midnightblue" points="362.632,-191.312 352.624,-187.834 358.279,-196.794 362.632,-191.312"/>
</g>
<!-- Node27 -->
<g id="node27" class="node"><title>Node27</title>
<polygon fill="none" stroke="#bfbfbf" points="490,-168.5 490,-187.5 543,-187.5 543,-168.5 490,-168.5"/>
<text text-anchor="middle" x="516.5" y="-175.5" font-family="Helvetica,sans-Serif" font-size="10.00">string.h</text>
</g>
<!-- Node26&#45;&gt;Node27 -->
<g id="edge35" class="edge"><title>Node26&#45;&gt;Node27</title>
<path fill="none" stroke="midnightblue" d="M603.791,-224.324C587.188,-215.703 561.498,-202.364 542.28,-192.386"/>
<polygon fill="midnightblue" stroke="midnightblue" points="543.656,-189.156 533.168,-187.655 540.43,-195.369 543.656,-189.156"/>
</g>
<!-- Node28 -->
<g id="node28" class="node"><title>Node28</title>
<polygon fill="none" stroke="#bfbfbf" points="561.5,-168.5 561.5,-187.5 611.5,-187.5 611.5,-168.5 561.5,-168.5"/>
<text text-anchor="middle" x="586.5" y="-175.5" font-family="Helvetica,sans-Serif" font-size="10.00">stdio.h</text>
</g>
<!-- Node26&#45;&gt;Node28 -->
<g id="edge36" class="edge"><title>Node26&#45;&gt;Node28</title>
<path fill="none" stroke="midnightblue" d="M614.886,-224.083C610.133,-216.534 603.182,-205.495 597.348,-196.23"/>
<polygon fill="midnightblue" stroke="midnightblue" points="600.3,-194.349 592.01,-187.751 594.376,-198.078 600.3,-194.349"/>
</g>
<!-- Node29 -->
<g id="node29" class="node"><title>Node29</title>
<polygon fill="none" stroke="#bfbfbf" points="419,-168.5 419,-187.5 472,-187.5 472,-168.5 419,-168.5"/>
<text text-anchor="middle" x="445.5" y="-175.5" font-family="Helvetica,sans-Serif" font-size="10.00">stdlib.h</text>
</g>
<!-- Node26&#45;&gt;Node29 -->
<g id="edge37" class="edge"><title>Node26&#45;&gt;Node29</title>
<path fill="none" stroke="midnightblue" d="M598.336,-226.161C569.038,-217.12 517.033,-201.073 481.919,-190.238"/>
<polygon fill="midnightblue" stroke="midnightblue" points="482.639,-186.797 472.052,-187.193 480.575,-193.486 482.639,-186.797"/>
</g>
<!-- Node30&#45;&gt;Node7 -->
<g id="edge39" class="edge"><title>Node30&#45;&gt;Node7</title>
<path fill="none" stroke="midnightblue" d="M659.273,-168.316C643.052,-155.793 612.088,-131.971 585.5,-112 571.916,-101.797 556.521,-90.441 544.595,-81.6895"/>
<polygon fill="midnightblue" stroke="midnightblue" points="546.374,-78.6542 536.239,-75.5671 542.236,-84.3007 546.374,-78.6542"/>
</g>
<!-- Node30&#45;&gt;Node17 -->
<g id="edge40" class="edge"><title>Node30&#45;&gt;Node17</title>
<path fill="none" stroke="midnightblue" d="M687.691,-168.324C704.851,-159.664 731.446,-146.242 751.247,-136.249"/>
<polygon fill="midnightblue" stroke="midnightblue" points="753.001,-139.285 760.351,-131.655 749.847,-133.035 753.001,-139.285"/>
</g>
<!-- Node31&#45;&gt;Node2 -->
<g id="edge44" class="edge"><title>Node31&#45;&gt;Node2</title>
<path fill="none" stroke="midnightblue" d="M261.327,-280.368C275.748,-262.135 309.527,-219.426 328.311,-195.675"/>
<polygon fill="midnightblue" stroke="midnightblue" points="331.247,-197.606 334.705,-187.591 325.756,-193.264 331.247,-197.606"/>
</g>
<!-- Node31&#45;&gt;Node19 -->
<g id="edge45" class="edge"><title>Node31&#45;&gt;Node19</title>
<path fill="none" stroke="midnightblue" d="M249.546,-280.083C245.396,-272.613 239.347,-261.724 234.233,-252.52"/>
<polygon fill="midnightblue" stroke="midnightblue" points="237.278,-250.793 229.362,-243.751 231.159,-254.192 237.278,-250.793"/>
</g>
</g>
</svg>
