<?xml version="1.0" encoding="UTF-8" standalone="no"?>
<!DOCTYPE svg PUBLIC "-//W3C//DTD SVG 1.1//EN"
 "http://www.w3.org/Graphics/SVG/1.1/DTD/svg11.dtd">
<!-- Generated by graphviz version 2.38.0 (20140413.2041)
 -->
<!-- Title: comfixed.cpp Pages: 1 -->
<svg width="855pt" height="420pt"
 viewBox="0.00 0.00 855.00 420.00" xmlns="http://www.w3.org/2000/svg" xmlns:xlink="http://www.w3.org/1999/xlink">
<g id="graph0" class="graph" transform="scale(1 1) rotate(0) translate(4 416)">
<title>comfixed.cpp</title>
<!-- Node1 -->
<g id="node1" class="node"><title>Node1</title>
<polygon fill="#bfbfbf" stroke="black" points="164,-392.5 164,-411.5 246,-411.5 246,-392.5 164,-392.5"/>
<text text-anchor="middle" x="205" y="-399.5" font-family="Helvetica,sans-Serif" font-size="10.00">comfixed.cpp</text>
</g>
<!-- Node2 -->
<g id="node2" class="node"><title>Node2</title>
<g id="a_node2"><a xlink:href="utils_8hpp.html" target="_top" xlink:title="Small functions that are useful not only for one modul. ">
<polygon fill="none" stroke="black" points="330.5,-168.5 330.5,-187.5 389.5,-187.5 389.5,-168.5 330.5,-168.5"/>
<text text-anchor="middle" x="360" y="-175.5" font-family="Helvetica,sans-Serif" font-size="10.00">utils.hpp</text>
</a>
</g>
</g>
<!-- Node1&#45;&gt;Node2 -->
<g id="edge1" class="edge"><title>Node1&#45;&gt;Node2</title>
<path fill="none" stroke="midnightblue" d="M174.425,-392.473C119.646,-375.602 13.7234,-334.796 50,-280 80.365,-234.133 243.308,-199.695 320.017,-185.77"/>
<polygon fill="midnightblue" stroke="midnightblue" points="321.017,-189.146 330.246,-183.942 319.786,-182.256 321.017,-189.146"/>
</g>
<!-- Node19 -->
<g id="node19" class="node"><title>Node19</title>
<g id="a_node19"><a xlink:href="interaction__data_8hpp.html" target="_top" xlink:title="Various procedures concerning interactions between particles. ">
<polygon fill="none" stroke="black" points="59.5,-280.5 59.5,-299.5 176.5,-299.5 176.5,-280.5 59.5,-280.5"/>
<text text-anchor="middle" x="118" y="-287.5" font-family="Helvetica,sans-Serif" font-size="10.00">interaction_data.hpp</text>
</a>
</g>
</g>
<!-- Node1&#45;&gt;Node19 -->
<g id="edge21" class="edge"><title>Node1&#45;&gt;Node19</title>
<path fill="none" stroke="midnightblue" d="M198.173,-392.368C183.752,-374.135 149.973,-331.426 131.189,-307.675"/>
<polygon fill="midnightblue" stroke="midnightblue" points="133.744,-305.264 124.795,-299.591 128.253,-309.606 133.744,-305.264"/>
</g>
<!-- Node20 -->
<g id="node20" class="node"><title>Node20</title>
<g id="a_node20"><a xlink:href="particle__data_8hpp.html" target="_top" xlink:title="For more information on particle_data, see particle_data.c. ">
<polygon fill="none" stroke="black" points="230.5,-224.5 230.5,-243.5 331.5,-243.5 331.5,-224.5 230.5,-224.5"/>
<text text-anchor="middle" x="281" y="-231.5" font-family="Helvetica,sans-Serif" font-size="10.00">particle_data.hpp</text>
</a>
</g>
</g>
<!-- Node1&#45;&gt;Node20 -->
<g id="edge25" class="edge"><title>Node1&#45;&gt;Node20</title>
<path fill="none" stroke="midnightblue" d="M204.304,-392.38C203.03,-371.514 202.21,-317.263 224,-280 231.483,-267.204 244.115,-256.67 255.588,-249.019"/>
<polygon fill="midnightblue" stroke="midnightblue" points="257.786,-251.774 264.421,-243.513 254.083,-245.833 257.786,-251.774"/>
</g>
<!-- Node21 -->
<g id="node21" class="node"><title>Node21</title>
<g id="a_node21"><a xlink:href="cells_8hpp.html" target="_top" xlink:title="This file contains everything related to the cell structure / cell system. ">
<polygon fill="none" stroke="black" points="266,-336.5 266,-355.5 326,-355.5 326,-336.5 266,-336.5"/>
<text text-anchor="middle" x="296" y="-343.5" font-family="Helvetica,sans-Serif" font-size="10.00">cells.hpp</text>
</a>
</g>
</g>
<!-- Node1&#45;&gt;Node21 -->
<g id="edge26" class="edge"><title>Node1&#45;&gt;Node21</title>
<path fill="none" stroke="midnightblue" d="M219.621,-392.324C233.949,-383.822 256.013,-370.729 272.749,-360.797"/>
<polygon fill="midnightblue" stroke="midnightblue" points="274.602,-363.768 281.416,-355.655 271.03,-357.748 274.602,-363.768"/>
</g>
<!-- Node28 -->
<g id="node28" class="node"><title>Node28</title>
<g id="a_node28"><a xlink:href="grid_8hpp.html" target="_top" xlink:title="Domain decomposition for parallel computing. ">
<polygon fill="none" stroke="black" points="510,-336.5 510,-355.5 566,-355.5 566,-336.5 510,-336.5"/>
<text text-anchor="middle" x="538" y="-343.5" font-family="Helvetica,sans-Serif" font-size="10.00">grid.hpp</text>
</a>
</g>
</g>
<!-- Node1&#45;&gt;Node28 -->
<g id="edge36" class="edge"><title>Node1&#45;&gt;Node28</title>
<path fill="none" stroke="midnightblue" d="M246.166,-394.324C311.112,-383.793 436.444,-363.468 499.616,-353.224"/>
<polygon fill="midnightblue" stroke="midnightblue" points="500.256,-356.666 509.567,-351.611 499.136,-349.757 500.256,-356.666"/>
</g>
<!-- Node3 -->
<g id="node3" class="node"><title>Node3</title>
<polygon fill="none" stroke="#bfbfbf" points="205.5,-112.5 205.5,-131.5 252.5,-131.5 252.5,-112.5 205.5,-112.5"/>
<text text-anchor="middle" x="229" y="-119.5" font-family="Helvetica,sans-Serif" font-size="10.00">cmath</text>
</g>
<!-- Node2&#45;&gt;Node3 -->
<g id="edge2" class="edge"><title>Node2&#45;&gt;Node3</title>
<path fill="none" stroke="midnightblue" d="M339.243,-168.444C317.684,-159.557 283.737,-145.563 259.206,-135.451"/>
<polygon fill="midnightblue" stroke="midnightblue" points="260.239,-132.092 249.66,-131.516 257.572,-138.563 260.239,-132.092"/>
</g>
<!-- Node4 -->
<g id="node4" class="node"><title>Node4</title>
<polygon fill="none" stroke="#bfbfbf" points="271,-112.5 271,-131.5 317,-131.5 317,-112.5 271,-112.5"/>
<text text-anchor="middle" x="294" y="-119.5" font-family="Helvetica,sans-Serif" font-size="10.00">cstdio</text>
</g>
<!-- Node2&#45;&gt;Node4 -->
<g id="edge3" class="edge"><title>Node2&#45;&gt;Node4</title>
<path fill="none" stroke="midnightblue" d="M349.396,-168.324C339.544,-160.263 324.649,-148.077 312.785,-138.369"/>
<polygon fill="midnightblue" stroke="midnightblue" points="314.753,-135.457 304.797,-131.834 310.32,-140.875 314.753,-135.457"/>
</g>
<!-- Node5 -->
<g id="node5" class="node"><title>Node5</title>
<polygon fill="none" stroke="#bfbfbf" points="335.5,-112.5 335.5,-131.5 384.5,-131.5 384.5,-112.5 335.5,-112.5"/>
<text text-anchor="middle" x="360" y="-119.5" font-family="Helvetica,sans-Serif" font-size="10.00">cstdlib</text>
</g>
<!-- Node2&#45;&gt;Node5 -->
<g id="edge4" class="edge"><title>Node2&#45;&gt;Node5</title>
<path fill="none" stroke="midnightblue" d="M360,-168.083C360,-161.006 360,-150.861 360,-141.986"/>
<polygon fill="midnightblue" stroke="midnightblue" points="363.5,-141.751 360,-131.751 356.5,-141.751 363.5,-141.751"/>
</g>
<!-- Node6 -->
<g id="node6" class="node"><title>Node6</title>
<polygon fill="none" stroke="#bfbfbf" points="403,-112.5 403,-131.5 453,-131.5 453,-112.5 403,-112.5"/>
<text text-anchor="middle" x="428" y="-119.5" font-family="Helvetica,sans-Serif" font-size="10.00">cstring</text>
</g>
<!-- Node2&#45;&gt;Node6 -->
<g id="edge5" class="edge"><title>Node2&#45;&gt;Node6</title>
<path fill="none" stroke="midnightblue" d="M370.925,-168.324C381.175,-160.185 396.721,-147.839 409.001,-138.087"/>
<polygon fill="midnightblue" stroke="midnightblue" points="411.221,-140.794 416.876,-131.834 406.868,-135.312 411.221,-140.794"/>
</g>
<!-- Node7 -->
<g id="node7" class="node"><title>Node7</title>
<g id="a_node7"><a xlink:href="config_8hpp.html" target="_top" xlink:title="This file contains the defaults for Espresso. ">
<polygon fill="none" stroke="black" points="509.5,-56.5 509.5,-75.5 576.5,-75.5 576.5,-56.5 509.5,-56.5"/>
<text text-anchor="middle" x="543" y="-63.5" font-family="Helvetica,sans-Serif" font-size="10.00">config.hpp</text>
</a>
</g>
</g>
<!-- Node2&#45;&gt;Node7 -->
<g id="edge6" class="edge"><title>Node2&#45;&gt;Node7</title>
<path fill="none" stroke="midnightblue" d="M383.957,-168.474C405.2,-160.445 436.69,-147.374 462,-132 485.664,-117.625 510.084,-97.1076 525.838,-82.9889"/>
<polygon fill="midnightblue" stroke="midnightblue" points="528.603,-85.2047 533.639,-75.8832 523.889,-80.0297 528.603,-85.2047"/>
</g>
<!-- Node11 -->
<g id="node11" class="node"><title>Node11</title>
<g id="a_node11"><a xlink:href="debug_8hpp.html" target="_top" xlink:title="This file controls debug facilities. ">
<polygon fill="none" stroke="black" points="509,-112.5 509,-131.5 577,-131.5 577,-112.5 509,-112.5"/>
<text text-anchor="middle" x="543" y="-119.5" font-family="Helvetica,sans-Serif" font-size="10.00">debug.hpp</text>
</a>
</g>
</g>
<!-- Node2&#45;&gt;Node11 -->
<g id="edge10" class="edge"><title>Node2&#45;&gt;Node11</title>
<path fill="none" stroke="midnightblue" d="M388.997,-168.444C420.185,-159.241 469.93,-144.562 504.408,-134.388"/>
<polygon fill="midnightblue" stroke="midnightblue" points="505.538,-137.704 514.139,-131.516 503.557,-130.99 505.538,-137.704"/>
</g>
<!-- Node12 -->
<g id="node12" class="node"><title>Node12</title>
<g id="a_node12"><a xlink:href="lees__edwards_8hpp.html" target="_top" xlink:title="lees_edwards.hpp">
<polygon fill="none" stroke="black" points="0,-112.5 0,-131.5 104,-131.5 104,-112.5 0,-112.5"/>
<text text-anchor="middle" x="52" y="-119.5" font-family="Helvetica,sans-Serif" font-size="10.00">lees_edwards.hpp</text>
</a>
</g>
</g>
<!-- Node2&#45;&gt;Node12 -->
<g id="edge12" class="edge"><title>Node2&#45;&gt;Node12</title>
<path fill="none" stroke="midnightblue" d="M330.468,-171.822C280.017,-162.977 176.334,-144.799 110.702,-133.292"/>
<polygon fill="midnightblue" stroke="midnightblue" points="110.963,-129.784 100.509,-131.505 109.754,-136.679 110.963,-129.784"/>
</g>
<!-- Node13 -->
<g id="node13" class="node"><title>Node13</title>
<g id="a_node13"><a xlink:href="errorhandling_8hpp.html" target="_top" xlink:title="This file contains the errorhandling code for severe errors, like a broken bond or illegal parameter ...">
<polygon fill="none" stroke="black" points="699.5,-112.5 699.5,-131.5 802.5,-131.5 802.5,-112.5 699.5,-112.5"/>
<text text-anchor="middle" x="751" y="-119.5" font-family="Helvetica,sans-Serif" font-size="10.00">errorhandling.hpp</text>
</a>
</g>
</g>
<!-- Node2&#45;&gt;Node13 -->
<g id="edge14" class="edge"><title>Node2&#45;&gt;Node13</title>
<path fill="none" stroke="midnightblue" d="M389.666,-171.658C396.959,-170.402 404.755,-169.107 412,-168 508.574,-153.239 621.061,-138.861 689.102,-130.473"/>
<polygon fill="midnightblue" stroke="midnightblue" points="689.722,-133.923 699.221,-129.23 688.868,-126.976 689.722,-133.923"/>
</g>
<!-- Node17 -->
<g id="node17" class="node"><title>Node17</title>
<polygon fill="none" stroke="#bfbfbf" points="595.5,-112.5 595.5,-131.5 642.5,-131.5 642.5,-112.5 595.5,-112.5"/>
<text text-anchor="middle" x="619" y="-119.5" font-family="Helvetica,sans-Serif" font-size="10.00">vector</text>
</g>
<!-- Node2&#45;&gt;Node17 -->
<g id="edge19" class="edge"><title>Node2&#45;&gt;Node17</title>
<path fill="none" stroke="midnightblue" d="M389.758,-171.758C431.336,-164.286 509.362,-149.727 585.501,-131.982"/>
<polygon fill="midnightblue" stroke="midnightblue" points="586.324,-135.384 595.257,-129.688 584.722,-128.57 586.324,-135.384"/>
</g>
<!-- Node18 -->
<g id="node18" class="node"><title>Node18</title>
<polygon fill="none" stroke="#bfbfbf" points="122.5,-112.5 122.5,-131.5 187.5,-131.5 187.5,-112.5 122.5,-112.5"/>
<text text-anchor="middle" x="155" y="-119.5" font-family="Helvetica,sans-Serif" font-size="10.00">exception</text>
</g>
<!-- Node2&#45;&gt;Node18 -->
<g id="edge20" class="edge"><title>Node2&#45;&gt;Node18</title>
<path fill="none" stroke="midnightblue" d="M330.191,-169.148C295.254,-159.945 237.104,-144.627 197.46,-134.185"/>
<polygon fill="midnightblue" stroke="midnightblue" points="198.117,-130.738 187.555,-131.576 196.334,-137.507 198.117,-130.738"/>
</g>
<!-- Node8 -->
<g id="node8" class="node"><title>Node8</title>
<g id="a_node8"><a xlink:href="acconfig_8hpp.html" target="_top" xlink:title="acconfig.hpp">
<polygon fill="none" stroke="black" points="393,-0.5 393,-19.5 471,-19.5 471,-0.5 393,-0.5"/>
<text text-anchor="middle" x="432" y="-7.5" font-family="Helvetica,sans-Serif" font-size="10.00">acconfig.hpp</text>
</a>
</g>
</g>
<!-- Node7&#45;&gt;Node8 -->
<g id="edge7" class="edge"><title>Node7&#45;&gt;Node8</title>
<path fill="none" stroke="midnightblue" d="M525.166,-56.324C507.284,-47.6247 479.525,-34.1202 458.954,-24.113"/>
<polygon fill="midnightblue" stroke="midnightblue" points="460.313,-20.8819 449.79,-19.6545 457.251,-27.1765 460.313,-20.8819"/>
</g>
<!-- Node9 -->
<g id="node9" class="node"><title>Node9</title>
<g id="a_node9"><a xlink:href="myconfig-final_8hpp.html" target="_top" xlink:title="myconfig&#45;final.hpp">
<polygon fill="none" stroke="black" points="489.5,-0.5 489.5,-19.5 596.5,-19.5 596.5,-0.5 489.5,-0.5"/>
<text text-anchor="middle" x="543" y="-7.5" font-family="Helvetica,sans-Serif" font-size="10.00">myconfig&#45;final.hpp</text>
</a>
</g>
</g>
<!-- Node7&#45;&gt;Node9 -->
<g id="edge8" class="edge"><title>Node7&#45;&gt;Node9</title>
<path fill="none" stroke="midnightblue" d="M543,-56.083C543,-49.0059 543,-38.8611 543,-29.9865"/>
<polygon fill="midnightblue" stroke="midnightblue" points="546.5,-29.751 543,-19.7511 539.5,-29.7511 546.5,-29.751"/>
</g>
<!-- Node10 -->
<g id="node10" class="node"><title>Node10</title>
<g id="a_node10"><a xlink:href="config-features_8hpp.html" target="_top" xlink:title="config&#45;features.hpp">
<polygon fill="none" stroke="black" points="614.5,-0.5 614.5,-19.5 725.5,-19.5 725.5,-0.5 614.5,-0.5"/>
<text text-anchor="middle" x="670" y="-7.5" font-family="Helvetica,sans-Serif" font-size="10.00">config&#45;features.hpp</text>
</a>
</g>
</g>
<!-- Node7&#45;&gt;Node10 -->
<g id="edge9" class="edge"><title>Node7&#45;&gt;Node10</title>
<path fill="none" stroke="midnightblue" d="M563.124,-56.4435C584.024,-47.5566 616.935,-33.5632 640.716,-23.4514"/>
<polygon fill="midnightblue" stroke="midnightblue" points="642.138,-26.6504 649.971,-19.5164 639.398,-20.2085 642.138,-26.6504"/>
</g>
<!-- Node11&#45;&gt;Node7 -->
<g id="edge11" class="edge"><title>Node11&#45;&gt;Node7</title>
<path fill="none" stroke="midnightblue" d="M543,-112.083C543,-105.006 543,-94.8611 543,-85.9865"/>
<polygon fill="midnightblue" stroke="midnightblue" points="546.5,-85.751 543,-75.7511 539.5,-85.7511 546.5,-85.751"/>
</g>
<!-- Node12&#45;&gt;Node7 -->
<g id="edge13" class="edge"><title>Node12&#45;&gt;Node7</title>
<path fill="none" stroke="midnightblue" d="M104.224,-113.147C107.191,-112.747 110.132,-112.361 113,-112 253.829,-94.25 421.236,-78.1686 499.11,-70.9762"/>
<polygon fill="midnightblue" stroke="midnightblue" points="499.854,-74.4225 509.492,-70.0211 499.213,-67.452 499.854,-74.4225"/>
</g>
<!-- Node13&#45;&gt;Node7 -->
<g id="edge15" class="edge"><title>Node13&#45;&gt;Node7</title>
<path fill="none" stroke="midnightblue" d="M718.042,-112.444C682.213,-103.142 624.837,-88.246 585.609,-78.062"/>
<polygon fill="midnightblue" stroke="midnightblue" points="586.363,-74.6417 575.804,-75.5164 584.604,-81.4171 586.363,-74.6417"/>
</g>
<!-- Node14 -->
<g id="node14" class="node"><title>Node14</title>
<polygon fill="none" stroke="#bfbfbf" points="729,-56.5 729,-75.5 773,-75.5 773,-56.5 729,-56.5"/>
<text text-anchor="middle" x="751" y="-63.5" font-family="Helvetica,sans-Serif" font-size="10.00">string</text>
</g>
<!-- Node13&#45;&gt;Node14 -->
<g id="edge16" class="edge"><title>Node13&#45;&gt;Node14</title>
<path fill="none" stroke="midnightblue" d="M751,-112.083C751,-105.006 751,-94.8611 751,-85.9865"/>
<polygon fill="midnightblue" stroke="midnightblue" points="754.5,-85.751 751,-75.7511 747.5,-85.7511 754.5,-85.751"/>
</g>
<!-- Node15 -->
<g id="node15" class="node"><title>Node15</title>
<polygon fill="none" stroke="#bfbfbf" points="791,-56.5 791,-75.5 847,-75.5 847,-56.5 791,-56.5"/>
<text text-anchor="middle" x="819" y="-63.5" font-family="Helvetica,sans-Serif" font-size="10.00">sstream</text>
</g>
<!-- Node13&#45;&gt;Node15 -->
<g id="edge17" class="edge"><title>Node13&#45;&gt;Node15</title>
<path fill="none" stroke="midnightblue" d="M761.925,-112.324C772.175,-104.185 787.721,-91.8395 800.001,-82.0874"/>
<polygon fill="midnightblue" stroke="midnightblue" points="802.221,-84.7937 807.876,-75.8339 797.868,-79.3119 802.221,-84.7937"/>
</g>
<!-- Node16 -->
<g id="node16" class="node"><title>Node16</title>
<polygon fill="none" stroke="#bfbfbf" points="679,-56.5 679,-75.5 711,-75.5 711,-56.5 679,-56.5"/>
<text text-anchor="middle" x="695" y="-63.5" font-family="Helvetica,sans-Serif" font-size="10.00">list</text>
</g>
<!-- Node13&#45;&gt;Node16 -->
<g id="edge18" class="edge"><title>Node13&#45;&gt;Node16</title>
<path fill="none" stroke="midnightblue" d="M742.003,-112.324C733.806,-104.42 721.494,-92.5482 711.528,-82.9377"/>
<polygon fill="midnightblue" stroke="midnightblue" points="713.789,-80.2558 704.161,-75.8339 708.93,-85.2947 713.789,-80.2558"/>
</g>
<!-- Node19&#45;&gt;Node2 -->
<g id="edge22" class="edge"><title>Node19&#45;&gt;Node2</title>
<path fill="none" stroke="midnightblue" d="M129.498,-280.383C147.971,-266.862 185.766,-240.502 221,-224 253.324,-208.861 292.111,-196.768 320.489,-188.947"/>
<polygon fill="midnightblue" stroke="midnightblue" points="321.699,-192.246 330.442,-186.262 319.875,-185.488 321.699,-192.246"/>
</g>
<!-- Node19&#45;&gt;Node20 -->
<g id="edge23" class="edge"><title>Node19&#45;&gt;Node20</title>
<path fill="none" stroke="midnightblue" d="M143.828,-280.444C171.249,-271.359 214.777,-256.939 245.432,-246.783"/>
<polygon fill="midnightblue" stroke="midnightblue" points="246.901,-249.984 255.293,-243.516 244.7,-243.339 246.901,-249.984"/>
</g>
<!-- Node20&#45;&gt;Node2 -->
<g id="edge24" class="edge"><title>Node20&#45;&gt;Node2</title>
<path fill="none" stroke="midnightblue" d="M293.693,-224.324C305.901,-215.979 324.578,-203.212 339.003,-193.352"/>
<polygon fill="midnightblue" stroke="midnightblue" points="341.058,-196.187 347.339,-187.655 337.108,-190.408 341.058,-196.187"/>
</g>
<!-- Node21&#45;&gt;Node20 -->
<g id="edge27" class="edge"><title>Node21&#45;&gt;Node20</title>
<path fill="none" stroke="midnightblue" d="M300.003,-336.478C305.341,-323.954 313.514,-299.906 308,-280 305.208,-269.921 299.491,-259.832 294.033,-251.769"/>
<polygon fill="midnightblue" stroke="midnightblue" points="296.847,-249.688 288.151,-243.636 291.175,-253.79 296.847,-249.688"/>
</g>
<!-- Node22 -->
<g id="node22" class="node"><title>Node22</title>
<g id="a_node22"><a xlink:href="ghosts_8hpp.html" target="_top" xlink:title="Ghost particles and particle exchange. ">
<polygon fill="none" stroke="black" points="355,-280.5 355,-299.5 425,-299.5 425,-280.5 355,-280.5"/>
<text text-anchor="middle" x="390" y="-287.5" font-family="Helvetica,sans-Serif" font-size="10.00">ghosts.hpp</text>
</a>
</g>
</g>
<!-- Node21&#45;&gt;Node22 -->
<g id="edge28" class="edge"><title>Node21&#45;&gt;Node22</title>
<path fill="none" stroke="midnightblue" d="M311.103,-336.324C325.903,-327.822 348.694,-314.729 365.982,-304.797"/>
<polygon fill="midnightblue" stroke="midnightblue" points="368.007,-307.671 374.935,-299.655 364.52,-301.601 368.007,-307.671"/>
</g>
<!-- Node27 -->
<g id="node27" class="node"><title>Node27</title>
<g id="a_node27"><a xlink:href="verlet_8hpp.html" target="_top" xlink:title="This file contains routines to setup and handle interaction pair lists (verlet pair lists) for the no...">
<polygon fill="none" stroke="black" points="233,-280.5 233,-299.5 299,-299.5 299,-280.5 233,-280.5"/>
<text text-anchor="middle" x="266" y="-287.5" font-family="Helvetica,sans-Serif" font-size="10.00">verlet.hpp</text>
</a>
</g>
</g>
<!-- Node21&#45;&gt;Node27 -->
<g id="edge34" class="edge"><title>Node21&#45;&gt;Node27</title>
<path fill="none" stroke="midnightblue" d="M291.046,-336.083C286.896,-328.613 280.847,-317.724 275.733,-308.52"/>
<polygon fill="midnightblue" stroke="midnightblue" points="278.778,-306.793 270.862,-299.751 272.659,-310.192 278.778,-306.793"/>
</g>
<!-- Node22&#45;&gt;Node20 -->
<g id="edge33" class="edge"><title>Node22&#45;&gt;Node20</title>
<path fill="none" stroke="midnightblue" d="M372.487,-280.324C354.928,-271.625 327.669,-258.12 307.469,-248.113"/>
<polygon fill="midnightblue" stroke="midnightblue" points="308.984,-244.958 298.469,-243.655 305.876,-251.23 308.984,-244.958"/>
</g>
<!-- Node23 -->
<g id="node23" class="node"><title>Node23</title>
<g id="a_node23"><a xlink:href="mpi_8h.html" target="_top" xlink:title="This is the MPIfake implementation. ">
<polygon fill="none" stroke="black" points="578,-224.5 578,-243.5 622,-243.5 622,-224.5 578,-224.5"/>
<text text-anchor="middle" x="600" y="-231.5" font-family="Helvetica,sans-Serif" font-size="10.00">mpi.h</text>
</a>
</g>
</g>
<!-- Node22&#45;&gt;Node23 -->
<g id="edge29" class="edge"><title>Node22&#45;&gt;Node23</title>
<path fill="none" stroke="midnightblue" d="M425.083,-280.579C459.195,-272.302 512.707,-259.088 567.749,-244.271"/>
<polygon fill="midnightblue" stroke="midnightblue" points="568.937,-247.576 577.676,-241.586 567.109,-240.819 568.937,-247.576"/>
</g>
<!-- Node24 -->
<g id="node24" class="node"><title>Node24</title>
<polygon fill="none" stroke="#bfbfbf" points="421.5,-168.5 421.5,-187.5 474.5,-187.5 474.5,-168.5 421.5,-168.5"/>
<text text-anchor="middle" x="448" y="-175.5" font-family="Helvetica,sans-Serif" font-size="10.00">string.h</text>
</g>
<!-- Node23&#45;&gt;Node24 -->
<g id="edge30" class="edge"><title>Node23&#45;&gt;Node24</title>
<path fill="none" stroke="midnightblue" d="M577.898,-225.148C552.598,-216.16 510.882,-201.339 481.564,-190.924"/>
<polygon fill="midnightblue" stroke="midnightblue" points="482.733,-187.625 472.139,-187.576 480.39,-194.221 482.733,-187.625"/>
</g>
<!-- Node25 -->
<g id="node25" class="node"><title>Node25</title>
<polygon fill="none" stroke="#bfbfbf" points="493,-168.5 493,-187.5 543,-187.5 543,-168.5 493,-168.5"/>
<text text-anchor="middle" x="518" y="-175.5" font-family="Helvetica,sans-Serif" font-size="10.00">stdio.h</text>
</g>
<!-- Node23&#45;&gt;Node25 -->
<g id="edge31" class="edge"><title>Node23&#45;&gt;Node25</title>
<path fill="none" stroke="midnightblue" d="M586.825,-224.324C574.153,-215.979 554.767,-203.212 539.794,-193.352"/>
<polygon fill="midnightblue" stroke="midnightblue" points="541.419,-190.231 531.142,-187.655 537.569,-196.078 541.419,-190.231"/>
</g>
<!-- Node26 -->
<g id="node26" class="node"><title>Node26</title>
<polygon fill="none" stroke="#bfbfbf" points="561.5,-168.5 561.5,-187.5 614.5,-187.5 614.5,-168.5 561.5,-168.5"/>
<text text-anchor="middle" x="588" y="-175.5" font-family="Helvetica,sans-Serif" font-size="10.00">stdlib.h</text>
</g>
<!-- Node23&#45;&gt;Node26 -->
<g id="edge32" class="edge"><title>Node23&#45;&gt;Node26</title>
<path fill="none" stroke="midnightblue" d="M598.018,-224.083C596.428,-216.927 594.141,-206.635 592.154,-197.691"/>
<polygon fill="midnightblue" stroke="midnightblue" points="595.531,-196.754 589.945,-187.751 588.697,-198.272 595.531,-196.754"/>
</g>
<!-- Node27&#45;&gt;Node20 -->
<g id="edge35" class="edge"><title>Node27&#45;&gt;Node20</title>
<path fill="none" stroke="midnightblue" d="M268.477,-280.083C270.486,-272.849 273.386,-262.409 275.89,-253.397"/>
<polygon fill="midnightblue" stroke="midnightblue" points="279.265,-254.323 278.569,-243.751 272.52,-252.449 279.265,-254.323"/>
</g>
<!-- Node28&#45;&gt;Node2 -->
<g id="edge37" class="edge"><title>Node28&#45;&gt;Node2</title>
<path fill="none" stroke="midnightblue" d="M524.149,-336.382C485.919,-312.572 381.567,-247.415 379,-244 368.955,-230.638 364.207,-212.067 361.971,-198.196"/>
<polygon fill="midnightblue" stroke="midnightblue" points="365.387,-197.329 360.622,-187.866 358.446,-198.235 365.387,-197.329"/>
</g>
<!-- Node28&#45;&gt;Node13 -->
<g id="edge49" class="edge"><title>Node28&#45;&gt;Node13</title>
<path fill="none" stroke="midnightblue" d="M566.131,-342.101C595.735,-337.693 642.102,-326.759 672,-300 720.419,-256.664 740.742,-177.997 747.805,-141.956"/>
<polygon fill="midnightblue" stroke="midnightblue" points="751.297,-142.318 749.652,-131.851 744.411,-141.059 751.297,-142.318"/>
</g>
<!-- Node29 -->
<g id="node29" class="node"><title>Node29</title>
<polygon fill="none" stroke="#bfbfbf" points="613,-280.5 613,-299.5 663,-299.5 663,-280.5 613,-280.5"/>
<text text-anchor="middle" x="638" y="-287.5" font-family="Helvetica,sans-Serif" font-size="10.00">climits</text>
</g>
<!-- Node28&#45;&gt;Node29 -->
<g id="edge38" class="edge"><title>Node28&#45;&gt;Node29</title>
<path fill="none" stroke="midnightblue" d="M554.067,-336.324C569.958,-327.743 594.507,-314.486 612.958,-304.522"/>
<polygon fill="midnightblue" stroke="midnightblue" points="614.837,-307.486 621.973,-299.655 611.511,-301.326 614.837,-307.486"/>
</g>
<!-- Node30 -->
<g id="node30" class="node"><title>Node30</title>
<g id="a_node30"><a xlink:href="communication_8hpp.html" target="_top" xlink:title="This file contains the asynchronous MPI communication. ">
<polygon fill="none" stroke="black" points="481.5,-280.5 481.5,-299.5 594.5,-299.5 594.5,-280.5 481.5,-280.5"/>
<text text-anchor="middle" x="538" y="-287.5" font-family="Helvetica,sans-Serif" font-size="10.00">communication.hpp</text>
</a>
</g>
</g>
<!-- Node28&#45;&gt;Node30 -->
<g id="edge39" class="edge"><title>Node28&#45;&gt;Node30</title>
<path fill="none" stroke="midnightblue" d="M538,-336.083C538,-329.006 538,-318.861 538,-309.986"/>
<polygon fill="midnightblue" stroke="midnightblue" points="541.5,-309.751 538,-299.751 534.5,-309.751 541.5,-309.751"/>
</g>
<!-- Node30&#45;&gt;Node20 -->
<g id="edge40" class="edge"><title>Node30&#45;&gt;Node20</title>
<path fill="none" stroke="midnightblue" d="M497.278,-280.444C452.351,-271.004 380.002,-255.802 331.501,-245.611"/>
<polygon fill="midnightblue" stroke="midnightblue" points="332.038,-242.148 321.532,-243.516 330.598,-248.998 332.038,-242.148"/>
</g>
<!-- Node30&#45;&gt;Node23 -->
<g id="edge45" class="edge"><title>Node30&#45;&gt;Node23</title>
<path fill="none" stroke="midnightblue" d="M547.961,-280.324C557.127,-272.341 570.937,-260.313 582.028,-250.653"/>
<polygon fill="midnightblue" stroke="midnightblue" points="584.615,-253.041 589.857,-243.834 580.018,-247.762 584.615,-253.041"/>
</g>
<!-- Node31 -->
<g id="node31" class="node"><title>Node31</title>
<g id="a_node31"><a xlink:href="random_8hpp.html" target="_top" xlink:title="A random generator. ">
<polygon fill="none" stroke="black" points="485.5,-224.5 485.5,-243.5 560.5,-243.5 560.5,-224.5 485.5,-224.5"/>
<text text-anchor="middle" x="523" y="-231.5" font-family="Helvetica,sans-Serif" font-size="10.00">random.hpp</text>
</a>
</g>
</g>
<!-- Node30&#45;&gt;Node31 -->
<g id="edge41" class="edge"><title>Node30&#45;&gt;Node31</title>
<path fill="none" stroke="midnightblue" d="M535.523,-280.083C533.514,-272.849 530.614,-262.409 528.11,-253.397"/>
<polygon fill="midnightblue" stroke="midnightblue" points="531.48,-252.449 525.431,-243.751 524.735,-254.323 531.48,-252.449"/>
</g>
<!-- Node32 -->
<g id="node32" class="node"><title>Node32</title>
<g id="a_node32"><a xlink:href="topology_8hpp.html" target="_top" xlink:title="This file contains functions for handling the system topology. ">
<polygon fill="none" stroke="black" points="388.5,-224.5 388.5,-243.5 467.5,-243.5 467.5,-224.5 388.5,-224.5"/>
<text text-anchor="middle" x="428" y="-231.5" font-family="Helvetica,sans-Serif" font-size="10.00">topology.hpp</text>
</a>
</g>
</g>
<!-- Node30&#45;&gt;Node32 -->
<g id="edge43" class="edge"><title>Node30&#45;&gt;Node32</title>
<path fill="none" stroke="midnightblue" d="M520.327,-280.324C502.606,-271.625 475.097,-258.12 454.712,-248.113"/>
<polygon fill="midnightblue" stroke="midnightblue" points="456.149,-244.919 445.63,-243.655 453.064,-251.203 456.149,-244.919"/>
</g>
<!-- Node33 -->
<g id="node33" class="node"><title>Node33</title>
<g id="a_node33"><a xlink:href="cuda__init_8hpp.html" target="_top" xlink:title="cuda_init.hpp">
<polygon fill="none" stroke="black" points="633,-168.5 633,-187.5 715,-187.5 715,-168.5 633,-168.5"/>
<text text-anchor="middle" x="674" y="-175.5" font-family="Helvetica,sans-Serif" font-size="10.00">cuda_init.hpp</text>
</a>
</g>
</g>
<!-- Node30&#45;&gt;Node33 -->
<g id="edge46" class="edge"><title>Node30&#45;&gt;Node33</title>
<path fill="none" stroke="midnightblue" d="M564.662,-280.46C584.561,-273.115 611.556,-261.002 631,-244 646.081,-230.813 658.101,-211.136 665.556,-196.889"/>
<polygon fill="midnightblue" stroke="midnightblue" points="668.835,-198.156 670.157,-187.644 662.568,-195.037 668.835,-198.156"/>
</g>
<!-- Node31&#45;&gt;Node2 -->
<g id="edge42" class="edge"><title>Node31&#45;&gt;Node2</title>
<path fill="none" stroke="midnightblue" d="M497.172,-224.444C469.751,-215.359 426.223,-200.939 395.568,-190.783"/>
<polygon fill="midnightblue" stroke="midnightblue" points="396.3,-187.339 385.707,-187.516 394.099,-193.984 396.3,-187.339"/>
</g>
<!-- Node32&#45;&gt;Node2 -->
<g id="edge44" class="edge"><title>Node32&#45;&gt;Node2</title>
<path fill="none" stroke="midnightblue" d="M417.075,-224.324C406.825,-216.185 391.279,-203.839 378.999,-194.087"/>
<polygon fill="midnightblue" stroke="midnightblue" points="381.132,-191.312 371.124,-187.834 376.779,-196.794 381.132,-191.312"/>
</g>
<!-- Node33&#45;&gt;Node7 -->
<g id="edge47" class="edge"><title>Node33&#45;&gt;Node7</title>
<path fill="none" stroke="midnightblue" d="M673.159,-168.263C671.4,-154.576 666.143,-127.994 651,-112 633.864,-93.9001 608.342,-82.8128 586.411,-76.174"/>
<polygon fill="midnightblue" stroke="midnightblue" points="587.204,-72.7614 576.63,-73.4276 585.311,-79.5007 587.204,-72.7614"/>
</g>
<!-- Node33&#45;&gt;Node17 -->
<g id="edge48" class="edge"><title>Node33&#45;&gt;Node17</title>
<path fill="none" stroke="midnightblue" d="M664.918,-168.083C656.829,-160.141 644.805,-148.335 635.09,-138.797"/>
<polygon fill="midnightblue" stroke="midnightblue" points="637.501,-136.26 627.913,-131.751 632.597,-141.254 637.501,-136.26"/>
</g>
</g>
</svg>
