<?xml version="1.0" encoding="UTF-8" standalone="no"?>
<!DOCTYPE svg PUBLIC "-//W3C//DTD SVG 1.1//EN"
 "http://www.w3.org/Graphics/SVG/1.1/DTD/svg11.dtd">
<!-- Generated by graphviz version 2.38.0 (20140413.2041)
 -->
<!-- Title: comforce_tcl.cpp Pages: 1 -->
<!--zoomable 532 -->
<svg id="main" version="1.1" xmlns="http://www.w3.org/2000/svg" xmlns:xlink="http://www.w3.org/1999/xlink" xml:space="preserve" onload="init(evt)">
<style type="text/css"><![CDATA[
.edge:hover path { stroke: red; }
.edge:hover polygon { stroke: red; fill: red; }
]]></style>
<script type="text/javascript"><![CDATA[
var edges = document.getElementsByTagName('g');
if (edges && edges.length) {
  for (var i=0;i<edges.length;i++) {
    if (edges[i].id.substr(0,4)=='edge') {
      edges[i].setAttribute('class','edge');
    }
  }
}
]]></script>
        <defs>
                <circle id="rim" cx="0" cy="0" r="7"/>
                <circle id="rim2" cx="0" cy="0" r="3.5"/>
                <g id="zoomPlus">
                        <use xlink:href="#rim" fill="#404040">
                                <set attributeName="fill" to="#808080" begin="zoomplus.mouseover" end="zoomplus.mouseout"/>
                        </use>
                        <path d="M-4,0h8M0,-4v8" fill="none" stroke="white" stroke-width="1.5" pointer-events="none"/>
                </g>
                <g id="zoomMin">
                        <use xlink:href="#rim" fill="#404040">
                                <set attributeName="fill" to="#808080" begin="zoomminus.mouseover" end="zoomminus.mouseout"/>
                        </use>
                        <path d="M-4,0h8" fill="none" stroke="white" stroke-width="1.5" pointer-events="none"/>
                </g>
                <g id="dirArrow">
                        <path fill="none" stroke="white" stroke-width="1.5" d="M0,-3.0v7 M-2.5,-0.5L0,-3.0L2.5,-0.5"/>
                </g>
               <g id="resetDef">
                       <use xlink:href="#rim2" fill="#404040">
                               <set attributeName="fill" to="#808080" begin="reset.mouseover" end="reset.mouseout"/>
                       </use>
               </g>
        </defs>

<script type="text/javascript">
var viewWidth = 950;
var viewHeight = 532;
var sectionId = 'dynsection-0';
</script>
<script xlink:href="svgpan.js"/>
<svg id="graph" class="graph">
<g id="viewport">
<title>comforce_tcl.cpp</title>
<!-- Node1 -->
<g id="node1" class="node"><title>Node1</title>
<polygon fill="#bfbfbf" stroke="black" points="98.5,-504.5 98.5,-523.5 198.5,-523.5 198.5,-504.5 98.5,-504.5"/>
<text text-anchor="middle" x="148.5" y="-511.5" font-family="Helvetica,sans-Serif" font-size="10.00">comforce_tcl.cpp</text>
</g>
<!-- Node2 -->
<g id="node2" class="node"><title>Node2</title>
<g id="a_node2"><a xlink:href="utils_8hpp.html" target="_top" xlink:title="Small functions that are useful not only for one modul. ">
<polygon fill="none" stroke="black" points="420,-168.5 420,-187.5 479,-187.5 479,-168.5 420,-168.5"/>
<text text-anchor="middle" x="449.5" y="-175.5" font-family="Helvetica,sans-Serif" font-size="10.00">utils.hpp</text>
</a>
</g>
</g>
<!-- Node1&#45;&gt;Node2 -->
<g id="edge1" class="edge"><title>Node1&#45;&gt;Node2</title>
<path fill="none" stroke="midnightblue" d="M151.062,-504.249C156.249,-485.738 167.5,-441.179 167.5,-403 167.5,-403 167.5,-403 167.5,-289 167.5,-237.575 332.319,-200.488 409.948,-185.872"/>
<polygon fill="midnightblue" stroke="midnightblue" points="410.657,-189.301 419.854,-184.04 409.384,-182.417 410.657,-189.301"/>
</g>
<!-- Node19 -->
<g id="node19" class="node"><title>Node19</title>
<g id="a_node19"><a xlink:href="parser_8hpp.html" target="_top" xlink:title="This file contains macros for parsing the parameters to the &#39;inter&#39; command. ">
<polygon fill="none" stroke="black" points="57.5,-392.5 57.5,-411.5 125.5,-411.5 125.5,-392.5 57.5,-392.5"/>
<text text-anchor="middle" x="91.5" y="-399.5" font-family="Helvetica,sans-Serif" font-size="10.00">parser.hpp</text>
</a>
</g>
</g>
<!-- Node1&#45;&gt;Node19 -->
<g id="edge21" class="edge"><title>Node1&#45;&gt;Node19</title>
<path fill="none" stroke="midnightblue" d="M144.027,-504.368C134.704,-486.376 113.031,-444.55 100.634,-420.627"/>
<polygon fill="midnightblue" stroke="midnightblue" points="103.66,-418.86 95.9519,-411.591 97.4452,-422.081 103.66,-418.86"/>
</g>
<!-- Node21 -->
<g id="node21" class="node"><title>Node21</title>
<g id="a_node21"><a xlink:href="comforce__tcl_8hpp.html" target="_top" xlink:title="Tcl interface for comforce.hpp. ">
<polygon fill="none" stroke="black" points="0,-448.5 0,-467.5 101,-467.5 101,-448.5 0,-448.5"/>
<text text-anchor="middle" x="50.5" y="-455.5" font-family="Helvetica,sans-Serif" font-size="10.00">comforce_tcl.hpp</text>
</a>
</g>
</g>
<!-- Node1&#45;&gt;Node21 -->
<g id="edge25" class="edge"><title>Node1&#45;&gt;Node21</title>
<path fill="none" stroke="midnightblue" d="M132.755,-504.324C117.181,-495.743 93.1227,-482.486 75.0407,-472.522"/>
<polygon fill="midnightblue" stroke="midnightblue" points="76.6539,-469.415 66.2063,-467.655 73.2756,-475.546 76.6539,-469.415"/>
</g>
<!-- Node22 -->
<g id="node22" class="node"><title>Node22</title>
<g id="a_node22"><a xlink:href="comforce_8hpp.html" target="_top" xlink:title="Routines for center of mass forces. ">
<polygon fill="none" stroke="black" points="260,-448.5 260,-467.5 343,-467.5 343,-448.5 260,-448.5"/>
<text text-anchor="middle" x="301.5" y="-455.5" font-family="Helvetica,sans-Serif" font-size="10.00">comforce.hpp</text>
</a>
</g>
</g>
<!-- Node1&#45;&gt;Node22 -->
<g id="edge27" class="edge"><title>Node1&#45;&gt;Node22</title>
<path fill="none" stroke="midnightblue" d="M172.743,-504.444C198.371,-495.399 238.985,-481.064 267.738,-470.916"/>
<polygon fill="midnightblue" stroke="midnightblue" points="269.105,-474.145 277.37,-467.516 266.775,-467.544 269.105,-474.145"/>
</g>
<!-- Node3 -->
<g id="node3" class="node"><title>Node3</title>
<polygon fill="none" stroke="#bfbfbf" points="500,-112.5 500,-131.5 547,-131.5 547,-112.5 500,-112.5"/>
<text text-anchor="middle" x="523.5" y="-119.5" font-family="Helvetica,sans-Serif" font-size="10.00">cmath</text>
</g>
<!-- Node2&#45;&gt;Node3 -->
<g id="edge2" class="edge"><title>Node2&#45;&gt;Node3</title>
<path fill="none" stroke="midnightblue" d="M461.389,-168.324C472.65,-160.107 489.787,-147.602 503.209,-137.807"/>
<polygon fill="midnightblue" stroke="midnightblue" points="505.38,-140.556 511.394,-131.834 501.253,-134.901 505.38,-140.556"/>
</g>
<!-- Node4 -->
<g id="node4" class="node"><title>Node4</title>
<polygon fill="none" stroke="#bfbfbf" points="565.5,-112.5 565.5,-131.5 611.5,-131.5 611.5,-112.5 565.5,-112.5"/>
<text text-anchor="middle" x="588.5" y="-119.5" font-family="Helvetica,sans-Serif" font-size="10.00">cstdio</text>
</g>
<!-- Node2&#45;&gt;Node4 -->
<g id="edge3" class="edge"><title>Node2&#45;&gt;Node4</title>
<path fill="none" stroke="midnightblue" d="M471.525,-168.444C494.604,-159.478 531.062,-145.314 557.141,-135.183"/>
<polygon fill="midnightblue" stroke="midnightblue" points="558.524,-138.4 566.578,-131.516 555.989,-131.875 558.524,-138.4"/>
</g>
<!-- Node5 -->
<g id="node5" class="node"><title>Node5</title>
<polygon fill="none" stroke="#bfbfbf" points="630,-112.5 630,-131.5 679,-131.5 679,-112.5 630,-112.5"/>
<text text-anchor="middle" x="654.5" y="-119.5" font-family="Helvetica,sans-Serif" font-size="10.00">cstdlib</text>
</g>
<!-- Node2&#45;&gt;Node5 -->
<g id="edge4" class="edge"><title>Node2&#45;&gt;Node5</title>
<path fill="none" stroke="midnightblue" d="M479.16,-169.209C511.4,-160.737 564.695,-146.723 620.314,-132.046"/>
<polygon fill="midnightblue" stroke="midnightblue" points="621.211,-135.429 629.987,-129.493 619.425,-128.661 621.211,-135.429"/>
</g>
<!-- Node6 -->
<g id="node6" class="node"><title>Node6</title>
<polygon fill="none" stroke="#bfbfbf" points="140.5,-112.5 140.5,-131.5 190.5,-131.5 190.5,-112.5 140.5,-112.5"/>
<text text-anchor="middle" x="165.5" y="-119.5" font-family="Helvetica,sans-Serif" font-size="10.00">cstring</text>
</g>
<!-- Node2&#45;&gt;Node6 -->
<g id="edge5" class="edge"><title>Node2&#45;&gt;Node6</title>
<path fill="none" stroke="midnightblue" d="M419.713,-172.436C374.441,-165.327 285.427,-150.677 200.495,-132.079"/>
<polygon fill="midnightblue" stroke="midnightblue" points="201.216,-128.654 190.696,-129.912 199.704,-135.489 201.216,-128.654"/>
</g>
<!-- Node7 -->
<g id="node7" class="node"><title>Node7</title>
<g id="a_node7"><a xlink:href="config_8hpp.html" target="_top" xlink:title="This file contains the defaults for Espresso. ">
<polygon fill="none" stroke="black" points="674,-56.5 674,-75.5 741,-75.5 741,-56.5 674,-56.5"/>
<text text-anchor="middle" x="707.5" y="-63.5" font-family="Helvetica,sans-Serif" font-size="10.00">config.hpp</text>
</a>
</g>
</g>
<!-- Node2&#45;&gt;Node7 -->
<g id="edge6" class="edge"><title>Node2&#45;&gt;Node7</title>
<path fill="none" stroke="midnightblue" d="M479.267,-175.144C536.093,-171.012 657.093,-159.189 687.5,-132 700.545,-120.335 705.189,-100.389 706.787,-85.6605"/>
<polygon fill="midnightblue" stroke="midnightblue" points="710.281,-85.8629 707.504,-75.6386 703.299,-85.3634 710.281,-85.8629"/>
</g>
<!-- Node11 -->
<g id="node11" class="node"><title>Node11</title>
<g id="a_node11"><a xlink:href="debug_8hpp.html" target="_top" xlink:title="This file controls debug facilities. ">
<polygon fill="none" stroke="black" points="208.5,-112.5 208.5,-131.5 276.5,-131.5 276.5,-112.5 208.5,-112.5"/>
<text text-anchor="middle" x="242.5" y="-119.5" font-family="Helvetica,sans-Serif" font-size="10.00">debug.hpp</text>
</a>
</g>
</g>
<!-- Node2&#45;&gt;Node11 -->
<g id="edge10" class="edge"><title>Node2&#45;&gt;Node11</title>
<path fill="none" stroke="midnightblue" d="M419.842,-169.263C384.493,-160.042 325.166,-144.565 284.96,-134.077"/>
<polygon fill="midnightblue" stroke="midnightblue" points="285.736,-130.662 275.177,-131.524 283.969,-137.435 285.736,-130.662"/>
</g>
<!-- Node12 -->
<g id="node12" class="node"><title>Node12</title>
<g id="a_node12"><a xlink:href="lees__edwards_8hpp.html" target="_top" xlink:title="lees_edwards.hpp">
<polygon fill="none" stroke="black" points="294.5,-112.5 294.5,-131.5 398.5,-131.5 398.5,-112.5 294.5,-112.5"/>
<text text-anchor="middle" x="346.5" y="-119.5" font-family="Helvetica,sans-Serif" font-size="10.00">lees_edwards.hpp</text>
</a>
</g>
</g>
<!-- Node2&#45;&gt;Node12 -->
<g id="edge12" class="edge"><title>Node2&#45;&gt;Node12</title>
<path fill="none" stroke="midnightblue" d="M432.951,-168.324C416.508,-159.703 391.065,-146.364 372.032,-136.386"/>
<polygon fill="midnightblue" stroke="midnightblue" points="373.489,-133.198 363.008,-131.655 370.239,-139.398 373.489,-133.198"/>
</g>
<!-- Node13 -->
<g id="node13" class="node"><title>Node13</title>
<g id="a_node13"><a xlink:href="errorhandling_8hpp.html" target="_top" xlink:title="This file contains the errorhandling code for severe errors, like a broken bond or illegal parameter ...">
<polygon fill="none" stroke="black" points="839,-112.5 839,-131.5 942,-131.5 942,-112.5 839,-112.5"/>
<text text-anchor="middle" x="890.5" y="-119.5" font-family="Helvetica,sans-Serif" font-size="10.00">errorhandling.hpp</text>
</a>
</g>
</g>
<!-- Node2&#45;&gt;Node13 -->
<g id="edge14" class="edge"><title>Node2&#45;&gt;Node13</title>
<path fill="none" stroke="midnightblue" d="M479.099,-173.787C541.536,-166.946 691.547,-150.181 828.662,-132.076"/>
<polygon fill="midnightblue" stroke="midnightblue" points="829.477,-135.499 838.93,-130.715 828.557,-128.56 829.477,-135.499"/>
</g>
<!-- Node17 -->
<g id="node17" class="node"><title>Node17</title>
<polygon fill="none" stroke="#bfbfbf" points="774,-112.5 774,-131.5 821,-131.5 821,-112.5 774,-112.5"/>
<text text-anchor="middle" x="797.5" y="-119.5" font-family="Helvetica,sans-Serif" font-size="10.00">vector</text>
</g>
<!-- Node2&#45;&gt;Node17 -->
<g id="edge19" class="edge"><title>Node2&#45;&gt;Node17</title>
<path fill="none" stroke="midnightblue" d="M479.17,-172.396C543.451,-162.421 695.256,-138.866 763.375,-128.295"/>
<polygon fill="midnightblue" stroke="midnightblue" points="764.218,-131.706 773.563,-126.714 763.145,-124.789 764.218,-131.706"/>
</g>
<!-- Node18 -->
<g id="node18" class="node"><title>Node18</title>
<polygon fill="none" stroke="#bfbfbf" points="417,-112.5 417,-131.5 482,-131.5 482,-112.5 417,-112.5"/>
<text text-anchor="middle" x="449.5" y="-119.5" font-family="Helvetica,sans-Serif" font-size="10.00">exception</text>
</g>
<!-- Node2&#45;&gt;Node18 -->
<g id="edge20" class="edge"><title>Node2&#45;&gt;Node18</title>
<path fill="none" stroke="midnightblue" d="M449.5,-168.083C449.5,-161.006 449.5,-150.861 449.5,-141.986"/>
<polygon fill="midnightblue" stroke="midnightblue" points="453,-141.751 449.5,-131.751 446,-141.751 453,-141.751"/>
</g>
<!-- Node8 -->
<g id="node8" class="node"><title>Node8</title>
<g id="a_node8"><a xlink:href="acconfig_8hpp.html" target="_top" xlink:title="acconfig.hpp">
<polygon fill="none" stroke="black" points="557.5,-0.5 557.5,-19.5 635.5,-19.5 635.5,-0.5 557.5,-0.5"/>
<text text-anchor="middle" x="596.5" y="-7.5" font-family="Helvetica,sans-Serif" font-size="10.00">acconfig.hpp</text>
</a>
</g>
</g>
<!-- Node7&#45;&gt;Node8 -->
<g id="edge7" class="edge"><title>Node7&#45;&gt;Node8</title>
<path fill="none" stroke="midnightblue" d="M689.666,-56.324C671.784,-47.6247 644.025,-34.1202 623.454,-24.113"/>
<polygon fill="midnightblue" stroke="midnightblue" points="624.813,-20.8819 614.29,-19.6545 621.751,-27.1765 624.813,-20.8819"/>
</g>
<!-- Node9 -->
<g id="node9" class="node"><title>Node9</title>
<g id="a_node9"><a xlink:href="myconfig-final_8hpp.html" target="_top" xlink:title="myconfig&#45;final.hpp">
<polygon fill="none" stroke="black" points="654,-0.5 654,-19.5 761,-19.5 761,-0.5 654,-0.5"/>
<text text-anchor="middle" x="707.5" y="-7.5" font-family="Helvetica,sans-Serif" font-size="10.00">myconfig&#45;final.hpp</text>
</a>
</g>
</g>
<!-- Node7&#45;&gt;Node9 -->
<g id="edge8" class="edge"><title>Node7&#45;&gt;Node9</title>
<path fill="none" stroke="midnightblue" d="M707.5,-56.083C707.5,-49.0059 707.5,-38.8611 707.5,-29.9865"/>
<polygon fill="midnightblue" stroke="midnightblue" points="711,-29.751 707.5,-19.7511 704,-29.7511 711,-29.751"/>
</g>
<!-- Node10 -->
<g id="node10" class="node"><title>Node10</title>
<g id="a_node10"><a xlink:href="config-features_8hpp.html" target="_top" xlink:title="config&#45;features.hpp">
<polygon fill="none" stroke="black" points="779,-0.5 779,-19.5 890,-19.5 890,-0.5 779,-0.5"/>
<text text-anchor="middle" x="834.5" y="-7.5" font-family="Helvetica,sans-Serif" font-size="10.00">config&#45;features.hpp</text>
</a>
</g>
</g>
<!-- Node7&#45;&gt;Node10 -->
<g id="edge9" class="edge"><title>Node7&#45;&gt;Node10</title>
<path fill="none" stroke="midnightblue" d="M727.624,-56.4435C748.524,-47.5566 781.435,-33.5632 805.216,-23.4514"/>
<polygon fill="midnightblue" stroke="midnightblue" points="806.638,-26.6504 814.471,-19.5164 803.898,-20.2085 806.638,-26.6504"/>
</g>
<!-- Node11&#45;&gt;Node7 -->
<g id="edge11" class="edge"><title>Node11&#45;&gt;Node7</title>
<path fill="none" stroke="midnightblue" d="M276.711,-113.517C279.677,-112.967 282.637,-112.451 285.5,-112 422.786,-90.3687 586.87,-76.1833 663.726,-70.2151"/>
<polygon fill="midnightblue" stroke="midnightblue" points="664.278,-73.6831 673.98,-69.4276 663.742,-66.7037 664.278,-73.6831"/>
</g>
<!-- Node12&#45;&gt;Node7 -->
<g id="edge13" class="edge"><title>Node12&#45;&gt;Node7</title>
<path fill="none" stroke="midnightblue" d="M398.607,-113.206C469.964,-102.532 596.826,-83.5551 663.604,-73.5661"/>
<polygon fill="midnightblue" stroke="midnightblue" points="664.416,-76.9837 673.788,-72.0428 663.38,-70.0607 664.416,-76.9837"/>
</g>
<!-- Node13&#45;&gt;Node7 -->
<g id="edge15" class="edge"><title>Node13&#45;&gt;Node7</title>
<path fill="none" stroke="midnightblue" d="M861.503,-112.444C830.315,-103.241 780.57,-88.5617 746.092,-78.3879"/>
<polygon fill="midnightblue" stroke="midnightblue" points="746.943,-74.9898 736.361,-75.5164 744.962,-81.7036 746.943,-74.9898"/>
</g>
<!-- Node14 -->
<g id="node14" class="node"><title>Node14</title>
<polygon fill="none" stroke="#bfbfbf" points="351.5,-56.5 351.5,-75.5 395.5,-75.5 395.5,-56.5 351.5,-56.5"/>
<text text-anchor="middle" x="373.5" y="-63.5" font-family="Helvetica,sans-Serif" font-size="10.00">string</text>
</g>
<!-- Node13&#45;&gt;Node14 -->
<g id="edge16" class="edge"><title>Node13&#45;&gt;Node14</title>
<path fill="none" stroke="midnightblue" d="M838.939,-113.215C835.747,-112.788 832.581,-112.379 829.5,-112 671.089,-92.509 480.894,-75.9292 406.034,-69.6691"/>
<polygon fill="midnightblue" stroke="midnightblue" points="406.099,-66.1626 395.843,-68.8213 405.519,-73.1385 406.099,-66.1626"/>
</g>
<!-- Node15 -->
<g id="node15" class="node"><title>Node15</title>
<polygon fill="none" stroke="#bfbfbf" points="831.5,-56.5 831.5,-75.5 887.5,-75.5 887.5,-56.5 831.5,-56.5"/>
<text text-anchor="middle" x="859.5" y="-63.5" font-family="Helvetica,sans-Serif" font-size="10.00">sstream</text>
</g>
<!-- Node13&#45;&gt;Node15 -->
<g id="edge17" class="edge"><title>Node13&#45;&gt;Node15</title>
<path fill="none" stroke="midnightblue" d="M885.381,-112.083C881.092,-104.613 874.842,-93.7244 869.558,-84.5199"/>
<polygon fill="midnightblue" stroke="midnightblue" points="872.538,-82.6811 864.524,-75.7511 866.467,-86.1662 872.538,-82.6811"/>
</g>
<!-- Node16 -->
<g id="node16" class="node"><title>Node16</title>
<polygon fill="none" stroke="#bfbfbf" points="905.5,-56.5 905.5,-75.5 937.5,-75.5 937.5,-56.5 905.5,-56.5"/>
<text text-anchor="middle" x="921.5" y="-63.5" font-family="Helvetica,sans-Serif" font-size="10.00">list</text>
</g>
<!-- Node13&#45;&gt;Node16 -->
<g id="edge18" class="edge"><title>Node13&#45;&gt;Node16</title>
<path fill="none" stroke="midnightblue" d="M895.619,-112.083C899.908,-104.613 906.158,-93.7244 911.442,-84.5199"/>
<polygon fill="midnightblue" stroke="midnightblue" points="914.533,-86.1662 916.476,-75.7511 908.462,-82.6811 914.533,-86.1662"/>
</g>
<!-- Node19&#45;&gt;Node2 -->
<g id="edge22" class="edge"><title>Node19&#45;&gt;Node2</title>
<path fill="none" stroke="midnightblue" d="M94.2716,-392.301C105.401,-357.48 146.577,-229.742 153.5,-224 191.747,-192.281 337.957,-182.84 409.541,-180.093"/>
<polygon fill="midnightblue" stroke="midnightblue" points="410.082,-183.576 419.951,-179.721 409.832,-176.581 410.082,-183.576"/>
</g>
<!-- Node19&#45;&gt;Node6 -->
<g id="edge23" class="edge"><title>Node19&#45;&gt;Node6</title>
<path fill="none" stroke="midnightblue" d="M91.5,-392.442C91.5,-373.936 91.5,-328.812 91.5,-291 91.5,-291 91.5,-291 91.5,-233 91.5,-193.61 124.57,-157.726 146.496,-138.264"/>
<polygon fill="midnightblue" stroke="midnightblue" points="148.927,-140.79 154.261,-131.636 144.383,-135.466 148.927,-140.79"/>
</g>
<!-- Node20 -->
<g id="node20" class="node"><title>Node20</title>
<polygon fill="none" stroke="#bfbfbf" points="25.5,-336.5 25.5,-355.5 63.5,-355.5 63.5,-336.5 25.5,-336.5"/>
<text text-anchor="middle" x="44.5" y="-343.5" font-family="Helvetica,sans-Serif" font-size="10.00">tcl.h</text>
</g>
<!-- Node19&#45;&gt;Node20 -->
<g id="edge24" class="edge"><title>Node19&#45;&gt;Node20</title>
<path fill="none" stroke="midnightblue" d="M83.7389,-392.083C76.9632,-384.298 66.9568,-372.801 58.7449,-363.367"/>
<polygon fill="midnightblue" stroke="midnightblue" points="61.322,-360.996 52.1167,-355.751 56.0419,-365.592 61.322,-360.996"/>
</g>
<!-- Node21&#45;&gt;Node19 -->
<g id="edge26" class="edge"><title>Node21&#45;&gt;Node19</title>
<path fill="none" stroke="midnightblue" d="M57.2703,-448.083C63.0616,-440.455 71.5585,-429.264 78.6375,-419.941"/>
<polygon fill="midnightblue" stroke="midnightblue" points="81.5961,-421.832 84.8557,-411.751 76.021,-417.599 81.5961,-421.832"/>
</g>
<!-- Node22&#45;&gt;Node2 -->
<g id="edge28" class="edge"><title>Node22&#45;&gt;Node2</title>
<path fill="none" stroke="midnightblue" d="M299.932,-448.184C294.351,-413.67 279.106,-286.555 344.5,-224 362.563,-206.721 388.292,-195.548 409.759,-188.658"/>
<polygon fill="midnightblue" stroke="midnightblue" points="411.024,-191.932 419.591,-185.699 409.006,-185.229 411.024,-191.932"/>
</g>
<!-- Node23 -->
<g id="node23" class="node"><title>Node23</title>
<g id="a_node23"><a xlink:href="particle__data_8hpp.html" target="_top" xlink:title="For more information on particle_data, see particle_data.c. ">
<polygon fill="none" stroke="black" points="522,-224.5 522,-243.5 623,-243.5 623,-224.5 522,-224.5"/>
<text text-anchor="middle" x="572.5" y="-231.5" font-family="Helvetica,sans-Serif" font-size="10.00">particle_data.hpp</text>
</a>
</g>
</g>
<!-- Node22&#45;&gt;Node23 -->
<g id="edge29" class="edge"><title>Node22&#45;&gt;Node23</title>
<path fill="none" stroke="midnightblue" d="M343.191,-449.967C421.661,-435.789 586.408,-401.231 619.5,-356 625.729,-347.486 634.452,-316.993 618.5,-280 613.299,-267.939 603.174,-257.466 593.744,-249.665"/>
<polygon fill="midnightblue" stroke="midnightblue" points="595.835,-246.858 585.778,-243.525 591.562,-252.402 595.835,-246.858"/>
</g>
<!-- Node24 -->
<g id="node24" class="node"><title>Node24</title>
<g id="a_node24"><a xlink:href="statistics_8hpp.html" target="_top" xlink:title="This file contains the code for statistics on the data. ">
<polygon fill="none" stroke="black" points="325.5,-392.5 325.5,-411.5 407.5,-411.5 407.5,-392.5 325.5,-392.5"/>
<text text-anchor="middle" x="366.5" y="-399.5" font-family="Helvetica,sans-Serif" font-size="10.00">statistics.hpp</text>
</a>
</g>
</g>
<!-- Node22&#45;&gt;Node24 -->
<g id="edge31" class="edge"><title>Node22&#45;&gt;Node24</title>
<path fill="none" stroke="midnightblue" d="M311.943,-448.324C321.646,-440.263 336.315,-428.077 348,-418.369"/>
<polygon fill="midnightblue" stroke="midnightblue" points="350.411,-420.916 355.867,-411.834 345.938,-415.532 350.411,-420.916"/>
</g>
<!-- Node23&#45;&gt;Node2 -->
<g id="edge30" class="edge"><title>Node23&#45;&gt;Node2</title>
<path fill="none" stroke="midnightblue" d="M553.01,-224.444C532.858,-215.596 501.177,-201.687 478.169,-191.586"/>
<polygon fill="midnightblue" stroke="midnightblue" points="479.462,-188.332 468.899,-187.516 476.648,-194.741 479.462,-188.332"/>
</g>
<!-- Node24&#45;&gt;Node2 -->
<g id="edge54" class="edge"><title>Node24&#45;&gt;Node2</title>
<path fill="none" stroke="midnightblue" d="M356.591,-392.497C347.707,-384.199 335.218,-370.706 329.5,-356 317.25,-324.494 315.629,-312.008 326.5,-280 341.156,-236.847 387.985,-207.374 419.446,-191.867"/>
<polygon fill="midnightblue" stroke="midnightblue" points="421.123,-194.945 428.663,-187.503 418.127,-188.618 421.123,-194.945"/>
</g>
<!-- Node24&#45;&gt;Node14 -->
<g id="edge56" class="edge"><title>Node24&#45;&gt;Node14</title>
<path fill="none" stroke="midnightblue" d="M349.4,-392.434C281.655,-357.431 40.1466,-221.907 131.5,-112 157.849,-80.3 281.914,-70.8223 341.458,-68.0761"/>
<polygon fill="midnightblue" stroke="midnightblue" points="341.608,-71.573 351.45,-67.651 341.31,-64.5793 341.608,-71.573"/>
</g>
<!-- Node24&#45;&gt;Node17 -->
<g id="edge32" class="edge"><title>Node24&#45;&gt;Node17</title>
<path fill="none" stroke="midnightblue" d="M407.88,-401.246C533.111,-400.888 899.5,-391.272 899.5,-291 899.5,-291 899.5,-291 899.5,-233 899.5,-202.902 899.406,-191.419 880.5,-168 867.761,-152.221 847.95,-141.183 830.878,-133.989"/>
<polygon fill="midnightblue" stroke="midnightblue" points="831.803,-130.593 821.216,-130.191 829.242,-137.107 831.803,-130.593"/>
</g>
<!-- Node24&#45;&gt;Node23 -->
<g id="edge50" class="edge"><title>Node24&#45;&gt;Node23</title>
<path fill="none" stroke="midnightblue" d="M377.285,-392.309C410.519,-365.528 511.65,-284.035 553.774,-250.09"/>
<polygon fill="midnightblue" stroke="midnightblue" points="556.231,-252.605 561.821,-243.605 551.839,-247.154 556.231,-252.605"/>
</g>
<!-- Node25 -->
<g id="node25" class="node"><title>Node25</title>
<g id="a_node25"><a xlink:href="grid_8hpp.html" target="_top" xlink:title="Domain decomposition for parallel computing. ">
<polygon fill="none" stroke="black" points="554.5,-336.5 554.5,-355.5 610.5,-355.5 610.5,-336.5 554.5,-336.5"/>
<text text-anchor="middle" x="582.5" y="-343.5" font-family="Helvetica,sans-Serif" font-size="10.00">grid.hpp</text>
</a>
</g>
</g>
<!-- Node24&#45;&gt;Node25 -->
<g id="edge33" class="edge"><title>Node24&#45;&gt;Node25</title>
<path fill="none" stroke="midnightblue" d="M400.726,-392.444C439.876,-382.656 503.801,-366.675 544.475,-356.506"/>
<polygon fill="midnightblue" stroke="midnightblue" points="545.433,-359.875 554.285,-354.054 543.735,-353.084 545.433,-359.875"/>
</g>
<!-- Node29 -->
<g id="node29" class="node"><title>Node29</title>
<g id="a_node29"><a xlink:href="topology_8hpp.html" target="_top" xlink:title="This file contains functions for handling the system topology. ">
<polygon fill="none" stroke="black" points="386,-224.5 386,-243.5 465,-243.5 465,-224.5 386,-224.5"/>
<text text-anchor="middle" x="425.5" y="-231.5" font-family="Helvetica,sans-Serif" font-size="10.00">topology.hpp</text>
</a>
</g>
</g>
<!-- Node24&#45;&gt;Node29 -->
<g id="edge55" class="edge"><title>Node24&#45;&gt;Node29</title>
<path fill="none" stroke="midnightblue" d="M359.088,-392.411C352.224,-383.844 342.494,-369.979 338.5,-356 329.221,-323.522 320.939,-308.854 338.5,-280 347.96,-264.457 364.71,-254.045 381.005,-247.191"/>
<polygon fill="midnightblue" stroke="midnightblue" points="382.403,-250.403 390.487,-243.555 379.897,-243.868 382.403,-250.403"/>
</g>
<!-- Node35 -->
<g id="node35" class="node"><title>Node35</title>
<g id="a_node35"><a xlink:href="interaction__data_8hpp.html" target="_top" xlink:title="Various procedures concerning interactions between particles. ">
<polygon fill="none" stroke="black" points="348,-280.5 348,-299.5 465,-299.5 465,-280.5 348,-280.5"/>
<text text-anchor="middle" x="406.5" y="-287.5" font-family="Helvetica,sans-Serif" font-size="10.00">interaction_data.hpp</text>
</a>
</g>
</g>
<!-- Node24&#45;&gt;Node35 -->
<g id="edge51" class="edge"><title>Node24&#45;&gt;Node35</title>
<path fill="none" stroke="midnightblue" d="M373.359,-392.225C379.814,-383.521 389.248,-369.557 394.5,-356 400.271,-341.103 403.314,-323.185 404.89,-309.938"/>
<polygon fill="midnightblue" stroke="midnightblue" points="408.402,-309.994 405.928,-299.692 401.437,-309.288 408.402,-309.994"/>
</g>
<!-- Node36 -->
<g id="node36" class="node"><title>Node36</title>
<polygon fill="none" stroke="#bfbfbf" points="347.5,-336.5 347.5,-355.5 385.5,-355.5 385.5,-336.5 347.5,-336.5"/>
<text text-anchor="middle" x="366.5" y="-343.5" font-family="Helvetica,sans-Serif" font-size="10.00">map</text>
</g>
<!-- Node24&#45;&gt;Node36 -->
<g id="edge57" class="edge"><title>Node24&#45;&gt;Node36</title>
<path fill="none" stroke="midnightblue" d="M366.5,-392.083C366.5,-385.006 366.5,-374.861 366.5,-365.986"/>
<polygon fill="midnightblue" stroke="midnightblue" points="370,-365.751 366.5,-355.751 363,-365.751 370,-365.751"/>
</g>
<!-- Node25&#45;&gt;Node2 -->
<g id="edge34" class="edge"><title>Node25&#45;&gt;Node2</title>
<path fill="none" stroke="midnightblue" d="M575.349,-336.075C554.051,-309.493 490.792,-230.538 462.931,-195.763"/>
<polygon fill="midnightblue" stroke="midnightblue" points="465.349,-193.184 456.365,-187.568 459.886,-197.561 465.349,-193.184"/>
</g>
<!-- Node25&#45;&gt;Node13 -->
<g id="edge49" class="edge"><title>Node25&#45;&gt;Node13</title>
<path fill="none" stroke="midnightblue" d="M610.63,-344.58C652.406,-342.758 731.981,-334.582 788.5,-300 843.449,-266.379 854.223,-246.816 880.5,-188 886.984,-173.487 889.373,-155.536 890.203,-142.178"/>
<polygon fill="midnightblue" stroke="midnightblue" points="893.715,-141.949 890.596,-131.824 886.72,-141.684 893.715,-141.949"/>
</g>
<!-- Node26 -->
<g id="node26" class="node"><title>Node26</title>
<polygon fill="none" stroke="#bfbfbf" points="559.5,-280.5 559.5,-299.5 609.5,-299.5 609.5,-280.5 559.5,-280.5"/>
<text text-anchor="middle" x="584.5" y="-287.5" font-family="Helvetica,sans-Serif" font-size="10.00">climits</text>
</g>
<!-- Node25&#45;&gt;Node26 -->
<g id="edge35" class="edge"><title>Node25&#45;&gt;Node26</title>
<path fill="none" stroke="midnightblue" d="M582.83,-336.083C583.092,-329.006 583.468,-318.861 583.797,-309.986"/>
<polygon fill="midnightblue" stroke="midnightblue" points="587.303,-309.874 584.176,-299.751 580.308,-309.615 587.303,-309.874"/>
</g>
<!-- Node27 -->
<g id="node27" class="node"><title>Node27</title>
<g id="a_node27"><a xlink:href="communication_8hpp.html" target="_top" xlink:title="This file contains the asynchronous MPI communication. ">
<polygon fill="none" stroke="black" points="667,-280.5 667,-299.5 780,-299.5 780,-280.5 667,-280.5"/>
<text text-anchor="middle" x="723.5" y="-287.5" font-family="Helvetica,sans-Serif" font-size="10.00">communication.hpp</text>
</a>
</g>
</g>
<!-- Node25&#45;&gt;Node27 -->
<g id="edge36" class="edge"><title>Node25&#45;&gt;Node27</title>
<path fill="none" stroke="midnightblue" d="M604.842,-336.444C628.253,-327.478 665.236,-313.314 691.69,-303.183"/>
<polygon fill="midnightblue" stroke="midnightblue" points="693.176,-306.361 701.263,-299.516 690.672,-299.824 693.176,-306.361"/>
</g>
<!-- Node27&#45;&gt;Node23 -->
<g id="edge37" class="edge"><title>Node27&#45;&gt;Node23</title>
<path fill="none" stroke="midnightblue" d="M699.574,-280.444C674.281,-271.399 634.198,-257.064 605.82,-246.916"/>
<polygon fill="midnightblue" stroke="midnightblue" points="606.909,-243.588 596.314,-243.516 604.552,-250.179 606.909,-243.588"/>
</g>
<!-- Node28 -->
<g id="node28" class="node"><title>Node28</title>
<g id="a_node28"><a xlink:href="random_8hpp.html" target="_top" xlink:title="A random generator. ">
<polygon fill="none" stroke="black" points="641,-224.5 641,-243.5 716,-243.5 716,-224.5 641,-224.5"/>
<text text-anchor="middle" x="678.5" y="-231.5" font-family="Helvetica,sans-Serif" font-size="10.00">random.hpp</text>
</a>
</g>
</g>
<!-- Node27&#45;&gt;Node28 -->
<g id="edge38" class="edge"><title>Node27&#45;&gt;Node28</title>
<path fill="none" stroke="midnightblue" d="M716.069,-280.083C709.647,-272.377 700.194,-261.033 692.378,-251.653"/>
<polygon fill="midnightblue" stroke="midnightblue" points="694.883,-249.193 685.793,-243.751 689.506,-253.674 694.883,-249.193"/>
</g>
<!-- Node27&#45;&gt;Node29 -->
<g id="edge40" class="edge"><title>Node27&#45;&gt;Node29</title>
<path fill="none" stroke="midnightblue" d="M676.281,-280.444C621.433,-270.505 531.34,-254.179 475.381,-244.039"/>
<polygon fill="midnightblue" stroke="midnightblue" points="475.809,-240.56 465.345,-242.22 474.561,-247.447 475.809,-240.56"/>
</g>
<!-- Node30 -->
<g id="node30" class="node"><title>Node30</title>
<g id="a_node30"><a xlink:href="mpi_8h.html" target="_top" xlink:title="This is the MPIfake implementation. ">
<polygon fill="none" stroke="black" points="772.5,-224.5 772.5,-243.5 816.5,-243.5 816.5,-224.5 772.5,-224.5"/>
<text text-anchor="middle" x="794.5" y="-231.5" font-family="Helvetica,sans-Serif" font-size="10.00">mpi.h</text>
</a>
</g>
</g>
<!-- Node27&#45;&gt;Node30 -->
<g id="edge42" class="edge"><title>Node27&#45;&gt;Node30</title>
<path fill="none" stroke="midnightblue" d="M734.907,-280.324C745.609,-272.185 761.841,-259.839 774.663,-250.087"/>
<polygon fill="midnightblue" stroke="midnightblue" points="777.044,-252.673 782.885,-243.834 772.807,-247.102 777.044,-252.673"/>
</g>
<!-- Node34 -->
<g id="node34" class="node"><title>Node34</title>
<g id="a_node34"><a xlink:href="cuda__init_8hpp.html" target="_top" xlink:title="cuda_init.hpp">
<polygon fill="none" stroke="black" points="578.5,-168.5 578.5,-187.5 660.5,-187.5 660.5,-168.5 578.5,-168.5"/>
<text text-anchor="middle" x="619.5" y="-175.5" font-family="Helvetica,sans-Serif" font-size="10.00">cuda_init.hpp</text>
</a>
</g>
</g>
<!-- Node27&#45;&gt;Node34 -->
<g id="edge46" class="edge"><title>Node27&#45;&gt;Node34</title>
<path fill="none" stroke="midnightblue" d="M726.537,-280.145C730.532,-266.767 735.807,-241.148 724.5,-224 716.731,-212.218 685.149,-199.628 658.632,-190.77"/>
<polygon fill="midnightblue" stroke="midnightblue" points="659.369,-187.33 648.777,-187.568 657.205,-193.987 659.369,-187.33"/>
</g>
<!-- Node28&#45;&gt;Node2 -->
<g id="edge39" class="edge"><title>Node28&#45;&gt;Node2</title>
<path fill="none" stroke="midnightblue" d="M642.214,-224.444C600.415,-214.587 531.979,-198.449 488.906,-188.292"/>
<polygon fill="midnightblue" stroke="midnightblue" points="489.598,-184.86 479.062,-185.971 487.992,-191.673 489.598,-184.86"/>
</g>
<!-- Node29&#45;&gt;Node2 -->
<g id="edge41" class="edge"><title>Node29&#45;&gt;Node2</title>
<path fill="none" stroke="midnightblue" d="M429.463,-224.083C432.713,-216.77 437.419,-206.181 441.454,-197.103"/>
<polygon fill="midnightblue" stroke="midnightblue" points="444.748,-198.311 445.611,-187.751 438.351,-195.468 444.748,-198.311"/>
</g>
<!-- Node31 -->
<g id="node31" class="node"><title>Node31</title>
<polygon fill="none" stroke="#bfbfbf" points="750,-168.5 750,-187.5 803,-187.5 803,-168.5 750,-168.5"/>
<text text-anchor="middle" x="776.5" y="-175.5" font-family="Helvetica,sans-Serif" font-size="10.00">string.h</text>
</g>
<!-- Node30&#45;&gt;Node31 -->
<g id="edge43" class="edge"><title>Node30&#45;&gt;Node31</title>
<path fill="none" stroke="midnightblue" d="M791.528,-224.083C789.116,-216.849 785.636,-206.409 782.632,-197.397"/>
<polygon fill="midnightblue" stroke="midnightblue" points="785.9,-196.131 779.417,-187.751 779.259,-198.345 785.9,-196.131"/>
</g>
<!-- Node32 -->
<g id="node32" class="node"><title>Node32</title>
<polygon fill="none" stroke="#bfbfbf" points="821.5,-168.5 821.5,-187.5 871.5,-187.5 871.5,-168.5 821.5,-168.5"/>
<text text-anchor="middle" x="846.5" y="-175.5" font-family="Helvetica,sans-Serif" font-size="10.00">stdio.h</text>
</g>
<!-- Node30&#45;&gt;Node32 -->
<g id="edge44" class="edge"><title>Node30&#45;&gt;Node32</title>
<path fill="none" stroke="midnightblue" d="M803.087,-224.083C810.659,-216.22 821.878,-204.569 831.014,-195.081"/>
<polygon fill="midnightblue" stroke="midnightblue" points="833.658,-197.382 838.073,-187.751 828.615,-192.527 833.658,-197.382"/>
</g>
<!-- Node33 -->
<g id="node33" class="node"><title>Node33</title>
<polygon fill="none" stroke="#bfbfbf" points="679,-168.5 679,-187.5 732,-187.5 732,-168.5 679,-168.5"/>
<text text-anchor="middle" x="705.5" y="-175.5" font-family="Helvetica,sans-Serif" font-size="10.00">stdlib.h</text>
</g>
<!-- Node30&#45;&gt;Node33 -->
<g id="edge45" class="edge"><title>Node30&#45;&gt;Node33</title>
<path fill="none" stroke="midnightblue" d="M780.201,-224.324C766.317,-215.9 745.008,-202.971 728.696,-193.074"/>
<polygon fill="midnightblue" stroke="midnightblue" points="730.129,-189.85 719.764,-187.655 726.498,-195.834 730.129,-189.85"/>
</g>
<!-- Node34&#45;&gt;Node7 -->
<g id="edge47" class="edge"><title>Node34&#45;&gt;Node7</title>
<path fill="none" stroke="midnightblue" d="M660.613,-169.995C682.671,-163.917 708.024,-152.674 721.5,-132 730.732,-117.837 724.819,-98.6059 718.068,-84.7404"/>
<polygon fill="midnightblue" stroke="midnightblue" points="721.04,-82.8779 713.209,-75.7418 714.881,-86.2039 721.04,-82.8779"/>
</g>
<!-- Node34&#45;&gt;Node17 -->
<g id="edge48" class="edge"><title>Node34&#45;&gt;Node17</title>
<path fill="none" stroke="midnightblue" d="M647.705,-168.444C679.331,-158.849 730.578,-143.302 764.161,-133.114"/>
<polygon fill="midnightblue" stroke="midnightblue" points="765.422,-136.389 773.975,-130.137 763.389,-129.691 765.422,-136.389"/>
</g>
<!-- Node35&#45;&gt;Node2 -->
<g id="edge52" class="edge"><title>Node35&#45;&gt;Node2</title>
<path fill="none" stroke="midnightblue" d="M397.254,-280.38C384.856,-267.733 365.595,-243.534 376.5,-224 384.656,-209.391 399.72,-198.936 414.054,-191.804"/>
<polygon fill="midnightblue" stroke="midnightblue" points="415.646,-194.924 423.289,-187.586 412.738,-188.557 415.646,-194.924"/>
</g>
<!-- Node35&#45;&gt;Node23 -->
<g id="edge53" class="edge"><title>Node35&#45;&gt;Node23</title>
<path fill="none" stroke="midnightblue" d="M432.803,-280.444C460.851,-271.32 505.444,-256.813 536.684,-246.651"/>
<polygon fill="midnightblue" stroke="midnightblue" points="537.893,-249.938 546.32,-243.516 535.728,-243.282 537.893,-249.938"/>
</g>
</g>
</svg>
        <g id="navigator" transform="translate(0 0)" fill="#404254">
                <rect fill="#f2f5e9" fill-opacity="0.5" stroke="#606060" stroke-width=".5" x="0" y="0" width="60" height="60"/>
                <use id="zoomplus" xlink:href="#zoomPlus" x="17" y="9" onmousedown="handleZoom(evt,'in')"/>
                <use id="zoomminus" xlink:href="#zoomMin" x="42" y="9" onmousedown="handleZoom(evt,'out')"/>
                <use id="reset" xlink:href="#resetDef" x="30" y="36" onmousedown="handleReset()"/>
                <g id="arrowUp" xlink:href="#dirArrow" transform="translate(30 24)" onmousedown="handlePan(0,-1)">
                  <use xlink:href="#rim" fill="#404040">
                        <set attributeName="fill" to="#808080" begin="arrowUp.mouseover" end="arrowUp.mouseout"/>
                  </use>
                  <path fill="none" stroke="white" stroke-width="1.5" d="M0,-3.0v7 M-2.5,-0.5L0,-3.0L2.5,-0.5"/>
                </g>
                <g id="arrowRight" xlink:href="#dirArrow" transform="rotate(90) translate(36 -43)" onmousedown="handlePan(1,0)">
                  <use xlink:href="#rim" fill="#404040">
                        <set attributeName="fill" to="#808080" begin="arrowRight.mouseover" end="arrowRight.mouseout"/>
                  </use>
                  <path fill="none" stroke="white" stroke-width="1.5" d="M0,-3.0v7 M-2.5,-0.5L0,-3.0L2.5,-0.5"/>
                </g>
                <g id="arrowDown" xlink:href="#dirArrow" transform="rotate(180) translate(-30 -48)" onmousedown="handlePan(0,1)">
                  <use xlink:href="#rim" fill="#404040">
                        <set attributeName="fill" to="#808080" begin="arrowDown.mouseover" end="arrowDown.mouseout"/>
                  </use>
                  <path fill="none" stroke="white" stroke-width="1.5" d="M0,-3.0v7 M-2.5,-0.5L0,-3.0L2.5,-0.5"/>
                </g>
                <g id="arrowLeft" xlink:href="#dirArrow" transform="rotate(270) translate(-36 17)" onmousedown="handlePan(-1,0)">
                  <use xlink:href="#rim" fill="#404040">
                        <set attributeName="fill" to="#808080" begin="arrowLeft.mouseover" end="arrowLeft.mouseout"/>
                  </use>
                  <path fill="none" stroke="white" stroke-width="1.5" d="M0,-3.0v7 M-2.5,-0.5L0,-3.0L2.5,-0.5"/>
                </g>
        </g>
        <svg viewBox="0 0 15 15" width="100%" height="30px" preserveAspectRatio="xMaxYMin meet">
         <g id="arrow_out" transform="scale(0.3 0.3)">
          <a xlink:href="comforce__tcl_8cpp__incl_org.svg" target="_base">
           <rect id="button" ry="5" rx="5" y="6" x="6" height="38" width="38"
                fill="#f2f5e9" fill-opacity="0.5" stroke="#606060" stroke-width="1.0"/>
           <path id="arrow"
             d="M 11.500037,31.436501 C 11.940474,20.09759 22.043105,11.32322 32.158766,21.979434 L 37.068811,17.246167 C 37.068811,17.246167 37.088388,32 37.088388,32 L 22.160133,31.978069 C 22.160133,31.978069 26.997745,27.140456 26.997745,27.140456 C 18.528582,18.264221 13.291696,25.230495 11.500037,31.436501 z"
             style="fill:#404040;"/>
          </a>
         </g>
        </svg>
</svg>
