<?xml version="1.0" encoding="UTF-8" standalone="no"?>
<!DOCTYPE svg PUBLIC "-//W3C//DTD SVG 1.1//EN"
 "http://www.w3.org/Graphics/SVG/1.1/DTD/svg11.dtd">
<!-- Generated by graphviz version 2.38.0 (20140413.2041)
 -->
<!-- Title: constraint_tcl.cpp Pages: 1 -->
<svg width="1010pt" height="420pt"
 viewBox="0.00 0.00 1009.63 420.00" xmlns="http://www.w3.org/2000/svg" xmlns:xlink="http://www.w3.org/1999/xlink">
<g id="graph0" class="graph" transform="scale(1 1) rotate(0) translate(4 416)">
<title>constraint_tcl.cpp</title>
<!-- Node1 -->
<g id="node1" class="node"><title>Node1</title>
<polygon fill="#bfbfbf" stroke="black" points="546.5,-392.5 546.5,-411.5 649.5,-411.5 649.5,-392.5 546.5,-392.5"/>
<text text-anchor="middle" x="598" y="-399.5" font-family="Helvetica,sans-Serif" font-size="10.00">constraint_tcl.cpp</text>
</g>
<!-- Node2 -->
<g id="node2" class="node"><title>Node2</title>
<polygon fill="none" stroke="#bfbfbf" points="455,-336.5 455,-355.5 499,-355.5 499,-336.5 455,-336.5"/>
<text text-anchor="middle" x="477" y="-343.5" font-family="Helvetica,sans-Serif" font-size="10.00">limits</text>
</g>
<!-- Node1&#45;&gt;Node2 -->
<g id="edge1" class="edge"><title>Node1&#45;&gt;Node2</title>
<path fill="none" stroke="midnightblue" d="M578.827,-392.444C559.091,-383.636 528.115,-369.812 505.507,-359.722"/>
<polygon fill="midnightblue" stroke="midnightblue" points="506.641,-356.396 496.083,-355.516 503.789,-362.788 506.641,-356.396"/>
</g>
<!-- Node3 -->
<g id="node3" class="node"><title>Node3</title>
<g id="a_node3"><a xlink:href="constraint_8hpp.html" target="_top" xlink:title="Routines for handling of constraints. ">
<polygon fill="none" stroke="black" points="555,-336.5 555,-355.5 641,-355.5 641,-336.5 555,-336.5"/>
<text text-anchor="middle" x="598" y="-343.5" font-family="Helvetica,sans-Serif" font-size="10.00">constraint.hpp</text>
</a>
</g>
</g>
<!-- Node1&#45;&gt;Node3 -->
<g id="edge2" class="edge"><title>Node1&#45;&gt;Node3</title>
<path fill="none" stroke="midnightblue" d="M598,-392.083C598,-385.006 598,-374.861 598,-365.986"/>
<polygon fill="midnightblue" stroke="midnightblue" points="601.5,-365.751 598,-355.751 594.5,-365.751 601.5,-365.751"/>
</g>
<!-- Node23 -->
<g id="node23" class="node"><title>Node23</title>
<g id="a_node23"><a xlink:href="communication_8hpp.html" target="_top" xlink:title="This file contains the asynchronous MPI communication. ">
<polygon fill="none" stroke="black" points="315.5,-280.5 315.5,-299.5 428.5,-299.5 428.5,-280.5 315.5,-280.5"/>
<text text-anchor="middle" x="372" y="-287.5" font-family="Helvetica,sans-Serif" font-size="10.00">communication.hpp</text>
</a>
</g>
</g>
<!-- Node1&#45;&gt;Node23 -->
<g id="edge27" class="edge"><title>Node1&#45;&gt;Node23</title>
<path fill="none" stroke="midnightblue" d="M588.141,-392.298C572.257,-378.658 539.578,-352.141 508,-336 479.233,-321.296 444.642,-309.928 417.544,-302.296"/>
<polygon fill="midnightblue" stroke="midnightblue" points="418.124,-298.825 407.554,-299.554 416.271,-305.576 418.124,-298.825"/>
</g>
<!-- Node31 -->
<g id="node31" class="node"><title>Node31</title>
<g id="a_node31"><a xlink:href="parser_8hpp.html" target="_top" xlink:title="This file contains macros for parsing the parameters to the &#39;inter&#39; command. ">
<polygon fill="none" stroke="black" points="639,-224.5 639,-243.5 707,-243.5 707,-224.5 639,-224.5"/>
<text text-anchor="middle" x="673" y="-231.5" font-family="Helvetica,sans-Serif" font-size="10.00">parser.hpp</text>
</a>
</g>
</g>
<!-- Node1&#45;&gt;Node31 -->
<g id="edge40" class="edge"><title>Node1&#45;&gt;Node31</title>
<path fill="none" stroke="midnightblue" d="M612.004,-392.369C623.841,-384.36 640.367,-371.379 650,-356 669.982,-324.099 673.358,-278.855 673.518,-253.703"/>
<polygon fill="midnightblue" stroke="midnightblue" points="677.018,-253.644 673.414,-243.681 670.018,-253.717 677.018,-253.644"/>
</g>
<!-- Node33 -->
<g id="node33" class="node"><title>Node33</title>
<g id="a_node33"><a xlink:href="TclOutputHelper_8hpp.html" target="_top" xlink:title="TclOutputHelper.hpp">
<polygon fill="none" stroke="black" points="725.5,-224.5 725.5,-243.5 840.5,-243.5 840.5,-224.5 725.5,-224.5"/>
<text text-anchor="middle" x="783" y="-231.5" font-family="Helvetica,sans-Serif" font-size="10.00">TclOutputHelper.hpp</text>
</a>
</g>
</g>
<!-- Node1&#45;&gt;Node33 -->
<g id="edge44" class="edge"><title>Node1&#45;&gt;Node33</title>
<path fill="none" stroke="midnightblue" d="M614,-392.399C628.918,-384.032 651.442,-370.492 669,-356 709.243,-322.783 749.504,-276.133 769.685,-251.591"/>
<polygon fill="midnightblue" stroke="midnightblue" points="772.578,-253.581 776.175,-243.616 767.148,-249.163 772.578,-253.581"/>
</g>
<!-- Node4 -->
<g id="node4" class="node"><title>Node4</title>
<g id="a_node4"><a xlink:href="particle__data_8hpp.html" target="_top" xlink:title="For more information on particle_data, see particle_data.c. ">
<polygon fill="none" stroke="black" points="475.5,-224.5 475.5,-243.5 576.5,-243.5 576.5,-224.5 475.5,-224.5"/>
<text text-anchor="middle" x="526" y="-231.5" font-family="Helvetica,sans-Serif" font-size="10.00">particle_data.hpp</text>
</a>
</g>
</g>
<!-- Node3&#45;&gt;Node4 -->
<g id="edge3" class="edge"><title>Node3&#45;&gt;Node4</title>
<path fill="none" stroke="midnightblue" d="M575.206,-336.38C559.599,-329.18 539.984,-317.284 530,-300 521.959,-286.08 521.616,-267.571 522.901,-253.865"/>
<polygon fill="midnightblue" stroke="midnightblue" points="526.405,-254.056 524.229,-243.687 519.464,-253.15 526.405,-254.056"/>
</g>
<!-- Node22 -->
<g id="node22" class="node"><title>Node22</title>
<g id="a_node22"><a xlink:href="interaction__data_8hpp.html" target="_top" xlink:title="Various procedures concerning interactions between particles. ">
<polygon fill="none" stroke="black" points="539.5,-280.5 539.5,-299.5 656.5,-299.5 656.5,-280.5 539.5,-280.5"/>
<text text-anchor="middle" x="598" y="-287.5" font-family="Helvetica,sans-Serif" font-size="10.00">interaction_data.hpp</text>
</a>
</g>
</g>
<!-- Node3&#45;&gt;Node22 -->
<g id="edge24" class="edge"><title>Node3&#45;&gt;Node22</title>
<path fill="none" stroke="midnightblue" d="M598,-336.083C598,-329.006 598,-318.861 598,-309.986"/>
<polygon fill="midnightblue" stroke="midnightblue" points="601.5,-309.751 598,-299.751 594.5,-309.751 601.5,-309.751"/>
</g>
<!-- Node5 -->
<g id="node5" class="node"><title>Node5</title>
<g id="a_node5"><a xlink:href="utils_8hpp.html" target="_top" xlink:title="Small functions that are useful not only for one modul. ">
<polygon fill="none" stroke="black" points="502.5,-168.5 502.5,-187.5 561.5,-187.5 561.5,-168.5 502.5,-168.5"/>
<text text-anchor="middle" x="532" y="-175.5" font-family="Helvetica,sans-Serif" font-size="10.00">utils.hpp</text>
</a>
</g>
</g>
<!-- Node4&#45;&gt;Node5 -->
<g id="edge4" class="edge"><title>Node4&#45;&gt;Node5</title>
<path fill="none" stroke="midnightblue" d="M526.991,-224.083C527.786,-216.927 528.929,-206.635 529.923,-197.691"/>
<polygon fill="midnightblue" stroke="midnightblue" points="533.402,-198.076 531.028,-187.751 526.445,-197.303 533.402,-198.076"/>
</g>
<!-- Node6 -->
<g id="node6" class="node"><title>Node6</title>
<polygon fill="none" stroke="#bfbfbf" points="873.5,-112.5 873.5,-131.5 920.5,-131.5 920.5,-112.5 873.5,-112.5"/>
<text text-anchor="middle" x="897" y="-119.5" font-family="Helvetica,sans-Serif" font-size="10.00">cmath</text>
</g>
<!-- Node5&#45;&gt;Node6 -->
<g id="edge5" class="edge"><title>Node5&#45;&gt;Node6</title>
<path fill="none" stroke="midnightblue" d="M561.529,-174.314C618.183,-168.88 746.166,-155.245 863.434,-131.861"/>
<polygon fill="midnightblue" stroke="midnightblue" points="864.189,-135.279 873.296,-129.865 862.801,-128.418 864.189,-135.279"/>
</g>
<!-- Node7 -->
<g id="node7" class="node"><title>Node7</title>
<polygon fill="none" stroke="#bfbfbf" points="292,-112.5 292,-131.5 338,-131.5 338,-112.5 292,-112.5"/>
<text text-anchor="middle" x="315" y="-119.5" font-family="Helvetica,sans-Serif" font-size="10.00">cstdio</text>
</g>
<!-- Node5&#45;&gt;Node7 -->
<g id="edge6" class="edge"><title>Node5&#45;&gt;Node7</title>
<path fill="none" stroke="midnightblue" d="M502.282,-169.605C461.855,-159.545 389.768,-141.606 347.8,-131.162"/>
<polygon fill="midnightblue" stroke="midnightblue" points="348.617,-127.759 338.068,-128.74 346.927,-134.552 348.617,-127.759"/>
</g>
<!-- Node8 -->
<g id="node8" class="node"><title>Node8</title>
<polygon fill="none" stroke="#bfbfbf" points="806.5,-112.5 806.5,-131.5 855.5,-131.5 855.5,-112.5 806.5,-112.5"/>
<text text-anchor="middle" x="831" y="-119.5" font-family="Helvetica,sans-Serif" font-size="10.00">cstdlib</text>
</g>
<!-- Node5&#45;&gt;Node8 -->
<g id="edge7" class="edge"><title>Node5&#45;&gt;Node8</title>
<path fill="none" stroke="midnightblue" d="M561.578,-172.871C608.991,-166.06 705.104,-151.464 796.241,-131.995"/>
<polygon fill="midnightblue" stroke="midnightblue" points="797.145,-135.38 806.18,-129.848 795.667,-128.538 797.145,-135.38"/>
</g>
<!-- Node9 -->
<g id="node9" class="node"><title>Node9</title>
<polygon fill="none" stroke="#bfbfbf" points="939,-112.5 939,-131.5 989,-131.5 989,-112.5 939,-112.5"/>
<text text-anchor="middle" x="964" y="-119.5" font-family="Helvetica,sans-Serif" font-size="10.00">cstring</text>
</g>
<!-- Node5&#45;&gt;Node9 -->
<g id="edge8" class="edge"><title>Node5&#45;&gt;Node9</title>
<path fill="none" stroke="midnightblue" d="M561.591,-175.057C627.829,-170.401 792.909,-157.085 929,-132 929.1,-131.982 929.201,-131.963 929.301,-131.944"/>
<polygon fill="midnightblue" stroke="midnightblue" points="929.806,-135.415 938.858,-129.91 928.348,-128.569 929.806,-135.415"/>
</g>
<!-- Node10 -->
<g id="node10" class="node"><title>Node10</title>
<g id="a_node10"><a xlink:href="config_8hpp.html" target="_top" xlink:title="This file contains the defaults for Espresso. ">
<polygon fill="none" stroke="black" points="394.5,-56.5 394.5,-75.5 461.5,-75.5 461.5,-56.5 394.5,-56.5"/>
<text text-anchor="middle" x="428" y="-63.5" font-family="Helvetica,sans-Serif" font-size="10.00">config.hpp</text>
</a>
</g>
</g>
<!-- Node5&#45;&gt;Node10 -->
<g id="edge9" class="edge"><title>Node5&#45;&gt;Node10</title>
<path fill="none" stroke="midnightblue" d="M502.207,-177.516C467.624,-176.306 411.903,-168.371 385,-132 372.666,-115.326 390.518,-95.3163 406.83,-81.9432"/>
<polygon fill="midnightblue" stroke="midnightblue" points="409.267,-84.484 415.051,-75.6077 404.994,-78.9393 409.267,-84.484"/>
</g>
<!-- Node14 -->
<g id="node14" class="node"><title>Node14</title>
<g id="a_node14"><a xlink:href="debug_8hpp.html" target="_top" xlink:title="This file controls debug facilities. ">
<polygon fill="none" stroke="black" points="394,-112.5 394,-131.5 462,-131.5 462,-112.5 394,-112.5"/>
<text text-anchor="middle" x="428" y="-119.5" font-family="Helvetica,sans-Serif" font-size="10.00">debug.hpp</text>
</a>
</g>
</g>
<!-- Node5&#45;&gt;Node14 -->
<g id="edge13" class="edge"><title>Node5&#45;&gt;Node14</title>
<path fill="none" stroke="midnightblue" d="M515.291,-168.324C498.688,-159.703 472.998,-146.364 453.78,-136.386"/>
<polygon fill="midnightblue" stroke="midnightblue" points="455.156,-133.156 444.668,-131.655 451.93,-139.369 455.156,-133.156"/>
</g>
<!-- Node15 -->
<g id="node15" class="node"><title>Node15</title>
<g id="a_node15"><a xlink:href="lees__edwards_8hpp.html" target="_top" xlink:title="lees_edwards.hpp">
<polygon fill="none" stroke="black" points="480,-112.5 480,-131.5 584,-131.5 584,-112.5 480,-112.5"/>
<text text-anchor="middle" x="532" y="-119.5" font-family="Helvetica,sans-Serif" font-size="10.00">lees_edwards.hpp</text>
</a>
</g>
</g>
<!-- Node5&#45;&gt;Node15 -->
<g id="edge15" class="edge"><title>Node5&#45;&gt;Node15</title>
<path fill="none" stroke="midnightblue" d="M532,-168.083C532,-161.006 532,-150.861 532,-141.986"/>
<polygon fill="midnightblue" stroke="midnightblue" points="535.5,-141.751 532,-131.751 528.5,-141.751 535.5,-141.751"/>
</g>
<!-- Node16 -->
<g id="node16" class="node"><title>Node16</title>
<g id="a_node16"><a xlink:href="errorhandling_8hpp.html" target="_top" xlink:title="This file contains the errorhandling code for severe errors, like a broken bond or illegal parameter ...">
<polygon fill="none" stroke="black" points="685.5,-112.5 685.5,-131.5 788.5,-131.5 788.5,-112.5 685.5,-112.5"/>
<text text-anchor="middle" x="737" y="-119.5" font-family="Helvetica,sans-Serif" font-size="10.00">errorhandling.hpp</text>
</a>
</g>
</g>
<!-- Node5&#45;&gt;Node16 -->
<g id="edge17" class="edge"><title>Node5&#45;&gt;Node16</title>
<path fill="none" stroke="midnightblue" d="M561.809,-169.148C596.746,-159.945 654.896,-144.627 694.54,-134.185"/>
<polygon fill="midnightblue" stroke="midnightblue" points="695.666,-137.507 704.445,-131.576 693.883,-130.738 695.666,-137.507"/>
</g>
<!-- Node20 -->
<g id="node20" class="node"><title>Node20</title>
<polygon fill="none" stroke="#bfbfbf" points="226.5,-112.5 226.5,-131.5 273.5,-131.5 273.5,-112.5 226.5,-112.5"/>
<text text-anchor="middle" x="250" y="-119.5" font-family="Helvetica,sans-Serif" font-size="10.00">vector</text>
</g>
<!-- Node5&#45;&gt;Node20 -->
<g id="edge22" class="edge"><title>Node5&#45;&gt;Node20</title>
<path fill="none" stroke="midnightblue" d="M502.317,-172.497C457.207,-165.468 368.523,-150.922 283.538,-131.952"/>
<polygon fill="midnightblue" stroke="midnightblue" points="284.256,-128.526 273.731,-129.739 282.715,-135.354 284.256,-128.526"/>
</g>
<!-- Node21 -->
<g id="node21" class="node"><title>Node21</title>
<polygon fill="none" stroke="#bfbfbf" points="602.5,-112.5 602.5,-131.5 667.5,-131.5 667.5,-112.5 602.5,-112.5"/>
<text text-anchor="middle" x="635" y="-119.5" font-family="Helvetica,sans-Serif" font-size="10.00">exception</text>
</g>
<!-- Node5&#45;&gt;Node21 -->
<g id="edge23" class="edge"><title>Node5&#45;&gt;Node21</title>
<path fill="none" stroke="midnightblue" d="M548.549,-168.324C564.992,-159.703 590.435,-146.364 609.468,-136.386"/>
<polygon fill="midnightblue" stroke="midnightblue" points="611.261,-139.398 618.492,-131.655 608.011,-133.198 611.261,-139.398"/>
</g>
<!-- Node11 -->
<g id="node11" class="node"><title>Node11</title>
<g id="a_node11"><a xlink:href="acconfig_8hpp.html" target="_top" xlink:title="acconfig.hpp">
<polygon fill="none" stroke="black" points="278,-0.5 278,-19.5 356,-19.5 356,-0.5 278,-0.5"/>
<text text-anchor="middle" x="317" y="-7.5" font-family="Helvetica,sans-Serif" font-size="10.00">acconfig.hpp</text>
</a>
</g>
</g>
<!-- Node10&#45;&gt;Node11 -->
<g id="edge10" class="edge"><title>Node10&#45;&gt;Node11</title>
<path fill="none" stroke="midnightblue" d="M410.166,-56.324C392.284,-47.6247 364.525,-34.1202 343.954,-24.113"/>
<polygon fill="midnightblue" stroke="midnightblue" points="345.313,-20.8819 334.79,-19.6545 342.251,-27.1765 345.313,-20.8819"/>
</g>
<!-- Node12 -->
<g id="node12" class="node"><title>Node12</title>
<g id="a_node12"><a xlink:href="myconfig-final_8hpp.html" target="_top" xlink:title="myconfig&#45;final.hpp">
<polygon fill="none" stroke="black" points="374.5,-0.5 374.5,-19.5 481.5,-19.5 481.5,-0.5 374.5,-0.5"/>
<text text-anchor="middle" x="428" y="-7.5" font-family="Helvetica,sans-Serif" font-size="10.00">myconfig&#45;final.hpp</text>
</a>
</g>
</g>
<!-- Node10&#45;&gt;Node12 -->
<g id="edge11" class="edge"><title>Node10&#45;&gt;Node12</title>
<path fill="none" stroke="midnightblue" d="M428,-56.083C428,-49.0059 428,-38.8611 428,-29.9865"/>
<polygon fill="midnightblue" stroke="midnightblue" points="431.5,-29.751 428,-19.7511 424.5,-29.7511 431.5,-29.751"/>
</g>
<!-- Node13 -->
<g id="node13" class="node"><title>Node13</title>
<g id="a_node13"><a xlink:href="config-features_8hpp.html" target="_top" xlink:title="config&#45;features.hpp">
<polygon fill="none" stroke="black" points="499.5,-0.5 499.5,-19.5 610.5,-19.5 610.5,-0.5 499.5,-0.5"/>
<text text-anchor="middle" x="555" y="-7.5" font-family="Helvetica,sans-Serif" font-size="10.00">config&#45;features.hpp</text>
</a>
</g>
</g>
<!-- Node10&#45;&gt;Node13 -->
<g id="edge12" class="edge"><title>Node10&#45;&gt;Node13</title>
<path fill="none" stroke="midnightblue" d="M448.124,-56.4435C469.024,-47.5566 501.935,-33.5632 525.716,-23.4514"/>
<polygon fill="midnightblue" stroke="midnightblue" points="527.138,-26.6504 534.971,-19.5164 524.398,-20.2085 527.138,-26.6504"/>
</g>
<!-- Node14&#45;&gt;Node10 -->
<g id="edge14" class="edge"><title>Node14&#45;&gt;Node10</title>
<path fill="none" stroke="midnightblue" d="M428,-112.083C428,-105.006 428,-94.8611 428,-85.9865"/>
<polygon fill="midnightblue" stroke="midnightblue" points="431.5,-85.751 428,-75.7511 424.5,-85.7511 431.5,-85.751"/>
</g>
<!-- Node15&#45;&gt;Node10 -->
<g id="edge16" class="edge"><title>Node15&#45;&gt;Node10</title>
<path fill="none" stroke="midnightblue" d="M515.291,-112.324C498.688,-103.703 472.998,-90.3643 453.78,-80.3855"/>
<polygon fill="midnightblue" stroke="midnightblue" points="455.156,-77.1565 444.668,-75.6545 451.93,-83.3689 455.156,-77.1565"/>
</g>
<!-- Node16&#45;&gt;Node10 -->
<g id="edge18" class="edge"><title>Node16&#45;&gt;Node10</title>
<path fill="none" stroke="midnightblue" d="M688.038,-112.444C628.602,-102.057 529.251,-84.6944 472.099,-74.7066"/>
<polygon fill="midnightblue" stroke="midnightblue" points="472.391,-71.2046 461.937,-72.9308 471.185,-78.1001 472.391,-71.2046"/>
</g>
<!-- Node17 -->
<g id="node17" class="node"><title>Node17</title>
<polygon fill="none" stroke="#bfbfbf" points="687,-56.5 687,-75.5 731,-75.5 731,-56.5 687,-56.5"/>
<text text-anchor="middle" x="709" y="-63.5" font-family="Helvetica,sans-Serif" font-size="10.00">string</text>
</g>
<!-- Node16&#45;&gt;Node17 -->
<g id="edge19" class="edge"><title>Node16&#45;&gt;Node17</title>
<path fill="none" stroke="midnightblue" d="M732.376,-112.083C728.544,-104.691 722.976,-93.9533 718.235,-84.8111"/>
<polygon fill="midnightblue" stroke="midnightblue" points="721.248,-83.0175 713.538,-75.7511 715.034,-86.2398 721.248,-83.0175"/>
</g>
<!-- Node18 -->
<g id="node18" class="node"><title>Node18</title>
<polygon fill="none" stroke="#bfbfbf" points="908,-56.5 908,-75.5 964,-75.5 964,-56.5 908,-56.5"/>
<text text-anchor="middle" x="936" y="-63.5" font-family="Helvetica,sans-Serif" font-size="10.00">sstream</text>
</g>
<!-- Node16&#45;&gt;Node18 -->
<g id="edge20" class="edge"><title>Node16&#45;&gt;Node18</title>
<path fill="none" stroke="midnightblue" d="M768.532,-112.444C803.594,-102.929 860.224,-87.5622 897.78,-77.3713"/>
<polygon fill="midnightblue" stroke="midnightblue" points="899.099,-80.6401 907.833,-74.6433 897.265,-73.8844 899.099,-80.6401"/>
</g>
<!-- Node19 -->
<g id="node19" class="node"><title>Node19</title>
<polygon fill="none" stroke="#bfbfbf" points="749,-56.5 749,-75.5 781,-75.5 781,-56.5 749,-56.5"/>
<text text-anchor="middle" x="765" y="-63.5" font-family="Helvetica,sans-Serif" font-size="10.00">list</text>
</g>
<!-- Node16&#45;&gt;Node19 -->
<g id="edge21" class="edge"><title>Node16&#45;&gt;Node19</title>
<path fill="none" stroke="midnightblue" d="M741.624,-112.083C745.456,-104.691 751.024,-93.9533 755.765,-84.8111"/>
<polygon fill="midnightblue" stroke="midnightblue" points="758.966,-86.2398 760.462,-75.7511 752.752,-83.0175 758.966,-86.2398"/>
</g>
<!-- Node22&#45;&gt;Node4 -->
<g id="edge26" class="edge"><title>Node22&#45;&gt;Node4</title>
<path fill="none" stroke="midnightblue" d="M586.432,-280.324C575.58,-272.185 559.119,-259.839 546.117,-250.087"/>
<polygon fill="midnightblue" stroke="midnightblue" points="547.879,-247.034 537.779,-243.834 543.679,-252.634 547.879,-247.034"/>
</g>
<!-- Node22&#45;&gt;Node5 -->
<g id="edge25" class="edge"><title>Node22&#45;&gt;Node5</title>
<path fill="none" stroke="midnightblue" d="M598.033,-280.371C597.714,-267.288 595.627,-242.049 585,-224 577.823,-211.811 566.111,-201.351 555.519,-193.592"/>
<polygon fill="midnightblue" stroke="midnightblue" points="557.231,-190.521 547.01,-187.731 553.26,-196.286 557.231,-190.521"/>
</g>
<!-- Node23&#45;&gt;Node4 -->
<g id="edge28" class="edge"><title>Node23&#45;&gt;Node4</title>
<path fill="none" stroke="midnightblue" d="M396.402,-280.444C422.197,-271.399 463.077,-257.064 492.018,-246.916"/>
<polygon fill="midnightblue" stroke="midnightblue" points="493.434,-250.128 501.712,-243.516 491.118,-243.523 493.434,-250.128"/>
</g>
<!-- Node24 -->
<g id="node24" class="node"><title>Node24</title>
<g id="a_node24"><a xlink:href="random_8hpp.html" target="_top" xlink:title="A random generator. ">
<polygon fill="none" stroke="black" points="382.5,-224.5 382.5,-243.5 457.5,-243.5 457.5,-224.5 382.5,-224.5"/>
<text text-anchor="middle" x="420" y="-231.5" font-family="Helvetica,sans-Serif" font-size="10.00">random.hpp</text>
</a>
</g>
</g>
<!-- Node23&#45;&gt;Node24 -->
<g id="edge29" class="edge"><title>Node23&#45;&gt;Node24</title>
<path fill="none" stroke="midnightblue" d="M379.926,-280.083C386.846,-272.298 397.065,-260.801 405.452,-251.367"/>
<polygon fill="midnightblue" stroke="midnightblue" points="408.194,-253.55 412.221,-243.751 402.962,-248.9 408.194,-253.55"/>
</g>
<!-- Node25 -->
<g id="node25" class="node"><title>Node25</title>
<g id="a_node25"><a xlink:href="topology_8hpp.html" target="_top" xlink:title="This file contains functions for handling the system topology. ">
<polygon fill="none" stroke="black" points="285.5,-224.5 285.5,-243.5 364.5,-243.5 364.5,-224.5 285.5,-224.5"/>
<text text-anchor="middle" x="325" y="-231.5" font-family="Helvetica,sans-Serif" font-size="10.00">topology.hpp</text>
</a>
</g>
</g>
<!-- Node23&#45;&gt;Node25 -->
<g id="edge31" class="edge"><title>Node23&#45;&gt;Node25</title>
<path fill="none" stroke="midnightblue" d="M364.239,-280.083C357.463,-272.298 347.457,-260.801 339.245,-251.367"/>
<polygon fill="midnightblue" stroke="midnightblue" points="341.822,-248.996 332.617,-243.751 336.542,-253.592 341.822,-248.996"/>
</g>
<!-- Node26 -->
<g id="node26" class="node"><title>Node26</title>
<g id="a_node26"><a xlink:href="mpi_8h.html" target="_top" xlink:title="This is the MPIfake implementation. ">
<polygon fill="none" stroke="black" points="108,-224.5 108,-243.5 152,-243.5 152,-224.5 108,-224.5"/>
<text text-anchor="middle" x="130" y="-231.5" font-family="Helvetica,sans-Serif" font-size="10.00">mpi.h</text>
</a>
</g>
</g>
<!-- Node23&#45;&gt;Node26 -->
<g id="edge33" class="edge"><title>Node23&#45;&gt;Node26</title>
<path fill="none" stroke="midnightblue" d="M333.654,-280.444C286.275,-269.871 206.508,-252.072 162.17,-242.179"/>
<polygon fill="midnightblue" stroke="midnightblue" points="162.747,-238.721 152.225,-239.959 161.223,-245.553 162.747,-238.721"/>
</g>
<!-- Node30 -->
<g id="node30" class="node"><title>Node30</title>
<g id="a_node30"><a xlink:href="cuda__init_8hpp.html" target="_top" xlink:title="cuda_init.hpp">
<polygon fill="none" stroke="black" points="211,-168.5 211,-187.5 293,-187.5 293,-168.5 211,-168.5"/>
<text text-anchor="middle" x="252" y="-175.5" font-family="Helvetica,sans-Serif" font-size="10.00">cuda_init.hpp</text>
</a>
</g>
</g>
<!-- Node23&#45;&gt;Node30 -->
<g id="edge37" class="edge"><title>Node23&#45;&gt;Node30</title>
<path fill="none" stroke="midnightblue" d="M338.742,-280.456C318.208,-273.641 292.687,-262.163 276,-244 264.184,-231.139 258.051,-211.959 254.956,-197.764"/>
<polygon fill="midnightblue" stroke="midnightblue" points="258.346,-196.854 253.074,-187.665 251.465,-198.137 258.346,-196.854"/>
</g>
<!-- Node24&#45;&gt;Node5 -->
<g id="edge30" class="edge"><title>Node24&#45;&gt;Node5</title>
<path fill="none" stroke="midnightblue" d="M437.995,-224.324C456.038,-215.625 484.047,-202.12 504.803,-192.113"/>
<polygon fill="midnightblue" stroke="midnightblue" points="506.562,-195.15 514.05,-187.655 503.522,-188.845 506.562,-195.15"/>
</g>
<!-- Node25&#45;&gt;Node5 -->
<g id="edge32" class="edge"><title>Node25&#45;&gt;Node5</title>
<path fill="none" stroke="midnightblue" d="M357.8,-224.444C394.322,-214.916 453.344,-199.519 492.408,-189.328"/>
<polygon fill="midnightblue" stroke="midnightblue" points="493.579,-192.64 502.372,-186.729 491.812,-185.867 493.579,-192.64"/>
</g>
<!-- Node27 -->
<g id="node27" class="node"><title>Node27</title>
<polygon fill="none" stroke="#bfbfbf" points="139.5,-168.5 139.5,-187.5 192.5,-187.5 192.5,-168.5 139.5,-168.5"/>
<text text-anchor="middle" x="166" y="-175.5" font-family="Helvetica,sans-Serif" font-size="10.00">string.h</text>
</g>
<!-- Node26&#45;&gt;Node27 -->
<g id="edge34" class="edge"><title>Node26&#45;&gt;Node27</title>
<path fill="none" stroke="midnightblue" d="M135.945,-224.083C140.977,-216.534 148.337,-205.495 154.513,-196.23"/>
<polygon fill="midnightblue" stroke="midnightblue" points="157.531,-198.013 160.166,-187.751 151.707,-194.13 157.531,-198.013"/>
</g>
<!-- Node28 -->
<g id="node28" class="node"><title>Node28</title>
<polygon fill="none" stroke="#bfbfbf" points="0,-168.5 0,-187.5 50,-187.5 50,-168.5 0,-168.5"/>
<text text-anchor="middle" x="25" y="-175.5" font-family="Helvetica,sans-Serif" font-size="10.00">stdio.h</text>
</g>
<!-- Node26&#45;&gt;Node28 -->
<g id="edge35" class="edge"><title>Node26&#45;&gt;Node28</title>
<path fill="none" stroke="midnightblue" d="M113.13,-224.324C96.2912,-215.664 70.1935,-202.242 50.762,-192.249"/>
<polygon fill="midnightblue" stroke="midnightblue" points="52.3218,-189.116 41.8282,-187.655 49.1204,-195.341 52.3218,-189.116"/>
</g>
<!-- Node29 -->
<g id="node29" class="node"><title>Node29</title>
<polygon fill="none" stroke="#bfbfbf" points="68.5,-168.5 68.5,-187.5 121.5,-187.5 121.5,-168.5 68.5,-168.5"/>
<text text-anchor="middle" x="95" y="-175.5" font-family="Helvetica,sans-Serif" font-size="10.00">stdlib.h</text>
</g>
<!-- Node26&#45;&gt;Node29 -->
<g id="edge36" class="edge"><title>Node26&#45;&gt;Node29</title>
<path fill="none" stroke="midnightblue" d="M124.22,-224.083C119.328,-216.534 112.173,-205.495 106.167,-196.23"/>
<polygon fill="midnightblue" stroke="midnightblue" points="109.048,-194.239 100.672,-187.751 103.174,-198.046 109.048,-194.239"/>
</g>
<!-- Node30&#45;&gt;Node10 -->
<g id="edge38" class="edge"><title>Node30&#45;&gt;Node10</title>
<path fill="none" stroke="midnightblue" d="M241.239,-168.392C226.207,-155.336 202.326,-130.133 217,-112 237.586,-86.561 328.375,-74.8842 383.938,-70.0344"/>
<polygon fill="midnightblue" stroke="midnightblue" points="384.539,-73.4966 394.214,-69.1799 383.959,-66.5207 384.539,-73.4966"/>
</g>
<!-- Node30&#45;&gt;Node20 -->
<g id="edge39" class="edge"><title>Node30&#45;&gt;Node20</title>
<path fill="none" stroke="midnightblue" d="M251.67,-168.083C251.408,-161.006 251.032,-150.861 250.703,-141.986"/>
<polygon fill="midnightblue" stroke="midnightblue" points="254.192,-141.615 250.324,-131.751 247.197,-141.874 254.192,-141.615"/>
</g>
<!-- Node31&#45;&gt;Node5 -->
<g id="edge41" class="edge"><title>Node31&#45;&gt;Node5</title>
<path fill="none" stroke="midnightblue" d="M650.658,-224.444C627.247,-215.478 590.264,-201.314 563.81,-191.183"/>
<polygon fill="midnightblue" stroke="midnightblue" points="564.828,-187.824 554.237,-187.516 562.324,-194.361 564.828,-187.824"/>
</g>
<!-- Node31&#45;&gt;Node9 -->
<g id="edge42" class="edge"><title>Node31&#45;&gt;Node9</title>
<path fill="none" stroke="midnightblue" d="M672.793,-224.307C672.968,-210.186 675.539,-182.396 692,-168 732.099,-132.931 876.804,-142.647 929,-132 929.1,-131.98 929.2,-131.959 929.3,-131.939"/>
<polygon fill="midnightblue" stroke="midnightblue" points="929.847,-135.403 938.835,-129.795 928.311,-128.574 929.847,-135.403"/>
</g>
<!-- Node32 -->
<g id="node32" class="node"><title>Node32</title>
<polygon fill="none" stroke="#bfbfbf" points="701,-168.5 701,-187.5 739,-187.5 739,-168.5 701,-168.5"/>
<text text-anchor="middle" x="720" y="-175.5" font-family="Helvetica,sans-Serif" font-size="10.00">tcl.h</text>
</g>
<!-- Node31&#45;&gt;Node32 -->
<g id="edge43" class="edge"><title>Node31&#45;&gt;Node32</title>
<path fill="none" stroke="midnightblue" d="M680.761,-224.083C687.537,-216.298 697.543,-204.801 705.755,-195.367"/>
<polygon fill="midnightblue" stroke="midnightblue" points="708.458,-197.592 712.383,-187.751 703.178,-192.996 708.458,-197.592"/>
</g>
<!-- Node33&#45;&gt;Node18 -->
<g id="edge47" class="edge"><title>Node33&#45;&gt;Node18</title>
<path fill="none" stroke="midnightblue" d="M836.586,-224.435C887.954,-213.069 962.736,-187.526 998,-132 1010.73,-111.957 986.388,-92.7636 964.568,-80.4986"/>
<polygon fill="midnightblue" stroke="midnightblue" points="965.961,-77.2756 955.486,-75.6841 962.682,-83.4603 965.961,-77.2756"/>
</g>
<!-- Node33&#45;&gt;Node20 -->
<g id="edge48" class="edge"><title>Node33&#45;&gt;Node20</title>
<path fill="none" stroke="midnightblue" d="M725.225,-224.781C653.742,-214.482 536.191,-197.083 493,-188 401.519,-168.762 377.769,-157.869 283.451,-132.127"/>
<polygon fill="midnightblue" stroke="midnightblue" points="284.356,-128.746 273.789,-129.505 282.523,-135.502 284.356,-128.746"/>
</g>
<!-- Node33&#45;&gt;Node32 -->
<g id="edge45" class="edge"><title>Node33&#45;&gt;Node32</title>
<path fill="none" stroke="midnightblue" d="M772.878,-224.324C763.474,-216.263 749.256,-204.077 737.931,-194.369"/>
<polygon fill="midnightblue" stroke="midnightblue" points="740.177,-191.684 730.306,-187.834 735.621,-196.999 740.177,-191.684"/>
</g>
<!-- Node34 -->
<g id="node34" class="node"><title>Node34</title>
<polygon fill="none" stroke="#bfbfbf" points="757,-168.5 757,-187.5 817,-187.5 817,-168.5 757,-168.5"/>
<text text-anchor="middle" x="787" y="-175.5" font-family="Helvetica,sans-Serif" font-size="10.00">iostream</text>
</g>
<!-- Node33&#45;&gt;Node34 -->
<g id="edge46" class="edge"><title>Node33&#45;&gt;Node34</title>
<path fill="none" stroke="midnightblue" d="M783.661,-224.083C784.185,-217.006 784.936,-206.861 785.594,-197.986"/>
<polygon fill="midnightblue" stroke="midnightblue" points="789.103,-197.982 786.352,-187.751 782.123,-197.465 789.103,-197.982"/>
</g>
</g>
</svg>
