<?xml version="1.0" encoding="UTF-8" standalone="no"?>
<!DOCTYPE svg PUBLIC "-//W3C//DTD SVG 1.1//EN"
 "http://www.w3.org/Graphics/SVG/1.1/DTD/svg11.dtd">
<!-- Generated by graphviz version 2.38.0 (20140413.2041)
 -->
<!-- Title: debye_hueckel.cpp Pages: 1 -->
<svg width="868pt" height="420pt"
 viewBox="0.00 0.00 868.00 420.00" xmlns="http://www.w3.org/2000/svg" xmlns:xlink="http://www.w3.org/1999/xlink">
<g id="graph0" class="graph" transform="scale(1 1) rotate(0) translate(4 416)">
<title>debye_hueckel.cpp</title>
<!-- Node1 -->
<g id="node1" class="node"><title>Node1</title>
<polygon fill="#bfbfbf" stroke="black" points="402,-392.5 402,-411.5 512,-411.5 512,-392.5 402,-392.5"/>
<text text-anchor="middle" x="457" y="-399.5" font-family="Helvetica,sans-Serif" font-size="10.00">debye_hueckel.cpp</text>
</g>
<!-- Node2 -->
<g id="node2" class="node"><title>Node2</title>
<g id="a_node2"><a xlink:href="utils_8hpp.html" target="_top" xlink:title="Small functions that are useful not only for one modul. ">
<polygon fill="none" stroke="black" points="412.5,-168.5 412.5,-187.5 471.5,-187.5 471.5,-168.5 412.5,-168.5"/>
<text text-anchor="middle" x="442" y="-175.5" font-family="Helvetica,sans-Serif" font-size="10.00">utils.hpp</text>
</a>
</g>
</g>
<!-- Node1&#45;&gt;Node2 -->
<g id="edge1" class="edge"><title>Node1&#45;&gt;Node2</title>
<path fill="none" stroke="midnightblue" d="M477.9,-392.369C492.723,-385.042 511.59,-372.992 521,-356 537.377,-326.428 526.1,-313.739 524,-280 522.441,-254.966 530.691,-245.017 517,-224 507.55,-209.492 491.639,-198.981 476.897,-191.784"/>
<polygon fill="midnightblue" stroke="midnightblue" points="478.013,-188.448 467.459,-187.524 475.134,-194.828 478.013,-188.448"/>
</g>
<!-- Node19 -->
<g id="node19" class="node"><title>Node19</title>
<g id="a_node19"><a xlink:href="debye__hueckel_8hpp.html" target="_top" xlink:title="Routines to calculate the Debye_Hueckel Energy or/and Debye_Hueckel force for a particle pair...">
<polygon fill="none" stroke="black" points="401.5,-336.5 401.5,-355.5 512.5,-355.5 512.5,-336.5 401.5,-336.5"/>
<text text-anchor="middle" x="457" y="-343.5" font-family="Helvetica,sans-Serif" font-size="10.00">debye_hueckel.hpp</text>
</a>
</g>
</g>
<!-- Node1&#45;&gt;Node19 -->
<g id="edge21" class="edge"><title>Node1&#45;&gt;Node19</title>
<path fill="none" stroke="midnightblue" d="M457,-392.083C457,-385.006 457,-374.861 457,-365.986"/>
<polygon fill="midnightblue" stroke="midnightblue" points="460.5,-365.751 457,-355.751 453.5,-365.751 460.5,-365.751"/>
</g>
<!-- Node22 -->
<g id="node22" class="node"><title>Node22</title>
<g id="a_node22"><a xlink:href="communication_8hpp.html" target="_top" xlink:title="This file contains the asynchronous MPI communication. ">
<polygon fill="none" stroke="black" points="232.5,-280.5 232.5,-299.5 345.5,-299.5 345.5,-280.5 232.5,-280.5"/>
<text text-anchor="middle" x="289" y="-287.5" font-family="Helvetica,sans-Serif" font-size="10.00">communication.hpp</text>
</a>
</g>
</g>
<!-- Node1&#45;&gt;Node22 -->
<g id="edge26" class="edge"><title>Node1&#45;&gt;Node22</title>
<path fill="none" stroke="midnightblue" d="M443.817,-392.368C414.988,-373.492 346.097,-328.385 310.743,-305.237"/>
<polygon fill="midnightblue" stroke="midnightblue" points="312.405,-302.141 302.121,-299.591 308.57,-307.997 312.405,-302.141"/>
</g>
<!-- Node3 -->
<g id="node3" class="node"><title>Node3</title>
<polygon fill="none" stroke="#bfbfbf" points="240.5,-112.5 240.5,-131.5 287.5,-131.5 287.5,-112.5 240.5,-112.5"/>
<text text-anchor="middle" x="264" y="-119.5" font-family="Helvetica,sans-Serif" font-size="10.00">cmath</text>
</g>
<!-- Node2&#45;&gt;Node3 -->
<g id="edge2" class="edge"><title>Node2&#45;&gt;Node3</title>
<path fill="none" stroke="midnightblue" d="M413.795,-168.444C382.169,-158.849 330.922,-143.302 297.339,-133.114"/>
<polygon fill="midnightblue" stroke="midnightblue" points="298.111,-129.691 287.525,-130.137 296.078,-136.389 298.111,-129.691"/>
</g>
<!-- Node4 -->
<g id="node4" class="node"><title>Node4</title>
<polygon fill="none" stroke="#bfbfbf" points="512,-112.5 512,-131.5 558,-131.5 558,-112.5 512,-112.5"/>
<text text-anchor="middle" x="535" y="-119.5" font-family="Helvetica,sans-Serif" font-size="10.00">cstdio</text>
</g>
<!-- Node2&#45;&gt;Node4 -->
<g id="edge3" class="edge"><title>Node2&#45;&gt;Node4</title>
<path fill="none" stroke="midnightblue" d="M456.942,-168.324C471.585,-159.822 494.134,-146.729 511.238,-136.797"/>
<polygon fill="midnightblue" stroke="midnightblue" points="513.205,-139.703 520.095,-131.655 509.69,-133.649 513.205,-139.703"/>
</g>
<!-- Node5 -->
<g id="node5" class="node"><title>Node5</title>
<polygon fill="none" stroke="#bfbfbf" points="576.5,-112.5 576.5,-131.5 625.5,-131.5 625.5,-112.5 576.5,-112.5"/>
<text text-anchor="middle" x="601" y="-119.5" font-family="Helvetica,sans-Serif" font-size="10.00">cstdlib</text>
</g>
<!-- Node2&#45;&gt;Node5 -->
<g id="edge4" class="edge"><title>Node2&#45;&gt;Node5</title>
<path fill="none" stroke="midnightblue" d="M467.194,-168.444C494.1,-159.306 536.903,-144.769 566.832,-134.604"/>
<polygon fill="midnightblue" stroke="midnightblue" points="568.103,-137.869 576.446,-131.339 565.852,-131.241 568.103,-137.869"/>
</g>
<!-- Node6 -->
<g id="node6" class="node"><title>Node6</title>
<polygon fill="none" stroke="#bfbfbf" points="644,-112.5 644,-131.5 694,-131.5 694,-112.5 644,-112.5"/>
<text text-anchor="middle" x="669" y="-119.5" font-family="Helvetica,sans-Serif" font-size="10.00">cstring</text>
</g>
<!-- Node2&#45;&gt;Node6 -->
<g id="edge5" class="edge"><title>Node2&#45;&gt;Node6</title>
<path fill="none" stroke="midnightblue" d="M471.823,-170.335C507.945,-162.2 570.875,-147.826 634.044,-132.186"/>
<polygon fill="midnightblue" stroke="midnightblue" points="634.91,-135.577 643.77,-129.768 633.221,-128.784 634.91,-135.577"/>
</g>
<!-- Node7 -->
<g id="node7" class="node"><title>Node7</title>
<g id="a_node7"><a xlink:href="config_8hpp.html" target="_top" xlink:title="This file contains the defaults for Espresso. ">
<polygon fill="none" stroke="black" points="154.5,-56.5 154.5,-75.5 221.5,-75.5 221.5,-56.5 154.5,-56.5"/>
<text text-anchor="middle" x="188" y="-63.5" font-family="Helvetica,sans-Serif" font-size="10.00">config.hpp</text>
</a>
</g>
</g>
<!-- Node2&#45;&gt;Node7 -->
<g id="edge6" class="edge"><title>Node2&#45;&gt;Node7</title>
<path fill="none" stroke="midnightblue" d="M412.362,-174.68C340.643,-168.768 162.341,-152.166 145,-132 131.278,-116.042 150.106,-95.4795 166.995,-81.7992"/>
<polygon fill="midnightblue" stroke="midnightblue" points="169.166,-84.5447 174.979,-75.6866 164.911,-78.9866 169.166,-84.5447"/>
</g>
<!-- Node11 -->
<g id="node11" class="node"><title>Node11</title>
<g id="a_node11"><a xlink:href="debug_8hpp.html" target="_top" xlink:title="This file controls debug facilities. ">
<polygon fill="none" stroke="black" points="154,-112.5 154,-131.5 222,-131.5 222,-112.5 154,-112.5"/>
<text text-anchor="middle" x="188" y="-119.5" font-family="Helvetica,sans-Serif" font-size="10.00">debug.hpp</text>
</a>
</g>
</g>
<!-- Node2&#45;&gt;Node11 -->
<g id="edge10" class="edge"><title>Node2&#45;&gt;Node11</title>
<path fill="none" stroke="midnightblue" d="M412.366,-170.7C367.954,-161.258 283.841,-143.376 232.171,-132.391"/>
<polygon fill="midnightblue" stroke="midnightblue" points="232.8,-128.946 222.291,-130.29 231.344,-135.793 232.8,-128.946"/>
</g>
<!-- Node12 -->
<g id="node12" class="node"><title>Node12</title>
<g id="a_node12"><a xlink:href="lees__edwards_8hpp.html" target="_top" xlink:title="lees_edwards.hpp">
<polygon fill="none" stroke="black" points="306,-112.5 306,-131.5 410,-131.5 410,-112.5 306,-112.5"/>
<text text-anchor="middle" x="358" y="-119.5" font-family="Helvetica,sans-Serif" font-size="10.00">lees_edwards.hpp</text>
</a>
</g>
</g>
<!-- Node2&#45;&gt;Node12 -->
<g id="edge12" class="edge"><title>Node2&#45;&gt;Node12</title>
<path fill="none" stroke="midnightblue" d="M428.504,-168.324C415.4,-159.9 395.288,-146.971 379.893,-137.074"/>
<polygon fill="midnightblue" stroke="midnightblue" points="381.767,-134.118 371.463,-131.655 377.982,-140.006 381.767,-134.118"/>
</g>
<!-- Node13 -->
<g id="node13" class="node"><title>Node13</title>
<g id="a_node13"><a xlink:href="errorhandling_8hpp.html" target="_top" xlink:title="This file contains the errorhandling code for severe errors, like a broken bond or illegal parameter ...">
<polygon fill="none" stroke="black" points="712.5,-112.5 712.5,-131.5 815.5,-131.5 815.5,-112.5 712.5,-112.5"/>
<text text-anchor="middle" x="764" y="-119.5" font-family="Helvetica,sans-Serif" font-size="10.00">errorhandling.hpp</text>
</a>
</g>
</g>
<!-- Node2&#45;&gt;Node13 -->
<g id="edge14" class="edge"><title>Node2&#45;&gt;Node13</title>
<path fill="none" stroke="midnightblue" d="M471.716,-172.017C524.173,-163.219 634.163,-144.774 703.249,-133.188"/>
<polygon fill="midnightblue" stroke="midnightblue" points="703.85,-136.636 713.134,-131.53 702.692,-129.733 703.85,-136.636"/>
</g>
<!-- Node17 -->
<g id="node17" class="node"><title>Node17</title>
<polygon fill="none" stroke="#bfbfbf" points="50.5,-112.5 50.5,-131.5 97.5,-131.5 97.5,-112.5 50.5,-112.5"/>
<text text-anchor="middle" x="74" y="-119.5" font-family="Helvetica,sans-Serif" font-size="10.00">vector</text>
</g>
<!-- Node2&#45;&gt;Node17 -->
<g id="edge19" class="edge"><title>Node2&#45;&gt;Node17</title>
<path fill="none" stroke="midnightblue" d="M412.264,-173.924C354.246,-167.707 221.996,-152.476 112,-132 110.542,-131.729 109.056,-131.438 107.557,-131.133"/>
<polygon fill="midnightblue" stroke="midnightblue" points="108.157,-127.682 97.6413,-128.974 106.668,-134.522 108.157,-127.682"/>
</g>
<!-- Node18 -->
<g id="node18" class="node"><title>Node18</title>
<polygon fill="none" stroke="#bfbfbf" points="428.5,-112.5 428.5,-131.5 493.5,-131.5 493.5,-112.5 428.5,-112.5"/>
<text text-anchor="middle" x="461" y="-119.5" font-family="Helvetica,sans-Serif" font-size="10.00">exception</text>
</g>
<!-- Node2&#45;&gt;Node18 -->
<g id="edge20" class="edge"><title>Node2&#45;&gt;Node18</title>
<path fill="none" stroke="midnightblue" d="M445.137,-168.083C447.683,-160.849 451.356,-150.409 454.527,-141.397"/>
<polygon fill="midnightblue" stroke="midnightblue" points="457.903,-142.346 457.921,-131.751 451.3,-140.023 457.903,-142.346"/>
</g>
<!-- Node8 -->
<g id="node8" class="node"><title>Node8</title>
<g id="a_node8"><a xlink:href="acconfig_8hpp.html" target="_top" xlink:title="acconfig.hpp">
<polygon fill="none" stroke="black" points="38,-0.5 38,-19.5 116,-19.5 116,-0.5 38,-0.5"/>
<text text-anchor="middle" x="77" y="-7.5" font-family="Helvetica,sans-Serif" font-size="10.00">acconfig.hpp</text>
</a>
</g>
</g>
<!-- Node7&#45;&gt;Node8 -->
<g id="edge7" class="edge"><title>Node7&#45;&gt;Node8</title>
<path fill="none" stroke="midnightblue" d="M170.166,-56.324C152.284,-47.6247 124.525,-34.1202 103.954,-24.113"/>
<polygon fill="midnightblue" stroke="midnightblue" points="105.313,-20.8819 94.7898,-19.6545 102.251,-27.1765 105.313,-20.8819"/>
</g>
<!-- Node9 -->
<g id="node9" class="node"><title>Node9</title>
<g id="a_node9"><a xlink:href="myconfig-final_8hpp.html" target="_top" xlink:title="myconfig&#45;final.hpp">
<polygon fill="none" stroke="black" points="134.5,-0.5 134.5,-19.5 241.5,-19.5 241.5,-0.5 134.5,-0.5"/>
<text text-anchor="middle" x="188" y="-7.5" font-family="Helvetica,sans-Serif" font-size="10.00">myconfig&#45;final.hpp</text>
</a>
</g>
</g>
<!-- Node7&#45;&gt;Node9 -->
<g id="edge8" class="edge"><title>Node7&#45;&gt;Node9</title>
<path fill="none" stroke="midnightblue" d="M188,-56.083C188,-49.0059 188,-38.8611 188,-29.9865"/>
<polygon fill="midnightblue" stroke="midnightblue" points="191.5,-29.751 188,-19.7511 184.5,-29.7511 191.5,-29.751"/>
</g>
<!-- Node10 -->
<g id="node10" class="node"><title>Node10</title>
<g id="a_node10"><a xlink:href="config-features_8hpp.html" target="_top" xlink:title="config&#45;features.hpp">
<polygon fill="none" stroke="black" points="259.5,-0.5 259.5,-19.5 370.5,-19.5 370.5,-0.5 259.5,-0.5"/>
<text text-anchor="middle" x="315" y="-7.5" font-family="Helvetica,sans-Serif" font-size="10.00">config&#45;features.hpp</text>
</a>
</g>
</g>
<!-- Node7&#45;&gt;Node10 -->
<g id="edge9" class="edge"><title>Node7&#45;&gt;Node10</title>
<path fill="none" stroke="midnightblue" d="M208.124,-56.4435C229.024,-47.5566 261.935,-33.5632 285.716,-23.4514"/>
<polygon fill="midnightblue" stroke="midnightblue" points="287.138,-26.6504 294.971,-19.5164 284.398,-20.2085 287.138,-26.6504"/>
</g>
<!-- Node11&#45;&gt;Node7 -->
<g id="edge11" class="edge"><title>Node11&#45;&gt;Node7</title>
<path fill="none" stroke="midnightblue" d="M188,-112.083C188,-105.006 188,-94.8611 188,-85.9865"/>
<polygon fill="midnightblue" stroke="midnightblue" points="191.5,-85.751 188,-75.7511 184.5,-85.7511 191.5,-85.751"/>
</g>
<!-- Node12&#45;&gt;Node7 -->
<g id="edge13" class="edge"><title>Node12&#45;&gt;Node7</title>
<path fill="none" stroke="midnightblue" d="M331.063,-112.444C302.34,-103.32 256.671,-88.8133 224.679,-78.6509"/>
<polygon fill="midnightblue" stroke="midnightblue" points="225.401,-75.2081 214.811,-75.5164 223.282,-81.8797 225.401,-75.2081"/>
</g>
<!-- Node13&#45;&gt;Node7 -->
<g id="edge15" class="edge"><title>Node13&#45;&gt;Node7</title>
<path fill="none" stroke="midnightblue" d="M712.444,-113.174C709.251,-112.757 706.083,-112.362 703,-112 528.903,-91.5688 320.691,-76.1199 231.754,-69.9433"/>
<polygon fill="midnightblue" stroke="midnightblue" points="231.727,-66.4332 221.51,-69.2363 231.245,-73.4166 231.727,-66.4332"/>
</g>
<!-- Node14 -->
<g id="node14" class="node"><title>Node14</title>
<polygon fill="none" stroke="#bfbfbf" points="742,-56.5 742,-75.5 786,-75.5 786,-56.5 742,-56.5"/>
<text text-anchor="middle" x="764" y="-63.5" font-family="Helvetica,sans-Serif" font-size="10.00">string</text>
</g>
<!-- Node13&#45;&gt;Node14 -->
<g id="edge16" class="edge"><title>Node13&#45;&gt;Node14</title>
<path fill="none" stroke="midnightblue" d="M764,-112.083C764,-105.006 764,-94.8611 764,-85.9865"/>
<polygon fill="midnightblue" stroke="midnightblue" points="767.5,-85.751 764,-75.7511 760.5,-85.7511 767.5,-85.751"/>
</g>
<!-- Node15 -->
<g id="node15" class="node"><title>Node15</title>
<polygon fill="none" stroke="#bfbfbf" points="804,-56.5 804,-75.5 860,-75.5 860,-56.5 804,-56.5"/>
<text text-anchor="middle" x="832" y="-63.5" font-family="Helvetica,sans-Serif" font-size="10.00">sstream</text>
</g>
<!-- Node13&#45;&gt;Node15 -->
<g id="edge17" class="edge"><title>Node13&#45;&gt;Node15</title>
<path fill="none" stroke="midnightblue" d="M774.925,-112.324C785.175,-104.185 800.721,-91.8395 813.001,-82.0874"/>
<polygon fill="midnightblue" stroke="midnightblue" points="815.221,-84.7937 820.876,-75.8339 810.868,-79.3119 815.221,-84.7937"/>
</g>
<!-- Node16 -->
<g id="node16" class="node"><title>Node16</title>
<polygon fill="none" stroke="#bfbfbf" points="692,-56.5 692,-75.5 724,-75.5 724,-56.5 692,-56.5"/>
<text text-anchor="middle" x="708" y="-63.5" font-family="Helvetica,sans-Serif" font-size="10.00">list</text>
</g>
<!-- Node13&#45;&gt;Node16 -->
<g id="edge18" class="edge"><title>Node13&#45;&gt;Node16</title>
<path fill="none" stroke="midnightblue" d="M755.003,-112.324C746.806,-104.42 734.494,-92.5482 724.528,-82.9377"/>
<polygon fill="midnightblue" stroke="midnightblue" points="726.789,-80.2558 717.161,-75.8339 721.93,-85.2947 726.789,-80.2558"/>
</g>
<!-- Node20 -->
<g id="node20" class="node"><title>Node20</title>
<g id="a_node20"><a xlink:href="interaction__data_8hpp.html" target="_top" xlink:title="Various procedures concerning interactions between particles. ">
<polygon fill="none" stroke="black" points="398.5,-280.5 398.5,-299.5 515.5,-299.5 515.5,-280.5 398.5,-280.5"/>
<text text-anchor="middle" x="457" y="-287.5" font-family="Helvetica,sans-Serif" font-size="10.00">interaction_data.hpp</text>
</a>
</g>
</g>
<!-- Node19&#45;&gt;Node20 -->
<g id="edge22" class="edge"><title>Node19&#45;&gt;Node20</title>
<path fill="none" stroke="midnightblue" d="M457,-336.083C457,-329.006 457,-318.861 457,-309.986"/>
<polygon fill="midnightblue" stroke="midnightblue" points="460.5,-309.751 457,-299.751 453.5,-309.751 460.5,-309.751"/>
</g>
<!-- Node20&#45;&gt;Node2 -->
<g id="edge23" class="edge"><title>Node20&#45;&gt;Node2</title>
<path fill="none" stroke="midnightblue" d="M470.041,-280.426C486.57,-268.414 511.699,-245.617 501,-224 494.397,-210.659 481.735,-200.194 469.829,-192.726"/>
<polygon fill="midnightblue" stroke="midnightblue" points="471.391,-189.587 460.984,-187.602 467.882,-195.643 471.391,-189.587"/>
</g>
<!-- Node21 -->
<g id="node21" class="node"><title>Node21</title>
<g id="a_node21"><a xlink:href="particle__data_8hpp.html" target="_top" xlink:title="For more information on particle_data, see particle_data.c. ">
<polygon fill="none" stroke="black" points="391.5,-224.5 391.5,-243.5 492.5,-243.5 492.5,-224.5 391.5,-224.5"/>
<text text-anchor="middle" x="442" y="-231.5" font-family="Helvetica,sans-Serif" font-size="10.00">particle_data.hpp</text>
</a>
</g>
</g>
<!-- Node20&#45;&gt;Node21 -->
<g id="edge24" class="edge"><title>Node20&#45;&gt;Node21</title>
<path fill="none" stroke="midnightblue" d="M454.523,-280.083C452.514,-272.849 449.614,-262.409 447.11,-253.397"/>
<polygon fill="midnightblue" stroke="midnightblue" points="450.48,-252.449 444.431,-243.751 443.735,-254.323 450.48,-252.449"/>
</g>
<!-- Node21&#45;&gt;Node2 -->
<g id="edge25" class="edge"><title>Node21&#45;&gt;Node2</title>
<path fill="none" stroke="midnightblue" d="M442,-224.083C442,-217.006 442,-206.861 442,-197.986"/>
<polygon fill="midnightblue" stroke="midnightblue" points="445.5,-197.751 442,-187.751 438.5,-197.751 445.5,-197.751"/>
</g>
<!-- Node22&#45;&gt;Node21 -->
<g id="edge27" class="edge"><title>Node22&#45;&gt;Node21</title>
<path fill="none" stroke="midnightblue" d="M313.243,-280.444C338.871,-271.399 379.485,-257.064 408.238,-246.916"/>
<polygon fill="midnightblue" stroke="midnightblue" points="409.605,-250.145 417.87,-243.516 407.275,-243.544 409.605,-250.145"/>
</g>
<!-- Node23 -->
<g id="node23" class="node"><title>Node23</title>
<g id="a_node23"><a xlink:href="random_8hpp.html" target="_top" xlink:title="A random generator. ">
<polygon fill="none" stroke="black" points="201.5,-224.5 201.5,-243.5 276.5,-243.5 276.5,-224.5 201.5,-224.5"/>
<text text-anchor="middle" x="239" y="-231.5" font-family="Helvetica,sans-Serif" font-size="10.00">random.hpp</text>
</a>
</g>
</g>
<!-- Node22&#45;&gt;Node23 -->
<g id="edge28" class="edge"><title>Node22&#45;&gt;Node23</title>
<path fill="none" stroke="midnightblue" d="M280.744,-280.083C273.535,-272.298 262.89,-260.801 254.154,-251.367"/>
<polygon fill="midnightblue" stroke="midnightblue" points="256.465,-248.711 247.103,-243.751 251.329,-253.467 256.465,-248.711"/>
</g>
<!-- Node24 -->
<g id="node24" class="node"><title>Node24</title>
<g id="a_node24"><a xlink:href="topology_8hpp.html" target="_top" xlink:title="This file contains functions for handling the system topology. ">
<polygon fill="none" stroke="black" points="294.5,-224.5 294.5,-243.5 373.5,-243.5 373.5,-224.5 294.5,-224.5"/>
<text text-anchor="middle" x="334" y="-231.5" font-family="Helvetica,sans-Serif" font-size="10.00">topology.hpp</text>
</a>
</g>
</g>
<!-- Node22&#45;&gt;Node24 -->
<g id="edge30" class="edge"><title>Node22&#45;&gt;Node24</title>
<path fill="none" stroke="midnightblue" d="M296.431,-280.083C302.853,-272.377 312.306,-261.033 320.122,-251.653"/>
<polygon fill="midnightblue" stroke="midnightblue" points="322.994,-253.674 326.707,-243.751 317.617,-249.193 322.994,-253.674"/>
</g>
<!-- Node25 -->
<g id="node25" class="node"><title>Node25</title>
<g id="a_node25"><a xlink:href="mpi_8h.html" target="_top" xlink:title="This is the MPIfake implementation. ">
<polygon fill="none" stroke="black" points="140,-224.5 140,-243.5 184,-243.5 184,-224.5 140,-224.5"/>
<text text-anchor="middle" x="162" y="-231.5" font-family="Helvetica,sans-Serif" font-size="10.00">mpi.h</text>
</a>
</g>
</g>
<!-- Node22&#45;&gt;Node25 -->
<g id="edge32" class="edge"><title>Node22&#45;&gt;Node25</title>
<path fill="none" stroke="midnightblue" d="M268.876,-280.444C247.976,-271.557 215.065,-257.563 191.284,-247.451"/>
<polygon fill="midnightblue" stroke="midnightblue" points="192.602,-244.208 182.029,-243.516 189.862,-250.65 192.602,-244.208"/>
</g>
<!-- Node29 -->
<g id="node29" class="node"><title>Node29</title>
<g id="a_node29"><a xlink:href="cuda__init_8hpp.html" target="_top" xlink:title="cuda_init.hpp">
<polygon fill="none" stroke="black" points="0,-168.5 0,-187.5 82,-187.5 82,-168.5 0,-168.5"/>
<text text-anchor="middle" x="41" y="-175.5" font-family="Helvetica,sans-Serif" font-size="10.00">cuda_init.hpp</text>
</a>
</g>
</g>
<!-- Node22&#45;&gt;Node29 -->
<g id="edge36" class="edge"><title>Node22&#45;&gt;Node29</title>
<path fill="none" stroke="midnightblue" d="M243.555,-280.462C211.128,-273.331 167.057,-261.483 131,-244 103.577,-230.703 75.6937,-209.034 58.3815,-194.408"/>
<polygon fill="midnightblue" stroke="midnightblue" points="60.6415,-191.735 50.7803,-187.861 56.0734,-197.039 60.6415,-191.735"/>
</g>
<!-- Node23&#45;&gt;Node2 -->
<g id="edge29" class="edge"><title>Node23&#45;&gt;Node2</title>
<path fill="none" stroke="midnightblue" d="M271.166,-224.444C306.777,-214.971 364.201,-199.695 402.512,-189.504"/>
<polygon fill="midnightblue" stroke="midnightblue" points="403.532,-192.855 412.296,-186.902 401.732,-186.09 403.532,-192.855"/>
</g>
<!-- Node24&#45;&gt;Node2 -->
<g id="edge31" class="edge"><title>Node24&#45;&gt;Node2</title>
<path fill="none" stroke="midnightblue" d="M351.352,-224.324C368.672,-215.664 395.515,-202.242 415.502,-192.249"/>
<polygon fill="midnightblue" stroke="midnightblue" points="417.312,-195.257 424.691,-187.655 414.181,-188.996 417.312,-195.257"/>
</g>
<!-- Node26 -->
<g id="node26" class="node"><title>Node26</title>
<polygon fill="none" stroke="#bfbfbf" points="100.5,-168.5 100.5,-187.5 153.5,-187.5 153.5,-168.5 100.5,-168.5"/>
<text text-anchor="middle" x="127" y="-175.5" font-family="Helvetica,sans-Serif" font-size="10.00">string.h</text>
</g>
<!-- Node25&#45;&gt;Node26 -->
<g id="edge33" class="edge"><title>Node25&#45;&gt;Node26</title>
<path fill="none" stroke="midnightblue" d="M156.22,-224.083C151.328,-216.534 144.173,-205.495 138.167,-196.23"/>
<polygon fill="midnightblue" stroke="midnightblue" points="141.048,-194.239 132.672,-187.751 135.174,-198.046 141.048,-194.239"/>
</g>
<!-- Node27 -->
<g id="node27" class="node"><title>Node27</title>
<polygon fill="none" stroke="#bfbfbf" points="172,-168.5 172,-187.5 222,-187.5 222,-168.5 172,-168.5"/>
<text text-anchor="middle" x="197" y="-175.5" font-family="Helvetica,sans-Serif" font-size="10.00">stdio.h</text>
</g>
<!-- Node25&#45;&gt;Node27 -->
<g id="edge34" class="edge"><title>Node25&#45;&gt;Node27</title>
<path fill="none" stroke="midnightblue" d="M167.78,-224.083C172.672,-216.534 179.827,-205.495 185.833,-196.23"/>
<polygon fill="midnightblue" stroke="midnightblue" points="188.826,-198.046 191.328,-187.751 182.952,-194.239 188.826,-198.046"/>
</g>
<!-- Node28 -->
<g id="node28" class="node"><title>Node28</title>
<polygon fill="none" stroke="#bfbfbf" points="240.5,-168.5 240.5,-187.5 293.5,-187.5 293.5,-168.5 240.5,-168.5"/>
<text text-anchor="middle" x="267" y="-175.5" font-family="Helvetica,sans-Serif" font-size="10.00">stdlib.h</text>
</g>
<!-- Node25&#45;&gt;Node28 -->
<g id="edge35" class="edge"><title>Node25&#45;&gt;Node28</title>
<path fill="none" stroke="midnightblue" d="M178.87,-224.324C195.709,-215.664 221.807,-202.242 241.238,-192.249"/>
<polygon fill="midnightblue" stroke="midnightblue" points="242.88,-195.341 250.172,-187.655 239.678,-189.116 242.88,-195.341"/>
</g>
<!-- Node29&#45;&gt;Node7 -->
<g id="edge37" class="edge"><title>Node29&#45;&gt;Node7</title>
<path fill="none" stroke="midnightblue" d="M38.0698,-168.429C34.0543,-154.969 28.6522,-128.693 41,-112 64.5177,-80.2058 110.057,-70.1411 144.248,-67.3032"/>
<polygon fill="midnightblue" stroke="midnightblue" points="144.706,-70.7809 154.457,-66.6384 144.251,-63.7957 144.706,-70.7809"/>
</g>
<!-- Node29&#45;&gt;Node17 -->
<g id="edge38" class="edge"><title>Node29&#45;&gt;Node17</title>
<path fill="none" stroke="midnightblue" d="M46.4493,-168.083C51.0145,-160.613 57.6684,-149.724 63.2934,-140.52"/>
<polygon fill="midnightblue" stroke="midnightblue" points="66.4241,-142.109 68.6521,-131.751 60.4511,-138.459 66.4241,-142.109"/>
</g>
</g>
</svg>
