<?xml version="1.0" encoding="UTF-8" standalone="no"?>
<!DOCTYPE svg PUBLIC "-//W3C//DTD SVG 1.1//EN"
 "http://www.w3.org/Graphics/SVG/1.1/DTD/svg11.dtd">
<!-- Generated by graphviz version 2.38.0 (20140413.2041)
 -->
<!-- Title: cuda_init.cpp Pages: 1 -->
<svg width="1008pt" height="364pt"
 viewBox="0.00 0.00 1008.00 364.00" xmlns="http://www.w3.org/2000/svg" xmlns:xlink="http://www.w3.org/1999/xlink">
<g id="graph0" class="graph" transform="scale(1 1) rotate(0) translate(4 360)">
<title>cuda_init.cpp</title>
<!-- Node1 -->
<g id="node1" class="node"><title>Node1</title>
<polygon fill="#bfbfbf" stroke="black" points="766,-336.5 766,-355.5 847,-355.5 847,-336.5 766,-336.5"/>
<text text-anchor="middle" x="806.5" y="-343.5" font-family="Helvetica,sans-Serif" font-size="10.00">cuda_init.cpp</text>
</g>
<!-- Node2 -->
<g id="node2" class="node"><title>Node2</title>
<g id="a_node2"><a xlink:href="config_8hpp.html" target="_top" xlink:title="This file contains the defaults for Espresso. ">
<polygon fill="none" stroke="black" points="561,-56.5 561,-75.5 628,-75.5 628,-56.5 561,-56.5"/>
<text text-anchor="middle" x="594.5" y="-63.5" font-family="Helvetica,sans-Serif" font-size="10.00">config.hpp</text>
</a>
</g>
</g>
<!-- Node1&#45;&gt;Node2 -->
<g id="edge1" class="edge"><title>Node1&#45;&gt;Node2</title>
<path fill="none" stroke="midnightblue" d="M809.737,-336.301C816.288,-317.889 830.5,-273.507 830.5,-235 830.5,-235 830.5,-235 830.5,-177 830.5,-93.0483 706.297,-73.0116 638.098,-68.3375"/>
<polygon fill="midnightblue" stroke="midnightblue" points="638.255,-64.8407 628.062,-67.7326 637.834,-71.828 638.255,-64.8407"/>
</g>
<!-- Node6 -->
<g id="node6" class="node"><title>Node6</title>
<g id="a_node6"><a xlink:href="utils_8hpp.html" target="_top" xlink:title="Small functions that are useful not only for one modul. ">
<polygon fill="none" stroke="black" points="372,-168.5 372,-187.5 431,-187.5 431,-168.5 372,-168.5"/>
<text text-anchor="middle" x="401.5" y="-175.5" font-family="Helvetica,sans-Serif" font-size="10.00">utils.hpp</text>
</a>
</g>
</g>
<!-- Node1&#45;&gt;Node6 -->
<g id="edge5" class="edge"><title>Node1&#45;&gt;Node6</title>
<path fill="none" stroke="midnightblue" d="M765.718,-342.37C664.035,-334.862 403.818,-309.494 353.5,-244 340.353,-226.888 360.337,-206.871 378.383,-193.619"/>
<polygon fill="midnightblue" stroke="midnightblue" points="380.704,-196.27 386.933,-187.7 376.719,-190.515 380.704,-196.27"/>
</g>
<!-- Node19 -->
<g id="node19" class="node"><title>Node19</title>
<g id="a_node19"><a xlink:href="cuda__init_8hpp.html" target="_top" xlink:title="cuda_init.hpp">
<polygon fill="none" stroke="black" points="580.5,-168.5 580.5,-187.5 662.5,-187.5 662.5,-168.5 580.5,-168.5"/>
<text text-anchor="middle" x="621.5" y="-175.5" font-family="Helvetica,sans-Serif" font-size="10.00">cuda_init.hpp</text>
</a>
</g>
</g>
<!-- Node1&#45;&gt;Node19 -->
<g id="edge22" class="edge"><title>Node1&#45;&gt;Node19</title>
<path fill="none" stroke="midnightblue" d="M797.648,-336.249C777.047,-315.983 724.097,-264.472 677.5,-224 665.612,-213.675 651.829,-202.589 640.913,-194.004"/>
<polygon fill="midnightblue" stroke="midnightblue" points="642.898,-191.114 632.863,-187.718 638.59,-196.631 642.898,-191.114"/>
</g>
<!-- Node20 -->
<g id="node20" class="node"><title>Node20</title>
<g id="a_node20"><a xlink:href="communication_8hpp.html" target="_top" xlink:title="This file contains the asynchronous MPI communication. ">
<polygon fill="none" stroke="black" points="573,-280.5 573,-299.5 686,-299.5 686,-280.5 573,-280.5"/>
<text text-anchor="middle" x="629.5" y="-287.5" font-family="Helvetica,sans-Serif" font-size="10.00">communication.hpp</text>
</a>
</g>
</g>
<!-- Node1&#45;&gt;Node20 -->
<g id="edge25" class="edge"><title>Node1&#45;&gt;Node20</title>
<path fill="none" stroke="midnightblue" d="M778.454,-336.444C748.418,-327.28 700.587,-312.688 667.257,-302.519"/>
<polygon fill="midnightblue" stroke="midnightblue" points="668.001,-299.087 657.415,-299.516 665.958,-305.782 668.001,-299.087"/>
</g>
<!-- Node24 -->
<g id="node24" class="node"><title>Node24</title>
<g id="a_node24"><a xlink:href="mpi_8h.html" target="_top" xlink:title="This is the MPIfake implementation. ">
<polygon fill="none" stroke="black" points="753.5,-224.5 753.5,-243.5 797.5,-243.5 797.5,-224.5 753.5,-224.5"/>
<text text-anchor="middle" x="775.5" y="-231.5" font-family="Helvetica,sans-Serif" font-size="10.00">mpi.h</text>
</a>
</g>
</g>
<!-- Node1&#45;&gt;Node24 -->
<g id="edge37" class="edge"><title>Node1&#45;&gt;Node24</title>
<path fill="none" stroke="midnightblue" d="M804.067,-336.368C799.042,-318.537 787.42,-277.295 780.649,-253.272"/>
<polygon fill="midnightblue" stroke="midnightblue" points="784.003,-252.267 777.921,-243.591 777.265,-254.166 784.003,-252.267"/>
</g>
<!-- Node25 -->
<g id="node25" class="node"><title>Node25</title>
<polygon fill="none" stroke="#bfbfbf" points="859,-168.5 859,-187.5 912,-187.5 912,-168.5 859,-168.5"/>
<text text-anchor="middle" x="885.5" y="-175.5" font-family="Helvetica,sans-Serif" font-size="10.00">string.h</text>
</g>
<!-- Node1&#45;&gt;Node25 -->
<g id="edge38" class="edge"><title>Node1&#45;&gt;Node25</title>
<path fill="none" stroke="midnightblue" d="M815.451,-336.45C823.944,-327.913 836.557,-314.069 844.5,-300 863.602,-266.167 875.759,-221.981 881.532,-197.452"/>
<polygon fill="midnightblue" stroke="midnightblue" points="884.952,-198.197 883.737,-187.672 878.123,-196.658 884.952,-198.197"/>
</g>
<!-- Node28 -->
<g id="node28" class="node"><title>Node28</title>
<polygon fill="none" stroke="#bfbfbf" points="896.5,-280.5 896.5,-299.5 928.5,-299.5 928.5,-280.5 896.5,-280.5"/>
<text text-anchor="middle" x="912.5" y="-287.5" font-family="Helvetica,sans-Serif" font-size="10.00">set</text>
</g>
<!-- Node1&#45;&gt;Node28 -->
<g id="edge39" class="edge"><title>Node1&#45;&gt;Node28</title>
<path fill="none" stroke="midnightblue" d="M823.531,-336.324C840.731,-327.562 867.501,-313.924 887.186,-303.896"/>
<polygon fill="midnightblue" stroke="midnightblue" points="888.886,-306.958 896.208,-299.3 885.709,-300.72 888.886,-306.958"/>
</g>
<!-- Node29 -->
<g id="node29" class="node"><title>Node29</title>
<polygon fill="none" stroke="#bfbfbf" points="947,-280.5 947,-299.5 1000,-299.5 1000,-280.5 947,-280.5"/>
<text text-anchor="middle" x="973.5" y="-287.5" font-family="Helvetica,sans-Serif" font-size="10.00">iterator</text>
</g>
<!-- Node1&#45;&gt;Node29 -->
<g id="edge40" class="edge"><title>Node1&#45;&gt;Node29</title>
<path fill="none" stroke="midnightblue" d="M832.962,-336.444C861.178,-327.32 906.04,-312.813 937.468,-302.651"/>
<polygon fill="midnightblue" stroke="midnightblue" points="938.724,-305.923 947.162,-299.516 936.57,-299.263 938.724,-305.923"/>
</g>
<!-- Node3 -->
<g id="node3" class="node"><title>Node3</title>
<g id="a_node3"><a xlink:href="acconfig_8hpp.html" target="_top" xlink:title="acconfig.hpp">
<polygon fill="none" stroke="black" points="444.5,-0.5 444.5,-19.5 522.5,-19.5 522.5,-0.5 444.5,-0.5"/>
<text text-anchor="middle" x="483.5" y="-7.5" font-family="Helvetica,sans-Serif" font-size="10.00">acconfig.hpp</text>
</a>
</g>
</g>
<!-- Node2&#45;&gt;Node3 -->
<g id="edge2" class="edge"><title>Node2&#45;&gt;Node3</title>
<path fill="none" stroke="midnightblue" d="M576.666,-56.324C558.784,-47.6247 531.025,-34.1202 510.454,-24.113"/>
<polygon fill="midnightblue" stroke="midnightblue" points="511.813,-20.8819 501.29,-19.6545 508.751,-27.1765 511.813,-20.8819"/>
</g>
<!-- Node4 -->
<g id="node4" class="node"><title>Node4</title>
<g id="a_node4"><a xlink:href="myconfig-final_8hpp.html" target="_top" xlink:title="myconfig&#45;final.hpp">
<polygon fill="none" stroke="black" points="541,-0.5 541,-19.5 648,-19.5 648,-0.5 541,-0.5"/>
<text text-anchor="middle" x="594.5" y="-7.5" font-family="Helvetica,sans-Serif" font-size="10.00">myconfig&#45;final.hpp</text>
</a>
</g>
</g>
<!-- Node2&#45;&gt;Node4 -->
<g id="edge3" class="edge"><title>Node2&#45;&gt;Node4</title>
<path fill="none" stroke="midnightblue" d="M594.5,-56.083C594.5,-49.0059 594.5,-38.8611 594.5,-29.9865"/>
<polygon fill="midnightblue" stroke="midnightblue" points="598,-29.751 594.5,-19.7511 591,-29.7511 598,-29.751"/>
</g>
<!-- Node5 -->
<g id="node5" class="node"><title>Node5</title>
<g id="a_node5"><a xlink:href="config-features_8hpp.html" target="_top" xlink:title="config&#45;features.hpp">
<polygon fill="none" stroke="black" points="666,-0.5 666,-19.5 777,-19.5 777,-0.5 666,-0.5"/>
<text text-anchor="middle" x="721.5" y="-7.5" font-family="Helvetica,sans-Serif" font-size="10.00">config&#45;features.hpp</text>
</a>
</g>
</g>
<!-- Node2&#45;&gt;Node5 -->
<g id="edge4" class="edge"><title>Node2&#45;&gt;Node5</title>
<path fill="none" stroke="midnightblue" d="M614.624,-56.4435C635.524,-47.5566 668.435,-33.5632 692.216,-23.4514"/>
<polygon fill="midnightblue" stroke="midnightblue" points="693.638,-26.6504 701.471,-19.5164 690.898,-20.2085 693.638,-26.6504"/>
</g>
<!-- Node6&#45;&gt;Node2 -->
<g id="edge10" class="edge"><title>Node6&#45;&gt;Node2</title>
<path fill="none" stroke="midnightblue" d="M413.221,-168.426C431.262,-155.415 467.144,-130.269 499.5,-112 520.882,-99.9272 546.03,-88.1144 565.079,-79.6232"/>
<polygon fill="midnightblue" stroke="midnightblue" points="566.692,-82.737 574.432,-75.5019 563.87,-76.3313 566.692,-82.737"/>
</g>
<!-- Node7 -->
<g id="node7" class="node"><title>Node7</title>
<polygon fill="none" stroke="#bfbfbf" points="0,-112.5 0,-131.5 47,-131.5 47,-112.5 0,-112.5"/>
<text text-anchor="middle" x="23.5" y="-119.5" font-family="Helvetica,sans-Serif" font-size="10.00">cmath</text>
</g>
<!-- Node6&#45;&gt;Node7 -->
<g id="edge6" class="edge"><title>Node6&#45;&gt;Node7</title>
<path fill="none" stroke="midnightblue" d="M371.741,-174.499C313.293,-169.291 179.298,-155.898 57.1007,-131.857"/>
<polygon fill="midnightblue" stroke="midnightblue" points="57.6924,-128.406 47.2006,-129.88 56.3217,-135.27 57.6924,-128.406"/>
</g>
<!-- Node8 -->
<g id="node8" class="node"><title>Node8</title>
<polygon fill="none" stroke="#bfbfbf" points="65.5,-112.5 65.5,-131.5 111.5,-131.5 111.5,-112.5 65.5,-112.5"/>
<text text-anchor="middle" x="88.5" y="-119.5" font-family="Helvetica,sans-Serif" font-size="10.00">cstdio</text>
</g>
<!-- Node6&#45;&gt;Node8 -->
<g id="edge7" class="edge"><title>Node6&#45;&gt;Node8</title>
<path fill="none" stroke="midnightblue" d="M371.755,-173.385C321.949,-167.084 218.392,-152.932 121.768,-132.073"/>
<polygon fill="midnightblue" stroke="midnightblue" points="122.357,-128.619 111.84,-129.9 120.861,-135.457 122.357,-128.619"/>
</g>
<!-- Node9 -->
<g id="node9" class="node"><title>Node9</title>
<polygon fill="none" stroke="#bfbfbf" points="130,-112.5 130,-131.5 179,-131.5 179,-112.5 130,-112.5"/>
<text text-anchor="middle" x="154.5" y="-119.5" font-family="Helvetica,sans-Serif" font-size="10.00">cstdlib</text>
</g>
<!-- Node6&#45;&gt;Node9 -->
<g id="edge8" class="edge"><title>Node6&#45;&gt;Node9</title>
<path fill="none" stroke="midnightblue" d="M371.76,-171.211C332.345,-163.431 260.42,-148.864 189.363,-132.11"/>
<polygon fill="midnightblue" stroke="midnightblue" points="189.884,-128.636 179.346,-129.732 188.267,-135.447 189.884,-128.636"/>
</g>
<!-- Node10 -->
<g id="node10" class="node"><title>Node10</title>
<polygon fill="none" stroke="#bfbfbf" points="197.5,-112.5 197.5,-131.5 247.5,-131.5 247.5,-112.5 197.5,-112.5"/>
<text text-anchor="middle" x="222.5" y="-119.5" font-family="Helvetica,sans-Serif" font-size="10.00">cstring</text>
</g>
<!-- Node6&#45;&gt;Node10 -->
<g id="edge9" class="edge"><title>Node6&#45;&gt;Node10</title>
<path fill="none" stroke="midnightblue" d="M373.137,-168.444C341.779,-158.984 291.241,-143.738 257.46,-133.546"/>
<polygon fill="midnightblue" stroke="midnightblue" points="258.138,-130.095 247.553,-130.558 256.116,-136.797 258.138,-130.095"/>
</g>
<!-- Node11 -->
<g id="node11" class="node"><title>Node11</title>
<g id="a_node11"><a xlink:href="debug_8hpp.html" target="_top" xlink:title="This file controls debug facilities. ">
<polygon fill="none" stroke="black" points="508.5,-112.5 508.5,-131.5 576.5,-131.5 576.5,-112.5 508.5,-112.5"/>
<text text-anchor="middle" x="542.5" y="-119.5" font-family="Helvetica,sans-Serif" font-size="10.00">debug.hpp</text>
</a>
</g>
</g>
<!-- Node6&#45;&gt;Node11 -->
<g id="edge11" class="edge"><title>Node6&#45;&gt;Node11</title>
<path fill="none" stroke="midnightblue" d="M423.842,-168.444C447.253,-159.478 484.236,-145.314 510.69,-135.183"/>
<polygon fill="midnightblue" stroke="midnightblue" points="512.176,-138.361 520.263,-131.516 509.672,-131.824 512.176,-138.361"/>
</g>
<!-- Node12 -->
<g id="node12" class="node"><title>Node12</title>
<g id="a_node12"><a xlink:href="lees__edwards_8hpp.html" target="_top" xlink:title="lees_edwards.hpp">
<polygon fill="none" stroke="black" points="594.5,-112.5 594.5,-131.5 698.5,-131.5 698.5,-112.5 594.5,-112.5"/>
<text text-anchor="middle" x="646.5" y="-119.5" font-family="Helvetica,sans-Serif" font-size="10.00">lees_edwards.hpp</text>
</a>
</g>
</g>
<!-- Node6&#45;&gt;Node12 -->
<g id="edge13" class="edge"><title>Node6&#45;&gt;Node12</title>
<path fill="none" stroke="midnightblue" d="M431.053,-170.486C472.369,-161.38 547.907,-144.731 597.659,-133.765"/>
<polygon fill="midnightblue" stroke="midnightblue" points="598.543,-137.154 607.555,-131.584 597.036,-130.318 598.543,-137.154"/>
</g>
<!-- Node13 -->
<g id="node13" class="node"><title>Node13</title>
<g id="a_node13"><a xlink:href="errorhandling_8hpp.html" target="_top" xlink:title="This file contains the errorhandling code for severe errors, like a broken bond or illegal parameter ...">
<polygon fill="none" stroke="black" points="349,-112.5 349,-131.5 452,-131.5 452,-112.5 349,-112.5"/>
<text text-anchor="middle" x="400.5" y="-119.5" font-family="Helvetica,sans-Serif" font-size="10.00">errorhandling.hpp</text>
</a>
</g>
</g>
<!-- Node6&#45;&gt;Node13 -->
<g id="edge15" class="edge"><title>Node6&#45;&gt;Node13</title>
<path fill="none" stroke="midnightblue" d="M401.335,-168.083C401.204,-161.006 401.016,-150.861 400.852,-141.986"/>
<polygon fill="midnightblue" stroke="midnightblue" points="404.347,-141.685 400.662,-131.751 397.348,-141.814 404.347,-141.685"/>
</g>
<!-- Node17 -->
<g id="node17" class="node"><title>Node17</title>
<polygon fill="none" stroke="#bfbfbf" points="717,-112.5 717,-131.5 764,-131.5 764,-112.5 717,-112.5"/>
<text text-anchor="middle" x="740.5" y="-119.5" font-family="Helvetica,sans-Serif" font-size="10.00">vector</text>
</g>
<!-- Node6&#45;&gt;Node17 -->
<g id="edge20" class="edge"><title>Node6&#45;&gt;Node17</title>
<path fill="none" stroke="midnightblue" d="M431.248,-173.83C484.521,-167.895 599.85,-153.875 706.8,-131.913"/>
<polygon fill="midnightblue" stroke="midnightblue" points="707.713,-135.298 716.79,-129.833 706.286,-128.445 707.713,-135.298"/>
</g>
<!-- Node18 -->
<g id="node18" class="node"><title>Node18</title>
<polygon fill="none" stroke="#bfbfbf" points="266,-112.5 266,-131.5 331,-131.5 331,-112.5 266,-112.5"/>
<text text-anchor="middle" x="298.5" y="-119.5" font-family="Helvetica,sans-Serif" font-size="10.00">exception</text>
</g>
<!-- Node6&#45;&gt;Node18 -->
<g id="edge21" class="edge"><title>Node6&#45;&gt;Node18</title>
<path fill="none" stroke="midnightblue" d="M384.951,-168.324C368.508,-159.703 343.065,-146.364 324.032,-136.386"/>
<polygon fill="midnightblue" stroke="midnightblue" points="325.489,-133.198 315.008,-131.655 322.239,-139.398 325.489,-133.198"/>
</g>
<!-- Node11&#45;&gt;Node2 -->
<g id="edge12" class="edge"><title>Node11&#45;&gt;Node2</title>
<path fill="none" stroke="midnightblue" d="M551.087,-112.083C558.659,-104.22 569.878,-92.5688 579.014,-83.0813"/>
<polygon fill="midnightblue" stroke="midnightblue" points="581.658,-85.3821 586.073,-75.7511 576.615,-80.5266 581.658,-85.3821"/>
</g>
<!-- Node12&#45;&gt;Node2 -->
<g id="edge14" class="edge"><title>Node12&#45;&gt;Node2</title>
<path fill="none" stroke="midnightblue" d="M637.913,-112.083C630.341,-104.22 619.122,-92.5688 609.986,-83.0813"/>
<polygon fill="midnightblue" stroke="midnightblue" points="612.385,-80.5266 602.927,-75.7511 607.342,-85.3821 612.385,-80.5266"/>
</g>
<!-- Node13&#45;&gt;Node2 -->
<g id="edge16" class="edge"><title>Node13&#45;&gt;Node2</title>
<path fill="none" stroke="midnightblue" d="M431.24,-112.444C464.444,-103.201 517.491,-88.4356 554.057,-78.2572"/>
<polygon fill="midnightblue" stroke="midnightblue" points="555.209,-81.5699 563.904,-75.5164 553.332,-74.8262 555.209,-81.5699"/>
</g>
<!-- Node14 -->
<g id="node14" class="node"><title>Node14</title>
<polygon fill="none" stroke="#bfbfbf" points="434.5,-56.5 434.5,-75.5 478.5,-75.5 478.5,-56.5 434.5,-56.5"/>
<text text-anchor="middle" x="456.5" y="-63.5" font-family="Helvetica,sans-Serif" font-size="10.00">string</text>
</g>
<!-- Node13&#45;&gt;Node14 -->
<g id="edge17" class="edge"><title>Node13&#45;&gt;Node14</title>
<path fill="none" stroke="midnightblue" d="M409.497,-112.324C417.694,-104.42 430.006,-92.5482 439.972,-82.9377"/>
<polygon fill="midnightblue" stroke="midnightblue" points="442.57,-85.2947 447.339,-75.8339 437.711,-80.2558 442.57,-85.2947"/>
</g>
<!-- Node15 -->
<g id="node15" class="node"><title>Node15</title>
<polygon fill="none" stroke="#bfbfbf" points="310.5,-56.5 310.5,-75.5 366.5,-75.5 366.5,-56.5 310.5,-56.5"/>
<text text-anchor="middle" x="338.5" y="-63.5" font-family="Helvetica,sans-Serif" font-size="10.00">sstream</text>
</g>
<!-- Node13&#45;&gt;Node15 -->
<g id="edge18" class="edge"><title>Node13&#45;&gt;Node15</title>
<path fill="none" stroke="midnightblue" d="M390.539,-112.324C381.373,-104.341 367.563,-92.3128 356.472,-82.6529"/>
<polygon fill="midnightblue" stroke="midnightblue" points="358.482,-79.7624 348.643,-75.8339 353.885,-85.041 358.482,-79.7624"/>
</g>
<!-- Node16 -->
<g id="node16" class="node"><title>Node16</title>
<polygon fill="none" stroke="#bfbfbf" points="384.5,-56.5 384.5,-75.5 416.5,-75.5 416.5,-56.5 384.5,-56.5"/>
<text text-anchor="middle" x="400.5" y="-63.5" font-family="Helvetica,sans-Serif" font-size="10.00">list</text>
</g>
<!-- Node13&#45;&gt;Node16 -->
<g id="edge19" class="edge"><title>Node13&#45;&gt;Node16</title>
<path fill="none" stroke="midnightblue" d="M400.5,-112.083C400.5,-105.006 400.5,-94.8611 400.5,-85.9865"/>
<polygon fill="midnightblue" stroke="midnightblue" points="404,-85.751 400.5,-75.7511 397,-85.7511 404,-85.751"/>
</g>
<!-- Node19&#45;&gt;Node2 -->
<g id="edge23" class="edge"><title>Node19&#45;&gt;Node2</title>
<path fill="none" stroke="midnightblue" d="M658.447,-168.423C700.865,-158.205 765.531,-141.348 772.5,-132 777.813,-124.873 777.961,-119.013 772.5,-112 756.171,-91.0295 685.582,-78.2845 638.354,-71.9473"/>
<polygon fill="midnightblue" stroke="midnightblue" points="638.733,-68.4672 628.366,-70.6551 637.835,-75.4094 638.733,-68.4672"/>
</g>
<!-- Node19&#45;&gt;Node17 -->
<g id="edge24" class="edge"><title>Node19&#45;&gt;Node17</title>
<path fill="none" stroke="midnightblue" d="M640.356,-168.444C659.766,-159.636 690.23,-145.812 712.465,-135.722"/>
<polygon fill="midnightblue" stroke="midnightblue" points="714.072,-138.836 721.732,-131.516 711.18,-132.462 714.072,-138.836"/>
</g>
<!-- Node20&#45;&gt;Node19 -->
<g id="edge36" class="edge"><title>Node20&#45;&gt;Node19</title>
<path fill="none" stroke="midnightblue" d="M639.089,-280.425C651.503,-268.226 670.635,-245.007 662.5,-224 658.046,-212.498 649.132,-202.131 640.751,-194.255"/>
<polygon fill="midnightblue" stroke="midnightblue" points="642.872,-191.46 633.041,-187.51 638.263,-196.729 642.872,-191.46"/>
</g>
<!-- Node21 -->
<g id="node21" class="node"><title>Node21</title>
<g id="a_node21"><a xlink:href="particle__data_8hpp.html" target="_top" xlink:title="For more information on particle_data, see particle_data.c. ">
<polygon fill="none" stroke="black" points="460,-224.5 460,-243.5 561,-243.5 561,-224.5 460,-224.5"/>
<text text-anchor="middle" x="510.5" y="-231.5" font-family="Helvetica,sans-Serif" font-size="10.00">particle_data.hpp</text>
</a>
</g>
</g>
<!-- Node20&#45;&gt;Node21 -->
<g id="edge26" class="edge"><title>Node20&#45;&gt;Node21</title>
<path fill="none" stroke="midnightblue" d="M610.644,-280.444C591.234,-271.636 560.77,-257.812 538.535,-247.722"/>
<polygon fill="midnightblue" stroke="midnightblue" points="539.82,-244.462 529.268,-243.516 536.928,-250.836 539.82,-244.462"/>
</g>
<!-- Node22 -->
<g id="node22" class="node"><title>Node22</title>
<g id="a_node22"><a xlink:href="random_8hpp.html" target="_top" xlink:title="A random generator. ">
<polygon fill="none" stroke="black" points="579,-224.5 579,-243.5 654,-243.5 654,-224.5 579,-224.5"/>
<text text-anchor="middle" x="616.5" y="-231.5" font-family="Helvetica,sans-Serif" font-size="10.00">random.hpp</text>
</a>
</g>
</g>
<!-- Node20&#45;&gt;Node22 -->
<g id="edge28" class="edge"><title>Node20&#45;&gt;Node22</title>
<path fill="none" stroke="midnightblue" d="M627.353,-280.083C625.631,-272.927 623.153,-262.635 621,-253.691"/>
<polygon fill="midnightblue" stroke="midnightblue" points="624.35,-252.654 618.607,-243.751 617.545,-254.293 624.35,-252.654"/>
</g>
<!-- Node23 -->
<g id="node23" class="node"><title>Node23</title>
<g id="a_node23"><a xlink:href="topology_8hpp.html" target="_top" xlink:title="This file contains functions for handling the system topology. ">
<polygon fill="none" stroke="black" points="363,-224.5 363,-243.5 442,-243.5 442,-224.5 363,-224.5"/>
<text text-anchor="middle" x="402.5" y="-231.5" font-family="Helvetica,sans-Serif" font-size="10.00">topology.hpp</text>
</a>
</g>
</g>
<!-- Node20&#45;&gt;Node23 -->
<g id="edge30" class="edge"><title>Node20&#45;&gt;Node23</title>
<path fill="none" stroke="midnightblue" d="M593.531,-280.444C554.181,-271.083 491.013,-256.056 448.186,-245.868"/>
<polygon fill="midnightblue" stroke="midnightblue" points="448.839,-242.426 438.301,-243.516 447.219,-249.236 448.839,-242.426"/>
</g>
<!-- Node20&#45;&gt;Node24 -->
<g id="edge32" class="edge"><title>Node20&#45;&gt;Node24</title>
<path fill="none" stroke="midnightblue" d="M652.634,-280.444C677.269,-271.332 716.416,-256.853 743.886,-246.693"/>
<polygon fill="midnightblue" stroke="midnightblue" points="745.265,-249.915 753.43,-243.163 742.837,-243.349 745.265,-249.915"/>
</g>
<!-- Node21&#45;&gt;Node6 -->
<g id="edge27" class="edge"><title>Node21&#45;&gt;Node6</title>
<path fill="none" stroke="midnightblue" d="M492.987,-224.324C475.428,-215.625 448.169,-202.12 427.969,-192.113"/>
<polygon fill="midnightblue" stroke="midnightblue" points="429.484,-188.958 418.969,-187.655 426.376,-195.23 429.484,-188.958"/>
</g>
<!-- Node22&#45;&gt;Node6 -->
<g id="edge29" class="edge"><title>Node22&#45;&gt;Node6</title>
<path fill="none" stroke="midnightblue" d="M582.433,-224.444C544.01,-214.793 481.612,-199.121 441.064,-188.937"/>
<polygon fill="midnightblue" stroke="midnightblue" points="441.805,-185.514 431.254,-186.473 440.1,-192.304 441.805,-185.514"/>
</g>
<!-- Node23&#45;&gt;Node6 -->
<g id="edge31" class="edge"><title>Node23&#45;&gt;Node6</title>
<path fill="none" stroke="midnightblue" d="M402.335,-224.083C402.204,-217.006 402.016,-206.861 401.852,-197.986"/>
<polygon fill="midnightblue" stroke="midnightblue" points="405.347,-197.685 401.662,-187.751 398.348,-197.814 405.347,-197.685"/>
</g>
<!-- Node24&#45;&gt;Node25 -->
<g id="edge33" class="edge"><title>Node24&#45;&gt;Node25</title>
<path fill="none" stroke="midnightblue" d="M793.173,-224.324C810.894,-215.625 838.403,-202.12 858.788,-192.113"/>
<polygon fill="midnightblue" stroke="midnightblue" points="860.436,-195.203 867.87,-187.655 857.351,-188.919 860.436,-195.203"/>
</g>
<!-- Node26 -->
<g id="node26" class="node"><title>Node26</title>
<polygon fill="none" stroke="#bfbfbf" points="680.5,-168.5 680.5,-187.5 730.5,-187.5 730.5,-168.5 680.5,-168.5"/>
<text text-anchor="middle" x="705.5" y="-175.5" font-family="Helvetica,sans-Serif" font-size="10.00">stdio.h</text>
</g>
<!-- Node24&#45;&gt;Node26 -->
<g id="edge34" class="edge"><title>Node24&#45;&gt;Node26</title>
<path fill="none" stroke="midnightblue" d="M764.253,-224.324C753.703,-216.185 737.699,-203.839 725.058,-194.087"/>
<polygon fill="midnightblue" stroke="midnightblue" points="727.007,-191.171 716.951,-187.834 722.731,-196.713 727.007,-191.171"/>
</g>
<!-- Node27 -->
<g id="node27" class="node"><title>Node27</title>
<polygon fill="none" stroke="#bfbfbf" points="749,-168.5 749,-187.5 802,-187.5 802,-168.5 749,-168.5"/>
<text text-anchor="middle" x="775.5" y="-175.5" font-family="Helvetica,sans-Serif" font-size="10.00">stdlib.h</text>
</g>
<!-- Node24&#45;&gt;Node27 -->
<g id="edge35" class="edge"><title>Node24&#45;&gt;Node27</title>
<path fill="none" stroke="midnightblue" d="M775.5,-224.083C775.5,-217.006 775.5,-206.861 775.5,-197.986"/>
<polygon fill="midnightblue" stroke="midnightblue" points="779,-197.751 775.5,-187.751 772,-197.751 779,-197.751"/>
</g>
</g>
</svg>
