<?xml version="1.0" encoding="UTF-8" standalone="no"?>
<!DOCTYPE svg PUBLIC "-//W3C//DTD SVG 1.1//EN"
 "http://www.w3.org/Graphics/SVG/1.1/DTD/svg11.dtd">
<!-- Generated by graphviz version 2.38.0 (20140413.2041)
 -->
<!-- Title: cuda_utils.hpp Pages: 1 -->
<!--zoomable 151 -->
<svg id="main" version="1.1" xmlns="http://www.w3.org/2000/svg" xmlns:xlink="http://www.w3.org/1999/xlink" xml:space="preserve" onload="init(evt)">
<style type="text/css"><![CDATA[
.edge:hover path { stroke: red; }
.edge:hover polygon { stroke: red; fill: red; }
]]></style>
<script type="text/javascript"><![CDATA[
var edges = document.getElementsByTagName('g');
if (edges && edges.length) {
  for (var i=0;i<edges.length;i++) {
    if (edges[i].id.substr(0,4)=='edge') {
      edges[i].setAttribute('class','edge');
    }
  }
}
]]></script>
        <defs>
                <circle id="rim" cx="0" cy="0" r="7"/>
                <circle id="rim2" cx="0" cy="0" r="3.5"/>
                <g id="zoomPlus">
                        <use xlink:href="#rim" fill="#404040">
                                <set attributeName="fill" to="#808080" begin="zoomplus.mouseover" end="zoomplus.mouseout"/>
                        </use>
                        <path d="M-4,0h8M0,-4v8" fill="none" stroke="white" stroke-width="1.5" pointer-events="none"/>
                </g>
                <g id="zoomMin">
                        <use xlink:href="#rim" fill="#404040">
                                <set attributeName="fill" to="#808080" begin="zoomminus.mouseover" end="zoomminus.mouseout"/>
                        </use>
                        <path d="M-4,0h8" fill="none" stroke="white" stroke-width="1.5" pointer-events="none"/>
                </g>
                <g id="dirArrow">
                        <path fill="none" stroke="white" stroke-width="1.5" d="M0,-3.0v7 M-2.5,-0.5L0,-3.0L2.5,-0.5"/>
                </g>
               <g id="resetDef">
                       <use xlink:href="#rim2" fill="#404040">
                               <set attributeName="fill" to="#808080" begin="reset.mouseover" end="reset.mouseout"/>
                       </use>
               </g>
        </defs>

<script type="text/javascript">
var viewWidth = 1728;
var viewHeight = 151;
var sectionId = 'dynsection-1';
</script>
<script xlink:href="svgpan.js"/>
<svg id="graph" class="graph">
<g id="viewport">
<title>cuda_utils.hpp</title>
<!-- Node1 -->
<g id="node1" class="node"><title>Node1</title>
<polygon fill="#bfbfbf" stroke="black" points="812,-123.5 812,-142.5 899,-142.5 899,-123.5 812,-123.5"/>
<text text-anchor="middle" x="855.5" y="-130.5" font-family="Helvetica,sans-Serif" font-size="10.00">cuda_utils.hpp</text>
</g>
<!-- Node2 -->
<g id="node2" class="node"><title>Node2</title>
<g id="a_node2"><a xlink:href="EwaldgpuForce__cuda_8cu.html" target="_top" xlink:title="EwaldgpuForce_cuda.cu">
<polygon fill="none" stroke="black" points="0,-62 0,-81 133,-81 133,-62 0,-62"/>
<text text-anchor="middle" x="66.5" y="-69" font-family="Helvetica,sans-Serif" font-size="10.00">EwaldgpuForce_cuda.cu</text>
</a>
</g>
</g>
<!-- Node1&#45;&gt;Node2 -->
<g id="edge1" class="edge"><title>Node1&#45;&gt;Node2</title>
<path fill="none" stroke="midnightblue" d="M801.607,-130.905C682.367,-127.979 387.365,-117.962 142.5,-87 130.64,-85.5003 117.84,-83.2908 106.188,-81.0464"/>
<polygon fill="midnightblue" stroke="midnightblue" points="801.836,-134.412 811.917,-131.151 802.003,-127.414 801.836,-134.412"/>
</g>
<!-- Node3 -->
<g id="node3" class="node"><title>Node3</title>
<g id="a_node3"><a xlink:href="HarmonicOrientationWell__cuda_8cu.html" target="_top" xlink:title="HarmonicOrientationWell\l_cuda.cu">
<polygon fill="none" stroke="black" points="151.5,-56.5 151.5,-86.5 291.5,-86.5 291.5,-56.5 151.5,-56.5"/>
<text text-anchor="start" x="159.5" y="-74.5" font-family="Helvetica,sans-Serif" font-size="10.00">HarmonicOrientationWell</text>
<text text-anchor="middle" x="221.5" y="-63.5" font-family="Helvetica,sans-Serif" font-size="10.00">_cuda.cu</text>
</a>
</g>
</g>
<!-- Node1&#45;&gt;Node3 -->
<g id="edge2" class="edge"><title>Node1&#45;&gt;Node3</title>
<path fill="none" stroke="midnightblue" d="M801.719,-129.442C702.38,-124.316 483.545,-111.157 300.5,-87 297.597,-86.6169 294.638,-86.199 291.653,-85.7547"/>
<polygon fill="midnightblue" stroke="midnightblue" points="801.645,-132.942 811.81,-129.956 802.001,-125.951 801.645,-132.942"/>
</g>
<!-- Node4 -->
<g id="node4" class="node"><title>Node4</title>
<g id="a_node4"><a xlink:href="HarmonicWell__cuda_8cu.html" target="_top" xlink:title="HarmonicWell_cuda.cu">
<polygon fill="none" stroke="black" points="309.5,-62 309.5,-81 437.5,-81 437.5,-62 309.5,-62"/>
<text text-anchor="middle" x="373.5" y="-69" font-family="Helvetica,sans-Serif" font-size="10.00">HarmonicWell_cuda.cu</text>
</a>
</g>
</g>
<!-- Node1&#45;&gt;Node4 -->
<g id="edge3" class="edge"><title>Node1&#45;&gt;Node4</title>
<path fill="none" stroke="midnightblue" d="M801.636,-127.569C723.229,-120.782 573.192,-106.515 446.5,-87 435.645,-85.328 423.951,-83.1677 413.171,-81.0278"/>
<polygon fill="midnightblue" stroke="midnightblue" points="801.492,-131.07 811.755,-128.438 802.091,-124.096 801.492,-131.07"/>
</g>
<!-- Node5 -->
<g id="node5" class="node"><title>Node5</title>
<g id="a_node5"><a xlink:href="mmm-common__cuda_8hpp.html" target="_top" xlink:title="mmm&#45;common_cuda.hpp">
<polygon fill="none" stroke="black" points="455.5,-62 455.5,-81 597.5,-81 597.5,-62 455.5,-62"/>
<text text-anchor="middle" x="526.5" y="-69" font-family="Helvetica,sans-Serif" font-size="10.00">mmm&#45;common_cuda.hpp</text>
</a>
</g>
</g>
<!-- Node1&#45;&gt;Node5 -->
<g id="edge4" class="edge"><title>Node1&#45;&gt;Node5</title>
<path fill="none" stroke="midnightblue" d="M801.613,-122.254C738.184,-110.783 633.873,-91.9186 573.564,-81.0116"/>
<polygon fill="midnightblue" stroke="midnightblue" points="801.348,-125.763 811.811,-124.099 802.594,-118.875 801.348,-125.763"/>
</g>
<!-- Node6 -->
<g id="node6" class="node"><title>Node6</title>
<g id="a_node6"><a xlink:href="Mmm1dgpuForce__cuda_8cu.html" target="_top" xlink:title="Mmm1dgpuForce_cuda.cu">
<polygon fill="none" stroke="black" points="504,-0.5 504,-19.5 647,-19.5 647,-0.5 504,-0.5"/>
<text text-anchor="middle" x="575.5" y="-7.5" font-family="Helvetica,sans-Serif" font-size="10.00">Mmm1dgpuForce_cuda.cu</text>
</a>
</g>
</g>
<!-- Node1&#45;&gt;Node6 -->
<g id="edge6" class="edge"><title>Node1&#45;&gt;Node6</title>
<path fill="none" stroke="midnightblue" d="M801.72,-129.455C757.281,-125.323 693.865,-114.614 645.5,-87 615.59,-69.9231 591.17,-35.7115 580.829,-19.6731"/>
<polygon fill="midnightblue" stroke="midnightblue" points="801.483,-132.947 811.743,-130.305 802.075,-125.972 801.483,-132.947"/>
</g>
<!-- Node7 -->
<g id="node7" class="node"><title>Node7</title>
<g id="a_node7"><a xlink:href="cuda__common__cuda_8cu.html" target="_top" xlink:title="cuda_common_cuda.cu">
<polygon fill="none" stroke="black" points="654,-62 654,-81 785,-81 785,-62 654,-62"/>
<text text-anchor="middle" x="719.5" y="-69" font-family="Helvetica,sans-Serif" font-size="10.00">cuda_common_cuda.cu</text>
</a>
</g>
</g>
<!-- Node1&#45;&gt;Node7 -->
<g id="edge7" class="edge"><title>Node1&#45;&gt;Node7</title>
<path fill="none" stroke="midnightblue" d="M826.534,-119.327C800.131,-107.776 761.858,-91.0316 738.949,-81.0091"/>
<polygon fill="midnightblue" stroke="midnightblue" points="825.45,-122.673 836.015,-123.475 828.256,-116.26 825.45,-122.673"/>
</g>
<!-- Node8 -->
<g id="node8" class="node"><title>Node8</title>
<g id="a_node8"><a xlink:href="cuda__init__cuda_8cu.html" target="_top" xlink:title="cuda_init_cuda.cu">
<polygon fill="none" stroke="black" points="803.5,-62 803.5,-81 907.5,-81 907.5,-62 803.5,-62"/>
<text text-anchor="middle" x="855.5" y="-69" font-family="Helvetica,sans-Serif" font-size="10.00">cuda_init_cuda.cu</text>
</a>
</g>
</g>
<!-- Node1&#45;&gt;Node8 -->
<g id="edge8" class="edge"><title>Node1&#45;&gt;Node8</title>
<path fill="none" stroke="midnightblue" d="M855.5,-113.317C855.5,-102.496 855.5,-89.398 855.5,-81.0091"/>
<polygon fill="midnightblue" stroke="midnightblue" points="852,-113.475 855.5,-123.475 859,-113.475 852,-113.475"/>
</g>
<!-- Node9 -->
<g id="node9" class="node"><title>Node9</title>
<g id="a_node9"><a xlink:href="EspressoSystemInterface__cuda_8cu.html" target="_top" xlink:title="EspressoSystemInterface\l_cuda.cu">
<polygon fill="none" stroke="black" points="925.5,-56.5 925.5,-86.5 1065.5,-86.5 1065.5,-56.5 925.5,-56.5"/>
<text text-anchor="start" x="933.5" y="-74.5" font-family="Helvetica,sans-Serif" font-size="10.00">EspressoSystemInterface</text>
<text text-anchor="middle" x="995.5" y="-63.5" font-family="Helvetica,sans-Serif" font-size="10.00">_cuda.cu</text>
</a>
</g>
</g>
<!-- Node1&#45;&gt;Node9 -->
<g id="edge9" class="edge"><title>Node1&#45;&gt;Node9</title>
<path fill="none" stroke="midnightblue" d="M885.005,-119.461C907.681,-109.823 938.999,-96.5127 962.505,-86.523"/>
<polygon fill="midnightblue" stroke="midnightblue" points="883.393,-116.342 875.559,-123.475 886.131,-122.785 883.393,-116.342"/>
</g>
<!-- Node10 -->
<g id="node10" class="node"><title>Node10</title>
<g id="a_node10"><a xlink:href="fd-electrostatics__cuda_8cu.html" target="_top" xlink:title="fd&#45;electrostatics_cuda.cu">
<polygon fill="none" stroke="black" points="1084,-62 1084,-81 1223,-81 1223,-62 1084,-62"/>
<text text-anchor="middle" x="1153.5" y="-69" font-family="Helvetica,sans-Serif" font-size="10.00">fd&#45;electrostatics_cuda.cu</text>
</a>
</g>
</g>
<!-- Node1&#45;&gt;Node10 -->
<g id="edge10" class="edge"><title>Node1&#45;&gt;Node10</title>
<path fill="none" stroke="midnightblue" d="M908.218,-121.474C965.972,-109.943 1057.48,-91.6719 1110.88,-81.0091"/>
<polygon fill="midnightblue" stroke="midnightblue" points="907.317,-118.085 898.196,-123.475 908.688,-124.949 907.317,-118.085"/>
</g>
<!-- Node11 -->
<g id="node11" class="node"><title>Node11</title>
<g id="a_node11"><a xlink:href="ibm__cuda_8cu.html" target="_top" xlink:title="ibm_cuda.cu">
<polygon fill="none" stroke="black" points="1241.5,-62 1241.5,-81 1319.5,-81 1319.5,-62 1241.5,-62"/>
<text text-anchor="middle" x="1280.5" y="-69" font-family="Helvetica,sans-Serif" font-size="10.00">ibm_cuda.cu</text>
</a>
</g>
</g>
<!-- Node1&#45;&gt;Node11 -->
<g id="edge11" class="edge"><title>Node1&#45;&gt;Node11</title>
<path fill="none" stroke="midnightblue" d="M909.557,-128.526C983.197,-123.119 1118.88,-110.752 1232.5,-87 1240,-85.4324 1248.01,-83.2292 1255.3,-81.0125"/>
<polygon fill="midnightblue" stroke="midnightblue" points="908.876,-125.066 899.153,-129.274 909.378,-132.048 908.876,-125.066"/>
</g>
<!-- Node12 -->
<g id="node12" class="node"><title>Node12</title>
<g id="a_node12"><a xlink:href="integrate__sd__cuda__debug_8cu.html" target="_top" xlink:title="integrate_sd_cuda_debug.cu">
<polygon fill="none" stroke="black" points="1338,-62 1338,-81 1493,-81 1493,-62 1338,-62"/>
<text text-anchor="middle" x="1415.5" y="-69" font-family="Helvetica,sans-Serif" font-size="10.00">integrate_sd_cuda_debug.cu</text>
</a>
</g>
</g>
<!-- Node1&#45;&gt;Node12 -->
<g id="edge12" class="edge"><title>Node1&#45;&gt;Node12</title>
<path fill="none" stroke="midnightblue" d="M909.31,-128.119C997.224,-121.5 1177.05,-106.801 1328.5,-87 1341.41,-85.3127 1355.33,-83.1474 1368.18,-81.0074"/>
<polygon fill="midnightblue" stroke="midnightblue" points="909.018,-124.631 899.307,-128.867 909.54,-131.611 909.018,-124.631"/>
</g>
<!-- Node13 -->
<g id="node13" class="node"><title>Node13</title>
<g id="a_node13"><a xlink:href="lbgpu__cuda_8cu.html" target="_top" xlink:title="Cuda (.cu) file for the Lattice Boltzmann implementation on GPUs. ">
<polygon fill="none" stroke="black" points="1511.5,-62 1511.5,-81 1597.5,-81 1597.5,-62 1511.5,-62"/>
<text text-anchor="middle" x="1554.5" y="-69" font-family="Helvetica,sans-Serif" font-size="10.00">lbgpu_cuda.cu</text>
</a>
</g>
</g>
<!-- Node1&#45;&gt;Node13 -->
<g id="edge13" class="edge"><title>Node1&#45;&gt;Node13</title>
<path fill="none" stroke="midnightblue" d="M909.329,-131.923C1020.83,-130.962 1284.82,-124.52 1502.5,-87 1510.9,-85.5513 1519.9,-83.3003 1528.02,-81.0005"/>
<polygon fill="midnightblue" stroke="midnightblue" points="908.994,-128.425 899.021,-132 909.047,-135.425 908.994,-128.425"/>
</g>
<!-- Node14 -->
<g id="node14" class="node"><title>Node14</title>
<g id="a_node14"><a xlink:href="p3m__gpu__cuda_8cu.html" target="_top" xlink:title="Cuda (.cu) file for the P3M electrostatics method. ">
<polygon fill="none" stroke="black" points="1615.5,-62 1615.5,-81 1719.5,-81 1719.5,-62 1615.5,-62"/>
<text text-anchor="middle" x="1667.5" y="-69" font-family="Helvetica,sans-Serif" font-size="10.00">p3m_gpu_cuda.cu</text>
</a>
</g>
</g>
<!-- Node1&#45;&gt;Node14 -->
<g id="edge14" class="edge"><title>Node1&#45;&gt;Node14</title>
<path fill="none" stroke="midnightblue" d="M909.727,-131.965C1033.78,-131.186 1347.54,-125.24 1606.5,-87 1616.3,-85.5529 1626.84,-83.3024 1636.36,-81.0026"/>
<polygon fill="midnightblue" stroke="midnightblue" points="909.35,-128.467 899.369,-132.021 909.388,-135.467 909.35,-128.467"/>
</g>
<!-- Node5&#45;&gt;Node6 -->
<g id="edge5" class="edge"><title>Node5&#45;&gt;Node6</title>
<path fill="none" stroke="midnightblue" d="M539.949,-54.1685C549.187,-42.952 561.075,-28.5161 568.493,-19.5091"/>
<polygon fill="midnightblue" stroke="midnightblue" points="537.176,-52.0308 533.521,-61.9751 542.579,-56.4808 537.176,-52.0308"/>
</g>
</g>
</svg>
        <g id="navigator" transform="translate(0 0)" fill="#404254">
                <rect fill="#f2f5e9" fill-opacity="0.5" stroke="#606060" stroke-width=".5" x="0" y="0" width="60" height="60"/>
                <use id="zoomplus" xlink:href="#zoomPlus" x="17" y="9" onmousedown="handleZoom(evt,'in')"/>
                <use id="zoomminus" xlink:href="#zoomMin" x="42" y="9" onmousedown="handleZoom(evt,'out')"/>
                <use id="reset" xlink:href="#resetDef" x="30" y="36" onmousedown="handleReset()"/>
                <g id="arrowUp" xlink:href="#dirArrow" transform="translate(30 24)" onmousedown="handlePan(0,-1)">
                  <use xlink:href="#rim" fill="#404040">
                        <set attributeName="fill" to="#808080" begin="arrowUp.mouseover" end="arrowUp.mouseout"/>
                  </use>
                  <path fill="none" stroke="white" stroke-width="1.5" d="M0,-3.0v7 M-2.5,-0.5L0,-3.0L2.5,-0.5"/>
                </g>
                <g id="arrowRight" xlink:href="#dirArrow" transform="rotate(90) translate(36 -43)" onmousedown="handlePan(1,0)">
                  <use xlink:href="#rim" fill="#404040">
                        <set attributeName="fill" to="#808080" begin="arrowRight.mouseover" end="arrowRight.mouseout"/>
                  </use>
                  <path fill="none" stroke="white" stroke-width="1.5" d="M0,-3.0v7 M-2.5,-0.5L0,-3.0L2.5,-0.5"/>
                </g>
                <g id="arrowDown" xlink:href="#dirArrow" transform="rotate(180) translate(-30 -48)" onmousedown="handlePan(0,1)">
                  <use xlink:href="#rim" fill="#404040">
                        <set attributeName="fill" to="#808080" begin="arrowDown.mouseover" end="arrowDown.mouseout"/>
                  </use>
                  <path fill="none" stroke="white" stroke-width="1.5" d="M0,-3.0v7 M-2.5,-0.5L0,-3.0L2.5,-0.5"/>
                </g>
                <g id="arrowLeft" xlink:href="#dirArrow" transform="rotate(270) translate(-36 17)" onmousedown="handlePan(-1,0)">
                  <use xlink:href="#rim" fill="#404040">
                        <set attributeName="fill" to="#808080" begin="arrowLeft.mouseover" end="arrowLeft.mouseout"/>
                  </use>
                  <path fill="none" stroke="white" stroke-width="1.5" d="M0,-3.0v7 M-2.5,-0.5L0,-3.0L2.5,-0.5"/>
                </g>
        </g>
        <svg viewBox="0 0 15 15" width="100%" height="30px" preserveAspectRatio="xMaxYMin meet">
         <g id="arrow_out" transform="scale(0.3 0.3)">
          <a xlink:href="cuda__utils_8hpp__dep__incl_org.svg" target="_base">
           <rect id="button" ry="5" rx="5" y="6" x="6" height="38" width="38"
                fill="#f2f5e9" fill-opacity="0.5" stroke="#606060" stroke-width="1.0"/>
           <path id="arrow"
             d="M 11.500037,31.436501 C 11.940474,20.09759 22.043105,11.32322 32.158766,21.979434 L 37.068811,17.246167 C 37.068811,17.246167 37.088388,32 37.088388,32 L 22.160133,31.978069 C 22.160133,31.978069 26.997745,27.140456 26.997745,27.140456 C 18.528582,18.264221 13.291696,25.230495 11.500037,31.436501 z"
             style="fill:#404040;"/>
          </a>
         </g>
        </svg>
</svg>
