<?xml version="1.0" encoding="UTF-8" standalone="no"?>
<!DOCTYPE svg PUBLIC "-//W3C//DTD SVG 1.1//EN"
 "http://www.w3.org/Graphics/SVG/1.1/DTD/svg11.dtd">
<!-- Generated by graphviz version 2.38.0 (20140413.2041)
 -->
<!-- Title: cuda_interface.hpp Pages: 1 -->
<svg width="493pt" height="196pt"
 viewBox="0.00 0.00 492.50 196.00" xmlns="http://www.w3.org/2000/svg" xmlns:xlink="http://www.w3.org/1999/xlink">
<g id="graph0" class="graph" transform="scale(1 1) rotate(0) translate(4 192)">
<title>cuda_interface.hpp</title>
<!-- Node1 -->
<g id="node1" class="node"><title>Node1</title>
<polygon fill="#bfbfbf" stroke="black" points="271,-168.5 271,-187.5 381,-187.5 381,-168.5 271,-168.5"/>
<text text-anchor="middle" x="326" y="-175.5" font-family="Helvetica,sans-Serif" font-size="10.00">cuda_interface.hpp</text>
</g>
<!-- Node2 -->
<g id="node2" class="node"><title>Node2</title>
<g id="a_node2"><a xlink:href="config_8hpp.html" target="_top" xlink:title="This file contains the defaults for Espresso. ">
<polygon fill="none" stroke="black" points="175.5,-112.5 175.5,-131.5 242.5,-131.5 242.5,-112.5 175.5,-112.5"/>
<text text-anchor="middle" x="209" y="-119.5" font-family="Helvetica,sans-Serif" font-size="10.00">config.hpp</text>
</a>
</g>
</g>
<!-- Node1&#45;&gt;Node2 -->
<g id="edge1" class="edge"><title>Node1&#45;&gt;Node2</title>
<path fill="none" stroke="midnightblue" d="M307.461,-168.444C288.377,-159.636 258.425,-145.812 236.564,-135.722"/>
<polygon fill="midnightblue" stroke="midnightblue" points="237.999,-132.529 227.452,-131.516 235.065,-138.885 237.999,-132.529"/>
</g>
<!-- Node6 -->
<g id="node6" class="node"><title>Node6</title>
<g id="a_node6"><a xlink:href="SystemInterface_8hpp.html" target="_top" xlink:title="SystemInterface.hpp">
<polygon fill="none" stroke="black" points="326,-112.5 326,-131.5 444,-131.5 444,-112.5 326,-112.5"/>
<text text-anchor="middle" x="385" y="-119.5" font-family="Helvetica,sans-Serif" font-size="10.00">SystemInterface.hpp</text>
</a>
</g>
</g>
<!-- Node1&#45;&gt;Node6 -->
<g id="edge5" class="edge"><title>Node1&#45;&gt;Node6</title>
<path fill="none" stroke="midnightblue" d="M335.479,-168.324C344.201,-160.341 357.343,-148.313 367.898,-138.653"/>
<polygon fill="midnightblue" stroke="midnightblue" points="370.334,-141.167 375.348,-131.834 365.608,-136.004 370.334,-141.167"/>
</g>
<!-- Node3 -->
<g id="node3" class="node"><title>Node3</title>
<g id="a_node3"><a xlink:href="acconfig_8hpp.html" target="_top" xlink:title="acconfig.hpp">
<polygon fill="none" stroke="black" points="0,-56.5 0,-75.5 78,-75.5 78,-56.5 0,-56.5"/>
<text text-anchor="middle" x="39" y="-63.5" font-family="Helvetica,sans-Serif" font-size="10.00">acconfig.hpp</text>
</a>
</g>
</g>
<!-- Node2&#45;&gt;Node3 -->
<g id="edge2" class="edge"><title>Node2&#45;&gt;Node3</title>
<path fill="none" stroke="midnightblue" d="M182.063,-112.444C153.34,-103.32 107.671,-88.8133 75.6788,-78.6509"/>
<polygon fill="midnightblue" stroke="midnightblue" points="76.4013,-75.2081 65.811,-75.5164 74.2821,-81.8797 76.4013,-75.2081"/>
</g>
<!-- Node4 -->
<g id="node4" class="node"><title>Node4</title>
<g id="a_node4"><a xlink:href="myconfig-final_8hpp.html" target="_top" xlink:title="myconfig&#45;final.hpp">
<polygon fill="none" stroke="black" points="96.5,-56.5 96.5,-75.5 203.5,-75.5 203.5,-56.5 96.5,-56.5"/>
<text text-anchor="middle" x="150" y="-63.5" font-family="Helvetica,sans-Serif" font-size="10.00">myconfig&#45;final.hpp</text>
</a>
</g>
</g>
<!-- Node2&#45;&gt;Node4 -->
<g id="edge3" class="edge"><title>Node2&#45;&gt;Node4</title>
<path fill="none" stroke="midnightblue" d="M199.521,-112.324C190.799,-104.341 177.657,-92.3128 167.102,-82.6529"/>
<polygon fill="midnightblue" stroke="midnightblue" points="169.392,-80.0036 159.652,-75.8339 164.666,-85.1674 169.392,-80.0036"/>
</g>
<!-- Node5 -->
<g id="node5" class="node"><title>Node5</title>
<g id="a_node5"><a xlink:href="config-features_8hpp.html" target="_top" xlink:title="config&#45;features.hpp">
<polygon fill="none" stroke="black" points="221.5,-56.5 221.5,-75.5 332.5,-75.5 332.5,-56.5 221.5,-56.5"/>
<text text-anchor="middle" x="277" y="-63.5" font-family="Helvetica,sans-Serif" font-size="10.00">config&#45;features.hpp</text>
</a>
</g>
</g>
<!-- Node2&#45;&gt;Node5 -->
<g id="edge4" class="edge"><title>Node2&#45;&gt;Node5</title>
<path fill="none" stroke="midnightblue" d="M219.925,-112.324C230.175,-104.185 245.721,-91.8395 258.001,-82.0874"/>
<polygon fill="midnightblue" stroke="midnightblue" points="260.221,-84.7937 265.876,-75.8339 255.868,-79.3119 260.221,-84.7937"/>
</g>
<!-- Node7 -->
<g id="node7" class="node"><title>Node7</title>
<g id="a_node7"><a xlink:href="Vector_8hpp.html" target="_top" xlink:title="Vector.hpp">
<polygon fill="none" stroke="black" points="351,-56.5 351,-75.5 419,-75.5 419,-56.5 351,-56.5"/>
<text text-anchor="middle" x="385" y="-63.5" font-family="Helvetica,sans-Serif" font-size="10.00">Vector.hpp</text>
</a>
</g>
</g>
<!-- Node6&#45;&gt;Node7 -->
<g id="edge6" class="edge"><title>Node6&#45;&gt;Node7</title>
<path fill="none" stroke="midnightblue" d="M385,-112.083C385,-105.006 385,-94.8611 385,-85.9865"/>
<polygon fill="midnightblue" stroke="midnightblue" points="388.5,-85.751 385,-75.7511 381.5,-85.7511 388.5,-85.751"/>
</g>
<!-- Node10 -->
<g id="node10" class="node"><title>Node10</title>
<polygon fill="none" stroke="#bfbfbf" points="437.5,-56.5 437.5,-75.5 484.5,-75.5 484.5,-56.5 437.5,-56.5"/>
<text text-anchor="middle" x="461" y="-63.5" font-family="Helvetica,sans-Serif" font-size="10.00">vector</text>
</g>
<!-- Node6&#45;&gt;Node10 -->
<g id="edge9" class="edge"><title>Node6&#45;&gt;Node10</title>
<path fill="none" stroke="midnightblue" d="M397.211,-112.324C408.776,-104.107 426.375,-91.6017 440.161,-81.8069"/>
<polygon fill="midnightblue" stroke="midnightblue" points="442.443,-84.4791 448.567,-75.8339 438.388,-78.7729 442.443,-84.4791"/>
</g>
<!-- Node8 -->
<g id="node8" class="node"><title>Node8</title>
<polygon fill="none" stroke="#bfbfbf" points="316,-0.5 316,-19.5 380,-19.5 380,-0.5 316,-0.5"/>
<text text-anchor="middle" x="348" y="-7.5" font-family="Helvetica,sans-Serif" font-size="10.00">algorithm</text>
</g>
<!-- Node7&#45;&gt;Node8 -->
<g id="edge7" class="edge"><title>Node7&#45;&gt;Node8</title>
<path fill="none" stroke="midnightblue" d="M378.89,-56.083C373.718,-48.5341 366.154,-37.4948 359.806,-28.2298"/>
<polygon fill="midnightblue" stroke="midnightblue" points="362.536,-26.0221 353.996,-19.7511 356.761,-29.9787 362.536,-26.0221"/>
</g>
<!-- Node9 -->
<g id="node9" class="node"><title>Node9</title>
<polygon fill="none" stroke="#bfbfbf" points="398.5,-0.5 398.5,-19.5 445.5,-19.5 445.5,-0.5 398.5,-0.5"/>
<text text-anchor="middle" x="422" y="-7.5" font-family="Helvetica,sans-Serif" font-size="10.00">cmath</text>
</g>
<!-- Node7&#45;&gt;Node9 -->
<g id="edge8" class="edge"><title>Node7&#45;&gt;Node9</title>
<path fill="none" stroke="midnightblue" d="M391.11,-56.083C396.282,-48.5341 403.846,-37.4948 410.194,-28.2298"/>
<polygon fill="midnightblue" stroke="midnightblue" points="413.239,-29.9787 416.004,-19.7511 407.464,-26.0221 413.239,-29.9787"/>
</g>
</g>
</svg>
