<?xml version="1.0" encoding="UTF-8" standalone="no"?>
<!DOCTYPE svg PUBLIC "-//W3C//DTD SVG 1.1//EN"
 "http://www.w3.org/Graphics/SVG/1.1/DTD/svg11.dtd">
<!-- Generated by graphviz version 2.38.0 (20140413.2041)
 -->
<!-- Title: cuda_init_cuda.cu Pages: 1 -->
<!--zoomable 252 -->
<svg id="main" version="1.1" xmlns="http://www.w3.org/2000/svg" xmlns:xlink="http://www.w3.org/1999/xlink" xml:space="preserve" onload="init(evt)">
<style type="text/css"><![CDATA[
.edge:hover path { stroke: red; }
.edge:hover polygon { stroke: red; fill: red; }
]]></style>
<script type="text/javascript"><![CDATA[
var edges = document.getElementsByTagName('g');
if (edges && edges.length) {
  for (var i=0;i<edges.length;i++) {
    if (edges[i].id.substr(0,4)=='edge') {
      edges[i].setAttribute('class','edge');
    }
  }
}
]]></script>
        <defs>
                <circle id="rim" cx="0" cy="0" r="7"/>
                <circle id="rim2" cx="0" cy="0" r="3.5"/>
                <g id="zoomPlus">
                        <use xlink:href="#rim" fill="#404040">
                                <set attributeName="fill" to="#808080" begin="zoomplus.mouseover" end="zoomplus.mouseout"/>
                        </use>
                        <path d="M-4,0h8M0,-4v8" fill="none" stroke="white" stroke-width="1.5" pointer-events="none"/>
                </g>
                <g id="zoomMin">
                        <use xlink:href="#rim" fill="#404040">
                                <set attributeName="fill" to="#808080" begin="zoomminus.mouseover" end="zoomminus.mouseout"/>
                        </use>
                        <path d="M-4,0h8" fill="none" stroke="white" stroke-width="1.5" pointer-events="none"/>
                </g>
                <g id="dirArrow">
                        <path fill="none" stroke="white" stroke-width="1.5" d="M0,-3.0v7 M-2.5,-0.5L0,-3.0L2.5,-0.5"/>
                </g>
               <g id="resetDef">
                       <use xlink:href="#rim2" fill="#404040">
                               <set attributeName="fill" to="#808080" begin="reset.mouseover" end="reset.mouseout"/>
                       </use>
               </g>
        </defs>

<script type="text/javascript">
var viewWidth = 967;
var viewHeight = 252;
var sectionId = 'dynsection-0';
</script>
<script xlink:href="svgpan.js"/>
<svg id="graph" class="graph">
<g id="viewport">
<title>cuda_init_cuda.cu</title>
<!-- Node1 -->
<g id="node1" class="node"><title>Node1</title>
<polygon fill="#bfbfbf" stroke="black" points="571.952,-224.5 571.952,-243.5 675.952,-243.5 675.952,-224.5 571.952,-224.5"/>
<text text-anchor="middle" x="623.952" y="-231.5" font-family="Helvetica,sans-Serif" font-size="10.00">cuda_init_cuda.cu</text>
</g>
<!-- Node2 -->
<g id="node2" class="node"><title>Node2</title>
<g id="a_node2"><a xlink:href="utils_8hpp.html" target="_top" xlink:title="Small functions that are useful not only for one modul. ">
<polygon fill="none" stroke="black" points="367.452,-168.5 367.452,-187.5 426.452,-187.5 426.452,-168.5 367.452,-168.5"/>
<text text-anchor="middle" x="396.952" y="-175.5" font-family="Helvetica,sans-Serif" font-size="10.00">utils.hpp</text>
</a>
</g>
</g>
<!-- Node1&#45;&gt;Node2 -->
<g id="edge1" class="edge"><title>Node1&#45;&gt;Node2</title>
<path fill="none" stroke="midnightblue" d="M587.983,-224.444C546.665,-214.615 479.089,-198.539 436.372,-188.377"/>
<polygon fill="midnightblue" stroke="midnightblue" points="437.142,-184.963 426.603,-186.054 435.522,-191.773 437.142,-184.963"/>
</g>
<!-- Node19 -->
<g id="node19" class="node"><title>Node19</title>
<g id="a_node19"><a xlink:href="cuda__init_8hpp.html" target="_top" xlink:title="cuda_init.hpp">
<polygon fill="none" stroke="black" points="582.952,-168.5 582.952,-187.5 664.952,-187.5 664.952,-168.5 582.952,-168.5"/>
<text text-anchor="middle" x="623.952" y="-175.5" font-family="Helvetica,sans-Serif" font-size="10.00">cuda_init.hpp</text>
</a>
</g>
</g>
<!-- Node1&#45;&gt;Node19 -->
<g id="edge21" class="edge"><title>Node1&#45;&gt;Node19</title>
<path fill="none" stroke="midnightblue" d="M623.952,-224.083C623.952,-217.006 623.952,-206.861 623.952,-197.986"/>
<polygon fill="midnightblue" stroke="midnightblue" points="627.452,-197.751 623.952,-187.751 620.452,-197.751 627.452,-197.751"/>
</g>
<!-- Node20 -->
<g id="node20" class="node"><title>Node20</title>
<g id="a_node20"><a xlink:href="cuda__utils_8hpp.html" target="_top" xlink:title="cuda_utils.hpp">
<polygon fill="none" stroke="black" points="802.452,-168.5 802.452,-187.5 889.452,-187.5 889.452,-168.5 802.452,-168.5"/>
<text text-anchor="middle" x="845.952" y="-175.5" font-family="Helvetica,sans-Serif" font-size="10.00">cuda_utils.hpp</text>
</a>
</g>
</g>
<!-- Node1&#45;&gt;Node20 -->
<g id="edge24" class="edge"><title>Node1&#45;&gt;Node20</title>
<path fill="none" stroke="midnightblue" d="M659.128,-224.444C697.531,-215.102 759.127,-200.119 801.007,-189.933"/>
<polygon fill="midnightblue" stroke="midnightblue" points="802.05,-193.281 810.94,-187.516 800.396,-186.479 802.05,-193.281"/>
</g>
<!-- Node3 -->
<g id="node3" class="node"><title>Node3</title>
<polygon fill="none" stroke="#bfbfbf" points="225.452,-112.5 225.452,-131.5 272.452,-131.5 272.452,-112.5 225.452,-112.5"/>
<text text-anchor="middle" x="248.952" y="-119.5" font-family="Helvetica,sans-Serif" font-size="10.00">cmath</text>
</g>
<!-- Node2&#45;&gt;Node3 -->
<g id="edge2" class="edge"><title>Node2&#45;&gt;Node3</title>
<path fill="none" stroke="midnightblue" d="M373.501,-168.444C348.819,-159.438 309.766,-145.189 281.975,-135.049"/>
<polygon fill="midnightblue" stroke="midnightblue" points="282.887,-131.656 272.293,-131.516 280.488,-138.232 282.887,-131.656"/>
</g>
<!-- Node4 -->
<g id="node4" class="node"><title>Node4</title>
<polygon fill="none" stroke="#bfbfbf" points="373.952,-112.5 373.952,-131.5 419.952,-131.5 419.952,-112.5 373.952,-112.5"/>
<text text-anchor="middle" x="396.952" y="-119.5" font-family="Helvetica,sans-Serif" font-size="10.00">cstdio</text>
</g>
<!-- Node2&#45;&gt;Node4 -->
<g id="edge3" class="edge"><title>Node2&#45;&gt;Node4</title>
<path fill="none" stroke="midnightblue" d="M396.952,-168.083C396.952,-161.006 396.952,-150.861 396.952,-141.986"/>
<polygon fill="midnightblue" stroke="midnightblue" points="400.452,-141.751 396.952,-131.751 393.452,-141.751 400.452,-141.751"/>
</g>
<!-- Node5 -->
<g id="node5" class="node"><title>Node5</title>
<polygon fill="none" stroke="#bfbfbf" points="438.452,-112.5 438.452,-131.5 487.452,-131.5 487.452,-112.5 438.452,-112.5"/>
<text text-anchor="middle" x="462.952" y="-119.5" font-family="Helvetica,sans-Serif" font-size="10.00">cstdlib</text>
</g>
<!-- Node2&#45;&gt;Node5 -->
<g id="edge4" class="edge"><title>Node2&#45;&gt;Node5</title>
<path fill="none" stroke="midnightblue" d="M407.556,-168.324C417.408,-160.263 432.303,-148.077 444.167,-138.369"/>
<polygon fill="midnightblue" stroke="midnightblue" points="446.631,-140.875 452.155,-131.834 442.199,-135.457 446.631,-140.875"/>
</g>
<!-- Node6 -->
<g id="node6" class="node"><title>Node6</title>
<polygon fill="none" stroke="#bfbfbf" points="505.952,-112.5 505.952,-131.5 555.952,-131.5 555.952,-112.5 505.952,-112.5"/>
<text text-anchor="middle" x="530.952" y="-119.5" font-family="Helvetica,sans-Serif" font-size="10.00">cstring</text>
</g>
<!-- Node2&#45;&gt;Node6 -->
<g id="edge5" class="edge"><title>Node2&#45;&gt;Node6</title>
<path fill="none" stroke="midnightblue" d="M418.184,-168.444C440.335,-159.517 475.27,-145.439 500.388,-135.317"/>
<polygon fill="midnightblue" stroke="midnightblue" points="501.851,-138.501 509.818,-131.516 499.235,-132.008 501.851,-138.501"/>
</g>
<!-- Node7 -->
<g id="node7" class="node"><title>Node7</title>
<g id="a_node7"><a xlink:href="config_8hpp.html" target="_top" xlink:title="This file contains the defaults for Espresso. ">
<polygon fill="none" stroke="black" points="121.452,-56.5 121.452,-75.5 188.452,-75.5 188.452,-56.5 121.452,-56.5"/>
<text text-anchor="middle" x="154.952" y="-63.5" font-family="Helvetica,sans-Serif" font-size="10.00">config.hpp</text>
</a>
</g>
</g>
<!-- Node2&#45;&gt;Node7 -->
<g id="edge6" class="edge"><title>Node2&#45;&gt;Node7</title>
<path fill="none" stroke="midnightblue" d="M367.33,-175.799C280.601,-171.984 31.8086,-158.776 7.95169,-132 -24.6596,-95.3987 56.7138,-78.4218 110.987,-71.3717"/>
<polygon fill="midnightblue" stroke="midnightblue" points="111.607,-74.822 121.106,-70.1297 110.754,-67.8742 111.607,-74.822"/>
</g>
<!-- Node11 -->
<g id="node11" class="node"><title>Node11</title>
<g id="a_node11"><a xlink:href="debug_8hpp.html" target="_top" xlink:title="This file controls debug facilities. ">
<polygon fill="none" stroke="black" points="16.9517,-112.5 16.9517,-131.5 84.9517,-131.5 84.9517,-112.5 16.9517,-112.5"/>
<text text-anchor="middle" x="50.9517" y="-119.5" font-family="Helvetica,sans-Serif" font-size="10.00">debug.hpp</text>
</a>
</g>
</g>
<!-- Node2&#45;&gt;Node11 -->
<g id="edge10" class="edge"><title>Node2&#45;&gt;Node11</title>
<path fill="none" stroke="midnightblue" d="M367.181,-173.171C314.417,-166.257 200.832,-150.8 95.0646,-132.114"/>
<polygon fill="midnightblue" stroke="midnightblue" points="95.6426,-128.662 85.1839,-130.355 94.4154,-135.553 95.6426,-128.662"/>
</g>
<!-- Node12 -->
<g id="node12" class="node"><title>Node12</title>
<g id="a_node12"><a xlink:href="lees__edwards_8hpp.html" target="_top" xlink:title="lees_edwards.hpp">
<polygon fill="none" stroke="black" points="102.952,-112.5 102.952,-131.5 206.952,-131.5 206.952,-112.5 102.952,-112.5"/>
<text text-anchor="middle" x="154.952" y="-119.5" font-family="Helvetica,sans-Serif" font-size="10.00">lees_edwards.hpp</text>
</a>
</g>
</g>
<!-- Node2&#45;&gt;Node12 -->
<g id="edge12" class="edge"><title>Node2&#45;&gt;Node12</title>
<path fill="none" stroke="midnightblue" d="M367.278,-170.379C326.39,-161.255 252.24,-144.709 203.289,-133.786"/>
<polygon fill="midnightblue" stroke="midnightblue" points="203.769,-130.307 193.247,-131.545 202.245,-137.139 203.769,-130.307"/>
</g>
<!-- Node13 -->
<g id="node13" class="node"><title>Node13</title>
<g id="a_node13"><a xlink:href="errorhandling_8hpp.html" target="_top" xlink:title="This file contains the errorhandling code for severe errors, like a broken bond or illegal parameter ...">
<polygon fill="none" stroke="black" points="678.452,-112.5 678.452,-131.5 781.452,-131.5 781.452,-112.5 678.452,-112.5"/>
<text text-anchor="middle" x="729.952" y="-119.5" font-family="Helvetica,sans-Serif" font-size="10.00">errorhandling.hpp</text>
</a>
</g>
</g>
<!-- Node2&#45;&gt;Node13 -->
<g id="edge14" class="edge"><title>Node2&#45;&gt;Node13</title>
<path fill="none" stroke="midnightblue" d="M426.503,-172.208C480.513,-163.449 596.21,-144.688 668.11,-133.028"/>
<polygon fill="midnightblue" stroke="midnightblue" points="669.078,-136.417 678.388,-131.362 667.957,-129.508 669.078,-136.417"/>
</g>
<!-- Node17 -->
<g id="node17" class="node"><title>Node17</title>
<polygon fill="none" stroke="#bfbfbf" points="574.452,-112.5 574.452,-131.5 621.452,-131.5 621.452,-112.5 574.452,-112.5"/>
<text text-anchor="middle" x="597.952" y="-119.5" font-family="Helvetica,sans-Serif" font-size="10.00">vector</text>
</g>
<!-- Node2&#45;&gt;Node17 -->
<g id="edge19" class="edge"><title>Node2&#45;&gt;Node17</title>
<path fill="none" stroke="midnightblue" d="M426.703,-169.075C458.388,-160.624 510.263,-146.763 564.392,-132.143"/>
<polygon fill="midnightblue" stroke="midnightblue" points="565.422,-135.49 574.162,-129.502 563.595,-128.732 565.422,-135.49"/>
</g>
<!-- Node18 -->
<g id="node18" class="node"><title>Node18</title>
<polygon fill="none" stroke="#bfbfbf" points="290.452,-112.5 290.452,-131.5 355.452,-131.5 355.452,-112.5 290.452,-112.5"/>
<text text-anchor="middle" x="322.952" y="-119.5" font-family="Helvetica,sans-Serif" font-size="10.00">exception</text>
</g>
<!-- Node2&#45;&gt;Node18 -->
<g id="edge20" class="edge"><title>Node2&#45;&gt;Node18</title>
<path fill="none" stroke="midnightblue" d="M385.062,-168.324C373.801,-160.107 356.665,-147.602 343.243,-137.807"/>
<polygon fill="midnightblue" stroke="midnightblue" points="345.198,-134.901 335.057,-131.834 341.072,-140.556 345.198,-134.901"/>
</g>
<!-- Node8 -->
<g id="node8" class="node"><title>Node8</title>
<g id="a_node8"><a xlink:href="acconfig_8hpp.html" target="_top" xlink:title="acconfig.hpp">
<polygon fill="none" stroke="black" points="4.95169,-0.5 4.95169,-19.5 82.9517,-19.5 82.9517,-0.5 4.95169,-0.5"/>
<text text-anchor="middle" x="43.9517" y="-7.5" font-family="Helvetica,sans-Serif" font-size="10.00">acconfig.hpp</text>
</a>
</g>
</g>
<!-- Node7&#45;&gt;Node8 -->
<g id="edge7" class="edge"><title>Node7&#45;&gt;Node8</title>
<path fill="none" stroke="midnightblue" d="M137.118,-56.324C119.236,-47.6247 91.4766,-34.1202 70.9061,-24.113"/>
<polygon fill="midnightblue" stroke="midnightblue" points="72.265,-20.8819 61.7415,-19.6545 69.2027,-27.1765 72.265,-20.8819"/>
</g>
<!-- Node9 -->
<g id="node9" class="node"><title>Node9</title>
<g id="a_node9"><a xlink:href="myconfig-final_8hpp.html" target="_top" xlink:title="myconfig&#45;final.hpp">
<polygon fill="none" stroke="black" points="101.452,-0.5 101.452,-19.5 208.452,-19.5 208.452,-0.5 101.452,-0.5"/>
<text text-anchor="middle" x="154.952" y="-7.5" font-family="Helvetica,sans-Serif" font-size="10.00">myconfig&#45;final.hpp</text>
</a>
</g>
</g>
<!-- Node7&#45;&gt;Node9 -->
<g id="edge8" class="edge"><title>Node7&#45;&gt;Node9</title>
<path fill="none" stroke="midnightblue" d="M154.952,-56.083C154.952,-49.0059 154.952,-38.8611 154.952,-29.9865"/>
<polygon fill="midnightblue" stroke="midnightblue" points="158.452,-29.751 154.952,-19.7511 151.452,-29.7511 158.452,-29.751"/>
</g>
<!-- Node10 -->
<g id="node10" class="node"><title>Node10</title>
<g id="a_node10"><a xlink:href="config-features_8hpp.html" target="_top" xlink:title="config&#45;features.hpp">
<polygon fill="none" stroke="black" points="226.452,-0.5 226.452,-19.5 337.452,-19.5 337.452,-0.5 226.452,-0.5"/>
<text text-anchor="middle" x="281.952" y="-7.5" font-family="Helvetica,sans-Serif" font-size="10.00">config&#45;features.hpp</text>
</a>
</g>
</g>
<!-- Node7&#45;&gt;Node10 -->
<g id="edge9" class="edge"><title>Node7&#45;&gt;Node10</title>
<path fill="none" stroke="midnightblue" d="M175.075,-56.4435C195.976,-47.5566 228.886,-33.5632 252.668,-23.4514"/>
<polygon fill="midnightblue" stroke="midnightblue" points="254.089,-26.6504 261.922,-19.5164 251.35,-20.2085 254.089,-26.6504"/>
</g>
<!-- Node11&#45;&gt;Node7 -->
<g id="edge11" class="edge"><title>Node11&#45;&gt;Node7</title>
<path fill="none" stroke="midnightblue" d="M67.6611,-112.324C84.2636,-103.703 109.954,-90.3643 129.172,-80.3855"/>
<polygon fill="midnightblue" stroke="midnightblue" points="131.022,-83.3689 138.284,-75.6545 127.796,-77.1565 131.022,-83.3689"/>
</g>
<!-- Node12&#45;&gt;Node7 -->
<g id="edge13" class="edge"><title>Node12&#45;&gt;Node7</title>
<path fill="none" stroke="midnightblue" d="M154.952,-112.083C154.952,-105.006 154.952,-94.8611 154.952,-85.9865"/>
<polygon fill="midnightblue" stroke="midnightblue" points="158.452,-85.751 154.952,-75.7511 151.452,-85.7511 158.452,-85.751"/>
</g>
<!-- Node13&#45;&gt;Node7 -->
<g id="edge15" class="edge"><title>Node13&#45;&gt;Node7</title>
<path fill="none" stroke="midnightblue" d="M678.1,-113.693C673.32,-113.091 668.549,-112.516 663.952,-112 492.193,-92.7076 287.055,-76.7162 198.828,-70.1755"/>
<polygon fill="midnightblue" stroke="midnightblue" points="198.888,-66.6705 188.658,-69.4251 198.373,-73.6516 198.888,-66.6705"/>
</g>
<!-- Node14 -->
<g id="node14" class="node"><title>Node14</title>
<polygon fill="none" stroke="#bfbfbf" points="707.952,-56.5 707.952,-75.5 751.952,-75.5 751.952,-56.5 707.952,-56.5"/>
<text text-anchor="middle" x="729.952" y="-63.5" font-family="Helvetica,sans-Serif" font-size="10.00">string</text>
</g>
<!-- Node13&#45;&gt;Node14 -->
<g id="edge16" class="edge"><title>Node13&#45;&gt;Node14</title>
<path fill="none" stroke="midnightblue" d="M729.952,-112.083C729.952,-105.006 729.952,-94.8611 729.952,-85.9865"/>
<polygon fill="midnightblue" stroke="midnightblue" points="733.452,-85.751 729.952,-75.7511 726.452,-85.7511 733.452,-85.751"/>
</g>
<!-- Node15 -->
<g id="node15" class="node"><title>Node15</title>
<polygon fill="none" stroke="#bfbfbf" points="769.952,-56.5 769.952,-75.5 825.952,-75.5 825.952,-56.5 769.952,-56.5"/>
<text text-anchor="middle" x="797.952" y="-63.5" font-family="Helvetica,sans-Serif" font-size="10.00">sstream</text>
</g>
<!-- Node13&#45;&gt;Node15 -->
<g id="edge17" class="edge"><title>Node13&#45;&gt;Node15</title>
<path fill="none" stroke="midnightblue" d="M740.877,-112.324C751.126,-104.185 766.672,-91.8395 778.953,-82.0874"/>
<polygon fill="midnightblue" stroke="midnightblue" points="781.173,-84.7937 786.828,-75.8339 776.82,-79.3119 781.173,-84.7937"/>
</g>
<!-- Node16 -->
<g id="node16" class="node"><title>Node16</title>
<polygon fill="none" stroke="#bfbfbf" points="657.952,-56.5 657.952,-75.5 689.952,-75.5 689.952,-56.5 657.952,-56.5"/>
<text text-anchor="middle" x="673.952" y="-63.5" font-family="Helvetica,sans-Serif" font-size="10.00">list</text>
</g>
<!-- Node13&#45;&gt;Node16 -->
<g id="edge18" class="edge"><title>Node13&#45;&gt;Node16</title>
<path fill="none" stroke="midnightblue" d="M720.954,-112.324C712.757,-104.42 700.446,-92.5482 690.48,-82.9377"/>
<polygon fill="midnightblue" stroke="midnightblue" points="692.741,-80.2558 683.113,-75.8339 687.882,-85.2947 692.741,-80.2558"/>
</g>
<!-- Node19&#45;&gt;Node7 -->
<g id="edge22" class="edge"><title>Node19&#45;&gt;Node7</title>
<path fill="none" stroke="midnightblue" d="M628.438,-168.128C634.745,-154.255 643.984,-127.424 629.952,-112 601.23,-80.429 310.879,-70.5254 198.782,-67.8641"/>
<polygon fill="midnightblue" stroke="midnightblue" points="198.583,-64.3587 188.505,-67.6287 198.422,-71.3569 198.583,-64.3587"/>
</g>
<!-- Node19&#45;&gt;Node17 -->
<g id="edge23" class="edge"><title>Node19&#45;&gt;Node17</title>
<path fill="none" stroke="midnightblue" d="M619.658,-168.083C616.099,-160.691 610.929,-149.953 606.527,-140.811"/>
<polygon fill="midnightblue" stroke="midnightblue" points="609.657,-139.243 602.165,-131.751 603.35,-142.279 609.657,-139.243"/>
</g>
<!-- Node21 -->
<g id="node21" class="node"><title>Node21</title>
<polygon fill="none" stroke="#bfbfbf" points="910.452,-112.5 910.452,-131.5 959.452,-131.5 959.452,-112.5 910.452,-112.5"/>
<text text-anchor="middle" x="934.952" y="-119.5" font-family="Helvetica,sans-Serif" font-size="10.00">cuda.h</text>
</g>
<!-- Node20&#45;&gt;Node21 -->
<g id="edge25" class="edge"><title>Node20&#45;&gt;Node21</title>
<path fill="none" stroke="midnightblue" d="M860.251,-168.324C874.135,-159.9 895.444,-146.971 911.755,-137.074"/>
<polygon fill="midnightblue" stroke="midnightblue" points="913.954,-139.834 920.688,-131.655 910.323,-133.85 913.954,-139.834"/>
</g>
<!-- Node22 -->
<g id="node22" class="node"><title>Node22</title>
<polygon fill="none" stroke="#bfbfbf" points="799.952,-112.5 799.952,-131.5 891.952,-131.5 891.952,-112.5 799.952,-112.5"/>
<text text-anchor="middle" x="845.952" y="-119.5" font-family="Helvetica,sans-Serif" font-size="10.00">cuda_runtime.h</text>
</g>
<!-- Node20&#45;&gt;Node22 -->
<g id="edge26" class="edge"><title>Node20&#45;&gt;Node22</title>
<path fill="none" stroke="midnightblue" d="M845.952,-168.083C845.952,-161.006 845.952,-150.861 845.952,-141.986"/>
<polygon fill="midnightblue" stroke="midnightblue" points="849.452,-141.751 845.952,-131.751 842.452,-141.751 849.452,-141.751"/>
</g>
</g>
</svg>
        <g id="navigator" transform="translate(0 0)" fill="#404254">
                <rect fill="#f2f5e9" fill-opacity="0.5" stroke="#606060" stroke-width=".5" x="0" y="0" width="60" height="60"/>
                <use id="zoomplus" xlink:href="#zoomPlus" x="17" y="9" onmousedown="handleZoom(evt,'in')"/>
                <use id="zoomminus" xlink:href="#zoomMin" x="42" y="9" onmousedown="handleZoom(evt,'out')"/>
                <use id="reset" xlink:href="#resetDef" x="30" y="36" onmousedown="handleReset()"/>
                <g id="arrowUp" xlink:href="#dirArrow" transform="translate(30 24)" onmousedown="handlePan(0,-1)">
                  <use xlink:href="#rim" fill="#404040">
                        <set attributeName="fill" to="#808080" begin="arrowUp.mouseover" end="arrowUp.mouseout"/>
                  </use>
                  <path fill="none" stroke="white" stroke-width="1.5" d="M0,-3.0v7 M-2.5,-0.5L0,-3.0L2.5,-0.5"/>
                </g>
                <g id="arrowRight" xlink:href="#dirArrow" transform="rotate(90) translate(36 -43)" onmousedown="handlePan(1,0)">
                  <use xlink:href="#rim" fill="#404040">
                        <set attributeName="fill" to="#808080" begin="arrowRight.mouseover" end="arrowRight.mouseout"/>
                  </use>
                  <path fill="none" stroke="white" stroke-width="1.5" d="M0,-3.0v7 M-2.5,-0.5L0,-3.0L2.5,-0.5"/>
                </g>
                <g id="arrowDown" xlink:href="#dirArrow" transform="rotate(180) translate(-30 -48)" onmousedown="handlePan(0,1)">
                  <use xlink:href="#rim" fill="#404040">
                        <set attributeName="fill" to="#808080" begin="arrowDown.mouseover" end="arrowDown.mouseout"/>
                  </use>
                  <path fill="none" stroke="white" stroke-width="1.5" d="M0,-3.0v7 M-2.5,-0.5L0,-3.0L2.5,-0.5"/>
                </g>
                <g id="arrowLeft" xlink:href="#dirArrow" transform="rotate(270) translate(-36 17)" onmousedown="handlePan(-1,0)">
                  <use xlink:href="#rim" fill="#404040">
                        <set attributeName="fill" to="#808080" begin="arrowLeft.mouseover" end="arrowLeft.mouseout"/>
                  </use>
                  <path fill="none" stroke="white" stroke-width="1.5" d="M0,-3.0v7 M-2.5,-0.5L0,-3.0L2.5,-0.5"/>
                </g>
        </g>
        <svg viewBox="0 0 15 15" width="100%" height="30px" preserveAspectRatio="xMaxYMin meet">
         <g id="arrow_out" transform="scale(0.3 0.3)">
          <a xlink:href="cuda__init__cuda_8cu__incl_org.svg" target="_base">
           <rect id="button" ry="5" rx="5" y="6" x="6" height="38" width="38"
                fill="#f2f5e9" fill-opacity="0.5" stroke="#606060" stroke-width="1.0"/>
           <path id="arrow"
             d="M 11.500037,31.436501 C 11.940474,20.09759 22.043105,11.32322 32.158766,21.979434 L 37.068811,17.246167 C 37.068811,17.246167 37.088388,32 37.088388,32 L 22.160133,31.978069 C 22.160133,31.978069 26.997745,27.140456 26.997745,27.140456 C 18.528582,18.264221 13.291696,25.230495 11.500037,31.436501 z"
             style="fill:#404040;"/>
          </a>
         </g>
        </svg>
</svg>
