<?xml version="1.0" encoding="UTF-8" standalone="no"?>
<!DOCTYPE svg PUBLIC "-//W3C//DTD SVG 1.1//EN"
 "http://www.w3.org/Graphics/SVG/1.1/DTD/svg11.dtd">
<!-- Generated by graphviz version 2.38.0 (20140413.2041)
 -->
<!-- Title: debye_hueckel.hpp Pages: 1 -->
<svg width="2284pt" height="207pt"
 viewBox="0.00 0.00 2284.00 207.00" xmlns="http://www.w3.org/2000/svg" xmlns:xlink="http://www.w3.org/1999/xlink">
<g id="graph0" class="graph" transform="scale(1 1) rotate(0) translate(4 203)">
<title>debye_hueckel.hpp</title>
<!-- Node1 -->
<g id="node1" class="node"><title>Node1</title>
<polygon fill="#bfbfbf" stroke="black" points="1757.5,-179.5 1757.5,-198.5 1868.5,-198.5 1868.5,-179.5 1757.5,-179.5"/>
<text text-anchor="middle" x="1813" y="-186.5" font-family="Helvetica,sans-Serif" font-size="10.00">debye_hueckel.hpp</text>
</g>
<!-- Node2 -->
<g id="node2" class="node"><title>Node2</title>
<g id="a_node2"><a xlink:href="forces__inline_8hpp.html" target="_top" xlink:title="forces_inline.hpp">
<polygon fill="none" stroke="black" points="249,-123.5 249,-142.5 349,-142.5 349,-123.5 249,-123.5"/>
<text text-anchor="middle" x="299" y="-130.5" font-family="Helvetica,sans-Serif" font-size="10.00">forces_inline.hpp</text>
</a>
</g>
</g>
<!-- Node1&#45;&gt;Node2 -->
<g id="edge1" class="edge"><title>Node1&#45;&gt;Node2</title>
<path fill="none" stroke="midnightblue" d="M1747.11,-185.65C1492.35,-176.563 574.778,-143.836 349.307,-135.794"/>
<polygon fill="midnightblue" stroke="midnightblue" points="1747.2,-189.155 1757.32,-186.014 1747.45,-182.16 1747.2,-189.155"/>
</g>
<!-- Node7 -->
<g id="node7" class="node"><title>Node7</title>
<g id="a_node7"><a xlink:href="initialize_8cpp.html" target="_top" xlink:title="Implementation of initialize.hpp. ">
<polygon fill="none" stroke="black" points="1767.5,-6 1767.5,-25 1846.5,-25 1846.5,-6 1767.5,-6"/>
<text text-anchor="middle" x="1807" y="-13" font-family="Helvetica,sans-Serif" font-size="10.00">initialize.cpp</text>
</a>
</g>
</g>
<!-- Node1&#45;&gt;Node7 -->
<g id="edge36" class="edge"><title>Node1&#45;&gt;Node7</title>
<path fill="none" stroke="midnightblue" d="M1812.33,-168.853C1811.03,-131.734 1808.22,-51.3267 1807.3,-25.0194"/>
<polygon fill="midnightblue" stroke="midnightblue" points="1808.85,-169.388 1812.69,-179.26 1815.84,-169.143 1808.85,-169.388"/>
</g>
<!-- Node10 -->
<g id="node10" class="node"><title>Node10</title>
<g id="a_node10"><a xlink:href="interaction__data_8cpp.html" target="_top" xlink:title="Implementation of interaction_data.hpp. ">
<polygon fill="none" stroke="black" points="2160,-6 2160,-25 2276,-25 2276,-6 2160,-6"/>
<text text-anchor="middle" x="2218" y="-13" font-family="Helvetica,sans-Serif" font-size="10.00">interaction_data.cpp</text>
</a>
</g>
</g>
<!-- Node1&#45;&gt;Node10 -->
<g id="edge37" class="edge"><title>Node1&#45;&gt;Node10</title>
<path fill="none" stroke="midnightblue" d="M1819.23,-169.9C1825.19,-155.21 1835.57,-135.028 1851,-123 1877.82,-102.097 2097.02,-46.3782 2183.3,-25.0074"/>
<polygon fill="midnightblue" stroke="midnightblue" points="1815.9,-168.838 1815.67,-179.431 1822.45,-171.292 1815.9,-168.838"/>
</g>
<!-- Node26 -->
<g id="node26" class="node"><title>Node26</title>
<g id="a_node26"><a xlink:href="energy__inline_8hpp.html" target="_top" xlink:title="Implementation of the energy calculation. ">
<polygon fill="none" stroke="black" points="352,-67.5 352,-86.5 456,-86.5 456,-67.5 352,-67.5"/>
<text text-anchor="middle" x="404" y="-74.5" font-family="Helvetica,sans-Serif" font-size="10.00">energy_inline.hpp</text>
</a>
</g>
</g>
<!-- Node1&#45;&gt;Node26 -->
<g id="edge28" class="edge"><title>Node1&#45;&gt;Node26</title>
<path fill="none" stroke="midnightblue" d="M1747.32,-182.872C1506.32,-164.057 673.423,-99.0338 456.164,-82.0724"/>
<polygon fill="midnightblue" stroke="midnightblue" points="1747.09,-186.365 1757.33,-183.654 1747.63,-179.386 1747.09,-186.365"/>
</g>
<!-- Node28 -->
<g id="node28" class="node"><title>Node28</title>
<g id="a_node28"><a xlink:href="core_2debye__hueckel_8cpp.html" target="_top" xlink:title="debye_hueckel.cpp">
<polygon fill="none" stroke="black" points="1860,-123.5 1860,-142.5 1970,-142.5 1970,-123.5 1860,-123.5"/>
<text text-anchor="middle" x="1915" y="-130.5" font-family="Helvetica,sans-Serif" font-size="10.00">debye_hueckel.cpp</text>
</a>
</g>
</g>
<!-- Node1&#45;&gt;Node28 -->
<g id="edge35" class="edge"><title>Node1&#45;&gt;Node28</title>
<path fill="none" stroke="midnightblue" d="M1838.33,-174.59C1857.19,-164.605 1882.38,-151.267 1898.65,-142.655"/>
<polygon fill="midnightblue" stroke="midnightblue" points="1836.59,-171.552 1829.39,-179.324 1839.86,-177.738 1836.59,-171.552"/>
</g>
<!-- Node29 -->
<g id="node29" class="node"><title>Node29</title>
<g id="a_node29"><a xlink:href="debye__hueckel__tcl_8cpp.html" target="_top" xlink:title="Implementation of debye_hueckel_tcl.hpp. ">
<polygon fill="none" stroke="black" points="1988,-123.5 1988,-142.5 2116,-142.5 2116,-123.5 1988,-123.5"/>
<text text-anchor="middle" x="2052" y="-130.5" font-family="Helvetica,sans-Serif" font-size="10.00">debye_hueckel_tcl.cpp</text>
</a>
</g>
</g>
<!-- Node1&#45;&gt;Node29 -->
<g id="edge38" class="edge"><title>Node1&#45;&gt;Node29</title>
<path fill="none" stroke="midnightblue" d="M1860.72,-177.217C1905.89,-167.013 1972.77,-151.901 2014.31,-142.516"/>
<polygon fill="midnightblue" stroke="midnightblue" points="1859.85,-173.826 1850.87,-179.444 1861.4,-180.654 1859.85,-173.826"/>
</g>
<!-- Node3 -->
<g id="node3" class="node"><title>Node3</title>
<g id="a_node3"><a xlink:href="pressure_8hpp.html" target="_top" xlink:title="Pressure calculation. ">
<polygon fill="none" stroke="black" points="952,-67.5 952,-86.5 1032,-86.5 1032,-67.5 952,-67.5"/>
<text text-anchor="middle" x="992" y="-74.5" font-family="Helvetica,sans-Serif" font-size="10.00">pressure.hpp</text>
</a>
</g>
</g>
<!-- Node2&#45;&gt;Node3 -->
<g id="edge2" class="edge"><title>Node2&#45;&gt;Node3</title>
<path fill="none" stroke="midnightblue" d="M359.127,-127.315C497.542,-116.529 835.72,-90.1776 951.976,-81.1187"/>
<polygon fill="midnightblue" stroke="midnightblue" points="358.815,-123.828 349.118,-128.095 359.359,-130.807 358.815,-123.828"/>
</g>
<!-- Node11 -->
<g id="node11" class="node"><title>Node11</title>
<g id="a_node11"><a xlink:href="layered_8cpp.html" target="_top" xlink:title="Implementation of layered.h. ">
<polygon fill="none" stroke="black" points="192,-6 192,-25 266,-25 266,-6 192,-6"/>
<text text-anchor="middle" x="229" y="-13" font-family="Helvetica,sans-Serif" font-size="10.00">layered.cpp</text>
</a>
</g>
</g>
<!-- Node2&#45;&gt;Node11 -->
<g id="edge27" class="edge"><title>Node2&#45;&gt;Node11</title>
<path fill="none" stroke="midnightblue" d="M280.749,-116.663C272.017,-108.564 261.973,-98.0309 255,-87 242.174,-66.7107 234.354,-39.1669 230.969,-25.2784"/>
<polygon fill="midnightblue" stroke="midnightblue" points="278.476,-119.326 288.273,-123.36 283.131,-114.097 278.476,-119.326"/>
</g>
<!-- Node20 -->
<g id="node20" class="node"><title>Node20</title>
<g id="a_node20"><a xlink:href="minimize__energy_8hpp.html" target="_top" xlink:title="minimize_energy.hpp">
<polygon fill="none" stroke="black" points="1632.5,-67.5 1632.5,-86.5 1753.5,-86.5 1753.5,-67.5 1632.5,-67.5"/>
<text text-anchor="middle" x="1693" y="-74.5" font-family="Helvetica,sans-Serif" font-size="10.00">minimize_energy.hpp</text>
</a>
</g>
</g>
<!-- Node2&#45;&gt;Node20 -->
<g id="edge19" class="edge"><title>Node2&#45;&gt;Node20</title>
<path fill="none" stroke="midnightblue" d="M359.153,-129.67C587.925,-120.808 1402.47,-89.2543 1632.25,-80.3532"/>
<polygon fill="midnightblue" stroke="midnightblue" points="358.881,-126.178 349.024,-130.062 359.152,-133.172 358.881,-126.178"/>
</g>
<!-- Node23 -->
<g id="node23" class="node"><title>Node23</title>
<g id="a_node23"><a xlink:href="constraint_8cpp.html" target="_top" xlink:title="Implementation of constraint.hpp, here it&#39;s just the parsing stuff. ">
<polygon fill="none" stroke="black" points="0,-6 0,-25 86,-25 86,-6 0,-6"/>
<text text-anchor="middle" x="43" y="-13" font-family="Helvetica,sans-Serif" font-size="10.00">constraint.cpp</text>
</a>
</g>
</g>
<!-- Node2&#45;&gt;Node23 -->
<g id="edge24" class="edge"><title>Node2&#45;&gt;Node23</title>
<path fill="none" stroke="midnightblue" d="M238.909,-122.185C205.856,-115.266 164.814,-104.116 131,-87 98.1641,-70.3793 66.0969,-40.1492 51.378,-25.2621"/>
<polygon fill="midnightblue" stroke="midnightblue" points="238.4,-125.653 248.894,-124.199 239.783,-118.791 238.4,-125.653"/>
</g>
<!-- Node24 -->
<g id="node24" class="node"><title>Node24</title>
<g id="a_node24"><a xlink:href="forces_8cpp.html" target="_top" xlink:title="Force calculation. ">
<polygon fill="none" stroke="black" points="140.5,-67.5 140.5,-86.5 207.5,-86.5 207.5,-67.5 140.5,-67.5"/>
<text text-anchor="middle" x="174" y="-74.5" font-family="Helvetica,sans-Serif" font-size="10.00">forces.cpp</text>
</a>
</g>
</g>
<!-- Node2&#45;&gt;Node24 -->
<g id="edge25" class="edge"><title>Node2&#45;&gt;Node24</title>
<path fill="none" stroke="midnightblue" d="M269.759,-119.368C246.35,-109.255 214.159,-95.3486 193.714,-86.5164"/>
<polygon fill="midnightblue" stroke="midnightblue" points="268.625,-122.691 279.193,-123.444 271.401,-116.265 268.625,-122.691"/>
</g>
<!-- Node25 -->
<g id="node25" class="node"><title>Node25</title>
<g id="a_node25"><a xlink:href="ghosts_8cpp.html" target="_top" xlink:title="Ghost particles and particle exchange. ">
<polygon fill="none" stroke="black" points="264.5,-67.5 264.5,-86.5 333.5,-86.5 333.5,-67.5 264.5,-67.5"/>
<text text-anchor="middle" x="299" y="-74.5" font-family="Helvetica,sans-Serif" font-size="10.00">ghosts.cpp</text>
</a>
</g>
</g>
<!-- Node2&#45;&gt;Node25 -->
<g id="edge26" class="edge"><title>Node2&#45;&gt;Node25</title>
<path fill="none" stroke="midnightblue" d="M299,-112.805C299,-103.91 299,-93.7798 299,-86.7511"/>
<polygon fill="midnightblue" stroke="midnightblue" points="295.5,-113.083 299,-123.083 302.5,-113.083 295.5,-113.083"/>
</g>
<!-- Node4 -->
<g id="node4" class="node"><title>Node4</title>
<g id="a_node4"><a xlink:href="communication_8cpp.html" target="_top" xlink:title="communication.cpp">
<polygon fill="none" stroke="black" points="1636.5,-6 1636.5,-25 1749.5,-25 1749.5,-6 1636.5,-6"/>
<text text-anchor="middle" x="1693" y="-13" font-family="Helvetica,sans-Serif" font-size="10.00">communication.cpp</text>
</a>
</g>
</g>
<!-- Node3&#45;&gt;Node4 -->
<g id="edge3" class="edge"><title>Node3&#45;&gt;Node4</title>
<path fill="none" stroke="midnightblue" d="M1042.6,-74.9114C1150.52,-72.0429 1411.05,-62.2045 1627,-31 1637.33,-29.5068 1648.46,-27.2993 1658.58,-25.0546"/>
<polygon fill="midnightblue" stroke="midnightblue" points="1042.24,-71.4194 1032.34,-75.1753 1042.42,-78.4171 1042.24,-71.4194"/>
</g>
<!-- Node5 -->
<g id="node5" class="node"><title>Node5</title>
<g id="a_node5"><a xlink:href="domain__decomposition_8cpp.html" target="_top" xlink:title="This file contains everything related to the cell system: domain decomposition. ">
<polygon fill="none" stroke="black" points="461.5,-6 461.5,-25 612.5,-25 612.5,-6 461.5,-6"/>
<text text-anchor="middle" x="537" y="-13" font-family="Helvetica,sans-Serif" font-size="10.00">domain_decomposition.cpp</text>
</a>
</g>
</g>
<!-- Node3&#45;&gt;Node5 -->
<g id="edge4" class="edge"><title>Node3&#45;&gt;Node5</title>
<path fill="none" stroke="midnightblue" d="M941.908,-70.6786C870.687,-62.9373 736.124,-47.6643 622,-31 609.853,-29.2263 596.767,-27.1012 584.589,-25.0318"/>
<polygon fill="midnightblue" stroke="midnightblue" points="941.628,-74.1686 951.947,-71.7654 942.382,-67.2093 941.628,-74.1686"/>
</g>
<!-- Node6 -->
<g id="node6" class="node"><title>Node6</title>
<g id="a_node6"><a xlink:href="elc_8cpp.html" target="_top" xlink:title="For more information about ELC, see elc.hpp. ">
<polygon fill="none" stroke="black" points="768.5,-6 768.5,-25 819.5,-25 819.5,-6 768.5,-6"/>
<text text-anchor="middle" x="794" y="-13" font-family="Helvetica,sans-Serif" font-size="10.00">elc.cpp</text>
</a>
</g>
</g>
<!-- Node3&#45;&gt;Node6 -->
<g id="edge5" class="edge"><title>Node3&#45;&gt;Node6</title>
<path fill="none" stroke="midnightblue" d="M945.55,-65.0392C912.429,-56.7926 867.035,-44.6089 828,-31 823.031,-29.2677 817.757,-27.1575 812.883,-25.0891"/>
<polygon fill="midnightblue" stroke="midnightblue" points="944.867,-68.4756 955.414,-67.4693 946.542,-61.6788 944.867,-68.4756"/>
</g>
<!-- Node3&#45;&gt;Node7 -->
<g id="edge6" class="edge"><title>Node3&#45;&gt;Node7</title>
<path fill="none" stroke="midnightblue" d="M1042.5,-74.543C1190.21,-70.0416 1619.76,-55.1843 1758,-31 1765.95,-29.6088 1774.44,-27.3744 1782.08,-25.0722"/>
<polygon fill="midnightblue" stroke="midnightblue" points="1042.24,-71.0488 1032.35,-74.8491 1042.46,-78.0456 1042.24,-71.0488"/>
</g>
<!-- Node8 -->
<g id="node8" class="node"><title>Node8</title>
<g id="a_node8"><a xlink:href="core_2integrate_8cpp.html" target="_top" xlink:title="integrate.cpp">
<polygon fill="none" stroke="black" points="1537.5,-6 1537.5,-25 1618.5,-25 1618.5,-6 1537.5,-6"/>
<text text-anchor="middle" x="1578" y="-13" font-family="Helvetica,sans-Serif" font-size="10.00">integrate.cpp</text>
</a>
</g>
</g>
<!-- Node3&#45;&gt;Node8 -->
<g id="edge7" class="edge"><title>Node3&#45;&gt;Node8</title>
<path fill="none" stroke="midnightblue" d="M1042.26,-75.098C1137.7,-72.6546 1351.43,-63.6792 1528,-31 1536,-29.5196 1544.55,-27.288 1552.28,-25.0163"/>
<polygon fill="midnightblue" stroke="midnightblue" points="1041.94,-71.6045 1032.03,-75.3461 1042.11,-78.6024 1041.94,-71.6045"/>
</g>
<!-- Node9 -->
<g id="node9" class="node"><title>Node9</title>
<g id="a_node9"><a xlink:href="integrate__sd_8cpp.html" target="_top" xlink:title="Stokesian dynamics integrator. ">
<polygon fill="none" stroke="black" points="837,-6 837,-25 935,-25 935,-6 837,-6"/>
<text text-anchor="middle" x="886" y="-13" font-family="Helvetica,sans-Serif" font-size="10.00">integrate_sd.cpp</text>
</a>
</g>
</g>
<!-- Node3&#45;&gt;Node9 -->
<g id="edge8" class="edge"><title>Node3&#45;&gt;Node9</title>
<path fill="none" stroke="midnightblue" d="M968.05,-62.5565C947.537,-51.0417 918.621,-34.8109 901.159,-25.0091"/>
<polygon fill="midnightblue" stroke="midnightblue" points="966.379,-65.6323 976.813,-67.4751 969.806,-59.5282 966.379,-65.6323"/>
</g>
<!-- Node3&#45;&gt;Node10 -->
<g id="edge9" class="edge"><title>Node3&#45;&gt;Node10</title>
<path fill="none" stroke="midnightblue" d="M1042.37,-75.2135C1235.88,-72.0105 1931.67,-58.7764 2151,-31 2161.86,-29.6244 2173.57,-27.3648 2184.11,-25.0343"/>
<polygon fill="midnightblue" stroke="midnightblue" points="1042.14,-71.7166 1032.2,-75.3802 1042.26,-78.7157 1042.14,-71.7166"/>
</g>
<!-- Node3&#45;&gt;Node11 -->
<g id="edge10" class="edge"><title>Node3&#45;&gt;Node11</title>
<path fill="none" stroke="midnightblue" d="M941.861,-74.4358C800.944,-69.788 403.297,-54.8793 275,-31 267.591,-29.621 259.706,-27.4195 252.596,-25.1442"/>
<polygon fill="midnightblue" stroke="midnightblue" points="941.841,-77.9369 951.95,-74.7654 942.069,-70.9406 941.841,-77.9369"/>
</g>
<!-- Node12 -->
<g id="node12" class="node"><title>Node12</title>
<g id="a_node12"><a xlink:href="nsquare_8cpp.html" target="_top" xlink:title="Implementation of nsquare.h. ">
<polygon fill="none" stroke="black" points="284,-6 284,-25 360,-25 360,-6 284,-6"/>
<text text-anchor="middle" x="322" y="-13" font-family="Helvetica,sans-Serif" font-size="10.00">nsquare.cpp</text>
</a>
</g>
</g>
<!-- Node3&#45;&gt;Node12 -->
<g id="edge11" class="edge"><title>Node3&#45;&gt;Node12</title>
<path fill="none" stroke="midnightblue" d="M941.734,-76.2166C835.182,-75.8367 579.154,-70.4752 369,-31 361.447,-29.5812 353.395,-27.3679 346.13,-25.094"/>
<polygon fill="midnightblue" stroke="midnightblue" points="941.866,-79.7168 951.874,-76.239 941.882,-72.7168 941.866,-79.7168"/>
</g>
<!-- Node13 -->
<g id="node13" class="node"><title>Node13</title>
<g id="a_node13"><a xlink:href="pressure_8cpp.html" target="_top" xlink:title="Implementation of pressure.h. ">
<polygon fill="none" stroke="black" points="952.5,-6 952.5,-25 1031.5,-25 1031.5,-6 952.5,-6"/>
<text text-anchor="middle" x="992" y="-13" font-family="Helvetica,sans-Serif" font-size="10.00">pressure.cpp</text>
</a>
</g>
</g>
<!-- Node3&#45;&gt;Node13 -->
<g id="edge12" class="edge"><title>Node3&#45;&gt;Node13</title>
<path fill="none" stroke="midnightblue" d="M992,-57.3165C992,-46.4962 992,-33.398 992,-25.0091"/>
<polygon fill="midnightblue" stroke="midnightblue" points="988.5,-57.4751 992,-67.4751 995.5,-57.4751 988.5,-57.4751"/>
</g>
<!-- Node14 -->
<g id="node14" class="node"><title>Node14</title>
<g id="a_node14"><a xlink:href="statistics_8cpp.html" target="_top" xlink:title="This is the place for analysis (so far...). ">
<polygon fill="none" stroke="black" points="1049.5,-6 1049.5,-25 1130.5,-25 1130.5,-6 1049.5,-6"/>
<text text-anchor="middle" x="1090" y="-13" font-family="Helvetica,sans-Serif" font-size="10.00">statistics.cpp</text>
</a>
</g>
</g>
<!-- Node3&#45;&gt;Node14 -->
<g id="edge13" class="edge"><title>Node3&#45;&gt;Node14</title>
<path fill="none" stroke="midnightblue" d="M1014.66,-62.2441C1033.59,-50.7498 1059.99,-34.7226 1075.99,-25.0091"/>
<polygon fill="midnightblue" stroke="midnightblue" points="1012.77,-59.2935 1006.04,-67.4751 1016.41,-65.277 1012.77,-59.2935"/>
</g>
<!-- Node15 -->
<g id="node15" class="node"><title>Node15</title>
<g id="a_node15"><a xlink:href="statistics__observable_8cpp.html" target="_top" xlink:title="statistics_observable.cpp">
<polygon fill="none" stroke="black" points="1149,-6 1149,-25 1289,-25 1289,-6 1149,-6"/>
<text text-anchor="middle" x="1219" y="-13" font-family="Helvetica,sans-Serif" font-size="10.00">statistics_observable.cpp</text>
</a>
</g>
</g>
<!-- Node3&#45;&gt;Node15 -->
<g id="edge14" class="edge"><title>Node3&#45;&gt;Node15</title>
<path fill="none" stroke="midnightblue" d="M1034.36,-64.8956C1078.45,-53.3396 1146.53,-35.4952 1186.54,-25.0091"/>
<polygon fill="midnightblue" stroke="midnightblue" points="1033.31,-61.5539 1024.52,-67.4751 1035.08,-68.3252 1033.31,-61.5539"/>
</g>
<!-- Node16 -->
<g id="node16" class="node"><title>Node16</title>
<g id="a_node16"><a xlink:href="verlet_8cpp.html" target="_top" xlink:title="Verlet list. ">
<polygon fill="none" stroke="black" points="378.5,-6 378.5,-25 443.5,-25 443.5,-6 378.5,-6"/>
<text text-anchor="middle" x="411" y="-13" font-family="Helvetica,sans-Serif" font-size="10.00">verlet.cpp</text>
</a>
</g>
</g>
<!-- Node3&#45;&gt;Node16 -->
<g id="edge15" class="edge"><title>Node3&#45;&gt;Node16</title>
<path fill="none" stroke="midnightblue" d="M941.831,-76.0884C845.682,-75.3222 629.267,-69.0678 452,-31 445.356,-29.5733 438.317,-27.3576 431.98,-25.084"/>
<polygon fill="midnightblue" stroke="midnightblue" points="941.833,-79.5884 951.855,-76.1516 941.877,-72.5886 941.833,-79.5884"/>
</g>
<!-- Node17 -->
<g id="node17" class="node"><title>Node17</title>
<g id="a_node17"><a xlink:href="virtual__sites_8cpp.html" target="_top" xlink:title="virtual_sites.cpp">
<polygon fill="none" stroke="black" points="1307.5,-6 1307.5,-25 1404.5,-25 1404.5,-6 1307.5,-6"/>
<text text-anchor="middle" x="1356" y="-13" font-family="Helvetica,sans-Serif" font-size="10.00">virtual_sites.cpp</text>
</a>
</g>
</g>
<!-- Node3&#45;&gt;Node17 -->
<g id="edge16" class="edge"><title>Node3&#45;&gt;Node17</title>
<path fill="none" stroke="midnightblue" d="M1042.42,-70.1387C1103.29,-62.7056 1208.62,-48.6991 1298,-31 1306.55,-29.3064 1315.74,-27.163 1324.22,-25.0475"/>
<polygon fill="midnightblue" stroke="midnightblue" points="1041.82,-66.6856 1032.32,-71.3622 1042.66,-73.6348 1041.82,-66.6856"/>
</g>
<!-- Node18 -->
<g id="node18" class="node"><title>Node18</title>
<g id="a_node18"><a xlink:href="pressure__tcl_8cpp.html" target="_top" xlink:title="pressure_tcl.cpp">
<polygon fill="none" stroke="black" points="1423,-6 1423,-25 1519,-25 1519,-6 1423,-6"/>
<text text-anchor="middle" x="1471" y="-13" font-family="Helvetica,sans-Serif" font-size="10.00">pressure_tcl.cpp</text>
</a>
</g>
</g>
<!-- Node3&#45;&gt;Node18 -->
<g id="edge17" class="edge"><title>Node3&#45;&gt;Node18</title>
<path fill="none" stroke="midnightblue" d="M1042.2,-72.8917C1121.45,-67.4792 1280.18,-54.583 1413,-31 1421.89,-29.4213 1431.44,-27.241 1440.17,-25.0502"/>
<polygon fill="midnightblue" stroke="midnightblue" points="1041.76,-69.4133 1032.02,-73.5758 1042.23,-76.3976 1041.76,-69.4133"/>
</g>
<!-- Node19 -->
<g id="node19" class="node"><title>Node19</title>
<g id="a_node19"><a xlink:href="statistics__observable__tcl_8cpp.html" target="_top" xlink:title="statistics_observable\l_tcl.cpp">
<polygon fill="none" stroke="black" points="631,-0.5 631,-30.5 751,-30.5 751,-0.5 631,-0.5"/>
<text text-anchor="start" x="639" y="-18.5" font-family="Helvetica,sans-Serif" font-size="10.00">statistics_observable</text>
<text text-anchor="middle" x="691" y="-7.5" font-family="Helvetica,sans-Serif" font-size="10.00">_tcl.cpp</text>
</a>
</g>
</g>
<!-- Node3&#45;&gt;Node19 -->
<g id="edge18" class="edge"><title>Node3&#45;&gt;Node19</title>
<path fill="none" stroke="midnightblue" d="M941.994,-66.6311C894.774,-57.716 822.004,-43.8001 759,-31 756.398,-30.4713 753.74,-29.9263 751.057,-29.3719"/>
<polygon fill="midnightblue" stroke="midnightblue" points="941.486,-70.097 951.961,-68.5104 942.783,-63.2182 941.486,-70.097"/>
</g>
<!-- Node20&#45;&gt;Node4 -->
<g id="edge20" class="edge"><title>Node20&#45;&gt;Node4</title>
<path fill="none" stroke="midnightblue" d="M1693,-57.3165C1693,-46.4962 1693,-33.398 1693,-25.0091"/>
<polygon fill="midnightblue" stroke="midnightblue" points="1689.5,-57.4751 1693,-67.4751 1696.5,-57.4751 1689.5,-57.4751"/>
</g>
<!-- Node20&#45;&gt;Node8 -->
<g id="edge21" class="edge"><title>Node20&#45;&gt;Node8</title>
<path fill="none" stroke="midnightblue" d="M1667.62,-62.8665C1645.33,-51.3347 1613.56,-34.8992 1594.45,-25.0091"/>
<polygon fill="midnightblue" stroke="midnightblue" points="1666.03,-65.9883 1676.52,-67.4751 1669.25,-59.7712 1666.03,-65.9883"/>
</g>
<!-- Node21 -->
<g id="node21" class="node"><title>Node21</title>
<g id="a_node21"><a xlink:href="minimize__energy_8cpp.html" target="_top" xlink:title="minimize_energy.cpp">
<polygon fill="none" stroke="black" points="2022,-6 2022,-25 2142,-25 2142,-6 2022,-6"/>
<text text-anchor="middle" x="2082" y="-13" font-family="Helvetica,sans-Serif" font-size="10.00">minimize_energy.cpp</text>
</a>
</g>
</g>
<!-- Node20&#45;&gt;Node21 -->
<g id="edge22" class="edge"><title>Node20&#45;&gt;Node21</title>
<path fill="none" stroke="midnightblue" d="M1763.84,-67.3299C1828.62,-59.0881 1927,-45.7824 2012,-31 2022.03,-29.2562 2032.81,-27.1419 2042.84,-25.0732"/>
<polygon fill="midnightblue" stroke="midnightblue" points="1763.22,-63.8803 1753.74,-68.6086 1764.1,-70.8249 1763.22,-63.8803"/>
</g>
<!-- Node22 -->
<g id="node22" class="node"><title>Node22</title>
<g id="a_node22"><a xlink:href="minimize__energy__tcl_8cpp.html" target="_top" xlink:title="minimize_energy_tcl.cpp">
<polygon fill="none" stroke="black" points="1864.5,-6 1864.5,-25 2003.5,-25 2003.5,-6 1864.5,-6"/>
<text text-anchor="middle" x="1934" y="-13" font-family="Helvetica,sans-Serif" font-size="10.00">minimize_energy_tcl.cpp</text>
</a>
</g>
</g>
<!-- Node20&#45;&gt;Node22 -->
<g id="edge23" class="edge"><title>Node20&#45;&gt;Node22</title>
<path fill="none" stroke="midnightblue" d="M1737.39,-65.0412C1784.18,-53.49 1856.88,-35.5394 1899.53,-25.0091"/>
<polygon fill="midnightblue" stroke="midnightblue" points="1736.4,-61.6801 1727.53,-67.4751 1738.08,-68.4761 1736.4,-61.6801"/>
</g>
<!-- Node26&#45;&gt;Node5 -->
<g id="edge30" class="edge"><title>Node26&#45;&gt;Node5</title>
<path fill="none" stroke="midnightblue" d="M432.327,-63.3272C458.147,-51.7761 495.576,-35.0316 517.98,-25.0091"/>
<polygon fill="midnightblue" stroke="midnightblue" points="430.755,-60.1965 423.056,-67.4751 433.613,-66.5862 430.755,-60.1965"/>
</g>
<!-- Node26&#45;&gt;Node11 -->
<g id="edge32" class="edge"><title>Node26&#45;&gt;Node11</title>
<path fill="none" stroke="midnightblue" d="M369.388,-64.232C335.371,-52.666 284.284,-35.2966 254.027,-25.0091"/>
<polygon fill="midnightblue" stroke="midnightblue" points="368.332,-67.5697 378.927,-67.4751 370.586,-60.9423 368.332,-67.5697"/>
</g>
<!-- Node26&#45;&gt;Node12 -->
<g id="edge33" class="edge"><title>Node26&#45;&gt;Node12</title>
<path fill="none" stroke="midnightblue" d="M383.733,-61.2938C368.003,-49.8803 346.748,-34.4577 333.727,-25.0091"/>
<polygon fill="midnightblue" stroke="midnightblue" points="382.102,-64.435 392.251,-67.4751 386.213,-58.7693 382.102,-64.435"/>
</g>
<!-- Node26&#45;&gt;Node16 -->
<g id="edge34" class="edge"><title>Node26&#45;&gt;Node16</title>
<path fill="none" stroke="midnightblue" d="M406.198,-57.3165C407.471,-46.4962 409.012,-33.398 409.999,-25.0091"/>
<polygon fill="midnightblue" stroke="midnightblue" points="402.695,-57.1346 405.003,-67.4751 409.647,-57.9526 402.695,-57.1346"/>
</g>
<!-- Node26&#45;&gt;Node23 -->
<g id="edge29" class="edge"><title>Node26&#45;&gt;Node23</title>
<path fill="none" stroke="midnightblue" d="M341.827,-66.9705C252.027,-53.9253 96.5082,-31.3187 95,-31 87.2058,-29.3528 78.8547,-27.2008 71.1758,-25.061"/>
<polygon fill="midnightblue" stroke="midnightblue" points="341.505,-70.4604 351.904,-68.4344 342.511,-63.5331 341.505,-70.4604"/>
</g>
<!-- Node27 -->
<g id="node27" class="node"><title>Node27</title>
<g id="a_node27"><a xlink:href="energy_8cpp.html" target="_top" xlink:title="Implementation of energy.hpp. ">
<polygon fill="none" stroke="black" points="104.5,-6 104.5,-25 173.5,-25 173.5,-6 104.5,-6"/>
<text text-anchor="middle" x="139" y="-13" font-family="Helvetica,sans-Serif" font-size="10.00">energy.cpp</text>
</a>
</g>
</g>
<!-- Node26&#45;&gt;Node27 -->
<g id="edge31" class="edge"><title>Node26&#45;&gt;Node27</title>
<path fill="none" stroke="midnightblue" d="M343.472,-65.6579C298.807,-57.5473 236.716,-45.267 183,-31 176.626,-29.307 169.821,-27.2109 163.515,-25.1436"/>
<polygon fill="midnightblue" stroke="midnightblue" points="343.118,-69.1504 353.58,-67.4763 344.358,-62.261 343.118,-69.1504"/>
</g>
</g>
</svg>
