<?xml version="1.0" encoding="UTF-8" standalone="no"?>
<!DOCTYPE svg PUBLIC "-//W3C//DTD SVG 1.1//EN"
 "http://www.w3.org/Graphics/SVG/1.1/DTD/svg11.dtd">
<!-- Generated by graphviz version 2.38.0 (20140413.2041)
 -->
<!-- Title: dihedral_tcl.cpp Pages: 1 -->
<svg width="882pt" height="476pt"
 viewBox="0.00 0.00 882.06 476.00" xmlns="http://www.w3.org/2000/svg" xmlns:xlink="http://www.w3.org/1999/xlink">
<g id="graph0" class="graph" transform="scale(1 1) rotate(0) translate(4 472)">
<title>dihedral_tcl.cpp</title>
<!-- Node1 -->
<g id="node1" class="node"><title>Node1</title>
<polygon fill="#bfbfbf" stroke="black" points="184,-448.5 184,-467.5 278,-467.5 278,-448.5 184,-448.5"/>
<text text-anchor="middle" x="231" y="-455.5" font-family="Helvetica,sans-Serif" font-size="10.00">dihedral_tcl.cpp</text>
</g>
<!-- Node2 -->
<g id="node2" class="node"><title>Node2</title>
<g id="a_node2"><a xlink:href="dihedral__tcl_8hpp.html" target="_top" xlink:title="Tcl interface for dihedral.hpp. ">
<polygon fill="none" stroke="black" points="124.5,-336.5 124.5,-355.5 219.5,-355.5 219.5,-336.5 124.5,-336.5"/>
<text text-anchor="middle" x="172" y="-343.5" font-family="Helvetica,sans-Serif" font-size="10.00">dihedral_tcl.hpp</text>
</a>
</g>
</g>
<!-- Node1&#45;&gt;Node2 -->
<g id="edge1" class="edge"><title>Node1&#45;&gt;Node2</title>
<path fill="none" stroke="midnightblue" d="M226.37,-448.368C216.72,-430.376 194.286,-388.55 181.454,-364.627"/>
<polygon fill="midnightblue" stroke="midnightblue" points="184.419,-362.749 176.608,-355.591 178.25,-366.058 184.419,-362.749"/>
</g>
<!-- Node24 -->
<g id="node24" class="node"><title>Node24</title>
<g id="a_node24"><a xlink:href="dihedral_8hpp.html" target="_top" xlink:title="Routines to calculate the dihedral energy or/and and force for a particle quadruple. ">
<polygon fill="none" stroke="black" points="228.5,-392.5 228.5,-411.5 305.5,-411.5 305.5,-392.5 228.5,-392.5"/>
<text text-anchor="middle" x="267" y="-399.5" font-family="Helvetica,sans-Serif" font-size="10.00">dihedral.hpp</text>
</a>
</g>
</g>
<!-- Node1&#45;&gt;Node24 -->
<g id="edge29" class="edge"><title>Node1&#45;&gt;Node24</title>
<path fill="none" stroke="midnightblue" d="M236.945,-448.083C241.977,-440.534 249.337,-429.495 255.513,-420.23"/>
<polygon fill="midnightblue" stroke="midnightblue" points="258.531,-422.013 261.166,-411.751 252.707,-418.13 258.531,-422.013"/>
</g>
<!-- Node3 -->
<g id="node3" class="node"><title>Node3</title>
<g id="a_node3"><a xlink:href="parser_8hpp.html" target="_top" xlink:title="This file contains macros for parsing the parameters to the &#39;inter&#39; command. ">
<polygon fill="none" stroke="black" points="78,-224.5 78,-243.5 146,-243.5 146,-224.5 78,-224.5"/>
<text text-anchor="middle" x="112" y="-231.5" font-family="Helvetica,sans-Serif" font-size="10.00">parser.hpp</text>
</a>
</g>
</g>
<!-- Node2&#45;&gt;Node3 -->
<g id="edge2" class="edge"><title>Node2&#45;&gt;Node3</title>
<path fill="none" stroke="midnightblue" d="M161.815,-336.346C152.532,-327.941 139.073,-314.376 131,-300 122.905,-285.584 117.97,-267.392 115.166,-253.923"/>
<polygon fill="midnightblue" stroke="midnightblue" points="118.571,-253.09 113.29,-243.906 111.691,-254.379 118.571,-253.09"/>
</g>
<!-- Node22 -->
<g id="node22" class="node"><title>Node22</title>
<g id="a_node22"><a xlink:href="interaction__data_8hpp.html" target="_top" xlink:title="Various procedures concerning interactions between particles. ">
<polygon fill="none" stroke="black" points="140.5,-280.5 140.5,-299.5 257.5,-299.5 257.5,-280.5 140.5,-280.5"/>
<text text-anchor="middle" x="199" y="-287.5" font-family="Helvetica,sans-Serif" font-size="10.00">interaction_data.hpp</text>
</a>
</g>
</g>
<!-- Node2&#45;&gt;Node22 -->
<g id="edge25" class="edge"><title>Node2&#45;&gt;Node22</title>
<path fill="none" stroke="midnightblue" d="M176.459,-336.083C180.154,-328.691 185.523,-317.953 190.094,-308.811"/>
<polygon fill="midnightblue" stroke="midnightblue" points="193.283,-310.261 194.624,-299.751 187.022,-307.13 193.283,-310.261"/>
</g>
<!-- Node4 -->
<g id="node4" class="node"><title>Node4</title>
<g id="a_node4"><a xlink:href="utils_8hpp.html" target="_top" xlink:title="Small functions that are useful not only for one modul. ">
<polygon fill="none" stroke="black" points="294.5,-168.5 294.5,-187.5 353.5,-187.5 353.5,-168.5 294.5,-168.5"/>
<text text-anchor="middle" x="324" y="-175.5" font-family="Helvetica,sans-Serif" font-size="10.00">utils.hpp</text>
</a>
</g>
</g>
<!-- Node3&#45;&gt;Node4 -->
<g id="edge3" class="edge"><title>Node3&#45;&gt;Node4</title>
<path fill="none" stroke="midnightblue" d="M145.592,-224.444C183.291,-214.841 244.397,-199.276 284.392,-189.089"/>
<polygon fill="midnightblue" stroke="midnightblue" points="285.501,-192.418 294.328,-186.558 283.773,-185.635 285.501,-192.418"/>
</g>
<!-- Node8 -->
<g id="node8" class="node"><title>Node8</title>
<polygon fill="none" stroke="#bfbfbf" points="0,-112.5 0,-131.5 50,-131.5 50,-112.5 0,-112.5"/>
<text text-anchor="middle" x="25" y="-119.5" font-family="Helvetica,sans-Serif" font-size="10.00">cstring</text>
</g>
<!-- Node3&#45;&gt;Node8 -->
<g id="edge23" class="edge"><title>Node3&#45;&gt;Node8</title>
<path fill="none" stroke="midnightblue" d="M105.173,-224.368C90.7522,-206.135 56.9731,-163.426 38.1886,-139.675"/>
<polygon fill="midnightblue" stroke="midnightblue" points="40.7436,-137.264 31.795,-131.591 35.2533,-141.606 40.7436,-137.264"/>
</g>
<!-- Node21 -->
<g id="node21" class="node"><title>Node21</title>
<polygon fill="none" stroke="#bfbfbf" points="93,-168.5 93,-187.5 131,-187.5 131,-168.5 93,-168.5"/>
<text text-anchor="middle" x="112" y="-175.5" font-family="Helvetica,sans-Serif" font-size="10.00">tcl.h</text>
</g>
<!-- Node3&#45;&gt;Node21 -->
<g id="edge24" class="edge"><title>Node3&#45;&gt;Node21</title>
<path fill="none" stroke="midnightblue" d="M112,-224.083C112,-217.006 112,-206.861 112,-197.986"/>
<polygon fill="midnightblue" stroke="midnightblue" points="115.5,-197.751 112,-187.751 108.5,-197.751 115.5,-197.751"/>
</g>
<!-- Node5 -->
<g id="node5" class="node"><title>Node5</title>
<polygon fill="none" stroke="#bfbfbf" points="151.5,-112.5 151.5,-131.5 198.5,-131.5 198.5,-112.5 151.5,-112.5"/>
<text text-anchor="middle" x="175" y="-119.5" font-family="Helvetica,sans-Serif" font-size="10.00">cmath</text>
</g>
<!-- Node4&#45;&gt;Node5 -->
<g id="edge4" class="edge"><title>Node4&#45;&gt;Node5</title>
<path fill="none" stroke="midnightblue" d="M300.391,-168.444C275.542,-159.438 236.226,-145.189 208.246,-135.049"/>
<polygon fill="midnightblue" stroke="midnightblue" points="209.093,-131.633 198.499,-131.516 206.708,-138.214 209.093,-131.633"/>
</g>
<!-- Node6 -->
<g id="node6" class="node"><title>Node6</title>
<polygon fill="none" stroke="#bfbfbf" points="217,-112.5 217,-131.5 263,-131.5 263,-112.5 217,-112.5"/>
<text text-anchor="middle" x="240" y="-119.5" font-family="Helvetica,sans-Serif" font-size="10.00">cstdio</text>
</g>
<!-- Node4&#45;&gt;Node6 -->
<g id="edge5" class="edge"><title>Node4&#45;&gt;Node6</title>
<path fill="none" stroke="midnightblue" d="M310.504,-168.324C297.4,-159.9 277.288,-146.971 261.893,-137.074"/>
<polygon fill="midnightblue" stroke="midnightblue" points="263.767,-134.118 253.463,-131.655 259.982,-140.006 263.767,-134.118"/>
</g>
<!-- Node7 -->
<g id="node7" class="node"><title>Node7</title>
<polygon fill="none" stroke="#bfbfbf" points="281.5,-112.5 281.5,-131.5 330.5,-131.5 330.5,-112.5 281.5,-112.5"/>
<text text-anchor="middle" x="306" y="-119.5" font-family="Helvetica,sans-Serif" font-size="10.00">cstdlib</text>
</g>
<!-- Node4&#45;&gt;Node7 -->
<g id="edge6" class="edge"><title>Node4&#45;&gt;Node7</title>
<path fill="none" stroke="midnightblue" d="M321.028,-168.083C318.616,-160.849 315.136,-150.409 312.132,-141.397"/>
<polygon fill="midnightblue" stroke="midnightblue" points="315.4,-140.131 308.917,-131.751 308.759,-142.345 315.4,-140.131"/>
</g>
<!-- Node4&#45;&gt;Node8 -->
<g id="edge7" class="edge"><title>Node4&#45;&gt;Node8</title>
<path fill="none" stroke="midnightblue" d="M294.422,-172.871C247.009,-166.06 150.896,-151.464 60.0917,-132.078"/>
<polygon fill="midnightblue" stroke="midnightblue" points="60.703,-128.629 50.1895,-129.94 59.2255,-135.471 60.703,-128.629"/>
</g>
<!-- Node9 -->
<g id="node9" class="node"><title>Node9</title>
<g id="a_node9"><a xlink:href="config_8hpp.html" target="_top" xlink:title="This file contains the defaults for Espresso. ">
<polygon fill="none" stroke="black" points="509.5,-56.5 509.5,-75.5 576.5,-75.5 576.5,-56.5 509.5,-56.5"/>
<text text-anchor="middle" x="543" y="-63.5" font-family="Helvetica,sans-Serif" font-size="10.00">config.hpp</text>
</a>
</g>
</g>
<!-- Node4&#45;&gt;Node9 -->
<g id="edge8" class="edge"><title>Node4&#45;&gt;Node9</title>
<path fill="none" stroke="midnightblue" d="M353.516,-170.658C382.338,-163.722 426.866,-150.999 462,-132 486.623,-118.685 511.171,-97.614 526.679,-83.0914"/>
<polygon fill="midnightblue" stroke="midnightblue" points="529.505,-85.2314 534.308,-75.7877 524.664,-80.1751 529.505,-85.2314"/>
</g>
<!-- Node13 -->
<g id="node13" class="node"><title>Node13</title>
<g id="a_node13"><a xlink:href="debug_8hpp.html" target="_top" xlink:title="This file controls debug facilities. ">
<polygon fill="none" stroke="black" points="509,-112.5 509,-131.5 577,-131.5 577,-112.5 509,-112.5"/>
<text text-anchor="middle" x="543" y="-119.5" font-family="Helvetica,sans-Serif" font-size="10.00">debug.hpp</text>
</a>
</g>
</g>
<!-- Node4&#45;&gt;Node13 -->
<g id="edge12" class="edge"><title>Node4&#45;&gt;Node13</title>
<path fill="none" stroke="midnightblue" d="M353.535,-169.717C390.934,-160.496 455.695,-144.527 498.944,-133.863"/>
<polygon fill="midnightblue" stroke="midnightblue" points="500.034,-137.199 508.905,-131.407 498.358,-130.403 500.034,-137.199"/>
</g>
<!-- Node14 -->
<g id="node14" class="node"><title>Node14</title>
<g id="a_node14"><a xlink:href="lees__edwards_8hpp.html" target="_top" xlink:title="lees_edwards.hpp">
<polygon fill="none" stroke="black" points="349,-112.5 349,-131.5 453,-131.5 453,-112.5 349,-112.5"/>
<text text-anchor="middle" x="401" y="-119.5" font-family="Helvetica,sans-Serif" font-size="10.00">lees_edwards.hpp</text>
</a>
</g>
</g>
<!-- Node4&#45;&gt;Node14 -->
<g id="edge14" class="edge"><title>Node4&#45;&gt;Node14</title>
<path fill="none" stroke="midnightblue" d="M336.371,-168.324C348.158,-160.058 366.132,-147.453 380.136,-137.632"/>
<polygon fill="midnightblue" stroke="midnightblue" points="382.482,-140.262 388.659,-131.655 378.462,-134.531 382.482,-140.262"/>
</g>
<!-- Node15 -->
<g id="node15" class="node"><title>Node15</title>
<g id="a_node15"><a xlink:href="errorhandling_8hpp.html" target="_top" xlink:title="This file contains the errorhandling code for severe errors, like a broken bond or illegal parameter ...">
<polygon fill="none" stroke="black" points="699.5,-112.5 699.5,-131.5 802.5,-131.5 802.5,-112.5 699.5,-112.5"/>
<text text-anchor="middle" x="751" y="-119.5" font-family="Helvetica,sans-Serif" font-size="10.00">errorhandling.hpp</text>
</a>
</g>
</g>
<!-- Node4&#45;&gt;Node15 -->
<g id="edge16" class="edge"><title>Node4&#45;&gt;Node15</title>
<path fill="none" stroke="midnightblue" d="M353.687,-173.246C422.868,-164.497 595.991,-142.603 689.227,-130.812"/>
<polygon fill="midnightblue" stroke="midnightblue" points="689.885,-134.257 699.366,-129.53 689.006,-127.312 689.885,-134.257"/>
</g>
<!-- Node19 -->
<g id="node19" class="node"><title>Node19</title>
<polygon fill="none" stroke="#bfbfbf" points="595.5,-112.5 595.5,-131.5 642.5,-131.5 642.5,-112.5 595.5,-112.5"/>
<text text-anchor="middle" x="619" y="-119.5" font-family="Helvetica,sans-Serif" font-size="10.00">vector</text>
</g>
<!-- Node4&#45;&gt;Node19 -->
<g id="edge21" class="edge"><title>Node4&#45;&gt;Node19</title>
<path fill="none" stroke="midnightblue" d="M353.649,-172.857C400.685,-166.081 495.448,-151.596 585.457,-131.933"/>
<polygon fill="midnightblue" stroke="midnightblue" points="586.266,-135.339 595.275,-129.764 584.755,-128.504 586.266,-135.339"/>
</g>
<!-- Node20 -->
<g id="node20" class="node"><title>Node20</title>
<polygon fill="none" stroke="#bfbfbf" points="68.5,-112.5 68.5,-131.5 133.5,-131.5 133.5,-112.5 68.5,-112.5"/>
<text text-anchor="middle" x="101" y="-119.5" font-family="Helvetica,sans-Serif" font-size="10.00">exception</text>
</g>
<!-- Node4&#45;&gt;Node20 -->
<g id="edge22" class="edge"><title>Node4&#45;&gt;Node20</title>
<path fill="none" stroke="midnightblue" d="M294.387,-169.829C255.697,-160.46 187.689,-143.992 143.502,-133.292"/>
<polygon fill="midnightblue" stroke="midnightblue" points="144.178,-129.855 133.635,-130.903 142.53,-136.658 144.178,-129.855"/>
</g>
<!-- Node10 -->
<g id="node10" class="node"><title>Node10</title>
<g id="a_node10"><a xlink:href="acconfig_8hpp.html" target="_top" xlink:title="acconfig.hpp">
<polygon fill="none" stroke="black" points="393,-0.5 393,-19.5 471,-19.5 471,-0.5 393,-0.5"/>
<text text-anchor="middle" x="432" y="-7.5" font-family="Helvetica,sans-Serif" font-size="10.00">acconfig.hpp</text>
</a>
</g>
</g>
<!-- Node9&#45;&gt;Node10 -->
<g id="edge9" class="edge"><title>Node9&#45;&gt;Node10</title>
<path fill="none" stroke="midnightblue" d="M525.166,-56.324C507.284,-47.6247 479.525,-34.1202 458.954,-24.113"/>
<polygon fill="midnightblue" stroke="midnightblue" points="460.313,-20.8819 449.79,-19.6545 457.251,-27.1765 460.313,-20.8819"/>
</g>
<!-- Node11 -->
<g id="node11" class="node"><title>Node11</title>
<g id="a_node11"><a xlink:href="myconfig-final_8hpp.html" target="_top" xlink:title="myconfig&#45;final.hpp">
<polygon fill="none" stroke="black" points="489.5,-0.5 489.5,-19.5 596.5,-19.5 596.5,-0.5 489.5,-0.5"/>
<text text-anchor="middle" x="543" y="-7.5" font-family="Helvetica,sans-Serif" font-size="10.00">myconfig&#45;final.hpp</text>
</a>
</g>
</g>
<!-- Node9&#45;&gt;Node11 -->
<g id="edge10" class="edge"><title>Node9&#45;&gt;Node11</title>
<path fill="none" stroke="midnightblue" d="M543,-56.083C543,-49.0059 543,-38.8611 543,-29.9865"/>
<polygon fill="midnightblue" stroke="midnightblue" points="546.5,-29.751 543,-19.7511 539.5,-29.7511 546.5,-29.751"/>
</g>
<!-- Node12 -->
<g id="node12" class="node"><title>Node12</title>
<g id="a_node12"><a xlink:href="config-features_8hpp.html" target="_top" xlink:title="config&#45;features.hpp">
<polygon fill="none" stroke="black" points="614.5,-0.5 614.5,-19.5 725.5,-19.5 725.5,-0.5 614.5,-0.5"/>
<text text-anchor="middle" x="670" y="-7.5" font-family="Helvetica,sans-Serif" font-size="10.00">config&#45;features.hpp</text>
</a>
</g>
</g>
<!-- Node9&#45;&gt;Node12 -->
<g id="edge11" class="edge"><title>Node9&#45;&gt;Node12</title>
<path fill="none" stroke="midnightblue" d="M563.124,-56.4435C584.024,-47.5566 616.935,-33.5632 640.716,-23.4514"/>
<polygon fill="midnightblue" stroke="midnightblue" points="642.138,-26.6504 649.971,-19.5164 639.398,-20.2085 642.138,-26.6504"/>
</g>
<!-- Node13&#45;&gt;Node9 -->
<g id="edge13" class="edge"><title>Node13&#45;&gt;Node9</title>
<path fill="none" stroke="midnightblue" d="M543,-112.083C543,-105.006 543,-94.8611 543,-85.9865"/>
<polygon fill="midnightblue" stroke="midnightblue" points="546.5,-85.751 543,-75.7511 539.5,-85.7511 546.5,-85.751"/>
</g>
<!-- Node14&#45;&gt;Node9 -->
<g id="edge15" class="edge"><title>Node14&#45;&gt;Node9</title>
<path fill="none" stroke="midnightblue" d="M423.5,-112.444C447.077,-103.478 484.322,-89.314 510.964,-79.1827"/>
<polygon fill="midnightblue" stroke="midnightblue" points="512.502,-82.3424 520.605,-75.5164 510.014,-75.7995 512.502,-82.3424"/>
</g>
<!-- Node15&#45;&gt;Node9 -->
<g id="edge17" class="edge"><title>Node15&#45;&gt;Node9</title>
<path fill="none" stroke="midnightblue" d="M718.042,-112.444C682.213,-103.142 624.837,-88.246 585.609,-78.062"/>
<polygon fill="midnightblue" stroke="midnightblue" points="586.363,-74.6417 575.804,-75.5164 584.604,-81.4171 586.363,-74.6417"/>
</g>
<!-- Node16 -->
<g id="node16" class="node"><title>Node16</title>
<polygon fill="none" stroke="#bfbfbf" points="661,-56.5 661,-75.5 705,-75.5 705,-56.5 661,-56.5"/>
<text text-anchor="middle" x="683" y="-63.5" font-family="Helvetica,sans-Serif" font-size="10.00">string</text>
</g>
<!-- Node15&#45;&gt;Node16 -->
<g id="edge18" class="edge"><title>Node15&#45;&gt;Node16</title>
<path fill="none" stroke="midnightblue" d="M740.075,-112.324C729.825,-104.185 714.279,-91.8395 701.999,-82.0874"/>
<polygon fill="midnightblue" stroke="midnightblue" points="704.132,-79.3119 694.124,-75.8339 699.779,-84.7937 704.132,-79.3119"/>
</g>
<!-- Node17 -->
<g id="node17" class="node"><title>Node17</title>
<polygon fill="none" stroke="#bfbfbf" points="723,-56.5 723,-75.5 779,-75.5 779,-56.5 723,-56.5"/>
<text text-anchor="middle" x="751" y="-63.5" font-family="Helvetica,sans-Serif" font-size="10.00">sstream</text>
</g>
<!-- Node15&#45;&gt;Node17 -->
<g id="edge19" class="edge"><title>Node15&#45;&gt;Node17</title>
<path fill="none" stroke="midnightblue" d="M751,-112.083C751,-105.006 751,-94.8611 751,-85.9865"/>
<polygon fill="midnightblue" stroke="midnightblue" points="754.5,-85.751 751,-75.7511 747.5,-85.7511 754.5,-85.751"/>
</g>
<!-- Node18 -->
<g id="node18" class="node"><title>Node18</title>
<polygon fill="none" stroke="#bfbfbf" points="797,-56.5 797,-75.5 829,-75.5 829,-56.5 797,-56.5"/>
<text text-anchor="middle" x="813" y="-63.5" font-family="Helvetica,sans-Serif" font-size="10.00">list</text>
</g>
<!-- Node15&#45;&gt;Node18 -->
<g id="edge20" class="edge"><title>Node15&#45;&gt;Node18</title>
<path fill="none" stroke="midnightblue" d="M760.961,-112.324C770.127,-104.341 783.937,-92.3128 795.028,-82.6529"/>
<polygon fill="midnightblue" stroke="midnightblue" points="797.615,-85.041 802.857,-75.8339 793.018,-79.7624 797.615,-85.041"/>
</g>
<!-- Node22&#45;&gt;Node4 -->
<g id="edge26" class="edge"><title>Node22&#45;&gt;Node4</title>
<path fill="none" stroke="midnightblue" d="M208.879,-280.124C222.874,-267.568 249.3,-243.927 272,-224 283.356,-214.032 296.193,-202.921 306.271,-194.234"/>
<polygon fill="midnightblue" stroke="midnightblue" points="308.7,-196.762 313.995,-187.585 304.133,-191.457 308.7,-196.762"/>
</g>
<!-- Node23 -->
<g id="node23" class="node"><title>Node23</title>
<g id="a_node23"><a xlink:href="particle__data_8hpp.html" target="_top" xlink:title="For more information on particle_data, see particle_data.c. ">
<polygon fill="none" stroke="black" points="352.5,-224.5 352.5,-243.5 453.5,-243.5 453.5,-224.5 352.5,-224.5"/>
<text text-anchor="middle" x="403" y="-231.5" font-family="Helvetica,sans-Serif" font-size="10.00">particle_data.hpp</text>
</a>
</g>
</g>
<!-- Node22&#45;&gt;Node23 -->
<g id="edge27" class="edge"><title>Node22&#45;&gt;Node23</title>
<path fill="none" stroke="midnightblue" d="M231.324,-280.444C266.389,-271.162 322.498,-256.309 360.965,-246.127"/>
<polygon fill="midnightblue" stroke="midnightblue" points="362.055,-249.459 370.827,-243.516 360.264,-242.692 362.055,-249.459"/>
</g>
<!-- Node23&#45;&gt;Node4 -->
<g id="edge28" class="edge"><title>Node23&#45;&gt;Node4</title>
<path fill="none" stroke="midnightblue" d="M390.307,-224.324C378.099,-215.979 359.422,-203.212 344.997,-193.352"/>
<polygon fill="midnightblue" stroke="midnightblue" points="346.892,-190.408 336.661,-187.655 342.942,-196.187 346.892,-190.408"/>
</g>
<!-- Node24&#45;&gt;Node4 -->
<g id="edge30" class="edge"><title>Node24&#45;&gt;Node4</title>
<path fill="none" stroke="midnightblue" d="M269.234,-392.297C277.639,-359.563 307.471,-243.375 319.207,-197.666"/>
<polygon fill="midnightblue" stroke="midnightblue" points="322.622,-198.44 321.719,-187.884 315.842,-196.699 322.622,-198.44"/>
</g>
<!-- Node24&#45;&gt;Node22 -->
<g id="edge31" class="edge"><title>Node24&#45;&gt;Node22</title>
<path fill="none" stroke="midnightblue" d="M261.79,-392.114C254.394,-379.546 240.372,-355.891 228,-336 222.222,-326.711 215.627,-316.451 210.187,-308.076"/>
<polygon fill="midnightblue" stroke="midnightblue" points="213.037,-306.038 204.642,-299.575 207.174,-309.863 213.037,-306.038"/>
</g>
<!-- Node25 -->
<g id="node25" class="node"><title>Node25</title>
<g id="a_node25"><a xlink:href="grid_8hpp.html" target="_top" xlink:title="Domain decomposition for parallel computing. ">
<polygon fill="none" stroke="black" points="528,-336.5 528,-355.5 584,-355.5 584,-336.5 528,-336.5"/>
<text text-anchor="middle" x="556" y="-343.5" font-family="Helvetica,sans-Serif" font-size="10.00">grid.hpp</text>
</a>
</g>
</g>
<!-- Node24&#45;&gt;Node25 -->
<g id="edge32" class="edge"><title>Node24&#45;&gt;Node25</title>
<path fill="none" stroke="midnightblue" d="M305.676,-393.773C361.162,-383.406 462.731,-364.427 517.898,-354.119"/>
<polygon fill="midnightblue" stroke="midnightblue" points="518.774,-357.516 527.961,-352.239 517.488,-350.635 518.774,-357.516"/>
</g>
<!-- Node25&#45;&gt;Node4 -->
<g id="edge33" class="edge"><title>Node25&#45;&gt;Node4</title>
<path fill="none" stroke="midnightblue" d="M527.645,-339.381C481.973,-328.844 392.267,-301.76 343,-244 331.923,-231.013 327.299,-211.85 325.371,-197.693"/>
<polygon fill="midnightblue" stroke="midnightblue" points="328.841,-197.214 324.332,-187.627 321.878,-197.934 328.841,-197.214"/>
</g>
<!-- Node25&#45;&gt;Node15 -->
<g id="edge48" class="edge"><title>Node25&#45;&gt;Node15</title>
<path fill="none" stroke="midnightblue" d="M584.039,-341.356C649.273,-331.155 810.21,-295.623 870,-188 885.952,-159.287 849.163,-142.564 812.387,-133.29"/>
<polygon fill="midnightblue" stroke="midnightblue" points="813.101,-129.863 802.566,-130.98 811.498,-136.677 813.101,-129.863"/>
</g>
<!-- Node26 -->
<g id="node26" class="node"><title>Node26</title>
<polygon fill="none" stroke="#bfbfbf" points="631,-280.5 631,-299.5 681,-299.5 681,-280.5 631,-280.5"/>
<text text-anchor="middle" x="656" y="-287.5" font-family="Helvetica,sans-Serif" font-size="10.00">climits</text>
</g>
<!-- Node25&#45;&gt;Node26 -->
<g id="edge34" class="edge"><title>Node25&#45;&gt;Node26</title>
<path fill="none" stroke="midnightblue" d="M572.067,-336.324C587.958,-327.743 612.507,-314.486 630.958,-304.522"/>
<polygon fill="midnightblue" stroke="midnightblue" points="632.837,-307.486 639.973,-299.655 629.511,-301.326 632.837,-307.486"/>
</g>
<!-- Node27 -->
<g id="node27" class="node"><title>Node27</title>
<g id="a_node27"><a xlink:href="communication_8hpp.html" target="_top" xlink:title="This file contains the asynchronous MPI communication. ">
<polygon fill="none" stroke="black" points="499.5,-280.5 499.5,-299.5 612.5,-299.5 612.5,-280.5 499.5,-280.5"/>
<text text-anchor="middle" x="556" y="-287.5" font-family="Helvetica,sans-Serif" font-size="10.00">communication.hpp</text>
</a>
</g>
</g>
<!-- Node25&#45;&gt;Node27 -->
<g id="edge35" class="edge"><title>Node25&#45;&gt;Node27</title>
<path fill="none" stroke="midnightblue" d="M556,-336.083C556,-329.006 556,-318.861 556,-309.986"/>
<polygon fill="midnightblue" stroke="midnightblue" points="559.5,-309.751 556,-299.751 552.5,-309.751 559.5,-309.751"/>
</g>
<!-- Node27&#45;&gt;Node23 -->
<g id="edge36" class="edge"><title>Node27&#45;&gt;Node23</title>
<path fill="none" stroke="midnightblue" d="M531.757,-280.444C506.129,-271.399 465.515,-257.064 436.762,-246.916"/>
<polygon fill="midnightblue" stroke="midnightblue" points="437.725,-243.544 427.13,-243.516 435.395,-250.145 437.725,-243.544"/>
</g>
<!-- Node28 -->
<g id="node28" class="node"><title>Node28</title>
<g id="a_node28"><a xlink:href="random_8hpp.html" target="_top" xlink:title="A random generator. ">
<polygon fill="none" stroke="black" points="471.5,-224.5 471.5,-243.5 546.5,-243.5 546.5,-224.5 471.5,-224.5"/>
<text text-anchor="middle" x="509" y="-231.5" font-family="Helvetica,sans-Serif" font-size="10.00">random.hpp</text>
</a>
</g>
</g>
<!-- Node27&#45;&gt;Node28 -->
<g id="edge37" class="edge"><title>Node27&#45;&gt;Node28</title>
<path fill="none" stroke="midnightblue" d="M548.239,-280.083C541.463,-272.298 531.457,-260.801 523.245,-251.367"/>
<polygon fill="midnightblue" stroke="midnightblue" points="525.822,-248.996 516.617,-243.751 520.542,-253.592 525.822,-248.996"/>
</g>
<!-- Node29 -->
<g id="node29" class="node"><title>Node29</title>
<g id="a_node29"><a xlink:href="topology_8hpp.html" target="_top" xlink:title="This file contains functions for handling the system topology. ">
<polygon fill="none" stroke="black" points="564.5,-224.5 564.5,-243.5 643.5,-243.5 643.5,-224.5 564.5,-224.5"/>
<text text-anchor="middle" x="604" y="-231.5" font-family="Helvetica,sans-Serif" font-size="10.00">topology.hpp</text>
</a>
</g>
</g>
<!-- Node27&#45;&gt;Node29 -->
<g id="edge39" class="edge"><title>Node27&#45;&gt;Node29</title>
<path fill="none" stroke="midnightblue" d="M563.926,-280.083C570.846,-272.298 581.065,-260.801 589.452,-251.367"/>
<polygon fill="midnightblue" stroke="midnightblue" points="592.194,-253.55 596.221,-243.751 586.962,-248.9 592.194,-253.55"/>
</g>
<!-- Node30 -->
<g id="node30" class="node"><title>Node30</title>
<g id="a_node30"><a xlink:href="mpi_8h.html" target="_top" xlink:title="This is the MPIfake implementation. ">
<polygon fill="none" stroke="black" points="709,-224.5 709,-243.5 753,-243.5 753,-224.5 709,-224.5"/>
<text text-anchor="middle" x="731" y="-231.5" font-family="Helvetica,sans-Serif" font-size="10.00">mpi.h</text>
</a>
</g>
</g>
<!-- Node27&#45;&gt;Node30 -->
<g id="edge41" class="edge"><title>Node27&#45;&gt;Node30</title>
<path fill="none" stroke="midnightblue" d="M583.729,-280.444C615.172,-270.741 666.341,-254.952 699.329,-244.773"/>
<polygon fill="midnightblue" stroke="midnightblue" points="700.418,-248.1 708.941,-241.807 698.354,-241.411 700.418,-248.1"/>
</g>
<!-- Node34 -->
<g id="node34" class="node"><title>Node34</title>
<g id="a_node34"><a xlink:href="cuda__init_8hpp.html" target="_top" xlink:title="cuda_init.hpp">
<polygon fill="none" stroke="black" points="568,-168.5 568,-187.5 650,-187.5 650,-168.5 568,-168.5"/>
<text text-anchor="middle" x="609" y="-175.5" font-family="Helvetica,sans-Serif" font-size="10.00">cuda_init.hpp</text>
</a>
</g>
</g>
<!-- Node27&#45;&gt;Node34 -->
<g id="edge45" class="edge"><title>Node27&#45;&gt;Node34</title>
<path fill="none" stroke="midnightblue" d="M597.471,-280.497C617.586,-274.06 639.953,-262.952 652,-244 663.064,-226.594 645.707,-206.872 629.852,-193.762"/>
<polygon fill="midnightblue" stroke="midnightblue" points="631.903,-190.923 621.857,-187.557 627.611,-196.453 631.903,-190.923"/>
</g>
<!-- Node28&#45;&gt;Node4 -->
<g id="edge38" class="edge"><title>Node28&#45;&gt;Node4</title>
<path fill="none" stroke="midnightblue" d="M479.686,-224.444C448.158,-215.241 397.869,-200.562 363.014,-190.388"/>
<polygon fill="midnightblue" stroke="midnightblue" points="363.757,-186.959 353.177,-187.516 361.795,-193.678 363.757,-186.959"/>
</g>
<!-- Node29&#45;&gt;Node4 -->
<g id="edge40" class="edge"><title>Node29&#45;&gt;Node4</title>
<path fill="none" stroke="midnightblue" d="M564.477,-225.378C511.339,-215.13 417.383,-197.01 364.001,-186.715"/>
<polygon fill="midnightblue" stroke="midnightblue" points="364.372,-183.222 353.89,-184.765 363.047,-190.095 364.372,-183.222"/>
</g>
<!-- Node31 -->
<g id="node31" class="node"><title>Node31</title>
<polygon fill="none" stroke="#bfbfbf" points="739.5,-168.5 739.5,-187.5 792.5,-187.5 792.5,-168.5 739.5,-168.5"/>
<text text-anchor="middle" x="766" y="-175.5" font-family="Helvetica,sans-Serif" font-size="10.00">string.h</text>
</g>
<!-- Node30&#45;&gt;Node31 -->
<g id="edge42" class="edge"><title>Node30&#45;&gt;Node31</title>
<path fill="none" stroke="midnightblue" d="M736.78,-224.083C741.672,-216.534 748.827,-205.495 754.833,-196.23"/>
<polygon fill="midnightblue" stroke="midnightblue" points="757.826,-198.046 760.328,-187.751 751.952,-194.239 757.826,-198.046"/>
</g>
<!-- Node32 -->
<g id="node32" class="node"><title>Node32</title>
<polygon fill="none" stroke="#bfbfbf" points="811,-168.5 811,-187.5 861,-187.5 861,-168.5 811,-168.5"/>
<text text-anchor="middle" x="836" y="-175.5" font-family="Helvetica,sans-Serif" font-size="10.00">stdio.h</text>
</g>
<!-- Node30&#45;&gt;Node32 -->
<g id="edge43" class="edge"><title>Node30&#45;&gt;Node32</title>
<path fill="none" stroke="midnightblue" d="M747.87,-224.324C764.709,-215.664 790.807,-202.242 810.238,-192.249"/>
<polygon fill="midnightblue" stroke="midnightblue" points="811.88,-195.341 819.172,-187.655 808.678,-189.116 811.88,-195.341"/>
</g>
<!-- Node33 -->
<g id="node33" class="node"><title>Node33</title>
<polygon fill="none" stroke="#bfbfbf" points="668.5,-168.5 668.5,-187.5 721.5,-187.5 721.5,-168.5 668.5,-168.5"/>
<text text-anchor="middle" x="695" y="-175.5" font-family="Helvetica,sans-Serif" font-size="10.00">stdlib.h</text>
</g>
<!-- Node30&#45;&gt;Node33 -->
<g id="edge44" class="edge"><title>Node30&#45;&gt;Node33</title>
<path fill="none" stroke="midnightblue" d="M725.055,-224.083C720.023,-216.534 712.663,-205.495 706.487,-196.23"/>
<polygon fill="midnightblue" stroke="midnightblue" points="709.293,-194.13 700.834,-187.751 703.469,-198.013 709.293,-194.13"/>
</g>
<!-- Node34&#45;&gt;Node9 -->
<g id="edge46" class="edge"><title>Node34&#45;&gt;Node9</title>
<path fill="none" stroke="midnightblue" d="M621.986,-168.359C639.079,-155.888 665.467,-132.13 652,-112 637.407,-90.1877 610.099,-78.9367 586.468,-73.1393"/>
<polygon fill="midnightblue" stroke="midnightblue" points="587.131,-69.7016 576.613,-70.9736 585.629,-76.5385 587.131,-69.7016"/>
</g>
<!-- Node34&#45;&gt;Node19 -->
<g id="edge47" class="edge"><title>Node34&#45;&gt;Node19</title>
<path fill="none" stroke="midnightblue" d="M610.651,-168.083C611.976,-160.927 613.882,-150.635 615.539,-141.691"/>
<polygon fill="midnightblue" stroke="midnightblue" points="619,-142.221 617.379,-131.751 612.117,-140.947 619,-142.221"/>
</g>
</g>
</svg>
