<?xml version="1.0" encoding="UTF-8" standalone="no"?>
<!DOCTYPE svg PUBLIC "-//W3C//DTD SVG 1.1//EN"
 "http://www.w3.org/Graphics/SVG/1.1/DTD/svg11.dtd">
<!-- Generated by graphviz version 2.38.0 (20140413.2041)
 -->
<!-- Title: tcl Pages: 1 -->
<svg width="348pt" height="231pt"
 viewBox="0.00 0.00 348.00 231.00" xmlns="http://www.w3.org/2000/svg" xmlns:xlink="http://www.w3.org/1999/xlink">
<g id="graph0" class="graph" transform="scale(1 1) rotate(0) translate(4 227)">
<title>tcl</title>
<g id="clust1" class="cluster"><title>clusterdir_68267d1309a1af8e8297ef4c3efbcdba</title>
<g id="a_clust1"><a xlink:href="dir_68267d1309a1af8e8297ef4c3efbcdba.html" target="_top" xlink:title="src">
<polygon fill="#ddddee" stroke="black" points="8,-56 8,-215 332,-215 332,-56 8,-56"/>
<text text-anchor="middle" x="170" y="-203" font-family="Helvetica,sans-Serif" font-size="10.00">src</text>
</a>
</g>
</g>
<g id="clust2" class="cluster"><title>clusterdir_e9d8b2b03199d3dac938f97002337c8c</title>
<g id="a_clust2"><a xlink:href="dir_e9d8b2b03199d3dac938f97002337c8c.html" target="_top">
<polygon fill="#eeeeff" stroke="black" points="16,-64 16,-188 324,-188 324,-64 16,-64"/>
</a>
</g>
</g>
<!-- dir_e9d8b2b03199d3dac938f97002337c8c -->
<g id="node1" class="node"><title>dir_e9d8b2b03199d3dac938f97002337c8c</title>
<text text-anchor="middle" x="155" y="-159.5" font-family="Helvetica,sans-Serif" font-size="10.00">tcl</text>
</g>
<!-- dir_c3dfc523ea46432a2916b2d7c2f41335 -->
<g id="node2" class="node"><title>dir_c3dfc523ea46432a2916b2d7c2f41335</title>
<g id="a_node2"><a xlink:href="dir_c3dfc523ea46432a2916b2d7c2f41335.html" target="_top" xlink:title="actor">
<polygon fill="white" stroke="black" points="78,-108 24,-108 24,-72 78,-72 78,-108"/>
<text text-anchor="middle" x="51" y="-87.5" font-family="Helvetica,sans-Serif" font-size="10.00">actor</text>
</a>
</g>
</g>
<!-- dir_e9d8b2b03199d3dac938f97002337c8c&#45;&gt;dir_c3dfc523ea46432a2916b2d7c2f41335 -->
<g id="edge6" class="edge"><title>dir_e9d8b2b03199d3dac938f97002337c8c&#45;&gt;dir_c3dfc523ea46432a2916b2d7c2f41335</title>
<path fill="none" stroke="black" d="M129.559,-143.876C116.213,-134.893 99.6758,-123.763 85.2221,-114.034"/>
<polygon fill="black" stroke="black" points="86.7893,-110.87 76.5391,-108.19 82.8806,-116.677 86.7893,-110.87"/>
<g id="a_edge6&#45;headlabel"><a xlink:href="dir_000005_000008.html" target="_top" xlink:title="4">
<text text-anchor="middle" x="91.3567" y="-108.022" font-family="Helvetica,sans-Serif" font-size="10.00">4</text>
</a>
</g>
</g>
<!-- dir_1e97a27b4b99bcb43d38de59d2799e92 -->
<g id="node3" class="node"><title>dir_1e97a27b4b99bcb43d38de59d2799e92</title>
<g id="a_node3"><a xlink:href="dir_1e97a27b4b99bcb43d38de59d2799e92.html" target="_top" xlink:title="immersed_boundary">
<polygon fill="white" stroke="black" points="213.5,-108 96.5,-108 96.5,-72 213.5,-72 213.5,-108"/>
<text text-anchor="middle" x="155" y="-87.5" font-family="Helvetica,sans-Serif" font-size="10.00">immersed_boundary</text>
</a>
</g>
</g>
<!-- dir_e9d8b2b03199d3dac938f97002337c8c&#45;&gt;dir_1e97a27b4b99bcb43d38de59d2799e92 -->
<g id="edge5" class="edge"><title>dir_e9d8b2b03199d3dac938f97002337c8c&#45;&gt;dir_1e97a27b4b99bcb43d38de59d2799e92</title>
<path fill="none" stroke="black" d="M155,-143.697C155,-135.983 155,-126.712 155,-118.112"/>
<polygon fill="black" stroke="black" points="158.5,-118.104 155,-108.104 151.5,-118.104 158.5,-118.104"/>
<g id="a_edge5&#45;headlabel"><a xlink:href="dir_000005_000010.html" target="_top" xlink:title="3">
<text text-anchor="middle" x="161.339" y="-119.199" font-family="Helvetica,sans-Serif" font-size="10.00">3</text>
</a>
</g>
</g>
<!-- dir_71880f667027c3fdeecda799c1b1e01f -->
<g id="node4" class="node"><title>dir_71880f667027c3fdeecda799c1b1e01f</title>
<g id="a_node4"><a xlink:href="dir_71880f667027c3fdeecda799c1b1e01f.html" target="_top" xlink:title="object&#45;in&#45;fluid">
<polygon fill="white" stroke="black" points="316,-108 232,-108 232,-72 316,-72 316,-108"/>
<text text-anchor="middle" x="274" y="-87.5" font-family="Helvetica,sans-Serif" font-size="10.00">object&#45;in&#45;fluid</text>
</a>
</g>
</g>
<!-- dir_e9d8b2b03199d3dac938f97002337c8c&#45;&gt;dir_71880f667027c3fdeecda799c1b1e01f -->
<g id="edge4" class="edge"><title>dir_e9d8b2b03199d3dac938f97002337c8c&#45;&gt;dir_71880f667027c3fdeecda799c1b1e01f</title>
<path fill="none" stroke="black" d="M182.003,-145.116C198.003,-135.704 218.526,-123.632 236.127,-113.278"/>
<polygon fill="black" stroke="black" points="238.18,-116.131 245.025,-108.044 234.631,-110.098 238.18,-116.131"/>
<g id="a_edge4&#45;headlabel"><a xlink:href="dir_000005_000007.html" target="_top" xlink:title="6">
<text text-anchor="middle" x="236.521" y="-117.901" font-family="Helvetica,sans-Serif" font-size="10.00">6</text>
</a>
</g>
</g>
<!-- dir_aebb8dcc11953d78e620bbef0b9e2183 -->
<g id="node5" class="node"><title>dir_aebb8dcc11953d78e620bbef0b9e2183</title>
<g id="a_node5"><a xlink:href="dir_aebb8dcc11953d78e620bbef0b9e2183.html" target="_top" xlink:title="core">
<polygon fill="none" stroke="red" points="182,-36 128,-36 128,-0 182,-0 182,-36"/>
<text text-anchor="middle" x="155" y="-15.5" font-family="Helvetica,sans-Serif" font-size="10.00">core</text>
</a>
</g>
</g>
<!-- dir_c3dfc523ea46432a2916b2d7c2f41335&#45;&gt;dir_aebb8dcc11953d78e620bbef0b9e2183 -->
<g id="edge3" class="edge"><title>dir_c3dfc523ea46432a2916b2d7c2f41335&#45;&gt;dir_aebb8dcc11953d78e620bbef0b9e2183</title>
<path fill="none" stroke="black" d="M68.7667,-71.6999C74.6561,-66.3694 81.3983,-60.6776 88,-56 97.5461,-49.2361 108.451,-42.7482 118.651,-37.1464"/>
<polygon fill="black" stroke="black" points="120.598,-40.0745 127.761,-32.2686 117.293,-33.9034 120.598,-40.0745"/>
<g id="a_edge3&#45;headlabel"><a xlink:href="dir_000008_000003.html" target="_top" xlink:title="14">
<text text-anchor="middle" x="118.769" y="-41.7743" font-family="Helvetica,sans-Serif" font-size="10.00">14</text>
</a>
</g>
</g>
<!-- dir_1e97a27b4b99bcb43d38de59d2799e92&#45;&gt;dir_aebb8dcc11953d78e620bbef0b9e2183 -->
<g id="edge2" class="edge"><title>dir_1e97a27b4b99bcb43d38de59d2799e92&#45;&gt;dir_aebb8dcc11953d78e620bbef0b9e2183</title>
<path fill="none" stroke="black" d="M155,-71.6966C155,-63.9827 155,-54.7125 155,-46.1124"/>
<polygon fill="black" stroke="black" points="158.5,-46.1043 155,-36.1043 151.5,-46.1044 158.5,-46.1043"/>
<g id="a_edge2&#45;headlabel"><a xlink:href="dir_000010_000003.html" target="_top" xlink:title="12">
<text text-anchor="middle" x="161.339" y="-47.199" font-family="Helvetica,sans-Serif" font-size="10.00">12</text>
</a>
</g>
</g>
<!-- dir_71880f667027c3fdeecda799c1b1e01f&#45;&gt;dir_aebb8dcc11953d78e620bbef0b9e2183 -->
<g id="edge1" class="edge"><title>dir_71880f667027c3fdeecda799c1b1e01f&#45;&gt;dir_aebb8dcc11953d78e620bbef0b9e2183</title>
<path fill="none" stroke="black" d="M248.556,-71.9962C240.467,-66.7369 231.431,-61.0115 223,-56 212.724,-49.8918 201.38,-43.5615 190.951,-37.901"/>
<polygon fill="black" stroke="black" points="192.535,-34.779 182.071,-33.1213 189.217,-40.9428 192.535,-34.779"/>
<g id="a_edge1&#45;headlabel"><a xlink:href="dir_000007_000003.html" target="_top" xlink:title="18">
<text text-anchor="middle" x="197.046" y="-31.4825" font-family="Helvetica,sans-Serif" font-size="10.00">18</text>
</a>
</g>
</g>
</g>
</svg>
