<?xml version="1.0" encoding="UTF-8" standalone="no"?>
<!DOCTYPE svg PUBLIC "-//W3C//DTD SVG 1.1//EN"
 "http://www.w3.org/Graphics/SVG/1.1/DTD/svg11.dtd">
<!-- Generated by graphviz version 2.38.0 (20140413.2041)
 -->
<!-- Title: dpd.cpp Pages: 1 -->
<svg width="1457pt" height="700pt"
 viewBox="0.00 0.00 1457.40 700.00" xmlns="http://www.w3.org/2000/svg" xmlns:xlink="http://www.w3.org/1999/xlink">
<g id="graph0" class="graph" transform="scale(1 1) rotate(0) translate(4 696)">
<title>dpd.cpp</title>
<!-- Node1 -->
<g id="node1" class="node"><title>Node1</title>
<polygon fill="#bfbfbf" stroke="black" points="664.402,-672.5 664.402,-691.5 719.402,-691.5 719.402,-672.5 664.402,-672.5"/>
<text text-anchor="middle" x="691.902" y="-679.5" font-family="Helvetica,sans-Serif" font-size="10.00">dpd.cpp</text>
</g>
<!-- Node2 -->
<g id="node2" class="node"><title>Node2</title>
<g id="a_node2"><a xlink:href="dpd_8hpp.html" target="_top" xlink:title="Routines to use dpd as thermostat or pair force T. ">
<polygon fill="none" stroke="black" points="663.902,-616.5 663.902,-635.5 719.902,-635.5 719.902,-616.5 663.902,-616.5"/>
<text text-anchor="middle" x="691.902" y="-623.5" font-family="Helvetica,sans-Serif" font-size="10.00">dpd.hpp</text>
</a>
</g>
</g>
<!-- Node1&#45;&gt;Node2 -->
<g id="edge1" class="edge"><title>Node1&#45;&gt;Node2</title>
<path fill="none" stroke="midnightblue" d="M691.902,-672.083C691.902,-665.006 691.902,-654.861 691.902,-645.986"/>
<polygon fill="midnightblue" stroke="midnightblue" points="695.402,-645.751 691.902,-635.751 688.402,-645.751 695.402,-645.751"/>
</g>
<!-- Node3 -->
<g id="node3" class="node"><title>Node3</title>
<g id="a_node3"><a xlink:href="utils_8hpp.html" target="_top" xlink:title="Small functions that are useful not only for one modul. ">
<polygon fill="none" stroke="black" points="721.402,-168.5 721.402,-187.5 780.402,-187.5 780.402,-168.5 721.402,-168.5"/>
<text text-anchor="middle" x="750.902" y="-175.5" font-family="Helvetica,sans-Serif" font-size="10.00">utils.hpp</text>
</a>
</g>
</g>
<!-- Node2&#45;&gt;Node3 -->
<g id="edge2" class="edge"><title>Node2&#45;&gt;Node3</title>
<path fill="none" stroke="midnightblue" d="M720.015,-624.843C791.084,-623.871 983.274,-617.668 1137.9,-580 1214.08,-561.443 1301.9,-593.405 1301.9,-515 1301.9,-515 1301.9,-515 1301.9,-289 1301.9,-222.808 1231.52,-242.265 1167.9,-224 1097.55,-203.803 880.524,-187.576 790.581,-181.539"/>
<polygon fill="midnightblue" stroke="midnightblue" points="790.722,-178.041 780.512,-180.87 790.258,-185.025 790.722,-178.041"/>
</g>
<!-- Node20 -->
<g id="node20" class="node"><title>Node20</title>
<g id="a_node20"><a xlink:href="thermostat_8hpp.html" target="_top" xlink:title="thermostat.hpp">
<polygon fill="none" stroke="black" points="645.902,-560.5 645.902,-579.5 737.902,-579.5 737.902,-560.5 645.902,-560.5"/>
<text text-anchor="middle" x="691.902" y="-567.5" font-family="Helvetica,sans-Serif" font-size="10.00">thermostat.hpp</text>
</a>
</g>
</g>
<!-- Node2&#45;&gt;Node20 -->
<g id="edge22" class="edge"><title>Node2&#45;&gt;Node20</title>
<path fill="none" stroke="midnightblue" d="M686.736,-616.083C685.226,-608.927 684.796,-598.635 685.444,-589.691"/>
<polygon fill="midnightblue" stroke="midnightblue" points="688.917,-590.126 686.771,-579.751 681.979,-589.2 688.917,-590.126"/>
</g>
<!-- Node21 -->
<g id="node21" class="node"><title>Node21</title>
<g id="a_node21"><a xlink:href="particle__data_8hpp.html" target="_top" xlink:title="For more information on particle_data, see particle_data.c. ">
<polygon fill="none" stroke="black" points="477.402,-224.5 477.402,-243.5 578.402,-243.5 578.402,-224.5 477.402,-224.5"/>
<text text-anchor="middle" x="527.902" y="-231.5" font-family="Helvetica,sans-Serif" font-size="10.00">particle_data.hpp</text>
</a>
</g>
</g>
<!-- Node2&#45;&gt;Node21 -->
<g id="edge80" class="edge"><title>Node2&#45;&gt;Node21</title>
<path fill="none" stroke="midnightblue" d="M663.716,-620.073C593.04,-606.923 413.902,-568.332 413.902,-515 413.902,-515 413.902,-515 413.902,-401 413.902,-335.209 475.503,-276.443 508.14,-249.925"/>
<polygon fill="midnightblue" stroke="midnightblue" points="510.458,-252.554 516.131,-243.606 506.116,-247.063 510.458,-252.554"/>
</g>
<!-- Node42 -->
<g id="node42" class="node"><title>Node42</title>
<g id="a_node42"><a xlink:href="virtual__sites_8hpp.html" target="_top" xlink:title="This file contains routine to handle virtual sites Virtual sites are like particles, but they will be not integrated. ">
<polygon fill="none" stroke="black" points="190.902,-336.5 190.902,-355.5 288.902,-355.5 288.902,-336.5 190.902,-336.5"/>
<text text-anchor="middle" x="239.902" y="-343.5" font-family="Helvetica,sans-Serif" font-size="10.00">virtual_sites.hpp</text>
</a>
</g>
</g>
<!-- Node2&#45;&gt;Node42 -->
<g id="edge81" class="edge"><title>Node2&#45;&gt;Node42</title>
<path fill="none" stroke="midnightblue" d="M663.879,-623.358C537.878,-615.608 29.9019,-580.316 29.9019,-515 29.9019,-515 29.9019,-515 29.9019,-457 29.9019,-388.578 118.462,-362.633 180.561,-352.851"/>
<polygon fill="midnightblue" stroke="midnightblue" points="181.283,-356.283 190.666,-351.363 180.263,-349.358 181.283,-356.283"/>
</g>
<!-- Node45 -->
<g id="node45" class="node"><title>Node45</title>
<g id="a_node45"><a xlink:href="interaction__data_8hpp.html" target="_top" xlink:title="Various procedures concerning interactions between particles. ">
<polygon fill="none" stroke="black" points="784.402,-280.5 784.402,-299.5 901.402,-299.5 901.402,-280.5 784.402,-280.5"/>
<text text-anchor="middle" x="842.902" y="-287.5" font-family="Helvetica,sans-Serif" font-size="10.00">interaction_data.hpp</text>
</a>
</g>
</g>
<!-- Node2&#45;&gt;Node45 -->
<g id="edge77" class="edge"><title>Node2&#45;&gt;Node45</title>
<path fill="none" stroke="midnightblue" d="M720.267,-622.596C835.685,-612.443 1263.9,-570.998 1263.9,-515 1263.9,-515 1263.9,-515 1263.9,-457 1263.9,-380.068 1017.52,-323.695 901.725,-301.448"/>
<polygon fill="midnightblue" stroke="midnightblue" points="902.085,-297.954 891.607,-299.527 900.779,-304.831 902.085,-297.954"/>
</g>
<!-- Node4 -->
<g id="node4" class="node"><title>Node4</title>
<polygon fill="none" stroke="#bfbfbf" points="271.402,-112.5 271.402,-131.5 318.402,-131.5 318.402,-112.5 271.402,-112.5"/>
<text text-anchor="middle" x="294.902" y="-119.5" font-family="Helvetica,sans-Serif" font-size="10.00">cmath</text>
</g>
<!-- Node3&#45;&gt;Node4 -->
<g id="edge3" class="edge"><title>Node3&#45;&gt;Node4</title>
<path fill="none" stroke="midnightblue" d="M721.177,-175.479C653.284,-171.658 481.553,-160.018 328.633,-131.829"/>
<polygon fill="midnightblue" stroke="midnightblue" points="329.063,-128.349 318.589,-129.948 327.774,-135.229 329.063,-128.349"/>
</g>
<!-- Node5 -->
<g id="node5" class="node"><title>Node5</title>
<polygon fill="none" stroke="#bfbfbf" points="336.902,-112.5 336.902,-131.5 382.902,-131.5 382.902,-112.5 336.902,-112.5"/>
<text text-anchor="middle" x="359.902" y="-119.5" font-family="Helvetica,sans-Serif" font-size="10.00">cstdio</text>
</g>
<!-- Node3&#45;&gt;Node5 -->
<g id="edge4" class="edge"><title>Node3&#45;&gt;Node5</title>
<path fill="none" stroke="midnightblue" d="M721.192,-172.897C649.681,-163.021 468.348,-137.977 393.256,-127.606"/>
<polygon fill="midnightblue" stroke="midnightblue" points="393.358,-124.087 382.974,-126.186 392.401,-131.022 393.358,-124.087"/>
</g>
<!-- Node6 -->
<g id="node6" class="node"><title>Node6</title>
<polygon fill="none" stroke="#bfbfbf" points="439.402,-112.5 439.402,-131.5 488.402,-131.5 488.402,-112.5 439.402,-112.5"/>
<text text-anchor="middle" x="463.902" y="-119.5" font-family="Helvetica,sans-Serif" font-size="10.00">cstdlib</text>
</g>
<!-- Node3&#45;&gt;Node6 -->
<g id="edge5" class="edge"><title>Node3&#45;&gt;Node6</title>
<path fill="none" stroke="midnightblue" d="M721.142,-172.525C675.451,-165.478 585.089,-150.845 498.695,-132.02"/>
<polygon fill="midnightblue" stroke="midnightblue" points="499.245,-128.557 488.726,-129.825 497.74,-135.394 499.245,-128.557"/>
</g>
<!-- Node7 -->
<g id="node7" class="node"><title>Node7</title>
<polygon fill="none" stroke="#bfbfbf" points="506.902,-112.5 506.902,-131.5 556.902,-131.5 556.902,-112.5 506.902,-112.5"/>
<text text-anchor="middle" x="531.902" y="-119.5" font-family="Helvetica,sans-Serif" font-size="10.00">cstring</text>
</g>
<!-- Node3&#45;&gt;Node7 -->
<g id="edge6" class="edge"><title>Node3&#45;&gt;Node7</title>
<path fill="none" stroke="midnightblue" d="M721.379,-170.013C686.753,-161.775 627.374,-147.518 567.192,-132.292"/>
<polygon fill="midnightblue" stroke="midnightblue" points="567.692,-128.808 557.138,-129.741 565.97,-135.593 567.692,-128.808"/>
</g>
<!-- Node8 -->
<g id="node8" class="node"><title>Node8</title>
<g id="a_node8"><a xlink:href="config_8hpp.html" target="_top" xlink:title="This file contains the defaults for Espresso. ">
<polygon fill="none" stroke="black" points="677.402,-56.5 677.402,-75.5 744.402,-75.5 744.402,-56.5 677.402,-56.5"/>
<text text-anchor="middle" x="710.902" y="-63.5" font-family="Helvetica,sans-Serif" font-size="10.00">config.hpp</text>
</a>
</g>
</g>
<!-- Node3&#45;&gt;Node8 -->
<g id="edge7" class="edge"><title>Node3&#45;&gt;Node8</title>
<path fill="none" stroke="midnightblue" d="M757.899,-168.253C767.233,-155.449 781.524,-131.055 771.902,-112 765.095,-98.5199 752.134,-88.083 739.904,-80.6696"/>
<polygon fill="midnightblue" stroke="midnightblue" points="741.245,-77.4099 730.808,-75.5896 737.832,-83.5214 741.245,-77.4099"/>
</g>
<!-- Node12 -->
<g id="node12" class="node"><title>Node12</title>
<g id="a_node12"><a xlink:href="debug_8hpp.html" target="_top" xlink:title="This file controls debug facilities. ">
<polygon fill="none" stroke="black" points="818.902,-112.5 818.902,-131.5 886.902,-131.5 886.902,-112.5 818.902,-112.5"/>
<text text-anchor="middle" x="852.902" y="-119.5" font-family="Helvetica,sans-Serif" font-size="10.00">debug.hpp</text>
</a>
</g>
</g>
<!-- Node3&#45;&gt;Node12 -->
<g id="edge11" class="edge"><title>Node3&#45;&gt;Node12</title>
<path fill="none" stroke="midnightblue" d="M767.29,-168.324C783.573,-159.703 808.769,-146.364 827.618,-136.386"/>
<polygon fill="midnightblue" stroke="midnightblue" points="829.354,-139.427 836.554,-131.655 826.079,-133.24 829.354,-139.427"/>
</g>
<!-- Node13 -->
<g id="node13" class="node"><title>Node13</title>
<g id="a_node13"><a xlink:href="lees__edwards_8hpp.html" target="_top" xlink:title="lees_edwards.hpp">
<polygon fill="none" stroke="black" points="658.902,-112.5 658.902,-131.5 762.902,-131.5 762.902,-112.5 658.902,-112.5"/>
<text text-anchor="middle" x="710.902" y="-119.5" font-family="Helvetica,sans-Serif" font-size="10.00">lees_edwards.hpp</text>
</a>
</g>
</g>
<!-- Node3&#45;&gt;Node13 -->
<g id="edge13" class="edge"><title>Node3&#45;&gt;Node13</title>
<path fill="none" stroke="midnightblue" d="M744.297,-168.083C738.647,-160.455 730.357,-149.264 723.451,-139.941"/>
<polygon fill="midnightblue" stroke="midnightblue" points="726.149,-137.703 717.384,-131.751 720.524,-141.87 726.149,-137.703"/>
</g>
<!-- Node14 -->
<g id="node14" class="node"><title>Node14</title>
<g id="a_node14"><a xlink:href="errorhandling_8hpp.html" target="_top" xlink:title="This file contains the errorhandling code for severe errors, like a broken bond or illegal parameter ...">
<polygon fill="none" stroke="black" points="1009.4,-112.5 1009.4,-131.5 1112.4,-131.5 1112.4,-112.5 1009.4,-112.5"/>
<text text-anchor="middle" x="1060.9" y="-119.5" font-family="Helvetica,sans-Serif" font-size="10.00">errorhandling.hpp</text>
</a>
</g>
</g>
<!-- Node3&#45;&gt;Node14 -->
<g id="edge15" class="edge"><title>Node3&#45;&gt;Node14</title>
<path fill="none" stroke="midnightblue" d="M780.626,-171.822C831.509,-162.959 936.19,-144.724 1002.23,-133.221"/>
<polygon fill="midnightblue" stroke="midnightblue" points="1002.83,-136.669 1012.08,-131.505 1001.63,-129.773 1002.83,-136.669"/>
</g>
<!-- Node18 -->
<g id="node18" class="node"><title>Node18</title>
<polygon fill="none" stroke="#bfbfbf" points="905.402,-112.5 905.402,-131.5 952.402,-131.5 952.402,-112.5 905.402,-112.5"/>
<text text-anchor="middle" x="928.902" y="-119.5" font-family="Helvetica,sans-Serif" font-size="10.00">vector</text>
</g>
<!-- Node3&#45;&gt;Node18 -->
<g id="edge20" class="edge"><title>Node3&#45;&gt;Node18</title>
<path fill="none" stroke="midnightblue" d="M779.107,-168.444C810.733,-158.849 861.98,-143.302 895.563,-133.114"/>
<polygon fill="midnightblue" stroke="midnightblue" points="896.824,-136.389 905.377,-130.137 894.791,-129.691 896.824,-136.389"/>
</g>
<!-- Node19 -->
<g id="node19" class="node"><title>Node19</title>
<polygon fill="none" stroke="#bfbfbf" points="575.402,-112.5 575.402,-131.5 640.402,-131.5 640.402,-112.5 575.402,-112.5"/>
<text text-anchor="middle" x="607.902" y="-119.5" font-family="Helvetica,sans-Serif" font-size="10.00">exception</text>
</g>
<!-- Node3&#45;&gt;Node19 -->
<g id="edge21" class="edge"><title>Node3&#45;&gt;Node19</title>
<path fill="none" stroke="midnightblue" d="M728.243,-168.444C704.5,-159.478 666.993,-145.314 640.163,-135.183"/>
<polygon fill="midnightblue" stroke="midnightblue" points="641.046,-131.775 630.455,-131.516 638.573,-138.324 641.046,-131.775"/>
</g>
<!-- Node9 -->
<g id="node9" class="node"><title>Node9</title>
<g id="a_node9"><a xlink:href="acconfig_8hpp.html" target="_top" xlink:title="acconfig.hpp">
<polygon fill="none" stroke="black" points="560.902,-0.5 560.902,-19.5 638.902,-19.5 638.902,-0.5 560.902,-0.5"/>
<text text-anchor="middle" x="599.902" y="-7.5" font-family="Helvetica,sans-Serif" font-size="10.00">acconfig.hpp</text>
</a>
</g>
</g>
<!-- Node8&#45;&gt;Node9 -->
<g id="edge8" class="edge"><title>Node8&#45;&gt;Node9</title>
<path fill="none" stroke="midnightblue" d="M693.068,-56.324C675.186,-47.6247 647.427,-34.1202 626.856,-24.113"/>
<polygon fill="midnightblue" stroke="midnightblue" points="628.215,-20.8819 617.692,-19.6545 625.153,-27.1765 628.215,-20.8819"/>
</g>
<!-- Node10 -->
<g id="node10" class="node"><title>Node10</title>
<g id="a_node10"><a xlink:href="myconfig-final_8hpp.html" target="_top" xlink:title="myconfig&#45;final.hpp">
<polygon fill="none" stroke="black" points="657.402,-0.5 657.402,-19.5 764.402,-19.5 764.402,-0.5 657.402,-0.5"/>
<text text-anchor="middle" x="710.902" y="-7.5" font-family="Helvetica,sans-Serif" font-size="10.00">myconfig&#45;final.hpp</text>
</a>
</g>
</g>
<!-- Node8&#45;&gt;Node10 -->
<g id="edge9" class="edge"><title>Node8&#45;&gt;Node10</title>
<path fill="none" stroke="midnightblue" d="M710.902,-56.083C710.902,-49.0059 710.902,-38.8611 710.902,-29.9865"/>
<polygon fill="midnightblue" stroke="midnightblue" points="714.402,-29.751 710.902,-19.7511 707.402,-29.7511 714.402,-29.751"/>
</g>
<!-- Node11 -->
<g id="node11" class="node"><title>Node11</title>
<g id="a_node11"><a xlink:href="config-features_8hpp.html" target="_top" xlink:title="config&#45;features.hpp">
<polygon fill="none" stroke="black" points="782.402,-0.5 782.402,-19.5 893.402,-19.5 893.402,-0.5 782.402,-0.5"/>
<text text-anchor="middle" x="837.902" y="-7.5" font-family="Helvetica,sans-Serif" font-size="10.00">config&#45;features.hpp</text>
</a>
</g>
</g>
<!-- Node8&#45;&gt;Node11 -->
<g id="edge10" class="edge"><title>Node8&#45;&gt;Node11</title>
<path fill="none" stroke="midnightblue" d="M731.025,-56.4435C751.926,-47.5566 784.837,-33.5632 808.618,-23.4514"/>
<polygon fill="midnightblue" stroke="midnightblue" points="810.039,-26.6504 817.873,-19.5164 807.3,-20.2085 810.039,-26.6504"/>
</g>
<!-- Node12&#45;&gt;Node8 -->
<g id="edge12" class="edge"><title>Node12&#45;&gt;Node8</title>
<path fill="none" stroke="midnightblue" d="M830.402,-112.444C806.824,-103.478 769.58,-89.314 742.938,-79.1827"/>
<polygon fill="midnightblue" stroke="midnightblue" points="743.888,-75.7995 733.297,-75.5164 741.4,-82.3424 743.888,-75.7995"/>
</g>
<!-- Node13&#45;&gt;Node8 -->
<g id="edge14" class="edge"><title>Node13&#45;&gt;Node8</title>
<path fill="none" stroke="midnightblue" d="M710.902,-112.083C710.902,-105.006 710.902,-94.8611 710.902,-85.9865"/>
<polygon fill="midnightblue" stroke="midnightblue" points="714.402,-85.751 710.902,-75.7511 707.402,-85.7511 714.402,-85.751"/>
</g>
<!-- Node14&#45;&gt;Node8 -->
<g id="edge16" class="edge"><title>Node14&#45;&gt;Node8</title>
<path fill="none" stroke="midnightblue" d="M1009.26,-113.032C940.308,-102.394 819.378,-83.7362 754.674,-73.7535"/>
<polygon fill="midnightblue" stroke="midnightblue" points="755.206,-70.2942 744.789,-72.2283 754.139,-77.2123 755.206,-70.2942"/>
</g>
<!-- Node15 -->
<g id="node15" class="node"><title>Node15</title>
<polygon fill="none" stroke="#bfbfbf" points="1094.9,-56.5 1094.9,-75.5 1138.9,-75.5 1138.9,-56.5 1094.9,-56.5"/>
<text text-anchor="middle" x="1116.9" y="-63.5" font-family="Helvetica,sans-Serif" font-size="10.00">string</text>
</g>
<!-- Node14&#45;&gt;Node15 -->
<g id="edge17" class="edge"><title>Node14&#45;&gt;Node15</title>
<path fill="none" stroke="midnightblue" d="M1069.9,-112.324C1078.1,-104.42 1090.41,-92.5482 1100.37,-82.9377"/>
<polygon fill="midnightblue" stroke="midnightblue" points="1102.97,-85.2947 1107.74,-75.8339 1098.11,-80.2558 1102.97,-85.2947"/>
</g>
<!-- Node16 -->
<g id="node16" class="node"><title>Node16</title>
<polygon fill="none" stroke="#bfbfbf" points="970.902,-56.5 970.902,-75.5 1026.9,-75.5 1026.9,-56.5 970.902,-56.5"/>
<text text-anchor="middle" x="998.902" y="-63.5" font-family="Helvetica,sans-Serif" font-size="10.00">sstream</text>
</g>
<!-- Node14&#45;&gt;Node16 -->
<g id="edge18" class="edge"><title>Node14&#45;&gt;Node16</title>
<path fill="none" stroke="midnightblue" d="M1050.94,-112.324C1041.78,-104.341 1027.96,-92.3128 1016.87,-82.6529"/>
<polygon fill="midnightblue" stroke="midnightblue" points="1018.88,-79.7624 1009.04,-75.8339 1014.29,-85.041 1018.88,-79.7624"/>
</g>
<!-- Node17 -->
<g id="node17" class="node"><title>Node17</title>
<polygon fill="none" stroke="#bfbfbf" points="1044.9,-56.5 1044.9,-75.5 1076.9,-75.5 1076.9,-56.5 1044.9,-56.5"/>
<text text-anchor="middle" x="1060.9" y="-63.5" font-family="Helvetica,sans-Serif" font-size="10.00">list</text>
</g>
<!-- Node14&#45;&gt;Node17 -->
<g id="edge19" class="edge"><title>Node14&#45;&gt;Node17</title>
<path fill="none" stroke="midnightblue" d="M1060.9,-112.083C1060.9,-105.006 1060.9,-94.8611 1060.9,-85.9865"/>
<polygon fill="midnightblue" stroke="midnightblue" points="1064.4,-85.751 1060.9,-75.7511 1057.4,-85.7511 1064.4,-85.751"/>
</g>
<!-- Node20&#45;&gt;Node2 -->
<g id="edge68" class="edge"><title>Node20&#45;&gt;Node2</title>
<path fill="none" stroke="midnightblue" d="M697.033,-579.751C698.559,-586.858 699.006,-597.136 698.374,-606.101"/>
<polygon fill="midnightblue" stroke="midnightblue" points="694.895,-605.713 697.068,-616.083 701.836,-606.622 694.895,-605.713"/>
</g>
<!-- Node20&#45;&gt;Node3 -->
<g id="edge24" class="edge"><title>Node20&#45;&gt;Node3</title>
<path fill="none" stroke="midnightblue" d="M737.986,-564.214C851.17,-549.552 1139.91,-493.707 1226.9,-300 1263.99,-217.416 912.063,-188.584 790.948,-181.152"/>
<polygon fill="midnightblue" stroke="midnightblue" points="790.821,-177.638 780.63,-180.536 790.404,-184.625 790.821,-177.638"/>
</g>
<!-- Node20&#45;&gt;Node4 -->
<g id="edge23" class="edge"><title>Node20&#45;&gt;Node4</title>
<path fill="none" stroke="midnightblue" d="M645.823,-568.143C516.116,-562.882 148.424,-527.687 10.9019,-300 -51.3713,-196.898 173.484,-144.703 261.247,-128.582"/>
<polygon fill="midnightblue" stroke="midnightblue" points="262.015,-132 271.242,-126.794 260.782,-125.11 262.015,-132"/>
</g>
<!-- Node20&#45;&gt;Node21 -->
<g id="edge25" class="edge"><title>Node20&#45;&gt;Node21</title>
<path fill="none" stroke="midnightblue" d="M645.812,-564.193C586.194,-555.135 489.902,-529.58 489.902,-459 489.902,-459 489.902,-459 489.902,-345 489.902,-310.813 506.502,-273.764 517.759,-252.571"/>
<polygon fill="midnightblue" stroke="midnightblue" points="520.849,-254.215 522.618,-243.769 514.721,-250.832 520.849,-254.215"/>
</g>
<!-- Node22 -->
<g id="node22" class="node"><title>Node22</title>
<g id="a_node22"><a xlink:href="random_8hpp.html" target="_top" xlink:title="A random generator. ">
<polygon fill="none" stroke="black" points="877.402,-224.5 877.402,-243.5 952.402,-243.5 952.402,-224.5 877.402,-224.5"/>
<text text-anchor="middle" x="914.902" y="-231.5" font-family="Helvetica,sans-Serif" font-size="10.00">random.hpp</text>
</a>
</g>
</g>
<!-- Node20&#45;&gt;Node22 -->
<g id="edge27" class="edge"><title>Node20&#45;&gt;Node22</title>
<path fill="none" stroke="midnightblue" d="M737.935,-563.532C790.527,-556.499 872.479,-542.898 896.902,-524 922.525,-504.173 929.902,-491.399 929.902,-459 929.902,-459 929.902,-459 929.902,-345 929.902,-312.502 923.395,-275.095 918.952,-253.343"/>
<polygon fill="midnightblue" stroke="midnightblue" points="922.364,-252.559 916.863,-243.504 915.517,-254.013 922.364,-252.559"/>
</g>
<!-- Node23 -->
<g id="node23" class="node"><title>Node23</title>
<g id="a_node23"><a xlink:href="global_8hpp.html" target="_top" xlink:title="This file contains the code for access to globally defined variables using the script command setmd...">
<polygon fill="none" stroke="black" points="719.902,-504.5 719.902,-523.5 787.902,-523.5 787.902,-504.5 719.902,-504.5"/>
<text text-anchor="middle" x="753.902" y="-511.5" font-family="Helvetica,sans-Serif" font-size="10.00">global.hpp</text>
</a>
</g>
</g>
<!-- Node20&#45;&gt;Node23 -->
<g id="edge29" class="edge"><title>Node20&#45;&gt;Node23</title>
<path fill="none" stroke="midnightblue" d="M701.863,-560.324C711.028,-552.341 724.839,-540.313 735.93,-530.653"/>
<polygon fill="midnightblue" stroke="midnightblue" points="738.517,-533.041 743.759,-523.834 733.92,-527.762 738.517,-533.041"/>
</g>
<!-- Node24 -->
<g id="node24" class="node"><title>Node24</title>
<g id="a_node24"><a xlink:href="integrate_8hpp.html" target="_top" xlink:title="Molecular dynamics integrator. ">
<polygon fill="none" stroke="black" points="805.902,-504.5 805.902,-523.5 887.902,-523.5 887.902,-504.5 805.902,-504.5"/>
<text text-anchor="middle" x="846.902" y="-511.5" font-family="Helvetica,sans-Serif" font-size="10.00">integrate.hpp</text>
</a>
</g>
</g>
<!-- Node20&#45;&gt;Node24 -->
<g id="edge30" class="edge"><title>Node20&#45;&gt;Node24</title>
<path fill="none" stroke="midnightblue" d="M716.462,-560.444C742.424,-551.399 783.57,-537.064 812.699,-526.916"/>
<polygon fill="midnightblue" stroke="midnightblue" points="814.165,-530.112 822.457,-523.516 811.862,-523.501 814.165,-530.112"/>
</g>
<!-- Node25 -->
<g id="node25" class="node"><title>Node25</title>
<g id="a_node25"><a xlink:href="cells_8hpp.html" target="_top" xlink:title="This file contains everything related to the cell structure / cell system. ">
<polygon fill="none" stroke="black" points="683.902,-336.5 683.902,-355.5 743.902,-355.5 743.902,-336.5 683.902,-336.5"/>
<text text-anchor="middle" x="713.902" y="-343.5" font-family="Helvetica,sans-Serif" font-size="10.00">cells.hpp</text>
</a>
</g>
</g>
<!-- Node20&#45;&gt;Node25 -->
<g id="edge31" class="edge"><title>Node20&#45;&gt;Node25</title>
<path fill="none" stroke="midnightblue" d="M692.764,-560.297C696.001,-527.633 707.474,-411.866 712.023,-365.957"/>
<polygon fill="midnightblue" stroke="midnightblue" points="715.518,-366.18 713.022,-355.884 708.552,-365.49 715.518,-366.18"/>
</g>
<!-- Node32 -->
<g id="node32" class="node"><title>Node32</title>
<g id="a_node32"><a xlink:href="lb_8hpp.html" target="_top" xlink:title="Header file for lb.cpp. ">
<polygon fill="none" stroke="black" points="602.402,-504.5 602.402,-523.5 649.402,-523.5 649.402,-504.5 602.402,-504.5"/>
<text text-anchor="middle" x="625.902" y="-511.5" font-family="Helvetica,sans-Serif" font-size="10.00">lb.hpp</text>
</a>
</g>
</g>
<!-- Node20&#45;&gt;Node32 -->
<g id="edge41" class="edge"><title>Node20&#45;&gt;Node32</title>
<path fill="none" stroke="midnightblue" d="M681.298,-560.324C671.446,-552.263 656.551,-540.077 644.687,-530.369"/>
<polygon fill="midnightblue" stroke="midnightblue" points="646.655,-527.457 636.699,-523.834 642.222,-532.875 646.655,-527.457"/>
</g>
<!-- Node20&#45;&gt;Node42 -->
<g id="edge69" class="edge"><title>Node20&#45;&gt;Node42</title>
<path fill="none" stroke="midnightblue" d="M645.849,-565.27C600.845,-560.295 531.228,-549.003 475.902,-524 383.007,-482.019 291.898,-398.319 255.955,-363.152"/>
<polygon fill="midnightblue" stroke="midnightblue" points="257.971,-360.223 248.402,-355.677 253.047,-365.199 257.971,-360.223"/>
</g>
<!-- Node21&#45;&gt;Node3 -->
<g id="edge26" class="edge"><title>Node21&#45;&gt;Node3</title>
<path fill="none" stroke="midnightblue" d="M563.237,-224.444C603.514,-214.69 669.191,-198.786 711.203,-188.613"/>
<polygon fill="midnightblue" stroke="midnightblue" points="712.189,-191.976 721.085,-186.22 710.542,-185.172 712.189,-191.976"/>
</g>
<!-- Node22&#45;&gt;Node3 -->
<g id="edge28" class="edge"><title>Node22&#45;&gt;Node3</title>
<path fill="none" stroke="midnightblue" d="M888.916,-224.444C861.206,-215.32 817.15,-200.813 786.286,-190.651"/>
<polygon fill="midnightblue" stroke="midnightblue" points="787.36,-187.32 776.767,-187.516 785.17,-193.968 787.36,-187.32"/>
</g>
<!-- Node25&#45;&gt;Node21 -->
<g id="edge32" class="edge"><title>Node25&#45;&gt;Node21</title>
<path fill="none" stroke="midnightblue" d="M707.788,-336.178C697.801,-322.375 676.699,-295.637 652.902,-280 629.353,-264.526 599.813,-253.573 575.363,-246.35"/>
<polygon fill="midnightblue" stroke="midnightblue" points="576.151,-242.935 565.575,-243.574 574.241,-249.67 576.151,-242.935"/>
</g>
<!-- Node26 -->
<g id="node26" class="node"><title>Node26</title>
<g id="a_node26"><a xlink:href="ghosts_8hpp.html" target="_top" xlink:title="Ghost particles and particle exchange. ">
<polygon fill="none" stroke="black" points="1127.9,-280.5 1127.9,-299.5 1197.9,-299.5 1197.9,-280.5 1127.9,-280.5"/>
<text text-anchor="middle" x="1162.9" y="-287.5" font-family="Helvetica,sans-Serif" font-size="10.00">ghosts.hpp</text>
</a>
</g>
</g>
<!-- Node25&#45;&gt;Node26 -->
<g id="edge33" class="edge"><title>Node25&#45;&gt;Node26</title>
<path fill="none" stroke="midnightblue" d="M744.102,-342.327C810.935,-336.253 976.332,-320.347 1113.9,-300 1115.18,-299.811 1116.47,-299.614 1117.77,-299.41"/>
<polygon fill="midnightblue" stroke="midnightblue" points="1118.59,-302.822 1127.89,-297.737 1117.45,-295.916 1118.59,-302.822"/>
</g>
<!-- Node31 -->
<g id="node31" class="node"><title>Node31</title>
<g id="a_node31"><a xlink:href="verlet_8hpp.html" target="_top" xlink:title="This file contains routines to setup and handle interaction pair lists (verlet pair lists) for the no...">
<polygon fill="none" stroke="black" points="699.902,-280.5 699.902,-299.5 765.902,-299.5 765.902,-280.5 699.902,-280.5"/>
<text text-anchor="middle" x="732.902" y="-287.5" font-family="Helvetica,sans-Serif" font-size="10.00">verlet.hpp</text>
</a>
</g>
</g>
<!-- Node25&#45;&gt;Node31 -->
<g id="edge39" class="edge"><title>Node25&#45;&gt;Node31</title>
<path fill="none" stroke="midnightblue" d="M717.039,-336.083C719.585,-328.849 723.258,-318.409 726.429,-309.397"/>
<polygon fill="midnightblue" stroke="midnightblue" points="729.805,-310.346 729.823,-299.751 723.202,-308.023 729.805,-310.346"/>
</g>
<!-- Node26&#45;&gt;Node21 -->
<g id="edge38" class="edge"><title>Node26&#45;&gt;Node21</title>
<path fill="none" stroke="midnightblue" d="M1127.79,-284.983C1113.01,-283.347 1095.63,-281.494 1079.9,-280 901.526,-263.061 690.346,-246.938 588.638,-239.419"/>
<polygon fill="midnightblue" stroke="midnightblue" points="588.782,-235.92 578.552,-238.675 588.267,-242.901 588.782,-235.92"/>
</g>
<!-- Node27 -->
<g id="node27" class="node"><title>Node27</title>
<g id="a_node27"><a xlink:href="mpi_8h.html" target="_top" xlink:title="This is the MPIfake implementation. ">
<polygon fill="none" stroke="black" points="1329.9,-224.5 1329.9,-243.5 1373.9,-243.5 1373.9,-224.5 1329.9,-224.5"/>
<text text-anchor="middle" x="1351.9" y="-231.5" font-family="Helvetica,sans-Serif" font-size="10.00">mpi.h</text>
</a>
</g>
</g>
<!-- Node26&#45;&gt;Node27 -->
<g id="edge34" class="edge"><title>Node26&#45;&gt;Node27</title>
<path fill="none" stroke="midnightblue" d="M1192.85,-280.444C1227.52,-270.537 1284.41,-254.285 1319.92,-244.137"/>
<polygon fill="midnightblue" stroke="midnightblue" points="1321.12,-247.436 1329.77,-241.323 1319.19,-240.705 1321.12,-247.436"/>
</g>
<!-- Node28 -->
<g id="node28" class="node"><title>Node28</title>
<polygon fill="none" stroke="#bfbfbf" points="1396.4,-168.5 1396.4,-187.5 1449.4,-187.5 1449.4,-168.5 1396.4,-168.5"/>
<text text-anchor="middle" x="1422.9" y="-175.5" font-family="Helvetica,sans-Serif" font-size="10.00">string.h</text>
</g>
<!-- Node27&#45;&gt;Node28 -->
<g id="edge35" class="edge"><title>Node27&#45;&gt;Node28</title>
<path fill="none" stroke="midnightblue" d="M1363.31,-224.324C1374.01,-216.185 1390.24,-203.839 1403.06,-194.087"/>
<polygon fill="midnightblue" stroke="midnightblue" points="1405.45,-196.673 1411.29,-187.834 1401.21,-191.102 1405.45,-196.673"/>
</g>
<!-- Node29 -->
<g id="node29" class="node"><title>Node29</title>
<polygon fill="none" stroke="#bfbfbf" points="1256.9,-168.5 1256.9,-187.5 1306.9,-187.5 1306.9,-168.5 1256.9,-168.5"/>
<text text-anchor="middle" x="1281.9" y="-175.5" font-family="Helvetica,sans-Serif" font-size="10.00">stdio.h</text>
</g>
<!-- Node27&#45;&gt;Node29 -->
<g id="edge36" class="edge"><title>Node27&#45;&gt;Node29</title>
<path fill="none" stroke="midnightblue" d="M1340.66,-224.324C1330.1,-216.185 1314.1,-203.839 1301.46,-194.087"/>
<polygon fill="midnightblue" stroke="midnightblue" points="1303.41,-191.171 1293.35,-187.834 1299.13,-196.713 1303.41,-191.171"/>
</g>
<!-- Node30 -->
<g id="node30" class="node"><title>Node30</title>
<polygon fill="none" stroke="#bfbfbf" points="1325.4,-168.5 1325.4,-187.5 1378.4,-187.5 1378.4,-168.5 1325.4,-168.5"/>
<text text-anchor="middle" x="1351.9" y="-175.5" font-family="Helvetica,sans-Serif" font-size="10.00">stdlib.h</text>
</g>
<!-- Node27&#45;&gt;Node30 -->
<g id="edge37" class="edge"><title>Node27&#45;&gt;Node30</title>
<path fill="none" stroke="midnightblue" d="M1351.9,-224.083C1351.9,-217.006 1351.9,-206.861 1351.9,-197.986"/>
<polygon fill="midnightblue" stroke="midnightblue" points="1355.4,-197.751 1351.9,-187.751 1348.4,-197.751 1355.4,-197.751"/>
</g>
<!-- Node31&#45;&gt;Node21 -->
<g id="edge40" class="edge"><title>Node31&#45;&gt;Node21</title>
<path fill="none" stroke="midnightblue" d="M700.419,-280.444C665.182,-271.162 608.798,-256.309 570.143,-246.127"/>
<polygon fill="midnightblue" stroke="midnightblue" points="570.794,-242.679 560.233,-243.516 569.011,-249.448 570.794,-242.679"/>
</g>
<!-- Node32&#45;&gt;Node3 -->
<g id="edge42" class="edge"><title>Node32&#45;&gt;Node3</title>
<path fill="none" stroke="midnightblue" d="M649.63,-508.046C750.099,-486.546 1138.46,-397.984 1206.9,-300 1249.25,-239.373 1188.51,-278.44 1101.9,-244 1081.94,-236.063 1078.51,-230.062 1057.9,-224 964.543,-196.538 850.066,-185.425 790.768,-181.263"/>
<polygon fill="midnightblue" stroke="midnightblue" points="790.912,-177.765 780.7,-180.586 790.443,-184.749 790.912,-177.765"/>
</g>
<!-- Node33 -->
<g id="node33" class="node"><title>Node33</title>
<g id="a_node33"><a xlink:href="lattice__inline_8hpp.html" target="_top" xlink:title="lattice_inline.hpp">
<polygon fill="none" stroke="black" points="562.402,-448.5 562.402,-467.5 663.402,-467.5 663.402,-448.5 562.402,-448.5"/>
<text text-anchor="middle" x="612.902" y="-455.5" font-family="Helvetica,sans-Serif" font-size="10.00">lattice_inline.hpp</text>
</a>
</g>
</g>
<!-- Node32&#45;&gt;Node33 -->
<g id="edge43" class="edge"><title>Node32&#45;&gt;Node33</title>
<path fill="none" stroke="midnightblue" d="M623.755,-504.083C622.033,-496.927 619.555,-486.635 617.402,-477.691"/>
<polygon fill="midnightblue" stroke="midnightblue" points="620.752,-476.654 615.009,-467.751 613.946,-478.293 620.752,-476.654"/>
</g>
<!-- Node40 -->
<g id="node40" class="node"><title>Node40</title>
<g id="a_node40"><a xlink:href="lbgpu_8hpp.html" target="_top" xlink:title="Header file for lbgpu.cpp. ">
<polygon fill="none" stroke="black" points="320.402,-280.5 320.402,-299.5 385.402,-299.5 385.402,-280.5 320.402,-280.5"/>
<text text-anchor="middle" x="352.902" y="-287.5" font-family="Helvetica,sans-Serif" font-size="10.00">lbgpu.hpp</text>
</a>
</g>
</g>
<!-- Node32&#45;&gt;Node40 -->
<g id="edge59" class="edge"><title>Node32&#45;&gt;Node40</title>
<path fill="none" stroke="midnightblue" d="M610.304,-504.428C595.172,-495.874 571.792,-482.019 552.902,-468 480.133,-413.996 401.907,-339.289 368.968,-306.964"/>
<polygon fill="midnightblue" stroke="midnightblue" points="371.178,-304.227 361.6,-299.697 366.262,-309.211 371.178,-304.227"/>
</g>
<!-- Node34 -->
<g id="node34" class="node"><title>Node34</title>
<g id="a_node34"><a xlink:href="lattice_8hpp.html" target="_top" xlink:title="Lattice class definition Contains the lattice layout and pointers to the data fields. ">
<polygon fill="none" stroke="black" points="578.902,-392.5 578.902,-411.5 646.902,-411.5 646.902,-392.5 578.902,-392.5"/>
<text text-anchor="middle" x="612.902" y="-399.5" font-family="Helvetica,sans-Serif" font-size="10.00">lattice.hpp</text>
</a>
</g>
</g>
<!-- Node33&#45;&gt;Node34 -->
<g id="edge44" class="edge"><title>Node33&#45;&gt;Node34</title>
<path fill="none" stroke="midnightblue" d="M612.902,-448.083C612.902,-441.006 612.902,-430.861 612.902,-421.986"/>
<polygon fill="midnightblue" stroke="midnightblue" points="616.402,-421.751 612.902,-411.751 609.402,-421.751 616.402,-421.751"/>
</g>
<!-- Node34&#45;&gt;Node21 -->
<g id="edge58" class="edge"><title>Node34&#45;&gt;Node21</title>
<path fill="none" stroke="midnightblue" d="M606.427,-392.229C599.938,-383.298 589.804,-368.96 581.902,-356 567.203,-331.892 563.486,-325.75 551.902,-300 544.962,-284.573 538.404,-266.481 533.903,-253.307"/>
<polygon fill="midnightblue" stroke="midnightblue" points="537.135,-251.936 530.643,-243.564 530.497,-254.158 537.135,-251.936"/>
</g>
<!-- Node35 -->
<g id="node35" class="node"><title>Node35</title>
<g id="a_node35"><a xlink:href="grid_8hpp.html" target="_top" xlink:title="Domain decomposition for parallel computing. ">
<polygon fill="none" stroke="black" points="590.902,-336.5 590.902,-355.5 646.902,-355.5 646.902,-336.5 590.902,-336.5"/>
<text text-anchor="middle" x="618.902" y="-343.5" font-family="Helvetica,sans-Serif" font-size="10.00">grid.hpp</text>
</a>
</g>
</g>
<!-- Node34&#45;&gt;Node35 -->
<g id="edge45" class="edge"><title>Node34&#45;&gt;Node35</title>
<path fill="none" stroke="midnightblue" d="M613.893,-392.083C614.688,-384.927 615.831,-374.635 616.825,-365.691"/>
<polygon fill="midnightblue" stroke="midnightblue" points="620.304,-366.076 617.93,-355.751 613.347,-365.303 620.304,-366.076"/>
</g>
<!-- Node35&#45;&gt;Node3 -->
<g id="edge46" class="edge"><title>Node35&#45;&gt;Node3</title>
<path fill="none" stroke="midnightblue" d="M608.721,-336.499C595.042,-324 573.669,-299.983 584.902,-280 611.798,-232.151 671.564,-204.326 711.551,-190.4"/>
<polygon fill="midnightblue" stroke="midnightblue" points="712.885,-193.644 721.259,-187.155 710.665,-187.005 712.885,-193.644"/>
</g>
<!-- Node35&#45;&gt;Node14 -->
<g id="edge57" class="edge"><title>Node35&#45;&gt;Node14</title>
<path fill="none" stroke="midnightblue" d="M647.048,-340.078C655.939,-338.63 665.815,-337.133 674.902,-336 719.732,-330.412 1049.4,-333.329 1079.9,-300 1120.54,-255.591 1088.34,-176.298 1070.62,-140.91"/>
<polygon fill="midnightblue" stroke="midnightblue" points="1073.59,-139.047 1065.87,-131.789 1067.38,-142.276 1073.59,-139.047"/>
</g>
<!-- Node36 -->
<g id="node36" class="node"><title>Node36</title>
<polygon fill="none" stroke="#bfbfbf" points="593.902,-280.5 593.902,-299.5 643.902,-299.5 643.902,-280.5 593.902,-280.5"/>
<text text-anchor="middle" x="618.902" y="-287.5" font-family="Helvetica,sans-Serif" font-size="10.00">climits</text>
</g>
<!-- Node35&#45;&gt;Node36 -->
<g id="edge47" class="edge"><title>Node35&#45;&gt;Node36</title>
<path fill="none" stroke="midnightblue" d="M618.902,-336.083C618.902,-329.006 618.902,-318.861 618.902,-309.986"/>
<polygon fill="midnightblue" stroke="midnightblue" points="622.402,-309.751 618.902,-299.751 615.402,-309.751 622.402,-309.751"/>
</g>
<!-- Node37 -->
<g id="node37" class="node"><title>Node37</title>
<g id="a_node37"><a xlink:href="communication_8hpp.html" target="_top" xlink:title="This file contains the asynchronous MPI communication. ">
<polygon fill="none" stroke="black" points="958.402,-280.5 958.402,-299.5 1071.4,-299.5 1071.4,-280.5 958.402,-280.5"/>
<text text-anchor="middle" x="1014.9" y="-287.5" font-family="Helvetica,sans-Serif" font-size="10.00">communication.hpp</text>
</a>
</g>
</g>
<!-- Node35&#45;&gt;Node37 -->
<g id="edge48" class="edge"><title>Node35&#45;&gt;Node37</title>
<path fill="none" stroke="midnightblue" d="M647.08,-340.315C655.973,-338.878 665.841,-337.327 674.902,-336 769.604,-322.126 879.433,-307.932 948.051,-299.291"/>
<polygon fill="midnightblue" stroke="midnightblue" points="948.8,-302.725 958.285,-298.005 947.927,-295.779 948.8,-302.725"/>
</g>
<!-- Node37&#45;&gt;Node21 -->
<g id="edge49" class="edge"><title>Node37&#45;&gt;Node21</title>
<path fill="none" stroke="midnightblue" d="M958.084,-282.7C865.606,-272.446 683.349,-252.236 588.493,-241.719"/>
<polygon fill="midnightblue" stroke="midnightblue" points="588.806,-238.232 578.481,-240.608 588.034,-245.189 588.806,-238.232"/>
</g>
<!-- Node37&#45;&gt;Node22 -->
<g id="edge50" class="edge"><title>Node37&#45;&gt;Node22</title>
<path fill="none" stroke="midnightblue" d="M998.835,-280.324C982.944,-271.743 958.394,-258.486 939.943,-248.522"/>
<polygon fill="midnightblue" stroke="midnightblue" points="941.391,-245.326 930.929,-243.655 938.065,-251.486 941.391,-245.326"/>
</g>
<!-- Node37&#45;&gt;Node27 -->
<g id="edge53" class="edge"><title>Node37&#45;&gt;Node27</title>
<path fill="none" stroke="midnightblue" d="M1068.3,-280.444C1139.06,-269.105 1261.7,-249.453 1319.72,-240.157"/>
<polygon fill="midnightblue" stroke="midnightblue" points="1320.45,-243.585 1329.77,-238.547 1319.34,-236.673 1320.45,-243.585"/>
</g>
<!-- Node38 -->
<g id="node38" class="node"><title>Node38</title>
<g id="a_node38"><a xlink:href="topology_8hpp.html" target="_top" xlink:title="This file contains functions for handling the system topology. ">
<polygon fill="none" stroke="black" points="970.402,-224.5 970.402,-243.5 1049.4,-243.5 1049.4,-224.5 970.402,-224.5"/>
<text text-anchor="middle" x="1009.9" y="-231.5" font-family="Helvetica,sans-Serif" font-size="10.00">topology.hpp</text>
</a>
</g>
</g>
<!-- Node37&#45;&gt;Node38 -->
<g id="edge51" class="edge"><title>Node37&#45;&gt;Node38</title>
<path fill="none" stroke="midnightblue" d="M1014.08,-280.083C1013.42,-273.006 1012.48,-262.861 1011.66,-253.986"/>
<polygon fill="midnightblue" stroke="midnightblue" points="1015.12,-253.386 1010.71,-243.751 1008.15,-254.031 1015.12,-253.386"/>
</g>
<!-- Node39 -->
<g id="node39" class="node"><title>Node39</title>
<g id="a_node39"><a xlink:href="cuda__init_8hpp.html" target="_top" xlink:title="cuda_init.hpp">
<polygon fill="none" stroke="black" points="939.902,-168.5 939.902,-187.5 1021.9,-187.5 1021.9,-168.5 939.902,-168.5"/>
<text text-anchor="middle" x="980.902" y="-175.5" font-family="Helvetica,sans-Serif" font-size="10.00">cuda_init.hpp</text>
</a>
</g>
</g>
<!-- Node37&#45;&gt;Node39 -->
<g id="edge54" class="edge"><title>Node37&#45;&gt;Node39</title>
<path fill="none" stroke="midnightblue" d="M1027.78,-280.392C1044.42,-268.154 1069.89,-244.889 1057.9,-224 1049.29,-208.986 1033.51,-198.504 1018.47,-191.458"/>
<polygon fill="midnightblue" stroke="midnightblue" points="1019.84,-188.238 1009.27,-187.505 1017.08,-194.669 1019.84,-188.238"/>
</g>
<!-- Node38&#45;&gt;Node3 -->
<g id="edge52" class="edge"><title>Node38&#45;&gt;Node3</title>
<path fill="none" stroke="midnightblue" d="M970.283,-224.74C921.466,-214.562 839.024,-197.373 790.305,-187.215"/>
<polygon fill="midnightblue" stroke="midnightblue" points="790.949,-183.774 780.445,-185.16 789.521,-190.627 790.949,-183.774"/>
</g>
<!-- Node39&#45;&gt;Node8 -->
<g id="edge55" class="edge"><title>Node39&#45;&gt;Node8</title>
<path fill="none" stroke="midnightblue" d="M980.92,-168.345C980.447,-154.279 977.337,-126.566 960.902,-112 930.968,-85.4692 817.928,-73.9427 754.59,-69.4779"/>
<polygon fill="midnightblue" stroke="midnightblue" points="754.71,-65.9782 744.497,-68.7966 754.239,-72.9623 754.71,-65.9782"/>
</g>
<!-- Node39&#45;&gt;Node18 -->
<g id="edge56" class="edge"><title>Node39&#45;&gt;Node18</title>
<path fill="none" stroke="midnightblue" d="M972.315,-168.083C964.743,-160.22 953.524,-148.569 944.388,-139.081"/>
<polygon fill="midnightblue" stroke="midnightblue" points="946.786,-136.527 937.329,-131.751 941.744,-141.382 946.786,-136.527"/>
</g>
<!-- Node40&#45;&gt;Node3 -->
<g id="edge60" class="edge"><title>Node40&#45;&gt;Node3</title>
<path fill="none" stroke="midnightblue" d="M366.572,-280.454C392.256,-264.537 447.009,-231.298 467.902,-224 551.293,-194.87 655.146,-184.5 710.961,-180.881"/>
<polygon fill="midnightblue" stroke="midnightblue" points="711.366,-184.363 721.135,-180.262 710.941,-177.376 711.366,-184.363"/>
</g>
<!-- Node40&#45;&gt;Node8 -->
<g id="edge61" class="edge"><title>Node40&#45;&gt;Node8</title>
<path fill="none" stroke="midnightblue" d="M362.303,-280.193C370.879,-271.681 383.335,-258.042 390.902,-244 419.922,-190.148 383.958,-152.39 429.902,-112 464.402,-81.6703 597.046,-71.6591 667.051,-68.4513"/>
<polygon fill="midnightblue" stroke="midnightblue" points="667.475,-71.9364 677.315,-68.0093 667.173,-64.9429 667.475,-71.9364"/>
</g>
<!-- Node41 -->
<g id="node41" class="node"><title>Node41</title>
<g id="a_node41"><a xlink:href="statistics__observable_8hpp.html" target="_top" xlink:title="statistics_observable.hpp">
<polygon fill="none" stroke="black" points="241.402,-224.5 241.402,-243.5 382.402,-243.5 382.402,-224.5 241.402,-224.5"/>
<text text-anchor="middle" x="311.902" y="-231.5" font-family="Helvetica,sans-Serif" font-size="10.00">statistics_observable.hpp</text>
</a>
</g>
</g>
<!-- Node40&#45;&gt;Node41 -->
<g id="edge62" class="edge"><title>Node40&#45;&gt;Node41</title>
<path fill="none" stroke="midnightblue" d="M346.132,-280.083C340.34,-272.455 331.843,-261.264 324.764,-251.941"/>
<polygon fill="midnightblue" stroke="midnightblue" points="327.381,-249.599 318.546,-243.751 321.806,-253.832 327.381,-249.599"/>
</g>
<!-- Node41&#45;&gt;Node3 -->
<g id="edge64" class="edge"><title>Node41&#45;&gt;Node3</title>
<path fill="none" stroke="midnightblue" d="M381.463,-224.444C474.444,-213.006 636.185,-193.111 710.927,-183.917"/>
<polygon fill="midnightblue" stroke="midnightblue" points="711.806,-187.335 721.304,-182.641 710.952,-180.388 711.806,-187.335"/>
</g>
<!-- Node41&#45;&gt;Node4 -->
<g id="edge67" class="edge"><title>Node41&#45;&gt;Node4</title>
<path fill="none" stroke="midnightblue" d="M310.568,-224.368C307.825,-206.617 301.496,-165.666 297.776,-141.597"/>
<polygon fill="midnightblue" stroke="midnightblue" points="301.216,-140.94 296.23,-131.591 294.298,-142.009 301.216,-140.94"/>
</g>
<!-- Node41&#45;&gt;Node5 -->
<g id="edge65" class="edge"><title>Node41&#45;&gt;Node5</title>
<path fill="none" stroke="midnightblue" d="M315.668,-224.368C323.485,-206.456 341.608,-164.923 352.07,-140.948"/>
<polygon fill="midnightblue" stroke="midnightblue" points="355.361,-142.157 356.153,-131.591 348.946,-139.357 355.361,-142.157"/>
</g>
<!-- Node41&#45;&gt;Node6 -->
<g id="edge66" class="edge"><title>Node41&#45;&gt;Node6</title>
<path fill="none" stroke="midnightblue" d="M323.829,-224.368C349.801,-205.573 411.713,-160.768 443.819,-137.533"/>
<polygon fill="midnightblue" stroke="midnightblue" points="445.981,-140.29 452.03,-131.591 441.877,-134.619 445.981,-140.29"/>
</g>
<!-- Node41&#45;&gt;Node8 -->
<g id="edge63" class="edge"><title>Node41&#45;&gt;Node8</title>
<path fill="none" stroke="midnightblue" d="M302.7,-224.307C281.014,-202.805 230.792,-146.384 261.902,-112 288.766,-82.3086 559.079,-71.341 666.871,-68.1276"/>
<polygon fill="midnightblue" stroke="midnightblue" points="667.189,-71.6199 677.083,-67.832 666.986,-64.6229 667.189,-71.6199"/>
</g>
<!-- Node42&#45;&gt;Node21 -->
<g id="edge70" class="edge"><title>Node42&#45;&gt;Node21</title>
<path fill="none" stroke="midnightblue" d="M275.319,-336.453C306.896,-328.41 354.138,-315.33 393.902,-300 404.652,-295.855 465.393,-265.972 501.299,-248.2"/>
<polygon fill="midnightblue" stroke="midnightblue" points="503.299,-251.116 510.706,-243.541 500.192,-244.843 503.299,-251.116"/>
</g>
<!-- Node43 -->
<g id="node43" class="node"><title>Node43</title>
<g id="a_node43"><a xlink:href="virtual__sites__com_8hpp.html" target="_top" xlink:title="virtual_sites_com.hpp">
<polygon fill="none" stroke="black" points="177.902,-280.5 177.902,-299.5 301.902,-299.5 301.902,-280.5 177.902,-280.5"/>
<text text-anchor="middle" x="239.902" y="-287.5" font-family="Helvetica,sans-Serif" font-size="10.00">virtual_sites_com.hpp</text>
</a>
</g>
</g>
<!-- Node42&#45;&gt;Node43 -->
<g id="edge71" class="edge"><title>Node42&#45;&gt;Node43</title>
<path fill="none" stroke="midnightblue" d="M239.902,-336.083C239.902,-329.006 239.902,-318.861 239.902,-309.986"/>
<polygon fill="midnightblue" stroke="midnightblue" points="243.402,-309.751 239.902,-299.751 236.402,-309.751 243.402,-309.751"/>
</g>
<!-- Node44 -->
<g id="node44" class="node"><title>Node44</title>
<g id="a_node44"><a xlink:href="virtual__sites__relative_8hpp.html" target="_top" xlink:title="virtual_sites_relative.hpp">
<polygon fill="none" stroke="black" points="19.9019,-280.5 19.9019,-299.5 159.902,-299.5 159.902,-280.5 19.9019,-280.5"/>
<text text-anchor="middle" x="89.9019" y="-287.5" font-family="Helvetica,sans-Serif" font-size="10.00">virtual_sites_relative.hpp</text>
</a>
</g>
</g>
<!-- Node42&#45;&gt;Node44 -->
<g id="edge74" class="edge"><title>Node42&#45;&gt;Node44</title>
<path fill="none" stroke="midnightblue" d="M216.134,-336.444C191.009,-327.399 151.191,-313.064 123.001,-302.916"/>
<polygon fill="midnightblue" stroke="midnightblue" points="124.153,-299.611 113.559,-299.516 121.782,-306.197 124.153,-299.611"/>
</g>
<!-- Node43&#45;&gt;Node8 -->
<g id="edge72" class="edge"><title>Node43&#45;&gt;Node8</title>
<path fill="none" stroke="midnightblue" d="M236.826,-280.336C227.175,-251.422 200.889,-157.508 248.902,-112 278.932,-83.5358 558.122,-71.7802 667.369,-68.244"/>
<polygon fill="midnightblue" stroke="midnightblue" points="667.512,-71.7413 677.397,-67.9271 667.291,-64.7448 667.512,-71.7413"/>
</g>
<!-- Node43&#45;&gt;Node21 -->
<g id="edge73" class="edge"><title>Node43&#45;&gt;Node21</title>
<path fill="none" stroke="midnightblue" d="M285.536,-280.444C336.199,-270.944 417.977,-255.611 472.329,-245.42"/>
<polygon fill="midnightblue" stroke="midnightblue" points="473.297,-248.799 482.481,-243.516 472.007,-241.919 473.297,-248.799"/>
</g>
<!-- Node44&#45;&gt;Node8 -->
<g id="edge75" class="edge"><title>Node44&#45;&gt;Node8</title>
<path fill="none" stroke="midnightblue" d="M93.6863,-280.343C107.196,-250.625 156.259,-152.372 230.902,-112 305.548,-71.6268 563.122,-66.9791 666.979,-66.7914"/>
<polygon fill="midnightblue" stroke="midnightblue" points="667.124,-70.2914 677.122,-66.7866 667.12,-63.2914 667.124,-70.2914"/>
</g>
<!-- Node44&#45;&gt;Node21 -->
<g id="edge76" class="edge"><title>Node44&#45;&gt;Node21</title>
<path fill="none" stroke="midnightblue" d="M159.304,-280.444C244.201,-269.977 386.55,-252.427 467.251,-242.477"/>
<polygon fill="midnightblue" stroke="midnightblue" points="467.762,-245.941 477.258,-241.244 466.905,-238.994 467.762,-245.941"/>
</g>
<!-- Node45&#45;&gt;Node3 -->
<g id="edge78" class="edge"><title>Node45&#45;&gt;Node3</title>
<path fill="none" stroke="midnightblue" d="M835.683,-280.368C820.366,-262.055 784.397,-219.049 764.587,-195.362"/>
<polygon fill="midnightblue" stroke="midnightblue" points="767.188,-193.017 758.087,-187.591 761.818,-197.508 767.188,-193.017"/>
</g>
<!-- Node45&#45;&gt;Node21 -->
<g id="edge79" class="edge"><title>Node45&#45;&gt;Node21</title>
<path fill="none" stroke="midnightblue" d="M792.989,-280.444C737.232,-270.885 647.016,-255.419 587.575,-245.23"/>
<polygon fill="midnightblue" stroke="midnightblue" points="588.029,-241.756 577.581,-243.516 586.846,-248.656 588.029,-241.756"/>
</g>
</g>
</svg>
