<?xml version="1.0" encoding="UTF-8" standalone="no"?>
<!DOCTYPE svg PUBLIC "-//W3C//DTD SVG 1.1//EN"
 "http://www.w3.org/Graphics/SVG/1.1/DTD/svg11.dtd">
<!-- Generated by graphviz version 2.38.0 (20140413.2041)
 -->
<!-- Title: elc.hpp Pages: 1 -->
<svg width="2284pt" height="207pt"
 viewBox="0.00 0.00 2284.00 207.00" xmlns="http://www.w3.org/2000/svg" xmlns:xlink="http://www.w3.org/1999/xlink">
<g id="graph0" class="graph" transform="scale(1 1) rotate(0) translate(4 203)">
<title>elc.hpp</title>
<!-- Node1 -->
<g id="node1" class="node"><title>Node1</title>
<polygon fill="#bfbfbf" stroke="black" points="1756,-179.5 1756,-198.5 1808,-198.5 1808,-179.5 1756,-179.5"/>
<text text-anchor="middle" x="1782" y="-186.5" font-family="Helvetica,sans-Serif" font-size="10.00">elc.hpp</text>
</g>
<!-- Node2 -->
<g id="node2" class="node"><title>Node2</title>
<g id="a_node2"><a xlink:href="forces__inline_8hpp.html" target="_top" xlink:title="forces_inline.hpp">
<polygon fill="none" stroke="black" points="943,-123.5 943,-142.5 1043,-142.5 1043,-123.5 943,-123.5"/>
<text text-anchor="middle" x="993" y="-130.5" font-family="Helvetica,sans-Serif" font-size="10.00">forces_inline.hpp</text>
</a>
</g>
</g>
<!-- Node1&#45;&gt;Node2 -->
<g id="edge1" class="edge"><title>Node1&#45;&gt;Node2</title>
<path fill="none" stroke="midnightblue" d="M1745.72,-185.517C1618.15,-176.786 1190.09,-147.489 1043.07,-137.427"/>
<polygon fill="midnightblue" stroke="midnightblue" points="1745.53,-189.012 1755.75,-186.203 1746.01,-182.029 1745.53,-189.012"/>
</g>
<!-- Node4 -->
<g id="node4" class="node"><title>Node4</title>
<g id="a_node4"><a xlink:href="communication_8cpp.html" target="_top" xlink:title="communication.cpp">
<polygon fill="none" stroke="black" points="2028.5,-6 2028.5,-25 2141.5,-25 2141.5,-6 2028.5,-6"/>
<text text-anchor="middle" x="2085" y="-13" font-family="Helvetica,sans-Serif" font-size="10.00">communication.cpp</text>
</a>
</g>
</g>
<!-- Node1&#45;&gt;Node4 -->
<g id="edge28" class="edge"><title>Node1&#45;&gt;Node4</title>
<path fill="none" stroke="midnightblue" d="M1776.32,-169.528C1769.51,-143.243 1761.88,-95.1263 1787,-67 1821.76,-28.0902 1967.72,-40.6022 2019,-31 2028.46,-29.2295 2038.63,-27.1055 2048.08,-25.0361"/>
<polygon fill="midnightblue" stroke="midnightblue" points="1773.01,-170.664 1779.1,-179.334 1779.74,-168.759 1773.01,-170.664"/>
</g>
<!-- Node6 -->
<g id="node6" class="node"><title>Node6</title>
<g id="a_node6"><a xlink:href="elc_8cpp.html" target="_top" xlink:title="For more information about ELC, see elc.hpp. ">
<polygon fill="none" stroke="black" points="1467.5,-6 1467.5,-25 1518.5,-25 1518.5,-6 1467.5,-6"/>
<text text-anchor="middle" x="1493" y="-13" font-family="Helvetica,sans-Serif" font-size="10.00">elc.cpp</text>
</a>
</g>
</g>
<!-- Node1&#45;&gt;Node6 -->
<g id="edge36" class="edge"><title>Node1&#45;&gt;Node6</title>
<path fill="none" stroke="midnightblue" d="M1746.2,-180.604C1716.93,-173.614 1675.13,-161.423 1642,-143 1580.91,-109.03 1521.65,-47.8191 1500.84,-25.2043"/>
<polygon fill="midnightblue" stroke="midnightblue" points="1745.46,-184.026 1755.99,-182.862 1747.03,-177.205 1745.46,-184.026"/>
</g>
<!-- Node7 -->
<g id="node7" class="node"><title>Node7</title>
<g id="a_node7"><a xlink:href="initialize_8cpp.html" target="_top" xlink:title="Implementation of initialize.hpp. ">
<polygon fill="none" stroke="black" points="1536.5,-6 1536.5,-25 1615.5,-25 1615.5,-6 1536.5,-6"/>
<text text-anchor="middle" x="1576" y="-13" font-family="Helvetica,sans-Serif" font-size="10.00">initialize.cpp</text>
</a>
</g>
</g>
<!-- Node1&#45;&gt;Node7 -->
<g id="edge38" class="edge"><title>Node1&#45;&gt;Node7</title>
<path fill="none" stroke="midnightblue" d="M1746.44,-176.055C1706.73,-161.048 1642.93,-131.714 1604,-87 1587.92,-68.5257 1580.42,-39.6804 1577.53,-25.2869"/>
<polygon fill="midnightblue" stroke="midnightblue" points="1745.4,-179.399 1755.99,-179.562 1747.81,-172.828 1745.4,-179.399"/>
</g>
<!-- Node10 -->
<g id="node10" class="node"><title>Node10</title>
<g id="a_node10"><a xlink:href="interaction__data_8cpp.html" target="_top" xlink:title="Implementation of interaction_data.hpp. ">
<polygon fill="none" stroke="black" points="2160,-6 2160,-25 2276,-25 2276,-6 2160,-6"/>
<text text-anchor="middle" x="2218" y="-13" font-family="Helvetica,sans-Serif" font-size="10.00">interaction_data.cpp</text>
</a>
</g>
</g>
<!-- Node1&#45;&gt;Node10 -->
<g id="edge39" class="edge"><title>Node1&#45;&gt;Node10</title>
<path fill="none" stroke="midnightblue" d="M1788.17,-169.816C1794.09,-155.075 1804.44,-134.865 1820,-123 1849.08,-100.822 2085.67,-46.1164 2179.69,-25.0034"/>
<polygon fill="midnightblue" stroke="midnightblue" points="1784.82,-168.792 1784.63,-179.385 1791.38,-171.219 1784.82,-168.792"/>
</g>
<!-- Node26 -->
<g id="node26" class="node"><title>Node26</title>
<g id="a_node26"><a xlink:href="energy__inline_8hpp.html" target="_top" xlink:title="Implementation of the energy calculation. ">
<polygon fill="none" stroke="black" points="298,-67.5 298,-86.5 402,-86.5 402,-67.5 298,-67.5"/>
<text text-anchor="middle" x="350" y="-74.5" font-family="Helvetica,sans-Serif" font-size="10.00">energy_inline.hpp</text>
</a>
</g>
</g>
<!-- Node1&#45;&gt;Node26 -->
<g id="edge29" class="edge"><title>Node1&#45;&gt;Node26</title>
<path fill="none" stroke="midnightblue" d="M1745.72,-186.826C1628.26,-182.863 1247.83,-168.77 934,-143 737.263,-126.845 504.284,-97.9758 402.251,-84.8424"/>
<polygon fill="midnightblue" stroke="midnightblue" points="1745.83,-190.331 1755.94,-187.167 1746.06,-183.335 1745.83,-190.331"/>
</g>
<!-- Node28 -->
<g id="node28" class="node"><title>Node28</title>
<g id="a_node28"><a xlink:href="iccp3m_8cpp.html" target="_top" xlink:title="Detailed Information about the method is included in the corresponding header file iccp3m...">
<polygon fill="none" stroke="black" points="1829,-123.5 1829,-142.5 1901,-142.5 1901,-123.5 1829,-123.5"/>
<text text-anchor="middle" x="1865" y="-130.5" font-family="Helvetica,sans-Serif" font-size="10.00">iccp3m.cpp</text>
</a>
</g>
</g>
<!-- Node1&#45;&gt;Node28 -->
<g id="edge37" class="edge"><title>Node1&#45;&gt;Node28</title>
<path fill="none" stroke="midnightblue" d="M1804.1,-173.622C1819.26,-163.757 1838.88,-150.992 1851.7,-142.655"/>
<polygon fill="midnightblue" stroke="midnightblue" points="1801.81,-170.937 1795.34,-179.324 1805.63,-176.804 1801.81,-170.937"/>
</g>
<!-- Node29 -->
<g id="node29" class="node"><title>Node29</title>
<g id="a_node29"><a xlink:href="p3m_8cpp.html" target="_top" xlink:title="p3m.cpp">
<polygon fill="none" stroke="black" points="1919.5,-123.5 1919.5,-142.5 1978.5,-142.5 1978.5,-123.5 1919.5,-123.5"/>
<text text-anchor="middle" x="1949" y="-130.5" font-family="Helvetica,sans-Serif" font-size="10.00">p3m.cpp</text>
</a>
</g>
</g>
<!-- Node1&#45;&gt;Node29 -->
<g id="edge40" class="edge"><title>Node1&#45;&gt;Node29</title>
<path fill="none" stroke="midnightblue" d="M1817.79,-176.429C1849.23,-166.263 1894.25,-151.704 1922.54,-142.556"/>
<polygon fill="midnightblue" stroke="midnightblue" points="1816.53,-173.156 1808.09,-179.562 1818.69,-179.816 1816.53,-173.156"/>
</g>
<!-- Node30 -->
<g id="node30" class="node"><title>Node30</title>
<g id="a_node30"><a xlink:href="elc__tcl_8cpp.html" target="_top" xlink:title="Implementation of elc_tcl.hpp. ">
<polygon fill="none" stroke="black" points="1997,-123.5 1997,-142.5 2065,-142.5 2065,-123.5 1997,-123.5"/>
<text text-anchor="middle" x="2031" y="-130.5" font-family="Helvetica,sans-Serif" font-size="10.00">elc_tcl.cpp</text>
</a>
</g>
</g>
<!-- Node1&#45;&gt;Node30 -->
<g id="edge41" class="edge"><title>Node1&#45;&gt;Node30</title>
<path fill="none" stroke="midnightblue" d="M1818.11,-180.168C1866.03,-169.778 1950,-151.566 1996.89,-141.398"/>
<polygon fill="midnightblue" stroke="midnightblue" points="1817.21,-176.783 1808.18,-182.323 1818.69,-183.624 1817.21,-176.783"/>
</g>
<!-- Node31 -->
<g id="node31" class="node"><title>Node31</title>
<g id="a_node31"><a xlink:href="interaction__data__tcl_8cpp.html" target="_top" xlink:title="interaction_data_tcl.cpp">
<polygon fill="none" stroke="black" points="2083,-123.5 2083,-142.5 2217,-142.5 2217,-123.5 2083,-123.5"/>
<text text-anchor="middle" x="2150" y="-130.5" font-family="Helvetica,sans-Serif" font-size="10.00">interaction_data_tcl.cpp</text>
</a>
</g>
</g>
<!-- Node1&#45;&gt;Node31 -->
<g id="edge42" class="edge"><title>Node1&#45;&gt;Node31</title>
<path fill="none" stroke="midnightblue" d="M1818.16,-182.694C1881.94,-173.335 2014.93,-153.819 2091.78,-142.543"/>
<polygon fill="midnightblue" stroke="midnightblue" points="1817.56,-179.245 1808.17,-184.16 1818.57,-186.171 1817.56,-179.245"/>
</g>
<!-- Node3 -->
<g id="node3" class="node"><title>Node3</title>
<g id="a_node3"><a xlink:href="pressure_8hpp.html" target="_top" xlink:title="Pressure calculation. ">
<polygon fill="none" stroke="black" points="1046,-67.5 1046,-86.5 1126,-86.5 1126,-67.5 1046,-67.5"/>
<text text-anchor="middle" x="1086" y="-74.5" font-family="Helvetica,sans-Serif" font-size="10.00">pressure.hpp</text>
</a>
</g>
</g>
<!-- Node2&#45;&gt;Node3 -->
<g id="edge2" class="edge"><title>Node2&#45;&gt;Node3</title>
<path fill="none" stroke="midnightblue" d="M1016.81,-118.177C1033.92,-108.241 1056.47,-95.1492 1071.1,-86.6545"/>
<polygon fill="midnightblue" stroke="midnightblue" points="1014.83,-115.276 1007.94,-123.324 1018.35,-121.329 1014.83,-115.276"/>
</g>
<!-- Node11 -->
<g id="node11" class="node"><title>Node11</title>
<g id="a_node11"><a xlink:href="layered_8cpp.html" target="_top" xlink:title="Implementation of layered.h. ">
<polygon fill="none" stroke="black" points="538,-6 538,-25 612,-25 612,-6 538,-6"/>
<text text-anchor="middle" x="575" y="-13" font-family="Helvetica,sans-Serif" font-size="10.00">layered.cpp</text>
</a>
</g>
</g>
<!-- Node2&#45;&gt;Node11 -->
<g id="edge27" class="edge"><title>Node2&#45;&gt;Node11</title>
<path fill="none" stroke="midnightblue" d="M950.071,-120.945C880.661,-102.935 739.589,-65.7742 621,-31 614.733,-29.1622 608.014,-27.0982 601.701,-25.1165"/>
<polygon fill="midnightblue" stroke="midnightblue" points="949.222,-124.34 959.78,-123.46 950.978,-117.564 949.222,-124.34"/>
</g>
<!-- Node20 -->
<g id="node20" class="node"><title>Node20</title>
<g id="a_node20"><a xlink:href="minimize__energy_8hpp.html" target="_top" xlink:title="minimize_energy.hpp">
<polygon fill="none" stroke="black" points="1613.5,-67.5 1613.5,-86.5 1734.5,-86.5 1734.5,-67.5 1613.5,-67.5"/>
<text text-anchor="middle" x="1674" y="-74.5" font-family="Helvetica,sans-Serif" font-size="10.00">minimize_energy.hpp</text>
</a>
</g>
</g>
<!-- Node2&#45;&gt;Node20 -->
<g id="edge19" class="edge"><title>Node2&#45;&gt;Node20</title>
<path fill="none" stroke="midnightblue" d="M1053.16,-127.229C1182.1,-117.005 1483.84,-93.0786 1613.28,-82.8149"/>
<polygon fill="midnightblue" stroke="midnightblue" points="1052.77,-123.75 1043.08,-128.029 1053.32,-130.728 1052.77,-123.75"/>
</g>
<!-- Node23 -->
<g id="node23" class="node"><title>Node23</title>
<g id="a_node23"><a xlink:href="constraint_8cpp.html" target="_top" xlink:title="Implementation of constraint.hpp, here it&#39;s just the parsing stuff. ">
<polygon fill="none" stroke="black" points="0,-6 0,-25 86,-25 86,-6 0,-6"/>
<text text-anchor="middle" x="43" y="-13" font-family="Helvetica,sans-Serif" font-size="10.00">constraint.cpp</text>
</a>
</g>
</g>
<!-- Node2&#45;&gt;Node23 -->
<g id="edge24" class="edge"><title>Node2&#45;&gt;Node23</title>
<path fill="none" stroke="midnightblue" d="M932.338,-132.494C809.804,-132.533 524.396,-127.763 289,-87 205.388,-72.5209 109.603,-40.4031 66.3531,-25.0267"/>
<polygon fill="midnightblue" stroke="midnightblue" points="932.637,-135.993 942.632,-132.479 932.627,-128.993 932.637,-135.993"/>
</g>
<!-- Node24 -->
<g id="node24" class="node"><title>Node24</title>
<g id="a_node24"><a xlink:href="forces_8cpp.html" target="_top" xlink:title="Force calculation. ">
<polygon fill="none" stroke="black" points="873.5,-67.5 873.5,-86.5 940.5,-86.5 940.5,-67.5 873.5,-67.5"/>
<text text-anchor="middle" x="907" y="-74.5" font-family="Helvetica,sans-Serif" font-size="10.00">forces.cpp</text>
</a>
</g>
</g>
<!-- Node2&#45;&gt;Node24 -->
<g id="edge25" class="edge"><title>Node2&#45;&gt;Node24</title>
<path fill="none" stroke="midnightblue" d="M970.545,-117.901C954.776,-107.999 934.186,-95.0705 920.783,-86.6545"/>
<polygon fill="midnightblue" stroke="midnightblue" points="968.852,-120.97 979.183,-123.324 972.575,-115.042 968.852,-120.97"/>
</g>
<!-- Node25 -->
<g id="node25" class="node"><title>Node25</title>
<g id="a_node25"><a xlink:href="ghosts_8cpp.html" target="_top" xlink:title="Ghost particles and particle exchange. ">
<polygon fill="none" stroke="black" points="958.5,-67.5 958.5,-86.5 1027.5,-86.5 1027.5,-67.5 958.5,-67.5"/>
<text text-anchor="middle" x="993" y="-74.5" font-family="Helvetica,sans-Serif" font-size="10.00">ghosts.cpp</text>
</a>
</g>
</g>
<!-- Node2&#45;&gt;Node25 -->
<g id="edge26" class="edge"><title>Node2&#45;&gt;Node25</title>
<path fill="none" stroke="midnightblue" d="M993,-112.805C993,-103.91 993,-93.7798 993,-86.7511"/>
<polygon fill="midnightblue" stroke="midnightblue" points="989.5,-113.083 993,-123.083 996.5,-113.083 989.5,-113.083"/>
</g>
<!-- Node3&#45;&gt;Node4 -->
<g id="edge3" class="edge"><title>Node3&#45;&gt;Node4</title>
<path fill="none" stroke="midnightblue" d="M1136.25,-76.534C1276.56,-77.3891 1684.17,-75.5331 2019,-31 2029.58,-29.5925 2040.98,-27.3534 2051.28,-25.0519"/>
<polygon fill="midnightblue" stroke="midnightblue" points="1136.25,-73.034 1126.23,-76.4653 1136.2,-80.0338 1136.25,-73.034"/>
</g>
<!-- Node5 -->
<g id="node5" class="node"><title>Node5</title>
<g id="a_node5"><a xlink:href="domain__decomposition_8cpp.html" target="_top" xlink:title="This file contains everything related to the cell system: domain decomposition. ">
<polygon fill="none" stroke="black" points="274.5,-6 274.5,-25 425.5,-25 425.5,-6 274.5,-6"/>
<text text-anchor="middle" x="350" y="-13" font-family="Helvetica,sans-Serif" font-size="10.00">domain_decomposition.cpp</text>
</a>
</g>
</g>
<!-- Node3&#45;&gt;Node5 -->
<g id="edge4" class="edge"><title>Node3&#45;&gt;Node5</title>
<path fill="none" stroke="midnightblue" d="M1036.3,-67.0365C1036.2,-67.0243 1036.1,-67.0121 1036,-67 770.301,-35.2423 700.841,-61.5443 435,-31 421.764,-29.4792 407.457,-27.2633 394.425,-25.0194"/>
<polygon fill="midnightblue" stroke="midnightblue" points="1035.56,-70.4675 1045.95,-68.36 1036.51,-63.5325 1035.56,-70.4675"/>
</g>
<!-- Node3&#45;&gt;Node6 -->
<g id="edge5" class="edge"><title>Node3&#45;&gt;Node6</title>
<path fill="none" stroke="midnightblue" d="M1136.21,-74.2529C1208.45,-70.7713 1345.4,-60.5419 1458,-31 1463.6,-29.5312 1469.48,-27.3588 1474.8,-25.1402"/>
<polygon fill="midnightblue" stroke="midnightblue" points="1135.86,-70.7651 1126.03,-74.7191 1136.18,-77.7578 1135.86,-70.7651"/>
</g>
<!-- Node3&#45;&gt;Node7 -->
<g id="edge6" class="edge"><title>Node3&#45;&gt;Node7</title>
<path fill="none" stroke="midnightblue" d="M1136.28,-73.9138C1218.63,-69.8189 1387.07,-58.5938 1527,-31 1534.75,-29.4724 1543.03,-27.2544 1550.54,-25.0107"/>
<polygon fill="midnightblue" stroke="midnightblue" points="1136.02,-70.4223 1126.2,-74.4008 1136.36,-77.4142 1136.02,-70.4223"/>
</g>
<!-- Node8 -->
<g id="node8" class="node"><title>Node8</title>
<g id="a_node8"><a xlink:href="core_2integrate_8cpp.html" target="_top" xlink:title="integrate.cpp">
<polygon fill="none" stroke="black" points="1633.5,-6 1633.5,-25 1714.5,-25 1714.5,-6 1633.5,-6"/>
<text text-anchor="middle" x="1674" y="-13" font-family="Helvetica,sans-Serif" font-size="10.00">integrate.cpp</text>
</a>
</g>
</g>
<!-- Node3&#45;&gt;Node8 -->
<g id="edge7" class="edge"><title>Node3&#45;&gt;Node8</title>
<path fill="none" stroke="midnightblue" d="M1136.45,-75.1154C1232.24,-72.7012 1446.77,-63.7728 1624,-31 1632,-29.5209 1640.55,-27.2896 1648.28,-25.0179"/>
<polygon fill="midnightblue" stroke="midnightblue" points="1136.09,-71.6226 1126.18,-75.3603 1136.26,-78.6207 1136.09,-71.6226"/>
</g>
<!-- Node9 -->
<g id="node9" class="node"><title>Node9</title>
<g id="a_node9"><a xlink:href="integrate__sd_8cpp.html" target="_top" xlink:title="Stokesian dynamics integrator. ">
<polygon fill="none" stroke="black" points="882,-6 882,-25 980,-25 980,-6 882,-6"/>
<text text-anchor="middle" x="931" y="-13" font-family="Helvetica,sans-Serif" font-size="10.00">integrate_sd.cpp</text>
</a>
</g>
</g>
<!-- Node3&#45;&gt;Node9 -->
<g id="edge8" class="edge"><title>Node3&#45;&gt;Node9</title>
<path fill="none" stroke="midnightblue" d="M1054.17,-63.7824C1024.05,-52.2199 979.621,-35.1641 953.167,-25.0091"/>
<polygon fill="midnightblue" stroke="midnightblue" points="1053.2,-67.1588 1063.79,-67.4751 1055.71,-60.6238 1053.2,-67.1588"/>
</g>
<!-- Node3&#45;&gt;Node10 -->
<g id="edge9" class="edge"><title>Node3&#45;&gt;Node10</title>
<path fill="none" stroke="midnightblue" d="M1136.42,-74.9907C1319.69,-71.1469 1950.17,-56.3488 2150,-31 2161.02,-29.6025 2172.9,-27.3367 2183.6,-25.0073"/>
<polygon fill="midnightblue" stroke="midnightblue" points="1136.18,-71.4947 1126.26,-75.2021 1136.33,-78.4932 1136.18,-71.4947"/>
</g>
<!-- Node3&#45;&gt;Node11 -->
<g id="edge10" class="edge"><title>Node3&#45;&gt;Node11</title>
<path fill="none" stroke="midnightblue" d="M1036.3,-67.0405C1036.2,-67.027 1036.1,-67.0135 1036,-67 852.481,-42.5756 802.594,-67.0449 621,-31 613.608,-29.5328 605.728,-27.305 598.617,-25.0329"/>
<polygon fill="midnightblue" stroke="midnightblue" points="1035.53,-70.4646 1045.93,-68.4549 1036.55,-63.5389 1035.53,-70.4646"/>
</g>
<!-- Node12 -->
<g id="node12" class="node"><title>Node12</title>
<g id="a_node12"><a xlink:href="nsquare_8cpp.html" target="_top" xlink:title="Implementation of nsquare.h. ">
<polygon fill="none" stroke="black" points="444,-6 444,-25 520,-25 520,-6 444,-6"/>
<text text-anchor="middle" x="482" y="-13" font-family="Helvetica,sans-Serif" font-size="10.00">nsquare.cpp</text>
</a>
</g>
</g>
<!-- Node3&#45;&gt;Node12 -->
<g id="edge11" class="edge"><title>Node3&#45;&gt;Node12</title>
<path fill="none" stroke="midnightblue" d="M1036.3,-67.0382C1036.2,-67.0254 1036.1,-67.0127 1036,-67 811.848,-38.9502 751.043,-72.5684 529,-31 521.446,-29.5858 513.394,-27.3738 506.129,-25.0998"/>
<polygon fill="midnightblue" stroke="midnightblue" points="1035.55,-70.4663 1045.94,-68.3993 1036.53,-63.5351 1035.55,-70.4663"/>
</g>
<!-- Node13 -->
<g id="node13" class="node"><title>Node13</title>
<g id="a_node13"><a xlink:href="pressure_8cpp.html" target="_top" xlink:title="Implementation of pressure.h. ">
<polygon fill="none" stroke="black" points="997.5,-6 997.5,-25 1076.5,-25 1076.5,-6 997.5,-6"/>
<text text-anchor="middle" x="1037" y="-13" font-family="Helvetica,sans-Serif" font-size="10.00">pressure.cpp</text>
</a>
</g>
</g>
<!-- Node3&#45;&gt;Node13 -->
<g id="edge12" class="edge"><title>Node3&#45;&gt;Node13</title>
<path fill="none" stroke="midnightblue" d="M1072.55,-59.6685C1063.31,-48.452 1051.43,-34.0161 1044.01,-25.0091"/>
<polygon fill="midnightblue" stroke="midnightblue" points="1069.92,-61.9808 1078.98,-67.4751 1075.32,-57.5308 1069.92,-61.9808"/>
</g>
<!-- Node14 -->
<g id="node14" class="node"><title>Node14</title>
<g id="a_node14"><a xlink:href="statistics_8cpp.html" target="_top" xlink:title="This is the place for analysis (so far...). ">
<polygon fill="none" stroke="black" points="1094.5,-6 1094.5,-25 1175.5,-25 1175.5,-6 1094.5,-6"/>
<text text-anchor="middle" x="1135" y="-13" font-family="Helvetica,sans-Serif" font-size="10.00">statistics.cpp</text>
</a>
</g>
</g>
<!-- Node3&#45;&gt;Node14 -->
<g id="edge13" class="edge"><title>Node3&#45;&gt;Node14</title>
<path fill="none" stroke="midnightblue" d="M1099.45,-59.6685C1108.69,-48.452 1120.57,-34.0161 1127.99,-25.0091"/>
<polygon fill="midnightblue" stroke="midnightblue" points="1096.68,-57.5308 1093.02,-67.4751 1102.08,-61.9808 1096.68,-57.5308"/>
</g>
<!-- Node15 -->
<g id="node15" class="node"><title>Node15</title>
<g id="a_node15"><a xlink:href="statistics__observable_8cpp.html" target="_top" xlink:title="statistics_observable.cpp">
<polygon fill="none" stroke="black" points="1194,-6 1194,-25 1334,-25 1334,-6 1194,-6"/>
<text text-anchor="middle" x="1264" y="-13" font-family="Helvetica,sans-Serif" font-size="10.00">statistics_observable.cpp</text>
</a>
</g>
</g>
<!-- Node3&#45;&gt;Node15 -->
<g id="edge14" class="edge"><title>Node3&#45;&gt;Node15</title>
<path fill="none" stroke="midnightblue" d="M1121.21,-64.232C1155.81,-52.666 1207.77,-35.2966 1238.54,-25.0091"/>
<polygon fill="midnightblue" stroke="midnightblue" points="1119.88,-60.9853 1111.5,-67.4751 1122.1,-67.6242 1119.88,-60.9853"/>
</g>
<!-- Node16 -->
<g id="node16" class="node"><title>Node16</title>
<g id="a_node16"><a xlink:href="verlet_8cpp.html" target="_top" xlink:title="Verlet list. ">
<polygon fill="none" stroke="black" points="191.5,-6 191.5,-25 256.5,-25 256.5,-6 191.5,-6"/>
<text text-anchor="middle" x="224" y="-13" font-family="Helvetica,sans-Serif" font-size="10.00">verlet.cpp</text>
</a>
</g>
</g>
<!-- Node3&#45;&gt;Node16 -->
<g id="edge15" class="edge"><title>Node3&#45;&gt;Node16</title>
<path fill="none" stroke="midnightblue" d="M1036.3,-67.0345C1036.2,-67.023 1036.1,-67.0114 1036,-67 695.124,-28.5317 601.651,-96.8956 265,-31 258.183,-29.6657 250.971,-27.4178 244.528,-25.0852"/>
<polygon fill="midnightblue" stroke="midnightblue" points="1035.58,-70.4688 1045.95,-68.3131 1036.5,-63.5295 1035.58,-70.4688"/>
</g>
<!-- Node17 -->
<g id="node17" class="node"><title>Node17</title>
<g id="a_node17"><a xlink:href="virtual__sites_8cpp.html" target="_top" xlink:title="virtual_sites.cpp">
<polygon fill="none" stroke="black" points="1352.5,-6 1352.5,-25 1449.5,-25 1449.5,-6 1352.5,-6"/>
<text text-anchor="middle" x="1401" y="-13" font-family="Helvetica,sans-Serif" font-size="10.00">virtual_sites.cpp</text>
</a>
</g>
</g>
<!-- Node3&#45;&gt;Node17 -->
<g id="edge16" class="edge"><title>Node3&#45;&gt;Node17</title>
<path fill="none" stroke="midnightblue" d="M1136.19,-68.3026C1188.15,-60.0803 1271.55,-46.1661 1343,-31 1351.33,-29.2328 1360.27,-27.11 1368.58,-25.0407"/>
<polygon fill="midnightblue" stroke="midnightblue" points="1135.57,-64.8576 1126.24,-69.8698 1136.66,-71.7725 1135.57,-64.8576"/>
</g>
<!-- Node18 -->
<g id="node18" class="node"><title>Node18</title>
<g id="a_node18"><a xlink:href="pressure__tcl_8cpp.html" target="_top" xlink:title="pressure_tcl.cpp">
<polygon fill="none" stroke="black" points="630,-6 630,-25 726,-25 726,-6 630,-6"/>
<text text-anchor="middle" x="678" y="-13" font-family="Helvetica,sans-Serif" font-size="10.00">pressure_tcl.cpp</text>
</a>
</g>
</g>
<!-- Node3&#45;&gt;Node18 -->
<g id="edge17" class="edge"><title>Node3&#45;&gt;Node18</title>
<path fill="none" stroke="midnightblue" d="M1036.3,-67.0454C1036.2,-67.0302 1036.1,-67.0151 1036,-67 902.753,-47.0573 867.455,-55.66 735,-31 726.367,-29.3927 717.101,-27.2289 708.603,-25.064"/>
<polygon fill="midnightblue" stroke="midnightblue" points="1035.49,-70.4606 1045.92,-68.5702 1036.59,-63.547 1035.49,-70.4606"/>
</g>
<!-- Node19 -->
<g id="node19" class="node"><title>Node19</title>
<g id="a_node19"><a xlink:href="statistics__observable__tcl_8cpp.html" target="_top" xlink:title="statistics_observable\l_tcl.cpp">
<polygon fill="none" stroke="black" points="744,-0.5 744,-30.5 864,-30.5 864,-0.5 744,-0.5"/>
<text text-anchor="start" x="752" y="-18.5" font-family="Helvetica,sans-Serif" font-size="10.00">statistics_observable</text>
<text text-anchor="middle" x="804" y="-7.5" font-family="Helvetica,sans-Serif" font-size="10.00">_tcl.cpp</text>
</a>
</g>
</g>
<!-- Node3&#45;&gt;Node19 -->
<g id="edge18" class="edge"><title>Node3&#45;&gt;Node19</title>
<path fill="none" stroke="midnightblue" d="M1036.04,-65.4582C988.01,-55.3248 915.365,-39.9972 864.177,-29.197"/>
<polygon fill="midnightblue" stroke="midnightblue" points="1035.39,-68.8983 1045.9,-67.5383 1036.83,-62.0491 1035.39,-68.8983"/>
</g>
<!-- Node20&#45;&gt;Node4 -->
<g id="edge20" class="edge"><title>Node20&#45;&gt;Node4</title>
<path fill="none" stroke="midnightblue" d="M1744.88,-67.4906C1830.05,-57.1347 1967.9,-39.929 2019,-31 2028.71,-29.3038 2039.15,-27.1596 2048.8,-25.044"/>
<polygon fill="midnightblue" stroke="midnightblue" points="1744.26,-64.039 1734.76,-68.7185 1745.11,-70.988 1744.26,-64.039"/>
</g>
<!-- Node20&#45;&gt;Node8 -->
<g id="edge21" class="edge"><title>Node20&#45;&gt;Node8</title>
<path fill="none" stroke="midnightblue" d="M1674,-57.3165C1674,-46.4962 1674,-33.398 1674,-25.0091"/>
<polygon fill="midnightblue" stroke="midnightblue" points="1670.5,-57.4751 1674,-67.4751 1677.5,-57.4751 1670.5,-57.4751"/>
</g>
<!-- Node21 -->
<g id="node21" class="node"><title>Node21</title>
<g id="a_node21"><a xlink:href="minimize__energy_8cpp.html" target="_top" xlink:title="minimize_energy.cpp">
<polygon fill="none" stroke="black" points="1890,-6 1890,-25 2010,-25 2010,-6 1890,-6"/>
<text text-anchor="middle" x="1950" y="-13" font-family="Helvetica,sans-Serif" font-size="10.00">minimize_energy.cpp</text>
</a>
</g>
</g>
<!-- Node20&#45;&gt;Node21 -->
<g id="edge22" class="edge"><title>Node20&#45;&gt;Node21</title>
<path fill="none" stroke="midnightblue" d="M1723.49,-65.3304C1777.02,-53.7915 1861.27,-35.6277 1910.53,-25.0091"/>
<polygon fill="midnightblue" stroke="midnightblue" points="1722.58,-61.9462 1713.54,-67.4751 1724.06,-68.789 1722.58,-61.9462"/>
</g>
<!-- Node22 -->
<g id="node22" class="node"><title>Node22</title>
<g id="a_node22"><a xlink:href="minimize__energy__tcl_8cpp.html" target="_top" xlink:title="minimize_energy_tcl.cpp">
<polygon fill="none" stroke="black" points="1732.5,-6 1732.5,-25 1871.5,-25 1871.5,-6 1732.5,-6"/>
<text text-anchor="middle" x="1802" y="-13" font-family="Helvetica,sans-Serif" font-size="10.00">minimize_energy_tcl.cpp</text>
</a>
</g>
</g>
<!-- Node20&#45;&gt;Node22 -->
<g id="edge23" class="edge"><title>Node20&#45;&gt;Node22</title>
<path fill="none" stroke="midnightblue" d="M1701.59,-63.1742C1726.43,-51.6287 1762.23,-34.9875 1783.69,-25.0091"/>
<polygon fill="midnightblue" stroke="midnightblue" points="1699.93,-60.0859 1692.34,-67.4751 1702.88,-66.4336 1699.93,-60.0859"/>
</g>
<!-- Node26&#45;&gt;Node5 -->
<g id="edge31" class="edge"><title>Node26&#45;&gt;Node5</title>
<path fill="none" stroke="midnightblue" d="M350,-57.3165C350,-46.4962 350,-33.398 350,-25.0091"/>
<polygon fill="midnightblue" stroke="midnightblue" points="346.5,-57.4751 350,-67.4751 353.5,-57.4751 346.5,-57.4751"/>
</g>
<!-- Node26&#45;&gt;Node11 -->
<g id="edge33" class="edge"><title>Node26&#45;&gt;Node11</title>
<path fill="none" stroke="midnightblue" d="M396.308,-65.1532C432.566,-56.469 484.19,-43.6831 529,-31 535.446,-29.1756 542.355,-27.0755 548.809,-25.0501"/>
<polygon fill="midnightblue" stroke="midnightblue" points="395.423,-61.7661 386.507,-67.4903 397.046,-68.5752 395.423,-61.7661"/>
</g>
<!-- Node26&#45;&gt;Node12 -->
<g id="edge34" class="edge"><title>Node26&#45;&gt;Node12</title>
<path fill="none" stroke="midnightblue" d="M378.115,-63.3272C403.74,-51.7761 440.888,-35.0316 463.123,-25.0091"/>
<polygon fill="midnightblue" stroke="midnightblue" points="376.591,-60.1748 368.912,-67.4751 379.467,-66.5565 376.591,-60.1748"/>
</g>
<!-- Node26&#45;&gt;Node16 -->
<g id="edge35" class="edge"><title>Node26&#45;&gt;Node16</title>
<path fill="none" stroke="midnightblue" d="M322.84,-63.1742C298.39,-51.6287 263.15,-34.9875 242.019,-25.0091"/>
<polygon fill="midnightblue" stroke="midnightblue" points="321.41,-66.3699 331.947,-67.4751 324.399,-60.0401 321.41,-66.3699"/>
</g>
<!-- Node26&#45;&gt;Node23 -->
<g id="edge30" class="edge"><title>Node26&#45;&gt;Node23</title>
<path fill="none" stroke="midnightblue" d="M287.894,-66.7718C236.051,-58.6549 160.347,-45.8398 95,-31 87.4142,-29.2773 79.2812,-27.1475 71.7532,-25.0556"/>
<polygon fill="midnightblue" stroke="midnightblue" points="287.516,-70.255 297.935,-68.3318 288.591,-63.338 287.516,-70.255"/>
</g>
<!-- Node27 -->
<g id="node27" class="node"><title>Node27</title>
<g id="a_node27"><a xlink:href="energy_8cpp.html" target="_top" xlink:title="Implementation of energy.hpp. ">
<polygon fill="none" stroke="black" points="104.5,-6 104.5,-25 173.5,-25 173.5,-6 104.5,-6"/>
<text text-anchor="middle" x="139" y="-13" font-family="Helvetica,sans-Serif" font-size="10.00">energy.cpp</text>
</a>
</g>
</g>
<!-- Node26&#45;&gt;Node27 -->
<g id="edge32" class="edge"><title>Node26&#45;&gt;Node27</title>
<path fill="none" stroke="midnightblue" d="M305.634,-64.9363C271.638,-56.2606 223.649,-43.5862 182,-31 175.967,-29.1768 169.505,-27.0771 163.472,-25.0517"/>
<polygon fill="midnightblue" stroke="midnightblue" points="305.159,-68.4267 315.713,-67.4958 306.882,-61.6421 305.159,-68.4267"/>
</g>
</g>
</svg>
