<?xml version="1.0" encoding="UTF-8" standalone="no"?>
<!DOCTYPE svg PUBLIC "-//W3C//DTD SVG 1.1//EN"
 "http://www.w3.org/Graphics/SVG/1.1/DTD/svg11.dtd">
<!-- Generated by graphviz version 2.38.0 (20140413.2041)
 -->
<!-- Title: electrokinetics.hpp Pages: 1 -->
<svg width="734pt" height="162pt"
 viewBox="0.00 0.00 733.50 162.00" xmlns="http://www.w3.org/2000/svg" xmlns:xlink="http://www.w3.org/1999/xlink">
<g id="graph0" class="graph" transform="scale(1 1) rotate(0) translate(4 158)">
<title>electrokinetics.hpp</title>
<!-- Node1 -->
<g id="node1" class="node"><title>Node1</title>
<polygon fill="#bfbfbf" stroke="black" points="309,-134.5 309,-153.5 419,-153.5 419,-134.5 309,-134.5"/>
<text text-anchor="middle" x="364" y="-141.5" font-family="Helvetica,sans-Serif" font-size="10.00">electrokinetics.hpp</text>
</g>
<!-- Node2 -->
<g id="node2" class="node"><title>Node2</title>
<g id="a_node2"><a xlink:href="electrokinetics__pdb__parse_8hpp.html" target="_top" xlink:title="electrokinetics_pdb\l_parse.hpp">
<polygon fill="none" stroke="black" points="155,-67.5 155,-97.5 267,-97.5 267,-67.5 155,-67.5"/>
<text text-anchor="start" x="163" y="-85.5" font-family="Helvetica,sans-Serif" font-size="10.00">electrokinetics_pdb</text>
<text text-anchor="middle" x="211" y="-74.5" font-family="Helvetica,sans-Serif" font-size="10.00">_parse.hpp</text>
</a>
</g>
</g>
<!-- Node1&#45;&gt;Node2 -->
<g id="edge1" class="edge"><title>Node1&#45;&gt;Node2</title>
<path fill="none" stroke="midnightblue" d="M332.751,-130.847C307.896,-121.182 273.093,-107.647 247.059,-97.523"/>
<polygon fill="midnightblue" stroke="midnightblue" points="331.49,-134.113 342.079,-134.475 334.027,-127.589 331.49,-134.113"/>
</g>
<!-- Node4 -->
<g id="node4" class="node"><title>Node4</title>
<g id="a_node4"><a xlink:href="lb-boundaries_8cpp.html" target="_top" xlink:title="Boundary conditions for Lattice Boltzmann fluid dynamics. ">
<polygon fill="none" stroke="black" points="0,-6 0,-25 104,-25 104,-6 0,-6"/>
<text text-anchor="middle" x="52" y="-13" font-family="Helvetica,sans-Serif" font-size="10.00">lb&#45;boundaries.cpp</text>
</a>
</g>
</g>
<!-- Node1&#45;&gt;Node4 -->
<g id="edge9" class="edge"><title>Node1&#45;&gt;Node4</title>
<path fill="none" stroke="midnightblue" d="M298.449,-138.216C253.626,-132.893 193.893,-121.664 146,-98 108.433,-79.4377 73.8213,-42.2051 59.2596,-25.2593"/>
<polygon fill="midnightblue" stroke="midnightblue" points="298.312,-141.723 308.639,-139.356 299.09,-134.766 298.312,-141.723"/>
</g>
<!-- Node5 -->
<g id="node5" class="node"><title>Node5</title>
<g id="a_node5"><a xlink:href="lbgpu__cuda_8cu.html" target="_top" xlink:title="Cuda (.cu) file for the Lattice Boltzmann implementation on GPUs. ">
<polygon fill="none" stroke="black" points="252,-6 252,-25 338,-25 338,-6 252,-6"/>
<text text-anchor="middle" x="295" y="-13" font-family="Helvetica,sans-Serif" font-size="10.00">lbgpu_cuda.cu</text>
</a>
</g>
</g>
<!-- Node1&#45;&gt;Node5 -->
<g id="edge10" class="edge"><title>Node1&#45;&gt;Node5</title>
<path fill="none" stroke="midnightblue" d="M354.402,-125.403C339.422,-97.9401 311.036,-45.8995 299.776,-25.2557"/>
<polygon fill="midnightblue" stroke="midnightblue" points="351.396,-127.202 359.257,-134.305 357.541,-123.85 351.396,-127.202"/>
</g>
<!-- Node6 -->
<g id="node6" class="node"><title>Node6</title>
<g id="a_node6"><a xlink:href="electrokinetics__tcl_8cpp.html" target="_top" xlink:title="electrokinetics_tcl.cpp">
<polygon fill="none" stroke="black" points="356,-6 356,-25 482,-25 482,-6 356,-6"/>
<text text-anchor="middle" x="419" y="-13" font-family="Helvetica,sans-Serif" font-size="10.00">electrokinetics_tcl.cpp</text>
</a>
</g>
</g>
<!-- Node1&#45;&gt;Node6 -->
<g id="edge11" class="edge"><title>Node1&#45;&gt;Node6</title>
<path fill="none" stroke="midnightblue" d="M355.653,-124.74C349.628,-108.733 343.991,-85.2377 353,-67 362.649,-47.4674 383.878,-33.4074 399.669,-25.1598"/>
<polygon fill="midnightblue" stroke="midnightblue" points="352.451,-126.155 359.519,-134.047 358.916,-123.47 352.451,-126.155"/>
</g>
<!-- Node7 -->
<g id="node7" class="node"><title>Node7</title>
<g id="a_node7"><a xlink:href="forces_8cpp.html" target="_top" xlink:title="Force calculation. ">
<polygon fill="none" stroke="black" points="361.5,-73 361.5,-92 428.5,-92 428.5,-73 361.5,-73"/>
<text text-anchor="middle" x="395" y="-80" font-family="Helvetica,sans-Serif" font-size="10.00">forces.cpp</text>
</a>
</g>
</g>
<!-- Node1&#45;&gt;Node7 -->
<g id="edge6" class="edge"><title>Node1&#45;&gt;Node7</title>
<path fill="none" stroke="midnightblue" d="M373.204,-125.335C378.938,-114.328 386.058,-100.663 390.567,-92.0091"/>
<polygon fill="midnightblue" stroke="midnightblue" points="369.958,-123.989 368.442,-134.475 376.166,-127.224 369.958,-123.989"/>
</g>
<!-- Node8 -->
<g id="node8" class="node"><title>Node8</title>
<g id="a_node8"><a xlink:href="core_2integrate_8cpp.html" target="_top" xlink:title="integrate.cpp">
<polygon fill="none" stroke="black" points="446.5,-73 446.5,-92 527.5,-92 527.5,-73 446.5,-73"/>
<text text-anchor="middle" x="487" y="-80" font-family="Helvetica,sans-Serif" font-size="10.00">integrate.cpp</text>
</a>
</g>
</g>
<!-- Node1&#45;&gt;Node8 -->
<g id="edge7" class="edge"><title>Node1&#45;&gt;Node8</title>
<path fill="none" stroke="midnightblue" d="M390.831,-130.021C414.685,-118.482 448.873,-101.943 469.41,-92.0091"/>
<polygon fill="midnightblue" stroke="midnightblue" points="389.101,-126.97 381.623,-134.475 392.149,-133.271 389.101,-126.97"/>
</g>
<!-- Node9 -->
<g id="node9" class="node"><title>Node9</title>
<g id="a_node9"><a xlink:href="integrate__sd_8cpp.html" target="_top" xlink:title="Stokesian dynamics integrator. ">
<polygon fill="none" stroke="black" points="546,-73 546,-92 644,-92 644,-73 546,-73"/>
<text text-anchor="middle" x="595" y="-80" font-family="Helvetica,sans-Serif" font-size="10.00">integrate_sd.cpp</text>
</a>
</g>
</g>
<!-- Node1&#45;&gt;Node9 -->
<g id="edge8" class="edge"><title>Node1&#45;&gt;Node9</title>
<path fill="none" stroke="midnightblue" d="M406.828,-131.968C451.684,-120.415 521.168,-102.517 561.965,-92.0091"/>
<polygon fill="midnightblue" stroke="midnightblue" points="405.908,-128.591 397.097,-134.475 407.654,-135.37 405.908,-128.591"/>
</g>
<!-- Node10 -->
<g id="node10" class="node"><title>Node10</title>
<g id="a_node10"><a xlink:href="lb__tcl_8cpp.html" target="_top" xlink:title="TCL Interface for the Lattice Boltzmann algorithm for hydrodynamic degrees of freedom. ">
<polygon fill="none" stroke="black" points="662.5,-73 662.5,-92 725.5,-92 725.5,-73 662.5,-73"/>
<text text-anchor="middle" x="694" y="-80" font-family="Helvetica,sans-Serif" font-size="10.00">lb_tcl.cpp</text>
</a>
</g>
</g>
<!-- Node1&#45;&gt;Node10 -->
<g id="edge12" class="edge"><title>Node1&#45;&gt;Node10</title>
<path fill="none" stroke="midnightblue" d="M429.507,-136.311C488.54,-129.457 577.409,-117.076 653,-98 659.296,-96.4112 665.988,-94.2535 672.101,-92.0884"/>
<polygon fill="midnightblue" stroke="midnightblue" points="428.745,-132.876 419.206,-137.487 429.538,-139.831 428.745,-132.876"/>
</g>
<!-- Node3 -->
<g id="node3" class="node"><title>Node3</title>
<g id="a_node3"><a xlink:href="electrokinetics__pdb__parse_8cpp.html" target="_top" xlink:title="electrokinetics_pdb\l_parse.cpp">
<polygon fill="none" stroke="black" points="122,-0.5 122,-30.5 234,-30.5 234,-0.5 122,-0.5"/>
<text text-anchor="start" x="130" y="-18.5" font-family="Helvetica,sans-Serif" font-size="10.00">electrokinetics_pdb</text>
<text text-anchor="middle" x="178" y="-7.5" font-family="Helvetica,sans-Serif" font-size="10.00">_parse.cpp</text>
</a>
</g>
</g>
<!-- Node2&#45;&gt;Node3 -->
<g id="edge2" class="edge"><title>Node2&#45;&gt;Node3</title>
<path fill="none" stroke="midnightblue" d="M199.213,-58.2835C194.511,-49.0223 189.252,-38.6632 185.147,-30.5765"/>
<polygon fill="midnightblue" stroke="midnightblue" points="196.192,-60.0637 203.839,-67.396 202.433,-56.8948 196.192,-60.0637"/>
</g>
<!-- Node2&#45;&gt;Node4 -->
<g id="edge3" class="edge"><title>Node2&#45;&gt;Node4</title>
<path fill="none" stroke="midnightblue" d="M166.868,-63.4585C136.148,-50.9001 96.5788,-34.724 72.8094,-25.007"/>
<polygon fill="midnightblue" stroke="midnightblue" points="165.919,-66.8516 176.499,-67.396 168.567,-60.3721 165.919,-66.8516"/>
</g>
<!-- Node2&#45;&gt;Node5 -->
<g id="edge4" class="edge"><title>Node2&#45;&gt;Node5</title>
<path fill="none" stroke="midnightblue" d="M237.482,-61.008C253.076,-48.9412 271.991,-34.3046 283.764,-25.1945"/>
<polygon fill="midnightblue" stroke="midnightblue" points="234.994,-58.508 229.227,-67.396 239.277,-64.0442 234.994,-58.508"/>
</g>
<!-- Node2&#45;&gt;Node6 -->
<g id="edge5" class="edge"><title>Node2&#45;&gt;Node6</title>
<path fill="none" stroke="midnightblue" d="M265.625,-64.4298C306.187,-51.7542 359.798,-35.0008 391.708,-25.0287"/>
<polygon fill="midnightblue" stroke="midnightblue" points="264.378,-61.1525 255.877,-67.476 266.466,-67.8339 264.378,-61.1525"/>
</g>
</g>
</svg>
