<?xml version="1.0" encoding="UTF-8" standalone="no"?>
<!DOCTYPE svg PUBLIC "-//W3C//DTD SVG 1.1//EN"
 "http://www.w3.org/Graphics/SVG/1.1/DTD/svg11.dtd">
<!-- Generated by graphviz version 2.38.0 (20140413.2041)
 -->
<!-- Title: endangledist_tcl.hpp Pages: 1 -->
<svg width="278pt" height="84pt"
 viewBox="0.00 0.00 277.50 84.00" xmlns="http://www.w3.org/2000/svg" xmlns:xlink="http://www.w3.org/1999/xlink">
<g id="graph0" class="graph" transform="scale(1 1) rotate(0) translate(4 80)">
<title>endangledist_tcl.hpp</title>
<!-- Node1 -->
<g id="node1" class="node"><title>Node1</title>
<polygon fill="#bfbfbf" stroke="black" points="71.5,-56.5 71.5,-75.5 189.5,-75.5 189.5,-56.5 71.5,-56.5"/>
<text text-anchor="middle" x="130.5" y="-63.5" font-family="Helvetica,sans-Serif" font-size="10.00">endangledist_tcl.hpp</text>
</g>
<!-- Node2 -->
<g id="node2" class="node"><title>Node2</title>
<g id="a_node2"><a xlink:href="endangledist__tcl_8cpp.html" target="_top" xlink:title="Implementation of endangledist_tcl.hpp. ">
<polygon fill="none" stroke="black" points="0,-0.5 0,-19.5 117,-19.5 117,-0.5 0,-0.5"/>
<text text-anchor="middle" x="58.5" y="-7.5" font-family="Helvetica,sans-Serif" font-size="10.00">endangledist_tcl.cpp</text>
</a>
</g>
</g>
<!-- Node1&#45;&gt;Node2 -->
<g id="edge1" class="edge"><title>Node1&#45;&gt;Node2</title>
<path fill="none" stroke="midnightblue" d="M110.634,-50.1008C97.6765,-40.3824 81.2026,-28.0269 70.2785,-19.8339"/>
<polygon fill="midnightblue" stroke="midnightblue" points="108.832,-53.1239 118.932,-56.324 113.032,-47.5239 108.832,-53.1239"/>
</g>
<!-- Node3 -->
<g id="node3" class="node"><title>Node3</title>
<g id="a_node3"><a xlink:href="interaction__data__tcl_8cpp.html" target="_top" xlink:title="interaction_data_tcl.cpp">
<polygon fill="none" stroke="black" points="135.5,-0.5 135.5,-19.5 269.5,-19.5 269.5,-0.5 135.5,-0.5"/>
<text text-anchor="middle" x="202.5" y="-7.5" font-family="Helvetica,sans-Serif" font-size="10.00">interaction_data_tcl.cpp</text>
</a>
</g>
</g>
<!-- Node1&#45;&gt;Node3 -->
<g id="edge2" class="edge"><title>Node1&#45;&gt;Node3</title>
<path fill="none" stroke="midnightblue" d="M150.366,-50.1008C163.323,-40.3824 179.797,-28.0269 190.721,-19.8339"/>
<polygon fill="midnightblue" stroke="midnightblue" points="147.968,-47.5239 142.068,-56.324 152.168,-53.1239 147.968,-47.5239"/>
</g>
</g>
</svg>
