<?xml version="1.0" encoding="UTF-8" standalone="no"?>
<!DOCTYPE svg PUBLIC "-//W3C//DTD SVG 1.1//EN"
 "http://www.w3.org/Graphics/SVG/1.1/DTD/svg11.dtd">
<!-- Generated by graphviz version 2.38.0 (20140413.2041)
 -->
<!-- Title: endangledist.cpp Pages: 1 -->
<svg width="828pt" height="420pt"
 viewBox="0.00 0.00 828.00 420.00" xmlns="http://www.w3.org/2000/svg" xmlns:xlink="http://www.w3.org/1999/xlink">
<g id="graph0" class="graph" transform="scale(1 1) rotate(0) translate(4 416)">
<title>endangledist.cpp</title>
<!-- Node1 -->
<g id="node1" class="node"><title>Node1</title>
<polygon fill="#bfbfbf" stroke="black" points="399,-392.5 399,-411.5 499,-411.5 499,-392.5 399,-392.5"/>
<text text-anchor="middle" x="449" y="-399.5" font-family="Helvetica,sans-Serif" font-size="10.00">endangledist.cpp</text>
</g>
<!-- Node2 -->
<g id="node2" class="node"><title>Node2</title>
<g id="a_node2"><a xlink:href="utils_8hpp.html" target="_top" xlink:title="Small functions that are useful not only for one modul. ">
<polygon fill="none" stroke="black" points="364.5,-168.5 364.5,-187.5 423.5,-187.5 423.5,-168.5 364.5,-168.5"/>
<text text-anchor="middle" x="394" y="-175.5" font-family="Helvetica,sans-Serif" font-size="10.00">utils.hpp</text>
</a>
</g>
</g>
<!-- Node1&#45;&gt;Node2 -->
<g id="edge1" class="edge"><title>Node1&#45;&gt;Node2</title>
<path fill="none" stroke="midnightblue" d="M425.723,-392.429C379.669,-373.9 279.038,-325.113 252,-244 237.174,-199.522 307.167,-185.474 354.158,-181.041"/>
<polygon fill="midnightblue" stroke="midnightblue" points="354.702,-184.508 364.378,-180.191 354.122,-177.532 354.702,-184.508"/>
</g>
<!-- Node19 -->
<g id="node19" class="node"><title>Node19</title>
<g id="a_node19"><a xlink:href="interaction__data_8hpp.html" target="_top" xlink:title="Various procedures concerning interactions between particles. ">
<polygon fill="none" stroke="black" points="473.5,-280.5 473.5,-299.5 590.5,-299.5 590.5,-280.5 473.5,-280.5"/>
<text text-anchor="middle" x="532" y="-287.5" font-family="Helvetica,sans-Serif" font-size="10.00">interaction_data.hpp</text>
</a>
</g>
</g>
<!-- Node1&#45;&gt;Node19 -->
<g id="edge21" class="edge"><title>Node1&#45;&gt;Node19</title>
<path fill="none" stroke="midnightblue" d="M461.879,-392.225C473.301,-383.937 489.855,-370.623 501,-356 511.883,-341.72 520.312,-323.006 525.614,-309.327"/>
<polygon fill="midnightblue" stroke="midnightblue" points="529.019,-310.211 529.184,-299.617 522.449,-307.795 529.019,-310.211"/>
</g>
<!-- Node21 -->
<g id="node21" class="node"><title>Node21</title>
<g id="a_node21"><a xlink:href="communication_8hpp.html" target="_top" xlink:title="This file contains the asynchronous MPI communication. ">
<polygon fill="none" stroke="black" points="303.5,-280.5 303.5,-299.5 416.5,-299.5 416.5,-280.5 303.5,-280.5"/>
<text text-anchor="middle" x="360" y="-287.5" font-family="Helvetica,sans-Serif" font-size="10.00">communication.hpp</text>
</a>
</g>
</g>
<!-- Node1&#45;&gt;Node21 -->
<g id="edge25" class="edge"><title>Node1&#45;&gt;Node21</title>
<path fill="none" stroke="midnightblue" d="M436.805,-392.354C425.543,-383.956 408.819,-370.394 397,-356 385.05,-341.445 374.764,-322.52 368.093,-308.847"/>
<polygon fill="midnightblue" stroke="midnightblue" points="371.154,-307.132 363.728,-299.575 364.821,-310.114 371.154,-307.132"/>
</g>
<!-- Node29 -->
<g id="node29" class="node"><title>Node29</title>
<g id="a_node29"><a xlink:href="constraint_8hpp.html" target="_top" xlink:title="Routines for handling of constraints. ">
<polygon fill="none" stroke="black" points="406,-336.5 406,-355.5 492,-355.5 492,-336.5 406,-336.5"/>
<text text-anchor="middle" x="449" y="-343.5" font-family="Helvetica,sans-Serif" font-size="10.00">constraint.hpp</text>
</a>
</g>
</g>
<!-- Node1&#45;&gt;Node29 -->
<g id="edge38" class="edge"><title>Node1&#45;&gt;Node29</title>
<path fill="none" stroke="midnightblue" d="M449,-392.083C449,-385.006 449,-374.861 449,-365.986"/>
<polygon fill="midnightblue" stroke="midnightblue" points="452.5,-365.751 449,-355.751 445.5,-365.751 452.5,-365.751"/>
</g>
<!-- Node30 -->
<g id="node30" class="node"><title>Node30</title>
<g id="a_node30"><a xlink:href="grid_8hpp.html" target="_top" xlink:title="Domain decomposition for parallel computing. ">
<polygon fill="none" stroke="black" points="591,-336.5 591,-355.5 647,-355.5 647,-336.5 591,-336.5"/>
<text text-anchor="middle" x="619" y="-343.5" font-family="Helvetica,sans-Serif" font-size="10.00">grid.hpp</text>
</a>
</g>
</g>
<!-- Node1&#45;&gt;Node30 -->
<g id="edge41" class="edge"><title>Node1&#45;&gt;Node30</title>
<path fill="none" stroke="midnightblue" d="M475.937,-392.444C504.66,-383.32 550.329,-368.813 582.321,-358.651"/>
<polygon fill="midnightblue" stroke="midnightblue" points="583.718,-361.88 592.189,-355.516 581.599,-355.208 583.718,-361.88"/>
</g>
<!-- Node3 -->
<g id="node3" class="node"><title>Node3</title>
<polygon fill="none" stroke="#bfbfbf" points="370.5,-112.5 370.5,-131.5 417.5,-131.5 417.5,-112.5 370.5,-112.5"/>
<text text-anchor="middle" x="394" y="-119.5" font-family="Helvetica,sans-Serif" font-size="10.00">cmath</text>
</g>
<!-- Node2&#45;&gt;Node3 -->
<g id="edge2" class="edge"><title>Node2&#45;&gt;Node3</title>
<path fill="none" stroke="midnightblue" d="M394,-168.083C394,-161.006 394,-150.861 394,-141.986"/>
<polygon fill="midnightblue" stroke="midnightblue" points="397.5,-141.751 394,-131.751 390.5,-141.751 397.5,-141.751"/>
</g>
<!-- Node4 -->
<g id="node4" class="node"><title>Node4</title>
<polygon fill="none" stroke="#bfbfbf" points="436,-112.5 436,-131.5 482,-131.5 482,-112.5 436,-112.5"/>
<text text-anchor="middle" x="459" y="-119.5" font-family="Helvetica,sans-Serif" font-size="10.00">cstdio</text>
</g>
<!-- Node2&#45;&gt;Node4 -->
<g id="edge3" class="edge"><title>Node2&#45;&gt;Node4</title>
<path fill="none" stroke="midnightblue" d="M404.443,-168.324C414.146,-160.263 428.815,-148.077 440.5,-138.369"/>
<polygon fill="midnightblue" stroke="midnightblue" points="442.911,-140.916 448.367,-131.834 438.438,-135.532 442.911,-140.916"/>
</g>
<!-- Node5 -->
<g id="node5" class="node"><title>Node5</title>
<polygon fill="none" stroke="#bfbfbf" points="500.5,-112.5 500.5,-131.5 549.5,-131.5 549.5,-112.5 500.5,-112.5"/>
<text text-anchor="middle" x="525" y="-119.5" font-family="Helvetica,sans-Serif" font-size="10.00">cstdlib</text>
</g>
<!-- Node2&#45;&gt;Node5 -->
<g id="edge4" class="edge"><title>Node2&#45;&gt;Node5</title>
<path fill="none" stroke="midnightblue" d="M414.757,-168.444C436.316,-159.557 470.263,-145.563 494.794,-135.451"/>
<polygon fill="midnightblue" stroke="midnightblue" points="496.428,-138.563 504.34,-131.516 493.761,-132.092 496.428,-138.563"/>
</g>
<!-- Node6 -->
<g id="node6" class="node"><title>Node6</title>
<polygon fill="none" stroke="#bfbfbf" points="95,-112.5 95,-131.5 145,-131.5 145,-112.5 95,-112.5"/>
<text text-anchor="middle" x="120" y="-119.5" font-family="Helvetica,sans-Serif" font-size="10.00">cstring</text>
</g>
<!-- Node2&#45;&gt;Node6 -->
<g id="edge5" class="edge"><title>Node2&#45;&gt;Node6</title>
<path fill="none" stroke="midnightblue" d="M364.251,-171.674C319.58,-163.593 232.567,-147.526 159,-132 157.738,-131.734 156.454,-131.459 155.158,-131.178"/>
<polygon fill="midnightblue" stroke="midnightblue" points="155.666,-127.705 145.144,-128.949 154.145,-134.538 155.666,-127.705"/>
</g>
<!-- Node7 -->
<g id="node7" class="node"><title>Node7</title>
<g id="a_node7"><a xlink:href="config_8hpp.html" target="_top" xlink:title="This file contains the defaults for Espresso. ">
<polygon fill="none" stroke="black" points="201.5,-56.5 201.5,-75.5 268.5,-75.5 268.5,-56.5 201.5,-56.5"/>
<text text-anchor="middle" x="235" y="-63.5" font-family="Helvetica,sans-Serif" font-size="10.00">config.hpp</text>
</a>
</g>
</g>
<!-- Node2&#45;&gt;Node7 -->
<g id="edge6" class="edge"><title>Node2&#45;&gt;Node7</title>
<path fill="none" stroke="midnightblue" d="M364.098,-174.81C313.219,-170.394 213.238,-158.49 192,-132 178.955,-115.729 197.206,-95.4882 213.796,-81.9563"/>
<polygon fill="midnightblue" stroke="midnightblue" points="216.344,-84.413 222.146,-75.548 212.082,-78.8599 216.344,-84.413"/>
</g>
<!-- Node11 -->
<g id="node11" class="node"><title>Node11</title>
<g id="a_node11"><a xlink:href="debug_8hpp.html" target="_top" xlink:title="This file controls debug facilities. ">
<polygon fill="none" stroke="black" points="201,-112.5 201,-131.5 269,-131.5 269,-112.5 201,-112.5"/>
<text text-anchor="middle" x="235" y="-119.5" font-family="Helvetica,sans-Serif" font-size="10.00">debug.hpp</text>
</a>
</g>
</g>
<!-- Node2&#45;&gt;Node11 -->
<g id="edge10" class="edge"><title>Node2&#45;&gt;Node11</title>
<path fill="none" stroke="midnightblue" d="M368.806,-168.444C342.057,-159.359 299.597,-144.939 269.695,-134.783"/>
<polygon fill="midnightblue" stroke="midnightblue" points="270.671,-131.418 260.076,-131.516 268.419,-138.046 270.671,-131.418"/>
</g>
<!-- Node12 -->
<g id="node12" class="node"><title>Node12</title>
<g id="a_node12"><a xlink:href="lees__edwards_8hpp.html" target="_top" xlink:title="lees_edwards.hpp">
<polygon fill="none" stroke="black" points="568,-112.5 568,-131.5 672,-131.5 672,-112.5 568,-112.5"/>
<text text-anchor="middle" x="620" y="-119.5" font-family="Helvetica,sans-Serif" font-size="10.00">lees_edwards.hpp</text>
</a>
</g>
</g>
<!-- Node2&#45;&gt;Node12 -->
<g id="edge12" class="edge"><title>Node2&#45;&gt;Node12</title>
<path fill="none" stroke="midnightblue" d="M423.546,-169.94C461.922,-160.771 529.313,-144.669 574.306,-133.918"/>
<polygon fill="midnightblue" stroke="midnightblue" points="575.195,-137.304 584.108,-131.576 573.568,-130.496 575.195,-137.304"/>
</g>
<!-- Node13 -->
<g id="node13" class="node"><title>Node13</title>
<g id="a_node13"><a xlink:href="errorhandling_8hpp.html" target="_top" xlink:title="This file contains the errorhandling code for severe errors, like a broken bond or illegal parameter ...">
<polygon fill="none" stroke="black" points="690.5,-112.5 690.5,-131.5 793.5,-131.5 793.5,-112.5 690.5,-112.5"/>
<text text-anchor="middle" x="742" y="-119.5" font-family="Helvetica,sans-Serif" font-size="10.00">errorhandling.hpp</text>
</a>
</g>
</g>
<!-- Node2&#45;&gt;Node13 -->
<g id="edge14" class="edge"><title>Node2&#45;&gt;Node13</title>
<path fill="none" stroke="midnightblue" d="M423.67,-172.396C480.263,-163.614 604.696,-144.306 680.136,-132.6"/>
<polygon fill="midnightblue" stroke="midnightblue" points="681.099,-135.992 690.444,-131 680.025,-129.075 681.099,-135.992"/>
</g>
<!-- Node17 -->
<g id="node17" class="node"><title>Node17</title>
<polygon fill="none" stroke="#bfbfbf" points="29.5,-112.5 29.5,-131.5 76.5,-131.5 76.5,-112.5 29.5,-112.5"/>
<text text-anchor="middle" x="53" y="-119.5" font-family="Helvetica,sans-Serif" font-size="10.00">vector</text>
</g>
<!-- Node2&#45;&gt;Node17 -->
<g id="edge19" class="edge"><title>Node2&#45;&gt;Node17</title>
<path fill="none" stroke="midnightblue" d="M364.489,-173.894C311.065,-168.014 194.636,-154.016 86.7835,-131.928"/>
<polygon fill="midnightblue" stroke="midnightblue" points="87.2125,-128.442 76.7097,-129.835 85.789,-135.296 87.2125,-128.442"/>
</g>
<!-- Node18 -->
<g id="node18" class="node"><title>Node18</title>
<polygon fill="none" stroke="#bfbfbf" points="287.5,-112.5 287.5,-131.5 352.5,-131.5 352.5,-112.5 287.5,-112.5"/>
<text text-anchor="middle" x="320" y="-119.5" font-family="Helvetica,sans-Serif" font-size="10.00">exception</text>
</g>
<!-- Node2&#45;&gt;Node18 -->
<g id="edge20" class="edge"><title>Node2&#45;&gt;Node18</title>
<path fill="none" stroke="midnightblue" d="M382.111,-168.324C370.85,-160.107 353.713,-147.602 340.291,-137.807"/>
<polygon fill="midnightblue" stroke="midnightblue" points="342.247,-134.901 332.106,-131.834 338.12,-140.556 342.247,-134.901"/>
</g>
<!-- Node8 -->
<g id="node8" class="node"><title>Node8</title>
<g id="a_node8"><a xlink:href="acconfig_8hpp.html" target="_top" xlink:title="acconfig.hpp">
<polygon fill="none" stroke="black" points="85,-0.5 85,-19.5 163,-19.5 163,-0.5 85,-0.5"/>
<text text-anchor="middle" x="124" y="-7.5" font-family="Helvetica,sans-Serif" font-size="10.00">acconfig.hpp</text>
</a>
</g>
</g>
<!-- Node7&#45;&gt;Node8 -->
<g id="edge7" class="edge"><title>Node7&#45;&gt;Node8</title>
<path fill="none" stroke="midnightblue" d="M217.166,-56.324C199.284,-47.6247 171.525,-34.1202 150.954,-24.113"/>
<polygon fill="midnightblue" stroke="midnightblue" points="152.313,-20.8819 141.79,-19.6545 149.251,-27.1765 152.313,-20.8819"/>
</g>
<!-- Node9 -->
<g id="node9" class="node"><title>Node9</title>
<g id="a_node9"><a xlink:href="myconfig-final_8hpp.html" target="_top" xlink:title="myconfig&#45;final.hpp">
<polygon fill="none" stroke="black" points="181.5,-0.5 181.5,-19.5 288.5,-19.5 288.5,-0.5 181.5,-0.5"/>
<text text-anchor="middle" x="235" y="-7.5" font-family="Helvetica,sans-Serif" font-size="10.00">myconfig&#45;final.hpp</text>
</a>
</g>
</g>
<!-- Node7&#45;&gt;Node9 -->
<g id="edge8" class="edge"><title>Node7&#45;&gt;Node9</title>
<path fill="none" stroke="midnightblue" d="M235,-56.083C235,-49.0059 235,-38.8611 235,-29.9865"/>
<polygon fill="midnightblue" stroke="midnightblue" points="238.5,-29.751 235,-19.7511 231.5,-29.7511 238.5,-29.751"/>
</g>
<!-- Node10 -->
<g id="node10" class="node"><title>Node10</title>
<g id="a_node10"><a xlink:href="config-features_8hpp.html" target="_top" xlink:title="config&#45;features.hpp">
<polygon fill="none" stroke="black" points="306.5,-0.5 306.5,-19.5 417.5,-19.5 417.5,-0.5 306.5,-0.5"/>
<text text-anchor="middle" x="362" y="-7.5" font-family="Helvetica,sans-Serif" font-size="10.00">config&#45;features.hpp</text>
</a>
</g>
</g>
<!-- Node7&#45;&gt;Node10 -->
<g id="edge9" class="edge"><title>Node7&#45;&gt;Node10</title>
<path fill="none" stroke="midnightblue" d="M255.124,-56.4435C276.024,-47.5566 308.935,-33.5632 332.716,-23.4514"/>
<polygon fill="midnightblue" stroke="midnightblue" points="334.138,-26.6504 341.971,-19.5164 331.398,-20.2085 334.138,-26.6504"/>
</g>
<!-- Node11&#45;&gt;Node7 -->
<g id="edge11" class="edge"><title>Node11&#45;&gt;Node7</title>
<path fill="none" stroke="midnightblue" d="M235,-112.083C235,-105.006 235,-94.8611 235,-85.9865"/>
<polygon fill="midnightblue" stroke="midnightblue" points="238.5,-85.751 235,-75.7511 231.5,-85.7511 238.5,-85.751"/>
</g>
<!-- Node12&#45;&gt;Node7 -->
<g id="edge13" class="edge"><title>Node12&#45;&gt;Node7</title>
<path fill="none" stroke="midnightblue" d="M567.908,-113.416C564.555,-112.935 561.23,-112.46 558,-112 458.382,-97.8304 341.412,-81.6473 279.191,-73.0751"/>
<polygon fill="midnightblue" stroke="midnightblue" points="279.34,-69.5627 268.956,-71.6656 278.385,-76.4972 279.34,-69.5627"/>
</g>
<!-- Node13&#45;&gt;Node7 -->
<g id="edge15" class="edge"><title>Node13&#45;&gt;Node7</title>
<path fill="none" stroke="midnightblue" d="M690.438,-113.223C687.246,-112.794 684.081,-112.382 681,-112 533.915,-93.739 358.837,-77.743 278.82,-70.7485"/>
<polygon fill="midnightblue" stroke="midnightblue" points="278.894,-67.2418 268.628,-69.8614 278.287,-74.2154 278.894,-67.2418"/>
</g>
<!-- Node14 -->
<g id="node14" class="node"><title>Node14</title>
<polygon fill="none" stroke="#bfbfbf" points="776,-56.5 776,-75.5 820,-75.5 820,-56.5 776,-56.5"/>
<text text-anchor="middle" x="798" y="-63.5" font-family="Helvetica,sans-Serif" font-size="10.00">string</text>
</g>
<!-- Node13&#45;&gt;Node14 -->
<g id="edge16" class="edge"><title>Node13&#45;&gt;Node14</title>
<path fill="none" stroke="midnightblue" d="M750.997,-112.324C759.194,-104.42 771.506,-92.5482 781.472,-82.9377"/>
<polygon fill="midnightblue" stroke="midnightblue" points="784.07,-85.2947 788.839,-75.8339 779.211,-80.2558 784.07,-85.2947"/>
</g>
<!-- Node15 -->
<g id="node15" class="node"><title>Node15</title>
<polygon fill="none" stroke="#bfbfbf" points="652,-56.5 652,-75.5 708,-75.5 708,-56.5 652,-56.5"/>
<text text-anchor="middle" x="680" y="-63.5" font-family="Helvetica,sans-Serif" font-size="10.00">sstream</text>
</g>
<!-- Node13&#45;&gt;Node15 -->
<g id="edge17" class="edge"><title>Node13&#45;&gt;Node15</title>
<path fill="none" stroke="midnightblue" d="M732.039,-112.324C722.873,-104.341 709.063,-92.3128 697.972,-82.6529"/>
<polygon fill="midnightblue" stroke="midnightblue" points="699.982,-79.7624 690.143,-75.8339 695.385,-85.041 699.982,-79.7624"/>
</g>
<!-- Node16 -->
<g id="node16" class="node"><title>Node16</title>
<polygon fill="none" stroke="#bfbfbf" points="726,-56.5 726,-75.5 758,-75.5 758,-56.5 726,-56.5"/>
<text text-anchor="middle" x="742" y="-63.5" font-family="Helvetica,sans-Serif" font-size="10.00">list</text>
</g>
<!-- Node13&#45;&gt;Node16 -->
<g id="edge18" class="edge"><title>Node13&#45;&gt;Node16</title>
<path fill="none" stroke="midnightblue" d="M742,-112.083C742,-105.006 742,-94.8611 742,-85.9865"/>
<polygon fill="midnightblue" stroke="midnightblue" points="745.5,-85.751 742,-75.7511 738.5,-85.7511 745.5,-85.751"/>
</g>
<!-- Node19&#45;&gt;Node2 -->
<g id="edge22" class="edge"><title>Node19&#45;&gt;Node2</title>
<path fill="none" stroke="midnightblue" d="M541.297,-280.321C554.25,-267.174 574.678,-241.852 561,-224 545.614,-203.92 478.139,-190.779 433.806,-184.141"/>
<polygon fill="midnightblue" stroke="midnightblue" points="434.027,-180.636 423.629,-182.669 433.025,-187.564 434.027,-180.636"/>
</g>
<!-- Node20 -->
<g id="node20" class="node"><title>Node20</title>
<g id="a_node20"><a xlink:href="particle__data_8hpp.html" target="_top" xlink:title="For more information on particle_data, see particle_data.c. ">
<polygon fill="none" stroke="black" points="451.5,-224.5 451.5,-243.5 552.5,-243.5 552.5,-224.5 451.5,-224.5"/>
<text text-anchor="middle" x="502" y="-231.5" font-family="Helvetica,sans-Serif" font-size="10.00">particle_data.hpp</text>
</a>
</g>
</g>
<!-- Node19&#45;&gt;Node20 -->
<g id="edge23" class="edge"><title>Node19&#45;&gt;Node20</title>
<path fill="none" stroke="midnightblue" d="M527.046,-280.083C522.896,-272.613 516.847,-261.724 511.733,-252.52"/>
<polygon fill="midnightblue" stroke="midnightblue" points="514.778,-250.793 506.862,-243.751 508.659,-254.192 514.778,-250.793"/>
</g>
<!-- Node20&#45;&gt;Node2 -->
<g id="edge24" class="edge"><title>Node20&#45;&gt;Node2</title>
<path fill="none" stroke="midnightblue" d="M484.648,-224.324C467.328,-215.664 440.485,-202.242 420.498,-192.249"/>
<polygon fill="midnightblue" stroke="midnightblue" points="421.819,-188.996 411.309,-187.655 418.688,-195.257 421.819,-188.996"/>
</g>
<!-- Node21&#45;&gt;Node20 -->
<g id="edge26" class="edge"><title>Node21&#45;&gt;Node20</title>
<path fill="none" stroke="midnightblue" d="M382.5,-280.444C406.077,-271.478 443.322,-257.314 469.964,-247.183"/>
<polygon fill="midnightblue" stroke="midnightblue" points="471.502,-250.342 479.605,-243.516 469.014,-243.8 471.502,-250.342"/>
</g>
<!-- Node22 -->
<g id="node22" class="node"><title>Node22</title>
<g id="a_node22"><a xlink:href="random_8hpp.html" target="_top" xlink:title="A random generator. ">
<polygon fill="none" stroke="black" points="261.5,-224.5 261.5,-243.5 336.5,-243.5 336.5,-224.5 261.5,-224.5"/>
<text text-anchor="middle" x="299" y="-231.5" font-family="Helvetica,sans-Serif" font-size="10.00">random.hpp</text>
</a>
</g>
</g>
<!-- Node21&#45;&gt;Node22 -->
<g id="edge27" class="edge"><title>Node21&#45;&gt;Node22</title>
<path fill="none" stroke="midnightblue" d="M350.199,-280.324C341.182,-272.341 327.594,-260.313 316.682,-250.653"/>
<polygon fill="midnightblue" stroke="midnightblue" points="318.787,-247.842 308.979,-243.834 314.147,-253.083 318.787,-247.842"/>
</g>
<!-- Node23 -->
<g id="node23" class="node"><title>Node23</title>
<g id="a_node23"><a xlink:href="topology_8hpp.html" target="_top" xlink:title="This file contains functions for handling the system topology. ">
<polygon fill="none" stroke="black" points="354.5,-224.5 354.5,-243.5 433.5,-243.5 433.5,-224.5 354.5,-224.5"/>
<text text-anchor="middle" x="394" y="-231.5" font-family="Helvetica,sans-Serif" font-size="10.00">topology.hpp</text>
</a>
</g>
</g>
<!-- Node21&#45;&gt;Node23 -->
<g id="edge29" class="edge"><title>Node21&#45;&gt;Node23</title>
<path fill="none" stroke="midnightblue" d="M365.614,-280.083C370.367,-272.534 377.318,-261.495 383.152,-252.23"/>
<polygon fill="midnightblue" stroke="midnightblue" points="386.124,-254.078 388.49,-243.751 380.2,-250.349 386.124,-254.078"/>
</g>
<!-- Node24 -->
<g id="node24" class="node"><title>Node24</title>
<g id="a_node24"><a xlink:href="mpi_8h.html" target="_top" xlink:title="This is the MPIfake implementation. ">
<polygon fill="none" stroke="black" points="161,-224.5 161,-243.5 205,-243.5 205,-224.5 161,-224.5"/>
<text text-anchor="middle" x="183" y="-231.5" font-family="Helvetica,sans-Serif" font-size="10.00">mpi.h</text>
</a>
</g>
</g>
<!-- Node21&#45;&gt;Node24 -->
<g id="edge31" class="edge"><title>Node21&#45;&gt;Node24</title>
<path fill="none" stroke="midnightblue" d="M331.954,-280.444C300.063,-270.714 248.111,-254.864 214.755,-244.688"/>
<polygon fill="midnightblue" stroke="midnightblue" points="215.629,-241.296 205.043,-241.725 213.587,-247.991 215.629,-241.296"/>
</g>
<!-- Node28 -->
<g id="node28" class="node"><title>Node28</title>
<g id="a_node28"><a xlink:href="cuda__init_8hpp.html" target="_top" xlink:title="cuda_init.hpp">
<polygon fill="none" stroke="black" points="0,-168.5 0,-187.5 82,-187.5 82,-168.5 0,-168.5"/>
<text text-anchor="middle" x="41" y="-175.5" font-family="Helvetica,sans-Serif" font-size="10.00">cuda_init.hpp</text>
</a>
</g>
</g>
<!-- Node21&#45;&gt;Node28 -->
<g id="edge35" class="edge"><title>Node21&#45;&gt;Node28</title>
<path fill="none" stroke="midnightblue" d="M303.42,-281.715C260.777,-275.051 201.403,-263.242 152,-244 118.133,-230.809 82.4648,-208.12 60.9734,-193.34"/>
<polygon fill="midnightblue" stroke="midnightblue" points="62.8787,-190.401 52.6774,-187.541 58.8682,-196.139 62.8787,-190.401"/>
</g>
<!-- Node22&#45;&gt;Node2 -->
<g id="edge28" class="edge"><title>Node22&#45;&gt;Node2</title>
<path fill="none" stroke="midnightblue" d="M314.263,-224.324C329.221,-215.822 352.255,-202.729 369.727,-192.797"/>
<polygon fill="midnightblue" stroke="midnightblue" points="371.81,-195.639 378.774,-187.655 368.351,-189.553 371.81,-195.639"/>
</g>
<!-- Node23&#45;&gt;Node2 -->
<g id="edge30" class="edge"><title>Node23&#45;&gt;Node2</title>
<path fill="none" stroke="midnightblue" d="M394,-224.083C394,-217.006 394,-206.861 394,-197.986"/>
<polygon fill="midnightblue" stroke="midnightblue" points="397.5,-197.751 394,-187.751 390.5,-197.751 397.5,-197.751"/>
</g>
<!-- Node25 -->
<g id="node25" class="node"><title>Node25</title>
<polygon fill="none" stroke="#bfbfbf" points="239.5,-168.5 239.5,-187.5 292.5,-187.5 292.5,-168.5 239.5,-168.5"/>
<text text-anchor="middle" x="266" y="-175.5" font-family="Helvetica,sans-Serif" font-size="10.00">string.h</text>
</g>
<!-- Node24&#45;&gt;Node25 -->
<g id="edge32" class="edge"><title>Node24&#45;&gt;Node25</title>
<path fill="none" stroke="midnightblue" d="M196.335,-224.324C209.162,-215.979 228.785,-203.212 243.94,-193.352"/>
<polygon fill="midnightblue" stroke="midnightblue" points="246.224,-196.042 252.698,-187.655 242.407,-190.174 246.224,-196.042"/>
</g>
<!-- Node26 -->
<g id="node26" class="node"><title>Node26</title>
<polygon fill="none" stroke="#bfbfbf" points="100,-168.5 100,-187.5 150,-187.5 150,-168.5 100,-168.5"/>
<text text-anchor="middle" x="125" y="-175.5" font-family="Helvetica,sans-Serif" font-size="10.00">stdio.h</text>
</g>
<!-- Node24&#45;&gt;Node26 -->
<g id="edge33" class="edge"><title>Node24&#45;&gt;Node26</title>
<path fill="none" stroke="midnightblue" d="M173.681,-224.324C165.107,-216.341 152.188,-204.313 141.812,-194.653"/>
<polygon fill="midnightblue" stroke="midnightblue" points="144.192,-192.086 134.488,-187.834 139.422,-197.21 144.192,-192.086"/>
</g>
<!-- Node27 -->
<g id="node27" class="node"><title>Node27</title>
<polygon fill="none" stroke="#bfbfbf" points="168.5,-168.5 168.5,-187.5 221.5,-187.5 221.5,-168.5 168.5,-168.5"/>
<text text-anchor="middle" x="195" y="-175.5" font-family="Helvetica,sans-Serif" font-size="10.00">stdlib.h</text>
</g>
<!-- Node24&#45;&gt;Node27 -->
<g id="edge34" class="edge"><title>Node24&#45;&gt;Node27</title>
<path fill="none" stroke="midnightblue" d="M184.982,-224.083C186.572,-216.927 188.859,-206.635 190.846,-197.691"/>
<polygon fill="midnightblue" stroke="midnightblue" points="194.303,-198.272 193.055,-187.751 187.469,-196.754 194.303,-198.272"/>
</g>
<!-- Node28&#45;&gt;Node7 -->
<g id="edge36" class="edge"><title>Node28&#45;&gt;Node7</title>
<path fill="none" stroke="midnightblue" d="M33.686,-168.486C23.1094,-155.106 6.24142,-128.936 20,-112 41.1651,-85.9463 134.892,-74.4453 191.375,-69.8026"/>
<polygon fill="midnightblue" stroke="midnightblue" points="191.766,-73.2828 201.462,-69.0135 191.22,-66.3041 191.766,-73.2828"/>
</g>
<!-- Node28&#45;&gt;Node17 -->
<g id="edge37" class="edge"><title>Node28&#45;&gt;Node17</title>
<path fill="none" stroke="midnightblue" d="M42.9816,-168.083C44.5717,-160.927 46.8588,-150.635 48.8464,-141.691"/>
<polygon fill="midnightblue" stroke="midnightblue" points="52.3026,-142.272 51.0553,-131.751 45.4693,-140.754 52.3026,-142.272"/>
</g>
<!-- Node29&#45;&gt;Node19 -->
<g id="edge40" class="edge"><title>Node29&#45;&gt;Node19</title>
<path fill="none" stroke="midnightblue" d="M462.335,-336.324C475.162,-327.979 494.785,-315.212 509.94,-305.352"/>
<polygon fill="midnightblue" stroke="midnightblue" points="512.224,-308.042 518.698,-299.655 508.407,-302.174 512.224,-308.042"/>
</g>
<!-- Node29&#45;&gt;Node20 -->
<g id="edge39" class="edge"><title>Node29&#45;&gt;Node20</title>
<path fill="none" stroke="midnightblue" d="M449.714,-336.144C451.045,-323.204 454.67,-298.642 464,-280 469.354,-269.301 477.752,-258.982 485.292,-250.931"/>
<polygon fill="midnightblue" stroke="midnightblue" points="487.884,-253.288 492.403,-243.705 482.894,-248.378 487.884,-253.288"/>
</g>
<!-- Node30&#45;&gt;Node2 -->
<g id="edge42" class="edge"><title>Node30&#45;&gt;Node2</title>
<path fill="none" stroke="midnightblue" d="M618.829,-336.427C617.897,-314.198 612.171,-254.332 578,-224 538.067,-188.554 474.772,-179.969 433.813,-178.431"/>
<polygon fill="midnightblue" stroke="midnightblue" points="433.739,-174.928 423.654,-178.176 433.563,-181.926 433.739,-174.928"/>
</g>
<!-- Node30&#45;&gt;Node13 -->
<g id="edge45" class="edge"><title>Node30&#45;&gt;Node13</title>
<path fill="none" stroke="midnightblue" d="M647.145,-337.497C666.621,-330.839 691.546,-319.13 706,-300 742.176,-252.121 744.384,-176.916 743.192,-141.994"/>
<polygon fill="midnightblue" stroke="midnightblue" points="746.678,-141.614 742.702,-131.793 739.686,-141.95 746.678,-141.614"/>
</g>
<!-- Node30&#45;&gt;Node21 -->
<g id="edge44" class="edge"><title>Node30&#45;&gt;Node21</title>
<path fill="none" stroke="midnightblue" d="M590.789,-339.118C547.68,-330.13 464.757,-312.841 410.937,-301.62"/>
<polygon fill="midnightblue" stroke="midnightblue" points="411.416,-298.145 400.912,-299.53 409.987,-304.997 411.416,-298.145"/>
</g>
<!-- Node31 -->
<g id="node31" class="node"><title>Node31</title>
<polygon fill="none" stroke="#bfbfbf" points="647,-280.5 647,-299.5 697,-299.5 697,-280.5 647,-280.5"/>
<text text-anchor="middle" x="672" y="-287.5" font-family="Helvetica,sans-Serif" font-size="10.00">climits</text>
</g>
<!-- Node30&#45;&gt;Node31 -->
<g id="edge43" class="edge"><title>Node30&#45;&gt;Node31</title>
<path fill="none" stroke="midnightblue" d="M627.752,-336.083C635.47,-328.22 646.905,-316.569 656.217,-307.081"/>
<polygon fill="midnightblue" stroke="midnightblue" points="658.904,-309.34 663.411,-299.751 653.908,-304.436 658.904,-309.34"/>
</g>
</g>
</svg>
