<?xml version="1.0" encoding="UTF-8" standalone="no"?>
<!DOCTYPE svg PUBLIC "-//W3C//DTD SVG 1.1//EN"
 "http://www.w3.org/Graphics/SVG/1.1/DTD/svg11.dtd">
<!-- Generated by graphviz version 2.38.0 (20140413.2041)
 -->
<!-- Title: energy_tcl.cpp Pages: 1 -->
<svg width="1141pt" height="532pt"
 viewBox="0.00 0.00 1141.00 532.00" xmlns="http://www.w3.org/2000/svg" xmlns:xlink="http://www.w3.org/1999/xlink">
<g id="graph0" class="graph" transform="scale(1 1) rotate(0) translate(4 528)">
<title>energy_tcl.cpp</title>
<!-- Node1 -->
<g id="node1" class="node"><title>Node1</title>
<polygon fill="#bfbfbf" stroke="black" points="809,-504.5 809,-523.5 897,-523.5 897,-504.5 809,-504.5"/>
<text text-anchor="middle" x="853" y="-511.5" font-family="Helvetica,sans-Serif" font-size="10.00">energy_tcl.cpp</text>
</g>
<!-- Node2 -->
<g id="node2" class="node"><title>Node2</title>
<g id="a_node2"><a xlink:href="utils_8hpp.html" target="_top" xlink:title="Small functions that are useful not only for one modul. ">
<polygon fill="none" stroke="black" points="631.5,-168.5 631.5,-187.5 690.5,-187.5 690.5,-168.5 631.5,-168.5"/>
<text text-anchor="middle" x="661" y="-175.5" font-family="Helvetica,sans-Serif" font-size="10.00">utils.hpp</text>
</a>
</g>
</g>
<!-- Node1&#45;&gt;Node2 -->
<g id="edge1" class="edge"><title>Node1&#45;&gt;Node2</title>
<path fill="none" stroke="midnightblue" d="M868.852,-504.439C896.119,-488.425 949,-451.16 949,-403 949,-403 949,-403 949,-289 949,-236.496 779.85,-199.861 700.814,-185.609"/>
<polygon fill="midnightblue" stroke="midnightblue" points="701.193,-182.122 690.736,-183.826 699.973,-189.015 701.193,-182.122"/>
</g>
<!-- Node19 -->
<g id="node19" class="node"><title>Node19</title>
<g id="a_node19"><a xlink:href="parser_8hpp.html" target="_top" xlink:title="This file contains macros for parsing the parameters to the &#39;inter&#39; command. ">
<polygon fill="none" stroke="black" points="0,-224.5 0,-243.5 68,-243.5 68,-224.5 0,-224.5"/>
<text text-anchor="middle" x="34" y="-231.5" font-family="Helvetica,sans-Serif" font-size="10.00">parser.hpp</text>
</a>
</g>
</g>
<!-- Node1&#45;&gt;Node19 -->
<g id="edge21" class="edge"><title>Node1&#45;&gt;Node19</title>
<path fill="none" stroke="midnightblue" d="M808.751,-511.671C639.96,-506.024 46,-480.637 46,-403 46,-403 46,-403 46,-345 46,-312.758 40.8421,-275.512 37.2895,-253.681"/>
<polygon fill="midnightblue" stroke="midnightblue" points="40.6898,-252.798 35.5688,-243.523 33.7882,-253.967 40.6898,-252.798"/>
</g>
<!-- Node21 -->
<g id="node21" class="node"><title>Node21</title>
<g id="a_node21"><a xlink:href="energy_8hpp.html" target="_top" xlink:title="Implementation of the energy calculation. ">
<polygon fill="none" stroke="black" points="977,-448.5 977,-467.5 1047,-467.5 1047,-448.5 977,-448.5"/>
<text text-anchor="middle" x="1012" y="-455.5" font-family="Helvetica,sans-Serif" font-size="10.00">energy.hpp</text>
</a>
</g>
</g>
<!-- Node1&#45;&gt;Node21 -->
<g id="edge25" class="edge"><title>Node1&#45;&gt;Node21</title>
<path fill="none" stroke="midnightblue" d="M878.194,-504.444C904.943,-495.359 947.403,-480.939 977.305,-470.783"/>
<polygon fill="midnightblue" stroke="midnightblue" points="978.581,-474.046 986.924,-467.516 976.329,-467.418 978.581,-474.046"/>
</g>
<!-- Node41 -->
<g id="node41" class="node"><title>Node41</title>
<g id="a_node41"><a xlink:href="external__potential_8hpp.html" target="_top" xlink:title="external_potential.hpp">
<polygon fill="none" stroke="black" points="598.5,-448.5 598.5,-467.5 725.5,-467.5 725.5,-448.5 598.5,-448.5"/>
<text text-anchor="middle" x="662" y="-455.5" font-family="Helvetica,sans-Serif" font-size="10.00">external_potential.hpp</text>
</a>
</g>
</g>
<!-- Node1&#45;&gt;Node41 -->
<g id="edge62" class="edge"><title>Node1&#45;&gt;Node41</title>
<path fill="none" stroke="midnightblue" d="M822.735,-504.444C790.045,-495.201 737.818,-480.436 701.817,-470.257"/>
<polygon fill="midnightblue" stroke="midnightblue" points="702.698,-466.869 692.123,-467.516 700.794,-473.605 702.698,-466.869"/>
</g>
<!-- Node3 -->
<g id="node3" class="node"><title>Node3</title>
<polygon fill="none" stroke="#bfbfbf" points="977.5,-112.5 977.5,-131.5 1024.5,-131.5 1024.5,-112.5 977.5,-112.5"/>
<text text-anchor="middle" x="1001" y="-119.5" font-family="Helvetica,sans-Serif" font-size="10.00">cmath</text>
</g>
<!-- Node2&#45;&gt;Node3 -->
<g id="edge2" class="edge"><title>Node2&#45;&gt;Node3</title>
<path fill="none" stroke="midnightblue" d="M690.913,-172.966C744.427,-165.634 860.026,-149.278 957,-132 960.404,-131.394 963.949,-130.727 967.484,-130.04"/>
<polygon fill="midnightblue" stroke="midnightblue" points="968.174,-133.471 977.294,-128.079 966.802,-126.607 968.174,-133.471"/>
</g>
<!-- Node4 -->
<g id="node4" class="node"><title>Node4</title>
<polygon fill="none" stroke="#bfbfbf" points="731,-112.5 731,-131.5 777,-131.5 777,-112.5 731,-112.5"/>
<text text-anchor="middle" x="754" y="-119.5" font-family="Helvetica,sans-Serif" font-size="10.00">cstdio</text>
</g>
<!-- Node2&#45;&gt;Node4 -->
<g id="edge3" class="edge"><title>Node2&#45;&gt;Node4</title>
<path fill="none" stroke="midnightblue" d="M675.942,-168.324C690.585,-159.822 713.134,-146.729 730.238,-136.797"/>
<polygon fill="midnightblue" stroke="midnightblue" points="732.205,-139.703 739.095,-131.655 728.69,-133.649 732.205,-139.703"/>
</g>
<!-- Node5 -->
<g id="node5" class="node"><title>Node5</title>
<polygon fill="none" stroke="#bfbfbf" points="833.5,-112.5 833.5,-131.5 882.5,-131.5 882.5,-112.5 833.5,-112.5"/>
<text text-anchor="middle" x="858" y="-119.5" font-family="Helvetica,sans-Serif" font-size="10.00">cstdlib</text>
</g>
<!-- Node2&#45;&gt;Node5 -->
<g id="edge4" class="edge"><title>Node2&#45;&gt;Node5</title>
<path fill="none" stroke="midnightblue" d="M690.92,-168.799C726.536,-159.036 785.901,-142.763 823.442,-132.473"/>
<polygon fill="midnightblue" stroke="midnightblue" points="824.695,-135.758 833.414,-129.739 822.844,-129.007 824.695,-135.758"/>
</g>
<!-- Node6 -->
<g id="node6" class="node"><title>Node6</title>
<polygon fill="none" stroke="#bfbfbf" points="169,-112.5 169,-131.5 219,-131.5 219,-112.5 169,-112.5"/>
<text text-anchor="middle" x="194" y="-119.5" font-family="Helvetica,sans-Serif" font-size="10.00">cstring</text>
</g>
<!-- Node2&#45;&gt;Node6 -->
<g id="edge5" class="edge"><title>Node2&#45;&gt;Node6</title>
<path fill="none" stroke="midnightblue" d="M631.074,-173.59C565.6,-166.121 404.72,-147.729 270,-132 256.803,-130.459 242.319,-128.749 229.568,-127.237"/>
<polygon fill="midnightblue" stroke="midnightblue" points="229.674,-123.725 219.331,-126.021 228.848,-130.676 229.674,-123.725"/>
</g>
<!-- Node7 -->
<g id="node7" class="node"><title>Node7</title>
<g id="a_node7"><a xlink:href="config_8hpp.html" target="_top" xlink:title="This file contains the defaults for Espresso. ">
<polygon fill="none" stroke="black" points="439.5,-56.5 439.5,-75.5 506.5,-75.5 506.5,-56.5 439.5,-56.5"/>
<text text-anchor="middle" x="473" y="-63.5" font-family="Helvetica,sans-Serif" font-size="10.00">config.hpp</text>
</a>
</g>
</g>
<!-- Node2&#45;&gt;Node7 -->
<g id="edge6" class="edge"><title>Node2&#45;&gt;Node7</title>
<path fill="none" stroke="midnightblue" d="M690.61,-172.79C736.307,-165.116 815.794,-146.383 786,-112 751.749,-72.4731 595.092,-66.8566 517.214,-66.5688"/>
<polygon fill="midnightblue" stroke="midnightblue" points="516.771,-63.0685 506.768,-66.5606 516.766,-70.0685 516.771,-63.0685"/>
</g>
<!-- Node11 -->
<g id="node11" class="node"><title>Node11</title>
<g id="a_node11"><a xlink:href="debug_8hpp.html" target="_top" xlink:title="This file controls debug facilities. ">
<polygon fill="none" stroke="black" points="439,-112.5 439,-131.5 507,-131.5 507,-112.5 439,-112.5"/>
<text text-anchor="middle" x="473" y="-119.5" font-family="Helvetica,sans-Serif" font-size="10.00">debug.hpp</text>
</a>
</g>
</g>
<!-- Node2&#45;&gt;Node11 -->
<g id="edge10" class="edge"><title>Node2&#45;&gt;Node11</title>
<path fill="none" stroke="midnightblue" d="M631.211,-168.444C599.171,-159.241 548.067,-144.562 512.647,-134.388"/>
<polygon fill="midnightblue" stroke="midnightblue" points="513.227,-130.913 502.65,-131.516 511.295,-137.641 513.227,-130.913"/>
</g>
<!-- Node12 -->
<g id="node12" class="node"><title>Node12</title>
<g id="a_node12"><a xlink:href="lees__edwards_8hpp.html" target="_top" xlink:title="lees_edwards.hpp">
<polygon fill="none" stroke="black" points="609,-112.5 609,-131.5 713,-131.5 713,-112.5 609,-112.5"/>
<text text-anchor="middle" x="661" y="-119.5" font-family="Helvetica,sans-Serif" font-size="10.00">lees_edwards.hpp</text>
</a>
</g>
</g>
<!-- Node2&#45;&gt;Node12 -->
<g id="edge12" class="edge"><title>Node2&#45;&gt;Node12</title>
<path fill="none" stroke="midnightblue" d="M661,-168.083C661,-161.006 661,-150.861 661,-141.986"/>
<polygon fill="midnightblue" stroke="midnightblue" points="664.5,-141.751 661,-131.751 657.5,-141.751 664.5,-141.751"/>
</g>
<!-- Node13 -->
<g id="node13" class="node"><title>Node13</title>
<g id="a_node13"><a xlink:href="errorhandling_8hpp.html" target="_top" xlink:title="This file contains the errorhandling code for severe errors, like a broken bond or illegal parameter ...">
<polygon fill="none" stroke="black" points="279.5,-112.5 279.5,-131.5 382.5,-131.5 382.5,-112.5 279.5,-112.5"/>
<text text-anchor="middle" x="331" y="-119.5" font-family="Helvetica,sans-Serif" font-size="10.00">errorhandling.hpp</text>
</a>
</g>
</g>
<!-- Node2&#45;&gt;Node13 -->
<g id="edge14" class="edge"><title>Node2&#45;&gt;Node13</title>
<path fill="none" stroke="midnightblue" d="M631.424,-172.16C577.896,-163.401 463.911,-144.749 392.754,-133.105"/>
<polygon fill="midnightblue" stroke="midnightblue" points="393.013,-129.601 382.579,-131.44 391.882,-136.509 393.013,-129.601"/>
</g>
<!-- Node17 -->
<g id="node17" class="node"><title>Node17</title>
<polygon fill="none" stroke="#bfbfbf" points="900.5,-112.5 900.5,-131.5 947.5,-131.5 947.5,-112.5 900.5,-112.5"/>
<text text-anchor="middle" x="924" y="-119.5" font-family="Helvetica,sans-Serif" font-size="10.00">vector</text>
</g>
<!-- Node2&#45;&gt;Node17 -->
<g id="edge19" class="edge"><title>Node2&#45;&gt;Node17</title>
<path fill="none" stroke="midnightblue" d="M690.703,-172.015C733.03,-164.738 813.312,-150.297 890.418,-132.238"/>
<polygon fill="midnightblue" stroke="midnightblue" points="891.366,-135.61 900.291,-129.901 889.753,-128.799 891.366,-135.61"/>
</g>
<!-- Node18 -->
<g id="node18" class="node"><title>Node18</title>
<polygon fill="none" stroke="#bfbfbf" points="525.5,-112.5 525.5,-131.5 590.5,-131.5 590.5,-112.5 525.5,-112.5"/>
<text text-anchor="middle" x="558" y="-119.5" font-family="Helvetica,sans-Serif" font-size="10.00">exception</text>
</g>
<!-- Node2&#45;&gt;Node18 -->
<g id="edge20" class="edge"><title>Node2&#45;&gt;Node18</title>
<path fill="none" stroke="midnightblue" d="M644.451,-168.324C628.008,-159.703 602.565,-146.364 583.532,-136.386"/>
<polygon fill="midnightblue" stroke="midnightblue" points="584.989,-133.198 574.508,-131.655 581.739,-139.398 584.989,-133.198"/>
</g>
<!-- Node8 -->
<g id="node8" class="node"><title>Node8</title>
<g id="a_node8"><a xlink:href="acconfig_8hpp.html" target="_top" xlink:title="acconfig.hpp">
<polygon fill="none" stroke="black" points="323,-0.5 323,-19.5 401,-19.5 401,-0.5 323,-0.5"/>
<text text-anchor="middle" x="362" y="-7.5" font-family="Helvetica,sans-Serif" font-size="10.00">acconfig.hpp</text>
</a>
</g>
</g>
<!-- Node7&#45;&gt;Node8 -->
<g id="edge7" class="edge"><title>Node7&#45;&gt;Node8</title>
<path fill="none" stroke="midnightblue" d="M455.166,-56.324C437.284,-47.6247 409.525,-34.1202 388.954,-24.113"/>
<polygon fill="midnightblue" stroke="midnightblue" points="390.313,-20.8819 379.79,-19.6545 387.251,-27.1765 390.313,-20.8819"/>
</g>
<!-- Node9 -->
<g id="node9" class="node"><title>Node9</title>
<g id="a_node9"><a xlink:href="myconfig-final_8hpp.html" target="_top" xlink:title="myconfig&#45;final.hpp">
<polygon fill="none" stroke="black" points="419.5,-0.5 419.5,-19.5 526.5,-19.5 526.5,-0.5 419.5,-0.5"/>
<text text-anchor="middle" x="473" y="-7.5" font-family="Helvetica,sans-Serif" font-size="10.00">myconfig&#45;final.hpp</text>
</a>
</g>
</g>
<!-- Node7&#45;&gt;Node9 -->
<g id="edge8" class="edge"><title>Node7&#45;&gt;Node9</title>
<path fill="none" stroke="midnightblue" d="M473,-56.083C473,-49.0059 473,-38.8611 473,-29.9865"/>
<polygon fill="midnightblue" stroke="midnightblue" points="476.5,-29.751 473,-19.7511 469.5,-29.7511 476.5,-29.751"/>
</g>
<!-- Node10 -->
<g id="node10" class="node"><title>Node10</title>
<g id="a_node10"><a xlink:href="config-features_8hpp.html" target="_top" xlink:title="config&#45;features.hpp">
<polygon fill="none" stroke="black" points="544.5,-0.5 544.5,-19.5 655.5,-19.5 655.5,-0.5 544.5,-0.5"/>
<text text-anchor="middle" x="600" y="-7.5" font-family="Helvetica,sans-Serif" font-size="10.00">config&#45;features.hpp</text>
</a>
</g>
</g>
<!-- Node7&#45;&gt;Node10 -->
<g id="edge9" class="edge"><title>Node7&#45;&gt;Node10</title>
<path fill="none" stroke="midnightblue" d="M493.124,-56.4435C514.024,-47.5566 546.935,-33.5632 570.716,-23.4514"/>
<polygon fill="midnightblue" stroke="midnightblue" points="572.138,-26.6504 579.971,-19.5164 569.398,-20.2085 572.138,-26.6504"/>
</g>
<!-- Node11&#45;&gt;Node7 -->
<g id="edge11" class="edge"><title>Node11&#45;&gt;Node7</title>
<path fill="none" stroke="midnightblue" d="M473,-112.083C473,-105.006 473,-94.8611 473,-85.9865"/>
<polygon fill="midnightblue" stroke="midnightblue" points="476.5,-85.751 473,-75.7511 469.5,-85.7511 476.5,-85.751"/>
</g>
<!-- Node12&#45;&gt;Node7 -->
<g id="edge13" class="edge"><title>Node12&#45;&gt;Node7</title>
<path fill="none" stroke="midnightblue" d="M631.211,-112.444C599.171,-103.241 548.067,-88.5617 512.647,-78.3879"/>
<polygon fill="midnightblue" stroke="midnightblue" points="513.227,-74.9132 502.65,-75.5164 511.295,-81.6412 513.227,-74.9132"/>
</g>
<!-- Node13&#45;&gt;Node7 -->
<g id="edge15" class="edge"><title>Node13&#45;&gt;Node7</title>
<path fill="none" stroke="midnightblue" d="M353.5,-112.444C377.077,-103.478 414.322,-89.314 440.964,-79.1827"/>
<polygon fill="midnightblue" stroke="midnightblue" points="442.502,-82.3424 450.605,-75.5164 440.014,-75.7995 442.502,-82.3424"/>
</g>
<!-- Node14 -->
<g id="node14" class="node"><title>Node14</title>
<polygon fill="none" stroke="#bfbfbf" points="164,-56.5 164,-75.5 208,-75.5 208,-56.5 164,-56.5"/>
<text text-anchor="middle" x="186" y="-63.5" font-family="Helvetica,sans-Serif" font-size="10.00">string</text>
</g>
<!-- Node13&#45;&gt;Node14 -->
<g id="edge16" class="edge"><title>Node13&#45;&gt;Node14</title>
<path fill="none" stroke="midnightblue" d="M308.024,-112.444C283.701,-103.385 245.131,-89.0213 217.875,-78.8705"/>
<polygon fill="midnightblue" stroke="midnightblue" points="218.984,-75.5491 208.392,-75.339 216.541,-82.109 218.984,-75.5491"/>
</g>
<!-- Node15 -->
<g id="node15" class="node"><title>Node15</title>
<polygon fill="none" stroke="#bfbfbf" points="334,-56.5 334,-75.5 390,-75.5 390,-56.5 334,-56.5"/>
<text text-anchor="middle" x="362" y="-63.5" font-family="Helvetica,sans-Serif" font-size="10.00">sstream</text>
</g>
<!-- Node13&#45;&gt;Node15 -->
<g id="edge17" class="edge"><title>Node13&#45;&gt;Node15</title>
<path fill="none" stroke="midnightblue" d="M336.119,-112.083C340.408,-104.613 346.658,-93.7244 351.942,-84.5199"/>
<polygon fill="midnightblue" stroke="midnightblue" points="355.033,-86.1662 356.976,-75.7511 348.962,-82.6811 355.033,-86.1662"/>
</g>
<!-- Node16 -->
<g id="node16" class="node"><title>Node16</title>
<polygon fill="none" stroke="#bfbfbf" points="284,-56.5 284,-75.5 316,-75.5 316,-56.5 284,-56.5"/>
<text text-anchor="middle" x="300" y="-63.5" font-family="Helvetica,sans-Serif" font-size="10.00">list</text>
</g>
<!-- Node13&#45;&gt;Node16 -->
<g id="edge18" class="edge"><title>Node13&#45;&gt;Node16</title>
<path fill="none" stroke="midnightblue" d="M325.881,-112.083C321.592,-104.613 315.342,-93.7244 310.058,-84.5199"/>
<polygon fill="midnightblue" stroke="midnightblue" points="313.038,-82.6811 305.024,-75.7511 306.967,-86.1662 313.038,-82.6811"/>
</g>
<!-- Node19&#45;&gt;Node2 -->
<g id="edge22" class="edge"><title>Node19&#45;&gt;Node2</title>
<path fill="none" stroke="midnightblue" d="M68.1555,-230.058C175.582,-220.806 506.252,-192.328 621.16,-182.431"/>
<polygon fill="midnightblue" stroke="midnightblue" points="621.615,-185.905 631.278,-181.56 621.014,-178.931 621.615,-185.905"/>
</g>
<!-- Node19&#45;&gt;Node6 -->
<g id="edge23" class="edge"><title>Node19&#45;&gt;Node6</title>
<path fill="none" stroke="midnightblue" d="M28.4199,-224.443C20.4303,-211.002 8.04799,-184.752 21,-168 37.6861,-146.418 113.043,-133.256 158.618,-127.128"/>
<polygon fill="midnightblue" stroke="midnightblue" points="159.218,-130.579 168.685,-125.823 158.318,-123.637 159.218,-130.579"/>
</g>
<!-- Node20 -->
<g id="node20" class="node"><title>Node20</title>
<polygon fill="none" stroke="#bfbfbf" points="30,-168.5 30,-187.5 68,-187.5 68,-168.5 30,-168.5"/>
<text text-anchor="middle" x="49" y="-175.5" font-family="Helvetica,sans-Serif" font-size="10.00">tcl.h</text>
</g>
<!-- Node19&#45;&gt;Node20 -->
<g id="edge24" class="edge"><title>Node19&#45;&gt;Node20</title>
<path fill="none" stroke="midnightblue" d="M36.4769,-224.083C38.4865,-216.849 41.3865,-206.409 43.8898,-197.397"/>
<polygon fill="midnightblue" stroke="midnightblue" points="47.2649,-198.323 46.5691,-187.751 40.5203,-196.449 47.2649,-198.323"/>
</g>
<!-- Node22 -->
<g id="node22" class="node"><title>Node22</title>
<g id="a_node22"><a xlink:href="statistics_8hpp.html" target="_top" xlink:title="This file contains the code for statistics on the data. ">
<polygon fill="none" stroke="black" points="658,-392.5 658,-411.5 740,-411.5 740,-392.5 658,-392.5"/>
<text text-anchor="middle" x="699" y="-399.5" font-family="Helvetica,sans-Serif" font-size="10.00">statistics.hpp</text>
</a>
</g>
</g>
<!-- Node21&#45;&gt;Node22 -->
<g id="edge26" class="edge"><title>Node21&#45;&gt;Node22</title>
<path fill="none" stroke="midnightblue" d="M976.703,-450.91C921.425,-441.374 814.166,-422.869 750.338,-411.857"/>
<polygon fill="midnightblue" stroke="midnightblue" points="750.548,-408.342 740.099,-410.091 749.358,-415.24 750.548,-408.342"/>
</g>
<!-- Node36 -->
<g id="node36" class="node"><title>Node36</title>
<g id="a_node36"><a xlink:href="ActorList_8hpp.html" target="_top" xlink:title="actor/ActorList.hpp">
<polygon fill="none" stroke="black" points="977,-336.5 977,-355.5 1085,-355.5 1085,-336.5 977,-336.5"/>
<text text-anchor="middle" x="1031" y="-343.5" font-family="Helvetica,sans-Serif" font-size="10.00">actor/ActorList.hpp</text>
</a>
</g>
</g>
<!-- Node21&#45;&gt;Node36 -->
<g id="edge54" class="edge"><title>Node21&#45;&gt;Node36</title>
<path fill="none" stroke="midnightblue" d="M1013.49,-448.368C1016.56,-430.617 1023.63,-389.666 1027.79,-365.597"/>
<polygon fill="midnightblue" stroke="midnightblue" points="1031.26,-366.041 1029.52,-355.591 1024.36,-364.85 1031.26,-366.041"/>
</g>
<!-- Node22&#45;&gt;Node2 -->
<g id="edge50" class="edge"><title>Node22&#45;&gt;Node2</title>
<path fill="none" stroke="midnightblue" d="M703.227,-392.322C715.602,-365.596 749.101,-282.795 720,-224 713.397,-210.659 700.735,-200.194 688.829,-192.726"/>
<polygon fill="midnightblue" stroke="midnightblue" points="690.391,-189.587 679.984,-187.602 686.882,-195.643 690.391,-189.587"/>
</g>
<!-- Node22&#45;&gt;Node14 -->
<g id="edge52" class="edge"><title>Node22&#45;&gt;Node14</title>
<path fill="none" stroke="midnightblue" d="M657.553,-395.64C521.319,-377.748 96,-319.599 96,-291 96,-291 96,-291 96,-177 96,-134.658 136.439,-99.6551 163.104,-81.1778"/>
<polygon fill="midnightblue" stroke="midnightblue" points="165.158,-84.0152 171.54,-75.5584 161.277,-78.1893 165.158,-84.0152"/>
</g>
<!-- Node22&#45;&gt;Node17 -->
<g id="edge27" class="edge"><title>Node22&#45;&gt;Node17</title>
<path fill="none" stroke="midnightblue" d="M740.127,-397.867C801.778,-390.679 911,-367.192 911,-291 911,-291 911,-291 911,-233 911,-200.576 916.639,-163.146 920.49,-141.369"/>
<polygon fill="midnightblue" stroke="midnightblue" points="923.935,-141.985 922.3,-131.517 917.05,-140.72 923.935,-141.985"/>
</g>
<!-- Node23 -->
<g id="node23" class="node"><title>Node23</title>
<g id="a_node23"><a xlink:href="grid_8hpp.html" target="_top" xlink:title="Domain decomposition for parallel computing. ">
<polygon fill="none" stroke="black" points="404,-336.5 404,-355.5 460,-355.5 460,-336.5 404,-336.5"/>
<text text-anchor="middle" x="432" y="-343.5" font-family="Helvetica,sans-Serif" font-size="10.00">grid.hpp</text>
</a>
</g>
</g>
<!-- Node22&#45;&gt;Node23 -->
<g id="edge28" class="edge"><title>Node22&#45;&gt;Node23</title>
<path fill="none" stroke="midnightblue" d="M657.866,-392.681C606.654,-382.323 519.872,-364.772 470.109,-354.707"/>
<polygon fill="midnightblue" stroke="midnightblue" points="470.573,-351.231 460.078,-352.679 469.186,-358.092 470.573,-351.231"/>
</g>
<!-- Node26 -->
<g id="node26" class="node"><title>Node26</title>
<g id="a_node26"><a xlink:href="particle__data_8hpp.html" target="_top" xlink:title="For more information on particle_data, see particle_data.c. ">
<polygon fill="none" stroke="black" points="610.5,-224.5 610.5,-243.5 711.5,-243.5 711.5,-224.5 610.5,-224.5"/>
<text text-anchor="middle" x="661" y="-231.5" font-family="Helvetica,sans-Serif" font-size="10.00">particle_data.hpp</text>
</a>
</g>
</g>
<!-- Node22&#45;&gt;Node26 -->
<g id="edge46" class="edge"><title>Node22&#45;&gt;Node26</title>
<path fill="none" stroke="midnightblue" d="M696.957,-392.075C690.975,-365.945 673.41,-289.211 665.253,-253.577"/>
<polygon fill="midnightblue" stroke="midnightblue" points="668.605,-252.535 662.961,-243.568 661.781,-254.097 668.605,-252.535"/>
</g>
<!-- Node28 -->
<g id="node28" class="node"><title>Node28</title>
<g id="a_node28"><a xlink:href="topology_8hpp.html" target="_top" xlink:title="This file contains functions for handling the system topology. ">
<polygon fill="none" stroke="black" points="513.5,-224.5 513.5,-243.5 592.5,-243.5 592.5,-224.5 513.5,-224.5"/>
<text text-anchor="middle" x="553" y="-231.5" font-family="Helvetica,sans-Serif" font-size="10.00">topology.hpp</text>
</a>
</g>
</g>
<!-- Node22&#45;&gt;Node28 -->
<g id="edge51" class="edge"><title>Node22&#45;&gt;Node28</title>
<path fill="none" stroke="midnightblue" d="M678.989,-392.413C662.715,-384.683 639.92,-372.077 624,-356 593.408,-325.108 570.959,-278.468 560.17,-253.06"/>
<polygon fill="midnightblue" stroke="midnightblue" points="563.311,-251.496 556.271,-243.579 556.838,-254.159 563.311,-251.496"/>
</g>
<!-- Node34 -->
<g id="node34" class="node"><title>Node34</title>
<g id="a_node34"><a xlink:href="interaction__data_8hpp.html" target="_top" xlink:title="Various procedures concerning interactions between particles. ">
<polygon fill="none" stroke="black" points="765.5,-280.5 765.5,-299.5 882.5,-299.5 882.5,-280.5 765.5,-280.5"/>
<text text-anchor="middle" x="824" y="-287.5" font-family="Helvetica,sans-Serif" font-size="10.00">interaction_data.hpp</text>
</a>
</g>
</g>
<!-- Node22&#45;&gt;Node34 -->
<g id="edge47" class="edge"><title>Node22&#45;&gt;Node34</title>
<path fill="none" stroke="midnightblue" d="M709.005,-392.415C719.502,-383.39 736.465,-368.759 751,-356 769.976,-339.342 791.555,-320.089 806.3,-306.886"/>
<polygon fill="midnightblue" stroke="midnightblue" points="809.011,-309.157 814.121,-299.876 804.338,-303.944 809.011,-309.157"/>
</g>
<!-- Node35 -->
<g id="node35" class="node"><title>Node35</title>
<polygon fill="none" stroke="#bfbfbf" points="633,-336.5 633,-355.5 671,-355.5 671,-336.5 633,-336.5"/>
<text text-anchor="middle" x="652" y="-343.5" font-family="Helvetica,sans-Serif" font-size="10.00">map</text>
</g>
<!-- Node22&#45;&gt;Node35 -->
<g id="edge53" class="edge"><title>Node22&#45;&gt;Node35</title>
<path fill="none" stroke="midnightblue" d="M691.239,-392.083C684.463,-384.298 674.457,-372.801 666.245,-363.367"/>
<polygon fill="midnightblue" stroke="midnightblue" points="668.822,-360.996 659.617,-355.751 663.542,-365.592 668.822,-360.996"/>
</g>
<!-- Node23&#45;&gt;Node2 -->
<g id="edge29" class="edge"><title>Node23&#45;&gt;Node2</title>
<path fill="none" stroke="midnightblue" d="M403.766,-336.991C374.738,-327.079 335.423,-308.008 348,-280 363.347,-245.825 377.305,-240.375 411,-224 479.692,-190.617 569.855,-181.807 621.003,-179.6"/>
<polygon fill="midnightblue" stroke="midnightblue" points="621.438,-183.087 631.303,-179.223 621.182,-176.092 621.438,-183.087"/>
</g>
<!-- Node23&#45;&gt;Node13 -->
<g id="edge45" class="edge"><title>Node23&#45;&gt;Node13</title>
<path fill="none" stroke="midnightblue" d="M403.797,-338.87C382.996,-332.755 355.979,-321.124 342,-300 325.107,-274.474 327.82,-181.818 329.874,-141.714"/>
<polygon fill="midnightblue" stroke="midnightblue" points="333.37,-141.871 330.431,-131.692 326.381,-141.482 333.37,-141.871"/>
</g>
<!-- Node24 -->
<g id="node24" class="node"><title>Node24</title>
<polygon fill="none" stroke="#bfbfbf" points="357,-280.5 357,-299.5 407,-299.5 407,-280.5 357,-280.5"/>
<text text-anchor="middle" x="382" y="-287.5" font-family="Helvetica,sans-Serif" font-size="10.00">climits</text>
</g>
<!-- Node23&#45;&gt;Node24 -->
<g id="edge30" class="edge"><title>Node23&#45;&gt;Node24</title>
<path fill="none" stroke="midnightblue" d="M423.744,-336.083C416.535,-328.298 405.89,-316.801 397.154,-307.367"/>
<polygon fill="midnightblue" stroke="midnightblue" points="399.465,-304.711 390.103,-299.751 394.329,-309.467 399.465,-304.711"/>
</g>
<!-- Node25 -->
<g id="node25" class="node"><title>Node25</title>
<g id="a_node25"><a xlink:href="communication_8hpp.html" target="_top" xlink:title="This file contains the asynchronous MPI communication. ">
<polygon fill="none" stroke="black" points="425.5,-280.5 425.5,-299.5 538.5,-299.5 538.5,-280.5 425.5,-280.5"/>
<text text-anchor="middle" x="482" y="-287.5" font-family="Helvetica,sans-Serif" font-size="10.00">communication.hpp</text>
</a>
</g>
</g>
<!-- Node23&#45;&gt;Node25 -->
<g id="edge31" class="edge"><title>Node23&#45;&gt;Node25</title>
<path fill="none" stroke="midnightblue" d="M440.256,-336.083C447.465,-328.298 458.11,-316.801 466.846,-307.367"/>
<polygon fill="midnightblue" stroke="midnightblue" points="469.671,-309.467 473.897,-299.751 464.535,-304.711 469.671,-309.467"/>
</g>
<!-- Node25&#45;&gt;Node26 -->
<g id="edge32" class="edge"><title>Node25&#45;&gt;Node26</title>
<path fill="none" stroke="midnightblue" d="M510.363,-280.444C540.738,-271.28 589.11,-256.688 622.816,-246.519"/>
<polygon fill="midnightblue" stroke="midnightblue" points="624.207,-249.756 632.77,-243.516 622.185,-243.054 624.207,-249.756"/>
</g>
<!-- Node27 -->
<g id="node27" class="node"><title>Node27</title>
<g id="a_node27"><a xlink:href="random_8hpp.html" target="_top" xlink:title="A random generator. ">
<polygon fill="none" stroke="black" points="420.5,-224.5 420.5,-243.5 495.5,-243.5 495.5,-224.5 420.5,-224.5"/>
<text text-anchor="middle" x="458" y="-231.5" font-family="Helvetica,sans-Serif" font-size="10.00">random.hpp</text>
</a>
</g>
</g>
<!-- Node25&#45;&gt;Node27 -->
<g id="edge34" class="edge"><title>Node25&#45;&gt;Node27</title>
<path fill="none" stroke="midnightblue" d="M478.037,-280.083C474.787,-272.77 470.081,-262.181 466.046,-253.103"/>
<polygon fill="midnightblue" stroke="midnightblue" points="469.149,-251.468 461.889,-243.751 462.752,-254.311 469.149,-251.468"/>
</g>
<!-- Node25&#45;&gt;Node28 -->
<g id="edge36" class="edge"><title>Node25&#45;&gt;Node28</title>
<path fill="none" stroke="midnightblue" d="M493.407,-280.324C504.109,-272.185 520.341,-259.839 533.163,-250.087"/>
<polygon fill="midnightblue" stroke="midnightblue" points="535.544,-252.673 541.385,-243.834 531.307,-247.102 535.544,-252.673"/>
</g>
<!-- Node29 -->
<g id="node29" class="node"><title>Node29</title>
<g id="a_node29"><a xlink:href="mpi_8h.html" target="_top" xlink:title="This is the MPIfake implementation. ">
<polygon fill="none" stroke="black" points="206,-224.5 206,-243.5 250,-243.5 250,-224.5 206,-224.5"/>
<text text-anchor="middle" x="228" y="-231.5" font-family="Helvetica,sans-Serif" font-size="10.00">mpi.h</text>
</a>
</g>
</g>
<!-- Node25&#45;&gt;Node29 -->
<g id="edge38" class="edge"><title>Node25&#45;&gt;Node29</title>
<path fill="none" stroke="midnightblue" d="M441.753,-280.444C391.53,-269.766 306.634,-251.717 260.389,-241.886"/>
<polygon fill="midnightblue" stroke="midnightblue" points="260.83,-238.401 250.321,-239.745 259.374,-245.248 260.83,-238.401"/>
</g>
<!-- Node33 -->
<g id="node33" class="node"><title>Node33</title>
<g id="a_node33"><a xlink:href="cuda__init_8hpp.html" target="_top" xlink:title="cuda_init.hpp">
<polygon fill="none" stroke="black" points="374,-168.5 374,-187.5 456,-187.5 456,-168.5 374,-168.5"/>
<text text-anchor="middle" x="415" y="-175.5" font-family="Helvetica,sans-Serif" font-size="10.00">cuda_init.hpp</text>
</a>
</g>
</g>
<!-- Node25&#45;&gt;Node33 -->
<g id="edge42" class="edge"><title>Node25&#45;&gt;Node33</title>
<path fill="none" stroke="midnightblue" d="M456.839,-280.378C440.581,-273.343 420.707,-261.645 411,-244 403.174,-229.774 405.387,-211.054 408.839,-197.359"/>
<polygon fill="midnightblue" stroke="midnightblue" points="412.235,-198.216 411.704,-187.634 405.52,-196.237 412.235,-198.216"/>
</g>
<!-- Node26&#45;&gt;Node2 -->
<g id="edge33" class="edge"><title>Node26&#45;&gt;Node2</title>
<path fill="none" stroke="midnightblue" d="M661,-224.083C661,-217.006 661,-206.861 661,-197.986"/>
<polygon fill="midnightblue" stroke="midnightblue" points="664.5,-197.751 661,-187.751 657.5,-197.751 664.5,-197.751"/>
</g>
<!-- Node27&#45;&gt;Node2 -->
<g id="edge35" class="edge"><title>Node27&#45;&gt;Node2</title>
<path fill="none" stroke="midnightblue" d="M490.166,-224.444C525.777,-214.971 583.201,-199.695 621.512,-189.504"/>
<polygon fill="midnightblue" stroke="midnightblue" points="622.532,-192.855 631.296,-186.902 620.732,-186.09 622.532,-192.855"/>
</g>
<!-- Node28&#45;&gt;Node2 -->
<g id="edge37" class="edge"><title>Node28&#45;&gt;Node2</title>
<path fill="none" stroke="midnightblue" d="M570.352,-224.324C587.672,-215.664 614.515,-202.242 634.502,-192.249"/>
<polygon fill="midnightblue" stroke="midnightblue" points="636.312,-195.257 643.691,-187.655 633.181,-188.996 636.312,-195.257"/>
</g>
<!-- Node30 -->
<g id="node30" class="node"><title>Node30</title>
<polygon fill="none" stroke="#bfbfbf" points="124.5,-168.5 124.5,-187.5 177.5,-187.5 177.5,-168.5 124.5,-168.5"/>
<text text-anchor="middle" x="151" y="-175.5" font-family="Helvetica,sans-Serif" font-size="10.00">string.h</text>
</g>
<!-- Node29&#45;&gt;Node30 -->
<g id="edge39" class="edge"><title>Node29&#45;&gt;Node30</title>
<path fill="none" stroke="midnightblue" d="M215.629,-224.324C203.842,-216.058 185.868,-203.453 171.864,-193.632"/>
<polygon fill="midnightblue" stroke="midnightblue" points="173.538,-190.531 163.341,-187.655 169.518,-196.262 173.538,-190.531"/>
</g>
<!-- Node31 -->
<g id="node31" class="node"><title>Node31</title>
<polygon fill="none" stroke="#bfbfbf" points="196,-168.5 196,-187.5 246,-187.5 246,-168.5 196,-168.5"/>
<text text-anchor="middle" x="221" y="-175.5" font-family="Helvetica,sans-Serif" font-size="10.00">stdio.h</text>
</g>
<!-- Node29&#45;&gt;Node31 -->
<g id="edge40" class="edge"><title>Node29&#45;&gt;Node31</title>
<path fill="none" stroke="midnightblue" d="M226.844,-224.083C225.916,-216.927 224.582,-206.635 223.423,-197.691"/>
<polygon fill="midnightblue" stroke="midnightblue" points="226.891,-197.218 222.134,-187.751 219.949,-198.118 226.891,-197.218"/>
</g>
<!-- Node32 -->
<g id="node32" class="node"><title>Node32</title>
<polygon fill="none" stroke="#bfbfbf" points="264.5,-168.5 264.5,-187.5 317.5,-187.5 317.5,-168.5 264.5,-168.5"/>
<text text-anchor="middle" x="291" y="-175.5" font-family="Helvetica,sans-Serif" font-size="10.00">stdlib.h</text>
</g>
<!-- Node29&#45;&gt;Node32 -->
<g id="edge41" class="edge"><title>Node29&#45;&gt;Node32</title>
<path fill="none" stroke="midnightblue" d="M238.122,-224.324C247.526,-216.263 261.744,-204.077 273.069,-194.369"/>
<polygon fill="midnightblue" stroke="midnightblue" points="275.379,-196.999 280.694,-187.834 270.823,-191.684 275.379,-196.999"/>
</g>
<!-- Node33&#45;&gt;Node7 -->
<g id="edge43" class="edge"><title>Node33&#45;&gt;Node7</title>
<path fill="none" stroke="midnightblue" d="M415.527,-168.496C416.633,-155.578 419.992,-130.551 430,-112 435.988,-100.901 445.452,-90.57 453.979,-82.6128"/>
<polygon fill="midnightblue" stroke="midnightblue" points="456.552,-85.0104 461.724,-75.7637 451.914,-79.7669 456.552,-85.0104"/>
</g>
<!-- Node33&#45;&gt;Node17 -->
<g id="edge44" class="edge"><title>Node33&#45;&gt;Node17</title>
<path fill="none" stroke="midnightblue" d="M456.181,-175.611C537.622,-172.327 725.031,-162.105 890.486,-131.989"/>
<polygon fill="midnightblue" stroke="midnightblue" points="891.15,-135.425 900.347,-130.165 889.877,-128.542 891.15,-135.425"/>
</g>
<!-- Node34&#45;&gt;Node2 -->
<g id="edge48" class="edge"><title>Node34&#45;&gt;Node2</title>
<path fill="none" stroke="midnightblue" d="M816.081,-280.115C803.787,-266.699 778.919,-241.031 754,-224 734.832,-210.9 711.272,-199.543 692.662,-191.515"/>
<polygon fill="midnightblue" stroke="midnightblue" points="694.005,-188.283 683.43,-187.629 691.289,-194.735 694.005,-188.283"/>
</g>
<!-- Node34&#45;&gt;Node26 -->
<g id="edge49" class="edge"><title>Node34&#45;&gt;Node26</title>
<path fill="none" stroke="midnightblue" d="M798.172,-280.444C770.751,-271.359 727.223,-256.939 696.568,-246.783"/>
<polygon fill="midnightblue" stroke="midnightblue" points="697.3,-243.339 686.707,-243.516 695.099,-249.984 697.3,-243.339"/>
</g>
<!-- Node36&#45;&gt;Node17 -->
<g id="edge55" class="edge"><title>Node36&#45;&gt;Node17</title>
<path fill="none" stroke="midnightblue" d="M1026.81,-336.297C1010.96,-303.425 954.553,-186.391 932.719,-141.09"/>
<polygon fill="midnightblue" stroke="midnightblue" points="935.777,-139.372 928.282,-131.884 929.471,-142.412 935.777,-139.372"/>
</g>
<!-- Node37 -->
<g id="node37" class="node"><title>Node37</title>
<g id="a_node37"><a xlink:href="Actor_8hpp.html" target="_top" xlink:title="Actor.hpp">
<polygon fill="none" stroke="black" points="1029,-280.5 1029,-299.5 1091,-299.5 1091,-280.5 1029,-280.5"/>
<text text-anchor="middle" x="1060" y="-287.5" font-family="Helvetica,sans-Serif" font-size="10.00">Actor.hpp</text>
</a>
</g>
</g>
<!-- Node36&#45;&gt;Node37 -->
<g id="edge56" class="edge"><title>Node36&#45;&gt;Node37</title>
<path fill="none" stroke="midnightblue" d="M1035.79,-336.083C1039.76,-328.691 1045.53,-317.953 1050.43,-308.811"/>
<polygon fill="midnightblue" stroke="midnightblue" points="1053.65,-310.217 1055.3,-299.751 1047.49,-306.905 1053.65,-310.217"/>
</g>
<!-- Node38 -->
<g id="node38" class="node"><title>Node38</title>
<g id="a_node38"><a xlink:href="SystemInterface_8hpp.html" target="_top" xlink:title="SystemInterface.hpp">
<polygon fill="none" stroke="black" points="1015,-224.5 1015,-243.5 1133,-243.5 1133,-224.5 1015,-224.5"/>
<text text-anchor="middle" x="1074" y="-231.5" font-family="Helvetica,sans-Serif" font-size="10.00">SystemInterface.hpp</text>
</a>
</g>
</g>
<!-- Node37&#45;&gt;Node38 -->
<g id="edge57" class="edge"><title>Node37&#45;&gt;Node38</title>
<path fill="none" stroke="midnightblue" d="M1062.31,-280.083C1064.17,-272.927 1066.84,-262.635 1069.15,-253.691"/>
<polygon fill="midnightblue" stroke="midnightblue" points="1072.61,-254.309 1071.73,-243.751 1065.83,-252.553 1072.61,-254.309"/>
</g>
<!-- Node38&#45;&gt;Node17 -->
<g id="edge61" class="edge"><title>Node38&#45;&gt;Node17</title>
<path fill="none" stroke="midnightblue" d="M1065.49,-224.396C1052.34,-211.346 1025.99,-186.15 1001,-168 984.712,-156.169 965.108,-144.749 949.756,-136.373"/>
<polygon fill="midnightblue" stroke="midnightblue" points="951.282,-133.219 940.816,-131.575 947.972,-139.387 951.282,-133.219"/>
</g>
<!-- Node39 -->
<g id="node39" class="node"><title>Node39</title>
<g id="a_node39"><a xlink:href="Vector_8hpp.html" target="_top" xlink:title="Vector.hpp">
<polygon fill="none" stroke="black" points="1053,-168.5 1053,-187.5 1121,-187.5 1121,-168.5 1053,-168.5"/>
<text text-anchor="middle" x="1087" y="-175.5" font-family="Helvetica,sans-Serif" font-size="10.00">Vector.hpp</text>
</a>
</g>
</g>
<!-- Node38&#45;&gt;Node39 -->
<g id="edge58" class="edge"><title>Node38&#45;&gt;Node39</title>
<path fill="none" stroke="midnightblue" d="M1076.15,-224.083C1077.87,-216.927 1080.35,-206.635 1082.5,-197.691"/>
<polygon fill="midnightblue" stroke="midnightblue" points="1085.96,-198.293 1084.89,-187.751 1079.15,-196.654 1085.96,-198.293"/>
</g>
<!-- Node39&#45;&gt;Node3 -->
<g id="edge60" class="edge"><title>Node39&#45;&gt;Node3</title>
<path fill="none" stroke="midnightblue" d="M1073.18,-168.324C1059.77,-159.9 1039.18,-146.971 1023.41,-137.074"/>
<polygon fill="midnightblue" stroke="midnightblue" points="1025.11,-134.008 1014.78,-131.655 1021.39,-139.936 1025.11,-134.008"/>
</g>
<!-- Node40 -->
<g id="node40" class="node"><title>Node40</title>
<polygon fill="none" stroke="#bfbfbf" points="1055,-112.5 1055,-131.5 1119,-131.5 1119,-112.5 1055,-112.5"/>
<text text-anchor="middle" x="1087" y="-119.5" font-family="Helvetica,sans-Serif" font-size="10.00">algorithm</text>
</g>
<!-- Node39&#45;&gt;Node40 -->
<g id="edge59" class="edge"><title>Node39&#45;&gt;Node40</title>
<path fill="none" stroke="midnightblue" d="M1087,-168.083C1087,-161.006 1087,-150.861 1087,-141.986"/>
<polygon fill="midnightblue" stroke="midnightblue" points="1090.5,-141.751 1087,-131.751 1083.5,-141.751 1090.5,-141.751"/>
</g>
<!-- Node42 -->
<g id="node42" class="node"><title>Node42</title>
<g id="a_node42"><a xlink:href="lattice_8hpp.html" target="_top" xlink:title="Lattice class definition Contains the lattice layout and pointers to the data fields. ">
<polygon fill="none" stroke="black" points="533,-392.5 533,-411.5 601,-411.5 601,-392.5 533,-392.5"/>
<text text-anchor="middle" x="567" y="-399.5" font-family="Helvetica,sans-Serif" font-size="10.00">lattice.hpp</text>
</a>
</g>
</g>
<!-- Node41&#45;&gt;Node42 -->
<g id="edge63" class="edge"><title>Node41&#45;&gt;Node42</title>
<path fill="none" stroke="midnightblue" d="M646.737,-448.324C631.779,-439.822 608.745,-426.729 591.273,-416.797"/>
<polygon fill="midnightblue" stroke="midnightblue" points="592.649,-413.553 582.226,-411.655 589.19,-419.639 592.649,-413.553"/>
</g>
<!-- Node42&#45;&gt;Node23 -->
<g id="edge64" class="edge"><title>Node42&#45;&gt;Node23</title>
<path fill="none" stroke="midnightblue" d="M545.609,-392.444C523.293,-383.517 488.097,-369.439 462.792,-359.317"/>
<polygon fill="midnightblue" stroke="midnightblue" points="463.876,-355.981 453.291,-355.516 461.276,-362.48 463.876,-355.981"/>
</g>
<!-- Node42&#45;&gt;Node26 -->
<g id="edge65" class="edge"><title>Node42&#45;&gt;Node26</title>
<path fill="none" stroke="midnightblue" d="M572.054,-392.075C586.978,-365.719 631.057,-287.878 650.999,-252.661"/>
<polygon fill="midnightblue" stroke="midnightblue" points="654.266,-253.994 656.148,-243.568 648.175,-250.545 654.266,-253.994"/>
</g>
</g>
</svg>
