<?xml version="1.0" encoding="UTF-8" standalone="no"?>
<!DOCTYPE svg PUBLIC "-//W3C//DTD SVG 1.1//EN"
 "http://www.w3.org/Graphics/SVG/1.1/DTD/svg11.dtd">
<!-- Generated by graphviz version 2.38.0 (20140413.2041)
 -->
<!-- Title: energy.hpp Pages: 1 -->
<!--zoomable 476 -->
<svg id="main" version="1.1" xmlns="http://www.w3.org/2000/svg" xmlns:xlink="http://www.w3.org/1999/xlink" xml:space="preserve" onload="init(evt)">
<style type="text/css"><![CDATA[
.edge:hover path { stroke: red; }
.edge:hover polygon { stroke: red; fill: red; }
]]></style>
<script type="text/javascript"><![CDATA[
var edges = document.getElementsByTagName('g');
if (edges && edges.length) {
  for (var i=0;i<edges.length;i++) {
    if (edges[i].id.substr(0,4)=='edge') {
      edges[i].setAttribute('class','edge');
    }
  }
}
]]></script>
        <defs>
                <circle id="rim" cx="0" cy="0" r="7"/>
                <circle id="rim2" cx="0" cy="0" r="3.5"/>
                <g id="zoomPlus">
                        <use xlink:href="#rim" fill="#404040">
                                <set attributeName="fill" to="#808080" begin="zoomplus.mouseover" end="zoomplus.mouseout"/>
                        </use>
                        <path d="M-4,0h8M0,-4v8" fill="none" stroke="white" stroke-width="1.5" pointer-events="none"/>
                </g>
                <g id="zoomMin">
                        <use xlink:href="#rim" fill="#404040">
                                <set attributeName="fill" to="#808080" begin="zoomminus.mouseover" end="zoomminus.mouseout"/>
                        </use>
                        <path d="M-4,0h8" fill="none" stroke="white" stroke-width="1.5" pointer-events="none"/>
                </g>
                <g id="dirArrow">
                        <path fill="none" stroke="white" stroke-width="1.5" d="M0,-3.0v7 M-2.5,-0.5L0,-3.0L2.5,-0.5"/>
                </g>
               <g id="resetDef">
                       <use xlink:href="#rim2" fill="#404040">
                               <set attributeName="fill" to="#808080" begin="reset.mouseover" end="reset.mouseout"/>
                       </use>
               </g>
        </defs>

<script type="text/javascript">
var viewWidth = 957;
var viewHeight = 476;
var sectionId = 'dynsection-0';
</script>
<script xlink:href="svgpan.js"/>
<svg id="graph" class="graph">
<g id="viewport">
<title>energy.hpp</title>
<!-- Node1 -->
<g id="node1" class="node"><title>Node1</title>
<polygon fill="#bfbfbf" stroke="black" points="616.5,-448.5 616.5,-467.5 686.5,-467.5 686.5,-448.5 616.5,-448.5"/>
<text text-anchor="middle" x="651.5" y="-455.5" font-family="Helvetica,sans-Serif" font-size="10.00">energy.hpp</text>
</g>
<!-- Node2 -->
<g id="node2" class="node"><title>Node2</title>
<g id="a_node2"><a xlink:href="statistics_8hpp.html" target="_top" xlink:title="This file contains the code for statistics on the data. ">
<polygon fill="none" stroke="black" points="517.5,-392.5 517.5,-411.5 599.5,-411.5 599.5,-392.5 517.5,-392.5"/>
<text text-anchor="middle" x="558.5" y="-399.5" font-family="Helvetica,sans-Serif" font-size="10.00">statistics.hpp</text>
</a>
</g>
</g>
<!-- Node1&#45;&gt;Node2 -->
<g id="edge1" class="edge"><title>Node1&#45;&gt;Node2</title>
<path fill="none" stroke="midnightblue" d="M636.558,-448.324C621.915,-439.822 599.366,-426.729 582.262,-416.797"/>
<polygon fill="midnightblue" stroke="midnightblue" points="583.81,-413.649 573.405,-411.655 580.295,-419.703 583.81,-413.649"/>
</g>
<!-- Node33 -->
<g id="node33" class="node"><title>Node33</title>
<g id="a_node33"><a xlink:href="ActorList_8hpp.html" target="_top" xlink:title="actor/ActorList.hpp">
<polygon fill="none" stroke="black" points="820.5,-336.5 820.5,-355.5 928.5,-355.5 928.5,-336.5 820.5,-336.5"/>
<text text-anchor="middle" x="874.5" y="-343.5" font-family="Helvetica,sans-Serif" font-size="10.00">actor/ActorList.hpp</text>
</a>
</g>
</g>
<!-- Node1&#45;&gt;Node33 -->
<g id="edge48" class="edge"><title>Node1&#45;&gt;Node33</title>
<path fill="none" stroke="midnightblue" d="M668.998,-448.368C707.917,-429.171 801.839,-382.842 847.996,-360.074"/>
<polygon fill="midnightblue" stroke="midnightblue" points="849.663,-363.154 857.083,-355.591 846.566,-356.876 849.663,-363.154"/>
</g>
<!-- Node3 -->
<g id="node3" class="node"><title>Node3</title>
<polygon fill="none" stroke="#bfbfbf" points="689,-112.5 689,-131.5 736,-131.5 736,-112.5 689,-112.5"/>
<text text-anchor="middle" x="712.5" y="-119.5" font-family="Helvetica,sans-Serif" font-size="10.00">vector</text>
</g>
<!-- Node2&#45;&gt;Node3 -->
<g id="edge2" class="edge"><title>Node2&#45;&gt;Node3</title>
<path fill="none" stroke="midnightblue" d="M570.636,-392.369C592.208,-376.445 637.408,-340.358 663.5,-300 696.472,-248.999 707.505,-175.909 710.993,-141.831"/>
<polygon fill="midnightblue" stroke="midnightblue" points="714.48,-142.136 711.907,-131.858 707.509,-141.497 714.48,-142.136"/>
</g>
<!-- Node4 -->
<g id="node4" class="node"><title>Node4</title>
<g id="a_node4"><a xlink:href="grid_8hpp.html" target="_top" xlink:title="Domain decomposition for parallel computing. ">
<polygon fill="none" stroke="black" points="530.5,-336.5 530.5,-355.5 586.5,-355.5 586.5,-336.5 530.5,-336.5"/>
<text text-anchor="middle" x="558.5" y="-343.5" font-family="Helvetica,sans-Serif" font-size="10.00">grid.hpp</text>
</a>
</g>
</g>
<!-- Node2&#45;&gt;Node4 -->
<g id="edge3" class="edge"><title>Node2&#45;&gt;Node4</title>
<path fill="none" stroke="midnightblue" d="M558.5,-392.083C558.5,-385.006 558.5,-374.861 558.5,-365.986"/>
<polygon fill="midnightblue" stroke="midnightblue" points="562,-365.751 558.5,-355.751 555,-365.751 562,-365.751"/>
</g>
<!-- Node5 -->
<g id="node5" class="node"><title>Node5</title>
<g id="a_node5"><a xlink:href="utils_8hpp.html" target="_top" xlink:title="Small functions that are useful not only for one modul. ">
<polygon fill="none" stroke="black" points="278,-168.5 278,-187.5 337,-187.5 337,-168.5 278,-168.5"/>
<text text-anchor="middle" x="307.5" y="-175.5" font-family="Helvetica,sans-Serif" font-size="10.00">utils.hpp</text>
</a>
</g>
</g>
<!-- Node2&#45;&gt;Node5 -->
<g id="edge44" class="edge"><title>Node2&#45;&gt;Node5</title>
<path fill="none" stroke="midnightblue" d="M539.645,-392.378C521.997,-383.997 495.174,-370.447 473.5,-356 409.479,-313.328 389.094,-304.452 341.5,-244 330.074,-229.488 320.682,-210.557 314.687,-196.871"/>
<polygon fill="midnightblue" stroke="midnightblue" points="317.887,-195.452 310.786,-187.589 311.433,-198.164 317.887,-195.452"/>
</g>
<!-- Node17 -->
<g id="node17" class="node"><title>Node17</title>
<polygon fill="none" stroke="#bfbfbf" points="751.5,-56.5 751.5,-75.5 795.5,-75.5 795.5,-56.5 751.5,-56.5"/>
<text text-anchor="middle" x="773.5" y="-63.5" font-family="Helvetica,sans-Serif" font-size="10.00">string</text>
</g>
<!-- Node2&#45;&gt;Node17 -->
<g id="edge46" class="edge"><title>Node2&#45;&gt;Node17</title>
<path fill="none" stroke="midnightblue" d="M599.69,-397.852C655.279,-392.72 750.071,-380.556 773.5,-356 811.335,-316.345 827.642,-163.72 809.5,-112 805.715,-101.209 798.133,-91.084 790.9,-83.1808"/>
<polygon fill="midnightblue" stroke="midnightblue" points="793.167,-80.4943 783.662,-75.8145 788.174,-85.4005 793.167,-80.4943"/>
</g>
<!-- Node23 -->
<g id="node23" class="node"><title>Node23</title>
<g id="a_node23"><a xlink:href="particle__data_8hpp.html" target="_top" xlink:title="For more information on particle_data, see particle_data.c. ">
<polygon fill="none" stroke="black" points="178,-224.5 178,-243.5 279,-243.5 279,-224.5 178,-224.5"/>
<text text-anchor="middle" x="228.5" y="-231.5" font-family="Helvetica,sans-Serif" font-size="10.00">particle_data.hpp</text>
</a>
</g>
</g>
<!-- Node2&#45;&gt;Node23 -->
<g id="edge40" class="edge"><title>Node2&#45;&gt;Node23</title>
<path fill="none" stroke="midnightblue" d="M517.274,-398.387C452.001,-393.538 328.65,-381.255 293.5,-356 284.238,-349.346 252.523,-285.071 237.083,-253.006"/>
<polygon fill="midnightblue" stroke="midnightblue" points="240.169,-251.347 232.691,-243.841 233.856,-254.372 240.169,-251.347"/>
</g>
<!-- Node25 -->
<g id="node25" class="node"><title>Node25</title>
<g id="a_node25"><a xlink:href="topology_8hpp.html" target="_top" xlink:title="This file contains functions for handling the system topology. ">
<polygon fill="none" stroke="black" points="374,-224.5 374,-243.5 453,-243.5 453,-224.5 374,-224.5"/>
<text text-anchor="middle" x="413.5" y="-231.5" font-family="Helvetica,sans-Serif" font-size="10.00">topology.hpp</text>
</a>
</g>
</g>
<!-- Node2&#45;&gt;Node25 -->
<g id="edge45" class="edge"><title>Node2&#45;&gt;Node25</title>
<path fill="none" stroke="midnightblue" d="M545.363,-392.454C521.958,-376.665 472.678,-340.784 442.5,-300 431.945,-285.735 424.106,-267.019 419.257,-253.336"/>
<polygon fill="midnightblue" stroke="midnightblue" points="422.501,-252 416.015,-243.622 415.861,-254.216 422.501,-252"/>
</g>
<!-- Node31 -->
<g id="node31" class="node"><title>Node31</title>
<g id="a_node31"><a xlink:href="interaction__data_8hpp.html" target="_top" xlink:title="Various procedures concerning interactions between particles. ">
<polygon fill="none" stroke="black" points="124,-280.5 124,-299.5 241,-299.5 241,-280.5 124,-280.5"/>
<text text-anchor="middle" x="182.5" y="-287.5" font-family="Helvetica,sans-Serif" font-size="10.00">interaction_data.hpp</text>
</a>
</g>
</g>
<!-- Node2&#45;&gt;Node31 -->
<g id="edge41" class="edge"><title>Node2&#45;&gt;Node31</title>
<path fill="none" stroke="midnightblue" d="M517.308,-397.813C445.622,-391.786 301.204,-377.375 255.5,-356 231.376,-344.718 209.396,-322.84 195.996,-307.598"/>
<polygon fill="midnightblue" stroke="midnightblue" points="198.618,-305.278 189.476,-299.923 193.283,-309.81 198.618,-305.278"/>
</g>
<!-- Node32 -->
<g id="node32" class="node"><title>Node32</title>
<polygon fill="none" stroke="#bfbfbf" points="726.5,-336.5 726.5,-355.5 764.5,-355.5 764.5,-336.5 726.5,-336.5"/>
<text text-anchor="middle" x="745.5" y="-343.5" font-family="Helvetica,sans-Serif" font-size="10.00">map</text>
</g>
<!-- Node2&#45;&gt;Node32 -->
<g id="edge47" class="edge"><title>Node2&#45;&gt;Node32</title>
<path fill="none" stroke="midnightblue" d="M588.131,-392.444C623.223,-382.31 681.309,-365.537 716.239,-355.45"/>
<polygon fill="midnightblue" stroke="midnightblue" points="717.648,-358.686 726.285,-352.549 715.706,-351.961 717.648,-358.686"/>
</g>
<!-- Node4&#45;&gt;Node5 -->
<g id="edge4" class="edge"><title>Node4&#45;&gt;Node5</title>
<path fill="none" stroke="midnightblue" d="M530.916,-336.496C506.853,-328.569 471.371,-315.636 442.5,-300 404.974,-279.676 396.107,-272.674 364.5,-244 347.904,-228.944 331.279,-209.342 320.303,-195.617"/>
<polygon fill="midnightblue" stroke="midnightblue" points="322.895,-193.251 313.963,-187.553 317.392,-197.577 322.895,-193.251"/>
</g>
<!-- Node16 -->
<g id="node16" class="node"><title>Node16</title>
<g id="a_node16"><a xlink:href="errorhandling_8hpp.html" target="_top" xlink:title="This file contains the errorhandling code for severe errors, like a broken bond or illegal parameter ...">
<polygon fill="none" stroke="black" points="568,-112.5 568,-131.5 671,-131.5 671,-112.5 568,-112.5"/>
<text text-anchor="middle" x="619.5" y="-119.5" font-family="Helvetica,sans-Serif" font-size="10.00">errorhandling.hpp</text>
</a>
</g>
</g>
<!-- Node4&#45;&gt;Node16 -->
<g id="edge39" class="edge"><title>Node4&#45;&gt;Node16</title>
<path fill="none" stroke="midnightblue" d="M586.536,-337.416C605.497,-330.763 629.39,-319.094 642.5,-300 675.893,-251.364 676.401,-223.538 656.5,-168 652.559,-157.003 644.643,-146.769 637.14,-138.848"/>
<polygon fill="midnightblue" stroke="midnightblue" points="639.519,-136.278 629.938,-131.755 634.608,-141.266 639.519,-136.278"/>
</g>
<!-- Node21 -->
<g id="node21" class="node"><title>Node21</title>
<polygon fill="none" stroke="#bfbfbf" points="583.5,-280.5 583.5,-299.5 633.5,-299.5 633.5,-280.5 583.5,-280.5"/>
<text text-anchor="middle" x="608.5" y="-287.5" font-family="Helvetica,sans-Serif" font-size="10.00">climits</text>
</g>
<!-- Node4&#45;&gt;Node21 -->
<g id="edge24" class="edge"><title>Node4&#45;&gt;Node21</title>
<path fill="none" stroke="midnightblue" d="M566.756,-336.083C573.965,-328.298 584.61,-316.801 593.346,-307.367"/>
<polygon fill="midnightblue" stroke="midnightblue" points="596.171,-309.467 600.397,-299.751 591.035,-304.711 596.171,-309.467"/>
</g>
<!-- Node22 -->
<g id="node22" class="node"><title>Node22</title>
<g id="a_node22"><a xlink:href="communication_8hpp.html" target="_top" xlink:title="This file contains the asynchronous MPI communication. ">
<polygon fill="none" stroke="black" points="452,-280.5 452,-299.5 565,-299.5 565,-280.5 452,-280.5"/>
<text text-anchor="middle" x="508.5" y="-287.5" font-family="Helvetica,sans-Serif" font-size="10.00">communication.hpp</text>
</a>
</g>
</g>
<!-- Node4&#45;&gt;Node22 -->
<g id="edge25" class="edge"><title>Node4&#45;&gt;Node22</title>
<path fill="none" stroke="midnightblue" d="M550.244,-336.083C543.035,-328.298 532.39,-316.801 523.654,-307.367"/>
<polygon fill="midnightblue" stroke="midnightblue" points="525.965,-304.711 516.603,-299.751 520.829,-309.467 525.965,-304.711"/>
</g>
<!-- Node5&#45;&gt;Node3 -->
<g id="edge22" class="edge"><title>Node5&#45;&gt;Node3</title>
<path fill="none" stroke="midnightblue" d="M337.298,-169.57C340.062,-168.994 342.827,-168.459 345.5,-168 489.491,-143.288 531.019,-159.019 678.914,-131.8"/>
<polygon fill="midnightblue" stroke="midnightblue" points="679.628,-135.227 688.812,-129.944 678.338,-128.347 679.628,-135.227"/>
</g>
<!-- Node6 -->
<g id="node6" class="node"><title>Node6</title>
<polygon fill="none" stroke="#bfbfbf" points="754,-112.5 754,-131.5 801,-131.5 801,-112.5 754,-112.5"/>
<text text-anchor="middle" x="777.5" y="-119.5" font-family="Helvetica,sans-Serif" font-size="10.00">cmath</text>
</g>
<!-- Node5&#45;&gt;Node6 -->
<g id="edge5" class="edge"><title>Node5&#45;&gt;Node6</title>
<path fill="none" stroke="midnightblue" d="M337.29,-169.521C340.055,-168.955 342.823,-168.435 345.5,-168 518.068,-139.926 567.487,-162.692 743.95,-131.757"/>
<polygon fill="midnightblue" stroke="midnightblue" points="744.592,-135.198 753.821,-129.995 743.362,-128.307 744.592,-135.198"/>
</g>
<!-- Node7 -->
<g id="node7" class="node"><title>Node7</title>
<polygon fill="none" stroke="#bfbfbf" points="83.5,-112.5 83.5,-131.5 129.5,-131.5 129.5,-112.5 83.5,-112.5"/>
<text text-anchor="middle" x="106.5" y="-119.5" font-family="Helvetica,sans-Serif" font-size="10.00">cstdio</text>
</g>
<!-- Node5&#45;&gt;Node7 -->
<g id="edge6" class="edge"><title>Node5&#45;&gt;Node7</title>
<path fill="none" stroke="midnightblue" d="M277.854,-169.24C245.995,-160.871 193.623,-147.03 139.353,-132.207"/>
<polygon fill="midnightblue" stroke="midnightblue" points="140.131,-128.791 129.561,-129.527 138.283,-135.543 140.131,-128.791"/>
</g>
<!-- Node8 -->
<g id="node8" class="node"><title>Node8</title>
<polygon fill="none" stroke="#bfbfbf" points="148,-112.5 148,-131.5 197,-131.5 197,-112.5 148,-112.5"/>
<text text-anchor="middle" x="172.5" y="-119.5" font-family="Helvetica,sans-Serif" font-size="10.00">cstdlib</text>
</g>
<!-- Node5&#45;&gt;Node8 -->
<g id="edge7" class="edge"><title>Node5&#45;&gt;Node8</title>
<path fill="none" stroke="midnightblue" d="M286.109,-168.444C263.793,-159.517 228.597,-145.439 203.292,-135.317"/>
<polygon fill="midnightblue" stroke="midnightblue" points="204.376,-131.981 193.791,-131.516 201.776,-138.48 204.376,-131.981"/>
</g>
<!-- Node9 -->
<g id="node9" class="node"><title>Node9</title>
<polygon fill="none" stroke="#bfbfbf" points="215.5,-112.5 215.5,-131.5 265.5,-131.5 265.5,-112.5 215.5,-112.5"/>
<text text-anchor="middle" x="240.5" y="-119.5" font-family="Helvetica,sans-Serif" font-size="10.00">cstring</text>
</g>
<!-- Node5&#45;&gt;Node9 -->
<g id="edge8" class="edge"><title>Node5&#45;&gt;Node9</title>
<path fill="none" stroke="midnightblue" d="M296.735,-168.324C286.734,-160.263 271.613,-148.077 259.57,-138.369"/>
<polygon fill="midnightblue" stroke="midnightblue" points="261.443,-135.384 251.461,-131.834 257.05,-140.834 261.443,-135.384"/>
</g>
<!-- Node10 -->
<g id="node10" class="node"><title>Node10</title>
<g id="a_node10"><a xlink:href="config_8hpp.html" target="_top" xlink:title="This file contains the defaults for Espresso. ">
<polygon fill="none" stroke="black" points="468,-56.5 468,-75.5 535,-75.5 535,-56.5 468,-56.5"/>
<text text-anchor="middle" x="501.5" y="-63.5" font-family="Helvetica,sans-Serif" font-size="10.00">config.hpp</text>
</a>
</g>
</g>
<!-- Node5&#45;&gt;Node10 -->
<g id="edge9" class="edge"><title>Node5&#45;&gt;Node10</title>
<path fill="none" stroke="midnightblue" d="M337.03,-169.8C386.218,-157.753 479.844,-134.57 482.5,-132 494.899,-120 499.326,-100.395 500.847,-85.8495"/>
<polygon fill="midnightblue" stroke="midnightblue" points="504.363,-85.7225 501.54,-75.5108 497.379,-85.2542 504.363,-85.7225"/>
</g>
<!-- Node14 -->
<g id="node14" class="node"><title>Node14</title>
<g id="a_node14"><a xlink:href="debug_8hpp.html" target="_top" xlink:title="This file controls debug facilities. ">
<polygon fill="none" stroke="black" points="283.5,-112.5 283.5,-131.5 351.5,-131.5 351.5,-112.5 283.5,-112.5"/>
<text text-anchor="middle" x="317.5" y="-119.5" font-family="Helvetica,sans-Serif" font-size="10.00">debug.hpp</text>
</a>
</g>
</g>
<!-- Node5&#45;&gt;Node14 -->
<g id="edge13" class="edge"><title>Node5&#45;&gt;Node14</title>
<path fill="none" stroke="midnightblue" d="M309.151,-168.083C310.476,-160.927 312.382,-150.635 314.039,-141.691"/>
<polygon fill="midnightblue" stroke="midnightblue" points="317.5,-142.221 315.879,-131.751 310.617,-140.947 317.5,-142.221"/>
</g>
<!-- Node15 -->
<g id="node15" class="node"><title>Node15</title>
<g id="a_node15"><a xlink:href="lees__edwards_8hpp.html" target="_top" xlink:title="lees_edwards.hpp">
<polygon fill="none" stroke="black" points="369.5,-112.5 369.5,-131.5 473.5,-131.5 473.5,-112.5 369.5,-112.5"/>
<text text-anchor="middle" x="421.5" y="-119.5" font-family="Helvetica,sans-Serif" font-size="10.00">lees_edwards.hpp</text>
</a>
</g>
</g>
<!-- Node5&#45;&gt;Node15 -->
<g id="edge15" class="edge"><title>Node5&#45;&gt;Node15</title>
<path fill="none" stroke="midnightblue" d="M325.564,-168.444C344.075,-159.675 373.081,-145.935 394.355,-135.858"/>
<polygon fill="midnightblue" stroke="midnightblue" points="395.982,-138.96 403.521,-131.516 392.985,-132.634 395.982,-138.96"/>
</g>
<!-- Node5&#45;&gt;Node16 -->
<g id="edge17" class="edge"><title>Node5&#45;&gt;Node16</title>
<path fill="none" stroke="midnightblue" d="M337.328,-169.728C340.085,-169.118 342.841,-168.533 345.5,-168 418.032,-153.473 502.058,-140.193 557.738,-131.885"/>
<polygon fill="midnightblue" stroke="midnightblue" points="558.418,-135.322 567.795,-130.392 557.39,-128.398 558.418,-135.322"/>
</g>
<!-- Node20 -->
<g id="node20" class="node"><title>Node20</title>
<polygon fill="none" stroke="#bfbfbf" points="0,-112.5 0,-131.5 65,-131.5 65,-112.5 0,-112.5"/>
<text text-anchor="middle" x="32.5" y="-119.5" font-family="Helvetica,sans-Serif" font-size="10.00">exception</text>
</g>
<!-- Node5&#45;&gt;Node20 -->
<g id="edge23" class="edge"><title>Node5&#45;&gt;Node20</title>
<path fill="none" stroke="midnightblue" d="M277.669,-171.439C235.132,-163.467 154.348,-148.165 75.1903,-132.106"/>
<polygon fill="midnightblue" stroke="midnightblue" points="75.5428,-128.606 65.0457,-130.042 74.1471,-135.466 75.5428,-128.606"/>
</g>
<!-- Node11 -->
<g id="node11" class="node"><title>Node11</title>
<g id="a_node11"><a xlink:href="acconfig_8hpp.html" target="_top" xlink:title="acconfig.hpp">
<polygon fill="none" stroke="black" points="351.5,-0.5 351.5,-19.5 429.5,-19.5 429.5,-0.5 351.5,-0.5"/>
<text text-anchor="middle" x="390.5" y="-7.5" font-family="Helvetica,sans-Serif" font-size="10.00">acconfig.hpp</text>
</a>
</g>
</g>
<!-- Node10&#45;&gt;Node11 -->
<g id="edge10" class="edge"><title>Node10&#45;&gt;Node11</title>
<path fill="none" stroke="midnightblue" d="M483.666,-56.324C465.784,-47.6247 438.025,-34.1202 417.454,-24.113"/>
<polygon fill="midnightblue" stroke="midnightblue" points="418.813,-20.8819 408.29,-19.6545 415.751,-27.1765 418.813,-20.8819"/>
</g>
<!-- Node12 -->
<g id="node12" class="node"><title>Node12</title>
<g id="a_node12"><a xlink:href="myconfig-final_8hpp.html" target="_top" xlink:title="myconfig&#45;final.hpp">
<polygon fill="none" stroke="black" points="448,-0.5 448,-19.5 555,-19.5 555,-0.5 448,-0.5"/>
<text text-anchor="middle" x="501.5" y="-7.5" font-family="Helvetica,sans-Serif" font-size="10.00">myconfig&#45;final.hpp</text>
</a>
</g>
</g>
<!-- Node10&#45;&gt;Node12 -->
<g id="edge11" class="edge"><title>Node10&#45;&gt;Node12</title>
<path fill="none" stroke="midnightblue" d="M501.5,-56.083C501.5,-49.0059 501.5,-38.8611 501.5,-29.9865"/>
<polygon fill="midnightblue" stroke="midnightblue" points="505,-29.751 501.5,-19.7511 498,-29.7511 505,-29.751"/>
</g>
<!-- Node13 -->
<g id="node13" class="node"><title>Node13</title>
<g id="a_node13"><a xlink:href="config-features_8hpp.html" target="_top" xlink:title="config&#45;features.hpp">
<polygon fill="none" stroke="black" points="573,-0.5 573,-19.5 684,-19.5 684,-0.5 573,-0.5"/>
<text text-anchor="middle" x="628.5" y="-7.5" font-family="Helvetica,sans-Serif" font-size="10.00">config&#45;features.hpp</text>
</a>
</g>
</g>
<!-- Node10&#45;&gt;Node13 -->
<g id="edge12" class="edge"><title>Node10&#45;&gt;Node13</title>
<path fill="none" stroke="midnightblue" d="M521.624,-56.4435C542.524,-47.5566 575.435,-33.5632 599.216,-23.4514"/>
<polygon fill="midnightblue" stroke="midnightblue" points="600.638,-26.6504 608.471,-19.5164 597.898,-20.2085 600.638,-26.6504"/>
</g>
<!-- Node14&#45;&gt;Node10 -->
<g id="edge14" class="edge"><title>Node14&#45;&gt;Node10</title>
<path fill="none" stroke="midnightblue" d="M346.655,-112.444C378.013,-103.241 428.031,-88.5617 462.697,-78.3879"/>
<polygon fill="midnightblue" stroke="midnightblue" points="463.871,-81.6909 472.481,-75.5164 461.9,-74.9742 463.871,-81.6909"/>
</g>
<!-- Node15&#45;&gt;Node10 -->
<g id="edge16" class="edge"><title>Node15&#45;&gt;Node10</title>
<path fill="none" stroke="midnightblue" d="M434.353,-112.324C446.716,-103.979 465.63,-91.2122 480.237,-81.3524"/>
<polygon fill="midnightblue" stroke="midnightblue" points="482.348,-84.1503 488.679,-75.6545 478.432,-78.3483 482.348,-84.1503"/>
</g>
<!-- Node16&#45;&gt;Node10 -->
<g id="edge18" class="edge"><title>Node16&#45;&gt;Node10</title>
<path fill="none" stroke="midnightblue" d="M600.803,-112.444C581.556,-103.636 551.348,-89.8116 529.3,-79.722"/>
<polygon fill="midnightblue" stroke="midnightblue" points="530.66,-76.4951 520.11,-75.5164 527.747,-82.8603 530.66,-76.4951"/>
</g>
<!-- Node16&#45;&gt;Node17 -->
<g id="edge19" class="edge"><title>Node16&#45;&gt;Node17</title>
<path fill="none" stroke="midnightblue" d="M643.902,-112.444C670.304,-103.186 712.509,-88.3866 741.54,-78.2066"/>
<polygon fill="midnightblue" stroke="midnightblue" points="742.934,-81.427 751.212,-74.8151 740.618,-74.8213 742.934,-81.427"/>
</g>
<!-- Node18 -->
<g id="node18" class="node"><title>Node18</title>
<polygon fill="none" stroke="#bfbfbf" points="572.5,-56.5 572.5,-75.5 628.5,-75.5 628.5,-56.5 572.5,-56.5"/>
<text text-anchor="middle" x="600.5" y="-63.5" font-family="Helvetica,sans-Serif" font-size="10.00">sstream</text>
</g>
<!-- Node16&#45;&gt;Node18 -->
<g id="edge20" class="edge"><title>Node16&#45;&gt;Node18</title>
<path fill="none" stroke="midnightblue" d="M616.363,-112.083C613.817,-104.849 610.144,-94.4087 606.973,-85.3968"/>
<polygon fill="midnightblue" stroke="midnightblue" points="610.2,-84.0225 603.579,-75.7511 603.597,-86.3459 610.2,-84.0225"/>
</g>
<!-- Node19 -->
<g id="node19" class="node"><title>Node19</title>
<polygon fill="none" stroke="#bfbfbf" points="646.5,-56.5 646.5,-75.5 678.5,-75.5 678.5,-56.5 646.5,-56.5"/>
<text text-anchor="middle" x="662.5" y="-63.5" font-family="Helvetica,sans-Serif" font-size="10.00">list</text>
</g>
<!-- Node16&#45;&gt;Node19 -->
<g id="edge21" class="edge"><title>Node16&#45;&gt;Node19</title>
<path fill="none" stroke="midnightblue" d="M626.601,-112.083C632.737,-104.377 641.77,-93.0333 649.239,-83.6531"/>
<polygon fill="midnightblue" stroke="midnightblue" points="652.04,-85.7542 655.532,-75.7511 646.564,-81.3936 652.04,-85.7542"/>
</g>
<!-- Node22&#45;&gt;Node23 -->
<g id="edge26" class="edge"><title>Node22&#45;&gt;Node23</title>
<path fill="none" stroke="midnightblue" d="M464.133,-280.444C414.878,-270.944 335.372,-255.611 282.529,-245.42"/>
<polygon fill="midnightblue" stroke="midnightblue" points="283.141,-241.974 272.659,-243.516 281.816,-248.847 283.141,-241.974"/>
</g>
<!-- Node24 -->
<g id="node24" class="node"><title>Node24</title>
<g id="a_node24"><a xlink:href="random_8hpp.html" target="_top" xlink:title="A random generator. ">
<polygon fill="none" stroke="black" points="471,-224.5 471,-243.5 546,-243.5 546,-224.5 471,-224.5"/>
<text text-anchor="middle" x="508.5" y="-231.5" font-family="Helvetica,sans-Serif" font-size="10.00">random.hpp</text>
</a>
</g>
</g>
<!-- Node22&#45;&gt;Node24 -->
<g id="edge28" class="edge"><title>Node22&#45;&gt;Node24</title>
<path fill="none" stroke="midnightblue" d="M508.5,-280.083C508.5,-273.006 508.5,-262.861 508.5,-253.986"/>
<polygon fill="midnightblue" stroke="midnightblue" points="512,-253.751 508.5,-243.751 505,-253.751 512,-253.751"/>
</g>
<!-- Node22&#45;&gt;Node25 -->
<g id="edge30" class="edge"><title>Node22&#45;&gt;Node25</title>
<path fill="none" stroke="midnightblue" d="M493.237,-280.324C478.279,-271.822 455.245,-258.729 437.773,-248.797"/>
<polygon fill="midnightblue" stroke="midnightblue" points="439.149,-245.553 428.726,-243.655 435.69,-251.639 439.149,-245.553"/>
</g>
<!-- Node26 -->
<g id="node26" class="node"><title>Node26</title>
<g id="a_node26"><a xlink:href="mpi_8h.html" target="_top" xlink:title="This is the MPIfake implementation. ">
<polygon fill="none" stroke="black" points="563.5,-224.5 563.5,-243.5 607.5,-243.5 607.5,-224.5 563.5,-224.5"/>
<text text-anchor="middle" x="585.5" y="-231.5" font-family="Helvetica,sans-Serif" font-size="10.00">mpi.h</text>
</a>
</g>
</g>
<!-- Node22&#45;&gt;Node26 -->
<g id="edge32" class="edge"><title>Node22&#45;&gt;Node26</title>
<path fill="none" stroke="midnightblue" d="M520.871,-280.324C532.658,-272.058 550.632,-259.453 564.636,-249.632"/>
<polygon fill="midnightblue" stroke="midnightblue" points="566.982,-252.262 573.159,-243.655 562.962,-246.531 566.982,-252.262"/>
</g>
<!-- Node30 -->
<g id="node30" class="node"><title>Node30</title>
<g id="a_node30"><a xlink:href="cuda__init_8hpp.html" target="_top" xlink:title="cuda_init.hpp">
<polygon fill="none" stroke="black" points="565.5,-168.5 565.5,-187.5 647.5,-187.5 647.5,-168.5 565.5,-168.5"/>
<text text-anchor="middle" x="606.5" y="-175.5" font-family="Helvetica,sans-Serif" font-size="10.00">cuda_init.hpp</text>
</a>
</g>
</g>
<!-- Node22&#45;&gt;Node30 -->
<g id="edge36" class="edge"><title>Node22&#45;&gt;Node30</title>
<path fill="none" stroke="midnightblue" d="M560.03,-280.44C581.233,-274.104 603.768,-263.098 616.5,-244 625.685,-230.222 621.254,-211.193 615.686,-197.285"/>
<polygon fill="midnightblue" stroke="midnightblue" points="618.717,-195.494 611.413,-187.82 612.337,-198.374 618.717,-195.494"/>
</g>
<!-- Node23&#45;&gt;Node5 -->
<g id="edge27" class="edge"><title>Node23&#45;&gt;Node5</title>
<path fill="none" stroke="midnightblue" d="M241.193,-224.324C253.401,-215.979 272.078,-203.212 286.503,-193.352"/>
<polygon fill="midnightblue" stroke="midnightblue" points="288.558,-196.187 294.839,-187.655 284.608,-190.408 288.558,-196.187"/>
</g>
<!-- Node24&#45;&gt;Node5 -->
<g id="edge29" class="edge"><title>Node24&#45;&gt;Node5</title>
<path fill="none" stroke="midnightblue" d="M476.651,-224.444C441.492,-214.998 384.86,-199.783 346.927,-189.592"/>
<polygon fill="midnightblue" stroke="midnightblue" points="347.8,-186.203 337.234,-186.988 345.984,-192.963 347.8,-186.203"/>
</g>
<!-- Node25&#45;&gt;Node5 -->
<g id="edge31" class="edge"><title>Node25&#45;&gt;Node5</title>
<path fill="none" stroke="midnightblue" d="M396.469,-224.324C379.47,-215.664 353.124,-202.242 333.507,-192.249"/>
<polygon fill="midnightblue" stroke="midnightblue" points="334.988,-189.075 324.488,-187.655 331.81,-195.312 334.988,-189.075"/>
</g>
<!-- Node27 -->
<g id="node27" class="node"><title>Node27</title>
<polygon fill="none" stroke="#bfbfbf" points="426,-168.5 426,-187.5 479,-187.5 479,-168.5 426,-168.5"/>
<text text-anchor="middle" x="452.5" y="-175.5" font-family="Helvetica,sans-Serif" font-size="10.00">string.h</text>
</g>
<!-- Node26&#45;&gt;Node27 -->
<g id="edge33" class="edge"><title>Node26&#45;&gt;Node27</title>
<path fill="none" stroke="midnightblue" d="M564.426,-224.444C542.44,-215.517 507.766,-201.439 482.836,-191.317"/>
<polygon fill="midnightblue" stroke="midnightblue" points="484.058,-188.035 473.476,-187.516 481.424,-194.521 484.058,-188.035"/>
</g>
<!-- Node28 -->
<g id="node28" class="node"><title>Node28</title>
<polygon fill="none" stroke="#bfbfbf" points="497.5,-168.5 497.5,-187.5 547.5,-187.5 547.5,-168.5 497.5,-168.5"/>
<text text-anchor="middle" x="522.5" y="-175.5" font-family="Helvetica,sans-Serif" font-size="10.00">stdio.h</text>
</g>
<!-- Node26&#45;&gt;Node28 -->
<g id="edge34" class="edge"><title>Node26&#45;&gt;Node28</title>
<path fill="none" stroke="midnightblue" d="M575.378,-224.324C565.974,-216.263 551.756,-204.077 540.431,-194.369"/>
<polygon fill="midnightblue" stroke="midnightblue" points="542.677,-191.684 532.806,-187.834 538.121,-196.999 542.677,-191.684"/>
</g>
<!-- Node29 -->
<g id="node29" class="node"><title>Node29</title>
<polygon fill="none" stroke="#bfbfbf" points="355,-168.5 355,-187.5 408,-187.5 408,-168.5 355,-168.5"/>
<text text-anchor="middle" x="381.5" y="-175.5" font-family="Helvetica,sans-Serif" font-size="10.00">stdlib.h</text>
</g>
<!-- Node26&#45;&gt;Node29 -->
<g id="edge35" class="edge"><title>Node26&#45;&gt;Node29</title>
<path fill="none" stroke="midnightblue" d="M563.17,-226.436C560.257,-225.604 557.31,-224.773 554.5,-224 541.363,-220.385 464.838,-200.553 418.075,-188.455"/>
<polygon fill="midnightblue" stroke="midnightblue" points="418.857,-185.042 408.299,-185.927 417.104,-191.819 418.857,-185.042"/>
</g>
<!-- Node30&#45;&gt;Node3 -->
<g id="edge38" class="edge"><title>Node30&#45;&gt;Node3</title>
<path fill="none" stroke="midnightblue" d="M623.531,-168.324C640.53,-159.664 666.876,-146.242 686.493,-136.249"/>
<polygon fill="midnightblue" stroke="midnightblue" points="688.19,-139.312 695.512,-131.655 685.012,-133.075 688.19,-139.312"/>
</g>
<!-- Node30&#45;&gt;Node10 -->
<g id="edge37" class="edge"><title>Node30&#45;&gt;Node10</title>
<path fill="none" stroke="midnightblue" d="M596.673,-168.304C586.78,-159.43 571.207,-145.136 558.5,-132 543.092,-116.071 526.495,-96.8931 515.207,-83.5133"/>
<polygon fill="midnightblue" stroke="midnightblue" points="517.726,-81.0695 508.622,-75.6506 512.36,-85.5642 517.726,-81.0695"/>
</g>
<!-- Node31&#45;&gt;Node5 -->
<g id="edge42" class="edge"><title>Node31&#45;&gt;Node5</title>
<path fill="none" stroke="midnightblue" d="M176.569,-280.105C168.432,-266.676 156.142,-240.99 168.5,-224 190.983,-193.089 235.16,-182.976 267.701,-179.887"/>
<polygon fill="midnightblue" stroke="midnightblue" points="268.111,-183.366 277.815,-179.114 267.578,-176.387 268.111,-183.366"/>
</g>
<!-- Node31&#45;&gt;Node23 -->
<g id="edge43" class="edge"><title>Node31&#45;&gt;Node23</title>
<path fill="none" stroke="midnightblue" d="M190.096,-280.083C196.727,-272.298 206.521,-260.801 214.558,-251.367"/>
<polygon fill="midnightblue" stroke="midnightblue" points="217.225,-253.633 221.045,-243.751 211.896,-249.094 217.225,-253.633"/>
</g>
<!-- Node33&#45;&gt;Node3 -->
<g id="edge49" class="edge"><title>Node33&#45;&gt;Node3</title>
<path fill="none" stroke="midnightblue" d="M868.149,-336.297C844.01,-303.217 757.677,-184.909 725.081,-140.241"/>
<polygon fill="midnightblue" stroke="midnightblue" points="727.705,-137.899 718.983,-131.884 722.05,-142.025 727.705,-137.899"/>
</g>
<!-- Node34 -->
<g id="node34" class="node"><title>Node34</title>
<g id="a_node34"><a xlink:href="Actor_8hpp.html" target="_top" xlink:title="Actor.hpp">
<polygon fill="none" stroke="black" points="858.5,-280.5 858.5,-299.5 920.5,-299.5 920.5,-280.5 858.5,-280.5"/>
<text text-anchor="middle" x="889.5" y="-287.5" font-family="Helvetica,sans-Serif" font-size="10.00">Actor.hpp</text>
</a>
</g>
</g>
<!-- Node33&#45;&gt;Node34 -->
<g id="edge50" class="edge"><title>Node33&#45;&gt;Node34</title>
<path fill="none" stroke="midnightblue" d="M876.977,-336.083C878.986,-328.849 881.886,-318.409 884.39,-309.397"/>
<polygon fill="midnightblue" stroke="midnightblue" points="887.765,-310.323 887.069,-299.751 881.02,-308.449 887.765,-310.323"/>
</g>
<!-- Node35 -->
<g id="node35" class="node"><title>Node35</title>
<g id="a_node35"><a xlink:href="SystemInterface_8hpp.html" target="_top" xlink:title="SystemInterface.hpp">
<polygon fill="none" stroke="black" points="830.5,-224.5 830.5,-243.5 948.5,-243.5 948.5,-224.5 830.5,-224.5"/>
<text text-anchor="middle" x="889.5" y="-231.5" font-family="Helvetica,sans-Serif" font-size="10.00">SystemInterface.hpp</text>
</a>
</g>
</g>
<!-- Node34&#45;&gt;Node35 -->
<g id="edge51" class="edge"><title>Node34&#45;&gt;Node35</title>
<path fill="none" stroke="midnightblue" d="M889.5,-280.083C889.5,-273.006 889.5,-262.861 889.5,-253.986"/>
<polygon fill="midnightblue" stroke="midnightblue" points="893,-253.751 889.5,-243.751 886,-253.751 893,-253.751"/>
</g>
<!-- Node35&#45;&gt;Node3 -->
<g id="edge55" class="edge"><title>Node35&#45;&gt;Node3</title>
<path fill="none" stroke="midnightblue" d="M875.611,-224.368C845.109,-205.412 772.037,-160.001 734.935,-136.942"/>
<polygon fill="midnightblue" stroke="midnightblue" points="736.665,-133.897 726.324,-131.591 732.97,-139.843 736.665,-133.897"/>
</g>
<!-- Node36 -->
<g id="node36" class="node"><title>Node36</title>
<g id="a_node36"><a xlink:href="Vector_8hpp.html" target="_top" xlink:title="Vector.hpp">
<polygon fill="none" stroke="black" points="857.5,-168.5 857.5,-187.5 925.5,-187.5 925.5,-168.5 857.5,-168.5"/>
<text text-anchor="middle" x="891.5" y="-175.5" font-family="Helvetica,sans-Serif" font-size="10.00">Vector.hpp</text>
</a>
</g>
</g>
<!-- Node35&#45;&gt;Node36 -->
<g id="edge52" class="edge"><title>Node35&#45;&gt;Node36</title>
<path fill="none" stroke="midnightblue" d="M889.83,-224.083C890.092,-217.006 890.468,-206.861 890.797,-197.986"/>
<polygon fill="midnightblue" stroke="midnightblue" points="894.303,-197.874 891.176,-187.751 887.308,-197.615 894.303,-197.874"/>
</g>
<!-- Node36&#45;&gt;Node6 -->
<g id="edge54" class="edge"><title>Node36&#45;&gt;Node6</title>
<path fill="none" stroke="midnightblue" d="M873.436,-168.444C854.925,-159.675 825.919,-145.935 804.645,-135.858"/>
<polygon fill="midnightblue" stroke="midnightblue" points="806.015,-132.634 795.479,-131.516 803.018,-138.96 806.015,-132.634"/>
</g>
<!-- Node37 -->
<g id="node37" class="node"><title>Node37</title>
<polygon fill="none" stroke="#bfbfbf" points="859.5,-112.5 859.5,-131.5 923.5,-131.5 923.5,-112.5 859.5,-112.5"/>
<text text-anchor="middle" x="891.5" y="-119.5" font-family="Helvetica,sans-Serif" font-size="10.00">algorithm</text>
</g>
<!-- Node36&#45;&gt;Node37 -->
<g id="edge53" class="edge"><title>Node36&#45;&gt;Node37</title>
<path fill="none" stroke="midnightblue" d="M891.5,-168.083C891.5,-161.006 891.5,-150.861 891.5,-141.986"/>
<polygon fill="midnightblue" stroke="midnightblue" points="895,-141.751 891.5,-131.751 888,-141.751 895,-141.751"/>
</g>
</g>
</svg>
        <g id="navigator" transform="translate(0 0)" fill="#404254">
                <rect fill="#f2f5e9" fill-opacity="0.5" stroke="#606060" stroke-width=".5" x="0" y="0" width="60" height="60"/>
                <use id="zoomplus" xlink:href="#zoomPlus" x="17" y="9" onmousedown="handleZoom(evt,'in')"/>
                <use id="zoomminus" xlink:href="#zoomMin" x="42" y="9" onmousedown="handleZoom(evt,'out')"/>
                <use id="reset" xlink:href="#resetDef" x="30" y="36" onmousedown="handleReset()"/>
                <g id="arrowUp" xlink:href="#dirArrow" transform="translate(30 24)" onmousedown="handlePan(0,-1)">
                  <use xlink:href="#rim" fill="#404040">
                        <set attributeName="fill" to="#808080" begin="arrowUp.mouseover" end="arrowUp.mouseout"/>
                  </use>
                  <path fill="none" stroke="white" stroke-width="1.5" d="M0,-3.0v7 M-2.5,-0.5L0,-3.0L2.5,-0.5"/>
                </g>
                <g id="arrowRight" xlink:href="#dirArrow" transform="rotate(90) translate(36 -43)" onmousedown="handlePan(1,0)">
                  <use xlink:href="#rim" fill="#404040">
                        <set attributeName="fill" to="#808080" begin="arrowRight.mouseover" end="arrowRight.mouseout"/>
                  </use>
                  <path fill="none" stroke="white" stroke-width="1.5" d="M0,-3.0v7 M-2.5,-0.5L0,-3.0L2.5,-0.5"/>
                </g>
                <g id="arrowDown" xlink:href="#dirArrow" transform="rotate(180) translate(-30 -48)" onmousedown="handlePan(0,1)">
                  <use xlink:href="#rim" fill="#404040">
                        <set attributeName="fill" to="#808080" begin="arrowDown.mouseover" end="arrowDown.mouseout"/>
                  </use>
                  <path fill="none" stroke="white" stroke-width="1.5" d="M0,-3.0v7 M-2.5,-0.5L0,-3.0L2.5,-0.5"/>
                </g>
                <g id="arrowLeft" xlink:href="#dirArrow" transform="rotate(270) translate(-36 17)" onmousedown="handlePan(-1,0)">
                  <use xlink:href="#rim" fill="#404040">
                        <set attributeName="fill" to="#808080" begin="arrowLeft.mouseover" end="arrowLeft.mouseout"/>
                  </use>
                  <path fill="none" stroke="white" stroke-width="1.5" d="M0,-3.0v7 M-2.5,-0.5L0,-3.0L2.5,-0.5"/>
                </g>
        </g>
        <svg viewBox="0 0 15 15" width="100%" height="30px" preserveAspectRatio="xMaxYMin meet">
         <g id="arrow_out" transform="scale(0.3 0.3)">
          <a xlink:href="energy_8hpp__incl_org.svg" target="_base">
           <rect id="button" ry="5" rx="5" y="6" x="6" height="38" width="38"
                fill="#f2f5e9" fill-opacity="0.5" stroke="#606060" stroke-width="1.0"/>
           <path id="arrow"
             d="M 11.500037,31.436501 C 11.940474,20.09759 22.043105,11.32322 32.158766,21.979434 L 37.068811,17.246167 C 37.068811,17.246167 37.088388,32 37.088388,32 L 22.160133,31.978069 C 22.160133,31.978069 26.997745,27.140456 26.997745,27.140456 C 18.528582,18.264221 13.291696,25.230495 11.500037,31.436501 z"
             style="fill:#404040;"/>
          </a>
         </g>
        </svg>
</svg>
