<?xml version="1.0" encoding="UTF-8" standalone="no"?>
<!DOCTYPE svg PUBLIC "-//W3C//DTD SVG 1.1//EN"
 "http://www.w3.org/Graphics/SVG/1.1/DTD/svg11.dtd">
<!-- Generated by graphviz version 2.38.0 (20140413.2041)
 -->
<!-- Title: errorhandling.hpp Pages: 1 -->
<svg width="378pt" height="140pt"
 viewBox="0.00 0.00 378.00 140.00" xmlns="http://www.w3.org/2000/svg" xmlns:xlink="http://www.w3.org/1999/xlink">
<g id="graph0" class="graph" transform="scale(1 1) rotate(0) translate(4 136)">
<title>errorhandling.hpp</title>
<!-- Node1 -->
<g id="node1" class="node"><title>Node1</title>
<polygon fill="#bfbfbf" stroke="black" points="206.5,-112.5 206.5,-131.5 309.5,-131.5 309.5,-112.5 206.5,-112.5"/>
<text text-anchor="middle" x="258" y="-119.5" font-family="Helvetica,sans-Serif" font-size="10.00">errorhandling.hpp</text>
</g>
<!-- Node2 -->
<g id="node2" class="node"><title>Node2</title>
<g id="a_node2"><a xlink:href="config_8hpp.html" target="_top" xlink:title="This file contains the defaults for Espresso. ">
<polygon fill="none" stroke="black" points="116.5,-56.5 116.5,-75.5 183.5,-75.5 183.5,-56.5 116.5,-56.5"/>
<text text-anchor="middle" x="150" y="-63.5" font-family="Helvetica,sans-Serif" font-size="10.00">config.hpp</text>
</a>
</g>
</g>
<!-- Node1&#45;&gt;Node2 -->
<g id="edge1" class="edge"><title>Node1&#45;&gt;Node2</title>
<path fill="none" stroke="midnightblue" d="M240.648,-112.324C223.328,-103.664 196.485,-90.2424 176.498,-80.249"/>
<polygon fill="midnightblue" stroke="midnightblue" points="177.819,-76.9962 167.309,-75.6545 174.688,-83.2572 177.819,-76.9962"/>
</g>
<!-- Node6 -->
<g id="node6" class="node"><title>Node6</title>
<polygon fill="none" stroke="#bfbfbf" points="202,-56.5 202,-75.5 246,-75.5 246,-56.5 202,-56.5"/>
<text text-anchor="middle" x="224" y="-63.5" font-family="Helvetica,sans-Serif" font-size="10.00">string</text>
</g>
<!-- Node1&#45;&gt;Node6 -->
<g id="edge5" class="edge"><title>Node1&#45;&gt;Node6</title>
<path fill="none" stroke="midnightblue" d="M252.386,-112.083C247.633,-104.534 240.682,-93.4948 234.848,-84.2298"/>
<polygon fill="midnightblue" stroke="midnightblue" points="237.8,-82.3486 229.51,-75.7511 231.876,-86.0783 237.8,-82.3486"/>
</g>
<!-- Node7 -->
<g id="node7" class="node"><title>Node7</title>
<polygon fill="none" stroke="#bfbfbf" points="264,-56.5 264,-75.5 320,-75.5 320,-56.5 264,-56.5"/>
<text text-anchor="middle" x="292" y="-63.5" font-family="Helvetica,sans-Serif" font-size="10.00">sstream</text>
</g>
<!-- Node1&#45;&gt;Node7 -->
<g id="edge6" class="edge"><title>Node1&#45;&gt;Node7</title>
<path fill="none" stroke="midnightblue" d="M263.614,-112.083C268.367,-104.534 275.318,-93.4948 281.152,-84.2298"/>
<polygon fill="midnightblue" stroke="midnightblue" points="284.124,-86.0783 286.49,-75.7511 278.2,-82.3486 284.124,-86.0783"/>
</g>
<!-- Node8 -->
<g id="node8" class="node"><title>Node8</title>
<polygon fill="none" stroke="#bfbfbf" points="338,-56.5 338,-75.5 370,-75.5 370,-56.5 338,-56.5"/>
<text text-anchor="middle" x="354" y="-63.5" font-family="Helvetica,sans-Serif" font-size="10.00">list</text>
</g>
<!-- Node1&#45;&gt;Node8 -->
<g id="edge7" class="edge"><title>Node1&#45;&gt;Node8</title>
<path fill="none" stroke="midnightblue" d="M273.424,-112.324C288.54,-103.822 311.815,-90.7288 329.471,-80.7975"/>
<polygon fill="midnightblue" stroke="midnightblue" points="331.614,-83.6077 338.614,-75.6545 328.183,-77.5066 331.614,-83.6077"/>
</g>
<!-- Node3 -->
<g id="node3" class="node"><title>Node3</title>
<g id="a_node3"><a xlink:href="acconfig_8hpp.html" target="_top" xlink:title="acconfig.hpp">
<polygon fill="none" stroke="black" points="0,-0.5 0,-19.5 78,-19.5 78,-0.5 0,-0.5"/>
<text text-anchor="middle" x="39" y="-7.5" font-family="Helvetica,sans-Serif" font-size="10.00">acconfig.hpp</text>
</a>
</g>
</g>
<!-- Node2&#45;&gt;Node3 -->
<g id="edge2" class="edge"><title>Node2&#45;&gt;Node3</title>
<path fill="none" stroke="midnightblue" d="M132.166,-56.324C114.284,-47.6247 86.5249,-34.1202 65.9544,-24.113"/>
<polygon fill="midnightblue" stroke="midnightblue" points="67.3133,-20.8819 56.7898,-19.6545 64.251,-27.1765 67.3133,-20.8819"/>
</g>
<!-- Node4 -->
<g id="node4" class="node"><title>Node4</title>
<g id="a_node4"><a xlink:href="myconfig-final_8hpp.html" target="_top" xlink:title="myconfig&#45;final.hpp">
<polygon fill="none" stroke="black" points="96.5,-0.5 96.5,-19.5 203.5,-19.5 203.5,-0.5 96.5,-0.5"/>
<text text-anchor="middle" x="150" y="-7.5" font-family="Helvetica,sans-Serif" font-size="10.00">myconfig&#45;final.hpp</text>
</a>
</g>
</g>
<!-- Node2&#45;&gt;Node4 -->
<g id="edge3" class="edge"><title>Node2&#45;&gt;Node4</title>
<path fill="none" stroke="midnightblue" d="M150,-56.083C150,-49.0059 150,-38.8611 150,-29.9865"/>
<polygon fill="midnightblue" stroke="midnightblue" points="153.5,-29.751 150,-19.7511 146.5,-29.7511 153.5,-29.751"/>
</g>
<!-- Node5 -->
<g id="node5" class="node"><title>Node5</title>
<g id="a_node5"><a xlink:href="config-features_8hpp.html" target="_top" xlink:title="config&#45;features.hpp">
<polygon fill="none" stroke="black" points="221.5,-0.5 221.5,-19.5 332.5,-19.5 332.5,-0.5 221.5,-0.5"/>
<text text-anchor="middle" x="277" y="-7.5" font-family="Helvetica,sans-Serif" font-size="10.00">config&#45;features.hpp</text>
</a>
</g>
</g>
<!-- Node2&#45;&gt;Node5 -->
<g id="edge4" class="edge"><title>Node2&#45;&gt;Node5</title>
<path fill="none" stroke="midnightblue" d="M170.124,-56.4435C191.024,-47.5566 223.935,-33.5632 247.716,-23.4514"/>
<polygon fill="midnightblue" stroke="midnightblue" points="249.138,-26.6504 256.971,-19.5164 246.398,-20.2085 249.138,-26.6504"/>
</g>
</g>
</svg>
