<?xml version="1.0" encoding="UTF-8" standalone="no"?>
<!DOCTYPE svg PUBLIC "-//W3C//DTD SVG 1.1//EN"
 "http://www.w3.org/Graphics/SVG/1.1/DTD/svg11.dtd">
<!-- Generated by graphviz version 2.38.0 (20140413.2041)
 -->
<!-- Title: EspressoSystemInterface.hpp Pages: 1 -->
<!--zoomable 218 -->
<svg id="main" version="1.1" xmlns="http://www.w3.org/2000/svg" xmlns:xlink="http://www.w3.org/1999/xlink" xml:space="preserve" onload="init(evt)">
<style type="text/css"><![CDATA[
.edge:hover path { stroke: red; }
.edge:hover polygon { stroke: red; fill: red; }
]]></style>
<script type="text/javascript"><![CDATA[
var edges = document.getElementsByTagName('g');
if (edges && edges.length) {
  for (var i=0;i<edges.length;i++) {
    if (edges[i].id.substr(0,4)=='edge') {
      edges[i].setAttribute('class','edge');
    }
  }
}
]]></script>
        <defs>
                <circle id="rim" cx="0" cy="0" r="7"/>
                <circle id="rim2" cx="0" cy="0" r="3.5"/>
                <g id="zoomPlus">
                        <use xlink:href="#rim" fill="#404040">
                                <set attributeName="fill" to="#808080" begin="zoomplus.mouseover" end="zoomplus.mouseout"/>
                        </use>
                        <path d="M-4,0h8M0,-4v8" fill="none" stroke="white" stroke-width="1.5" pointer-events="none"/>
                </g>
                <g id="zoomMin">
                        <use xlink:href="#rim" fill="#404040">
                                <set attributeName="fill" to="#808080" begin="zoomminus.mouseover" end="zoomminus.mouseout"/>
                        </use>
                        <path d="M-4,0h8" fill="none" stroke="white" stroke-width="1.5" pointer-events="none"/>
                </g>
                <g id="dirArrow">
                        <path fill="none" stroke="white" stroke-width="1.5" d="M0,-3.0v7 M-2.5,-0.5L0,-3.0L2.5,-0.5"/>
                </g>
               <g id="resetDef">
                       <use xlink:href="#rim2" fill="#404040">
                               <set attributeName="fill" to="#808080" begin="reset.mouseover" end="reset.mouseout"/>
                       </use>
               </g>
        </defs>

<script type="text/javascript">
var viewWidth = 2922;
var viewHeight = 218;
var sectionId = 'dynsection-1';
</script>
<script xlink:href="svgpan.js"/>
<svg id="graph" class="graph">
<g id="viewport">
<title>EspressoSystemInterface.hpp</title>
<!-- Node1 -->
<g id="node1" class="node"><title>Node1</title>
<polygon fill="#bfbfbf" stroke="black" points="1899.5,-190.5 1899.5,-209.5 2060.5,-209.5 2060.5,-190.5 1899.5,-190.5"/>
<text text-anchor="middle" x="1980" y="-197.5" font-family="Helvetica,sans-Serif" font-size="10.00">EspressoSystemInterface.hpp</text>
</g>
<!-- Node2 -->
<g id="node2" class="node"><title>Node2</title>
<g id="a_node2"><a xlink:href="EwaldgpuForce__cuda_8cu.html" target="_top" xlink:title="EwaldgpuForce_cuda.cu">
<polygon fill="none" stroke="black" points="1067.5,-129 1067.5,-148 1200.5,-148 1200.5,-129 1067.5,-129"/>
<text text-anchor="middle" x="1134" y="-136" font-family="Helvetica,sans-Serif" font-size="10.00">EwaldgpuForce_cuda.cu</text>
</a>
</g>
</g>
<!-- Node1&#45;&gt;Node2 -->
<g id="edge1" class="edge"><title>Node1&#45;&gt;Node2</title>
<path fill="none" stroke="midnightblue" d="M1889.18,-197.515C1744.81,-194.296 1454.3,-184.313 1210,-154 1198,-152.511 1185.05,-150.277 1173.29,-148.006"/>
<polygon fill="midnightblue" stroke="midnightblue" points="1889.25,-201.017 1899.32,-197.735 1889.4,-194.019 1889.25,-201.017"/>
</g>
<!-- Node3 -->
<g id="node3" class="node"><title>Node3</title>
<g id="a_node3"><a xlink:href="HarmonicOrientationWell_8cpp.html" target="_top" xlink:title="HarmonicOrientationWell.cpp">
<polygon fill="none" stroke="black" points="1219,-129 1219,-148 1379,-148 1379,-129 1219,-129"/>
<text text-anchor="middle" x="1299" y="-136" font-family="Helvetica,sans-Serif" font-size="10.00">HarmonicOrientationWell.cpp</text>
</a>
</g>
</g>
<!-- Node1&#45;&gt;Node3 -->
<g id="edge2" class="edge"><title>Node1&#45;&gt;Node3</title>
<path fill="none" stroke="midnightblue" d="M1889.23,-194.454C1773.02,-188.092 1565.56,-174.908 1389,-154 1375.48,-152.399 1360.89,-150.238 1347.47,-148.073"/>
<polygon fill="midnightblue" stroke="midnightblue" points="1889.32,-197.964 1899.5,-195.012 1889.7,-190.975 1889.32,-197.964"/>
</g>
<!-- Node4 -->
<g id="node4" class="node"><title>Node4</title>
<g id="a_node4"><a xlink:href="HarmonicWell_8cpp.html" target="_top" xlink:title="HarmonicWell.cpp">
<polygon fill="none" stroke="black" points="1397.5,-129 1397.5,-148 1502.5,-148 1502.5,-129 1397.5,-129"/>
<text text-anchor="middle" x="1450" y="-136" font-family="Helvetica,sans-Serif" font-size="10.00">HarmonicWell.cpp</text>
</a>
</g>
</g>
<!-- Node1&#45;&gt;Node4 -->
<g id="edge3" class="edge"><title>Node1&#45;&gt;Node4</title>
<path fill="none" stroke="midnightblue" d="M1889.14,-193.879C1794.5,-187.701 1642.17,-175.381 1512,-154 1502.4,-152.423 1492.07,-150.217 1482.66,-148.001"/>
<polygon fill="midnightblue" stroke="midnightblue" points="1889.04,-197.38 1899.25,-194.53 1889.49,-190.394 1889.04,-197.38"/>
</g>
<!-- Node5 -->
<g id="node5" class="node"><title>Node5</title>
<g id="a_node5"><a xlink:href="Mmm1dgpuForce_8cpp.html" target="_top" xlink:title="Mmm1dgpuForce.cpp">
<polygon fill="none" stroke="black" points="1520.5,-129 1520.5,-148 1641.5,-148 1641.5,-129 1520.5,-129"/>
<text text-anchor="middle" x="1581" y="-136" font-family="Helvetica,sans-Serif" font-size="10.00">Mmm1dgpuForce.cpp</text>
</a>
</g>
</g>
<!-- Node1&#45;&gt;Node5 -->
<g id="edge4" class="edge"><title>Node1&#45;&gt;Node5</title>
<path fill="none" stroke="midnightblue" d="M1897.22,-189.268C1830.55,-181.046 1734.5,-168.341 1651,-154 1640.85,-152.256 1629.92,-150.119 1619.79,-148.027"/>
<polygon fill="midnightblue" stroke="midnightblue" points="1896.9,-192.754 1907.25,-190.498 1897.75,-185.806 1896.9,-192.754"/>
</g>
<!-- Node6 -->
<g id="node6" class="node"><title>Node6</title>
<g id="a_node6"><a xlink:href="Mmm1dgpuForce__cuda_8cu.html" target="_top" xlink:title="Mmm1dgpuForce_cuda.cu">
<polygon fill="none" stroke="black" points="1659.5,-129 1659.5,-148 1802.5,-148 1802.5,-129 1659.5,-129"/>
<text text-anchor="middle" x="1731" y="-136" font-family="Helvetica,sans-Serif" font-size="10.00">Mmm1dgpuForce_cuda.cu</text>
</a>
</g>
</g>
<!-- Node1&#45;&gt;Node6 -->
<g id="edge5" class="edge"><title>Node1&#45;&gt;Node6</title>
<path fill="none" stroke="midnightblue" d="M1934.44,-188.114C1886.11,-176.565 1810.77,-158.561 1766.61,-148.009"/>
<polygon fill="midnightblue" stroke="midnightblue" points="1933.78,-191.555 1944.32,-190.475 1935.41,-184.747 1933.78,-191.555"/>
</g>
<!-- Node7 -->
<g id="node7" class="node"><title>Node7</title>
<g id="a_node7"><a xlink:href="forces__inline_8hpp.html" target="_top" xlink:title="forces_inline.hpp">
<polygon fill="none" stroke="black" points="1821,-129 1821,-148 1921,-148 1921,-129 1821,-129"/>
<text text-anchor="middle" x="1871" y="-136" font-family="Helvetica,sans-Serif" font-size="10.00">forces_inline.hpp</text>
</a>
</g>
</g>
<!-- Node1&#45;&gt;Node7 -->
<g id="edge6" class="edge"><title>Node1&#45;&gt;Node7</title>
<path fill="none" stroke="midnightblue" d="M1955.37,-185.556C1934.28,-174.042 1904.54,-157.811 1886.59,-148.009"/>
<polygon fill="midnightblue" stroke="midnightblue" points="1953.93,-188.756 1964.38,-190.475 1957.28,-182.612 1953.93,-188.756"/>
</g>
<!-- Node9 -->
<g id="node9" class="node"><title>Node9</title>
<g id="a_node9"><a xlink:href="communication_8cpp.html" target="_top" xlink:title="communication.cpp">
<polygon fill="none" stroke="black" points="1676.5,-6 1676.5,-25 1789.5,-25 1789.5,-6 1676.5,-6"/>
<text text-anchor="middle" x="1733" y="-13" font-family="Helvetica,sans-Serif" font-size="10.00">communication.cpp</text>
</a>
</g>
</g>
<!-- Node1&#45;&gt;Node9 -->
<g id="edge33" class="edge"><title>Node1&#45;&gt;Node9</title>
<path fill="none" stroke="midnightblue" d="M1974.66,-180.63C1972.52,-172.535 1970.28,-162.866 1969,-154 1967.62,-144.422 1971.25,-74.3914 1965,-67 1916.27,-9.33735 1872.76,-47.0996 1799,-31 1790.17,-29.0735 1780.69,-26.9942 1771.73,-25.0281"/>
<polygon fill="midnightblue" stroke="midnightblue" points="1971.34,-181.773 1977.39,-190.47 1978.08,-179.898 1971.34,-181.773"/>
</g>
<!-- Node31 -->
<g id="node31" class="node"><title>Node31</title>
<g id="a_node31"><a xlink:href="energy_8cpp.html" target="_top" xlink:title="Implementation of energy.hpp. ">
<polygon fill="none" stroke="black" points="1977.5,-129 1977.5,-148 2046.5,-148 2046.5,-129 1977.5,-129"/>
<text text-anchor="middle" x="2012" y="-136" font-family="Helvetica,sans-Serif" font-size="10.00">energy.cpp</text>
</a>
</g>
</g>
<!-- Node1&#45;&gt;Node31 -->
<g id="edge34" class="edge"><title>Node1&#45;&gt;Node31</title>
<path fill="none" stroke="midnightblue" d="M1989.5,-181.335C1995.42,-170.328 2002.77,-156.663 2007.42,-148.009"/>
<polygon fill="midnightblue" stroke="midnightblue" points="1986.24,-180.01 1984.58,-190.475 1992.4,-183.326 1986.24,-180.01"/>
</g>
<!-- Node32 -->
<g id="node32" class="node"><title>Node32</title>
<g id="a_node32"><a xlink:href="EspressoSystemInterface_8cpp.html" target="_top" xlink:title="EspressoSystemInterface.cpp">
<polygon fill="none" stroke="black" points="2064.5,-129 2064.5,-148 2225.5,-148 2225.5,-129 2064.5,-129"/>
<text text-anchor="middle" x="2145" y="-136" font-family="Helvetica,sans-Serif" font-size="10.00">EspressoSystemInterface.cpp</text>
</a>
</g>
</g>
<!-- Node1&#45;&gt;Node32 -->
<g id="edge35" class="edge"><title>Node1&#45;&gt;Node32</title>
<path fill="none" stroke="midnightblue" d="M2013.05,-187.083C2045.12,-175.517 2093,-158.252 2121.4,-148.009"/>
<polygon fill="midnightblue" stroke="midnightblue" points="2011.86,-183.79 2003.64,-190.475 2014.23,-190.375 2011.86,-183.79"/>
</g>
<!-- Node33 -->
<g id="node33" class="node"><title>Node33</title>
<g id="a_node33"><a xlink:href="EspressoSystemInterface__cuda_8cu.html" target="_top" xlink:title="EspressoSystemInterface\l_cuda.cu">
<polygon fill="none" stroke="black" points="2244,-123.5 2244,-153.5 2384,-153.5 2384,-123.5 2244,-123.5"/>
<text text-anchor="start" x="2252" y="-141.5" font-family="Helvetica,sans-Serif" font-size="10.00">EspressoSystemInterface</text>
<text text-anchor="middle" x="2314" y="-130.5" font-family="Helvetica,sans-Serif" font-size="10.00">_cuda.cu</text>
</a>
</g>
</g>
<!-- Node1&#45;&gt;Node33 -->
<g id="edge36" class="edge"><title>Node1&#45;&gt;Node33</title>
<path fill="none" stroke="midnightblue" d="M2038.89,-188.725C2090.59,-179.678 2167.8,-166.096 2235,-154 2237.88,-153.481 2240.82,-152.95 2243.79,-152.412"/>
<polygon fill="midnightblue" stroke="midnightblue" points="2038.15,-185.302 2028.9,-190.473 2039.36,-192.197 2038.15,-185.302"/>
</g>
<!-- Node34 -->
<g id="node34" class="node"><title>Node34</title>
<g id="a_node34"><a xlink:href="p3m__gpu__cuda_8cu.html" target="_top" xlink:title="Cuda (.cu) file for the P3M electrostatics method. ">
<polygon fill="none" stroke="black" points="2402,-129 2402,-148 2506,-148 2506,-129 2402,-129"/>
<text text-anchor="middle" x="2454" y="-136" font-family="Helvetica,sans-Serif" font-size="10.00">p3m_gpu_cuda.cu</text>
</a>
</g>
</g>
<!-- Node1&#45;&gt;Node34 -->
<g id="edge37" class="edge"><title>Node1&#45;&gt;Node34</title>
<path fill="none" stroke="midnightblue" d="M2070.77,-192.388C2154.75,-185.496 2282.87,-173.013 2393,-154 2402.33,-152.389 2412.37,-150.198 2421.55,-148.008"/>
<polygon fill="midnightblue" stroke="midnightblue" points="2070.43,-188.904 2060.75,-193.201 2071,-195.881 2070.43,-188.904"/>
</g>
<!-- Node35 -->
<g id="node35" class="node"><title>Node35</title>
<g id="a_node35"><a xlink:href="Ewaldgpu__tcl_8cpp.html" target="_top" xlink:title="Ewaldgpu_tcl.cpp">
<polygon fill="none" stroke="black" points="2524.5,-129 2524.5,-148 2625.5,-148 2625.5,-129 2524.5,-129"/>
<text text-anchor="middle" x="2575" y="-136" font-family="Helvetica,sans-Serif" font-size="10.00">Ewaldgpu_tcl.cpp</text>
</a>
</g>
</g>
<!-- Node1&#45;&gt;Node35 -->
<g id="edge38" class="edge"><title>Node1&#45;&gt;Node35</title>
<path fill="none" stroke="midnightblue" d="M2070.78,-195.604C2177.63,-190.631 2360.13,-179.076 2515,-154 2524.42,-152.476 2534.54,-150.259 2543.73,-148.015"/>
<polygon fill="midnightblue" stroke="midnightblue" points="2070.51,-192.113 2060.68,-196.065 2070.83,-199.106 2070.51,-192.113"/>
</g>
<!-- Node36 -->
<g id="node36" class="node"><title>Node36</title>
<g id="a_node36"><a xlink:href="HarmonicOrientationWell__tcl_8cpp.html" target="_top" xlink:title="HarmonicOrientationWell\l_tcl.cpp">
<polygon fill="none" stroke="black" points="2644,-123.5 2644,-153.5 2784,-153.5 2784,-123.5 2644,-123.5"/>
<text text-anchor="start" x="2652" y="-141.5" font-family="Helvetica,sans-Serif" font-size="10.00">HarmonicOrientationWell</text>
<text text-anchor="middle" x="2714" y="-130.5" font-family="Helvetica,sans-Serif" font-size="10.00">_tcl.cpp</text>
</a>
</g>
</g>
<!-- Node1&#45;&gt;Node36 -->
<g id="edge39" class="edge"><title>Node1&#45;&gt;Node36</title>
<path fill="none" stroke="midnightblue" d="M2070.75,-196.005C2197.47,-191.087 2434.46,-179.211 2635,-154 2637.91,-153.635 2640.87,-153.232 2643.85,-152.8"/>
<polygon fill="midnightblue" stroke="midnightblue" points="2070.56,-192.51 2060.7,-196.39 2070.82,-199.505 2070.56,-192.51"/>
</g>
<!-- Node37 -->
<g id="node37" class="node"><title>Node37</title>
<g id="a_node37"><a xlink:href="Mmm1dgpu__tcl_8cpp.html" target="_top" xlink:title="Mmm1dgpu_tcl.cpp">
<polygon fill="none" stroke="black" points="2802,-129 2802,-148 2914,-148 2914,-129 2802,-129"/>
<text text-anchor="middle" x="2858" y="-136" font-family="Helvetica,sans-Serif" font-size="10.00">Mmm1dgpu_tcl.cpp</text>
</a>
</g>
</g>
<!-- Node1&#45;&gt;Node37 -->
<g id="edge40" class="edge"><title>Node1&#45;&gt;Node37</title>
<path fill="none" stroke="midnightblue" d="M2070.75,-198.823C2221.46,-197.447 2532.58,-190.006 2793,-154 2803.42,-152.559 2814.65,-150.31 2824.79,-148.01"/>
<polygon fill="midnightblue" stroke="midnightblue" points="2070.59,-195.324 2060.62,-198.909 2070.65,-202.324 2070.59,-195.324"/>
</g>
<!-- Node8 -->
<g id="node8" class="node"><title>Node8</title>
<g id="a_node8"><a xlink:href="pressure_8hpp.html" target="_top" xlink:title="Pressure calculation. ">
<polygon fill="none" stroke="black" points="869,-67.5 869,-86.5 949,-86.5 949,-67.5 869,-67.5"/>
<text text-anchor="middle" x="909" y="-74.5" font-family="Helvetica,sans-Serif" font-size="10.00">pressure.hpp</text>
</a>
</g>
</g>
<!-- Node7&#45;&gt;Node8 -->
<g id="edge7" class="edge"><title>Node7&#45;&gt;Node8</title>
<path fill="none" stroke="midnightblue" d="M1831.13,-126.608C1824.77,-125.188 1818.23,-123.913 1812,-123 1641.84,-98.0846 1101.38,-82.8524 949.218,-78.9812"/>
<polygon fill="midnightblue" stroke="midnightblue" points="1830.36,-130.025 1840.9,-128.927 1831.98,-123.214 1830.36,-130.025"/>
</g>
<!-- Node16 -->
<g id="node16" class="node"><title>Node16</title>
<g id="a_node16"><a xlink:href="layered_8cpp.html" target="_top" xlink:title="Implementation of layered.h. ">
<polygon fill="none" stroke="black" points="0,-6 0,-25 74,-25 74,-6 0,-6"/>
<text text-anchor="middle" x="37" y="-13" font-family="Helvetica,sans-Serif" font-size="10.00">layered.cpp</text>
</a>
</g>
</g>
<!-- Node7&#45;&gt;Node16 -->
<g id="edge32" class="edge"><title>Node7&#45;&gt;Node16</title>
<path fill="none" stroke="midnightblue" d="M1831.34,-126.589C1824.92,-125.159 1818.31,-123.885 1812,-123 1392.69,-64.1705 1282.78,-110.242 860,-87 514.736,-68.0195 423.844,-94.8247 84,-31 76.4468,-29.5815 68.3954,-27.3682 61.1296,-25.0943"/>
<polygon fill="midnightblue" stroke="midnightblue" points="1830.68,-130.028 1841.21,-128.932 1832.29,-123.217 1830.68,-130.028"/>
</g>
<!-- Node25 -->
<g id="node25" class="node"><title>Node25</title>
<g id="a_node25"><a xlink:href="minimize__energy_8hpp.html" target="_top" xlink:title="minimize_energy.hpp">
<polygon fill="none" stroke="black" points="1557.5,-67.5 1557.5,-86.5 1678.5,-86.5 1678.5,-67.5 1557.5,-67.5"/>
<text text-anchor="middle" x="1618" y="-74.5" font-family="Helvetica,sans-Serif" font-size="10.00">minimize_energy.hpp</text>
</a>
</g>
</g>
<!-- Node7&#45;&gt;Node25 -->
<g id="edge24" class="edge"><title>Node7&#45;&gt;Node25</title>
<path fill="none" stroke="midnightblue" d="M1826.66,-126.536C1821.71,-125.334 1816.75,-124.135 1812,-123 1757.69,-110.028 1694.69,-95.5137 1655.59,-86.5658"/>
<polygon fill="midnightblue" stroke="midnightblue" points="1826.16,-130.016 1836.7,-128.99 1827.82,-123.216 1826.16,-130.016"/>
</g>
<!-- Node28 -->
<g id="node28" class="node"><title>Node28</title>
<g id="a_node28"><a xlink:href="constraint_8cpp.html" target="_top" xlink:title="Implementation of constraint.hpp, here it&#39;s just the parsing stuff. ">
<polygon fill="none" stroke="black" points="1697,-67.5 1697,-86.5 1783,-86.5 1783,-67.5 1697,-67.5"/>
<text text-anchor="middle" x="1740" y="-74.5" font-family="Helvetica,sans-Serif" font-size="10.00">constraint.cpp</text>
</a>
</g>
</g>
<!-- Node7&#45;&gt;Node28 -->
<g id="edge29" class="edge"><title>Node7&#45;&gt;Node28</title>
<path fill="none" stroke="midnightblue" d="M1843.1,-124.827C1817.67,-113.276 1780.8,-96.5316 1758.73,-86.5091"/>
<polygon fill="midnightblue" stroke="midnightblue" points="1841.68,-128.026 1852.23,-128.975 1844.57,-121.653 1841.68,-128.026"/>
</g>
<!-- Node29 -->
<g id="node29" class="node"><title>Node29</title>
<g id="a_node29"><a xlink:href="forces_8cpp.html" target="_top" xlink:title="Force calculation. ">
<polygon fill="none" stroke="black" points="1801.5,-67.5 1801.5,-86.5 1868.5,-86.5 1868.5,-67.5 1801.5,-67.5"/>
<text text-anchor="middle" x="1835" y="-74.5" font-family="Helvetica,sans-Serif" font-size="10.00">forces.cpp</text>
</a>
</g>
</g>
<!-- Node7&#45;&gt;Node29 -->
<g id="edge30" class="edge"><title>Node7&#45;&gt;Node29</title>
<path fill="none" stroke="midnightblue" d="M1860.52,-120.171C1853.82,-109.108 1845.44,-95.2512 1840.15,-86.5091"/>
<polygon fill="midnightblue" stroke="midnightblue" points="1857.67,-122.231 1865.84,-128.975 1863.66,-118.607 1857.67,-122.231"/>
</g>
<!-- Node30 -->
<g id="node30" class="node"><title>Node30</title>
<g id="a_node30"><a xlink:href="ghosts_8cpp.html" target="_top" xlink:title="Ghost particles and particle exchange. ">
<polygon fill="none" stroke="black" points="1886.5,-67.5 1886.5,-86.5 1955.5,-86.5 1955.5,-67.5 1886.5,-67.5"/>
<text text-anchor="middle" x="1921" y="-74.5" font-family="Helvetica,sans-Serif" font-size="10.00">ghosts.cpp</text>
</a>
</g>
</g>
<!-- Node7&#45;&gt;Node30 -->
<g id="edge31" class="edge"><title>Node7&#45;&gt;Node30</title>
<path fill="none" stroke="midnightblue" d="M1884.72,-121.169C1894.15,-109.952 1906.28,-95.5161 1913.85,-86.5091"/>
<polygon fill="midnightblue" stroke="midnightblue" points="1881.92,-119.068 1878.16,-128.975 1887.28,-123.571 1881.92,-119.068"/>
</g>
<!-- Node8&#45;&gt;Node9 -->
<g id="edge8" class="edge"><title>Node8&#45;&gt;Node9</title>
<path fill="none" stroke="midnightblue" d="M959.296,-75.7957C1081.38,-74.6972 1402.84,-68.1908 1668,-31 1678.31,-29.5546 1689.4,-27.3334 1699.45,-25.0604"/>
<polygon fill="midnightblue" stroke="midnightblue" points="959.107,-72.297 949.136,-75.8786 959.164,-79.2968 959.107,-72.297"/>
</g>
<!-- Node10 -->
<g id="node10" class="node"><title>Node10</title>
<g id="a_node10"><a xlink:href="domain__decomposition_8cpp.html" target="_top" xlink:title="This file contains everything related to the cell system: domain decomposition. ">
<polygon fill="none" stroke="black" points="92.5,-6 92.5,-25 243.5,-25 243.5,-6 92.5,-6"/>
<text text-anchor="middle" x="168" y="-13" font-family="Helvetica,sans-Serif" font-size="10.00">domain_decomposition.cpp</text>
</a>
</g>
</g>
<!-- Node8&#45;&gt;Node10 -->
<g id="edge9" class="edge"><title>Node8&#45;&gt;Node10</title>
<path fill="none" stroke="midnightblue" d="M858.793,-74.2773C748.739,-70.1241 478.112,-57.8529 253,-31 239.919,-29.4396 225.787,-27.2386 212.873,-25.0218"/>
<polygon fill="midnightblue" stroke="midnightblue" points="858.812,-77.7803 868.935,-74.6541 859.072,-70.7851 858.812,-77.7803"/>
</g>
<!-- Node11 -->
<g id="node11" class="node"><title>Node11</title>
<g id="a_node11"><a xlink:href="elc_8cpp.html" target="_top" xlink:title="For more information about ELC, see elc.hpp. ">
<polygon fill="none" stroke="black" points="261.5,-6 261.5,-25 312.5,-25 312.5,-6 261.5,-6"/>
<text text-anchor="middle" x="287" y="-13" font-family="Helvetica,sans-Serif" font-size="10.00">elc.cpp</text>
</a>
</g>
</g>
<!-- Node8&#45;&gt;Node11 -->
<g id="edge10" class="edge"><title>Node8&#45;&gt;Node11</title>
<path fill="none" stroke="midnightblue" d="M858.388,-74.171C735.36,-69.3955 423.302,-55.2151 322,-31 316.243,-29.6238 310.208,-27.4231 304.802,-25.1477"/>
<polygon fill="midnightblue" stroke="midnightblue" points="858.526,-77.6788 868.653,-74.5646 858.795,-70.6839 858.526,-77.6788"/>
</g>
<!-- Node12 -->
<g id="node12" class="node"><title>Node12</title>
<g id="a_node12"><a xlink:href="initialize_8cpp.html" target="_top" xlink:title="Implementation of initialize.hpp. ">
<polygon fill="none" stroke="black" points="330.5,-6 330.5,-25 409.5,-25 409.5,-6 330.5,-6"/>
<text text-anchor="middle" x="370" y="-13" font-family="Helvetica,sans-Serif" font-size="10.00">initialize.cpp</text>
</a>
</g>
</g>
<!-- Node8&#45;&gt;Node12 -->
<g id="edge11" class="edge"><title>Node8&#45;&gt;Node12</title>
<path fill="none" stroke="midnightblue" d="M858.705,-74.7349C769.267,-71.7455 577.016,-61.9746 418,-31 410.481,-29.5353 402.459,-27.3642 395.169,-25.1455"/>
<polygon fill="midnightblue" stroke="midnightblue" points="858.729,-78.2374 868.836,-75.059 858.953,-71.241 858.729,-78.2374"/>
</g>
<!-- Node13 -->
<g id="node13" class="node"><title>Node13</title>
<g id="a_node13"><a xlink:href="core_2integrate_8cpp.html" target="_top" xlink:title="integrate.cpp">
<polygon fill="none" stroke="black" points="1577.5,-6 1577.5,-25 1658.5,-25 1658.5,-6 1577.5,-6"/>
<text text-anchor="middle" x="1618" y="-13" font-family="Helvetica,sans-Serif" font-size="10.00">integrate.cpp</text>
</a>
</g>
</g>
<!-- Node8&#45;&gt;Node13 -->
<g id="edge12" class="edge"><title>Node8&#45;&gt;Node13</title>
<path fill="none" stroke="midnightblue" d="M959.316,-76.2165C1070.17,-75.8986 1343.47,-70.7487 1568,-31 1576.1,-29.5662 1584.76,-27.3196 1592.56,-25.0191"/>
<polygon fill="midnightblue" stroke="midnightblue" points="959.096,-72.7168 949.102,-76.2332 959.108,-79.7168 959.096,-72.7168"/>
</g>
<!-- Node14 -->
<g id="node14" class="node"><title>Node14</title>
<g id="a_node14"><a xlink:href="integrate__sd_8cpp.html" target="_top" xlink:title="Stokesian dynamics integrator. ">
<polygon fill="none" stroke="black" points="427,-6 427,-25 525,-25 525,-6 427,-6"/>
<text text-anchor="middle" x="476" y="-13" font-family="Helvetica,sans-Serif" font-size="10.00">integrate_sd.cpp</text>
</a>
</g>
</g>
<!-- Node8&#45;&gt;Node14 -->
<g id="edge13" class="edge"><title>Node8&#45;&gt;Node14</title>
<path fill="none" stroke="midnightblue" d="M858.609,-71.9777C786.335,-65.7509 649.243,-52.2332 534,-31 525.222,-29.3826 515.796,-27.2155 507.148,-25.0506"/>
<polygon fill="midnightblue" stroke="midnightblue" points="858.531,-75.4836 868.792,-72.8436 859.124,-68.5088 858.531,-75.4836"/>
</g>
<!-- Node15 -->
<g id="node15" class="node"><title>Node15</title>
<g id="a_node15"><a xlink:href="interaction__data_8cpp.html" target="_top" xlink:title="Implementation of interaction_data.hpp. ">
<polygon fill="none" stroke="black" points="543,-6 543,-25 659,-25 659,-6 543,-6"/>
<text text-anchor="middle" x="601" y="-13" font-family="Helvetica,sans-Serif" font-size="10.00">interaction_data.cpp</text>
</a>
</g>
</g>
<!-- Node8&#45;&gt;Node15 -->
<g id="edge14" class="edge"><title>Node8&#45;&gt;Node15</title>
<path fill="none" stroke="midnightblue" d="M858.864,-67.069C810.06,-58.2737 733.832,-44.2669 668,-31 658.783,-29.1426 648.875,-27.0507 639.579,-25.046"/>
<polygon fill="midnightblue" stroke="midnightblue" points="858.387,-70.5392 868.848,-68.8645 859.626,-63.6497 858.387,-70.5392"/>
</g>
<!-- Node8&#45;&gt;Node16 -->
<g id="edge15" class="edge"><title>Node8&#45;&gt;Node16</title>
<path fill="none" stroke="midnightblue" d="M858.345,-74.8596C702.863,-71.1033 233.938,-57.7994 84,-31 76.2665,-29.6177 68.0214,-27.3563 60.6311,-25.0261"/>
<polygon fill="midnightblue" stroke="midnightblue" points="858.477,-78.3636 868.558,-75.1034 858.645,-71.3656 858.477,-78.3636"/>
</g>
<!-- Node17 -->
<g id="node17" class="node"><title>Node17</title>
<g id="a_node17"><a xlink:href="nsquare_8cpp.html" target="_top" xlink:title="Implementation of nsquare.h. ">
<polygon fill="none" stroke="black" points="677,-6 677,-25 753,-25 753,-6 677,-6"/>
<text text-anchor="middle" x="715" y="-13" font-family="Helvetica,sans-Serif" font-size="10.00">nsquare.cpp</text>
</a>
</g>
</g>
<!-- Node8&#45;&gt;Node17 -->
<g id="edge16" class="edge"><title>Node8&#45;&gt;Node17</title>
<path fill="none" stroke="midnightblue" d="M871.597,-64.5286C833.893,-52.9647 776.574,-35.3849 742.744,-25.0091"/>
<polygon fill="midnightblue" stroke="midnightblue" points="870.618,-67.889 881.205,-67.4751 872.67,-61.1967 870.618,-67.889"/>
</g>
<!-- Node18 -->
<g id="node18" class="node"><title>Node18</title>
<g id="a_node18"><a xlink:href="pressure_8cpp.html" target="_top" xlink:title="Implementation of pressure.h. ">
<polygon fill="none" stroke="black" points="771.5,-6 771.5,-25 850.5,-25 850.5,-6 771.5,-6"/>
<text text-anchor="middle" x="811" y="-13" font-family="Helvetica,sans-Serif" font-size="10.00">pressure.cpp</text>
</a>
</g>
</g>
<!-- Node8&#45;&gt;Node18 -->
<g id="edge17" class="edge"><title>Node8&#45;&gt;Node18</title>
<path fill="none" stroke="midnightblue" d="M886.343,-62.2441C867.411,-50.7498 841.014,-34.7226 825.015,-25.0091"/>
<polygon fill="midnightblue" stroke="midnightblue" points="884.595,-65.277 894.959,-67.4751 888.228,-59.2935 884.595,-65.277"/>
</g>
<!-- Node19 -->
<g id="node19" class="node"><title>Node19</title>
<g id="a_node19"><a xlink:href="statistics_8cpp.html" target="_top" xlink:title="This is the place for analysis (so far...). ">
<polygon fill="none" stroke="black" points="868.5,-6 868.5,-25 949.5,-25 949.5,-6 868.5,-6"/>
<text text-anchor="middle" x="909" y="-13" font-family="Helvetica,sans-Serif" font-size="10.00">statistics.cpp</text>
</a>
</g>
</g>
<!-- Node8&#45;&gt;Node19 -->
<g id="edge18" class="edge"><title>Node8&#45;&gt;Node19</title>
<path fill="none" stroke="midnightblue" d="M909,-57.3165C909,-46.4962 909,-33.398 909,-25.0091"/>
<polygon fill="midnightblue" stroke="midnightblue" points="905.5,-57.4751 909,-67.4751 912.5,-57.4751 905.5,-57.4751"/>
</g>
<!-- Node20 -->
<g id="node20" class="node"><title>Node20</title>
<g id="a_node20"><a xlink:href="statistics__observable_8cpp.html" target="_top" xlink:title="statistics_observable.cpp">
<polygon fill="none" stroke="black" points="968,-6 968,-25 1108,-25 1108,-6 968,-6"/>
<text text-anchor="middle" x="1038" y="-13" font-family="Helvetica,sans-Serif" font-size="10.00">statistics_observable.cpp</text>
</a>
</g>
</g>
<!-- Node8&#45;&gt;Node20 -->
<g id="edge19" class="edge"><title>Node8&#45;&gt;Node20</title>
<path fill="none" stroke="midnightblue" d="M936.807,-63.1742C961.839,-51.6287 997.918,-34.9875 1019.55,-25.0091"/>
<polygon fill="midnightblue" stroke="midnightblue" points="935.097,-60.1085 927.483,-67.4751 938.029,-66.4649 935.097,-60.1085"/>
</g>
<!-- Node21 -->
<g id="node21" class="node"><title>Node21</title>
<g id="a_node21"><a xlink:href="verlet_8cpp.html" target="_top" xlink:title="Verlet list. ">
<polygon fill="none" stroke="black" points="1126.5,-6 1126.5,-25 1191.5,-25 1191.5,-6 1126.5,-6"/>
<text text-anchor="middle" x="1159" y="-13" font-family="Helvetica,sans-Serif" font-size="10.00">verlet.cpp</text>
</a>
</g>
</g>
<!-- Node8&#45;&gt;Node21 -->
<g id="edge20" class="edge"><title>Node8&#45;&gt;Node21</title>
<path fill="none" stroke="midnightblue" d="M959.289,-66.867C1001.67,-58.754 1063.75,-45.8949 1117,-31 1123.09,-29.2961 1129.59,-27.196 1135.61,-25.1284"/>
<polygon fill="midnightblue" stroke="midnightblue" points="958.395,-63.4739 949.222,-68.7754 959.699,-70.3514 958.395,-63.4739"/>
</g>
<!-- Node22 -->
<g id="node22" class="node"><title>Node22</title>
<g id="a_node22"><a xlink:href="virtual__sites_8cpp.html" target="_top" xlink:title="virtual_sites.cpp">
<polygon fill="none" stroke="black" points="1209.5,-6 1209.5,-25 1306.5,-25 1306.5,-6 1209.5,-6"/>
<text text-anchor="middle" x="1258" y="-13" font-family="Helvetica,sans-Serif" font-size="10.00">virtual_sites.cpp</text>
</a>
</g>
</g>
<!-- Node8&#45;&gt;Node22 -->
<g id="edge21" class="edge"><title>Node8&#45;&gt;Node22</title>
<path fill="none" stroke="midnightblue" d="M959.436,-69.7271C1017.85,-62.1157 1116.84,-48.1479 1201,-31 1209.4,-29.2875 1218.43,-27.1377 1226.77,-25.0219"/>
<polygon fill="midnightblue" stroke="midnightblue" points="958.834,-66.2758 949.365,-71.0287 959.731,-73.218 958.834,-66.2758"/>
</g>
<!-- Node23 -->
<g id="node23" class="node"><title>Node23</title>
<g id="a_node23"><a xlink:href="pressure__tcl_8cpp.html" target="_top" xlink:title="pressure_tcl.cpp">
<polygon fill="none" stroke="black" points="1325,-6 1325,-25 1421,-25 1421,-6 1325,-6"/>
<text text-anchor="middle" x="1373" y="-13" font-family="Helvetica,sans-Serif" font-size="10.00">pressure_tcl.cpp</text>
</a>
</g>
</g>
<!-- Node8&#45;&gt;Node23 -->
<g id="edge22" class="edge"><title>Node8&#45;&gt;Node23</title>
<path fill="none" stroke="midnightblue" d="M959.525,-72.6823C1036.79,-67.099 1188.74,-54.1067 1316,-31 1324.74,-29.413 1334.12,-27.23 1342.7,-25.0394"/>
<polygon fill="midnightblue" stroke="midnightblue" points="958.855,-69.221 949.128,-73.4212 959.351,-76.2033 958.855,-69.221"/>
</g>
<!-- Node24 -->
<g id="node24" class="node"><title>Node24</title>
<g id="a_node24"><a xlink:href="statistics__observable__tcl_8cpp.html" target="_top" xlink:title="statistics_observable\l_tcl.cpp">
<polygon fill="none" stroke="black" points="1439,-0.5 1439,-30.5 1559,-30.5 1559,-0.5 1439,-0.5"/>
<text text-anchor="start" x="1447" y="-18.5" font-family="Helvetica,sans-Serif" font-size="10.00">statistics_observable</text>
<text text-anchor="middle" x="1499" y="-7.5" font-family="Helvetica,sans-Serif" font-size="10.00">_tcl.cpp</text>
</a>
</g>
</g>
<!-- Node8&#45;&gt;Node24 -->
<g id="edge23" class="edge"><title>Node8&#45;&gt;Node24</title>
<path fill="none" stroke="midnightblue" d="M959.051,-73.6949C1052.16,-68.9596 1258.16,-56.3814 1430,-31 1432.91,-30.5707 1435.87,-30.0945 1438.87,-29.5839"/>
<polygon fill="midnightblue" stroke="midnightblue" points="958.875,-70.1992 949.063,-74.1946 959.225,-77.1904 958.875,-70.1992"/>
</g>
<!-- Node25&#45;&gt;Node9 -->
<g id="edge25" class="edge"><title>Node25&#45;&gt;Node9</title>
<path fill="none" stroke="midnightblue" d="M1643.38,-62.8665C1665.67,-51.3347 1697.44,-34.8992 1716.55,-25.0091"/>
<polygon fill="midnightblue" stroke="midnightblue" points="1641.75,-59.7712 1634.48,-67.4751 1644.97,-65.9883 1641.75,-59.7712"/>
</g>
<!-- Node25&#45;&gt;Node13 -->
<g id="edge26" class="edge"><title>Node25&#45;&gt;Node13</title>
<path fill="none" stroke="midnightblue" d="M1618,-57.3165C1618,-46.4962 1618,-33.398 1618,-25.0091"/>
<polygon fill="midnightblue" stroke="midnightblue" points="1614.5,-57.4751 1618,-67.4751 1621.5,-57.4751 1614.5,-57.4751"/>
</g>
<!-- Node26 -->
<g id="node26" class="node"><title>Node26</title>
<g id="a_node26"><a xlink:href="minimize__energy_8cpp.html" target="_top" xlink:title="minimize_energy.cpp">
<polygon fill="none" stroke="black" points="1808,-6 1808,-25 1928,-25 1928,-6 1808,-6"/>
<text text-anchor="middle" x="1868" y="-13" font-family="Helvetica,sans-Serif" font-size="10.00">minimize_energy.cpp</text>
</a>
</g>
</g>
<!-- Node25&#45;&gt;Node26 -->
<g id="edge27" class="edge"><title>Node25&#45;&gt;Node26</title>
<path fill="none" stroke="midnightblue" d="M1663.74,-65.1138C1712.26,-53.5653 1787.91,-35.5615 1832.25,-25.0091"/>
<polygon fill="midnightblue" stroke="midnightblue" points="1662.74,-61.7548 1653.82,-67.4751 1664.36,-68.5646 1662.74,-61.7548"/>
</g>
<!-- Node27 -->
<g id="node27" class="node"><title>Node27</title>
<g id="a_node27"><a xlink:href="minimize__energy__tcl_8cpp.html" target="_top" xlink:title="minimize_energy_tcl.cpp">
<polygon fill="none" stroke="black" points="1946.5,-6 1946.5,-25 2085.5,-25 2085.5,-6 1946.5,-6"/>
<text text-anchor="middle" x="2016" y="-13" font-family="Helvetica,sans-Serif" font-size="10.00">minimize_energy_tcl.cpp</text>
</a>
</g>
</g>
<!-- Node25&#45;&gt;Node27 -->
<g id="edge28" class="edge"><title>Node25&#45;&gt;Node27</title>
<path fill="none" stroke="midnightblue" d="M1688.77,-66.8716C1753.49,-58.3194 1851.84,-44.8155 1937,-31 1948.15,-29.1912 1960.15,-27.0754 1971.35,-25.028"/>
<polygon fill="midnightblue" stroke="midnightblue" points="1688.13,-63.425 1678.67,-68.201 1689.05,-70.365 1688.13,-63.425"/>
</g>
</g>
</svg>
        <g id="navigator" transform="translate(0 0)" fill="#404254">
                <rect fill="#f2f5e9" fill-opacity="0.5" stroke="#606060" stroke-width=".5" x="0" y="0" width="60" height="60"/>
                <use id="zoomplus" xlink:href="#zoomPlus" x="17" y="9" onmousedown="handleZoom(evt,'in')"/>
                <use id="zoomminus" xlink:href="#zoomMin" x="42" y="9" onmousedown="handleZoom(evt,'out')"/>
                <use id="reset" xlink:href="#resetDef" x="30" y="36" onmousedown="handleReset()"/>
                <g id="arrowUp" xlink:href="#dirArrow" transform="translate(30 24)" onmousedown="handlePan(0,-1)">
                  <use xlink:href="#rim" fill="#404040">
                        <set attributeName="fill" to="#808080" begin="arrowUp.mouseover" end="arrowUp.mouseout"/>
                  </use>
                  <path fill="none" stroke="white" stroke-width="1.5" d="M0,-3.0v7 M-2.5,-0.5L0,-3.0L2.5,-0.5"/>
                </g>
                <g id="arrowRight" xlink:href="#dirArrow" transform="rotate(90) translate(36 -43)" onmousedown="handlePan(1,0)">
                  <use xlink:href="#rim" fill="#404040">
                        <set attributeName="fill" to="#808080" begin="arrowRight.mouseover" end="arrowRight.mouseout"/>
                  </use>
                  <path fill="none" stroke="white" stroke-width="1.5" d="M0,-3.0v7 M-2.5,-0.5L0,-3.0L2.5,-0.5"/>
                </g>
                <g id="arrowDown" xlink:href="#dirArrow" transform="rotate(180) translate(-30 -48)" onmousedown="handlePan(0,1)">
                  <use xlink:href="#rim" fill="#404040">
                        <set attributeName="fill" to="#808080" begin="arrowDown.mouseover" end="arrowDown.mouseout"/>
                  </use>
                  <path fill="none" stroke="white" stroke-width="1.5" d="M0,-3.0v7 M-2.5,-0.5L0,-3.0L2.5,-0.5"/>
                </g>
                <g id="arrowLeft" xlink:href="#dirArrow" transform="rotate(270) translate(-36 17)" onmousedown="handlePan(-1,0)">
                  <use xlink:href="#rim" fill="#404040">
                        <set attributeName="fill" to="#808080" begin="arrowLeft.mouseover" end="arrowLeft.mouseout"/>
                  </use>
                  <path fill="none" stroke="white" stroke-width="1.5" d="M0,-3.0v7 M-2.5,-0.5L0,-3.0L2.5,-0.5"/>
                </g>
        </g>
        <svg viewBox="0 0 15 15" width="100%" height="30px" preserveAspectRatio="xMaxYMin meet">
         <g id="arrow_out" transform="scale(0.3 0.3)">
          <a xlink:href="EspressoSystemInterface_8hpp__dep__incl_org.svg" target="_base">
           <rect id="button" ry="5" rx="5" y="6" x="6" height="38" width="38"
                fill="#f2f5e9" fill-opacity="0.5" stroke="#606060" stroke-width="1.0"/>
           <path id="arrow"
             d="M 11.500037,31.436501 C 11.940474,20.09759 22.043105,11.32322 32.158766,21.979434 L 37.068811,17.246167 C 37.068811,17.246167 37.088388,32 37.088388,32 L 22.160133,31.978069 C 22.160133,31.978069 26.997745,27.140456 26.997745,27.140456 C 18.528582,18.264221 13.291696,25.230495 11.500037,31.436501 z"
             style="fill:#404040;"/>
          </a>
         </g>
        </svg>
</svg>
