<?xml version="1.0" encoding="UTF-8" standalone="no"?>
<!DOCTYPE svg PUBLIC "-//W3C//DTD SVG 1.1//EN"
 "http://www.w3.org/Graphics/SVG/1.1/DTD/svg11.dtd">
<!-- Generated by graphviz version 2.38.0 (20140413.2041)
 -->
<!-- Title: EspressoSystemInterface.cpp Pages: 1 -->
<!--zoomable 420 -->
<svg id="main" version="1.1" xmlns="http://www.w3.org/2000/svg" xmlns:xlink="http://www.w3.org/1999/xlink" xml:space="preserve" onload="init(evt)">
<style type="text/css"><![CDATA[
.edge:hover path { stroke: red; }
.edge:hover polygon { stroke: red; fill: red; }
]]></style>
<script type="text/javascript"><![CDATA[
var edges = document.getElementsByTagName('g');
if (edges && edges.length) {
  for (var i=0;i<edges.length;i++) {
    if (edges[i].id.substr(0,4)=='edge') {
      edges[i].setAttribute('class','edge');
    }
  }
}
]]></script>
        <defs>
                <circle id="rim" cx="0" cy="0" r="7"/>
                <circle id="rim2" cx="0" cy="0" r="3.5"/>
                <g id="zoomPlus">
                        <use xlink:href="#rim" fill="#404040">
                                <set attributeName="fill" to="#808080" begin="zoomplus.mouseover" end="zoomplus.mouseout"/>
                        </use>
                        <path d="M-4,0h8M0,-4v8" fill="none" stroke="white" stroke-width="1.5" pointer-events="none"/>
                </g>
                <g id="zoomMin">
                        <use xlink:href="#rim" fill="#404040">
                                <set attributeName="fill" to="#808080" begin="zoomminus.mouseover" end="zoomminus.mouseout"/>
                        </use>
                        <path d="M-4,0h8" fill="none" stroke="white" stroke-width="1.5" pointer-events="none"/>
                </g>
                <g id="dirArrow">
                        <path fill="none" stroke="white" stroke-width="1.5" d="M0,-3.0v7 M-2.5,-0.5L0,-3.0L2.5,-0.5"/>
                </g>
               <g id="resetDef">
                       <use xlink:href="#rim2" fill="#404040">
                               <set attributeName="fill" to="#808080" begin="reset.mouseover" end="reset.mouseout"/>
                       </use>
               </g>
        </defs>

<script type="text/javascript">
var viewWidth = 1018;
var viewHeight = 420;
var sectionId = 'dynsection-0';
</script>
<script xlink:href="svgpan.js"/>
<svg id="graph" class="graph">
<g id="viewport">
<title>EspressoSystemInterface.cpp</title>
<!-- Node1 -->
<g id="node1" class="node"><title>Node1</title>
<polygon fill="#bfbfbf" stroke="black" points="205.5,-392.5 205.5,-411.5 366.5,-411.5 366.5,-392.5 205.5,-392.5"/>
<text text-anchor="middle" x="286" y="-399.5" font-family="Helvetica,sans-Serif" font-size="10.00">EspressoSystemInterface.cpp</text>
</g>
<!-- Node2 -->
<g id="node2" class="node"><title>Node2</title>
<g id="a_node2"><a xlink:href="EspressoSystemInterface_8hpp.html" target="_top" xlink:title="EspressoSystemInterface.hpp">
<polygon fill="none" stroke="black" points="51.5,-336.5 51.5,-355.5 212.5,-355.5 212.5,-336.5 51.5,-336.5"/>
<text text-anchor="middle" x="132" y="-343.5" font-family="Helvetica,sans-Serif" font-size="10.00">EspressoSystemInterface.hpp</text>
</a>
</g>
</g>
<!-- Node1&#45;&gt;Node2 -->
<g id="edge1" class="edge"><title>Node1&#45;&gt;Node2</title>
<path fill="none" stroke="midnightblue" d="M261.598,-392.444C235.803,-383.399 194.923,-369.064 165.982,-358.916"/>
<polygon fill="midnightblue" stroke="midnightblue" points="166.882,-355.523 156.288,-355.516 164.566,-362.128 166.882,-355.523"/>
</g>
<!-- Node8 -->
<g id="node8" class="node"><title>Node8</title>
<g id="a_node8"><a xlink:href="cuda__interface_8hpp.html" target="_top" xlink:title="cuda_interface.hpp">
<polygon fill="none" stroke="black" points="0,-280.5 0,-299.5 110,-299.5 110,-280.5 0,-280.5"/>
<text text-anchor="middle" x="55" y="-287.5" font-family="Helvetica,sans-Serif" font-size="10.00">cuda_interface.hpp</text>
</a>
</g>
</g>
<!-- Node1&#45;&gt;Node8 -->
<g id="edge55" class="edge"><title>Node1&#45;&gt;Node8</title>
<path fill="none" stroke="midnightblue" d="M205.46,-396.99C142.62,-391.974 62.6346,-380.788 42,-356 30.9928,-342.777 37.2751,-322.831 44.4073,-308.523"/>
<polygon fill="midnightblue" stroke="midnightblue" points="47.5239,-310.119 49.2786,-299.671 41.3911,-306.744 47.5239,-310.119"/>
</g>
<!-- Node13 -->
<g id="node13" class="node"><title>Node13</title>
<g id="a_node13"><a xlink:href="cells_8hpp.html" target="_top" xlink:title="This file contains everything related to the cell structure / cell system. ">
<polygon fill="none" stroke="black" points="305,-336.5 305,-355.5 365,-355.5 365,-336.5 305,-336.5"/>
<text text-anchor="middle" x="335" y="-343.5" font-family="Helvetica,sans-Serif" font-size="10.00">cells.hpp</text>
</a>
</g>
</g>
<!-- Node1&#45;&gt;Node13 -->
<g id="edge13" class="edge"><title>Node1&#45;&gt;Node13</title>
<path fill="none" stroke="midnightblue" d="M294.091,-392.083C301.155,-384.298 311.588,-372.801 320.149,-363.367"/>
<polygon fill="midnightblue" stroke="midnightblue" points="322.931,-365.509 327.059,-355.751 317.747,-360.805 322.931,-365.509"/>
</g>
<!-- Node14 -->
<g id="node14" class="node"><title>Node14</title>
<g id="a_node14"><a xlink:href="particle__data_8hpp.html" target="_top" xlink:title="For more information on particle_data, see particle_data.c. ">
<polygon fill="none" stroke="black" points="261.5,-224.5 261.5,-243.5 362.5,-243.5 362.5,-224.5 261.5,-224.5"/>
<text text-anchor="middle" x="312" y="-231.5" font-family="Helvetica,sans-Serif" font-size="10.00">particle_data.hpp</text>
</a>
</g>
</g>
<!-- Node1&#45;&gt;Node14 -->
<g id="edge40" class="edge"><title>Node1&#45;&gt;Node14</title>
<path fill="none" stroke="midnightblue" d="M280.036,-392.382C266.707,-371.969 237.104,-319.424 256,-280 262.253,-266.954 274.336,-256.492 285.682,-248.951"/>
<polygon fill="midnightblue" stroke="midnightblue" points="287.809,-251.752 294.498,-243.535 284.146,-245.787 287.809,-251.752"/>
</g>
<!-- Node32 -->
<g id="node32" class="node"><title>Node32</title>
<g id="a_node32"><a xlink:href="grid_8hpp.html" target="_top" xlink:title="Domain decomposition for parallel computing. ">
<polygon fill="none" stroke="black" points="579,-336.5 579,-355.5 635,-355.5 635,-336.5 579,-336.5"/>
<text text-anchor="middle" x="607" y="-343.5" font-family="Helvetica,sans-Serif" font-size="10.00">grid.hpp</text>
</a>
</g>
</g>
<!-- Node1&#45;&gt;Node32 -->
<g id="edge41" class="edge"><title>Node1&#45;&gt;Node32</title>
<path fill="none" stroke="midnightblue" d="M336.863,-392.444C401.27,-381.609 510.796,-363.184 568.619,-353.457"/>
<polygon fill="midnightblue" stroke="midnightblue" points="569.511,-356.856 578.791,-351.745 568.349,-349.953 569.511,-356.856"/>
</g>
<!-- Node38 -->
<g id="node38" class="node"><title>Node38</title>
<polygon fill="none" stroke="#bfbfbf" points="653,-336.5 653,-355.5 713,-355.5 713,-336.5 653,-336.5"/>
<text text-anchor="middle" x="683" y="-343.5" font-family="Helvetica,sans-Serif" font-size="10.00">iostream</text>
</g>
<!-- Node1&#45;&gt;Node38 -->
<g id="edge56" class="edge"><title>Node1&#45;&gt;Node38</title>
<path fill="none" stroke="midnightblue" d="M366.686,-393.228C437.131,-385.899 542.287,-373.65 642.804,-356.057"/>
<polygon fill="midnightblue" stroke="midnightblue" points="643.592,-359.472 652.829,-354.282 642.371,-352.579 643.592,-359.472"/>
</g>
<!-- Node3 -->
<g id="node3" class="node"><title>Node3</title>
<g id="a_node3"><a xlink:href="SystemInterface_8hpp.html" target="_top" xlink:title="SystemInterface.hpp">
<polygon fill="none" stroke="black" points="81,-224.5 81,-243.5 199,-243.5 199,-224.5 81,-224.5"/>
<text text-anchor="middle" x="140" y="-231.5" font-family="Helvetica,sans-Serif" font-size="10.00">SystemInterface.hpp</text>
</a>
</g>
</g>
<!-- Node2&#45;&gt;Node3 -->
<g id="edge2" class="edge"><title>Node2&#45;&gt;Node3</title>
<path fill="none" stroke="midnightblue" d="M132.628,-336.368C133.919,-318.617 136.897,-277.666 138.647,-253.597"/>
<polygon fill="midnightblue" stroke="midnightblue" points="142.141,-253.819 139.375,-243.591 135.159,-253.311 142.141,-253.819"/>
</g>
<!-- Node2&#45;&gt;Node8 -->
<g id="edge7" class="edge"><title>Node2&#45;&gt;Node8</title>
<path fill="none" stroke="midnightblue" d="M119.629,-336.324C107.842,-328.058 89.8677,-315.453 75.8645,-305.632"/>
<polygon fill="midnightblue" stroke="midnightblue" points="77.5376,-302.531 67.3407,-299.655 73.5184,-308.262 77.5376,-302.531"/>
</g>
<!-- Node4 -->
<g id="node4" class="node"><title>Node4</title>
<g id="a_node4"><a xlink:href="Vector_8hpp.html" target="_top" xlink:title="Vector.hpp">
<polygon fill="none" stroke="black" points="106,-168.5 106,-187.5 174,-187.5 174,-168.5 106,-168.5"/>
<text text-anchor="middle" x="140" y="-175.5" font-family="Helvetica,sans-Serif" font-size="10.00">Vector.hpp</text>
</a>
</g>
</g>
<!-- Node3&#45;&gt;Node4 -->
<g id="edge3" class="edge"><title>Node3&#45;&gt;Node4</title>
<path fill="none" stroke="midnightblue" d="M140,-224.083C140,-217.006 140,-206.861 140,-197.986"/>
<polygon fill="midnightblue" stroke="midnightblue" points="143.5,-197.751 140,-187.751 136.5,-197.751 143.5,-197.751"/>
</g>
<!-- Node7 -->
<g id="node7" class="node"><title>Node7</title>
<polygon fill="none" stroke="#bfbfbf" points="228.5,-112.5 228.5,-131.5 275.5,-131.5 275.5,-112.5 228.5,-112.5"/>
<text text-anchor="middle" x="252" y="-119.5" font-family="Helvetica,sans-Serif" font-size="10.00">vector</text>
</g>
<!-- Node3&#45;&gt;Node7 -->
<g id="edge6" class="edge"><title>Node3&#45;&gt;Node7</title>
<path fill="none" stroke="midnightblue" d="M148.788,-224.368C167.599,-205.894 211.993,-162.293 235.97,-138.744"/>
<polygon fill="midnightblue" stroke="midnightblue" points="238.57,-141.096 243.252,-131.591 233.665,-136.101 238.57,-141.096"/>
</g>
<!-- Node5 -->
<g id="node5" class="node"><title>Node5</title>
<polygon fill="none" stroke="#bfbfbf" points="81,-112.5 81,-131.5 145,-131.5 145,-112.5 81,-112.5"/>
<text text-anchor="middle" x="113" y="-119.5" font-family="Helvetica,sans-Serif" font-size="10.00">algorithm</text>
</g>
<!-- Node4&#45;&gt;Node5 -->
<g id="edge4" class="edge"><title>Node4&#45;&gt;Node5</title>
<path fill="none" stroke="midnightblue" d="M135.541,-168.083C131.846,-160.691 126.477,-149.953 121.906,-140.811"/>
<polygon fill="midnightblue" stroke="midnightblue" points="124.978,-139.13 117.376,-131.751 118.717,-142.261 124.978,-139.13"/>
</g>
<!-- Node6 -->
<g id="node6" class="node"><title>Node6</title>
<polygon fill="none" stroke="#bfbfbf" points="163.5,-112.5 163.5,-131.5 210.5,-131.5 210.5,-112.5 163.5,-112.5"/>
<text text-anchor="middle" x="187" y="-119.5" font-family="Helvetica,sans-Serif" font-size="10.00">cmath</text>
</g>
<!-- Node4&#45;&gt;Node6 -->
<g id="edge5" class="edge"><title>Node4&#45;&gt;Node6</title>
<path fill="none" stroke="midnightblue" d="M147.761,-168.083C154.537,-160.298 164.543,-148.801 172.755,-139.367"/>
<polygon fill="midnightblue" stroke="midnightblue" points="175.458,-141.592 179.383,-131.751 170.178,-136.996 175.458,-141.592"/>
</g>
<!-- Node8&#45;&gt;Node3 -->
<g id="edge12" class="edge"><title>Node8&#45;&gt;Node3</title>
<path fill="none" stroke="midnightblue" d="M68.6567,-280.324C81.9163,-271.9 102.268,-258.971 117.846,-249.074"/>
<polygon fill="midnightblue" stroke="midnightblue" points="119.813,-251.971 126.377,-243.655 116.06,-246.063 119.813,-251.971"/>
</g>
<!-- Node9 -->
<g id="node9" class="node"><title>Node9</title>
<g id="a_node9"><a xlink:href="config_8hpp.html" target="_top" xlink:title="This file contains the defaults for Espresso. ">
<polygon fill="none" stroke="black" points="339.5,-56.5 339.5,-75.5 406.5,-75.5 406.5,-56.5 339.5,-56.5"/>
<text text-anchor="middle" x="373" y="-63.5" font-family="Helvetica,sans-Serif" font-size="10.00">config.hpp</text>
</a>
</g>
</g>
<!-- Node8&#45;&gt;Node9 -->
<g id="edge8" class="edge"><title>Node8&#45;&gt;Node9</title>
<path fill="none" stroke="midnightblue" d="M52.5511,-280.141C45.2014,-251.412 26.5322,-159.927 72,-112 106.428,-75.7099 254.589,-68.4849 329.41,-67.1828"/>
<polygon fill="midnightblue" stroke="midnightblue" points="329.514,-70.6817 339.461,-67.0359 329.411,-63.6825 329.514,-70.6817"/>
</g>
<!-- Node10 -->
<g id="node10" class="node"><title>Node10</title>
<g id="a_node10"><a xlink:href="acconfig_8hpp.html" target="_top" xlink:title="acconfig.hpp">
<polygon fill="none" stroke="black" points="223,-0.5 223,-19.5 301,-19.5 301,-0.5 223,-0.5"/>
<text text-anchor="middle" x="262" y="-7.5" font-family="Helvetica,sans-Serif" font-size="10.00">acconfig.hpp</text>
</a>
</g>
</g>
<!-- Node9&#45;&gt;Node10 -->
<g id="edge9" class="edge"><title>Node9&#45;&gt;Node10</title>
<path fill="none" stroke="midnightblue" d="M355.166,-56.324C337.284,-47.6247 309.525,-34.1202 288.954,-24.113"/>
<polygon fill="midnightblue" stroke="midnightblue" points="290.313,-20.8819 279.79,-19.6545 287.251,-27.1765 290.313,-20.8819"/>
</g>
<!-- Node11 -->
<g id="node11" class="node"><title>Node11</title>
<g id="a_node11"><a xlink:href="myconfig-final_8hpp.html" target="_top" xlink:title="myconfig&#45;final.hpp">
<polygon fill="none" stroke="black" points="319.5,-0.5 319.5,-19.5 426.5,-19.5 426.5,-0.5 319.5,-0.5"/>
<text text-anchor="middle" x="373" y="-7.5" font-family="Helvetica,sans-Serif" font-size="10.00">myconfig&#45;final.hpp</text>
</a>
</g>
</g>
<!-- Node9&#45;&gt;Node11 -->
<g id="edge10" class="edge"><title>Node9&#45;&gt;Node11</title>
<path fill="none" stroke="midnightblue" d="M373,-56.083C373,-49.0059 373,-38.8611 373,-29.9865"/>
<polygon fill="midnightblue" stroke="midnightblue" points="376.5,-29.751 373,-19.7511 369.5,-29.7511 376.5,-29.751"/>
</g>
<!-- Node12 -->
<g id="node12" class="node"><title>Node12</title>
<g id="a_node12"><a xlink:href="config-features_8hpp.html" target="_top" xlink:title="config&#45;features.hpp">
<polygon fill="none" stroke="black" points="444.5,-0.5 444.5,-19.5 555.5,-19.5 555.5,-0.5 444.5,-0.5"/>
<text text-anchor="middle" x="500" y="-7.5" font-family="Helvetica,sans-Serif" font-size="10.00">config&#45;features.hpp</text>
</a>
</g>
</g>
<!-- Node9&#45;&gt;Node12 -->
<g id="edge11" class="edge"><title>Node9&#45;&gt;Node12</title>
<path fill="none" stroke="midnightblue" d="M393.124,-56.4435C414.024,-47.5566 446.935,-33.5632 470.716,-23.4514"/>
<polygon fill="midnightblue" stroke="midnightblue" points="472.138,-26.6504 479.971,-19.5164 469.398,-20.2085 472.138,-26.6504"/>
</g>
<!-- Node13&#45;&gt;Node14 -->
<g id="edge14" class="edge"><title>Node13&#45;&gt;Node14</title>
<path fill="none" stroke="midnightblue" d="M337.54,-336.394C340.851,-323.766 345.597,-299.589 340,-280 337.098,-269.844 331.168,-259.747 325.51,-251.699"/>
<polygon fill="midnightblue" stroke="midnightblue" points="328.219,-249.479 319.412,-243.589 322.624,-253.685 328.219,-249.479"/>
</g>
<!-- Node26 -->
<g id="node26" class="node"><title>Node26</title>
<g id="a_node26"><a xlink:href="ghosts_8hpp.html" target="_top" xlink:title="Ghost particles and particle exchange. ">
<polygon fill="none" stroke="black" points="387,-280.5 387,-299.5 457,-299.5 457,-280.5 387,-280.5"/>
<text text-anchor="middle" x="422" y="-287.5" font-family="Helvetica,sans-Serif" font-size="10.00">ghosts.hpp</text>
</a>
</g>
</g>
<!-- Node13&#45;&gt;Node26 -->
<g id="edge32" class="edge"><title>Node13&#45;&gt;Node26</title>
<path fill="none" stroke="midnightblue" d="M348.978,-336.324C362.55,-327.9 383.38,-314.971 399.325,-305.074"/>
<polygon fill="midnightblue" stroke="midnightblue" points="401.406,-307.902 408.057,-299.655 397.714,-301.954 401.406,-307.902"/>
</g>
<!-- Node31 -->
<g id="node31" class="node"><title>Node31</title>
<g id="a_node31"><a xlink:href="verlet_8hpp.html" target="_top" xlink:title="This file contains routines to setup and handle interaction pair lists (verlet pair lists) for the no...">
<polygon fill="none" stroke="black" points="265,-280.5 265,-299.5 331,-299.5 331,-280.5 265,-280.5"/>
<text text-anchor="middle" x="298" y="-287.5" font-family="Helvetica,sans-Serif" font-size="10.00">verlet.hpp</text>
</a>
</g>
</g>
<!-- Node13&#45;&gt;Node31 -->
<g id="edge38" class="edge"><title>Node13&#45;&gt;Node31</title>
<path fill="none" stroke="midnightblue" d="M328.89,-336.083C323.718,-328.534 316.154,-317.495 309.806,-308.23"/>
<polygon fill="midnightblue" stroke="midnightblue" points="312.536,-306.022 303.996,-299.751 306.761,-309.979 312.536,-306.022"/>
</g>
<!-- Node15 -->
<g id="node15" class="node"><title>Node15</title>
<g id="a_node15"><a xlink:href="utils_8hpp.html" target="_top" xlink:title="Small functions that are useful not only for one modul. ">
<polygon fill="none" stroke="black" points="566.5,-168.5 566.5,-187.5 625.5,-187.5 625.5,-168.5 566.5,-168.5"/>
<text text-anchor="middle" x="596" y="-175.5" font-family="Helvetica,sans-Serif" font-size="10.00">utils.hpp</text>
</a>
</g>
</g>
<!-- Node14&#45;&gt;Node15 -->
<g id="edge15" class="edge"><title>Node14&#45;&gt;Node15</title>
<path fill="none" stroke="midnightblue" d="M357.001,-224.444C411.987,-213.988 504.145,-196.465 556.502,-186.51"/>
<polygon fill="midnightblue" stroke="midnightblue" points="557.25,-189.931 566.42,-184.624 555.942,-183.054 557.25,-189.931"/>
</g>
<!-- Node15&#45;&gt;Node6 -->
<g id="edge16" class="edge"><title>Node15&#45;&gt;Node6</title>
<path fill="none" stroke="midnightblue" d="M566.242,-172.408C556.316,-170.93 545.19,-169.332 535,-168 398.124,-150.111 359.504,-158.791 220.824,-132.097"/>
<polygon fill="midnightblue" stroke="midnightblue" points="221.149,-128.594 210.663,-130.113 219.807,-135.464 221.149,-128.594"/>
</g>
<!-- Node15&#45;&gt;Node7 -->
<g id="edge30" class="edge"><title>Node15&#45;&gt;Node7</title>
<path fill="none" stroke="midnightblue" d="M566.373,-172.349C502.638,-162.344 352.854,-138.832 285.658,-128.284"/>
<polygon fill="midnightblue" stroke="midnightblue" points="286.03,-124.799 275.609,-126.706 284.945,-131.715 286.03,-124.799"/>
</g>
<!-- Node15&#45;&gt;Node9 -->
<g id="edge20" class="edge"><title>Node15&#45;&gt;Node9</title>
<path fill="none" stroke="midnightblue" d="M566.287,-172.337C504.547,-162.51 367.551,-139.924 361,-132 350.069,-118.777 355.998,-98.8309 362.822,-84.5233"/>
<polygon fill="midnightblue" stroke="midnightblue" points="365.922,-86.1484 367.494,-75.6708 359.731,-82.8813 365.922,-86.1484"/>
</g>
<!-- Node16 -->
<g id="node16" class="node"><title>Node16</title>
<polygon fill="none" stroke="#bfbfbf" points="662,-112.5 662,-131.5 708,-131.5 708,-112.5 662,-112.5"/>
<text text-anchor="middle" x="685" y="-119.5" font-family="Helvetica,sans-Serif" font-size="10.00">cstdio</text>
</g>
<!-- Node15&#45;&gt;Node16 -->
<g id="edge17" class="edge"><title>Node15&#45;&gt;Node16</title>
<path fill="none" stroke="midnightblue" d="M610.299,-168.324C624.183,-159.9 645.492,-146.971 661.804,-137.074"/>
<polygon fill="midnightblue" stroke="midnightblue" points="664.002,-139.834 670.736,-131.655 660.371,-133.85 664.002,-139.834"/>
</g>
<!-- Node17 -->
<g id="node17" class="node"><title>Node17</title>
<polygon fill="none" stroke="#bfbfbf" points="726.5,-112.5 726.5,-131.5 775.5,-131.5 775.5,-112.5 726.5,-112.5"/>
<text text-anchor="middle" x="751" y="-119.5" font-family="Helvetica,sans-Serif" font-size="10.00">cstdlib</text>
</g>
<!-- Node15&#45;&gt;Node17 -->
<g id="edge18" class="edge"><title>Node15&#45;&gt;Node17</title>
<path fill="none" stroke="midnightblue" d="M620.56,-168.444C646.523,-159.399 687.668,-145.064 716.797,-134.916"/>
<polygon fill="midnightblue" stroke="midnightblue" points="718.263,-138.112 726.555,-131.516 715.96,-131.501 718.263,-138.112"/>
</g>
<!-- Node18 -->
<g id="node18" class="node"><title>Node18</title>
<polygon fill="none" stroke="#bfbfbf" points="794,-112.5 794,-131.5 844,-131.5 844,-112.5 794,-112.5"/>
<text text-anchor="middle" x="819" y="-119.5" font-family="Helvetica,sans-Serif" font-size="10.00">cstring</text>
</g>
<!-- Node15&#45;&gt;Node18 -->
<g id="edge19" class="edge"><title>Node15&#45;&gt;Node18</title>
<path fill="none" stroke="midnightblue" d="M625.519,-170.213C660.867,-162.032 722.108,-147.694 783.857,-132.243"/>
<polygon fill="midnightblue" stroke="midnightblue" points="784.921,-135.585 793.767,-129.754 783.216,-128.795 784.921,-135.585"/>
</g>
<!-- Node19 -->
<g id="node19" class="node"><title>Node19</title>
<g id="a_node19"><a xlink:href="debug_8hpp.html" target="_top" xlink:title="This file controls debug facilities. ">
<polygon fill="none" stroke="black" points="370,-112.5 370,-131.5 438,-131.5 438,-112.5 370,-112.5"/>
<text text-anchor="middle" x="404" y="-119.5" font-family="Helvetica,sans-Serif" font-size="10.00">debug.hpp</text>
</a>
</g>
</g>
<!-- Node15&#45;&gt;Node19 -->
<g id="edge21" class="edge"><title>Node15&#45;&gt;Node19</title>
<path fill="none" stroke="midnightblue" d="M566.421,-168.681C533.633,-159.459 480.571,-144.536 444.072,-134.27"/>
<polygon fill="midnightblue" stroke="midnightblue" points="444.821,-130.845 434.247,-131.507 442.926,-137.584 444.821,-130.845"/>
</g>
<!-- Node20 -->
<g id="node20" class="node"><title>Node20</title>
<g id="a_node20"><a xlink:href="lees__edwards_8hpp.html" target="_top" xlink:title="lees_edwards.hpp">
<polygon fill="none" stroke="black" points="456,-112.5 456,-131.5 560,-131.5 560,-112.5 456,-112.5"/>
<text text-anchor="middle" x="508" y="-119.5" font-family="Helvetica,sans-Serif" font-size="10.00">lees_edwards.hpp</text>
</a>
</g>
</g>
<!-- Node15&#45;&gt;Node20 -->
<g id="edge23" class="edge"><title>Node15&#45;&gt;Node20</title>
<path fill="none" stroke="midnightblue" d="M581.861,-168.324C568.134,-159.9 547.064,-146.971 530.936,-137.074"/>
<polygon fill="midnightblue" stroke="midnightblue" points="532.457,-133.902 522.104,-131.655 528.796,-139.868 532.457,-133.902"/>
</g>
<!-- Node21 -->
<g id="node21" class="node"><title>Node21</title>
<g id="a_node21"><a xlink:href="errorhandling_8hpp.html" target="_top" xlink:title="This file contains the errorhandling code for severe errors, like a broken bond or illegal parameter ...">
<polygon fill="none" stroke="black" points="862.5,-112.5 862.5,-131.5 965.5,-131.5 965.5,-112.5 862.5,-112.5"/>
<text text-anchor="middle" x="914" y="-119.5" font-family="Helvetica,sans-Serif" font-size="10.00">errorhandling.hpp</text>
</a>
</g>
</g>
<!-- Node15&#45;&gt;Node21 -->
<g id="edge25" class="edge"><title>Node15&#45;&gt;Node21</title>
<path fill="none" stroke="midnightblue" d="M625.631,-171.968C677.475,-163.165 785.592,-144.805 853.712,-133.238"/>
<polygon fill="midnightblue" stroke="midnightblue" points="854.601,-136.637 863.874,-131.512 853.429,-129.736 854.601,-136.637"/>
</g>
<!-- Node25 -->
<g id="node25" class="node"><title>Node25</title>
<polygon fill="none" stroke="#bfbfbf" points="578.5,-112.5 578.5,-131.5 643.5,-131.5 643.5,-112.5 578.5,-112.5"/>
<text text-anchor="middle" x="611" y="-119.5" font-family="Helvetica,sans-Serif" font-size="10.00">exception</text>
</g>
<!-- Node15&#45;&gt;Node25 -->
<g id="edge31" class="edge"><title>Node15&#45;&gt;Node25</title>
<path fill="none" stroke="midnightblue" d="M598.477,-168.083C600.486,-160.849 603.386,-150.409 605.89,-141.397"/>
<polygon fill="midnightblue" stroke="midnightblue" points="609.265,-142.323 608.569,-131.751 602.52,-140.449 609.265,-142.323"/>
</g>
<!-- Node19&#45;&gt;Node9 -->
<g id="edge22" class="edge"><title>Node19&#45;&gt;Node9</title>
<path fill="none" stroke="midnightblue" d="M398.881,-112.083C394.592,-104.613 388.342,-93.7244 383.058,-84.5199"/>
<polygon fill="midnightblue" stroke="midnightblue" points="386.038,-82.6811 378.024,-75.7511 379.967,-86.1662 386.038,-82.6811"/>
</g>
<!-- Node20&#45;&gt;Node9 -->
<g id="edge24" class="edge"><title>Node20&#45;&gt;Node9</title>
<path fill="none" stroke="midnightblue" d="M486.609,-112.444C464.293,-103.517 429.097,-89.4387 403.792,-79.3168"/>
<polygon fill="midnightblue" stroke="midnightblue" points="404.876,-75.9807 394.291,-75.5164 402.276,-82.4801 404.876,-75.9807"/>
</g>
<!-- Node21&#45;&gt;Node9 -->
<g id="edge26" class="edge"><title>Node21&#45;&gt;Node9</title>
<path fill="none" stroke="midnightblue" d="M862.441,-113.197C859.249,-112.774 856.082,-112.372 853,-112 692.463,-92.6457 500.863,-76.8753 416.511,-70.302"/>
<polygon fill="midnightblue" stroke="midnightblue" points="416.767,-66.8114 406.526,-69.5279 416.226,-73.7904 416.767,-66.8114"/>
</g>
<!-- Node22 -->
<g id="node22" class="node"><title>Node22</title>
<polygon fill="none" stroke="#bfbfbf" points="892,-56.5 892,-75.5 936,-75.5 936,-56.5 892,-56.5"/>
<text text-anchor="middle" x="914" y="-63.5" font-family="Helvetica,sans-Serif" font-size="10.00">string</text>
</g>
<!-- Node21&#45;&gt;Node22 -->
<g id="edge27" class="edge"><title>Node21&#45;&gt;Node22</title>
<path fill="none" stroke="midnightblue" d="M914,-112.083C914,-105.006 914,-94.8611 914,-85.9865"/>
<polygon fill="midnightblue" stroke="midnightblue" points="917.5,-85.751 914,-75.7511 910.5,-85.7511 917.5,-85.751"/>
</g>
<!-- Node23 -->
<g id="node23" class="node"><title>Node23</title>
<polygon fill="none" stroke="#bfbfbf" points="954,-56.5 954,-75.5 1010,-75.5 1010,-56.5 954,-56.5"/>
<text text-anchor="middle" x="982" y="-63.5" font-family="Helvetica,sans-Serif" font-size="10.00">sstream</text>
</g>
<!-- Node21&#45;&gt;Node23 -->
<g id="edge28" class="edge"><title>Node21&#45;&gt;Node23</title>
<path fill="none" stroke="midnightblue" d="M924.925,-112.324C935.175,-104.185 950.721,-91.8395 963.001,-82.0874"/>
<polygon fill="midnightblue" stroke="midnightblue" points="965.221,-84.7937 970.876,-75.8339 960.868,-79.3119 965.221,-84.7937"/>
</g>
<!-- Node24 -->
<g id="node24" class="node"><title>Node24</title>
<polygon fill="none" stroke="#bfbfbf" points="842,-56.5 842,-75.5 874,-75.5 874,-56.5 842,-56.5"/>
<text text-anchor="middle" x="858" y="-63.5" font-family="Helvetica,sans-Serif" font-size="10.00">list</text>
</g>
<!-- Node21&#45;&gt;Node24 -->
<g id="edge29" class="edge"><title>Node21&#45;&gt;Node24</title>
<path fill="none" stroke="midnightblue" d="M905.003,-112.324C896.806,-104.42 884.494,-92.5482 874.528,-82.9377"/>
<polygon fill="midnightblue" stroke="midnightblue" points="876.789,-80.2558 867.161,-75.8339 871.93,-85.2947 876.789,-80.2558"/>
</g>
<!-- Node26&#45;&gt;Node14 -->
<g id="edge37" class="edge"><title>Node26&#45;&gt;Node14</title>
<path fill="none" stroke="midnightblue" d="M404.327,-280.324C386.606,-271.625 359.097,-258.12 338.712,-248.113"/>
<polygon fill="midnightblue" stroke="midnightblue" points="340.149,-244.919 329.63,-243.655 337.064,-251.203 340.149,-244.919"/>
</g>
<!-- Node27 -->
<g id="node27" class="node"><title>Node27</title>
<g id="a_node27"><a xlink:href="mpi_8h.html" target="_top" xlink:title="This is the MPIfake implementation. ">
<polygon fill="none" stroke="black" points="381,-224.5 381,-243.5 425,-243.5 425,-224.5 381,-224.5"/>
<text text-anchor="middle" x="403" y="-231.5" font-family="Helvetica,sans-Serif" font-size="10.00">mpi.h</text>
</a>
</g>
</g>
<!-- Node26&#45;&gt;Node27 -->
<g id="edge33" class="edge"><title>Node26&#45;&gt;Node27</title>
<path fill="none" stroke="midnightblue" d="M418.863,-280.083C416.317,-272.849 412.644,-262.409 409.473,-253.397"/>
<polygon fill="midnightblue" stroke="midnightblue" points="412.7,-252.023 406.079,-243.751 406.097,-254.346 412.7,-252.023"/>
</g>
<!-- Node28 -->
<g id="node28" class="node"><title>Node28</title>
<polygon fill="none" stroke="#bfbfbf" points="372.5,-168.5 372.5,-187.5 425.5,-187.5 425.5,-168.5 372.5,-168.5"/>
<text text-anchor="middle" x="399" y="-175.5" font-family="Helvetica,sans-Serif" font-size="10.00">string.h</text>
</g>
<!-- Node27&#45;&gt;Node28 -->
<g id="edge34" class="edge"><title>Node27&#45;&gt;Node28</title>
<path fill="none" stroke="midnightblue" d="M402.339,-224.083C401.815,-217.006 401.064,-206.861 400.406,-197.986"/>
<polygon fill="midnightblue" stroke="midnightblue" points="403.877,-197.465 399.648,-187.751 396.897,-197.982 403.877,-197.465"/>
</g>
<!-- Node29 -->
<g id="node29" class="node"><title>Node29</title>
<polygon fill="none" stroke="#bfbfbf" points="233,-168.5 233,-187.5 283,-187.5 283,-168.5 233,-168.5"/>
<text text-anchor="middle" x="258" y="-175.5" font-family="Helvetica,sans-Serif" font-size="10.00">stdio.h</text>
</g>
<!-- Node27&#45;&gt;Node29 -->
<g id="edge35" class="edge"><title>Node27&#45;&gt;Node29</title>
<path fill="none" stroke="midnightblue" d="M380.978,-224.799C356.987,-215.864 318.358,-201.478 290.797,-191.214"/>
<polygon fill="midnightblue" stroke="midnightblue" points="291.784,-187.847 281.191,-187.637 289.341,-194.407 291.784,-187.847"/>
</g>
<!-- Node30 -->
<g id="node30" class="node"><title>Node30</title>
<polygon fill="none" stroke="#bfbfbf" points="301.5,-168.5 301.5,-187.5 354.5,-187.5 354.5,-168.5 301.5,-168.5"/>
<text text-anchor="middle" x="328" y="-175.5" font-family="Helvetica,sans-Serif" font-size="10.00">stdlib.h</text>
</g>
<!-- Node27&#45;&gt;Node30 -->
<g id="edge36" class="edge"><title>Node27&#45;&gt;Node30</title>
<path fill="none" stroke="midnightblue" d="M390.95,-224.324C379.537,-216.107 362.169,-203.602 348.565,-193.807"/>
<polygon fill="midnightblue" stroke="midnightblue" points="350.43,-190.837 340.269,-187.834 346.34,-196.517 350.43,-190.837"/>
</g>
<!-- Node31&#45;&gt;Node14 -->
<g id="edge39" class="edge"><title>Node31&#45;&gt;Node14</title>
<path fill="none" stroke="midnightblue" d="M300.312,-280.083C302.167,-272.927 304.835,-262.635 307.154,-253.691"/>
<polygon fill="midnightblue" stroke="midnightblue" points="310.609,-254.309 309.731,-243.751 303.834,-252.553 310.609,-254.309"/>
</g>
<!-- Node32&#45;&gt;Node15 -->
<g id="edge42" class="edge"><title>Node32&#45;&gt;Node15</title>
<path fill="none" stroke="midnightblue" d="M616.526,-336.323C637.406,-316.213 683.672,-265.007 662,-224 654.576,-209.953 640.579,-199.467 627.379,-192.167"/>
<polygon fill="midnightblue" stroke="midnightblue" points="628.957,-189.043 618.459,-187.618 625.777,-195.279 628.957,-189.043"/>
</g>
<!-- Node32&#45;&gt;Node21 -->
<g id="edge54" class="edge"><title>Node32&#45;&gt;Node21</title>
<path fill="none" stroke="midnightblue" d="M619.035,-336.297C665.747,-302.518 835.354,-179.871 893.936,-137.509"/>
<polygon fill="midnightblue" stroke="midnightblue" points="895.996,-140.338 902.048,-131.643 891.894,-134.666 895.996,-140.338"/>
</g>
<!-- Node33 -->
<g id="node33" class="node"><title>Node33</title>
<polygon fill="none" stroke="#bfbfbf" points="748,-280.5 748,-299.5 798,-299.5 798,-280.5 748,-280.5"/>
<text text-anchor="middle" x="773" y="-287.5" font-family="Helvetica,sans-Serif" font-size="10.00">climits</text>
</g>
<!-- Node32&#45;&gt;Node33 -->
<g id="edge43" class="edge"><title>Node32&#45;&gt;Node33</title>
<path fill="none" stroke="midnightblue" d="M633.303,-336.444C661.681,-327.212 706.996,-312.471 738.281,-302.294"/>
<polygon fill="midnightblue" stroke="midnightblue" points="739.48,-305.585 747.906,-299.163 737.314,-298.928 739.48,-305.585"/>
</g>
<!-- Node34 -->
<g id="node34" class="node"><title>Node34</title>
<g id="a_node34"><a xlink:href="communication_8hpp.html" target="_top" xlink:title="This file contains the asynchronous MPI communication. ">
<polygon fill="none" stroke="black" points="475.5,-280.5 475.5,-299.5 588.5,-299.5 588.5,-280.5 475.5,-280.5"/>
<text text-anchor="middle" x="532" y="-287.5" font-family="Helvetica,sans-Serif" font-size="10.00">communication.hpp</text>
</a>
</g>
</g>
<!-- Node32&#45;&gt;Node34 -->
<g id="edge44" class="edge"><title>Node32&#45;&gt;Node34</title>
<path fill="none" stroke="midnightblue" d="M594.95,-336.324C583.537,-328.107 566.169,-315.602 552.565,-305.807"/>
<polygon fill="midnightblue" stroke="midnightblue" points="554.43,-302.837 544.269,-299.834 550.34,-308.517 554.43,-302.837"/>
</g>
<!-- Node34&#45;&gt;Node14 -->
<g id="edge45" class="edge"><title>Node34&#45;&gt;Node14</title>
<path fill="none" stroke="midnightblue" d="M497.14,-280.444C459.084,-271.102 398.042,-256.119 356.54,-245.933"/>
<polygon fill="midnightblue" stroke="midnightblue" points="357.243,-242.501 346.697,-243.516 355.574,-249.299 357.243,-242.501"/>
</g>
<!-- Node34&#45;&gt;Node27 -->
<g id="edge50" class="edge"><title>Node34&#45;&gt;Node27</title>
<path fill="none" stroke="midnightblue" d="M511.56,-280.444C490.33,-271.557 456.901,-257.563 432.745,-247.451"/>
<polygon fill="midnightblue" stroke="midnightblue" points="433.921,-244.149 423.345,-243.516 431.218,-250.606 433.921,-244.149"/>
</g>
<!-- Node35 -->
<g id="node35" class="node"><title>Node35</title>
<g id="a_node35"><a xlink:href="random_8hpp.html" target="_top" xlink:title="A random generator. ">
<polygon fill="none" stroke="black" points="481.5,-224.5 481.5,-243.5 556.5,-243.5 556.5,-224.5 481.5,-224.5"/>
<text text-anchor="middle" x="519" y="-231.5" font-family="Helvetica,sans-Serif" font-size="10.00">random.hpp</text>
</a>
</g>
</g>
<!-- Node34&#45;&gt;Node35 -->
<g id="edge46" class="edge"><title>Node34&#45;&gt;Node35</title>
<path fill="none" stroke="midnightblue" d="M529.853,-280.083C528.131,-272.927 525.653,-262.635 523.5,-253.691"/>
<polygon fill="midnightblue" stroke="midnightblue" points="526.85,-252.654 521.107,-243.751 520.045,-254.293 526.85,-252.654"/>
</g>
<!-- Node36 -->
<g id="node36" class="node"><title>Node36</title>
<g id="a_node36"><a xlink:href="topology_8hpp.html" target="_top" xlink:title="This file contains functions for handling the system topology. ">
<polygon fill="none" stroke="black" points="574.5,-224.5 574.5,-243.5 653.5,-243.5 653.5,-224.5 574.5,-224.5"/>
<text text-anchor="middle" x="614" y="-231.5" font-family="Helvetica,sans-Serif" font-size="10.00">topology.hpp</text>
</a>
</g>
</g>
<!-- Node34&#45;&gt;Node36 -->
<g id="edge48" class="edge"><title>Node34&#45;&gt;Node36</title>
<path fill="none" stroke="midnightblue" d="M545.175,-280.324C557.847,-271.979 577.233,-259.212 592.206,-249.352"/>
<polygon fill="midnightblue" stroke="midnightblue" points="594.431,-252.078 600.858,-243.655 590.581,-246.231 594.431,-252.078"/>
</g>
<!-- Node37 -->
<g id="node37" class="node"><title>Node37</title>
<g id="a_node37"><a xlink:href="cuda__init_8hpp.html" target="_top" xlink:title="cuda_init.hpp">
<polygon fill="none" stroke="black" points="444,-168.5 444,-187.5 526,-187.5 526,-168.5 444,-168.5"/>
<text text-anchor="middle" x="485" y="-175.5" font-family="Helvetica,sans-Serif" font-size="10.00">cuda_init.hpp</text>
</a>
</g>
</g>
<!-- Node34&#45;&gt;Node37 -->
<g id="edge51" class="edge"><title>Node34&#45;&gt;Node37</title>
<path fill="none" stroke="midnightblue" d="M512.704,-280.48C498.571,-273.081 480.443,-260.887 472,-244 464.618,-229.236 469.589,-210.61 475.389,-197.086"/>
<polygon fill="midnightblue" stroke="midnightblue" points="478.632,-198.417 479.794,-187.886 472.318,-195.394 478.632,-198.417"/>
</g>
<!-- Node35&#45;&gt;Node15 -->
<g id="edge47" class="edge"><title>Node35&#45;&gt;Node15</title>
<path fill="none" stroke="midnightblue" d="M531.371,-224.324C543.158,-216.058 561.132,-203.453 575.136,-193.632"/>
<polygon fill="midnightblue" stroke="midnightblue" points="577.482,-196.262 583.659,-187.655 573.462,-190.531 577.482,-196.262"/>
</g>
<!-- Node36&#45;&gt;Node15 -->
<g id="edge49" class="edge"><title>Node36&#45;&gt;Node15</title>
<path fill="none" stroke="midnightblue" d="M611.028,-224.083C608.616,-216.849 605.136,-206.409 602.132,-197.397"/>
<polygon fill="midnightblue" stroke="midnightblue" points="605.4,-196.131 598.917,-187.751 598.759,-198.345 605.4,-196.131"/>
</g>
<!-- Node37&#45;&gt;Node7 -->
<g id="edge53" class="edge"><title>Node37&#45;&gt;Node7</title>
<path fill="none" stroke="midnightblue" d="M447.602,-168.437C408.337,-159.431 344.807,-144.814 290,-132 288.556,-131.662 287.081,-131.317 285.591,-130.967"/>
<polygon fill="midnightblue" stroke="midnightblue" points="286.248,-127.526 275.712,-128.638 284.642,-134.339 286.248,-127.526"/>
</g>
<!-- Node37&#45;&gt;Node9 -->
<g id="edge52" class="edge"><title>Node37&#45;&gt;Node9</title>
<path fill="none" stroke="midnightblue" d="M446.206,-168.435C402.107,-158.31 335.253,-141.624 328,-132 315.222,-115.045 334.316,-94.8474 351.431,-81.5165"/>
<polygon fill="midnightblue" stroke="midnightblue" points="353.54,-84.3103 359.525,-75.5682 349.394,-78.6696 353.54,-84.3103"/>
</g>
</g>
</svg>
        <g id="navigator" transform="translate(0 0)" fill="#404254">
                <rect fill="#f2f5e9" fill-opacity="0.5" stroke="#606060" stroke-width=".5" x="0" y="0" width="60" height="60"/>
                <use id="zoomplus" xlink:href="#zoomPlus" x="17" y="9" onmousedown="handleZoom(evt,'in')"/>
                <use id="zoomminus" xlink:href="#zoomMin" x="42" y="9" onmousedown="handleZoom(evt,'out')"/>
                <use id="reset" xlink:href="#resetDef" x="30" y="36" onmousedown="handleReset()"/>
                <g id="arrowUp" xlink:href="#dirArrow" transform="translate(30 24)" onmousedown="handlePan(0,-1)">
                  <use xlink:href="#rim" fill="#404040">
                        <set attributeName="fill" to="#808080" begin="arrowUp.mouseover" end="arrowUp.mouseout"/>
                  </use>
                  <path fill="none" stroke="white" stroke-width="1.5" d="M0,-3.0v7 M-2.5,-0.5L0,-3.0L2.5,-0.5"/>
                </g>
                <g id="arrowRight" xlink:href="#dirArrow" transform="rotate(90) translate(36 -43)" onmousedown="handlePan(1,0)">
                  <use xlink:href="#rim" fill="#404040">
                        <set attributeName="fill" to="#808080" begin="arrowRight.mouseover" end="arrowRight.mouseout"/>
                  </use>
                  <path fill="none" stroke="white" stroke-width="1.5" d="M0,-3.0v7 M-2.5,-0.5L0,-3.0L2.5,-0.5"/>
                </g>
                <g id="arrowDown" xlink:href="#dirArrow" transform="rotate(180) translate(-30 -48)" onmousedown="handlePan(0,1)">
                  <use xlink:href="#rim" fill="#404040">
                        <set attributeName="fill" to="#808080" begin="arrowDown.mouseover" end="arrowDown.mouseout"/>
                  </use>
                  <path fill="none" stroke="white" stroke-width="1.5" d="M0,-3.0v7 M-2.5,-0.5L0,-3.0L2.5,-0.5"/>
                </g>
                <g id="arrowLeft" xlink:href="#dirArrow" transform="rotate(270) translate(-36 17)" onmousedown="handlePan(-1,0)">
                  <use xlink:href="#rim" fill="#404040">
                        <set attributeName="fill" to="#808080" begin="arrowLeft.mouseover" end="arrowLeft.mouseout"/>
                  </use>
                  <path fill="none" stroke="white" stroke-width="1.5" d="M0,-3.0v7 M-2.5,-0.5L0,-3.0L2.5,-0.5"/>
                </g>
        </g>
        <svg viewBox="0 0 15 15" width="100%" height="30px" preserveAspectRatio="xMaxYMin meet">
         <g id="arrow_out" transform="scale(0.3 0.3)">
          <a xlink:href="EspressoSystemInterface_8cpp__incl_org.svg" target="_base">
           <rect id="button" ry="5" rx="5" y="6" x="6" height="38" width="38"
                fill="#f2f5e9" fill-opacity="0.5" stroke="#606060" stroke-width="1.0"/>
           <path id="arrow"
             d="M 11.500037,31.436501 C 11.940474,20.09759 22.043105,11.32322 32.158766,21.979434 L 37.068811,17.246167 C 37.068811,17.246167 37.088388,32 37.088388,32 L 22.160133,31.978069 C 22.160133,31.978069 26.997745,27.140456 26.997745,27.140456 C 18.528582,18.264221 13.291696,25.230495 11.500037,31.436501 z"
             style="fill:#404040;"/>
          </a>
         </g>
        </svg>
</svg>
