<?xml version="1.0" encoding="UTF-8" standalone="no"?>
<!DOCTYPE svg PUBLIC "-//W3C//DTD SVG 1.1//EN"
 "http://www.w3.org/Graphics/SVG/1.1/DTD/svg11.dtd">
<!-- Generated by graphviz version 2.38.0 (20140413.2041)
 -->
<!-- Title: EwaldgpuForce_ShortRange.hpp Pages: 1 -->
<!--zoomable 364 -->
<svg id="main" version="1.1" xmlns="http://www.w3.org/2000/svg" xmlns:xlink="http://www.w3.org/1999/xlink" xml:space="preserve" onload="init(evt)">
<style type="text/css"><![CDATA[
.edge:hover path { stroke: red; }
.edge:hover polygon { stroke: red; fill: red; }
]]></style>
<script type="text/javascript"><![CDATA[
var edges = document.getElementsByTagName('g');
if (edges && edges.length) {
  for (var i=0;i<edges.length;i++) {
    if (edges[i].id.substr(0,4)=='edge') {
      edges[i].setAttribute('class','edge');
    }
  }
}
]]></script>
        <defs>
                <circle id="rim" cx="0" cy="0" r="7"/>
                <circle id="rim2" cx="0" cy="0" r="3.5"/>
                <g id="zoomPlus">
                        <use xlink:href="#rim" fill="#404040">
                                <set attributeName="fill" to="#808080" begin="zoomplus.mouseover" end="zoomplus.mouseout"/>
                        </use>
                        <path d="M-4,0h8M0,-4v8" fill="none" stroke="white" stroke-width="1.5" pointer-events="none"/>
                </g>
                <g id="zoomMin">
                        <use xlink:href="#rim" fill="#404040">
                                <set attributeName="fill" to="#808080" begin="zoomminus.mouseover" end="zoomminus.mouseout"/>
                        </use>
                        <path d="M-4,0h8" fill="none" stroke="white" stroke-width="1.5" pointer-events="none"/>
                </g>
                <g id="dirArrow">
                        <path fill="none" stroke="white" stroke-width="1.5" d="M0,-3.0v7 M-2.5,-0.5L0,-3.0L2.5,-0.5"/>
                </g>
               <g id="resetDef">
                       <use xlink:href="#rim2" fill="#404040">
                               <set attributeName="fill" to="#808080" begin="reset.mouseover" end="reset.mouseout"/>
                       </use>
               </g>
        </defs>

<script type="text/javascript">
var viewWidth = 847;
var viewHeight = 364;
var sectionId = 'dynsection-0';
</script>
<script xlink:href="svgpan.js"/>
<svg id="graph" class="graph">
<g id="viewport">
<title>EwaldgpuForce_ShortRange.hpp</title>
<!-- Node1 -->
<g id="node1" class="node"><title>Node1</title>
<polygon fill="#bfbfbf" stroke="black" points="526.392,-336.5 526.392,-355.5 699.392,-355.5 699.392,-336.5 526.392,-336.5"/>
<text text-anchor="middle" x="612.892" y="-343.5" font-family="Helvetica,sans-Serif" font-size="10.00">EwaldgpuForce_ShortRange.hpp</text>
</g>
<!-- Node2 -->
<g id="node2" class="node"><title>Node2</title>
<g id="a_node2"><a xlink:href="EwaldgpuForce_8hpp.html" target="_top" xlink:title="actor/EwaldgpuForce.hpp">
<polygon fill="none" stroke="black" points="543.392,-280.5 543.392,-299.5 682.392,-299.5 682.392,-280.5 543.392,-280.5"/>
<text text-anchor="middle" x="612.892" y="-287.5" font-family="Helvetica,sans-Serif" font-size="10.00">actor/EwaldgpuForce.hpp</text>
</a>
</g>
</g>
<!-- Node1&#45;&gt;Node2 -->
<g id="edge1" class="edge"><title>Node1&#45;&gt;Node2</title>
<path fill="none" stroke="midnightblue" d="M612.892,-336.083C612.892,-329.006 612.892,-318.861 612.892,-309.986"/>
<polygon fill="midnightblue" stroke="midnightblue" points="616.392,-309.751 612.892,-299.751 609.392,-309.751 616.392,-309.751"/>
</g>
<!-- Node3 -->
<g id="node3" class="node"><title>Node3</title>
<g id="a_node3"><a xlink:href="config_8hpp.html" target="_top" xlink:title="This file contains the defaults for Espresso. ">
<polygon fill="none" stroke="black" points="120.392,-56.5 120.392,-75.5 187.392,-75.5 187.392,-56.5 120.392,-56.5"/>
<text text-anchor="middle" x="153.892" y="-63.5" font-family="Helvetica,sans-Serif" font-size="10.00">config.hpp</text>
</a>
</g>
</g>
<!-- Node2&#45;&gt;Node3 -->
<g id="edge2" class="edge"><title>Node2&#45;&gt;Node3</title>
<path fill="none" stroke="midnightblue" d="M543.24,-281.528C398.361,-264.399 72.5335,-217.08 6.89155,-132 -22.9736,-93.2911 56.8976,-77.1206 110.286,-70.7694"/>
<polygon fill="midnightblue" stroke="midnightblue" points="110.691,-74.2461 120.242,-69.6604 109.916,-67.2891 110.691,-74.2461"/>
</g>
<!-- Node7 -->
<g id="node7" class="node"><title>Node7</title>
<g id="a_node7"><a xlink:href="SystemInterface_8hpp.html" target="_top" xlink:title="SystemInterface.hpp">
<polygon fill="none" stroke="black" points="650.892,-168.5 650.892,-187.5 768.892,-187.5 768.892,-168.5 650.892,-168.5"/>
<text text-anchor="middle" x="709.892" y="-175.5" font-family="Helvetica,sans-Serif" font-size="10.00">SystemInterface.hpp</text>
</a>
</g>
</g>
<!-- Node2&#45;&gt;Node7 -->
<g id="edge6" class="edge"><title>Node2&#45;&gt;Node7</title>
<path fill="none" stroke="midnightblue" d="M620.577,-280.388C628.643,-271.342 641.684,-256.694 652.892,-244 667.396,-227.571 683.898,-208.737 695.401,-195.587"/>
<polygon fill="midnightblue" stroke="midnightblue" points="698.219,-197.68 702.166,-187.848 692.949,-193.073 698.219,-197.68"/>
</g>
<!-- Node12 -->
<g id="node12" class="node"><title>Node12</title>
<g id="a_node12"><a xlink:href="Actor_8hpp.html" target="_top" xlink:title="Actor.hpp">
<polygon fill="none" stroke="black" points="581.892,-224.5 581.892,-243.5 643.892,-243.5 643.892,-224.5 581.892,-224.5"/>
<text text-anchor="middle" x="612.892" y="-231.5" font-family="Helvetica,sans-Serif" font-size="10.00">Actor.hpp</text>
</a>
</g>
</g>
<!-- Node2&#45;&gt;Node12 -->
<g id="edge11" class="edge"><title>Node2&#45;&gt;Node12</title>
<path fill="none" stroke="midnightblue" d="M612.892,-280.083C612.892,-273.006 612.892,-262.861 612.892,-253.986"/>
<polygon fill="midnightblue" stroke="midnightblue" points="616.392,-253.751 612.892,-243.751 609.392,-253.751 616.392,-253.751"/>
</g>
<!-- Node13 -->
<g id="node13" class="node"><title>Node13</title>
<g id="a_node13"><a xlink:href="particle__data_8hpp.html" target="_top" xlink:title="For more information on particle_data, see particle_data.c. ">
<polygon fill="none" stroke="black" points="443.392,-224.5 443.392,-243.5 544.392,-243.5 544.392,-224.5 443.392,-224.5"/>
<text text-anchor="middle" x="493.892" y="-231.5" font-family="Helvetica,sans-Serif" font-size="10.00">particle_data.hpp</text>
</a>
</g>
</g>
<!-- Node2&#45;&gt;Node13 -->
<g id="edge13" class="edge"><title>Node2&#45;&gt;Node13</title>
<path fill="none" stroke="midnightblue" d="M594.036,-280.444C574.626,-271.636 544.161,-257.812 521.927,-247.722"/>
<polygon fill="midnightblue" stroke="midnightblue" points="523.212,-244.462 512.659,-243.516 520.319,-250.836 523.212,-244.462"/>
</g>
<!-- Node25 -->
<g id="node25" class="node"><title>Node25</title>
<polygon fill="none" stroke="#bfbfbf" points="700.392,-224.5 700.392,-243.5 751.392,-243.5 751.392,-224.5 700.392,-224.5"/>
<text text-anchor="middle" x="725.892" y="-231.5" font-family="Helvetica,sans-Serif" font-size="10.00">math.h</text>
</g>
<!-- Node2&#45;&gt;Node25 -->
<g id="edge31" class="edge"><title>Node2&#45;&gt;Node25</title>
<path fill="none" stroke="midnightblue" d="M630.797,-280.444C649.146,-271.675 677.897,-257.935 698.985,-247.858"/>
<polygon fill="midnightblue" stroke="midnightblue" points="700.557,-250.986 708.07,-243.516 697.538,-244.67 700.557,-250.986"/>
</g>
<!-- Node4 -->
<g id="node4" class="node"><title>Node4</title>
<g id="a_node4"><a xlink:href="acconfig_8hpp.html" target="_top" xlink:title="acconfig.hpp">
<polygon fill="none" stroke="black" points="3.89155,-0.5 3.89155,-19.5 81.8915,-19.5 81.8915,-0.5 3.89155,-0.5"/>
<text text-anchor="middle" x="42.8915" y="-7.5" font-family="Helvetica,sans-Serif" font-size="10.00">acconfig.hpp</text>
</a>
</g>
</g>
<!-- Node3&#45;&gt;Node4 -->
<g id="edge3" class="edge"><title>Node3&#45;&gt;Node4</title>
<path fill="none" stroke="midnightblue" d="M136.057,-56.324C118.176,-47.6247 90.4165,-34.1202 69.846,-24.113"/>
<polygon fill="midnightblue" stroke="midnightblue" points="71.2049,-20.8819 60.6814,-19.6545 68.1426,-27.1765 71.2049,-20.8819"/>
</g>
<!-- Node5 -->
<g id="node5" class="node"><title>Node5</title>
<g id="a_node5"><a xlink:href="myconfig-final_8hpp.html" target="_top" xlink:title="myconfig&#45;final.hpp">
<polygon fill="none" stroke="black" points="100.392,-0.5 100.392,-19.5 207.392,-19.5 207.392,-0.5 100.392,-0.5"/>
<text text-anchor="middle" x="153.892" y="-7.5" font-family="Helvetica,sans-Serif" font-size="10.00">myconfig&#45;final.hpp</text>
</a>
</g>
</g>
<!-- Node3&#45;&gt;Node5 -->
<g id="edge4" class="edge"><title>Node3&#45;&gt;Node5</title>
<path fill="none" stroke="midnightblue" d="M153.892,-56.083C153.892,-49.0059 153.892,-38.8611 153.892,-29.9865"/>
<polygon fill="midnightblue" stroke="midnightblue" points="157.392,-29.751 153.892,-19.7511 150.392,-29.7511 157.392,-29.751"/>
</g>
<!-- Node6 -->
<g id="node6" class="node"><title>Node6</title>
<g id="a_node6"><a xlink:href="config-features_8hpp.html" target="_top" xlink:title="config&#45;features.hpp">
<polygon fill="none" stroke="black" points="225.392,-0.5 225.392,-19.5 336.392,-19.5 336.392,-0.5 225.392,-0.5"/>
<text text-anchor="middle" x="280.892" y="-7.5" font-family="Helvetica,sans-Serif" font-size="10.00">config&#45;features.hpp</text>
</a>
</g>
</g>
<!-- Node3&#45;&gt;Node6 -->
<g id="edge5" class="edge"><title>Node3&#45;&gt;Node6</title>
<path fill="none" stroke="midnightblue" d="M174.015,-56.4435C194.916,-47.5566 227.826,-33.5632 251.608,-23.4514"/>
<polygon fill="midnightblue" stroke="midnightblue" points="253.029,-26.6504 260.862,-19.5164 250.29,-20.2085 253.029,-26.6504"/>
</g>
<!-- Node8 -->
<g id="node8" class="node"><title>Node8</title>
<g id="a_node8"><a xlink:href="Vector_8hpp.html" target="_top" xlink:title="Vector.hpp">
<polygon fill="none" stroke="black" points="770.892,-112.5 770.892,-131.5 838.892,-131.5 838.892,-112.5 770.892,-112.5"/>
<text text-anchor="middle" x="804.892" y="-119.5" font-family="Helvetica,sans-Serif" font-size="10.00">Vector.hpp</text>
</a>
</g>
</g>
<!-- Node7&#45;&gt;Node8 -->
<g id="edge7" class="edge"><title>Node7&#45;&gt;Node8</title>
<path fill="none" stroke="midnightblue" d="M725.155,-168.324C740.113,-159.822 763.146,-146.729 780.618,-136.797"/>
<polygon fill="midnightblue" stroke="midnightblue" points="782.702,-139.639 789.666,-131.655 779.243,-133.553 782.702,-139.639"/>
</g>
<!-- Node11 -->
<g id="node11" class="node"><title>Node11</title>
<polygon fill="none" stroke="#bfbfbf" points="705.392,-112.5 705.392,-131.5 752.392,-131.5 752.392,-112.5 705.392,-112.5"/>
<text text-anchor="middle" x="728.892" y="-119.5" font-family="Helvetica,sans-Serif" font-size="10.00">vector</text>
</g>
<!-- Node7&#45;&gt;Node11 -->
<g id="edge10" class="edge"><title>Node7&#45;&gt;Node11</title>
<path fill="none" stroke="midnightblue" d="M713.029,-168.083C715.574,-160.849 719.248,-150.409 722.419,-141.397"/>
<polygon fill="midnightblue" stroke="midnightblue" points="725.795,-142.346 725.812,-131.751 719.192,-140.023 725.795,-142.346"/>
</g>
<!-- Node9 -->
<g id="node9" class="node"><title>Node9</title>
<polygon fill="none" stroke="#bfbfbf" points="772.892,-56.5 772.892,-75.5 836.892,-75.5 836.892,-56.5 772.892,-56.5"/>
<text text-anchor="middle" x="804.892" y="-63.5" font-family="Helvetica,sans-Serif" font-size="10.00">algorithm</text>
</g>
<!-- Node8&#45;&gt;Node9 -->
<g id="edge8" class="edge"><title>Node8&#45;&gt;Node9</title>
<path fill="none" stroke="midnightblue" d="M804.892,-112.083C804.892,-105.006 804.892,-94.8611 804.892,-85.9865"/>
<polygon fill="midnightblue" stroke="midnightblue" points="808.392,-85.751 804.892,-75.7511 801.392,-85.7511 808.392,-85.751"/>
</g>
<!-- Node10 -->
<g id="node10" class="node"><title>Node10</title>
<polygon fill="none" stroke="#bfbfbf" points="700.392,-56.5 700.392,-75.5 747.392,-75.5 747.392,-56.5 700.392,-56.5"/>
<text text-anchor="middle" x="723.892" y="-63.5" font-family="Helvetica,sans-Serif" font-size="10.00">cmath</text>
</g>
<!-- Node8&#45;&gt;Node10 -->
<g id="edge9" class="edge"><title>Node8&#45;&gt;Node10</title>
<path fill="none" stroke="midnightblue" d="M791.877,-112.324C779.36,-103.979 760.21,-91.2122 745.42,-81.3524"/>
<polygon fill="midnightblue" stroke="midnightblue" points="747.135,-78.2894 736.873,-75.6545 743.252,-84.1137 747.135,-78.2894"/>
</g>
<!-- Node12&#45;&gt;Node7 -->
<g id="edge12" class="edge"><title>Node12&#45;&gt;Node7</title>
<path fill="none" stroke="midnightblue" d="M628.476,-224.324C643.891,-215.743 667.704,-202.486 685.601,-192.522"/>
<polygon fill="midnightblue" stroke="midnightblue" points="687.311,-195.577 694.345,-187.655 683.906,-189.461 687.311,-195.577"/>
</g>
<!-- Node14 -->
<g id="node14" class="node"><title>Node14</title>
<g id="a_node14"><a xlink:href="utils_8hpp.html" target="_top" xlink:title="Small functions that are useful not only for one modul. ">
<polygon fill="none" stroke="black" points="389.392,-168.5 389.392,-187.5 448.392,-187.5 448.392,-168.5 389.392,-168.5"/>
<text text-anchor="middle" x="418.892" y="-175.5" font-family="Helvetica,sans-Serif" font-size="10.00">utils.hpp</text>
</a>
</g>
</g>
<!-- Node13&#45;&gt;Node14 -->
<g id="edge14" class="edge"><title>Node13&#45;&gt;Node14</title>
<path fill="none" stroke="midnightblue" d="M481.841,-224.324C470.428,-216.107 453.061,-203.602 439.457,-193.807"/>
<polygon fill="midnightblue" stroke="midnightblue" points="441.321,-190.837 431.161,-187.834 437.231,-196.517 441.321,-190.837"/>
</g>
<!-- Node14&#45;&gt;Node3 -->
<g id="edge19" class="edge"><title>Node14&#45;&gt;Node3</title>
<path fill="none" stroke="midnightblue" d="M389.14,-171.885C355.152,-165.378 298.365,-152.463 252.892,-132 222.946,-118.525 191.834,-96.5651 172.665,-81.9515"/>
<polygon fill="midnightblue" stroke="midnightblue" points="174.555,-78.988 164.508,-75.624 170.264,-84.5189 174.555,-78.988"/>
</g>
<!-- Node14&#45;&gt;Node10 -->
<g id="edge15" class="edge"><title>Node14&#45;&gt;Node10</title>
<path fill="none" stroke="midnightblue" d="M448.482,-176.779C495.306,-175.29 588.209,-167.631 656.892,-132 679.259,-120.396 699.172,-98.9101 711.36,-83.8264"/>
<polygon fill="midnightblue" stroke="midnightblue" points="714.222,-85.8487 717.605,-75.8084 708.699,-81.5477 714.222,-85.8487"/>
</g>
<!-- Node14&#45;&gt;Node11 -->
<g id="edge29" class="edge"><title>Node14&#45;&gt;Node11</title>
<path fill="none" stroke="midnightblue" d="M448.395,-172.797C498.452,-165.514 603.139,-149.629 690.892,-132 692.346,-131.708 693.829,-131.4 695.325,-131.081"/>
<polygon fill="midnightblue" stroke="midnightblue" points="696.233,-134.465 705.23,-128.869 694.707,-127.633 696.233,-134.465"/>
</g>
<!-- Node15 -->
<g id="node15" class="node"><title>Node15</title>
<polygon fill="none" stroke="#bfbfbf" points="261.892,-112.5 261.892,-131.5 307.892,-131.5 307.892,-112.5 261.892,-112.5"/>
<text text-anchor="middle" x="284.892" y="-119.5" font-family="Helvetica,sans-Serif" font-size="10.00">cstdio</text>
</g>
<!-- Node14&#45;&gt;Node15 -->
<g id="edge16" class="edge"><title>Node14&#45;&gt;Node15</title>
<path fill="none" stroke="midnightblue" d="M397.659,-168.444C375.508,-159.517 340.573,-145.439 315.456,-135.317"/>
<polygon fill="midnightblue" stroke="midnightblue" points="316.608,-132.008 306.025,-131.516 313.992,-138.501 316.608,-132.008"/>
</g>
<!-- Node16 -->
<g id="node16" class="node"><title>Node16</title>
<polygon fill="none" stroke="#bfbfbf" points="326.392,-112.5 326.392,-131.5 375.392,-131.5 375.392,-112.5 326.392,-112.5"/>
<text text-anchor="middle" x="350.892" y="-119.5" font-family="Helvetica,sans-Serif" font-size="10.00">cstdlib</text>
</g>
<!-- Node14&#45;&gt;Node16 -->
<g id="edge17" class="edge"><title>Node14&#45;&gt;Node16</title>
<path fill="none" stroke="midnightblue" d="M407.966,-168.324C397.717,-160.185 382.171,-147.839 369.891,-138.087"/>
<polygon fill="midnightblue" stroke="midnightblue" points="372.023,-135.312 362.016,-131.834 367.67,-140.794 372.023,-135.312"/>
</g>
<!-- Node17 -->
<g id="node17" class="node"><title>Node17</title>
<polygon fill="none" stroke="#bfbfbf" points="393.892,-112.5 393.892,-131.5 443.892,-131.5 443.892,-112.5 393.892,-112.5"/>
<text text-anchor="middle" x="418.892" y="-119.5" font-family="Helvetica,sans-Serif" font-size="10.00">cstring</text>
</g>
<!-- Node14&#45;&gt;Node17 -->
<g id="edge18" class="edge"><title>Node14&#45;&gt;Node17</title>
<path fill="none" stroke="midnightblue" d="M418.892,-168.083C418.892,-161.006 418.892,-150.861 418.892,-141.986"/>
<polygon fill="midnightblue" stroke="midnightblue" points="422.392,-141.751 418.892,-131.751 415.392,-141.751 422.392,-141.751"/>
</g>
<!-- Node18 -->
<g id="node18" class="node"><title>Node18</title>
<g id="a_node18"><a xlink:href="debug_8hpp.html" target="_top" xlink:title="This file controls debug facilities. ">
<polygon fill="none" stroke="black" points="15.8915,-112.5 15.8915,-131.5 83.8915,-131.5 83.8915,-112.5 15.8915,-112.5"/>
<text text-anchor="middle" x="49.8915" y="-119.5" font-family="Helvetica,sans-Serif" font-size="10.00">debug.hpp</text>
</a>
</g>
</g>
<!-- Node14&#45;&gt;Node18 -->
<g id="edge20" class="edge"><title>Node14&#45;&gt;Node18</title>
<path fill="none" stroke="midnightblue" d="M389.119,-173.589C333.283,-167.043 208.849,-151.745 94.1228,-132.114"/>
<polygon fill="midnightblue" stroke="midnightblue" points="94.5678,-128.639 84.1181,-130.386 93.3768,-135.537 94.5678,-128.639"/>
</g>
<!-- Node19 -->
<g id="node19" class="node"><title>Node19</title>
<g id="a_node19"><a xlink:href="lees__edwards_8hpp.html" target="_top" xlink:title="lees_edwards.hpp">
<polygon fill="none" stroke="black" points="101.892,-112.5 101.892,-131.5 205.892,-131.5 205.892,-112.5 101.892,-112.5"/>
<text text-anchor="middle" x="153.892" y="-119.5" font-family="Helvetica,sans-Serif" font-size="10.00">lees_edwards.hpp</text>
</a>
</g>
</g>
<!-- Node14&#45;&gt;Node19 -->
<g id="edge22" class="edge"><title>Node14&#45;&gt;Node19</title>
<path fill="none" stroke="midnightblue" d="M389.264,-170.963C344.89,-161.92 260.544,-144.733 205.798,-133.577"/>
<polygon fill="midnightblue" stroke="midnightblue" points="206.435,-130.135 195.937,-131.568 205.037,-136.994 206.435,-130.135"/>
</g>
<!-- Node20 -->
<g id="node20" class="node"><title>Node20</title>
<g id="a_node20"><a xlink:href="errorhandling_8hpp.html" target="_top" xlink:title="This file contains the errorhandling code for severe errors, like a broken bond or illegal parameter ...">
<polygon fill="none" stroke="black" points="545.392,-112.5 545.392,-131.5 648.392,-131.5 648.392,-112.5 545.392,-112.5"/>
<text text-anchor="middle" x="596.892" y="-119.5" font-family="Helvetica,sans-Serif" font-size="10.00">errorhandling.hpp</text>
</a>
</g>
</g>
<!-- Node14&#45;&gt;Node20 -->
<g id="edge24" class="edge"><title>Node14&#45;&gt;Node20</title>
<path fill="none" stroke="midnightblue" d="M447.096,-168.444C477.302,-159.28 525.403,-144.688 558.921,-134.519"/>
<polygon fill="midnightblue" stroke="midnightblue" points="560.266,-137.769 568.819,-131.516 558.233,-131.07 560.266,-137.769"/>
</g>
<!-- Node24 -->
<g id="node24" class="node"><title>Node24</title>
<polygon fill="none" stroke="#bfbfbf" points="462.392,-112.5 462.392,-131.5 527.392,-131.5 527.392,-112.5 462.392,-112.5"/>
<text text-anchor="middle" x="494.892" y="-119.5" font-family="Helvetica,sans-Serif" font-size="10.00">exception</text>
</g>
<!-- Node14&#45;&gt;Node24 -->
<g id="edge30" class="edge"><title>Node14&#45;&gt;Node24</title>
<path fill="none" stroke="midnightblue" d="M431.102,-168.324C442.667,-160.107 460.267,-147.602 474.052,-137.807"/>
<polygon fill="midnightblue" stroke="midnightblue" points="476.334,-140.479 482.459,-131.834 472.28,-134.773 476.334,-140.479"/>
</g>
<!-- Node18&#45;&gt;Node3 -->
<g id="edge21" class="edge"><title>Node18&#45;&gt;Node3</title>
<path fill="none" stroke="midnightblue" d="M66.6009,-112.324C83.2035,-103.703 108.894,-90.3643 128.112,-80.3855"/>
<polygon fill="midnightblue" stroke="midnightblue" points="129.962,-83.3689 137.224,-75.6545 126.736,-77.1565 129.962,-83.3689"/>
</g>
<!-- Node19&#45;&gt;Node3 -->
<g id="edge23" class="edge"><title>Node19&#45;&gt;Node3</title>
<path fill="none" stroke="midnightblue" d="M153.892,-112.083C153.892,-105.006 153.892,-94.8611 153.892,-85.9865"/>
<polygon fill="midnightblue" stroke="midnightblue" points="157.392,-85.751 153.892,-75.7511 150.392,-85.7511 157.392,-85.751"/>
</g>
<!-- Node20&#45;&gt;Node3 -->
<g id="edge25" class="edge"><title>Node20&#45;&gt;Node3</title>
<path fill="none" stroke="midnightblue" d="M545.322,-113.283C542.132,-112.839 538.969,-112.408 535.892,-112 413.58,-95.7764 268.836,-79.5304 197.753,-71.7453"/>
<polygon fill="midnightblue" stroke="midnightblue" points="197.723,-68.2212 187.402,-70.6144 196.962,-75.1798 197.723,-68.2212"/>
</g>
<!-- Node21 -->
<g id="node21" class="node"><title>Node21</title>
<polygon fill="none" stroke="#bfbfbf" points="506.892,-56.5 506.892,-75.5 550.892,-75.5 550.892,-56.5 506.892,-56.5"/>
<text text-anchor="middle" x="528.892" y="-63.5" font-family="Helvetica,sans-Serif" font-size="10.00">string</text>
</g>
<!-- Node20&#45;&gt;Node21 -->
<g id="edge26" class="edge"><title>Node20&#45;&gt;Node21</title>
<path fill="none" stroke="midnightblue" d="M585.966,-112.324C575.717,-104.185 560.171,-91.8395 547.891,-82.0874"/>
<polygon fill="midnightblue" stroke="midnightblue" points="550.023,-79.3119 540.016,-75.8339 545.67,-84.7937 550.023,-79.3119"/>
</g>
<!-- Node22 -->
<g id="node22" class="node"><title>Node22</title>
<polygon fill="none" stroke="#bfbfbf" points="568.892,-56.5 568.892,-75.5 624.892,-75.5 624.892,-56.5 568.892,-56.5"/>
<text text-anchor="middle" x="596.892" y="-63.5" font-family="Helvetica,sans-Serif" font-size="10.00">sstream</text>
</g>
<!-- Node20&#45;&gt;Node22 -->
<g id="edge27" class="edge"><title>Node20&#45;&gt;Node22</title>
<path fill="none" stroke="midnightblue" d="M596.892,-112.083C596.892,-105.006 596.892,-94.8611 596.892,-85.9865"/>
<polygon fill="midnightblue" stroke="midnightblue" points="600.392,-85.751 596.892,-75.7511 593.392,-85.7511 600.392,-85.751"/>
</g>
<!-- Node23 -->
<g id="node23" class="node"><title>Node23</title>
<polygon fill="none" stroke="#bfbfbf" points="642.892,-56.5 642.892,-75.5 674.892,-75.5 674.892,-56.5 642.892,-56.5"/>
<text text-anchor="middle" x="658.892" y="-63.5" font-family="Helvetica,sans-Serif" font-size="10.00">list</text>
</g>
<!-- Node20&#45;&gt;Node23 -->
<g id="edge28" class="edge"><title>Node20&#45;&gt;Node23</title>
<path fill="none" stroke="midnightblue" d="M606.853,-112.324C616.018,-104.341 629.829,-92.3128 640.92,-82.6529"/>
<polygon fill="midnightblue" stroke="midnightblue" points="643.507,-85.041 648.749,-75.8339 638.909,-79.7624 643.507,-85.041"/>
</g>
</g>
</svg>
        <g id="navigator" transform="translate(0 0)" fill="#404254">
                <rect fill="#f2f5e9" fill-opacity="0.5" stroke="#606060" stroke-width=".5" x="0" y="0" width="60" height="60"/>
                <use id="zoomplus" xlink:href="#zoomPlus" x="17" y="9" onmousedown="handleZoom(evt,'in')"/>
                <use id="zoomminus" xlink:href="#zoomMin" x="42" y="9" onmousedown="handleZoom(evt,'out')"/>
                <use id="reset" xlink:href="#resetDef" x="30" y="36" onmousedown="handleReset()"/>
                <g id="arrowUp" xlink:href="#dirArrow" transform="translate(30 24)" onmousedown="handlePan(0,-1)">
                  <use xlink:href="#rim" fill="#404040">
                        <set attributeName="fill" to="#808080" begin="arrowUp.mouseover" end="arrowUp.mouseout"/>
                  </use>
                  <path fill="none" stroke="white" stroke-width="1.5" d="M0,-3.0v7 M-2.5,-0.5L0,-3.0L2.5,-0.5"/>
                </g>
                <g id="arrowRight" xlink:href="#dirArrow" transform="rotate(90) translate(36 -43)" onmousedown="handlePan(1,0)">
                  <use xlink:href="#rim" fill="#404040">
                        <set attributeName="fill" to="#808080" begin="arrowRight.mouseover" end="arrowRight.mouseout"/>
                  </use>
                  <path fill="none" stroke="white" stroke-width="1.5" d="M0,-3.0v7 M-2.5,-0.5L0,-3.0L2.5,-0.5"/>
                </g>
                <g id="arrowDown" xlink:href="#dirArrow" transform="rotate(180) translate(-30 -48)" onmousedown="handlePan(0,1)">
                  <use xlink:href="#rim" fill="#404040">
                        <set attributeName="fill" to="#808080" begin="arrowDown.mouseover" end="arrowDown.mouseout"/>
                  </use>
                  <path fill="none" stroke="white" stroke-width="1.5" d="M0,-3.0v7 M-2.5,-0.5L0,-3.0L2.5,-0.5"/>
                </g>
                <g id="arrowLeft" xlink:href="#dirArrow" transform="rotate(270) translate(-36 17)" onmousedown="handlePan(-1,0)">
                  <use xlink:href="#rim" fill="#404040">
                        <set attributeName="fill" to="#808080" begin="arrowLeft.mouseover" end="arrowLeft.mouseout"/>
                  </use>
                  <path fill="none" stroke="white" stroke-width="1.5" d="M0,-3.0v7 M-2.5,-0.5L0,-3.0L2.5,-0.5"/>
                </g>
        </g>
        <svg viewBox="0 0 15 15" width="100%" height="30px" preserveAspectRatio="xMaxYMin meet">
         <g id="arrow_out" transform="scale(0.3 0.3)">
          <a xlink:href="EwaldgpuForce__ShortRange_8hpp__incl_org.svg" target="_base">
           <rect id="button" ry="5" rx="5" y="6" x="6" height="38" width="38"
                fill="#f2f5e9" fill-opacity="0.5" stroke="#606060" stroke-width="1.0"/>
           <path id="arrow"
             d="M 11.500037,31.436501 C 11.940474,20.09759 22.043105,11.32322 32.158766,21.979434 L 37.068811,17.246167 C 37.068811,17.246167 37.088388,32 37.088388,32 L 22.160133,31.978069 C 22.160133,31.978069 26.997745,27.140456 26.997745,27.140456 C 18.528582,18.264221 13.291696,25.230495 11.500037,31.436501 z"
             style="fill:#404040;"/>
          </a>
         </g>
        </svg>
</svg>
