<?xml version="1.0" encoding="UTF-8" standalone="no"?>
<!DOCTYPE svg PUBLIC "-//W3C//DTD SVG 1.1//EN"
 "http://www.w3.org/Graphics/SVG/1.1/DTD/svg11.dtd">
<!-- Generated by graphviz version 2.38.0 (20140413.2041)
 -->
<!-- Title: EwaldgpuForce_cuda.cu Pages: 1 -->
<!--zoomable 364 -->
<svg id="main" version="1.1" xmlns="http://www.w3.org/2000/svg" xmlns:xlink="http://www.w3.org/1999/xlink" xml:space="preserve" onload="init(evt)">
<style type="text/css"><![CDATA[
.edge:hover path { stroke: red; }
.edge:hover polygon { stroke: red; fill: red; }
]]></style>
<script type="text/javascript"><![CDATA[
var edges = document.getElementsByTagName('g');
if (edges && edges.length) {
  for (var i=0;i<edges.length;i++) {
    if (edges[i].id.substr(0,4)=='edge') {
      edges[i].setAttribute('class','edge');
    }
  }
}
]]></script>
        <defs>
                <circle id="rim" cx="0" cy="0" r="7"/>
                <circle id="rim2" cx="0" cy="0" r="3.5"/>
                <g id="zoomPlus">
                        <use xlink:href="#rim" fill="#404040">
                                <set attributeName="fill" to="#808080" begin="zoomplus.mouseover" end="zoomplus.mouseout"/>
                        </use>
                        <path d="M-4,0h8M0,-4v8" fill="none" stroke="white" stroke-width="1.5" pointer-events="none"/>
                </g>
                <g id="zoomMin">
                        <use xlink:href="#rim" fill="#404040">
                                <set attributeName="fill" to="#808080" begin="zoomminus.mouseover" end="zoomminus.mouseout"/>
                        </use>
                        <path d="M-4,0h8" fill="none" stroke="white" stroke-width="1.5" pointer-events="none"/>
                </g>
                <g id="dirArrow">
                        <path fill="none" stroke="white" stroke-width="1.5" d="M0,-3.0v7 M-2.5,-0.5L0,-3.0L2.5,-0.5"/>
                </g>
               <g id="resetDef">
                       <use xlink:href="#rim2" fill="#404040">
                               <set attributeName="fill" to="#808080" begin="reset.mouseover" end="reset.mouseout"/>
                       </use>
               </g>
        </defs>

<script type="text/javascript">
var viewWidth = 1196;
var viewHeight = 364;
var sectionId = 'dynsection-0';
</script>
<script xlink:href="svgpan.js"/>
<svg id="graph" class="graph">
<g id="viewport">
<title>EwaldgpuForce_cuda.cu</title>
<!-- Node1 -->
<g id="node1" class="node"><title>Node1</title>
<polygon fill="#bfbfbf" stroke="black" points="860.5,-336.5 860.5,-355.5 993.5,-355.5 993.5,-336.5 860.5,-336.5"/>
<text text-anchor="middle" x="927" y="-343.5" font-family="Helvetica,sans-Serif" font-size="10.00">EwaldgpuForce_cuda.cu</text>
</g>
<!-- Node2 -->
<g id="node2" class="node"><title>Node2</title>
<g id="a_node2"><a xlink:href="EwaldgpuForce_8hpp.html" target="_top" xlink:title="actor/EwaldgpuForce.hpp">
<polygon fill="none" stroke="black" points="603.5,-280.5 603.5,-299.5 742.5,-299.5 742.5,-280.5 603.5,-280.5"/>
<text text-anchor="middle" x="673" y="-287.5" font-family="Helvetica,sans-Serif" font-size="10.00">actor/EwaldgpuForce.hpp</text>
</a>
</g>
</g>
<!-- Node1&#45;&gt;Node2 -->
<g id="edge1" class="edge"><title>Node1&#45;&gt;Node2</title>
<path fill="none" stroke="midnightblue" d="M886.753,-336.444C842.35,-327.004 770.847,-311.802 722.912,-301.611"/>
<polygon fill="midnightblue" stroke="midnightblue" points="723.568,-298.173 713.059,-299.516 722.112,-305.02 723.568,-298.173"/>
</g>
<!-- Node26 -->
<g id="node26" class="node"><title>Node26</title>
<g id="a_node26"><a xlink:href="cuda__utils_8hpp.html" target="_top" xlink:title="cuda_utils.hpp">
<polygon fill="none" stroke="black" points="954.5,-280.5 954.5,-299.5 1041.5,-299.5 1041.5,-280.5 954.5,-280.5"/>
<text text-anchor="middle" x="998" y="-287.5" font-family="Helvetica,sans-Serif" font-size="10.00">cuda_utils.hpp</text>
</a>
</g>
</g>
<!-- Node1&#45;&gt;Node26 -->
<g id="edge32" class="edge"><title>Node1&#45;&gt;Node26</title>
<path fill="none" stroke="midnightblue" d="M938.407,-336.324C949.109,-328.185 965.341,-315.839 978.163,-306.087"/>
<polygon fill="midnightblue" stroke="midnightblue" points="980.544,-308.673 986.385,-299.834 976.307,-303.102 980.544,-308.673"/>
</g>
<!-- Node29 -->
<g id="node29" class="node"><title>Node29</title>
<polygon fill="none" stroke="#bfbfbf" points="1060,-280.5 1060,-299.5 1110,-299.5 1110,-280.5 1060,-280.5"/>
<text text-anchor="middle" x="1085" y="-287.5" font-family="Helvetica,sans-Serif" font-size="10.00">stdio.h</text>
</g>
<!-- Node1&#45;&gt;Node29 -->
<g id="edge35" class="edge"><title>Node1&#45;&gt;Node29</title>
<path fill="none" stroke="midnightblue" d="M952.036,-336.444C978.616,-327.359 1020.81,-312.939 1050.52,-302.783"/>
<polygon fill="midnightblue" stroke="midnightblue" points="1051.75,-306.062 1060.08,-299.516 1049.49,-299.439 1051.75,-306.062"/>
</g>
<!-- Node30 -->
<g id="node30" class="node"><title>Node30</title>
<polygon fill="none" stroke="#bfbfbf" points="1128,-280.5 1128,-299.5 1188,-299.5 1188,-280.5 1128,-280.5"/>
<text text-anchor="middle" x="1158" y="-287.5" font-family="Helvetica,sans-Serif" font-size="10.00">iostream</text>
</g>
<!-- Node1&#45;&gt;Node30 -->
<g id="edge36" class="edge"><title>Node1&#45;&gt;Node30</title>
<path fill="none" stroke="midnightblue" d="M963.603,-336.444C1005.65,-326.615 1074.42,-310.539 1117.89,-300.377"/>
<polygon fill="midnightblue" stroke="midnightblue" points="1118.89,-303.738 1127.83,-298.054 1117.29,-296.922 1118.89,-303.738"/>
</g>
<!-- Node31 -->
<g id="node31" class="node"><title>Node31</title>
<g id="a_node31"><a xlink:href="interaction__data_8hpp.html" target="_top" xlink:title="Various procedures concerning interactions between particles. ">
<polygon fill="none" stroke="black" points="461.5,-280.5 461.5,-299.5 578.5,-299.5 578.5,-280.5 461.5,-280.5"/>
<text text-anchor="middle" x="520" y="-287.5" font-family="Helvetica,sans-Serif" font-size="10.00">interaction_data.hpp</text>
</a>
</g>
</g>
<!-- Node1&#45;&gt;Node31 -->
<g id="edge37" class="edge"><title>Node1&#45;&gt;Node31</title>
<path fill="none" stroke="midnightblue" d="M862.51,-336.444C787.751,-326.525 665.049,-310.245 588.589,-300.1"/>
<polygon fill="midnightblue" stroke="midnightblue" points="588.952,-296.618 578.578,-298.772 588.031,-303.557 588.952,-296.618"/>
</g>
<!-- Node32 -->
<g id="node32" class="node"><title>Node32</title>
<g id="a_node32"><a xlink:href="EspressoSystemInterface_8hpp.html" target="_top" xlink:title="EspressoSystemInterface.hpp">
<polygon fill="none" stroke="black" points="775.5,-280.5 775.5,-299.5 936.5,-299.5 936.5,-280.5 775.5,-280.5"/>
<text text-anchor="middle" x="856" y="-287.5" font-family="Helvetica,sans-Serif" font-size="10.00">EspressoSystemInterface.hpp</text>
</a>
</g>
</g>
<!-- Node1&#45;&gt;Node32 -->
<g id="edge40" class="edge"><title>Node1&#45;&gt;Node32</title>
<path fill="none" stroke="midnightblue" d="M915.593,-336.324C904.891,-328.185 888.659,-315.839 875.837,-306.087"/>
<polygon fill="midnightblue" stroke="midnightblue" points="877.693,-303.102 867.615,-299.834 873.456,-308.673 877.693,-303.102"/>
</g>
<!-- Node3 -->
<g id="node3" class="node"><title>Node3</title>
<g id="a_node3"><a xlink:href="config_8hpp.html" target="_top" xlink:title="This file contains the defaults for Espresso. ">
<polygon fill="none" stroke="black" points="470.5,-56.5 470.5,-75.5 537.5,-75.5 537.5,-56.5 470.5,-56.5"/>
<text text-anchor="middle" x="504" y="-63.5" font-family="Helvetica,sans-Serif" font-size="10.00">config.hpp</text>
</a>
</g>
</g>
<!-- Node2&#45;&gt;Node3 -->
<g id="edge2" class="edge"><title>Node2&#45;&gt;Node3</title>
<path fill="none" stroke="midnightblue" d="M656.281,-280.436C635.938,-268.787 605.731,-246.775 618,-224 639.455,-184.172 663.307,-189.704 703,-168 737.565,-149.099 762.533,-165.033 784,-132 788.844,-124.547 789.765,-118.766 784,-112 754.196,-77.0234 618.983,-69.1286 547.93,-67.4177"/>
<polygon fill="midnightblue" stroke="midnightblue" points="547.589,-63.91 537.518,-67.2003 547.443,-70.9084 547.589,-63.91"/>
</g>
<!-- Node7 -->
<g id="node7" class="node"><title>Node7</title>
<g id="a_node7"><a xlink:href="SystemInterface_8hpp.html" target="_top" xlink:title="SystemInterface.hpp">
<polygon fill="none" stroke="black" points="712,-168.5 712,-187.5 830,-187.5 830,-168.5 712,-168.5"/>
<text text-anchor="middle" x="771" y="-175.5" font-family="Helvetica,sans-Serif" font-size="10.00">SystemInterface.hpp</text>
</a>
</g>
</g>
<!-- Node2&#45;&gt;Node7 -->
<g id="edge6" class="edge"><title>Node2&#45;&gt;Node7</title>
<path fill="none" stroke="midnightblue" d="M712.725,-280.471C732.78,-273.985 755.461,-262.838 768,-244 776.989,-230.495 776.837,-211.687 774.971,-197.775"/>
<polygon fill="midnightblue" stroke="midnightblue" points="778.409,-197.117 773.249,-187.863 771.512,-198.315 778.409,-197.117"/>
</g>
<!-- Node12 -->
<g id="node12" class="node"><title>Node12</title>
<g id="a_node12"><a xlink:href="Actor_8hpp.html" target="_top" xlink:title="Actor.hpp">
<polygon fill="none" stroke="black" points="697,-224.5 697,-243.5 759,-243.5 759,-224.5 697,-224.5"/>
<text text-anchor="middle" x="728" y="-231.5" font-family="Helvetica,sans-Serif" font-size="10.00">Actor.hpp</text>
</a>
</g>
</g>
<!-- Node2&#45;&gt;Node12 -->
<g id="edge11" class="edge"><title>Node2&#45;&gt;Node12</title>
<path fill="none" stroke="midnightblue" d="M682.082,-280.083C690.171,-272.141 702.195,-260.335 711.91,-250.797"/>
<polygon fill="midnightblue" stroke="midnightblue" points="714.403,-253.254 719.087,-243.751 709.499,-248.26 714.403,-253.254"/>
</g>
<!-- Node13 -->
<g id="node13" class="node"><title>Node13</title>
<g id="a_node13"><a xlink:href="particle__data_8hpp.html" target="_top" xlink:title="For more information on particle_data, see particle_data.c. ">
<polygon fill="none" stroke="black" points="469.5,-224.5 469.5,-243.5 570.5,-243.5 570.5,-224.5 469.5,-224.5"/>
<text text-anchor="middle" x="520" y="-231.5" font-family="Helvetica,sans-Serif" font-size="10.00">particle_data.hpp</text>
</a>
</g>
</g>
<!-- Node2&#45;&gt;Node13 -->
<g id="edge13" class="edge"><title>Node2&#45;&gt;Node13</title>
<path fill="none" stroke="midnightblue" d="M648.757,-280.444C623.129,-271.399 582.515,-257.064 553.762,-246.916"/>
<polygon fill="midnightblue" stroke="midnightblue" points="554.725,-243.544 544.13,-243.516 552.395,-250.145 554.725,-243.544"/>
</g>
<!-- Node25 -->
<g id="node25" class="node"><title>Node25</title>
<polygon fill="none" stroke="#bfbfbf" points="627.5,-224.5 627.5,-243.5 678.5,-243.5 678.5,-224.5 627.5,-224.5"/>
<text text-anchor="middle" x="653" y="-231.5" font-family="Helvetica,sans-Serif" font-size="10.00">math.h</text>
</g>
<!-- Node2&#45;&gt;Node25 -->
<g id="edge31" class="edge"><title>Node2&#45;&gt;Node25</title>
<path fill="none" stroke="midnightblue" d="M669.697,-280.083C667.018,-272.849 663.151,-262.409 659.814,-253.397"/>
<polygon fill="midnightblue" stroke="midnightblue" points="662.996,-251.913 656.241,-243.751 656.432,-254.344 662.996,-251.913"/>
</g>
<!-- Node4 -->
<g id="node4" class="node"><title>Node4</title>
<g id="a_node4"><a xlink:href="acconfig_8hpp.html" target="_top" xlink:title="acconfig.hpp">
<polygon fill="none" stroke="black" points="354,-0.5 354,-19.5 432,-19.5 432,-0.5 354,-0.5"/>
<text text-anchor="middle" x="393" y="-7.5" font-family="Helvetica,sans-Serif" font-size="10.00">acconfig.hpp</text>
</a>
</g>
</g>
<!-- Node3&#45;&gt;Node4 -->
<g id="edge3" class="edge"><title>Node3&#45;&gt;Node4</title>
<path fill="none" stroke="midnightblue" d="M486.166,-56.324C468.284,-47.6247 440.525,-34.1202 419.954,-24.113"/>
<polygon fill="midnightblue" stroke="midnightblue" points="421.313,-20.8819 410.79,-19.6545 418.251,-27.1765 421.313,-20.8819"/>
</g>
<!-- Node5 -->
<g id="node5" class="node"><title>Node5</title>
<g id="a_node5"><a xlink:href="myconfig-final_8hpp.html" target="_top" xlink:title="myconfig&#45;final.hpp">
<polygon fill="none" stroke="black" points="450.5,-0.5 450.5,-19.5 557.5,-19.5 557.5,-0.5 450.5,-0.5"/>
<text text-anchor="middle" x="504" y="-7.5" font-family="Helvetica,sans-Serif" font-size="10.00">myconfig&#45;final.hpp</text>
</a>
</g>
</g>
<!-- Node3&#45;&gt;Node5 -->
<g id="edge4" class="edge"><title>Node3&#45;&gt;Node5</title>
<path fill="none" stroke="midnightblue" d="M504,-56.083C504,-49.0059 504,-38.8611 504,-29.9865"/>
<polygon fill="midnightblue" stroke="midnightblue" points="507.5,-29.751 504,-19.7511 500.5,-29.7511 507.5,-29.751"/>
</g>
<!-- Node6 -->
<g id="node6" class="node"><title>Node6</title>
<g id="a_node6"><a xlink:href="config-features_8hpp.html" target="_top" xlink:title="config&#45;features.hpp">
<polygon fill="none" stroke="black" points="575.5,-0.5 575.5,-19.5 686.5,-19.5 686.5,-0.5 575.5,-0.5"/>
<text text-anchor="middle" x="631" y="-7.5" font-family="Helvetica,sans-Serif" font-size="10.00">config&#45;features.hpp</text>
</a>
</g>
</g>
<!-- Node3&#45;&gt;Node6 -->
<g id="edge5" class="edge"><title>Node3&#45;&gt;Node6</title>
<path fill="none" stroke="midnightblue" d="M524.124,-56.4435C545.024,-47.5566 577.935,-33.5632 601.716,-23.4514"/>
<polygon fill="midnightblue" stroke="midnightblue" points="603.138,-26.6504 610.971,-19.5164 600.398,-20.2085 603.138,-26.6504"/>
</g>
<!-- Node8 -->
<g id="node8" class="node"><title>Node8</title>
<g id="a_node8"><a xlink:href="Vector_8hpp.html" target="_top" xlink:title="Vector.hpp">
<polygon fill="none" stroke="black" points="886,-112.5 886,-131.5 954,-131.5 954,-112.5 886,-112.5"/>
<text text-anchor="middle" x="920" y="-119.5" font-family="Helvetica,sans-Serif" font-size="10.00">Vector.hpp</text>
</a>
</g>
</g>
<!-- Node7&#45;&gt;Node8 -->
<g id="edge7" class="edge"><title>Node7&#45;&gt;Node8</title>
<path fill="none" stroke="midnightblue" d="M794.609,-168.444C819.458,-159.438 858.774,-145.189 886.754,-135.049"/>
<polygon fill="midnightblue" stroke="midnightblue" points="888.292,-138.214 896.501,-131.516 885.907,-131.633 888.292,-138.214"/>
</g>
<!-- Node11 -->
<g id="node11" class="node"><title>Node11</title>
<polygon fill="none" stroke="#bfbfbf" points="728.5,-112.5 728.5,-131.5 775.5,-131.5 775.5,-112.5 728.5,-112.5"/>
<text text-anchor="middle" x="752" y="-119.5" font-family="Helvetica,sans-Serif" font-size="10.00">vector</text>
</g>
<!-- Node7&#45;&gt;Node11 -->
<g id="edge10" class="edge"><title>Node7&#45;&gt;Node11</title>
<path fill="none" stroke="midnightblue" d="M767.863,-168.083C765.317,-160.849 761.644,-150.409 758.473,-141.397"/>
<polygon fill="midnightblue" stroke="midnightblue" points="761.7,-140.023 755.079,-131.751 755.097,-142.346 761.7,-140.023"/>
</g>
<!-- Node9 -->
<g id="node9" class="node"><title>Node9</title>
<polygon fill="none" stroke="#bfbfbf" points="888,-56.5 888,-75.5 952,-75.5 952,-56.5 888,-56.5"/>
<text text-anchor="middle" x="920" y="-63.5" font-family="Helvetica,sans-Serif" font-size="10.00">algorithm</text>
</g>
<!-- Node8&#45;&gt;Node9 -->
<g id="edge8" class="edge"><title>Node8&#45;&gt;Node9</title>
<path fill="none" stroke="midnightblue" d="M920,-112.083C920,-105.006 920,-94.8611 920,-85.9865"/>
<polygon fill="midnightblue" stroke="midnightblue" points="923.5,-85.751 920,-75.7511 916.5,-85.7511 923.5,-85.751"/>
</g>
<!-- Node10 -->
<g id="node10" class="node"><title>Node10</title>
<polygon fill="none" stroke="#bfbfbf" points="749.5,-56.5 749.5,-75.5 796.5,-75.5 796.5,-56.5 749.5,-56.5"/>
<text text-anchor="middle" x="773" y="-63.5" font-family="Helvetica,sans-Serif" font-size="10.00">cmath</text>
</g>
<!-- Node8&#45;&gt;Node10 -->
<g id="edge9" class="edge"><title>Node8&#45;&gt;Node10</title>
<path fill="none" stroke="midnightblue" d="M896.707,-112.444C872.193,-103.438 833.404,-89.1891 805.8,-79.049"/>
<polygon fill="midnightblue" stroke="midnightblue" points="806.777,-75.6793 796.184,-75.5164 804.363,-82.25 806.777,-75.6793"/>
</g>
<!-- Node12&#45;&gt;Node7 -->
<g id="edge12" class="edge"><title>Node12&#45;&gt;Node7</title>
<path fill="none" stroke="midnightblue" d="M735.101,-224.083C741.237,-216.377 750.27,-205.033 757.739,-195.653"/>
<polygon fill="midnightblue" stroke="midnightblue" points="760.54,-197.754 764.032,-187.751 755.064,-193.394 760.54,-197.754"/>
</g>
<!-- Node14 -->
<g id="node14" class="node"><title>Node14</title>
<g id="a_node14"><a xlink:href="utils_8hpp.html" target="_top" xlink:title="Small functions that are useful not only for one modul. ">
<polygon fill="none" stroke="black" points="411.5,-168.5 411.5,-187.5 470.5,-187.5 470.5,-168.5 411.5,-168.5"/>
<text text-anchor="middle" x="441" y="-175.5" font-family="Helvetica,sans-Serif" font-size="10.00">utils.hpp</text>
</a>
</g>
</g>
<!-- Node13&#45;&gt;Node14 -->
<g id="edge14" class="edge"><title>Node13&#45;&gt;Node14</title>
<path fill="none" stroke="midnightblue" d="M507.307,-224.324C495.099,-215.979 476.422,-203.212 461.997,-193.352"/>
<polygon fill="midnightblue" stroke="midnightblue" points="463.892,-190.408 453.661,-187.655 459.942,-196.187 463.892,-190.408"/>
</g>
<!-- Node14&#45;&gt;Node3 -->
<g id="edge19" class="edge"><title>Node14&#45;&gt;Node3</title>
<path fill="none" stroke="midnightblue" d="M430.528,-168.324C416.485,-155.607 394.664,-131.321 407,-112 418.933,-93.3091 440.85,-82.2632 460.835,-75.7975"/>
<polygon fill="midnightblue" stroke="midnightblue" points="461.829,-79.1533 470.438,-72.9778 459.857,-72.4368 461.829,-79.1533"/>
</g>
<!-- Node14&#45;&gt;Node10 -->
<g id="edge15" class="edge"><title>Node14&#45;&gt;Node10</title>
<path fill="none" stroke="midnightblue" d="M470.606,-175.509C517.109,-172.288 609.357,-162.309 681,-132 709.944,-119.755 738.803,-97.2693 756.278,-82.2253"/>
<polygon fill="midnightblue" stroke="midnightblue" points="758.704,-84.7527 763.893,-75.5153 754.076,-79.5008 758.704,-84.7527"/>
</g>
<!-- Node14&#45;&gt;Node11 -->
<g id="edge29" class="edge"><title>Node14&#45;&gt;Node11</title>
<path fill="none" stroke="midnightblue" d="M470.612,-172.805C520.855,-165.535 625.928,-149.666 714,-132 715.454,-131.708 716.937,-131.401 718.434,-131.082"/>
<polygon fill="midnightblue" stroke="midnightblue" points="719.342,-134.466 728.339,-128.871 717.816,-127.634 719.342,-134.466"/>
</g>
<!-- Node15 -->
<g id="node15" class="node"><title>Node15</title>
<polygon fill="none" stroke="#bfbfbf" points="160,-112.5 160,-131.5 206,-131.5 206,-112.5 160,-112.5"/>
<text text-anchor="middle" x="183" y="-119.5" font-family="Helvetica,sans-Serif" font-size="10.00">cstdio</text>
</g>
<!-- Node14&#45;&gt;Node15 -->
<g id="edge16" class="edge"><title>Node14&#45;&gt;Node15</title>
<path fill="none" stroke="midnightblue" d="M411.225,-171.832C369.71,-164.463 291.893,-150.054 216.196,-132.138"/>
<polygon fill="midnightblue" stroke="midnightblue" points="216.556,-128.625 206.016,-129.704 214.928,-135.433 216.556,-128.625"/>
</g>
<!-- Node16 -->
<g id="node16" class="node"><title>Node16</title>
<polygon fill="none" stroke="#bfbfbf" points="224.5,-112.5 224.5,-131.5 273.5,-131.5 273.5,-112.5 224.5,-112.5"/>
<text text-anchor="middle" x="249" y="-119.5" font-family="Helvetica,sans-Serif" font-size="10.00">cstdlib</text>
</g>
<!-- Node14&#45;&gt;Node16 -->
<g id="edge17" class="edge"><title>Node14&#45;&gt;Node16</title>
<path fill="none" stroke="midnightblue" d="M411.421,-168.681C376.903,-158.973 319.913,-142.944 283.436,-132.685"/>
<polygon fill="midnightblue" stroke="midnightblue" points="284.301,-129.293 273.727,-129.954 282.406,-136.031 284.301,-129.293"/>
</g>
<!-- Node17 -->
<g id="node17" class="node"><title>Node17</title>
<polygon fill="none" stroke="#bfbfbf" points="416,-112.5 416,-131.5 466,-131.5 466,-112.5 416,-112.5"/>
<text text-anchor="middle" x="441" y="-119.5" font-family="Helvetica,sans-Serif" font-size="10.00">cstring</text>
</g>
<!-- Node14&#45;&gt;Node17 -->
<g id="edge18" class="edge"><title>Node14&#45;&gt;Node17</title>
<path fill="none" stroke="midnightblue" d="M441,-168.083C441,-161.006 441,-150.861 441,-141.986"/>
<polygon fill="midnightblue" stroke="midnightblue" points="444.5,-141.751 441,-131.751 437.5,-141.751 444.5,-141.751"/>
</g>
<!-- Node18 -->
<g id="node18" class="node"><title>Node18</title>
<g id="a_node18"><a xlink:href="debug_8hpp.html" target="_top" xlink:title="This file controls debug facilities. ">
<polygon fill="none" stroke="black" points="292,-112.5 292,-131.5 360,-131.5 360,-112.5 292,-112.5"/>
<text text-anchor="middle" x="326" y="-119.5" font-family="Helvetica,sans-Serif" font-size="10.00">debug.hpp</text>
</a>
</g>
</g>
<!-- Node14&#45;&gt;Node18 -->
<g id="edge20" class="edge"><title>Node14&#45;&gt;Node18</title>
<path fill="none" stroke="midnightblue" d="M422.778,-168.444C404.104,-159.675 374.844,-145.935 353.383,-135.858"/>
<polygon fill="midnightblue" stroke="midnightblue" points="354.676,-132.599 344.137,-131.516 351.701,-138.935 354.676,-132.599"/>
</g>
<!-- Node19 -->
<g id="node19" class="node"><title>Node19</title>
<g id="a_node19"><a xlink:href="lees__edwards_8hpp.html" target="_top" xlink:title="lees_edwards.hpp">
<polygon fill="none" stroke="black" points="568,-112.5 568,-131.5 672,-131.5 672,-112.5 568,-112.5"/>
<text text-anchor="middle" x="620" y="-119.5" font-family="Helvetica,sans-Serif" font-size="10.00">lees_edwards.hpp</text>
</a>
</g>
</g>
<!-- Node14&#45;&gt;Node19 -->
<g id="edge22" class="edge"><title>Node14&#45;&gt;Node19</title>
<path fill="none" stroke="midnightblue" d="M469.363,-168.444C499.738,-159.28 548.11,-144.688 581.816,-134.519"/>
<polygon fill="midnightblue" stroke="midnightblue" points="583.207,-137.756 591.77,-131.516 581.185,-131.054 583.207,-137.756"/>
</g>
<!-- Node20 -->
<g id="node20" class="node"><title>Node20</title>
<g id="a_node20"><a xlink:href="errorhandling_8hpp.html" target="_top" xlink:title="This file contains the errorhandling code for severe errors, like a broken bond or illegal parameter ...">
<polygon fill="none" stroke="black" points="38.5,-112.5 38.5,-131.5 141.5,-131.5 141.5,-112.5 38.5,-112.5"/>
<text text-anchor="middle" x="90" y="-119.5" font-family="Helvetica,sans-Serif" font-size="10.00">errorhandling.hpp</text>
</a>
</g>
</g>
<!-- Node14&#45;&gt;Node20 -->
<g id="edge24" class="edge"><title>Node14&#45;&gt;Node20</title>
<path fill="none" stroke="midnightblue" d="M411.376,-172.443C354.275,-163.658 227.903,-144.216 151.746,-132.499"/>
<polygon fill="midnightblue" stroke="midnightblue" points="152.218,-129.031 141.802,-130.97 151.154,-135.95 152.218,-129.031"/>
</g>
<!-- Node24 -->
<g id="node24" class="node"><title>Node24</title>
<polygon fill="none" stroke="#bfbfbf" points="484.5,-112.5 484.5,-131.5 549.5,-131.5 549.5,-112.5 484.5,-112.5"/>
<text text-anchor="middle" x="517" y="-119.5" font-family="Helvetica,sans-Serif" font-size="10.00">exception</text>
</g>
<!-- Node14&#45;&gt;Node24 -->
<g id="edge30" class="edge"><title>Node14&#45;&gt;Node24</title>
<path fill="none" stroke="midnightblue" d="M453.211,-168.324C464.776,-160.107 482.375,-147.602 496.161,-137.807"/>
<polygon fill="midnightblue" stroke="midnightblue" points="498.443,-140.479 504.567,-131.834 494.388,-134.773 498.443,-140.479"/>
</g>
<!-- Node18&#45;&gt;Node3 -->
<g id="edge21" class="edge"><title>Node18&#45;&gt;Node3</title>
<path fill="none" stroke="midnightblue" d="M354.205,-112.444C384.41,-103.28 432.511,-88.6876 466.029,-78.5192"/>
<polygon fill="midnightblue" stroke="midnightblue" points="467.374,-81.7688 475.927,-75.5164 465.342,-75.0703 467.374,-81.7688"/>
</g>
<!-- Node19&#45;&gt;Node3 -->
<g id="edge23" class="edge"><title>Node19&#45;&gt;Node3</title>
<path fill="none" stroke="midnightblue" d="M601.619,-112.444C582.784,-103.675 553.269,-89.9355 531.621,-79.8579"/>
<polygon fill="midnightblue" stroke="midnightblue" points="532.838,-76.5637 522.295,-75.5164 529.883,-82.9098 532.838,-76.5637"/>
</g>
<!-- Node20&#45;&gt;Node3 -->
<g id="edge25" class="edge"><title>Node20&#45;&gt;Node3</title>
<path fill="none" stroke="midnightblue" d="M141.574,-113.318C144.763,-112.865 147.925,-112.423 151,-112 262.255,-96.7028 393.492,-80.4411 460.241,-72.2973"/>
<polygon fill="midnightblue" stroke="midnightblue" points="460.884,-75.7449 470.387,-71.0613 460.037,-68.7963 460.884,-75.7449"/>
</g>
<!-- Node21 -->
<g id="node21" class="node"><title>Node21</title>
<polygon fill="none" stroke="#bfbfbf" points="0,-56.5 0,-75.5 44,-75.5 44,-56.5 0,-56.5"/>
<text text-anchor="middle" x="22" y="-63.5" font-family="Helvetica,sans-Serif" font-size="10.00">string</text>
</g>
<!-- Node20&#45;&gt;Node21 -->
<g id="edge26" class="edge"><title>Node20&#45;&gt;Node21</title>
<path fill="none" stroke="midnightblue" d="M79.0746,-112.324C68.8254,-104.185 53.2794,-91.8395 40.999,-82.0874"/>
<polygon fill="midnightblue" stroke="midnightblue" points="43.1319,-79.3119 33.1242,-75.8339 38.7787,-84.7937 43.1319,-79.3119"/>
</g>
<!-- Node22 -->
<g id="node22" class="node"><title>Node22</title>
<polygon fill="none" stroke="#bfbfbf" points="62,-56.5 62,-75.5 118,-75.5 118,-56.5 62,-56.5"/>
<text text-anchor="middle" x="90" y="-63.5" font-family="Helvetica,sans-Serif" font-size="10.00">sstream</text>
</g>
<!-- Node20&#45;&gt;Node22 -->
<g id="edge27" class="edge"><title>Node20&#45;&gt;Node22</title>
<path fill="none" stroke="midnightblue" d="M90,-112.083C90,-105.006 90,-94.8611 90,-85.9865"/>
<polygon fill="midnightblue" stroke="midnightblue" points="93.5001,-85.751 90,-75.7511 86.5001,-85.7511 93.5001,-85.751"/>
</g>
<!-- Node23 -->
<g id="node23" class="node"><title>Node23</title>
<polygon fill="none" stroke="#bfbfbf" points="136,-56.5 136,-75.5 168,-75.5 168,-56.5 136,-56.5"/>
<text text-anchor="middle" x="152" y="-63.5" font-family="Helvetica,sans-Serif" font-size="10.00">list</text>
</g>
<!-- Node20&#45;&gt;Node23 -->
<g id="edge28" class="edge"><title>Node20&#45;&gt;Node23</title>
<path fill="none" stroke="midnightblue" d="M99.9614,-112.324C109.127,-104.341 122.937,-92.3128 134.028,-82.6529"/>
<polygon fill="midnightblue" stroke="midnightblue" points="136.615,-85.041 141.857,-75.8339 132.018,-79.7624 136.615,-85.041"/>
</g>
<!-- Node27 -->
<g id="node27" class="node"><title>Node27</title>
<polygon fill="none" stroke="#bfbfbf" points="981.5,-224.5 981.5,-243.5 1030.5,-243.5 1030.5,-224.5 981.5,-224.5"/>
<text text-anchor="middle" x="1006" y="-231.5" font-family="Helvetica,sans-Serif" font-size="10.00">cuda.h</text>
</g>
<!-- Node26&#45;&gt;Node27 -->
<g id="edge33" class="edge"><title>Node26&#45;&gt;Node27</title>
<path fill="none" stroke="midnightblue" d="M999.321,-280.083C1000.38,-272.927 1001.91,-262.635 1003.23,-253.691"/>
<polygon fill="midnightblue" stroke="midnightblue" points="1006.7,-254.156 1004.7,-243.751 999.776,-253.13 1006.7,-254.156"/>
</g>
<!-- Node28 -->
<g id="node28" class="node"><title>Node28</title>
<polygon fill="none" stroke="#bfbfbf" points="1049,-224.5 1049,-243.5 1141,-243.5 1141,-224.5 1049,-224.5"/>
<text text-anchor="middle" x="1095" y="-231.5" font-family="Helvetica,sans-Serif" font-size="10.00">cuda_runtime.h</text>
</g>
<!-- Node26&#45;&gt;Node28 -->
<g id="edge34" class="edge"><title>Node26&#45;&gt;Node28</title>
<path fill="none" stroke="midnightblue" d="M1013.58,-280.324C1029,-271.743 1052.81,-258.486 1070.71,-248.522"/>
<polygon fill="midnightblue" stroke="midnightblue" points="1072.42,-251.577 1079.45,-243.655 1069.01,-245.461 1072.42,-251.577"/>
</g>
<!-- Node31&#45;&gt;Node13 -->
<g id="edge39" class="edge"><title>Node31&#45;&gt;Node13</title>
<path fill="none" stroke="midnightblue" d="M520,-280.083C520,-273.006 520,-262.861 520,-253.986"/>
<polygon fill="midnightblue" stroke="midnightblue" points="523.5,-253.751 520,-243.751 516.5,-253.751 523.5,-253.751"/>
</g>
<!-- Node31&#45;&gt;Node14 -->
<g id="edge38" class="edge"><title>Node31&#45;&gt;Node14</title>
<path fill="none" stroke="midnightblue" d="M503.107,-280.346C489.561,-272.576 471.048,-259.948 460,-244 450.481,-230.258 445.674,-211.729 443.282,-197.97"/>
<polygon fill="midnightblue" stroke="midnightblue" points="446.698,-197.135 441.791,-187.745 439.771,-198.145 446.698,-197.135"/>
</g>
<!-- Node32&#45;&gt;Node7 -->
<g id="edge41" class="edge"><title>Node32&#45;&gt;Node7</title>
<path fill="none" stroke="midnightblue" d="M849.33,-280.368C835.241,-262.135 802.238,-219.426 783.885,-195.675"/>
<polygon fill="midnightblue" stroke="midnightblue" points="786.523,-193.364 777.639,-187.591 780.984,-197.644 786.523,-193.364"/>
</g>
<!-- Node33 -->
<g id="node33" class="node"><title>Node33</title>
<g id="a_node33"><a xlink:href="cuda__interface_8hpp.html" target="_top" xlink:title="cuda_interface.hpp">
<polygon fill="none" stroke="black" points="853,-224.5 853,-243.5 963,-243.5 963,-224.5 853,-224.5"/>
<text text-anchor="middle" x="908" y="-231.5" font-family="Helvetica,sans-Serif" font-size="10.00">cuda_interface.hpp</text>
</a>
</g>
</g>
<!-- Node32&#45;&gt;Node33 -->
<g id="edge42" class="edge"><title>Node32&#45;&gt;Node33</title>
<path fill="none" stroke="midnightblue" d="M864.587,-280.083C872.159,-272.22 883.378,-260.569 892.514,-251.081"/>
<polygon fill="midnightblue" stroke="midnightblue" points="895.158,-253.382 899.573,-243.751 890.115,-248.527 895.158,-253.382"/>
</g>
<!-- Node33&#45;&gt;Node3 -->
<g id="edge43" class="edge"><title>Node33&#45;&gt;Node3</title>
<path fill="none" stroke="midnightblue" d="M904.489,-224.444C894.672,-201.722 864.572,-139.715 818,-112 773.197,-85.3375 622.896,-73.4984 547.665,-69.1409"/>
<polygon fill="midnightblue" stroke="midnightblue" points="547.747,-65.6401 537.566,-68.5749 547.355,-72.6291 547.747,-65.6401"/>
</g>
<!-- Node33&#45;&gt;Node7 -->
<g id="edge44" class="edge"><title>Node33&#45;&gt;Node7</title>
<path fill="none" stroke="midnightblue" d="M886.292,-224.444C863.645,-215.517 827.928,-201.439 802.248,-191.317"/>
<polygon fill="midnightblue" stroke="midnightblue" points="803.193,-187.927 792.606,-187.516 800.626,-194.44 803.193,-187.927"/>
</g>
</g>
</svg>
        <g id="navigator" transform="translate(0 0)" fill="#404254">
                <rect fill="#f2f5e9" fill-opacity="0.5" stroke="#606060" stroke-width=".5" x="0" y="0" width="60" height="60"/>
                <use id="zoomplus" xlink:href="#zoomPlus" x="17" y="9" onmousedown="handleZoom(evt,'in')"/>
                <use id="zoomminus" xlink:href="#zoomMin" x="42" y="9" onmousedown="handleZoom(evt,'out')"/>
                <use id="reset" xlink:href="#resetDef" x="30" y="36" onmousedown="handleReset()"/>
                <g id="arrowUp" xlink:href="#dirArrow" transform="translate(30 24)" onmousedown="handlePan(0,-1)">
                  <use xlink:href="#rim" fill="#404040">
                        <set attributeName="fill" to="#808080" begin="arrowUp.mouseover" end="arrowUp.mouseout"/>
                  </use>
                  <path fill="none" stroke="white" stroke-width="1.5" d="M0,-3.0v7 M-2.5,-0.5L0,-3.0L2.5,-0.5"/>
                </g>
                <g id="arrowRight" xlink:href="#dirArrow" transform="rotate(90) translate(36 -43)" onmousedown="handlePan(1,0)">
                  <use xlink:href="#rim" fill="#404040">
                        <set attributeName="fill" to="#808080" begin="arrowRight.mouseover" end="arrowRight.mouseout"/>
                  </use>
                  <path fill="none" stroke="white" stroke-width="1.5" d="M0,-3.0v7 M-2.5,-0.5L0,-3.0L2.5,-0.5"/>
                </g>
                <g id="arrowDown" xlink:href="#dirArrow" transform="rotate(180) translate(-30 -48)" onmousedown="handlePan(0,1)">
                  <use xlink:href="#rim" fill="#404040">
                        <set attributeName="fill" to="#808080" begin="arrowDown.mouseover" end="arrowDown.mouseout"/>
                  </use>
                  <path fill="none" stroke="white" stroke-width="1.5" d="M0,-3.0v7 M-2.5,-0.5L0,-3.0L2.5,-0.5"/>
                </g>
                <g id="arrowLeft" xlink:href="#dirArrow" transform="rotate(270) translate(-36 17)" onmousedown="handlePan(-1,0)">
                  <use xlink:href="#rim" fill="#404040">
                        <set attributeName="fill" to="#808080" begin="arrowLeft.mouseover" end="arrowLeft.mouseout"/>
                  </use>
                  <path fill="none" stroke="white" stroke-width="1.5" d="M0,-3.0v7 M-2.5,-0.5L0,-3.0L2.5,-0.5"/>
                </g>
        </g>
        <svg viewBox="0 0 15 15" width="100%" height="30px" preserveAspectRatio="xMaxYMin meet">
         <g id="arrow_out" transform="scale(0.3 0.3)">
          <a xlink:href="EwaldgpuForce__cuda_8cu__incl_org.svg" target="_base">
           <rect id="button" ry="5" rx="5" y="6" x="6" height="38" width="38"
                fill="#f2f5e9" fill-opacity="0.5" stroke="#606060" stroke-width="1.0"/>
           <path id="arrow"
             d="M 11.500037,31.436501 C 11.940474,20.09759 22.043105,11.32322 32.158766,21.979434 L 37.068811,17.246167 C 37.068811,17.246167 37.088388,32 37.088388,32 L 22.160133,31.978069 C 22.160133,31.978069 26.997745,27.140456 26.997745,27.140456 C 18.528582,18.264221 13.291696,25.230495 11.500037,31.436501 z"
             style="fill:#404040;"/>
          </a>
         </g>
        </svg>
</svg>
