<?xml version="1.0" encoding="UTF-8" standalone="no"?>
<!DOCTYPE svg PUBLIC "-//W3C//DTD SVG 1.1//EN"
 "http://www.w3.org/Graphics/SVG/1.1/DTD/svg11.dtd">
<!-- Generated by graphviz version 2.38.0 (20140413.2041)
 -->
<!-- Title: Ewaldgpu_tcl.hpp Pages: 1 -->
<svg width="792pt" height="308pt"
 viewBox="0.00 0.00 792.42 308.00" xmlns="http://www.w3.org/2000/svg" xmlns:xlink="http://www.w3.org/1999/xlink">
<g id="graph0" class="graph" transform="scale(1 1) rotate(0) translate(4 304)">
<title>Ewaldgpu_tcl.hpp</title>
<!-- Node1 -->
<g id="node1" class="node"><title>Node1</title>
<polygon fill="#bfbfbf" stroke="black" points="116.416,-280.5 116.416,-299.5 218.416,-299.5 218.416,-280.5 116.416,-280.5"/>
<text text-anchor="middle" x="167.416" y="-287.5" font-family="Helvetica,sans-Serif" font-size="10.00">Ewaldgpu_tcl.hpp</text>
</g>
<!-- Node2 -->
<g id="node2" class="node"><title>Node2</title>
<g id="a_node2"><a xlink:href="parser_8hpp.html" target="_top" xlink:title="This file contains macros for parsing the parameters to the &#39;inter&#39; command. ">
<polygon fill="none" stroke="black" points="308.416,-224.5 308.416,-243.5 376.416,-243.5 376.416,-224.5 308.416,-224.5"/>
<text text-anchor="middle" x="342.416" y="-231.5" font-family="Helvetica,sans-Serif" font-size="10.00">parser.hpp</text>
</a>
</g>
</g>
<!-- Node1&#45;&gt;Node2 -->
<g id="edge1" class="edge"><title>Node1&#45;&gt;Node2</title>
<path fill="none" stroke="midnightblue" d="M195.145,-280.444C224.842,-271.28 272.132,-256.688 305.085,-246.519"/>
<polygon fill="midnightblue" stroke="midnightblue" points="306.293,-249.809 314.816,-243.516 304.229,-243.121 306.293,-249.809"/>
</g>
<!-- Node8 -->
<g id="node8" class="node"><title>Node8</title>
<g id="a_node8"><a xlink:href="config_8hpp.html" target="_top" xlink:title="This file contains the defaults for Espresso. ">
<polygon fill="none" stroke="black" points="191.916,-56.5 191.916,-75.5 258.916,-75.5 258.916,-56.5 191.916,-56.5"/>
<text text-anchor="middle" x="225.416" y="-63.5" font-family="Helvetica,sans-Serif" font-size="10.00">config.hpp</text>
</a>
</g>
</g>
<!-- Node1&#45;&gt;Node8 -->
<g id="edge24" class="edge"><title>Node1&#45;&gt;Node8</title>
<path fill="none" stroke="midnightblue" d="M148.968,-280.363C97.3031,-255.05 -41.6064,-178.628 12.416,-112 33.3122,-86.2278 125.733,-74.64 181.742,-69.9027"/>
<polygon fill="midnightblue" stroke="midnightblue" points="182.065,-73.3881 191.751,-69.096 181.502,-66.4108 182.065,-73.3881"/>
</g>
<!-- Node3 -->
<g id="node3" class="node"><title>Node3</title>
<g id="a_node3"><a xlink:href="utils_8hpp.html" target="_top" xlink:title="Small functions that are useful not only for one modul. ">
<polygon fill="none" stroke="black" points="346.916,-168.5 346.916,-187.5 405.916,-187.5 405.916,-168.5 346.916,-168.5"/>
<text text-anchor="middle" x="376.416" y="-175.5" font-family="Helvetica,sans-Serif" font-size="10.00">utils.hpp</text>
</a>
</g>
</g>
<!-- Node2&#45;&gt;Node3 -->
<g id="edge2" class="edge"><title>Node2&#45;&gt;Node3</title>
<path fill="none" stroke="midnightblue" d="M348.03,-224.083C352.783,-216.534 359.734,-205.495 365.568,-196.23"/>
<polygon fill="midnightblue" stroke="midnightblue" points="368.54,-198.078 370.906,-187.751 362.616,-194.349 368.54,-198.078"/>
</g>
<!-- Node7 -->
<g id="node7" class="node"><title>Node7</title>
<polygon fill="none" stroke="#bfbfbf" points="734.416,-112.5 734.416,-131.5 784.416,-131.5 784.416,-112.5 734.416,-112.5"/>
<text text-anchor="middle" x="759.416" y="-119.5" font-family="Helvetica,sans-Serif" font-size="10.00">cstring</text>
</g>
<!-- Node2&#45;&gt;Node7 -->
<g id="edge22" class="edge"><title>Node2&#45;&gt;Node7</title>
<path fill="none" stroke="midnightblue" d="M374.7,-224.497C439.073,-207.541 588.23,-168.24 724.386,-132.27"/>
<polygon fill="midnightblue" stroke="midnightblue" points="725.391,-135.625 734.166,-129.687 723.603,-128.857 725.391,-135.625"/>
</g>
<!-- Node20 -->
<g id="node20" class="node"><title>Node20</title>
<polygon fill="none" stroke="#bfbfbf" points="290.416,-168.5 290.416,-187.5 328.416,-187.5 328.416,-168.5 290.416,-168.5"/>
<text text-anchor="middle" x="309.416" y="-175.5" font-family="Helvetica,sans-Serif" font-size="10.00">tcl.h</text>
</g>
<!-- Node2&#45;&gt;Node20 -->
<g id="edge23" class="edge"><title>Node2&#45;&gt;Node20</title>
<path fill="none" stroke="midnightblue" d="M336.967,-224.083C332.402,-216.613 325.748,-205.724 320.123,-196.52"/>
<polygon fill="midnightblue" stroke="midnightblue" points="322.965,-194.459 314.764,-187.751 316.992,-198.109 322.965,-194.459"/>
</g>
<!-- Node4 -->
<g id="node4" class="node"><title>Node4</title>
<polygon fill="none" stroke="#bfbfbf" points="547.916,-112.5 547.916,-131.5 594.916,-131.5 594.916,-112.5 547.916,-112.5"/>
<text text-anchor="middle" x="571.416" y="-119.5" font-family="Helvetica,sans-Serif" font-size="10.00">cmath</text>
</g>
<!-- Node3&#45;&gt;Node4 -->
<g id="edge3" class="edge"><title>Node3&#45;&gt;Node4</title>
<path fill="none" stroke="midnightblue" d="M406.032,-168.799C441.482,-158.982 500.699,-142.583 537.823,-132.303"/>
<polygon fill="midnightblue" stroke="midnightblue" points="538.966,-135.618 547.67,-129.576 537.098,-128.872 538.966,-135.618"/>
</g>
<!-- Node5 -->
<g id="node5" class="node"><title>Node5</title>
<polygon fill="none" stroke="#bfbfbf" points="21.416,-112.5 21.416,-131.5 67.416,-131.5 67.416,-112.5 21.416,-112.5"/>
<text text-anchor="middle" x="44.416" y="-119.5" font-family="Helvetica,sans-Serif" font-size="10.00">cstdio</text>
</g>
<!-- Node3&#45;&gt;Node5 -->
<g id="edge4" class="edge"><title>Node3&#45;&gt;Node5</title>
<path fill="none" stroke="midnightblue" d="M346.663,-169.844C343.548,-169.182 340.423,-168.553 337.416,-168 225.399,-147.393 192.817,-155.433 77.6552,-132.011"/>
<polygon fill="midnightblue" stroke="midnightblue" points="78.2453,-128.559 67.7434,-129.96 76.8266,-135.414 78.2453,-128.559"/>
</g>
<!-- Node6 -->
<g id="node6" class="node"><title>Node6</title>
<polygon fill="none" stroke="#bfbfbf" points="85.916,-112.5 85.916,-131.5 134.916,-131.5 134.916,-112.5 85.916,-112.5"/>
<text text-anchor="middle" x="110.416" y="-119.5" font-family="Helvetica,sans-Serif" font-size="10.00">cstdlib</text>
</g>
<!-- Node3&#45;&gt;Node6 -->
<g id="edge5" class="edge"><title>Node3&#45;&gt;Node6</title>
<path fill="none" stroke="midnightblue" d="M346.631,-170.005C343.523,-169.312 340.408,-168.631 337.416,-168 254.176,-150.432 232.656,-149.568 149.416,-132 147.971,-131.695 146.498,-131.379 145.01,-131.055"/>
<polygon fill="midnightblue" stroke="midnightblue" points="145.665,-127.615 135.143,-128.854 144.14,-134.447 145.665,-127.615"/>
</g>
<!-- Node3&#45;&gt;Node7 -->
<g id="edge6" class="edge"><title>Node3&#45;&gt;Node7</title>
<path fill="none" stroke="midnightblue" d="M406.041,-174.496C464.889,-169.241 600.793,-155.706 724.249,-132.001"/>
<polygon fill="midnightblue" stroke="midnightblue" points="725.104,-135.401 734.25,-130.053 723.765,-128.53 725.104,-135.401"/>
</g>
<!-- Node3&#45;&gt;Node8 -->
<g id="edge7" class="edge"><title>Node3&#45;&gt;Node8</title>
<path fill="none" stroke="midnightblue" d="M346.558,-170.105C292.19,-157.545 182.578,-132.204 182.416,-132 169.442,-115.672 187.678,-95.4429 204.246,-81.9293"/>
<polygon fill="midnightblue" stroke="midnightblue" points="206.781,-84.3956 212.583,-75.5308 202.519,-78.8424 206.781,-84.3956"/>
</g>
<!-- Node12 -->
<g id="node12" class="node"><title>Node12</title>
<g id="a_node12"><a xlink:href="debug_8hpp.html" target="_top" xlink:title="This file controls debug facilities. ">
<polygon fill="none" stroke="black" points="191.416,-112.5 191.416,-131.5 259.416,-131.5 259.416,-112.5 191.416,-112.5"/>
<text text-anchor="middle" x="225.416" y="-119.5" font-family="Helvetica,sans-Serif" font-size="10.00">debug.hpp</text>
</a>
</g>
</g>
<!-- Node3&#45;&gt;Node12 -->
<g id="edge11" class="edge"><title>Node3&#45;&gt;Node12</title>
<path fill="none" stroke="midnightblue" d="M352.49,-168.444C327.197,-159.399 287.114,-145.064 258.736,-134.916"/>
<polygon fill="midnightblue" stroke="midnightblue" points="259.825,-131.588 249.23,-131.516 257.468,-138.179 259.825,-131.588"/>
</g>
<!-- Node13 -->
<g id="node13" class="node"><title>Node13</title>
<g id="a_node13"><a xlink:href="lees__edwards_8hpp.html" target="_top" xlink:title="lees_edwards.hpp">
<polygon fill="none" stroke="black" points="277.416,-112.5 277.416,-131.5 381.416,-131.5 381.416,-112.5 277.416,-112.5"/>
<text text-anchor="middle" x="329.416" y="-119.5" font-family="Helvetica,sans-Serif" font-size="10.00">lees_edwards.hpp</text>
</a>
</g>
</g>
<!-- Node3&#45;&gt;Node13 -->
<g id="edge13" class="edge"><title>Node3&#45;&gt;Node13</title>
<path fill="none" stroke="midnightblue" d="M368.655,-168.083C361.879,-160.298 351.873,-148.801 343.661,-139.367"/>
<polygon fill="midnightblue" stroke="midnightblue" points="346.238,-136.996 337.033,-131.751 340.958,-141.592 346.238,-136.996"/>
</g>
<!-- Node14 -->
<g id="node14" class="node"><title>Node14</title>
<g id="a_node14"><a xlink:href="errorhandling_8hpp.html" target="_top" xlink:title="This file contains the errorhandling code for severe errors, like a broken bond or illegal parameter ...">
<polygon fill="none" stroke="black" points="612.916,-112.5 612.916,-131.5 715.916,-131.5 715.916,-112.5 612.916,-112.5"/>
<text text-anchor="middle" x="664.416" y="-119.5" font-family="Helvetica,sans-Serif" font-size="10.00">errorhandling.hpp</text>
</a>
</g>
</g>
<!-- Node3&#45;&gt;Node14 -->
<g id="edge15" class="edge"><title>Node3&#45;&gt;Node14</title>
<path fill="none" stroke="midnightblue" d="M406.152,-171.424C453.839,-162.483 548.183,-144.794 608.684,-133.45"/>
<polygon fill="midnightblue" stroke="midnightblue" points="609.645,-136.831 618.829,-131.548 608.355,-129.951 609.645,-136.831"/>
</g>
<!-- Node18 -->
<g id="node18" class="node"><title>Node18</title>
<polygon fill="none" stroke="#bfbfbf" points="399.916,-112.5 399.916,-131.5 446.916,-131.5 446.916,-112.5 399.916,-112.5"/>
<text text-anchor="middle" x="423.416" y="-119.5" font-family="Helvetica,sans-Serif" font-size="10.00">vector</text>
</g>
<!-- Node3&#45;&gt;Node18 -->
<g id="edge20" class="edge"><title>Node3&#45;&gt;Node18</title>
<path fill="none" stroke="midnightblue" d="M384.177,-168.083C390.953,-160.298 400.959,-148.801 409.171,-139.367"/>
<polygon fill="midnightblue" stroke="midnightblue" points="411.874,-141.592 415.799,-131.751 406.594,-136.996 411.874,-141.592"/>
</g>
<!-- Node19 -->
<g id="node19" class="node"><title>Node19</title>
<polygon fill="none" stroke="#bfbfbf" points="464.916,-112.5 464.916,-131.5 529.916,-131.5 529.916,-112.5 464.916,-112.5"/>
<text text-anchor="middle" x="497.416" y="-119.5" font-family="Helvetica,sans-Serif" font-size="10.00">exception</text>
</g>
<!-- Node3&#45;&gt;Node19 -->
<g id="edge21" class="edge"><title>Node3&#45;&gt;Node19</title>
<path fill="none" stroke="midnightblue" d="M395.589,-168.444C415.325,-159.636 446.301,-145.812 468.909,-135.722"/>
<polygon fill="midnightblue" stroke="midnightblue" points="470.627,-138.788 478.333,-131.516 467.775,-132.396 470.627,-138.788"/>
</g>
<!-- Node9 -->
<g id="node9" class="node"><title>Node9</title>
<g id="a_node9"><a xlink:href="acconfig_8hpp.html" target="_top" xlink:title="acconfig.hpp">
<polygon fill="none" stroke="black" points="75.416,-0.5 75.416,-19.5 153.416,-19.5 153.416,-0.5 75.416,-0.5"/>
<text text-anchor="middle" x="114.416" y="-7.5" font-family="Helvetica,sans-Serif" font-size="10.00">acconfig.hpp</text>
</a>
</g>
</g>
<!-- Node8&#45;&gt;Node9 -->
<g id="edge8" class="edge"><title>Node8&#45;&gt;Node9</title>
<path fill="none" stroke="midnightblue" d="M207.582,-56.324C189.7,-47.6247 161.941,-34.1202 141.37,-24.113"/>
<polygon fill="midnightblue" stroke="midnightblue" points="142.729,-20.8819 132.206,-19.6545 139.667,-27.1765 142.729,-20.8819"/>
</g>
<!-- Node10 -->
<g id="node10" class="node"><title>Node10</title>
<g id="a_node10"><a xlink:href="myconfig-final_8hpp.html" target="_top" xlink:title="myconfig&#45;final.hpp">
<polygon fill="none" stroke="black" points="171.916,-0.5 171.916,-19.5 278.916,-19.5 278.916,-0.5 171.916,-0.5"/>
<text text-anchor="middle" x="225.416" y="-7.5" font-family="Helvetica,sans-Serif" font-size="10.00">myconfig&#45;final.hpp</text>
</a>
</g>
</g>
<!-- Node8&#45;&gt;Node10 -->
<g id="edge9" class="edge"><title>Node8&#45;&gt;Node10</title>
<path fill="none" stroke="midnightblue" d="M225.416,-56.083C225.416,-49.0059 225.416,-38.8611 225.416,-29.9865"/>
<polygon fill="midnightblue" stroke="midnightblue" points="228.916,-29.751 225.416,-19.7511 221.916,-29.7511 228.916,-29.751"/>
</g>
<!-- Node11 -->
<g id="node11" class="node"><title>Node11</title>
<g id="a_node11"><a xlink:href="config-features_8hpp.html" target="_top" xlink:title="config&#45;features.hpp">
<polygon fill="none" stroke="black" points="296.916,-0.5 296.916,-19.5 407.916,-19.5 407.916,-0.5 296.916,-0.5"/>
<text text-anchor="middle" x="352.416" y="-7.5" font-family="Helvetica,sans-Serif" font-size="10.00">config&#45;features.hpp</text>
</a>
</g>
</g>
<!-- Node8&#45;&gt;Node11 -->
<g id="edge10" class="edge"><title>Node8&#45;&gt;Node11</title>
<path fill="none" stroke="midnightblue" d="M245.54,-56.4435C266.44,-47.5566 299.351,-33.5632 323.132,-23.4514"/>
<polygon fill="midnightblue" stroke="midnightblue" points="324.553,-26.6504 332.387,-19.5164 321.814,-20.2085 324.553,-26.6504"/>
</g>
<!-- Node12&#45;&gt;Node8 -->
<g id="edge12" class="edge"><title>Node12&#45;&gt;Node8</title>
<path fill="none" stroke="midnightblue" d="M225.416,-112.083C225.416,-105.006 225.416,-94.8611 225.416,-85.9865"/>
<polygon fill="midnightblue" stroke="midnightblue" points="228.916,-85.751 225.416,-75.7511 221.916,-85.7511 228.916,-85.751"/>
</g>
<!-- Node13&#45;&gt;Node8 -->
<g id="edge14" class="edge"><title>Node13&#45;&gt;Node8</title>
<path fill="none" stroke="midnightblue" d="M312.707,-112.324C296.104,-103.703 270.414,-90.3643 251.195,-80.3855"/>
<polygon fill="midnightblue" stroke="midnightblue" points="252.572,-77.1565 242.084,-75.6545 249.346,-83.3689 252.572,-77.1565"/>
</g>
<!-- Node14&#45;&gt;Node8 -->
<g id="edge16" class="edge"><title>Node14&#45;&gt;Node8</title>
<path fill="none" stroke="midnightblue" d="M612.846,-113.288C609.656,-112.843 606.493,-112.41 603.416,-112 482.689,-95.911 339.89,-79.6661 269.361,-71.8275"/>
<polygon fill="midnightblue" stroke="midnightblue" points="269.408,-68.3113 259.084,-70.6879 268.637,-75.2687 269.408,-68.3113"/>
</g>
<!-- Node15 -->
<g id="node15" class="node"><title>Node15</title>
<polygon fill="none" stroke="#bfbfbf" points="698.416,-56.5 698.416,-75.5 742.416,-75.5 742.416,-56.5 698.416,-56.5"/>
<text text-anchor="middle" x="720.416" y="-63.5" font-family="Helvetica,sans-Serif" font-size="10.00">string</text>
</g>
<!-- Node14&#45;&gt;Node15 -->
<g id="edge17" class="edge"><title>Node14&#45;&gt;Node15</title>
<path fill="none" stroke="midnightblue" d="M673.413,-112.324C681.61,-104.42 693.922,-92.5482 703.888,-82.9377"/>
<polygon fill="midnightblue" stroke="midnightblue" points="706.486,-85.2947 711.255,-75.8339 701.627,-80.2558 706.486,-85.2947"/>
</g>
<!-- Node16 -->
<g id="node16" class="node"><title>Node16</title>
<polygon fill="none" stroke="#bfbfbf" points="574.416,-56.5 574.416,-75.5 630.416,-75.5 630.416,-56.5 574.416,-56.5"/>
<text text-anchor="middle" x="602.416" y="-63.5" font-family="Helvetica,sans-Serif" font-size="10.00">sstream</text>
</g>
<!-- Node14&#45;&gt;Node16 -->
<g id="edge18" class="edge"><title>Node14&#45;&gt;Node16</title>
<path fill="none" stroke="midnightblue" d="M654.455,-112.324C645.289,-104.341 631.479,-92.3128 620.388,-82.6529"/>
<polygon fill="midnightblue" stroke="midnightblue" points="622.398,-79.7624 612.559,-75.8339 617.801,-85.041 622.398,-79.7624"/>
</g>
<!-- Node17 -->
<g id="node17" class="node"><title>Node17</title>
<polygon fill="none" stroke="#bfbfbf" points="648.416,-56.5 648.416,-75.5 680.416,-75.5 680.416,-56.5 648.416,-56.5"/>
<text text-anchor="middle" x="664.416" y="-63.5" font-family="Helvetica,sans-Serif" font-size="10.00">list</text>
</g>
<!-- Node14&#45;&gt;Node17 -->
<g id="edge19" class="edge"><title>Node14&#45;&gt;Node17</title>
<path fill="none" stroke="midnightblue" d="M664.416,-112.083C664.416,-105.006 664.416,-94.8611 664.416,-85.9865"/>
<polygon fill="midnightblue" stroke="midnightblue" points="667.916,-85.751 664.416,-75.7511 660.916,-85.7511 667.916,-85.751"/>
</g>
</g>
</svg>
