<?xml version="1.0" encoding="UTF-8" standalone="no"?>
<!DOCTYPE svg PUBLIC "-//W3C//DTD SVG 1.1//EN"
 "http://www.w3.org/Graphics/SVG/1.1/DTD/svg11.dtd">
<!-- Generated by graphviz version 2.38.0 (20140413.2041)
 -->
<!-- Title: external_potential.cpp Pages: 1 -->
<!--zoomable 532 -->
<svg id="main" version="1.1" xmlns="http://www.w3.org/2000/svg" xmlns:xlink="http://www.w3.org/1999/xlink" xml:space="preserve" onload="init(evt)">
<style type="text/css"><![CDATA[
.edge:hover path { stroke: red; }
.edge:hover polygon { stroke: red; fill: red; }
]]></style>
<script type="text/javascript"><![CDATA[
var edges = document.getElementsByTagName('g');
if (edges && edges.length) {
  for (var i=0;i<edges.length;i++) {
    if (edges[i].id.substr(0,4)=='edge') {
      edges[i].setAttribute('class','edge');
    }
  }
}
]]></script>
        <defs>
                <circle id="rim" cx="0" cy="0" r="7"/>
                <circle id="rim2" cx="0" cy="0" r="3.5"/>
                <g id="zoomPlus">
                        <use xlink:href="#rim" fill="#404040">
                                <set attributeName="fill" to="#808080" begin="zoomplus.mouseover" end="zoomplus.mouseout"/>
                        </use>
                        <path d="M-4,0h8M0,-4v8" fill="none" stroke="white" stroke-width="1.5" pointer-events="none"/>
                </g>
                <g id="zoomMin">
                        <use xlink:href="#rim" fill="#404040">
                                <set attributeName="fill" to="#808080" begin="zoomminus.mouseover" end="zoomminus.mouseout"/>
                        </use>
                        <path d="M-4,0h8" fill="none" stroke="white" stroke-width="1.5" pointer-events="none"/>
                </g>
                <g id="dirArrow">
                        <path fill="none" stroke="white" stroke-width="1.5" d="M0,-3.0v7 M-2.5,-0.5L0,-3.0L2.5,-0.5"/>
                </g>
               <g id="resetDef">
                       <use xlink:href="#rim2" fill="#404040">
                               <set attributeName="fill" to="#808080" begin="reset.mouseover" end="reset.mouseout"/>
                       </use>
               </g>
        </defs>

<script type="text/javascript">
var viewWidth = 1026;
var viewHeight = 532;
var sectionId = 'dynsection-0';
</script>
<script xlink:href="svgpan.js"/>
<svg id="graph" class="graph">
<g id="viewport">
<title>external_potential.cpp</title>
<!-- Node1 -->
<g id="node1" class="node"><title>Node1</title>
<polygon fill="#bfbfbf" stroke="black" points="478,-504.5 478,-523.5 604,-523.5 604,-504.5 478,-504.5"/>
<text text-anchor="middle" x="541" y="-511.5" font-family="Helvetica,sans-Serif" font-size="10.00">external_potential.cpp</text>
</g>
<!-- Node2 -->
<g id="node2" class="node"><title>Node2</title>
<g id="a_node2"><a xlink:href="external__potential_8hpp.html" target="_top" xlink:title="external_potential.hpp">
<polygon fill="none" stroke="black" points="431.5,-448.5 431.5,-467.5 558.5,-467.5 558.5,-448.5 431.5,-448.5"/>
<text text-anchor="middle" x="495" y="-455.5" font-family="Helvetica,sans-Serif" font-size="10.00">external_potential.hpp</text>
</a>
</g>
</g>
<!-- Node1&#45;&gt;Node2 -->
<g id="edge1" class="edge"><title>Node1&#45;&gt;Node2</title>
<path fill="none" stroke="midnightblue" d="M533.404,-504.083C526.773,-496.298 516.979,-484.801 508.942,-475.367"/>
<polygon fill="midnightblue" stroke="midnightblue" points="511.604,-473.094 502.455,-467.751 506.275,-477.633 511.604,-473.094"/>
</g>
<!-- Node3 -->
<g id="node3" class="node"><title>Node3</title>
<g id="a_node3"><a xlink:href="lattice_8hpp.html" target="_top" xlink:title="Lattice class definition Contains the lattice layout and pointers to the data fields. ">
<polygon fill="none" stroke="black" points="539,-392.5 539,-411.5 607,-411.5 607,-392.5 539,-392.5"/>
<text text-anchor="middle" x="573" y="-399.5" font-family="Helvetica,sans-Serif" font-size="10.00">lattice.hpp</text>
</a>
</g>
</g>
<!-- Node1&#45;&gt;Node3 -->
<g id="edge41" class="edge"><title>Node1&#45;&gt;Node3</title>
<path fill="none" stroke="midnightblue" d="M547.613,-504.238C553.787,-495.543 562.678,-481.585 567,-468 571.783,-452.965 573.138,-435.06 573.379,-421.852"/>
<polygon fill="midnightblue" stroke="midnightblue" points="576.879,-421.639 573.363,-411.645 569.879,-421.651 576.879,-421.639"/>
</g>
<!-- Node23 -->
<g id="node23" class="node"><title>Node23</title>
<g id="a_node23"><a xlink:href="communication_8hpp.html" target="_top" xlink:title="This file contains the asynchronous MPI communication. ">
<polygon fill="none" stroke="black" points="346.5,-280.5 346.5,-299.5 459.5,-299.5 459.5,-280.5 346.5,-280.5"/>
<text text-anchor="middle" x="403" y="-287.5" font-family="Helvetica,sans-Serif" font-size="10.00">communication.hpp</text>
</a>
</g>
</g>
<!-- Node1&#45;&gt;Node23 -->
<g id="edge42" class="edge"><title>Node1&#45;&gt;Node23</title>
<path fill="none" stroke="midnightblue" d="M483.223,-504.455C460.702,-498.133 436.792,-487.135 422,-468 385.657,-420.989 393.187,-344.754 399.189,-309.708"/>
<polygon fill="midnightblue" stroke="midnightblue" points="402.699,-309.978 401.1,-299.504 395.819,-308.689 402.699,-309.978"/>
</g>
<!-- Node32 -->
<g id="node32" class="node"><title>Node32</title>
<g id="a_node32"><a xlink:href="integrate_8hpp.html" target="_top" xlink:title="Molecular dynamics integrator. ">
<polygon fill="none" stroke="black" points="615,-448.5 615,-467.5 697,-467.5 697,-448.5 615,-448.5"/>
<text text-anchor="middle" x="656" y="-455.5" font-family="Helvetica,sans-Serif" font-size="10.00">integrate.hpp</text>
</a>
</g>
</g>
<!-- Node1&#45;&gt;Node32 -->
<g id="edge43" class="edge"><title>Node1&#45;&gt;Node32</title>
<path fill="none" stroke="midnightblue" d="M559.222,-504.444C577.896,-495.675 607.156,-481.935 628.617,-471.858"/>
<polygon fill="midnightblue" stroke="midnightblue" points="630.299,-474.935 637.863,-467.516 627.324,-468.599 630.299,-474.935"/>
</g>
<!-- Node2&#45;&gt;Node3 -->
<g id="edge2" class="edge"><title>Node2&#45;&gt;Node3</title>
<path fill="none" stroke="midnightblue" d="M507.532,-448.324C519.586,-439.979 538.027,-427.212 552.269,-417.352"/>
<polygon fill="midnightblue" stroke="midnightblue" points="554.269,-420.224 560.499,-411.655 550.285,-414.469 554.269,-420.224"/>
</g>
<!-- Node4 -->
<g id="node4" class="node"><title>Node4</title>
<g id="a_node4"><a xlink:href="grid_8hpp.html" target="_top" xlink:title="Domain decomposition for parallel computing. ">
<polygon fill="none" stroke="black" points="575,-336.5 575,-355.5 631,-355.5 631,-336.5 575,-336.5"/>
<text text-anchor="middle" x="603" y="-343.5" font-family="Helvetica,sans-Serif" font-size="10.00">grid.hpp</text>
</a>
</g>
</g>
<!-- Node3&#45;&gt;Node4 -->
<g id="edge3" class="edge"><title>Node3&#45;&gt;Node4</title>
<path fill="none" stroke="midnightblue" d="M577.954,-392.083C582.104,-384.613 588.153,-373.724 593.267,-364.52"/>
<polygon fill="midnightblue" stroke="midnightblue" points="596.341,-366.192 598.138,-355.751 590.222,-362.793 596.341,-366.192"/>
</g>
<!-- Node24 -->
<g id="node24" class="node"><title>Node24</title>
<g id="a_node24"><a xlink:href="particle__data_8hpp.html" target="_top" xlink:title="For more information on particle_data, see particle_data.c. ">
<polygon fill="none" stroke="black" points="473.5,-224.5 473.5,-243.5 574.5,-243.5 574.5,-224.5 473.5,-224.5"/>
<text text-anchor="middle" x="524" y="-231.5" font-family="Helvetica,sans-Serif" font-size="10.00">particle_data.hpp</text>
</a>
</g>
</g>
<!-- Node3&#45;&gt;Node24 -->
<g id="edge40" class="edge"><title>Node3&#45;&gt;Node24</title>
<path fill="none" stroke="midnightblue" d="M570.366,-392.075C562.653,-365.945 540.002,-289.211 529.484,-253.577"/>
<polygon fill="midnightblue" stroke="midnightblue" points="532.717,-252.168 526.529,-243.568 526.003,-254.15 532.717,-252.168"/>
</g>
<!-- Node5 -->
<g id="node5" class="node"><title>Node5</title>
<g id="a_node5"><a xlink:href="utils_8hpp.html" target="_top" xlink:title="Small functions that are useful not only for one modul. ">
<polygon fill="none" stroke="black" points="494.5,-168.5 494.5,-187.5 553.5,-187.5 553.5,-168.5 494.5,-168.5"/>
<text text-anchor="middle" x="524" y="-175.5" font-family="Helvetica,sans-Serif" font-size="10.00">utils.hpp</text>
</a>
</g>
</g>
<!-- Node4&#45;&gt;Node5 -->
<g id="edge4" class="edge"><title>Node4&#45;&gt;Node5</title>
<path fill="none" stroke="midnightblue" d="M603.648,-336.351C604.801,-315.421 605.278,-261.039 583,-224 575.169,-210.981 562.031,-200.406 550.139,-192.788"/>
<polygon fill="midnightblue" stroke="midnightblue" points="551.772,-189.686 541.395,-187.546 548.172,-195.69 551.772,-189.686"/>
</g>
<!-- Node16 -->
<g id="node16" class="node"><title>Node16</title>
<g id="a_node16"><a xlink:href="errorhandling_8hpp.html" target="_top" xlink:title="This file contains the errorhandling code for severe errors, like a broken bond or illegal parameter ...">
<polygon fill="none" stroke="black" points="888.5,-112.5 888.5,-131.5 991.5,-131.5 991.5,-112.5 888.5,-112.5"/>
<text text-anchor="middle" x="940" y="-119.5" font-family="Helvetica,sans-Serif" font-size="10.00">errorhandling.hpp</text>
</a>
</g>
</g>
<!-- Node4&#45;&gt;Node16 -->
<g id="edge39" class="edge"><title>Node4&#45;&gt;Node16</title>
<path fill="none" stroke="midnightblue" d="M621.397,-336.406C639.288,-327.836 667.048,-313.968 690,-300 779.724,-245.395 879.81,-169.69 920.862,-137.946"/>
<polygon fill="midnightblue" stroke="midnightblue" points="923.164,-140.591 928.918,-131.695 918.872,-135.061 923.164,-140.591"/>
</g>
<!-- Node22 -->
<g id="node22" class="node"><title>Node22</title>
<polygon fill="none" stroke="#bfbfbf" points="631,-280.5 631,-299.5 681,-299.5 681,-280.5 631,-280.5"/>
<text text-anchor="middle" x="656" y="-287.5" font-family="Helvetica,sans-Serif" font-size="10.00">climits</text>
</g>
<!-- Node4&#45;&gt;Node22 -->
<g id="edge24" class="edge"><title>Node4&#45;&gt;Node22</title>
<path fill="none" stroke="midnightblue" d="M611.752,-336.083C619.47,-328.22 630.905,-316.569 640.217,-307.081"/>
<polygon fill="midnightblue" stroke="midnightblue" points="642.904,-309.34 647.411,-299.751 637.908,-304.436 642.904,-309.34"/>
</g>
<!-- Node4&#45;&gt;Node23 -->
<g id="edge25" class="edge"><title>Node4&#45;&gt;Node23</title>
<path fill="none" stroke="midnightblue" d="M574.769,-337.378C540.866,-328.224 483.701,-312.789 444.706,-302.261"/>
<polygon fill="midnightblue" stroke="midnightblue" points="445.284,-298.791 434.717,-299.564 443.459,-305.549 445.284,-298.791"/>
</g>
<!-- Node6 -->
<g id="node6" class="node"><title>Node6</title>
<polygon fill="none" stroke="#bfbfbf" points="500.5,-112.5 500.5,-131.5 547.5,-131.5 547.5,-112.5 500.5,-112.5"/>
<text text-anchor="middle" x="524" y="-119.5" font-family="Helvetica,sans-Serif" font-size="10.00">cmath</text>
</g>
<!-- Node5&#45;&gt;Node6 -->
<g id="edge5" class="edge"><title>Node5&#45;&gt;Node6</title>
<path fill="none" stroke="midnightblue" d="M524,-168.083C524,-161.006 524,-150.861 524,-141.986"/>
<polygon fill="midnightblue" stroke="midnightblue" points="527.5,-141.751 524,-131.751 520.5,-141.751 527.5,-141.751"/>
</g>
<!-- Node7 -->
<g id="node7" class="node"><title>Node7</title>
<polygon fill="none" stroke="#bfbfbf" points="566,-112.5 566,-131.5 612,-131.5 612,-112.5 566,-112.5"/>
<text text-anchor="middle" x="589" y="-119.5" font-family="Helvetica,sans-Serif" font-size="10.00">cstdio</text>
</g>
<!-- Node5&#45;&gt;Node7 -->
<g id="edge6" class="edge"><title>Node5&#45;&gt;Node7</title>
<path fill="none" stroke="midnightblue" d="M534.443,-168.324C544.146,-160.263 558.815,-148.077 570.5,-138.369"/>
<polygon fill="midnightblue" stroke="midnightblue" points="572.911,-140.916 578.367,-131.834 568.438,-135.532 572.911,-140.916"/>
</g>
<!-- Node8 -->
<g id="node8" class="node"><title>Node8</title>
<polygon fill="none" stroke="#bfbfbf" points="752.5,-112.5 752.5,-131.5 801.5,-131.5 801.5,-112.5 752.5,-112.5"/>
<text text-anchor="middle" x="777" y="-119.5" font-family="Helvetica,sans-Serif" font-size="10.00">cstdlib</text>
</g>
<!-- Node5&#45;&gt;Node8 -->
<g id="edge7" class="edge"><title>Node5&#45;&gt;Node8</title>
<path fill="none" stroke="midnightblue" d="M553.516,-171.481C593.876,-163.815 668.757,-149.173 742.268,-132.067"/>
<polygon fill="midnightblue" stroke="midnightblue" points="743.221,-135.438 752.158,-129.748 741.623,-128.623 743.221,-135.438"/>
</g>
<!-- Node9 -->
<g id="node9" class="node"><title>Node9</title>
<polygon fill="none" stroke="#bfbfbf" points="820,-112.5 820,-131.5 870,-131.5 870,-112.5 820,-112.5"/>
<text text-anchor="middle" x="845" y="-119.5" font-family="Helvetica,sans-Serif" font-size="10.00">cstring</text>
</g>
<!-- Node5&#45;&gt;Node9 -->
<g id="edge8" class="edge"><title>Node5&#45;&gt;Node9</title>
<path fill="none" stroke="midnightblue" d="M553.813,-173.265C606.007,-166.514 717.215,-151.183 810,-132 810.1,-131.979 810.2,-131.959 810.3,-131.938"/>
<polygon fill="midnightblue" stroke="midnightblue" points="810.852,-135.401 819.832,-129.778 809.306,-128.574 810.852,-135.401"/>
</g>
<!-- Node10 -->
<g id="node10" class="node"><title>Node10</title>
<g id="a_node10"><a xlink:href="config_8hpp.html" target="_top" xlink:title="This file contains the defaults for Espresso. ">
<polygon fill="none" stroke="black" points="331.5,-56.5 331.5,-75.5 398.5,-75.5 398.5,-56.5 331.5,-56.5"/>
<text text-anchor="middle" x="365" y="-63.5" font-family="Helvetica,sans-Serif" font-size="10.00">config.hpp</text>
</a>
</g>
</g>
<!-- Node5&#45;&gt;Node10 -->
<g id="edge9" class="edge"><title>Node5&#45;&gt;Node10</title>
<path fill="none" stroke="midnightblue" d="M494.098,-174.81C443.219,-170.394 343.238,-158.49 322,-132 308.955,-115.729 327.206,-95.4882 343.796,-81.9563"/>
<polygon fill="midnightblue" stroke="midnightblue" points="346.344,-84.413 352.146,-75.548 342.082,-78.8599 346.344,-84.413"/>
</g>
<!-- Node14 -->
<g id="node14" class="node"><title>Node14</title>
<g id="a_node14"><a xlink:href="debug_8hpp.html" target="_top" xlink:title="This file controls debug facilities. ">
<polygon fill="none" stroke="black" points="331,-112.5 331,-131.5 399,-131.5 399,-112.5 331,-112.5"/>
<text text-anchor="middle" x="365" y="-119.5" font-family="Helvetica,sans-Serif" font-size="10.00">debug.hpp</text>
</a>
</g>
</g>
<!-- Node5&#45;&gt;Node14 -->
<g id="edge13" class="edge"><title>Node5&#45;&gt;Node14</title>
<path fill="none" stroke="midnightblue" d="M498.806,-168.444C472.057,-159.359 429.597,-144.939 399.695,-134.783"/>
<polygon fill="midnightblue" stroke="midnightblue" points="400.671,-131.418 390.076,-131.516 398.419,-138.046 400.671,-131.418"/>
</g>
<!-- Node15 -->
<g id="node15" class="node"><title>Node15</title>
<g id="a_node15"><a xlink:href="lees__edwards_8hpp.html" target="_top" xlink:title="lees_edwards.hpp">
<polygon fill="none" stroke="black" points="630,-112.5 630,-131.5 734,-131.5 734,-112.5 630,-112.5"/>
<text text-anchor="middle" x="682" y="-119.5" font-family="Helvetica,sans-Serif" font-size="10.00">lees_edwards.hpp</text>
</a>
</g>
</g>
<!-- Node5&#45;&gt;Node15 -->
<g id="edge15" class="edge"><title>Node5&#45;&gt;Node15</title>
<path fill="none" stroke="midnightblue" d="M549.036,-168.444C575.616,-159.359 617.809,-144.939 647.523,-134.783"/>
<polygon fill="midnightblue" stroke="midnightblue" points="648.751,-138.062 657.082,-131.516 646.487,-131.439 648.751,-138.062"/>
</g>
<!-- Node5&#45;&gt;Node16 -->
<g id="edge17" class="edge"><title>Node5&#45;&gt;Node16</title>
<path fill="none" stroke="midnightblue" d="M553.949,-173.413C613.539,-166.23 751.434,-149.386 878.517,-132.041"/>
<polygon fill="midnightblue" stroke="midnightblue" points="878.993,-135.509 888.426,-130.685 878.044,-128.573 878.993,-135.509"/>
</g>
<!-- Node20 -->
<g id="node20" class="node"><title>Node20</title>
<polygon fill="none" stroke="#bfbfbf" points="227.5,-112.5 227.5,-131.5 274.5,-131.5 274.5,-112.5 227.5,-112.5"/>
<text text-anchor="middle" x="251" y="-119.5" font-family="Helvetica,sans-Serif" font-size="10.00">vector</text>
</g>
<!-- Node5&#45;&gt;Node20 -->
<g id="edge22" class="edge"><title>Node5&#45;&gt;Node20</title>
<path fill="none" stroke="midnightblue" d="M494.239,-171.728C449.554,-163.717 362.522,-147.738 289,-132 287.55,-131.69 286.07,-131.366 284.576,-131.035"/>
<polygon fill="midnightblue" stroke="midnightblue" points="285.209,-127.59 274.681,-128.776 283.651,-134.414 285.209,-127.59"/>
</g>
<!-- Node21 -->
<g id="node21" class="node"><title>Node21</title>
<polygon fill="none" stroke="#bfbfbf" points="417.5,-112.5 417.5,-131.5 482.5,-131.5 482.5,-112.5 417.5,-112.5"/>
<text text-anchor="middle" x="450" y="-119.5" font-family="Helvetica,sans-Serif" font-size="10.00">exception</text>
</g>
<!-- Node5&#45;&gt;Node21 -->
<g id="edge23" class="edge"><title>Node5&#45;&gt;Node21</title>
<path fill="none" stroke="midnightblue" d="M512.111,-168.324C500.85,-160.107 483.713,-147.602 470.291,-137.807"/>
<polygon fill="midnightblue" stroke="midnightblue" points="472.247,-134.901 462.106,-131.834 468.12,-140.556 472.247,-134.901"/>
</g>
<!-- Node11 -->
<g id="node11" class="node"><title>Node11</title>
<g id="a_node11"><a xlink:href="acconfig_8hpp.html" target="_top" xlink:title="acconfig.hpp">
<polygon fill="none" stroke="black" points="215,-0.5 215,-19.5 293,-19.5 293,-0.5 215,-0.5"/>
<text text-anchor="middle" x="254" y="-7.5" font-family="Helvetica,sans-Serif" font-size="10.00">acconfig.hpp</text>
</a>
</g>
</g>
<!-- Node10&#45;&gt;Node11 -->
<g id="edge10" class="edge"><title>Node10&#45;&gt;Node11</title>
<path fill="none" stroke="midnightblue" d="M347.166,-56.324C329.284,-47.6247 301.525,-34.1202 280.954,-24.113"/>
<polygon fill="midnightblue" stroke="midnightblue" points="282.313,-20.8819 271.79,-19.6545 279.251,-27.1765 282.313,-20.8819"/>
</g>
<!-- Node12 -->
<g id="node12" class="node"><title>Node12</title>
<g id="a_node12"><a xlink:href="myconfig-final_8hpp.html" target="_top" xlink:title="myconfig&#45;final.hpp">
<polygon fill="none" stroke="black" points="311.5,-0.5 311.5,-19.5 418.5,-19.5 418.5,-0.5 311.5,-0.5"/>
<text text-anchor="middle" x="365" y="-7.5" font-family="Helvetica,sans-Serif" font-size="10.00">myconfig&#45;final.hpp</text>
</a>
</g>
</g>
<!-- Node10&#45;&gt;Node12 -->
<g id="edge11" class="edge"><title>Node10&#45;&gt;Node12</title>
<path fill="none" stroke="midnightblue" d="M365,-56.083C365,-49.0059 365,-38.8611 365,-29.9865"/>
<polygon fill="midnightblue" stroke="midnightblue" points="368.5,-29.751 365,-19.7511 361.5,-29.7511 368.5,-29.751"/>
</g>
<!-- Node13 -->
<g id="node13" class="node"><title>Node13</title>
<g id="a_node13"><a xlink:href="config-features_8hpp.html" target="_top" xlink:title="config&#45;features.hpp">
<polygon fill="none" stroke="black" points="436.5,-0.5 436.5,-19.5 547.5,-19.5 547.5,-0.5 436.5,-0.5"/>
<text text-anchor="middle" x="492" y="-7.5" font-family="Helvetica,sans-Serif" font-size="10.00">config&#45;features.hpp</text>
</a>
</g>
</g>
<!-- Node10&#45;&gt;Node13 -->
<g id="edge12" class="edge"><title>Node10&#45;&gt;Node13</title>
<path fill="none" stroke="midnightblue" d="M385.124,-56.4435C406.024,-47.5566 438.935,-33.5632 462.716,-23.4514"/>
<polygon fill="midnightblue" stroke="midnightblue" points="464.138,-26.6504 471.971,-19.5164 461.398,-20.2085 464.138,-26.6504"/>
</g>
<!-- Node14&#45;&gt;Node10 -->
<g id="edge14" class="edge"><title>Node14&#45;&gt;Node10</title>
<path fill="none" stroke="midnightblue" d="M365,-112.083C365,-105.006 365,-94.8611 365,-85.9865"/>
<polygon fill="midnightblue" stroke="midnightblue" points="368.5,-85.751 365,-75.7511 361.5,-85.7511 368.5,-85.751"/>
</g>
<!-- Node15&#45;&gt;Node10 -->
<g id="edge16" class="edge"><title>Node15&#45;&gt;Node10</title>
<path fill="none" stroke="midnightblue" d="M631.77,-112.444C570.34,-101.979 467.346,-84.4344 408.933,-74.4838"/>
<polygon fill="midnightblue" stroke="midnightblue" points="409.357,-71.0058 398.912,-72.7767 408.182,-77.9064 409.357,-71.0058"/>
</g>
<!-- Node16&#45;&gt;Node10 -->
<g id="edge18" class="edge"><title>Node16&#45;&gt;Node10</title>
<path fill="none" stroke="midnightblue" d="M888.444,-113.174C885.251,-112.758 882.083,-112.362 879,-112 705.277,-91.5979 497.522,-76.1383 408.726,-69.9514"/>
<polygon fill="midnightblue" stroke="midnightblue" points="408.966,-66.4597 398.748,-69.2604 408.482,-73.443 408.966,-66.4597"/>
</g>
<!-- Node17 -->
<g id="node17" class="node"><title>Node17</title>
<polygon fill="none" stroke="#bfbfbf" points="974,-56.5 974,-75.5 1018,-75.5 1018,-56.5 974,-56.5"/>
<text text-anchor="middle" x="996" y="-63.5" font-family="Helvetica,sans-Serif" font-size="10.00">string</text>
</g>
<!-- Node16&#45;&gt;Node17 -->
<g id="edge19" class="edge"><title>Node16&#45;&gt;Node17</title>
<path fill="none" stroke="midnightblue" d="M948.997,-112.324C957.194,-104.42 969.506,-92.5482 979.472,-82.9377"/>
<polygon fill="midnightblue" stroke="midnightblue" points="982.07,-85.2947 986.839,-75.8339 977.211,-80.2558 982.07,-85.2947"/>
</g>
<!-- Node18 -->
<g id="node18" class="node"><title>Node18</title>
<polygon fill="none" stroke="#bfbfbf" points="850,-56.5 850,-75.5 906,-75.5 906,-56.5 850,-56.5"/>
<text text-anchor="middle" x="878" y="-63.5" font-family="Helvetica,sans-Serif" font-size="10.00">sstream</text>
</g>
<!-- Node16&#45;&gt;Node18 -->
<g id="edge20" class="edge"><title>Node16&#45;&gt;Node18</title>
<path fill="none" stroke="midnightblue" d="M930.039,-112.324C920.873,-104.341 907.063,-92.3128 895.972,-82.6529"/>
<polygon fill="midnightblue" stroke="midnightblue" points="897.982,-79.7624 888.143,-75.8339 893.385,-85.041 897.982,-79.7624"/>
</g>
<!-- Node19 -->
<g id="node19" class="node"><title>Node19</title>
<polygon fill="none" stroke="#bfbfbf" points="924,-56.5 924,-75.5 956,-75.5 956,-56.5 924,-56.5"/>
<text text-anchor="middle" x="940" y="-63.5" font-family="Helvetica,sans-Serif" font-size="10.00">list</text>
</g>
<!-- Node16&#45;&gt;Node19 -->
<g id="edge21" class="edge"><title>Node16&#45;&gt;Node19</title>
<path fill="none" stroke="midnightblue" d="M940,-112.083C940,-105.006 940,-94.8611 940,-85.9865"/>
<polygon fill="midnightblue" stroke="midnightblue" points="943.5,-85.751 940,-75.7511 936.5,-85.7511 943.5,-85.751"/>
</g>
<!-- Node23&#45;&gt;Node24 -->
<g id="edge26" class="edge"><title>Node23&#45;&gt;Node24</title>
<path fill="none" stroke="midnightblue" d="M422.173,-280.444C441.909,-271.636 472.885,-257.812 495.493,-247.722"/>
<polygon fill="midnightblue" stroke="midnightblue" points="497.211,-250.788 504.917,-243.516 494.359,-244.396 497.211,-250.788"/>
</g>
<!-- Node25 -->
<g id="node25" class="node"><title>Node25</title>
<g id="a_node25"><a xlink:href="random_8hpp.html" target="_top" xlink:title="A random generator. ">
<polygon fill="none" stroke="black" points="283.5,-224.5 283.5,-243.5 358.5,-243.5 358.5,-224.5 283.5,-224.5"/>
<text text-anchor="middle" x="321" y="-231.5" font-family="Helvetica,sans-Serif" font-size="10.00">random.hpp</text>
</a>
</g>
</g>
<!-- Node23&#45;&gt;Node25 -->
<g id="edge28" class="edge"><title>Node23&#45;&gt;Node25</title>
<path fill="none" stroke="midnightblue" d="M389.825,-280.324C377.153,-271.979 357.767,-259.212 342.794,-249.352"/>
<polygon fill="midnightblue" stroke="midnightblue" points="344.419,-246.231 334.142,-243.655 340.569,-252.078 344.419,-246.231"/>
</g>
<!-- Node26 -->
<g id="node26" class="node"><title>Node26</title>
<g id="a_node26"><a xlink:href="topology_8hpp.html" target="_top" xlink:title="This file contains functions for handling the system topology. ">
<polygon fill="none" stroke="black" points="376.5,-224.5 376.5,-243.5 455.5,-243.5 455.5,-224.5 376.5,-224.5"/>
<text text-anchor="middle" x="416" y="-231.5" font-family="Helvetica,sans-Serif" font-size="10.00">topology.hpp</text>
</a>
</g>
</g>
<!-- Node23&#45;&gt;Node26 -->
<g id="edge30" class="edge"><title>Node23&#45;&gt;Node26</title>
<path fill="none" stroke="midnightblue" d="M405.147,-280.083C406.869,-272.927 409.347,-262.635 411.5,-253.691"/>
<polygon fill="midnightblue" stroke="midnightblue" points="414.955,-254.293 413.893,-243.751 408.15,-252.654 414.955,-254.293"/>
</g>
<!-- Node27 -->
<g id="node27" class="node"><title>Node27</title>
<g id="a_node27"><a xlink:href="mpi_8h.html" target="_top" xlink:title="This is the MPIfake implementation. ">
<polygon fill="none" stroke="black" points="108,-224.5 108,-243.5 152,-243.5 152,-224.5 108,-224.5"/>
<text text-anchor="middle" x="130" y="-231.5" font-family="Helvetica,sans-Serif" font-size="10.00">mpi.h</text>
</a>
</g>
</g>
<!-- Node23&#45;&gt;Node27 -->
<g id="edge32" class="edge"><title>Node23&#45;&gt;Node27</title>
<path fill="none" stroke="midnightblue" d="M359.742,-280.444C304.834,-269.583 211.369,-251.095 162.287,-241.386"/>
<polygon fill="midnightblue" stroke="midnightblue" points="162.721,-237.905 152.232,-239.398 161.363,-244.772 162.721,-237.905"/>
</g>
<!-- Node31 -->
<g id="node31" class="node"><title>Node31</title>
<g id="a_node31"><a xlink:href="cuda__init_8hpp.html" target="_top" xlink:title="cuda_init.hpp">
<polygon fill="none" stroke="black" points="211,-168.5 211,-187.5 293,-187.5 293,-168.5 211,-168.5"/>
<text text-anchor="middle" x="252" y="-175.5" font-family="Helvetica,sans-Serif" font-size="10.00">cuda_init.hpp</text>
</a>
</g>
</g>
<!-- Node23&#45;&gt;Node31 -->
<g id="edge36" class="edge"><title>Node23&#45;&gt;Node31</title>
<path fill="none" stroke="midnightblue" d="M346.18,-280.719C321.18,-274.426 293.198,-263.377 274,-244 261.826,-231.713 256.385,-212.455 253.955,-198.086"/>
<polygon fill="midnightblue" stroke="midnightblue" points="257.378,-197.284 252.581,-187.837 250.441,-198.214 257.378,-197.284"/>
</g>
<!-- Node24&#45;&gt;Node5 -->
<g id="edge27" class="edge"><title>Node24&#45;&gt;Node5</title>
<path fill="none" stroke="midnightblue" d="M524,-224.083C524,-217.006 524,-206.861 524,-197.986"/>
<polygon fill="midnightblue" stroke="midnightblue" points="527.5,-197.751 524,-187.751 520.5,-197.751 527.5,-197.751"/>
</g>
<!-- Node25&#45;&gt;Node5 -->
<g id="edge29" class="edge"><title>Node25&#45;&gt;Node5</title>
<path fill="none" stroke="midnightblue" d="M353.166,-224.444C388.777,-214.971 446.201,-199.695 484.512,-189.504"/>
<polygon fill="midnightblue" stroke="midnightblue" points="485.532,-192.855 494.296,-186.902 483.732,-186.09 485.532,-192.855"/>
</g>
<!-- Node26&#45;&gt;Node5 -->
<g id="edge31" class="edge"><title>Node26&#45;&gt;Node5</title>
<path fill="none" stroke="midnightblue" d="M433.352,-224.324C450.672,-215.664 477.515,-202.242 497.502,-192.249"/>
<polygon fill="midnightblue" stroke="midnightblue" points="499.312,-195.257 506.691,-187.655 496.181,-188.996 499.312,-195.257"/>
</g>
<!-- Node28 -->
<g id="node28" class="node"><title>Node28</title>
<polygon fill="none" stroke="#bfbfbf" points="139.5,-168.5 139.5,-187.5 192.5,-187.5 192.5,-168.5 139.5,-168.5"/>
<text text-anchor="middle" x="166" y="-175.5" font-family="Helvetica,sans-Serif" font-size="10.00">string.h</text>
</g>
<!-- Node27&#45;&gt;Node28 -->
<g id="edge33" class="edge"><title>Node27&#45;&gt;Node28</title>
<path fill="none" stroke="midnightblue" d="M135.945,-224.083C140.977,-216.534 148.337,-205.495 154.513,-196.23"/>
<polygon fill="midnightblue" stroke="midnightblue" points="157.531,-198.013 160.166,-187.751 151.707,-194.13 157.531,-198.013"/>
</g>
<!-- Node29 -->
<g id="node29" class="node"><title>Node29</title>
<polygon fill="none" stroke="#bfbfbf" points="0,-168.5 0,-187.5 50,-187.5 50,-168.5 0,-168.5"/>
<text text-anchor="middle" x="25" y="-175.5" font-family="Helvetica,sans-Serif" font-size="10.00">stdio.h</text>
</g>
<!-- Node27&#45;&gt;Node29 -->
<g id="edge34" class="edge"><title>Node27&#45;&gt;Node29</title>
<path fill="none" stroke="midnightblue" d="M113.13,-224.324C96.2912,-215.664 70.1935,-202.242 50.762,-192.249"/>
<polygon fill="midnightblue" stroke="midnightblue" points="52.3218,-189.116 41.8282,-187.655 49.1204,-195.341 52.3218,-189.116"/>
</g>
<!-- Node30 -->
<g id="node30" class="node"><title>Node30</title>
<polygon fill="none" stroke="#bfbfbf" points="68.5,-168.5 68.5,-187.5 121.5,-187.5 121.5,-168.5 68.5,-168.5"/>
<text text-anchor="middle" x="95" y="-175.5" font-family="Helvetica,sans-Serif" font-size="10.00">stdlib.h</text>
</g>
<!-- Node27&#45;&gt;Node30 -->
<g id="edge35" class="edge"><title>Node27&#45;&gt;Node30</title>
<path fill="none" stroke="midnightblue" d="M124.22,-224.083C119.328,-216.534 112.173,-205.495 106.167,-196.23"/>
<polygon fill="midnightblue" stroke="midnightblue" points="109.048,-194.239 100.672,-187.751 103.174,-198.046 109.048,-194.239"/>
</g>
<!-- Node31&#45;&gt;Node10 -->
<g id="edge37" class="edge"><title>Node31&#45;&gt;Node10</title>
<path fill="none" stroke="midnightblue" d="M241.185,-168.088C226.715,-155.078 204.368,-130.43 218,-112 241.518,-80.2058 287.057,-70.1411 321.248,-67.3032"/>
<polygon fill="midnightblue" stroke="midnightblue" points="321.706,-70.7809 331.457,-66.6384 321.251,-63.7957 321.706,-70.7809"/>
</g>
<!-- Node31&#45;&gt;Node20 -->
<g id="edge38" class="edge"><title>Node31&#45;&gt;Node20</title>
<path fill="none" stroke="midnightblue" d="M251.835,-168.083C251.704,-161.006 251.516,-150.861 251.352,-141.986"/>
<polygon fill="midnightblue" stroke="midnightblue" points="254.847,-141.685 251.162,-131.751 247.848,-141.814 254.847,-141.685"/>
</g>
</g>
</svg>
        <g id="navigator" transform="translate(0 0)" fill="#404254">
                <rect fill="#f2f5e9" fill-opacity="0.5" stroke="#606060" stroke-width=".5" x="0" y="0" width="60" height="60"/>
                <use id="zoomplus" xlink:href="#zoomPlus" x="17" y="9" onmousedown="handleZoom(evt,'in')"/>
                <use id="zoomminus" xlink:href="#zoomMin" x="42" y="9" onmousedown="handleZoom(evt,'out')"/>
                <use id="reset" xlink:href="#resetDef" x="30" y="36" onmousedown="handleReset()"/>
                <g id="arrowUp" xlink:href="#dirArrow" transform="translate(30 24)" onmousedown="handlePan(0,-1)">
                  <use xlink:href="#rim" fill="#404040">
                        <set attributeName="fill" to="#808080" begin="arrowUp.mouseover" end="arrowUp.mouseout"/>
                  </use>
                  <path fill="none" stroke="white" stroke-width="1.5" d="M0,-3.0v7 M-2.5,-0.5L0,-3.0L2.5,-0.5"/>
                </g>
                <g id="arrowRight" xlink:href="#dirArrow" transform="rotate(90) translate(36 -43)" onmousedown="handlePan(1,0)">
                  <use xlink:href="#rim" fill="#404040">
                        <set attributeName="fill" to="#808080" begin="arrowRight.mouseover" end="arrowRight.mouseout"/>
                  </use>
                  <path fill="none" stroke="white" stroke-width="1.5" d="M0,-3.0v7 M-2.5,-0.5L0,-3.0L2.5,-0.5"/>
                </g>
                <g id="arrowDown" xlink:href="#dirArrow" transform="rotate(180) translate(-30 -48)" onmousedown="handlePan(0,1)">
                  <use xlink:href="#rim" fill="#404040">
                        <set attributeName="fill" to="#808080" begin="arrowDown.mouseover" end="arrowDown.mouseout"/>
                  </use>
                  <path fill="none" stroke="white" stroke-width="1.5" d="M0,-3.0v7 M-2.5,-0.5L0,-3.0L2.5,-0.5"/>
                </g>
                <g id="arrowLeft" xlink:href="#dirArrow" transform="rotate(270) translate(-36 17)" onmousedown="handlePan(-1,0)">
                  <use xlink:href="#rim" fill="#404040">
                        <set attributeName="fill" to="#808080" begin="arrowLeft.mouseover" end="arrowLeft.mouseout"/>
                  </use>
                  <path fill="none" stroke="white" stroke-width="1.5" d="M0,-3.0v7 M-2.5,-0.5L0,-3.0L2.5,-0.5"/>
                </g>
        </g>
        <svg viewBox="0 0 15 15" width="100%" height="30px" preserveAspectRatio="xMaxYMin meet">
         <g id="arrow_out" transform="scale(0.3 0.3)">
          <a xlink:href="external__potential_8cpp__incl_org.svg" target="_base">
           <rect id="button" ry="5" rx="5" y="6" x="6" height="38" width="38"
                fill="#f2f5e9" fill-opacity="0.5" stroke="#606060" stroke-width="1.0"/>
           <path id="arrow"
             d="M 11.500037,31.436501 C 11.940474,20.09759 22.043105,11.32322 32.158766,21.979434 L 37.068811,17.246167 C 37.068811,17.246167 37.088388,32 37.088388,32 L 22.160133,31.978069 C 22.160133,31.978069 26.997745,27.140456 26.997745,27.140456 C 18.528582,18.264221 13.291696,25.230495 11.500037,31.436501 z"
             style="fill:#404040;"/>
          </a>
         </g>
        </svg>
</svg>
