<?xml version="1.0" encoding="UTF-8" standalone="no"?>
<!DOCTYPE svg PUBLIC "-//W3C//DTD SVG 1.1//EN"
 "http://www.w3.org/Graphics/SVG/1.1/DTD/svg11.dtd">
<!-- Generated by graphviz version 2.38.0 (20140413.2041)
 -->
<!-- Title: external_potential_tcl.hpp Pages: 1 -->
<svg width="268pt" height="106pt"
 viewBox="0.00 0.00 267.50 106.00" xmlns="http://www.w3.org/2000/svg" xmlns:xlink="http://www.w3.org/1999/xlink">
<g id="graph0" class="graph" transform="scale(1 1) rotate(0) translate(4 102)">
<title>external_potential_tcl.hpp</title>
<!-- Node1 -->
<g id="node1" class="node"><title>Node1</title>
<polygon fill="#bfbfbf" stroke="black" points="69,-67.5 69,-97.5 175,-97.5 175,-67.5 69,-67.5"/>
<text text-anchor="start" x="77" y="-85.5" font-family="Helvetica,sans-Serif" font-size="10.00">external_potential</text>
<text text-anchor="middle" x="122" y="-74.5" font-family="Helvetica,sans-Serif" font-size="10.00">_tcl.hpp</text>
</g>
<!-- Node2 -->
<g id="node2" class="node"><title>Node2</title>
<g id="a_node2"><a xlink:href="external__potential__tcl_8cpp.html" target="_top" xlink:title="external_potential\l_tcl.cpp">
<polygon fill="none" stroke="black" points="0,-0.5 0,-30.5 106,-30.5 106,-0.5 0,-0.5"/>
<text text-anchor="start" x="8" y="-18.5" font-family="Helvetica,sans-Serif" font-size="10.00">external_potential</text>
<text text-anchor="middle" x="53" y="-7.5" font-family="Helvetica,sans-Serif" font-size="10.00">_tcl.cpp</text>
</a>
</g>
</g>
<!-- Node1&#45;&gt;Node2 -->
<g id="edge1" class="edge"><title>Node1&#45;&gt;Node2</title>
<path fill="none" stroke="midnightblue" d="M99.5076,-60.3115C89.1573,-50.5612 77.1596,-39.259 67.9428,-30.5765"/>
<polygon fill="midnightblue" stroke="midnightblue" points="97.3492,-63.0866 107.028,-67.396 102.149,-57.9914 97.3492,-63.0866"/>
</g>
<!-- Node3 -->
<g id="node3" class="node"><title>Node3</title>
<g id="a_node3"><a xlink:href="initialize__interpreter_8cpp.html" target="_top" xlink:title="initialize_interpreter.cpp">
<polygon fill="none" stroke="black" points="124.5,-6 124.5,-25 259.5,-25 259.5,-6 124.5,-6"/>
<text text-anchor="middle" x="192" y="-13" font-family="Helvetica,sans-Serif" font-size="10.00">initialize_interpreter.cpp</text>
</a>
</g>
</g>
<!-- Node1&#45;&gt;Node3 -->
<g id="edge2" class="edge"><title>Node1&#45;&gt;Node3</title>
<path fill="none" stroke="midnightblue" d="M144.793,-60.335C157.645,-48.401 173.007,-34.1359 182.637,-25.1945"/>
<polygon fill="midnightblue" stroke="midnightblue" points="142.135,-58.0266 137.189,-67.396 146.899,-63.1562 142.135,-58.0266"/>
</g>
</g>
</svg>
