<?xml version="1.0" encoding="UTF-8" standalone="no"?>
<!DOCTYPE svg PUBLIC "-//W3C//DTD SVG 1.1//EN"
 "http://www.w3.org/Graphics/SVG/1.1/DTD/svg11.dtd">
<!-- Generated by graphviz version 2.38.0 (20140413.2041)
 -->
<!-- Title: external_potential_tcl.cpp Pages: 1 -->
<!--zoomable 610 -->
<svg id="main" version="1.1" xmlns="http://www.w3.org/2000/svg" xmlns:xlink="http://www.w3.org/1999/xlink" xml:space="preserve" onload="init(evt)">
<style type="text/css"><![CDATA[
.edge:hover path { stroke: red; }
.edge:hover polygon { stroke: red; fill: red; }
]]></style>
<script type="text/javascript"><![CDATA[
var edges = document.getElementsByTagName('g');
if (edges && edges.length) {
  for (var i=0;i<edges.length;i++) {
    if (edges[i].id.substr(0,4)=='edge') {
      edges[i].setAttribute('class','edge');
    }
  }
}
]]></script>
        <defs>
                <circle id="rim" cx="0" cy="0" r="7"/>
                <circle id="rim2" cx="0" cy="0" r="3.5"/>
                <g id="zoomPlus">
                        <use xlink:href="#rim" fill="#404040">
                                <set attributeName="fill" to="#808080" begin="zoomplus.mouseover" end="zoomplus.mouseout"/>
                        </use>
                        <path d="M-4,0h8M0,-4v8" fill="none" stroke="white" stroke-width="1.5" pointer-events="none"/>
                </g>
                <g id="zoomMin">
                        <use xlink:href="#rim" fill="#404040">
                                <set attributeName="fill" to="#808080" begin="zoomminus.mouseover" end="zoomminus.mouseout"/>
                        </use>
                        <path d="M-4,0h8" fill="none" stroke="white" stroke-width="1.5" pointer-events="none"/>
                </g>
                <g id="dirArrow">
                        <path fill="none" stroke="white" stroke-width="1.5" d="M0,-3.0v7 M-2.5,-0.5L0,-3.0L2.5,-0.5"/>
                </g>
               <g id="resetDef">
                       <use xlink:href="#rim2" fill="#404040">
                               <set attributeName="fill" to="#808080" begin="reset.mouseover" end="reset.mouseout"/>
                       </use>
               </g>
        </defs>

<script type="text/javascript">
var viewWidth = 981;
var viewHeight = 610;
var sectionId = 'dynsection-0';
</script>
<script xlink:href="svgpan.js"/>
<svg id="graph" class="graph">
<g id="viewport">
<title>external_potential_tcl.cpp</title>
<!-- Node1 -->
<g id="node1" class="node"><title>Node1</title>
<polygon fill="#bfbfbf" stroke="black" points="130,-571.5 130,-601.5 236,-601.5 236,-571.5 130,-571.5"/>
<text text-anchor="start" x="138" y="-589.5" font-family="Helvetica,sans-Serif" font-size="10.00">external_potential</text>
<text text-anchor="middle" x="183" y="-578.5" font-family="Helvetica,sans-Serif" font-size="10.00">_tcl.cpp</text>
</g>
<!-- Node2 -->
<g id="node2" class="node"><title>Node2</title>
<g id="a_node2"><a xlink:href="external__potential__tcl_8hpp.html" target="_top" xlink:title="external_potential\l_tcl.hpp">
<polygon fill="none" stroke="black" points="130,-504.5 130,-534.5 236,-534.5 236,-504.5 130,-504.5"/>
<text text-anchor="start" x="138" y="-522.5" font-family="Helvetica,sans-Serif" font-size="10.00">external_potential</text>
<text text-anchor="middle" x="183" y="-511.5" font-family="Helvetica,sans-Serif" font-size="10.00">_tcl.hpp</text>
</a>
</g>
</g>
<!-- Node1&#45;&gt;Node2 -->
<g id="edge1" class="edge"><title>Node1&#45;&gt;Node2</title>
<path fill="none" stroke="midnightblue" d="M183,-571.396C183,-563.645 183,-553.812 183,-544.86"/>
<polygon fill="midnightblue" stroke="midnightblue" points="186.5,-544.576 183,-534.577 179.5,-544.577 186.5,-544.576"/>
</g>
<!-- Node3 -->
<g id="node3" class="node"><title>Node3</title>
<polygon fill="none" stroke="#bfbfbf" points="102,-392.5 102,-411.5 140,-411.5 140,-392.5 102,-392.5"/>
<text text-anchor="middle" x="121" y="-399.5" font-family="Helvetica,sans-Serif" font-size="10.00">tcl.h</text>
</g>
<!-- Node2&#45;&gt;Node3 -->
<g id="edge2" class="edge"><title>Node2&#45;&gt;Node3</title>
<path fill="none" stroke="midnightblue" d="M168.003,-504.276C158.766,-494.779 147.328,-481.579 140,-468 132.148,-453.45 127.189,-435.272 124.315,-421.841"/>
<polygon fill="midnightblue" stroke="midnightblue" points="127.718,-421.008 122.372,-411.861 120.847,-422.345 127.718,-421.008"/>
</g>
<!-- Node4 -->
<g id="node4" class="node"><title>Node4</title>
<g id="a_node4"><a xlink:href="parser_8hpp.html" target="_top" xlink:title="This file contains macros for parsing the parameters to the &#39;inter&#39; command. ">
<polygon fill="none" stroke="black" points="149,-448.5 149,-467.5 217,-467.5 217,-448.5 149,-448.5"/>
<text text-anchor="middle" x="183" y="-455.5" font-family="Helvetica,sans-Serif" font-size="10.00">parser.hpp</text>
</a>
</g>
</g>
<!-- Node2&#45;&gt;Node4 -->
<g id="edge3" class="edge"><title>Node2&#45;&gt;Node4</title>
<path fill="none" stroke="midnightblue" d="M183,-504.399C183,-496.466 183,-486.458 183,-477.858"/>
<polygon fill="midnightblue" stroke="midnightblue" points="186.5,-477.658 183,-467.658 179.5,-477.658 186.5,-477.658"/>
</g>
<!-- Node22 -->
<g id="node22" class="node"><title>Node22</title>
<g id="a_node22"><a xlink:href="external__potential_8hpp.html" target="_top" xlink:title="external_potential.hpp">
<polygon fill="none" stroke="black" points="251.5,-448.5 251.5,-467.5 378.5,-467.5 378.5,-448.5 251.5,-448.5"/>
<text text-anchor="middle" x="315" y="-455.5" font-family="Helvetica,sans-Serif" font-size="10.00">external_potential.hpp</text>
</a>
</g>
</g>
<!-- Node2&#45;&gt;Node22 -->
<g id="edge26" class="edge"><title>Node2&#45;&gt;Node22</title>
<path fill="none" stroke="midnightblue" d="M214.282,-504.399C236.232,-494.505 265.343,-481.383 286.621,-471.792"/>
<polygon fill="midnightblue" stroke="midnightblue" points="288.114,-474.958 295.793,-467.658 285.238,-468.576 288.114,-474.958"/>
</g>
<!-- Node4&#45;&gt;Node3 -->
<g id="edge25" class="edge"><title>Node4&#45;&gt;Node3</title>
<path fill="none" stroke="midnightblue" d="M173.039,-448.324C163.873,-440.341 150.063,-428.313 138.972,-418.653"/>
<polygon fill="midnightblue" stroke="midnightblue" points="140.982,-415.762 131.143,-411.834 136.385,-421.041 140.982,-415.762"/>
</g>
<!-- Node5 -->
<g id="node5" class="node"><title>Node5</title>
<g id="a_node5"><a xlink:href="utils_8hpp.html" target="_top" xlink:title="Small functions that are useful not only for one modul. ">
<polygon fill="none" stroke="black" points="333.5,-168.5 333.5,-187.5 392.5,-187.5 392.5,-168.5 333.5,-168.5"/>
<text text-anchor="middle" x="363" y="-175.5" font-family="Helvetica,sans-Serif" font-size="10.00">utils.hpp</text>
</a>
</g>
</g>
<!-- Node4&#45;&gt;Node5 -->
<g id="edge4" class="edge"><title>Node4&#45;&gt;Node5</title>
<path fill="none" stroke="midnightblue" d="M186.102,-448.289C192.38,-429.856 206,-385.435 206,-347 206,-347 206,-347 206,-289 206,-231.639 277.164,-201.655 323.669,-188.185"/>
<polygon fill="midnightblue" stroke="midnightblue" points="324.76,-191.515 333.47,-185.482 322.899,-184.767 324.76,-191.515"/>
</g>
<!-- Node9 -->
<g id="node9" class="node"><title>Node9</title>
<polygon fill="none" stroke="#bfbfbf" points="0,-112.5 0,-131.5 50,-131.5 50,-112.5 0,-112.5"/>
<text text-anchor="middle" x="25" y="-119.5" font-family="Helvetica,sans-Serif" font-size="10.00">cstring</text>
</g>
<!-- Node4&#45;&gt;Node9 -->
<g id="edge24" class="edge"><title>Node4&#45;&gt;Node9</title>
<path fill="none" stroke="midnightblue" d="M181.039,-448.496C176.973,-430.095 168,-385.162 168,-347 168,-347 168,-347 168,-233 168,-178.63 102.253,-147.418 59.9203,-132.957"/>
<polygon fill="midnightblue" stroke="midnightblue" points="60.8288,-129.571 50.2364,-129.798 58.6582,-136.226 60.8288,-129.571"/>
</g>
<!-- Node6 -->
<g id="node6" class="node"><title>Node6</title>
<polygon fill="none" stroke="#bfbfbf" points="529.5,-112.5 529.5,-131.5 576.5,-131.5 576.5,-112.5 529.5,-112.5"/>
<text text-anchor="middle" x="553" y="-119.5" font-family="Helvetica,sans-Serif" font-size="10.00">cmath</text>
</g>
<!-- Node5&#45;&gt;Node6 -->
<g id="edge5" class="edge"><title>Node5&#45;&gt;Node6</title>
<path fill="none" stroke="midnightblue" d="M392.688,-168.562C426.98,-158.816 483.279,-142.815 519.218,-132.601"/>
<polygon fill="midnightblue" stroke="midnightblue" points="520.563,-135.858 529.225,-129.757 518.649,-129.124 520.563,-135.858"/>
</g>
<!-- Node7 -->
<g id="node7" class="node"><title>Node7</title>
<polygon fill="none" stroke="#bfbfbf" points="190,-112.5 190,-131.5 236,-131.5 236,-112.5 190,-112.5"/>
<text text-anchor="middle" x="213" y="-119.5" font-family="Helvetica,sans-Serif" font-size="10.00">cstdio</text>
</g>
<!-- Node5&#45;&gt;Node7 -->
<g id="edge6" class="edge"><title>Node5&#45;&gt;Node7</title>
<path fill="none" stroke="midnightblue" d="M339.232,-168.444C313.959,-159.345 273.82,-144.895 245.603,-134.737"/>
<polygon fill="midnightblue" stroke="midnightblue" points="246.758,-131.433 236.164,-131.339 244.387,-138.019 246.758,-131.433"/>
</g>
<!-- Node8 -->
<g id="node8" class="node"><title>Node8</title>
<polygon fill="none" stroke="#bfbfbf" points="254.5,-112.5 254.5,-131.5 303.5,-131.5 303.5,-112.5 254.5,-112.5"/>
<text text-anchor="middle" x="279" y="-119.5" font-family="Helvetica,sans-Serif" font-size="10.00">cstdlib</text>
</g>
<!-- Node5&#45;&gt;Node8 -->
<g id="edge7" class="edge"><title>Node5&#45;&gt;Node8</title>
<path fill="none" stroke="midnightblue" d="M349.504,-168.324C336.4,-159.9 316.288,-146.971 300.893,-137.074"/>
<polygon fill="midnightblue" stroke="midnightblue" points="302.767,-134.118 292.463,-131.655 298.982,-140.006 302.767,-134.118"/>
</g>
<!-- Node5&#45;&gt;Node9 -->
<g id="edge8" class="edge"><title>Node5&#45;&gt;Node9</title>
<path fill="none" stroke="midnightblue" d="M333.462,-173.741C280.562,-167.665 166.026,-153.428 60.0726,-132.025"/>
<polygon fill="midnightblue" stroke="midnightblue" points="60.6755,-128.576 50.1767,-130 59.2718,-135.434 60.6755,-128.576"/>
</g>
<!-- Node10 -->
<g id="node10" class="node"><title>Node10</title>
<g id="a_node10"><a xlink:href="config_8hpp.html" target="_top" xlink:title="This file contains the defaults for Espresso. ">
<polygon fill="none" stroke="black" points="360.5,-56.5 360.5,-75.5 427.5,-75.5 427.5,-56.5 360.5,-56.5"/>
<text text-anchor="middle" x="394" y="-63.5" font-family="Helvetica,sans-Serif" font-size="10.00">config.hpp</text>
</a>
</g>
</g>
<!-- Node5&#45;&gt;Node10 -->
<g id="edge9" class="edge"><title>Node5&#45;&gt;Node10</title>
<path fill="none" stroke="midnightblue" d="M358.423,-168.284C352.368,-155.518 343.313,-131.172 351,-112 355.68,-100.328 364.991,-89.9687 373.756,-82.1405"/>
<polygon fill="midnightblue" stroke="midnightblue" points="376.052,-84.7832 381.503,-75.698 371.576,-79.4011 376.052,-84.7832"/>
</g>
<!-- Node14 -->
<g id="node14" class="node"><title>Node14</title>
<g id="a_node14"><a xlink:href="debug_8hpp.html" target="_top" xlink:title="This file controls debug facilities. ">
<polygon fill="none" stroke="black" points="360,-112.5 360,-131.5 428,-131.5 428,-112.5 360,-112.5"/>
<text text-anchor="middle" x="394" y="-119.5" font-family="Helvetica,sans-Serif" font-size="10.00">debug.hpp</text>
</a>
</g>
</g>
<!-- Node5&#45;&gt;Node14 -->
<g id="edge13" class="edge"><title>Node5&#45;&gt;Node14</title>
<path fill="none" stroke="midnightblue" d="M368.119,-168.083C372.408,-160.613 378.658,-149.724 383.942,-140.52"/>
<polygon fill="midnightblue" stroke="midnightblue" points="387.033,-142.166 388.976,-131.751 380.962,-138.681 387.033,-142.166"/>
</g>
<!-- Node15 -->
<g id="node15" class="node"><title>Node15</title>
<g id="a_node15"><a xlink:href="lees__edwards_8hpp.html" target="_top" xlink:title="lees_edwards.hpp">
<polygon fill="none" stroke="black" points="595,-112.5 595,-131.5 699,-131.5 699,-112.5 595,-112.5"/>
<text text-anchor="middle" x="647" y="-119.5" font-family="Helvetica,sans-Serif" font-size="10.00">lees_edwards.hpp</text>
</a>
</g>
</g>
<!-- Node5&#45;&gt;Node15 -->
<g id="edge15" class="edge"><title>Node5&#45;&gt;Node15</title>
<path fill="none" stroke="midnightblue" d="M392.589,-171.374C439.729,-162.411 532.617,-144.749 592.16,-133.427"/>
<polygon fill="midnightblue" stroke="midnightblue" points="592.974,-136.835 602.144,-131.529 591.667,-129.958 592.974,-136.835"/>
</g>
<!-- Node16 -->
<g id="node16" class="node"><title>Node16</title>
<g id="a_node16"><a xlink:href="errorhandling_8hpp.html" target="_top" xlink:title="This file contains the errorhandling code for severe errors, like a broken bond or illegal parameter ...">
<polygon fill="none" stroke="black" points="68.5,-112.5 68.5,-131.5 171.5,-131.5 171.5,-112.5 68.5,-112.5"/>
<text text-anchor="middle" x="120" y="-119.5" font-family="Helvetica,sans-Serif" font-size="10.00">errorhandling.hpp</text>
</a>
</g>
</g>
<!-- Node5&#45;&gt;Node16 -->
<g id="edge17" class="edge"><title>Node5&#45;&gt;Node16</title>
<path fill="none" stroke="midnightblue" d="M333.203,-170.379C292.061,-161.236 217.379,-144.64 168.229,-133.718"/>
<polygon fill="midnightblue" stroke="midnightblue" points="168.975,-130.298 158.454,-131.545 167.456,-137.131 168.975,-130.298"/>
</g>
<!-- Node20 -->
<g id="node20" class="node"><title>Node20</title>
<polygon fill="none" stroke="#bfbfbf" points="717.5,-112.5 717.5,-131.5 764.5,-131.5 764.5,-112.5 717.5,-112.5"/>
<text text-anchor="middle" x="741" y="-119.5" font-family="Helvetica,sans-Serif" font-size="10.00">vector</text>
</g>
<!-- Node5&#45;&gt;Node20 -->
<g id="edge22" class="edge"><title>Node5&#45;&gt;Node20</title>
<path fill="none" stroke="midnightblue" d="M392.759,-174.499C451.207,-169.291 585.202,-155.898 707.399,-131.857"/>
<polygon fill="midnightblue" stroke="midnightblue" points="708.178,-135.27 717.299,-129.88 706.808,-128.406 708.178,-135.27"/>
</g>
<!-- Node21 -->
<g id="node21" class="node"><title>Node21</title>
<polygon fill="none" stroke="#bfbfbf" points="446.5,-112.5 446.5,-131.5 511.5,-131.5 511.5,-112.5 446.5,-112.5"/>
<text text-anchor="middle" x="479" y="-119.5" font-family="Helvetica,sans-Serif" font-size="10.00">exception</text>
</g>
<!-- Node5&#45;&gt;Node21 -->
<g id="edge23" class="edge"><title>Node5&#45;&gt;Node21</title>
<path fill="none" stroke="midnightblue" d="M381.381,-168.444C400.216,-159.675 429.731,-145.935 451.379,-135.858"/>
<polygon fill="midnightblue" stroke="midnightblue" points="453.117,-138.91 460.705,-131.516 450.162,-132.564 453.117,-138.91"/>
</g>
<!-- Node11 -->
<g id="node11" class="node"><title>Node11</title>
<g id="a_node11"><a xlink:href="acconfig_8hpp.html" target="_top" xlink:title="acconfig.hpp">
<polygon fill="none" stroke="black" points="244,-0.5 244,-19.5 322,-19.5 322,-0.5 244,-0.5"/>
<text text-anchor="middle" x="283" y="-7.5" font-family="Helvetica,sans-Serif" font-size="10.00">acconfig.hpp</text>
</a>
</g>
</g>
<!-- Node10&#45;&gt;Node11 -->
<g id="edge10" class="edge"><title>Node10&#45;&gt;Node11</title>
<path fill="none" stroke="midnightblue" d="M376.166,-56.324C358.284,-47.6247 330.525,-34.1202 309.954,-24.113"/>
<polygon fill="midnightblue" stroke="midnightblue" points="311.313,-20.8819 300.79,-19.6545 308.251,-27.1765 311.313,-20.8819"/>
</g>
<!-- Node12 -->
<g id="node12" class="node"><title>Node12</title>
<g id="a_node12"><a xlink:href="myconfig-final_8hpp.html" target="_top" xlink:title="myconfig&#45;final.hpp">
<polygon fill="none" stroke="black" points="340.5,-0.5 340.5,-19.5 447.5,-19.5 447.5,-0.5 340.5,-0.5"/>
<text text-anchor="middle" x="394" y="-7.5" font-family="Helvetica,sans-Serif" font-size="10.00">myconfig&#45;final.hpp</text>
</a>
</g>
</g>
<!-- Node10&#45;&gt;Node12 -->
<g id="edge11" class="edge"><title>Node10&#45;&gt;Node12</title>
<path fill="none" stroke="midnightblue" d="M394,-56.083C394,-49.0059 394,-38.8611 394,-29.9865"/>
<polygon fill="midnightblue" stroke="midnightblue" points="397.5,-29.751 394,-19.7511 390.5,-29.7511 397.5,-29.751"/>
</g>
<!-- Node13 -->
<g id="node13" class="node"><title>Node13</title>
<g id="a_node13"><a xlink:href="config-features_8hpp.html" target="_top" xlink:title="config&#45;features.hpp">
<polygon fill="none" stroke="black" points="465.5,-0.5 465.5,-19.5 576.5,-19.5 576.5,-0.5 465.5,-0.5"/>
<text text-anchor="middle" x="521" y="-7.5" font-family="Helvetica,sans-Serif" font-size="10.00">config&#45;features.hpp</text>
</a>
</g>
</g>
<!-- Node10&#45;&gt;Node13 -->
<g id="edge12" class="edge"><title>Node10&#45;&gt;Node13</title>
<path fill="none" stroke="midnightblue" d="M414.124,-56.4435C435.024,-47.5566 467.935,-33.5632 491.716,-23.4514"/>
<polygon fill="midnightblue" stroke="midnightblue" points="493.138,-26.6504 500.971,-19.5164 490.398,-20.2085 493.138,-26.6504"/>
</g>
<!-- Node14&#45;&gt;Node10 -->
<g id="edge14" class="edge"><title>Node14&#45;&gt;Node10</title>
<path fill="none" stroke="midnightblue" d="M394,-112.083C394,-105.006 394,-94.8611 394,-85.9865"/>
<polygon fill="midnightblue" stroke="midnightblue" points="397.5,-85.751 394,-75.7511 390.5,-85.7511 397.5,-85.751"/>
</g>
<!-- Node15&#45;&gt;Node10 -->
<g id="edge16" class="edge"><title>Node15&#45;&gt;Node10</title>
<path fill="none" stroke="midnightblue" d="M606.911,-112.444C560.829,-102.608 485.441,-86.517 437.836,-76.3563"/>
<polygon fill="midnightblue" stroke="midnightblue" points="438.339,-72.8849 427.828,-74.2203 436.878,-79.7307 438.339,-72.8849"/>
</g>
<!-- Node16&#45;&gt;Node10 -->
<g id="edge18" class="edge"><title>Node16&#45;&gt;Node10</title>
<path fill="none" stroke="midnightblue" d="M163.416,-112.444C214.521,-102.372 298.906,-85.7412 350.183,-75.6354"/>
<polygon fill="midnightblue" stroke="midnightblue" points="351.154,-79.0115 360.289,-73.6439 349.8,-72.1436 351.154,-79.0115"/>
</g>
<!-- Node17 -->
<g id="node17" class="node"><title>Node17</title>
<polygon fill="none" stroke="#bfbfbf" points="154,-56.5 154,-75.5 198,-75.5 198,-56.5 154,-56.5"/>
<text text-anchor="middle" x="176" y="-63.5" font-family="Helvetica,sans-Serif" font-size="10.00">string</text>
</g>
<!-- Node16&#45;&gt;Node17 -->
<g id="edge19" class="edge"><title>Node16&#45;&gt;Node17</title>
<path fill="none" stroke="midnightblue" d="M128.997,-112.324C137.194,-104.42 149.506,-92.5482 159.472,-82.9377"/>
<polygon fill="midnightblue" stroke="midnightblue" points="162.07,-85.2947 166.839,-75.8339 157.211,-80.2558 162.07,-85.2947"/>
</g>
<!-- Node18 -->
<g id="node18" class="node"><title>Node18</title>
<polygon fill="none" stroke="#bfbfbf" points="30,-56.5 30,-75.5 86,-75.5 86,-56.5 30,-56.5"/>
<text text-anchor="middle" x="58" y="-63.5" font-family="Helvetica,sans-Serif" font-size="10.00">sstream</text>
</g>
<!-- Node16&#45;&gt;Node18 -->
<g id="edge20" class="edge"><title>Node16&#45;&gt;Node18</title>
<path fill="none" stroke="midnightblue" d="M110.039,-112.324C100.873,-104.341 87.0628,-92.3128 75.9718,-82.6529"/>
<polygon fill="midnightblue" stroke="midnightblue" points="77.9822,-79.7624 68.1426,-75.8339 73.3847,-85.041 77.9822,-79.7624"/>
</g>
<!-- Node19 -->
<g id="node19" class="node"><title>Node19</title>
<polygon fill="none" stroke="#bfbfbf" points="104,-56.5 104,-75.5 136,-75.5 136,-56.5 104,-56.5"/>
<text text-anchor="middle" x="120" y="-63.5" font-family="Helvetica,sans-Serif" font-size="10.00">list</text>
</g>
<!-- Node16&#45;&gt;Node19 -->
<g id="edge21" class="edge"><title>Node16&#45;&gt;Node19</title>
<path fill="none" stroke="midnightblue" d="M120,-112.083C120,-105.006 120,-94.8611 120,-85.9865"/>
<polygon fill="midnightblue" stroke="midnightblue" points="123.5,-85.751 120,-75.7511 116.5,-85.7511 123.5,-85.751"/>
</g>
<!-- Node23 -->
<g id="node23" class="node"><title>Node23</title>
<g id="a_node23"><a xlink:href="lattice_8hpp.html" target="_top" xlink:title="Lattice class definition Contains the lattice layout and pointers to the data fields. ">
<polygon fill="none" stroke="black" points="289,-392.5 289,-411.5 357,-411.5 357,-392.5 289,-392.5"/>
<text text-anchor="middle" x="323" y="-399.5" font-family="Helvetica,sans-Serif" font-size="10.00">lattice.hpp</text>
</a>
</g>
</g>
<!-- Node22&#45;&gt;Node23 -->
<g id="edge27" class="edge"><title>Node22&#45;&gt;Node23</title>
<path fill="none" stroke="midnightblue" d="M316.321,-448.083C317.381,-440.927 318.906,-430.635 320.231,-421.691"/>
<polygon fill="midnightblue" stroke="midnightblue" points="323.7,-422.156 321.704,-411.751 316.776,-421.13 323.7,-422.156"/>
</g>
<!-- Node24 -->
<g id="node24" class="node"><title>Node24</title>
<g id="a_node24"><a xlink:href="grid_8hpp.html" target="_top" xlink:title="Domain decomposition for parallel computing. ">
<polygon fill="none" stroke="black" points="295,-336.5 295,-355.5 351,-355.5 351,-336.5 295,-336.5"/>
<text text-anchor="middle" x="323" y="-343.5" font-family="Helvetica,sans-Serif" font-size="10.00">grid.hpp</text>
</a>
</g>
</g>
<!-- Node23&#45;&gt;Node24 -->
<g id="edge28" class="edge"><title>Node23&#45;&gt;Node24</title>
<path fill="none" stroke="midnightblue" d="M323,-392.083C323,-385.006 323,-374.861 323,-365.986"/>
<polygon fill="midnightblue" stroke="midnightblue" points="326.5,-365.751 323,-355.751 319.5,-365.751 326.5,-365.751"/>
</g>
<!-- Node27 -->
<g id="node27" class="node"><title>Node27</title>
<g id="a_node27"><a xlink:href="particle__data_8hpp.html" target="_top" xlink:title="For more information on particle_data, see particle_data.c. ">
<polygon fill="none" stroke="black" points="312.5,-224.5 312.5,-243.5 413.5,-243.5 413.5,-224.5 312.5,-224.5"/>
<text text-anchor="middle" x="363" y="-231.5" font-family="Helvetica,sans-Serif" font-size="10.00">particle_data.hpp</text>
</a>
</g>
</g>
<!-- Node23&#45;&gt;Node27 -->
<g id="edge46" class="edge"><title>Node23&#45;&gt;Node27</title>
<path fill="none" stroke="midnightblue" d="M332.557,-392.349C341.192,-383.947 353.512,-370.383 360,-356 375.067,-322.597 370.999,-278.556 366.874,-253.869"/>
<polygon fill="midnightblue" stroke="midnightblue" points="370.255,-252.907 364.986,-243.715 363.373,-254.187 370.255,-252.907"/>
</g>
<!-- Node24&#45;&gt;Node5 -->
<g id="edge29" class="edge"><title>Node24&#45;&gt;Node5</title>
<path fill="none" stroke="midnightblue" d="M317.362,-336.481C311.946,-327.745 304.136,-313.556 301,-300 297.185,-283.511 295.296,-238.745 303,-224 309.968,-210.665 322.869,-200.201 334.928,-192.732"/>
<polygon fill="midnightblue" stroke="midnightblue" points="336.936,-195.615 343.873,-187.606 333.456,-189.541 336.936,-195.615"/>
</g>
<!-- Node24&#45;&gt;Node16 -->
<g id="edge45" class="edge"><title>Node24&#45;&gt;Node16</title>
<path fill="none" stroke="midnightblue" d="M317.271,-336.212C299.39,-309.171 242.2,-225.56 182,-168 169.855,-156.388 154.598,-145.277 142.257,-137.002"/>
<polygon fill="midnightblue" stroke="midnightblue" points="144.157,-134.062 133.874,-131.51 140.321,-139.917 144.157,-134.062"/>
</g>
<!-- Node25 -->
<g id="node25" class="node"><title>Node25</title>
<polygon fill="none" stroke="#bfbfbf" points="310,-280.5 310,-299.5 360,-299.5 360,-280.5 310,-280.5"/>
<text text-anchor="middle" x="335" y="-287.5" font-family="Helvetica,sans-Serif" font-size="10.00">climits</text>
</g>
<!-- Node24&#45;&gt;Node25 -->
<g id="edge30" class="edge"><title>Node24&#45;&gt;Node25</title>
<path fill="none" stroke="midnightblue" d="M324.982,-336.083C326.572,-328.927 328.859,-318.635 330.846,-309.691"/>
<polygon fill="midnightblue" stroke="midnightblue" points="334.303,-310.272 333.055,-299.751 327.469,-308.754 334.303,-310.272"/>
</g>
<!-- Node26 -->
<g id="node26" class="node"><title>Node26</title>
<g id="a_node26"><a xlink:href="communication_8hpp.html" target="_top" xlink:title="This file contains the asynchronous MPI communication. ">
<polygon fill="none" stroke="black" points="462.5,-280.5 462.5,-299.5 575.5,-299.5 575.5,-280.5 462.5,-280.5"/>
<text text-anchor="middle" x="519" y="-287.5" font-family="Helvetica,sans-Serif" font-size="10.00">communication.hpp</text>
</a>
</g>
</g>
<!-- Node24&#45;&gt;Node26 -->
<g id="edge31" class="edge"><title>Node24&#45;&gt;Node26</title>
<path fill="none" stroke="midnightblue" d="M351.082,-337.263C384.411,-328.081 440.251,-312.696 478.311,-302.21"/>
<polygon fill="midnightblue" stroke="midnightblue" points="479.349,-305.555 488.06,-299.524 477.489,-298.806 479.349,-305.555"/>
</g>
<!-- Node26&#45;&gt;Node27 -->
<g id="edge32" class="edge"><title>Node26&#45;&gt;Node27</title>
<path fill="none" stroke="midnightblue" d="M494.281,-280.444C468.152,-271.399 426.741,-257.064 397.424,-246.916"/>
<polygon fill="midnightblue" stroke="midnightblue" points="398.198,-243.48 387.603,-243.516 395.908,-250.095 398.198,-243.48"/>
</g>
<!-- Node28 -->
<g id="node28" class="node"><title>Node28</title>
<g id="a_node28"><a xlink:href="random_8hpp.html" target="_top" xlink:title="A random generator. ">
<polygon fill="none" stroke="black" points="528.5,-224.5 528.5,-243.5 603.5,-243.5 603.5,-224.5 528.5,-224.5"/>
<text text-anchor="middle" x="566" y="-231.5" font-family="Helvetica,sans-Serif" font-size="10.00">random.hpp</text>
</a>
</g>
</g>
<!-- Node26&#45;&gt;Node28 -->
<g id="edge34" class="edge"><title>Node26&#45;&gt;Node28</title>
<path fill="none" stroke="midnightblue" d="M526.761,-280.083C533.537,-272.298 543.543,-260.801 551.755,-251.367"/>
<polygon fill="midnightblue" stroke="midnightblue" points="554.458,-253.592 558.383,-243.751 549.178,-248.996 554.458,-253.592"/>
</g>
<!-- Node29 -->
<g id="node29" class="node"><title>Node29</title>
<g id="a_node29"><a xlink:href="topology_8hpp.html" target="_top" xlink:title="This file contains functions for handling the system topology. ">
<polygon fill="none" stroke="black" points="431.5,-224.5 431.5,-243.5 510.5,-243.5 510.5,-224.5 431.5,-224.5"/>
<text text-anchor="middle" x="471" y="-231.5" font-family="Helvetica,sans-Serif" font-size="10.00">topology.hpp</text>
</a>
</g>
</g>
<!-- Node26&#45;&gt;Node29 -->
<g id="edge36" class="edge"><title>Node26&#45;&gt;Node29</title>
<path fill="none" stroke="midnightblue" d="M511.074,-280.083C504.154,-272.298 493.935,-260.801 485.548,-251.367"/>
<polygon fill="midnightblue" stroke="midnightblue" points="488.038,-248.9 478.779,-243.751 482.806,-253.55 488.038,-248.9"/>
</g>
<!-- Node30 -->
<g id="node30" class="node"><title>Node30</title>
<g id="a_node30"><a xlink:href="mpi_8h.html" target="_top" xlink:title="This is the MPIfake implementation. ">
<polygon fill="none" stroke="black" points="818,-224.5 818,-243.5 862,-243.5 862,-224.5 818,-224.5"/>
<text text-anchor="middle" x="840" y="-231.5" font-family="Helvetica,sans-Serif" font-size="10.00">mpi.h</text>
</a>
</g>
</g>
<!-- Node26&#45;&gt;Node30 -->
<g id="edge38" class="edge"><title>Node26&#45;&gt;Node30</title>
<path fill="none" stroke="midnightblue" d="M569.863,-280.444C636.628,-269.212 751.875,-249.825 807.756,-240.424"/>
<polygon fill="midnightblue" stroke="midnightblue" points="808.511,-243.846 817.792,-238.736 807.35,-236.943 808.511,-243.846"/>
</g>
<!-- Node34 -->
<g id="node34" class="node"><title>Node34</title>
<g id="a_node34"><a xlink:href="cuda__init_8hpp.html" target="_top" xlink:title="cuda_init.hpp">
<polygon fill="none" stroke="black" points="680,-168.5 680,-187.5 762,-187.5 762,-168.5 680,-168.5"/>
<text text-anchor="middle" x="721" y="-175.5" font-family="Helvetica,sans-Serif" font-size="10.00">cuda_init.hpp</text>
</a>
</g>
</g>
<!-- Node26&#45;&gt;Node34 -->
<g id="edge42" class="edge"><title>Node26&#45;&gt;Node34</title>
<path fill="none" stroke="midnightblue" d="M538.351,-280.39C557.546,-271.698 587.673,-257.644 613,-244 643.377,-227.636 677.303,-206.773 698.883,-193.16"/>
<polygon fill="midnightblue" stroke="midnightblue" points="701.031,-195.942 707.602,-187.631 697.282,-190.031 701.031,-195.942"/>
</g>
<!-- Node27&#45;&gt;Node5 -->
<g id="edge33" class="edge"><title>Node27&#45;&gt;Node5</title>
<path fill="none" stroke="midnightblue" d="M363,-224.083C363,-217.006 363,-206.861 363,-197.986"/>
<polygon fill="midnightblue" stroke="midnightblue" points="366.5,-197.751 363,-187.751 359.5,-197.751 366.5,-197.751"/>
</g>
<!-- Node28&#45;&gt;Node5 -->
<g id="edge35" class="edge"><title>Node28&#45;&gt;Node5</title>
<path fill="none" stroke="midnightblue" d="M533.834,-224.444C498.223,-214.971 440.799,-199.695 402.488,-189.504"/>
<polygon fill="midnightblue" stroke="midnightblue" points="403.268,-186.09 392.704,-186.902 401.468,-192.855 403.268,-186.09"/>
</g>
<!-- Node29&#45;&gt;Node5 -->
<g id="edge37" class="edge"><title>Node29&#45;&gt;Node5</title>
<path fill="none" stroke="midnightblue" d="M453.648,-224.324C436.328,-215.664 409.485,-202.242 389.498,-192.249"/>
<polygon fill="midnightblue" stroke="midnightblue" points="390.819,-188.996 380.309,-187.655 387.688,-195.257 390.819,-188.996"/>
</g>
<!-- Node31 -->
<g id="node31" class="node"><title>Node31</title>
<polygon fill="none" stroke="#bfbfbf" points="919.5,-168.5 919.5,-187.5 972.5,-187.5 972.5,-168.5 919.5,-168.5"/>
<text text-anchor="middle" x="946" y="-175.5" font-family="Helvetica,sans-Serif" font-size="10.00">string.h</text>
</g>
<!-- Node30&#45;&gt;Node31 -->
<g id="edge39" class="edge"><title>Node30&#45;&gt;Node31</title>
<path fill="none" stroke="midnightblue" d="M857.031,-224.324C874.03,-215.664 900.376,-202.242 919.993,-192.249"/>
<polygon fill="midnightblue" stroke="midnightblue" points="921.69,-195.312 929.012,-187.655 918.512,-189.075 921.69,-195.312"/>
</g>
<!-- Node32 -->
<g id="node32" class="node"><title>Node32</title>
<polygon fill="none" stroke="#bfbfbf" points="780,-168.5 780,-187.5 830,-187.5 830,-168.5 780,-168.5"/>
<text text-anchor="middle" x="805" y="-175.5" font-family="Helvetica,sans-Serif" font-size="10.00">stdio.h</text>
</g>
<!-- Node30&#45;&gt;Node32 -->
<g id="edge40" class="edge"><title>Node30&#45;&gt;Node32</title>
<path fill="none" stroke="midnightblue" d="M834.22,-224.083C829.328,-216.534 822.173,-205.495 816.167,-196.23"/>
<polygon fill="midnightblue" stroke="midnightblue" points="819.048,-194.239 810.672,-187.751 813.174,-198.046 819.048,-194.239"/>
</g>
<!-- Node33 -->
<g id="node33" class="node"><title>Node33</title>
<polygon fill="none" stroke="#bfbfbf" points="848.5,-168.5 848.5,-187.5 901.5,-187.5 901.5,-168.5 848.5,-168.5"/>
<text text-anchor="middle" x="875" y="-175.5" font-family="Helvetica,sans-Serif" font-size="10.00">stdlib.h</text>
</g>
<!-- Node30&#45;&gt;Node33 -->
<g id="edge41" class="edge"><title>Node30&#45;&gt;Node33</title>
<path fill="none" stroke="midnightblue" d="M845.78,-224.083C850.672,-216.534 857.827,-205.495 863.833,-196.23"/>
<polygon fill="midnightblue" stroke="midnightblue" points="866.826,-198.046 869.328,-187.751 860.952,-194.239 866.826,-198.046"/>
</g>
<!-- Node34&#45;&gt;Node10 -->
<g id="edge43" class="edge"><title>Node34&#45;&gt;Node10</title>
<path fill="none" stroke="midnightblue" d="M736.843,-168.395C758.134,-155.768 791.409,-131.592 774,-112 751.963,-87.1992 532.937,-73.7031 437.769,-68.9703"/>
<polygon fill="midnightblue" stroke="midnightblue" points="437.763,-65.466 427.605,-68.4748 437.422,-72.4577 437.763,-65.466"/>
</g>
<!-- Node34&#45;&gt;Node20 -->
<g id="edge44" class="edge"><title>Node34&#45;&gt;Node20</title>
<path fill="none" stroke="midnightblue" d="M724.303,-168.083C726.982,-160.849 730.849,-150.409 734.186,-141.397"/>
<polygon fill="midnightblue" stroke="midnightblue" points="737.568,-142.344 737.759,-131.751 731.004,-139.913 737.568,-142.344"/>
</g>
</g>
</svg>
        <g id="navigator" transform="translate(0 0)" fill="#404254">
                <rect fill="#f2f5e9" fill-opacity="0.5" stroke="#606060" stroke-width=".5" x="0" y="0" width="60" height="60"/>
                <use id="zoomplus" xlink:href="#zoomPlus" x="17" y="9" onmousedown="handleZoom(evt,'in')"/>
                <use id="zoomminus" xlink:href="#zoomMin" x="42" y="9" onmousedown="handleZoom(evt,'out')"/>
                <use id="reset" xlink:href="#resetDef" x="30" y="36" onmousedown="handleReset()"/>
                <g id="arrowUp" xlink:href="#dirArrow" transform="translate(30 24)" onmousedown="handlePan(0,-1)">
                  <use xlink:href="#rim" fill="#404040">
                        <set attributeName="fill" to="#808080" begin="arrowUp.mouseover" end="arrowUp.mouseout"/>
                  </use>
                  <path fill="none" stroke="white" stroke-width="1.5" d="M0,-3.0v7 M-2.5,-0.5L0,-3.0L2.5,-0.5"/>
                </g>
                <g id="arrowRight" xlink:href="#dirArrow" transform="rotate(90) translate(36 -43)" onmousedown="handlePan(1,0)">
                  <use xlink:href="#rim" fill="#404040">
                        <set attributeName="fill" to="#808080" begin="arrowRight.mouseover" end="arrowRight.mouseout"/>
                  </use>
                  <path fill="none" stroke="white" stroke-width="1.5" d="M0,-3.0v7 M-2.5,-0.5L0,-3.0L2.5,-0.5"/>
                </g>
                <g id="arrowDown" xlink:href="#dirArrow" transform="rotate(180) translate(-30 -48)" onmousedown="handlePan(0,1)">
                  <use xlink:href="#rim" fill="#404040">
                        <set attributeName="fill" to="#808080" begin="arrowDown.mouseover" end="arrowDown.mouseout"/>
                  </use>
                  <path fill="none" stroke="white" stroke-width="1.5" d="M0,-3.0v7 M-2.5,-0.5L0,-3.0L2.5,-0.5"/>
                </g>
                <g id="arrowLeft" xlink:href="#dirArrow" transform="rotate(270) translate(-36 17)" onmousedown="handlePan(-1,0)">
                  <use xlink:href="#rim" fill="#404040">
                        <set attributeName="fill" to="#808080" begin="arrowLeft.mouseover" end="arrowLeft.mouseout"/>
                  </use>
                  <path fill="none" stroke="white" stroke-width="1.5" d="M0,-3.0v7 M-2.5,-0.5L0,-3.0L2.5,-0.5"/>
                </g>
        </g>
        <svg viewBox="0 0 15 15" width="100%" height="30px" preserveAspectRatio="xMaxYMin meet">
         <g id="arrow_out" transform="scale(0.3 0.3)">
          <a xlink:href="external__potential__tcl_8cpp__incl_org.svg" target="_base">
           <rect id="button" ry="5" rx="5" y="6" x="6" height="38" width="38"
                fill="#f2f5e9" fill-opacity="0.5" stroke="#606060" stroke-width="1.0"/>
           <path id="arrow"
             d="M 11.500037,31.436501 C 11.940474,20.09759 22.043105,11.32322 32.158766,21.979434 L 37.068811,17.246167 C 37.068811,17.246167 37.088388,32 37.088388,32 L 22.160133,31.978069 C 22.160133,31.978069 26.997745,27.140456 26.997745,27.140456 C 18.528582,18.264221 13.291696,25.230495 11.500037,31.436501 z"
             style="fill:#404040;"/>
          </a>
         </g>
        </svg>
</svg>
