<?xml version="1.0" encoding="UTF-8" standalone="no"?>
<!DOCTYPE svg PUBLIC "-//W3C//DTD SVG 1.1//EN"
 "http://www.w3.org/Graphics/SVG/1.1/DTD/svg11.dtd">
<!-- Generated by graphviz version 2.38.0 (20140413.2041)
 -->
<!-- Title: fd&#45;electrostatics_cuda.cu Pages: 1 -->
<svg width="436pt" height="140pt"
 viewBox="0.00 0.00 435.78 140.00" xmlns="http://www.w3.org/2000/svg" xmlns:xlink="http://www.w3.org/1999/xlink">
<g id="graph0" class="graph" transform="scale(1 1) rotate(0) translate(4 136)">
<title>fd&#45;electrostatics_cuda.cu</title>
<!-- Node1 -->
<g id="node1" class="node"><title>Node1</title>
<polygon fill="#bfbfbf" stroke="black" points="128.275,-112.5 128.275,-131.5 267.275,-131.5 267.275,-112.5 128.275,-112.5"/>
<text text-anchor="middle" x="197.775" y="-119.5" font-family="Helvetica,sans-Serif" font-size="10.00">fd&#45;electrostatics_cuda.cu</text>
</g>
<!-- Node2 -->
<g id="node2" class="node"><title>Node2</title>
<polygon fill="none" stroke="#bfbfbf" points="52.2754,-0.5 52.2754,-19.5 101.275,-19.5 101.275,-0.5 52.2754,-0.5"/>
<text text-anchor="middle" x="76.7754" y="-7.5" font-family="Helvetica,sans-Serif" font-size="10.00">cuda.h</text>
</g>
<!-- Node1&#45;&gt;Node2 -->
<g id="edge1" class="edge"><title>Node1&#45;&gt;Node2</title>
<path fill="none" stroke="midnightblue" d="M128.118,-113.839C79.3167,-107.216 20.1753,-95.4036 4.77544,-76 -11.4482,-55.5585 18.354,-36.0465 44.404,-23.8293"/>
<polygon fill="midnightblue" stroke="midnightblue" points="46.0293,-26.9369 53.7393,-19.6701 43.1805,-20.5428 46.0293,-26.9369"/>
</g>
<!-- Node3 -->
<g id="node3" class="node"><title>Node3</title>
<polygon fill="none" stroke="#bfbfbf" points="14.2754,-56.5 14.2754,-75.5 61.2754,-75.5 61.2754,-56.5 14.2754,-56.5"/>
<text text-anchor="middle" x="37.7754" y="-63.5" font-family="Helvetica,sans-Serif" font-size="10.00">cufft.h</text>
</g>
<!-- Node1&#45;&gt;Node3 -->
<g id="edge2" class="edge"><title>Node1&#45;&gt;Node3</title>
<path fill="none" stroke="midnightblue" d="M172.423,-112.444C145.031,-103.199 101.266,-88.4281 71.1074,-78.2495"/>
<polygon fill="midnightblue" stroke="midnightblue" points="72.0387,-74.8699 61.4445,-74.9883 69.8002,-81.5024 72.0387,-74.8699"/>
</g>
<!-- Node4 -->
<g id="node4" class="node"><title>Node4</title>
<g id="a_node4"><a xlink:href="fd-electrostatics_8hpp.html" target="_top" xlink:title="fd&#45;electrostatics.hpp">
<polygon fill="none" stroke="black" points="79.2754,-56.5 79.2754,-75.5 196.275,-75.5 196.275,-56.5 79.2754,-56.5"/>
<text text-anchor="middle" x="137.775" y="-63.5" font-family="Helvetica,sans-Serif" font-size="10.00">fd&#45;electrostatics.hpp</text>
</a>
</g>
</g>
<!-- Node1&#45;&gt;Node4 -->
<g id="edge3" class="edge"><title>Node1&#45;&gt;Node4</title>
<path fill="none" stroke="midnightblue" d="M188.135,-112.324C179.266,-104.341 165.901,-92.3128 155.168,-82.6529"/>
<polygon fill="midnightblue" stroke="midnightblue" points="157.365,-79.922 147.591,-75.8339 152.682,-85.1251 157.365,-79.922"/>
</g>
<!-- Node5 -->
<g id="node5" class="node"><title>Node5</title>
<g id="a_node5"><a xlink:href="cuda__utils_8hpp.html" target="_top" xlink:title="cuda_utils.hpp">
<polygon fill="none" stroke="black" points="214.275,-56.5 214.275,-75.5 301.275,-75.5 301.275,-56.5 214.275,-56.5"/>
<text text-anchor="middle" x="257.775" y="-63.5" font-family="Helvetica,sans-Serif" font-size="10.00">cuda_utils.hpp</text>
</a>
</g>
</g>
<!-- Node1&#45;&gt;Node5 -->
<g id="edge4" class="edge"><title>Node1&#45;&gt;Node5</title>
<path fill="none" stroke="midnightblue" d="M207.415,-112.324C216.285,-104.341 229.65,-92.3128 240.383,-82.6529"/>
<polygon fill="midnightblue" stroke="midnightblue" points="242.868,-85.1251 247.96,-75.8339 238.186,-79.922 242.868,-85.1251"/>
</g>
<!-- Node7 -->
<g id="node7" class="node"><title>Node7</title>
<polygon fill="none" stroke="#bfbfbf" points="319.775,-56.5 319.775,-75.5 363.775,-75.5 363.775,-56.5 319.775,-56.5"/>
<text text-anchor="middle" x="341.775" y="-63.5" font-family="Helvetica,sans-Serif" font-size="10.00">string</text>
</g>
<!-- Node1&#45;&gt;Node7 -->
<g id="edge7" class="edge"><title>Node1&#45;&gt;Node7</title>
<path fill="none" stroke="midnightblue" d="M220.593,-112.444C244.748,-103.385 283.052,-89.0213 310.121,-78.8705"/>
<polygon fill="midnightblue" stroke="midnightblue" points="311.404,-82.1274 319.538,-75.339 308.946,-75.5731 311.404,-82.1274"/>
</g>
<!-- Node8 -->
<g id="node8" class="node"><title>Node8</title>
<polygon fill="none" stroke="#bfbfbf" points="381.775,-56.5 381.775,-75.5 427.775,-75.5 427.775,-56.5 381.775,-56.5"/>
<text text-anchor="middle" x="404.775" y="-63.5" font-family="Helvetica,sans-Serif" font-size="10.00">cstdio</text>
</g>
<!-- Node1&#45;&gt;Node8 -->
<g id="edge8" class="edge"><title>Node1&#45;&gt;Node8</title>
<path fill="none" stroke="midnightblue" d="M232.039,-112.432C265.361,-104.045 317.657,-90.7422 371.927,-76.1857"/>
<polygon fill="midnightblue" stroke="midnightblue" points="372.973,-79.5289 381.72,-73.551 371.155,-72.7692 372.973,-79.5289"/>
</g>
<!-- Node5&#45;&gt;Node2 -->
<g id="edge5" class="edge"><title>Node5&#45;&gt;Node2</title>
<path fill="none" stroke="midnightblue" d="M229.095,-56.4435C197.207,-46.9297 145.702,-31.5637 111.543,-21.3728"/>
<polygon fill="midnightblue" stroke="midnightblue" points="112.124,-17.8935 101.54,-18.3884 110.122,-24.6013 112.124,-17.8935"/>
</g>
<!-- Node6 -->
<g id="node6" class="node"><title>Node6</title>
<polygon fill="none" stroke="#bfbfbf" points="211.775,-0.5 211.775,-19.5 303.775,-19.5 303.775,-0.5 211.775,-0.5"/>
<text text-anchor="middle" x="257.775" y="-7.5" font-family="Helvetica,sans-Serif" font-size="10.00">cuda_runtime.h</text>
</g>
<!-- Node5&#45;&gt;Node6 -->
<g id="edge6" class="edge"><title>Node5&#45;&gt;Node6</title>
<path fill="none" stroke="midnightblue" d="M257.775,-56.083C257.775,-49.0059 257.775,-38.8611 257.775,-29.9865"/>
<polygon fill="midnightblue" stroke="midnightblue" points="261.276,-29.751 257.775,-19.7511 254.276,-29.7511 261.276,-29.751"/>
</g>
</g>
</svg>
