<?xml version="1.0" encoding="UTF-8" standalone="no"?>
<!DOCTYPE svg PUBLIC "-//W3C//DTD SVG 1.1//EN"
 "http://www.w3.org/Graphics/SVG/1.1/DTD/svg11.dtd">
<!-- Generated by graphviz version 2.38.0 (20140413.2041)
 -->
<!-- Title: fene.hpp Pages: 1 -->
<svg width="810pt" height="364pt"
 viewBox="0.00 0.00 809.50 364.00" xmlns="http://www.w3.org/2000/svg" xmlns:xlink="http://www.w3.org/1999/xlink">
<g id="graph0" class="graph" transform="scale(1 1) rotate(0) translate(4 360)">
<title>fene.hpp</title>
<!-- Node1 -->
<g id="node1" class="node"><title>Node1</title>
<polygon fill="#bfbfbf" stroke="black" points="281.5,-336.5 281.5,-355.5 340.5,-355.5 340.5,-336.5 281.5,-336.5"/>
<text text-anchor="middle" x="311" y="-343.5" font-family="Helvetica,sans-Serif" font-size="10.00">fene.hpp</text>
</g>
<!-- Node2 -->
<g id="node2" class="node"><title>Node2</title>
<g id="a_node2"><a xlink:href="utils_8hpp.html" target="_top" xlink:title="Small functions that are useful not only for one modul. ">
<polygon fill="none" stroke="black" points="364.5,-168.5 364.5,-187.5 423.5,-187.5 423.5,-168.5 364.5,-168.5"/>
<text text-anchor="middle" x="394" y="-175.5" font-family="Helvetica,sans-Serif" font-size="10.00">utils.hpp</text>
</a>
</g>
</g>
<!-- Node1&#45;&gt;Node2 -->
<g id="edge1" class="edge"><title>Node1&#45;&gt;Node2</title>
<path fill="none" stroke="midnightblue" d="M330.926,-336.461C361.081,-322.299 417.206,-290.796 440,-244 449.073,-225.372 431.756,-206.277 415.839,-193.646"/>
<polygon fill="midnightblue" stroke="midnightblue" points="417.905,-190.821 407.791,-187.667 413.731,-196.44 417.905,-190.821"/>
</g>
<!-- Node13 -->
<g id="node13" class="node"><title>Node13</title>
<g id="a_node13"><a xlink:href="errorhandling_8hpp.html" target="_top" xlink:title="This file contains the errorhandling code for severe errors, like a broken bond or illegal parameter ...">
<polygon fill="none" stroke="black" points="38.5,-112.5 38.5,-131.5 141.5,-131.5 141.5,-112.5 38.5,-112.5"/>
<text text-anchor="middle" x="90" y="-119.5" font-family="Helvetica,sans-Serif" font-size="10.00">errorhandling.hpp</text>
</a>
</g>
</g>
<!-- Node1&#45;&gt;Node13 -->
<g id="edge28" class="edge"><title>Node1&#45;&gt;Node13</title>
<path fill="none" stroke="midnightblue" d="M281.488,-344.104C247.14,-341.509 190.707,-332.217 156,-300 109.586,-256.915 95.6401,-178.12 91.5892,-142.002"/>
<polygon fill="midnightblue" stroke="midnightblue" points="95.0552,-141.483 90.593,-131.874 88.0888,-142.168 95.0552,-141.483"/>
</g>
<!-- Node19 -->
<g id="node19" class="node"><title>Node19</title>
<g id="a_node19"><a xlink:href="interaction__data_8hpp.html" target="_top" xlink:title="Various procedures concerning interactions between particles. ">
<polygon fill="none" stroke="black" points="165.5,-280.5 165.5,-299.5 282.5,-299.5 282.5,-280.5 165.5,-280.5"/>
<text text-anchor="middle" x="224" y="-287.5" font-family="Helvetica,sans-Serif" font-size="10.00">interaction_data.hpp</text>
</a>
</g>
</g>
<!-- Node1&#45;&gt;Node19 -->
<g id="edge21" class="edge"><title>Node1&#45;&gt;Node19</title>
<path fill="none" stroke="midnightblue" d="M297.022,-336.324C283.45,-327.9 262.62,-314.971 246.675,-305.074"/>
<polygon fill="midnightblue" stroke="midnightblue" points="248.286,-301.954 237.943,-299.655 244.594,-307.902 248.286,-301.954"/>
</g>
<!-- Node20 -->
<g id="node20" class="node"><title>Node20</title>
<g id="a_node20"><a xlink:href="particle__data_8hpp.html" target="_top" xlink:title="For more information on particle_data, see particle_data.c. ">
<polygon fill="none" stroke="black" points="237.5,-224.5 237.5,-243.5 338.5,-243.5 338.5,-224.5 237.5,-224.5"/>
<text text-anchor="middle" x="288" y="-231.5" font-family="Helvetica,sans-Serif" font-size="10.00">particle_data.hpp</text>
</a>
</g>
</g>
<!-- Node1&#45;&gt;Node20 -->
<g id="edge25" class="edge"><title>Node1&#45;&gt;Node20</title>
<path fill="none" stroke="midnightblue" d="M309.195,-336.368C305.484,-318.617 296.921,-277.666 291.889,-253.597"/>
<polygon fill="midnightblue" stroke="midnightblue" points="295.269,-252.663 289.796,-243.591 288.417,-254.096 295.269,-252.663"/>
</g>
<!-- Node21 -->
<g id="node21" class="node"><title>Node21</title>
<g id="a_node21"><a xlink:href="random_8hpp.html" target="_top" xlink:title="A random generator. ">
<polygon fill="none" stroke="black" points="356.5,-224.5 356.5,-243.5 431.5,-243.5 431.5,-224.5 356.5,-224.5"/>
<text text-anchor="middle" x="394" y="-231.5" font-family="Helvetica,sans-Serif" font-size="10.00">random.hpp</text>
</a>
</g>
</g>
<!-- Node1&#45;&gt;Node21 -->
<g id="edge26" class="edge"><title>Node1&#45;&gt;Node21</title>
<path fill="none" stroke="midnightblue" d="M317.513,-336.368C331.271,-318.135 363.497,-275.426 381.418,-251.675"/>
<polygon fill="midnightblue" stroke="midnightblue" points="384.288,-253.682 387.517,-243.591 378.7,-249.466 384.288,-253.682"/>
</g>
<!-- Node3 -->
<g id="node3" class="node"><title>Node3</title>
<polygon fill="none" stroke="#bfbfbf" points="754.5,-112.5 754.5,-131.5 801.5,-131.5 801.5,-112.5 754.5,-112.5"/>
<text text-anchor="middle" x="778" y="-119.5" font-family="Helvetica,sans-Serif" font-size="10.00">cmath</text>
</g>
<!-- Node2&#45;&gt;Node3 -->
<g id="edge2" class="edge"><title>Node2&#45;&gt;Node3</title>
<path fill="none" stroke="midnightblue" d="M423.911,-174.67C483.32,-169.725 620.486,-156.717 744.301,-132.101"/>
<polygon fill="midnightblue" stroke="midnightblue" points="745.22,-135.487 754.329,-130.076 743.834,-128.625 745.22,-135.487"/>
</g>
<!-- Node4 -->
<g id="node4" class="node"><title>Node4</title>
<polygon fill="none" stroke="#bfbfbf" points="160,-112.5 160,-131.5 206,-131.5 206,-112.5 160,-112.5"/>
<text text-anchor="middle" x="183" y="-119.5" font-family="Helvetica,sans-Serif" font-size="10.00">cstdio</text>
</g>
<!-- Node2&#45;&gt;Node4 -->
<g id="edge3" class="edge"><title>Node2&#45;&gt;Node4</title>
<path fill="none" stroke="midnightblue" d="M364.478,-169.846C330.814,-161.629 273.894,-147.56 215.766,-132.151"/>
<polygon fill="midnightblue" stroke="midnightblue" points="216.615,-128.755 206.051,-129.566 214.815,-135.52 216.615,-128.755"/>
</g>
<!-- Node5 -->
<g id="node5" class="node"><title>Node5</title>
<polygon fill="none" stroke="#bfbfbf" points="224.5,-112.5 224.5,-131.5 273.5,-131.5 273.5,-112.5 224.5,-112.5"/>
<text text-anchor="middle" x="249" y="-119.5" font-family="Helvetica,sans-Serif" font-size="10.00">cstdlib</text>
</g>
<!-- Node2&#45;&gt;Node5 -->
<g id="edge4" class="edge"><title>Node2&#45;&gt;Node5</title>
<path fill="none" stroke="midnightblue" d="M371.024,-168.444C346.843,-159.438 308.582,-145.189 281.354,-135.049"/>
<polygon fill="midnightblue" stroke="midnightblue" points="282.461,-131.727 271.868,-131.516 280.018,-138.286 282.461,-131.727"/>
</g>
<!-- Node6 -->
<g id="node6" class="node"><title>Node6</title>
<polygon fill="none" stroke="#bfbfbf" points="292,-112.5 292,-131.5 342,-131.5 342,-112.5 292,-112.5"/>
<text text-anchor="middle" x="317" y="-119.5" font-family="Helvetica,sans-Serif" font-size="10.00">cstring</text>
</g>
<!-- Node2&#45;&gt;Node6 -->
<g id="edge5" class="edge"><title>Node2&#45;&gt;Node6</title>
<path fill="none" stroke="midnightblue" d="M381.629,-168.324C369.842,-160.058 351.868,-147.453 337.864,-137.632"/>
<polygon fill="midnightblue" stroke="midnightblue" points="339.538,-134.531 329.341,-131.655 335.518,-140.262 339.538,-134.531"/>
</g>
<!-- Node7 -->
<g id="node7" class="node"><title>Node7</title>
<g id="a_node7"><a xlink:href="config_8hpp.html" target="_top" xlink:title="This file contains the defaults for Espresso. ">
<polygon fill="none" stroke="black" points="412.5,-56.5 412.5,-75.5 479.5,-75.5 479.5,-56.5 412.5,-56.5"/>
<text text-anchor="middle" x="446" y="-63.5" font-family="Helvetica,sans-Serif" font-size="10.00">config.hpp</text>
</a>
</g>
</g>
<!-- Node2&#45;&gt;Node7 -->
<g id="edge6" class="edge"><title>Node2&#45;&gt;Node7</title>
<path fill="none" stroke="midnightblue" d="M423.633,-173.226C466.542,-167.083 542.644,-153.414 559,-132 581.273,-102.839 530.009,-84.5433 489.42,-75.0468"/>
<polygon fill="midnightblue" stroke="midnightblue" points="490.166,-71.6272 479.645,-72.876 488.649,-78.4608 490.166,-71.6272"/>
</g>
<!-- Node11 -->
<g id="node11" class="node"><title>Node11</title>
<g id="a_node11"><a xlink:href="debug_8hpp.html" target="_top" xlink:title="This file controls debug facilities. ">
<polygon fill="none" stroke="black" points="360,-112.5 360,-131.5 428,-131.5 428,-112.5 360,-112.5"/>
<text text-anchor="middle" x="394" y="-119.5" font-family="Helvetica,sans-Serif" font-size="10.00">debug.hpp</text>
</a>
</g>
</g>
<!-- Node2&#45;&gt;Node11 -->
<g id="edge10" class="edge"><title>Node2&#45;&gt;Node11</title>
<path fill="none" stroke="midnightblue" d="M394,-168.083C394,-161.006 394,-150.861 394,-141.986"/>
<polygon fill="midnightblue" stroke="midnightblue" points="397.5,-141.751 394,-131.751 390.5,-141.751 397.5,-141.751"/>
</g>
<!-- Node12 -->
<g id="node12" class="node"><title>Node12</title>
<g id="a_node12"><a xlink:href="lees__edwards_8hpp.html" target="_top" xlink:title="lees_edwards.hpp">
<polygon fill="none" stroke="black" points="446,-112.5 446,-131.5 550,-131.5 550,-112.5 446,-112.5"/>
<text text-anchor="middle" x="498" y="-119.5" font-family="Helvetica,sans-Serif" font-size="10.00">lees_edwards.hpp</text>
</a>
</g>
</g>
<!-- Node2&#45;&gt;Node12 -->
<g id="edge12" class="edge"><title>Node2&#45;&gt;Node12</title>
<path fill="none" stroke="midnightblue" d="M410.709,-168.324C427.312,-159.703 453.002,-146.364 472.22,-136.386"/>
<polygon fill="midnightblue" stroke="midnightblue" points="474.07,-139.369 481.332,-131.655 470.844,-133.156 474.07,-139.369"/>
</g>
<!-- Node2&#45;&gt;Node13 -->
<g id="edge14" class="edge"><title>Node2&#45;&gt;Node13</title>
<path fill="none" stroke="midnightblue" d="M364.298,-171.724C314.308,-162.844 212.508,-144.761 147.966,-133.297"/>
<polygon fill="midnightblue" stroke="midnightblue" points="148.399,-129.819 137.941,-131.516 147.175,-136.711 148.399,-129.819"/>
</g>
<!-- Node17 -->
<g id="node17" class="node"><title>Node17</title>
<polygon fill="none" stroke="#bfbfbf" points="606.5,-112.5 606.5,-131.5 653.5,-131.5 653.5,-112.5 606.5,-112.5"/>
<text text-anchor="middle" x="630" y="-119.5" font-family="Helvetica,sans-Serif" font-size="10.00">vector</text>
</g>
<!-- Node2&#45;&gt;Node17 -->
<g id="edge19" class="edge"><title>Node2&#45;&gt;Node17</title>
<path fill="none" stroke="midnightblue" d="M423.539,-170.374C462.251,-161.671 532.25,-145.865 592,-132 593.445,-131.665 594.92,-131.321 596.41,-130.973"/>
<polygon fill="midnightblue" stroke="midnightblue" points="597.357,-134.346 606.291,-128.65 595.756,-127.531 597.357,-134.346"/>
</g>
<!-- Node18 -->
<g id="node18" class="node"><title>Node18</title>
<polygon fill="none" stroke="#bfbfbf" points="671.5,-112.5 671.5,-131.5 736.5,-131.5 736.5,-112.5 671.5,-112.5"/>
<text text-anchor="middle" x="704" y="-119.5" font-family="Helvetica,sans-Serif" font-size="10.00">exception</text>
</g>
<!-- Node2&#45;&gt;Node18 -->
<g id="edge20" class="edge"><title>Node2&#45;&gt;Node18</title>
<path fill="none" stroke="midnightblue" d="M423.543,-172.556C471.411,-165.248 569.11,-149.888 661.304,-132.257"/>
<polygon fill="midnightblue" stroke="midnightblue" points="662.199,-135.649 671.357,-130.321 660.875,-128.775 662.199,-135.649"/>
</g>
<!-- Node8 -->
<g id="node8" class="node"><title>Node8</title>
<g id="a_node8"><a xlink:href="acconfig_8hpp.html" target="_top" xlink:title="acconfig.hpp">
<polygon fill="none" stroke="black" points="296,-0.5 296,-19.5 374,-19.5 374,-0.5 296,-0.5"/>
<text text-anchor="middle" x="335" y="-7.5" font-family="Helvetica,sans-Serif" font-size="10.00">acconfig.hpp</text>
</a>
</g>
</g>
<!-- Node7&#45;&gt;Node8 -->
<g id="edge7" class="edge"><title>Node7&#45;&gt;Node8</title>
<path fill="none" stroke="midnightblue" d="M428.166,-56.324C410.284,-47.6247 382.525,-34.1202 361.954,-24.113"/>
<polygon fill="midnightblue" stroke="midnightblue" points="363.313,-20.8819 352.79,-19.6545 360.251,-27.1765 363.313,-20.8819"/>
</g>
<!-- Node9 -->
<g id="node9" class="node"><title>Node9</title>
<g id="a_node9"><a xlink:href="myconfig-final_8hpp.html" target="_top" xlink:title="myconfig&#45;final.hpp">
<polygon fill="none" stroke="black" points="392.5,-0.5 392.5,-19.5 499.5,-19.5 499.5,-0.5 392.5,-0.5"/>
<text text-anchor="middle" x="446" y="-7.5" font-family="Helvetica,sans-Serif" font-size="10.00">myconfig&#45;final.hpp</text>
</a>
</g>
</g>
<!-- Node7&#45;&gt;Node9 -->
<g id="edge8" class="edge"><title>Node7&#45;&gt;Node9</title>
<path fill="none" stroke="midnightblue" d="M446,-56.083C446,-49.0059 446,-38.8611 446,-29.9865"/>
<polygon fill="midnightblue" stroke="midnightblue" points="449.5,-29.751 446,-19.7511 442.5,-29.7511 449.5,-29.751"/>
</g>
<!-- Node10 -->
<g id="node10" class="node"><title>Node10</title>
<g id="a_node10"><a xlink:href="config-features_8hpp.html" target="_top" xlink:title="config&#45;features.hpp">
<polygon fill="none" stroke="black" points="517.5,-0.5 517.5,-19.5 628.5,-19.5 628.5,-0.5 517.5,-0.5"/>
<text text-anchor="middle" x="573" y="-7.5" font-family="Helvetica,sans-Serif" font-size="10.00">config&#45;features.hpp</text>
</a>
</g>
</g>
<!-- Node7&#45;&gt;Node10 -->
<g id="edge9" class="edge"><title>Node7&#45;&gt;Node10</title>
<path fill="none" stroke="midnightblue" d="M466.124,-56.4435C487.024,-47.5566 519.935,-33.5632 543.716,-23.4514"/>
<polygon fill="midnightblue" stroke="midnightblue" points="545.138,-26.6504 552.971,-19.5164 542.398,-20.2085 545.138,-26.6504"/>
</g>
<!-- Node11&#45;&gt;Node7 -->
<g id="edge11" class="edge"><title>Node11&#45;&gt;Node7</title>
<path fill="none" stroke="midnightblue" d="M402.587,-112.083C410.159,-104.22 421.378,-92.5688 430.514,-83.0813"/>
<polygon fill="midnightblue" stroke="midnightblue" points="433.158,-85.3821 437.573,-75.7511 428.115,-80.5266 433.158,-85.3821"/>
</g>
<!-- Node12&#45;&gt;Node7 -->
<g id="edge13" class="edge"><title>Node12&#45;&gt;Node7</title>
<path fill="none" stroke="midnightblue" d="M489.413,-112.083C481.841,-104.22 470.622,-92.5688 461.486,-83.0813"/>
<polygon fill="midnightblue" stroke="midnightblue" points="463.885,-80.5266 454.427,-75.7511 458.842,-85.3821 463.885,-80.5266"/>
</g>
<!-- Node13&#45;&gt;Node7 -->
<g id="edge15" class="edge"><title>Node13&#45;&gt;Node7</title>
<path fill="none" stroke="midnightblue" d="M141.765,-113.148C212.057,-102.486 336.458,-83.6159 402.301,-73.6285"/>
<polygon fill="midnightblue" stroke="midnightblue" points="402.986,-77.0647 412.348,-72.1045 401.936,-70.1439 402.986,-77.0647"/>
</g>
<!-- Node14 -->
<g id="node14" class="node"><title>Node14</title>
<polygon fill="none" stroke="#bfbfbf" points="0,-56.5 0,-75.5 44,-75.5 44,-56.5 0,-56.5"/>
<text text-anchor="middle" x="22" y="-63.5" font-family="Helvetica,sans-Serif" font-size="10.00">string</text>
</g>
<!-- Node13&#45;&gt;Node14 -->
<g id="edge16" class="edge"><title>Node13&#45;&gt;Node14</title>
<path fill="none" stroke="midnightblue" d="M79.0746,-112.324C68.8254,-104.185 53.2794,-91.8395 40.999,-82.0874"/>
<polygon fill="midnightblue" stroke="midnightblue" points="43.1319,-79.3119 33.1242,-75.8339 38.7787,-84.7937 43.1319,-79.3119"/>
</g>
<!-- Node15 -->
<g id="node15" class="node"><title>Node15</title>
<polygon fill="none" stroke="#bfbfbf" points="62,-56.5 62,-75.5 118,-75.5 118,-56.5 62,-56.5"/>
<text text-anchor="middle" x="90" y="-63.5" font-family="Helvetica,sans-Serif" font-size="10.00">sstream</text>
</g>
<!-- Node13&#45;&gt;Node15 -->
<g id="edge17" class="edge"><title>Node13&#45;&gt;Node15</title>
<path fill="none" stroke="midnightblue" d="M90,-112.083C90,-105.006 90,-94.8611 90,-85.9865"/>
<polygon fill="midnightblue" stroke="midnightblue" points="93.5001,-85.751 90,-75.7511 86.5001,-85.7511 93.5001,-85.751"/>
</g>
<!-- Node16 -->
<g id="node16" class="node"><title>Node16</title>
<polygon fill="none" stroke="#bfbfbf" points="136,-56.5 136,-75.5 168,-75.5 168,-56.5 136,-56.5"/>
<text text-anchor="middle" x="152" y="-63.5" font-family="Helvetica,sans-Serif" font-size="10.00">list</text>
</g>
<!-- Node13&#45;&gt;Node16 -->
<g id="edge18" class="edge"><title>Node13&#45;&gt;Node16</title>
<path fill="none" stroke="midnightblue" d="M99.9614,-112.324C109.127,-104.341 122.937,-92.3128 134.028,-82.6529"/>
<polygon fill="midnightblue" stroke="midnightblue" points="136.615,-85.041 141.857,-75.8339 132.018,-79.7624 136.615,-85.041"/>
</g>
<!-- Node19&#45;&gt;Node2 -->
<g id="edge22" class="edge"><title>Node19&#45;&gt;Node2</title>
<path fill="none" stroke="midnightblue" d="M221.653,-280.294C218.541,-266.65 214.858,-240.127 228,-224 243.848,-204.553 310.407,-191.248 354.28,-184.4"/>
<polygon fill="midnightblue" stroke="midnightblue" points="354.991,-187.833 364.356,-182.878 353.945,-180.911 354.991,-187.833"/>
</g>
<!-- Node19&#45;&gt;Node20 -->
<g id="edge23" class="edge"><title>Node19&#45;&gt;Node20</title>
<path fill="none" stroke="midnightblue" d="M234.283,-280.324C243.836,-272.263 258.28,-260.077 269.784,-250.369"/>
<polygon fill="midnightblue" stroke="midnightblue" points="272.144,-252.958 277.53,-243.834 267.63,-247.608 272.144,-252.958"/>
</g>
<!-- Node20&#45;&gt;Node2 -->
<g id="edge24" class="edge"><title>Node20&#45;&gt;Node2</title>
<path fill="none" stroke="midnightblue" d="M305.031,-224.324C322.03,-215.664 348.376,-202.242 367.993,-192.249"/>
<polygon fill="midnightblue" stroke="midnightblue" points="369.69,-195.312 377.012,-187.655 366.512,-189.075 369.69,-195.312"/>
</g>
<!-- Node21&#45;&gt;Node2 -->
<g id="edge27" class="edge"><title>Node21&#45;&gt;Node2</title>
<path fill="none" stroke="midnightblue" d="M394,-224.083C394,-217.006 394,-206.861 394,-197.986"/>
<polygon fill="midnightblue" stroke="midnightblue" points="397.5,-197.751 394,-187.751 390.5,-197.751 397.5,-197.751"/>
</g>
</g>
</svg>
