<?xml version="1.0" encoding="UTF-8" standalone="no"?>
<!DOCTYPE svg PUBLIC "-//W3C//DTD SVG 1.1//EN"
 "http://www.w3.org/Graphics/SVG/1.1/DTD/svg11.dtd">
<!-- Generated by graphviz version 2.38.0 (20140413.2041)
 -->
<!-- Title: fene.cpp Pages: 1 -->
<svg width="841pt" height="420pt"
 viewBox="0.00 0.00 841.00 420.00" xmlns="http://www.w3.org/2000/svg" xmlns:xlink="http://www.w3.org/1999/xlink">
<g id="graph0" class="graph" transform="scale(1 1) rotate(0) translate(4 416)">
<title>fene.cpp</title>
<!-- Node1 -->
<g id="node1" class="node"><title>Node1</title>
<polygon fill="#bfbfbf" stroke="black" points="360.5,-392.5 360.5,-411.5 419.5,-411.5 419.5,-392.5 360.5,-392.5"/>
<text text-anchor="middle" x="390" y="-399.5" font-family="Helvetica,sans-Serif" font-size="10.00">fene.cpp</text>
</g>
<!-- Node2 -->
<g id="node2" class="node"><title>Node2</title>
<g id="a_node2"><a xlink:href="fene_8hpp.html" target="_top" xlink:title="Routines to calculate the FENE Energy or/and FENE force for a particle pair. ">
<polygon fill="none" stroke="black" points="405.5,-336.5 405.5,-355.5 464.5,-355.5 464.5,-336.5 405.5,-336.5"/>
<text text-anchor="middle" x="435" y="-343.5" font-family="Helvetica,sans-Serif" font-size="10.00">fene.hpp</text>
</a>
</g>
</g>
<!-- Node1&#45;&gt;Node2 -->
<g id="edge1" class="edge"><title>Node1&#45;&gt;Node2</title>
<path fill="none" stroke="midnightblue" d="M397.431,-392.083C403.853,-384.377 413.306,-373.033 421.122,-363.653"/>
<polygon fill="midnightblue" stroke="midnightblue" points="423.994,-365.674 427.707,-355.751 418.617,-361.193 423.994,-365.674"/>
</g>
<!-- Node23 -->
<g id="node23" class="node"><title>Node23</title>
<g id="a_node23"><a xlink:href="communication_8hpp.html" target="_top" xlink:title="This file contains the asynchronous MPI communication. ">
<polygon fill="none" stroke="black" points="197.5,-280.5 197.5,-299.5 310.5,-299.5 310.5,-280.5 197.5,-280.5"/>
<text text-anchor="middle" x="254" y="-287.5" font-family="Helvetica,sans-Serif" font-size="10.00">communication.hpp</text>
</a>
</g>
</g>
<!-- Node1&#45;&gt;Node23 -->
<g id="edge30" class="edge"><title>Node1&#45;&gt;Node23</title>
<path fill="none" stroke="midnightblue" d="M379.328,-392.368C356.289,-373.733 301.64,-329.532 272.711,-306.134"/>
<polygon fill="midnightblue" stroke="midnightblue" points="274.598,-303.159 264.622,-299.591 270.196,-308.601 274.598,-303.159"/>
</g>
<!-- Node3 -->
<g id="node3" class="node"><title>Node3</title>
<g id="a_node3"><a xlink:href="utils_8hpp.html" target="_top" xlink:title="Small functions that are useful not only for one modul. ">
<polygon fill="none" stroke="black" points="417.5,-168.5 417.5,-187.5 476.5,-187.5 476.5,-168.5 417.5,-168.5"/>
<text text-anchor="middle" x="447" y="-175.5" font-family="Helvetica,sans-Serif" font-size="10.00">utils.hpp</text>
</a>
</g>
</g>
<!-- Node2&#45;&gt;Node3 -->
<g id="edge2" class="edge"><title>Node2&#45;&gt;Node3</title>
<path fill="none" stroke="midnightblue" d="M464.537,-342.039C490.861,-337.659 527.934,-326.818 546,-300 560.51,-278.46 535.069,-236.927 524,-224 511.991,-209.975 494.462,-199.252 479.161,-191.797"/>
<polygon fill="midnightblue" stroke="midnightblue" points="480.539,-188.579 469.992,-187.578 477.613,-194.938 480.539,-188.579"/>
</g>
<!-- Node14 -->
<g id="node14" class="node"><title>Node14</title>
<g id="a_node14"><a xlink:href="errorhandling_8hpp.html" target="_top" xlink:title="This file contains the errorhandling code for severe errors, like a broken bond or illegal parameter ...">
<polygon fill="none" stroke="black" points="703.5,-112.5 703.5,-131.5 806.5,-131.5 806.5,-112.5 703.5,-112.5"/>
<text text-anchor="middle" x="755" y="-119.5" font-family="Helvetica,sans-Serif" font-size="10.00">errorhandling.hpp</text>
</a>
</g>
</g>
<!-- Node2&#45;&gt;Node14 -->
<g id="edge29" class="edge"><title>Node2&#45;&gt;Node14</title>
<path fill="none" stroke="midnightblue" d="M464.701,-338.232C491.647,-331.263 531.812,-318.755 563,-300 639.648,-253.907 712.185,-173.74 741.428,-139.389"/>
<polygon fill="midnightblue" stroke="midnightblue" points="744.145,-141.597 747.906,-131.692 738.789,-137.089 744.145,-141.597"/>
</g>
<!-- Node20 -->
<g id="node20" class="node"><title>Node20</title>
<g id="a_node20"><a xlink:href="interaction__data_8hpp.html" target="_top" xlink:title="Various procedures concerning interactions between particles. ">
<polygon fill="none" stroke="black" points="420.5,-280.5 420.5,-299.5 537.5,-299.5 537.5,-280.5 420.5,-280.5"/>
<text text-anchor="middle" x="479" y="-287.5" font-family="Helvetica,sans-Serif" font-size="10.00">interaction_data.hpp</text>
</a>
</g>
</g>
<!-- Node2&#45;&gt;Node20 -->
<g id="edge22" class="edge"><title>Node2&#45;&gt;Node20</title>
<path fill="none" stroke="midnightblue" d="M442.266,-336.083C448.545,-328.377 457.788,-317.033 465.431,-307.653"/>
<polygon fill="midnightblue" stroke="midnightblue" points="468.266,-309.714 471.869,-299.751 462.839,-305.293 468.266,-309.714"/>
</g>
<!-- Node21 -->
<g id="node21" class="node"><title>Node21</title>
<g id="a_node21"><a xlink:href="particle__data_8hpp.html" target="_top" xlink:title="For more information on particle_data, see particle_data.c. ">
<polygon fill="none" stroke="black" points="398.5,-224.5 398.5,-243.5 499.5,-243.5 499.5,-224.5 398.5,-224.5"/>
<text text-anchor="middle" x="449" y="-231.5" font-family="Helvetica,sans-Serif" font-size="10.00">particle_data.hpp</text>
</a>
</g>
</g>
<!-- Node2&#45;&gt;Node21 -->
<g id="edge26" class="edge"><title>Node2&#45;&gt;Node21</title>
<path fill="none" stroke="midnightblue" d="M427.625,-336.175C418.121,-323.679 403.645,-300.11 411,-280 415.057,-268.908 423.188,-258.665 430.891,-250.763"/>
<polygon fill="midnightblue" stroke="midnightblue" points="433.475,-253.135 438.286,-243.695 428.638,-248.075 433.475,-253.135"/>
</g>
<!-- Node22 -->
<g id="node22" class="node"><title>Node22</title>
<g id="a_node22"><a xlink:href="random_8hpp.html" target="_top" xlink:title="A random generator. ">
<polygon fill="none" stroke="black" points="305.5,-224.5 305.5,-243.5 380.5,-243.5 380.5,-224.5 305.5,-224.5"/>
<text text-anchor="middle" x="343" y="-231.5" font-family="Helvetica,sans-Serif" font-size="10.00">random.hpp</text>
</a>
</g>
</g>
<!-- Node2&#45;&gt;Node22 -->
<g id="edge27" class="edge"><title>Node2&#45;&gt;Node22</title>
<path fill="none" stroke="midnightblue" d="M427.781,-336.368C412.464,-318.055 376.495,-275.049 356.685,-251.362"/>
<polygon fill="midnightblue" stroke="midnightblue" points="359.286,-249.017 350.186,-243.591 353.916,-253.508 359.286,-249.017"/>
</g>
<!-- Node4 -->
<g id="node4" class="node"><title>Node4</title>
<polygon fill="none" stroke="#bfbfbf" points="638.5,-112.5 638.5,-131.5 685.5,-131.5 685.5,-112.5 638.5,-112.5"/>
<text text-anchor="middle" x="662" y="-119.5" font-family="Helvetica,sans-Serif" font-size="10.00">cmath</text>
</g>
<!-- Node3&#45;&gt;Node4 -->
<g id="edge3" class="edge"><title>Node3&#45;&gt;Node4</title>
<path fill="none" stroke="midnightblue" d="M476.552,-170.051C510.883,-161.908 569.461,-147.803 628.413,-132.362"/>
<polygon fill="midnightblue" stroke="midnightblue" points="629.478,-135.701 638.258,-129.772 627.697,-128.931 629.478,-135.701"/>
</g>
<!-- Node5 -->
<g id="node5" class="node"><title>Node5</title>
<polygon fill="none" stroke="#bfbfbf" points="195,-112.5 195,-131.5 241,-131.5 241,-112.5 195,-112.5"/>
<text text-anchor="middle" x="218" y="-119.5" font-family="Helvetica,sans-Serif" font-size="10.00">cstdio</text>
</g>
<!-- Node3&#45;&gt;Node5 -->
<g id="edge4" class="edge"><title>Node3&#45;&gt;Node5</title>
<path fill="none" stroke="midnightblue" d="M417.186,-170.672C380.393,-162.758 315.701,-148.502 250.996,-132.159"/>
<polygon fill="midnightblue" stroke="midnightblue" points="251.589,-128.698 241.035,-129.626 249.864,-135.482 251.589,-128.698"/>
</g>
<!-- Node6 -->
<g id="node6" class="node"><title>Node6</title>
<polygon fill="none" stroke="#bfbfbf" points="259.5,-112.5 259.5,-131.5 308.5,-131.5 308.5,-112.5 259.5,-112.5"/>
<text text-anchor="middle" x="284" y="-119.5" font-family="Helvetica,sans-Serif" font-size="10.00">cstdlib</text>
</g>
<!-- Node3&#45;&gt;Node6 -->
<g id="edge5" class="edge"><title>Node3&#45;&gt;Node6</title>
<path fill="none" stroke="midnightblue" d="M421.172,-168.444C393.428,-159.252 349.196,-144.599 318.491,-134.426"/>
<polygon fill="midnightblue" stroke="midnightblue" points="319.233,-130.985 308.64,-131.163 317.032,-137.63 319.233,-130.985"/>
</g>
<!-- Node7 -->
<g id="node7" class="node"><title>Node7</title>
<polygon fill="none" stroke="#bfbfbf" points="327,-112.5 327,-131.5 377,-131.5 377,-112.5 327,-112.5"/>
<text text-anchor="middle" x="352" y="-119.5" font-family="Helvetica,sans-Serif" font-size="10.00">cstring</text>
</g>
<!-- Node3&#45;&gt;Node7 -->
<g id="edge6" class="edge"><title>Node3&#45;&gt;Node7</title>
<path fill="none" stroke="midnightblue" d="M431.737,-168.324C416.779,-159.822 393.745,-146.729 376.273,-136.797"/>
<polygon fill="midnightblue" stroke="midnightblue" points="377.649,-133.553 367.226,-131.655 374.19,-139.639 377.649,-133.553"/>
</g>
<!-- Node8 -->
<g id="node8" class="node"><title>Node8</title>
<g id="a_node8"><a xlink:href="config_8hpp.html" target="_top" xlink:title="This file contains the defaults for Espresso. ">
<polygon fill="none" stroke="black" points="413.5,-56.5 413.5,-75.5 480.5,-75.5 480.5,-56.5 413.5,-56.5"/>
<text text-anchor="middle" x="447" y="-63.5" font-family="Helvetica,sans-Serif" font-size="10.00">config.hpp</text>
</a>
</g>
</g>
<!-- Node3&#45;&gt;Node8 -->
<g id="edge7" class="edge"><title>Node3&#45;&gt;Node8</title>
<path fill="none" stroke="midnightblue" d="M466.906,-168.41C481.225,-161.04 499.458,-148.916 508,-132 518.512,-111.182 495.51,-92.3491 474.808,-80.3785"/>
<polygon fill="midnightblue" stroke="midnightblue" points="476.342,-77.229 465.884,-75.5308 473.001,-83.38 476.342,-77.229"/>
</g>
<!-- Node12 -->
<g id="node12" class="node"><title>Node12</title>
<g id="a_node12"><a xlink:href="debug_8hpp.html" target="_top" xlink:title="This file controls debug facilities. ">
<polygon fill="none" stroke="black" points="109,-112.5 109,-131.5 177,-131.5 177,-112.5 109,-112.5"/>
<text text-anchor="middle" x="143" y="-119.5" font-family="Helvetica,sans-Serif" font-size="10.00">debug.hpp</text>
</a>
</g>
</g>
<!-- Node3&#45;&gt;Node12 -->
<g id="edge11" class="edge"><title>Node3&#45;&gt;Node12</title>
<path fill="none" stroke="midnightblue" d="M417.19,-172.215C370.405,-164.628 276.653,-149.117 187.276,-132.191"/>
<polygon fill="midnightblue" stroke="midnightblue" points="187.724,-128.714 177.246,-130.282 186.415,-135.59 187.724,-128.714"/>
</g>
<!-- Node13 -->
<g id="node13" class="node"><title>Node13</title>
<g id="a_node13"><a xlink:href="lees__edwards_8hpp.html" target="_top" xlink:title="lees_edwards.hpp">
<polygon fill="none" stroke="black" points="395,-112.5 395,-131.5 499,-131.5 499,-112.5 395,-112.5"/>
<text text-anchor="middle" x="447" y="-119.5" font-family="Helvetica,sans-Serif" font-size="10.00">lees_edwards.hpp</text>
</a>
</g>
</g>
<!-- Node3&#45;&gt;Node13 -->
<g id="edge13" class="edge"><title>Node3&#45;&gt;Node13</title>
<path fill="none" stroke="midnightblue" d="M447,-168.083C447,-161.006 447,-150.861 447,-141.986"/>
<polygon fill="midnightblue" stroke="midnightblue" points="450.5,-141.751 447,-131.751 443.5,-141.751 450.5,-141.751"/>
</g>
<!-- Node3&#45;&gt;Node14 -->
<g id="edge15" class="edge"><title>Node3&#45;&gt;Node14</title>
<path fill="none" stroke="midnightblue" d="M476.532,-171.822C526.983,-162.977 630.666,-144.799 696.298,-133.292"/>
<polygon fill="midnightblue" stroke="midnightblue" points="697.246,-136.679 706.491,-131.505 696.037,-129.784 697.246,-136.679"/>
</g>
<!-- Node18 -->
<g id="node18" class="node"><title>Node18</title>
<polygon fill="none" stroke="#bfbfbf" points="43.5,-112.5 43.5,-131.5 90.5,-131.5 90.5,-112.5 43.5,-112.5"/>
<text text-anchor="middle" x="67" y="-119.5" font-family="Helvetica,sans-Serif" font-size="10.00">vector</text>
</g>
<!-- Node3&#45;&gt;Node18 -->
<g id="edge20" class="edge"><title>Node3&#45;&gt;Node18</title>
<path fill="none" stroke="midnightblue" d="M417.068,-174.514C358.281,-169.333 223.508,-155.985 100.653,-131.865"/>
<polygon fill="midnightblue" stroke="midnightblue" points="101.191,-128.404 90.7002,-129.882 99.8234,-135.269 101.191,-128.404"/>
</g>
<!-- Node19 -->
<g id="node19" class="node"><title>Node19</title>
<polygon fill="none" stroke="#bfbfbf" points="555.5,-112.5 555.5,-131.5 620.5,-131.5 620.5,-112.5 555.5,-112.5"/>
<text text-anchor="middle" x="588" y="-119.5" font-family="Helvetica,sans-Serif" font-size="10.00">exception</text>
</g>
<!-- Node3&#45;&gt;Node19 -->
<g id="edge21" class="edge"><title>Node3&#45;&gt;Node19</title>
<path fill="none" stroke="midnightblue" d="M469.342,-168.444C492.753,-159.478 529.736,-145.314 556.19,-135.183"/>
<polygon fill="midnightblue" stroke="midnightblue" points="557.676,-138.361 565.763,-131.516 555.172,-131.824 557.676,-138.361"/>
</g>
<!-- Node9 -->
<g id="node9" class="node"><title>Node9</title>
<g id="a_node9"><a xlink:href="acconfig_8hpp.html" target="_top" xlink:title="acconfig.hpp">
<polygon fill="none" stroke="black" points="297,-0.5 297,-19.5 375,-19.5 375,-0.5 297,-0.5"/>
<text text-anchor="middle" x="336" y="-7.5" font-family="Helvetica,sans-Serif" font-size="10.00">acconfig.hpp</text>
</a>
</g>
</g>
<!-- Node8&#45;&gt;Node9 -->
<g id="edge8" class="edge"><title>Node8&#45;&gt;Node9</title>
<path fill="none" stroke="midnightblue" d="M429.166,-56.324C411.284,-47.6247 383.525,-34.1202 362.954,-24.113"/>
<polygon fill="midnightblue" stroke="midnightblue" points="364.313,-20.8819 353.79,-19.6545 361.251,-27.1765 364.313,-20.8819"/>
</g>
<!-- Node10 -->
<g id="node10" class="node"><title>Node10</title>
<g id="a_node10"><a xlink:href="myconfig-final_8hpp.html" target="_top" xlink:title="myconfig&#45;final.hpp">
<polygon fill="none" stroke="black" points="393.5,-0.5 393.5,-19.5 500.5,-19.5 500.5,-0.5 393.5,-0.5"/>
<text text-anchor="middle" x="447" y="-7.5" font-family="Helvetica,sans-Serif" font-size="10.00">myconfig&#45;final.hpp</text>
</a>
</g>
</g>
<!-- Node8&#45;&gt;Node10 -->
<g id="edge9" class="edge"><title>Node8&#45;&gt;Node10</title>
<path fill="none" stroke="midnightblue" d="M447,-56.083C447,-49.0059 447,-38.8611 447,-29.9865"/>
<polygon fill="midnightblue" stroke="midnightblue" points="450.5,-29.751 447,-19.7511 443.5,-29.7511 450.5,-29.751"/>
</g>
<!-- Node11 -->
<g id="node11" class="node"><title>Node11</title>
<g id="a_node11"><a xlink:href="config-features_8hpp.html" target="_top" xlink:title="config&#45;features.hpp">
<polygon fill="none" stroke="black" points="518.5,-0.5 518.5,-19.5 629.5,-19.5 629.5,-0.5 518.5,-0.5"/>
<text text-anchor="middle" x="574" y="-7.5" font-family="Helvetica,sans-Serif" font-size="10.00">config&#45;features.hpp</text>
</a>
</g>
</g>
<!-- Node8&#45;&gt;Node11 -->
<g id="edge10" class="edge"><title>Node8&#45;&gt;Node11</title>
<path fill="none" stroke="midnightblue" d="M467.124,-56.4435C488.024,-47.5566 520.935,-33.5632 544.716,-23.4514"/>
<polygon fill="midnightblue" stroke="midnightblue" points="546.138,-26.6504 553.971,-19.5164 543.398,-20.2085 546.138,-26.6504"/>
</g>
<!-- Node12&#45;&gt;Node8 -->
<g id="edge12" class="edge"><title>Node12&#45;&gt;Node8</title>
<path fill="none" stroke="midnightblue" d="M177.246,-113.718C180.204,-113.123 183.153,-112.543 186,-112 262.218,-97.4579 351.363,-82.5342 403.274,-74.0508"/>
<polygon fill="midnightblue" stroke="midnightblue" points="403.838,-77.5051 413.145,-72.442 402.712,-70.5963 403.838,-77.5051"/>
</g>
<!-- Node13&#45;&gt;Node8 -->
<g id="edge14" class="edge"><title>Node13&#45;&gt;Node8</title>
<path fill="none" stroke="midnightblue" d="M447,-112.083C447,-105.006 447,-94.8611 447,-85.9865"/>
<polygon fill="midnightblue" stroke="midnightblue" points="450.5,-85.751 447,-75.7511 443.5,-85.7511 450.5,-85.751"/>
</g>
<!-- Node14&#45;&gt;Node8 -->
<g id="edge16" class="edge"><title>Node14&#45;&gt;Node8</title>
<path fill="none" stroke="midnightblue" d="M706.196,-112.444C646.953,-102.057 547.924,-84.6944 490.956,-74.7066"/>
<polygon fill="midnightblue" stroke="midnightblue" points="491.282,-71.2104 480.827,-72.9308 490.073,-78.1052 491.282,-71.2104"/>
</g>
<!-- Node15 -->
<g id="node15" class="node"><title>Node15</title>
<polygon fill="none" stroke="#bfbfbf" points="665,-56.5 665,-75.5 709,-75.5 709,-56.5 665,-56.5"/>
<text text-anchor="middle" x="687" y="-63.5" font-family="Helvetica,sans-Serif" font-size="10.00">string</text>
</g>
<!-- Node14&#45;&gt;Node15 -->
<g id="edge17" class="edge"><title>Node14&#45;&gt;Node15</title>
<path fill="none" stroke="midnightblue" d="M744.075,-112.324C733.825,-104.185 718.279,-91.8395 705.999,-82.0874"/>
<polygon fill="midnightblue" stroke="midnightblue" points="708.132,-79.3119 698.124,-75.8339 703.779,-84.7937 708.132,-79.3119"/>
</g>
<!-- Node16 -->
<g id="node16" class="node"><title>Node16</title>
<polygon fill="none" stroke="#bfbfbf" points="727,-56.5 727,-75.5 783,-75.5 783,-56.5 727,-56.5"/>
<text text-anchor="middle" x="755" y="-63.5" font-family="Helvetica,sans-Serif" font-size="10.00">sstream</text>
</g>
<!-- Node14&#45;&gt;Node16 -->
<g id="edge18" class="edge"><title>Node14&#45;&gt;Node16</title>
<path fill="none" stroke="midnightblue" d="M755,-112.083C755,-105.006 755,-94.8611 755,-85.9865"/>
<polygon fill="midnightblue" stroke="midnightblue" points="758.5,-85.751 755,-75.7511 751.5,-85.7511 758.5,-85.751"/>
</g>
<!-- Node17 -->
<g id="node17" class="node"><title>Node17</title>
<polygon fill="none" stroke="#bfbfbf" points="801,-56.5 801,-75.5 833,-75.5 833,-56.5 801,-56.5"/>
<text text-anchor="middle" x="817" y="-63.5" font-family="Helvetica,sans-Serif" font-size="10.00">list</text>
</g>
<!-- Node14&#45;&gt;Node17 -->
<g id="edge19" class="edge"><title>Node14&#45;&gt;Node17</title>
<path fill="none" stroke="midnightblue" d="M764.961,-112.324C774.127,-104.341 787.937,-92.3128 799.028,-82.6529"/>
<polygon fill="midnightblue" stroke="midnightblue" points="801.615,-85.041 806.857,-75.8339 797.018,-79.7624 801.615,-85.041"/>
</g>
<!-- Node20&#45;&gt;Node3 -->
<g id="edge23" class="edge"><title>Node20&#45;&gt;Node3</title>
<path fill="none" stroke="midnightblue" d="M487.801,-280.465C499.616,-267.924 518.026,-243.855 508,-224 501.193,-210.52 488.232,-200.083 476.002,-192.67"/>
<polygon fill="midnightblue" stroke="midnightblue" points="477.343,-189.41 466.906,-187.59 473.93,-195.521 477.343,-189.41"/>
</g>
<!-- Node20&#45;&gt;Node21 -->
<g id="edge24" class="edge"><title>Node20&#45;&gt;Node21</title>
<path fill="none" stroke="midnightblue" d="M474.046,-280.083C469.896,-272.613 463.847,-261.724 458.733,-252.52"/>
<polygon fill="midnightblue" stroke="midnightblue" points="461.778,-250.793 453.862,-243.751 455.659,-254.192 461.778,-250.793"/>
</g>
<!-- Node21&#45;&gt;Node3 -->
<g id="edge25" class="edge"><title>Node21&#45;&gt;Node3</title>
<path fill="none" stroke="midnightblue" d="M448.67,-224.083C448.408,-217.006 448.032,-206.861 447.703,-197.986"/>
<polygon fill="midnightblue" stroke="midnightblue" points="451.192,-197.615 447.324,-187.751 444.197,-197.874 451.192,-197.615"/>
</g>
<!-- Node22&#45;&gt;Node3 -->
<g id="edge28" class="edge"><title>Node22&#45;&gt;Node3</title>
<path fill="none" stroke="midnightblue" d="M359.709,-224.324C376.312,-215.703 402.002,-202.364 421.22,-192.386"/>
<polygon fill="midnightblue" stroke="midnightblue" points="423.07,-195.369 430.332,-187.655 419.844,-189.156 423.07,-195.369"/>
</g>
<!-- Node23&#45;&gt;Node21 -->
<g id="edge31" class="edge"><title>Node23&#45;&gt;Node21</title>
<path fill="none" stroke="midnightblue" d="M284.898,-280.444C318.274,-271.201 371.594,-256.436 408.349,-246.257"/>
<polygon fill="midnightblue" stroke="midnightblue" points="409.543,-249.558 418.246,-243.516 407.675,-242.812 409.543,-249.558"/>
</g>
<!-- Node23&#45;&gt;Node22 -->
<g id="edge32" class="edge"><title>Node23&#45;&gt;Node22</title>
<path fill="none" stroke="midnightblue" d="M268.299,-280.324C282.183,-271.9 303.492,-258.971 319.804,-249.074"/>
<polygon fill="midnightblue" stroke="midnightblue" points="322.002,-251.834 328.736,-243.655 318.371,-245.85 322.002,-251.834"/>
</g>
<!-- Node24 -->
<g id="node24" class="node"><title>Node24</title>
<g id="a_node24"><a xlink:href="topology_8hpp.html" target="_top" xlink:title="This file contains functions for handling the system topology. ">
<polygon fill="none" stroke="black" points="208.5,-224.5 208.5,-243.5 287.5,-243.5 287.5,-224.5 208.5,-224.5"/>
<text text-anchor="middle" x="248" y="-231.5" font-family="Helvetica,sans-Serif" font-size="10.00">topology.hpp</text>
</a>
</g>
</g>
<!-- Node23&#45;&gt;Node24 -->
<g id="edge33" class="edge"><title>Node23&#45;&gt;Node24</title>
<path fill="none" stroke="midnightblue" d="M253.009,-280.083C252.214,-272.927 251.071,-262.635 250.077,-253.691"/>
<polygon fill="midnightblue" stroke="midnightblue" points="253.555,-253.303 248.972,-243.751 246.598,-254.076 253.555,-253.303"/>
</g>
<!-- Node25 -->
<g id="node25" class="node"><title>Node25</title>
<g id="a_node25"><a xlink:href="mpi_8h.html" target="_top" xlink:title="This is the MPIfake implementation. ">
<polygon fill="none" stroke="black" points="147,-224.5 147,-243.5 191,-243.5 191,-224.5 147,-224.5"/>
<text text-anchor="middle" x="169" y="-231.5" font-family="Helvetica,sans-Serif" font-size="10.00">mpi.h</text>
</a>
</g>
</g>
<!-- Node23&#45;&gt;Node25 -->
<g id="edge35" class="edge"><title>Node23&#45;&gt;Node25</title>
<path fill="none" stroke="midnightblue" d="M240.343,-280.324C227.084,-271.9 206.732,-258.971 191.154,-249.074"/>
<polygon fill="midnightblue" stroke="midnightblue" points="192.94,-246.063 182.623,-243.655 189.187,-251.971 192.94,-246.063"/>
</g>
<!-- Node29 -->
<g id="node29" class="node"><title>Node29</title>
<g id="a_node29"><a xlink:href="cuda__init_8hpp.html" target="_top" xlink:title="cuda_init.hpp">
<polygon fill="none" stroke="black" points="0,-168.5 0,-187.5 82,-187.5 82,-168.5 0,-168.5"/>
<text text-anchor="middle" x="41" y="-175.5" font-family="Helvetica,sans-Serif" font-size="10.00">cuda_init.hpp</text>
</a>
</g>
</g>
<!-- Node23&#45;&gt;Node29 -->
<g id="edge39" class="edge"><title>Node23&#45;&gt;Node29</title>
<path fill="none" stroke="midnightblue" d="M227.011,-280.423C203.021,-272.36 167.312,-259.268 138,-244 109.597,-229.205 79.3095,-207.917 60.28,-193.784"/>
<polygon fill="midnightblue" stroke="midnightblue" points="62.2341,-190.874 52.1381,-187.661 58.0271,-196.469 62.2341,-190.874"/>
</g>
<!-- Node24&#45;&gt;Node3 -->
<g id="edge34" class="edge"><title>Node24&#45;&gt;Node3</title>
<path fill="none" stroke="midnightblue" d="M279.532,-224.444C314.093,-215.065 369.611,-200 407.159,-189.811"/>
<polygon fill="midnightblue" stroke="midnightblue" points="408.506,-193.072 417.24,-187.075 406.673,-186.317 408.506,-193.072"/>
</g>
<!-- Node26 -->
<g id="node26" class="node"><title>Node26</title>
<polygon fill="none" stroke="#bfbfbf" points="171.5,-168.5 171.5,-187.5 224.5,-187.5 224.5,-168.5 171.5,-168.5"/>
<text text-anchor="middle" x="198" y="-175.5" font-family="Helvetica,sans-Serif" font-size="10.00">string.h</text>
</g>
<!-- Node25&#45;&gt;Node26 -->
<g id="edge36" class="edge"><title>Node25&#45;&gt;Node26</title>
<path fill="none" stroke="midnightblue" d="M173.789,-224.083C177.758,-216.691 183.525,-205.953 188.435,-196.811"/>
<polygon fill="midnightblue" stroke="midnightblue" points="191.653,-198.217 193.3,-187.751 185.486,-194.905 191.653,-198.217"/>
</g>
<!-- Node27 -->
<g id="node27" class="node"><title>Node27</title>
<polygon fill="none" stroke="#bfbfbf" points="243,-168.5 243,-187.5 293,-187.5 293,-168.5 243,-168.5"/>
<text text-anchor="middle" x="268" y="-175.5" font-family="Helvetica,sans-Serif" font-size="10.00">stdio.h</text>
</g>
<!-- Node25&#45;&gt;Node27 -->
<g id="edge37" class="edge"><title>Node25&#45;&gt;Node27</title>
<path fill="none" stroke="midnightblue" d="M184.906,-224.324C200.638,-215.743 224.942,-202.486 243.209,-192.522"/>
<polygon fill="midnightblue" stroke="midnightblue" points="245.03,-195.516 252.133,-187.655 241.678,-189.37 245.03,-195.516"/>
</g>
<!-- Node28 -->
<g id="node28" class="node"><title>Node28</title>
<polygon fill="none" stroke="#bfbfbf" points="100.5,-168.5 100.5,-187.5 153.5,-187.5 153.5,-168.5 100.5,-168.5"/>
<text text-anchor="middle" x="127" y="-175.5" font-family="Helvetica,sans-Serif" font-size="10.00">stdlib.h</text>
</g>
<!-- Node25&#45;&gt;Node28 -->
<g id="edge38" class="edge"><title>Node25&#45;&gt;Node28</title>
<path fill="none" stroke="midnightblue" d="M162.065,-224.083C156.071,-216.377 147.248,-205.033 139.952,-195.653"/>
<polygon fill="midnightblue" stroke="midnightblue" points="142.709,-193.496 133.806,-187.751 137.183,-197.793 142.709,-193.496"/>
</g>
<!-- Node29&#45;&gt;Node8 -->
<g id="edge40" class="edge"><title>Node29&#45;&gt;Node8</title>
<path fill="none" stroke="midnightblue" d="M36.3412,-168.157C29.7724,-154.324 20.0555,-127.546 34,-112 58.3322,-84.8725 301.638,-72.5313 403.017,-68.5369"/>
<polygon fill="midnightblue" stroke="midnightblue" points="403.373,-72.0259 413.231,-68.1439 403.104,-65.0311 403.373,-72.0259"/>
</g>
<!-- Node29&#45;&gt;Node18 -->
<g id="edge41" class="edge"><title>Node29&#45;&gt;Node18</title>
<path fill="none" stroke="midnightblue" d="M45.2934,-168.083C48.8523,-160.691 54.0225,-149.953 58.4243,-140.811"/>
<polygon fill="midnightblue" stroke="midnightblue" points="61.6018,-142.279 62.7865,-131.751 55.2948,-139.243 61.6018,-142.279"/>
</g>
</g>
</svg>
