<?xml version="1.0" encoding="UTF-8" standalone="no"?>
<!DOCTYPE svg PUBLIC "-//W3C//DTD SVG 1.1//EN"
 "http://www.w3.org/Graphics/SVG/1.1/DTD/svg11.dtd">
<!-- Generated by graphviz version 2.38.0 (20140413.2041)
 -->
<!-- Title: fft&#45;dipolar.hpp Pages: 1 -->
<svg width="206pt" height="84pt"
 viewBox="0.00 0.00 205.50 84.00" xmlns="http://www.w3.org/2000/svg" xmlns:xlink="http://www.w3.org/1999/xlink">
<g id="graph0" class="graph" transform="scale(1 1) rotate(0) translate(4 80)">
<title>fft&#45;dipolar.hpp</title>
<!-- Node1 -->
<g id="node1" class="node"><title>Node1</title>
<polygon fill="#bfbfbf" stroke="black" points="53.5,-56.5 53.5,-75.5 138.5,-75.5 138.5,-56.5 53.5,-56.5"/>
<text text-anchor="middle" x="96" y="-63.5" font-family="Helvetica,sans-Serif" font-size="10.00">fft&#45;dipolar.hpp</text>
</g>
<!-- Node2 -->
<g id="node2" class="node"><title>Node2</title>
<g id="a_node2"><a xlink:href="fft-dipolar_8cpp.html" target="_top" xlink:title="fft&#45;dipolar.cpp">
<polygon fill="none" stroke="black" points="0,-0.5 0,-19.5 84,-19.5 84,-0.5 0,-0.5"/>
<text text-anchor="middle" x="42" y="-7.5" font-family="Helvetica,sans-Serif" font-size="10.00">fft&#45;dipolar.cpp</text>
</a>
</g>
</g>
<!-- Node1&#45;&gt;Node2 -->
<g id="edge1" class="edge"><title>Node1&#45;&gt;Node2</title>
<path fill="none" stroke="midnightblue" d="M80.0024,-49.0024C70.4329,-39.4329 58.6389,-27.6389 50.7511,-19.7511"/>
<polygon fill="midnightblue" stroke="midnightblue" points="77.537,-51.4868 87.083,-56.083 82.4868,-46.537 77.537,-51.4868"/>
</g>
<!-- Node3 -->
<g id="node3" class="node"><title>Node3</title>
<g id="a_node3"><a xlink:href="p3m-dipolar_8cpp.html" target="_top" xlink:title="P3M algorithm for long range magnetic dipole&#45;dipole interaction. ">
<polygon fill="none" stroke="black" points="102.5,-0.5 102.5,-19.5 197.5,-19.5 197.5,-0.5 102.5,-0.5"/>
<text text-anchor="middle" x="150" y="-7.5" font-family="Helvetica,sans-Serif" font-size="10.00">p3m&#45;dipolar.cpp</text>
</a>
</g>
</g>
<!-- Node1&#45;&gt;Node3 -->
<g id="edge2" class="edge"><title>Node1&#45;&gt;Node3</title>
<path fill="none" stroke="midnightblue" d="M111.998,-49.0024C121.567,-39.4329 133.361,-27.6389 141.249,-19.7511"/>
<polygon fill="midnightblue" stroke="midnightblue" points="109.513,-46.537 104.917,-56.083 114.463,-51.4868 109.513,-46.537"/>
</g>
</g>
</svg>
