<?xml version="1.0" encoding="UTF-8" standalone="no"?>
<!DOCTYPE svg PUBLIC "-//W3C//DTD SVG 1.1//EN"
 "http://www.w3.org/Graphics/SVG/1.1/DTD/svg11.dtd">
<!-- Generated by graphviz version 2.38.0 (20140413.2041)
 -->
<!-- Title: fft.hpp Pages: 1 -->
<svg width="132pt" height="84pt"
 viewBox="0.00 0.00 132.00 84.00" xmlns="http://www.w3.org/2000/svg" xmlns:xlink="http://www.w3.org/1999/xlink">
<g id="graph0" class="graph" transform="scale(1 1) rotate(0) translate(4 80)">
<title>fft.hpp</title>
<!-- Node1 -->
<g id="node1" class="node"><title>Node1</title>
<polygon fill="#bfbfbf" stroke="black" points="34.5,-56.5 34.5,-75.5 82.5,-75.5 82.5,-56.5 34.5,-56.5"/>
<text text-anchor="middle" x="58.5" y="-63.5" font-family="Helvetica,sans-Serif" font-size="10.00">fft.hpp</text>
</g>
<!-- Node2 -->
<g id="node2" class="node"><title>Node2</title>
<g id="a_node2"><a xlink:href="fft_8cpp.html" target="_top" xlink:title="Routines, row decomposition, data structures and communication for the 3D&#45;FFT. ">
<polygon fill="none" stroke="black" points="0,-0.5 0,-19.5 47,-19.5 47,-0.5 0,-0.5"/>
<text text-anchor="middle" x="23.5" y="-7.5" font-family="Helvetica,sans-Serif" font-size="10.00">fft.cpp</text>
</a>
</g>
</g>
<!-- Node1&#45;&gt;Node2 -->
<g id="edge1" class="edge"><title>Node1&#45;&gt;Node2</title>
<path fill="none" stroke="midnightblue" d="M47.1999,-47.5656C41.1781,-38.2747 34.0314,-27.2484 29.172,-19.7511"/>
<polygon fill="midnightblue" stroke="midnightblue" points="44.3444,-49.5951 52.7205,-56.083 50.2185,-45.7878 44.3444,-49.5951"/>
</g>
<!-- Node3 -->
<g id="node3" class="node"><title>Node3</title>
<g id="a_node3"><a xlink:href="p3m_8cpp.html" target="_top" xlink:title="p3m.cpp">
<polygon fill="none" stroke="black" points="65,-0.5 65,-19.5 124,-19.5 124,-0.5 65,-0.5"/>
<text text-anchor="middle" x="94.5" y="-7.5" font-family="Helvetica,sans-Serif" font-size="10.00">p3m.cpp</text>
</a>
</g>
</g>
<!-- Node1&#45;&gt;Node3 -->
<g id="edge2" class="edge"><title>Node1&#45;&gt;Node3</title>
<path fill="none" stroke="midnightblue" d="M70.1229,-47.5656C76.3168,-38.2747 83.6677,-27.2484 88.6659,-19.7511"/>
<polygon fill="midnightblue" stroke="midnightblue" points="67.0795,-45.821 64.4447,-56.083 72.9039,-49.7039 67.0795,-45.821"/>
</g>
</g>
</svg>
