<?xml version="1.0" encoding="UTF-8" standalone="no"?>
<!DOCTYPE svg PUBLIC "-//W3C//DTD SVG 1.1//EN"
 "http://www.w3.org/Graphics/SVG/1.1/DTD/svg11.dtd">
<!-- Generated by graphviz version 2.38.0 (20140413.2041)
 -->
<!-- Title: forces.hpp Pages: 1 -->
<!--zoomable 218 -->
<svg id="main" version="1.1" xmlns="http://www.w3.org/2000/svg" xmlns:xlink="http://www.w3.org/1999/xlink" xml:space="preserve" onload="init(evt)">
<style type="text/css"><![CDATA[
.edge:hover path { stroke: red; }
.edge:hover polygon { stroke: red; fill: red; }
]]></style>
<script type="text/javascript"><![CDATA[
var edges = document.getElementsByTagName('g');
if (edges && edges.length) {
  for (var i=0;i<edges.length;i++) {
    if (edges[i].id.substr(0,4)=='edge') {
      edges[i].setAttribute('class','edge');
    }
  }
}
]]></script>
        <defs>
                <circle id="rim" cx="0" cy="0" r="7"/>
                <circle id="rim2" cx="0" cy="0" r="3.5"/>
                <g id="zoomPlus">
                        <use xlink:href="#rim" fill="#404040">
                                <set attributeName="fill" to="#808080" begin="zoomplus.mouseover" end="zoomplus.mouseout"/>
                        </use>
                        <path d="M-4,0h8M0,-4v8" fill="none" stroke="white" stroke-width="1.5" pointer-events="none"/>
                </g>
                <g id="zoomMin">
                        <use xlink:href="#rim" fill="#404040">
                                <set attributeName="fill" to="#808080" begin="zoomminus.mouseover" end="zoomminus.mouseout"/>
                        </use>
                        <path d="M-4,0h8" fill="none" stroke="white" stroke-width="1.5" pointer-events="none"/>
                </g>
                <g id="dirArrow">
                        <path fill="none" stroke="white" stroke-width="1.5" d="M0,-3.0v7 M-2.5,-0.5L0,-3.0L2.5,-0.5"/>
                </g>
               <g id="resetDef">
                       <use xlink:href="#rim2" fill="#404040">
                               <set attributeName="fill" to="#808080" begin="reset.mouseover" end="reset.mouseout"/>
                       </use>
               </g>
        </defs>

<script type="text/javascript">
var viewWidth = 2461;
var viewHeight = 218;
var sectionId = 'dynsection-1';
</script>
<script xlink:href="svgpan.js"/>
<svg id="graph" class="graph">
<g id="viewport">
<title>forces.hpp</title>
<!-- Node1 -->
<g id="node1" class="node"><title>Node1</title>
<polygon fill="#bfbfbf" stroke="black" points="1238,-190.5 1238,-209.5 1306,-209.5 1306,-190.5 1238,-190.5"/>
<text text-anchor="middle" x="1272" y="-197.5" font-family="Helvetica,sans-Serif" font-size="10.00">forces.hpp</text>
</g>
<!-- Node2 -->
<g id="node2" class="node"><title>Node2</title>
<g id="a_node2"><a xlink:href="HarmonicOrientationWell_8cpp.html" target="_top" xlink:title="HarmonicOrientationWell.cpp">
<polygon fill="none" stroke="black" points="0,-129 0,-148 160,-148 160,-129 0,-129"/>
<text text-anchor="middle" x="80" y="-136" font-family="Helvetica,sans-Serif" font-size="10.00">HarmonicOrientationWell.cpp</text>
</a>
</g>
</g>
<!-- Node1&#45;&gt;Node2 -->
<g id="edge1" class="edge"><title>Node1&#45;&gt;Node2</title>
<path fill="none" stroke="midnightblue" d="M1227.41,-199.108C1077.57,-199.061 578.649,-195.573 169,-154 154.827,-152.562 139.484,-150.314 125.594,-148.013"/>
<polygon fill="midnightblue" stroke="midnightblue" points="1227.58,-202.608 1237.58,-199.106 1227.58,-195.608 1227.58,-202.608"/>
</g>
<!-- Node3 -->
<g id="node3" class="node"><title>Node3</title>
<g id="a_node3"><a xlink:href="HarmonicWell_8cpp.html" target="_top" xlink:title="HarmonicWell.cpp">
<polygon fill="none" stroke="black" points="178.5,-129 178.5,-148 283.5,-148 283.5,-129 178.5,-129"/>
<text text-anchor="middle" x="231" y="-136" font-family="Helvetica,sans-Serif" font-size="10.00">HarmonicWell.cpp</text>
</a>
</g>
</g>
<!-- Node1&#45;&gt;Node3 -->
<g id="edge2" class="edge"><title>Node1&#45;&gt;Node3</title>
<path fill="none" stroke="midnightblue" d="M1227.67,-198.069C1061.62,-194.411 476.532,-179.935 292,-154 282.083,-152.606 271.416,-150.342 261.818,-148.012"/>
<polygon fill="midnightblue" stroke="midnightblue" points="1227.92,-201.575 1237.99,-198.295 1228.07,-194.577 1227.92,-201.575"/>
</g>
<!-- Node4 -->
<g id="node4" class="node"><title>Node4</title>
<g id="a_node4"><a xlink:href="Mmm1dgpuForce_8cpp.html" target="_top" xlink:title="Mmm1dgpuForce.cpp">
<polygon fill="none" stroke="black" points="301.5,-129 301.5,-148 422.5,-148 422.5,-129 301.5,-129"/>
<text text-anchor="middle" x="362" y="-136" font-family="Helvetica,sans-Serif" font-size="10.00">Mmm1dgpuForce.cpp</text>
</a>
</g>
</g>
<!-- Node1&#45;&gt;Node4 -->
<g id="edge3" class="edge"><title>Node1&#45;&gt;Node4</title>
<path fill="none" stroke="midnightblue" d="M1227.32,-198.743C1102.11,-197.561 737.319,-190.946 437,-154 425.154,-152.543 412.367,-150.318 400.765,-148.045"/>
<polygon fill="midnightblue" stroke="midnightblue" points="1227.62,-202.246 1237.65,-198.833 1227.68,-195.246 1227.62,-202.246"/>
</g>
<!-- Node5 -->
<g id="node5" class="node"><title>Node5</title>
<g id="a_node5"><a xlink:href="communication_8cpp.html" target="_top" xlink:title="communication.cpp">
<polygon fill="none" stroke="black" points="194.5,-6 194.5,-25 307.5,-25 307.5,-6 194.5,-6"/>
<text text-anchor="middle" x="251" y="-13" font-family="Helvetica,sans-Serif" font-size="10.00">communication.cpp</text>
</a>
</g>
</g>
<!-- Node1&#45;&gt;Node5 -->
<g id="edge4" class="edge"><title>Node1&#45;&gt;Node5</title>
<path fill="none" stroke="midnightblue" d="M1227.61,-198.651C1088.06,-197.187 659.592,-189.817 526,-154 417.214,-124.833 300.937,-50.3374 263.42,-25.0485"/>
<polygon fill="midnightblue" stroke="midnightblue" points="1227.88,-202.153 1237.92,-198.753 1227.95,-195.154 1227.88,-202.153"/>
</g>
<!-- Node6 -->
<g id="node6" class="node"><title>Node6</title>
<g id="a_node6"><a xlink:href="iccp3m_8hpp.html" target="_top" xlink:title="ICCP3M is a method that allows to take into account the influence of arbitrarliy shaped dielectric in...">
<polygon fill="none" stroke="black" points="585.5,-129 585.5,-148 658.5,-148 658.5,-129 585.5,-129"/>
<text text-anchor="middle" x="622" y="-136" font-family="Helvetica,sans-Serif" font-size="10.00">iccp3m.hpp</text>
</a>
</g>
</g>
<!-- Node1&#45;&gt;Node6 -->
<g id="edge5" class="edge"><title>Node1&#45;&gt;Node6</title>
<path fill="none" stroke="midnightblue" d="M1227.85,-196.758C1132.44,-191.379 900.734,-176.494 708,-154 691.76,-152.105 674.032,-149.535 658.84,-147.086"/>
<polygon fill="midnightblue" stroke="midnightblue" points="1227.81,-200.262 1237.99,-197.323 1228.2,-193.273 1227.81,-200.262"/>
</g>
<!-- Node7 -->
<g id="node7" class="node"><title>Node7</title>
<g id="a_node7"><a xlink:href="iccp3m_8cpp.html" target="_top" xlink:title="Detailed Information about the method is included in the corresponding header file iccp3m...">
<polygon fill="none" stroke="black" points="447,-67.5 447,-86.5 519,-86.5 519,-67.5 447,-67.5"/>
<text text-anchor="middle" x="483" y="-74.5" font-family="Helvetica,sans-Serif" font-size="10.00">iccp3m.cpp</text>
</a>
</g>
</g>
<!-- Node1&#45;&gt;Node7 -->
<g id="edge41" class="edge"><title>Node1&#45;&gt;Node7</title>
<path fill="none" stroke="midnightblue" d="M1227.6,-199.605C1093.78,-200.886 696.255,-200.568 577,-154 539.076,-139.191 504.648,-103.182 490.197,-86.6082"/>
<polygon fill="midnightblue" stroke="midnightblue" points="1227.92,-203.102 1237.88,-199.498 1227.85,-196.102 1227.92,-203.102"/>
</g>
<!-- Node8 -->
<g id="node8" class="node"><title>Node8</title>
<g id="a_node8"><a xlink:href="initialize_8cpp.html" target="_top" xlink:title="Implementation of initialize.hpp. ">
<polygon fill="none" stroke="black" points="325.5,-6 325.5,-25 404.5,-25 404.5,-6 325.5,-6"/>
<text text-anchor="middle" x="365" y="-13" font-family="Helvetica,sans-Serif" font-size="10.00">initialize.cpp</text>
</a>
</g>
</g>
<!-- Node1&#45;&gt;Node8 -->
<g id="edge42" class="edge"><title>Node1&#45;&gt;Node8</title>
<path fill="none" stroke="midnightblue" d="M1227.47,-195.415C1164.89,-189.781 1047.63,-177.046 950,-154 859.173,-132.56 836.981,-123.282 751,-87 733.053,-79.4267 730.628,-72.6978 712,-67 584.005,-27.8496 544.002,-58.4563 413,-31 405.502,-29.4286 397.487,-27.2241 390.197,-25.0076"/>
<polygon fill="midnightblue" stroke="midnightblue" points="1227.5,-198.931 1237.77,-196.322 1228.12,-191.958 1227.5,-198.931"/>
</g>
<!-- Node10 -->
<g id="node10" class="node"><title>Node10</title>
<g id="a_node10"><a xlink:href="forces__inline_8hpp.html" target="_top" xlink:title="forces_inline.hpp">
<polygon fill="none" stroke="black" points="1142,-129 1142,-148 1242,-148 1242,-129 1142,-129"/>
<text text-anchor="middle" x="1192" y="-136" font-family="Helvetica,sans-Serif" font-size="10.00">forces_inline.hpp</text>
</a>
</g>
</g>
<!-- Node1&#45;&gt;Node10 -->
<g id="edge11" class="edge"><title>Node1&#45;&gt;Node10</title>
<path fill="none" stroke="midnightblue" d="M1252.23,-184.294C1236.88,-172.88 1216.14,-157.458 1203.44,-148.009"/>
<polygon fill="midnightblue" stroke="midnightblue" points="1250.43,-187.316 1260.54,-190.475 1254.6,-181.699 1250.43,-187.316"/>
</g>
<!-- Node12 -->
<g id="node12" class="node"><title>Node12</title>
<g id="a_node12"><a xlink:href="domain__decomposition_8cpp.html" target="_top" xlink:title="This file contains everything related to the cell system: domain decomposition. ">
<polygon fill="none" stroke="black" points="816.5,-6 816.5,-25 967.5,-25 967.5,-6 816.5,-6"/>
<text text-anchor="middle" x="892" y="-13" font-family="Helvetica,sans-Serif" font-size="10.00">domain_decomposition.cpp</text>
</a>
</g>
</g>
<!-- Node1&#45;&gt;Node12 -->
<g id="edge38" class="edge"><title>Node1&#45;&gt;Node12</title>
<path fill="none" stroke="midnightblue" d="M1227.68,-196.307C1182.11,-192.094 1110.07,-181.341 1054,-154 984.699,-120.21 920.577,-49.9462 899.369,-25.2853"/>
<polygon fill="midnightblue" stroke="midnightblue" points="1227.57,-199.81 1237.83,-197.178 1228.17,-192.836 1227.57,-199.81"/>
</g>
<!-- Node14 -->
<g id="node14" class="node"><title>Node14</title>
<g id="a_node14"><a xlink:href="core_2integrate_8cpp.html" target="_top" xlink:title="integrate.cpp">
<polygon fill="none" stroke="black" points="717.5,-6 717.5,-25 798.5,-25 798.5,-6 717.5,-6"/>
<text text-anchor="middle" x="758" y="-13" font-family="Helvetica,sans-Serif" font-size="10.00">integrate.cpp</text>
</a>
</g>
</g>
<!-- Node1&#45;&gt;Node14 -->
<g id="edge43" class="edge"><title>Node1&#45;&gt;Node14</title>
<path fill="none" stroke="midnightblue" d="M1227.6,-198.401C1172.1,-196.166 1075.25,-187.295 1000,-154 942.999,-128.779 944.177,-97.8244 890,-67 856.838,-48.1319 815.259,-33.553 787.725,-25.0143"/>
<polygon fill="midnightblue" stroke="midnightblue" points="1227.69,-201.906 1237.8,-198.755 1227.93,-194.91 1227.69,-201.906"/>
</g>
<!-- Node15 -->
<g id="node15" class="node"><title>Node15</title>
<g id="a_node15"><a xlink:href="integrate__sd_8cpp.html" target="_top" xlink:title="Stokesian dynamics integrator. ">
<polygon fill="none" stroke="black" points="2001,-6 2001,-25 2099,-25 2099,-6 2001,-6"/>
<text text-anchor="middle" x="2050" y="-13" font-family="Helvetica,sans-Serif" font-size="10.00">integrate_sd.cpp</text>
</a>
</g>
</g>
<!-- Node1&#45;&gt;Node15 -->
<g id="edge44" class="edge"><title>Node1&#45;&gt;Node15</title>
<path fill="none" stroke="midnightblue" d="M1290.81,-183.728C1330.59,-151.786 1422.65,-79.8137 1460,-67 1684.58,10.0474 1758.54,-68.4214 1993,-31 2002.08,-29.5516 2011.81,-27.3294 2020.63,-25.0566"/>
<polygon fill="midnightblue" stroke="midnightblue" points="1288.32,-181.243 1282.73,-190.245 1292.71,-186.693 1288.32,-181.243"/>
</g>
<!-- Node17 -->
<g id="node17" class="node"><title>Node17</title>
<g id="a_node17"><a xlink:href="layered_8cpp.html" target="_top" xlink:title="Implementation of layered.h. ">
<polygon fill="none" stroke="black" points="986,-6 986,-25 1060,-25 1060,-6 986,-6"/>
<text text-anchor="middle" x="1023" y="-13" font-family="Helvetica,sans-Serif" font-size="10.00">layered.cpp</text>
</a>
</g>
</g>
<!-- Node1&#45;&gt;Node17 -->
<g id="edge45" class="edge"><title>Node1&#45;&gt;Node17</title>
<path fill="none" stroke="midnightblue" d="M1227.52,-194.003C1168.7,-184.676 1067.63,-158.553 1026,-87 1014.54,-67.3048 1018.15,-39.0127 1020.98,-25.0131"/>
<polygon fill="midnightblue" stroke="midnightblue" points="1227.23,-197.498 1237.64,-195.507 1228.26,-190.574 1227.23,-197.498"/>
</g>
<!-- Node18 -->
<g id="node18" class="node"><title>Node18</title>
<g id="a_node18"><a xlink:href="nsquare_8cpp.html" target="_top" xlink:title="Implementation of nsquare.h. ">
<polygon fill="none" stroke="black" points="2117,-6 2117,-25 2193,-25 2193,-6 2117,-6"/>
<text text-anchor="middle" x="2155" y="-13" font-family="Helvetica,sans-Serif" font-size="10.00">nsquare.cpp</text>
</a>
</g>
</g>
<!-- Node1&#45;&gt;Node18 -->
<g id="edge47" class="edge"><title>Node1&#45;&gt;Node18</title>
<path fill="none" stroke="midnightblue" d="M1300.67,-186.068C1319.06,-177.51 1343.28,-165.737 1364,-154 1394.89,-136.502 1464.27,-78.0805 1498,-67 1627.01,-24.6199 1974.38,-55.1901 2108,-31 2115.73,-29.6005 2123.97,-27.3342 2131.37,-25.0049"/>
<polygon fill="midnightblue" stroke="midnightblue" points="1298.99,-182.988 1291.38,-190.353 1301.92,-189.345 1298.99,-182.988"/>
</g>
<!-- Node22 -->
<g id="node22" class="node"><title>Node22</title>
<g id="a_node22"><a xlink:href="verlet_8cpp.html" target="_top" xlink:title="Verlet list. ">
<polygon fill="none" stroke="black" points="2211.5,-6 2211.5,-25 2276.5,-25 2276.5,-6 2211.5,-6"/>
<text text-anchor="middle" x="2244" y="-13" font-family="Helvetica,sans-Serif" font-size="10.00">verlet.cpp</text>
</a>
</g>
</g>
<!-- Node1&#45;&gt;Node22 -->
<g id="edge50" class="edge"><title>Node1&#45;&gt;Node22</title>
<path fill="none" stroke="midnightblue" d="M1312.04,-187.49C1337.76,-179.477 1371.55,-167.779 1400,-154 1423.19,-142.766 1424.73,-131.663 1449,-123 1766.54,-9.66413 1873.49,-106.879 2202,-31 2208.61,-29.4722 2215.64,-27.2814 2222.02,-25.064"/>
<polygon fill="midnightblue" stroke="midnightblue" points="1310.8,-184.21 1302.26,-190.482 1312.84,-190.904 1310.8,-184.21"/>
</g>
<!-- Node32 -->
<g id="node32" class="node"><title>Node32</title>
<g id="a_node32"><a xlink:href="energy_8cpp.html" target="_top" xlink:title="Implementation of energy.hpp. ">
<polygon fill="none" stroke="black" points="1457.5,-129 1457.5,-148 1526.5,-148 1526.5,-129 1457.5,-129"/>
<text text-anchor="middle" x="1492" y="-136" font-family="Helvetica,sans-Serif" font-size="10.00">energy.cpp</text>
</a>
</g>
</g>
<!-- Node1&#45;&gt;Node32 -->
<g id="edge39" class="edge"><title>Node1&#45;&gt;Node32</title>
<path fill="none" stroke="midnightblue" d="M1315.62,-187.911C1350.23,-179.018 1399.81,-166.07 1443,-154 1449.75,-152.114 1457,-150.011 1463.8,-148.004"/>
<polygon fill="midnightblue" stroke="midnightblue" points="1314.64,-184.548 1305.83,-190.422 1316.38,-191.329 1314.64,-184.548"/>
</g>
<!-- Node33 -->
<g id="node33" class="node"><title>Node33</title>
<g id="a_node33"><a xlink:href="galilei_8cpp.html" target="_top" xlink:title="galilei.cpp">
<polygon fill="none" stroke="black" points="1544.5,-129 1544.5,-148 1611.5,-148 1611.5,-129 1544.5,-129"/>
<text text-anchor="middle" x="1578" y="-136" font-family="Helvetica,sans-Serif" font-size="10.00">galilei.cpp</text>
</a>
</g>
</g>
<!-- Node1&#45;&gt;Node33 -->
<g id="edge40" class="edge"><title>Node1&#45;&gt;Node33</title>
<path fill="none" stroke="midnightblue" d="M1316.17,-193.719C1368.97,-186.891 1459.78,-173.513 1536,-154 1542.43,-152.355 1549.28,-150.178 1555.54,-148.014"/>
<polygon fill="midnightblue" stroke="midnightblue" points="1315.61,-190.263 1306.13,-194.998 1316.49,-197.207 1315.61,-190.263"/>
</g>
<!-- Node34 -->
<g id="node34" class="node"><title>Node34</title>
<g id="a_node34"><a xlink:href="molforces_8cpp.html" target="_top" xlink:title="Routines for calculating and applying trap forces upon molecules. ">
<polygon fill="none" stroke="black" points="1630,-129 1630,-148 1716,-148 1716,-129 1630,-129"/>
<text text-anchor="middle" x="1673" y="-136" font-family="Helvetica,sans-Serif" font-size="10.00">molforces.cpp</text>
</a>
</g>
</g>
<!-- Node1&#45;&gt;Node34 -->
<g id="edge46" class="edge"><title>Node1&#45;&gt;Node34</title>
<path fill="none" stroke="midnightblue" d="M1316.6,-195.318C1383.29,-189.347 1512.73,-175.956 1621,-154 1628.9,-152.398 1637.36,-150.236 1645.11,-148.071"/>
<polygon fill="midnightblue" stroke="midnightblue" points="1316.1,-191.848 1306.45,-196.213 1316.72,-198.821 1316.1,-191.848"/>
</g>
<!-- Node35 -->
<g id="node35" class="node"><title>Node35</title>
<g id="a_node35"><a xlink:href="reaction_8cpp.html" target="_top" xlink:title="reaction.cpp">
<polygon fill="none" stroke="black" points="1734.5,-129 1734.5,-148 1811.5,-148 1811.5,-129 1734.5,-129"/>
<text text-anchor="middle" x="1773" y="-136" font-family="Helvetica,sans-Serif" font-size="10.00">reaction.cpp</text>
</a>
</g>
</g>
<!-- Node1&#45;&gt;Node35 -->
<g id="edge48" class="edge"><title>Node1&#45;&gt;Node35</title>
<path fill="none" stroke="midnightblue" d="M1316.55,-197.444C1398.23,-193.958 1577.18,-183.378 1725,-154 1732.51,-152.507 1740.53,-150.327 1747.82,-148.108"/>
<polygon fill="midnightblue" stroke="midnightblue" points="1315.99,-193.964 1306.14,-197.872 1316.28,-200.958 1315.99,-193.964"/>
</g>
<!-- Node36 -->
<g id="node36" class="node"><title>Node36</title>
<g id="a_node36"><a xlink:href="rotation_8cpp.html" target="_top" xlink:title="Molecular dynamics integrator for rotational motion. ">
<polygon fill="none" stroke="black" points="1829.5,-129 1829.5,-148 1904.5,-148 1904.5,-129 1829.5,-129"/>
<text text-anchor="middle" x="1867" y="-136" font-family="Helvetica,sans-Serif" font-size="10.00">rotation.cpp</text>
</a>
</g>
</g>
<!-- Node1&#45;&gt;Node36 -->
<g id="edge49" class="edge"><title>Node1&#45;&gt;Node36</title>
<path fill="none" stroke="midnightblue" d="M1316.36,-198.709C1410.33,-197.364 1635.98,-190.269 1821,-154 1828.4,-152.55 1836.28,-150.328 1843.39,-148.055"/>
<polygon fill="midnightblue" stroke="midnightblue" points="1316.05,-195.213 1306.1,-198.84 1316.14,-202.212 1316.05,-195.213"/>
</g>
<!-- Node37 -->
<g id="node37" class="node"><title>Node37</title>
<g id="a_node37"><a xlink:href="virtual__sites__com_8cpp.html" target="_top" xlink:title="virtual_sites_com.cpp">
<polygon fill="none" stroke="black" points="1922.5,-129 1922.5,-148 2045.5,-148 2045.5,-129 1922.5,-129"/>
<text text-anchor="middle" x="1984" y="-136" font-family="Helvetica,sans-Serif" font-size="10.00">virtual_sites_com.cpp</text>
</a>
</g>
</g>
<!-- Node1&#45;&gt;Node37 -->
<g id="edge51" class="edge"><title>Node1&#45;&gt;Node37</title>
<path fill="none" stroke="midnightblue" d="M1316.46,-197.937C1421.09,-194.99 1690.89,-184.786 1914,-154 1924.94,-152.49 1936.74,-150.278 1947.47,-148.033"/>
<polygon fill="midnightblue" stroke="midnightblue" points="1316.17,-194.444 1306.27,-198.216 1316.36,-201.441 1316.17,-194.444"/>
</g>
<!-- Node38 -->
<g id="node38" class="node"><title>Node38</title>
<g id="a_node38"><a xlink:href="Ewaldgpu__tcl_8cpp.html" target="_top" xlink:title="Ewaldgpu_tcl.cpp">
<polygon fill="none" stroke="black" points="2063.5,-129 2063.5,-148 2164.5,-148 2164.5,-129 2063.5,-129"/>
<text text-anchor="middle" x="2114" y="-136" font-family="Helvetica,sans-Serif" font-size="10.00">Ewaldgpu_tcl.cpp</text>
</a>
</g>
</g>
<!-- Node1&#45;&gt;Node38 -->
<g id="edge52" class="edge"><title>Node1&#45;&gt;Node38</title>
<path fill="none" stroke="midnightblue" d="M1316.44,-199.29C1436.35,-199.461 1776.27,-195.897 2055,-154 2064.49,-152.573 2074.69,-150.329 2083.89,-148.028"/>
<polygon fill="midnightblue" stroke="midnightblue" points="1316.2,-195.789 1306.19,-199.265 1316.18,-202.789 1316.2,-195.789"/>
</g>
<!-- Node39 -->
<g id="node39" class="node"><title>Node39</title>
<g id="a_node39"><a xlink:href="HarmonicOrientationWell__tcl_8cpp.html" target="_top" xlink:title="HarmonicOrientationWell\l_tcl.cpp">
<polygon fill="none" stroke="black" points="2183,-123.5 2183,-153.5 2323,-153.5 2323,-123.5 2183,-123.5"/>
<text text-anchor="start" x="2191" y="-141.5" font-family="Helvetica,sans-Serif" font-size="10.00">HarmonicOrientationWell</text>
<text text-anchor="middle" x="2253" y="-130.5" font-family="Helvetica,sans-Serif" font-size="10.00">_tcl.cpp</text>
</a>
</g>
</g>
<!-- Node1&#45;&gt;Node39 -->
<g id="edge53" class="edge"><title>Node1&#45;&gt;Node39</title>
<path fill="none" stroke="midnightblue" d="M1316.19,-198.852C1447.42,-197.97 1846.08,-192.105 2174,-154 2176.91,-153.662 2179.87,-153.282 2182.86,-152.869"/>
<polygon fill="midnightblue" stroke="midnightblue" points="1316.11,-195.352 1306.13,-198.913 1316.15,-202.352 1316.11,-195.352"/>
</g>
<!-- Node40 -->
<g id="node40" class="node"><title>Node40</title>
<g id="a_node40"><a xlink:href="Mmm1dgpu__tcl_8cpp.html" target="_top" xlink:title="Mmm1dgpu_tcl.cpp">
<polygon fill="none" stroke="black" points="2341,-129 2341,-148 2453,-148 2453,-129 2341,-129"/>
<text text-anchor="middle" x="2397" y="-136" font-family="Helvetica,sans-Serif" font-size="10.00">Mmm1dgpu_tcl.cpp</text>
</a>
</g>
</g>
<!-- Node1&#45;&gt;Node40 -->
<g id="edge54" class="edge"><title>Node1&#45;&gt;Node40</title>
<path fill="none" stroke="midnightblue" d="M1316.18,-198.168C1490.5,-194.723 2130.78,-180.502 2332,-154 2342.55,-152.611 2353.91,-150.348 2364.13,-148.018"/>
<polygon fill="midnightblue" stroke="midnightblue" points="1316.02,-194.67 1306.09,-198.365 1316.16,-201.669 1316.02,-194.67"/>
</g>
<!-- Node6&#45;&gt;Node1 -->
<g id="edge6" class="edge"><title>Node6&#45;&gt;Node1</title>
<path fill="none" stroke="midnightblue" d="M668.73,-146.007C686.739,-148.758 707.35,-151.823 726,-154 919.238,-176.553 1151.65,-191.457 1237.85,-196.8"/>
<polygon fill="midnightblue" stroke="midnightblue" points="669.157,-142.531 658.742,-144.475 668.096,-149.45 669.157,-142.531"/>
</g>
<!-- Node6&#45;&gt;Node5 -->
<g id="edge7" class="edge"><title>Node6&#45;&gt;Node5</title>
<path fill="none" stroke="midnightblue" d="M604.186,-122.526C581.784,-103.988 544.287,-73.9986 528,-67 440.193,-29.2682 409.781,-49.4102 316,-31 306.81,-29.1959 296.928,-27.0819 287.713,-25.0346"/>
<polygon fill="midnightblue" stroke="midnightblue" points="602.033,-125.287 611.957,-128.998 606.513,-119.909 602.033,-125.287"/>
</g>
<!-- Node6&#45;&gt;Node7 -->
<g id="edge8" class="edge"><title>Node6&#45;&gt;Node7</title>
<path fill="none" stroke="midnightblue" d="M592.75,-124.98C565.755,-113.424 526.396,-96.5758 502.878,-86.5091"/>
<polygon fill="midnightblue" stroke="midnightblue" points="591.514,-128.257 602.085,-128.975 594.269,-121.822 591.514,-128.257"/>
</g>
<!-- Node6&#45;&gt;Node8 -->
<g id="edge9" class="edge"><title>Node6&#45;&gt;Node8</title>
<path fill="none" stroke="midnightblue" d="M611.451,-120.013C600.754,-103.803 582.711,-80.2531 561,-67 503.219,-31.7282 478.315,-48.7947 413,-31 406.281,-29.1694 399.073,-27.0669 392.339,-25.0412"/>
<polygon fill="midnightblue" stroke="midnightblue" points="608.565,-121.999 616.872,-128.576 614.48,-118.254 608.565,-121.999"/>
</g>
<!-- Node9 -->
<g id="node9" class="node"><title>Node9</title>
<g id="a_node9"><a xlink:href="iccp3m__tcl_8cpp.html" target="_top" xlink:title="iccp3m_tcl.cpp">
<polygon fill="none" stroke="black" points="613.5,-67.5 613.5,-86.5 702.5,-86.5 702.5,-67.5 613.5,-67.5"/>
<text text-anchor="middle" x="658" y="-74.5" font-family="Helvetica,sans-Serif" font-size="10.00">iccp3m_tcl.cpp</text>
</a>
</g>
</g>
<!-- Node6&#45;&gt;Node9 -->
<g id="edge10" class="edge"><title>Node6&#45;&gt;Node9</title>
<path fill="none" stroke="midnightblue" d="M632.485,-120.171C639.179,-109.108 647.562,-95.2512 652.852,-86.5091"/>
<polygon fill="midnightblue" stroke="midnightblue" points="629.34,-118.607 627.158,-128.975 635.329,-122.231 629.34,-118.607"/>
</g>
<!-- Node11 -->
<g id="node11" class="node"><title>Node11</title>
<g id="a_node11"><a xlink:href="pressure_8hpp.html" target="_top" xlink:title="Pressure calculation. ">
<polygon fill="none" stroke="black" points="1051,-67.5 1051,-86.5 1131,-86.5 1131,-67.5 1051,-67.5"/>
<text text-anchor="middle" x="1091" y="-74.5" font-family="Helvetica,sans-Serif" font-size="10.00">pressure.hpp</text>
</a>
</g>
</g>
<!-- Node10&#45;&gt;Node11 -->
<g id="edge12" class="edge"><title>Node10&#45;&gt;Node11</title>
<path fill="none" stroke="midnightblue" d="M1168.65,-123.744C1149.14,-112.25 1121.93,-96.2226 1105.44,-86.5091"/>
<polygon fill="midnightblue" stroke="midnightblue" points="1167.14,-126.915 1177.53,-128.975 1170.69,-120.884 1167.14,-126.915"/>
</g>
<!-- Node10&#45;&gt;Node17 -->
<g id="edge37" class="edge"><title>Node10&#45;&gt;Node17</title>
<path fill="none" stroke="midnightblue" d="M1131.76,-130.793C1100.99,-124.351 1065.25,-111.729 1042,-87 1025.67,-69.6385 1023.08,-39.7556 1022.85,-25.1053"/>
<polygon fill="midnightblue" stroke="midnightblue" points="1131.49,-134.306 1141.97,-132.749 1132.81,-127.431 1131.49,-134.306"/>
</g>
<!-- Node26 -->
<g id="node26" class="node"><title>Node26</title>
<g id="a_node26"><a xlink:href="minimize__energy_8hpp.html" target="_top" xlink:title="minimize_energy.hpp">
<polygon fill="none" stroke="black" points="759.5,-67.5 759.5,-86.5 880.5,-86.5 880.5,-67.5 759.5,-67.5"/>
<text text-anchor="middle" x="820" y="-74.5" font-family="Helvetica,sans-Serif" font-size="10.00">minimize_energy.hpp</text>
</a>
</g>
</g>
<!-- Node10&#45;&gt;Node26 -->
<g id="edge29" class="edge"><title>Node10&#45;&gt;Node26</title>
<path fill="none" stroke="midnightblue" d="M1131.61,-127.841C1059.97,-116.382 941.648,-97.4571 873.275,-86.5212"/>
<polygon fill="midnightblue" stroke="midnightblue" points="1131.4,-131.352 1141.83,-129.476 1132.51,-124.44 1131.4,-131.352"/>
</g>
<!-- Node29 -->
<g id="node29" class="node"><title>Node29</title>
<g id="a_node29"><a xlink:href="constraint_8cpp.html" target="_top" xlink:title="Implementation of constraint.hpp, here it&#39;s just the parsing stuff. ">
<polygon fill="none" stroke="black" points="1149,-67.5 1149,-86.5 1235,-86.5 1235,-67.5 1149,-67.5"/>
<text text-anchor="middle" x="1192" y="-74.5" font-family="Helvetica,sans-Serif" font-size="10.00">constraint.cpp</text>
</a>
</g>
</g>
<!-- Node10&#45;&gt;Node29 -->
<g id="edge34" class="edge"><title>Node10&#45;&gt;Node29</title>
<path fill="none" stroke="midnightblue" d="M1192,-118.817C1192,-107.996 1192,-94.898 1192,-86.5091"/>
<polygon fill="midnightblue" stroke="midnightblue" points="1188.5,-118.975 1192,-128.975 1195.5,-118.975 1188.5,-118.975"/>
</g>
<!-- Node30 -->
<g id="node30" class="node"><title>Node30</title>
<g id="a_node30"><a xlink:href="forces_8cpp.html" target="_top" xlink:title="Force calculation. ">
<polygon fill="none" stroke="black" points="1253.5,-67.5 1253.5,-86.5 1320.5,-86.5 1320.5,-67.5 1253.5,-67.5"/>
<text text-anchor="middle" x="1287" y="-74.5" font-family="Helvetica,sans-Serif" font-size="10.00">forces.cpp</text>
</a>
</g>
</g>
<!-- Node10&#45;&gt;Node30 -->
<g id="edge35" class="edge"><title>Node10&#45;&gt;Node30</title>
<path fill="none" stroke="midnightblue" d="M1214.21,-123.587C1232.55,-112.104 1257.98,-96.1784 1273.41,-86.5091"/>
<polygon fill="midnightblue" stroke="midnightblue" points="1212.23,-120.701 1205.61,-128.975 1215.94,-126.633 1212.23,-120.701"/>
</g>
<!-- Node31 -->
<g id="node31" class="node"><title>Node31</title>
<g id="a_node31"><a xlink:href="ghosts_8cpp.html" target="_top" xlink:title="Ghost particles and particle exchange. ">
<polygon fill="none" stroke="black" points="1338.5,-67.5 1338.5,-86.5 1407.5,-86.5 1407.5,-67.5 1338.5,-67.5"/>
<text text-anchor="middle" x="1373" y="-74.5" font-family="Helvetica,sans-Serif" font-size="10.00">ghosts.cpp</text>
</a>
</g>
</g>
<!-- Node10&#45;&gt;Node31 -->
<g id="edge36" class="edge"><title>Node10&#45;&gt;Node31</title>
<path fill="none" stroke="midnightblue" d="M1227.8,-125.732C1262.98,-114.166 1315.82,-96.7966 1347.12,-86.5091"/>
<polygon fill="midnightblue" stroke="midnightblue" points="1226.34,-122.527 1217.93,-128.975 1228.53,-129.177 1226.34,-122.527"/>
</g>
<!-- Node11&#45;&gt;Node5 -->
<g id="edge13" class="edge"><title>Node11&#45;&gt;Node5</title>
<path fill="none" stroke="midnightblue" d="M1040.87,-73.561C880.663,-65.701 387.388,-40.9685 316,-31 305.694,-29.5609 294.601,-27.3415 284.547,-25.0684"/>
<polygon fill="midnightblue" stroke="midnightblue" points="1040.77,-77.0604 1050.93,-74.054 1041.11,-70.0688 1040.77,-77.0604"/>
</g>
<!-- Node11&#45;&gt;Node8 -->
<g id="edge16" class="edge"><title>Node11&#45;&gt;Node8</title>
<path fill="none" stroke="midnightblue" d="M1040.55,-73.3148C893.892,-65.4151 474.135,-42.1135 413,-31 405.292,-29.5987 397.071,-27.3906 389.65,-25.1161"/>
<polygon fill="midnightblue" stroke="midnightblue" points="1040.46,-76.8146 1050.63,-73.8565 1040.83,-69.8247 1040.46,-76.8146"/>
</g>
<!-- Node11&#45;&gt;Node12 -->
<g id="edge14" class="edge"><title>Node11&#45;&gt;Node12</title>
<path fill="none" stroke="midnightblue" d="M1052.63,-64.5286C1013.96,-52.9647 955.161,-35.3849 920.459,-25.0091"/>
<polygon fill="midnightblue" stroke="midnightblue" points="1051.9,-67.9637 1062.49,-67.4751 1053.91,-61.2571 1051.9,-67.9637"/>
</g>
<!-- Node13 -->
<g id="node13" class="node"><title>Node13</title>
<g id="a_node13"><a xlink:href="elc_8cpp.html" target="_top" xlink:title="For more information about ELC, see elc.hpp. ">
<polygon fill="none" stroke="black" points="1329.5,-6 1329.5,-25 1380.5,-25 1380.5,-6 1329.5,-6"/>
<text text-anchor="middle" x="1355" y="-13" font-family="Helvetica,sans-Serif" font-size="10.00">elc.cpp</text>
</a>
</g>
</g>
<!-- Node11&#45;&gt;Node13 -->
<g id="edge15" class="edge"><title>Node11&#45;&gt;Node13</title>
<path fill="none" stroke="midnightblue" d="M1141.15,-66.7664C1203.57,-55.1843 1304.05,-36.2083 1321,-31 1326.28,-29.3788 1331.84,-27.2104 1336.91,-25.0455"/>
<polygon fill="midnightblue" stroke="midnightblue" points="1140.3,-63.365 1131.1,-68.6283 1141.57,-70.2478 1140.3,-63.365"/>
</g>
<!-- Node11&#45;&gt;Node14 -->
<g id="edge17" class="edge"><title>Node11&#45;&gt;Node14</title>
<path fill="none" stroke="midnightblue" d="M1040.71,-69.9277C983.842,-62.6175 888.67,-49.0373 808,-31 800.503,-29.3237 792.472,-27.162 785.088,-25.022"/>
<polygon fill="midnightblue" stroke="midnightblue" points="1040.5,-73.4302 1050.87,-71.2194 1041.39,-66.4861 1040.5,-73.4302"/>
</g>
<!-- Node11&#45;&gt;Node15 -->
<g id="edge18" class="edge"><title>Node11&#45;&gt;Node15</title>
<path fill="none" stroke="midnightblue" d="M1141.16,-67.0509C1518.86,-25.6941 1620.87,-85.584 1993,-31 2002.29,-29.6367 2012.27,-27.3805 2021.24,-25.0494"/>
<polygon fill="midnightblue" stroke="midnightblue" points="1140.6,-63.5915 1131.04,-68.175 1141.37,-70.5487 1140.6,-63.5915"/>
</g>
<!-- Node16 -->
<g id="node16" class="node"><title>Node16</title>
<g id="a_node16"><a xlink:href="interaction__data_8cpp.html" target="_top" xlink:title="Implementation of interaction_data.hpp. ">
<polygon fill="none" stroke="black" points="1398,-6 1398,-25 1514,-25 1514,-6 1398,-6"/>
<text text-anchor="middle" x="1456" y="-13" font-family="Helvetica,sans-Serif" font-size="10.00">interaction_data.cpp</text>
</a>
</g>
</g>
<!-- Node11&#45;&gt;Node16 -->
<g id="edge19" class="edge"><title>Node11&#45;&gt;Node16</title>
<path fill="none" stroke="midnightblue" d="M1141.04,-66.8885C1252.48,-48.9637 1282.68,-50.4895 1390,-31 1399.58,-29.2602 1409.89,-27.1244 1419.44,-25.0321"/>
<polygon fill="midnightblue" stroke="midnightblue" points="1140.4,-63.4474 1131.09,-68.5064 1141.52,-70.3567 1140.4,-63.4474"/>
</g>
<!-- Node11&#45;&gt;Node17 -->
<g id="edge20" class="edge"><title>Node11&#45;&gt;Node17</title>
<path fill="none" stroke="midnightblue" d="M1073.46,-60.6496C1060.49,-49.3058 1043.32,-34.2811 1032.72,-25.0091"/>
<polygon fill="midnightblue" stroke="midnightblue" points="1071.43,-63.524 1081.26,-67.4751 1076.04,-58.256 1071.43,-63.524"/>
</g>
<!-- Node11&#45;&gt;Node18 -->
<g id="edge21" class="edge"><title>Node11&#45;&gt;Node18</title>
<path fill="none" stroke="midnightblue" d="M1141.22,-67.0535C1569.77,-21.2791 1686.87,-102.513 2108,-31 2115.75,-29.6848 2123.99,-27.4422 2131.38,-25.1086"/>
<polygon fill="midnightblue" stroke="midnightblue" points="1140.61,-63.5999 1131.04,-68.1585 1141.36,-70.559 1140.61,-63.5999"/>
</g>
<!-- Node19 -->
<g id="node19" class="node"><title>Node19</title>
<g id="a_node19"><a xlink:href="pressure_8cpp.html" target="_top" xlink:title="Implementation of pressure.h. ">
<polygon fill="none" stroke="black" points="1531.5,-6 1531.5,-25 1610.5,-25 1610.5,-6 1531.5,-6"/>
<text text-anchor="middle" x="1571" y="-13" font-family="Helvetica,sans-Serif" font-size="10.00">pressure.cpp</text>
</a>
</g>
</g>
<!-- Node11&#45;&gt;Node19 -->
<g id="edge22" class="edge"><title>Node11&#45;&gt;Node19</title>
<path fill="none" stroke="midnightblue" d="M1141.11,-66.9757C1311.15,-44.2899 1358.41,-63.2582 1523,-31 1530.52,-29.5266 1538.54,-27.3528 1545.83,-25.1342"/>
<polygon fill="midnightblue" stroke="midnightblue" points="1140.5,-63.5261 1131.06,-68.3447 1141.45,-70.4619 1140.5,-63.5261"/>
</g>
<!-- Node20 -->
<g id="node20" class="node"><title>Node20</title>
<g id="a_node20"><a xlink:href="statistics_8cpp.html" target="_top" xlink:title="This is the place for analysis (so far...). ">
<polygon fill="none" stroke="black" points="1628.5,-6 1628.5,-25 1709.5,-25 1709.5,-6 1628.5,-6"/>
<text text-anchor="middle" x="1669" y="-13" font-family="Helvetica,sans-Serif" font-size="10.00">statistics.cpp</text>
</a>
</g>
</g>
<!-- Node11&#45;&gt;Node20 -->
<g id="edge23" class="edge"><title>Node11&#45;&gt;Node20</title>
<path fill="none" stroke="midnightblue" d="M1140.99,-67.0217C1353.95,-40.5279 1412.76,-68.9866 1620,-31 1627.85,-29.5605 1636.24,-27.341 1643.82,-25.0678"/>
<polygon fill="midnightblue" stroke="midnightblue" points="1140.54,-63.5507 1131.06,-68.2827 1141.42,-70.4949 1140.54,-63.5507"/>
</g>
<!-- Node21 -->
<g id="node21" class="node"><title>Node21</title>
<g id="a_node21"><a xlink:href="statistics__observable_8cpp.html" target="_top" xlink:title="statistics_observable.cpp">
<polygon fill="none" stroke="black" points="1728,-6 1728,-25 1868,-25 1868,-6 1728,-6"/>
<text text-anchor="middle" x="1798" y="-13" font-family="Helvetica,sans-Serif" font-size="10.00">statistics_observable.cpp</text>
</a>
</g>
</g>
<!-- Node11&#45;&gt;Node21 -->
<g id="edge24" class="edge"><title>Node11&#45;&gt;Node21</title>
<path fill="none" stroke="midnightblue" d="M1141.04,-67.028C1397.65,-36.3232 1466.33,-61.931 1719,-31 1731.32,-29.492 1744.62,-27.28 1756.73,-25.0358"/>
<polygon fill="midnightblue" stroke="midnightblue" points="1140.56,-63.5614 1131.05,-68.2406 1141.4,-70.5104 1140.56,-63.5614"/>
</g>
<!-- Node11&#45;&gt;Node22 -->
<g id="edge25" class="edge"><title>Node11&#45;&gt;Node22</title>
<path fill="none" stroke="midnightblue" d="M1141.23,-67.0916C1390.97,-42.4736 1972.99,-73.4202 2202,-31 2208.98,-29.7074 2216.37,-27.4712 2222.97,-25.1365"/>
<polygon fill="midnightblue" stroke="midnightblue" points="1140.63,-63.6355 1131.04,-68.1477 1141.35,-70.5982 1140.63,-63.6355"/>
</g>
<!-- Node23 -->
<g id="node23" class="node"><title>Node23</title>
<g id="a_node23"><a xlink:href="virtual__sites_8cpp.html" target="_top" xlink:title="virtual_sites.cpp">
<polygon fill="none" stroke="black" points="1886.5,-6 1886.5,-25 1983.5,-25 1983.5,-6 1886.5,-6"/>
<text text-anchor="middle" x="1935" y="-13" font-family="Helvetica,sans-Serif" font-size="10.00">virtual_sites.cpp</text>
</a>
</g>
</g>
<!-- Node11&#45;&gt;Node23 -->
<g id="edge26" class="edge"><title>Node11&#45;&gt;Node23</title>
<path fill="none" stroke="midnightblue" d="M1141.27,-67.0279C1467.58,-30.3039 1555.91,-78.5078 1877,-31 1886.45,-29.6024 1896.59,-27.3366 1905.72,-25.0072"/>
<polygon fill="midnightblue" stroke="midnightblue" points="1140.58,-63.583 1131.05,-68.1969 1141.38,-70.5376 1140.58,-63.583"/>
</g>
<!-- Node24 -->
<g id="node24" class="node"><title>Node24</title>
<g id="a_node24"><a xlink:href="pressure__tcl_8cpp.html" target="_top" xlink:title="pressure_tcl.cpp">
<polygon fill="none" stroke="black" points="1078,-6 1078,-25 1174,-25 1174,-6 1078,-6"/>
<text text-anchor="middle" x="1126" y="-13" font-family="Helvetica,sans-Serif" font-size="10.00">pressure_tcl.cpp</text>
</a>
</g>
</g>
<!-- Node11&#45;&gt;Node24 -->
<g id="edge27" class="edge"><title>Node11&#45;&gt;Node24</title>
<path fill="none" stroke="midnightblue" d="M1101.19,-58.6707C1107.7,-47.6075 1115.85,-33.7512 1120.99,-25.0091"/>
<polygon fill="midnightblue" stroke="midnightblue" points="1098.07,-57.0812 1096.01,-67.4751 1104.1,-60.6303 1098.07,-57.0812"/>
</g>
<!-- Node25 -->
<g id="node25" class="node"><title>Node25</title>
<g id="a_node25"><a xlink:href="statistics__observable__tcl_8cpp.html" target="_top" xlink:title="statistics_observable\l_tcl.cpp">
<polygon fill="none" stroke="black" points="1192,-0.5 1192,-30.5 1312,-30.5 1312,-0.5 1192,-0.5"/>
<text text-anchor="start" x="1200" y="-18.5" font-family="Helvetica,sans-Serif" font-size="10.00">statistics_observable</text>
<text text-anchor="middle" x="1252" y="-7.5" font-family="Helvetica,sans-Serif" font-size="10.00">_tcl.cpp</text>
</a>
</g>
</g>
<!-- Node11&#45;&gt;Node25 -->
<g id="edge28" class="edge"><title>Node11&#45;&gt;Node25</title>
<path fill="none" stroke="midnightblue" d="M1123.54,-63.9755C1149.71,-54.3016 1186.54,-40.6919 1214.06,-30.523"/>
<polygon fill="midnightblue" stroke="midnightblue" points="1122.23,-60.7256 1114.07,-67.4751 1124.66,-67.2915 1122.23,-60.7256"/>
</g>
<!-- Node26&#45;&gt;Node5 -->
<g id="edge30" class="edge"><title>Node26&#45;&gt;Node5</title>
<path fill="none" stroke="midnightblue" d="M749.228,-69.9267C615.482,-58.415 337.044,-34.2725 316,-31 305.946,-29.4366 295.124,-27.2347 285.249,-25.0179"/>
<polygon fill="midnightblue" stroke="midnightblue" points="749.116,-73.4299 759.379,-70.8001 749.716,-66.4557 749.116,-73.4299"/>
</g>
<!-- Node26&#45;&gt;Node14 -->
<g id="edge31" class="edge"><title>Node26&#45;&gt;Node14</title>
<path fill="none" stroke="midnightblue" d="M803.666,-60.3245C791.887,-49.0202 776.436,-34.1928 766.867,-25.0091"/>
<polygon fill="midnightblue" stroke="midnightblue" points="801.478,-63.0762 811.117,-67.4751 806.325,-58.0257 801.478,-63.0762"/>
</g>
<!-- Node27 -->
<g id="node27" class="node"><title>Node27</title>
<g id="a_node27"><a xlink:href="minimize__energy_8cpp.html" target="_top" xlink:title="minimize_energy.cpp">
<polygon fill="none" stroke="black" points="422,-6 422,-25 542,-25 542,-6 422,-6"/>
<text text-anchor="middle" x="482" y="-13" font-family="Helvetica,sans-Serif" font-size="10.00">minimize_energy.cpp</text>
</a>
</g>
</g>
<!-- Node26&#45;&gt;Node27 -->
<g id="edge32" class="edge"><title>Node26&#45;&gt;Node27</title>
<path fill="none" stroke="midnightblue" d="M755.129,-65.9195C700.561,-57.2552 620.538,-44.1171 551,-31 541.377,-29.1848 531.03,-27.0881 521.352,-25.0631"/>
<polygon fill="midnightblue" stroke="midnightblue" points="754.59,-69.3775 765.014,-67.4842 755.684,-62.4636 754.59,-69.3775"/>
</g>
<!-- Node28 -->
<g id="node28" class="node"><title>Node28</title>
<g id="a_node28"><a xlink:href="minimize__energy__tcl_8cpp.html" target="_top" xlink:title="minimize_energy_tcl.cpp">
<polygon fill="none" stroke="black" points="560.5,-6 560.5,-25 699.5,-25 699.5,-6 560.5,-6"/>
<text text-anchor="middle" x="630" y="-13" font-family="Helvetica,sans-Serif" font-size="10.00">minimize_energy_tcl.cpp</text>
</a>
</g>
</g>
<!-- Node26&#45;&gt;Node28 -->
<g id="edge33" class="edge"><title>Node26&#45;&gt;Node28</title>
<path fill="none" stroke="midnightblue" d="M782.896,-64.3806C745.965,-52.8152 690.164,-35.3407 657.172,-25.0091"/>
<polygon fill="midnightblue" stroke="midnightblue" points="782.189,-67.8266 792.778,-67.4751 784.281,-61.1465 782.189,-67.8266"/>
</g>
</g>
</svg>
        <g id="navigator" transform="translate(0 0)" fill="#404254">
                <rect fill="#f2f5e9" fill-opacity="0.5" stroke="#606060" stroke-width=".5" x="0" y="0" width="60" height="60"/>
                <use id="zoomplus" xlink:href="#zoomPlus" x="17" y="9" onmousedown="handleZoom(evt,'in')"/>
                <use id="zoomminus" xlink:href="#zoomMin" x="42" y="9" onmousedown="handleZoom(evt,'out')"/>
                <use id="reset" xlink:href="#resetDef" x="30" y="36" onmousedown="handleReset()"/>
                <g id="arrowUp" xlink:href="#dirArrow" transform="translate(30 24)" onmousedown="handlePan(0,-1)">
                  <use xlink:href="#rim" fill="#404040">
                        <set attributeName="fill" to="#808080" begin="arrowUp.mouseover" end="arrowUp.mouseout"/>
                  </use>
                  <path fill="none" stroke="white" stroke-width="1.5" d="M0,-3.0v7 M-2.5,-0.5L0,-3.0L2.5,-0.5"/>
                </g>
                <g id="arrowRight" xlink:href="#dirArrow" transform="rotate(90) translate(36 -43)" onmousedown="handlePan(1,0)">
                  <use xlink:href="#rim" fill="#404040">
                        <set attributeName="fill" to="#808080" begin="arrowRight.mouseover" end="arrowRight.mouseout"/>
                  </use>
                  <path fill="none" stroke="white" stroke-width="1.5" d="M0,-3.0v7 M-2.5,-0.5L0,-3.0L2.5,-0.5"/>
                </g>
                <g id="arrowDown" xlink:href="#dirArrow" transform="rotate(180) translate(-30 -48)" onmousedown="handlePan(0,1)">
                  <use xlink:href="#rim" fill="#404040">
                        <set attributeName="fill" to="#808080" begin="arrowDown.mouseover" end="arrowDown.mouseout"/>
                  </use>
                  <path fill="none" stroke="white" stroke-width="1.5" d="M0,-3.0v7 M-2.5,-0.5L0,-3.0L2.5,-0.5"/>
                </g>
                <g id="arrowLeft" xlink:href="#dirArrow" transform="rotate(270) translate(-36 17)" onmousedown="handlePan(-1,0)">
                  <use xlink:href="#rim" fill="#404040">
                        <set attributeName="fill" to="#808080" begin="arrowLeft.mouseover" end="arrowLeft.mouseout"/>
                  </use>
                  <path fill="none" stroke="white" stroke-width="1.5" d="M0,-3.0v7 M-2.5,-0.5L0,-3.0L2.5,-0.5"/>
                </g>
        </g>
        <svg viewBox="0 0 15 15" width="100%" height="30px" preserveAspectRatio="xMaxYMin meet">
         <g id="arrow_out" transform="scale(0.3 0.3)">
          <a xlink:href="forces_8hpp__dep__incl_org.svg" target="_base">
           <rect id="button" ry="5" rx="5" y="6" x="6" height="38" width="38"
                fill="#f2f5e9" fill-opacity="0.5" stroke="#606060" stroke-width="1.0"/>
           <path id="arrow"
             d="M 11.500037,31.436501 C 11.940474,20.09759 22.043105,11.32322 32.158766,21.979434 L 37.068811,17.246167 C 37.068811,17.246167 37.088388,32 37.088388,32 L 22.160133,31.978069 C 22.160133,31.978069 26.997745,27.140456 26.997745,27.140456 C 18.528582,18.264221 13.291696,25.230495 11.500037,31.436501 z"
             style="fill:#404040;"/>
          </a>
         </g>
        </svg>
</svg>
