<?xml version="1.0" encoding="UTF-8" standalone="no"?>
<!DOCTYPE svg PUBLIC "-//W3C//DTD SVG 1.1//EN"
 "http://www.w3.org/Graphics/SVG/1.1/DTD/svg11.dtd">
<!-- Generated by graphviz version 2.38.0 (20140413.2041)
 -->
<!-- Title: forcecap_tcl.hpp Pages: 1 -->
<svg width="763pt" height="140pt"
 viewBox="0.00 0.00 763.00 140.00" xmlns="http://www.w3.org/2000/svg" xmlns:xlink="http://www.w3.org/1999/xlink">
<g id="graph0" class="graph" transform="scale(1 1) rotate(0) translate(4 136)">
<title>forcecap_tcl.hpp</title>
<!-- Node1 -->
<g id="node1" class="node"><title>Node1</title>
<polygon fill="#bfbfbf" stroke="black" points="379.5,-112.5 379.5,-131.5 476.5,-131.5 476.5,-112.5 379.5,-112.5"/>
<text text-anchor="middle" x="428" y="-119.5" font-family="Helvetica,sans-Serif" font-size="10.00">forcecap_tcl.hpp</text>
</g>
<!-- Node2 -->
<g id="node2" class="node"><title>Node2</title>
<g id="a_node2"><a xlink:href="buckingham__tcl_8cpp.html" target="_top" xlink:title="Implementation of buckingham_tcl.hpp. ">
<polygon fill="none" stroke="black" points="0,-56.5 0,-75.5 114,-75.5 114,-56.5 0,-56.5"/>
<text text-anchor="middle" x="57" y="-63.5" font-family="Helvetica,sans-Serif" font-size="10.00">buckingham_tcl.cpp</text>
</a>
</g>
</g>
<!-- Node1&#45;&gt;Node2 -->
<g id="edge1" class="edge"><title>Node1&#45;&gt;Node2</title>
<path fill="none" stroke="midnightblue" d="M369.528,-112.489C299.595,-102.31 183.316,-85.3857 114.029,-75.3007"/>
<polygon fill="midnightblue" stroke="midnightblue" points="369.098,-115.964 379.498,-113.94 370.107,-109.037 369.098,-115.964"/>
</g>
<!-- Node3 -->
<g id="node3" class="node"><title>Node3</title>
<g id="a_node3"><a xlink:href="forcecap__tcl_8cpp.html" target="_top" xlink:title="forcecap_tcl.cpp">
<polygon fill="none" stroke="black" points="132,-56.5 132,-75.5 228,-75.5 228,-56.5 132,-56.5"/>
<text text-anchor="middle" x="180" y="-63.5" font-family="Helvetica,sans-Serif" font-size="10.00">forcecap_tcl.cpp</text>
</a>
</g>
</g>
<!-- Node1&#45;&gt;Node3 -->
<g id="edge2" class="edge"><title>Node1&#45;&gt;Node3</title>
<path fill="none" stroke="midnightblue" d="M378.774,-110.281C331.909,-100.077 262.301,-84.9203 219.112,-75.5164"/>
<polygon fill="midnightblue" stroke="midnightblue" points="378.188,-113.736 388.704,-112.444 379.677,-106.896 378.188,-113.736"/>
</g>
<!-- Node4 -->
<g id="node4" class="node"><title>Node4</title>
<g id="a_node4"><a xlink:href="interaction__data__tcl_8hpp.html" target="_top" xlink:title="interaction_data_tcl.hpp">
<polygon fill="none" stroke="black" points="246,-56.5 246,-75.5 380,-75.5 380,-56.5 246,-56.5"/>
<text text-anchor="middle" x="313" y="-63.5" font-family="Helvetica,sans-Serif" font-size="10.00">interaction_data_tcl.hpp</text>
</a>
</g>
</g>
<!-- Node1&#45;&gt;Node4 -->
<g id="edge3" class="edge"><title>Node1&#45;&gt;Node4</title>
<path fill="none" stroke="midnightblue" d="M400.519,-108.096C379.034,-98.0073 349.778,-84.2697 331.137,-75.5164"/>
<polygon fill="midnightblue" stroke="midnightblue" points="399.238,-111.361 409.778,-112.444 402.214,-105.025 399.238,-111.361"/>
</g>
<!-- Node7 -->
<g id="node7" class="node"><title>Node7</title>
<g id="a_node7"><a xlink:href="lj__tcl_8cpp.html" target="_top" xlink:title="lj_tcl.cpp">
<polygon fill="none" stroke="black" points="398,-56.5 398,-75.5 458,-75.5 458,-56.5 398,-56.5"/>
<text text-anchor="middle" x="428" y="-63.5" font-family="Helvetica,sans-Serif" font-size="10.00">lj_tcl.cpp</text>
</a>
</g>
</g>
<!-- Node1&#45;&gt;Node7 -->
<g id="edge6" class="edge"><title>Node1&#45;&gt;Node7</title>
<path fill="none" stroke="midnightblue" d="M428,-101.805C428,-92.9102 428,-82.7798 428,-75.7511"/>
<polygon fill="midnightblue" stroke="midnightblue" points="424.5,-102.083 428,-112.083 431.5,-102.083 424.5,-102.083"/>
</g>
<!-- Node8 -->
<g id="node8" class="node"><title>Node8</title>
<g id="a_node8"><a xlink:href="ljangle__tcl_8cpp.html" target="_top" xlink:title="ljangle_tcl.cpp">
<polygon fill="none" stroke="black" points="476.5,-56.5 476.5,-75.5 563.5,-75.5 563.5,-56.5 476.5,-56.5"/>
<text text-anchor="middle" x="520" y="-63.5" font-family="Helvetica,sans-Serif" font-size="10.00">ljangle_tcl.cpp</text>
</a>
</g>
</g>
<!-- Node1&#45;&gt;Node8 -->
<g id="edge7" class="edge"><title>Node1&#45;&gt;Node8</title>
<path fill="none" stroke="midnightblue" d="M451.55,-107.177C468.479,-97.2407 490.783,-84.1492 505.255,-75.6545"/>
<polygon fill="midnightblue" stroke="midnightblue" points="449.634,-104.243 442.781,-112.324 453.177,-110.28 449.634,-104.243"/>
</g>
<!-- Node9 -->
<g id="node9" class="node"><title>Node9</title>
<g id="a_node9"><a xlink:href="morse__tcl_8cpp.html" target="_top" xlink:title="TCL interface for the Morse potential. ">
<polygon fill="none" stroke="black" points="581.5,-56.5 581.5,-75.5 666.5,-75.5 666.5,-56.5 581.5,-56.5"/>
<text text-anchor="middle" x="624" y="-63.5" font-family="Helvetica,sans-Serif" font-size="10.00">morse_tcl.cpp</text>
</a>
</g>
</g>
<!-- Node1&#45;&gt;Node9 -->
<g id="edge8" class="edge"><title>Node1&#45;&gt;Node9</title>
<path fill="none" stroke="midnightblue" d="M469.02,-109.699C506.011,-99.507 559.6,-84.7429 593.089,-75.5164"/>
<polygon fill="midnightblue" stroke="midnightblue" points="467.768,-106.413 459.057,-112.444 469.627,-113.162 467.768,-106.413"/>
</g>
<!-- Node10 -->
<g id="node10" class="node"><title>Node10</title>
<g id="a_node10"><a xlink:href="tab__tcl_8cpp.html" target="_top" xlink:title="tab_tcl.cpp">
<polygon fill="none" stroke="black" points="685,-56.5 685,-75.5 755,-75.5 755,-56.5 685,-56.5"/>
<text text-anchor="middle" x="720" y="-63.5" font-family="Helvetica,sans-Serif" font-size="10.00">tab_tcl.cpp</text>
</a>
</g>
</g>
<!-- Node1&#45;&gt;Node10 -->
<g id="edge9" class="edge"><title>Node1&#45;&gt;Node10</title>
<path fill="none" stroke="midnightblue" d="M486.572,-110.751C536.869,-101.859 611.283,-88.4886 676,-76 678.909,-75.4386 681.924,-74.8456 684.95,-74.2426"/>
<polygon fill="midnightblue" stroke="midnightblue" points="485.77,-107.338 476.531,-112.523 486.987,-114.232 485.77,-107.338"/>
</g>
<!-- Node5 -->
<g id="node5" class="node"><title>Node5</title>
<g id="a_node5"><a xlink:href="initialize__interpreter_8cpp.html" target="_top" xlink:title="initialize_interpreter.cpp">
<polygon fill="none" stroke="black" points="168.5,-0.5 168.5,-19.5 303.5,-19.5 303.5,-0.5 168.5,-0.5"/>
<text text-anchor="middle" x="236" y="-7.5" font-family="Helvetica,sans-Serif" font-size="10.00">initialize_interpreter.cpp</text>
</a>
</g>
</g>
<!-- Node4&#45;&gt;Node5 -->
<g id="edge4" class="edge"><title>Node4&#45;&gt;Node5</title>
<path fill="none" stroke="midnightblue" d="M292.099,-50.3422C278.089,-40.5169 260.117,-27.9132 248.341,-19.6545"/>
<polygon fill="midnightblue" stroke="midnightblue" points="290.432,-53.4477 300.629,-56.324 294.451,-47.7166 290.432,-53.4477"/>
</g>
<!-- Node6 -->
<g id="node6" class="node"><title>Node6</title>
<g id="a_node6"><a xlink:href="interaction__data__tcl_8cpp.html" target="_top" xlink:title="interaction_data_tcl.cpp">
<polygon fill="none" stroke="black" points="322,-0.5 322,-19.5 456,-19.5 456,-0.5 322,-0.5"/>
<text text-anchor="middle" x="389" y="-7.5" font-family="Helvetica,sans-Serif" font-size="10.00">interaction_data_tcl.cpp</text>
</a>
</g>
</g>
<!-- Node4&#45;&gt;Node6 -->
<g id="edge5" class="edge"><title>Node4&#45;&gt;Node6</title>
<path fill="none" stroke="midnightblue" d="M333.576,-50.3804C347.312,-40.6204 364.925,-28.1057 376.567,-19.8339"/>
<polygon fill="midnightblue" stroke="midnightblue" points="331.335,-47.6787 325.211,-56.324 335.39,-53.385 331.335,-47.6787"/>
</g>
</g>
</svg>
