<?xml version="1.0" encoding="UTF-8" standalone="no"?>
<!DOCTYPE svg PUBLIC "-//W3C//DTD SVG 1.1//EN"
 "http://www.w3.org/Graphics/SVG/1.1/DTD/svg11.dtd">
<!-- Generated by graphviz version 2.38.0 (20140413.2041)
 -->
<!-- Title: gb_tcl.cpp Pages: 1 -->
<!--zoomable 532 -->
<svg id="main" version="1.1" xmlns="http://www.w3.org/2000/svg" xmlns:xlink="http://www.w3.org/1999/xlink" xml:space="preserve" onload="init(evt)">
<style type="text/css"><![CDATA[
.edge:hover path { stroke: red; }
.edge:hover polygon { stroke: red; fill: red; }
]]></style>
<script type="text/javascript"><![CDATA[
var edges = document.getElementsByTagName('g');
if (edges && edges.length) {
  for (var i=0;i<edges.length;i++) {
    if (edges[i].id.substr(0,4)=='edge') {
      edges[i].setAttribute('class','edge');
    }
  }
}
]]></script>
        <defs>
                <circle id="rim" cx="0" cy="0" r="7"/>
                <circle id="rim2" cx="0" cy="0" r="3.5"/>
                <g id="zoomPlus">
                        <use xlink:href="#rim" fill="#404040">
                                <set attributeName="fill" to="#808080" begin="zoomplus.mouseover" end="zoomplus.mouseout"/>
                        </use>
                        <path d="M-4,0h8M0,-4v8" fill="none" stroke="white" stroke-width="1.5" pointer-events="none"/>
                </g>
                <g id="zoomMin">
                        <use xlink:href="#rim" fill="#404040">
                                <set attributeName="fill" to="#808080" begin="zoomminus.mouseover" end="zoomminus.mouseout"/>
                        </use>
                        <path d="M-4,0h8" fill="none" stroke="white" stroke-width="1.5" pointer-events="none"/>
                </g>
                <g id="dirArrow">
                        <path fill="none" stroke="white" stroke-width="1.5" d="M0,-3.0v7 M-2.5,-0.5L0,-3.0L2.5,-0.5"/>
                </g>
               <g id="resetDef">
                       <use xlink:href="#rim2" fill="#404040">
                               <set attributeName="fill" to="#808080" begin="reset.mouseover" end="reset.mouseout"/>
                       </use>
               </g>
        </defs>

<script type="text/javascript">
var viewWidth = 1077;
var viewHeight = 532;
var sectionId = 'dynsection-0';
</script>
<script xlink:href="svgpan.js"/>
<svg id="graph" class="graph">
<g id="viewport">
<title>gb_tcl.cpp</title>
<!-- Node1 -->
<g id="node1" class="node"><title>Node1</title>
<polygon fill="#bfbfbf" stroke="black" points="396.131,-504.5 396.131,-523.5 462.131,-523.5 462.131,-504.5 396.131,-504.5"/>
<text text-anchor="middle" x="429.131" y="-511.5" font-family="Helvetica,sans-Serif" font-size="10.00">gb_tcl.cpp</text>
</g>
<!-- Node2 -->
<g id="node2" class="node"><title>Node2</title>
<g id="a_node2"><a xlink:href="gb__tcl_8hpp.html" target="_top" xlink:title="Tcl interface for gb.hpp. ">
<polygon fill="none" stroke="black" points="150.631,-448.5 150.631,-467.5 217.631,-467.5 217.631,-448.5 150.631,-448.5"/>
<text text-anchor="middle" x="184.131" y="-455.5" font-family="Helvetica,sans-Serif" font-size="10.00">gb_tcl.hpp</text>
</a>
</g>
</g>
<!-- Node1&#45;&gt;Node2 -->
<g id="edge1" class="edge"><title>Node1&#45;&gt;Node2</title>
<path fill="none" stroke="midnightblue" d="M396.089,-505.717C352.557,-496.122 275.882,-479.223 227.662,-468.594"/>
<polygon fill="midnightblue" stroke="midnightblue" points="228.345,-465.161 217.826,-466.427 226.838,-471.997 228.345,-465.161"/>
</g>
<!-- Node22 -->
<g id="node22" class="node"><title>Node22</title>
<g id="a_node22"><a xlink:href="gb_8hpp.html" target="_top" xlink:title="Routines to calculate the Gay&#45;Berne energy and force for a pair of particles. ">
<polygon fill="none" stroke="black" points="404.131,-448.5 404.131,-467.5 454.131,-467.5 454.131,-448.5 404.131,-448.5"/>
<text text-anchor="middle" x="429.131" y="-455.5" font-family="Helvetica,sans-Serif" font-size="10.00">gb.hpp</text>
</a>
</g>
</g>
<!-- Node1&#45;&gt;Node22 -->
<g id="edge25" class="edge"><title>Node1&#45;&gt;Node22</title>
<path fill="none" stroke="midnightblue" d="M429.131,-504.083C429.131,-497.006 429.131,-486.861 429.131,-477.986"/>
<polygon fill="midnightblue" stroke="midnightblue" points="432.631,-477.751 429.131,-467.751 425.631,-477.751 432.631,-477.751"/>
</g>
<!-- Node29 -->
<g id="node29" class="node"><title>Node29</title>
<g id="a_node29"><a xlink:href="communication_8hpp.html" target="_top" xlink:title="This file contains the asynchronous MPI communication. ">
<polygon fill="none" stroke="black" points="645.631,-280.5 645.631,-299.5 758.631,-299.5 758.631,-280.5 645.631,-280.5"/>
<text text-anchor="middle" x="702.131" y="-287.5" font-family="Helvetica,sans-Serif" font-size="10.00">communication.hpp</text>
</a>
</g>
</g>
<!-- Node1&#45;&gt;Node29 -->
<g id="edge43" class="edge"><title>Node1&#45;&gt;Node29</title>
<path fill="none" stroke="midnightblue" d="M445.115,-504.385C474.473,-488.209 538.352,-451.359 586.131,-412 626.74,-378.547 667.847,-331.994 688.495,-307.53"/>
<polygon fill="midnightblue" stroke="midnightblue" points="691.41,-309.499 695.137,-299.582 686.039,-305.011 691.41,-309.499"/>
</g>
<!-- Node3 -->
<g id="node3" class="node"><title>Node3</title>
<g id="a_node3"><a xlink:href="parser_8hpp.html" target="_top" xlink:title="This file contains macros for parsing the parameters to the &#39;inter&#39; command. ">
<polygon fill="none" stroke="black" points="99.1311,-224.5 99.1311,-243.5 167.131,-243.5 167.131,-224.5 99.1311,-224.5"/>
<text text-anchor="middle" x="133.131" y="-231.5" font-family="Helvetica,sans-Serif" font-size="10.00">parser.hpp</text>
</a>
</g>
</g>
<!-- Node2&#45;&gt;Node3 -->
<g id="edge2" class="edge"><title>Node2&#45;&gt;Node3</title>
<path fill="none" stroke="midnightblue" d="M166.608,-448.466C128.262,-428.672 37.5862,-375.497 3.13115,-300 -14.1693,-262.092 44.9443,-246.043 89.0867,-239.426"/>
<polygon fill="midnightblue" stroke="midnightblue" points="89.659,-242.88 99.0864,-238.046 88.7017,-235.946 89.659,-242.88"/>
</g>
<!-- Node4 -->
<g id="node4" class="node"><title>Node4</title>
<g id="a_node4"><a xlink:href="utils_8hpp.html" target="_top" xlink:title="Small functions that are useful not only for one modul. ">
<polygon fill="none" stroke="black" points="518.631,-168.5 518.631,-187.5 577.631,-187.5 577.631,-168.5 518.631,-168.5"/>
<text text-anchor="middle" x="548.131" y="-175.5" font-family="Helvetica,sans-Serif" font-size="10.00">utils.hpp</text>
</a>
</g>
</g>
<!-- Node3&#45;&gt;Node4 -->
<g id="edge3" class="edge"><title>Node3&#45;&gt;Node4</title>
<path fill="none" stroke="midnightblue" d="M167.445,-228.535C243.738,-218.608 427.083,-194.751 508.279,-184.186"/>
<polygon fill="midnightblue" stroke="midnightblue" points="509.114,-187.607 518.579,-182.845 508.211,-180.665 509.114,-187.607"/>
</g>
<!-- Node8 -->
<g id="node8" class="node"><title>Node8</title>
<polygon fill="none" stroke="#bfbfbf" points="216.131,-112.5 216.131,-131.5 266.131,-131.5 266.131,-112.5 216.131,-112.5"/>
<text text-anchor="middle" x="241.131" y="-119.5" font-family="Helvetica,sans-Serif" font-size="10.00">cstring</text>
</g>
<!-- Node3&#45;&gt;Node8 -->
<g id="edge23" class="edge"><title>Node3&#45;&gt;Node8</title>
<path fill="none" stroke="midnightblue" d="M141.606,-224.368C159.744,-205.894 202.553,-162.293 225.674,-138.744"/>
<polygon fill="midnightblue" stroke="midnightblue" points="228.187,-141.179 232.696,-131.591 223.193,-136.275 228.187,-141.179"/>
</g>
<!-- Node21 -->
<g id="node21" class="node"><title>Node21</title>
<polygon fill="none" stroke="#bfbfbf" points="95.1311,-168.5 95.1311,-187.5 133.131,-187.5 133.131,-168.5 95.1311,-168.5"/>
<text text-anchor="middle" x="114.131" y="-175.5" font-family="Helvetica,sans-Serif" font-size="10.00">tcl.h</text>
</g>
<!-- Node3&#45;&gt;Node21 -->
<g id="edge24" class="edge"><title>Node3&#45;&gt;Node21</title>
<path fill="none" stroke="midnightblue" d="M129.994,-224.083C127.448,-216.849 123.775,-206.409 120.604,-197.397"/>
<polygon fill="midnightblue" stroke="midnightblue" points="123.831,-196.023 117.21,-187.751 117.228,-198.346 123.831,-196.023"/>
</g>
<!-- Node5 -->
<g id="node5" class="node"><title>Node5</title>
<polygon fill="none" stroke="#bfbfbf" points="406.631,-112.5 406.631,-131.5 453.631,-131.5 453.631,-112.5 406.631,-112.5"/>
<text text-anchor="middle" x="430.131" y="-119.5" font-family="Helvetica,sans-Serif" font-size="10.00">cmath</text>
</g>
<!-- Node4&#45;&gt;Node5 -->
<g id="edge4" class="edge"><title>Node4&#45;&gt;Node5</title>
<path fill="none" stroke="midnightblue" d="M529.434,-168.444C510.187,-159.636 479.979,-145.812 457.931,-135.722"/>
<polygon fill="midnightblue" stroke="midnightblue" points="459.291,-132.495 448.741,-131.516 456.378,-138.86 459.291,-132.495"/>
</g>
<!-- Node6 -->
<g id="node6" class="node"><title>Node6</title>
<polygon fill="none" stroke="#bfbfbf" points="594.131,-112.5 594.131,-131.5 640.131,-131.5 640.131,-112.5 594.131,-112.5"/>
<text text-anchor="middle" x="617.131" y="-119.5" font-family="Helvetica,sans-Serif" font-size="10.00">cstdio</text>
</g>
<!-- Node4&#45;&gt;Node6 -->
<g id="edge5" class="edge"><title>Node4&#45;&gt;Node6</title>
<path fill="none" stroke="midnightblue" d="M559.217,-168.324C569.617,-160.185 585.392,-147.839 597.853,-138.087"/>
<polygon fill="midnightblue" stroke="midnightblue" points="600.125,-140.753 605.843,-131.834 595.811,-135.241 600.125,-140.753"/>
</g>
<!-- Node7 -->
<g id="node7" class="node"><title>Node7</title>
<polygon fill="none" stroke="#bfbfbf" points="658.631,-112.5 658.631,-131.5 707.631,-131.5 707.631,-112.5 658.631,-112.5"/>
<text text-anchor="middle" x="683.131" y="-119.5" font-family="Helvetica,sans-Serif" font-size="10.00">cstdlib</text>
</g>
<!-- Node4&#45;&gt;Node7 -->
<g id="edge6" class="edge"><title>Node4&#45;&gt;Node7</title>
<path fill="none" stroke="midnightblue" d="M569.522,-168.444C591.838,-159.517 627.034,-145.439 652.339,-135.317"/>
<polygon fill="midnightblue" stroke="midnightblue" points="653.855,-138.48 661.84,-131.516 651.255,-131.981 653.855,-138.48"/>
</g>
<!-- Node4&#45;&gt;Node8 -->
<g id="edge7" class="edge"><title>Node4&#45;&gt;Node8</title>
<path fill="none" stroke="midnightblue" d="M518.467,-173.056C469.867,-166.392 370.09,-151.858 276.255,-132.073"/>
<polygon fill="midnightblue" stroke="midnightblue" points="276.828,-128.617 266.318,-129.953 275.367,-135.463 276.828,-128.617"/>
</g>
<!-- Node9 -->
<g id="node9" class="node"><title>Node9</title>
<g id="a_node9"><a xlink:href="config_8hpp.html" target="_top" xlink:title="This file contains the defaults for Espresso. ">
<polygon fill="none" stroke="black" points="448.631,-56.5 448.631,-75.5 515.631,-75.5 515.631,-56.5 448.631,-56.5"/>
<text text-anchor="middle" x="482.131" y="-63.5" font-family="Helvetica,sans-Serif" font-size="10.00">config.hpp</text>
</a>
</g>
</g>
<!-- Node4&#45;&gt;Node9 -->
<g id="edge8" class="edge"><title>Node4&#45;&gt;Node9</title>
<path fill="none" stroke="midnightblue" d="M535.994,-168.343C525.335,-160.134 510.161,-146.87 501.131,-132 492.454,-117.712 487.554,-99.2433 484.913,-85.6463"/>
<polygon fill="midnightblue" stroke="midnightblue" points="488.326,-84.8371 483.192,-75.5691 481.425,-86.0156 488.326,-84.8371"/>
</g>
<!-- Node13 -->
<g id="node13" class="node"><title>Node13</title>
<g id="a_node13"><a xlink:href="debug_8hpp.html" target="_top" xlink:title="This file controls debug facilities. ">
<polygon fill="none" stroke="black" points="726.131,-112.5 726.131,-131.5 794.131,-131.5 794.131,-112.5 726.131,-112.5"/>
<text text-anchor="middle" x="760.131" y="-119.5" font-family="Helvetica,sans-Serif" font-size="10.00">debug.hpp</text>
</a>
</g>
</g>
<!-- Node4&#45;&gt;Node13 -->
<g id="edge12" class="edge"><title>Node4&#45;&gt;Node13</title>
<path fill="none" stroke="midnightblue" d="M578.056,-169.378C614.223,-160.165 675.363,-144.592 716.712,-134.06"/>
<polygon fill="midnightblue" stroke="midnightblue" points="717.684,-137.424 726.511,-131.564 715.956,-130.64 717.684,-137.424"/>
</g>
<!-- Node14 -->
<g id="node14" class="node"><title>Node14</title>
<g id="a_node14"><a xlink:href="lees__edwards_8hpp.html" target="_top" xlink:title="lees_edwards.hpp">
<polygon fill="none" stroke="black" points="284.131,-112.5 284.131,-131.5 388.131,-131.5 388.131,-112.5 284.131,-112.5"/>
<text text-anchor="middle" x="336.131" y="-119.5" font-family="Helvetica,sans-Serif" font-size="10.00">lees_edwards.hpp</text>
</a>
</g>
</g>
<!-- Node4&#45;&gt;Node14 -->
<g id="edge14" class="edge"><title>Node4&#45;&gt;Node14</title>
<path fill="none" stroke="midnightblue" d="M518.206,-169.378C482.04,-160.165 420.9,-144.592 379.551,-134.06"/>
<polygon fill="midnightblue" stroke="midnightblue" points="380.306,-130.64 369.752,-131.564 378.578,-137.424 380.306,-130.64"/>
</g>
<!-- Node15 -->
<g id="node15" class="node"><title>Node15</title>
<g id="a_node15"><a xlink:href="errorhandling_8hpp.html" target="_top" xlink:title="This file contains the errorhandling code for severe errors, like a broken bond or illegal parameter ...">
<polygon fill="none" stroke="black" points="916.631,-112.5 916.631,-131.5 1019.63,-131.5 1019.63,-112.5 916.631,-112.5"/>
<text text-anchor="middle" x="968.131" y="-119.5" font-family="Helvetica,sans-Serif" font-size="10.00">errorhandling.hpp</text>
</a>
</g>
</g>
<!-- Node4&#45;&gt;Node15 -->
<g id="edge16" class="edge"><title>Node4&#45;&gt;Node15</title>
<path fill="none" stroke="midnightblue" d="M577.665,-173.203C645.695,-164.456 814.629,-142.736 906.41,-130.936"/>
<polygon fill="midnightblue" stroke="midnightblue" points="906.925,-134.398 916.397,-129.651 906.033,-127.455 906.925,-134.398"/>
</g>
<!-- Node19 -->
<g id="node19" class="node"><title>Node19</title>
<polygon fill="none" stroke="#bfbfbf" points="812.631,-112.5 812.631,-131.5 859.631,-131.5 859.631,-112.5 812.631,-112.5"/>
<text text-anchor="middle" x="836.131" y="-119.5" font-family="Helvetica,sans-Serif" font-size="10.00">vector</text>
</g>
<!-- Node4&#45;&gt;Node19 -->
<g id="edge21" class="edge"><title>Node4&#45;&gt;Node19</title>
<path fill="none" stroke="midnightblue" d="M577.755,-172.675C623.747,-165.764 715.271,-151.238 802.602,-131.941"/>
<polygon fill="midnightblue" stroke="midnightblue" points="803.407,-135.347 812.403,-129.75 801.88,-128.516 803.407,-135.347"/>
</g>
<!-- Node20 -->
<g id="node20" class="node"><title>Node20</title>
<polygon fill="none" stroke="#bfbfbf" points="510.631,-112.5 510.631,-131.5 575.631,-131.5 575.631,-112.5 510.631,-112.5"/>
<text text-anchor="middle" x="543.131" y="-119.5" font-family="Helvetica,sans-Serif" font-size="10.00">exception</text>
</g>
<!-- Node4&#45;&gt;Node20 -->
<g id="edge22" class="edge"><title>Node4&#45;&gt;Node20</title>
<path fill="none" stroke="midnightblue" d="M547.305,-168.083C546.65,-161.006 545.711,-150.861 544.889,-141.986"/>
<polygon fill="midnightblue" stroke="midnightblue" points="548.349,-141.386 543.941,-131.751 541.378,-142.031 548.349,-141.386"/>
</g>
<!-- Node10 -->
<g id="node10" class="node"><title>Node10</title>
<g id="a_node10"><a xlink:href="acconfig_8hpp.html" target="_top" xlink:title="acconfig.hpp">
<polygon fill="none" stroke="black" points="332.131,-0.5 332.131,-19.5 410.131,-19.5 410.131,-0.5 332.131,-0.5"/>
<text text-anchor="middle" x="371.131" y="-7.5" font-family="Helvetica,sans-Serif" font-size="10.00">acconfig.hpp</text>
</a>
</g>
</g>
<!-- Node9&#45;&gt;Node10 -->
<g id="edge9" class="edge"><title>Node9&#45;&gt;Node10</title>
<path fill="none" stroke="midnightblue" d="M464.297,-56.324C446.415,-47.6247 418.656,-34.1202 398.086,-24.113"/>
<polygon fill="midnightblue" stroke="midnightblue" points="399.444,-20.8819 388.921,-19.6545 396.382,-27.1765 399.444,-20.8819"/>
</g>
<!-- Node11 -->
<g id="node11" class="node"><title>Node11</title>
<g id="a_node11"><a xlink:href="myconfig-final_8hpp.html" target="_top" xlink:title="myconfig&#45;final.hpp">
<polygon fill="none" stroke="black" points="428.631,-0.5 428.631,-19.5 535.631,-19.5 535.631,-0.5 428.631,-0.5"/>
<text text-anchor="middle" x="482.131" y="-7.5" font-family="Helvetica,sans-Serif" font-size="10.00">myconfig&#45;final.hpp</text>
</a>
</g>
</g>
<!-- Node9&#45;&gt;Node11 -->
<g id="edge10" class="edge"><title>Node9&#45;&gt;Node11</title>
<path fill="none" stroke="midnightblue" d="M482.131,-56.083C482.131,-49.0059 482.131,-38.8611 482.131,-29.9865"/>
<polygon fill="midnightblue" stroke="midnightblue" points="485.631,-29.751 482.131,-19.7511 478.631,-29.7511 485.631,-29.751"/>
</g>
<!-- Node12 -->
<g id="node12" class="node"><title>Node12</title>
<g id="a_node12"><a xlink:href="config-features_8hpp.html" target="_top" xlink:title="config&#45;features.hpp">
<polygon fill="none" stroke="black" points="553.631,-0.5 553.631,-19.5 664.631,-19.5 664.631,-0.5 553.631,-0.5"/>
<text text-anchor="middle" x="609.131" y="-7.5" font-family="Helvetica,sans-Serif" font-size="10.00">config&#45;features.hpp</text>
</a>
</g>
</g>
<!-- Node9&#45;&gt;Node12 -->
<g id="edge11" class="edge"><title>Node9&#45;&gt;Node12</title>
<path fill="none" stroke="midnightblue" d="M502.255,-56.4435C523.155,-47.5566 556.066,-33.5632 579.847,-23.4514"/>
<polygon fill="midnightblue" stroke="midnightblue" points="581.269,-26.6504 589.102,-19.5164 578.53,-20.2085 581.269,-26.6504"/>
</g>
<!-- Node13&#45;&gt;Node9 -->
<g id="edge13" class="edge"><title>Node13&#45;&gt;Node9</title>
<path fill="none" stroke="midnightblue" d="M726.029,-113.983C722.686,-113.308 719.343,-112.637 716.131,-112 649.784,-98.8355 572.734,-84.1307 525.717,-75.2231"/>
<polygon fill="midnightblue" stroke="midnightblue" points="526.345,-71.7799 515.868,-73.3588 525.043,-78.6577 526.345,-71.7799"/>
</g>
<!-- Node14&#45;&gt;Node9 -->
<g id="edge15" class="edge"><title>Node14&#45;&gt;Node9</title>
<path fill="none" stroke="midnightblue" d="M359.265,-112.444C383.613,-103.438 422.138,-89.1891 449.554,-79.049"/>
<polygon fill="midnightblue" stroke="midnightblue" points="450.94,-82.2681 459.105,-75.5164 448.512,-75.7028 450.94,-82.2681"/>
</g>
<!-- Node15&#45;&gt;Node9 -->
<g id="edge17" class="edge"><title>Node15&#45;&gt;Node9</title>
<path fill="none" stroke="midnightblue" d="M916.627,-113.831C911.73,-113.193 906.838,-112.573 902.131,-112 764.99,-95.3062 602.244,-78.8128 525.846,-71.2652"/>
<polygon fill="midnightblue" stroke="midnightblue" points="525.946,-67.7582 515.651,-70.2605 525.259,-74.7244 525.946,-67.7582"/>
</g>
<!-- Node16 -->
<g id="node16" class="node"><title>Node16</title>
<polygon fill="none" stroke="#bfbfbf" points="878.131,-56.5 878.131,-75.5 922.131,-75.5 922.131,-56.5 878.131,-56.5"/>
<text text-anchor="middle" x="900.131" y="-63.5" font-family="Helvetica,sans-Serif" font-size="10.00">string</text>
</g>
<!-- Node15&#45;&gt;Node16 -->
<g id="edge18" class="edge"><title>Node15&#45;&gt;Node16</title>
<path fill="none" stroke="midnightblue" d="M957.206,-112.324C946.957,-104.185 931.411,-91.8395 919.13,-82.0874"/>
<polygon fill="midnightblue" stroke="midnightblue" points="921.263,-79.3119 911.255,-75.8339 916.91,-84.7937 921.263,-79.3119"/>
</g>
<!-- Node17 -->
<g id="node17" class="node"><title>Node17</title>
<polygon fill="none" stroke="#bfbfbf" points="940.131,-56.5 940.131,-75.5 996.131,-75.5 996.131,-56.5 940.131,-56.5"/>
<text text-anchor="middle" x="968.131" y="-63.5" font-family="Helvetica,sans-Serif" font-size="10.00">sstream</text>
</g>
<!-- Node15&#45;&gt;Node17 -->
<g id="edge19" class="edge"><title>Node15&#45;&gt;Node17</title>
<path fill="none" stroke="midnightblue" d="M968.131,-112.083C968.131,-105.006 968.131,-94.8611 968.131,-85.9865"/>
<polygon fill="midnightblue" stroke="midnightblue" points="971.631,-85.751 968.131,-75.7511 964.631,-85.7511 971.631,-85.751"/>
</g>
<!-- Node18 -->
<g id="node18" class="node"><title>Node18</title>
<polygon fill="none" stroke="#bfbfbf" points="1014.13,-56.5 1014.13,-75.5 1046.13,-75.5 1046.13,-56.5 1014.13,-56.5"/>
<text text-anchor="middle" x="1030.13" y="-63.5" font-family="Helvetica,sans-Serif" font-size="10.00">list</text>
</g>
<!-- Node15&#45;&gt;Node18 -->
<g id="edge20" class="edge"><title>Node15&#45;&gt;Node18</title>
<path fill="none" stroke="midnightblue" d="M978.093,-112.324C987.258,-104.341 1001.07,-92.3128 1012.16,-82.6529"/>
<polygon fill="midnightblue" stroke="midnightblue" points="1014.75,-85.041 1019.99,-75.8339 1010.15,-79.7624 1014.75,-85.041"/>
</g>
<!-- Node22&#45;&gt;Node4 -->
<g id="edge26" class="edge"><title>Node22&#45;&gt;Node4</title>
<path fill="none" stroke="midnightblue" d="M454.368,-450.202C495.42,-437.437 572.131,-405.728 572.131,-347 572.131,-347 572.131,-347 572.131,-289 572.131,-256.059 561.73,-218.818 554.622,-197.214"/>
<polygon fill="midnightblue" stroke="midnightblue" points="557.916,-196.028 551.368,-187.699 551.293,-198.294 557.916,-196.028"/>
</g>
<!-- Node23 -->
<g id="node23" class="node"><title>Node23</title>
<g id="a_node23"><a xlink:href="interaction__data_8hpp.html" target="_top" xlink:title="Various procedures concerning interactions between particles. ">
<polygon fill="none" stroke="black" points="426.631,-336.5 426.631,-355.5 543.631,-355.5 543.631,-336.5 426.631,-336.5"/>
<text text-anchor="middle" x="485.131" y="-343.5" font-family="Helvetica,sans-Serif" font-size="10.00">interaction_data.hpp</text>
</a>
</g>
</g>
<!-- Node22&#45;&gt;Node23 -->
<g id="edge27" class="edge"><title>Node22&#45;&gt;Node23</title>
<path fill="none" stroke="midnightblue" d="M433.525,-448.368C442.685,-430.376 463.978,-388.55 476.158,-364.627"/>
<polygon fill="midnightblue" stroke="midnightblue" points="479.34,-366.091 480.757,-355.591 473.101,-362.915 479.34,-366.091"/>
</g>
<!-- Node24 -->
<g id="node24" class="node"><title>Node24</title>
<g id="a_node24"><a xlink:href="particle__data_8hpp.html" target="_top" xlink:title="For more information on particle_data, see particle_data.c. ">
<polygon fill="none" stroke="black" points="328.631,-224.5 328.631,-243.5 429.631,-243.5 429.631,-224.5 328.631,-224.5"/>
<text text-anchor="middle" x="379.131" y="-231.5" font-family="Helvetica,sans-Serif" font-size="10.00">particle_data.hpp</text>
</a>
</g>
</g>
<!-- Node22&#45;&gt;Node24 -->
<g id="edge31" class="edge"><title>Node22&#45;&gt;Node24</title>
<path fill="none" stroke="midnightblue" d="M427.171,-448.297C419.799,-415.563 393.63,-299.375 383.335,-253.666"/>
<polygon fill="midnightblue" stroke="midnightblue" points="386.744,-252.87 381.132,-243.884 379.915,-254.408 386.744,-252.87"/>
</g>
<!-- Node25 -->
<g id="node25" class="node"><title>Node25</title>
<g id="a_node25"><a xlink:href="mol__cut_8hpp.html" target="_top" xlink:title="mol_cut.hpp">
<polygon fill="none" stroke="black" points="292.631,-392.5 292.631,-411.5 369.631,-411.5 369.631,-392.5 292.631,-392.5"/>
<text text-anchor="middle" x="331.131" y="-399.5" font-family="Helvetica,sans-Serif" font-size="10.00">mol_cut.hpp</text>
</a>
</g>
</g>
<!-- Node22&#45;&gt;Node25 -->
<g id="edge32" class="edge"><title>Node22&#45;&gt;Node25</title>
<path fill="none" stroke="midnightblue" d="M413.386,-448.324C397.812,-439.743 373.754,-426.486 355.672,-416.522"/>
<polygon fill="midnightblue" stroke="midnightblue" points="357.285,-413.415 346.837,-411.655 353.907,-419.546 357.285,-413.415"/>
</g>
<!-- Node23&#45;&gt;Node4 -->
<g id="edge28" class="edge"><title>Node23&#45;&gt;Node4</title>
<path fill="none" stroke="midnightblue" d="M488.518,-336.075C498.478,-309.832 527.81,-232.545 541.256,-197.117"/>
<polygon fill="midnightblue" stroke="midnightblue" points="544.603,-198.159 544.879,-187.568 538.059,-195.676 544.603,-198.159"/>
</g>
<!-- Node23&#45;&gt;Node24 -->
<g id="edge29" class="edge"><title>Node23&#45;&gt;Node24</title>
<path fill="none" stroke="midnightblue" d="M476.814,-336.368C459.088,-317.974 417.36,-274.671 394.599,-251.052"/>
<polygon fill="midnightblue" stroke="midnightblue" points="396.869,-248.364 387.41,-243.591 391.829,-253.221 396.869,-248.364"/>
</g>
<!-- Node24&#45;&gt;Node4 -->
<g id="edge30" class="edge"><title>Node24&#45;&gt;Node4</title>
<path fill="none" stroke="midnightblue" d="M405.91,-224.444C434.464,-215.32 479.864,-200.813 511.668,-190.651"/>
<polygon fill="midnightblue" stroke="midnightblue" points="513.018,-193.894 521.478,-187.516 510.887,-187.226 513.018,-193.894"/>
</g>
<!-- Node25&#45;&gt;Node23 -->
<g id="edge42" class="edge"><title>Node25&#45;&gt;Node23</title>
<path fill="none" stroke="midnightblue" d="M355.533,-392.444C381.328,-383.399 422.208,-369.064 451.149,-358.916"/>
<polygon fill="midnightblue" stroke="midnightblue" points="452.565,-362.128 460.844,-355.516 450.249,-355.523 452.565,-362.128"/>
</g>
<!-- Node25&#45;&gt;Node24 -->
<g id="edge41" class="edge"><title>Node25&#45;&gt;Node24</title>
<path fill="none" stroke="midnightblue" d="M333.712,-392.075C341.267,-365.945 363.456,-289.211 373.759,-253.577"/>
<polygon fill="midnightblue" stroke="midnightblue" points="377.238,-254.147 376.654,-243.568 370.514,-252.202 377.238,-254.147"/>
</g>
<!-- Node26 -->
<g id="node26" class="node"><title>Node26</title>
<g id="a_node26"><a xlink:href="virtual__sites_8hpp.html" target="_top" xlink:title="This file contains routine to handle virtual sites Virtual sites are like particles, but they will be not integrated. ">
<polygon fill="none" stroke="black" points="209.131,-336.5 209.131,-355.5 307.131,-355.5 307.131,-336.5 209.131,-336.5"/>
<text text-anchor="middle" x="258.131" y="-343.5" font-family="Helvetica,sans-Serif" font-size="10.00">virtual_sites.hpp</text>
</a>
</g>
</g>
<!-- Node25&#45;&gt;Node26 -->
<g id="edge33" class="edge"><title>Node25&#45;&gt;Node26</title>
<path fill="none" stroke="midnightblue" d="M319.402,-392.324C308.294,-384.107 291.389,-371.602 278.148,-361.807"/>
<polygon fill="midnightblue" stroke="midnightblue" points="280.194,-358.967 270.073,-355.834 276.031,-364.595 280.194,-358.967"/>
</g>
<!-- Node26&#45;&gt;Node24 -->
<g id="edge34" class="edge"><title>Node26&#45;&gt;Node24</title>
<path fill="none" stroke="midnightblue" d="M267.626,-336.368C288.036,-317.814 336.327,-273.913 362.15,-250.438"/>
<polygon fill="midnightblue" stroke="midnightblue" points="364.636,-252.908 369.681,-243.591 359.927,-247.728 364.636,-252.908"/>
</g>
<!-- Node27 -->
<g id="node27" class="node"><title>Node27</title>
<g id="a_node27"><a xlink:href="virtual__sites__com_8hpp.html" target="_top" xlink:title="virtual_sites_com.hpp">
<polygon fill="none" stroke="black" points="170.131,-280.5 170.131,-299.5 294.131,-299.5 294.131,-280.5 170.131,-280.5"/>
<text text-anchor="middle" x="232.131" y="-287.5" font-family="Helvetica,sans-Serif" font-size="10.00">virtual_sites_com.hpp</text>
</a>
</g>
</g>
<!-- Node26&#45;&gt;Node27 -->
<g id="edge35" class="edge"><title>Node26&#45;&gt;Node27</title>
<path fill="none" stroke="midnightblue" d="M253.838,-336.083C250.279,-328.691 245.109,-317.953 240.707,-308.811"/>
<polygon fill="midnightblue" stroke="midnightblue" points="243.836,-307.243 236.345,-299.751 237.529,-310.279 243.836,-307.243"/>
</g>
<!-- Node28 -->
<g id="node28" class="node"><title>Node28</title>
<g id="a_node28"><a xlink:href="virtual__sites__relative_8hpp.html" target="_top" xlink:title="virtual_sites_relative.hpp">
<polygon fill="none" stroke="black" points="12.1311,-280.5 12.1311,-299.5 152.131,-299.5 152.131,-280.5 12.1311,-280.5"/>
<text text-anchor="middle" x="82.1311" y="-287.5" font-family="Helvetica,sans-Serif" font-size="10.00">virtual_sites_relative.hpp</text>
</a>
</g>
</g>
<!-- Node26&#45;&gt;Node28 -->
<g id="edge38" class="edge"><title>Node26&#45;&gt;Node28</title>
<path fill="none" stroke="midnightblue" d="M230.243,-336.444C200.377,-327.28 152.817,-312.688 119.675,-302.519"/>
<polygon fill="midnightblue" stroke="midnightblue" points="120.475,-299.104 109.888,-299.516 118.422,-305.796 120.475,-299.104"/>
</g>
<!-- Node27&#45;&gt;Node9 -->
<g id="edge36" class="edge"><title>Node27&#45;&gt;Node9</title>
<path fill="none" stroke="midnightblue" d="M226.861,-280.357C210.491,-252.293 164.129,-162.611 207.131,-112 236.256,-77.7219 368.168,-69.4984 438.175,-67.5645"/>
<polygon fill="midnightblue" stroke="midnightblue" points="438.533,-71.0569 448.444,-67.3137 438.362,-64.059 438.533,-71.0569"/>
</g>
<!-- Node27&#45;&gt;Node24 -->
<g id="edge37" class="edge"><title>Node27&#45;&gt;Node24</title>
<path fill="none" stroke="midnightblue" d="M255.424,-280.444C279.939,-271.438 318.727,-257.189 346.331,-247.049"/>
<polygon fill="midnightblue" stroke="midnightblue" points="347.768,-250.25 355.948,-243.516 345.354,-243.679 347.768,-250.25"/>
</g>
<!-- Node28&#45;&gt;Node9 -->
<g id="edge39" class="edge"><title>Node28&#45;&gt;Node9</title>
<path fill="none" stroke="midnightblue" d="M79.6653,-280.24C74.2479,-259.063 63.5064,-204.175 86.1311,-168 114.384,-122.826 141.554,-128.76 192.131,-112 276.361,-84.0882 380.205,-73.3267 437.992,-69.2987"/>
<polygon fill="midnightblue" stroke="midnightblue" points="438.483,-72.774 448.231,-68.6224 438.022,-65.7892 438.483,-72.774"/>
</g>
<!-- Node28&#45;&gt;Node24 -->
<g id="edge40" class="edge"><title>Node28&#45;&gt;Node24</title>
<path fill="none" stroke="midnightblue" d="M129.192,-280.444C181.546,-270.925 266.121,-255.547 322.171,-245.356"/>
<polygon fill="midnightblue" stroke="midnightblue" points="323.078,-248.749 332.291,-243.516 321.826,-241.862 323.078,-248.749"/>
</g>
<!-- Node29&#45;&gt;Node24 -->
<g id="edge44" class="edge"><title>Node29&#45;&gt;Node24</title>
<path fill="none" stroke="midnightblue" d="M650.951,-280.444C593.575,-270.851 500.615,-255.31 439.674,-245.122"/>
<polygon fill="midnightblue" stroke="midnightblue" points="440.246,-241.669 429.806,-243.472 439.092,-248.573 440.246,-241.669"/>
</g>
<!-- Node30 -->
<g id="node30" class="node"><title>Node30</title>
<g id="a_node30"><a xlink:href="random_8hpp.html" target="_top" xlink:title="A random generator. ">
<polygon fill="none" stroke="black" points="600.631,-224.5 600.631,-243.5 675.631,-243.5 675.631,-224.5 600.631,-224.5"/>
<text text-anchor="middle" x="638.131" y="-231.5" font-family="Helvetica,sans-Serif" font-size="10.00">random.hpp</text>
</a>
</g>
</g>
<!-- Node29&#45;&gt;Node30 -->
<g id="edge45" class="edge"><title>Node29&#45;&gt;Node30</title>
<path fill="none" stroke="midnightblue" d="M691.848,-280.324C682.295,-272.263 667.851,-260.077 656.347,-250.369"/>
<polygon fill="midnightblue" stroke="midnightblue" points="658.501,-247.608 648.601,-243.834 653.987,-252.958 658.501,-247.608"/>
</g>
<!-- Node31 -->
<g id="node31" class="node"><title>Node31</title>
<g id="a_node31"><a xlink:href="topology_8hpp.html" target="_top" xlink:title="This file contains functions for handling the system topology. ">
<polygon fill="none" stroke="black" points="693.631,-224.5 693.631,-243.5 772.631,-243.5 772.631,-224.5 693.631,-224.5"/>
<text text-anchor="middle" x="733.131" y="-231.5" font-family="Helvetica,sans-Serif" font-size="10.00">topology.hpp</text>
</a>
</g>
</g>
<!-- Node29&#45;&gt;Node31 -->
<g id="edge47" class="edge"><title>Node29&#45;&gt;Node31</title>
<path fill="none" stroke="midnightblue" d="M707.25,-280.083C711.539,-272.613 717.789,-261.724 723.073,-252.52"/>
<polygon fill="midnightblue" stroke="midnightblue" points="726.164,-254.166 728.107,-243.751 720.093,-250.681 726.164,-254.166"/>
</g>
<!-- Node32 -->
<g id="node32" class="node"><title>Node32</title>
<g id="a_node32"><a xlink:href="mpi_8h.html" target="_top" xlink:title="This is the MPIfake implementation. ">
<polygon fill="none" stroke="black" points="915.131,-224.5 915.131,-243.5 959.131,-243.5 959.131,-224.5 915.131,-224.5"/>
<text text-anchor="middle" x="937.131" y="-231.5" font-family="Helvetica,sans-Serif" font-size="10.00">mpi.h</text>
</a>
</g>
</g>
<!-- Node29&#45;&gt;Node32 -->
<g id="edge49" class="edge"><title>Node29&#45;&gt;Node32</title>
<path fill="none" stroke="midnightblue" d="M739.368,-280.444C785.041,-269.948 861.706,-252.332 904.942,-242.397"/>
<polygon fill="midnightblue" stroke="midnightblue" points="905.957,-245.755 914.919,-240.104 904.389,-238.933 905.957,-245.755"/>
</g>
<!-- Node36 -->
<g id="node36" class="node"><title>Node36</title>
<g id="a_node36"><a xlink:href="cuda__init_8hpp.html" target="_top" xlink:title="cuda_init.hpp">
<polygon fill="none" stroke="black" points="775.131,-168.5 775.131,-187.5 857.131,-187.5 857.131,-168.5 775.131,-168.5"/>
<text text-anchor="middle" x="816.131" y="-175.5" font-family="Helvetica,sans-Serif" font-size="10.00">cuda_init.hpp</text>
</a>
</g>
</g>
<!-- Node29&#45;&gt;Node36 -->
<g id="edge53" class="edge"><title>Node29&#45;&gt;Node36</title>
<path fill="none" stroke="midnightblue" d="M724.436,-280.348C741.6,-272.806 765.031,-260.488 781.131,-244 794.26,-230.554 803.831,-211.188 809.613,-197.093"/>
<polygon fill="midnightblue" stroke="midnightblue" points="812.969,-198.118 813.293,-187.529 806.436,-195.605 812.969,-198.118"/>
</g>
<!-- Node30&#45;&gt;Node4 -->
<g id="edge46" class="edge"><title>Node30&#45;&gt;Node4</title>
<path fill="none" stroke="midnightblue" d="M623.671,-224.324C609.632,-215.9 588.083,-202.971 571.588,-193.074"/>
<polygon fill="midnightblue" stroke="midnightblue" points="572.931,-189.798 562.555,-187.655 569.33,-195.801 572.931,-189.798"/>
</g>
<!-- Node31&#45;&gt;Node4 -->
<g id="edge48" class="edge"><title>Node31&#45;&gt;Node4</title>
<path fill="none" stroke="midnightblue" d="M703.817,-224.444C672.289,-215.241 622,-200.562 587.145,-190.388"/>
<polygon fill="midnightblue" stroke="midnightblue" points="587.888,-186.959 577.308,-187.516 585.927,-193.678 587.888,-186.959"/>
</g>
<!-- Node33 -->
<g id="node33" class="node"><title>Node33</title>
<polygon fill="none" stroke="#bfbfbf" points="875.631,-168.5 875.631,-187.5 928.631,-187.5 928.631,-168.5 875.631,-168.5"/>
<text text-anchor="middle" x="902.131" y="-175.5" font-family="Helvetica,sans-Serif" font-size="10.00">string.h</text>
</g>
<!-- Node32&#45;&gt;Node33 -->
<g id="edge50" class="edge"><title>Node32&#45;&gt;Node33</title>
<path fill="none" stroke="midnightblue" d="M931.352,-224.083C926.459,-216.534 919.304,-205.495 913.299,-196.23"/>
<polygon fill="midnightblue" stroke="midnightblue" points="916.179,-194.239 907.803,-187.751 910.305,-198.046 916.179,-194.239"/>
</g>
<!-- Node34 -->
<g id="node34" class="node"><title>Node34</title>
<polygon fill="none" stroke="#bfbfbf" points="947.131,-168.5 947.131,-187.5 997.131,-187.5 997.131,-168.5 947.131,-168.5"/>
<text text-anchor="middle" x="972.131" y="-175.5" font-family="Helvetica,sans-Serif" font-size="10.00">stdio.h</text>
</g>
<!-- Node32&#45;&gt;Node34 -->
<g id="edge51" class="edge"><title>Node32&#45;&gt;Node34</title>
<path fill="none" stroke="midnightblue" d="M942.911,-224.083C947.804,-216.534 954.959,-205.495 960.964,-196.23"/>
<polygon fill="midnightblue" stroke="midnightblue" points="963.957,-198.046 966.459,-187.751 958.083,-194.239 963.957,-198.046"/>
</g>
<!-- Node35 -->
<g id="node35" class="node"><title>Node35</title>
<polygon fill="none" stroke="#bfbfbf" points="1015.63,-168.5 1015.63,-187.5 1068.63,-187.5 1068.63,-168.5 1015.63,-168.5"/>
<text text-anchor="middle" x="1042.13" y="-175.5" font-family="Helvetica,sans-Serif" font-size="10.00">stdlib.h</text>
</g>
<!-- Node32&#45;&gt;Node35 -->
<g id="edge52" class="edge"><title>Node32&#45;&gt;Node35</title>
<path fill="none" stroke="midnightblue" d="M954.001,-224.324C970.84,-215.664 996.938,-202.242 1016.37,-192.249"/>
<polygon fill="midnightblue" stroke="midnightblue" points="1018.01,-195.341 1025.3,-187.655 1014.81,-189.116 1018.01,-195.341"/>
</g>
<!-- Node36&#45;&gt;Node9 -->
<g id="edge54" class="edge"><title>Node36&#45;&gt;Node9</title>
<path fill="none" stroke="midnightblue" d="M831.732,-168.352C852.693,-155.671 885.427,-131.43 868.131,-112 845.678,-86.7775 622.265,-73.4834 525.946,-68.8866"/>
<polygon fill="midnightblue" stroke="midnightblue" points="526.092,-65.3897 515.939,-68.4186 525.765,-72.3821 526.092,-65.3897"/>
</g>
<!-- Node36&#45;&gt;Node19 -->
<g id="edge55" class="edge"><title>Node36&#45;&gt;Node19</title>
<path fill="none" stroke="midnightblue" d="M819.434,-168.083C822.113,-160.849 825.98,-150.409 829.318,-141.397"/>
<polygon fill="midnightblue" stroke="midnightblue" points="832.699,-142.344 832.89,-131.751 826.135,-139.913 832.699,-142.344"/>
</g>
</g>
</svg>
        <g id="navigator" transform="translate(0 0)" fill="#404254">
                <rect fill="#f2f5e9" fill-opacity="0.5" stroke="#606060" stroke-width=".5" x="0" y="0" width="60" height="60"/>
                <use id="zoomplus" xlink:href="#zoomPlus" x="17" y="9" onmousedown="handleZoom(evt,'in')"/>
                <use id="zoomminus" xlink:href="#zoomMin" x="42" y="9" onmousedown="handleZoom(evt,'out')"/>
                <use id="reset" xlink:href="#resetDef" x="30" y="36" onmousedown="handleReset()"/>
                <g id="arrowUp" xlink:href="#dirArrow" transform="translate(30 24)" onmousedown="handlePan(0,-1)">
                  <use xlink:href="#rim" fill="#404040">
                        <set attributeName="fill" to="#808080" begin="arrowUp.mouseover" end="arrowUp.mouseout"/>
                  </use>
                  <path fill="none" stroke="white" stroke-width="1.5" d="M0,-3.0v7 M-2.5,-0.5L0,-3.0L2.5,-0.5"/>
                </g>
                <g id="arrowRight" xlink:href="#dirArrow" transform="rotate(90) translate(36 -43)" onmousedown="handlePan(1,0)">
                  <use xlink:href="#rim" fill="#404040">
                        <set attributeName="fill" to="#808080" begin="arrowRight.mouseover" end="arrowRight.mouseout"/>
                  </use>
                  <path fill="none" stroke="white" stroke-width="1.5" d="M0,-3.0v7 M-2.5,-0.5L0,-3.0L2.5,-0.5"/>
                </g>
                <g id="arrowDown" xlink:href="#dirArrow" transform="rotate(180) translate(-30 -48)" onmousedown="handlePan(0,1)">
                  <use xlink:href="#rim" fill="#404040">
                        <set attributeName="fill" to="#808080" begin="arrowDown.mouseover" end="arrowDown.mouseout"/>
                  </use>
                  <path fill="none" stroke="white" stroke-width="1.5" d="M0,-3.0v7 M-2.5,-0.5L0,-3.0L2.5,-0.5"/>
                </g>
                <g id="arrowLeft" xlink:href="#dirArrow" transform="rotate(270) translate(-36 17)" onmousedown="handlePan(-1,0)">
                  <use xlink:href="#rim" fill="#404040">
                        <set attributeName="fill" to="#808080" begin="arrowLeft.mouseover" end="arrowLeft.mouseout"/>
                  </use>
                  <path fill="none" stroke="white" stroke-width="1.5" d="M0,-3.0v7 M-2.5,-0.5L0,-3.0L2.5,-0.5"/>
                </g>
        </g>
        <svg viewBox="0 0 15 15" width="100%" height="30px" preserveAspectRatio="xMaxYMin meet">
         <g id="arrow_out" transform="scale(0.3 0.3)">
          <a xlink:href="gb__tcl_8cpp__incl_org.svg" target="_base">
           <rect id="button" ry="5" rx="5" y="6" x="6" height="38" width="38"
                fill="#f2f5e9" fill-opacity="0.5" stroke="#606060" stroke-width="1.0"/>
           <path id="arrow"
             d="M 11.500037,31.436501 C 11.940474,20.09759 22.043105,11.32322 32.158766,21.979434 L 37.068811,17.246167 C 37.068811,17.246167 37.088388,32 37.088388,32 L 22.160133,31.978069 C 22.160133,31.978069 26.997745,27.140456 26.997745,27.140456 C 18.528582,18.264221 13.291696,25.230495 11.500037,31.436501 z"
             style="fill:#404040;"/>
          </a>
         </g>
        </svg>
</svg>
