<?xml version="1.0" encoding="UTF-8" standalone="no"?>
<!DOCTYPE svg PUBLIC "-//W3C//DTD SVG 1.1//EN"
 "http://www.w3.org/Graphics/SVG/1.1/DTD/svg11.dtd">
<!-- Generated by graphviz version 2.38.0 (20140413.2041)
 -->
<!-- Title: ghmc.hpp Pages: 1 -->
<svg width="805pt" height="84pt"
 viewBox="0.00 0.00 805.00 84.00" xmlns="http://www.w3.org/2000/svg" xmlns:xlink="http://www.w3.org/1999/xlink">
<g id="graph0" class="graph" transform="scale(1 1) rotate(0) translate(4 80)">
<title>ghmc.hpp</title>
<!-- Node1 -->
<g id="node1" class="node"><title>Node1</title>
<polygon fill="#bfbfbf" stroke="black" points="326.5,-56.5 326.5,-75.5 391.5,-75.5 391.5,-56.5 326.5,-56.5"/>
<text text-anchor="middle" x="359" y="-63.5" font-family="Helvetica,sans-Serif" font-size="10.00">ghmc.hpp</text>
</g>
<!-- Node2 -->
<g id="node2" class="node"><title>Node2</title>
<g id="a_node2"><a xlink:href="ghmc_8cpp.html" target="_top" xlink:title="For more information see ghmc.hpp. ">
<polygon fill="none" stroke="black" points="0,-0.5 0,-19.5 64,-19.5 64,-0.5 0,-0.5"/>
<text text-anchor="middle" x="32" y="-7.5" font-family="Helvetica,sans-Serif" font-size="10.00">ghmc.cpp</text>
</a>
</g>
</g>
<!-- Node1&#45;&gt;Node2 -->
<g id="edge1" class="edge"><title>Node1&#45;&gt;Node2</title>
<path fill="none" stroke="midnightblue" d="M316.377,-59.1089C260.372,-51.1818 159.028,-36.1949 73,-20 70.1353,-19.4607 67.1649,-18.8702 64.1916,-18.2577"/>
<polygon fill="midnightblue" stroke="midnightblue" points="315.902,-62.5765 326.293,-60.5056 316.879,-55.6449 315.902,-62.5765"/>
</g>
<!-- Node3 -->
<g id="node3" class="node"><title>Node3</title>
<g id="a_node3"><a xlink:href="global_8cpp.html" target="_top" xlink:title="Implementation of global.h. ">
<polygon fill="none" stroke="black" points="82.5,-0.5 82.5,-19.5 149.5,-19.5 149.5,-0.5 82.5,-0.5"/>
<text text-anchor="middle" x="116" y="-7.5" font-family="Helvetica,sans-Serif" font-size="10.00">global.cpp</text>
</a>
</g>
</g>
<!-- Node1&#45;&gt;Node3 -->
<g id="edge2" class="edge"><title>Node1&#45;&gt;Node3</title>
<path fill="none" stroke="midnightblue" d="M316.533,-55.5629C269.159,-45.0354 193.468,-28.2151 149.89,-18.5311"/>
<polygon fill="midnightblue" stroke="midnightblue" points="315.959,-59.0206 326.48,-57.7734 317.477,-52.1873 315.959,-59.0206"/>
</g>
<!-- Node4 -->
<g id="node4" class="node"><title>Node4</title>
<g id="a_node4"><a xlink:href="initialize_8cpp.html" target="_top" xlink:title="Implementation of initialize.hpp. ">
<polygon fill="none" stroke="black" points="167.5,-0.5 167.5,-19.5 246.5,-19.5 246.5,-0.5 167.5,-0.5"/>
<text text-anchor="middle" x="207" y="-7.5" font-family="Helvetica,sans-Serif" font-size="10.00">initialize.cpp</text>
</a>
</g>
</g>
<!-- Node1&#45;&gt;Node4 -->
<g id="edge3" class="edge"><title>Node1&#45;&gt;Node4</title>
<path fill="none" stroke="midnightblue" d="M325.332,-53.0392C296.732,-42.8786 256.388,-28.5457 230.972,-19.5164"/>
<polygon fill="midnightblue" stroke="midnightblue" points="324.32,-56.3939 334.915,-56.4435 326.664,-49.7978 324.32,-56.3939"/>
</g>
<!-- Node5 -->
<g id="node5" class="node"><title>Node5</title>
<g id="a_node5"><a xlink:href="core_2integrate_8cpp.html" target="_top" xlink:title="integrate.cpp">
<polygon fill="none" stroke="black" points="264.5,-0.5 264.5,-19.5 345.5,-19.5 345.5,-0.5 264.5,-0.5"/>
<text text-anchor="middle" x="305" y="-7.5" font-family="Helvetica,sans-Serif" font-size="10.00">integrate.cpp</text>
</a>
</g>
</g>
<!-- Node1&#45;&gt;Node5 -->
<g id="edge4" class="edge"><title>Node1&#45;&gt;Node5</title>
<path fill="none" stroke="midnightblue" d="M343.002,-49.0024C333.433,-39.4329 321.639,-27.6389 313.751,-19.7511"/>
<polygon fill="midnightblue" stroke="midnightblue" points="340.537,-51.4868 350.083,-56.083 345.487,-46.537 340.537,-51.4868"/>
</g>
<!-- Node6 -->
<g id="node6" class="node"><title>Node6</title>
<g id="a_node6"><a xlink:href="integrate__sd_8cpp.html" target="_top" xlink:title="Stokesian dynamics integrator. ">
<polygon fill="none" stroke="black" points="364,-0.5 364,-19.5 462,-19.5 462,-0.5 364,-0.5"/>
<text text-anchor="middle" x="413" y="-7.5" font-family="Helvetica,sans-Serif" font-size="10.00">integrate_sd.cpp</text>
</a>
</g>
</g>
<!-- Node1&#45;&gt;Node6 -->
<g id="edge5" class="edge"><title>Node1&#45;&gt;Node6</title>
<path fill="none" stroke="midnightblue" d="M374.998,-49.0024C384.567,-39.4329 396.361,-27.6389 404.249,-19.7511"/>
<polygon fill="midnightblue" stroke="midnightblue" points="372.513,-46.537 367.917,-56.083 377.463,-51.4868 372.513,-46.537"/>
</g>
<!-- Node7 -->
<g id="node7" class="node"><title>Node7</title>
<g id="a_node7"><a xlink:href="core_2thermostat_8cpp.html" target="_top" xlink:title="thermostat.cpp">
<polygon fill="none" stroke="black" points="480.5,-0.5 480.5,-19.5 571.5,-19.5 571.5,-0.5 480.5,-0.5"/>
<text text-anchor="middle" x="526" y="-7.5" font-family="Helvetica,sans-Serif" font-size="10.00">thermostat.cpp</text>
</a>
</g>
</g>
<!-- Node1&#45;&gt;Node7 -->
<g id="edge6" class="edge"><title>Node1&#45;&gt;Node7</title>
<path fill="none" stroke="midnightblue" d="M395.17,-53.3044C426.637,-43.1294 471.494,-28.6246 499.662,-19.5164"/>
<polygon fill="midnightblue" stroke="midnightblue" points="393.9,-50.0366 385.462,-56.4435 396.053,-56.697 393.9,-50.0366"/>
</g>
<!-- Node8 -->
<g id="node8" class="node"><title>Node8</title>
<g id="a_node8"><a xlink:href="ghmc__tcl_8cpp.html" target="_top" xlink:title="For more information see ghmc_tcl.hpp. ">
<polygon fill="none" stroke="black" points="589.5,-0.5 589.5,-19.5 670.5,-19.5 670.5,-0.5 589.5,-0.5"/>
<text text-anchor="middle" x="630" y="-7.5" font-family="Helvetica,sans-Serif" font-size="10.00">ghmc_tcl.cpp</text>
</a>
</g>
</g>
<!-- Node1&#45;&gt;Node8 -->
<g id="edge7" class="edge"><title>Node1&#45;&gt;Node8</title>
<path fill="none" stroke="midnightblue" d="M401.803,-56.4711C453.2,-46.2295 538.776,-29.1775 589.245,-19.1209"/>
<polygon fill="midnightblue" stroke="midnightblue" points="400.812,-53.0995 391.689,-58.4863 402.18,-59.9646 400.812,-53.0995"/>
</g>
<!-- Node9 -->
<g id="node9" class="node"><title>Node9</title>
<g id="a_node9"><a xlink:href="thermostat__tcl_8cpp.html" target="_top" xlink:title="thermostat_tcl.cpp">
<polygon fill="none" stroke="black" points="689,-0.5 689,-19.5 797,-19.5 797,-0.5 689,-0.5"/>
<text text-anchor="middle" x="743" y="-7.5" font-family="Helvetica,sans-Serif" font-size="10.00">thermostat_tcl.cpp</text>
</a>
</g>
</g>
<!-- Node1&#45;&gt;Node9 -->
<g id="edge8" class="edge"><title>Node1&#45;&gt;Node9</title>
<path fill="none" stroke="midnightblue" d="M401.93,-59.0182C463.503,-50.4304 580.45,-34.0884 680,-20 682.844,-19.5975 685.761,-19.1839 688.705,-18.7656"/>
<polygon fill="midnightblue" stroke="midnightblue" points="401.234,-55.5812 391.813,-60.4289 402.201,-62.5142 401.234,-55.5812"/>
</g>
</g>
</svg>
