<?xml version="1.0" encoding="UTF-8" standalone="no"?>
<!DOCTYPE svg PUBLIC "-//W3C//DTD SVG 1.1//EN"
 "http://www.w3.org/Graphics/SVG/1.1/DTD/svg11.dtd">
<!-- Generated by graphviz version 2.38.0 (20140413.2041)
 -->
<!-- Title: global_tcl.cpp Pages: 1 -->
<!--zoomable 375 -->
<svg id="main" version="1.1" xmlns="http://www.w3.org/2000/svg" xmlns:xlink="http://www.w3.org/1999/xlink" xml:space="preserve" onload="init(evt)">
<style type="text/css"><![CDATA[
.edge:hover path { stroke: red; }
.edge:hover polygon { stroke: red; fill: red; }
]]></style>
<script type="text/javascript"><![CDATA[
var edges = document.getElementsByTagName('g');
if (edges && edges.length) {
  for (var i=0;i<edges.length;i++) {
    if (edges[i].id.substr(0,4)=='edge') {
      edges[i].setAttribute('class','edge');
    }
  }
}
]]></script>
        <defs>
                <circle id="rim" cx="0" cy="0" r="7"/>
                <circle id="rim2" cx="0" cy="0" r="3.5"/>
                <g id="zoomPlus">
                        <use xlink:href="#rim" fill="#404040">
                                <set attributeName="fill" to="#808080" begin="zoomplus.mouseover" end="zoomplus.mouseout"/>
                        </use>
                        <path d="M-4,0h8M0,-4v8" fill="none" stroke="white" stroke-width="1.5" pointer-events="none"/>
                </g>
                <g id="zoomMin">
                        <use xlink:href="#rim" fill="#404040">
                                <set attributeName="fill" to="#808080" begin="zoomminus.mouseover" end="zoomminus.mouseout"/>
                        </use>
                        <path d="M-4,0h8" fill="none" stroke="white" stroke-width="1.5" pointer-events="none"/>
                </g>
                <g id="dirArrow">
                        <path fill="none" stroke="white" stroke-width="1.5" d="M0,-3.0v7 M-2.5,-0.5L0,-3.0L2.5,-0.5"/>
                </g>
               <g id="resetDef">
                       <use xlink:href="#rim2" fill="#404040">
                               <set attributeName="fill" to="#808080" begin="reset.mouseover" end="reset.mouseout"/>
                       </use>
               </g>
        </defs>

<script type="text/javascript">
var viewWidth = 1155;
var viewHeight = 375;
var sectionId = 'dynsection-0';
</script>
<script xlink:href="svgpan.js"/>
<svg id="graph" class="graph">
<g id="viewport">
<title>global_tcl.cpp</title>
<!-- Node1 -->
<g id="node1" class="node"><title>Node1</title>
<polygon fill="#bfbfbf" stroke="black" points="570.5,-347.5 570.5,-366.5 654.5,-366.5 654.5,-347.5 570.5,-347.5"/>
<text text-anchor="middle" x="612.5" y="-354.5" font-family="Helvetica,sans-Serif" font-size="10.00">global_tcl.cpp</text>
</g>
<!-- Node2 -->
<g id="node2" class="node"><title>Node2</title>
<g id="a_node2"><a xlink:href="utils_8hpp.html" target="_top" xlink:title="Small functions that are useful not only for one modul. ">
<polygon fill="none" stroke="black" points="330,-168.5 330,-187.5 389,-187.5 389,-168.5 330,-168.5"/>
<text text-anchor="middle" x="359.5" y="-175.5" font-family="Helvetica,sans-Serif" font-size="10.00">utils.hpp</text>
</a>
</g>
</g>
<!-- Node1&#45;&gt;Node2 -->
<g id="edge1" class="edge"><title>Node1&#45;&gt;Node2</title>
<path fill="none" stroke="midnightblue" d="M570.492,-355.133C503.525,-352.765 377.275,-343.931 349.5,-311 322.303,-278.754 339.247,-224.89 351.016,-196.984"/>
<polygon fill="midnightblue" stroke="midnightblue" points="354.297,-198.219 355.17,-187.66 347.903,-195.37 354.297,-198.219"/>
</g>
<!-- Node19 -->
<g id="node19" class="node"><title>Node19</title>
<g id="a_node19"><a xlink:href="parser_8hpp.html" target="_top" xlink:title="This file contains macros for parsing the parameters to the &#39;inter&#39; command. ">
<polygon fill="none" stroke="black" points="680.5,-224.5 680.5,-243.5 748.5,-243.5 748.5,-224.5 680.5,-224.5"/>
<text text-anchor="middle" x="714.5" y="-231.5" font-family="Helvetica,sans-Serif" font-size="10.00">parser.hpp</text>
</a>
</g>
</g>
<!-- Node1&#45;&gt;Node19 -->
<g id="edge21" class="edge"><title>Node1&#45;&gt;Node19</title>
<path fill="none" stroke="midnightblue" d="M570.211,-356.33C485.317,-355.623 307.06,-346.459 365.5,-280 385.339,-257.438 580.755,-242.98 670.205,-237.493"/>
<polygon fill="midnightblue" stroke="midnightblue" points="670.543,-240.979 680.315,-236.883 670.122,-233.991 670.543,-240.979"/>
</g>
<!-- Node21 -->
<g id="node21" class="node"><title>Node21</title>
<g id="a_node21"><a xlink:href="global_8hpp.html" target="_top" xlink:title="This file contains the code for access to globally defined variables using the script command setmd...">
<polygon fill="none" stroke="black" points="374.5,-286 374.5,-305 442.5,-305 442.5,-286 374.5,-286"/>
<text text-anchor="middle" x="408.5" y="-293" font-family="Helvetica,sans-Serif" font-size="10.00">global.hpp</text>
</a>
</g>
</g>
<!-- Node1&#45;&gt;Node21 -->
<g id="edge25" class="edge"><title>Node1&#45;&gt;Node21</title>
<path fill="none" stroke="midnightblue" d="M580.504,-347.448C548.118,-338.687 496.658,-324.478 452.5,-311 449.594,-310.113 446.587,-309.172 443.572,-308.212"/>
<polygon fill="midnightblue" stroke="midnightblue" points="444.624,-304.874 434.032,-305.126 442.47,-311.534 444.624,-304.874"/>
</g>
<!-- Node22 -->
<g id="node22" class="node"><title>Node22</title>
<g id="a_node22"><a xlink:href="global__tcl_8hpp.html" target="_top" xlink:title="global_tcl.hpp">
<polygon fill="none" stroke="black" points="461,-286 461,-305 546,-305 546,-286 461,-286"/>
<text text-anchor="middle" x="503.5" y="-293" font-family="Helvetica,sans-Serif" font-size="10.00">global_tcl.hpp</text>
</a>
</g>
</g>
<!-- Node1&#45;&gt;Node22 -->
<g id="edge26" class="edge"><title>Node1&#45;&gt;Node22</title>
<path fill="none" stroke="midnightblue" d="M596.883,-347.475C578.914,-337.666 549.179,-321.435 528.094,-309.925"/>
<polygon fill="midnightblue" stroke="midnightblue" points="529.542,-306.728 519.088,-305.009 526.189,-312.873 529.542,-306.728"/>
</g>
<!-- Node23 -->
<g id="node23" class="node"><title>Node23</title>
<g id="a_node23"><a xlink:href="pressure__tcl_8hpp.html" target="_top" xlink:title="pressure_tcl.hpp">
<polygon fill="none" stroke="black" points="564,-286 564,-305 661,-305 661,-286 564,-286"/>
<text text-anchor="middle" x="612.5" y="-293" font-family="Helvetica,sans-Serif" font-size="10.00">pressure_tcl.hpp</text>
</a>
</g>
</g>
<!-- Node1&#45;&gt;Node23 -->
<g id="edge28" class="edge"><title>Node1&#45;&gt;Node23</title>
<path fill="none" stroke="midnightblue" d="M612.5,-347.475C612.5,-339.08 612.5,-325.981 612.5,-315.163"/>
<polygon fill="midnightblue" stroke="midnightblue" points="616,-315.009 612.5,-305.009 609,-315.009 616,-315.009"/>
</g>
<!-- Node24 -->
<g id="node24" class="node"><title>Node24</title>
<g id="a_node24"><a xlink:href="integrate__tcl_8hpp.html" target="_top" xlink:title="integrate_tcl.hpp">
<polygon fill="none" stroke="black" points="679,-286 679,-305 778,-305 778,-286 679,-286"/>
<text text-anchor="middle" x="728.5" y="-293" font-family="Helvetica,sans-Serif" font-size="10.00">integrate_tcl.hpp</text>
</a>
</g>
</g>
<!-- Node1&#45;&gt;Node24 -->
<g id="edge30" class="edge"><title>Node1&#45;&gt;Node24</title>
<path fill="none" stroke="midnightblue" d="M629.12,-347.475C648.415,-337.578 680.459,-321.142 702.931,-309.615"/>
<polygon fill="midnightblue" stroke="midnightblue" points="704.61,-312.687 711.911,-305.009 701.416,-306.459 704.61,-312.687"/>
</g>
<!-- Node25 -->
<g id="node25" class="node"><title>Node25</title>
<g id="a_node25"><a xlink:href="grid__tcl_8hpp.html" target="_top" xlink:title="grid_tcl.hpp">
<polygon fill="none" stroke="black" points="796.5,-286 796.5,-305 870.5,-305 870.5,-286 796.5,-286"/>
<text text-anchor="middle" x="833.5" y="-293" font-family="Helvetica,sans-Serif" font-size="10.00">grid_tcl.hpp</text>
</a>
</g>
</g>
<!-- Node1&#45;&gt;Node25 -->
<g id="edge32" class="edge"><title>Node1&#45;&gt;Node25</title>
<path fill="none" stroke="midnightblue" d="M648.179,-347.421C683.65,-338.751 739.543,-324.714 787.5,-311 790.821,-310.05 794.266,-309.03 797.709,-307.987"/>
<polygon fill="midnightblue" stroke="midnightblue" points="798.779,-311.32 807.302,-305.025 796.714,-304.631 798.779,-311.32"/>
</g>
<!-- Node26 -->
<g id="node26" class="node"><title>Node26</title>
<g id="a_node26"><a xlink:href="domain__decomposition__tcl_8hpp.html" target="_top" xlink:title="domain_decomposition\l_tcl.hpp">
<polygon fill="none" stroke="black" points="889,-280.5 889,-310.5 1020,-310.5 1020,-280.5 889,-280.5"/>
<text text-anchor="start" x="897" y="-298.5" font-family="Helvetica,sans-Serif" font-size="10.00">domain_decomposition</text>
<text text-anchor="middle" x="954.5" y="-287.5" font-family="Helvetica,sans-Serif" font-size="10.00">_tcl.hpp</text>
</a>
</g>
</g>
<!-- Node1&#45;&gt;Node26 -->
<g id="edge34" class="edge"><title>Node1&#45;&gt;Node26</title>
<path fill="none" stroke="midnightblue" d="M654.637,-349.219C705.347,-340.987 793.332,-326.479 878.799,-311.102"/>
<polygon fill="midnightblue" stroke="midnightblue" points="879.448,-314.541 888.667,-309.32 878.204,-307.653 879.448,-314.541"/>
</g>
<!-- Node27 -->
<g id="node27" class="node"><title>Node27</title>
<g id="a_node27"><a xlink:href="thermostat__tcl_8hpp.html" target="_top" xlink:title="thermostat_tcl.hpp">
<polygon fill="none" stroke="black" points="1038,-286 1038,-305 1147,-305 1147,-286 1038,-286"/>
<text text-anchor="middle" x="1092.5" y="-293" font-family="Helvetica,sans-Serif" font-size="10.00">thermostat_tcl.hpp</text>
</a>
</g>
</g>
<!-- Node1&#45;&gt;Node27 -->
<g id="edge36" class="edge"><title>Node1&#45;&gt;Node27</title>
<path fill="none" stroke="midnightblue" d="M654.751,-353.107C730.313,-347.564 893.43,-333.918 1029.5,-311 1035.75,-309.948 1042.3,-308.655 1048.72,-307.279"/>
<polygon fill="midnightblue" stroke="midnightblue" points="1049.64,-310.659 1058.64,-305.07 1048.12,-303.827 1049.64,-310.659"/>
</g>
<!-- Node3 -->
<g id="node3" class="node"><title>Node3</title>
<polygon fill="none" stroke="#bfbfbf" points="0,-112.5 0,-131.5 47,-131.5 47,-112.5 0,-112.5"/>
<text text-anchor="middle" x="23.5" y="-119.5" font-family="Helvetica,sans-Serif" font-size="10.00">cmath</text>
</g>
<!-- Node2&#45;&gt;Node3 -->
<g id="edge2" class="edge"><title>Node2&#45;&gt;Node3</title>
<path fill="none" stroke="midnightblue" d="M329.616,-173.756C276.675,-167.753 162.819,-153.692 57.0876,-131.893"/>
<polygon fill="midnightblue" stroke="midnightblue" points="57.7157,-128.449 47.2111,-129.829 56.2836,-135.301 57.7157,-128.449"/>
</g>
<!-- Node4 -->
<g id="node4" class="node"><title>Node4</title>
<polygon fill="none" stroke="#bfbfbf" points="65.5,-112.5 65.5,-131.5 111.5,-131.5 111.5,-112.5 65.5,-112.5"/>
<text text-anchor="middle" x="88.5" y="-119.5" font-family="Helvetica,sans-Serif" font-size="10.00">cstdio</text>
</g>
<!-- Node2&#45;&gt;Node4 -->
<g id="edge3" class="edge"><title>Node2&#45;&gt;Node4</title>
<path fill="none" stroke="midnightblue" d="M329.89,-172.288C286.324,-165.168 202.223,-150.716 121.352,-132.032"/>
<polygon fill="midnightblue" stroke="midnightblue" points="122.043,-128.599 111.509,-129.733 120.451,-135.416 122.043,-128.599"/>
</g>
<!-- Node5 -->
<g id="node5" class="node"><title>Node5</title>
<polygon fill="none" stroke="#bfbfbf" points="130,-112.5 130,-131.5 179,-131.5 179,-112.5 130,-112.5"/>
<text text-anchor="middle" x="154.5" y="-119.5" font-family="Helvetica,sans-Serif" font-size="10.00">cstdlib</text>
</g>
<!-- Node2&#45;&gt;Node5 -->
<g id="edge4" class="edge"><title>Node2&#45;&gt;Node5</title>
<path fill="none" stroke="midnightblue" d="M329.691,-169.148C292.303,-159.299 228.328,-142.447 188.902,-132.062"/>
<polygon fill="midnightblue" stroke="midnightblue" points="189.759,-128.668 179.198,-129.506 187.976,-135.438 189.759,-128.668"/>
</g>
<!-- Node6 -->
<g id="node6" class="node"><title>Node6</title>
<polygon fill="none" stroke="#bfbfbf" points="713.5,-112.5 713.5,-131.5 763.5,-131.5 763.5,-112.5 713.5,-112.5"/>
<text text-anchor="middle" x="738.5" y="-119.5" font-family="Helvetica,sans-Serif" font-size="10.00">cstring</text>
</g>
<!-- Node2&#45;&gt;Node6 -->
<g id="edge5" class="edge"><title>Node2&#45;&gt;Node6</title>
<path fill="none" stroke="midnightblue" d="M389.244,-174.425C447.667,-169.089 581.618,-155.478 703.462,-131.98"/>
<polygon fill="midnightblue" stroke="midnightblue" points="704.191,-135.404 713.333,-130.049 702.847,-128.534 704.191,-135.404"/>
</g>
<!-- Node7 -->
<g id="node7" class="node"><title>Node7</title>
<g id="a_node7"><a xlink:href="config_8hpp.html" target="_top" xlink:title="This file contains the defaults for Espresso. ">
<polygon fill="none" stroke="black" points="278,-56.5 278,-75.5 345,-75.5 345,-56.5 278,-56.5"/>
<text text-anchor="middle" x="311.5" y="-63.5" font-family="Helvetica,sans-Serif" font-size="10.00">config.hpp</text>
</a>
</g>
</g>
<!-- Node2&#45;&gt;Node7 -->
<g id="edge6" class="edge"><title>Node2&#45;&gt;Node7</title>
<path fill="none" stroke="midnightblue" d="M329.918,-176.373C298.418,-173.928 249.944,-164.682 226.5,-132 209.987,-108.981 243.309,-90.3211 272.953,-78.9955"/>
<polygon fill="midnightblue" stroke="midnightblue" points="274.171,-82.277 282.381,-75.5799 271.787,-75.6956 274.171,-82.277"/>
</g>
<!-- Node11 -->
<g id="node11" class="node"><title>Node11</title>
<g id="a_node11"><a xlink:href="debug_8hpp.html" target="_top" xlink:title="This file controls debug facilities. ">
<polygon fill="none" stroke="black" points="235.5,-112.5 235.5,-131.5 303.5,-131.5 303.5,-112.5 235.5,-112.5"/>
<text text-anchor="middle" x="269.5" y="-119.5" font-family="Helvetica,sans-Serif" font-size="10.00">debug.hpp</text>
</a>
</g>
</g>
<!-- Node2&#45;&gt;Node11 -->
<g id="edge10" class="edge"><title>Node2&#45;&gt;Node11</title>
<path fill="none" stroke="midnightblue" d="M345.04,-168.324C331,-159.9 309.452,-146.971 292.957,-137.074"/>
<polygon fill="midnightblue" stroke="midnightblue" points="294.3,-133.798 283.924,-131.655 290.698,-139.801 294.3,-133.798"/>
</g>
<!-- Node12 -->
<g id="node12" class="node"><title>Node12</title>
<g id="a_node12"><a xlink:href="lees__edwards_8hpp.html" target="_top" xlink:title="lees_edwards.hpp">
<polygon fill="none" stroke="black" points="321.5,-112.5 321.5,-131.5 425.5,-131.5 425.5,-112.5 321.5,-112.5"/>
<text text-anchor="middle" x="373.5" y="-119.5" font-family="Helvetica,sans-Serif" font-size="10.00">lees_edwards.hpp</text>
</a>
</g>
</g>
<!-- Node2&#45;&gt;Node12 -->
<g id="edge12" class="edge"><title>Node2&#45;&gt;Node12</title>
<path fill="none" stroke="midnightblue" d="M361.812,-168.083C363.667,-160.927 366.335,-150.635 368.654,-141.691"/>
<polygon fill="midnightblue" stroke="midnightblue" points="372.109,-142.309 371.231,-131.751 365.334,-140.553 372.109,-142.309"/>
</g>
<!-- Node13 -->
<g id="node13" class="node"><title>Node13</title>
<g id="a_node13"><a xlink:href="errorhandling_8hpp.html" target="_top" xlink:title="This file contains the errorhandling code for severe errors, like a broken bond or illegal parameter ...">
<polygon fill="none" stroke="black" points="444,-112.5 444,-131.5 547,-131.5 547,-112.5 444,-112.5"/>
<text text-anchor="middle" x="495.5" y="-119.5" font-family="Helvetica,sans-Serif" font-size="10.00">errorhandling.hpp</text>
</a>
</g>
</g>
<!-- Node2&#45;&gt;Node13 -->
<g id="edge14" class="edge"><title>Node2&#45;&gt;Node13</title>
<path fill="none" stroke="midnightblue" d="M381.05,-168.444C403.531,-159.517 438.988,-145.439 464.48,-135.317"/>
<polygon fill="midnightblue" stroke="midnightblue" points="466.049,-138.46 474.051,-131.516 463.465,-131.954 466.049,-138.46"/>
</g>
<!-- Node17 -->
<g id="node17" class="node"><title>Node17</title>
<polygon fill="none" stroke="#bfbfbf" points="565,-112.5 565,-131.5 612,-131.5 612,-112.5 565,-112.5"/>
<text text-anchor="middle" x="588.5" y="-119.5" font-family="Helvetica,sans-Serif" font-size="10.00">vector</text>
</g>
<!-- Node2&#45;&gt;Node17 -->
<g id="edge19" class="edge"><title>Node2&#45;&gt;Node17</title>
<path fill="none" stroke="midnightblue" d="M389.314,-170.672C426.107,-162.758 490.799,-148.502 554.905,-132.322"/>
<polygon fill="midnightblue" stroke="midnightblue" points="555.94,-135.67 564.77,-129.815 554.216,-128.886 555.94,-135.67"/>
</g>
<!-- Node18 -->
<g id="node18" class="node"><title>Node18</title>
<polygon fill="none" stroke="#bfbfbf" points="630,-112.5 630,-131.5 695,-131.5 695,-112.5 630,-112.5"/>
<text text-anchor="middle" x="662.5" y="-119.5" font-family="Helvetica,sans-Serif" font-size="10.00">exception</text>
</g>
<!-- Node2&#45;&gt;Node18 -->
<g id="edge20" class="edge"><title>Node2&#45;&gt;Node18</title>
<path fill="none" stroke="midnightblue" d="M389.05,-172.379C435.901,-164.954 530.332,-149.591 619.815,-132.264"/>
<polygon fill="midnightblue" stroke="midnightblue" points="620.709,-135.656 629.854,-130.308 619.37,-128.785 620.709,-135.656"/>
</g>
<!-- Node8 -->
<g id="node8" class="node"><title>Node8</title>
<g id="a_node8"><a xlink:href="acconfig_8hpp.html" target="_top" xlink:title="acconfig.hpp">
<polygon fill="none" stroke="black" points="161.5,-0.5 161.5,-19.5 239.5,-19.5 239.5,-0.5 161.5,-0.5"/>
<text text-anchor="middle" x="200.5" y="-7.5" font-family="Helvetica,sans-Serif" font-size="10.00">acconfig.hpp</text>
</a>
</g>
</g>
<!-- Node7&#45;&gt;Node8 -->
<g id="edge7" class="edge"><title>Node7&#45;&gt;Node8</title>
<path fill="none" stroke="midnightblue" d="M293.666,-56.324C275.784,-47.6247 248.025,-34.1202 227.454,-24.113"/>
<polygon fill="midnightblue" stroke="midnightblue" points="228.813,-20.8819 218.29,-19.6545 225.751,-27.1765 228.813,-20.8819"/>
</g>
<!-- Node9 -->
<g id="node9" class="node"><title>Node9</title>
<g id="a_node9"><a xlink:href="myconfig-final_8hpp.html" target="_top" xlink:title="myconfig&#45;final.hpp">
<polygon fill="none" stroke="black" points="258,-0.5 258,-19.5 365,-19.5 365,-0.5 258,-0.5"/>
<text text-anchor="middle" x="311.5" y="-7.5" font-family="Helvetica,sans-Serif" font-size="10.00">myconfig&#45;final.hpp</text>
</a>
</g>
</g>
<!-- Node7&#45;&gt;Node9 -->
<g id="edge8" class="edge"><title>Node7&#45;&gt;Node9</title>
<path fill="none" stroke="midnightblue" d="M311.5,-56.083C311.5,-49.0059 311.5,-38.8611 311.5,-29.9865"/>
<polygon fill="midnightblue" stroke="midnightblue" points="315,-29.751 311.5,-19.7511 308,-29.7511 315,-29.751"/>
</g>
<!-- Node10 -->
<g id="node10" class="node"><title>Node10</title>
<g id="a_node10"><a xlink:href="config-features_8hpp.html" target="_top" xlink:title="config&#45;features.hpp">
<polygon fill="none" stroke="black" points="383,-0.5 383,-19.5 494,-19.5 494,-0.5 383,-0.5"/>
<text text-anchor="middle" x="438.5" y="-7.5" font-family="Helvetica,sans-Serif" font-size="10.00">config&#45;features.hpp</text>
</a>
</g>
</g>
<!-- Node7&#45;&gt;Node10 -->
<g id="edge9" class="edge"><title>Node7&#45;&gt;Node10</title>
<path fill="none" stroke="midnightblue" d="M331.624,-56.4435C352.524,-47.5566 385.435,-33.5632 409.216,-23.4514"/>
<polygon fill="midnightblue" stroke="midnightblue" points="410.638,-26.6504 418.471,-19.5164 407.898,-20.2085 410.638,-26.6504"/>
</g>
<!-- Node11&#45;&gt;Node7 -->
<g id="edge11" class="edge"><title>Node11&#45;&gt;Node7</title>
<path fill="none" stroke="midnightblue" d="M276.435,-112.083C282.429,-104.377 291.252,-93.0333 298.548,-83.6531"/>
<polygon fill="midnightblue" stroke="midnightblue" points="301.317,-85.7934 304.694,-75.7511 295.791,-81.4958 301.317,-85.7934"/>
</g>
<!-- Node12&#45;&gt;Node7 -->
<g id="edge13" class="edge"><title>Node12&#45;&gt;Node7</title>
<path fill="none" stroke="midnightblue" d="M363.539,-112.324C354.373,-104.341 340.563,-92.3128 329.472,-82.6529"/>
<polygon fill="midnightblue" stroke="midnightblue" points="331.482,-79.7624 321.643,-75.8339 326.885,-85.041 331.482,-79.7624"/>
</g>
<!-- Node13&#45;&gt;Node7 -->
<g id="edge15" class="edge"><title>Node13&#45;&gt;Node7</title>
<path fill="none" stroke="midnightblue" d="M466.345,-112.444C434.987,-103.241 384.969,-88.5617 350.303,-78.3879"/>
<polygon fill="midnightblue" stroke="midnightblue" points="351.1,-74.9742 340.519,-75.5164 349.129,-81.6909 351.1,-74.9742"/>
</g>
<!-- Node14 -->
<g id="node14" class="node"><title>Node14</title>
<polygon fill="none" stroke="#bfbfbf" points="529.5,-56.5 529.5,-75.5 573.5,-75.5 573.5,-56.5 529.5,-56.5"/>
<text text-anchor="middle" x="551.5" y="-63.5" font-family="Helvetica,sans-Serif" font-size="10.00">string</text>
</g>
<!-- Node13&#45;&gt;Node14 -->
<g id="edge16" class="edge"><title>Node13&#45;&gt;Node14</title>
<path fill="none" stroke="midnightblue" d="M504.497,-112.324C512.694,-104.42 525.006,-92.5482 534.972,-82.9377"/>
<polygon fill="midnightblue" stroke="midnightblue" points="537.57,-85.2947 542.339,-75.8339 532.711,-80.2558 537.57,-85.2947"/>
</g>
<!-- Node15 -->
<g id="node15" class="node"><title>Node15</title>
<polygon fill="none" stroke="#bfbfbf" points="405.5,-56.5 405.5,-75.5 461.5,-75.5 461.5,-56.5 405.5,-56.5"/>
<text text-anchor="middle" x="433.5" y="-63.5" font-family="Helvetica,sans-Serif" font-size="10.00">sstream</text>
</g>
<!-- Node13&#45;&gt;Node15 -->
<g id="edge17" class="edge"><title>Node13&#45;&gt;Node15</title>
<path fill="none" stroke="midnightblue" d="M485.539,-112.324C476.373,-104.341 462.563,-92.3128 451.472,-82.6529"/>
<polygon fill="midnightblue" stroke="midnightblue" points="453.482,-79.7624 443.643,-75.8339 448.885,-85.041 453.482,-79.7624"/>
</g>
<!-- Node16 -->
<g id="node16" class="node"><title>Node16</title>
<polygon fill="none" stroke="#bfbfbf" points="479.5,-56.5 479.5,-75.5 511.5,-75.5 511.5,-56.5 479.5,-56.5"/>
<text text-anchor="middle" x="495.5" y="-63.5" font-family="Helvetica,sans-Serif" font-size="10.00">list</text>
</g>
<!-- Node13&#45;&gt;Node16 -->
<g id="edge18" class="edge"><title>Node13&#45;&gt;Node16</title>
<path fill="none" stroke="midnightblue" d="M495.5,-112.083C495.5,-105.006 495.5,-94.8611 495.5,-85.9865"/>
<polygon fill="midnightblue" stroke="midnightblue" points="499,-85.751 495.5,-75.7511 492,-85.7511 499,-85.751"/>
</g>
<!-- Node19&#45;&gt;Node2 -->
<g id="edge22" class="edge"><title>Node19&#45;&gt;Node2</title>
<path fill="none" stroke="midnightblue" d="M680.461,-227.822C614.599,-217.804 470.026,-195.812 399.619,-185.103"/>
<polygon fill="midnightblue" stroke="midnightblue" points="399.795,-181.589 389.382,-183.546 398.742,-188.51 399.795,-181.589"/>
</g>
<!-- Node19&#45;&gt;Node6 -->
<g id="edge23" class="edge"><title>Node19&#45;&gt;Node6</title>
<path fill="none" stroke="midnightblue" d="M716.383,-224.368C720.256,-206.617 729.191,-165.666 734.442,-141.597"/>
<polygon fill="midnightblue" stroke="midnightblue" points="737.913,-142.108 736.626,-131.591 731.074,-140.615 737.913,-142.108"/>
</g>
<!-- Node20 -->
<g id="node20" class="node"><title>Node20</title>
<polygon fill="none" stroke="#bfbfbf" points="672.5,-168.5 672.5,-187.5 710.5,-187.5 710.5,-168.5 672.5,-168.5"/>
<text text-anchor="middle" x="691.5" y="-175.5" font-family="Helvetica,sans-Serif" font-size="10.00">tcl.h</text>
</g>
<!-- Node19&#45;&gt;Node20 -->
<g id="edge24" class="edge"><title>Node19&#45;&gt;Node20</title>
<path fill="none" stroke="midnightblue" d="M710.702,-224.083C707.587,-216.77 703.077,-206.181 699.211,-197.103"/>
<polygon fill="midnightblue" stroke="midnightblue" points="702.366,-195.58 695.227,-187.751 695.926,-198.323 702.366,-195.58"/>
</g>
<!-- Node22&#45;&gt;Node19 -->
<g id="edge27" class="edge"><title>Node22&#45;&gt;Node19</title>
<path fill="none" stroke="midnightblue" d="M533.731,-285.975C570.787,-275.526 633.693,-257.787 674.664,-246.233"/>
<polygon fill="midnightblue" stroke="midnightblue" points="675.65,-249.592 684.325,-243.509 673.75,-242.855 675.65,-249.592"/>
</g>
<!-- Node23&#45;&gt;Node19 -->
<g id="edge29" class="edge"><title>Node23&#45;&gt;Node19</title>
<path fill="none" stroke="midnightblue" d="M627.114,-285.975C643.853,-276.211 671.504,-260.081 691.219,-248.581"/>
<polygon fill="midnightblue" stroke="midnightblue" points="693.039,-251.571 699.913,-243.509 689.512,-245.525 693.039,-251.571"/>
</g>
<!-- Node24&#45;&gt;Node19 -->
<g id="edge31" class="edge"><title>Node24&#45;&gt;Node19</title>
<path fill="none" stroke="midnightblue" d="M726.494,-285.975C724.498,-277.492 721.372,-264.204 718.811,-253.322"/>
<polygon fill="midnightblue" stroke="midnightblue" points="722.2,-252.442 716.502,-243.509 715.386,-254.045 722.2,-252.442"/>
</g>
<!-- Node25&#45;&gt;Node19 -->
<g id="edge33" class="edge"><title>Node25&#45;&gt;Node19</title>
<path fill="none" stroke="midnightblue" d="M816.45,-285.975C796.656,-276.078 763.783,-259.642 740.73,-248.115"/>
<polygon fill="midnightblue" stroke="midnightblue" points="742.028,-244.851 731.518,-243.509 738.897,-251.112 742.028,-244.851"/>
</g>
<!-- Node26&#45;&gt;Node19 -->
<g id="edge35" class="edge"><title>Node26&#45;&gt;Node19</title>
<path fill="none" stroke="midnightblue" d="M897.927,-280.475C855.347,-269.918 797.815,-255.655 758.611,-245.936"/>
<polygon fill="midnightblue" stroke="midnightblue" points="759.36,-242.516 748.811,-243.506 757.675,-249.31 759.36,-242.516"/>
</g>
<!-- Node27&#45;&gt;Node19 -->
<g id="edge37" class="edge"><title>Node27&#45;&gt;Node19</title>
<path fill="none" stroke="midnightblue" d="M1057.95,-285.996C1048.74,-283.88 1038.77,-281.725 1029.5,-280 933.495,-262.127 819.879,-247.481 758.75,-240.127"/>
<polygon fill="midnightblue" stroke="midnightblue" points="759.026,-236.635 748.682,-238.925 758.196,-243.586 759.026,-236.635"/>
</g>
</g>
</svg>
        <g id="navigator" transform="translate(0 0)" fill="#404254">
                <rect fill="#f2f5e9" fill-opacity="0.5" stroke="#606060" stroke-width=".5" x="0" y="0" width="60" height="60"/>
                <use id="zoomplus" xlink:href="#zoomPlus" x="17" y="9" onmousedown="handleZoom(evt,'in')"/>
                <use id="zoomminus" xlink:href="#zoomMin" x="42" y="9" onmousedown="handleZoom(evt,'out')"/>
                <use id="reset" xlink:href="#resetDef" x="30" y="36" onmousedown="handleReset()"/>
                <g id="arrowUp" xlink:href="#dirArrow" transform="translate(30 24)" onmousedown="handlePan(0,-1)">
                  <use xlink:href="#rim" fill="#404040">
                        <set attributeName="fill" to="#808080" begin="arrowUp.mouseover" end="arrowUp.mouseout"/>
                  </use>
                  <path fill="none" stroke="white" stroke-width="1.5" d="M0,-3.0v7 M-2.5,-0.5L0,-3.0L2.5,-0.5"/>
                </g>
                <g id="arrowRight" xlink:href="#dirArrow" transform="rotate(90) translate(36 -43)" onmousedown="handlePan(1,0)">
                  <use xlink:href="#rim" fill="#404040">
                        <set attributeName="fill" to="#808080" begin="arrowRight.mouseover" end="arrowRight.mouseout"/>
                  </use>
                  <path fill="none" stroke="white" stroke-width="1.5" d="M0,-3.0v7 M-2.5,-0.5L0,-3.0L2.5,-0.5"/>
                </g>
                <g id="arrowDown" xlink:href="#dirArrow" transform="rotate(180) translate(-30 -48)" onmousedown="handlePan(0,1)">
                  <use xlink:href="#rim" fill="#404040">
                        <set attributeName="fill" to="#808080" begin="arrowDown.mouseover" end="arrowDown.mouseout"/>
                  </use>
                  <path fill="none" stroke="white" stroke-width="1.5" d="M0,-3.0v7 M-2.5,-0.5L0,-3.0L2.5,-0.5"/>
                </g>
                <g id="arrowLeft" xlink:href="#dirArrow" transform="rotate(270) translate(-36 17)" onmousedown="handlePan(-1,0)">
                  <use xlink:href="#rim" fill="#404040">
                        <set attributeName="fill" to="#808080" begin="arrowLeft.mouseover" end="arrowLeft.mouseout"/>
                  </use>
                  <path fill="none" stroke="white" stroke-width="1.5" d="M0,-3.0v7 M-2.5,-0.5L0,-3.0L2.5,-0.5"/>
                </g>
        </g>
        <svg viewBox="0 0 15 15" width="100%" height="30px" preserveAspectRatio="xMaxYMin meet">
         <g id="arrow_out" transform="scale(0.3 0.3)">
          <a xlink:href="global__tcl_8cpp__incl_org.svg" target="_base">
           <rect id="button" ry="5" rx="5" y="6" x="6" height="38" width="38"
                fill="#f2f5e9" fill-opacity="0.5" stroke="#606060" stroke-width="1.0"/>
           <path id="arrow"
             d="M 11.500037,31.436501 C 11.940474,20.09759 22.043105,11.32322 32.158766,21.979434 L 37.068811,17.246167 C 37.068811,17.246167 37.088388,32 37.088388,32 L 22.160133,31.978069 C 22.160133,31.978069 26.997745,27.140456 26.997745,27.140456 C 18.528582,18.264221 13.291696,25.230495 11.500037,31.436501 z"
             style="fill:#404040;"/>
          </a>
         </g>
        </svg>
</svg>
