<?xml version="1.0" encoding="UTF-8" standalone="no"?>
<!DOCTYPE svg PUBLIC "-//W3C//DTD SVG 1.1//EN"
 "http://www.w3.org/Graphics/SVG/1.1/DTD/svg11.dtd">
<!-- Generated by graphviz version 2.38.0 (20140413.2041)
 -->
<!-- Title: halo.cpp Pages: 1 -->
<svg width="849pt" height="532pt"
 viewBox="0.00 0.00 848.50 532.00" xmlns="http://www.w3.org/2000/svg" xmlns:xlink="http://www.w3.org/1999/xlink">
<g id="graph0" class="graph" transform="scale(1 1) rotate(0) translate(4 528)">
<title>halo.cpp</title>
<!-- Node1 -->
<g id="node1" class="node"><title>Node1</title>
<polygon fill="#bfbfbf" stroke="black" points="439,-504.5 439,-523.5 497,-523.5 497,-504.5 439,-504.5"/>
<text text-anchor="middle" x="468" y="-511.5" font-family="Helvetica,sans-Serif" font-size="10.00">halo.cpp</text>
</g>
<!-- Node2 -->
<g id="node2" class="node"><title>Node2</title>
<g id="a_node2"><a xlink:href="utils_8hpp.html" target="_top" xlink:title="Small functions that are useful not only for one modul. ">
<polygon fill="none" stroke="black" points="390.5,-168.5 390.5,-187.5 449.5,-187.5 449.5,-168.5 390.5,-168.5"/>
<text text-anchor="middle" x="420" y="-175.5" font-family="Helvetica,sans-Serif" font-size="10.00">utils.hpp</text>
</a>
</g>
</g>
<!-- Node1&#45;&gt;Node2 -->
<g id="edge1" class="edge"><title>Node1&#45;&gt;Node2</title>
<path fill="none" stroke="midnightblue" d="M486.812,-504.49C517.755,-489.053 576,-453.315 576,-403 576,-403 576,-403 576,-289 576,-232.038 505.671,-201.978 459.456,-188.374"/>
<polygon fill="midnightblue" stroke="midnightblue" points="460.283,-184.971 449.71,-185.641 458.393,-191.711 460.283,-184.971"/>
</g>
<!-- Node19 -->
<g id="node19" class="node"><title>Node19</title>
<g id="a_node19"><a xlink:href="grid_8hpp.html" target="_top" xlink:title="Domain decomposition for parallel computing. ">
<polygon fill="none" stroke="black" points="238,-336.5 238,-355.5 294,-355.5 294,-336.5 238,-336.5"/>
<text text-anchor="middle" x="266" y="-343.5" font-family="Helvetica,sans-Serif" font-size="10.00">grid.hpp</text>
</a>
</g>
</g>
<!-- Node1&#45;&gt;Node19 -->
<g id="edge21" class="edge"><title>Node1&#45;&gt;Node19</title>
<path fill="none" stroke="midnightblue" d="M457.424,-504.309C424.836,-477.528 325.669,-396.035 284.363,-362.09"/>
<polygon fill="midnightblue" stroke="midnightblue" points="286.419,-359.25 276.471,-355.605 281.975,-364.658 286.419,-359.25"/>
</g>
<!-- Node30 -->
<g id="node30" class="node"><title>Node30</title>
<g id="a_node30"><a xlink:href="lattice_8hpp.html" target="_top" xlink:title="Lattice class definition Contains the lattice layout and pointers to the data fields. ">
<polygon fill="none" stroke="black" points="404,-392.5 404,-411.5 472,-411.5 472,-392.5 404,-392.5"/>
<text text-anchor="middle" x="438" y="-399.5" font-family="Helvetica,sans-Serif" font-size="10.00">lattice.hpp</text>
</a>
</g>
</g>
<!-- Node1&#45;&gt;Node30 -->
<g id="edge39" class="edge"><title>Node1&#45;&gt;Node30</title>
<path fill="none" stroke="midnightblue" d="M465.646,-504.368C460.783,-486.537 449.535,-445.295 442.983,-421.272"/>
<polygon fill="midnightblue" stroke="midnightblue" points="446.351,-420.318 440.343,-411.591 439.598,-422.16 446.351,-420.318"/>
</g>
<!-- Node31 -->
<g id="node31" class="node"><title>Node31</title>
<g id="a_node31"><a xlink:href="halo_8hpp.html" target="_top" xlink:title="Halo scheme for parallelization of lattice algorithms. ">
<polygon fill="none" stroke="black" points="468.5,-448.5 468.5,-467.5 527.5,-467.5 527.5,-448.5 468.5,-448.5"/>
<text text-anchor="middle" x="498" y="-455.5" font-family="Helvetica,sans-Serif" font-size="10.00">halo.hpp</text>
</a>
</g>
</g>
<!-- Node1&#45;&gt;Node31 -->
<g id="edge42" class="edge"><title>Node1&#45;&gt;Node31</title>
<path fill="none" stroke="midnightblue" d="M472.954,-504.083C477.104,-496.613 483.153,-485.724 488.267,-476.52"/>
<polygon fill="midnightblue" stroke="midnightblue" points="491.341,-478.192 493.138,-467.751 485.222,-474.793 491.341,-478.192"/>
</g>
<!-- Node3 -->
<g id="node3" class="node"><title>Node3</title>
<polygon fill="none" stroke="#bfbfbf" points="539.5,-112.5 539.5,-131.5 586.5,-131.5 586.5,-112.5 539.5,-112.5"/>
<text text-anchor="middle" x="563" y="-119.5" font-family="Helvetica,sans-Serif" font-size="10.00">cmath</text>
</g>
<!-- Node2&#45;&gt;Node3 -->
<g id="edge2" class="edge"><title>Node2&#45;&gt;Node3</title>
<path fill="none" stroke="midnightblue" d="M442.659,-168.444C466.402,-159.478 503.909,-145.314 530.738,-135.183"/>
<polygon fill="midnightblue" stroke="midnightblue" points="532.329,-138.324 540.447,-131.516 529.856,-131.775 532.329,-138.324"/>
</g>
<!-- Node4 -->
<g id="node4" class="node"><title>Node4</title>
<polygon fill="none" stroke="#bfbfbf" points="727,-112.5 727,-131.5 773,-131.5 773,-112.5 727,-112.5"/>
<text text-anchor="middle" x="750" y="-119.5" font-family="Helvetica,sans-Serif" font-size="10.00">cstdio</text>
</g>
<!-- Node2&#45;&gt;Node4 -->
<g id="edge3" class="edge"><title>Node2&#45;&gt;Node4</title>
<path fill="none" stroke="midnightblue" d="M449.829,-173.741C502.052,-167.768 613.557,-153.828 716.711,-132.056"/>
<polygon fill="midnightblue" stroke="midnightblue" points="717.62,-135.441 726.665,-129.925 716.154,-128.596 717.62,-135.441"/>
</g>
<!-- Node5 -->
<g id="node5" class="node"><title>Node5</title>
<polygon fill="none" stroke="#bfbfbf" points="791.5,-112.5 791.5,-131.5 840.5,-131.5 840.5,-112.5 791.5,-112.5"/>
<text text-anchor="middle" x="816" y="-119.5" font-family="Helvetica,sans-Serif" font-size="10.00">cstdlib</text>
</g>
<!-- Node2&#45;&gt;Node5 -->
<g id="edge4" class="edge"><title>Node2&#45;&gt;Node5</title>
<path fill="none" stroke="midnightblue" d="M449.516,-173.852C520.801,-166.169 701.724,-146.173 781.143,-131.868"/>
<polygon fill="midnightblue" stroke="midnightblue" points="782.025,-135.263 791.207,-129.977 780.733,-128.384 782.025,-135.263"/>
</g>
<!-- Node6 -->
<g id="node6" class="node"><title>Node6</title>
<polygon fill="none" stroke="#bfbfbf" points="302,-112.5 302,-131.5 352,-131.5 352,-112.5 302,-112.5"/>
<text text-anchor="middle" x="327" y="-119.5" font-family="Helvetica,sans-Serif" font-size="10.00">cstring</text>
</g>
<!-- Node2&#45;&gt;Node6 -->
<g id="edge5" class="edge"><title>Node2&#45;&gt;Node6</title>
<path fill="none" stroke="midnightblue" d="M405.058,-168.324C390.415,-159.822 367.866,-146.729 350.762,-136.797"/>
<polygon fill="midnightblue" stroke="midnightblue" points="352.31,-133.649 341.905,-131.655 348.795,-139.703 352.31,-133.649"/>
</g>
<!-- Node7 -->
<g id="node7" class="node"><title>Node7</title>
<g id="a_node7"><a xlink:href="config_8hpp.html" target="_top" xlink:title="This file contains the defaults for Espresso. ">
<polygon fill="none" stroke="black" points="240.5,-56.5 240.5,-75.5 307.5,-75.5 307.5,-56.5 240.5,-56.5"/>
<text text-anchor="middle" x="274" y="-63.5" font-family="Helvetica,sans-Serif" font-size="10.00">config.hpp</text>
</a>
</g>
</g>
<!-- Node2&#45;&gt;Node7 -->
<g id="edge6" class="edge"><title>Node2&#45;&gt;Node7</title>
<path fill="none" stroke="midnightblue" d="M390.393,-174.195C361.623,-169.908 318.631,-159.112 293,-132 281.273,-119.596 276.737,-100.355 275.006,-86.0209"/>
<polygon fill="midnightblue" stroke="midnightblue" points="278.472,-85.4693 274.137,-75.8022 271.498,-86.0631 278.472,-85.4693"/>
</g>
<!-- Node11 -->
<g id="node11" class="node"><title>Node11</title>
<g id="a_node11"><a xlink:href="debug_8hpp.html" target="_top" xlink:title="This file controls debug facilities. ">
<polygon fill="none" stroke="black" points="370,-112.5 370,-131.5 438,-131.5 438,-112.5 370,-112.5"/>
<text text-anchor="middle" x="404" y="-119.5" font-family="Helvetica,sans-Serif" font-size="10.00">debug.hpp</text>
</a>
</g>
</g>
<!-- Node2&#45;&gt;Node11 -->
<g id="edge10" class="edge"><title>Node2&#45;&gt;Node11</title>
<path fill="none" stroke="midnightblue" d="M417.358,-168.083C415.214,-160.849 412.121,-150.409 409.451,-141.397"/>
<polygon fill="midnightblue" stroke="midnightblue" points="412.79,-140.345 406.593,-131.751 406.078,-142.333 412.79,-140.345"/>
</g>
<!-- Node12 -->
<g id="node12" class="node"><title>Node12</title>
<g id="a_node12"><a xlink:href="lees__edwards_8hpp.html" target="_top" xlink:title="lees_edwards.hpp">
<polygon fill="none" stroke="black" points="605,-112.5 605,-131.5 709,-131.5 709,-112.5 605,-112.5"/>
<text text-anchor="middle" x="657" y="-119.5" font-family="Helvetica,sans-Serif" font-size="10.00">lees_edwards.hpp</text>
</a>
</g>
</g>
<!-- Node2&#45;&gt;Node12 -->
<g id="edge12" class="edge"><title>Node2&#45;&gt;Node12</title>
<path fill="none" stroke="midnightblue" d="M449.537,-170.27C489.736,-161.111 562.121,-144.618 609.87,-133.739"/>
<polygon fill="midnightblue" stroke="midnightblue" points="610.692,-137.141 619.664,-131.507 609.136,-130.316 610.692,-137.141"/>
</g>
<!-- Node13 -->
<g id="node13" class="node"><title>Node13</title>
<g id="a_node13"><a xlink:href="errorhandling_8hpp.html" target="_top" xlink:title="This file contains the errorhandling code for severe errors, like a broken bond or illegal parameter ...">
<polygon fill="none" stroke="black" points="38.5,-112.5 38.5,-131.5 141.5,-131.5 141.5,-112.5 38.5,-112.5"/>
<text text-anchor="middle" x="90" y="-119.5" font-family="Helvetica,sans-Serif" font-size="10.00">errorhandling.hpp</text>
</a>
</g>
</g>
<!-- Node2&#45;&gt;Node13 -->
<g id="edge14" class="edge"><title>Node2&#45;&gt;Node13</title>
<path fill="none" stroke="midnightblue" d="M390.424,-172.16C336.896,-163.401 222.911,-144.749 151.754,-133.105"/>
<polygon fill="midnightblue" stroke="midnightblue" points="152.013,-129.601 141.579,-131.44 150.882,-136.509 152.013,-129.601"/>
</g>
<!-- Node17 -->
<g id="node17" class="node"><title>Node17</title>
<polygon fill="none" stroke="#bfbfbf" points="198.5,-112.5 198.5,-131.5 245.5,-131.5 245.5,-112.5 198.5,-112.5"/>
<text text-anchor="middle" x="222" y="-119.5" font-family="Helvetica,sans-Serif" font-size="10.00">vector</text>
</g>
<!-- Node2&#45;&gt;Node17 -->
<g id="edge19" class="edge"><title>Node2&#45;&gt;Node17</title>
<path fill="none" stroke="midnightblue" d="M390.357,-168.916C354.266,-159.073 293.46,-142.489 255.646,-132.176"/>
<polygon fill="midnightblue" stroke="midnightblue" points="256.199,-128.699 245.63,-129.445 254.357,-135.452 256.199,-128.699"/>
</g>
<!-- Node18 -->
<g id="node18" class="node"><title>Node18</title>
<polygon fill="none" stroke="#bfbfbf" points="456.5,-112.5 456.5,-131.5 521.5,-131.5 521.5,-112.5 456.5,-112.5"/>
<text text-anchor="middle" x="489" y="-119.5" font-family="Helvetica,sans-Serif" font-size="10.00">exception</text>
</g>
<!-- Node2&#45;&gt;Node18 -->
<g id="edge20" class="edge"><title>Node2&#45;&gt;Node18</title>
<path fill="none" stroke="midnightblue" d="M431.086,-168.324C441.486,-160.185 457.261,-147.839 469.722,-138.087"/>
<polygon fill="midnightblue" stroke="midnightblue" points="471.994,-140.753 477.712,-131.834 467.68,-135.241 471.994,-140.753"/>
</g>
<!-- Node8 -->
<g id="node8" class="node"><title>Node8</title>
<g id="a_node8"><a xlink:href="acconfig_8hpp.html" target="_top" xlink:title="acconfig.hpp">
<polygon fill="none" stroke="black" points="124,-0.5 124,-19.5 202,-19.5 202,-0.5 124,-0.5"/>
<text text-anchor="middle" x="163" y="-7.5" font-family="Helvetica,sans-Serif" font-size="10.00">acconfig.hpp</text>
</a>
</g>
</g>
<!-- Node7&#45;&gt;Node8 -->
<g id="edge7" class="edge"><title>Node7&#45;&gt;Node8</title>
<path fill="none" stroke="midnightblue" d="M256.166,-56.324C238.284,-47.6247 210.525,-34.1202 189.954,-24.113"/>
<polygon fill="midnightblue" stroke="midnightblue" points="191.313,-20.8819 180.79,-19.6545 188.251,-27.1765 191.313,-20.8819"/>
</g>
<!-- Node9 -->
<g id="node9" class="node"><title>Node9</title>
<g id="a_node9"><a xlink:href="myconfig-final_8hpp.html" target="_top" xlink:title="myconfig&#45;final.hpp">
<polygon fill="none" stroke="black" points="220.5,-0.5 220.5,-19.5 327.5,-19.5 327.5,-0.5 220.5,-0.5"/>
<text text-anchor="middle" x="274" y="-7.5" font-family="Helvetica,sans-Serif" font-size="10.00">myconfig&#45;final.hpp</text>
</a>
</g>
</g>
<!-- Node7&#45;&gt;Node9 -->
<g id="edge8" class="edge"><title>Node7&#45;&gt;Node9</title>
<path fill="none" stroke="midnightblue" d="M274,-56.083C274,-49.0059 274,-38.8611 274,-29.9865"/>
<polygon fill="midnightblue" stroke="midnightblue" points="277.5,-29.751 274,-19.7511 270.5,-29.7511 277.5,-29.751"/>
</g>
<!-- Node10 -->
<g id="node10" class="node"><title>Node10</title>
<g id="a_node10"><a xlink:href="config-features_8hpp.html" target="_top" xlink:title="config&#45;features.hpp">
<polygon fill="none" stroke="black" points="345.5,-0.5 345.5,-19.5 456.5,-19.5 456.5,-0.5 345.5,-0.5"/>
<text text-anchor="middle" x="401" y="-7.5" font-family="Helvetica,sans-Serif" font-size="10.00">config&#45;features.hpp</text>
</a>
</g>
</g>
<!-- Node7&#45;&gt;Node10 -->
<g id="edge9" class="edge"><title>Node7&#45;&gt;Node10</title>
<path fill="none" stroke="midnightblue" d="M294.124,-56.4435C315.024,-47.5566 347.935,-33.5632 371.716,-23.4514"/>
<polygon fill="midnightblue" stroke="midnightblue" points="373.138,-26.6504 380.971,-19.5164 370.398,-20.2085 373.138,-26.6504"/>
</g>
<!-- Node11&#45;&gt;Node7 -->
<g id="edge11" class="edge"><title>Node11&#45;&gt;Node7</title>
<path fill="none" stroke="midnightblue" d="M383.401,-112.444C362.007,-103.557 328.319,-89.5632 303.976,-79.4514"/>
<polygon fill="midnightblue" stroke="midnightblue" points="305.08,-76.1203 294.503,-75.5164 302.395,-82.5848 305.08,-76.1203"/>
</g>
<!-- Node12&#45;&gt;Node7 -->
<g id="edge13" class="edge"><title>Node12&#45;&gt;Node7</title>
<path fill="none" stroke="midnightblue" d="M604.907,-113.419C601.555,-112.937 598.23,-112.461 595,-112 495.993,-97.8743 379.75,-81.6742 317.916,-73.0874"/>
<polygon fill="midnightblue" stroke="midnightblue" points="318.131,-69.5838 307.745,-71.6755 317.168,-76.5173 318.131,-69.5838"/>
</g>
<!-- Node13&#45;&gt;Node7 -->
<g id="edge15" class="edge"><title>Node13&#45;&gt;Node7</title>
<path fill="none" stroke="midnightblue" d="M119.155,-112.444C150.513,-103.241 200.531,-88.5617 235.197,-78.3879"/>
<polygon fill="midnightblue" stroke="midnightblue" points="236.371,-81.6909 244.981,-75.5164 234.4,-74.9742 236.371,-81.6909"/>
</g>
<!-- Node14 -->
<g id="node14" class="node"><title>Node14</title>
<polygon fill="none" stroke="#bfbfbf" points="0,-56.5 0,-75.5 44,-75.5 44,-56.5 0,-56.5"/>
<text text-anchor="middle" x="22" y="-63.5" font-family="Helvetica,sans-Serif" font-size="10.00">string</text>
</g>
<!-- Node13&#45;&gt;Node14 -->
<g id="edge16" class="edge"><title>Node13&#45;&gt;Node14</title>
<path fill="none" stroke="midnightblue" d="M79.0746,-112.324C68.8254,-104.185 53.2794,-91.8395 40.999,-82.0874"/>
<polygon fill="midnightblue" stroke="midnightblue" points="43.1319,-79.3119 33.1242,-75.8339 38.7787,-84.7937 43.1319,-79.3119"/>
</g>
<!-- Node15 -->
<g id="node15" class="node"><title>Node15</title>
<polygon fill="none" stroke="#bfbfbf" points="62,-56.5 62,-75.5 118,-75.5 118,-56.5 62,-56.5"/>
<text text-anchor="middle" x="90" y="-63.5" font-family="Helvetica,sans-Serif" font-size="10.00">sstream</text>
</g>
<!-- Node13&#45;&gt;Node15 -->
<g id="edge17" class="edge"><title>Node13&#45;&gt;Node15</title>
<path fill="none" stroke="midnightblue" d="M90,-112.083C90,-105.006 90,-94.8611 90,-85.9865"/>
<polygon fill="midnightblue" stroke="midnightblue" points="93.5001,-85.751 90,-75.7511 86.5001,-85.7511 93.5001,-85.751"/>
</g>
<!-- Node16 -->
<g id="node16" class="node"><title>Node16</title>
<polygon fill="none" stroke="#bfbfbf" points="136,-56.5 136,-75.5 168,-75.5 168,-56.5 136,-56.5"/>
<text text-anchor="middle" x="152" y="-63.5" font-family="Helvetica,sans-Serif" font-size="10.00">list</text>
</g>
<!-- Node13&#45;&gt;Node16 -->
<g id="edge18" class="edge"><title>Node13&#45;&gt;Node16</title>
<path fill="none" stroke="midnightblue" d="M99.9614,-112.324C109.127,-104.341 122.937,-92.3128 134.028,-82.6529"/>
<polygon fill="midnightblue" stroke="midnightblue" points="136.615,-85.041 141.857,-75.8339 132.018,-79.7624 136.615,-85.041"/>
</g>
<!-- Node19&#45;&gt;Node2 -->
<g id="edge22" class="edge"><title>Node19&#45;&gt;Node2</title>
<path fill="none" stroke="midnightblue" d="M243.312,-336.447C227.408,-329.221 207.082,-317.264 196,-300 177.652,-271.418 166.391,-250.203 188,-224 211.886,-195.035 320.188,-184.486 380.002,-180.825"/>
<polygon fill="midnightblue" stroke="midnightblue" points="380.44,-184.305 390.223,-180.237 380.039,-177.317 380.44,-184.305"/>
</g>
<!-- Node19&#45;&gt;Node13 -->
<g id="edge38" class="edge"><title>Node19&#45;&gt;Node13</title>
<path fill="none" stroke="midnightblue" d="M241.248,-336.402C222.859,-329.027 198.102,-316.901 181,-300 133.543,-253.1 105.903,-176.246 95.1862,-141.311"/>
<polygon fill="midnightblue" stroke="midnightblue" points="98.4873,-140.131 92.2976,-131.532 91.7741,-142.114 98.4873,-140.131"/>
</g>
<!-- Node20 -->
<g id="node20" class="node"><title>Node20</title>
<polygon fill="none" stroke="#bfbfbf" points="205,-280.5 205,-299.5 255,-299.5 255,-280.5 205,-280.5"/>
<text text-anchor="middle" x="230" y="-287.5" font-family="Helvetica,sans-Serif" font-size="10.00">climits</text>
</g>
<!-- Node19&#45;&gt;Node20 -->
<g id="edge23" class="edge"><title>Node19&#45;&gt;Node20</title>
<path fill="none" stroke="midnightblue" d="M260.055,-336.083C255.023,-328.534 247.663,-317.495 241.487,-308.23"/>
<polygon fill="midnightblue" stroke="midnightblue" points="244.293,-306.13 235.834,-299.751 238.469,-310.013 244.293,-306.13"/>
</g>
<!-- Node21 -->
<g id="node21" class="node"><title>Node21</title>
<g id="a_node21"><a xlink:href="communication_8hpp.html" target="_top" xlink:title="This file contains the asynchronous MPI communication. ">
<polygon fill="none" stroke="black" points="273.5,-280.5 273.5,-299.5 386.5,-299.5 386.5,-280.5 273.5,-280.5"/>
<text text-anchor="middle" x="330" y="-287.5" font-family="Helvetica,sans-Serif" font-size="10.00">communication.hpp</text>
</a>
</g>
</g>
<!-- Node19&#45;&gt;Node21 -->
<g id="edge24" class="edge"><title>Node19&#45;&gt;Node21</title>
<path fill="none" stroke="midnightblue" d="M276.283,-336.324C285.836,-328.263 300.28,-316.077 311.784,-306.369"/>
<polygon fill="midnightblue" stroke="midnightblue" points="314.144,-308.958 319.53,-299.834 309.63,-303.608 314.144,-308.958"/>
</g>
<!-- Node22 -->
<g id="node22" class="node"><title>Node22</title>
<g id="a_node22"><a xlink:href="particle__data_8hpp.html" target="_top" xlink:title="For more information on particle_data, see particle_data.c. ">
<polygon fill="none" stroke="black" points="387.5,-224.5 387.5,-243.5 488.5,-243.5 488.5,-224.5 387.5,-224.5"/>
<text text-anchor="middle" x="438" y="-231.5" font-family="Helvetica,sans-Serif" font-size="10.00">particle_data.hpp</text>
</a>
</g>
</g>
<!-- Node21&#45;&gt;Node22 -->
<g id="edge25" class="edge"><title>Node21&#45;&gt;Node22</title>
<path fill="none" stroke="midnightblue" d="M347.352,-280.324C364.672,-271.664 391.515,-258.242 411.502,-248.249"/>
<polygon fill="midnightblue" stroke="midnightblue" points="413.312,-251.257 420.691,-243.655 410.181,-244.996 413.312,-251.257"/>
</g>
<!-- Node23 -->
<g id="node23" class="node"><title>Node23</title>
<g id="a_node23"><a xlink:href="random_8hpp.html" target="_top" xlink:title="A random generator. ">
<polygon fill="none" stroke="black" points="197.5,-224.5 197.5,-243.5 272.5,-243.5 272.5,-224.5 197.5,-224.5"/>
<text text-anchor="middle" x="235" y="-231.5" font-family="Helvetica,sans-Serif" font-size="10.00">random.hpp</text>
</a>
</g>
</g>
<!-- Node21&#45;&gt;Node23 -->
<g id="edge27" class="edge"><title>Node21&#45;&gt;Node23</title>
<path fill="none" stroke="midnightblue" d="M314.737,-280.324C299.779,-271.822 276.745,-258.729 259.273,-248.797"/>
<polygon fill="midnightblue" stroke="midnightblue" points="260.649,-245.553 250.226,-243.655 257.19,-251.639 260.649,-245.553"/>
</g>
<!-- Node24 -->
<g id="node24" class="node"><title>Node24</title>
<g id="a_node24"><a xlink:href="topology_8hpp.html" target="_top" xlink:title="This file contains functions for handling the system topology. ">
<polygon fill="none" stroke="black" points="290.5,-224.5 290.5,-243.5 369.5,-243.5 369.5,-224.5 290.5,-224.5"/>
<text text-anchor="middle" x="330" y="-231.5" font-family="Helvetica,sans-Serif" font-size="10.00">topology.hpp</text>
</a>
</g>
</g>
<!-- Node21&#45;&gt;Node24 -->
<g id="edge29" class="edge"><title>Node21&#45;&gt;Node24</title>
<path fill="none" stroke="midnightblue" d="M330,-280.083C330,-273.006 330,-262.861 330,-253.986"/>
<polygon fill="midnightblue" stroke="midnightblue" points="333.5,-253.751 330,-243.751 326.5,-253.751 333.5,-253.751"/>
</g>
<!-- Node25 -->
<g id="node25" class="node"><title>Node25</title>
<g id="a_node25"><a xlink:href="mpi_8h.html" target="_top" xlink:title="This is the MPIfake implementation. ">
<polygon fill="none" stroke="black" points="604,-224.5 604,-243.5 648,-243.5 648,-224.5 604,-224.5"/>
<text text-anchor="middle" x="626" y="-231.5" font-family="Helvetica,sans-Serif" font-size="10.00">mpi.h</text>
</a>
</g>
</g>
<!-- Node21&#45;&gt;Node25 -->
<g id="edge31" class="edge"><title>Node21&#45;&gt;Node25</title>
<path fill="none" stroke="midnightblue" d="M376.902,-280.444C437.448,-269.398 541.234,-250.464 593.665,-240.899"/>
<polygon fill="midnightblue" stroke="midnightblue" points="594.53,-244.299 603.74,-239.061 593.274,-237.413 594.53,-244.299"/>
</g>
<!-- Node29 -->
<g id="node29" class="node"><title>Node29</title>
<g id="a_node29"><a xlink:href="cuda__init_8hpp.html" target="_top" xlink:title="cuda_init.hpp">
<polygon fill="none" stroke="black" points="129,-168.5 129,-187.5 211,-187.5 211,-168.5 129,-168.5"/>
<text text-anchor="middle" x="170" y="-175.5" font-family="Helvetica,sans-Serif" font-size="10.00">cuda_init.hpp</text>
</a>
</g>
</g>
<!-- Node21&#45;&gt;Node29 -->
<g id="edge35" class="edge"><title>Node21&#45;&gt;Node29</title>
<path fill="none" stroke="midnightblue" d="M288.686,-280.493C251.986,-272.143 202.044,-258.57 188,-244 176.202,-231.76 171.996,-212.497 170.566,-198.113"/>
<polygon fill="midnightblue" stroke="midnightblue" points="174.042,-197.613 169.922,-187.852 167.055,-198.051 174.042,-197.613"/>
</g>
<!-- Node22&#45;&gt;Node2 -->
<g id="edge26" class="edge"><title>Node22&#45;&gt;Node2</title>
<path fill="none" stroke="midnightblue" d="M435.028,-224.083C432.616,-216.849 429.136,-206.409 426.132,-197.397"/>
<polygon fill="midnightblue" stroke="midnightblue" points="429.4,-196.131 422.917,-187.751 422.759,-198.345 429.4,-196.131"/>
</g>
<!-- Node23&#45;&gt;Node2 -->
<g id="edge28" class="edge"><title>Node23&#45;&gt;Node2</title>
<path fill="none" stroke="midnightblue" d="M264.314,-224.444C295.842,-215.241 346.131,-200.562 380.986,-190.388"/>
<polygon fill="midnightblue" stroke="midnightblue" points="382.205,-193.678 390.823,-187.516 380.243,-186.959 382.205,-193.678"/>
</g>
<!-- Node24&#45;&gt;Node2 -->
<g id="edge30" class="edge"><title>Node24&#45;&gt;Node2</title>
<path fill="none" stroke="midnightblue" d="M344.46,-224.324C358.5,-215.9 380.048,-202.971 396.543,-193.074"/>
<polygon fill="midnightblue" stroke="midnightblue" points="398.802,-195.801 405.576,-187.655 395.2,-189.798 398.802,-195.801"/>
</g>
<!-- Node26 -->
<g id="node26" class="node"><title>Node26</title>
<polygon fill="none" stroke="#bfbfbf" points="670.5,-168.5 670.5,-187.5 723.5,-187.5 723.5,-168.5 670.5,-168.5"/>
<text text-anchor="middle" x="697" y="-175.5" font-family="Helvetica,sans-Serif" font-size="10.00">string.h</text>
</g>
<!-- Node25&#45;&gt;Node26 -->
<g id="edge32" class="edge"><title>Node25&#45;&gt;Node26</title>
<path fill="none" stroke="midnightblue" d="M637.407,-224.324C648.109,-216.185 664.341,-203.839 677.163,-194.087"/>
<polygon fill="midnightblue" stroke="midnightblue" points="679.544,-196.673 685.385,-187.834 675.307,-191.102 679.544,-196.673"/>
</g>
<!-- Node27 -->
<g id="node27" class="node"><title>Node27</title>
<polygon fill="none" stroke="#bfbfbf" points="531,-168.5 531,-187.5 581,-187.5 581,-168.5 531,-168.5"/>
<text text-anchor="middle" x="556" y="-175.5" font-family="Helvetica,sans-Serif" font-size="10.00">stdio.h</text>
</g>
<!-- Node25&#45;&gt;Node27 -->
<g id="edge33" class="edge"><title>Node25&#45;&gt;Node27</title>
<path fill="none" stroke="midnightblue" d="M614.753,-224.324C604.203,-216.185 588.199,-203.839 575.558,-194.087"/>
<polygon fill="midnightblue" stroke="midnightblue" points="577.507,-191.171 567.451,-187.834 573.231,-196.713 577.507,-191.171"/>
</g>
<!-- Node28 -->
<g id="node28" class="node"><title>Node28</title>
<polygon fill="none" stroke="#bfbfbf" points="599.5,-168.5 599.5,-187.5 652.5,-187.5 652.5,-168.5 599.5,-168.5"/>
<text text-anchor="middle" x="626" y="-175.5" font-family="Helvetica,sans-Serif" font-size="10.00">stdlib.h</text>
</g>
<!-- Node25&#45;&gt;Node28 -->
<g id="edge34" class="edge"><title>Node25&#45;&gt;Node28</title>
<path fill="none" stroke="midnightblue" d="M626,-224.083C626,-217.006 626,-206.861 626,-197.986"/>
<polygon fill="midnightblue" stroke="midnightblue" points="629.5,-197.751 626,-187.751 622.5,-197.751 629.5,-197.751"/>
</g>
<!-- Node29&#45;&gt;Node7 -->
<g id="edge36" class="edge"><title>Node29&#45;&gt;Node7</title>
<path fill="none" stroke="midnightblue" d="M170.419,-168.446C171.494,-155.009 175.328,-128.765 189,-112 201.086,-97.1808 219.369,-86.6148 235.886,-79.4623"/>
<polygon fill="midnightblue" stroke="midnightblue" points="237.387,-82.631 245.347,-75.6392 234.764,-76.1409 237.387,-82.631"/>
</g>
<!-- Node29&#45;&gt;Node17 -->
<g id="edge37" class="edge"><title>Node29&#45;&gt;Node17</title>
<path fill="none" stroke="midnightblue" d="M178.587,-168.083C186.159,-160.22 197.378,-148.569 206.514,-139.081"/>
<polygon fill="midnightblue" stroke="midnightblue" points="209.158,-141.382 213.573,-131.751 204.115,-136.527 209.158,-141.382"/>
</g>
<!-- Node30&#45;&gt;Node19 -->
<g id="edge40" class="edge"><title>Node30&#45;&gt;Node19</title>
<path fill="none" stroke="midnightblue" d="M410.746,-392.444C381.559,-383.28 335.079,-368.688 302.691,-358.519"/>
<polygon fill="midnightblue" stroke="midnightblue" points="303.716,-355.173 293.126,-355.516 301.619,-361.851 303.716,-355.173"/>
</g>
<!-- Node30&#45;&gt;Node22 -->
<g id="edge41" class="edge"><title>Node30&#45;&gt;Node22</title>
<path fill="none" stroke="midnightblue" d="M438,-392.075C438,-365.945 438,-289.211 438,-253.577"/>
<polygon fill="midnightblue" stroke="midnightblue" points="441.5,-253.568 438,-243.568 434.5,-253.568 441.5,-253.568"/>
</g>
<!-- Node31&#45;&gt;Node2 -->
<g id="edge44" class="edge"><title>Node31&#45;&gt;Node2</title>
<path fill="none" stroke="midnightblue" d="M500.852,-448.172C510.804,-415.641 541.055,-300.392 497,-224 488.352,-209.005 472.573,-198.524 457.54,-191.475"/>
<polygon fill="midnightblue" stroke="midnightblue" points="458.915,-188.257 448.346,-187.52 456.149,-194.687 458.915,-188.257"/>
</g>
<!-- Node31&#45;&gt;Node25 -->
<g id="edge43" class="edge"><title>Node31&#45;&gt;Node25</title>
<path fill="none" stroke="midnightblue" d="M503.018,-448.297C522.011,-415.356 589.735,-297.898 615.734,-252.805"/>
<polygon fill="midnightblue" stroke="midnightblue" points="618.915,-254.295 620.878,-243.884 612.851,-250.799 618.915,-254.295"/>
</g>
<!-- Node31&#45;&gt;Node30 -->
<g id="edge45" class="edge"><title>Node31&#45;&gt;Node30</title>
<path fill="none" stroke="midnightblue" d="M488.36,-448.324C479.49,-440.341 466.125,-428.313 455.392,-418.653"/>
<polygon fill="midnightblue" stroke="midnightblue" points="457.59,-415.922 447.815,-411.834 452.907,-421.125 457.59,-415.922"/>
</g>
</g>
</svg>
