<?xml version="1.0" encoding="UTF-8" standalone="no"?>
<!DOCTYPE svg PUBLIC "-//W3C//DTD SVG 1.1//EN"
 "http://www.w3.org/Graphics/SVG/1.1/DTD/svg11.dtd">
<!-- Generated by graphviz version 2.38.0 (20140413.2041)
 -->
<!-- Title: halo.hpp Pages: 1 -->
<svg width="234pt" height="84pt"
 viewBox="0.00 0.00 234.00 84.00" xmlns="http://www.w3.org/2000/svg" xmlns:xlink="http://www.w3.org/1999/xlink">
<g id="graph0" class="graph" transform="scale(1 1) rotate(0) translate(4 80)">
<title>halo.hpp</title>
<!-- Node1 -->
<g id="node1" class="node"><title>Node1</title>
<polygon fill="#bfbfbf" stroke="black" points="89.5,-56.5 89.5,-75.5 148.5,-75.5 148.5,-56.5 89.5,-56.5"/>
<text text-anchor="middle" x="119" y="-63.5" font-family="Helvetica,sans-Serif" font-size="10.00">halo.hpp</text>
</g>
<!-- Node2 -->
<g id="node2" class="node"><title>Node2</title>
<g id="a_node2"><a xlink:href="halo_8cpp.html" target="_top" xlink:title="Halo scheme for parallelization of lattice algorithms. ">
<polygon fill="none" stroke="black" points="0,-0.5 0,-19.5 58,-19.5 58,-0.5 0,-0.5"/>
<text text-anchor="middle" x="29" y="-7.5" font-family="Helvetica,sans-Serif" font-size="10.00">halo.cpp</text>
</a>
</g>
</g>
<!-- Node1&#45;&gt;Node2 -->
<g id="edge1" class="edge"><title>Node1&#45;&gt;Node2</title>
<path fill="none" stroke="midnightblue" d="M95.9623,-51.1774C79.4011,-41.2407 57.582,-28.1492 43.4242,-19.6545"/>
<polygon fill="midnightblue" stroke="midnightblue" points="94.1642,-54.1802 104.54,-56.324 97.7658,-48.1777 94.1642,-54.1802"/>
</g>
<!-- Node3 -->
<g id="node3" class="node"><title>Node3</title>
<g id="a_node3"><a xlink:href="ibm__main_8cpp.html" target="_top" xlink:title="Main of the Bayreuth Immersed&#45;Boundary implementation. ">
<polygon fill="none" stroke="black" points="76,-0.5 76,-19.5 162,-19.5 162,-0.5 76,-0.5"/>
<text text-anchor="middle" x="119" y="-7.5" font-family="Helvetica,sans-Serif" font-size="10.00">ibm_main.cpp</text>
</a>
</g>
</g>
<!-- Node1&#45;&gt;Node3 -->
<g id="edge2" class="edge"><title>Node1&#45;&gt;Node3</title>
<path fill="none" stroke="midnightblue" d="M119,-45.8045C119,-36.9102 119,-26.7798 119,-19.7511"/>
<polygon fill="midnightblue" stroke="midnightblue" points="115.5,-46.083 119,-56.083 122.5,-46.083 115.5,-46.083"/>
</g>
<!-- Node4 -->
<g id="node4" class="node"><title>Node4</title>
<g id="a_node4"><a xlink:href="lb_8cpp.html" target="_top" xlink:title="Lattice Boltzmann algorithm for hydrodynamic degrees of freedom. ">
<polygon fill="none" stroke="black" points="180,-0.5 180,-19.5 226,-19.5 226,-0.5 180,-0.5"/>
<text text-anchor="middle" x="203" y="-7.5" font-family="Helvetica,sans-Serif" font-size="10.00">lb.cpp</text>
</a>
</g>
</g>
<!-- Node1&#45;&gt;Node4 -->
<g id="edge3" class="edge"><title>Node1&#45;&gt;Node4</title>
<path fill="none" stroke="midnightblue" d="M140.932,-50.9005C156.335,-40.9986 176.446,-28.0705 189.537,-19.6545"/>
<polygon fill="midnightblue" stroke="midnightblue" points="139.015,-47.9722 132.496,-56.324 142.801,-53.8605 139.015,-47.9722"/>
</g>
</g>
</svg>
