<?xml version="1.0" encoding="UTF-8" standalone="no"?>
<!DOCTYPE svg PUBLIC "-//W3C//DTD SVG 1.1//EN"
 "http://www.w3.org/Graphics/SVG/1.1/DTD/svg11.dtd">
<!-- Generated by graphviz version 2.38.0 (20140413.2041)
 -->
<!-- Title: harmonic_tcl.hpp Pages: 1 -->
<svg width="260pt" height="84pt"
 viewBox="0.00 0.00 260.00 84.00" xmlns="http://www.w3.org/2000/svg" xmlns:xlink="http://www.w3.org/1999/xlink">
<g id="graph0" class="graph" transform="scale(1 1) rotate(0) translate(4 80)">
<title>harmonic_tcl.hpp</title>
<!-- Node1 -->
<g id="node1" class="node"><title>Node1</title>
<polygon fill="#bfbfbf" stroke="black" points="66.5,-56.5 66.5,-75.5 167.5,-75.5 167.5,-56.5 66.5,-56.5"/>
<text text-anchor="middle" x="117" y="-63.5" font-family="Helvetica,sans-Serif" font-size="10.00">harmonic_tcl.hpp</text>
</g>
<!-- Node2 -->
<g id="node2" class="node"><title>Node2</title>
<g id="a_node2"><a xlink:href="harmonic__tcl_8cpp.html" target="_top" xlink:title="Implementation of harmonic_tcl.hpp. ">
<polygon fill="none" stroke="black" points="0,-0.5 0,-19.5 100,-19.5 100,-0.5 0,-0.5"/>
<text text-anchor="middle" x="50" y="-7.5" font-family="Helvetica,sans-Serif" font-size="10.00">harmonic_tcl.cpp</text>
</a>
</g>
</g>
<!-- Node1&#45;&gt;Node2 -->
<g id="edge1" class="edge"><title>Node1&#45;&gt;Node2</title>
<path fill="none" stroke="midnightblue" d="M98.1652,-49.8197C86.1616,-40.1452 71.0283,-27.9481 60.9606,-19.8339"/>
<polygon fill="midnightblue" stroke="midnightblue" points="96.253,-52.7738 106.235,-56.324 100.646,-47.3236 96.253,-52.7738"/>
</g>
<!-- Node3 -->
<g id="node3" class="node"><title>Node3</title>
<g id="a_node3"><a xlink:href="interaction__data__tcl_8cpp.html" target="_top" xlink:title="interaction_data_tcl.cpp">
<polygon fill="none" stroke="black" points="118,-0.5 118,-19.5 252,-19.5 252,-0.5 118,-0.5"/>
<text text-anchor="middle" x="185" y="-7.5" font-family="Helvetica,sans-Serif" font-size="10.00">interaction_data_tcl.cpp</text>
</a>
</g>
</g>
<!-- Node1&#45;&gt;Node3 -->
<g id="edge2" class="edge"><title>Node1&#45;&gt;Node3</title>
<path fill="none" stroke="midnightblue" d="M135.762,-50.1008C148,-40.3824 163.559,-28.0269 173.876,-19.8339"/>
<polygon fill="midnightblue" stroke="midnightblue" points="133.58,-47.3642 127.925,-56.324 137.933,-52.846 133.58,-47.3642"/>
</g>
</g>
</svg>
