<?xml version="1.0" encoding="UTF-8" standalone="no"?>
<!DOCTYPE svg PUBLIC "-//W3C//DTD SVG 1.1//EN"
 "http://www.w3.org/Graphics/SVG/1.1/DTD/svg11.dtd">
<!-- Generated by graphviz version 2.38.0 (20140413.2041)
 -->
<!-- Title: HarmonicOrientationWell.hpp Pages: 1 -->
<svg width="506pt" height="252pt"
 viewBox="0.00 0.00 506.00 252.00" xmlns="http://www.w3.org/2000/svg" xmlns:xlink="http://www.w3.org/1999/xlink">
<g id="graph0" class="graph" transform="scale(1 1) rotate(0) translate(4 248)">
<title>HarmonicOrientationWell.hpp</title>
<!-- Node1 -->
<g id="node1" class="node"><title>Node1</title>
<polygon fill="#bfbfbf" stroke="black" points="299.5,-224.5 299.5,-243.5 460.5,-243.5 460.5,-224.5 299.5,-224.5"/>
<text text-anchor="middle" x="380" y="-231.5" font-family="Helvetica,sans-Serif" font-size="10.00">HarmonicOrientationWell.hpp</text>
</g>
<!-- Node2 -->
<g id="node2" class="node"><title>Node2</title>
<g id="a_node2"><a xlink:href="config_8hpp.html" target="_top" xlink:title="This file contains the defaults for Espresso. ">
<polygon fill="none" stroke="black" points="175.5,-168.5 175.5,-187.5 242.5,-187.5 242.5,-168.5 175.5,-168.5"/>
<text text-anchor="middle" x="209" y="-175.5" font-family="Helvetica,sans-Serif" font-size="10.00">config.hpp</text>
</a>
</g>
</g>
<!-- Node1&#45;&gt;Node2 -->
<g id="edge1" class="edge"><title>Node1&#45;&gt;Node2</title>
<path fill="none" stroke="midnightblue" d="M352.905,-224.444C324.012,-215.32 278.075,-200.813 245.895,-190.651"/>
<polygon fill="midnightblue" stroke="midnightblue" points="246.559,-187.19 235.969,-187.516 244.451,-193.865 246.559,-187.19"/>
</g>
<!-- Node6 -->
<g id="node6" class="node"><title>Node6</title>
<g id="a_node6"><a xlink:href="Actor_8hpp.html" target="_top" xlink:title="Actor.hpp">
<polygon fill="none" stroke="black" points="320,-168.5 320,-187.5 382,-187.5 382,-168.5 320,-168.5"/>
<text text-anchor="middle" x="351" y="-175.5" font-family="Helvetica,sans-Serif" font-size="10.00">Actor.hpp</text>
</a>
</g>
</g>
<!-- Node1&#45;&gt;Node6 -->
<g id="edge5" class="edge"><title>Node1&#45;&gt;Node6</title>
<path fill="none" stroke="midnightblue" d="M375.211,-224.083C371.242,-216.691 365.475,-205.953 360.565,-196.811"/>
<polygon fill="midnightblue" stroke="midnightblue" points="363.514,-194.905 355.7,-187.751 357.347,-198.217 363.514,-194.905"/>
</g>
<!-- Node7 -->
<g id="node7" class="node"><title>Node7</title>
<g id="a_node7"><a xlink:href="SystemInterface_8hpp.html" target="_top" xlink:title="SystemInterface.hpp">
<polygon fill="none" stroke="black" points="351,-112.5 351,-131.5 469,-131.5 469,-112.5 351,-112.5"/>
<text text-anchor="middle" x="410" y="-119.5" font-family="Helvetica,sans-Serif" font-size="10.00">SystemInterface.hpp</text>
</a>
</g>
</g>
<!-- Node1&#45;&gt;Node7 -->
<g id="edge11" class="edge"><title>Node1&#45;&gt;Node7</title>
<path fill="none" stroke="midnightblue" d="M382.354,-224.368C387.217,-206.537 398.465,-165.295 405.017,-141.272"/>
<polygon fill="midnightblue" stroke="midnightblue" points="408.402,-142.16 407.657,-131.591 401.649,-140.318 408.402,-142.16"/>
</g>
<!-- Node12 -->
<g id="node12" class="node"><title>Node12</title>
<polygon fill="none" stroke="#bfbfbf" points="438,-168.5 438,-187.5 498,-187.5 498,-168.5 438,-168.5"/>
<text text-anchor="middle" x="468" y="-175.5" font-family="Helvetica,sans-Serif" font-size="10.00">iostream</text>
</g>
<!-- Node1&#45;&gt;Node12 -->
<g id="edge12" class="edge"><title>Node1&#45;&gt;Node12</title>
<path fill="none" stroke="midnightblue" d="M394.139,-224.324C407.866,-215.9 428.936,-202.971 445.064,-193.074"/>
<polygon fill="midnightblue" stroke="midnightblue" points="447.204,-195.868 453.896,-187.655 443.543,-189.902 447.204,-195.868"/>
</g>
<!-- Node3 -->
<g id="node3" class="node"><title>Node3</title>
<g id="a_node3"><a xlink:href="acconfig_8hpp.html" target="_top" xlink:title="acconfig.hpp">
<polygon fill="none" stroke="black" points="0,-112.5 0,-131.5 78,-131.5 78,-112.5 0,-112.5"/>
<text text-anchor="middle" x="39" y="-119.5" font-family="Helvetica,sans-Serif" font-size="10.00">acconfig.hpp</text>
</a>
</g>
</g>
<!-- Node2&#45;&gt;Node3 -->
<g id="edge2" class="edge"><title>Node2&#45;&gt;Node3</title>
<path fill="none" stroke="midnightblue" d="M182.063,-168.444C153.34,-159.32 107.671,-144.813 75.6788,-134.651"/>
<polygon fill="midnightblue" stroke="midnightblue" points="76.4013,-131.208 65.811,-131.516 74.2821,-137.88 76.4013,-131.208"/>
</g>
<!-- Node4 -->
<g id="node4" class="node"><title>Node4</title>
<g id="a_node4"><a xlink:href="myconfig-final_8hpp.html" target="_top" xlink:title="myconfig&#45;final.hpp">
<polygon fill="none" stroke="black" points="96.5,-112.5 96.5,-131.5 203.5,-131.5 203.5,-112.5 96.5,-112.5"/>
<text text-anchor="middle" x="150" y="-119.5" font-family="Helvetica,sans-Serif" font-size="10.00">myconfig&#45;final.hpp</text>
</a>
</g>
</g>
<!-- Node2&#45;&gt;Node4 -->
<g id="edge3" class="edge"><title>Node2&#45;&gt;Node4</title>
<path fill="none" stroke="midnightblue" d="M199.521,-168.324C190.799,-160.341 177.657,-148.313 167.102,-138.653"/>
<polygon fill="midnightblue" stroke="midnightblue" points="169.392,-136.004 159.652,-131.834 164.666,-141.167 169.392,-136.004"/>
</g>
<!-- Node5 -->
<g id="node5" class="node"><title>Node5</title>
<g id="a_node5"><a xlink:href="config-features_8hpp.html" target="_top" xlink:title="config&#45;features.hpp">
<polygon fill="none" stroke="black" points="221.5,-112.5 221.5,-131.5 332.5,-131.5 332.5,-112.5 221.5,-112.5"/>
<text text-anchor="middle" x="277" y="-119.5" font-family="Helvetica,sans-Serif" font-size="10.00">config&#45;features.hpp</text>
</a>
</g>
</g>
<!-- Node2&#45;&gt;Node5 -->
<g id="edge4" class="edge"><title>Node2&#45;&gt;Node5</title>
<path fill="none" stroke="midnightblue" d="M219.925,-168.324C230.175,-160.185 245.721,-147.839 258.001,-138.087"/>
<polygon fill="midnightblue" stroke="midnightblue" points="260.221,-140.794 265.876,-131.834 255.868,-135.312 260.221,-140.794"/>
</g>
<!-- Node6&#45;&gt;Node7 -->
<g id="edge6" class="edge"><title>Node6&#45;&gt;Node7</title>
<path fill="none" stroke="midnightblue" d="M360.479,-168.324C369.201,-160.341 382.343,-148.313 392.898,-138.653"/>
<polygon fill="midnightblue" stroke="midnightblue" points="395.334,-141.167 400.348,-131.834 390.608,-136.004 395.334,-141.167"/>
</g>
<!-- Node8 -->
<g id="node8" class="node"><title>Node8</title>
<g id="a_node8"><a xlink:href="Vector_8hpp.html" target="_top" xlink:title="Vector.hpp">
<polygon fill="none" stroke="black" points="338,-56.5 338,-75.5 406,-75.5 406,-56.5 338,-56.5"/>
<text text-anchor="middle" x="372" y="-63.5" font-family="Helvetica,sans-Serif" font-size="10.00">Vector.hpp</text>
</a>
</g>
</g>
<!-- Node7&#45;&gt;Node8 -->
<g id="edge7" class="edge"><title>Node7&#45;&gt;Node8</title>
<path fill="none" stroke="midnightblue" d="M403.725,-112.083C398.358,-104.455 390.482,-93.2645 383.921,-83.9408"/>
<polygon fill="midnightblue" stroke="midnightblue" points="386.775,-81.9149 378.158,-75.7511 381.051,-85.9434 386.775,-81.9149"/>
</g>
<!-- Node11 -->
<g id="node11" class="node"><title>Node11</title>
<polygon fill="none" stroke="#bfbfbf" points="424.5,-56.5 424.5,-75.5 471.5,-75.5 471.5,-56.5 424.5,-56.5"/>
<text text-anchor="middle" x="448" y="-63.5" font-family="Helvetica,sans-Serif" font-size="10.00">vector</text>
</g>
<!-- Node7&#45;&gt;Node11 -->
<g id="edge10" class="edge"><title>Node7&#45;&gt;Node11</title>
<path fill="none" stroke="midnightblue" d="M416.275,-112.083C421.642,-104.455 429.518,-93.2645 436.079,-83.9408"/>
<polygon fill="midnightblue" stroke="midnightblue" points="438.949,-85.9434 441.842,-75.7511 433.225,-81.9149 438.949,-85.9434"/>
</g>
<!-- Node9 -->
<g id="node9" class="node"><title>Node9</title>
<polygon fill="none" stroke="#bfbfbf" points="303,-0.5 303,-19.5 367,-19.5 367,-0.5 303,-0.5"/>
<text text-anchor="middle" x="335" y="-7.5" font-family="Helvetica,sans-Serif" font-size="10.00">algorithm</text>
</g>
<!-- Node8&#45;&gt;Node9 -->
<g id="edge8" class="edge"><title>Node8&#45;&gt;Node9</title>
<path fill="none" stroke="midnightblue" d="M365.89,-56.083C360.718,-48.5341 353.154,-37.4948 346.806,-28.2298"/>
<polygon fill="midnightblue" stroke="midnightblue" points="349.536,-26.0221 340.996,-19.7511 343.761,-29.9787 349.536,-26.0221"/>
</g>
<!-- Node10 -->
<g id="node10" class="node"><title>Node10</title>
<polygon fill="none" stroke="#bfbfbf" points="385.5,-0.5 385.5,-19.5 432.5,-19.5 432.5,-0.5 385.5,-0.5"/>
<text text-anchor="middle" x="409" y="-7.5" font-family="Helvetica,sans-Serif" font-size="10.00">cmath</text>
</g>
<!-- Node8&#45;&gt;Node10 -->
<g id="edge9" class="edge"><title>Node8&#45;&gt;Node10</title>
<path fill="none" stroke="midnightblue" d="M378.11,-56.083C383.282,-48.5341 390.846,-37.4948 397.194,-28.2298"/>
<polygon fill="midnightblue" stroke="midnightblue" points="400.239,-29.9787 403.004,-19.7511 394.464,-26.0221 400.239,-29.9787"/>
</g>
</g>
</svg>
