<?xml version="1.0" encoding="UTF-8" standalone="no"?>
<!DOCTYPE svg PUBLIC "-//W3C//DTD SVG 1.1//EN"
 "http://www.w3.org/Graphics/SVG/1.1/DTD/svg11.dtd">
<!-- Generated by graphviz version 2.38.0 (20140413.2041)
 -->
<!-- Title: harmonic_dumbbell_tcl.hpp Pages: 1 -->
<svg width="312pt" height="84pt"
 viewBox="0.00 0.00 311.50 84.00" xmlns="http://www.w3.org/2000/svg" xmlns:xlink="http://www.w3.org/1999/xlink">
<g id="graph0" class="graph" transform="scale(1 1) rotate(0) translate(4 80)">
<title>harmonic_dumbbell_tcl.hpp</title>
<!-- Node1 -->
<g id="node1" class="node"><title>Node1</title>
<polygon fill="#bfbfbf" stroke="black" points="79.5,-56.5 79.5,-75.5 231.5,-75.5 231.5,-56.5 79.5,-56.5"/>
<text text-anchor="middle" x="155.5" y="-63.5" font-family="Helvetica,sans-Serif" font-size="10.00">harmonic_dumbbell_tcl.hpp</text>
</g>
<!-- Node2 -->
<g id="node2" class="node"><title>Node2</title>
<g id="a_node2"><a xlink:href="harmonic__dumbbell__tcl_8cpp.html" target="_top" xlink:title="Implementation of harmonic_dumbbell_tcl.hpp. ">
<polygon fill="none" stroke="black" points="0,-0.5 0,-19.5 151,-19.5 151,-0.5 0,-0.5"/>
<text text-anchor="middle" x="75.5" y="-7.5" font-family="Helvetica,sans-Serif" font-size="10.00">harmonic_dumbbell_tcl.cpp</text>
</a>
</g>
</g>
<!-- Node1&#45;&gt;Node2 -->
<g id="edge1" class="edge"><title>Node1&#45;&gt;Node2</title>
<path fill="none" stroke="midnightblue" d="M134.199,-50.6221C119.585,-40.7574 100.673,-27.9919 88.3215,-19.6545"/>
<polygon fill="midnightblue" stroke="midnightblue" points="132.4,-53.6302 142.647,-56.324 136.316,-47.8282 132.4,-53.6302"/>
</g>
<!-- Node3 -->
<g id="node3" class="node"><title>Node3</title>
<g id="a_node3"><a xlink:href="interaction__data__tcl_8cpp.html" target="_top" xlink:title="interaction_data_tcl.cpp">
<polygon fill="none" stroke="black" points="169.5,-0.5 169.5,-19.5 303.5,-19.5 303.5,-0.5 169.5,-0.5"/>
<text text-anchor="middle" x="236.5" y="-7.5" font-family="Helvetica,sans-Serif" font-size="10.00">interaction_data_tcl.cpp</text>
</a>
</g>
</g>
<!-- Node1&#45;&gt;Node3 -->
<g id="edge2" class="edge"><title>Node1&#45;&gt;Node3</title>
<path fill="none" stroke="midnightblue" d="M177.067,-50.6221C191.864,-40.7574 211.012,-27.9919 223.518,-19.6545"/>
<polygon fill="midnightblue" stroke="midnightblue" points="174.893,-47.8647 168.514,-56.324 178.776,-53.6891 174.893,-47.8647"/>
</g>
</g>
</svg>
