<?xml version="1.0" encoding="UTF-8" standalone="no"?>
<!DOCTYPE svg PUBLIC "-//W3C//DTD SVG 1.1//EN"
 "http://www.w3.org/Graphics/SVG/1.1/DTD/svg11.dtd">
<!-- Generated by graphviz version 2.38.0 (20140413.2041)
 -->
<!-- Title: hat.hpp Pages: 1 -->
<svg width="939pt" height="476pt"
 viewBox="0.00 0.00 939.00 476.00" xmlns="http://www.w3.org/2000/svg" xmlns:xlink="http://www.w3.org/1999/xlink">
<g id="graph0" class="graph" transform="scale(1 1) rotate(0) translate(4 472)">
<title>hat.hpp</title>
<!-- Node1 -->
<g id="node1" class="node"><title>Node1</title>
<polygon fill="#bfbfbf" stroke="black" points="390.5,-448.5 390.5,-467.5 443.5,-467.5 443.5,-448.5 390.5,-448.5"/>
<text text-anchor="middle" x="417" y="-455.5" font-family="Helvetica,sans-Serif" font-size="10.00">hat.hpp</text>
</g>
<!-- Node2 -->
<g id="node2" class="node"><title>Node2</title>
<g id="a_node2"><a xlink:href="utils_8hpp.html" target="_top" xlink:title="Small functions that are useful not only for one modul. ">
<polygon fill="none" stroke="black" points="443.5,-168.5 443.5,-187.5 502.5,-187.5 502.5,-168.5 443.5,-168.5"/>
<text text-anchor="middle" x="473" y="-175.5" font-family="Helvetica,sans-Serif" font-size="10.00">utils.hpp</text>
</a>
</g>
</g>
<!-- Node1&#45;&gt;Node2 -->
<g id="edge1" class="edge"><title>Node1&#45;&gt;Node2</title>
<path fill="none" stroke="midnightblue" d="M443.562,-449.787C484.917,-436.758 560,-405.102 560,-347 560,-347 560,-347 560,-289 560,-247.4 521.248,-212.331 495.47,-193.605"/>
<polygon fill="midnightblue" stroke="midnightblue" points="497.182,-190.531 486.978,-187.679 493.176,-196.272 497.182,-190.531"/>
</g>
<!-- Node19 -->
<g id="node19" class="node"><title>Node19</title>
<g id="a_node19"><a xlink:href="interaction__data_8hpp.html" target="_top" xlink:title="Various procedures concerning interactions between particles. ">
<polygon fill="none" stroke="black" points="414.5,-336.5 414.5,-355.5 531.5,-355.5 531.5,-336.5 414.5,-336.5"/>
<text text-anchor="middle" x="473" y="-343.5" font-family="Helvetica,sans-Serif" font-size="10.00">interaction_data.hpp</text>
</a>
</g>
</g>
<!-- Node1&#45;&gt;Node19 -->
<g id="edge21" class="edge"><title>Node1&#45;&gt;Node19</title>
<path fill="none" stroke="midnightblue" d="M421.394,-448.368C430.554,-430.376 451.847,-388.55 464.026,-364.627"/>
<polygon fill="midnightblue" stroke="midnightblue" points="467.208,-366.091 468.626,-355.591 460.97,-362.915 467.208,-366.091"/>
</g>
<!-- Node20 -->
<g id="node20" class="node"><title>Node20</title>
<g id="a_node20"><a xlink:href="particle__data_8hpp.html" target="_top" xlink:title="For more information on particle_data, see particle_data.c. ">
<polygon fill="none" stroke="black" points="297.5,-224.5 297.5,-243.5 398.5,-243.5 398.5,-224.5 297.5,-224.5"/>
<text text-anchor="middle" x="348" y="-231.5" font-family="Helvetica,sans-Serif" font-size="10.00">particle_data.hpp</text>
</a>
</g>
</g>
<!-- Node1&#45;&gt;Node20 -->
<g id="edge25" class="edge"><title>Node1&#45;&gt;Node20</title>
<path fill="none" stroke="midnightblue" d="M414.295,-448.297C404.121,-415.563 368.008,-299.375 353.802,-253.666"/>
<polygon fill="midnightblue" stroke="midnightblue" points="357.072,-252.394 350.761,-243.884 350.387,-254.472 357.072,-252.394"/>
</g>
<!-- Node21 -->
<g id="node21" class="node"><title>Node21</title>
<g id="a_node21"><a xlink:href="mol__cut_8hpp.html" target="_top" xlink:title="mol_cut.hpp">
<polygon fill="none" stroke="black" points="280.5,-392.5 280.5,-411.5 357.5,-411.5 357.5,-392.5 280.5,-392.5"/>
<text text-anchor="middle" x="319" y="-399.5" font-family="Helvetica,sans-Serif" font-size="10.00">mol_cut.hpp</text>
</a>
</g>
</g>
<!-- Node1&#45;&gt;Node21 -->
<g id="edge26" class="edge"><title>Node1&#45;&gt;Node21</title>
<path fill="none" stroke="midnightblue" d="M401.255,-448.324C385.681,-439.743 361.623,-426.486 343.541,-416.522"/>
<polygon fill="midnightblue" stroke="midnightblue" points="345.154,-413.415 334.706,-411.655 341.776,-419.546 345.154,-413.415"/>
</g>
<!-- Node3 -->
<g id="node3" class="node"><title>Node3</title>
<polygon fill="none" stroke="#bfbfbf" points="585.5,-112.5 585.5,-131.5 632.5,-131.5 632.5,-112.5 585.5,-112.5"/>
<text text-anchor="middle" x="609" y="-119.5" font-family="Helvetica,sans-Serif" font-size="10.00">cmath</text>
</g>
<!-- Node2&#45;&gt;Node3 -->
<g id="edge2" class="edge"><title>Node2&#45;&gt;Node3</title>
<path fill="none" stroke="midnightblue" d="M494.55,-168.444C517.031,-159.517 552.488,-145.439 577.98,-135.317"/>
<polygon fill="midnightblue" stroke="midnightblue" points="579.549,-138.46 587.551,-131.516 576.965,-131.954 579.549,-138.46"/>
</g>
<!-- Node4 -->
<g id="node4" class="node"><title>Node4</title>
<polygon fill="none" stroke="#bfbfbf" points="651,-112.5 651,-131.5 697,-131.5 697,-112.5 651,-112.5"/>
<text text-anchor="middle" x="674" y="-119.5" font-family="Helvetica,sans-Serif" font-size="10.00">cstdio</text>
</g>
<!-- Node2&#45;&gt;Node4 -->
<g id="edge3" class="edge"><title>Node2&#45;&gt;Node4</title>
<path fill="none" stroke="midnightblue" d="M502.646,-169.24C534.505,-160.871 586.877,-147.03 641.147,-132.207"/>
<polygon fill="midnightblue" stroke="midnightblue" points="642.217,-135.543 650.939,-129.527 640.369,-128.791 642.217,-135.543"/>
</g>
<!-- Node5 -->
<g id="node5" class="node"><title>Node5</title>
<polygon fill="none" stroke="#bfbfbf" points="141.5,-112.5 141.5,-131.5 190.5,-131.5 190.5,-112.5 141.5,-112.5"/>
<text text-anchor="middle" x="166" y="-119.5" font-family="Helvetica,sans-Serif" font-size="10.00">cstdlib</text>
</g>
<!-- Node2&#45;&gt;Node5 -->
<g id="edge4" class="edge"><title>Node2&#45;&gt;Node5</title>
<path fill="none" stroke="midnightblue" d="M443.335,-173.056C394.736,-166.392 294.959,-151.858 200.791,-131.991"/>
<polygon fill="midnightblue" stroke="midnightblue" points="201.327,-128.526 190.817,-129.862 199.865,-135.372 201.327,-128.526"/>
</g>
<!-- Node6 -->
<g id="node6" class="node"><title>Node6</title>
<polygon fill="none" stroke="#bfbfbf" points="209,-112.5 209,-131.5 259,-131.5 259,-112.5 209,-112.5"/>
<text text-anchor="middle" x="234" y="-119.5" font-family="Helvetica,sans-Serif" font-size="10.00">cstring</text>
</g>
<!-- Node2&#45;&gt;Node6 -->
<g id="edge5" class="edge"><title>Node2&#45;&gt;Node6</title>
<path fill="none" stroke="midnightblue" d="M443.374,-170.911C405.306,-162.997 336.951,-148.484 269.207,-132.216"/>
<polygon fill="midnightblue" stroke="midnightblue" points="269.763,-128.75 259.221,-129.804 268.119,-135.554 269.763,-128.75"/>
</g>
<!-- Node7 -->
<g id="node7" class="node"><title>Node7</title>
<g id="a_node7"><a xlink:href="config_8hpp.html" target="_top" xlink:title="This file contains the defaults for Espresso. ">
<polygon fill="none" stroke="black" points="335.5,-56.5 335.5,-75.5 402.5,-75.5 402.5,-56.5 335.5,-56.5"/>
<text text-anchor="middle" x="369" y="-63.5" font-family="Helvetica,sans-Serif" font-size="10.00">config.hpp</text>
</a>
</g>
</g>
<!-- Node2&#45;&gt;Node7 -->
<g id="edge6" class="edge"><title>Node2&#45;&gt;Node7</title>
<path fill="none" stroke="midnightblue" d="M464.491,-168.445C455.573,-159.444 441.192,-144.833 429,-132 413.408,-115.588 395.879,-96.5254 383.813,-83.306"/>
<polygon fill="midnightblue" stroke="midnightblue" points="386.394,-80.942 377.072,-75.9062 381.219,-85.6558 386.394,-80.942"/>
</g>
<!-- Node11 -->
<g id="node11" class="node"><title>Node11</title>
<g id="a_node11"><a xlink:href="debug_8hpp.html" target="_top" xlink:title="This file controls debug facilities. ">
<polygon fill="none" stroke="black" points="715,-112.5 715,-131.5 783,-131.5 783,-112.5 715,-112.5"/>
<text text-anchor="middle" x="749" y="-119.5" font-family="Helvetica,sans-Serif" font-size="10.00">debug.hpp</text>
</a>
</g>
</g>
<!-- Node2&#45;&gt;Node11 -->
<g id="edge10" class="edge"><title>Node2&#45;&gt;Node11</title>
<path fill="none" stroke="midnightblue" d="M502.821,-171.394C545.347,-163.367 626.118,-147.997 704.678,-132.243"/>
<polygon fill="midnightblue" stroke="midnightblue" points="705.628,-135.622 714.742,-130.22 704.249,-128.759 705.628,-135.622"/>
</g>
<!-- Node12 -->
<g id="node12" class="node"><title>Node12</title>
<g id="a_node12"><a xlink:href="lees__edwards_8hpp.html" target="_top" xlink:title="lees_edwards.hpp">
<polygon fill="none" stroke="black" points="277,-112.5 277,-131.5 381,-131.5 381,-112.5 277,-112.5"/>
<text text-anchor="middle" x="329" y="-119.5" font-family="Helvetica,sans-Serif" font-size="10.00">lees_edwards.hpp</text>
</a>
</g>
</g>
<!-- Node2&#45;&gt;Node12 -->
<g id="edge12" class="edge"><title>Node2&#45;&gt;Node12</title>
<path fill="none" stroke="midnightblue" d="M450.183,-168.444C426.168,-159.438 388.171,-145.189 361.131,-135.049"/>
<polygon fill="midnightblue" stroke="midnightblue" points="362.303,-131.751 351.71,-131.516 359.845,-138.305 362.303,-131.751"/>
</g>
<!-- Node13 -->
<g id="node13" class="node"><title>Node13</title>
<g id="a_node13"><a xlink:href="errorhandling_8hpp.html" target="_top" xlink:title="This file contains the errorhandling code for severe errors, like a broken bond or illegal parameter ...">
<polygon fill="none" stroke="black" points="801.5,-112.5 801.5,-131.5 904.5,-131.5 904.5,-112.5 801.5,-112.5"/>
<text text-anchor="middle" x="853" y="-119.5" font-family="Helvetica,sans-Serif" font-size="10.00">errorhandling.hpp</text>
</a>
</g>
</g>
<!-- Node2&#45;&gt;Node13 -->
<g id="edge14" class="edge"><title>Node2&#45;&gt;Node13</title>
<path fill="none" stroke="midnightblue" d="M502.915,-172.844C557.764,-165.211 678.375,-148.363 791.224,-132.104"/>
<polygon fill="midnightblue" stroke="midnightblue" points="792.021,-135.525 801.419,-130.634 791.021,-128.597 792.021,-135.525"/>
</g>
<!-- Node17 -->
<g id="node17" class="node"><title>Node17</title>
<polygon fill="none" stroke="#bfbfbf" points="437.5,-112.5 437.5,-131.5 484.5,-131.5 484.5,-112.5 437.5,-112.5"/>
<text text-anchor="middle" x="461" y="-119.5" font-family="Helvetica,sans-Serif" font-size="10.00">vector</text>
</g>
<!-- Node2&#45;&gt;Node17 -->
<g id="edge19" class="edge"><title>Node2&#45;&gt;Node17</title>
<path fill="none" stroke="midnightblue" d="M471.018,-168.083C469.428,-160.927 467.141,-150.635 465.154,-141.691"/>
<polygon fill="midnightblue" stroke="midnightblue" points="468.531,-140.754 462.945,-131.751 461.697,-142.272 468.531,-140.754"/>
</g>
<!-- Node18 -->
<g id="node18" class="node"><title>Node18</title>
<polygon fill="none" stroke="#bfbfbf" points="502.5,-112.5 502.5,-131.5 567.5,-131.5 567.5,-112.5 502.5,-112.5"/>
<text text-anchor="middle" x="535" y="-119.5" font-family="Helvetica,sans-Serif" font-size="10.00">exception</text>
</g>
<!-- Node2&#45;&gt;Node18 -->
<g id="edge20" class="edge"><title>Node2&#45;&gt;Node18</title>
<path fill="none" stroke="midnightblue" d="M482.961,-168.324C492.127,-160.341 505.937,-148.313 517.028,-138.653"/>
<polygon fill="midnightblue" stroke="midnightblue" points="519.615,-141.041 524.857,-131.834 515.018,-135.762 519.615,-141.041"/>
</g>
<!-- Node8 -->
<g id="node8" class="node"><title>Node8</title>
<g id="a_node8"><a xlink:href="acconfig_8hpp.html" target="_top" xlink:title="acconfig.hpp">
<polygon fill="none" stroke="black" points="219,-0.5 219,-19.5 297,-19.5 297,-0.5 219,-0.5"/>
<text text-anchor="middle" x="258" y="-7.5" font-family="Helvetica,sans-Serif" font-size="10.00">acconfig.hpp</text>
</a>
</g>
</g>
<!-- Node7&#45;&gt;Node8 -->
<g id="edge7" class="edge"><title>Node7&#45;&gt;Node8</title>
<path fill="none" stroke="midnightblue" d="M351.166,-56.324C333.284,-47.6247 305.525,-34.1202 284.954,-24.113"/>
<polygon fill="midnightblue" stroke="midnightblue" points="286.313,-20.8819 275.79,-19.6545 283.251,-27.1765 286.313,-20.8819"/>
</g>
<!-- Node9 -->
<g id="node9" class="node"><title>Node9</title>
<g id="a_node9"><a xlink:href="myconfig-final_8hpp.html" target="_top" xlink:title="myconfig&#45;final.hpp">
<polygon fill="none" stroke="black" points="315.5,-0.5 315.5,-19.5 422.5,-19.5 422.5,-0.5 315.5,-0.5"/>
<text text-anchor="middle" x="369" y="-7.5" font-family="Helvetica,sans-Serif" font-size="10.00">myconfig&#45;final.hpp</text>
</a>
</g>
</g>
<!-- Node7&#45;&gt;Node9 -->
<g id="edge8" class="edge"><title>Node7&#45;&gt;Node9</title>
<path fill="none" stroke="midnightblue" d="M369,-56.083C369,-49.0059 369,-38.8611 369,-29.9865"/>
<polygon fill="midnightblue" stroke="midnightblue" points="372.5,-29.751 369,-19.7511 365.5,-29.7511 372.5,-29.751"/>
</g>
<!-- Node10 -->
<g id="node10" class="node"><title>Node10</title>
<g id="a_node10"><a xlink:href="config-features_8hpp.html" target="_top" xlink:title="config&#45;features.hpp">
<polygon fill="none" stroke="black" points="440.5,-0.5 440.5,-19.5 551.5,-19.5 551.5,-0.5 440.5,-0.5"/>
<text text-anchor="middle" x="496" y="-7.5" font-family="Helvetica,sans-Serif" font-size="10.00">config&#45;features.hpp</text>
</a>
</g>
</g>
<!-- Node7&#45;&gt;Node10 -->
<g id="edge9" class="edge"><title>Node7&#45;&gt;Node10</title>
<path fill="none" stroke="midnightblue" d="M389.124,-56.4435C410.024,-47.5566 442.935,-33.5632 466.716,-23.4514"/>
<polygon fill="midnightblue" stroke="midnightblue" points="468.138,-26.6504 475.971,-19.5164 465.398,-20.2085 468.138,-26.6504"/>
</g>
<!-- Node11&#45;&gt;Node7 -->
<g id="edge11" class="edge"><title>Node11&#45;&gt;Node7</title>
<path fill="none" stroke="midnightblue" d="M714.776,-113.6C711.813,-113.031 708.857,-112.489 706,-112 601.287,-94.0755 477.239,-79.1121 412.801,-71.8059"/>
<polygon fill="midnightblue" stroke="midnightblue" points="412.935,-68.299 402.606,-70.6577 412.152,-75.255 412.935,-68.299"/>
</g>
<!-- Node12&#45;&gt;Node7 -->
<g id="edge13" class="edge"><title>Node12&#45;&gt;Node7</title>
<path fill="none" stroke="midnightblue" d="M335.605,-112.083C341.255,-104.455 349.545,-93.2645 356.451,-83.9408"/>
<polygon fill="midnightblue" stroke="midnightblue" points="359.378,-85.87 362.518,-75.7511 353.753,-81.7034 359.378,-85.87"/>
</g>
<!-- Node13&#45;&gt;Node7 -->
<g id="edge15" class="edge"><title>Node13&#45;&gt;Node7</title>
<path fill="none" stroke="midnightblue" d="M801.436,-113.242C798.244,-112.809 795.08,-112.391 792,-112 653.803,-94.4616 489.608,-78.3376 412.756,-71.0655"/>
<polygon fill="midnightblue" stroke="midnightblue" points="412.788,-67.553 402.503,-70.0989 412.13,-74.5221 412.788,-67.553"/>
</g>
<!-- Node14 -->
<g id="node14" class="node"><title>Node14</title>
<polygon fill="none" stroke="#bfbfbf" points="887,-56.5 887,-75.5 931,-75.5 931,-56.5 887,-56.5"/>
<text text-anchor="middle" x="909" y="-63.5" font-family="Helvetica,sans-Serif" font-size="10.00">string</text>
</g>
<!-- Node13&#45;&gt;Node14 -->
<g id="edge16" class="edge"><title>Node13&#45;&gt;Node14</title>
<path fill="none" stroke="midnightblue" d="M861.997,-112.324C870.194,-104.42 882.506,-92.5482 892.472,-82.9377"/>
<polygon fill="midnightblue" stroke="midnightblue" points="895.07,-85.2947 899.839,-75.8339 890.211,-80.2558 895.07,-85.2947"/>
</g>
<!-- Node15 -->
<g id="node15" class="node"><title>Node15</title>
<polygon fill="none" stroke="#bfbfbf" points="763,-56.5 763,-75.5 819,-75.5 819,-56.5 763,-56.5"/>
<text text-anchor="middle" x="791" y="-63.5" font-family="Helvetica,sans-Serif" font-size="10.00">sstream</text>
</g>
<!-- Node13&#45;&gt;Node15 -->
<g id="edge17" class="edge"><title>Node13&#45;&gt;Node15</title>
<path fill="none" stroke="midnightblue" d="M843.039,-112.324C833.873,-104.341 820.063,-92.3128 808.972,-82.6529"/>
<polygon fill="midnightblue" stroke="midnightblue" points="810.982,-79.7624 801.143,-75.8339 806.385,-85.041 810.982,-79.7624"/>
</g>
<!-- Node16 -->
<g id="node16" class="node"><title>Node16</title>
<polygon fill="none" stroke="#bfbfbf" points="837,-56.5 837,-75.5 869,-75.5 869,-56.5 837,-56.5"/>
<text text-anchor="middle" x="853" y="-63.5" font-family="Helvetica,sans-Serif" font-size="10.00">list</text>
</g>
<!-- Node13&#45;&gt;Node16 -->
<g id="edge18" class="edge"><title>Node13&#45;&gt;Node16</title>
<path fill="none" stroke="midnightblue" d="M853,-112.083C853,-105.006 853,-94.8611 853,-85.9865"/>
<polygon fill="midnightblue" stroke="midnightblue" points="856.5,-85.751 853,-75.7511 849.5,-85.7511 856.5,-85.751"/>
</g>
<!-- Node19&#45;&gt;Node2 -->
<g id="edge22" class="edge"><title>Node19&#45;&gt;Node2</title>
<path fill="none" stroke="midnightblue" d="M473,-336.075C473,-309.945 473,-233.211 473,-197.577"/>
<polygon fill="midnightblue" stroke="midnightblue" points="476.5,-197.568 473,-187.568 469.5,-197.568 476.5,-197.568"/>
</g>
<!-- Node19&#45;&gt;Node20 -->
<g id="edge23" class="edge"><title>Node19&#45;&gt;Node20</title>
<path fill="none" stroke="midnightblue" d="M463.121,-336.124C449.126,-323.568 422.7,-299.927 400,-280 388.644,-270.032 375.807,-258.921 365.729,-250.234"/>
<polygon fill="midnightblue" stroke="midnightblue" points="367.867,-247.457 358.005,-243.585 363.3,-252.762 367.867,-247.457"/>
</g>
<!-- Node20&#45;&gt;Node2 -->
<g id="edge24" class="edge"><title>Node20&#45;&gt;Node2</title>
<path fill="none" stroke="midnightblue" d="M367.807,-224.444C388.287,-215.596 420.483,-201.687 443.865,-191.586"/>
<polygon fill="midnightblue" stroke="midnightblue" points="445.494,-194.695 453.286,-187.516 442.718,-188.269 445.494,-194.695"/>
</g>
<!-- Node21&#45;&gt;Node19 -->
<g id="edge36" class="edge"><title>Node21&#45;&gt;Node19</title>
<path fill="none" stroke="midnightblue" d="M343.402,-392.444C369.197,-383.399 410.077,-369.064 439.018,-358.916"/>
<polygon fill="midnightblue" stroke="midnightblue" points="440.434,-362.128 448.712,-355.516 438.118,-355.523 440.434,-362.128"/>
</g>
<!-- Node21&#45;&gt;Node20 -->
<g id="edge35" class="edge"><title>Node21&#45;&gt;Node20</title>
<path fill="none" stroke="midnightblue" d="M320.559,-392.075C325.124,-365.945 338.529,-289.211 344.755,-253.577"/>
<polygon fill="midnightblue" stroke="midnightblue" points="348.23,-254.021 346.503,-243.568 341.334,-252.817 348.23,-254.021"/>
</g>
<!-- Node22 -->
<g id="node22" class="node"><title>Node22</title>
<g id="a_node22"><a xlink:href="virtual__sites_8hpp.html" target="_top" xlink:title="This file contains routine to handle virtual sites Virtual sites are like particles, but they will be not integrated. ">
<polygon fill="none" stroke="black" points="193,-336.5 193,-355.5 291,-355.5 291,-336.5 193,-336.5"/>
<text text-anchor="middle" x="242" y="-343.5" font-family="Helvetica,sans-Serif" font-size="10.00">virtual_sites.hpp</text>
</a>
</g>
</g>
<!-- Node21&#45;&gt;Node22 -->
<g id="edge27" class="edge"><title>Node21&#45;&gt;Node22</title>
<path fill="none" stroke="midnightblue" d="M306.629,-392.324C294.842,-384.058 276.868,-371.453 262.864,-361.632"/>
<polygon fill="midnightblue" stroke="midnightblue" points="264.538,-358.531 254.341,-355.655 260.518,-364.262 264.538,-358.531"/>
</g>
<!-- Node22&#45;&gt;Node20 -->
<g id="edge28" class="edge"><title>Node22&#45;&gt;Node20</title>
<path fill="none" stroke="midnightblue" d="M252.055,-336.337C262.172,-327.49 278.083,-313.216 291,-300 306.49,-284.15 323.074,-264.96 334.337,-251.556"/>
<polygon fill="midnightblue" stroke="midnightblue" points="337.19,-253.599 340.904,-243.676 331.813,-249.117 337.19,-253.599"/>
</g>
<!-- Node23 -->
<g id="node23" class="node"><title>Node23</title>
<g id="a_node23"><a xlink:href="virtual__sites__com_8hpp.html" target="_top" xlink:title="virtual_sites_com.hpp">
<polygon fill="none" stroke="black" points="0,-280.5 0,-299.5 124,-299.5 124,-280.5 0,-280.5"/>
<text text-anchor="middle" x="62" y="-287.5" font-family="Helvetica,sans-Serif" font-size="10.00">virtual_sites_com.hpp</text>
</a>
</g>
</g>
<!-- Node22&#45;&gt;Node23 -->
<g id="edge29" class="edge"><title>Node22&#45;&gt;Node23</title>
<path fill="none" stroke="midnightblue" d="M213.478,-336.444C182.934,-327.28 134.292,-312.688 100.397,-302.519"/>
<polygon fill="midnightblue" stroke="midnightblue" points="100.972,-299.038 90.3881,-299.516 98.9606,-305.742 100.972,-299.038"/>
</g>
<!-- Node24 -->
<g id="node24" class="node"><title>Node24</title>
<g id="a_node24"><a xlink:href="virtual__sites__relative_8hpp.html" target="_top" xlink:title="virtual_sites_relative.hpp">
<polygon fill="none" stroke="black" points="142,-280.5 142,-299.5 282,-299.5 282,-280.5 142,-280.5"/>
<text text-anchor="middle" x="212" y="-287.5" font-family="Helvetica,sans-Serif" font-size="10.00">virtual_sites_relative.hpp</text>
</a>
</g>
</g>
<!-- Node22&#45;&gt;Node24 -->
<g id="edge32" class="edge"><title>Node22&#45;&gt;Node24</title>
<path fill="none" stroke="midnightblue" d="M237.046,-336.083C232.896,-328.613 226.847,-317.724 221.733,-308.52"/>
<polygon fill="midnightblue" stroke="midnightblue" points="224.778,-306.793 216.862,-299.751 218.659,-310.192 224.778,-306.793"/>
</g>
<!-- Node23&#45;&gt;Node7 -->
<g id="edge30" class="edge"><title>Node23&#45;&gt;Node7</title>
<path fill="none" stroke="midnightblue" d="M61.8434,-280.354C61.8268,-251.495 65.9438,-157.739 118,-112 148.165,-85.4961 261.61,-73.9584 325.165,-69.4848"/>
<polygon fill="midnightblue" stroke="midnightblue" points="325.551,-72.9668 335.293,-68.802 325.08,-65.9827 325.551,-72.9668"/>
</g>
<!-- Node23&#45;&gt;Node20 -->
<g id="edge31" class="edge"><title>Node23&#45;&gt;Node20</title>
<path fill="none" stroke="midnightblue" d="M107.318,-280.444C157.628,-270.944 238.838,-255.611 292.813,-245.42"/>
<polygon fill="midnightblue" stroke="midnightblue" points="293.717,-248.811 302.894,-243.516 292.419,-241.933 293.717,-248.811"/>
</g>
<!-- Node24&#45;&gt;Node7 -->
<g id="edge33" class="edge"><title>Node24&#45;&gt;Node7</title>
<path fill="none" stroke="midnightblue" d="M202.11,-280.379C171.993,-253.119 86.1913,-167.325 132,-112 156.05,-82.9542 263.54,-72.5051 325.179,-68.862"/>
<polygon fill="midnightblue" stroke="midnightblue" points="325.6,-72.3441 335.391,-68.2958 325.212,-65.3549 325.6,-72.3441"/>
</g>
<!-- Node24&#45;&gt;Node20 -->
<g id="edge34" class="edge"><title>Node24&#45;&gt;Node20</title>
<path fill="none" stroke="midnightblue" d="M233.55,-280.444C256.031,-271.517 291.488,-257.439 316.98,-247.317"/>
<polygon fill="midnightblue" stroke="midnightblue" points="318.549,-250.46 326.551,-243.516 315.965,-243.954 318.549,-250.46"/>
</g>
</g>
</svg>
