<?xml version="1.0" encoding="UTF-8" standalone="no"?>
<!DOCTYPE svg PUBLIC "-//W3C//DTD SVG 1.1//EN"
 "http://www.w3.org/Graphics/SVG/1.1/DTD/svg11.dtd">
<!-- Generated by graphviz version 2.38.0 (20140413.2041)
 -->
<!-- Title: ibm_volume_conservation_tcl.cpp Pages: 1 -->
<!--zoomable 453 -->
<svg id="main" version="1.1" xmlns="http://www.w3.org/2000/svg" xmlns:xlink="http://www.w3.org/1999/xlink" xml:space="preserve" onload="init(evt)">
<style type="text/css"><![CDATA[
.edge:hover path { stroke: red; }
.edge:hover polygon { stroke: red; fill: red; }
]]></style>
<script type="text/javascript"><![CDATA[
var edges = document.getElementsByTagName('g');
if (edges && edges.length) {
  for (var i=0;i<edges.length;i++) {
    if (edges[i].id.substr(0,4)=='edge') {
      edges[i].setAttribute('class','edge');
    }
  }
}
]]></script>
        <defs>
                <circle id="rim" cx="0" cy="0" r="7"/>
                <circle id="rim2" cx="0" cy="0" r="3.5"/>
                <g id="zoomPlus">
                        <use xlink:href="#rim" fill="#404040">
                                <set attributeName="fill" to="#808080" begin="zoomplus.mouseover" end="zoomplus.mouseout"/>
                        </use>
                        <path d="M-4,0h8M0,-4v8" fill="none" stroke="white" stroke-width="1.5" pointer-events="none"/>
                </g>
                <g id="zoomMin">
                        <use xlink:href="#rim" fill="#404040">
                                <set attributeName="fill" to="#808080" begin="zoomminus.mouseover" end="zoomminus.mouseout"/>
                        </use>
                        <path d="M-4,0h8" fill="none" stroke="white" stroke-width="1.5" pointer-events="none"/>
                </g>
                <g id="dirArrow">
                        <path fill="none" stroke="white" stroke-width="1.5" d="M0,-3.0v7 M-2.5,-0.5L0,-3.0L2.5,-0.5"/>
                </g>
               <g id="resetDef">
                       <use xlink:href="#rim2" fill="#404040">
                               <set attributeName="fill" to="#808080" begin="reset.mouseover" end="reset.mouseout"/>
                       </use>
               </g>
        </defs>

<script type="text/javascript">
var viewWidth = 799;
var viewHeight = 453;
var sectionId = 'dynsection-0';
</script>
<script xlink:href="svgpan.js"/>
<svg id="graph" class="graph">
<g id="viewport">
<title>ibm_volume_conservation_tcl.cpp</title>
<!-- Node1 -->
<g id="node1" class="node"><title>Node1</title>
<polygon fill="#bfbfbf" stroke="black" points="83.894,-414.5 83.894,-444.5 229.894,-444.5 229.894,-414.5 83.894,-414.5"/>
<text text-anchor="start" x="91.894" y="-432.5" font-family="Helvetica,sans-Serif" font-size="10.00">ibm_volume_conservation</text>
<text text-anchor="middle" x="156.894" y="-421.5" font-family="Helvetica,sans-Serif" font-size="10.00">_tcl.cpp</text>
</g>
<!-- Node2 -->
<g id="node2" class="node"><title>Node2</title>
<g id="a_node2"><a xlink:href="config_8hpp.html" target="_top" xlink:title="This file contains the defaults for Espresso. ">
<polygon fill="none" stroke="black" points="267.394,-56.5 267.394,-75.5 334.394,-75.5 334.394,-56.5 267.394,-56.5"/>
<text text-anchor="middle" x="300.894" y="-63.5" font-family="Helvetica,sans-Serif" font-size="10.00">config.hpp</text>
</a>
</g>
</g>
<!-- Node1&#45;&gt;Node2 -->
<g id="edge1" class="edge"><title>Node1&#45;&gt;Node2</title>
<path fill="none" stroke="midnightblue" d="M118.732,-414.379C72.5485,-394.529 0.893988,-353.637 0.893988,-291 0.893988,-291 0.893988,-291 0.893988,-177 0.893988,-146.902 -2.68197,-131.905 19.894,-112 54.3504,-81.6204 187.014,-71.6318 257.033,-68.4401"/>
<polygon fill="midnightblue" stroke="midnightblue" points="257.458,-71.9252 267.299,-68.0005 257.159,-64.9316 257.458,-71.9252"/>
</g>
<!-- Node6 -->
<g id="node6" class="node"><title>Node6</title>
<g id="a_node6"><a xlink:href="parser_8hpp.html" target="_top" xlink:title="This file contains macros for parsing the parameters to the &#39;inter&#39; command. ">
<polygon fill="none" stroke="black" points="44.894,-224.5 44.894,-243.5 112.894,-243.5 112.894,-224.5 44.894,-224.5"/>
<text text-anchor="middle" x="78.894" y="-231.5" font-family="Helvetica,sans-Serif" font-size="10.00">parser.hpp</text>
</a>
</g>
</g>
<!-- Node1&#45;&gt;Node6 -->
<g id="edge5" class="edge"><title>Node1&#45;&gt;Node6</title>
<path fill="none" stroke="midnightblue" d="M119.58,-414.359C103.741,-406.277 86.8853,-394.419 77.894,-378 56.1025,-338.207 65.9317,-282.358 73.3417,-253.653"/>
<polygon fill="midnightblue" stroke="midnightblue" points="76.7862,-254.329 76.0851,-243.757 70.0406,-252.459 76.7862,-254.329"/>
</g>
<!-- Node21 -->
<g id="node21" class="node"><title>Node21</title>
<g id="a_node21"><a xlink:href="interaction__data_8hpp.html" target="_top" xlink:title="Various procedures concerning interactions between particles. ">
<polygon fill="none" stroke="black" points="187.394,-280.5 187.394,-299.5 304.394,-299.5 304.394,-280.5 187.394,-280.5"/>
<text text-anchor="middle" x="245.894" y="-287.5" font-family="Helvetica,sans-Serif" font-size="10.00">interaction_data.hpp</text>
</a>
</g>
</g>
<!-- Node1&#45;&gt;Node21 -->
<g id="edge25" class="edge"><title>Node1&#45;&gt;Node21</title>
<path fill="none" stroke="midnightblue" d="M192.551,-414.291C208.438,-406.091 225.806,-394.154 235.894,-378 248.765,-357.389 249.463,-328.603 248.17,-309.883"/>
<polygon fill="midnightblue" stroke="midnightblue" points="251.632,-309.314 247.199,-299.692 244.663,-309.978 251.632,-309.314"/>
</g>
<!-- Node23 -->
<g id="node23" class="node"><title>Node23</title>
<g id="a_node23"><a xlink:href="ibm__volume__conservation__tcl_8hpp.html" target="_top" xlink:title="immersed_boundary/ibm\l_volume_conservation\l_tcl.hpp">
<polygon fill="none" stroke="black" points="87.394,-336.5 87.394,-377.5 226.394,-377.5 226.394,-336.5 87.394,-336.5"/>
<text text-anchor="start" x="95.394" y="-365.5" font-family="Helvetica,sans-Serif" font-size="10.00">immersed_boundary/ibm</text>
<text text-anchor="start" x="95.394" y="-354.5" font-family="Helvetica,sans-Serif" font-size="10.00">_volume_conservation</text>
<text text-anchor="middle" x="156.894" y="-343.5" font-family="Helvetica,sans-Serif" font-size="10.00">_tcl.hpp</text>
</a>
</g>
</g>
<!-- Node1&#45;&gt;Node23 -->
<g id="edge29" class="edge"><title>Node1&#45;&gt;Node23</title>
<path fill="none" stroke="midnightblue" d="M156.894,-414.233C156.894,-406.574 156.894,-396.837 156.894,-387.626"/>
<polygon fill="midnightblue" stroke="midnightblue" points="160.394,-387.588 156.894,-377.588 153.394,-387.588 160.394,-387.588"/>
</g>
<!-- Node24 -->
<g id="node24" class="node"><title>Node24</title>
<g id="a_node24"><a xlink:href="ibm__volume__conservation_8hpp.html" target="_top" xlink:title="immersed_boundary/ibm\l_volume_conservation.hpp">
<polygon fill="none" stroke="black" points="282.894,-342 282.894,-372 430.894,-372 430.894,-342 282.894,-342"/>
<text text-anchor="start" x="290.894" y="-360" font-family="Helvetica,sans-Serif" font-size="10.00">immersed_boundary/ibm</text>
<text text-anchor="middle" x="356.894" y="-349" font-family="Helvetica,sans-Serif" font-size="10.00">_volume_conservation.hpp</text>
</a>
</g>
</g>
<!-- Node1&#45;&gt;Node24 -->
<g id="edge31" class="edge"><title>Node1&#45;&gt;Node24</title>
<path fill="none" stroke="midnightblue" d="M196.886,-414.403C228.635,-403.211 273.188,-387.506 307.222,-375.509"/>
<polygon fill="midnightblue" stroke="midnightblue" points="308.703,-378.698 316.971,-372.073 306.376,-372.096 308.703,-378.698"/>
</g>
<!-- Node3 -->
<g id="node3" class="node"><title>Node3</title>
<g id="a_node3"><a xlink:href="acconfig_8hpp.html" target="_top" xlink:title="acconfig.hpp">
<polygon fill="none" stroke="black" points="150.894,-0.5 150.894,-19.5 228.894,-19.5 228.894,-0.5 150.894,-0.5"/>
<text text-anchor="middle" x="189.894" y="-7.5" font-family="Helvetica,sans-Serif" font-size="10.00">acconfig.hpp</text>
</a>
</g>
</g>
<!-- Node2&#45;&gt;Node3 -->
<g id="edge2" class="edge"><title>Node2&#45;&gt;Node3</title>
<path fill="none" stroke="midnightblue" d="M283.06,-56.324C265.178,-47.6247 237.419,-34.1202 216.848,-24.113"/>
<polygon fill="midnightblue" stroke="midnightblue" points="218.207,-20.8819 207.684,-19.6545 215.145,-27.1765 218.207,-20.8819"/>
</g>
<!-- Node4 -->
<g id="node4" class="node"><title>Node4</title>
<g id="a_node4"><a xlink:href="myconfig-final_8hpp.html" target="_top" xlink:title="myconfig&#45;final.hpp">
<polygon fill="none" stroke="black" points="247.394,-0.5 247.394,-19.5 354.394,-19.5 354.394,-0.5 247.394,-0.5"/>
<text text-anchor="middle" x="300.894" y="-7.5" font-family="Helvetica,sans-Serif" font-size="10.00">myconfig&#45;final.hpp</text>
</a>
</g>
</g>
<!-- Node2&#45;&gt;Node4 -->
<g id="edge3" class="edge"><title>Node2&#45;&gt;Node4</title>
<path fill="none" stroke="midnightblue" d="M300.894,-56.083C300.894,-49.0059 300.894,-38.8611 300.894,-29.9865"/>
<polygon fill="midnightblue" stroke="midnightblue" points="304.394,-29.751 300.894,-19.7511 297.394,-29.7511 304.394,-29.751"/>
</g>
<!-- Node5 -->
<g id="node5" class="node"><title>Node5</title>
<g id="a_node5"><a xlink:href="config-features_8hpp.html" target="_top" xlink:title="config&#45;features.hpp">
<polygon fill="none" stroke="black" points="372.394,-0.5 372.394,-19.5 483.394,-19.5 483.394,-0.5 372.394,-0.5"/>
<text text-anchor="middle" x="427.894" y="-7.5" font-family="Helvetica,sans-Serif" font-size="10.00">config&#45;features.hpp</text>
</a>
</g>
</g>
<!-- Node2&#45;&gt;Node5 -->
<g id="edge4" class="edge"><title>Node2&#45;&gt;Node5</title>
<path fill="none" stroke="midnightblue" d="M321.018,-56.4435C341.918,-47.5566 374.829,-33.5632 398.61,-23.4514"/>
<polygon fill="midnightblue" stroke="midnightblue" points="400.031,-26.6504 407.865,-19.5164 397.292,-20.2085 400.031,-26.6504"/>
</g>
<!-- Node7 -->
<g id="node7" class="node"><title>Node7</title>
<g id="a_node7"><a xlink:href="utils_8hpp.html" target="_top" xlink:title="Small functions that are useful not only for one modul. ">
<polygon fill="none" stroke="black" points="271.394,-168.5 271.394,-187.5 330.394,-187.5 330.394,-168.5 271.394,-168.5"/>
<text text-anchor="middle" x="300.894" y="-175.5" font-family="Helvetica,sans-Serif" font-size="10.00">utils.hpp</text>
</a>
</g>
</g>
<!-- Node6&#45;&gt;Node7 -->
<g id="edge6" class="edge"><title>Node6&#45;&gt;Node7</title>
<path fill="none" stroke="midnightblue" d="M113.095,-224.681C153.096,-214.951 219.196,-198.873 261.361,-188.616"/>
<polygon fill="midnightblue" stroke="midnightblue" points="262.385,-191.969 271.274,-186.205 260.73,-185.168 262.385,-191.969"/>
</g>
<!-- Node11 -->
<g id="node11" class="node"><title>Node11</title>
<polygon fill="none" stroke="#bfbfbf" points="28.894,-112.5 28.894,-131.5 78.894,-131.5 78.894,-112.5 28.894,-112.5"/>
<text text-anchor="middle" x="53.894" y="-119.5" font-family="Helvetica,sans-Serif" font-size="10.00">cstring</text>
</g>
<!-- Node6&#45;&gt;Node11 -->
<g id="edge23" class="edge"><title>Node6&#45;&gt;Node11</title>
<path fill="none" stroke="midnightblue" d="M79.5901,-224.424C80.3691,-211.832 80.933,-187.7 75.894,-168 73.4427,-158.417 68.8262,-148.465 64.4527,-140.365"/>
<polygon fill="midnightblue" stroke="midnightblue" points="67.4102,-138.486 59.4003,-131.551 61.3373,-141.968 67.4102,-138.486"/>
</g>
<!-- Node20 -->
<g id="node20" class="node"><title>Node20</title>
<polygon fill="none" stroke="#bfbfbf" points="28.894,-168.5 28.894,-187.5 66.894,-187.5 66.894,-168.5 28.894,-168.5"/>
<text text-anchor="middle" x="47.894" y="-175.5" font-family="Helvetica,sans-Serif" font-size="10.00">tcl.h</text>
</g>
<!-- Node6&#45;&gt;Node20 -->
<g id="edge24" class="edge"><title>Node6&#45;&gt;Node20</title>
<path fill="none" stroke="midnightblue" d="M73.775,-224.083C69.4865,-216.613 63.2358,-205.724 57.9517,-196.52"/>
<polygon fill="midnightblue" stroke="midnightblue" points="60.9319,-194.681 52.9178,-187.751 54.8611,-198.166 60.9319,-194.681"/>
</g>
<!-- Node7&#45;&gt;Node2 -->
<g id="edge11" class="edge"><title>Node7&#45;&gt;Node2</title>
<path fill="none" stroke="midnightblue" d="M288.397,-168.302C278.02,-160.251 264.007,-147.245 257.894,-132 250.485,-113.523 265.795,-94.8151 280.157,-82.2443"/>
<polygon fill="midnightblue" stroke="midnightblue" points="282.776,-84.6258 288.324,-75.6002 278.358,-79.1955 282.776,-84.6258"/>
</g>
<!-- Node8 -->
<g id="node8" class="node"><title>Node8</title>
<polygon fill="none" stroke="#bfbfbf" points="744.394,-112.5 744.394,-131.5 791.394,-131.5 791.394,-112.5 744.394,-112.5"/>
<text text-anchor="middle" x="767.894" y="-119.5" font-family="Helvetica,sans-Serif" font-size="10.00">cmath</text>
</g>
<!-- Node7&#45;&gt;Node8 -->
<g id="edge7" class="edge"><title>Node7&#45;&gt;Node8</title>
<path fill="none" stroke="midnightblue" d="M330.423,-175.69C399.529,-172.254 577.207,-161.279 733.944,-132.09"/>
<polygon fill="midnightblue" stroke="midnightblue" points="735.062,-135.44 744.236,-130.141 733.759,-128.563 735.062,-135.44"/>
</g>
<!-- Node9 -->
<g id="node9" class="node"><title>Node9</title>
<polygon fill="none" stroke="#bfbfbf" points="96.894,-112.5 96.894,-131.5 142.894,-131.5 142.894,-112.5 96.894,-112.5"/>
<text text-anchor="middle" x="119.894" y="-119.5" font-family="Helvetica,sans-Serif" font-size="10.00">cstdio</text>
</g>
<!-- Node7&#45;&gt;Node9 -->
<g id="edge8" class="edge"><title>Node7&#45;&gt;Node9</title>
<path fill="none" stroke="midnightblue" d="M272.214,-168.444C239.783,-158.768 187.064,-143.04 152.935,-132.858"/>
<polygon fill="midnightblue" stroke="midnightblue" points="153.567,-129.394 142.984,-129.889 151.566,-136.102 153.567,-129.394"/>
</g>
<!-- Node10 -->
<g id="node10" class="node"><title>Node10</title>
<polygon fill="none" stroke="#bfbfbf" points="161.394,-112.5 161.394,-131.5 210.394,-131.5 210.394,-112.5 161.394,-112.5"/>
<text text-anchor="middle" x="185.894" y="-119.5" font-family="Helvetica,sans-Serif" font-size="10.00">cstdlib</text>
</g>
<!-- Node7&#45;&gt;Node10 -->
<g id="edge9" class="edge"><title>Node7&#45;&gt;Node10</title>
<path fill="none" stroke="midnightblue" d="M282.672,-168.444C263.998,-159.675 234.738,-145.935 213.277,-135.858"/>
<polygon fill="midnightblue" stroke="midnightblue" points="214.57,-132.599 204.031,-131.516 211.595,-138.935 214.57,-132.599"/>
</g>
<!-- Node7&#45;&gt;Node11 -->
<g id="edge10" class="edge"><title>Node7&#45;&gt;Node11</title>
<path fill="none" stroke="midnightblue" d="M271.154,-171.211C231.739,-163.431 159.814,-148.864 89.0789,-132.192"/>
<polygon fill="midnightblue" stroke="midnightblue" points="89.6472,-128.73 79.1092,-129.826 88.0308,-135.541 89.6472,-128.73"/>
</g>
<!-- Node12 -->
<g id="node12" class="node"><title>Node12</title>
<g id="a_node12"><a xlink:href="debug_8hpp.html" target="_top" xlink:title="This file controls debug facilities. ">
<polygon fill="none" stroke="black" points="266.894,-112.5 266.894,-131.5 334.894,-131.5 334.894,-112.5 266.894,-112.5"/>
<text text-anchor="middle" x="300.894" y="-119.5" font-family="Helvetica,sans-Serif" font-size="10.00">debug.hpp</text>
</a>
</g>
</g>
<!-- Node7&#45;&gt;Node12 -->
<g id="edge12" class="edge"><title>Node7&#45;&gt;Node12</title>
<path fill="none" stroke="midnightblue" d="M300.894,-168.083C300.894,-161.006 300.894,-150.861 300.894,-141.986"/>
<polygon fill="midnightblue" stroke="midnightblue" points="304.394,-141.751 300.894,-131.751 297.394,-141.751 304.394,-141.751"/>
</g>
<!-- Node13 -->
<g id="node13" class="node"><title>Node13</title>
<g id="a_node13"><a xlink:href="lees__edwards_8hpp.html" target="_top" xlink:title="lees_edwards.hpp">
<polygon fill="none" stroke="black" points="352.894,-112.5 352.894,-131.5 456.894,-131.5 456.894,-112.5 352.894,-112.5"/>
<text text-anchor="middle" x="404.894" y="-119.5" font-family="Helvetica,sans-Serif" font-size="10.00">lees_edwards.hpp</text>
</a>
</g>
</g>
<!-- Node7&#45;&gt;Node13 -->
<g id="edge14" class="edge"><title>Node7&#45;&gt;Node13</title>
<path fill="none" stroke="midnightblue" d="M317.603,-168.324C334.206,-159.703 359.896,-146.364 379.114,-136.386"/>
<polygon fill="midnightblue" stroke="midnightblue" points="380.964,-139.369 388.226,-131.655 377.738,-133.156 380.964,-139.369"/>
</g>
<!-- Node14 -->
<g id="node14" class="node"><title>Node14</title>
<g id="a_node14"><a xlink:href="errorhandling_8hpp.html" target="_top" xlink:title="This file contains the errorhandling code for severe errors, like a broken bond or illegal parameter ...">
<polygon fill="none" stroke="black" points="623.394,-112.5 623.394,-131.5 726.394,-131.5 726.394,-112.5 623.394,-112.5"/>
<text text-anchor="middle" x="674.894" y="-119.5" font-family="Helvetica,sans-Serif" font-size="10.00">errorhandling.hpp</text>
</a>
</g>
</g>
<!-- Node7&#45;&gt;Node14 -->
<g id="edge16" class="edge"><title>Node7&#45;&gt;Node14</title>
<path fill="none" stroke="midnightblue" d="M330.777,-172.784C384.972,-165.123 503.346,-148.325 613.26,-132.233"/>
<polygon fill="midnightblue" stroke="midnightblue" points="613.8,-135.691 623.187,-130.778 612.785,-128.765 613.8,-135.691"/>
</g>
<!-- Node18 -->
<g id="node18" class="node"><title>Node18</title>
<polygon fill="none" stroke="#bfbfbf" points="475.394,-112.5 475.394,-131.5 522.394,-131.5 522.394,-112.5 475.394,-112.5"/>
<text text-anchor="middle" x="498.894" y="-119.5" font-family="Helvetica,sans-Serif" font-size="10.00">vector</text>
</g>
<!-- Node7&#45;&gt;Node18 -->
<g id="edge21" class="edge"><title>Node7&#45;&gt;Node18</title>
<path fill="none" stroke="midnightblue" d="M330.537,-168.916C366.628,-159.073 427.434,-142.489 465.248,-132.176"/>
<polygon fill="midnightblue" stroke="midnightblue" points="466.537,-135.452 475.264,-129.445 464.695,-128.699 466.537,-135.452"/>
</g>
<!-- Node19 -->
<g id="node19" class="node"><title>Node19</title>
<polygon fill="none" stroke="#bfbfbf" points="540.394,-112.5 540.394,-131.5 605.394,-131.5 605.394,-112.5 540.394,-112.5"/>
<text text-anchor="middle" x="572.894" y="-119.5" font-family="Helvetica,sans-Serif" font-size="10.00">exception</text>
</g>
<!-- Node7&#45;&gt;Node19 -->
<g id="edge22" class="edge"><title>Node7&#45;&gt;Node19</title>
<path fill="none" stroke="midnightblue" d="M330.475,-171.47C372.656,-163.533 452.757,-148.276 530.303,-132.296"/>
<polygon fill="midnightblue" stroke="midnightblue" points="531.151,-135.695 540.235,-130.242 529.734,-128.84 531.151,-135.695"/>
</g>
<!-- Node12&#45;&gt;Node2 -->
<g id="edge13" class="edge"><title>Node12&#45;&gt;Node2</title>
<path fill="none" stroke="midnightblue" d="M300.894,-112.083C300.894,-105.006 300.894,-94.8611 300.894,-85.9865"/>
<polygon fill="midnightblue" stroke="midnightblue" points="304.394,-85.751 300.894,-75.7511 297.394,-85.7511 304.394,-85.751"/>
</g>
<!-- Node13&#45;&gt;Node2 -->
<g id="edge15" class="edge"><title>Node13&#45;&gt;Node2</title>
<path fill="none" stroke="midnightblue" d="M388.185,-112.324C371.582,-103.703 345.892,-90.3643 326.673,-80.3855"/>
<polygon fill="midnightblue" stroke="midnightblue" points="328.05,-77.1565 317.562,-75.6545 324.824,-83.3689 328.05,-77.1565"/>
</g>
<!-- Node14&#45;&gt;Node2 -->
<g id="edge17" class="edge"><title>Node14&#45;&gt;Node2</title>
<path fill="none" stroke="midnightblue" d="M623.187,-113.222C620.382,-112.807 617.604,-112.397 614.894,-112 518.574,-97.8742 405.554,-81.7998 344.826,-73.2034"/>
<polygon fill="midnightblue" stroke="midnightblue" points="345.216,-69.7239 334.824,-71.7884 344.235,-76.6549 345.216,-69.7239"/>
</g>
<!-- Node15 -->
<g id="node15" class="node"><title>Node15</title>
<polygon fill="none" stroke="#bfbfbf" points="708.894,-56.5 708.894,-75.5 752.894,-75.5 752.894,-56.5 708.894,-56.5"/>
<text text-anchor="middle" x="730.894" y="-63.5" font-family="Helvetica,sans-Serif" font-size="10.00">string</text>
</g>
<!-- Node14&#45;&gt;Node15 -->
<g id="edge18" class="edge"><title>Node14&#45;&gt;Node15</title>
<path fill="none" stroke="midnightblue" d="M683.891,-112.324C692.088,-104.42 704.4,-92.5482 714.366,-82.9377"/>
<polygon fill="midnightblue" stroke="midnightblue" points="716.964,-85.2947 721.733,-75.8339 712.105,-80.2558 716.964,-85.2947"/>
</g>
<!-- Node16 -->
<g id="node16" class="node"><title>Node16</title>
<polygon fill="none" stroke="#bfbfbf" points="584.894,-56.5 584.894,-75.5 640.894,-75.5 640.894,-56.5 584.894,-56.5"/>
<text text-anchor="middle" x="612.894" y="-63.5" font-family="Helvetica,sans-Serif" font-size="10.00">sstream</text>
</g>
<!-- Node14&#45;&gt;Node16 -->
<g id="edge19" class="edge"><title>Node14&#45;&gt;Node16</title>
<path fill="none" stroke="midnightblue" d="M664.933,-112.324C655.767,-104.341 641.957,-92.3128 630.866,-82.6529"/>
<polygon fill="midnightblue" stroke="midnightblue" points="632.876,-79.7624 623.037,-75.8339 628.279,-85.041 632.876,-79.7624"/>
</g>
<!-- Node17 -->
<g id="node17" class="node"><title>Node17</title>
<polygon fill="none" stroke="#bfbfbf" points="658.894,-56.5 658.894,-75.5 690.894,-75.5 690.894,-56.5 658.894,-56.5"/>
<text text-anchor="middle" x="674.894" y="-63.5" font-family="Helvetica,sans-Serif" font-size="10.00">list</text>
</g>
<!-- Node14&#45;&gt;Node17 -->
<g id="edge20" class="edge"><title>Node14&#45;&gt;Node17</title>
<path fill="none" stroke="midnightblue" d="M674.894,-112.083C674.894,-105.006 674.894,-94.8611 674.894,-85.9865"/>
<polygon fill="midnightblue" stroke="midnightblue" points="678.394,-85.751 674.894,-75.7511 671.394,-85.7511 678.394,-85.751"/>
</g>
<!-- Node21&#45;&gt;Node7 -->
<g id="edge26" class="edge"><title>Node21&#45;&gt;Node7</title>
<path fill="none" stroke="midnightblue" d="M244.438,-280.48C242.648,-267.541 240.858,-242.487 249.894,-224 255.971,-211.568 267.171,-201.088 277.531,-193.378"/>
<polygon fill="midnightblue" stroke="midnightblue" points="279.681,-196.146 285.904,-187.572 275.692,-190.394 279.681,-196.146"/>
</g>
<!-- Node22 -->
<g id="node22" class="node"><title>Node22</title>
<g id="a_node22"><a xlink:href="particle__data_8hpp.html" target="_top" xlink:title="For more information on particle_data, see particle_data.c. ">
<polygon fill="none" stroke="black" points="258.394,-224.5 258.394,-243.5 359.394,-243.5 359.394,-224.5 258.394,-224.5"/>
<text text-anchor="middle" x="308.894" y="-231.5" font-family="Helvetica,sans-Serif" font-size="10.00">particle_data.hpp</text>
</a>
</g>
</g>
<!-- Node21&#45;&gt;Node22 -->
<g id="edge27" class="edge"><title>Node21&#45;&gt;Node22</title>
<path fill="none" stroke="midnightblue" d="M256.016,-280.324C265.42,-272.263 279.638,-260.077 290.963,-250.369"/>
<polygon fill="midnightblue" stroke="midnightblue" points="293.273,-252.999 298.588,-243.834 288.717,-247.684 293.273,-252.999"/>
</g>
<!-- Node22&#45;&gt;Node7 -->
<g id="edge28" class="edge"><title>Node22&#45;&gt;Node7</title>
<path fill="none" stroke="midnightblue" d="M307.573,-224.083C306.513,-216.927 304.988,-206.635 303.663,-197.691"/>
<polygon fill="midnightblue" stroke="midnightblue" points="307.118,-197.13 302.19,-187.751 300.194,-198.156 307.118,-197.13"/>
</g>
<!-- Node23&#45;&gt;Node21 -->
<g id="edge30" class="edge"><title>Node23&#45;&gt;Node21</title>
<path fill="none" stroke="midnightblue" d="M183.597,-336.498C197.111,-326.628 213.247,-314.843 225.711,-305.741"/>
<polygon fill="midnightblue" stroke="midnightblue" points="228.035,-308.377 234.047,-299.652 223.907,-302.724 228.035,-308.377"/>
</g>
</g>
</svg>
        <g id="navigator" transform="translate(0 0)" fill="#404254">
                <rect fill="#f2f5e9" fill-opacity="0.5" stroke="#606060" stroke-width=".5" x="0" y="0" width="60" height="60"/>
                <use id="zoomplus" xlink:href="#zoomPlus" x="17" y="9" onmousedown="handleZoom(evt,'in')"/>
                <use id="zoomminus" xlink:href="#zoomMin" x="42" y="9" onmousedown="handleZoom(evt,'out')"/>
                <use id="reset" xlink:href="#resetDef" x="30" y="36" onmousedown="handleReset()"/>
                <g id="arrowUp" xlink:href="#dirArrow" transform="translate(30 24)" onmousedown="handlePan(0,-1)">
                  <use xlink:href="#rim" fill="#404040">
                        <set attributeName="fill" to="#808080" begin="arrowUp.mouseover" end="arrowUp.mouseout"/>
                  </use>
                  <path fill="none" stroke="white" stroke-width="1.5" d="M0,-3.0v7 M-2.5,-0.5L0,-3.0L2.5,-0.5"/>
                </g>
                <g id="arrowRight" xlink:href="#dirArrow" transform="rotate(90) translate(36 -43)" onmousedown="handlePan(1,0)">
                  <use xlink:href="#rim" fill="#404040">
                        <set attributeName="fill" to="#808080" begin="arrowRight.mouseover" end="arrowRight.mouseout"/>
                  </use>
                  <path fill="none" stroke="white" stroke-width="1.5" d="M0,-3.0v7 M-2.5,-0.5L0,-3.0L2.5,-0.5"/>
                </g>
                <g id="arrowDown" xlink:href="#dirArrow" transform="rotate(180) translate(-30 -48)" onmousedown="handlePan(0,1)">
                  <use xlink:href="#rim" fill="#404040">
                        <set attributeName="fill" to="#808080" begin="arrowDown.mouseover" end="arrowDown.mouseout"/>
                  </use>
                  <path fill="none" stroke="white" stroke-width="1.5" d="M0,-3.0v7 M-2.5,-0.5L0,-3.0L2.5,-0.5"/>
                </g>
                <g id="arrowLeft" xlink:href="#dirArrow" transform="rotate(270) translate(-36 17)" onmousedown="handlePan(-1,0)">
                  <use xlink:href="#rim" fill="#404040">
                        <set attributeName="fill" to="#808080" begin="arrowLeft.mouseover" end="arrowLeft.mouseout"/>
                  </use>
                  <path fill="none" stroke="white" stroke-width="1.5" d="M0,-3.0v7 M-2.5,-0.5L0,-3.0L2.5,-0.5"/>
                </g>
        </g>
        <svg viewBox="0 0 15 15" width="100%" height="30px" preserveAspectRatio="xMaxYMin meet">
         <g id="arrow_out" transform="scale(0.3 0.3)">
          <a xlink:href="ibm__volume__conservation__tcl_8cpp__incl_org.svg" target="_base">
           <rect id="button" ry="5" rx="5" y="6" x="6" height="38" width="38"
                fill="#f2f5e9" fill-opacity="0.5" stroke="#606060" stroke-width="1.0"/>
           <path id="arrow"
             d="M 11.500037,31.436501 C 11.940474,20.09759 22.043105,11.32322 32.158766,21.979434 L 37.068811,17.246167 C 37.068811,17.246167 37.088388,32 37.088388,32 L 22.160133,31.978069 C 22.160133,31.978069 26.997745,27.140456 26.997745,27.140456 C 18.528582,18.264221 13.291696,25.230495 11.500037,31.436501 z"
             style="fill:#404040;"/>
          </a>
         </g>
        </svg>
</svg>
