<?xml version="1.0" encoding="UTF-8" standalone="no"?>
<!DOCTYPE svg PUBLIC "-//W3C//DTD SVG 1.1//EN"
 "http://www.w3.org/Graphics/SVG/1.1/DTD/svg11.dtd">
<!-- Generated by graphviz version 2.38.0 (20140413.2041)
 -->
<!-- Title: ibm_cuda_interface.hpp Pages: 1 -->
<svg width="342pt" height="84pt"
 viewBox="0.00 0.00 342.00 84.00" xmlns="http://www.w3.org/2000/svg" xmlns:xlink="http://www.w3.org/1999/xlink">
<g id="graph0" class="graph" transform="scale(1 1) rotate(0) translate(4 80)">
<title>ibm_cuda_interface.hpp</title>
<!-- Node1 -->
<g id="node1" class="node"><title>Node1</title>
<polygon fill="#bfbfbf" stroke="black" points="96,-56.5 96,-75.5 230,-75.5 230,-56.5 96,-56.5"/>
<text text-anchor="middle" x="163" y="-63.5" font-family="Helvetica,sans-Serif" font-size="10.00">ibm_cuda_interface.hpp</text>
</g>
<!-- Node2 -->
<g id="node2" class="node"><title>Node2</title>
<g id="a_node2"><a xlink:href="ibm__cuda_8cu.html" target="_top" xlink:title="ibm_cuda.cu">
<polygon fill="none" stroke="black" points="0,-0.5 0,-19.5 78,-19.5 78,-0.5 0,-0.5"/>
<text text-anchor="middle" x="39" y="-7.5" font-family="Helvetica,sans-Serif" font-size="10.00">ibm_cuda.cu</text>
</a>
</g>
</g>
<!-- Node1&#45;&gt;Node2 -->
<g id="edge1" class="edge"><title>Node1&#45;&gt;Node2</title>
<path fill="none" stroke="midnightblue" d="M133.993,-52.3678C110.771,-42.2553 78.8375,-28.3486 58.5562,-19.5164"/>
<polygon fill="midnightblue" stroke="midnightblue" points="132.786,-55.6597 143.352,-56.4435 135.581,-49.2419 132.786,-55.6597"/>
</g>
<!-- Node3 -->
<g id="node3" class="node"><title>Node3</title>
<g id="a_node3"><a xlink:href="ibm__cuda__interface_8cpp.html" target="_top" xlink:title="ibm_cuda_interface.cpp">
<polygon fill="none" stroke="black" points="96.5,-0.5 96.5,-19.5 229.5,-19.5 229.5,-0.5 96.5,-0.5"/>
<text text-anchor="middle" x="163" y="-7.5" font-family="Helvetica,sans-Serif" font-size="10.00">ibm_cuda_interface.cpp</text>
</a>
</g>
</g>
<!-- Node1&#45;&gt;Node3 -->
<g id="edge2" class="edge"><title>Node1&#45;&gt;Node3</title>
<path fill="none" stroke="midnightblue" d="M163,-45.8045C163,-36.9102 163,-26.7798 163,-19.7511"/>
<polygon fill="midnightblue" stroke="midnightblue" points="159.5,-46.083 163,-56.083 166.5,-46.083 159.5,-46.083"/>
</g>
<!-- Node4 -->
<g id="node4" class="node"><title>Node4</title>
<g id="a_node4"><a xlink:href="ibm__main_8cpp.html" target="_top" xlink:title="Main of the Bayreuth Immersed&#45;Boundary implementation. ">
<polygon fill="none" stroke="black" points="248,-0.5 248,-19.5 334,-19.5 334,-0.5 248,-0.5"/>
<text text-anchor="middle" x="291" y="-7.5" font-family="Helvetica,sans-Serif" font-size="10.00">ibm_main.cpp</text>
</a>
</g>
</g>
<!-- Node1&#45;&gt;Node4 -->
<g id="edge3" class="edge"><title>Node1&#45;&gt;Node4</title>
<path fill="none" stroke="midnightblue" d="M192.623,-52.503C216.619,-42.3795 249.784,-28.388 270.813,-19.5164"/>
<polygon fill="midnightblue" stroke="midnightblue" points="191.135,-49.3317 183.282,-56.4435 193.856,-55.7813 191.135,-49.3317"/>
</g>
</g>
</svg>
