<?xml version="1.0" encoding="UTF-8" standalone="no"?>
<!DOCTYPE svg PUBLIC "-//W3C//DTD SVG 1.1//EN"
 "http://www.w3.org/Graphics/SVG/1.1/DTD/svg11.dtd">
<!-- Generated by graphviz version 2.38.0 (20140413.2041)
 -->
<!-- Title: ibm_cuda.cu Pages: 1 -->
<svg width="1002pt" height="487pt"
 viewBox="0.00 0.00 1001.50 487.00" xmlns="http://www.w3.org/2000/svg" xmlns:xlink="http://www.w3.org/1999/xlink">
<g id="graph0" class="graph" transform="scale(1 1) rotate(0) translate(4 483)">
<title>ibm_cuda.cu</title>
<!-- Node1 -->
<g id="node1" class="node"><title>Node1</title>
<polygon fill="#bfbfbf" stroke="black" points="506,-459.5 506,-478.5 584,-478.5 584,-459.5 506,-459.5"/>
<text text-anchor="middle" x="545" y="-466.5" font-family="Helvetica,sans-Serif" font-size="10.00">ibm_cuda.cu</text>
</g>
<!-- Node2 -->
<g id="node2" class="node"><title>Node2</title>
<g id="a_node2"><a xlink:href="config_8hpp.html" target="_top" xlink:title="This file contains the defaults for Espresso. ">
<polygon fill="none" stroke="black" points="288.5,-56.5 288.5,-75.5 355.5,-75.5 355.5,-56.5 288.5,-56.5"/>
<text text-anchor="middle" x="322" y="-63.5" font-family="Helvetica,sans-Serif" font-size="10.00">config.hpp</text>
</a>
</g>
</g>
<!-- Node1&#45;&gt;Node2 -->
<g id="edge1" class="edge"><title>Node1&#45;&gt;Node2</title>
<path fill="none" stroke="midnightblue" d="M505.805,-467.672C380.841,-465.582 0,-450.707 0,-347 0,-347 0,-347 0,-177 0,-135.512 30.0566,-130.88 67,-112 135.114,-77.1895 225.337,-68.7736 278.187,-67.0437"/>
<polygon fill="midnightblue" stroke="midnightblue" points="278.336,-70.5411 288.241,-66.7811 278.153,-63.5435 278.336,-70.5411"/>
</g>
<!-- Node6 -->
<g id="node6" class="node"><title>Node6</title>
<g id="a_node6"><a xlink:href="lbgpu_8hpp.html" target="_top" xlink:title="Header file for lbgpu.cpp. ">
<polygon fill="none" stroke="black" points="174.5,-280.5 174.5,-299.5 239.5,-299.5 239.5,-280.5 174.5,-280.5"/>
<text text-anchor="middle" x="207" y="-287.5" font-family="Helvetica,sans-Serif" font-size="10.00">lbgpu.hpp</text>
</a>
</g>
</g>
<!-- Node1&#45;&gt;Node6 -->
<g id="edge5" class="edge"><title>Node1&#45;&gt;Node6</title>
<path fill="none" stroke="midnightblue" d="M505.741,-461.118C472.433,-454.319 423.988,-442.129 385,-423 319.647,-390.936 253.662,-334.161 223.681,-306.719"/>
<polygon fill="midnightblue" stroke="midnightblue" points="225.925,-304.027 216.209,-299.801 221.169,-309.163 225.925,-304.027"/>
</g>
<!-- Node21 -->
<g id="node21" class="node"><title>Node21</title>
<g id="a_node21"><a xlink:href="lb-boundaries_8hpp.html" target="_top" xlink:title="Boundary conditions for Lattice Boltzmann fluid dynamics. ">
<polygon fill="none" stroke="black" points="394,-398 394,-417 498,-417 498,-398 394,-398"/>
<text text-anchor="middle" x="446" y="-405" font-family="Helvetica,sans-Serif" font-size="10.00">lb&#45;boundaries.hpp</text>
</a>
</g>
</g>
<!-- Node1&#45;&gt;Node21 -->
<g id="edge30" class="edge"><title>Node1&#45;&gt;Node21</title>
<path fill="none" stroke="midnightblue" d="M530.816,-459.475C514.642,-449.755 487.974,-433.727 468.857,-422.237"/>
<polygon fill="midnightblue" stroke="midnightblue" points="470.532,-419.161 460.158,-417.009 466.926,-425.16 470.532,-419.161"/>
</g>
<!-- Node23 -->
<g id="node23" class="node"><title>Node23</title>
<g id="a_node23"><a xlink:href="particle__data_8hpp.html" target="_top" xlink:title="For more information on particle_data, see particle_data.c. ">
<polygon fill="none" stroke="black" points="358.5,-224.5 358.5,-243.5 459.5,-243.5 459.5,-224.5 358.5,-224.5"/>
<text text-anchor="middle" x="409" y="-231.5" font-family="Helvetica,sans-Serif" font-size="10.00">particle_data.hpp</text>
</a>
</g>
</g>
<!-- Node1&#45;&gt;Node23 -->
<g id="edge38" class="edge"><title>Node1&#45;&gt;Node23</title>
<path fill="none" stroke="midnightblue" d="M541.039,-459.429C534.396,-445.21 520.415,-415.936 507,-392 477.785,-339.872 439.297,-280.625 420.428,-252.113"/>
<polygon fill="midnightblue" stroke="midnightblue" points="423.272,-250.069 414.823,-243.677 417.442,-253.943 423.272,-250.069"/>
</g>
<!-- Node25 -->
<g id="node25" class="node"><title>Node25</title>
<g id="a_node25"><a xlink:href="cuda__utils_8hpp.html" target="_top" xlink:title="cuda_utils.hpp">
<polygon fill="none" stroke="black" points="592.5,-398 592.5,-417 679.5,-417 679.5,-398 592.5,-398"/>
<text text-anchor="middle" x="636" y="-405" font-family="Helvetica,sans-Serif" font-size="10.00">cuda_utils.hpp</text>
</a>
</g>
</g>
<!-- Node1&#45;&gt;Node25 -->
<g id="edge39" class="edge"><title>Node1&#45;&gt;Node25</title>
<path fill="none" stroke="midnightblue" d="M558.038,-459.475C572.769,-449.843 596.973,-434.017 614.509,-422.552"/>
<polygon fill="midnightblue" stroke="midnightblue" points="616.532,-425.411 622.986,-417.009 612.701,-419.552 616.532,-425.411"/>
</g>
<!-- Node28 -->
<g id="node28" class="node"><title>Node28</title>
<g id="a_node28"><a xlink:href="cuda__interface_8hpp.html" target="_top" xlink:title="cuda_interface.hpp">
<polygon fill="none" stroke="black" points="757,-280.5 757,-299.5 867,-299.5 867,-280.5 757,-280.5"/>
<text text-anchor="middle" x="812" y="-287.5" font-family="Helvetica,sans-Serif" font-size="10.00">cuda_interface.hpp</text>
</a>
</g>
</g>
<!-- Node1&#45;&gt;Node28 -->
<g id="edge42" class="edge"><title>Node1&#45;&gt;Node28</title>
<path fill="none" stroke="midnightblue" d="M545.381,-459.315C546.917,-435.572 554.613,-369.151 593,-336 615.677,-316.416 690.656,-304.086 746.602,-297.384"/>
<polygon fill="midnightblue" stroke="midnightblue" points="747.281,-300.829 756.811,-296.198 746.473,-293.876 747.281,-300.829"/>
</g>
<!-- Node32 -->
<g id="node32" class="node"><title>Node32</title>
<g id="a_node32"><a xlink:href="ibm__main_8hpp.html" target="_top" xlink:title="Main of the Bayreuth Immersed&#45;Boundary implementation. ">
<polygon fill="none" stroke="black" points="697.5,-392.5 697.5,-422.5 836.5,-422.5 836.5,-392.5 697.5,-392.5"/>
<text text-anchor="start" x="705.5" y="-410.5" font-family="Helvetica,sans-Serif" font-size="10.00">immersed_boundary/ibm</text>
<text text-anchor="middle" x="767" y="-399.5" font-family="Helvetica,sans-Serif" font-size="10.00">_main.hpp</text>
</a>
</g>
</g>
<!-- Node1&#45;&gt;Node32 -->
<g id="edge49" class="edge"><title>Node1&#45;&gt;Node32</title>
<path fill="none" stroke="midnightblue" d="M576.807,-459.475C610.105,-450.551 663.243,-436.309 704.898,-425.144"/>
<polygon fill="midnightblue" stroke="midnightblue" points="705.926,-428.493 714.679,-422.523 704.114,-421.731 705.926,-428.493"/>
</g>
<!-- Node33 -->
<g id="node33" class="node"><title>Node33</title>
<g id="a_node33"><a xlink:href="ibm__cuda__interface_8hpp.html" target="_top" xlink:title="immersed_boundary/ibm\l_cuda_interface.hpp">
<polygon fill="none" stroke="black" points="854.5,-392.5 854.5,-422.5 993.5,-422.5 993.5,-392.5 854.5,-392.5"/>
<text text-anchor="start" x="862.5" y="-410.5" font-family="Helvetica,sans-Serif" font-size="10.00">immersed_boundary/ibm</text>
<text text-anchor="middle" x="924" y="-399.5" font-family="Helvetica,sans-Serif" font-size="10.00">_cuda_interface.hpp</text>
</a>
</g>
</g>
<!-- Node1&#45;&gt;Node33 -->
<g id="edge50" class="edge"><title>Node1&#45;&gt;Node33</title>
<path fill="none" stroke="midnightblue" d="M584.034,-462.614C639.645,-454.843 745.121,-439.739 844.387,-423.24"/>
<polygon fill="midnightblue" stroke="midnightblue" points="844.994,-426.687 854.281,-421.587 843.841,-419.783 844.994,-426.687"/>
</g>
<!-- Node3 -->
<g id="node3" class="node"><title>Node3</title>
<g id="a_node3"><a xlink:href="acconfig_8hpp.html" target="_top" xlink:title="acconfig.hpp">
<polygon fill="none" stroke="black" points="172,-0.5 172,-19.5 250,-19.5 250,-0.5 172,-0.5"/>
<text text-anchor="middle" x="211" y="-7.5" font-family="Helvetica,sans-Serif" font-size="10.00">acconfig.hpp</text>
</a>
</g>
</g>
<!-- Node2&#45;&gt;Node3 -->
<g id="edge2" class="edge"><title>Node2&#45;&gt;Node3</title>
<path fill="none" stroke="midnightblue" d="M304.166,-56.324C286.284,-47.6247 258.525,-34.1202 237.954,-24.113"/>
<polygon fill="midnightblue" stroke="midnightblue" points="239.313,-20.8819 228.79,-19.6545 236.251,-27.1765 239.313,-20.8819"/>
</g>
<!-- Node4 -->
<g id="node4" class="node"><title>Node4</title>
<g id="a_node4"><a xlink:href="myconfig-final_8hpp.html" target="_top" xlink:title="myconfig&#45;final.hpp">
<polygon fill="none" stroke="black" points="268.5,-0.5 268.5,-19.5 375.5,-19.5 375.5,-0.5 268.5,-0.5"/>
<text text-anchor="middle" x="322" y="-7.5" font-family="Helvetica,sans-Serif" font-size="10.00">myconfig&#45;final.hpp</text>
</a>
</g>
</g>
<!-- Node2&#45;&gt;Node4 -->
<g id="edge3" class="edge"><title>Node2&#45;&gt;Node4</title>
<path fill="none" stroke="midnightblue" d="M322,-56.083C322,-49.0059 322,-38.8611 322,-29.9865"/>
<polygon fill="midnightblue" stroke="midnightblue" points="325.5,-29.751 322,-19.7511 318.5,-29.7511 325.5,-29.751"/>
</g>
<!-- Node5 -->
<g id="node5" class="node"><title>Node5</title>
<g id="a_node5"><a xlink:href="config-features_8hpp.html" target="_top" xlink:title="config&#45;features.hpp">
<polygon fill="none" stroke="black" points="393.5,-0.5 393.5,-19.5 504.5,-19.5 504.5,-0.5 393.5,-0.5"/>
<text text-anchor="middle" x="449" y="-7.5" font-family="Helvetica,sans-Serif" font-size="10.00">config&#45;features.hpp</text>
</a>
</g>
</g>
<!-- Node2&#45;&gt;Node5 -->
<g id="edge4" class="edge"><title>Node2&#45;&gt;Node5</title>
<path fill="none" stroke="midnightblue" d="M342.124,-56.4435C363.024,-47.5566 395.935,-33.5632 419.716,-23.4514"/>
<polygon fill="midnightblue" stroke="midnightblue" points="421.138,-26.6504 428.971,-19.5164 418.398,-20.2085 421.138,-26.6504"/>
</g>
<!-- Node6&#45;&gt;Node2 -->
<g id="edge23" class="edge"><title>Node6&#45;&gt;Node2</title>
<path fill="none" stroke="midnightblue" d="M174.31,-280.938C153.892,-274.278 128.605,-262.791 113,-244 74.5645,-197.715 44.5955,-158.31 83,-112 107.268,-82.7362 215.659,-72.3758 277.813,-68.8045"/>
<polygon fill="midnightblue" stroke="midnightblue" points="278.313,-72.2828 288.11,-68.2505 277.937,-65.2929 278.313,-72.2828"/>
</g>
<!-- Node7 -->
<g id="node7" class="node"><title>Node7</title>
<g id="a_node7"><a xlink:href="utils_8hpp.html" target="_top" xlink:title="Small functions that are useful not only for one modul. ">
<polygon fill="none" stroke="black" points="379.5,-168.5 379.5,-187.5 438.5,-187.5 438.5,-168.5 379.5,-168.5"/>
<text text-anchor="middle" x="409" y="-175.5" font-family="Helvetica,sans-Serif" font-size="10.00">utils.hpp</text>
</a>
</g>
</g>
<!-- Node6&#45;&gt;Node7 -->
<g id="edge6" class="edge"><title>Node6&#45;&gt;Node7</title>
<path fill="none" stroke="midnightblue" d="M222.851,-280.368C257.883,-261.292 342.115,-215.422 384.199,-192.505"/>
<polygon fill="midnightblue" stroke="midnightblue" points="386.115,-195.448 393.223,-187.591 382.767,-189.3 386.115,-195.448"/>
</g>
<!-- Node20 -->
<g id="node20" class="node"><title>Node20</title>
<g id="a_node20"><a xlink:href="statistics__observable_8hpp.html" target="_top" xlink:title="statistics_observable.hpp">
<polygon fill="none" stroke="black" points="122.5,-224.5 122.5,-243.5 263.5,-243.5 263.5,-224.5 122.5,-224.5"/>
<text text-anchor="middle" x="193" y="-231.5" font-family="Helvetica,sans-Serif" font-size="10.00">statistics_observable.hpp</text>
</a>
</g>
</g>
<!-- Node6&#45;&gt;Node20 -->
<g id="edge24" class="edge"><title>Node6&#45;&gt;Node20</title>
<path fill="none" stroke="midnightblue" d="M204.688,-280.083C202.833,-272.927 200.165,-262.635 197.846,-253.691"/>
<polygon fill="midnightblue" stroke="midnightblue" points="201.166,-252.553 195.269,-243.751 194.391,-254.309 201.166,-252.553"/>
</g>
<!-- Node7&#45;&gt;Node2 -->
<g id="edge11" class="edge"><title>Node7&#45;&gt;Node2</title>
<path fill="none" stroke="midnightblue" d="M417.374,-168.435C429.036,-155.437 447.415,-130.308 435,-112 419.531,-89.1897 390.463,-77.9415 365.684,-72.3949"/>
<polygon fill="midnightblue" stroke="midnightblue" points="366.224,-68.9338 355.732,-70.4117 364.855,-75.7988 366.224,-68.9338"/>
</g>
<!-- Node8 -->
<g id="node8" class="node"><title>Node8</title>
<polygon fill="none" stroke="#bfbfbf" points="820.5,-112.5 820.5,-131.5 867.5,-131.5 867.5,-112.5 820.5,-112.5"/>
<text text-anchor="middle" x="844" y="-119.5" font-family="Helvetica,sans-Serif" font-size="10.00">cmath</text>
</g>
<!-- Node7&#45;&gt;Node8 -->
<g id="edge7" class="edge"><title>Node7&#45;&gt;Node8</title>
<path fill="none" stroke="midnightblue" d="M438.577,-175.353C504.064,-171.354 666.299,-159.511 810.433,-132.037"/>
<polygon fill="midnightblue" stroke="midnightblue" points="811.186,-135.457 820.338,-130.119 809.855,-128.584 811.186,-135.457"/>
</g>
<!-- Node9 -->
<g id="node9" class="node"><title>Node9</title>
<polygon fill="none" stroke="#bfbfbf" points="104,-112.5 104,-131.5 150,-131.5 150,-112.5 104,-112.5"/>
<text text-anchor="middle" x="127" y="-119.5" font-family="Helvetica,sans-Serif" font-size="10.00">cstdio</text>
</g>
<!-- Node7&#45;&gt;Node9 -->
<g id="edge8" class="edge"><title>Node7&#45;&gt;Node9</title>
<path fill="none" stroke="midnightblue" d="M379.18,-172.582C333.865,-165.664 244.794,-151.265 159.809,-132.004"/>
<polygon fill="midnightblue" stroke="midnightblue" points="160.533,-128.579 150.004,-129.755 158.969,-135.402 160.533,-128.579"/>
</g>
<!-- Node10 -->
<g id="node10" class="node"><title>Node10</title>
<polygon fill="none" stroke="#bfbfbf" points="168.5,-112.5 168.5,-131.5 217.5,-131.5 217.5,-112.5 168.5,-112.5"/>
<text text-anchor="middle" x="193" y="-119.5" font-family="Helvetica,sans-Serif" font-size="10.00">cstdlib</text>
</g>
<!-- Node7&#45;&gt;Node10 -->
<g id="edge9" class="edge"><title>Node7&#45;&gt;Node10</title>
<path fill="none" stroke="midnightblue" d="M379.33,-169.822C345.175,-161.525 287.14,-147.321 227.477,-132.089"/>
<polygon fill="midnightblue" stroke="midnightblue" points="228.057,-128.625 217.502,-129.537 226.322,-135.407 228.057,-128.625"/>
</g>
<!-- Node11 -->
<g id="node11" class="node"><title>Node11</title>
<polygon fill="none" stroke="#bfbfbf" points="604,-112.5 604,-131.5 654,-131.5 654,-112.5 604,-112.5"/>
<text text-anchor="middle" x="629" y="-119.5" font-family="Helvetica,sans-Serif" font-size="10.00">cstring</text>
</g>
<!-- Node7&#45;&gt;Node11 -->
<g id="edge10" class="edge"><title>Node7&#45;&gt;Node11</title>
<path fill="none" stroke="midnightblue" d="M438.507,-169.948C475.044,-161.188 539.167,-145.718 594,-132 594.099,-131.975 594.198,-131.95 594.297,-131.926"/>
<polygon fill="midnightblue" stroke="midnightblue" points="594.939,-135.374 603.775,-129.528 593.222,-128.587 594.939,-135.374"/>
</g>
<!-- Node12 -->
<g id="node12" class="node"><title>Node12</title>
<g id="a_node12"><a xlink:href="debug_8hpp.html" target="_top" xlink:title="This file controls debug facilities. ">
<polygon fill="none" stroke="black" points="236,-112.5 236,-131.5 304,-131.5 304,-112.5 236,-112.5"/>
<text text-anchor="middle" x="270" y="-119.5" font-family="Helvetica,sans-Serif" font-size="10.00">debug.hpp</text>
</a>
</g>
</g>
<!-- Node7&#45;&gt;Node12 -->
<g id="edge12" class="edge"><title>Node7&#45;&gt;Node12</title>
<path fill="none" stroke="midnightblue" d="M386.975,-168.444C363.896,-159.478 327.438,-145.314 301.359,-135.183"/>
<polygon fill="midnightblue" stroke="midnightblue" points="302.511,-131.875 291.922,-131.516 299.976,-138.4 302.511,-131.875"/>
</g>
<!-- Node13 -->
<g id="node13" class="node"><title>Node13</title>
<g id="a_node13"><a xlink:href="lees__edwards_8hpp.html" target="_top" xlink:title="lees_edwards.hpp">
<polygon fill="none" stroke="black" points="322,-112.5 322,-131.5 426,-131.5 426,-112.5 322,-112.5"/>
<text text-anchor="middle" x="374" y="-119.5" font-family="Helvetica,sans-Serif" font-size="10.00">lees_edwards.hpp</text>
</a>
</g>
</g>
<!-- Node7&#45;&gt;Node13 -->
<g id="edge14" class="edge"><title>Node7&#45;&gt;Node13</title>
<path fill="none" stroke="midnightblue" d="M403.22,-168.083C398.328,-160.534 391.173,-149.495 385.167,-140.23"/>
<polygon fill="midnightblue" stroke="midnightblue" points="388.048,-138.239 379.672,-131.751 382.174,-142.046 388.048,-138.239"/>
</g>
<!-- Node14 -->
<g id="node14" class="node"><title>Node14</title>
<g id="a_node14"><a xlink:href="errorhandling_8hpp.html" target="_top" xlink:title="This file contains the errorhandling code for severe errors, like a broken bond or illegal parameter ...">
<polygon fill="none" stroke="black" points="482.5,-112.5 482.5,-131.5 585.5,-131.5 585.5,-112.5 482.5,-112.5"/>
<text text-anchor="middle" x="534" y="-119.5" font-family="Helvetica,sans-Serif" font-size="10.00">errorhandling.hpp</text>
</a>
</g>
</g>
<!-- Node7&#45;&gt;Node14 -->
<g id="edge16" class="edge"><title>Node7&#45;&gt;Node14</title>
<path fill="none" stroke="midnightblue" d="M428.807,-168.444C449.287,-159.596 481.483,-145.687 504.865,-135.586"/>
<polygon fill="midnightblue" stroke="midnightblue" points="506.494,-138.695 514.286,-131.516 503.718,-132.269 506.494,-138.695"/>
</g>
<!-- Node18 -->
<g id="node18" class="node"><title>Node18</title>
<polygon fill="none" stroke="#bfbfbf" points="755.5,-112.5 755.5,-131.5 802.5,-131.5 802.5,-112.5 755.5,-112.5"/>
<text text-anchor="middle" x="779" y="-119.5" font-family="Helvetica,sans-Serif" font-size="10.00">vector</text>
</g>
<!-- Node7&#45;&gt;Node18 -->
<g id="edge21" class="edge"><title>Node7&#45;&gt;Node18</title>
<path fill="none" stroke="midnightblue" d="M438.52,-174.396C495.792,-169.058 626.087,-155.52 745.274,-131.888"/>
<polygon fill="midnightblue" stroke="midnightblue" points="746.185,-135.275 755.298,-129.871 744.804,-128.413 746.185,-135.275"/>
</g>
<!-- Node19 -->
<g id="node19" class="node"><title>Node19</title>
<polygon fill="none" stroke="#bfbfbf" points="672.5,-112.5 672.5,-131.5 737.5,-131.5 737.5,-112.5 672.5,-112.5"/>
<text text-anchor="middle" x="705" y="-119.5" font-family="Helvetica,sans-Serif" font-size="10.00">exception</text>
</g>
<!-- Node7&#45;&gt;Node19 -->
<g id="edge22" class="edge"><title>Node7&#45;&gt;Node19</title>
<path fill="none" stroke="midnightblue" d="M438.783,-172.078C484.531,-164.442 575.085,-149.023 662.388,-132.06"/>
<polygon fill="midnightblue" stroke="midnightblue" points="663.32,-135.444 672.464,-130.092 661.979,-128.574 663.32,-135.444"/>
</g>
<!-- Node12&#45;&gt;Node2 -->
<g id="edge13" class="edge"><title>Node12&#45;&gt;Node2</title>
<path fill="none" stroke="midnightblue" d="M278.587,-112.083C286.159,-104.22 297.378,-92.5688 306.514,-83.0813"/>
<polygon fill="midnightblue" stroke="midnightblue" points="309.158,-85.3821 313.573,-75.7511 304.115,-80.5266 309.158,-85.3821"/>
</g>
<!-- Node13&#45;&gt;Node2 -->
<g id="edge15" class="edge"><title>Node13&#45;&gt;Node2</title>
<path fill="none" stroke="midnightblue" d="M365.413,-112.083C357.841,-104.22 346.622,-92.5688 337.486,-83.0813"/>
<polygon fill="midnightblue" stroke="midnightblue" points="339.885,-80.5266 330.427,-75.7511 334.842,-85.3821 339.885,-80.5266"/>
</g>
<!-- Node14&#45;&gt;Node2 -->
<g id="edge17" class="edge"><title>Node14&#45;&gt;Node2</title>
<path fill="none" stroke="midnightblue" d="M500.408,-112.444C463.813,-103.122 405.162,-88.1828 365.174,-77.9972"/>
<polygon fill="midnightblue" stroke="midnightblue" points="365.989,-74.5932 355.435,-75.5164 364.261,-81.3766 365.989,-74.5932"/>
</g>
<!-- Node15 -->
<g id="node15" class="node"><title>Node15</title>
<polygon fill="none" stroke="#bfbfbf" points="568,-56.5 568,-75.5 612,-75.5 612,-56.5 568,-56.5"/>
<text text-anchor="middle" x="590" y="-63.5" font-family="Helvetica,sans-Serif" font-size="10.00">string</text>
</g>
<!-- Node14&#45;&gt;Node15 -->
<g id="edge18" class="edge"><title>Node14&#45;&gt;Node15</title>
<path fill="none" stroke="midnightblue" d="M542.997,-112.324C551.194,-104.42 563.506,-92.5482 573.472,-82.9377"/>
<polygon fill="midnightblue" stroke="midnightblue" points="576.07,-85.2947 580.839,-75.8339 571.211,-80.2558 576.07,-85.2947"/>
</g>
<!-- Node16 -->
<g id="node16" class="node"><title>Node16</title>
<polygon fill="none" stroke="#bfbfbf" points="444,-56.5 444,-75.5 500,-75.5 500,-56.5 444,-56.5"/>
<text text-anchor="middle" x="472" y="-63.5" font-family="Helvetica,sans-Serif" font-size="10.00">sstream</text>
</g>
<!-- Node14&#45;&gt;Node16 -->
<g id="edge19" class="edge"><title>Node14&#45;&gt;Node16</title>
<path fill="none" stroke="midnightblue" d="M524.039,-112.324C514.873,-104.341 501.063,-92.3128 489.972,-82.6529"/>
<polygon fill="midnightblue" stroke="midnightblue" points="491.982,-79.7624 482.143,-75.8339 487.385,-85.041 491.982,-79.7624"/>
</g>
<!-- Node17 -->
<g id="node17" class="node"><title>Node17</title>
<polygon fill="none" stroke="#bfbfbf" points="518,-56.5 518,-75.5 550,-75.5 550,-56.5 518,-56.5"/>
<text text-anchor="middle" x="534" y="-63.5" font-family="Helvetica,sans-Serif" font-size="10.00">list</text>
</g>
<!-- Node14&#45;&gt;Node17 -->
<g id="edge20" class="edge"><title>Node14&#45;&gt;Node17</title>
<path fill="none" stroke="midnightblue" d="M534,-112.083C534,-105.006 534,-94.8611 534,-85.9865"/>
<polygon fill="midnightblue" stroke="midnightblue" points="537.5,-85.751 534,-75.7511 530.5,-85.7511 537.5,-85.751"/>
</g>
<!-- Node20&#45;&gt;Node2 -->
<g id="edge25" class="edge"><title>Node20&#45;&gt;Node2</title>
<path fill="none" stroke="midnightblue" d="M176.598,-224.459C140.597,-204.636 60.5162,-153.991 95,-112 117.731,-84.3209 218.908,-73.369 278.236,-69.2706"/>
<polygon fill="midnightblue" stroke="midnightblue" points="278.693,-72.7483 288.444,-68.6044 278.237,-65.7632 278.693,-72.7483"/>
</g>
<!-- Node20&#45;&gt;Node7 -->
<g id="edge26" class="edge"><title>Node20&#45;&gt;Node7</title>
<path fill="none" stroke="midnightblue" d="M227.226,-224.444C265.937,-214.766 328.872,-199.032 369.599,-188.85"/>
<polygon fill="midnightblue" stroke="midnightblue" points="370.594,-192.209 379.446,-186.388 368.896,-185.418 370.594,-192.209"/>
</g>
<!-- Node20&#45;&gt;Node8 -->
<g id="edge29" class="edge"><title>Node20&#45;&gt;Node8</title>
<path fill="none" stroke="midnightblue" d="M260.797,-224.479C373.34,-209.777 605.819,-177.047 810.287,-132.196"/>
<polygon fill="midnightblue" stroke="midnightblue" points="811.299,-135.557 820.309,-129.983 809.79,-128.722 811.299,-135.557"/>
</g>
<!-- Node20&#45;&gt;Node9 -->
<g id="edge27" class="edge"><title>Node20&#45;&gt;Node9</title>
<path fill="none" stroke="midnightblue" d="M187.821,-224.368C176.977,-206.296 151.706,-164.176 137.384,-140.307"/>
<polygon fill="midnightblue" stroke="midnightblue" points="140.301,-138.366 132.155,-131.591 134.299,-141.967 140.301,-138.366"/>
</g>
<!-- Node20&#45;&gt;Node10 -->
<g id="edge28" class="edge"><title>Node20&#45;&gt;Node10</title>
<path fill="none" stroke="midnightblue" d="M193,-224.368C193,-206.617 193,-165.666 193,-141.597"/>
<polygon fill="midnightblue" stroke="midnightblue" points="196.5,-141.591 193,-131.591 189.5,-141.591 196.5,-141.591"/>
</g>
<!-- Node21&#45;&gt;Node7 -->
<g id="edge31" class="edge"><title>Node21&#45;&gt;Node7</title>
<path fill="none" stroke="midnightblue" d="M451.272,-397.959C456.945,-388.223 465.609,-371.628 469,-356 476.372,-322.03 507.869,-303.655 468,-224 461.338,-210.689 448.67,-200.227 436.775,-192.753"/>
<polygon fill="midnightblue" stroke="midnightblue" points="438.347,-189.619 427.942,-187.623 434.832,-195.672 438.347,-189.619"/>
</g>
<!-- Node22 -->
<g id="node22" class="node"><title>Node22</title>
<g id="a_node22"><a xlink:href="constraint_8hpp.html" target="_top" xlink:title="Routines for handling of constraints. ">
<polygon fill="none" stroke="black" points="374,-336.5 374,-355.5 460,-355.5 460,-336.5 374,-336.5"/>
<text text-anchor="middle" x="417" y="-343.5" font-family="Helvetica,sans-Serif" font-size="10.00">constraint.hpp</text>
</a>
</g>
</g>
<!-- Node21&#45;&gt;Node22 -->
<g id="edge32" class="edge"><title>Node21&#45;&gt;Node22</title>
<path fill="none" stroke="midnightblue" d="M441.845,-397.975C437.624,-389.315 430.963,-375.649 425.6,-364.645"/>
<polygon fill="midnightblue" stroke="midnightblue" points="428.675,-362.965 421.147,-355.509 422.382,-366.032 428.675,-362.965"/>
</g>
<!-- Node22&#45;&gt;Node23 -->
<g id="edge33" class="edge"><title>Node22&#45;&gt;Node23</title>
<path fill="none" stroke="midnightblue" d="M416.372,-336.368C415.081,-318.617 412.103,-277.666 410.353,-253.597"/>
<polygon fill="midnightblue" stroke="midnightblue" points="413.841,-253.311 409.625,-243.591 406.859,-253.819 413.841,-253.311"/>
</g>
<!-- Node24 -->
<g id="node24" class="node"><title>Node24</title>
<g id="a_node24"><a xlink:href="interaction__data_8hpp.html" target="_top" xlink:title="Various procedures concerning interactions between particles. ">
<polygon fill="none" stroke="black" points="271.5,-280.5 271.5,-299.5 388.5,-299.5 388.5,-280.5 271.5,-280.5"/>
<text text-anchor="middle" x="330" y="-287.5" font-family="Helvetica,sans-Serif" font-size="10.00">interaction_data.hpp</text>
</a>
</g>
</g>
<!-- Node22&#45;&gt;Node24 -->
<g id="edge35" class="edge"><title>Node22&#45;&gt;Node24</title>
<path fill="none" stroke="midnightblue" d="M403.022,-336.324C389.45,-327.9 368.62,-314.971 352.675,-305.074"/>
<polygon fill="midnightblue" stroke="midnightblue" points="354.286,-301.954 343.943,-299.655 350.594,-307.902 354.286,-301.954"/>
</g>
<!-- Node23&#45;&gt;Node7 -->
<g id="edge34" class="edge"><title>Node23&#45;&gt;Node7</title>
<path fill="none" stroke="midnightblue" d="M409,-224.083C409,-217.006 409,-206.861 409,-197.986"/>
<polygon fill="midnightblue" stroke="midnightblue" points="412.5,-197.751 409,-187.751 405.5,-197.751 412.5,-197.751"/>
</g>
<!-- Node24&#45;&gt;Node7 -->
<g id="edge36" class="edge"><title>Node24&#45;&gt;Node7</title>
<path fill="none" stroke="midnightblue" d="M330.791,-280.255C332.352,-267.022 336.815,-241.589 349,-224 357.804,-211.291 371.348,-200.691 383.342,-192.977"/>
<polygon fill="midnightblue" stroke="midnightblue" points="385.376,-195.837 392.107,-187.654 381.743,-189.854 385.376,-195.837"/>
</g>
<!-- Node24&#45;&gt;Node23 -->
<g id="edge37" class="edge"><title>Node24&#45;&gt;Node23</title>
<path fill="none" stroke="midnightblue" d="M342.693,-280.324C354.901,-271.979 373.578,-259.212 388.003,-249.352"/>
<polygon fill="midnightblue" stroke="midnightblue" points="390.058,-252.187 396.339,-243.655 386.108,-246.408 390.058,-252.187"/>
</g>
<!-- Node26 -->
<g id="node26" class="node"><title>Node26</title>
<polygon fill="none" stroke="#bfbfbf" points="602.5,-336.5 602.5,-355.5 651.5,-355.5 651.5,-336.5 602.5,-336.5"/>
<text text-anchor="middle" x="627" y="-343.5" font-family="Helvetica,sans-Serif" font-size="10.00">cuda.h</text>
</g>
<!-- Node25&#45;&gt;Node26 -->
<g id="edge40" class="edge"><title>Node25&#45;&gt;Node26</title>
<path fill="none" stroke="midnightblue" d="M634.711,-397.975C633.441,-389.58 631.459,-376.481 629.823,-365.663"/>
<polygon fill="midnightblue" stroke="midnightblue" points="633.243,-364.873 628.287,-355.509 626.322,-365.92 633.243,-364.873"/>
</g>
<!-- Node27 -->
<g id="node27" class="node"><title>Node27</title>
<polygon fill="none" stroke="#bfbfbf" points="670,-336.5 670,-355.5 762,-355.5 762,-336.5 670,-336.5"/>
<text text-anchor="middle" x="716" y="-343.5" font-family="Helvetica,sans-Serif" font-size="10.00">cuda_runtime.h</text>
</g>
<!-- Node25&#45;&gt;Node27 -->
<g id="edge41" class="edge"><title>Node25&#45;&gt;Node27</title>
<path fill="none" stroke="midnightblue" d="M647.462,-397.975C660.175,-388.52 680.913,-373.096 696.253,-361.687"/>
<polygon fill="midnightblue" stroke="midnightblue" points="698.624,-364.285 704.559,-355.509 694.446,-358.669 698.624,-364.285"/>
</g>
<!-- Node28&#45;&gt;Node2 -->
<g id="edge43" class="edge"><title>Node28&#45;&gt;Node2</title>
<path fill="none" stroke="midnightblue" d="M829.008,-280.412C878.708,-254.282 1016.66,-173.752 959,-112 919.173,-69.3428 493.2,-80.3168 435,-76 412.166,-74.3064 386.748,-72.2933 365.81,-70.6009"/>
<polygon fill="midnightblue" stroke="midnightblue" points="365.866,-67.094 355.615,-69.7736 365.3,-74.0711 365.866,-67.094"/>
</g>
<!-- Node29 -->
<g id="node29" class="node"><title>Node29</title>
<g id="a_node29"><a xlink:href="SystemInterface_8hpp.html" target="_top" xlink:title="SystemInterface.hpp">
<polygon fill="none" stroke="black" points="753,-224.5 753,-243.5 871,-243.5 871,-224.5 753,-224.5"/>
<text text-anchor="middle" x="812" y="-231.5" font-family="Helvetica,sans-Serif" font-size="10.00">SystemInterface.hpp</text>
</a>
</g>
</g>
<!-- Node28&#45;&gt;Node29 -->
<g id="edge44" class="edge"><title>Node28&#45;&gt;Node29</title>
<path fill="none" stroke="midnightblue" d="M812,-280.083C812,-273.006 812,-262.861 812,-253.986"/>
<polygon fill="midnightblue" stroke="midnightblue" points="815.5,-253.751 812,-243.751 808.5,-253.751 815.5,-253.751"/>
</g>
<!-- Node29&#45;&gt;Node18 -->
<g id="edge48" class="edge"><title>Node29&#45;&gt;Node18</title>
<path fill="none" stroke="midnightblue" d="M809.411,-224.368C804.061,-206.537 791.689,-165.295 784.482,-141.272"/>
<polygon fill="midnightblue" stroke="midnightblue" points="787.803,-140.164 781.577,-131.591 781.099,-142.175 787.803,-140.164"/>
</g>
<!-- Node30 -->
<g id="node30" class="node"><title>Node30</title>
<g id="a_node30"><a xlink:href="Vector_8hpp.html" target="_top" xlink:title="Vector.hpp">
<polygon fill="none" stroke="black" points="810,-168.5 810,-187.5 878,-187.5 878,-168.5 810,-168.5"/>
<text text-anchor="middle" x="844" y="-175.5" font-family="Helvetica,sans-Serif" font-size="10.00">Vector.hpp</text>
</a>
</g>
</g>
<!-- Node29&#45;&gt;Node30 -->
<g id="edge45" class="edge"><title>Node29&#45;&gt;Node30</title>
<path fill="none" stroke="midnightblue" d="M817.284,-224.083C821.711,-216.613 828.163,-205.724 833.618,-196.52"/>
<polygon fill="midnightblue" stroke="midnightblue" points="836.727,-198.138 838.814,-187.751 830.705,-194.57 836.727,-198.138"/>
</g>
<!-- Node30&#45;&gt;Node8 -->
<g id="edge47" class="edge"><title>Node30&#45;&gt;Node8</title>
<path fill="none" stroke="midnightblue" d="M844,-168.083C844,-161.006 844,-150.861 844,-141.986"/>
<polygon fill="midnightblue" stroke="midnightblue" points="847.5,-141.751 844,-131.751 840.5,-141.751 847.5,-141.751"/>
</g>
<!-- Node31 -->
<g id="node31" class="node"><title>Node31</title>
<polygon fill="none" stroke="#bfbfbf" points="886,-112.5 886,-131.5 950,-131.5 950,-112.5 886,-112.5"/>
<text text-anchor="middle" x="918" y="-119.5" font-family="Helvetica,sans-Serif" font-size="10.00">algorithm</text>
</g>
<!-- Node30&#45;&gt;Node31 -->
<g id="edge46" class="edge"><title>Node30&#45;&gt;Node31</title>
<path fill="none" stroke="midnightblue" d="M855.889,-168.324C867.15,-160.107 884.287,-147.602 897.709,-137.807"/>
<polygon fill="midnightblue" stroke="midnightblue" points="899.88,-140.556 905.894,-131.834 895.753,-134.901 899.88,-140.556"/>
</g>
</g>
</svg>
