<?xml version="1.0" encoding="UTF-8" standalone="no"?>
<!DOCTYPE svg PUBLIC "-//W3C//DTD SVG 1.1//EN"
 "http://www.w3.org/Graphics/SVG/1.1/DTD/svg11.dtd">
<!-- Generated by graphviz version 2.38.0 (20140413.2041)
 -->
<!-- Title: ibm_cuda_interface.cpp Pages: 1 -->
<svg width="974pt" height="431pt"
 viewBox="0.00 0.00 973.70 431.00" xmlns="http://www.w3.org/2000/svg" xmlns:xlink="http://www.w3.org/1999/xlink">
<g id="graph0" class="graph" transform="scale(1 1) rotate(0) translate(4 427)">
<title>ibm_cuda_interface.cpp</title>
<!-- Node1 -->
<g id="node1" class="node"><title>Node1</title>
<polygon fill="#bfbfbf" stroke="black" points="458.703,-403.5 458.703,-422.5 591.703,-422.5 591.703,-403.5 458.703,-403.5"/>
<text text-anchor="middle" x="525.203" y="-410.5" font-family="Helvetica,sans-Serif" font-size="10.00">ibm_cuda_interface.cpp</text>
</g>
<!-- Node2 -->
<g id="node2" class="node"><title>Node2</title>
<g id="a_node2"><a xlink:href="config_8hpp.html" target="_top" xlink:title="This file contains the defaults for Espresso. ">
<polygon fill="none" stroke="black" points="508.703,-56.5 508.703,-75.5 575.703,-75.5 575.703,-56.5 508.703,-56.5"/>
<text text-anchor="middle" x="542.203" y="-63.5" font-family="Helvetica,sans-Serif" font-size="10.00">config.hpp</text>
</a>
</g>
</g>
<!-- Node1&#45;&gt;Node2 -->
<g id="edge1" class="edge"><title>Node1&#45;&gt;Node2</title>
<path fill="none" stroke="midnightblue" d="M563.168,-403.434C614.094,-389.44 698.203,-356.424 698.203,-291 698.203,-291 698.203,-291 698.203,-177 698.203,-121.736 632.004,-91.7937 585.854,-77.6343"/>
<polygon fill="midnightblue" stroke="midnightblue" points="586.633,-74.2157 576.052,-74.7686 584.668,-80.9344 586.633,-74.2157"/>
</g>
<!-- Node6 -->
<g id="node6" class="node"><title>Node6</title>
<g id="a_node6"><a xlink:href="mpi_8h.html" target="_top" xlink:title="This is the MPIfake implementation. ">
<polygon fill="none" stroke="black" points="169.203,-224.5 169.203,-243.5 213.203,-243.5 213.203,-224.5 169.203,-224.5"/>
<text text-anchor="middle" x="191.203" y="-231.5" font-family="Helvetica,sans-Serif" font-size="10.00">mpi.h</text>
</a>
</g>
</g>
<!-- Node1&#45;&gt;Node6 -->
<g id="edge5" class="edge"><title>Node1&#45;&gt;Node6</title>
<path fill="none" stroke="midnightblue" d="M458.676,-409.325C401.168,-405.132 316.739,-394.403 248.203,-367 199.212,-347.412 174.827,-346.663 150.203,-300 140.851,-282.278 156.583,-262.978 171.187,-250.051"/>
<polygon fill="midnightblue" stroke="midnightblue" points="173.541,-252.646 179.017,-243.576 169.08,-247.252 173.541,-252.646"/>
</g>
<!-- Node10 -->
<g id="node10" class="node"><title>Node10</title>
<g id="a_node10"><a xlink:href="cells_8hpp.html" target="_top" xlink:title="This file contains everything related to the cell structure / cell system. ">
<polygon fill="none" stroke="black" points="257.203,-342 257.203,-361 317.203,-361 317.203,-342 257.203,-342"/>
<text text-anchor="middle" x="287.203" y="-349" font-family="Helvetica,sans-Serif" font-size="10.00">cells.hpp</text>
</a>
</g>
</g>
<!-- Node1&#45;&gt;Node10 -->
<g id="edge9" class="edge"><title>Node1&#45;&gt;Node10</title>
<path fill="none" stroke="midnightblue" d="M491.103,-403.475C447.846,-392.661 373.357,-374.039 327.386,-362.546"/>
<polygon fill="midnightblue" stroke="midnightblue" points="328.02,-359.097 317.47,-360.067 326.323,-365.888 328.02,-359.097"/>
</g>
<!-- Node11 -->
<g id="node11" class="node"><title>Node11</title>
<g id="a_node11"><a xlink:href="particle__data_8hpp.html" target="_top" xlink:title="For more information on particle_data, see particle_data.c. ">
<polygon fill="none" stroke="black" points="251.703,-224.5 251.703,-243.5 352.703,-243.5 352.703,-224.5 251.703,-224.5"/>
<text text-anchor="middle" x="302.203" y="-231.5" font-family="Helvetica,sans-Serif" font-size="10.00">particle_data.hpp</text>
</a>
</g>
</g>
<!-- Node1&#45;&gt;Node11 -->
<g id="edge48" class="edge"><title>Node1&#45;&gt;Node11</title>
<path fill="none" stroke="midnightblue" d="M514.436,-403.295C488.176,-382.084 418.699,-326.087 360.203,-280 347.279,-269.818 332.641,-258.462 321.303,-249.705"/>
<polygon fill="midnightblue" stroke="midnightblue" points="323.416,-246.914 313.36,-243.578 319.14,-252.457 323.416,-246.914"/>
</g>
<!-- Node27 -->
<g id="node27" class="node"><title>Node27</title>
<g id="a_node27"><a xlink:href="grid_8hpp.html" target="_top" xlink:title="Domain decomposition for parallel computing. ">
<polygon fill="none" stroke="black" points="536.203,-342 536.203,-361 592.203,-361 592.203,-342 536.203,-342"/>
<text text-anchor="middle" x="564.203" y="-349" font-family="Helvetica,sans-Serif" font-size="10.00">grid.hpp</text>
</a>
</g>
</g>
<!-- Node1&#45;&gt;Node27 -->
<g id="edge33" class="edge"><title>Node1&#45;&gt;Node27</title>
<path fill="none" stroke="midnightblue" d="M530.791,-403.475C536.583,-394.638 545.792,-380.589 553.076,-369.475"/>
<polygon fill="midnightblue" stroke="midnightblue" points="556.071,-371.291 558.625,-361.009 550.216,-367.454 556.071,-371.291"/>
</g>
<!-- Node29 -->
<g id="node29" class="node"><title>Node29</title>
<g id="a_node29"><a xlink:href="communication_8hpp.html" target="_top" xlink:title="This file contains the asynchronous MPI communication. ">
<polygon fill="none" stroke="black" points="407.703,-280.5 407.703,-299.5 520.703,-299.5 520.703,-280.5 407.703,-280.5"/>
<text text-anchor="middle" x="464.203" y="-287.5" font-family="Helvetica,sans-Serif" font-size="10.00">communication.hpp</text>
</a>
</g>
</g>
<!-- Node1&#45;&gt;Node29 -->
<g id="edge47" class="edge"><title>Node1&#45;&gt;Node29</title>
<path fill="none" stroke="midnightblue" d="M520.816,-403.298C510.88,-383.589 486.491,-335.211 473.197,-308.842"/>
<polygon fill="midnightblue" stroke="midnightblue" points="476.177,-306.977 468.55,-299.623 469.926,-310.128 476.177,-306.977"/>
</g>
<!-- Node33 -->
<g id="node33" class="node"><title>Node33</title>
<g id="a_node33"><a xlink:href="integrate_8hpp.html" target="_top" xlink:title="Molecular dynamics integrator. ">
<polygon fill="none" stroke="black" points="726.203,-342 726.203,-361 808.203,-361 808.203,-342 726.203,-342"/>
<text text-anchor="middle" x="767.203" y="-349" font-family="Helvetica,sans-Serif" font-size="10.00">integrate.hpp</text>
</a>
</g>
</g>
<!-- Node1&#45;&gt;Node33 -->
<g id="edge49" class="edge"><title>Node1&#45;&gt;Node33</title>
<path fill="none" stroke="midnightblue" d="M561.809,-403.438C599.55,-394.553 660.073,-380.142 712.203,-367 716.521,-365.911 721.024,-364.756 725.513,-363.592"/>
<polygon fill="midnightblue" stroke="midnightblue" points="726.451,-366.965 735.241,-361.051 724.682,-360.192 726.451,-366.965"/>
</g>
<!-- Node34 -->
<g id="node34" class="node"><title>Node34</title>
<g id="a_node34"><a xlink:href="ibm__cuda__interface_8hpp.html" target="_top" xlink:title="immersed_boundary/ibm\l_cuda_interface.hpp">
<polygon fill="none" stroke="black" points="826.703,-336.5 826.703,-366.5 965.703,-366.5 965.703,-336.5 826.703,-336.5"/>
<text text-anchor="start" x="834.703" y="-354.5" font-family="Helvetica,sans-Serif" font-size="10.00">immersed_boundary/ibm</text>
<text text-anchor="middle" x="896.203" y="-343.5" font-family="Helvetica,sans-Serif" font-size="10.00">_cuda_interface.hpp</text>
</a>
</g>
</g>
<!-- Node1&#45;&gt;Node34 -->
<g id="edge50" class="edge"><title>Node1&#45;&gt;Node34</title>
<path fill="none" stroke="midnightblue" d="M583.73,-403.483C640.551,-395.101 729.501,-381.68 816.399,-367.107"/>
<polygon fill="midnightblue" stroke="midnightblue" points="817.155,-370.529 826.435,-365.417 815.993,-363.626 817.155,-370.529"/>
</g>
<!-- Node3 -->
<g id="node3" class="node"><title>Node3</title>
<g id="a_node3"><a xlink:href="acconfig_8hpp.html" target="_top" xlink:title="acconfig.hpp">
<polygon fill="none" stroke="black" points="392.203,-0.5 392.203,-19.5 470.203,-19.5 470.203,-0.5 392.203,-0.5"/>
<text text-anchor="middle" x="431.203" y="-7.5" font-family="Helvetica,sans-Serif" font-size="10.00">acconfig.hpp</text>
</a>
</g>
</g>
<!-- Node2&#45;&gt;Node3 -->
<g id="edge2" class="edge"><title>Node2&#45;&gt;Node3</title>
<path fill="none" stroke="midnightblue" d="M524.369,-56.324C506.487,-47.6247 478.728,-34.1202 458.157,-24.113"/>
<polygon fill="midnightblue" stroke="midnightblue" points="459.516,-20.8819 448.993,-19.6545 456.454,-27.1765 459.516,-20.8819"/>
</g>
<!-- Node4 -->
<g id="node4" class="node"><title>Node4</title>
<g id="a_node4"><a xlink:href="myconfig-final_8hpp.html" target="_top" xlink:title="myconfig&#45;final.hpp">
<polygon fill="none" stroke="black" points="488.703,-0.5 488.703,-19.5 595.703,-19.5 595.703,-0.5 488.703,-0.5"/>
<text text-anchor="middle" x="542.203" y="-7.5" font-family="Helvetica,sans-Serif" font-size="10.00">myconfig&#45;final.hpp</text>
</a>
</g>
</g>
<!-- Node2&#45;&gt;Node4 -->
<g id="edge3" class="edge"><title>Node2&#45;&gt;Node4</title>
<path fill="none" stroke="midnightblue" d="M542.203,-56.083C542.203,-49.0059 542.203,-38.8611 542.203,-29.9865"/>
<polygon fill="midnightblue" stroke="midnightblue" points="545.703,-29.751 542.203,-19.7511 538.703,-29.7511 545.703,-29.751"/>
</g>
<!-- Node5 -->
<g id="node5" class="node"><title>Node5</title>
<g id="a_node5"><a xlink:href="config-features_8hpp.html" target="_top" xlink:title="config&#45;features.hpp">
<polygon fill="none" stroke="black" points="613.703,-0.5 613.703,-19.5 724.703,-19.5 724.703,-0.5 613.703,-0.5"/>
<text text-anchor="middle" x="669.203" y="-7.5" font-family="Helvetica,sans-Serif" font-size="10.00">config&#45;features.hpp</text>
</a>
</g>
</g>
<!-- Node2&#45;&gt;Node5 -->
<g id="edge4" class="edge"><title>Node2&#45;&gt;Node5</title>
<path fill="none" stroke="midnightblue" d="M562.326,-56.4435C583.227,-47.5566 616.137,-33.5632 639.919,-23.4514"/>
<polygon fill="midnightblue" stroke="midnightblue" points="641.34,-26.6504 649.173,-19.5164 638.601,-20.2085 641.34,-26.6504"/>
</g>
<!-- Node7 -->
<g id="node7" class="node"><title>Node7</title>
<polygon fill="none" stroke="#bfbfbf" points="163.703,-168.5 163.703,-187.5 216.703,-187.5 216.703,-168.5 163.703,-168.5"/>
<text text-anchor="middle" x="190.203" y="-175.5" font-family="Helvetica,sans-Serif" font-size="10.00">string.h</text>
</g>
<!-- Node6&#45;&gt;Node7 -->
<g id="edge6" class="edge"><title>Node6&#45;&gt;Node7</title>
<path fill="none" stroke="midnightblue" d="M191.038,-224.083C190.907,-217.006 190.719,-206.861 190.554,-197.986"/>
<polygon fill="midnightblue" stroke="midnightblue" points="194.049,-197.685 190.365,-187.751 187.051,-197.814 194.049,-197.685"/>
</g>
<!-- Node8 -->
<g id="node8" class="node"><title>Node8</title>
<polygon fill="none" stroke="#bfbfbf" points="235.203,-168.5 235.203,-187.5 285.203,-187.5 285.203,-168.5 235.203,-168.5"/>
<text text-anchor="middle" x="260.203" y="-175.5" font-family="Helvetica,sans-Serif" font-size="10.00">stdio.h</text>
</g>
<!-- Node6&#45;&gt;Node8 -->
<g id="edge7" class="edge"><title>Node6&#45;&gt;Node8</title>
<path fill="none" stroke="midnightblue" d="M202.289,-224.324C212.689,-216.185 228.463,-203.839 240.924,-194.087"/>
<polygon fill="midnightblue" stroke="midnightblue" points="243.197,-196.753 248.915,-187.834 238.883,-191.241 243.197,-196.753"/>
</g>
<!-- Node9 -->
<g id="node9" class="node"><title>Node9</title>
<polygon fill="none" stroke="#bfbfbf" points="92.7028,-168.5 92.7028,-187.5 145.703,-187.5 145.703,-168.5 92.7028,-168.5"/>
<text text-anchor="middle" x="119.203" y="-175.5" font-family="Helvetica,sans-Serif" font-size="10.00">stdlib.h</text>
</g>
<!-- Node6&#45;&gt;Node9 -->
<g id="edge8" class="edge"><title>Node6&#45;&gt;Node9</title>
<path fill="none" stroke="midnightblue" d="M179.635,-224.324C168.783,-216.185 152.322,-203.839 139.319,-194.087"/>
<polygon fill="midnightblue" stroke="midnightblue" points="141.081,-191.034 130.981,-187.834 136.881,-196.634 141.081,-191.034"/>
</g>
<!-- Node10&#45;&gt;Node11 -->
<g id="edge10" class="edge"><title>Node10&#45;&gt;Node11</title>
<path fill="none" stroke="midnightblue" d="M283.513,-341.692C278.387,-328.222 270.364,-301.776 276.203,-280 278.856,-270.103 284.272,-260.131 289.477,-252.099"/>
<polygon fill="midnightblue" stroke="midnightblue" points="292.492,-253.894 295.312,-243.681 286.739,-249.906 292.492,-253.894"/>
</g>
<!-- Node25 -->
<g id="node25" class="node"><title>Node25</title>
<g id="a_node25"><a xlink:href="ghosts_8hpp.html" target="_top" xlink:title="Ghost particles and particle exchange. ">
<polygon fill="none" stroke="black" points="159.203,-280.5 159.203,-299.5 229.203,-299.5 229.203,-280.5 159.203,-280.5"/>
<text text-anchor="middle" x="194.203" y="-287.5" font-family="Helvetica,sans-Serif" font-size="10.00">ghosts.hpp</text>
</a>
</g>
</g>
<!-- Node10&#45;&gt;Node25 -->
<g id="edge28" class="edge"><title>Node10&#45;&gt;Node25</title>
<path fill="none" stroke="midnightblue" d="M273.878,-341.975C258.823,-332.343 234.087,-316.517 216.166,-305.052"/>
<polygon fill="midnightblue" stroke="midnightblue" points="217.812,-301.95 207.503,-299.509 214.04,-307.847 217.812,-301.95"/>
</g>
<!-- Node26 -->
<g id="node26" class="node"><title>Node26</title>
<g id="a_node26"><a xlink:href="verlet_8hpp.html" target="_top" xlink:title="This file contains routines to setup and handle interaction pair lists (verlet pair lists) for the no...">
<polygon fill="none" stroke="black" points="285.203,-280.5 285.203,-299.5 351.203,-299.5 351.203,-280.5 285.203,-280.5"/>
<text text-anchor="middle" x="318.203" y="-287.5" font-family="Helvetica,sans-Serif" font-size="10.00">verlet.hpp</text>
</a>
</g>
</g>
<!-- Node10&#45;&gt;Node26 -->
<g id="edge31" class="edge"><title>Node10&#45;&gt;Node26</title>
<path fill="none" stroke="midnightblue" d="M291.644,-341.975C296.156,-333.315 303.277,-319.649 309.009,-308.645"/>
<polygon fill="midnightblue" stroke="midnightblue" points="312.253,-309.995 313.769,-299.509 306.045,-306.76 312.253,-309.995"/>
</g>
<!-- Node12 -->
<g id="node12" class="node"><title>Node12</title>
<g id="a_node12"><a xlink:href="utils_8hpp.html" target="_top" xlink:title="Small functions that are useful not only for one modul. ">
<polygon fill="none" stroke="black" points="409.703,-168.5 409.703,-187.5 468.703,-187.5 468.703,-168.5 409.703,-168.5"/>
<text text-anchor="middle" x="439.203" y="-175.5" font-family="Helvetica,sans-Serif" font-size="10.00">utils.hpp</text>
</a>
</g>
</g>
<!-- Node11&#45;&gt;Node12 -->
<g id="edge11" class="edge"><title>Node11&#45;&gt;Node12</title>
<path fill="none" stroke="midnightblue" d="M323.911,-224.444C346.558,-215.517 382.275,-201.439 407.955,-191.317"/>
<polygon fill="midnightblue" stroke="midnightblue" points="409.576,-194.44 417.596,-187.516 407.009,-187.927 409.576,-194.44"/>
</g>
<!-- Node12&#45;&gt;Node2 -->
<g id="edge16" class="edge"><title>Node12&#45;&gt;Node2</title>
<path fill="none" stroke="midnightblue" d="M468.959,-174.786C519.589,-170.334 619.078,-158.377 640.203,-132 659.833,-107.489 620.495,-88.9663 585.962,-78.0851"/>
<polygon fill="midnightblue" stroke="midnightblue" points="586.522,-74.5992 575.938,-75.0877 584.516,-81.3059 586.522,-74.5992"/>
</g>
<!-- Node13 -->
<g id="node13" class="node"><title>Node13</title>
<polygon fill="none" stroke="#bfbfbf" points="584.703,-112.5 584.703,-131.5 631.703,-131.5 631.703,-112.5 584.703,-112.5"/>
<text text-anchor="middle" x="608.203" y="-119.5" font-family="Helvetica,sans-Serif" font-size="10.00">cmath</text>
</g>
<!-- Node12&#45;&gt;Node13 -->
<g id="edge12" class="edge"><title>Node12&#45;&gt;Node13</title>
<path fill="none" stroke="midnightblue" d="M465.981,-168.444C495.46,-159.024 542.891,-143.869 574.783,-133.679"/>
<polygon fill="midnightblue" stroke="midnightblue" points="576.089,-136.936 584.549,-130.558 573.958,-130.268 576.089,-136.936"/>
</g>
<!-- Node14 -->
<g id="node14" class="node"><title>Node14</title>
<polygon fill="none" stroke="#bfbfbf" points="179.203,-112.5 179.203,-131.5 225.203,-131.5 225.203,-112.5 179.203,-112.5"/>
<text text-anchor="middle" x="202.203" y="-119.5" font-family="Helvetica,sans-Serif" font-size="10.00">cstdio</text>
</g>
<!-- Node12&#45;&gt;Node14 -->
<g id="edge13" class="edge"><title>Node12&#45;&gt;Node14</title>
<path fill="none" stroke="midnightblue" d="M409.542,-171.053C371.437,-163.291 303.04,-148.946 235.229,-132.146"/>
<polygon fill="midnightblue" stroke="midnightblue" points="235.782,-128.676 225.232,-129.649 234.086,-135.468 235.782,-128.676"/>
</g>
<!-- Node15 -->
<g id="node15" class="node"><title>Node15</title>
<polygon fill="none" stroke="#bfbfbf" points="243.703,-112.5 243.703,-131.5 292.703,-131.5 292.703,-112.5 243.703,-112.5"/>
<text text-anchor="middle" x="268.203" y="-119.5" font-family="Helvetica,sans-Serif" font-size="10.00">cstdlib</text>
</g>
<!-- Node12&#45;&gt;Node15 -->
<g id="edge14" class="edge"><title>Node12&#45;&gt;Node15</title>
<path fill="none" stroke="midnightblue" d="M412.107,-168.444C382.535,-159.105 335.107,-144.128 302.849,-133.941"/>
<polygon fill="midnightblue" stroke="midnightblue" points="303.54,-130.489 292.951,-130.815 301.432,-137.164 303.54,-130.489"/>
</g>
<!-- Node16 -->
<g id="node16" class="node"><title>Node16</title>
<polygon fill="none" stroke="#bfbfbf" points="311.203,-112.5 311.203,-131.5 361.203,-131.5 361.203,-112.5 311.203,-112.5"/>
<text text-anchor="middle" x="336.203" y="-119.5" font-family="Helvetica,sans-Serif" font-size="10.00">cstring</text>
</g>
<!-- Node12&#45;&gt;Node16 -->
<g id="edge15" class="edge"><title>Node12&#45;&gt;Node16</title>
<path fill="none" stroke="midnightblue" d="M422.654,-168.324C406.211,-159.703 380.768,-146.364 361.734,-136.386"/>
<polygon fill="midnightblue" stroke="midnightblue" points="363.192,-133.198 352.71,-131.655 359.942,-139.398 363.192,-133.198"/>
</g>
<!-- Node17 -->
<g id="node17" class="node"><title>Node17</title>
<g id="a_node17"><a xlink:href="debug_8hpp.html" target="_top" xlink:title="This file controls debug facilities. ">
<polygon fill="none" stroke="black" points="93.2028,-112.5 93.2028,-131.5 161.203,-131.5 161.203,-112.5 93.2028,-112.5"/>
<text text-anchor="middle" x="127.203" y="-119.5" font-family="Helvetica,sans-Serif" font-size="10.00">debug.hpp</text>
</a>
</g>
</g>
<!-- Node12&#45;&gt;Node17 -->
<g id="edge17" class="edge"><title>Node12&#45;&gt;Node17</title>
<path fill="none" stroke="midnightblue" d="M409.702,-170.933C404.542,-169.92 399.221,-168.905 394.203,-168 298.071,-150.668 271.028,-150.337 171.322,-132.136"/>
<polygon fill="midnightblue" stroke="midnightblue" points="171.91,-128.685 161.442,-130.318 170.643,-135.57 171.91,-128.685"/>
</g>
<!-- Node18 -->
<g id="node18" class="node"><title>Node18</title>
<g id="a_node18"><a xlink:href="lees__edwards_8hpp.html" target="_top" xlink:title="lees_edwards.hpp">
<polygon fill="none" stroke="black" points="379.203,-112.5 379.203,-131.5 483.203,-131.5 483.203,-112.5 379.203,-112.5"/>
<text text-anchor="middle" x="431.203" y="-119.5" font-family="Helvetica,sans-Serif" font-size="10.00">lees_edwards.hpp</text>
</a>
</g>
</g>
<!-- Node12&#45;&gt;Node18 -->
<g id="edge19" class="edge"><title>Node12&#45;&gt;Node18</title>
<path fill="none" stroke="midnightblue" d="M437.882,-168.083C436.822,-160.927 435.297,-150.635 433.972,-141.691"/>
<polygon fill="midnightblue" stroke="midnightblue" points="437.427,-141.13 432.499,-131.751 430.503,-142.156 437.427,-141.13"/>
</g>
<!-- Node19 -->
<g id="node19" class="node"><title>Node19</title>
<g id="a_node19"><a xlink:href="errorhandling_8hpp.html" target="_top" xlink:title="This file contains the errorhandling code for severe errors, like a broken bond or illegal parameter ...">
<polygon fill="none" stroke="black" points="726.703,-112.5 726.703,-131.5 829.703,-131.5 829.703,-112.5 726.703,-112.5"/>
<text text-anchor="middle" x="778.203" y="-119.5" font-family="Helvetica,sans-Serif" font-size="10.00">errorhandling.hpp</text>
</a>
</g>
</g>
<!-- Node12&#45;&gt;Node19 -->
<g id="edge21" class="edge"><title>Node12&#45;&gt;Node19</title>
<path fill="none" stroke="midnightblue" d="M468.99,-172.255C524.155,-163.468 643.258,-144.496 716.488,-132.831"/>
<polygon fill="midnightblue" stroke="midnightblue" points="717.18,-136.265 726.505,-131.235 716.079,-129.352 717.18,-136.265"/>
</g>
<!-- Node23 -->
<g id="node23" class="node"><title>Node23</title>
<polygon fill="none" stroke="#bfbfbf" points="27.7028,-112.5 27.7028,-131.5 74.7028,-131.5 74.7028,-112.5 27.7028,-112.5"/>
<text text-anchor="middle" x="51.2028" y="-119.5" font-family="Helvetica,sans-Serif" font-size="10.00">vector</text>
</g>
<!-- Node12&#45;&gt;Node23 -->
<g id="edge26" class="edge"><title>Node12&#45;&gt;Node23</title>
<path fill="none" stroke="midnightblue" d="M409.249,-170.654C404.237,-169.695 399.082,-168.77 394.203,-168 260.405,-146.888 222.166,-157.781 84.9488,-131.852"/>
<polygon fill="midnightblue" stroke="midnightblue" points="85.3762,-128.37 74.8954,-129.92 84.0554,-135.244 85.3762,-128.37"/>
</g>
<!-- Node24 -->
<g id="node24" class="node"><title>Node24</title>
<polygon fill="none" stroke="#bfbfbf" points="501.703,-112.5 501.703,-131.5 566.703,-131.5 566.703,-112.5 501.703,-112.5"/>
<text text-anchor="middle" x="534.203" y="-119.5" font-family="Helvetica,sans-Serif" font-size="10.00">exception</text>
</g>
<!-- Node12&#45;&gt;Node24 -->
<g id="edge27" class="edge"><title>Node12&#45;&gt;Node24</title>
<path fill="none" stroke="midnightblue" d="M454.466,-168.324C469.424,-159.822 492.458,-146.729 509.929,-136.797"/>
<polygon fill="midnightblue" stroke="midnightblue" points="512.013,-139.639 518.977,-131.655 508.554,-133.553 512.013,-139.639"/>
</g>
<!-- Node17&#45;&gt;Node2 -->
<g id="edge18" class="edge"><title>Node17&#45;&gt;Node2</title>
<path fill="none" stroke="midnightblue" d="M161.42,-113.561C164.385,-113.001 167.343,-112.471 170.203,-112 288.189,-92.5532 428.529,-77.8328 498.293,-71.0774"/>
<polygon fill="midnightblue" stroke="midnightblue" points="498.847,-74.5405 508.466,-70.1005 498.178,-67.5725 498.847,-74.5405"/>
</g>
<!-- Node18&#45;&gt;Node2 -->
<g id="edge20" class="edge"><title>Node18&#45;&gt;Node2</title>
<path fill="none" stroke="midnightblue" d="M449.037,-112.324C466.919,-103.625 494.678,-90.1202 515.248,-80.113"/>
<polygon fill="midnightblue" stroke="midnightblue" points="516.952,-83.1765 524.413,-75.6545 513.889,-76.8819 516.952,-83.1765"/>
</g>
<!-- Node19&#45;&gt;Node2 -->
<g id="edge22" class="edge"><title>Node19&#45;&gt;Node2</title>
<path fill="none" stroke="midnightblue" d="M740.808,-112.444C698.726,-102.815 630.444,-87.1908 585.928,-77.0049"/>
<polygon fill="midnightblue" stroke="midnightblue" points="586.51,-73.5478 575.981,-74.729 584.949,-80.3714 586.51,-73.5478"/>
</g>
<!-- Node20 -->
<g id="node20" class="node"><title>Node20</title>
<polygon fill="none" stroke="#bfbfbf" points="756.203,-56.5 756.203,-75.5 800.203,-75.5 800.203,-56.5 756.203,-56.5"/>
<text text-anchor="middle" x="778.203" y="-63.5" font-family="Helvetica,sans-Serif" font-size="10.00">string</text>
</g>
<!-- Node19&#45;&gt;Node20 -->
<g id="edge23" class="edge"><title>Node19&#45;&gt;Node20</title>
<path fill="none" stroke="midnightblue" d="M778.203,-112.083C778.203,-105.006 778.203,-94.8611 778.203,-85.9865"/>
<polygon fill="midnightblue" stroke="midnightblue" points="781.703,-85.751 778.203,-75.7511 774.703,-85.7511 781.703,-85.751"/>
</g>
<!-- Node21 -->
<g id="node21" class="node"><title>Node21</title>
<polygon fill="none" stroke="#bfbfbf" points="818.203,-56.5 818.203,-75.5 874.203,-75.5 874.203,-56.5 818.203,-56.5"/>
<text text-anchor="middle" x="846.203" y="-63.5" font-family="Helvetica,sans-Serif" font-size="10.00">sstream</text>
</g>
<!-- Node19&#45;&gt;Node21 -->
<g id="edge24" class="edge"><title>Node19&#45;&gt;Node21</title>
<path fill="none" stroke="midnightblue" d="M789.128,-112.324C799.377,-104.185 814.923,-91.8395 827.204,-82.0874"/>
<polygon fill="midnightblue" stroke="midnightblue" points="829.424,-84.7937 835.079,-75.8339 825.071,-79.3119 829.424,-84.7937"/>
</g>
<!-- Node22 -->
<g id="node22" class="node"><title>Node22</title>
<polygon fill="none" stroke="#bfbfbf" points="706.203,-56.5 706.203,-75.5 738.203,-75.5 738.203,-56.5 706.203,-56.5"/>
<text text-anchor="middle" x="722.203" y="-63.5" font-family="Helvetica,sans-Serif" font-size="10.00">list</text>
</g>
<!-- Node19&#45;&gt;Node22 -->
<g id="edge25" class="edge"><title>Node19&#45;&gt;Node22</title>
<path fill="none" stroke="midnightblue" d="M769.205,-112.324C761.008,-104.42 748.697,-92.5482 738.731,-82.9377"/>
<polygon fill="midnightblue" stroke="midnightblue" points="740.992,-80.2558 731.364,-75.8339 736.133,-85.2947 740.992,-80.2558"/>
</g>
<!-- Node25&#45;&gt;Node6 -->
<g id="edge29" class="edge"><title>Node25&#45;&gt;Node6</title>
<path fill="none" stroke="midnightblue" d="M193.707,-280.083C193.314,-273.006 192.751,-262.861 192.258,-253.986"/>
<polygon fill="midnightblue" stroke="midnightblue" points="195.738,-253.542 191.689,-243.751 188.749,-253.93 195.738,-253.542"/>
</g>
<!-- Node25&#45;&gt;Node11 -->
<g id="edge30" class="edge"><title>Node25&#45;&gt;Node11</title>
<path fill="none" stroke="midnightblue" d="M211.555,-280.324C228.875,-271.664 255.718,-258.242 275.705,-248.249"/>
<polygon fill="midnightblue" stroke="midnightblue" points="277.515,-251.257 284.894,-243.655 274.384,-244.996 277.515,-251.257"/>
</g>
<!-- Node26&#45;&gt;Node11 -->
<g id="edge32" class="edge"><title>Node26&#45;&gt;Node11</title>
<path fill="none" stroke="midnightblue" d="M315.561,-280.083C313.417,-272.849 310.324,-262.409 307.654,-253.397"/>
<polygon fill="midnightblue" stroke="midnightblue" points="310.992,-252.345 304.796,-243.751 304.281,-254.333 310.992,-252.345"/>
</g>
<!-- Node27&#45;&gt;Node12 -->
<g id="edge34" class="edge"><title>Node27&#45;&gt;Node12</title>
<path fill="none" stroke="midnightblue" d="M572.567,-341.698C580.916,-332.249 593.204,-316.376 598.203,-300 604.332,-279.921 595.615,-230.278 590.203,-224 562.764,-192.176 513.887,-182.341 479.179,-179.565"/>
<polygon fill="midnightblue" stroke="midnightblue" points="479.103,-176.053 468.901,-178.913 478.66,-183.039 479.103,-176.053"/>
</g>
<!-- Node27&#45;&gt;Node19 -->
<g id="edge46" class="edge"><title>Node27&#45;&gt;Node19</title>
<path fill="none" stroke="midnightblue" d="M573.144,-341.648C583.218,-331.633 600.036,-314.791 614.203,-300 670.09,-241.651 734.853,-170.757 763.397,-139.339"/>
<polygon fill="midnightblue" stroke="midnightblue" points="766.321,-141.325 770.45,-131.567 761.137,-136.62 766.321,-141.325"/>
</g>
<!-- Node28 -->
<g id="node28" class="node"><title>Node28</title>
<polygon fill="none" stroke="#bfbfbf" points="539.203,-280.5 539.203,-299.5 589.203,-299.5 589.203,-280.5 539.203,-280.5"/>
<text text-anchor="middle" x="564.203" y="-287.5" font-family="Helvetica,sans-Serif" font-size="10.00">climits</text>
</g>
<!-- Node27&#45;&gt;Node28 -->
<g id="edge35" class="edge"><title>Node27&#45;&gt;Node28</title>
<path fill="none" stroke="midnightblue" d="M564.203,-341.975C564.203,-333.58 564.203,-320.481 564.203,-309.663"/>
<polygon fill="midnightblue" stroke="midnightblue" points="567.703,-309.509 564.203,-299.509 560.703,-309.509 567.703,-309.509"/>
</g>
<!-- Node27&#45;&gt;Node29 -->
<g id="edge36" class="edge"><title>Node27&#45;&gt;Node29</title>
<path fill="none" stroke="midnightblue" d="M549.875,-341.975C533.538,-332.255 506.6,-316.227 487.29,-304.737"/>
<polygon fill="midnightblue" stroke="midnightblue" points="488.887,-301.615 478.504,-299.509 485.308,-307.63 488.887,-301.615"/>
</g>
<!-- Node29&#45;&gt;Node6 -->
<g id="edge42" class="edge"><title>Node29&#45;&gt;Node6</title>
<path fill="none" stroke="midnightblue" d="M420.945,-280.444C366.037,-269.583 272.571,-251.095 223.49,-241.386"/>
<polygon fill="midnightblue" stroke="midnightblue" points="223.924,-237.905 213.435,-239.398 222.566,-244.772 223.924,-237.905"/>
</g>
<!-- Node29&#45;&gt;Node11 -->
<g id="edge37" class="edge"><title>Node29&#45;&gt;Node11</title>
<path fill="none" stroke="midnightblue" d="M438.533,-280.444C411.28,-271.359 368.019,-256.939 337.552,-246.783"/>
<polygon fill="midnightblue" stroke="midnightblue" points="338.346,-243.358 327.752,-243.516 336.132,-249.999 338.346,-243.358"/>
</g>
<!-- Node30 -->
<g id="node30" class="node"><title>Node30</title>
<g id="a_node30"><a xlink:href="random_8hpp.html" target="_top" xlink:title="A random generator. ">
<polygon fill="none" stroke="black" points="409.703,-224.5 409.703,-243.5 484.703,-243.5 484.703,-224.5 409.703,-224.5"/>
<text text-anchor="middle" x="447.203" y="-231.5" font-family="Helvetica,sans-Serif" font-size="10.00">random.hpp</text>
</a>
</g>
</g>
<!-- Node29&#45;&gt;Node30 -->
<g id="edge38" class="edge"><title>Node29&#45;&gt;Node30</title>
<path fill="none" stroke="midnightblue" d="M461.396,-280.083C459.118,-272.849 455.831,-262.409 452.994,-253.397"/>
<polygon fill="midnightblue" stroke="midnightblue" points="456.299,-252.239 449.958,-243.751 449.622,-254.341 456.299,-252.239"/>
</g>
<!-- Node31 -->
<g id="node31" class="node"><title>Node31</title>
<g id="a_node31"><a xlink:href="topology_8hpp.html" target="_top" xlink:title="This file contains functions for handling the system topology. ">
<polygon fill="none" stroke="black" points="502.703,-224.5 502.703,-243.5 581.703,-243.5 581.703,-224.5 502.703,-224.5"/>
<text text-anchor="middle" x="542.203" y="-231.5" font-family="Helvetica,sans-Serif" font-size="10.00">topology.hpp</text>
</a>
</g>
</g>
<!-- Node29&#45;&gt;Node31 -->
<g id="edge40" class="edge"><title>Node29&#45;&gt;Node31</title>
<path fill="none" stroke="midnightblue" d="M476.735,-280.324C488.789,-271.979 507.23,-259.212 521.471,-249.352"/>
<polygon fill="midnightblue" stroke="midnightblue" points="523.472,-252.224 529.702,-243.655 519.488,-246.469 523.472,-252.224"/>
</g>
<!-- Node32 -->
<g id="node32" class="node"><title>Node32</title>
<g id="a_node32"><a xlink:href="cuda__init_8hpp.html" target="_top" xlink:title="cuda_init.hpp">
<polygon fill="none" stroke="black" points="303.203,-168.5 303.203,-187.5 385.203,-187.5 385.203,-168.5 303.203,-168.5"/>
<text text-anchor="middle" x="344.203" y="-175.5" font-family="Helvetica,sans-Serif" font-size="10.00">cuda_init.hpp</text>
</a>
</g>
</g>
<!-- Node29&#45;&gt;Node32 -->
<g id="edge43" class="edge"><title>Node29&#45;&gt;Node32</title>
<path fill="none" stroke="midnightblue" d="M449.981,-280.44C436.496,-272.001 416.005,-258.32 400.203,-244 383.724,-229.067 367.42,-209.444 356.691,-195.681"/>
<polygon fill="midnightblue" stroke="midnightblue" points="359.356,-193.405 350.5,-187.591 353.797,-197.659 359.356,-193.405"/>
</g>
<!-- Node30&#45;&gt;Node12 -->
<g id="edge39" class="edge"><title>Node30&#45;&gt;Node12</title>
<path fill="none" stroke="midnightblue" d="M445.882,-224.083C444.822,-216.927 443.297,-206.635 441.972,-197.691"/>
<polygon fill="midnightblue" stroke="midnightblue" points="445.427,-197.13 440.499,-187.751 438.503,-198.156 445.427,-197.13"/>
</g>
<!-- Node31&#45;&gt;Node12 -->
<g id="edge41" class="edge"><title>Node31&#45;&gt;Node12</title>
<path fill="none" stroke="midnightblue" d="M525.654,-224.324C509.211,-215.703 483.768,-202.364 464.734,-192.386"/>
<polygon fill="midnightblue" stroke="midnightblue" points="466.192,-189.198 455.71,-187.655 462.942,-195.398 466.192,-189.198"/>
</g>
<!-- Node32&#45;&gt;Node2 -->
<g id="edge44" class="edge"><title>Node32&#45;&gt;Node2</title>
<path fill="none" stroke="midnightblue" d="M303.029,-169.426C300.045,-168.927 297.079,-168.446 294.203,-168 170.516,-148.813 -66.432,-204.215 18.2028,-112 50.3783,-76.9429 377.602,-69.141 498.029,-67.4523"/>
<polygon fill="midnightblue" stroke="midnightblue" points="498.401,-70.9478 508.354,-67.3155 498.308,-63.9484 498.401,-70.9478"/>
</g>
<!-- Node32&#45;&gt;Node23 -->
<g id="edge45" class="edge"><title>Node32&#45;&gt;Node23</title>
<path fill="none" stroke="midnightblue" d="M303.007,-169.557C300.028,-169.027 297.069,-168.504 294.203,-168 204.033,-152.156 178.344,-152.443 84.81,-131.951"/>
<polygon fill="midnightblue" stroke="midnightblue" points="85.4477,-128.507 74.9277,-129.764 83.9356,-135.342 85.4477,-128.507"/>
</g>
</g>
</svg>
