<?xml version="1.0" encoding="UTF-8" standalone="no"?>
<!DOCTYPE svg PUBLIC "-//W3C//DTD SVG 1.1//EN"
 "http://www.w3.org/Graphics/SVG/1.1/DTD/svg11.dtd">
<!-- Generated by graphviz version 2.38.0 (20140413.2041)
 -->
<!-- Title: ibm_tribend_tcl.cpp Pages: 1 -->
<svg width="800pt" height="375pt"
 viewBox="0.00 0.00 800.00 375.00" xmlns="http://www.w3.org/2000/svg" xmlns:xlink="http://www.w3.org/1999/xlink">
<g id="graph0" class="graph" transform="scale(1 1) rotate(0) translate(4 371)">
<title>ibm_tribend_tcl.cpp</title>
<!-- Node1 -->
<g id="node1" class="node"><title>Node1</title>
<polygon fill="#bfbfbf" stroke="black" points="296.5,-347.5 296.5,-366.5 409.5,-366.5 409.5,-347.5 296.5,-347.5"/>
<text text-anchor="middle" x="353" y="-354.5" font-family="Helvetica,sans-Serif" font-size="10.00">ibm_tribend_tcl.cpp</text>
</g>
<!-- Node2 -->
<g id="node2" class="node"><title>Node2</title>
<g id="a_node2"><a xlink:href="config_8hpp.html" target="_top" xlink:title="This file contains the defaults for Espresso. ">
<polygon fill="none" stroke="black" points="264.5,-56.5 264.5,-75.5 331.5,-75.5 331.5,-56.5 264.5,-56.5"/>
<text text-anchor="middle" x="298" y="-63.5" font-family="Helvetica,sans-Serif" font-size="10.00">config.hpp</text>
</a>
</g>
</g>
<!-- Node1&#45;&gt;Node2 -->
<g id="edge1" class="edge"><title>Node1&#45;&gt;Node2</title>
<path fill="none" stroke="midnightblue" d="M296.284,-348.525C196.5,-333.774 0,-296.87 0,-235 0,-235 0,-235 0,-177 0,-140.822 18.1918,-130.966 49,-112 82.6836,-91.2642 192.192,-77.4338 254.18,-71.0545"/>
<polygon fill="midnightblue" stroke="midnightblue" points="254.838,-74.506 264.438,-70.0222 254.137,-67.5412 254.838,-74.506"/>
</g>
<!-- Node6 -->
<g id="node6" class="node"><title>Node6</title>
<g id="a_node6"><a xlink:href="parser_8hpp.html" target="_top" xlink:title="This file contains macros for parsing the parameters to the &#39;inter&#39; command. ">
<polygon fill="none" stroke="black" points="419,-224.5 419,-243.5 487,-243.5 487,-224.5 419,-224.5"/>
<text text-anchor="middle" x="453" y="-231.5" font-family="Helvetica,sans-Serif" font-size="10.00">parser.hpp</text>
</a>
</g>
</g>
<!-- Node1&#45;&gt;Node6 -->
<g id="edge5" class="edge"><title>Node1&#45;&gt;Node6</title>
<path fill="none" stroke="midnightblue" d="M360.192,-347.298C376.769,-327.24 417.885,-277.489 439.394,-251.463"/>
<polygon fill="midnightblue" stroke="midnightblue" points="442.201,-253.561 445.873,-243.623 436.805,-249.102 442.201,-253.561"/>
</g>
<!-- Node21 -->
<g id="node21" class="node"><title>Node21</title>
<g id="a_node21"><a xlink:href="interaction__data_8hpp.html" target="_top" xlink:title="Various procedures concerning interactions between particles. ">
<polygon fill="none" stroke="black" points="251.5,-286 251.5,-305 368.5,-305 368.5,-286 251.5,-286"/>
<text text-anchor="middle" x="310" y="-293" font-family="Helvetica,sans-Serif" font-size="10.00">interaction_data.hpp</text>
</a>
</g>
</g>
<!-- Node1&#45;&gt;Node21 -->
<g id="edge25" class="edge"><title>Node1&#45;&gt;Node21</title>
<path fill="none" stroke="midnightblue" d="M346.839,-347.475C340.389,-338.55 330.096,-324.307 322.027,-313.143"/>
<polygon fill="midnightblue" stroke="midnightblue" points="324.844,-311.064 316.149,-305.009 319.17,-315.164 324.844,-311.064"/>
</g>
<!-- Node23 -->
<g id="node23" class="node"><title>Node23</title>
<g id="a_node23"><a xlink:href="ibm__tribend_8hpp.html" target="_top" xlink:title="immersed_boundary/ibm\l_tribend.hpp">
<polygon fill="none" stroke="black" points="425.5,-280.5 425.5,-310.5 564.5,-310.5 564.5,-280.5 425.5,-280.5"/>
<text text-anchor="start" x="433.5" y="-298.5" font-family="Helvetica,sans-Serif" font-size="10.00">immersed_boundary/ibm</text>
<text text-anchor="middle" x="495" y="-287.5" font-family="Helvetica,sans-Serif" font-size="10.00">_tribend.hpp</text>
</a>
</g>
</g>
<!-- Node1&#45;&gt;Node23 -->
<g id="edge29" class="edge"><title>Node1&#45;&gt;Node23</title>
<path fill="none" stroke="midnightblue" d="M373.345,-347.475C393.835,-338.889 426.07,-325.383 452.211,-314.429"/>
<polygon fill="midnightblue" stroke="midnightblue" points="453.663,-317.616 461.533,-310.523 450.958,-311.16 453.663,-317.616"/>
</g>
<!-- Node3 -->
<g id="node3" class="node"><title>Node3</title>
<g id="a_node3"><a xlink:href="acconfig_8hpp.html" target="_top" xlink:title="acconfig.hpp">
<polygon fill="none" stroke="black" points="148,-0.5 148,-19.5 226,-19.5 226,-0.5 148,-0.5"/>
<text text-anchor="middle" x="187" y="-7.5" font-family="Helvetica,sans-Serif" font-size="10.00">acconfig.hpp</text>
</a>
</g>
</g>
<!-- Node2&#45;&gt;Node3 -->
<g id="edge2" class="edge"><title>Node2&#45;&gt;Node3</title>
<path fill="none" stroke="midnightblue" d="M280.166,-56.324C262.284,-47.6247 234.525,-34.1202 213.954,-24.113"/>
<polygon fill="midnightblue" stroke="midnightblue" points="215.313,-20.8819 204.79,-19.6545 212.251,-27.1765 215.313,-20.8819"/>
</g>
<!-- Node4 -->
<g id="node4" class="node"><title>Node4</title>
<g id="a_node4"><a xlink:href="myconfig-final_8hpp.html" target="_top" xlink:title="myconfig&#45;final.hpp">
<polygon fill="none" stroke="black" points="244.5,-0.5 244.5,-19.5 351.5,-19.5 351.5,-0.5 244.5,-0.5"/>
<text text-anchor="middle" x="298" y="-7.5" font-family="Helvetica,sans-Serif" font-size="10.00">myconfig&#45;final.hpp</text>
</a>
</g>
</g>
<!-- Node2&#45;&gt;Node4 -->
<g id="edge3" class="edge"><title>Node2&#45;&gt;Node4</title>
<path fill="none" stroke="midnightblue" d="M298,-56.083C298,-49.0059 298,-38.8611 298,-29.9865"/>
<polygon fill="midnightblue" stroke="midnightblue" points="301.5,-29.751 298,-19.7511 294.5,-29.7511 301.5,-29.751"/>
</g>
<!-- Node5 -->
<g id="node5" class="node"><title>Node5</title>
<g id="a_node5"><a xlink:href="config-features_8hpp.html" target="_top" xlink:title="config&#45;features.hpp">
<polygon fill="none" stroke="black" points="369.5,-0.5 369.5,-19.5 480.5,-19.5 480.5,-0.5 369.5,-0.5"/>
<text text-anchor="middle" x="425" y="-7.5" font-family="Helvetica,sans-Serif" font-size="10.00">config&#45;features.hpp</text>
</a>
</g>
</g>
<!-- Node2&#45;&gt;Node5 -->
<g id="edge4" class="edge"><title>Node2&#45;&gt;Node5</title>
<path fill="none" stroke="midnightblue" d="M318.124,-56.4435C339.024,-47.5566 371.935,-33.5632 395.716,-23.4514"/>
<polygon fill="midnightblue" stroke="midnightblue" points="397.138,-26.6504 404.971,-19.5164 394.398,-20.2085 397.138,-26.6504"/>
</g>
<!-- Node7 -->
<g id="node7" class="node"><title>Node7</title>
<g id="a_node7"><a xlink:href="utils_8hpp.html" target="_top" xlink:title="Small functions that are useful not only for one modul. ">
<polygon fill="none" stroke="black" points="320.5,-168.5 320.5,-187.5 379.5,-187.5 379.5,-168.5 320.5,-168.5"/>
<text text-anchor="middle" x="350" y="-175.5" font-family="Helvetica,sans-Serif" font-size="10.00">utils.hpp</text>
</a>
</g>
</g>
<!-- Node6&#45;&gt;Node7 -->
<g id="edge6" class="edge"><title>Node6&#45;&gt;Node7</title>
<path fill="none" stroke="midnightblue" d="M436.451,-224.324C420.008,-215.703 394.565,-202.364 375.532,-192.386"/>
<polygon fill="midnightblue" stroke="midnightblue" points="376.989,-189.198 366.508,-187.655 373.739,-195.398 376.989,-189.198"/>
</g>
<!-- Node11 -->
<g id="node11" class="node"><title>Node11</title>
<polygon fill="none" stroke="#bfbfbf" points="742,-112.5 742,-131.5 792,-131.5 792,-112.5 742,-112.5"/>
<text text-anchor="middle" x="767" y="-119.5" font-family="Helvetica,sans-Serif" font-size="10.00">cstring</text>
</g>
<!-- Node6&#45;&gt;Node11 -->
<g id="edge23" class="edge"><title>Node6&#45;&gt;Node11</title>
<path fill="none" stroke="midnightblue" d="M452.771,-224.282C452.914,-210.124 455.441,-182.283 472,-168 514.257,-131.551 660.916,-142.337 731.923,-131.753"/>
<polygon fill="midnightblue" stroke="midnightblue" points="732.578,-135.192 741.829,-130.028 731.377,-128.295 732.578,-135.192"/>
</g>
<!-- Node20 -->
<g id="node20" class="node"><title>Node20</title>
<polygon fill="none" stroke="#bfbfbf" points="481,-168.5 481,-187.5 519,-187.5 519,-168.5 481,-168.5"/>
<text text-anchor="middle" x="500" y="-175.5" font-family="Helvetica,sans-Serif" font-size="10.00">tcl.h</text>
</g>
<!-- Node6&#45;&gt;Node20 -->
<g id="edge24" class="edge"><title>Node6&#45;&gt;Node20</title>
<path fill="none" stroke="midnightblue" d="M460.761,-224.083C467.537,-216.298 477.543,-204.801 485.755,-195.367"/>
<polygon fill="midnightblue" stroke="midnightblue" points="488.458,-197.592 492.383,-187.751 483.178,-192.996 488.458,-197.592"/>
</g>
<!-- Node7&#45;&gt;Node2 -->
<g id="edge11" class="edge"><title>Node7&#45;&gt;Node2</title>
<path fill="none" stroke="midnightblue" d="M320.407,-177.1C252.903,-176.633 90.7665,-171.348 57,-132 51.2113,-125.254 51.3207,-118.838 57,-112 81.5508,-82.4407 191.353,-72.1926 253.94,-68.7196"/>
<polygon fill="midnightblue" stroke="midnightblue" points="254.497,-72.1955 264.302,-68.1824 254.134,-65.2049 254.497,-72.1955"/>
</g>
<!-- Node8 -->
<g id="node8" class="node"><title>Node8</title>
<polygon fill="none" stroke="#bfbfbf" points="66.5,-112.5 66.5,-131.5 113.5,-131.5 113.5,-112.5 66.5,-112.5"/>
<text text-anchor="middle" x="90" y="-119.5" font-family="Helvetica,sans-Serif" font-size="10.00">cmath</text>
</g>
<!-- Node7&#45;&gt;Node8 -->
<g id="edge7" class="edge"><title>Node7&#45;&gt;Node8</title>
<path fill="none" stroke="midnightblue" d="M320.473,-171.834C278.806,-164.395 200.19,-149.816 123.56,-131.994"/>
<polygon fill="midnightblue" stroke="midnightblue" points="124.277,-128.567 113.742,-129.69 122.678,-135.382 124.277,-128.567"/>
</g>
<!-- Node9 -->
<g id="node9" class="node"><title>Node9</title>
<polygon fill="none" stroke="#bfbfbf" points="132,-112.5 132,-131.5 178,-131.5 178,-112.5 132,-112.5"/>
<text text-anchor="middle" x="155" y="-119.5" font-family="Helvetica,sans-Serif" font-size="10.00">cstdio</text>
</g>
<!-- Node7&#45;&gt;Node9 -->
<g id="edge8" class="edge"><title>Node7&#45;&gt;Node9</title>
<path fill="none" stroke="midnightblue" d="M320.244,-168.831C289.474,-160.374 239.78,-146.687 187.797,-132.213"/>
<polygon fill="midnightblue" stroke="midnightblue" points="188.641,-128.815 178.068,-129.502 186.762,-135.558 188.641,-128.815"/>
</g>
<!-- Node10 -->
<g id="node10" class="node"><title>Node10</title>
<polygon fill="none" stroke="#bfbfbf" points="196.5,-112.5 196.5,-131.5 245.5,-131.5 245.5,-112.5 196.5,-112.5"/>
<text text-anchor="middle" x="221" y="-119.5" font-family="Helvetica,sans-Serif" font-size="10.00">cstdlib</text>
</g>
<!-- Node7&#45;&gt;Node10 -->
<g id="edge9" class="edge"><title>Node7&#45;&gt;Node10</title>
<path fill="none" stroke="midnightblue" d="M329.56,-168.444C308.33,-159.557 274.901,-145.563 250.745,-135.451"/>
<polygon fill="midnightblue" stroke="midnightblue" points="251.921,-132.149 241.345,-131.516 249.218,-138.606 251.921,-132.149"/>
</g>
<!-- Node7&#45;&gt;Node11 -->
<g id="edge10" class="edge"><title>Node7&#45;&gt;Node11</title>
<path fill="none" stroke="midnightblue" d="M379.609,-173.766C458.351,-165.134 670.598,-141.646 731.937,-131.809"/>
<polygon fill="midnightblue" stroke="midnightblue" points="732.589,-135.249 741.84,-130.085 731.388,-128.352 732.589,-135.249"/>
</g>
<!-- Node12 -->
<g id="node12" class="node"><title>Node12</title>
<g id="a_node12"><a xlink:href="debug_8hpp.html" target="_top" xlink:title="This file controls debug facilities. ">
<polygon fill="none" stroke="black" points="264,-112.5 264,-131.5 332,-131.5 332,-112.5 264,-112.5"/>
<text text-anchor="middle" x="298" y="-119.5" font-family="Helvetica,sans-Serif" font-size="10.00">debug.hpp</text>
</a>
</g>
</g>
<!-- Node7&#45;&gt;Node12 -->
<g id="edge12" class="edge"><title>Node7&#45;&gt;Node12</title>
<path fill="none" stroke="midnightblue" d="M341.413,-168.083C333.841,-160.22 322.622,-148.569 313.486,-139.081"/>
<polygon fill="midnightblue" stroke="midnightblue" points="315.885,-136.527 306.427,-131.751 310.842,-141.382 315.885,-136.527"/>
</g>
<!-- Node13 -->
<g id="node13" class="node"><title>Node13</title>
<g id="a_node13"><a xlink:href="lees__edwards_8hpp.html" target="_top" xlink:title="lees_edwards.hpp">
<polygon fill="none" stroke="black" points="350,-112.5 350,-131.5 454,-131.5 454,-112.5 350,-112.5"/>
<text text-anchor="middle" x="402" y="-119.5" font-family="Helvetica,sans-Serif" font-size="10.00">lees_edwards.hpp</text>
</a>
</g>
</g>
<!-- Node7&#45;&gt;Node13 -->
<g id="edge14" class="edge"><title>Node7&#45;&gt;Node13</title>
<path fill="none" stroke="midnightblue" d="M358.587,-168.083C366.159,-160.22 377.378,-148.569 386.514,-139.081"/>
<polygon fill="midnightblue" stroke="midnightblue" points="389.158,-141.382 393.573,-131.751 384.115,-136.527 389.158,-141.382"/>
</g>
<!-- Node14 -->
<g id="node14" class="node"><title>Node14</title>
<g id="a_node14"><a xlink:href="errorhandling_8hpp.html" target="_top" xlink:title="This file contains the errorhandling code for severe errors, like a broken bond or illegal parameter ...">
<polygon fill="none" stroke="black" points="472.5,-112.5 472.5,-131.5 575.5,-131.5 575.5,-112.5 472.5,-112.5"/>
<text text-anchor="middle" x="524" y="-119.5" font-family="Helvetica,sans-Serif" font-size="10.00">errorhandling.hpp</text>
</a>
</g>
</g>
<!-- Node7&#45;&gt;Node14 -->
<g id="edge16" class="edge"><title>Node7&#45;&gt;Node14</title>
<path fill="none" stroke="midnightblue" d="M377.571,-168.444C407.097,-159.28 454.118,-144.688 486.883,-134.519"/>
<polygon fill="midnightblue" stroke="midnightblue" points="488.045,-137.823 496.558,-131.516 485.97,-131.138 488.045,-137.823"/>
</g>
<!-- Node18 -->
<g id="node18" class="node"><title>Node18</title>
<polygon fill="none" stroke="#bfbfbf" points="593.5,-112.5 593.5,-131.5 640.5,-131.5 640.5,-112.5 593.5,-112.5"/>
<text text-anchor="middle" x="617" y="-119.5" font-family="Helvetica,sans-Serif" font-size="10.00">vector</text>
</g>
<!-- Node7&#45;&gt;Node18 -->
<g id="edge21" class="edge"><title>Node7&#45;&gt;Node18</title>
<path fill="none" stroke="midnightblue" d="M379.849,-172.121C422.81,-164.919 504.742,-150.51 583.242,-132.271"/>
<polygon fill="midnightblue" stroke="midnightblue" points="584.358,-135.604 593.293,-129.91 582.757,-128.79 584.358,-135.604"/>
</g>
<!-- Node19 -->
<g id="node19" class="node"><title>Node19</title>
<polygon fill="none" stroke="#bfbfbf" points="658.5,-112.5 658.5,-131.5 723.5,-131.5 723.5,-112.5 658.5,-112.5"/>
<text text-anchor="middle" x="691" y="-119.5" font-family="Helvetica,sans-Serif" font-size="10.00">exception</text>
</g>
<!-- Node7&#45;&gt;Node19 -->
<g id="edge22" class="edge"><title>Node7&#45;&gt;Node19</title>
<path fill="none" stroke="midnightblue" d="M379.917,-173.19C432.317,-166.371 544.309,-151.15 648.327,-132.215"/>
<polygon fill="midnightblue" stroke="midnightblue" points="649.163,-135.62 658.366,-130.371 647.899,-128.735 649.163,-135.62"/>
</g>
<!-- Node12&#45;&gt;Node2 -->
<g id="edge13" class="edge"><title>Node12&#45;&gt;Node2</title>
<path fill="none" stroke="midnightblue" d="M298,-112.083C298,-105.006 298,-94.8611 298,-85.9865"/>
<polygon fill="midnightblue" stroke="midnightblue" points="301.5,-85.751 298,-75.7511 294.5,-85.7511 301.5,-85.751"/>
</g>
<!-- Node13&#45;&gt;Node2 -->
<g id="edge15" class="edge"><title>Node13&#45;&gt;Node2</title>
<path fill="none" stroke="midnightblue" d="M385.291,-112.324C368.688,-103.703 342.998,-90.3643 323.78,-80.3855"/>
<polygon fill="midnightblue" stroke="midnightblue" points="325.156,-77.1565 314.668,-75.6545 321.93,-83.3689 325.156,-77.1565"/>
</g>
<!-- Node14&#45;&gt;Node2 -->
<g id="edge17" class="edge"><title>Node14&#45;&gt;Node2</title>
<path fill="none" stroke="midnightblue" d="M488.19,-112.444C448.436,-102.945 384.269,-87.6129 341.617,-77.4217"/>
<polygon fill="midnightblue" stroke="midnightblue" points="342.337,-73.9953 331.797,-75.0755 340.71,-80.8037 342.337,-73.9953"/>
</g>
<!-- Node15 -->
<g id="node15" class="node"><title>Node15</title>
<polygon fill="none" stroke="#bfbfbf" points="434,-56.5 434,-75.5 478,-75.5 478,-56.5 434,-56.5"/>
<text text-anchor="middle" x="456" y="-63.5" font-family="Helvetica,sans-Serif" font-size="10.00">string</text>
</g>
<!-- Node14&#45;&gt;Node15 -->
<g id="edge18" class="edge"><title>Node14&#45;&gt;Node15</title>
<path fill="none" stroke="midnightblue" d="M513.075,-112.324C502.825,-104.185 487.279,-91.8395 474.999,-82.0874"/>
<polygon fill="midnightblue" stroke="midnightblue" points="477.132,-79.3119 467.124,-75.8339 472.779,-84.7937 477.132,-79.3119"/>
</g>
<!-- Node16 -->
<g id="node16" class="node"><title>Node16</title>
<polygon fill="none" stroke="#bfbfbf" points="496,-56.5 496,-75.5 552,-75.5 552,-56.5 496,-56.5"/>
<text text-anchor="middle" x="524" y="-63.5" font-family="Helvetica,sans-Serif" font-size="10.00">sstream</text>
</g>
<!-- Node14&#45;&gt;Node16 -->
<g id="edge19" class="edge"><title>Node14&#45;&gt;Node16</title>
<path fill="none" stroke="midnightblue" d="M524,-112.083C524,-105.006 524,-94.8611 524,-85.9865"/>
<polygon fill="midnightblue" stroke="midnightblue" points="527.5,-85.751 524,-75.7511 520.5,-85.7511 527.5,-85.751"/>
</g>
<!-- Node17 -->
<g id="node17" class="node"><title>Node17</title>
<polygon fill="none" stroke="#bfbfbf" points="570,-56.5 570,-75.5 602,-75.5 602,-56.5 570,-56.5"/>
<text text-anchor="middle" x="586" y="-63.5" font-family="Helvetica,sans-Serif" font-size="10.00">list</text>
</g>
<!-- Node14&#45;&gt;Node17 -->
<g id="edge20" class="edge"><title>Node14&#45;&gt;Node17</title>
<path fill="none" stroke="midnightblue" d="M533.961,-112.324C543.127,-104.341 556.937,-92.3128 568.028,-82.6529"/>
<polygon fill="midnightblue" stroke="midnightblue" points="570.615,-85.041 575.857,-75.8339 566.018,-79.7624 570.615,-85.041"/>
</g>
<!-- Node21&#45;&gt;Node7 -->
<g id="edge26" class="edge"><title>Node21&#45;&gt;Node7</title>
<path fill="none" stroke="midnightblue" d="M303.659,-285.876C294.443,-272.198 279.531,-244.938 290,-224 296.728,-210.543 309.606,-200.067 321.712,-192.621"/>
<polygon fill="midnightblue" stroke="midnightblue" points="323.733,-195.498 330.704,-187.52 320.279,-189.41 323.733,-195.498"/>
</g>
<!-- Node22 -->
<g id="node22" class="node"><title>Node22</title>
<g id="a_node22"><a xlink:href="particle__data_8hpp.html" target="_top" xlink:title="For more information on particle_data, see particle_data.c. ">
<polygon fill="none" stroke="black" points="299.5,-224.5 299.5,-243.5 400.5,-243.5 400.5,-224.5 299.5,-224.5"/>
<text text-anchor="middle" x="350" y="-231.5" font-family="Helvetica,sans-Serif" font-size="10.00">particle_data.hpp</text>
</a>
</g>
</g>
<!-- Node21&#45;&gt;Node22 -->
<g id="edge27" class="edge"><title>Node21&#45;&gt;Node22</title>
<path fill="none" stroke="midnightblue" d="M315.731,-285.975C321.672,-277.138 331.117,-263.089 338.588,-251.975"/>
<polygon fill="midnightblue" stroke="midnightblue" points="341.605,-253.761 344.28,-243.509 335.796,-249.855 341.605,-253.761"/>
</g>
<!-- Node22&#45;&gt;Node7 -->
<g id="edge28" class="edge"><title>Node22&#45;&gt;Node7</title>
<path fill="none" stroke="midnightblue" d="M350,-224.083C350,-217.006 350,-206.861 350,-197.986"/>
<polygon fill="midnightblue" stroke="midnightblue" points="353.5,-197.751 350,-187.751 346.5,-197.751 353.5,-197.751"/>
</g>
</g>
</svg>
