<?xml version="1.0" encoding="UTF-8" standalone="no"?>
<!DOCTYPE svg PUBLIC "-//W3C//DTD SVG 1.1//EN"
 "http://www.w3.org/Graphics/SVG/1.1/DTD/svg11.dtd">
<!-- Generated by graphviz version 2.38.0 (20140413.2041)
 -->
<!-- Title: iccp3m.hpp Pages: 1 -->
<svg width="2832pt" height="274pt"
 viewBox="0.00 0.00 2831.50 274.00" xmlns="http://www.w3.org/2000/svg" xmlns:xlink="http://www.w3.org/1999/xlink">
<g id="graph0" class="graph" transform="scale(1 1) rotate(0) translate(4 270)">
<title>iccp3m.hpp</title>
<!-- Node1 -->
<g id="node1" class="node"><title>Node1</title>
<polygon fill="#bfbfbf" stroke="black" points="1381,-246.5 1381,-265.5 1454,-265.5 1454,-246.5 1381,-246.5"/>
<text text-anchor="middle" x="1417.5" y="-253.5" font-family="Helvetica,sans-Serif" font-size="10.00">iccp3m.hpp</text>
</g>
<!-- Node2 -->
<g id="node2" class="node"><title>Node2</title>
<g id="a_node2"><a xlink:href="forces_8hpp.html" target="_top" xlink:title="Force calculation. ">
<polygon fill="none" stroke="black" points="1383.5,-190.5 1383.5,-209.5 1451.5,-209.5 1451.5,-190.5 1383.5,-190.5"/>
<text text-anchor="middle" x="1417.5" y="-197.5" font-family="Helvetica,sans-Serif" font-size="10.00">forces.hpp</text>
</a>
</g>
</g>
<!-- Node1&#45;&gt;Node2 -->
<g id="edge1" class="edge"><title>Node1&#45;&gt;Node2</title>
<path fill="none" stroke="midnightblue" d="M1411.03,-236.101C1410.4,-227.136 1410.84,-216.858 1412.37,-209.751"/>
<polygon fill="midnightblue" stroke="midnightblue" points="1407.57,-236.622 1412.33,-246.083 1414.51,-235.713 1407.57,-236.622"/>
</g>
<!-- Node6 -->
<g id="node6" class="node"><title>Node6</title>
<g id="a_node6"><a xlink:href="communication_8cpp.html" target="_top" xlink:title="communication.cpp">
<polygon fill="none" stroke="black" points="97,-6 97,-25 210,-25 210,-6 97,-6"/>
<text text-anchor="middle" x="153.5" y="-13" font-family="Helvetica,sans-Serif" font-size="10.00">communication.cpp</text>
</a>
</g>
</g>
<!-- Node1&#45;&gt;Node6 -->
<g id="edge51" class="edge"><title>Node1&#45;&gt;Node6</title>
<path fill="none" stroke="midnightblue" d="M1370.86,-253.195C1235.31,-247.235 830.306,-224.378 502.5,-154 407.955,-133.702 385.05,-123.489 295.5,-87 248.09,-67.682 194.612,-39.219 168.911,-25.0977"/>
<polygon fill="midnightblue" stroke="midnightblue" points="1370.75,-256.693 1380.89,-253.626 1371.05,-249.7 1370.75,-256.693"/>
</g>
<!-- Node11 -->
<g id="node11" class="node"><title>Node11</title>
<g id="a_node11"><a xlink:href="initialize_8cpp.html" target="_top" xlink:title="Implementation of initialize.hpp. ">
<polygon fill="none" stroke="black" points="0,-6 0,-25 79,-25 79,-6 0,-6"/>
<text text-anchor="middle" x="39.5" y="-13" font-family="Helvetica,sans-Serif" font-size="10.00">initialize.cpp</text>
</a>
</g>
</g>
<!-- Node1&#45;&gt;Node11 -->
<g id="edge53" class="edge"><title>Node1&#45;&gt;Node11</title>
<path fill="none" stroke="midnightblue" d="M1370.55,-253.812C1256.34,-250.535 955.081,-239.567 705.5,-210 561.684,-192.963 523.841,-193.463 384.5,-154 255.152,-117.367 107.649,-49.1972 57.3655,-25.1611"/>
<polygon fill="midnightblue" stroke="midnightblue" points="1370.59,-257.314 1380.69,-254.096 1370.79,-250.317 1370.59,-257.314"/>
</g>
<!-- Node32 -->
<g id="node32" class="node"><title>Node32</title>
<g id="a_node32"><a xlink:href="iccp3m_8cpp.html" target="_top" xlink:title="Detailed Information about the method is included in the corresponding header file iccp3m...">
<polygon fill="none" stroke="black" points="2751.5,-129 2751.5,-148 2823.5,-148 2823.5,-129 2751.5,-129"/>
<text text-anchor="middle" x="2787.5" y="-136" font-family="Helvetica,sans-Serif" font-size="10.00">iccp3m.cpp</text>
</a>
</g>
</g>
<!-- Node1&#45;&gt;Node32 -->
<g id="edge52" class="edge"><title>Node1&#45;&gt;Node32</title>
<path fill="none" stroke="midnightblue" d="M1431.68,-238.664C1446.52,-222.889 1471.41,-199.968 1498.5,-190 1628.27,-142.248 2606.22,-177.439 2742.5,-154 2749.94,-152.72 2757.85,-150.487 2764.92,-148.152"/>
<polygon fill="midnightblue" stroke="midnightblue" points="1429.01,-236.4 1424.88,-246.156 1434.19,-241.107 1429.01,-236.4"/>
</g>
<!-- Node40 -->
<g id="node40" class="node"><title>Node40</title>
<g id="a_node40"><a xlink:href="iccp3m__tcl_8cpp.html" target="_top" xlink:title="iccp3m_tcl.cpp">
<polygon fill="none" stroke="black" points="1508,-190.5 1508,-209.5 1597,-209.5 1597,-190.5 1508,-190.5"/>
<text text-anchor="middle" x="1552.5" y="-197.5" font-family="Helvetica,sans-Serif" font-size="10.00">iccp3m_tcl.cpp</text>
</a>
</g>
</g>
<!-- Node1&#45;&gt;Node40 -->
<g id="edge54" class="edge"><title>Node1&#45;&gt;Node40</title>
<path fill="none" stroke="midnightblue" d="M1448.41,-242.638C1473.74,-232.504 1508.93,-218.427 1531.21,-209.516"/>
<polygon fill="midnightblue" stroke="midnightblue" points="1446.88,-239.48 1438.89,-246.444 1449.48,-245.979 1446.88,-239.48"/>
</g>
<!-- Node2&#45;&gt;Node1 -->
<g id="edge6" class="edge"><title>Node2&#45;&gt;Node1</title>
<path fill="none" stroke="midnightblue" d="M1423.96,-219.691C1424.61,-228.635 1424.18,-238.927 1422.67,-246.083"/>
<polygon fill="midnightblue" stroke="midnightblue" points="1427.42,-219.2 1422.63,-209.751 1420.48,-220.126 1427.42,-219.2"/>
</g>
<!-- Node3 -->
<g id="node3" class="node"><title>Node3</title>
<g id="a_node3"><a xlink:href="HarmonicOrientationWell_8cpp.html" target="_top" xlink:title="HarmonicOrientationWell.cpp">
<polygon fill="none" stroke="black" points="2310.5,-129 2310.5,-148 2470.5,-148 2470.5,-129 2310.5,-129"/>
<text text-anchor="middle" x="2390.5" y="-136" font-family="Helvetica,sans-Serif" font-size="10.00">HarmonicOrientationWell.cpp</text>
</a>
</g>
</g>
<!-- Node2&#45;&gt;Node3 -->
<g id="edge2" class="edge"><title>Node2&#45;&gt;Node3</title>
<path fill="none" stroke="midnightblue" d="M1461.69,-190.471C1462.97,-190.302 1464.24,-190.144 1465.5,-190 1834.98,-147.624 1931.54,-191.968 2301.5,-154 2315.52,-152.562 2330.68,-150.342 2344.45,-148.069"/>
<polygon fill="midnightblue" stroke="midnightblue" points="1461.13,-187.016 1451.76,-191.963 1462.17,-193.939 1461.13,-187.016"/>
</g>
<!-- Node4 -->
<g id="node4" class="node"><title>Node4</title>
<g id="a_node4"><a xlink:href="HarmonicWell_8cpp.html" target="_top" xlink:title="HarmonicWell.cpp">
<polygon fill="none" stroke="black" points="2489,-129 2489,-148 2594,-148 2594,-129 2489,-129"/>
<text text-anchor="middle" x="2541.5" y="-136" font-family="Helvetica,sans-Serif" font-size="10.00">HarmonicWell.cpp</text>
</a>
</g>
</g>
<!-- Node2&#45;&gt;Node4 -->
<g id="edge3" class="edge"><title>Node2&#45;&gt;Node4</title>
<path fill="none" stroke="midnightblue" d="M1461.69,-190.459C1462.97,-190.293 1464.24,-190.139 1465.5,-190 1913.7,-140.308 2032.51,-213.628 2479.5,-154 2489.58,-152.655 2500.42,-150.404 2510.18,-148.072"/>
<polygon fill="midnightblue" stroke="midnightblue" points="1461.13,-187.003 1451.75,-191.932 1462.16,-193.927 1461.13,-187.003"/>
</g>
<!-- Node5 -->
<g id="node5" class="node"><title>Node5</title>
<g id="a_node5"><a xlink:href="Mmm1dgpuForce_8cpp.html" target="_top" xlink:title="Mmm1dgpuForce.cpp">
<polygon fill="none" stroke="black" points="2612,-129 2612,-148 2733,-148 2733,-129 2612,-129"/>
<text text-anchor="middle" x="2672.5" y="-136" font-family="Helvetica,sans-Serif" font-size="10.00">Mmm1dgpuForce.cpp</text>
</a>
</g>
</g>
<!-- Node2&#45;&gt;Node5 -->
<g id="edge4" class="edge"><title>Node2&#45;&gt;Node5</title>
<path fill="none" stroke="midnightblue" d="M1461.69,-190.452C1462.97,-190.288 1464.24,-190.137 1465.5,-190 1968.56,-135.21 2101.07,-214.265 2603.5,-154 2614.8,-152.644 2627,-150.36 2637.95,-148.001"/>
<polygon fill="midnightblue" stroke="midnightblue" points="1461.14,-186.995 1451.75,-191.915 1462.16,-193.921 1461.14,-186.995"/>
</g>
<!-- Node2&#45;&gt;Node6 -->
<g id="edge5" class="edge"><title>Node2&#45;&gt;Node6</title>
<path fill="none" stroke="midnightblue" d="M1373.35,-198.507C1259.22,-196.751 945.251,-188.865 686.5,-154 542.495,-134.596 506.809,-124.779 366.5,-87 296.353,-68.1126 215.366,-39.3279 176.562,-25.0908"/>
<polygon fill="midnightblue" stroke="midnightblue" points="1373.4,-202.008 1383.45,-198.654 1373.5,-195.009 1373.4,-202.008"/>
</g>
<!-- Node7 -->
<g id="node7" class="node"><title>Node7</title>
<g id="a_node7"><a xlink:href="forces__inline_8hpp.html" target="_top" xlink:title="forces_inline.hpp">
<polygon fill="none" stroke="black" points="902.5,-129 902.5,-148 1002.5,-148 1002.5,-129 902.5,-129"/>
<text text-anchor="middle" x="952.5" y="-136" font-family="Helvetica,sans-Serif" font-size="10.00">forces_inline.hpp</text>
</a>
</g>
</g>
<!-- Node2&#45;&gt;Node7 -->
<g id="edge7" class="edge"><title>Node2&#45;&gt;Node7</title>
<path fill="none" stroke="midnightblue" d="M1373.26,-193.339C1286.46,-182.232 1094.35,-157.651 1002.85,-145.943"/>
<polygon fill="midnightblue" stroke="midnightblue" points="1372.94,-196.827 1383.31,-194.625 1373.83,-189.884 1372.94,-196.827"/>
</g>
<!-- Node9 -->
<g id="node9" class="node"><title>Node9</title>
<g id="a_node9"><a xlink:href="domain__decomposition_8cpp.html" target="_top" xlink:title="This file contains everything related to the cell system: domain decomposition. ">
<polygon fill="none" stroke="black" points="623,-6 623,-25 774,-25 774,-6 623,-6"/>
<text text-anchor="middle" x="698.5" y="-13" font-family="Helvetica,sans-Serif" font-size="10.00">domain_decomposition.cpp</text>
</a>
</g>
</g>
<!-- Node2&#45;&gt;Node9 -->
<g id="edge34" class="edge"><title>Node2&#45;&gt;Node9</title>
<path fill="none" stroke="midnightblue" d="M1372.75,-198.045C1237.71,-194.851 840.513,-183.061 790.5,-154 738.349,-123.696 709.85,-50.5842 701.292,-25.2879"/>
<polygon fill="midnightblue" stroke="midnightblue" points="1373.05,-201.553 1383.13,-198.285 1373.21,-194.554 1373.05,-201.553"/>
</g>
<!-- Node2&#45;&gt;Node11 -->
<g id="edge38" class="edge"><title>Node2&#45;&gt;Node11</title>
<path fill="none" stroke="midnightblue" d="M1372.68,-198.212C1213.06,-195.187 672.819,-182.998 502.5,-154 328.496,-124.375 127.603,-50.5026 61.6887,-25.1791"/>
<polygon fill="midnightblue" stroke="midnightblue" points="1373,-201.719 1383.07,-198.407 1373.14,-194.72 1373,-201.719"/>
</g>
<!-- Node12 -->
<g id="node12" class="node"><title>Node12</title>
<g id="a_node12"><a xlink:href="core_2integrate_8cpp.html" target="_top" xlink:title="integrate.cpp">
<polygon fill="none" stroke="black" points="524,-6 524,-25 605,-25 605,-6 524,-6"/>
<text text-anchor="middle" x="564.5" y="-13" font-family="Helvetica,sans-Serif" font-size="10.00">integrate.cpp</text>
</a>
</g>
</g>
<!-- Node2&#45;&gt;Node12 -->
<g id="edge39" class="edge"><title>Node2&#45;&gt;Node12</title>
<path fill="none" stroke="midnightblue" d="M1372.79,-199.232C1242.52,-199.398 865.21,-196.129 750.5,-154 670.963,-124.789 596.181,-50.3216 572.348,-25.0444"/>
<polygon fill="midnightblue" stroke="midnightblue" points="1373.19,-202.731 1383.18,-199.21 1373.18,-195.731 1373.19,-202.731"/>
</g>
<!-- Node13 -->
<g id="node13" class="node"><title>Node13</title>
<g id="a_node13"><a xlink:href="integrate__sd_8cpp.html" target="_top" xlink:title="Stokesian dynamics integrator. ">
<polygon fill="none" stroke="black" points="1809.5,-6 1809.5,-25 1907.5,-25 1907.5,-6 1809.5,-6"/>
<text text-anchor="middle" x="1858.5" y="-13" font-family="Helvetica,sans-Serif" font-size="10.00">integrate_sd.cpp</text>
</a>
</g>
</g>
<!-- Node2&#45;&gt;Node13 -->
<g id="edge40" class="edge"><title>Node2&#45;&gt;Node13</title>
<path fill="none" stroke="midnightblue" d="M1373.02,-195.401C1319.88,-190.071 1235.73,-178.008 1216.5,-154 1192.33,-123.819 1190.01,-95.17 1216.5,-67 1261.03,-19.6364 1736.25,-40.9256 1800.5,-31 1809.83,-29.558 1819.86,-27.3089 1828.91,-25.0089"/>
<polygon fill="midnightblue" stroke="midnightblue" points="1372.91,-198.907 1383.2,-196.379 1373.58,-191.939 1372.91,-198.907"/>
</g>
<!-- Node15 -->
<g id="node15" class="node"><title>Node15</title>
<g id="a_node15"><a xlink:href="layered_8cpp.html" target="_top" xlink:title="Implementation of layered.h. ">
<polygon fill="none" stroke="black" points="792.5,-6 792.5,-25 866.5,-25 866.5,-6 792.5,-6"/>
<text text-anchor="middle" x="829.5" y="-13" font-family="Helvetica,sans-Serif" font-size="10.00">layered.cpp</text>
</a>
</g>
</g>
<!-- Node2&#45;&gt;Node15 -->
<g id="edge41" class="edge"><title>Node2&#45;&gt;Node15</title>
<path fill="none" stroke="midnightblue" d="M1373.17,-197.354C1263.76,-192.945 983.283,-179.444 893.5,-154 829.82,-135.953 795.212,-143.355 760.5,-87 744.602,-61.19 783.673,-37.3684 809.301,-25.1239"/>
<polygon fill="midnightblue" stroke="midnightblue" points="1373.08,-200.853 1383.21,-197.752 1373.36,-193.858 1373.08,-200.853"/>
</g>
<!-- Node16 -->
<g id="node16" class="node"><title>Node16</title>
<g id="a_node16"><a xlink:href="nsquare_8cpp.html" target="_top" xlink:title="Implementation of nsquare.h. ">
<polygon fill="none" stroke="black" points="1925.5,-6 1925.5,-25 2001.5,-25 2001.5,-6 1925.5,-6"/>
<text text-anchor="middle" x="1963.5" y="-13" font-family="Helvetica,sans-Serif" font-size="10.00">nsquare.cpp</text>
</a>
</g>
</g>
<!-- Node2&#45;&gt;Node16 -->
<g id="edge43" class="edge"><title>Node2&#45;&gt;Node16</title>
<path fill="none" stroke="midnightblue" d="M1373.17,-192.848C1330.01,-185.842 1268.86,-172.867 1254.5,-154 1231.08,-123.235 1227.91,-95.074 1254.5,-67 1305.15,-13.516 1843.98,-43.9551 1916.5,-31 1924.23,-29.6184 1932.48,-27.3571 1939.87,-25.0269"/>
<polygon fill="midnightblue" stroke="midnightblue" points="1372.75,-196.325 1383.18,-194.418 1373.84,-189.41 1372.75,-196.325"/>
</g>
<!-- Node20 -->
<g id="node20" class="node"><title>Node20</title>
<g id="a_node20"><a xlink:href="verlet_8cpp.html" target="_top" xlink:title="Verlet list. ">
<polygon fill="none" stroke="black" points="2020,-6 2020,-25 2085,-25 2085,-6 2020,-6"/>
<text text-anchor="middle" x="2052.5" y="-13" font-family="Helvetica,sans-Serif" font-size="10.00">verlet.cpp</text>
</a>
</g>
</g>
<!-- Node2&#45;&gt;Node20 -->
<g id="edge46" class="edge"><title>Node2&#45;&gt;Node20</title>
<path fill="none" stroke="midnightblue" d="M1373.33,-190.306C1325.02,-178.899 1258.14,-156.334 1287.5,-123 1394.55,-1.46198 1852.78,-67.8444 2010.5,-31 2017.11,-29.4557 2024.14,-27.2598 2030.52,-25.0426"/>
<polygon fill="midnightblue" stroke="midnightblue" points="1372.78,-193.772 1383.31,-192.571 1374.33,-186.945 1372.78,-193.772"/>
</g>
<!-- Node30 -->
<g id="node30" class="node"><title>Node30</title>
<g id="a_node30"><a xlink:href="energy_8cpp.html" target="_top" xlink:title="Implementation of energy.hpp. ">
<polygon fill="none" stroke="black" points="1297,-129 1297,-148 1366,-148 1366,-129 1297,-129"/>
<text text-anchor="middle" x="1331.5" y="-136" font-family="Helvetica,sans-Serif" font-size="10.00">energy.cpp</text>
</a>
</g>
</g>
<!-- Node2&#45;&gt;Node30 -->
<g id="edge35" class="edge"><title>Node2&#45;&gt;Node30</title>
<path fill="none" stroke="midnightblue" d="M1396.7,-184.613C1380.16,-173.169 1357.58,-157.546 1343.8,-148.009"/>
<polygon fill="midnightblue" stroke="midnightblue" points="1394.96,-187.664 1405.18,-190.475 1398.95,-181.907 1394.96,-187.664"/>
</g>
<!-- Node31 -->
<g id="node31" class="node"><title>Node31</title>
<g id="a_node31"><a xlink:href="galilei_8cpp.html" target="_top" xlink:title="galilei.cpp">
<polygon fill="none" stroke="black" points="1384,-129 1384,-148 1451,-148 1451,-129 1384,-129"/>
<text text-anchor="middle" x="1417.5" y="-136" font-family="Helvetica,sans-Serif" font-size="10.00">galilei.cpp</text>
</a>
</g>
</g>
<!-- Node2&#45;&gt;Node31 -->
<g id="edge36" class="edge"><title>Node2&#45;&gt;Node31</title>
<path fill="none" stroke="midnightblue" d="M1417.5,-180.317C1417.5,-169.496 1417.5,-156.398 1417.5,-148.009"/>
<polygon fill="midnightblue" stroke="midnightblue" points="1414,-180.475 1417.5,-190.475 1421,-180.475 1414,-180.475"/>
</g>
<!-- Node2&#45;&gt;Node32 -->
<g id="edge37" class="edge"><title>Node2&#45;&gt;Node32</title>
<path fill="none" stroke="midnightblue" d="M1461.69,-190.446C1462.97,-190.284 1464.24,-190.135 1465.5,-190 1747.77,-159.748 2462.7,-202.015 2742.5,-154 2750.1,-152.695 2758.19,-150.393 2765.38,-148.003"/>
<polygon fill="midnightblue" stroke="midnightblue" points="1461.14,-186.989 1451.75,-191.901 1462.15,-193.915 1461.14,-186.989"/>
</g>
<!-- Node33 -->
<g id="node33" class="node"><title>Node33</title>
<g id="a_node33"><a xlink:href="molforces_8cpp.html" target="_top" xlink:title="Routines for calculating and applying trap forces upon molecules. ">
<polygon fill="none" stroke="black" points="1469.5,-129 1469.5,-148 1555.5,-148 1555.5,-129 1469.5,-129"/>
<text text-anchor="middle" x="1512.5" y="-136" font-family="Helvetica,sans-Serif" font-size="10.00">molforces.cpp</text>
</a>
</g>
</g>
<!-- Node2&#45;&gt;Node33 -->
<g id="edge42" class="edge"><title>Node2&#45;&gt;Node33</title>
<path fill="none" stroke="midnightblue" d="M1439.71,-185.087C1458.05,-173.604 1483.48,-157.678 1498.91,-148.009"/>
<polygon fill="midnightblue" stroke="midnightblue" points="1437.73,-182.201 1431.11,-190.475 1441.44,-188.133 1437.73,-182.201"/>
</g>
<!-- Node34 -->
<g id="node34" class="node"><title>Node34</title>
<g id="a_node34"><a xlink:href="reaction_8cpp.html" target="_top" xlink:title="reaction.cpp">
<polygon fill="none" stroke="black" points="1574,-129 1574,-148 1651,-148 1651,-129 1574,-129"/>
<text text-anchor="middle" x="1612.5" y="-136" font-family="Helvetica,sans-Serif" font-size="10.00">reaction.cpp</text>
</a>
</g>
</g>
<!-- Node2&#45;&gt;Node34 -->
<g id="edge44" class="edge"><title>Node2&#45;&gt;Node34</title>
<path fill="none" stroke="midnightblue" d="M1455.1,-187.529C1492.99,-175.965 1550.61,-158.385 1584.61,-148.009"/>
<polygon fill="midnightblue" stroke="midnightblue" points="1453.98,-184.209 1445.44,-190.475 1456.02,-190.904 1453.98,-184.209"/>
</g>
<!-- Node35 -->
<g id="node35" class="node"><title>Node35</title>
<g id="a_node35"><a xlink:href="rotation_8cpp.html" target="_top" xlink:title="Molecular dynamics integrator for rotational motion. ">
<polygon fill="none" stroke="black" points="1669,-129 1669,-148 1744,-148 1744,-129 1669,-129"/>
<text text-anchor="middle" x="1706.5" y="-136" font-family="Helvetica,sans-Serif" font-size="10.00">rotation.cpp</text>
</a>
</g>
</g>
<!-- Node2&#45;&gt;Node35 -->
<g id="edge45" class="edge"><title>Node2&#45;&gt;Node35</title>
<path fill="none" stroke="midnightblue" d="M1461.65,-190.718C1462.95,-190.476 1464.23,-190.236 1465.5,-190 1551.71,-173.919 1574.35,-174.961 1659.5,-154 1666.47,-152.285 1673.92,-150.135 1680.79,-148.019"/>
<polygon fill="midnightblue" stroke="midnightblue" points="1460.77,-187.322 1451.59,-192.601 1462.06,-194.203 1460.77,-187.322"/>
</g>
<!-- Node36 -->
<g id="node36" class="node"><title>Node36</title>
<g id="a_node36"><a xlink:href="virtual__sites__com_8cpp.html" target="_top" xlink:title="virtual_sites_com.cpp">
<polygon fill="none" stroke="black" points="1762,-129 1762,-148 1885,-148 1885,-129 1762,-129"/>
<text text-anchor="middle" x="1823.5" y="-136" font-family="Helvetica,sans-Serif" font-size="10.00">virtual_sites_com.cpp</text>
</a>
</g>
</g>
<!-- Node2&#45;&gt;Node36 -->
<g id="edge47" class="edge"><title>Node2&#45;&gt;Node36</title>
<path fill="none" stroke="midnightblue" d="M1461.64,-190.619C1462.94,-190.406 1464.23,-190.199 1465.5,-190 1592.51,-170.145 1625.65,-174.877 1752.5,-154 1762.93,-152.284 1774.16,-150.133 1784.54,-148.017"/>
<polygon fill="midnightblue" stroke="midnightblue" points="1460.81,-187.21 1451.54,-192.353 1461.99,-194.109 1460.81,-187.21"/>
</g>
<!-- Node37 -->
<g id="node37" class="node"><title>Node37</title>
<g id="a_node37"><a xlink:href="Ewaldgpu__tcl_8cpp.html" target="_top" xlink:title="Ewaldgpu_tcl.cpp">
<polygon fill="none" stroke="black" points="1903,-129 1903,-148 2004,-148 2004,-129 1903,-129"/>
<text text-anchor="middle" x="1953.5" y="-136" font-family="Helvetica,sans-Serif" font-size="10.00">Ewaldgpu_tcl.cpp</text>
</a>
</g>
</g>
<!-- Node2&#45;&gt;Node37 -->
<g id="edge48" class="edge"><title>Node2&#45;&gt;Node37</title>
<path fill="none" stroke="midnightblue" d="M1461.63,-190.55C1462.93,-190.357 1464.22,-190.173 1465.5,-190 1654.67,-164.377 1705.06,-184.51 1893.5,-154 1902.92,-152.476 1913.04,-150.259 1922.23,-148.015"/>
<polygon fill="midnightblue" stroke="midnightblue" points="1460.83,-187.132 1451.52,-192.18 1461.95,-194.043 1460.83,-187.132"/>
</g>
<!-- Node38 -->
<g id="node38" class="node"><title>Node38</title>
<g id="a_node38"><a xlink:href="HarmonicOrientationWell__tcl_8cpp.html" target="_top" xlink:title="HarmonicOrientationWell\l_tcl.cpp">
<polygon fill="none" stroke="black" points="2022.5,-123.5 2022.5,-153.5 2162.5,-153.5 2162.5,-123.5 2022.5,-123.5"/>
<text text-anchor="start" x="2030.5" y="-141.5" font-family="Helvetica,sans-Serif" font-size="10.00">HarmonicOrientationWell</text>
<text text-anchor="middle" x="2092.5" y="-130.5" font-family="Helvetica,sans-Serif" font-size="10.00">_tcl.cpp</text>
</a>
</g>
</g>
<!-- Node2&#45;&gt;Node38 -->
<g id="edge49" class="edge"><title>Node2&#45;&gt;Node38</title>
<path fill="none" stroke="midnightblue" d="M1461.62,-190.519C1462.93,-190.335 1464.22,-190.161 1465.5,-190 1707.22,-159.496 1770.69,-183.774 2012.5,-154 2015.72,-153.603 2019.01,-153.161 2022.33,-152.684"/>
<polygon fill="midnightblue" stroke="midnightblue" points="1460.85,-187.098 1451.51,-192.103 1461.93,-194.014 1460.85,-187.098"/>
</g>
<!-- Node39 -->
<g id="node39" class="node"><title>Node39</title>
<g id="a_node39"><a xlink:href="Mmm1dgpu__tcl_8cpp.html" target="_top" xlink:title="Mmm1dgpu_tcl.cpp">
<polygon fill="none" stroke="black" points="2180.5,-129 2180.5,-148 2292.5,-148 2292.5,-129 2180.5,-129"/>
<text text-anchor="middle" x="2236.5" y="-136" font-family="Helvetica,sans-Serif" font-size="10.00">Mmm1dgpu_tcl.cpp</text>
</a>
</g>
</g>
<!-- Node2&#45;&gt;Node39 -->
<g id="edge50" class="edge"><title>Node2&#45;&gt;Node39</title>
<path fill="none" stroke="midnightblue" d="M1461.62,-190.494C1462.93,-190.317 1464.22,-190.152 1465.5,-190 1777.5,-152.966 1860.18,-196.353 2171.5,-154 2181.93,-152.582 2193.15,-150.339 2203.29,-148.038"/>
<polygon fill="midnightblue" stroke="midnightblue" points="1460.86,-187.07 1451.5,-192.04 1461.92,-193.989 1460.86,-187.07"/>
</g>
<!-- Node8 -->
<g id="node8" class="node"><title>Node8</title>
<g id="a_node8"><a xlink:href="pressure_8hpp.html" target="_top" xlink:title="Pressure calculation. ">
<polygon fill="none" stroke="black" points="980.5,-67.5 980.5,-86.5 1060.5,-86.5 1060.5,-67.5 980.5,-67.5"/>
<text text-anchor="middle" x="1020.5" y="-74.5" font-family="Helvetica,sans-Serif" font-size="10.00">pressure.hpp</text>
</a>
</g>
</g>
<!-- Node7&#45;&gt;Node8 -->
<g id="edge8" class="edge"><title>Node7&#45;&gt;Node8</title>
<path fill="none" stroke="midnightblue" d="M970.043,-122.15C983.008,-110.806 1000.18,-95.7811 1010.78,-86.5091"/>
<polygon fill="midnightblue" stroke="midnightblue" points="967.464,-119.756 962.243,-128.975 972.073,-125.024 967.464,-119.756"/>
</g>
<!-- Node7&#45;&gt;Node15 -->
<g id="edge33" class="edge"><title>Node7&#45;&gt;Node15</title>
<path fill="none" stroke="midnightblue" d="M951.332,-118.682C949.474,-103.241 944.704,-81.617 932.5,-67 921.587,-53.9292 879.296,-35.788 852.416,-25.182"/>
<polygon fill="midnightblue" stroke="midnightblue" points="947.846,-119 952.234,-128.644 954.817,-118.369 947.846,-119"/>
</g>
<!-- Node24 -->
<g id="node24" class="node"><title>Node24</title>
<g id="a_node24"><a xlink:href="minimize__energy_8hpp.html" target="_top" xlink:title="minimize_energy.hpp">
<polygon fill="none" stroke="black" points="376,-67.5 376,-86.5 497,-86.5 497,-67.5 376,-67.5"/>
<text text-anchor="middle" x="436.5" y="-74.5" font-family="Helvetica,sans-Serif" font-size="10.00">minimize_energy.hpp</text>
</a>
</g>
</g>
<!-- Node7&#45;&gt;Node24 -->
<g id="edge25" class="edge"><title>Node7&#45;&gt;Node24</title>
<path fill="none" stroke="midnightblue" d="M891.912,-130.514C792.59,-119.061 596.274,-96.4236 497.006,-84.9769"/>
<polygon fill="midnightblue" stroke="midnightblue" points="891.749,-134.018 902.084,-131.687 892.551,-127.064 891.749,-134.018"/>
</g>
<!-- Node27 -->
<g id="node27" class="node"><title>Node27</title>
<g id="a_node27"><a xlink:href="constraint_8cpp.html" target="_top" xlink:title="Implementation of constraint.hpp, here it&#39;s just the parsing stuff. ">
<polygon fill="none" stroke="black" points="1078.5,-67.5 1078.5,-86.5 1164.5,-86.5 1164.5,-67.5 1078.5,-67.5"/>
<text text-anchor="middle" x="1121.5" y="-74.5" font-family="Helvetica,sans-Serif" font-size="10.00">constraint.cpp</text>
</a>
</g>
</g>
<!-- Node7&#45;&gt;Node27 -->
<g id="edge30" class="edge"><title>Node7&#45;&gt;Node27</title>
<path fill="none" stroke="midnightblue" d="M986.349,-125.583C1019.2,-114.017 1068.24,-96.7524 1097.33,-86.5091"/>
<polygon fill="midnightblue" stroke="midnightblue" points="984.984,-122.353 976.714,-128.975 987.308,-128.956 984.984,-122.353"/>
</g>
<!-- Node28 -->
<g id="node28" class="node"><title>Node28</title>
<g id="a_node28"><a xlink:href="forces_8cpp.html" target="_top" xlink:title="Force calculation. ">
<polygon fill="none" stroke="black" points="770,-67.5 770,-86.5 837,-86.5 837,-67.5 770,-67.5"/>
<text text-anchor="middle" x="803.5" y="-74.5" font-family="Helvetica,sans-Serif" font-size="10.00">forces.cpp</text>
</a>
</g>
</g>
<!-- Node7&#45;&gt;Node28 -->
<g id="edge31" class="edge"><title>Node7&#45;&gt;Node28</title>
<path fill="none" stroke="midnightblue" d="M921.526,-125.131C892.579,-113.572 850.128,-96.62 824.808,-86.5091"/>
<polygon fill="midnightblue" stroke="midnightblue" points="920.567,-128.517 931.152,-128.975 923.163,-122.016 920.567,-128.517"/>
</g>
<!-- Node29 -->
<g id="node29" class="node"><title>Node29</title>
<g id="a_node29"><a xlink:href="ghosts_8cpp.html" target="_top" xlink:title="Ghost particles and particle exchange. ">
<polygon fill="none" stroke="black" points="855,-67.5 855,-86.5 924,-86.5 924,-67.5 855,-67.5"/>
<text text-anchor="middle" x="889.5" y="-74.5" font-family="Helvetica,sans-Serif" font-size="10.00">ghosts.cpp</text>
</a>
</g>
</g>
<!-- Node7&#45;&gt;Node29 -->
<g id="edge32" class="edge"><title>Node7&#45;&gt;Node29</title>
<path fill="none" stroke="midnightblue" d="M935.902,-121.825C923.933,-110.52 908.234,-95.6928 898.51,-86.5091"/>
<polygon fill="midnightblue" stroke="midnightblue" points="933.8,-124.653 943.474,-128.975 938.607,-119.564 933.8,-124.653"/>
</g>
<!-- Node8&#45;&gt;Node6 -->
<g id="edge9" class="edge"><title>Node8&#45;&gt;Node6</title>
<path fill="none" stroke="midnightblue" d="M970.136,-70.3987C957.835,-69.155 944.702,-67.9314 932.5,-67 616.128,-42.851 533.975,-73.1871 219.5,-31 208.919,-29.5806 197.521,-27.3381 187.223,-25.037"/>
<polygon fill="midnightblue" stroke="midnightblue" points="969.928,-73.8957 980.235,-71.4421 970.648,-66.9328 969.928,-73.8957"/>
</g>
<!-- Node8&#45;&gt;Node9 -->
<g id="edge10" class="edge"><title>Node8&#45;&gt;Node9</title>
<path fill="none" stroke="midnightblue" d="M970.463,-66.7541C908.698,-55.3409 804.506,-36.0881 744.607,-25.0198"/>
<polygon fill="midnightblue" stroke="midnightblue" points="969.9,-70.2092 980.37,-68.5846 971.172,-63.3257 969.9,-70.2092"/>
</g>
<!-- Node10 -->
<g id="node10" class="node"><title>Node10</title>
<g id="a_node10"><a xlink:href="elc_8cpp.html" target="_top" xlink:title="For more information about ELC, see elc.hpp. ">
<polygon fill="none" stroke="black" points="1607,-6 1607,-25 1658,-25 1658,-6 1607,-6"/>
<text text-anchor="middle" x="1632.5" y="-13" font-family="Helvetica,sans-Serif" font-size="10.00">elc.cpp</text>
</a>
</g>
</g>
<!-- Node8&#45;&gt;Node10 -->
<g id="edge11" class="edge"><title>Node8&#45;&gt;Node10</title>
<path fill="none" stroke="midnightblue" d="M1070.76,-67.0073C1305.22,-39.0148 1372.6,-85.2138 1598.5,-31 1604.24,-29.6223 1610.25,-27.3621 1615.59,-25.0317"/>
<polygon fill="midnightblue" stroke="midnightblue" points="1070.05,-63.5678 1060.55,-68.2599 1070.91,-70.5157 1070.05,-63.5678"/>
</g>
<!-- Node8&#45;&gt;Node11 -->
<g id="edge12" class="edge"><title>Node8&#45;&gt;Node11</title>
<path fill="none" stroke="midnightblue" d="M970.141,-70.3303C957.84,-69.0889 944.706,-67.8834 932.5,-67 557.584,-39.8658 458.106,-93.8437 87.5,-31 79.6039,-29.6611 71.1839,-27.4118 63.6363,-25.0794"/>
<polygon fill="midnightblue" stroke="midnightblue" points="969.933,-73.8274 980.24,-71.3753 970.653,-66.8645 969.933,-73.8274"/>
</g>
<!-- Node8&#45;&gt;Node12 -->
<g id="edge13" class="edge"><title>Node8&#45;&gt;Node12</title>
<path fill="none" stroke="midnightblue" d="M970.189,-70.678C865.144,-59.533 630.761,-34.4795 613.5,-31 605.847,-29.4573 597.665,-27.2618 590.223,-25.0447"/>
<polygon fill="midnightblue" stroke="midnightblue" points="969.927,-74.1698 980.24,-71.7438 970.665,-67.2088 969.927,-74.1698"/>
</g>
<!-- Node8&#45;&gt;Node13 -->
<g id="edge14" class="edge"><title>Node8&#45;&gt;Node13</title>
<path fill="none" stroke="midnightblue" d="M1070.68,-67.0364C1394.41,-30.534 1482.03,-78.1857 1800.5,-31 1809.95,-29.6005 1820.09,-27.3342 1829.22,-25.0048"/>
<polygon fill="midnightblue" stroke="midnightblue" points="1070.08,-63.5823 1060.55,-68.1982 1070.88,-70.5368 1070.08,-63.5823"/>
</g>
<!-- Node14 -->
<g id="node14" class="node"><title>Node14</title>
<g id="a_node14"><a xlink:href="interaction__data_8cpp.html" target="_top" xlink:title="Implementation of interaction_data.hpp. ">
<polygon fill="none" stroke="black" points="1675.5,-6 1675.5,-25 1791.5,-25 1791.5,-6 1675.5,-6"/>
<text text-anchor="middle" x="1733.5" y="-13" font-family="Helvetica,sans-Serif" font-size="10.00">interaction_data.cpp</text>
</a>
</g>
</g>
<!-- Node8&#45;&gt;Node14 -->
<g id="edge15" class="edge"><title>Node8&#45;&gt;Node14</title>
<path fill="none" stroke="midnightblue" d="M1070.84,-66.9975C1335.18,-35.7397 1406.51,-66.7588 1666.5,-31 1677.11,-29.5406 1688.54,-27.3151 1698.91,-25.0427"/>
<polygon fill="midnightblue" stroke="midnightblue" points="1070.06,-63.5663 1060.55,-68.2345 1070.9,-70.5163 1070.06,-63.5663"/>
</g>
<!-- Node8&#45;&gt;Node15 -->
<g id="edge16" class="edge"><title>Node8&#45;&gt;Node15</title>
<path fill="none" stroke="midnightblue" d="M983.15,-64.4586C953.858,-55.395 912.067,-42.4375 875.5,-31 869.426,-29.1003 862.905,-27.0506 856.736,-25.1073"/>
<polygon fill="midnightblue" stroke="midnightblue" points="982.373,-67.8818 992.961,-67.4932 984.442,-61.1944 982.373,-67.8818"/>
</g>
<!-- Node8&#45;&gt;Node16 -->
<g id="edge17" class="edge"><title>Node8&#45;&gt;Node16</title>
<path fill="none" stroke="midnightblue" d="M1070.59,-67.0601C1445.72,-26.0883 1548.47,-94.5022 1916.5,-31 1924.24,-29.6642 1932.49,-27.4158 1939.88,-25.0833"/>
<polygon fill="midnightblue" stroke="midnightblue" points="1070.1,-63.5931 1060.54,-68.176 1070.87,-70.5503 1070.1,-63.5931"/>
</g>
<!-- Node17 -->
<g id="node17" class="node"><title>Node17</title>
<g id="a_node17"><a xlink:href="pressure_8cpp.html" target="_top" xlink:title="Implementation of pressure.h. ">
<polygon fill="none" stroke="black" points="885,-6 885,-25 964,-25 964,-6 885,-6"/>
<text text-anchor="middle" x="924.5" y="-13" font-family="Helvetica,sans-Serif" font-size="10.00">pressure.cpp</text>
</a>
</g>
</g>
<!-- Node8&#45;&gt;Node17 -->
<g id="edge18" class="edge"><title>Node8&#45;&gt;Node17</title>
<path fill="none" stroke="midnightblue" d="M998.052,-62.0871C979.525,-50.6042 953.83,-34.6784 938.229,-25.0091"/>
<polygon fill="midnightblue" stroke="midnightblue" points="996.402,-65.1819 1006.75,-67.4751 1000.09,-59.232 996.402,-65.1819"/>
</g>
<!-- Node18 -->
<g id="node18" class="node"><title>Node18</title>
<g id="a_node18"><a xlink:href="statistics_8cpp.html" target="_top" xlink:title="This is the place for analysis (so far...). ">
<polygon fill="none" stroke="black" points="982,-6 982,-25 1063,-25 1063,-6 982,-6"/>
<text text-anchor="middle" x="1022.5" y="-13" font-family="Helvetica,sans-Serif" font-size="10.00">statistics.cpp</text>
</a>
</g>
</g>
<!-- Node8&#45;&gt;Node18 -->
<g id="edge19" class="edge"><title>Node8&#45;&gt;Node18</title>
<path fill="none" stroke="midnightblue" d="M1021.13,-57.3165C1021.49,-46.4962 1021.93,-33.398 1022.21,-25.0091"/>
<polygon fill="midnightblue" stroke="midnightblue" points="1017.62,-57.3631 1020.79,-67.4751 1024.62,-57.5984 1017.62,-57.3631"/>
</g>
<!-- Node19 -->
<g id="node19" class="node"><title>Node19</title>
<g id="a_node19"><a xlink:href="statistics__observable_8cpp.html" target="_top" xlink:title="statistics_observable.cpp">
<polygon fill="none" stroke="black" points="1081.5,-6 1081.5,-25 1221.5,-25 1221.5,-6 1081.5,-6"/>
<text text-anchor="middle" x="1151.5" y="-13" font-family="Helvetica,sans-Serif" font-size="10.00">statistics_observable.cpp</text>
</a>
</g>
</g>
<!-- Node8&#45;&gt;Node19 -->
<g id="edge20" class="edge"><title>Node8&#45;&gt;Node19</title>
<path fill="none" stroke="midnightblue" d="M1048.4,-63.3272C1073.83,-51.7761 1110.7,-35.0316 1132.77,-25.0091"/>
<polygon fill="midnightblue" stroke="midnightblue" points="1046.93,-60.1529 1039.27,-67.4751 1049.82,-66.5263 1046.93,-60.1529"/>
</g>
<!-- Node8&#45;&gt;Node20 -->
<g id="edge21" class="edge"><title>Node8&#45;&gt;Node20</title>
<path fill="none" stroke="midnightblue" d="M1070.75,-67.05C1487.35,-22.4701 1602.45,-107.502 2010.5,-31 2017.48,-29.6922 2024.86,-27.4517 2031.46,-25.1178"/>
<polygon fill="midnightblue" stroke="midnightblue" points="1070.1,-63.5998 1060.54,-68.162 1070.86,-70.5587 1070.1,-63.5998"/>
</g>
<!-- Node21 -->
<g id="node21" class="node"><title>Node21</title>
<g id="a_node21"><a xlink:href="virtual__sites_8cpp.html" target="_top" xlink:title="virtual_sites.cpp">
<polygon fill="none" stroke="black" points="1240,-6 1240,-25 1337,-25 1337,-6 1240,-6"/>
<text text-anchor="middle" x="1288.5" y="-13" font-family="Helvetica,sans-Serif" font-size="10.00">virtual_sites.cpp</text>
</a>
</g>
</g>
<!-- Node8&#45;&gt;Node21 -->
<g id="edge22" class="edge"><title>Node8&#45;&gt;Node21</title>
<path fill="none" stroke="midnightblue" d="M1070.69,-65.7427C1113.3,-56.9158 1176.03,-43.6416 1230.5,-31 1238.49,-29.1463 1247.07,-27.0559 1255.12,-25.0513"/>
<polygon fill="midnightblue" stroke="midnightblue" points="1069.93,-62.3259 1060.85,-67.7772 1071.35,-69.181 1069.93,-62.3259"/>
</g>
<!-- Node22 -->
<g id="node22" class="node"><title>Node22</title>
<g id="a_node22"><a xlink:href="pressure__tcl_8cpp.html" target="_top" xlink:title="pressure_tcl.cpp">
<polygon fill="none" stroke="black" points="1355.5,-6 1355.5,-25 1451.5,-25 1451.5,-6 1355.5,-6"/>
<text text-anchor="middle" x="1403.5" y="-13" font-family="Helvetica,sans-Serif" font-size="10.00">pressure_tcl.cpp</text>
</a>
</g>
</g>
<!-- Node8&#45;&gt;Node22 -->
<g id="edge23" class="edge"><title>Node8&#45;&gt;Node22</title>
<path fill="none" stroke="midnightblue" d="M1070.75,-66.8848C1193.47,-48.1274 1227.16,-53.4323 1345.5,-31 1354.17,-29.3568 1363.47,-27.2063 1372.04,-25.0665"/>
<polygon fill="midnightblue" stroke="midnightblue" points="1069.93,-63.4708 1060.58,-68.4627 1071,-70.388 1069.93,-63.4708"/>
</g>
<!-- Node23 -->
<g id="node23" class="node"><title>Node23</title>
<g id="a_node23"><a xlink:href="statistics__observable__tcl_8cpp.html" target="_top" xlink:title="statistics_observable\l_tcl.cpp">
<polygon fill="none" stroke="black" points="1469.5,-0.5 1469.5,-30.5 1589.5,-30.5 1589.5,-0.5 1469.5,-0.5"/>
<text text-anchor="start" x="1477.5" y="-18.5" font-family="Helvetica,sans-Serif" font-size="10.00">statistics_observable</text>
<text text-anchor="middle" x="1529.5" y="-7.5" font-family="Helvetica,sans-Serif" font-size="10.00">_tcl.cpp</text>
</a>
</g>
</g>
<!-- Node8&#45;&gt;Node23 -->
<g id="edge24" class="edge"><title>Node8&#45;&gt;Node23</title>
<path fill="none" stroke="midnightblue" d="M1070.55,-66.9795C1244.12,-43.7105 1291.13,-56.5055 1460.5,-31 1463.41,-30.5625 1466.37,-30.0796 1469.36,-29.5637"/>
<polygon fill="midnightblue" stroke="midnightblue" points="1070,-63.5214 1060.56,-68.3384 1070.94,-70.4574 1070,-63.5214"/>
</g>
<!-- Node24&#45;&gt;Node6 -->
<g id="edge26" class="edge"><title>Node24&#45;&gt;Node6</title>
<path fill="none" stroke="midnightblue" d="M384.577,-65.4115C340.593,-56.3992 275.876,-43.0378 219.5,-31 210.551,-29.0892 200.928,-26.9966 191.873,-25.0105"/>
<polygon fill="midnightblue" stroke="midnightblue" points="383.965,-68.8588 394.464,-67.4356 385.369,-62.001 383.965,-68.8588"/>
</g>
<!-- Node24&#45;&gt;Node12 -->
<g id="edge27" class="edge"><title>Node24&#45;&gt;Node12</title>
<path fill="none" stroke="midnightblue" d="M464.092,-63.1742C488.929,-51.6287 524.729,-34.9875 546.195,-25.0091"/>
<polygon fill="midnightblue" stroke="midnightblue" points="462.432,-60.0859 454.839,-67.4751 465.383,-66.4336 462.432,-60.0859"/>
</g>
<!-- Node25 -->
<g id="node25" class="node"><title>Node25</title>
<g id="a_node25"><a xlink:href="minimize__energy_8cpp.html" target="_top" xlink:title="minimize_energy.cpp">
<polygon fill="none" stroke="black" points="228.5,-6 228.5,-25 348.5,-25 348.5,-6 228.5,-6"/>
<text text-anchor="middle" x="288.5" y="-13" font-family="Helvetica,sans-Serif" font-size="10.00">minimize_energy.cpp</text>
</a>
</g>
</g>
<!-- Node24&#45;&gt;Node25 -->
<g id="edge28" class="edge"><title>Node24&#45;&gt;Node25</title>
<path fill="none" stroke="midnightblue" d="M405.734,-63.6313C376.981,-52.0717 334.815,-35.12 309.665,-25.0091"/>
<polygon fill="midnightblue" stroke="midnightblue" points="404.711,-66.9923 415.295,-67.4751 407.322,-60.4975 404.711,-66.9923"/>
</g>
<!-- Node26 -->
<g id="node26" class="node"><title>Node26</title>
<g id="a_node26"><a xlink:href="minimize__energy__tcl_8cpp.html" target="_top" xlink:title="minimize_energy_tcl.cpp">
<polygon fill="none" stroke="black" points="367,-6 367,-25 506,-25 506,-6 367,-6"/>
<text text-anchor="middle" x="436.5" y="-13" font-family="Helvetica,sans-Serif" font-size="10.00">minimize_energy_tcl.cpp</text>
</a>
</g>
</g>
<!-- Node24&#45;&gt;Node26 -->
<g id="edge29" class="edge"><title>Node24&#45;&gt;Node26</title>
<path fill="none" stroke="midnightblue" d="M436.5,-57.3165C436.5,-46.4962 436.5,-33.398 436.5,-25.0091"/>
<polygon fill="midnightblue" stroke="midnightblue" points="433,-57.4751 436.5,-67.4751 440,-57.4751 433,-57.4751"/>
</g>
</g>
</svg>
