<?xml version="1.0" encoding="UTF-8" standalone="no"?>
<!DOCTYPE svg PUBLIC "-//W3C//DTD SVG 1.1//EN"
 "http://www.w3.org/Graphics/SVG/1.1/DTD/svg11.dtd">
<!-- Generated by graphviz version 2.38.0 (20140413.2041)
 -->
<!-- Title: imd_tcl.cpp Pages: 1 -->
<svg width="1342pt" height="532pt"
 viewBox="0.00 0.00 1341.50 532.00" xmlns="http://www.w3.org/2000/svg" xmlns:xlink="http://www.w3.org/1999/xlink">
<g id="graph0" class="graph" transform="scale(1 1) rotate(0) translate(4 528)">
<title>imd_tcl.cpp</title>
<!-- Node1 -->
<g id="node1" class="node"><title>Node1</title>
<polygon fill="#bfbfbf" stroke="black" points="839.5,-504.5 839.5,-523.5 912.5,-523.5 912.5,-504.5 839.5,-504.5"/>
<text text-anchor="middle" x="876" y="-511.5" font-family="Helvetica,sans-Serif" font-size="10.00">imd_tcl.cpp</text>
</g>
<!-- Node2 -->
<g id="node2" class="node"><title>Node2</title>
<polygon fill="none" stroke="#bfbfbf" points="0,-448.5 0,-467.5 56,-467.5 56,-448.5 0,-448.5"/>
<text text-anchor="middle" x="28" y="-455.5" font-family="Helvetica,sans-Serif" font-size="10.00">unistd.h</text>
</g>
<!-- Node1&#45;&gt;Node2 -->
<g id="edge1" class="edge"><title>Node1&#45;&gt;Node2</title>
<path fill="none" stroke="midnightblue" d="M839.257,-512.974C724.821,-512.46 364.821,-507.574 70,-468 68.7528,-467.833 67.4875,-467.648 66.2119,-467.45"/>
<polygon fill="midnightblue" stroke="midnightblue" points="66.8194,-464.003 56.3617,-465.702 65.5964,-470.895 66.8194,-464.003"/>
</g>
<!-- Node3 -->
<g id="node3" class="node"><title>Node3</title>
<polygon fill="none" stroke="#bfbfbf" points="3.5,-112.5 3.5,-131.5 52.5,-131.5 52.5,-112.5 3.5,-112.5"/>
<text text-anchor="middle" x="28" y="-119.5" font-family="Helvetica,sans-Serif" font-size="10.00">cstdlib</text>
</g>
<!-- Node1&#45;&gt;Node3 -->
<g id="edge2" class="edge"><title>Node1&#45;&gt;Node3</title>
<path fill="none" stroke="midnightblue" d="M839.389,-511.827C683.626,-506.363 84,-480.305 84,-403 84,-403 84,-403 84,-233 84,-196.436 59.1233,-159.747 42.5307,-139.342"/>
<polygon fill="midnightblue" stroke="midnightblue" points="45.1514,-137.021 36.0234,-131.642 39.805,-141.539 45.1514,-137.021"/>
</g>
<!-- Node4 -->
<g id="node4" class="node"><title>Node4</title>
<polygon fill="none" stroke="#bfbfbf" points="846,-112.5 846,-131.5 892,-131.5 892,-112.5 846,-112.5"/>
<text text-anchor="middle" x="869" y="-119.5" font-family="Helvetica,sans-Serif" font-size="10.00">cstdio</text>
</g>
<!-- Node1&#45;&gt;Node4 -->
<g id="edge3" class="edge"><title>Node1&#45;&gt;Node4</title>
<path fill="none" stroke="midnightblue" d="M870.716,-504.231C860.275,-486.043 838,-442.601 838,-403 838,-403 838,-403 838,-345 838,-269.175 855.958,-180.171 864.538,-141.973"/>
<polygon fill="midnightblue" stroke="midnightblue" points="868.042,-142.35 866.869,-131.821 861.22,-140.784 868.042,-142.35"/>
</g>
<!-- Node5 -->
<g id="node5" class="node"><title>Node5</title>
<polygon fill="none" stroke="#bfbfbf" points="910,-112.5 910,-131.5 960,-131.5 960,-112.5 910,-112.5"/>
<text text-anchor="middle" x="935" y="-119.5" font-family="Helvetica,sans-Serif" font-size="10.00">cstring</text>
</g>
<!-- Node1&#45;&gt;Node5 -->
<g id="edge4" class="edge"><title>Node1&#45;&gt;Node5</title>
<path fill="none" stroke="midnightblue" d="M877.287,-504.492C884.662,-455.742 921.595,-211.608 932.168,-141.72"/>
<polygon fill="midnightblue" stroke="midnightblue" points="935.644,-142.143 933.679,-131.732 928.723,-141.096 935.644,-142.143"/>
</g>
<!-- Node6 -->
<g id="node6" class="node"><title>Node6</title>
<polygon fill="none" stroke="#bfbfbf" points="1028.5,-448.5 1028.5,-467.5 1075.5,-467.5 1075.5,-448.5 1028.5,-448.5"/>
<text text-anchor="middle" x="1052" y="-455.5" font-family="Helvetica,sans-Serif" font-size="10.00">cerrno</text>
</g>
<!-- Node1&#45;&gt;Node6 -->
<g id="edge5" class="edge"><title>Node1&#45;&gt;Node6</title>
<path fill="none" stroke="midnightblue" d="M903.888,-504.444C935.071,-494.876 985.546,-479.389 1018.76,-469.2"/>
<polygon fill="midnightblue" stroke="midnightblue" points="1019.93,-472.5 1028.47,-466.22 1017.88,-465.808 1019.93,-472.5"/>
</g>
<!-- Node7 -->
<g id="node7" class="node"><title>Node7</title>
<polygon fill="none" stroke="#bfbfbf" points="981,-392.5 981,-411.5 1019,-411.5 1019,-392.5 981,-392.5"/>
<text text-anchor="middle" x="1000" y="-399.5" font-family="Helvetica,sans-Serif" font-size="10.00">tcl.h</text>
</g>
<!-- Node1&#45;&gt;Node7 -->
<g id="edge6" class="edge"><title>Node1&#45;&gt;Node7</title>
<path fill="none" stroke="midnightblue" d="M912.549,-505.703C935.223,-499.371 963.308,-487.964 981,-468 992.321,-455.225 996.912,-436.033 998.766,-421.812"/>
<polygon fill="midnightblue" stroke="midnightblue" points="1002.27,-421.98 999.741,-411.691 995.298,-421.309 1002.27,-421.98"/>
</g>
<!-- Node8 -->
<g id="node8" class="node"><title>Node8</title>
<g id="a_node8"><a xlink:href="vmdsock_8hpp.html" target="_top" xlink:title="DO NOT CHANGE !!! ">
<polygon fill="none" stroke="black" points="1094,-448.5 1094,-467.5 1176,-467.5 1176,-448.5 1094,-448.5"/>
<text text-anchor="middle" x="1135" y="-455.5" font-family="Helvetica,sans-Serif" font-size="10.00">vmdsock.hpp</text>
</a>
</g>
</g>
<!-- Node1&#45;&gt;Node8 -->
<g id="edge7" class="edge"><title>Node1&#45;&gt;Node8</title>
<path fill="none" stroke="midnightblue" d="M912.559,-505.378C957.304,-496.048 1033.34,-480.196 1083.86,-469.661"/>
<polygon fill="midnightblue" stroke="midnightblue" points="1084.85,-473.031 1093.93,-467.564 1083.42,-466.178 1084.85,-473.031"/>
</g>
<!-- Node9 -->
<g id="node9" class="node"><title>Node9</title>
<g id="a_node9"><a xlink:href="imd_8hpp.html" target="_top" xlink:title="The interface with VMD. ">
<polygon fill="none" stroke="black" points="1194,-448.5 1194,-467.5 1250,-467.5 1250,-448.5 1194,-448.5"/>
<text text-anchor="middle" x="1222" y="-455.5" font-family="Helvetica,sans-Serif" font-size="10.00">imd.hpp</text>
</a>
</g>
</g>
<!-- Node1&#45;&gt;Node9 -->
<g id="edge8" class="edge"><title>Node1&#45;&gt;Node9</title>
<path fill="none" stroke="midnightblue" d="M912.814,-508.775C969.107,-502.068 1080.12,-487.869 1183.77,-468.086"/>
<polygon fill="midnightblue" stroke="midnightblue" points="1184.62,-471.486 1193.78,-466.154 1183.3,-464.613 1184.62,-471.486"/>
</g>
<!-- Node11 -->
<g id="node11" class="node"><title>Node11</title>
<g id="a_node11"><a xlink:href="particle__data_8hpp.html" target="_top" xlink:title="For more information on particle_data, see particle_data.c. ">
<polygon fill="none" stroke="black" points="466.5,-224.5 466.5,-243.5 567.5,-243.5 567.5,-224.5 466.5,-224.5"/>
<text text-anchor="middle" x="517" y="-231.5" font-family="Helvetica,sans-Serif" font-size="10.00">particle_data.hpp</text>
</a>
</g>
</g>
<!-- Node1&#45;&gt;Node11 -->
<g id="edge10" class="edge"><title>Node1&#45;&gt;Node11</title>
<path fill="none" stroke="midnightblue" d="M839.259,-510.81C740.021,-503.898 474,-478.342 474,-403 474,-403 474,-403 474,-345 474,-310.306 492.785,-273.42 505.523,-252.396"/>
<polygon fill="midnightblue" stroke="midnightblue" points="508.65,-253.998 511.021,-243.672 502.728,-250.266 508.65,-253.998"/>
</g>
<!-- Node26 -->
<g id="node26" class="node"><title>Node26</title>
<g id="a_node26"><a xlink:href="parser_8hpp.html" target="_top" xlink:title="This file contains macros for parsing the parameters to the &#39;inter&#39; command. ">
<polygon fill="none" stroke="black" points="904,-448.5 904,-467.5 972,-467.5 972,-448.5 904,-448.5"/>
<text text-anchor="middle" x="938" y="-455.5" font-family="Helvetica,sans-Serif" font-size="10.00">parser.hpp</text>
</a>
</g>
</g>
<!-- Node1&#45;&gt;Node26 -->
<g id="edge31" class="edge"><title>Node1&#45;&gt;Node26</title>
<path fill="none" stroke="midnightblue" d="M885.961,-504.324C895.127,-496.341 908.937,-484.313 920.028,-474.653"/>
<polygon fill="midnightblue" stroke="midnightblue" points="922.615,-477.041 927.857,-467.834 918.018,-471.762 922.615,-477.041"/>
</g>
<!-- Node27 -->
<g id="node27" class="node"><title>Node27</title>
<g id="a_node27"><a xlink:href="grid_8hpp.html" target="_top" xlink:title="Domain decomposition for parallel computing. ">
<polygon fill="none" stroke="black" points="144,-336.5 144,-355.5 200,-355.5 200,-336.5 144,-336.5"/>
<text text-anchor="middle" x="172" y="-343.5" font-family="Helvetica,sans-Serif" font-size="10.00">grid.hpp</text>
</a>
</g>
</g>
<!-- Node1&#45;&gt;Node27 -->
<g id="edge35" class="edge"><title>Node1&#45;&gt;Node27</title>
<path fill="none" stroke="midnightblue" d="M839.478,-512.58C766.297,-510.972 596.978,-503.378 460,-468 358.097,-441.681 245.191,-385.732 196.523,-360.2"/>
<polygon fill="midnightblue" stroke="midnightblue" points="198.144,-357.098 187.668,-355.516 194.871,-363.286 198.144,-357.098"/>
</g>
<!-- Node37 -->
<g id="node37" class="node"><title>Node37</title>
<g id="a_node37"><a xlink:href="statistics__molecule_8hpp.html" target="_top" xlink:title="This file contains the code for statistics on the data using the molecule information set with analys...">
<polygon fill="none" stroke="black" points="668,-448.5 668,-467.5 800,-467.5 800,-448.5 668,-448.5"/>
<text text-anchor="middle" x="734" y="-455.5" font-family="Helvetica,sans-Serif" font-size="10.00">statistics_molecule.hpp</text>
</a>
</g>
</g>
<!-- Node1&#45;&gt;Node37 -->
<g id="edge52" class="edge"><title>Node1&#45;&gt;Node37</title>
<path fill="none" stroke="midnightblue" d="M853.5,-504.444C829.923,-495.478 792.678,-481.314 766.036,-471.183"/>
<polygon fill="midnightblue" stroke="midnightblue" points="766.986,-467.8 756.395,-467.516 764.498,-474.342 766.986,-467.8"/>
</g>
<!-- Node41 -->
<g id="node41" class="node"><title>Node41</title>
<polygon fill="none" stroke="#bfbfbf" points="1268.5,-448.5 1268.5,-467.5 1333.5,-467.5 1333.5,-448.5 1268.5,-448.5"/>
<text text-anchor="middle" x="1301" y="-455.5" font-family="Helvetica,sans-Serif" font-size="10.00">inttypes.h</text>
</g>
<!-- Node1&#45;&gt;Node41 -->
<g id="edge66" class="edge"><title>Node1&#45;&gt;Node41</title>
<path fill="none" stroke="midnightblue" d="M912.599,-509.857C979.276,-503.88 1125.16,-489.653 1258.51,-467.926"/>
<polygon fill="midnightblue" stroke="midnightblue" points="1259.2,-471.36 1268.5,-466.281 1258.06,-464.453 1259.2,-471.36"/>
</g>
<!-- Node10 -->
<g id="node10" class="node"><title>Node10</title>
<polygon fill="none" stroke="#bfbfbf" points="1195.5,-392.5 1195.5,-411.5 1248.5,-411.5 1248.5,-392.5 1195.5,-392.5"/>
<text text-anchor="middle" x="1222" y="-399.5" font-family="Helvetica,sans-Serif" font-size="10.00">stdint.h</text>
</g>
<!-- Node9&#45;&gt;Node10 -->
<g id="edge9" class="edge"><title>Node9&#45;&gt;Node10</title>
<path fill="none" stroke="midnightblue" d="M1222,-448.083C1222,-441.006 1222,-430.861 1222,-421.986"/>
<polygon fill="midnightblue" stroke="midnightblue" points="1225.5,-421.751 1222,-411.751 1218.5,-421.751 1225.5,-421.751"/>
</g>
<!-- Node12 -->
<g id="node12" class="node"><title>Node12</title>
<g id="a_node12"><a xlink:href="utils_8hpp.html" target="_top" xlink:title="Small functions that are useful not only for one modul. ">
<polygon fill="none" stroke="black" points="577.5,-168.5 577.5,-187.5 636.5,-187.5 636.5,-168.5 577.5,-168.5"/>
<text text-anchor="middle" x="607" y="-175.5" font-family="Helvetica,sans-Serif" font-size="10.00">utils.hpp</text>
</a>
</g>
</g>
<!-- Node11&#45;&gt;Node12 -->
<g id="edge11" class="edge"><title>Node11&#45;&gt;Node12</title>
<path fill="none" stroke="midnightblue" d="M531.46,-224.324C545.5,-215.9 567.048,-202.971 583.543,-193.074"/>
<polygon fill="midnightblue" stroke="midnightblue" points="585.802,-195.801 592.576,-187.655 582.2,-189.798 585.802,-195.801"/>
</g>
<!-- Node12&#45;&gt;Node3 -->
<g id="edge14" class="edge"><title>Node12&#45;&gt;Node3</title>
<path fill="none" stroke="midnightblue" d="M577.397,-173.315C562.834,-171.571 545.011,-169.539 529,-168 324.587,-148.352 268.303,-167.003 62.6595,-131.999"/>
<polygon fill="midnightblue" stroke="midnightblue" points="63.2021,-128.541 52.7528,-130.291 62.0129,-135.44 63.2021,-128.541"/>
</g>
<!-- Node12&#45;&gt;Node4 -->
<g id="edge13" class="edge"><title>Node12&#45;&gt;Node4</title>
<path fill="none" stroke="midnightblue" d="M636.573,-172.004C678.715,-164.714 758.648,-150.256 836.069,-132.067"/>
<polygon fill="midnightblue" stroke="midnightblue" points="837.065,-135.428 845.986,-129.713 835.448,-128.617 837.065,-135.428"/>
</g>
<!-- Node12&#45;&gt;Node5 -->
<g id="edge15" class="edge"><title>Node12&#45;&gt;Node5</title>
<path fill="none" stroke="midnightblue" d="M636.817,-173.507C688.469,-167.225 798.073,-152.884 899.984,-132.025"/>
<polygon fill="midnightblue" stroke="midnightblue" points="900.739,-135.443 909.82,-129.986 899.318,-128.589 900.739,-135.443"/>
</g>
<!-- Node13 -->
<g id="node13" class="node"><title>Node13</title>
<polygon fill="none" stroke="#bfbfbf" points="534.5,-112.5 534.5,-131.5 581.5,-131.5 581.5,-112.5 534.5,-112.5"/>
<text text-anchor="middle" x="558" y="-119.5" font-family="Helvetica,sans-Serif" font-size="10.00">cmath</text>
</g>
<!-- Node12&#45;&gt;Node13 -->
<g id="edge12" class="edge"><title>Node12&#45;&gt;Node13</title>
<path fill="none" stroke="midnightblue" d="M598.909,-168.083C591.845,-160.298 581.412,-148.801 572.851,-139.367"/>
<polygon fill="midnightblue" stroke="midnightblue" points="575.253,-136.805 565.941,-131.751 570.069,-141.509 575.253,-136.805"/>
</g>
<!-- Node14 -->
<g id="node14" class="node"><title>Node14</title>
<g id="a_node14"><a xlink:href="config_8hpp.html" target="_top" xlink:title="This file contains the defaults for Espresso. ">
<polygon fill="none" stroke="black" points="576.5,-56.5 576.5,-75.5 643.5,-75.5 643.5,-56.5 576.5,-56.5"/>
<text text-anchor="middle" x="610" y="-63.5" font-family="Helvetica,sans-Serif" font-size="10.00">config.hpp</text>
</a>
</g>
</g>
<!-- Node12&#45;&gt;Node14 -->
<g id="edge16" class="edge"><title>Node12&#45;&gt;Node14</title>
<path fill="none" stroke="midnightblue" d="M607.235,-168.368C607.72,-150.617 608.836,-109.666 609.493,-85.5974"/>
<polygon fill="midnightblue" stroke="midnightblue" points="612.992,-85.6832 609.766,-75.5914 605.994,-85.4922 612.992,-85.6832"/>
</g>
<!-- Node18 -->
<g id="node18" class="node"><title>Node18</title>
<g id="a_node18"><a xlink:href="debug_8hpp.html" target="_top" xlink:title="This file controls debug facilities. ">
<polygon fill="none" stroke="black" points="638,-112.5 638,-131.5 706,-131.5 706,-112.5 638,-112.5"/>
<text text-anchor="middle" x="672" y="-119.5" font-family="Helvetica,sans-Serif" font-size="10.00">debug.hpp</text>
</a>
</g>
</g>
<!-- Node12&#45;&gt;Node18 -->
<g id="edge20" class="edge"><title>Node12&#45;&gt;Node18</title>
<path fill="none" stroke="midnightblue" d="M617.443,-168.324C627.146,-160.263 641.815,-148.077 653.5,-138.369"/>
<polygon fill="midnightblue" stroke="midnightblue" points="655.911,-140.916 661.367,-131.834 651.438,-135.532 655.911,-140.916"/>
</g>
<!-- Node19 -->
<g id="node19" class="node"><title>Node19</title>
<g id="a_node19"><a xlink:href="lees__edwards_8hpp.html" target="_top" xlink:title="lees_edwards.hpp">
<polygon fill="none" stroke="black" points="724,-112.5 724,-131.5 828,-131.5 828,-112.5 724,-112.5"/>
<text text-anchor="middle" x="776" y="-119.5" font-family="Helvetica,sans-Serif" font-size="10.00">lees_edwards.hpp</text>
</a>
</g>
</g>
<!-- Node12&#45;&gt;Node19 -->
<g id="edge22" class="edge"><title>Node12&#45;&gt;Node19</title>
<path fill="none" stroke="midnightblue" d="M633.779,-168.444C662.333,-159.32 707.733,-144.813 739.537,-134.651"/>
<polygon fill="midnightblue" stroke="midnightblue" points="740.886,-137.894 749.347,-131.516 738.756,-131.226 740.886,-137.894"/>
</g>
<!-- Node20 -->
<g id="node20" class="node"><title>Node20</title>
<g id="a_node20"><a xlink:href="errorhandling_8hpp.html" target="_top" xlink:title="This file contains the errorhandling code for severe errors, like a broken bond or illegal parameter ...">
<polygon fill="none" stroke="black" points="70.5,-112.5 70.5,-131.5 173.5,-131.5 173.5,-112.5 70.5,-112.5"/>
<text text-anchor="middle" x="122" y="-119.5" font-family="Helvetica,sans-Serif" font-size="10.00">errorhandling.hpp</text>
</a>
</g>
</g>
<!-- Node12&#45;&gt;Node20 -->
<g id="edge24" class="edge"><title>Node12&#45;&gt;Node20</title>
<path fill="none" stroke="midnightblue" d="M577.373,-173.548C562.804,-171.859 544.984,-169.806 529,-168 406.803,-154.195 263.914,-138.5 184.091,-129.772"/>
<polygon fill="midnightblue" stroke="midnightblue" points="184.049,-126.247 173.728,-128.64 183.289,-133.205 184.049,-126.247"/>
</g>
<!-- Node24 -->
<g id="node24" class="node"><title>Node24</title>
<polygon fill="none" stroke="#bfbfbf" points="386.5,-112.5 386.5,-131.5 433.5,-131.5 433.5,-112.5 386.5,-112.5"/>
<text text-anchor="middle" x="410" y="-119.5" font-family="Helvetica,sans-Serif" font-size="10.00">vector</text>
</g>
<!-- Node12&#45;&gt;Node24 -->
<g id="edge29" class="edge"><title>Node12&#45;&gt;Node24</title>
<path fill="none" stroke="midnightblue" d="M577.473,-169.023C546.379,-160.606 495.737,-146.85 443.523,-132.408"/>
<polygon fill="midnightblue" stroke="midnightblue" points="444.331,-129.001 433.76,-129.705 442.463,-135.747 444.331,-129.001"/>
</g>
<!-- Node25 -->
<g id="node25" class="node"><title>Node25</title>
<polygon fill="none" stroke="#bfbfbf" points="451.5,-112.5 451.5,-131.5 516.5,-131.5 516.5,-112.5 451.5,-112.5"/>
<text text-anchor="middle" x="484" y="-119.5" font-family="Helvetica,sans-Serif" font-size="10.00">exception</text>
</g>
<!-- Node12&#45;&gt;Node25 -->
<g id="edge30" class="edge"><title>Node12&#45;&gt;Node25</title>
<path fill="none" stroke="midnightblue" d="M587.51,-168.444C567.358,-159.596 535.677,-145.687 512.669,-135.586"/>
<polygon fill="midnightblue" stroke="midnightblue" points="513.962,-132.332 503.399,-131.516 511.148,-138.741 513.962,-132.332"/>
</g>
<!-- Node15 -->
<g id="node15" class="node"><title>Node15</title>
<g id="a_node15"><a xlink:href="acconfig_8hpp.html" target="_top" xlink:title="acconfig.hpp">
<polygon fill="none" stroke="black" points="460,-0.5 460,-19.5 538,-19.5 538,-0.5 460,-0.5"/>
<text text-anchor="middle" x="499" y="-7.5" font-family="Helvetica,sans-Serif" font-size="10.00">acconfig.hpp</text>
</a>
</g>
</g>
<!-- Node14&#45;&gt;Node15 -->
<g id="edge17" class="edge"><title>Node14&#45;&gt;Node15</title>
<path fill="none" stroke="midnightblue" d="M592.166,-56.324C574.284,-47.6247 546.525,-34.1202 525.954,-24.113"/>
<polygon fill="midnightblue" stroke="midnightblue" points="527.313,-20.8819 516.79,-19.6545 524.251,-27.1765 527.313,-20.8819"/>
</g>
<!-- Node16 -->
<g id="node16" class="node"><title>Node16</title>
<g id="a_node16"><a xlink:href="myconfig-final_8hpp.html" target="_top" xlink:title="myconfig&#45;final.hpp">
<polygon fill="none" stroke="black" points="556.5,-0.5 556.5,-19.5 663.5,-19.5 663.5,-0.5 556.5,-0.5"/>
<text text-anchor="middle" x="610" y="-7.5" font-family="Helvetica,sans-Serif" font-size="10.00">myconfig&#45;final.hpp</text>
</a>
</g>
</g>
<!-- Node14&#45;&gt;Node16 -->
<g id="edge18" class="edge"><title>Node14&#45;&gt;Node16</title>
<path fill="none" stroke="midnightblue" d="M610,-56.083C610,-49.0059 610,-38.8611 610,-29.9865"/>
<polygon fill="midnightblue" stroke="midnightblue" points="613.5,-29.751 610,-19.7511 606.5,-29.7511 613.5,-29.751"/>
</g>
<!-- Node17 -->
<g id="node17" class="node"><title>Node17</title>
<g id="a_node17"><a xlink:href="config-features_8hpp.html" target="_top" xlink:title="config&#45;features.hpp">
<polygon fill="none" stroke="black" points="681.5,-0.5 681.5,-19.5 792.5,-19.5 792.5,-0.5 681.5,-0.5"/>
<text text-anchor="middle" x="737" y="-7.5" font-family="Helvetica,sans-Serif" font-size="10.00">config&#45;features.hpp</text>
</a>
</g>
</g>
<!-- Node14&#45;&gt;Node17 -->
<g id="edge19" class="edge"><title>Node14&#45;&gt;Node17</title>
<path fill="none" stroke="midnightblue" d="M630.124,-56.4435C651.024,-47.5566 683.935,-33.5632 707.716,-23.4514"/>
<polygon fill="midnightblue" stroke="midnightblue" points="709.138,-26.6504 716.971,-19.5164 706.398,-20.2085 709.138,-26.6504"/>
</g>
<!-- Node18&#45;&gt;Node14 -->
<g id="edge21" class="edge"><title>Node18&#45;&gt;Node14</title>
<path fill="none" stroke="midnightblue" d="M662.039,-112.324C652.873,-104.341 639.063,-92.3128 627.972,-82.6529"/>
<polygon fill="midnightblue" stroke="midnightblue" points="629.982,-79.7624 620.143,-75.8339 625.385,-85.041 629.982,-79.7624"/>
</g>
<!-- Node19&#45;&gt;Node14 -->
<g id="edge23" class="edge"><title>Node19&#45;&gt;Node14</title>
<path fill="none" stroke="midnightblue" d="M749.697,-112.444C721.649,-103.32 677.056,-88.8133 645.816,-78.6509"/>
<polygon fill="midnightblue" stroke="midnightblue" points="646.772,-75.2816 636.18,-75.5164 644.607,-81.9383 646.772,-75.2816"/>
</g>
<!-- Node20&#45;&gt;Node14 -->
<g id="edge25" class="edge"><title>Node20&#45;&gt;Node14</title>
<path fill="none" stroke="midnightblue" d="M173.763,-115.272C270.268,-104.593 476.037,-81.8237 566.172,-71.8499"/>
<polygon fill="midnightblue" stroke="midnightblue" points="566.766,-75.3056 576.32,-70.7269 565.996,-68.348 566.766,-75.3056"/>
</g>
<!-- Node21 -->
<g id="node21" class="node"><title>Node21</title>
<polygon fill="none" stroke="#bfbfbf" points="177,-56.5 177,-75.5 221,-75.5 221,-56.5 177,-56.5"/>
<text text-anchor="middle" x="199" y="-63.5" font-family="Helvetica,sans-Serif" font-size="10.00">string</text>
</g>
<!-- Node20&#45;&gt;Node21 -->
<g id="edge26" class="edge"><title>Node20&#45;&gt;Node21</title>
<path fill="none" stroke="midnightblue" d="M134.371,-112.324C146.158,-104.058 164.132,-91.4527 178.136,-81.6322"/>
<polygon fill="midnightblue" stroke="midnightblue" points="180.482,-84.2619 186.659,-75.6545 176.462,-78.5307 180.482,-84.2619"/>
</g>
<!-- Node22 -->
<g id="node22" class="node"><title>Node22</title>
<polygon fill="none" stroke="#bfbfbf" points="97,-56.5 97,-75.5 153,-75.5 153,-56.5 97,-56.5"/>
<text text-anchor="middle" x="125" y="-63.5" font-family="Helvetica,sans-Serif" font-size="10.00">sstream</text>
</g>
<!-- Node20&#45;&gt;Node22 -->
<g id="edge27" class="edge"><title>Node20&#45;&gt;Node22</title>
<path fill="none" stroke="midnightblue" d="M122.495,-112.083C122.889,-105.006 123.452,-94.8611 123.945,-85.9865"/>
<polygon fill="midnightblue" stroke="midnightblue" points="127.454,-85.9299 124.514,-75.7511 120.464,-85.5415 127.454,-85.9299"/>
</g>
<!-- Node23 -->
<g id="node23" class="node"><title>Node23</title>
<polygon fill="none" stroke="#bfbfbf" points="47,-56.5 47,-75.5 79,-75.5 79,-56.5 47,-56.5"/>
<text text-anchor="middle" x="63" y="-63.5" font-family="Helvetica,sans-Serif" font-size="10.00">list</text>
</g>
<!-- Node20&#45;&gt;Node23 -->
<g id="edge28" class="edge"><title>Node20&#45;&gt;Node23</title>
<path fill="none" stroke="midnightblue" d="M112.521,-112.324C103.799,-104.341 90.6565,-92.3128 80.1022,-82.6529"/>
<polygon fill="midnightblue" stroke="midnightblue" points="82.3917,-80.0036 72.6519,-75.8339 77.6655,-85.1674 82.3917,-80.0036"/>
</g>
<!-- Node26&#45;&gt;Node5 -->
<g id="edge33" class="edge"><title>Node26&#45;&gt;Node5</title>
<path fill="none" stroke="midnightblue" d="M939.83,-448.489C943.625,-430.075 952,-385.118 952,-347 952,-347 952,-347 952,-233 952,-200.583 944.7,-163.415 939.667,-141.644"/>
<polygon fill="midnightblue" stroke="midnightblue" points="943.034,-140.674 937.293,-131.769 936.228,-142.31 943.034,-140.674"/>
</g>
<!-- Node26&#45;&gt;Node7 -->
<g id="edge34" class="edge"><title>Node26&#45;&gt;Node7</title>
<path fill="none" stroke="midnightblue" d="M947.961,-448.324C957.127,-440.341 970.937,-428.313 982.028,-418.653"/>
<polygon fill="midnightblue" stroke="midnightblue" points="984.615,-421.041 989.857,-411.834 980.018,-415.762 984.615,-421.041"/>
</g>
<!-- Node26&#45;&gt;Node12 -->
<g id="edge32" class="edge"><title>Node26&#45;&gt;Node12</title>
<path fill="none" stroke="midnightblue" d="M935.001,-448.13C922.785,-413.415 873.286,-285.65 787,-224 745.315,-194.217 685.948,-184.071 646.961,-180.659"/>
<polygon fill="midnightblue" stroke="midnightblue" points="646.773,-177.134 636.536,-179.864 646.241,-184.114 646.773,-177.134"/>
</g>
<!-- Node27&#45;&gt;Node12 -->
<g id="edge36" class="edge"><title>Node27&#45;&gt;Node12</title>
<path fill="none" stroke="midnightblue" d="M200.303,-342.837C256.974,-338.024 381.871,-324.844 416,-300 447.029,-277.413 427.248,-248.245 457,-224 488.57,-198.273 534.55,-187.247 567.268,-182.525"/>
<polygon fill="midnightblue" stroke="midnightblue" points="567.927,-185.969 577.39,-181.203 567.021,-179.028 567.927,-185.969"/>
</g>
<!-- Node27&#45;&gt;Node20 -->
<g id="edge51" class="edge"><title>Node27&#45;&gt;Node20</title>
<path fill="none" stroke="midnightblue" d="M164.141,-336.444C156.798,-327.902 146.211,-314.054 141,-300 120.719,-245.306 120.016,-175.046 121.046,-141.905"/>
<polygon fill="midnightblue" stroke="midnightblue" points="124.547,-141.95 121.453,-131.817 117.552,-141.667 124.547,-141.95"/>
</g>
<!-- Node28 -->
<g id="node28" class="node"><title>Node28</title>
<polygon fill="none" stroke="#bfbfbf" points="150,-280.5 150,-299.5 200,-299.5 200,-280.5 150,-280.5"/>
<text text-anchor="middle" x="175" y="-287.5" font-family="Helvetica,sans-Serif" font-size="10.00">climits</text>
</g>
<!-- Node27&#45;&gt;Node28 -->
<g id="edge37" class="edge"><title>Node27&#45;&gt;Node28</title>
<path fill="none" stroke="midnightblue" d="M172.495,-336.083C172.889,-329.006 173.452,-318.861 173.945,-309.986"/>
<polygon fill="midnightblue" stroke="midnightblue" points="177.454,-309.93 174.514,-299.751 170.464,-309.542 177.454,-309.93"/>
</g>
<!-- Node29 -->
<g id="node29" class="node"><title>Node29</title>
<g id="a_node29"><a xlink:href="communication_8hpp.html" target="_top" xlink:title="This file contains the asynchronous MPI communication. ">
<polygon fill="none" stroke="black" points="294.5,-280.5 294.5,-299.5 407.5,-299.5 407.5,-280.5 294.5,-280.5"/>
<text text-anchor="middle" x="351" y="-287.5" font-family="Helvetica,sans-Serif" font-size="10.00">communication.hpp</text>
</a>
</g>
</g>
<!-- Node27&#45;&gt;Node29 -->
<g id="edge38" class="edge"><title>Node27&#45;&gt;Node29</title>
<path fill="none" stroke="midnightblue" d="M200.363,-336.444C230.738,-327.28 279.11,-312.688 312.816,-302.519"/>
<polygon fill="midnightblue" stroke="midnightblue" points="314.207,-305.756 322.77,-299.516 312.185,-299.054 314.207,-305.756"/>
</g>
<!-- Node29&#45;&gt;Node11 -->
<g id="edge39" class="edge"><title>Node29&#45;&gt;Node11</title>
<path fill="none" stroke="midnightblue" d="M377.303,-280.444C405.351,-271.32 449.944,-256.813 481.184,-246.651"/>
<polygon fill="midnightblue" stroke="midnightblue" points="482.393,-249.938 490.82,-243.516 480.228,-243.282 482.393,-249.938"/>
</g>
<!-- Node30 -->
<g id="node30" class="node"><title>Node30</title>
<g id="a_node30"><a xlink:href="random_8hpp.html" target="_top" xlink:title="A random generator. ">
<polygon fill="none" stroke="black" points="334.5,-224.5 334.5,-243.5 409.5,-243.5 409.5,-224.5 334.5,-224.5"/>
<text text-anchor="middle" x="372" y="-231.5" font-family="Helvetica,sans-Serif" font-size="10.00">random.hpp</text>
</a>
</g>
</g>
<!-- Node29&#45;&gt;Node30 -->
<g id="edge40" class="edge"><title>Node29&#45;&gt;Node30</title>
<path fill="none" stroke="midnightblue" d="M354.468,-280.083C357.312,-272.77 361.429,-262.181 364.96,-253.103"/>
<polygon fill="midnightblue" stroke="midnightblue" points="368.234,-254.34 368.597,-243.751 361.71,-251.803 368.234,-254.34"/>
</g>
<!-- Node31 -->
<g id="node31" class="node"><title>Node31</title>
<g id="a_node31"><a xlink:href="topology_8hpp.html" target="_top" xlink:title="This file contains functions for handling the system topology. ">
<polygon fill="none" stroke="black" points="639.5,-224.5 639.5,-243.5 718.5,-243.5 718.5,-224.5 639.5,-224.5"/>
<text text-anchor="middle" x="679" y="-231.5" font-family="Helvetica,sans-Serif" font-size="10.00">topology.hpp</text>
</a>
</g>
</g>
<!-- Node29&#45;&gt;Node31 -->
<g id="edge42" class="edge"><title>Node29&#45;&gt;Node31</title>
<path fill="none" stroke="midnightblue" d="M402.973,-280.444C464.959,-270.239 567.844,-253.3 628.963,-243.238"/>
<polygon fill="midnightblue" stroke="midnightblue" points="629.837,-246.641 639.136,-241.563 628.7,-239.734 629.837,-246.641"/>
</g>
<!-- Node32 -->
<g id="node32" class="node"><title>Node32</title>
<g id="a_node32"><a xlink:href="mpi_8h.html" target="_top" xlink:title="This is the MPIfake implementation. ">
<polygon fill="none" stroke="black" points="196,-224.5 196,-243.5 240,-243.5 240,-224.5 196,-224.5"/>
<text text-anchor="middle" x="218" y="-231.5" font-family="Helvetica,sans-Serif" font-size="10.00">mpi.h</text>
</a>
</g>
</g>
<!-- Node29&#45;&gt;Node32 -->
<g id="edge44" class="edge"><title>Node29&#45;&gt;Node32</title>
<path fill="none" stroke="midnightblue" d="M329.926,-280.444C307.94,-271.517 273.266,-257.439 248.336,-247.317"/>
<polygon fill="midnightblue" stroke="midnightblue" points="249.558,-244.035 238.976,-243.516 246.924,-250.521 249.558,-244.035"/>
</g>
<!-- Node36 -->
<g id="node36" class="node"><title>Node36</title>
<g id="a_node36"><a xlink:href="cuda__init_8hpp.html" target="_top" xlink:title="cuda_init.hpp">
<polygon fill="none" stroke="black" points="438,-168.5 438,-187.5 520,-187.5 520,-168.5 438,-168.5"/>
<text text-anchor="middle" x="479" y="-175.5" font-family="Helvetica,sans-Serif" font-size="10.00">cuda_init.hpp</text>
</a>
</g>
</g>
<!-- Node29&#45;&gt;Node36 -->
<g id="edge48" class="edge"><title>Node29&#45;&gt;Node36</title>
<path fill="none" stroke="midnightblue" d="M342.413,-280.283C330.471,-267.086 311.732,-241.7 325,-224 331.593,-215.205 388.603,-200.148 431.351,-189.894"/>
<polygon fill="midnightblue" stroke="midnightblue" points="432.402,-193.242 441.323,-187.527 430.785,-186.431 432.402,-193.242"/>
</g>
<!-- Node30&#45;&gt;Node12 -->
<g id="edge41" class="edge"><title>Node30&#45;&gt;Node12</title>
<path fill="none" stroke="midnightblue" d="M409.236,-224.444C452.461,-214.511 523.445,-198.2 567.579,-188.058"/>
<polygon fill="midnightblue" stroke="midnightblue" points="568.416,-191.457 577.378,-185.807 566.849,-184.635 568.416,-191.457"/>
</g>
<!-- Node31&#45;&gt;Node12 -->
<g id="edge43" class="edge"><title>Node31&#45;&gt;Node12</title>
<path fill="none" stroke="midnightblue" d="M667.432,-224.324C656.58,-216.185 640.119,-203.839 627.117,-194.087"/>
<polygon fill="midnightblue" stroke="midnightblue" points="628.879,-191.034 618.779,-187.834 624.679,-196.634 628.879,-191.034"/>
</g>
<!-- Node33 -->
<g id="node33" class="node"><title>Node33</title>
<polygon fill="none" stroke="#bfbfbf" points="188.5,-168.5 188.5,-187.5 241.5,-187.5 241.5,-168.5 188.5,-168.5"/>
<text text-anchor="middle" x="215" y="-175.5" font-family="Helvetica,sans-Serif" font-size="10.00">string.h</text>
</g>
<!-- Node32&#45;&gt;Node33 -->
<g id="edge45" class="edge"><title>Node32&#45;&gt;Node33</title>
<path fill="none" stroke="midnightblue" d="M217.505,-224.083C217.111,-217.006 216.548,-206.861 216.055,-197.986"/>
<polygon fill="midnightblue" stroke="midnightblue" points="219.536,-197.542 215.486,-187.751 212.546,-197.93 219.536,-197.542"/>
</g>
<!-- Node34 -->
<g id="node34" class="node"><title>Node34</title>
<polygon fill="none" stroke="#bfbfbf" points="260,-168.5 260,-187.5 310,-187.5 310,-168.5 260,-168.5"/>
<text text-anchor="middle" x="285" y="-175.5" font-family="Helvetica,sans-Serif" font-size="10.00">stdio.h</text>
</g>
<!-- Node32&#45;&gt;Node34 -->
<g id="edge46" class="edge"><title>Node32&#45;&gt;Node34</title>
<path fill="none" stroke="midnightblue" d="M228.765,-224.324C238.766,-216.263 253.887,-204.077 265.93,-194.369"/>
<polygon fill="midnightblue" stroke="midnightblue" points="268.45,-196.834 274.039,-187.834 264.057,-191.384 268.45,-196.834"/>
</g>
<!-- Node35 -->
<g id="node35" class="node"><title>Node35</title>
<polygon fill="none" stroke="#bfbfbf" points="328.5,-168.5 328.5,-187.5 381.5,-187.5 381.5,-168.5 328.5,-168.5"/>
<text text-anchor="middle" x="355" y="-175.5" font-family="Helvetica,sans-Serif" font-size="10.00">stdlib.h</text>
</g>
<!-- Node32&#45;&gt;Node35 -->
<g id="edge47" class="edge"><title>Node32&#45;&gt;Node35</title>
<path fill="none" stroke="midnightblue" d="M239.708,-224.444C262.355,-215.517 298.072,-201.439 323.752,-191.317"/>
<polygon fill="midnightblue" stroke="midnightblue" points="325.374,-194.44 333.394,-187.516 322.807,-187.927 325.374,-194.44"/>
</g>
<!-- Node36&#45;&gt;Node14 -->
<g id="edge49" class="edge"><title>Node36&#45;&gt;Node14</title>
<path fill="none" stroke="midnightblue" d="M441.477,-168.422C403.99,-158.116 354.879,-138.802 377,-112 400.551,-83.4652 505.748,-72.8195 566.432,-69.007"/>
<polygon fill="midnightblue" stroke="midnightblue" points="566.717,-72.4963 576.493,-68.4118 566.303,-65.5086 566.717,-72.4963"/>
</g>
<!-- Node36&#45;&gt;Node24 -->
<g id="edge50" class="edge"><title>Node36&#45;&gt;Node24</title>
<path fill="none" stroke="midnightblue" d="M467.914,-168.324C457.514,-160.185 441.739,-147.839 429.278,-138.087"/>
<polygon fill="midnightblue" stroke="midnightblue" points="431.32,-135.241 421.288,-131.834 427.006,-140.753 431.32,-135.241"/>
</g>
<!-- Node37&#45;&gt;Node12 -->
<g id="edge53" class="edge"><title>Node37&#45;&gt;Node12</title>
<path fill="none" stroke="midnightblue" d="M743.739,-448.372C762.098,-431.099 800,-390.206 800,-347 800,-347 800,-347 800,-289 800,-219.108 703.285,-193.046 646.783,-183.784"/>
<polygon fill="midnightblue" stroke="midnightblue" points="647.148,-180.299 636.733,-182.243 646.087,-187.218 647.148,-180.299"/>
</g>
<!-- Node37&#45;&gt;Node31 -->
<g id="edge65" class="edge"><title>Node37&#45;&gt;Node31</title>
<path fill="none" stroke="midnightblue" d="M731.844,-448.297C723.734,-415.563 694.949,-299.375 683.625,-253.666"/>
<polygon fill="midnightblue" stroke="midnightblue" points="687.003,-252.749 681.201,-243.884 680.208,-254.432 687.003,-252.749"/>
</g>
<!-- Node38 -->
<g id="node38" class="node"><title>Node38</title>
<g id="a_node38"><a xlink:href="statistics_8hpp.html" target="_top" xlink:title="This file contains the code for statistics on the data. ">
<polygon fill="none" stroke="black" points="518,-392.5 518,-411.5 600,-411.5 600,-392.5 518,-392.5"/>
<text text-anchor="middle" x="559" y="-399.5" font-family="Helvetica,sans-Serif" font-size="10.00">statistics.hpp</text>
</a>
</g>
</g>
<!-- Node37&#45;&gt;Node38 -->
<g id="edge54" class="edge"><title>Node37&#45;&gt;Node38</title>
<path fill="none" stroke="midnightblue" d="M706.271,-448.444C676.574,-439.28 629.284,-424.688 596.331,-414.519"/>
<polygon fill="midnightblue" stroke="midnightblue" points="597.187,-411.121 586.6,-411.516 595.123,-417.809 597.187,-411.121"/>
</g>
<!-- Node38&#45;&gt;Node11 -->
<g id="edge57" class="edge"><title>Node38&#45;&gt;Node11</title>
<path fill="none" stroke="midnightblue" d="M551.938,-392.3C545.335,-383.65 535.792,-369.726 531,-356 518.905,-321.356 516.774,-278.086 516.657,-253.799"/>
<polygon fill="midnightblue" stroke="midnightblue" points="520.157,-253.821 516.721,-243.798 513.157,-253.776 520.157,-253.821"/>
</g>
<!-- Node38&#45;&gt;Node12 -->
<g id="edge61" class="edge"><title>Node38&#45;&gt;Node12</title>
<path fill="none" stroke="midnightblue" d="M581.246,-392.486C599.433,-384.8 625.132,-372.216 644,-356 690.987,-315.616 707.576,-302.833 727,-244 739.231,-206.952 686.079,-190.671 646.595,-183.77"/>
<polygon fill="midnightblue" stroke="midnightblue" points="647.075,-180.303 636.647,-182.174 645.966,-187.214 647.075,-180.303"/>
</g>
<!-- Node38&#45;&gt;Node21 -->
<g id="edge63" class="edge"><title>Node38&#45;&gt;Node21</title>
<path fill="none" stroke="midnightblue" d="M517.782,-399.744C468.136,-396.814 383.28,-387.211 318,-356 248.892,-322.959 223.903,-311.125 187,-244 174.888,-221.968 180.782,-213.078 179,-188 176.394,-151.331 186.401,-109.085 193.192,-85.4641"/>
<polygon fill="midnightblue" stroke="midnightblue" points="196.589,-86.3234 196.114,-75.7392 189.885,-84.3091 196.589,-86.3234"/>
</g>
<!-- Node38&#45;&gt;Node24 -->
<g id="edge55" class="edge"><title>Node38&#45;&gt;Node24</title>
<path fill="none" stroke="midnightblue" d="M517.81,-399.612C455.275,-395.016 338.06,-376.108 285,-300 266.677,-273.718 304.988,-235.301 317,-224 343.348,-199.212 366.542,-215.538 390,-188 401.116,-174.951 406.056,-155.796 408.25,-141.658"/>
<polygon fill="midnightblue" stroke="midnightblue" points="411.74,-141.961 409.487,-131.608 404.792,-141.106 411.74,-141.961"/>
</g>
<!-- Node38&#45;&gt;Node27 -->
<g id="edge56" class="edge"><title>Node38&#45;&gt;Node27</title>
<path fill="none" stroke="midnightblue" d="M517.945,-396.739C453.131,-389.767 323.235,-374.796 214,-356 212.76,-355.787 211.501,-355.562 210.23,-355.329"/>
<polygon fill="midnightblue" stroke="midnightblue" points="210.891,-351.892 200.406,-353.414 209.551,-358.763 210.891,-351.892"/>
</g>
<!-- Node38&#45;&gt;Node31 -->
<g id="edge62" class="edge"><title>Node38&#45;&gt;Node31</title>
<path fill="none" stroke="midnightblue" d="M572.713,-392.3C595.933,-376.788 642.731,-342.011 666,-300 673.928,-285.686 677.06,-267.22 678.277,-253.631"/>
<polygon fill="midnightblue" stroke="midnightblue" points="681.776,-253.762 678.913,-243.561 674.79,-253.32 681.776,-253.762"/>
</g>
<!-- Node39 -->
<g id="node39" class="node"><title>Node39</title>
<g id="a_node39"><a xlink:href="interaction__data_8hpp.html" target="_top" xlink:title="Various procedures concerning interactions between particles. ">
<polygon fill="none" stroke="black" points="540.5,-280.5 540.5,-299.5 657.5,-299.5 657.5,-280.5 540.5,-280.5"/>
<text text-anchor="middle" x="599" y="-287.5" font-family="Helvetica,sans-Serif" font-size="10.00">interaction_data.hpp</text>
</a>
</g>
</g>
<!-- Node38&#45;&gt;Node39 -->
<g id="edge58" class="edge"><title>Node38&#45;&gt;Node39</title>
<path fill="none" stroke="midnightblue" d="M565.859,-392.225C572.314,-383.521 581.748,-369.557 587,-356 592.771,-341.103 595.814,-323.185 597.39,-309.938"/>
<polygon fill="midnightblue" stroke="midnightblue" points="600.902,-309.994 598.428,-299.692 593.937,-309.288 600.902,-309.994"/>
</g>
<!-- Node40 -->
<g id="node40" class="node"><title>Node40</title>
<polygon fill="none" stroke="#bfbfbf" points="540,-336.5 540,-355.5 578,-355.5 578,-336.5 540,-336.5"/>
<text text-anchor="middle" x="559" y="-343.5" font-family="Helvetica,sans-Serif" font-size="10.00">map</text>
</g>
<!-- Node38&#45;&gt;Node40 -->
<g id="edge64" class="edge"><title>Node38&#45;&gt;Node40</title>
<path fill="none" stroke="midnightblue" d="M559,-392.083C559,-385.006 559,-374.861 559,-365.986"/>
<polygon fill="midnightblue" stroke="midnightblue" points="562.5,-365.751 559,-355.751 555.5,-365.751 562.5,-365.751"/>
</g>
<!-- Node39&#45;&gt;Node11 -->
<g id="edge60" class="edge"><title>Node39&#45;&gt;Node11</title>
<path fill="none" stroke="midnightblue" d="M585.825,-280.324C573.153,-271.979 553.767,-259.212 538.794,-249.352"/>
<polygon fill="midnightblue" stroke="midnightblue" points="540.419,-246.231 530.142,-243.655 536.569,-252.078 540.419,-246.231"/>
</g>
<!-- Node39&#45;&gt;Node12 -->
<g id="edge59" class="edge"><title>Node39&#45;&gt;Node12</title>
<path fill="none" stroke="midnightblue" d="M599.628,-280.368C600.919,-262.617 603.897,-221.666 605.647,-197.597"/>
<polygon fill="midnightblue" stroke="midnightblue" points="609.141,-197.819 606.375,-187.591 602.159,-197.311 609.141,-197.819"/>
</g>
</g>
</svg>
