<?xml version="1.0" encoding="UTF-8" standalone="no"?>
<!DOCTYPE svg PUBLIC "-//W3C//DTD SVG 1.1//EN"
 "http://www.w3.org/Graphics/SVG/1.1/DTD/svg11.dtd">
<!-- Generated by graphviz version 2.38.0 (20140413.2041)
 -->
<!-- Title: imd.cpp Pages: 1 -->
<svg width="1569pt" height="532pt"
 viewBox="0.00 0.00 1568.50 532.00" xmlns="http://www.w3.org/2000/svg" xmlns:xlink="http://www.w3.org/1999/xlink">
<g id="graph0" class="graph" transform="scale(1 1) rotate(0) translate(4 528)">
<title>imd.cpp</title>
<!-- Node1 -->
<g id="node1" class="node"><title>Node1</title>
<polygon fill="#bfbfbf" stroke="black" points="974.5,-504.5 974.5,-523.5 1030.5,-523.5 1030.5,-504.5 974.5,-504.5"/>
<text text-anchor="middle" x="1002.5" y="-511.5" font-family="Helvetica,sans-Serif" font-size="10.00">imd.cpp</text>
</g>
<!-- Node2 -->
<g id="node2" class="node"><title>Node2</title>
<polygon fill="none" stroke="#bfbfbf" points="249.5,-280.5 249.5,-299.5 299.5,-299.5 299.5,-280.5 249.5,-280.5"/>
<text text-anchor="middle" x="274.5" y="-287.5" font-family="Helvetica,sans-Serif" font-size="10.00">climits</text>
</g>
<!-- Node1&#45;&gt;Node2 -->
<g id="edge1" class="edge"><title>Node1&#45;&gt;Node2</title>
<path fill="none" stroke="midnightblue" d="M974.121,-512.361C860.3,-509.602 440.548,-497.496 389.5,-468 327.121,-431.957 292.729,-346.889 280.127,-309.348"/>
<polygon fill="midnightblue" stroke="midnightblue" points="283.421,-308.16 277.026,-299.713 276.758,-310.304 283.421,-308.16"/>
</g>
<!-- Node3 -->
<g id="node3" class="node"><title>Node3</title>
<polygon fill="none" stroke="#bfbfbf" points="1049.5,-448.5 1049.5,-467.5 1105.5,-467.5 1105.5,-448.5 1049.5,-448.5"/>
<text text-anchor="middle" x="1077.5" y="-455.5" font-family="Helvetica,sans-Serif" font-size="10.00">unistd.h</text>
</g>
<!-- Node1&#45;&gt;Node3 -->
<g id="edge2" class="edge"><title>Node1&#45;&gt;Node3</title>
<path fill="none" stroke="midnightblue" d="M1014.55,-504.324C1025.96,-496.107 1043.33,-483.602 1056.93,-473.807"/>
<polygon fill="midnightblue" stroke="midnightblue" points="1059.16,-476.517 1065.23,-467.834 1055.07,-470.837 1059.16,-476.517"/>
</g>
<!-- Node4 -->
<g id="node4" class="node"><title>Node4</title>
<polygon fill="none" stroke="#bfbfbf" points="0,-112.5 0,-131.5 49,-131.5 49,-112.5 0,-112.5"/>
<text text-anchor="middle" x="24.5" y="-119.5" font-family="Helvetica,sans-Serif" font-size="10.00">cstdlib</text>
</g>
<!-- Node1&#45;&gt;Node4 -->
<g id="edge3" class="edge"><title>Node1&#45;&gt;Node4</title>
<path fill="none" stroke="midnightblue" d="M974.487,-512.845C815.281,-511.606 31.5,-500.551 31.5,-403 31.5,-403 31.5,-403 31.5,-233 31.5,-200.883 28.4912,-163.598 26.4189,-141.726"/>
<polygon fill="midnightblue" stroke="midnightblue" points="29.8796,-141.154 25.4151,-131.546 22.9133,-141.841 29.8796,-141.154"/>
</g>
<!-- Node5 -->
<g id="node5" class="node"><title>Node5</title>
<polygon fill="none" stroke="#bfbfbf" points="895.5,-112.5 895.5,-131.5 941.5,-131.5 941.5,-112.5 895.5,-112.5"/>
<text text-anchor="middle" x="918.5" y="-119.5" font-family="Helvetica,sans-Serif" font-size="10.00">cstdio</text>
</g>
<!-- Node1&#45;&gt;Node5 -->
<g id="edge4" class="edge"><title>Node1&#45;&gt;Node5</title>
<path fill="none" stroke="midnightblue" d="M999.938,-504.249C994.751,-485.738 983.5,-441.179 983.5,-403 983.5,-403 983.5,-403 983.5,-233 983.5,-195.178 954.665,-158.94 935.406,-138.955"/>
<polygon fill="midnightblue" stroke="midnightblue" points="937.643,-136.243 928.091,-131.659 932.699,-141.199 937.643,-136.243"/>
</g>
<!-- Node6 -->
<g id="node6" class="node"><title>Node6</title>
<polygon fill="none" stroke="#bfbfbf" points="966.5,-112.5 966.5,-131.5 1016.5,-131.5 1016.5,-112.5 966.5,-112.5"/>
<text text-anchor="middle" x="991.5" y="-119.5" font-family="Helvetica,sans-Serif" font-size="10.00">cstring</text>
</g>
<!-- Node1&#45;&gt;Node6 -->
<g id="edge5" class="edge"><title>Node1&#45;&gt;Node6</title>
<path fill="none" stroke="midnightblue" d="M1005.06,-504.249C1010.25,-485.738 1021.5,-441.179 1021.5,-403 1021.5,-403 1021.5,-403 1021.5,-233 1021.5,-199.64 1008.5,-162.532 999.614,-141.067"/>
<polygon fill="midnightblue" stroke="midnightblue" points="1002.72,-139.421 995.546,-131.621 996.287,-142.19 1002.72,-139.421"/>
</g>
<!-- Node7 -->
<g id="node7" class="node"><title>Node7</title>
<polygon fill="none" stroke="#bfbfbf" points="1124,-448.5 1124,-467.5 1171,-467.5 1171,-448.5 1124,-448.5"/>
<text text-anchor="middle" x="1147.5" y="-455.5" font-family="Helvetica,sans-Serif" font-size="10.00">cerrno</text>
</g>
<!-- Node1&#45;&gt;Node7 -->
<g id="edge6" class="edge"><title>Node1&#45;&gt;Node7</title>
<path fill="none" stroke="midnightblue" d="M1025.48,-504.444C1049.66,-495.438 1087.92,-481.189 1115.15,-471.049"/>
<polygon fill="midnightblue" stroke="midnightblue" points="1116.48,-474.286 1124.63,-467.516 1114.04,-467.727 1116.48,-474.286"/>
</g>
<!-- Node8 -->
<g id="node8" class="node"><title>Node8</title>
<polygon fill="none" stroke="#bfbfbf" points="1189,-448.5 1189,-467.5 1254,-467.5 1254,-448.5 1189,-448.5"/>
<text text-anchor="middle" x="1221.5" y="-455.5" font-family="Helvetica,sans-Serif" font-size="10.00">inttypes.h</text>
</g>
<!-- Node1&#45;&gt;Node8 -->
<g id="edge7" class="edge"><title>Node1&#45;&gt;Node8</title>
<path fill="none" stroke="midnightblue" d="M1030.68,-506.051C1068.3,-496.775 1135.25,-480.266 1179.01,-469.477"/>
<polygon fill="midnightblue" stroke="midnightblue" points="1179.92,-472.858 1188.79,-467.065 1178.24,-466.061 1179.92,-472.858"/>
</g>
<!-- Node9 -->
<g id="node9" class="node"><title>Node9</title>
<g id="a_node9"><a xlink:href="utils_8hpp.html" target="_top" xlink:title="Small functions that are useful not only for one modul. ">
<polygon fill="none" stroke="black" points="677,-168.5 677,-187.5 736,-187.5 736,-168.5 677,-168.5"/>
<text text-anchor="middle" x="706.5" y="-175.5" font-family="Helvetica,sans-Serif" font-size="10.00">utils.hpp</text>
</a>
</g>
</g>
<!-- Node1&#45;&gt;Node9 -->
<g id="edge8" class="edge"><title>Node1&#45;&gt;Node9</title>
<path fill="none" stroke="midnightblue" d="M974.443,-513.261C902.63,-513.277 706.822,-509.214 550.5,-468 481.425,-449.789 403.5,-474.435 403.5,-403 403.5,-403 403.5,-403 403.5,-345 403.5,-285.554 410.703,-256.466 460.5,-224 493.935,-202.201 606.238,-188.502 666.874,-182.513"/>
<polygon fill="midnightblue" stroke="midnightblue" points="667.235,-185.994 676.853,-181.551 666.564,-179.027 667.235,-185.994"/>
</g>
<!-- Node23 -->
<g id="node23" class="node"><title>Node23</title>
<g id="a_node23"><a xlink:href="imd_8hpp.html" target="_top" xlink:title="The interface with VMD. ">
<polygon fill="none" stroke="black" points="1272.5,-448.5 1272.5,-467.5 1328.5,-467.5 1328.5,-448.5 1272.5,-448.5"/>
<text text-anchor="middle" x="1300.5" y="-455.5" font-family="Helvetica,sans-Serif" font-size="10.00">imd.hpp</text>
</a>
</g>
</g>
<!-- Node1&#45;&gt;Node23 -->
<g id="edge28" class="edge"><title>Node1&#45;&gt;Node23</title>
<path fill="none" stroke="midnightblue" d="M1030.69,-508.7C1078.53,-501.275 1178.58,-485.184 1262.5,-468 1262.6,-467.98 1262.7,-467.959 1262.8,-467.939"/>
<polygon fill="midnightblue" stroke="midnightblue" points="1263.29,-471.414 1272.32,-465.877 1261.81,-464.573 1263.29,-471.414"/>
</g>
<!-- Node25 -->
<g id="node25" class="node"><title>Node25</title>
<g id="a_node25"><a xlink:href="communication_8hpp.html" target="_top" xlink:title="This file contains the asynchronous MPI communication. ">
<polygon fill="none" stroke="black" points="432,-280.5 432,-299.5 545,-299.5 545,-280.5 432,-280.5"/>
<text text-anchor="middle" x="488.5" y="-287.5" font-family="Helvetica,sans-Serif" font-size="10.00">communication.hpp</text>
</a>
</g>
</g>
<!-- Node1&#45;&gt;Node25 -->
<g id="edge30" class="edge"><title>Node1&#45;&gt;Node25</title>
<path fill="none" stroke="midnightblue" d="M974.305,-511.75C882.712,-507.463 597.531,-492.276 564.5,-468 557.623,-462.946 513.376,-353.373 495.74,-309.209"/>
<polygon fill="midnightblue" stroke="midnightblue" points="498.909,-307.708 491.956,-299.714 492.407,-310.299 498.909,-307.708"/>
</g>
<!-- Node26 -->
<g id="node26" class="node"><title>Node26</title>
<g id="a_node26"><a xlink:href="particle__data_8hpp.html" target="_top" xlink:title="For more information on particle_data, see particle_data.c. ">
<polygon fill="none" stroke="black" points="738,-224.5 738,-243.5 839,-243.5 839,-224.5 738,-224.5"/>
<text text-anchor="middle" x="788.5" y="-231.5" font-family="Helvetica,sans-Serif" font-size="10.00">particle_data.hpp</text>
</a>
</g>
</g>
<!-- Node1&#45;&gt;Node26 -->
<g id="edge44" class="edge"><title>Node1&#45;&gt;Node26</title>
<path fill="none" stroke="midnightblue" d="M974.474,-507.75C905.576,-494.047 733.5,-454.653 733.5,-403 733.5,-403 733.5,-403 733.5,-345 733.5,-308.569 757.933,-271.836 774.229,-251.387"/>
<polygon fill="midnightblue" stroke="midnightblue" points="776.938,-253.603 780.62,-243.668 771.546,-249.139 776.938,-253.603"/>
</g>
<!-- Node34 -->
<g id="node34" class="node"><title>Node34</title>
<g id="a_node34"><a xlink:href="statistics__chain_8hpp.html" target="_top" xlink:title="This file contains the code for statistics on the data using the molecule information set with analys...">
<polygon fill="none" stroke="black" points="1347,-448.5 1347,-467.5 1460,-467.5 1460,-448.5 1347,-448.5"/>
<text text-anchor="middle" x="1403.5" y="-455.5" font-family="Helvetica,sans-Serif" font-size="10.00">statistics_chain.hpp</text>
</a>
</g>
</g>
<!-- Node1&#45;&gt;Node34 -->
<g id="edge45" class="edge"><title>Node1&#45;&gt;Node34</title>
<path fill="none" stroke="midnightblue" d="M1030.74,-509.226C1086.82,-501.727 1216.47,-484.371 1336.85,-468.086"/>
<polygon fill="midnightblue" stroke="midnightblue" points="1337.54,-471.525 1346.98,-466.715 1336.6,-464.588 1337.54,-471.525"/>
</g>
<!-- Node35 -->
<g id="node35" class="node"><title>Node35</title>
<g id="a_node35"><a xlink:href="statistics__molecule_8hpp.html" target="_top" xlink:title="This file contains the code for statistics on the data using the molecule information set with analys...">
<polygon fill="none" stroke="black" points="573.5,-448.5 573.5,-467.5 705.5,-467.5 705.5,-448.5 573.5,-448.5"/>
<text text-anchor="middle" x="639.5" y="-455.5" font-family="Helvetica,sans-Serif" font-size="10.00">statistics_molecule.hpp</text>
</a>
</g>
</g>
<!-- Node1&#45;&gt;Node35 -->
<g id="edge46" class="edge"><title>Node1&#45;&gt;Node35</title>
<path fill="none" stroke="midnightblue" d="M974.318,-508.808C917.368,-500.336 787.19,-480.97 706.968,-469.037"/>
<polygon fill="midnightblue" stroke="midnightblue" points="707.365,-465.557 696.959,-467.548 706.335,-472.481 707.365,-465.557"/>
</g>
<!-- Node40 -->
<g id="node40" class="node"><title>Node40</title>
<g id="a_node40"><a xlink:href="vmdsock_8hpp.html" target="_top" xlink:title="DO NOT CHANGE !!! ">
<polygon fill="none" stroke="black" points="1478.5,-448.5 1478.5,-467.5 1560.5,-467.5 1560.5,-448.5 1478.5,-448.5"/>
<text text-anchor="middle" x="1519.5" y="-455.5" font-family="Helvetica,sans-Serif" font-size="10.00">vmdsock.hpp</text>
</a>
</g>
</g>
<!-- Node1&#45;&gt;Node40 -->
<g id="edge64" class="edge"><title>Node1&#45;&gt;Node40</title>
<path fill="none" stroke="midnightblue" d="M1030.69,-511.052C1102.03,-505.959 1295.64,-491.111 1468.32,-467.908"/>
<polygon fill="midnightblue" stroke="midnightblue" points="1468.91,-471.36 1478.35,-466.548 1467.97,-464.424 1468.91,-471.36"/>
</g>
<!-- Node9&#45;&gt;Node4 -->
<g id="edge11" class="edge"><title>Node9&#45;&gt;Node4</title>
<path fill="none" stroke="midnightblue" d="M676.757,-174.645C566.011,-165.876 177.862,-135.143 59.215,-125.749"/>
<polygon fill="midnightblue" stroke="midnightblue" points="59.4689,-122.258 49.2239,-124.958 58.9164,-129.236 59.4689,-122.258"/>
</g>
<!-- Node9&#45;&gt;Node5 -->
<g id="edge10" class="edge"><title>Node9&#45;&gt;Node5</title>
<path fill="none" stroke="midnightblue" d="M736.425,-169.378C775.777,-159.354 844.695,-141.799 885.515,-131.402"/>
<polygon fill="midnightblue" stroke="midnightblue" points="886.425,-134.782 895.252,-128.922 884.697,-127.998 886.425,-134.782"/>
</g>
<!-- Node9&#45;&gt;Node6 -->
<g id="edge12" class="edge"><title>Node9&#45;&gt;Node6</title>
<path fill="none" stroke="midnightblue" d="M736.235,-171.849C782.248,-163.804 873.442,-147.559 950.5,-132 952.429,-131.611 954.407,-131.203 956.402,-130.786"/>
<polygon fill="midnightblue" stroke="midnightblue" points="957.328,-134.167 966.376,-128.655 955.866,-127.322 957.328,-134.167"/>
</g>
<!-- Node10 -->
<g id="node10" class="node"><title>Node10</title>
<polygon fill="none" stroke="#bfbfbf" points="698,-112.5 698,-131.5 745,-131.5 745,-112.5 698,-112.5"/>
<text text-anchor="middle" x="721.5" y="-119.5" font-family="Helvetica,sans-Serif" font-size="10.00">cmath</text>
</g>
<!-- Node9&#45;&gt;Node10 -->
<g id="edge9" class="edge"><title>Node9&#45;&gt;Node10</title>
<path fill="none" stroke="midnightblue" d="M708.977,-168.083C710.986,-160.849 713.886,-150.409 716.39,-141.397"/>
<polygon fill="midnightblue" stroke="midnightblue" points="719.765,-142.323 719.069,-131.751 713.02,-140.449 719.765,-142.323"/>
</g>
<!-- Node11 -->
<g id="node11" class="node"><title>Node11</title>
<g id="a_node11"><a xlink:href="config_8hpp.html" target="_top" xlink:title="This file contains the defaults for Espresso. ">
<polygon fill="none" stroke="black" points="511,-56.5 511,-75.5 578,-75.5 578,-56.5 511,-56.5"/>
<text text-anchor="middle" x="544.5" y="-63.5" font-family="Helvetica,sans-Serif" font-size="10.00">config.hpp</text>
</a>
</g>
</g>
<!-- Node9&#45;&gt;Node11 -->
<g id="edge13" class="edge"><title>Node9&#45;&gt;Node11</title>
<path fill="none" stroke="midnightblue" d="M720.632,-168.371C739.615,-155.714 769.249,-131.501 753.5,-112 733.18,-86.8396 643.674,-75.0813 588.593,-70.1379"/>
<polygon fill="midnightblue" stroke="midnightblue" points="588.663,-66.6311 578.4,-69.2653 588.065,-73.6056 588.663,-66.6311"/>
</g>
<!-- Node15 -->
<g id="node15" class="node"><title>Node15</title>
<g id="a_node15"><a xlink:href="debug_8hpp.html" target="_top" xlink:title="This file controls debug facilities. ">
<polygon fill="none" stroke="black" points="801.5,-112.5 801.5,-131.5 869.5,-131.5 869.5,-112.5 801.5,-112.5"/>
<text text-anchor="middle" x="835.5" y="-119.5" font-family="Helvetica,sans-Serif" font-size="10.00">debug.hpp</text>
</a>
</g>
</g>
<!-- Node9&#45;&gt;Node15 -->
<g id="edge17" class="edge"><title>Node9&#45;&gt;Node15</title>
<path fill="none" stroke="midnightblue" d="M726.94,-168.444C748.17,-159.557 781.599,-145.563 805.755,-135.451"/>
<polygon fill="midnightblue" stroke="midnightblue" points="807.282,-138.606 815.155,-131.516 804.579,-132.149 807.282,-138.606"/>
</g>
<!-- Node16 -->
<g id="node16" class="node"><title>Node16</title>
<g id="a_node16"><a xlink:href="lees__edwards_8hpp.html" target="_top" xlink:title="lees_edwards.hpp">
<polygon fill="none" stroke="black" points="492.5,-112.5 492.5,-131.5 596.5,-131.5 596.5,-112.5 492.5,-112.5"/>
<text text-anchor="middle" x="544.5" y="-119.5" font-family="Helvetica,sans-Serif" font-size="10.00">lees_edwards.hpp</text>
</a>
</g>
</g>
<!-- Node9&#45;&gt;Node16 -->
<g id="edge19" class="edge"><title>Node9&#45;&gt;Node16</title>
<path fill="none" stroke="midnightblue" d="M680.831,-168.444C653.577,-159.359 610.316,-144.939 579.849,-134.783"/>
<polygon fill="midnightblue" stroke="midnightblue" points="580.643,-131.358 570.049,-131.516 578.429,-137.999 580.643,-131.358"/>
</g>
<!-- Node17 -->
<g id="node17" class="node"><title>Node17</title>
<g id="a_node17"><a xlink:href="errorhandling_8hpp.html" target="_top" xlink:title="This file contains the errorhandling code for severe errors, like a broken bond or illegal parameter ...">
<polygon fill="none" stroke="black" points="333,-112.5 333,-131.5 436,-131.5 436,-112.5 333,-112.5"/>
<text text-anchor="middle" x="384.5" y="-119.5" font-family="Helvetica,sans-Serif" font-size="10.00">errorhandling.hpp</text>
</a>
</g>
</g>
<!-- Node9&#45;&gt;Node17 -->
<g id="edge21" class="edge"><title>Node9&#45;&gt;Node17</title>
<path fill="none" stroke="midnightblue" d="M676.784,-172.017C624.327,-163.219 514.337,-144.774 445.251,-133.188"/>
<polygon fill="midnightblue" stroke="midnightblue" points="445.808,-129.733 435.366,-131.53 444.65,-136.636 445.808,-129.733"/>
</g>
<!-- Node21 -->
<g id="node21" class="node"><title>Node21</title>
<polygon fill="none" stroke="#bfbfbf" points="268,-112.5 268,-131.5 315,-131.5 315,-112.5 268,-112.5"/>
<text text-anchor="middle" x="291.5" y="-119.5" font-family="Helvetica,sans-Serif" font-size="10.00">vector</text>
</g>
<!-- Node9&#45;&gt;Node21 -->
<g id="edge26" class="edge"><title>Node9&#45;&gt;Node21</title>
<path fill="none" stroke="midnightblue" d="M676.944,-175.118C613.91,-170.765 461.545,-158.446 325.358,-132.107"/>
<polygon fill="midnightblue" stroke="midnightblue" points="325.653,-128.598 315.165,-130.103 324.302,-135.467 325.653,-128.598"/>
</g>
<!-- Node22 -->
<g id="node22" class="node"><title>Node22</title>
<polygon fill="none" stroke="#bfbfbf" points="615,-112.5 615,-131.5 680,-131.5 680,-112.5 615,-112.5"/>
<text text-anchor="middle" x="647.5" y="-119.5" font-family="Helvetica,sans-Serif" font-size="10.00">exception</text>
</g>
<!-- Node9&#45;&gt;Node22 -->
<g id="edge27" class="edge"><title>Node9&#45;&gt;Node22</title>
<path fill="none" stroke="midnightblue" d="M697.021,-168.324C688.299,-160.341 675.157,-148.313 664.602,-138.653"/>
<polygon fill="midnightblue" stroke="midnightblue" points="666.892,-136.004 657.152,-131.834 662.166,-141.167 666.892,-136.004"/>
</g>
<!-- Node12 -->
<g id="node12" class="node"><title>Node12</title>
<g id="a_node12"><a xlink:href="acconfig_8hpp.html" target="_top" xlink:title="acconfig.hpp">
<polygon fill="none" stroke="black" points="394.5,-0.5 394.5,-19.5 472.5,-19.5 472.5,-0.5 394.5,-0.5"/>
<text text-anchor="middle" x="433.5" y="-7.5" font-family="Helvetica,sans-Serif" font-size="10.00">acconfig.hpp</text>
</a>
</g>
</g>
<!-- Node11&#45;&gt;Node12 -->
<g id="edge14" class="edge"><title>Node11&#45;&gt;Node12</title>
<path fill="none" stroke="midnightblue" d="M526.666,-56.324C508.784,-47.6247 481.025,-34.1202 460.454,-24.113"/>
<polygon fill="midnightblue" stroke="midnightblue" points="461.813,-20.8819 451.29,-19.6545 458.751,-27.1765 461.813,-20.8819"/>
</g>
<!-- Node13 -->
<g id="node13" class="node"><title>Node13</title>
<g id="a_node13"><a xlink:href="myconfig-final_8hpp.html" target="_top" xlink:title="myconfig&#45;final.hpp">
<polygon fill="none" stroke="black" points="491,-0.5 491,-19.5 598,-19.5 598,-0.5 491,-0.5"/>
<text text-anchor="middle" x="544.5" y="-7.5" font-family="Helvetica,sans-Serif" font-size="10.00">myconfig&#45;final.hpp</text>
</a>
</g>
</g>
<!-- Node11&#45;&gt;Node13 -->
<g id="edge15" class="edge"><title>Node11&#45;&gt;Node13</title>
<path fill="none" stroke="midnightblue" d="M544.5,-56.083C544.5,-49.0059 544.5,-38.8611 544.5,-29.9865"/>
<polygon fill="midnightblue" stroke="midnightblue" points="548,-29.751 544.5,-19.7511 541,-29.7511 548,-29.751"/>
</g>
<!-- Node14 -->
<g id="node14" class="node"><title>Node14</title>
<g id="a_node14"><a xlink:href="config-features_8hpp.html" target="_top" xlink:title="config&#45;features.hpp">
<polygon fill="none" stroke="black" points="616,-0.5 616,-19.5 727,-19.5 727,-0.5 616,-0.5"/>
<text text-anchor="middle" x="671.5" y="-7.5" font-family="Helvetica,sans-Serif" font-size="10.00">config&#45;features.hpp</text>
</a>
</g>
</g>
<!-- Node11&#45;&gt;Node14 -->
<g id="edge16" class="edge"><title>Node11&#45;&gt;Node14</title>
<path fill="none" stroke="midnightblue" d="M564.624,-56.4435C585.524,-47.5566 618.435,-33.5632 642.216,-23.4514"/>
<polygon fill="midnightblue" stroke="midnightblue" points="643.638,-26.6504 651.471,-19.5164 640.898,-20.2085 643.638,-26.6504"/>
</g>
<!-- Node15&#45;&gt;Node11 -->
<g id="edge18" class="edge"><title>Node15&#45;&gt;Node11</title>
<path fill="none" stroke="midnightblue" d="M801.413,-114.599C796.739,-113.724 792.001,-112.839 787.5,-112 717.801,-99.0122 636.834,-84.0417 588.186,-75.0597"/>
<polygon fill="midnightblue" stroke="midnightblue" points="588.781,-71.6104 578.312,-73.2368 587.51,-78.4941 588.781,-71.6104"/>
</g>
<!-- Node16&#45;&gt;Node11 -->
<g id="edge20" class="edge"><title>Node16&#45;&gt;Node11</title>
<path fill="none" stroke="midnightblue" d="M544.5,-112.083C544.5,-105.006 544.5,-94.8611 544.5,-85.9865"/>
<polygon fill="midnightblue" stroke="midnightblue" points="548,-85.751 544.5,-75.7511 541,-85.7511 548,-85.751"/>
</g>
<!-- Node17&#45;&gt;Node11 -->
<g id="edge22" class="edge"><title>Node17&#45;&gt;Node11</title>
<path fill="none" stroke="midnightblue" d="M409.852,-112.444C436.769,-103.359 479.496,-88.9388 509.587,-78.7831"/>
<polygon fill="midnightblue" stroke="midnightblue" points="510.91,-82.0305 519.266,-75.5164 508.672,-75.3981 510.91,-82.0305"/>
</g>
<!-- Node18 -->
<g id="node18" class="node"><title>Node18</title>
<polygon fill="none" stroke="#bfbfbf" points="175.5,-56.5 175.5,-75.5 219.5,-75.5 219.5,-56.5 175.5,-56.5"/>
<text text-anchor="middle" x="197.5" y="-63.5" font-family="Helvetica,sans-Serif" font-size="10.00">string</text>
</g>
<!-- Node17&#45;&gt;Node18 -->
<g id="edge23" class="edge"><title>Node17&#45;&gt;Node18</title>
<path fill="none" stroke="midnightblue" d="M354.869,-112.444C320.657,-102.564 264.589,-86.3734 229.431,-76.2208"/>
<polygon fill="midnightblue" stroke="midnightblue" points="230.25,-72.8144 219.672,-73.4026 228.308,-79.5396 230.25,-72.8144"/>
</g>
<!-- Node19 -->
<g id="node19" class="node"><title>Node19</title>
<polygon fill="none" stroke="#bfbfbf" points="325.5,-56.5 325.5,-75.5 381.5,-75.5 381.5,-56.5 325.5,-56.5"/>
<text text-anchor="middle" x="353.5" y="-63.5" font-family="Helvetica,sans-Serif" font-size="10.00">sstream</text>
</g>
<!-- Node17&#45;&gt;Node19 -->
<g id="edge24" class="edge"><title>Node17&#45;&gt;Node19</title>
<path fill="none" stroke="midnightblue" d="M379.381,-112.083C375.092,-104.613 368.842,-93.7244 363.558,-84.5199"/>
<polygon fill="midnightblue" stroke="midnightblue" points="366.538,-82.6811 358.524,-75.7511 360.467,-86.1662 366.538,-82.6811"/>
</g>
<!-- Node20 -->
<g id="node20" class="node"><title>Node20</title>
<polygon fill="none" stroke="#bfbfbf" points="399.5,-56.5 399.5,-75.5 431.5,-75.5 431.5,-56.5 399.5,-56.5"/>
<text text-anchor="middle" x="415.5" y="-63.5" font-family="Helvetica,sans-Serif" font-size="10.00">list</text>
</g>
<!-- Node17&#45;&gt;Node20 -->
<g id="edge25" class="edge"><title>Node17&#45;&gt;Node20</title>
<path fill="none" stroke="midnightblue" d="M389.619,-112.083C393.908,-104.613 400.158,-93.7244 405.442,-84.5199"/>
<polygon fill="midnightblue" stroke="midnightblue" points="408.533,-86.1662 410.476,-75.7511 402.462,-82.6811 408.533,-86.1662"/>
</g>
<!-- Node24 -->
<g id="node24" class="node"><title>Node24</title>
<polygon fill="none" stroke="#bfbfbf" points="1274,-392.5 1274,-411.5 1327,-411.5 1327,-392.5 1274,-392.5"/>
<text text-anchor="middle" x="1300.5" y="-399.5" font-family="Helvetica,sans-Serif" font-size="10.00">stdint.h</text>
</g>
<!-- Node23&#45;&gt;Node24 -->
<g id="edge29" class="edge"><title>Node23&#45;&gt;Node24</title>
<path fill="none" stroke="midnightblue" d="M1300.5,-448.083C1300.5,-441.006 1300.5,-430.861 1300.5,-421.986"/>
<polygon fill="midnightblue" stroke="midnightblue" points="1304,-421.751 1300.5,-411.751 1297,-421.751 1304,-421.751"/>
</g>
<!-- Node25&#45;&gt;Node26 -->
<g id="edge31" class="edge"><title>Node25&#45;&gt;Node26</title>
<path fill="none" stroke="midnightblue" d="M536.036,-280.444C589.028,-270.905 674.703,-255.483 731.317,-245.293"/>
<polygon fill="midnightblue" stroke="midnightblue" points="731.965,-248.733 741.187,-243.516 730.725,-241.843 731.965,-248.733"/>
</g>
<!-- Node27 -->
<g id="node27" class="node"><title>Node27</title>
<g id="a_node27"><a xlink:href="random_8hpp.html" target="_top" xlink:title="A random generator. ">
<polygon fill="none" stroke="black" points="470,-224.5 470,-243.5 545,-243.5 545,-224.5 470,-224.5"/>
<text text-anchor="middle" x="507.5" y="-231.5" font-family="Helvetica,sans-Serif" font-size="10.00">random.hpp</text>
</a>
</g>
</g>
<!-- Node25&#45;&gt;Node27 -->
<g id="edge33" class="edge"><title>Node25&#45;&gt;Node27</title>
<path fill="none" stroke="midnightblue" d="M491.637,-280.083C494.183,-272.849 497.856,-262.409 501.027,-253.397"/>
<polygon fill="midnightblue" stroke="midnightblue" points="504.403,-254.346 504.421,-243.751 497.8,-252.023 504.403,-254.346"/>
</g>
<!-- Node28 -->
<g id="node28" class="node"><title>Node28</title>
<g id="a_node28"><a xlink:href="topology_8hpp.html" target="_top" xlink:title="This file contains functions for handling the system topology. ">
<polygon fill="none" stroke="black" points="602,-224.5 602,-243.5 681,-243.5 681,-224.5 602,-224.5"/>
<text text-anchor="middle" x="641.5" y="-231.5" font-family="Helvetica,sans-Serif" font-size="10.00">topology.hpp</text>
</a>
</g>
</g>
<!-- Node25&#45;&gt;Node28 -->
<g id="edge35" class="edge"><title>Node25&#45;&gt;Node28</title>
<path fill="none" stroke="midnightblue" d="M512.743,-280.444C538.371,-271.399 578.985,-257.064 607.738,-246.916"/>
<polygon fill="midnightblue" stroke="midnightblue" points="609.105,-250.145 617.37,-243.516 606.775,-243.544 609.105,-250.145"/>
</g>
<!-- Node29 -->
<g id="node29" class="node"><title>Node29</title>
<g id="a_node29"><a xlink:href="mpi_8h.html" target="_top" xlink:title="This is the MPIfake implementation. ">
<polygon fill="none" stroke="black" points="215.5,-224.5 215.5,-243.5 259.5,-243.5 259.5,-224.5 215.5,-224.5"/>
<text text-anchor="middle" x="237.5" y="-231.5" font-family="Helvetica,sans-Serif" font-size="10.00">mpi.h</text>
</a>
</g>
</g>
<!-- Node25&#45;&gt;Node29 -->
<g id="edge37" class="edge"><title>Node25&#45;&gt;Node29</title>
<path fill="none" stroke="midnightblue" d="M448.728,-280.444C399.098,-269.766 315.205,-251.717 269.507,-241.886"/>
<polygon fill="midnightblue" stroke="midnightblue" points="270.07,-238.427 259.557,-239.745 268.597,-245.27 270.07,-238.427"/>
</g>
<!-- Node33 -->
<g id="node33" class="node"><title>Node33</title>
<g id="a_node33"><a xlink:href="cuda__init_8hpp.html" target="_top" xlink:title="cuda_init.hpp">
<polygon fill="none" stroke="black" points="393.5,-168.5 393.5,-187.5 475.5,-187.5 475.5,-168.5 393.5,-168.5"/>
<text text-anchor="middle" x="434.5" y="-175.5" font-family="Helvetica,sans-Serif" font-size="10.00">cuda_init.hpp</text>
</a>
</g>
</g>
<!-- Node25&#45;&gt;Node33 -->
<g id="edge41" class="edge"><title>Node25&#45;&gt;Node33</title>
<path fill="none" stroke="midnightblue" d="M482.445,-280.303C476.424,-271.43 467.148,-257.136 460.5,-244 452.782,-228.75 445.697,-210.641 440.88,-197.415"/>
<polygon fill="midnightblue" stroke="midnightblue" points="444.047,-195.875 437.402,-187.624 437.451,-198.219 444.047,-195.875"/>
</g>
<!-- Node26&#45;&gt;Node9 -->
<g id="edge32" class="edge"><title>Node26&#45;&gt;Node9</title>
<path fill="none" stroke="midnightblue" d="M775.325,-224.324C762.653,-215.979 743.267,-203.212 728.294,-193.352"/>
<polygon fill="midnightblue" stroke="midnightblue" points="729.919,-190.231 719.642,-187.655 726.069,-196.078 729.919,-190.231"/>
</g>
<!-- Node27&#45;&gt;Node9 -->
<g id="edge34" class="edge"><title>Node27&#45;&gt;Node9</title>
<path fill="none" stroke="midnightblue" d="M539.032,-224.444C573.593,-215.065 629.111,-200 666.659,-189.811"/>
<polygon fill="midnightblue" stroke="midnightblue" points="668.006,-193.072 676.74,-187.075 666.173,-186.317 668.006,-193.072"/>
</g>
<!-- Node28&#45;&gt;Node9 -->
<g id="edge36" class="edge"><title>Node28&#45;&gt;Node9</title>
<path fill="none" stroke="midnightblue" d="M651.943,-224.324C661.646,-216.263 676.315,-204.077 688,-194.369"/>
<polygon fill="midnightblue" stroke="midnightblue" points="690.411,-196.916 695.867,-187.834 685.938,-191.532 690.411,-196.916"/>
</g>
<!-- Node30 -->
<g id="node30" class="node"><title>Node30</title>
<polygon fill="none" stroke="#bfbfbf" points="106,-168.5 106,-187.5 159,-187.5 159,-168.5 106,-168.5"/>
<text text-anchor="middle" x="132.5" y="-175.5" font-family="Helvetica,sans-Serif" font-size="10.00">string.h</text>
</g>
<!-- Node29&#45;&gt;Node30 -->
<g id="edge38" class="edge"><title>Node29&#45;&gt;Node30</title>
<path fill="none" stroke="midnightblue" d="M220.63,-224.324C203.791,-215.664 177.693,-202.242 158.262,-192.249"/>
<polygon fill="midnightblue" stroke="midnightblue" points="159.822,-189.116 149.328,-187.655 156.62,-195.341 159.822,-189.116"/>
</g>
<!-- Node31 -->
<g id="node31" class="node"><title>Node31</title>
<polygon fill="none" stroke="#bfbfbf" points="177.5,-168.5 177.5,-187.5 227.5,-187.5 227.5,-168.5 177.5,-168.5"/>
<text text-anchor="middle" x="202.5" y="-175.5" font-family="Helvetica,sans-Serif" font-size="10.00">stdio.h</text>
</g>
<!-- Node29&#45;&gt;Node31 -->
<g id="edge39" class="edge"><title>Node29&#45;&gt;Node31</title>
<path fill="none" stroke="midnightblue" d="M231.72,-224.083C226.828,-216.534 219.673,-205.495 213.667,-196.23"/>
<polygon fill="midnightblue" stroke="midnightblue" points="216.548,-194.239 208.172,-187.751 210.674,-198.046 216.548,-194.239"/>
</g>
<!-- Node32 -->
<g id="node32" class="node"><title>Node32</title>
<polygon fill="none" stroke="#bfbfbf" points="246,-168.5 246,-187.5 299,-187.5 299,-168.5 246,-168.5"/>
<text text-anchor="middle" x="272.5" y="-175.5" font-family="Helvetica,sans-Serif" font-size="10.00">stdlib.h</text>
</g>
<!-- Node29&#45;&gt;Node32 -->
<g id="edge40" class="edge"><title>Node29&#45;&gt;Node32</title>
<path fill="none" stroke="midnightblue" d="M243.28,-224.083C248.172,-216.534 255.327,-205.495 261.333,-196.23"/>
<polygon fill="midnightblue" stroke="midnightblue" points="264.326,-198.046 266.828,-187.751 258.452,-194.239 264.326,-198.046"/>
</g>
<!-- Node33&#45;&gt;Node11 -->
<g id="edge42" class="edge"><title>Node33&#45;&gt;Node11</title>
<path fill="none" stroke="midnightblue" d="M439.833,-168.382C448.165,-155.313 465.219,-130.092 483.5,-112 495.128,-100.492 509.847,-89.5494 521.913,-81.3366"/>
<polygon fill="midnightblue" stroke="midnightblue" points="524.128,-84.0676 530.528,-75.6243 520.259,-78.2337 524.128,-84.0676"/>
</g>
<!-- Node33&#45;&gt;Node21 -->
<g id="edge43" class="edge"><title>Node33&#45;&gt;Node21</title>
<path fill="none" stroke="midnightblue" d="M411.841,-168.444C388.098,-159.478 350.591,-145.314 323.762,-135.183"/>
<polygon fill="midnightblue" stroke="midnightblue" points="324.644,-131.775 314.053,-131.516 322.171,-138.324 324.644,-131.775"/>
</g>
<!-- Node35&#45;&gt;Node9 -->
<g id="edge47" class="edge"><title>Node35&#45;&gt;Node9</title>
<path fill="none" stroke="midnightblue" d="M696.339,-448.481C784.832,-433.596 945.5,-399.36 945.5,-347 945.5,-347 945.5,-347 945.5,-289 945.5,-202.502 814.721,-183.782 746.644,-179.897"/>
<polygon fill="midnightblue" stroke="midnightblue" points="746.445,-176.384 736.286,-179.393 746.104,-183.375 746.445,-176.384"/>
</g>
<!-- Node35&#45;&gt;Node28 -->
<g id="edge63" class="edge"><title>Node35&#45;&gt;Node28</title>
<path fill="none" stroke="midnightblue" d="M625.052,-448.231C613.38,-440.309 597.607,-427.529 589.5,-412 573.801,-381.931 573.637,-368.742 582.5,-336 591.294,-303.51 613.434,-270.752 627.951,-251.693"/>
<polygon fill="midnightblue" stroke="midnightblue" points="630.781,-253.756 634.191,-243.725 625.27,-249.44 630.781,-253.756"/>
</g>
<!-- Node36 -->
<g id="node36" class="node"><title>Node36</title>
<g id="a_node36"><a xlink:href="statistics_8hpp.html" target="_top" xlink:title="This file contains the code for statistics on the data. ">
<polygon fill="none" stroke="black" points="598.5,-392.5 598.5,-411.5 680.5,-411.5 680.5,-392.5 598.5,-392.5"/>
<text text-anchor="middle" x="639.5" y="-399.5" font-family="Helvetica,sans-Serif" font-size="10.00">statistics.hpp</text>
</a>
</g>
</g>
<!-- Node35&#45;&gt;Node36 -->
<g id="edge48" class="edge"><title>Node35&#45;&gt;Node36</title>
<path fill="none" stroke="midnightblue" d="M639.5,-448.083C639.5,-441.006 639.5,-430.861 639.5,-421.986"/>
<polygon fill="midnightblue" stroke="midnightblue" points="643,-421.751 639.5,-411.751 636,-421.751 643,-421.751"/>
</g>
<!-- Node36&#45;&gt;Node9 -->
<g id="edge59" class="edge"><title>Node36&#45;&gt;Node9</title>
<path fill="none" stroke="midnightblue" d="M642.424,-392.389C645.483,-383.344 650.401,-368.695 654.5,-356 670.524,-306.371 675.12,-294.13 689.5,-244 693.928,-228.564 698.51,-210.932 701.8,-197.93"/>
<polygon fill="midnightblue" stroke="midnightblue" points="705.285,-198.418 704.322,-187.867 698.495,-196.716 705.285,-198.418"/>
</g>
<!-- Node36&#45;&gt;Node18 -->
<g id="edge61" class="edge"><title>Node36&#45;&gt;Node18</title>
<path fill="none" stroke="midnightblue" d="M598.175,-401.687C468.388,-402.747 77.5,-397.132 77.5,-291 77.5,-291 77.5,-291 77.5,-177 77.5,-128.95 130.427,-96.206 165.981,-79.6304"/>
<polygon fill="midnightblue" stroke="midnightblue" points="167.786,-82.6577 175.49,-75.3847 164.932,-76.2659 167.786,-82.6577"/>
</g>
<!-- Node36&#45;&gt;Node21 -->
<g id="edge49" class="edge"><title>Node36&#45;&gt;Node21</title>
<path fill="none" stroke="midnightblue" d="M598.391,-395.327C513.669,-382.48 327.5,-347.788 327.5,-291 327.5,-291 327.5,-291 327.5,-233 327.5,-198.982 311.756,-161.85 301.091,-140.6"/>
<polygon fill="midnightblue" stroke="midnightblue" points="304.085,-138.772 296.355,-131.527 297.88,-142.012 304.085,-138.772"/>
</g>
<!-- Node36&#45;&gt;Node26 -->
<g id="edge55" class="edge"><title>Node36&#45;&gt;Node26</title>
<path fill="none" stroke="midnightblue" d="M657.056,-392.415C672.161,-384.436 693.917,-371.473 709.5,-356 741.263,-324.461 767.125,-278.11 779.882,-252.913"/>
<polygon fill="midnightblue" stroke="midnightblue" points="783.095,-254.313 784.391,-243.797 776.82,-251.209 783.095,-254.313"/>
</g>
<!-- Node36&#45;&gt;Node28 -->
<g id="edge60" class="edge"><title>Node36&#45;&gt;Node28</title>
<path fill="none" stroke="midnightblue" d="M639.608,-392.075C639.922,-365.945 640.847,-289.211 641.276,-253.577"/>
<polygon fill="midnightblue" stroke="midnightblue" points="644.776,-253.61 641.397,-243.568 637.776,-253.525 644.776,-253.61"/>
</g>
<!-- Node37 -->
<g id="node37" class="node"><title>Node37</title>
<g id="a_node37"><a xlink:href="grid_8hpp.html" target="_top" xlink:title="Domain decomposition for parallel computing. ">
<polygon fill="none" stroke="black" points="441.5,-336.5 441.5,-355.5 497.5,-355.5 497.5,-336.5 441.5,-336.5"/>
<text text-anchor="middle" x="469.5" y="-343.5" font-family="Helvetica,sans-Serif" font-size="10.00">grid.hpp</text>
</a>
</g>
</g>
<!-- Node36&#45;&gt;Node37 -->
<g id="edge50" class="edge"><title>Node36&#45;&gt;Node37</title>
<path fill="none" stroke="midnightblue" d="M612.563,-392.444C583.84,-383.32 538.171,-368.813 506.179,-358.651"/>
<polygon fill="midnightblue" stroke="midnightblue" points="506.901,-355.208 496.311,-355.516 504.782,-361.88 506.901,-355.208"/>
</g>
<!-- Node38 -->
<g id="node38" class="node"><title>Node38</title>
<g id="a_node38"><a xlink:href="interaction__data_8hpp.html" target="_top" xlink:title="Various procedures concerning interactions between particles. ">
<polygon fill="none" stroke="black" points="800,-280.5 800,-299.5 917,-299.5 917,-280.5 800,-280.5"/>
<text text-anchor="middle" x="858.5" y="-287.5" font-family="Helvetica,sans-Serif" font-size="10.00">interaction_data.hpp</text>
</a>
</g>
</g>
<!-- Node36&#45;&gt;Node38 -->
<g id="edge56" class="edge"><title>Node36&#45;&gt;Node38</title>
<path fill="none" stroke="midnightblue" d="M680.732,-393.251C711.065,-386.399 752.573,-374.558 785.5,-356 808.238,-343.184 830.006,-322.304 843.76,-307.676"/>
<polygon fill="midnightblue" stroke="midnightblue" points="846.712,-309.635 850.88,-299.895 841.547,-304.91 846.712,-309.635"/>
</g>
<!-- Node39 -->
<g id="node39" class="node"><title>Node39</title>
<polygon fill="none" stroke="#bfbfbf" points="591.5,-336.5 591.5,-355.5 629.5,-355.5 629.5,-336.5 591.5,-336.5"/>
<text text-anchor="middle" x="610.5" y="-343.5" font-family="Helvetica,sans-Serif" font-size="10.00">map</text>
</g>
<!-- Node36&#45;&gt;Node39 -->
<g id="edge62" class="edge"><title>Node36&#45;&gt;Node39</title>
<path fill="none" stroke="midnightblue" d="M634.711,-392.083C630.742,-384.691 624.975,-373.953 620.065,-364.811"/>
<polygon fill="midnightblue" stroke="midnightblue" points="623.014,-362.905 615.2,-355.751 616.847,-366.217 623.014,-362.905"/>
</g>
<!-- Node37&#45;&gt;Node2 -->
<g id="edge52" class="edge"><title>Node37&#45;&gt;Node2</title>
<path fill="none" stroke="midnightblue" d="M441.145,-337.148C406.386,-327.522 347.471,-311.207 309.808,-300.778"/>
<polygon fill="midnightblue" stroke="midnightblue" points="310.358,-297.298 299.787,-298.002 308.49,-304.044 310.358,-297.298"/>
</g>
<!-- Node37&#45;&gt;Node9 -->
<g id="edge51" class="edge"><title>Node37&#45;&gt;Node9</title>
<path fill="none" stroke="midnightblue" d="M494.079,-336.455C512.313,-329.108 536.804,-316.994 553.5,-300 580.107,-272.918 564.37,-249.496 592.5,-224 613.33,-205.12 643.026,-193.742 666.887,-187.151"/>
<polygon fill="midnightblue" stroke="midnightblue" points="667.906,-190.502 676.713,-184.611 666.155,-183.725 667.906,-190.502"/>
</g>
<!-- Node37&#45;&gt;Node17 -->
<g id="edge54" class="edge"><title>Node37&#45;&gt;Node17</title>
<path fill="none" stroke="midnightblue" d="M457.513,-336.25C446.956,-327.977 431.846,-314.674 422.5,-300 394.262,-255.664 393.059,-239.863 384.5,-188 381.97,-172.671 382.162,-155.031 382.879,-141.999"/>
<polygon fill="midnightblue" stroke="midnightblue" points="386.378,-142.127 383.589,-131.906 379.396,-141.636 386.378,-142.127"/>
</g>
<!-- Node37&#45;&gt;Node25 -->
<g id="edge53" class="edge"><title>Node37&#45;&gt;Node25</title>
<path fill="none" stroke="midnightblue" d="M472.637,-336.083C475.183,-328.849 478.856,-318.409 482.027,-309.397"/>
<polygon fill="midnightblue" stroke="midnightblue" points="485.403,-310.346 485.421,-299.751 478.8,-308.023 485.403,-310.346"/>
</g>
<!-- Node38&#45;&gt;Node9 -->
<g id="edge57" class="edge"><title>Node38&#45;&gt;Node9</title>
<path fill="none" stroke="midnightblue" d="M859.655,-280.242C860.947,-266.526 861.303,-239.905 847.5,-224 822.273,-194.931 778.295,-184.473 746.145,-180.799"/>
<polygon fill="midnightblue" stroke="midnightblue" points="746.453,-177.313 736.162,-179.83 745.776,-184.28 746.453,-177.313"/>
</g>
<!-- Node38&#45;&gt;Node26 -->
<g id="edge58" class="edge"><title>Node38&#45;&gt;Node26</title>
<path fill="none" stroke="midnightblue" d="M847.253,-280.324C836.703,-272.185 820.699,-259.839 808.058,-250.087"/>
<polygon fill="midnightblue" stroke="midnightblue" points="810.007,-247.171 799.951,-243.834 805.731,-252.713 810.007,-247.171"/>
</g>
</g>
</svg>
