<?xml version="1.0" encoding="UTF-8" standalone="no"?>
<!DOCTYPE svg PUBLIC "-//W3C//DTD SVG 1.1//EN"
 "http://www.w3.org/Graphics/SVG/1.1/DTD/svg11.dtd">
<!-- Generated by graphviz version 2.38.0 (20140413.2041)
 -->
<!-- Title: imd.hpp Pages: 1 -->
<svg width="337pt" height="84pt"
 viewBox="0.00 0.00 337.00 84.00" xmlns="http://www.w3.org/2000/svg" xmlns:xlink="http://www.w3.org/1999/xlink">
<g id="graph0" class="graph" transform="scale(1 1) rotate(0) translate(4 80)">
<title>imd.hpp</title>
<!-- Node1 -->
<g id="node1" class="node"><title>Node1</title>
<polygon fill="#bfbfbf" stroke="black" points="127.5,-56.5 127.5,-75.5 183.5,-75.5 183.5,-56.5 127.5,-56.5"/>
<text text-anchor="middle" x="155.5" y="-63.5" font-family="Helvetica,sans-Serif" font-size="10.00">imd.hpp</text>
</g>
<!-- Node2 -->
<g id="node2" class="node"><title>Node2</title>
<g id="a_node2"><a xlink:href="global_8cpp.html" target="_top" xlink:title="Implementation of global.h. ">
<polygon fill="none" stroke="black" points="0,-0.5 0,-19.5 67,-19.5 67,-0.5 0,-0.5"/>
<text text-anchor="middle" x="33.5" y="-7.5" font-family="Helvetica,sans-Serif" font-size="10.00">global.cpp</text>
</a>
</g>
</g>
<!-- Node1&#45;&gt;Node2 -->
<g id="edge1" class="edge"><title>Node1&#45;&gt;Node2</title>
<path fill="none" stroke="midnightblue" d="M126.961,-52.3678C104.114,-42.2553 72.6949,-28.3486 52.7408,-19.5164"/>
<polygon fill="midnightblue" stroke="midnightblue" points="125.608,-55.5965 136.169,-56.4435 128.441,-49.1955 125.608,-55.5965"/>
</g>
<!-- Node3 -->
<g id="node3" class="node"><title>Node3</title>
<g id="a_node3"><a xlink:href="imd_8cpp.html" target="_top" xlink:title="Implementation of imd.h. ">
<polygon fill="none" stroke="black" points="85.5,-0.5 85.5,-19.5 141.5,-19.5 141.5,-0.5 85.5,-0.5"/>
<text text-anchor="middle" x="113.5" y="-7.5" font-family="Helvetica,sans-Serif" font-size="10.00">imd.cpp</text>
</a>
</g>
</g>
<!-- Node1&#45;&gt;Node3 -->
<g id="edge2" class="edge"><title>Node1&#45;&gt;Node3</title>
<path fill="none" stroke="midnightblue" d="M142.39,-48.144C135.072,-38.7357 126.259,-27.4046 120.306,-19.7511"/>
<polygon fill="midnightblue" stroke="midnightblue" points="139.662,-50.3383 148.565,-56.083 145.188,-46.0406 139.662,-50.3383"/>
</g>
<!-- Node4 -->
<g id="node4" class="node"><title>Node4</title>
<g id="a_node4"><a xlink:href="initialize_8cpp.html" target="_top" xlink:title="Implementation of initialize.hpp. ">
<polygon fill="none" stroke="black" points="159,-0.5 159,-19.5 238,-19.5 238,-0.5 159,-0.5"/>
<text text-anchor="middle" x="198.5" y="-7.5" font-family="Helvetica,sans-Serif" font-size="10.00">initialize.cpp</text>
</a>
</g>
</g>
<!-- Node1&#45;&gt;Node4 -->
<g id="edge3" class="edge"><title>Node1&#45;&gt;Node4</title>
<path fill="none" stroke="midnightblue" d="M168.922,-48.144C176.414,-38.7357 185.437,-27.4046 191.532,-19.7511"/>
<polygon fill="midnightblue" stroke="midnightblue" points="166.092,-46.0799 162.601,-56.083 171.568,-50.4404 166.092,-46.0799"/>
</g>
<!-- Node5 -->
<g id="node5" class="node"><title>Node5</title>
<g id="a_node5"><a xlink:href="imd__tcl_8cpp.html" target="_top" xlink:title="imd_tcl.cpp">
<polygon fill="none" stroke="black" points="256,-0.5 256,-19.5 329,-19.5 329,-0.5 256,-0.5"/>
<text text-anchor="middle" x="292.5" y="-7.5" font-family="Helvetica,sans-Serif" font-size="10.00">imd_tcl.cpp</text>
</a>
</g>
</g>
<!-- Node1&#45;&gt;Node5 -->
<g id="edge4" class="edge"><title>Node1&#45;&gt;Node5</title>
<path fill="none" stroke="midnightblue" d="M186.523,-52.772C212.257,-42.6287 248.186,-28.4669 270.894,-19.5164"/>
<polygon fill="midnightblue" stroke="midnightblue" points="185.228,-49.5203 177.208,-56.4435 187.795,-56.0326 185.228,-49.5203"/>
</g>
</g>
</svg>
