<?xml version="1.0" encoding="UTF-8" standalone="no"?>
<!DOCTYPE svg PUBLIC "-//W3C//DTD SVG 1.1//EN"
 "http://www.w3.org/Graphics/SVG/1.1/DTD/svg11.dtd">
<!-- Generated by graphviz version 2.38.0 (20140413.2041)
 -->
<!-- Title: Graphical Class Hierarchy Pages: 1 -->
<svg width="226pt" height="104pt"
 viewBox="0.00 0.00 226.00 104.00" xmlns="http://www.w3.org/2000/svg" xmlns:xlink="http://www.w3.org/1999/xlink">
<g id="graph0" class="graph" transform="scale(1 1) rotate(0) translate(4 100)">
<title>Graphical Class Hierarchy</title>
<!-- Node1 -->
<g id="node1" class="node"><title>Node1</title>
<g id="a_node1"><a xlink:href="classActor.html" target="_top" xlink:title="Generic abstract potential class. ">
<polygon fill="none" stroke="black" points="0,-38.5 0,-57.5 42,-57.5 42,-38.5 0,-38.5"/>
<text text-anchor="middle" x="21" y="-45.5" font-family="Helvetica,sans-Serif" font-size="10.00">Actor</text>
</a>
</g>
</g>
<!-- Node2 -->
<g id="node2" class="node"><title>Node2</title>
<g id="a_node2"><a xlink:href="classEwaldgpuForce.html" target="_top" xlink:title="EwaldgpuForce">
<polygon fill="none" stroke="black" points="103,-76.5 103,-95.5 193,-95.5 193,-76.5 103,-76.5"/>
<text text-anchor="middle" x="148" y="-83.5" font-family="Helvetica,sans-Serif" font-size="10.00">EwaldgpuForce</text>
</a>
</g>
</g>
<!-- Node1&#45;&gt;Node2 -->
<g id="edge1" class="edge"><title>Node1&#45;&gt;Node2</title>
<path fill="none" stroke="midnightblue" d="M51.6299,-58.4129C60.1134,-61.2963 69.394,-64.3576 78,-67 88.5712,-70.2458 100.132,-73.5311 110.716,-76.4363"/>
<polygon fill="midnightblue" stroke="midnightblue" points="52.7202,-55.0867 42.1255,-55.1457 50.4445,-61.7065 52.7202,-55.0867"/>
</g>
<!-- Node3 -->
<g id="node3" class="node"><title>Node3</title>
<g id="a_node3"><a xlink:href="classHarmonicOrientationWell.html" target="_top" xlink:title="HarmonicOrientationWell">
<polygon fill="none" stroke="black" points="78,-38.5 78,-57.5 218,-57.5 218,-38.5 78,-38.5"/>
<text text-anchor="middle" x="148" y="-45.5" font-family="Helvetica,sans-Serif" font-size="10.00">HarmonicOrientationWell</text>
</a>
</g>
</g>
<!-- Node1&#45;&gt;Node3 -->
<g id="edge2" class="edge"><title>Node1&#45;&gt;Node3</title>
<path fill="none" stroke="midnightblue" d="M52.1976,-48C60.0992,-48 68.9508,-48 77.986,-48"/>
<polygon fill="midnightblue" stroke="midnightblue" points="52.0834,-44.5001 42.0834,-48 52.0834,-51.5001 52.0834,-44.5001"/>
</g>
<!-- Node4 -->
<g id="node4" class="node"><title>Node4</title>
<g id="a_node4"><a xlink:href="classMmm1dgpuForce.html" target="_top" xlink:title="Mmm1dgpuForce">
<polygon fill="none" stroke="black" points="97.5,-0.5 97.5,-19.5 198.5,-19.5 198.5,-0.5 97.5,-0.5"/>
<text text-anchor="middle" x="148" y="-7.5" font-family="Helvetica,sans-Serif" font-size="10.00">Mmm1dgpuForce</text>
</a>
</g>
</g>
<!-- Node1&#45;&gt;Node4 -->
<g id="edge3" class="edge"><title>Node1&#45;&gt;Node4</title>
<path fill="none" stroke="midnightblue" d="M51.6299,-37.5871C60.1134,-34.7037 69.394,-31.6424 78,-29 88.5712,-25.7542 100.132,-22.4689 110.716,-19.5637"/>
<polygon fill="midnightblue" stroke="midnightblue" points="50.4445,-34.2935 42.1255,-40.8543 52.7202,-40.9133 50.4445,-34.2935"/>
</g>
</g>
</svg>
