<?xml version="1.0" encoding="UTF-8" standalone="no"?>
<!DOCTYPE svg PUBLIC "-//W3C//DTD SVG 1.1//EN"
 "http://www.w3.org/Graphics/SVG/1.1/DTD/svg11.dtd">
<!-- Generated by graphviz version 2.38.0 (20140413.2041)
 -->
<!-- Title: initialize.hpp Pages: 1 -->
<svg width="2301pt" height="95pt"
 viewBox="0.00 0.00 2300.50 95.00" xmlns="http://www.w3.org/2000/svg" xmlns:xlink="http://www.w3.org/1999/xlink">
<g id="graph0" class="graph" transform="scale(1 1) rotate(0) translate(4 91)">
<title>initialize.hpp</title>
<!-- Node1 -->
<g id="node1" class="node"><title>Node1</title>
<polygon fill="#bfbfbf" stroke="black" points="1161.5,-67.5 1161.5,-86.5 1241.5,-86.5 1241.5,-67.5 1161.5,-67.5"/>
<text text-anchor="middle" x="1201.5" y="-74.5" font-family="Helvetica,sans-Serif" font-size="10.00">initialize.hpp</text>
</g>
<!-- Node2 -->
<g id="node2" class="node"><title>Node2</title>
<g id="a_node2"><a xlink:href="cells_8cpp.html" target="_top" xlink:title="This file contains functions for the cell system. ">
<polygon fill="none" stroke="black" points="0,-6 0,-25 59,-25 59,-6 0,-6"/>
<text text-anchor="middle" x="29.5" y="-13" font-family="Helvetica,sans-Serif" font-size="10.00">cells.cpp</text>
</a>
</g>
</g>
<!-- Node1&#45;&gt;Node2 -->
<g id="edge1" class="edge"><title>Node1&#45;&gt;Node2</title>
<path fill="none" stroke="midnightblue" d="M1151.42,-76.1642C960.595,-76.4566 279.185,-74.3722 67.5,-31 61.1359,-29.6961 54.4383,-27.4566 48.4688,-25.1225"/>
<polygon fill="midnightblue" stroke="midnightblue" points="1151.45,-79.6642 1161.45,-76.1459 1151.44,-72.6642 1151.45,-79.6642"/>
</g>
<!-- Node3 -->
<g id="node3" class="node"><title>Node3</title>
<g id="a_node3"><a xlink:href="communication_8cpp.html" target="_top" xlink:title="communication.cpp">
<polygon fill="none" stroke="black" points="77,-6 77,-25 190,-25 190,-6 77,-6"/>
<text text-anchor="middle" x="133.5" y="-13" font-family="Helvetica,sans-Serif" font-size="10.00">communication.cpp</text>
</a>
</g>
</g>
<!-- Node1&#45;&gt;Node3 -->
<g id="edge2" class="edge"><title>Node1&#45;&gt;Node3</title>
<path fill="none" stroke="midnightblue" d="M1151.34,-74.9095C975.243,-70.9 385.807,-55.8994 198.5,-31 187.956,-29.5983 176.595,-27.3314 166.367,-25.0022"/>
<polygon fill="midnightblue" stroke="midnightblue" points="1151.29,-78.4092 1161.36,-75.136 1151.45,-71.4109 1151.29,-78.4092"/>
</g>
<!-- Node4 -->
<g id="node4" class="node"><title>Node4</title>
<g id="a_node4"><a xlink:href="domain__decomposition_8cpp.html" target="_top" xlink:title="This file contains everything related to the cell system: domain decomposition. ">
<polygon fill="none" stroke="black" points="208,-6 208,-25 359,-25 359,-6 208,-6"/>
<text text-anchor="middle" x="283.5" y="-13" font-family="Helvetica,sans-Serif" font-size="10.00">domain_decomposition.cpp</text>
</a>
</g>
</g>
<!-- Node1&#45;&gt;Node4 -->
<g id="edge3" class="edge"><title>Node1&#45;&gt;Node4</title>
<path fill="none" stroke="midnightblue" d="M1151.39,-75.338C1021.51,-73.1803 663.507,-64.4179 367.5,-31 354.412,-29.5224 340.272,-27.3197 327.392,-25.0746"/>
<polygon fill="midnightblue" stroke="midnightblue" points="1151.38,-78.8381 1161.43,-75.4991 1151.49,-71.839 1151.38,-78.8381"/>
</g>
<!-- Node5 -->
<g id="node5" class="node"><title>Node5</title>
<g id="a_node5"><a xlink:href="energy_8cpp.html" target="_top" xlink:title="Implementation of energy.hpp. ">
<polygon fill="none" stroke="black" points="377,-6 377,-25 446,-25 446,-6 377,-6"/>
<text text-anchor="middle" x="411.5" y="-13" font-family="Helvetica,sans-Serif" font-size="10.00">energy.cpp</text>
</a>
</g>
</g>
<!-- Node1&#45;&gt;Node5 -->
<g id="edge4" class="edge"><title>Node1&#45;&gt;Node5</title>
<path fill="none" stroke="midnightblue" d="M1150.77,-74.6936C1005.26,-70.6693 588.39,-57.1251 454.5,-31 447.386,-29.6119 439.832,-27.3488 433.073,-25.0189"/>
<polygon fill="midnightblue" stroke="midnightblue" points="1151.08,-78.2034 1161.18,-74.9779 1151.27,-71.206 1151.08,-78.2034"/>
</g>
<!-- Node6 -->
<g id="node6" class="node"><title>Node6</title>
<g id="a_node6"><a xlink:href="galilei_8cpp.html" target="_top" xlink:title="galilei.cpp">
<polygon fill="none" stroke="black" points="464,-6 464,-25 531,-25 531,-6 464,-6"/>
<text text-anchor="middle" x="497.5" y="-13" font-family="Helvetica,sans-Serif" font-size="10.00">galilei.cpp</text>
</a>
</g>
</g>
<!-- Node1&#45;&gt;Node6 -->
<g id="edge5" class="edge"><title>Node1&#45;&gt;Node6</title>
<path fill="none" stroke="midnightblue" d="M1151.14,-74.3003C1017.55,-69.5164 656.427,-54.7203 539.5,-31 532.696,-29.6197 525.485,-27.4178 518.994,-25.1425"/>
<polygon fill="midnightblue" stroke="midnightblue" points="1151.36,-77.8104 1161.48,-74.6669 1151.61,-70.8148 1151.36,-77.8104"/>
</g>
<!-- Node7 -->
<g id="node7" class="node"><title>Node7</title>
<g id="a_node7"><a xlink:href="initialize_8cpp.html" target="_top" xlink:title="Implementation of initialize.hpp. ">
<polygon fill="none" stroke="black" points="549,-6 549,-25 628,-25 628,-6 549,-6"/>
<text text-anchor="middle" x="588.5" y="-13" font-family="Helvetica,sans-Serif" font-size="10.00">initialize.cpp</text>
</a>
</g>
</g>
<!-- Node1&#45;&gt;Node7 -->
<g id="edge6" class="edge"><title>Node1&#45;&gt;Node7</title>
<path fill="none" stroke="midnightblue" d="M1151.34,-75.5893C1052.14,-73.9909 824.216,-66.4056 636.5,-31 628.801,-29.5479 620.583,-27.3246 613.162,-25.0519"/>
<polygon fill="midnightblue" stroke="midnightblue" points="1151.33,-79.0894 1161.38,-75.7374 1151.43,-72.0902 1151.33,-79.0894"/>
</g>
<!-- Node8 -->
<g id="node8" class="node"><title>Node8</title>
<g id="a_node8"><a xlink:href="core_2integrate_8cpp.html" target="_top" xlink:title="integrate.cpp">
<polygon fill="none" stroke="black" points="646,-6 646,-25 727,-25 727,-6 646,-6"/>
<text text-anchor="middle" x="686.5" y="-13" font-family="Helvetica,sans-Serif" font-size="10.00">integrate.cpp</text>
</a>
</g>
</g>
<!-- Node1&#45;&gt;Node8 -->
<g id="edge7" class="edge"><title>Node1&#45;&gt;Node8</title>
<path fill="none" stroke="midnightblue" d="M1151.1,-74.1886C1065.28,-70.4236 885.611,-59.5789 736.5,-31 728.6,-29.4858 720.149,-27.2719 712.486,-25.0279"/>
<polygon fill="midnightblue" stroke="midnightblue" points="1151.2,-77.6959 1161.33,-74.6236 1151.49,-70.7022 1151.2,-77.6959"/>
</g>
<!-- Node9 -->
<g id="node9" class="node"><title>Node9</title>
<g id="a_node9"><a xlink:href="integrate__sd_8cpp.html" target="_top" xlink:title="Stokesian dynamics integrator. ">
<polygon fill="none" stroke="black" points="745.5,-6 745.5,-25 843.5,-25 843.5,-6 745.5,-6"/>
<text text-anchor="middle" x="794.5" y="-13" font-family="Helvetica,sans-Serif" font-size="10.00">integrate_sd.cpp</text>
</a>
</g>
</g>
<!-- Node1&#45;&gt;Node9 -->
<g id="edge8" class="edge"><title>Node1&#45;&gt;Node9</title>
<path fill="none" stroke="midnightblue" d="M1151.47,-71.4033C1083.44,-64.7318 958.135,-50.9441 852.5,-31 843.831,-29.3632 834.524,-27.2148 825.959,-25.075"/>
<polygon fill="midnightblue" stroke="midnightblue" points="1151.19,-74.8927 1161.48,-72.3744 1151.87,-67.9254 1151.19,-74.8927"/>
</g>
<!-- Node10 -->
<g id="node10" class="node"><title>Node10</title>
<g id="a_node10"><a xlink:href="interaction__data_8cpp.html" target="_top" xlink:title="Implementation of interaction_data.hpp. ">
<polygon fill="none" stroke="black" points="861.5,-6 861.5,-25 977.5,-25 977.5,-6 861.5,-6"/>
<text text-anchor="middle" x="919.5" y="-13" font-family="Helvetica,sans-Serif" font-size="10.00">interaction_data.cpp</text>
</a>
</g>
</g>
<!-- Node1&#45;&gt;Node10 -->
<g id="edge9" class="edge"><title>Node1&#45;&gt;Node10</title>
<path fill="none" stroke="midnightblue" d="M1151.4,-65.6153C1107.82,-56.556 1042.96,-43.0176 986.5,-31 977.537,-29.0921 967.904,-27.0202 958.816,-25.0554"/>
<polygon fill="midnightblue" stroke="midnightblue" points="1150.96,-69.0975 1161.46,-67.7047 1152.38,-62.2438 1150.96,-69.0975"/>
</g>
<!-- Node11 -->
<g id="node11" class="node"><title>Node11</title>
<g id="a_node11"><a xlink:href="lees__edwards__comms__manager_8cpp.html" target="_top" xlink:title="This file defined methods for a class to hold some state for Lees&#45;Edwards Comms updates. ">
<polygon fill="none" stroke="black" points="996,-0.5 996,-30.5 1121,-30.5 1121,-0.5 996,-0.5"/>
<text text-anchor="start" x="1004" y="-18.5" font-family="Helvetica,sans-Serif" font-size="10.00">lees_edwards_comms</text>
<text text-anchor="middle" x="1058.5" y="-7.5" font-family="Helvetica,sans-Serif" font-size="10.00">_manager.cpp</text>
</a>
</g>
</g>
<!-- Node1&#45;&gt;Node11 -->
<g id="edge10" class="edge"><title>Node1&#45;&gt;Node11</title>
<path fill="none" stroke="midnightblue" d="M1171.67,-63.5899C1148.49,-53.9425 1116.32,-40.5575 1092.2,-30.523"/>
<polygon fill="midnightblue" stroke="midnightblue" points="1170.43,-66.8649 1181.01,-67.4751 1173.12,-60.402 1170.43,-66.8649"/>
</g>
<!-- Node12 -->
<g id="node12" class="node"><title>Node12</title>
<g id="a_node12"><a xlink:href="lees__edwards__domain__decomposition_8cpp.html" target="_top" xlink:title="This file contains modifications to the domain decomposition functions which are specific to Lees&#45;Edw...">
<polygon fill="none" stroke="black" points="1139,-0.5 1139,-30.5 1264,-30.5 1264,-0.5 1139,-0.5"/>
<text text-anchor="start" x="1147" y="-18.5" font-family="Helvetica,sans-Serif" font-size="10.00">lees_edwards_domain</text>
<text text-anchor="middle" x="1201.5" y="-7.5" font-family="Helvetica,sans-Serif" font-size="10.00">_decomposition.cpp</text>
</a>
</g>
</g>
<!-- Node1&#45;&gt;Node12 -->
<g id="edge11" class="edge"><title>Node1&#45;&gt;Node12</title>
<path fill="none" stroke="midnightblue" d="M1201.5,-57.2349C1201.5,-48.5864 1201.5,-38.4969 1201.5,-30.523"/>
<polygon fill="midnightblue" stroke="midnightblue" points="1198,-57.4751 1201.5,-67.4751 1205,-57.4751 1198,-57.4751"/>
</g>
<!-- Node13 -->
<g id="node13" class="node"><title>Node13</title>
<g id="a_node13"><a xlink:href="maggs_8cpp.html" target="_top" xlink:title="Maxwell Equations Molecular Dynamics (MEMD) method for electrostatic interactions. ">
<polygon fill="none" stroke="black" points="1282.5,-6 1282.5,-25 1352.5,-25 1352.5,-6 1282.5,-6"/>
<text text-anchor="middle" x="1317.5" y="-13" font-family="Helvetica,sans-Serif" font-size="10.00">maggs.cpp</text>
</a>
</g>
</g>
<!-- Node1&#45;&gt;Node13 -->
<g id="edge12" class="edge"><title>Node1&#45;&gt;Node13</title>
<path fill="none" stroke="midnightblue" d="M1227.1,-62.8665C1249.59,-51.3347 1281.63,-34.8992 1300.91,-25.0091"/>
<polygon fill="midnightblue" stroke="midnightblue" points="1225.42,-59.7969 1218.12,-67.4751 1228.62,-66.0253 1225.42,-59.7969"/>
</g>
<!-- Node14 -->
<g id="node14" class="node"><title>Node14</title>
<g id="a_node14"><a xlink:href="minimize__energy_8cpp.html" target="_top" xlink:title="minimize_energy.cpp">
<polygon fill="none" stroke="black" points="1370.5,-6 1370.5,-25 1490.5,-25 1490.5,-6 1370.5,-6"/>
<text text-anchor="middle" x="1430.5" y="-13" font-family="Helvetica,sans-Serif" font-size="10.00">minimize_energy.cpp</text>
</a>
</g>
</g>
<!-- Node1&#45;&gt;Node14 -->
<g id="edge13" class="edge"><title>Node1&#45;&gt;Node14</title>
<path fill="none" stroke="midnightblue" d="M1244.24,-64.8956C1288.71,-53.3396 1357.39,-35.4952 1397.75,-25.0091"/>
<polygon fill="midnightblue" stroke="midnightblue" points="1243.11,-61.5727 1234.31,-67.4751 1244.87,-68.3478 1243.11,-61.5727"/>
</g>
<!-- Node15 -->
<g id="node15" class="node"><title>Node15</title>
<g id="a_node15"><a xlink:href="p3m_8cpp.html" target="_top" xlink:title="p3m.cpp">
<polygon fill="none" stroke="black" points="1509,-6 1509,-25 1568,-25 1568,-6 1509,-6"/>
<text text-anchor="middle" x="1538.5" y="-13" font-family="Helvetica,sans-Serif" font-size="10.00">p3m.cpp</text>
</a>
</g>
</g>
<!-- Node1&#45;&gt;Node15 -->
<g id="edge14" class="edge"><title>Node1&#45;&gt;Node15</title>
<path fill="none" stroke="midnightblue" d="M1251.84,-71.5926C1311.61,-65.6298 1413.96,-53.1084 1499.5,-31 1505.51,-29.4455 1511.89,-27.299 1517.7,-25.1338"/>
<polygon fill="midnightblue" stroke="midnightblue" points="1251.16,-68.1421 1241.55,-72.5963 1251.84,-75.109 1251.16,-68.1421"/>
</g>
<!-- Node16 -->
<g id="node16" class="node"><title>Node16</title>
<g id="a_node16"><a xlink:href="pressure_8cpp.html" target="_top" xlink:title="Implementation of pressure.h. ">
<polygon fill="none" stroke="black" points="1586,-6 1586,-25 1665,-25 1665,-6 1586,-6"/>
<text text-anchor="middle" x="1625.5" y="-13" font-family="Helvetica,sans-Serif" font-size="10.00">pressure.cpp</text>
</a>
</g>
</g>
<!-- Node1&#45;&gt;Node16 -->
<g id="edge15" class="edge"><title>Node1&#45;&gt;Node16</title>
<path fill="none" stroke="midnightblue" d="M1251.89,-72.7718C1324.46,-67.4908 1462.35,-55.0921 1577.5,-31 1585,-29.4312 1593.01,-27.2276 1600.3,-25.011"/>
<polygon fill="midnightblue" stroke="midnightblue" points="1251.39,-69.2982 1241.66,-73.4999 1251.89,-76.2806 1251.39,-69.2982"/>
</g>
<!-- Node17 -->
<g id="node17" class="node"><title>Node17</title>
<g id="a_node17"><a xlink:href="reaction_8cpp.html" target="_top" xlink:title="reaction.cpp">
<polygon fill="none" stroke="black" points="1683,-6 1683,-25 1760,-25 1760,-6 1683,-6"/>
<text text-anchor="middle" x="1721.5" y="-13" font-family="Helvetica,sans-Serif" font-size="10.00">reaction.cpp</text>
</a>
</g>
</g>
<!-- Node1&#45;&gt;Node17 -->
<g id="edge16" class="edge"><title>Node1&#45;&gt;Node17</title>
<path fill="none" stroke="midnightblue" d="M1251.89,-74.5811C1338.88,-71.3834 1522.53,-61.3387 1674.5,-31 1681.87,-29.5288 1689.73,-27.3557 1696.86,-25.1371"/>
<polygon fill="midnightblue" stroke="midnightblue" points="1251.64,-71.0877 1241.77,-74.938 1251.89,-78.0833 1251.64,-71.0877"/>
</g>
<!-- Node18 -->
<g id="node18" class="node"><title>Node18</title>
<g id="a_node18"><a xlink:href="rotation_8cpp.html" target="_top" xlink:title="Molecular dynamics integrator for rotational motion. ">
<polygon fill="none" stroke="black" points="1778,-6 1778,-25 1853,-25 1853,-6 1778,-6"/>
<text text-anchor="middle" x="1815.5" y="-13" font-family="Helvetica,sans-Serif" font-size="10.00">rotation.cpp</text>
</a>
</g>
</g>
<!-- Node1&#45;&gt;Node18 -->
<g id="edge17" class="edge"><title>Node1&#45;&gt;Node18</title>
<path fill="none" stroke="midnightblue" d="M1251.59,-75.8177C1351.19,-74.6259 1580.77,-67.7294 1769.5,-31 1776.9,-29.5604 1784.78,-27.3409 1791.89,-25.0677"/>
<polygon fill="midnightblue" stroke="midnightblue" points="1251.48,-72.3186 1241.51,-75.9239 1251.55,-79.3182 1251.48,-72.3186"/>
</g>
<!-- Node19 -->
<g id="node19" class="node"><title>Node19</title>
<g id="a_node19"><a xlink:href="statistics_8cpp.html" target="_top" xlink:title="This is the place for analysis (so far...). ">
<polygon fill="none" stroke="black" points="1871,-6 1871,-25 1952,-25 1952,-6 1871,-6"/>
<text text-anchor="middle" x="1911.5" y="-13" font-family="Helvetica,sans-Serif" font-size="10.00">statistics.cpp</text>
</a>
</g>
</g>
<!-- Node1&#45;&gt;Node19 -->
<g id="edge18" class="edge"><title>Node1&#45;&gt;Node19</title>
<path fill="none" stroke="midnightblue" d="M1251.99,-76.3228C1363.21,-76.2159 1637.4,-71.4593 1862.5,-31 1870.45,-29.5718 1878.93,-27.3268 1886.58,-25.0261"/>
<polygon fill="midnightblue" stroke="midnightblue" points="1251.74,-72.8229 1241.74,-76.3197 1251.74,-79.8229 1251.74,-72.8229"/>
</g>
<!-- Node20 -->
<g id="node20" class="node"><title>Node20</title>
<g id="a_node20"><a xlink:href="electrokinetics__tcl_8cpp.html" target="_top" xlink:title="electrokinetics_tcl.cpp">
<polygon fill="none" stroke="black" points="1970.5,-6 1970.5,-25 2096.5,-25 2096.5,-6 1970.5,-6"/>
<text text-anchor="middle" x="2033.5" y="-13" font-family="Helvetica,sans-Serif" font-size="10.00">electrokinetics_tcl.cpp</text>
</a>
</g>
</g>
<!-- Node1&#45;&gt;Node20 -->
<g id="edge19" class="edge"><title>Node1&#45;&gt;Node20</title>
<path fill="none" stroke="midnightblue" d="M1251.81,-75.444C1373.95,-73.5682 1695.62,-65.4724 1961.5,-31 1972.88,-29.5244 1985.16,-27.2942 1996.3,-25.0224"/>
<polygon fill="midnightblue" stroke="midnightblue" points="1251.6,-71.9467 1241.65,-75.5927 1251.7,-78.9459 1251.6,-71.9467"/>
</g>
<!-- Node21 -->
<g id="node21" class="node"><title>Node21</title>
<g id="a_node21"><a xlink:href="main_8cpp.html" target="_top" xlink:title="Main file of Espresso. ">
<polygon fill="none" stroke="black" points="2114.5,-6 2114.5,-25 2176.5,-25 2176.5,-6 2114.5,-6"/>
<text text-anchor="middle" x="2145.5" y="-13" font-family="Helvetica,sans-Serif" font-size="10.00">main.cpp</text>
</a>
</g>
</g>
<!-- Node1&#45;&gt;Node21 -->
<g id="edge20" class="edge"><title>Node1&#45;&gt;Node21</title>
<path fill="none" stroke="midnightblue" d="M1251.95,-75.4603C1417.08,-73.3848 1940.26,-64.282 2105.5,-31 2112.16,-29.6582 2119.2,-27.4082 2125.49,-25.0759"/>
<polygon fill="midnightblue" stroke="midnightblue" points="1251.56,-71.9647 1241.6,-75.587 1251.64,-78.9642 1251.56,-71.9647"/>
</g>
<!-- Node22 -->
<g id="node22" class="node"><title>Node22</title>
<g id="a_node22"><a xlink:href="statistics__tcl_8cpp.html" target="_top" xlink:title="statistics_tcl.cpp">
<polygon fill="none" stroke="black" points="2194.5,-6 2194.5,-25 2292.5,-25 2292.5,-6 2194.5,-6"/>
<text text-anchor="middle" x="2243.5" y="-13" font-family="Helvetica,sans-Serif" font-size="10.00">statistics_tcl.cpp</text>
</a>
</g>
</g>
<!-- Node1&#45;&gt;Node22 -->
<g id="edge21" class="edge"><title>Node1&#45;&gt;Node22</title>
<path fill="none" stroke="midnightblue" d="M1251.88,-75.0231C1426.11,-71.4369 2002.47,-57.7897 2185.5,-31 2194.95,-29.617 2205.1,-27.3554 2214.22,-25.0252"/>
<polygon fill="midnightblue" stroke="midnightblue" points="1251.64,-71.5272 1241.71,-75.2303 1251.78,-78.5257 1251.64,-71.5272"/>
</g>
</g>
</svg>
