<?xml version="1.0" encoding="UTF-8" standalone="no"?>
<!DOCTYPE svg PUBLIC "-//W3C//DTD SVG 1.1//EN"
 "http://www.w3.org/Graphics/SVG/1.1/DTD/svg11.dtd">
<!-- Generated by graphviz version 2.38.0 (20140413.2041)
 -->
<!-- Title: integrate_sd_cuda_kernel.hpp Pages: 1 -->
<svg width="302pt" height="84pt"
 viewBox="0.00 0.00 301.50 84.00" xmlns="http://www.w3.org/2000/svg" xmlns:xlink="http://www.w3.org/1999/xlink">
<g id="graph0" class="graph" transform="scale(1 1) rotate(0) translate(4 80)">
<title>integrate_sd_cuda_kernel.hpp</title>
<!-- Node1 -->
<g id="node1" class="node"><title>Node1</title>
<polygon fill="#bfbfbf" stroke="black" points="56.5,-56.5 56.5,-75.5 219.5,-75.5 219.5,-56.5 56.5,-56.5"/>
<text text-anchor="middle" x="138" y="-63.5" font-family="Helvetica,sans-Serif" font-size="10.00">integrate_sd_cuda_kernel.hpp</text>
</g>
<!-- Node2 -->
<g id="node2" class="node"><title>Node2</title>
<g id="a_node2"><a xlink:href="integrate__sd__cuda_8cu.html" target="_top" xlink:title="Stokes dynamics integrator. ">
<polygon fill="none" stroke="black" points="0,-0.5 0,-19.5 120,-19.5 120,-0.5 0,-0.5"/>
<text text-anchor="middle" x="60" y="-7.5" font-family="Helvetica,sans-Serif" font-size="10.00">integrate_sd_cuda.cu</text>
</a>
</g>
</g>
<!-- Node1&#45;&gt;Node2 -->
<g id="edge1" class="edge"><title>Node1&#45;&gt;Node2</title>
<path fill="none" stroke="midnightblue" d="M117.232,-50.6221C102.983,-40.7574 84.5438,-27.9919 72.5009,-19.6545"/>
<polygon fill="midnightblue" stroke="midnightblue" points="115.254,-53.5095 125.468,-56.324 119.238,-47.7541 115.254,-53.5095"/>
</g>
<!-- Node3 -->
<g id="node3" class="node"><title>Node3</title>
<g id="a_node3"><a xlink:href="integrate__sd__cuda__debug_8cu.html" target="_top" xlink:title="integrate_sd_cuda_debug.cu">
<polygon fill="none" stroke="black" points="138.5,-0.5 138.5,-19.5 293.5,-19.5 293.5,-0.5 138.5,-0.5"/>
<text text-anchor="middle" x="216" y="-7.5" font-family="Helvetica,sans-Serif" font-size="10.00">integrate_sd_cuda_debug.cu</text>
</a>
</g>
</g>
<!-- Node1&#45;&gt;Node3 -->
<g id="edge2" class="edge"><title>Node1&#45;&gt;Node3</title>
<path fill="none" stroke="midnightblue" d="M158.768,-50.6221C173.017,-40.7574 191.456,-27.9919 203.499,-19.6545"/>
<polygon fill="midnightblue" stroke="midnightblue" points="156.762,-47.7541 150.532,-56.324 160.746,-53.5095 156.762,-47.7541"/>
</g>
</g>
</svg>
