<?xml version="1.0" encoding="UTF-8" standalone="no"?>
<!DOCTYPE svg PUBLIC "-//W3C//DTD SVG 1.1//EN"
 "http://www.w3.org/Graphics/SVG/1.1/DTD/svg11.dtd">
<!-- Generated by graphviz version 2.38.0 (20140413.2041)
 -->
<!-- Title: integrate_tcl.cpp Pages: 1 -->
<svg width="1137pt" height="588pt"
 viewBox="0.00 0.00 1136.50 588.00" xmlns="http://www.w3.org/2000/svg" xmlns:xlink="http://www.w3.org/1999/xlink">
<g id="graph0" class="graph" transform="scale(1 1) rotate(0) translate(4 584)">
<title>integrate_tcl.cpp</title>
<!-- Node1 -->
<g id="node1" class="node"><title>Node1</title>
<polygon fill="#bfbfbf" stroke="black" points="440,-560.5 440,-579.5 538,-579.5 538,-560.5 440,-560.5"/>
<text text-anchor="middle" x="489" y="-567.5" font-family="Helvetica,sans-Serif" font-size="10.00">integrate_tcl.cpp</text>
</g>
<!-- Node2 -->
<g id="node2" class="node"><title>Node2</title>
<g id="a_node2"><a xlink:href="integrate_8hpp.html" target="_top" xlink:title="Molecular dynamics integrator. ">
<polygon fill="none" stroke="black" points="143,-504.5 143,-523.5 225,-523.5 225,-504.5 143,-504.5"/>
<text text-anchor="middle" x="184" y="-511.5" font-family="Helvetica,sans-Serif" font-size="10.00">integrate.hpp</text>
</a>
</g>
</g>
<!-- Node1&#45;&gt;Node2 -->
<g id="edge1" class="edge"><title>Node1&#45;&gt;Node2</title>
<path fill="none" stroke="midnightblue" d="M440.106,-560.423C390.873,-551.775 312.458,-537.969 235.114,-524.194"/>
<polygon fill="midnightblue" stroke="midnightblue" points="235.658,-520.736 225.199,-522.427 234.43,-527.627 235.658,-520.736"/>
</g>
<!-- Node3 -->
<g id="node3" class="node"><title>Node3</title>
<g id="a_node3"><a xlink:href="global_8hpp.html" target="_top" xlink:title="This file contains the code for access to globally defined variables using the script command setmd...">
<polygon fill="none" stroke="black" points="243,-504.5 243,-523.5 311,-523.5 311,-504.5 243,-504.5"/>
<text text-anchor="middle" x="277" y="-511.5" font-family="Helvetica,sans-Serif" font-size="10.00">global.hpp</text>
</a>
</g>
</g>
<!-- Node1&#45;&gt;Node3 -->
<g id="edge2" class="edge"><title>Node1&#45;&gt;Node3</title>
<path fill="none" stroke="midnightblue" d="M455.408,-560.444C418.813,-551.122 360.162,-536.183 320.174,-525.997"/>
<polygon fill="midnightblue" stroke="midnightblue" points="320.989,-522.593 310.435,-523.516 319.261,-529.377 320.989,-522.593"/>
</g>
<!-- Node4 -->
<g id="node4" class="node"><title>Node4</title>
<g id="a_node4"><a xlink:href="npt_8hpp.html" target="_top" xlink:title="exports for the NPT code, which otherwise is really spread all over... ">
<polygon fill="none" stroke="black" points="405.5,-336.5 405.5,-355.5 458.5,-355.5 458.5,-336.5 405.5,-336.5"/>
<text text-anchor="middle" x="432" y="-343.5" font-family="Helvetica,sans-Serif" font-size="10.00">npt.hpp</text>
</a>
</g>
</g>
<!-- Node1&#45;&gt;Node4 -->
<g id="edge3" class="edge"><title>Node1&#45;&gt;Node4</title>
<path fill="none" stroke="midnightblue" d="M486.766,-560.297C478.361,-527.563 448.529,-411.375 436.793,-365.666"/>
<polygon fill="midnightblue" stroke="midnightblue" points="440.158,-364.699 434.281,-355.884 433.378,-366.44 440.158,-364.699"/>
</g>
<!-- Node22 -->
<g id="node22" class="node"><title>Node22</title>
<g id="a_node22"><a xlink:href="interaction__data_8hpp.html" target="_top" xlink:title="Various procedures concerning interactions between particles. ">
<polygon fill="none" stroke="black" points="282.5,-280.5 282.5,-299.5 399.5,-299.5 399.5,-280.5 282.5,-280.5"/>
<text text-anchor="middle" x="341" y="-287.5" font-family="Helvetica,sans-Serif" font-size="10.00">interaction_data.hpp</text>
</a>
</g>
</g>
<!-- Node1&#45;&gt;Node22 -->
<g id="edge24" class="edge"><title>Node1&#45;&gt;Node22</title>
<path fill="none" stroke="midnightblue" d="M468.977,-560.442C436.761,-545.168 377,-509.965 377,-459 377,-459 377,-459 377,-401 377,-366.982 361.256,-329.85 350.591,-308.6"/>
<polygon fill="midnightblue" stroke="midnightblue" points="353.585,-306.772 345.855,-299.527 347.38,-310.012 353.585,-306.772"/>
</g>
<!-- Node24 -->
<g id="node24" class="node"><title>Node24</title>
<g id="a_node24"><a xlink:href="lb_8hpp.html" target="_top" xlink:title="Header file for lb.cpp. ">
<polygon fill="none" stroke="black" points="513.5,-504.5 513.5,-523.5 560.5,-523.5 560.5,-504.5 513.5,-504.5"/>
<text text-anchor="middle" x="537" y="-511.5" font-family="Helvetica,sans-Serif" font-size="10.00">lb.hpp</text>
</a>
</g>
</g>
<!-- Node1&#45;&gt;Node24 -->
<g id="edge28" class="edge"><title>Node1&#45;&gt;Node24</title>
<path fill="none" stroke="midnightblue" d="M496.926,-560.083C503.846,-552.298 514.065,-540.801 522.452,-531.367"/>
<polygon fill="midnightblue" stroke="midnightblue" points="525.194,-533.55 529.221,-523.751 519.962,-528.9 525.194,-533.55"/>
</g>
<!-- Node29 -->
<g id="node29" class="node"><title>Node29</title>
<g id="a_node29"><a xlink:href="communication_8hpp.html" target="_top" xlink:title="This file contains the asynchronous MPI communication. ">
<polygon fill="none" stroke="black" points="151.5,-280.5 151.5,-299.5 264.5,-299.5 264.5,-280.5 151.5,-280.5"/>
<text text-anchor="middle" x="208" y="-287.5" font-family="Helvetica,sans-Serif" font-size="10.00">communication.hpp</text>
</a>
</g>
</g>
<!-- Node1&#45;&gt;Node29 -->
<g id="edge64" class="edge"><title>Node1&#45;&gt;Node29</title>
<path fill="none" stroke="midnightblue" d="M455.337,-560.483C411.112,-547.036 339,-516.321 339,-459 339,-459 339,-459 339,-401 339,-351.036 282.42,-319.235 243.629,-303.303"/>
<polygon fill="midnightblue" stroke="midnightblue" points="244.782,-299.995 234.195,-299.593 242.22,-306.51 244.782,-299.995"/>
</g>
<!-- Node38 -->
<g id="node38" class="node"><title>Node38</title>
<g id="a_node38"><a xlink:href="statistics__observable_8hpp.html" target="_top" xlink:title="statistics_observable.hpp">
<polygon fill="none" stroke="black" points="828.5,-224.5 828.5,-243.5 969.5,-243.5 969.5,-224.5 828.5,-224.5"/>
<text text-anchor="middle" x="899" y="-231.5" font-family="Helvetica,sans-Serif" font-size="10.00">statistics_observable.hpp</text>
</a>
</g>
</g>
<!-- Node1&#45;&gt;Node38 -->
<g id="edge71" class="edge"><title>Node1&#45;&gt;Node38</title>
<path fill="none" stroke="midnightblue" d="M538.024,-565.296C641.546,-556.125 873,-527.915 873,-459 873,-459 873,-459 873,-345 873,-311.929 884.268,-274.729 891.968,-253.168"/>
<polygon fill="midnightblue" stroke="midnightblue" points="895.293,-254.268 895.494,-243.675 888.731,-251.831 895.293,-254.268"/>
</g>
<!-- Node39 -->
<g id="node39" class="node"><title>Node39</title>
<g id="a_node39"><a xlink:href="pressure__tcl_8hpp.html" target="_top" xlink:title="pressure_tcl.hpp">
<polygon fill="none" stroke="black" points="580.5,-504.5 580.5,-523.5 677.5,-523.5 677.5,-504.5 580.5,-504.5"/>
<text text-anchor="middle" x="629" y="-511.5" font-family="Helvetica,sans-Serif" font-size="10.00">pressure_tcl.hpp</text>
</a>
</g>
</g>
<!-- Node1&#45;&gt;Node39 -->
<g id="edge59" class="edge"><title>Node1&#45;&gt;Node39</title>
<path fill="none" stroke="midnightblue" d="M511.183,-560.444C534.428,-551.478 571.149,-537.314 597.415,-527.183"/>
<polygon fill="midnightblue" stroke="midnightblue" points="598.85,-530.381 606.92,-523.516 596.331,-523.85 598.85,-530.381"/>
</g>
<!-- Node40 -->
<g id="node40" class="node"><title>Node40</title>
<g id="a_node40"><a xlink:href="parser_8hpp.html" target="_top" xlink:title="This file contains macros for parsing the parameters to the &#39;inter&#39; command. ">
<polygon fill="none" stroke="black" points="676,-448.5 676,-467.5 744,-467.5 744,-448.5 676,-448.5"/>
<text text-anchor="middle" x="710" y="-455.5" font-family="Helvetica,sans-Serif" font-size="10.00">parser.hpp</text>
</a>
</g>
</g>
<!-- Node1&#45;&gt;Node40 -->
<g id="edge65" class="edge"><title>Node1&#45;&gt;Node40</title>
<path fill="none" stroke="midnightblue" d="M538.033,-563.312C589.3,-556.437 665.272,-543.331 687,-524 700.256,-512.207 705.872,-492.28 708.251,-477.592"/>
<polygon fill="midnightblue" stroke="midnightblue" points="711.732,-477.962 709.513,-467.602 704.787,-477.085 711.732,-477.962"/>
</g>
<!-- Node42 -->
<g id="node42" class="node"><title>Node42</title>
<g id="a_node42"><a xlink:href="statistics__correlation_8hpp.html" target="_top" xlink:title="statistics_correlation.hpp">
<polygon fill="none" stroke="black" points="928,-280.5 928,-299.5 1068,-299.5 1068,-280.5 928,-280.5"/>
<text text-anchor="middle" x="998" y="-287.5" font-family="Helvetica,sans-Serif" font-size="10.00">statistics_correlation.hpp</text>
</a>
</g>
</g>
<!-- Node1&#45;&gt;Node42 -->
<g id="edge66" class="edge"><title>Node1&#45;&gt;Node42</title>
<path fill="none" stroke="midnightblue" d="M538.359,-567.968C631.216,-565.293 827.877,-555.922 887,-524 920.048,-506.156 941,-496.558 941,-459 941,-459 941,-459 941,-401 941,-364.3 966.321,-327.657 983.21,-307.297"/>
<polygon fill="midnightblue" stroke="midnightblue" points="985.954,-309.475 989.833,-299.616 980.652,-304.904 985.954,-309.475"/>
</g>
<!-- Node5 -->
<g id="node5" class="node"><title>Node5</title>
<g id="a_node5"><a xlink:href="utils_8hpp.html" target="_top" xlink:title="Small functions that are useful not only for one modul. ">
<polygon fill="none" stroke="black" points="561.5,-168.5 561.5,-187.5 620.5,-187.5 620.5,-168.5 561.5,-168.5"/>
<text text-anchor="middle" x="591" y="-175.5" font-family="Helvetica,sans-Serif" font-size="10.00">utils.hpp</text>
</a>
</g>
</g>
<!-- Node4&#45;&gt;Node5 -->
<g id="edge4" class="edge"><title>Node4&#45;&gt;Node5</title>
<path fill="none" stroke="midnightblue" d="M438.533,-336.301C448.227,-323.555 467.196,-299.234 485,-280 514.572,-248.052 552.019,-213.646 573.568,-194.37"/>
<polygon fill="midnightblue" stroke="midnightblue" points="576.107,-196.796 581.254,-187.535 571.455,-191.565 576.107,-196.796"/>
</g>
<!-- Node6 -->
<g id="node6" class="node"><title>Node6</title>
<polygon fill="none" stroke="#bfbfbf" points="1081.5,-112.5 1081.5,-131.5 1128.5,-131.5 1128.5,-112.5 1081.5,-112.5"/>
<text text-anchor="middle" x="1105" y="-119.5" font-family="Helvetica,sans-Serif" font-size="10.00">cmath</text>
</g>
<!-- Node5&#45;&gt;Node6 -->
<g id="edge5" class="edge"><title>Node5&#45;&gt;Node6</title>
<path fill="none" stroke="midnightblue" d="M620.522,-176.014C694.753,-173.159 895.209,-163.124 1071.36,-131.785"/>
<polygon fill="midnightblue" stroke="midnightblue" points="1072.1,-135.208 1081.32,-129.985 1070.86,-128.319 1072.1,-135.208"/>
</g>
<!-- Node7 -->
<g id="node7" class="node"><title>Node7</title>
<polygon fill="none" stroke="#bfbfbf" points="1017,-112.5 1017,-131.5 1063,-131.5 1063,-112.5 1017,-112.5"/>
<text text-anchor="middle" x="1040" y="-119.5" font-family="Helvetica,sans-Serif" font-size="10.00">cstdio</text>
</g>
<!-- Node5&#45;&gt;Node7 -->
<g id="edge6" class="edge"><title>Node5&#45;&gt;Node7</title>
<path fill="none" stroke="midnightblue" d="M620.574,-175.505C687.71,-171.752 856.821,-160.269 1006.84,-131.932"/>
<polygon fill="midnightblue" stroke="midnightblue" points="1007.53,-135.363 1016.69,-130.041 1006.21,-128.489 1007.53,-135.363"/>
</g>
<!-- Node8 -->
<g id="node8" class="node"><title>Node8</title>
<polygon fill="none" stroke="#bfbfbf" points="949.5,-112.5 949.5,-131.5 998.5,-131.5 998.5,-112.5 949.5,-112.5"/>
<text text-anchor="middle" x="974" y="-119.5" font-family="Helvetica,sans-Serif" font-size="10.00">cstdlib</text>
</g>
<!-- Node5&#45;&gt;Node8 -->
<g id="edge7" class="edge"><title>Node5&#45;&gt;Node8</title>
<path fill="none" stroke="midnightblue" d="M620.724,-174.577C679.768,-169.466 816.106,-156.176 939.248,-132.13"/>
<polygon fill="midnightblue" stroke="midnightblue" points="940.093,-135.531 949.221,-130.153 938.732,-128.665 940.093,-135.531"/>
</g>
<!-- Node9 -->
<g id="node9" class="node"><title>Node9</title>
<polygon fill="none" stroke="#bfbfbf" points="684,-112.5 684,-131.5 734,-131.5 734,-112.5 684,-112.5"/>
<text text-anchor="middle" x="709" y="-119.5" font-family="Helvetica,sans-Serif" font-size="10.00">cstring</text>
</g>
<!-- Node5&#45;&gt;Node9 -->
<g id="edge8" class="edge"><title>Node5&#45;&gt;Node9</title>
<path fill="none" stroke="midnightblue" d="M609.697,-168.444C628.944,-159.636 659.152,-145.812 681.2,-135.722"/>
<polygon fill="midnightblue" stroke="midnightblue" points="682.753,-138.86 690.39,-131.516 679.84,-132.495 682.753,-138.86"/>
</g>
<!-- Node10 -->
<g id="node10" class="node"><title>Node10</title>
<g id="a_node10"><a xlink:href="config_8hpp.html" target="_top" xlink:title="This file contains the defaults for Espresso. ">
<polygon fill="none" stroke="black" points="538.5,-56.5 538.5,-75.5 605.5,-75.5 605.5,-56.5 538.5,-56.5"/>
<text text-anchor="middle" x="572" y="-63.5" font-family="Helvetica,sans-Serif" font-size="10.00">config.hpp</text>
</a>
</g>
</g>
<!-- Node5&#45;&gt;Node10 -->
<g id="edge9" class="edge"><title>Node5&#45;&gt;Node10</title>
<path fill="none" stroke="midnightblue" d="M589.509,-168.368C586.443,-150.617 579.37,-109.666 575.212,-85.5974"/>
<polygon fill="midnightblue" stroke="midnightblue" points="578.635,-84.8498 573.484,-75.5914 571.737,-86.0413 578.635,-84.8498"/>
</g>
<!-- Node14 -->
<g id="node14" class="node"><title>Node14</title>
<g id="a_node14"><a xlink:href="debug_8hpp.html" target="_top" xlink:title="This file controls debug facilities. ">
<polygon fill="none" stroke="black" points="354,-112.5 354,-131.5 422,-131.5 422,-112.5 354,-112.5"/>
<text text-anchor="middle" x="388" y="-119.5" font-family="Helvetica,sans-Serif" font-size="10.00">debug.hpp</text>
</a>
</g>
</g>
<!-- Node5&#45;&gt;Node14 -->
<g id="edge13" class="edge"><title>Node5&#45;&gt;Node14</title>
<path fill="none" stroke="midnightblue" d="M561.482,-169.148C526.886,-159.945 469.303,-144.627 430.046,-134.185"/>
<polygon fill="midnightblue" stroke="midnightblue" points="430.801,-130.764 420.238,-131.576 429.002,-137.529 430.801,-130.764"/>
</g>
<!-- Node15 -->
<g id="node15" class="node"><title>Node15</title>
<g id="a_node15"><a xlink:href="lees__edwards_8hpp.html" target="_top" xlink:title="lees_edwards.hpp">
<polygon fill="none" stroke="black" points="440,-112.5 440,-131.5 544,-131.5 544,-112.5 440,-112.5"/>
<text text-anchor="middle" x="492" y="-119.5" font-family="Helvetica,sans-Serif" font-size="10.00">lees_edwards.hpp</text>
</a>
</g>
</g>
<!-- Node5&#45;&gt;Node15 -->
<g id="edge15" class="edge"><title>Node5&#45;&gt;Node15</title>
<path fill="none" stroke="midnightblue" d="M575.094,-168.324C559.362,-159.743 535.058,-146.486 516.791,-136.522"/>
<polygon fill="midnightblue" stroke="midnightblue" points="518.322,-133.37 507.867,-131.655 514.97,-139.516 518.322,-133.37"/>
</g>
<!-- Node16 -->
<g id="node16" class="node"><title>Node16</title>
<g id="a_node16"><a xlink:href="errorhandling_8hpp.html" target="_top" xlink:title="This file contains the errorhandling code for severe errors, like a broken bond or illegal parameter ...">
<polygon fill="none" stroke="black" points="828.5,-112.5 828.5,-131.5 931.5,-131.5 931.5,-112.5 828.5,-112.5"/>
<text text-anchor="middle" x="880" y="-119.5" font-family="Helvetica,sans-Serif" font-size="10.00">errorhandling.hpp</text>
</a>
</g>
</g>
<!-- Node5&#45;&gt;Node16 -->
<g id="edge17" class="edge"><title>Node5&#45;&gt;Node16</title>
<path fill="none" stroke="midnightblue" d="M620.57,-171.475C668.371,-162.543 763.394,-144.788 824.213,-133.424"/>
<polygon fill="midnightblue" stroke="midnightblue" points="825.223,-136.796 834.41,-131.519 823.937,-129.915 825.223,-136.796"/>
</g>
<!-- Node20 -->
<g id="node20" class="node"><title>Node20</title>
<polygon fill="none" stroke="#bfbfbf" points="288.5,-112.5 288.5,-131.5 335.5,-131.5 335.5,-112.5 288.5,-112.5"/>
<text text-anchor="middle" x="312" y="-119.5" font-family="Helvetica,sans-Serif" font-size="10.00">vector</text>
</g>
<!-- Node5&#45;&gt;Node20 -->
<g id="edge22" class="edge"><title>Node5&#45;&gt;Node20</title>
<path fill="none" stroke="midnightblue" d="M561.298,-172.407C516.659,-165.323 429.448,-150.78 345.665,-131.985"/>
<polygon fill="midnightblue" stroke="midnightblue" points="346.259,-128.531 335.732,-129.732 344.711,-135.357 346.259,-128.531"/>
</g>
<!-- Node21 -->
<g id="node21" class="node"><title>Node21</title>
<polygon fill="none" stroke="#bfbfbf" points="600.5,-112.5 600.5,-131.5 665.5,-131.5 665.5,-112.5 600.5,-112.5"/>
<text text-anchor="middle" x="633" y="-119.5" font-family="Helvetica,sans-Serif" font-size="10.00">exception</text>
</g>
<!-- Node5&#45;&gt;Node21 -->
<g id="edge23" class="edge"><title>Node5&#45;&gt;Node21</title>
<path fill="none" stroke="midnightblue" d="M597.935,-168.083C603.929,-160.377 612.752,-149.033 620.048,-139.653"/>
<polygon fill="midnightblue" stroke="midnightblue" points="622.817,-141.793 626.194,-131.751 617.291,-137.496 622.817,-141.793"/>
</g>
<!-- Node11 -->
<g id="node11" class="node"><title>Node11</title>
<g id="a_node11"><a xlink:href="acconfig_8hpp.html" target="_top" xlink:title="acconfig.hpp">
<polygon fill="none" stroke="black" points="422,-0.5 422,-19.5 500,-19.5 500,-0.5 422,-0.5"/>
<text text-anchor="middle" x="461" y="-7.5" font-family="Helvetica,sans-Serif" font-size="10.00">acconfig.hpp</text>
</a>
</g>
</g>
<!-- Node10&#45;&gt;Node11 -->
<g id="edge10" class="edge"><title>Node10&#45;&gt;Node11</title>
<path fill="none" stroke="midnightblue" d="M554.166,-56.324C536.284,-47.6247 508.525,-34.1202 487.954,-24.113"/>
<polygon fill="midnightblue" stroke="midnightblue" points="489.313,-20.8819 478.79,-19.6545 486.251,-27.1765 489.313,-20.8819"/>
</g>
<!-- Node12 -->
<g id="node12" class="node"><title>Node12</title>
<g id="a_node12"><a xlink:href="myconfig-final_8hpp.html" target="_top" xlink:title="myconfig&#45;final.hpp">
<polygon fill="none" stroke="black" points="518.5,-0.5 518.5,-19.5 625.5,-19.5 625.5,-0.5 518.5,-0.5"/>
<text text-anchor="middle" x="572" y="-7.5" font-family="Helvetica,sans-Serif" font-size="10.00">myconfig&#45;final.hpp</text>
</a>
</g>
</g>
<!-- Node10&#45;&gt;Node12 -->
<g id="edge11" class="edge"><title>Node10&#45;&gt;Node12</title>
<path fill="none" stroke="midnightblue" d="M572,-56.083C572,-49.0059 572,-38.8611 572,-29.9865"/>
<polygon fill="midnightblue" stroke="midnightblue" points="575.5,-29.751 572,-19.7511 568.5,-29.7511 575.5,-29.751"/>
</g>
<!-- Node13 -->
<g id="node13" class="node"><title>Node13</title>
<g id="a_node13"><a xlink:href="config-features_8hpp.html" target="_top" xlink:title="config&#45;features.hpp">
<polygon fill="none" stroke="black" points="643.5,-0.5 643.5,-19.5 754.5,-19.5 754.5,-0.5 643.5,-0.5"/>
<text text-anchor="middle" x="699" y="-7.5" font-family="Helvetica,sans-Serif" font-size="10.00">config&#45;features.hpp</text>
</a>
</g>
</g>
<!-- Node10&#45;&gt;Node13 -->
<g id="edge12" class="edge"><title>Node10&#45;&gt;Node13</title>
<path fill="none" stroke="midnightblue" d="M592.124,-56.4435C613.024,-47.5566 645.935,-33.5632 669.716,-23.4514"/>
<polygon fill="midnightblue" stroke="midnightblue" points="671.138,-26.6504 678.971,-19.5164 668.398,-20.2085 671.138,-26.6504"/>
</g>
<!-- Node14&#45;&gt;Node10 -->
<g id="edge14" class="edge"><title>Node14&#45;&gt;Node10</title>
<path fill="none" stroke="midnightblue" d="M417.155,-112.444C448.513,-103.241 498.531,-88.5617 533.197,-78.3879"/>
<polygon fill="midnightblue" stroke="midnightblue" points="534.371,-81.6909 542.981,-75.5164 532.4,-74.9742 534.371,-81.6909"/>
</g>
<!-- Node15&#45;&gt;Node10 -->
<g id="edge16" class="edge"><title>Node15&#45;&gt;Node10</title>
<path fill="none" stroke="midnightblue" d="M504.853,-112.324C517.216,-103.979 536.13,-91.2122 550.737,-81.3524"/>
<polygon fill="midnightblue" stroke="midnightblue" points="552.848,-84.1503 559.179,-75.6545 548.932,-78.3483 552.848,-84.1503"/>
</g>
<!-- Node16&#45;&gt;Node10 -->
<g id="edge18" class="edge"><title>Node16&#45;&gt;Node10</title>
<path fill="none" stroke="midnightblue" d="M831.196,-112.444C771.953,-102.057 672.924,-84.6944 615.956,-74.7066"/>
<polygon fill="midnightblue" stroke="midnightblue" points="616.282,-71.2104 605.827,-72.9308 615.073,-78.1052 616.282,-71.2104"/>
</g>
<!-- Node17 -->
<g id="node17" class="node"><title>Node17</title>
<polygon fill="none" stroke="#bfbfbf" points="914,-56.5 914,-75.5 958,-75.5 958,-56.5 914,-56.5"/>
<text text-anchor="middle" x="936" y="-63.5" font-family="Helvetica,sans-Serif" font-size="10.00">string</text>
</g>
<!-- Node16&#45;&gt;Node17 -->
<g id="edge19" class="edge"><title>Node16&#45;&gt;Node17</title>
<path fill="none" stroke="midnightblue" d="M888.997,-112.324C897.194,-104.42 909.506,-92.5482 919.472,-82.9377"/>
<polygon fill="midnightblue" stroke="midnightblue" points="922.07,-85.2947 926.839,-75.8339 917.211,-80.2558 922.07,-85.2947"/>
</g>
<!-- Node18 -->
<g id="node18" class="node"><title>Node18</title>
<polygon fill="none" stroke="#bfbfbf" points="790,-56.5 790,-75.5 846,-75.5 846,-56.5 790,-56.5"/>
<text text-anchor="middle" x="818" y="-63.5" font-family="Helvetica,sans-Serif" font-size="10.00">sstream</text>
</g>
<!-- Node16&#45;&gt;Node18 -->
<g id="edge20" class="edge"><title>Node16&#45;&gt;Node18</title>
<path fill="none" stroke="midnightblue" d="M870.039,-112.324C860.873,-104.341 847.063,-92.3128 835.972,-82.6529"/>
<polygon fill="midnightblue" stroke="midnightblue" points="837.982,-79.7624 828.143,-75.8339 833.385,-85.041 837.982,-79.7624"/>
</g>
<!-- Node19 -->
<g id="node19" class="node"><title>Node19</title>
<polygon fill="none" stroke="#bfbfbf" points="864,-56.5 864,-75.5 896,-75.5 896,-56.5 864,-56.5"/>
<text text-anchor="middle" x="880" y="-63.5" font-family="Helvetica,sans-Serif" font-size="10.00">list</text>
</g>
<!-- Node16&#45;&gt;Node19 -->
<g id="edge21" class="edge"><title>Node16&#45;&gt;Node19</title>
<path fill="none" stroke="midnightblue" d="M880,-112.083C880,-105.006 880,-94.8611 880,-85.9865"/>
<polygon fill="midnightblue" stroke="midnightblue" points="883.5,-85.751 880,-75.7511 876.5,-85.7511 883.5,-85.751"/>
</g>
<!-- Node22&#45;&gt;Node5 -->
<g id="edge25" class="edge"><title>Node22&#45;&gt;Node5</title>
<path fill="none" stroke="midnightblue" d="M371.168,-280.497C398.516,-272.391 439.673,-259.193 474,-244 508.176,-228.874 545.592,-207.097 568.686,-192.997"/>
<polygon fill="midnightblue" stroke="midnightblue" points="570.694,-195.871 577.37,-187.644 567.021,-189.912 570.694,-195.871"/>
</g>
<!-- Node23 -->
<g id="node23" class="node"><title>Node23</title>
<g id="a_node23"><a xlink:href="particle__data_8hpp.html" target="_top" xlink:title="For more information on particle_data, see particle_data.c. ">
<polygon fill="none" stroke="black" points="363.5,-224.5 363.5,-243.5 464.5,-243.5 464.5,-224.5 363.5,-224.5"/>
<text text-anchor="middle" x="414" y="-231.5" font-family="Helvetica,sans-Serif" font-size="10.00">particle_data.hpp</text>
</a>
</g>
</g>
<!-- Node22&#45;&gt;Node23 -->
<g id="edge26" class="edge"><title>Node22&#45;&gt;Node23</title>
<path fill="none" stroke="midnightblue" d="M352.729,-280.324C363.837,-272.107 380.742,-259.602 393.983,-249.807"/>
<polygon fill="midnightblue" stroke="midnightblue" points="396.1,-252.595 402.058,-243.834 391.937,-246.967 396.1,-252.595"/>
</g>
<!-- Node23&#45;&gt;Node5 -->
<g id="edge27" class="edge"><title>Node23&#45;&gt;Node5</title>
<path fill="none" stroke="midnightblue" d="M442.046,-224.444C472.082,-215.28 519.913,-200.688 553.243,-190.519"/>
<polygon fill="midnightblue" stroke="midnightblue" points="554.542,-193.782 563.085,-187.516 552.499,-187.087 554.542,-193.782"/>
</g>
<!-- Node24&#45;&gt;Node5 -->
<g id="edge29" class="edge"><title>Node24&#45;&gt;Node5</title>
<path fill="none" stroke="midnightblue" d="M551.46,-504.435C563.701,-496.469 580.831,-483.514 591,-468 607.5,-442.828 610,-433.098 610,-403 610,-403 610,-403 610,-289 610,-256.489 601.841,-219.35 596.216,-197.61"/>
<polygon fill="midnightblue" stroke="midnightblue" points="599.541,-196.498 593.562,-187.751 592.782,-198.317 599.541,-196.498"/>
</g>
<!-- Node25 -->
<g id="node25" class="node"><title>Node25</title>
<g id="a_node25"><a xlink:href="lattice__inline_8hpp.html" target="_top" xlink:title="lattice_inline.hpp">
<polygon fill="none" stroke="black" points="480.5,-448.5 480.5,-467.5 581.5,-467.5 581.5,-448.5 480.5,-448.5"/>
<text text-anchor="middle" x="531" y="-455.5" font-family="Helvetica,sans-Serif" font-size="10.00">lattice_inline.hpp</text>
</a>
</g>
</g>
<!-- Node24&#45;&gt;Node25 -->
<g id="edge30" class="edge"><title>Node24&#45;&gt;Node25</title>
<path fill="none" stroke="midnightblue" d="M536.009,-504.083C535.214,-496.927 534.071,-486.635 533.077,-477.691"/>
<polygon fill="midnightblue" stroke="midnightblue" points="536.555,-477.303 531.972,-467.751 529.598,-478.076 536.555,-477.303"/>
</g>
<!-- Node37 -->
<g id="node37" class="node"><title>Node37</title>
<g id="a_node37"><a xlink:href="lbgpu_8hpp.html" target="_top" xlink:title="Header file for lbgpu.cpp. ">
<polygon fill="none" stroke="black" points="714.5,-280.5 714.5,-299.5 779.5,-299.5 779.5,-280.5 714.5,-280.5"/>
<text text-anchor="middle" x="747" y="-287.5" font-family="Helvetica,sans-Serif" font-size="10.00">lbgpu.hpp</text>
</a>
</g>
</g>
<!-- Node24&#45;&gt;Node37 -->
<g id="edge50" class="edge"><title>Node24&#45;&gt;Node37</title>
<path fill="none" stroke="midnightblue" d="M560.668,-504.442C579.316,-496.881 605.214,-484.491 624,-468 678.285,-420.348 720.638,-343.923 738.189,-309.209"/>
<polygon fill="midnightblue" stroke="midnightblue" points="741.521,-310.368 742.825,-299.853 735.249,-307.259 741.521,-310.368"/>
</g>
<!-- Node26 -->
<g id="node26" class="node"><title>Node26</title>
<g id="a_node26"><a xlink:href="lattice_8hpp.html" target="_top" xlink:title="Lattice class definition Contains the lattice layout and pointers to the data fields. ">
<polygon fill="none" stroke="black" points="497,-392.5 497,-411.5 565,-411.5 565,-392.5 497,-392.5"/>
<text text-anchor="middle" x="531" y="-399.5" font-family="Helvetica,sans-Serif" font-size="10.00">lattice.hpp</text>
</a>
</g>
</g>
<!-- Node25&#45;&gt;Node26 -->
<g id="edge31" class="edge"><title>Node25&#45;&gt;Node26</title>
<path fill="none" stroke="midnightblue" d="M531,-448.083C531,-441.006 531,-430.861 531,-421.986"/>
<polygon fill="midnightblue" stroke="midnightblue" points="534.5,-421.751 531,-411.751 527.5,-421.751 534.5,-421.751"/>
</g>
<!-- Node26&#45;&gt;Node23 -->
<g id="edge49" class="edge"><title>Node26&#45;&gt;Node23</title>
<path fill="none" stroke="midnightblue" d="M524.71,-392.075C505.974,-365.493 450.325,-286.538 425.815,-251.763"/>
<polygon fill="midnightblue" stroke="midnightblue" points="428.661,-249.726 420.039,-243.568 422.939,-253.758 428.661,-249.726"/>
</g>
<!-- Node27 -->
<g id="node27" class="node"><title>Node27</title>
<g id="a_node27"><a xlink:href="grid_8hpp.html" target="_top" xlink:title="Domain decomposition for parallel computing. ">
<polygon fill="none" stroke="black" points="515,-336.5 515,-355.5 571,-355.5 571,-336.5 515,-336.5"/>
<text text-anchor="middle" x="543" y="-343.5" font-family="Helvetica,sans-Serif" font-size="10.00">grid.hpp</text>
</a>
</g>
</g>
<!-- Node26&#45;&gt;Node27 -->
<g id="edge32" class="edge"><title>Node26&#45;&gt;Node27</title>
<path fill="none" stroke="midnightblue" d="M532.982,-392.083C534.572,-384.927 536.859,-374.635 538.846,-365.691"/>
<polygon fill="midnightblue" stroke="midnightblue" points="542.303,-366.272 541.055,-355.751 535.469,-364.754 542.303,-366.272"/>
</g>
<!-- Node27&#45;&gt;Node5 -->
<g id="edge33" class="edge"><title>Node27&#45;&gt;Node5</title>
<path fill="none" stroke="midnightblue" d="M545.581,-336.075C553.136,-309.945 575.325,-233.211 585.628,-197.577"/>
<polygon fill="midnightblue" stroke="midnightblue" points="589.107,-198.147 588.522,-187.568 582.382,-196.202 589.107,-198.147"/>
</g>
<!-- Node27&#45;&gt;Node16 -->
<g id="edge48" class="edge"><title>Node27&#45;&gt;Node16</title>
<path fill="none" stroke="midnightblue" d="M556.211,-336.297C607.593,-302.449 794.434,-179.367 858.37,-137.249"/>
<polygon fill="midnightblue" stroke="midnightblue" points="860.455,-140.067 866.881,-131.643 856.604,-134.221 860.455,-140.067"/>
</g>
<!-- Node28 -->
<g id="node28" class="node"><title>Node28</title>
<polygon fill="none" stroke="#bfbfbf" points="494,-280.5 494,-299.5 544,-299.5 544,-280.5 494,-280.5"/>
<text text-anchor="middle" x="519" y="-287.5" font-family="Helvetica,sans-Serif" font-size="10.00">climits</text>
</g>
<!-- Node27&#45;&gt;Node28 -->
<g id="edge34" class="edge"><title>Node27&#45;&gt;Node28</title>
<path fill="none" stroke="midnightblue" d="M539.037,-336.083C535.787,-328.77 531.081,-318.181 527.046,-309.103"/>
<polygon fill="midnightblue" stroke="midnightblue" points="530.149,-307.468 522.889,-299.751 523.752,-310.311 530.149,-307.468"/>
</g>
<!-- Node27&#45;&gt;Node29 -->
<g id="edge35" class="edge"><title>Node27&#45;&gt;Node29</title>
<path fill="none" stroke="midnightblue" d="M514.727,-340.443C461.169,-331.809 343.757,-312.883 270.734,-301.112"/>
<polygon fill="midnightblue" stroke="midnightblue" points="271.165,-297.637 260.736,-299.501 270.051,-304.548 271.165,-297.637"/>
</g>
<!-- Node29&#45;&gt;Node23 -->
<g id="edge36" class="edge"><title>Node29&#45;&gt;Node23</title>
<path fill="none" stroke="midnightblue" d="M240.641,-280.444C276.05,-271.162 332.709,-256.309 371.553,-246.127"/>
<polygon fill="midnightblue" stroke="midnightblue" points="372.726,-249.438 381.511,-243.516 370.951,-242.667 372.726,-249.438"/>
</g>
<!-- Node30 -->
<g id="node30" class="node"><title>Node30</title>
<g id="a_node30"><a xlink:href="random_8hpp.html" target="_top" xlink:title="A random generator. ">
<polygon fill="none" stroke="black" points="173.5,-224.5 173.5,-243.5 248.5,-243.5 248.5,-224.5 173.5,-224.5"/>
<text text-anchor="middle" x="211" y="-231.5" font-family="Helvetica,sans-Serif" font-size="10.00">random.hpp</text>
</a>
</g>
</g>
<!-- Node29&#45;&gt;Node30 -->
<g id="edge37" class="edge"><title>Node29&#45;&gt;Node30</title>
<path fill="none" stroke="midnightblue" d="M208.495,-280.083C208.889,-273.006 209.452,-262.861 209.945,-253.986"/>
<polygon fill="midnightblue" stroke="midnightblue" points="213.454,-253.93 210.514,-243.751 206.464,-253.542 213.454,-253.93"/>
</g>
<!-- Node31 -->
<g id="node31" class="node"><title>Node31</title>
<g id="a_node31"><a xlink:href="topology_8hpp.html" target="_top" xlink:title="This file contains functions for handling the system topology. ">
<polygon fill="none" stroke="black" points="266.5,-224.5 266.5,-243.5 345.5,-243.5 345.5,-224.5 266.5,-224.5"/>
<text text-anchor="middle" x="306" y="-231.5" font-family="Helvetica,sans-Serif" font-size="10.00">topology.hpp</text>
</a>
</g>
</g>
<!-- Node29&#45;&gt;Node31 -->
<g id="edge39" class="edge"><title>Node29&#45;&gt;Node31</title>
<path fill="none" stroke="midnightblue" d="M223.745,-280.324C239.319,-271.743 263.377,-258.486 281.459,-248.522"/>
<polygon fill="midnightblue" stroke="midnightblue" points="283.224,-251.546 290.294,-243.655 279.846,-245.415 283.224,-251.546"/>
</g>
<!-- Node32 -->
<g id="node32" class="node"><title>Node32</title>
<g id="a_node32"><a xlink:href="mpi_8h.html" target="_top" xlink:title="This is the MPIfake implementation. ">
<polygon fill="none" stroke="black" points="73,-224.5 73,-243.5 117,-243.5 117,-224.5 73,-224.5"/>
<text text-anchor="middle" x="95" y="-231.5" font-family="Helvetica,sans-Serif" font-size="10.00">mpi.h</text>
</a>
</g>
</g>
<!-- Node29&#45;&gt;Node32 -->
<g id="edge41" class="edge"><title>Node29&#45;&gt;Node32</title>
<path fill="none" stroke="midnightblue" d="M190.095,-280.444C171.746,-271.675 142.995,-257.935 121.906,-247.858"/>
<polygon fill="midnightblue" stroke="midnightblue" points="123.353,-244.67 112.821,-243.516 120.335,-250.986 123.353,-244.67"/>
</g>
<!-- Node36 -->
<g id="node36" class="node"><title>Node36</title>
<g id="a_node36"><a xlink:href="cuda__init_8hpp.html" target="_top" xlink:title="cuda_init.hpp">
<polygon fill="none" stroke="black" points="219,-168.5 219,-187.5 301,-187.5 301,-168.5 219,-168.5"/>
<text text-anchor="middle" x="260" y="-175.5" font-family="Helvetica,sans-Serif" font-size="10.00">cuda_init.hpp</text>
</a>
</g>
</g>
<!-- Node29&#45;&gt;Node36 -->
<g id="edge45" class="edge"><title>Node29&#45;&gt;Node36</title>
<path fill="none" stroke="midnightblue" d="M194.901,-280.483C177.64,-268.162 150.915,-244.586 164,-224 174.165,-208.01 191.676,-197.603 208.983,-190.875"/>
<polygon fill="midnightblue" stroke="midnightblue" points="210.266,-194.134 218.529,-187.503 207.935,-187.533 210.266,-194.134"/>
</g>
<!-- Node30&#45;&gt;Node5 -->
<g id="edge38" class="edge"><title>Node30&#45;&gt;Node5</title>
<path fill="none" stroke="midnightblue" d="M248.678,-225.597C251.828,-225.035 254.966,-224.495 258,-224 363.318,-206.814 488.142,-191.213 550.829,-183.706"/>
<polygon fill="midnightblue" stroke="midnightblue" points="551.553,-187.145 561.068,-182.486 550.724,-180.194 551.553,-187.145"/>
</g>
<!-- Node31&#45;&gt;Node5 -->
<g id="edge40" class="edge"><title>Node31&#45;&gt;Node5</title>
<path fill="none" stroke="midnightblue" d="M345.628,-225.492C399.942,-215.2 496.951,-196.82 551.302,-186.522"/>
<polygon fill="midnightblue" stroke="midnightblue" points="552.083,-189.936 561.256,-184.636 550.78,-183.059 552.083,-189.936"/>
</g>
<!-- Node33 -->
<g id="node33" class="node"><title>Node33</title>
<polygon fill="none" stroke="#bfbfbf" points="139.5,-168.5 139.5,-187.5 192.5,-187.5 192.5,-168.5 139.5,-168.5"/>
<text text-anchor="middle" x="166" y="-175.5" font-family="Helvetica,sans-Serif" font-size="10.00">string.h</text>
</g>
<!-- Node32&#45;&gt;Node33 -->
<g id="edge42" class="edge"><title>Node32&#45;&gt;Node33</title>
<path fill="none" stroke="midnightblue" d="M106.407,-224.324C117.109,-216.185 133.341,-203.839 146.163,-194.087"/>
<polygon fill="midnightblue" stroke="midnightblue" points="148.544,-196.673 154.385,-187.834 144.307,-191.102 148.544,-196.673"/>
</g>
<!-- Node34 -->
<g id="node34" class="node"><title>Node34</title>
<polygon fill="none" stroke="#bfbfbf" points="0,-168.5 0,-187.5 50,-187.5 50,-168.5 0,-168.5"/>
<text text-anchor="middle" x="25" y="-175.5" font-family="Helvetica,sans-Serif" font-size="10.00">stdio.h</text>
</g>
<!-- Node32&#45;&gt;Node34 -->
<g id="edge43" class="edge"><title>Node32&#45;&gt;Node34</title>
<path fill="none" stroke="midnightblue" d="M83.7533,-224.324C73.2026,-216.185 57.1993,-203.839 44.5578,-194.087"/>
<polygon fill="midnightblue" stroke="midnightblue" points="46.507,-191.171 36.4513,-187.834 42.2314,-196.713 46.507,-191.171"/>
</g>
<!-- Node35 -->
<g id="node35" class="node"><title>Node35</title>
<polygon fill="none" stroke="#bfbfbf" points="68.5,-168.5 68.5,-187.5 121.5,-187.5 121.5,-168.5 68.5,-168.5"/>
<text text-anchor="middle" x="95" y="-175.5" font-family="Helvetica,sans-Serif" font-size="10.00">stdlib.h</text>
</g>
<!-- Node32&#45;&gt;Node35 -->
<g id="edge44" class="edge"><title>Node32&#45;&gt;Node35</title>
<path fill="none" stroke="midnightblue" d="M95,-224.083C95,-217.006 95,-206.861 95,-197.986"/>
<polygon fill="midnightblue" stroke="midnightblue" points="98.5001,-197.751 95,-187.751 91.5001,-197.751 98.5001,-197.751"/>
</g>
<!-- Node36&#45;&gt;Node10 -->
<g id="edge46" class="edge"><title>Node36&#45;&gt;Node10</title>
<path fill="none" stroke="midnightblue" d="M259.795,-168.31C259.974,-154.193 262.551,-126.41 279,-112 315.297,-80.2031 455.64,-70.8436 528.119,-68.1115"/>
<polygon fill="midnightblue" stroke="midnightblue" points="528.428,-71.6029 538.3,-67.7546 528.183,-64.6072 528.428,-71.6029"/>
</g>
<!-- Node36&#45;&gt;Node20 -->
<g id="edge47" class="edge"><title>Node36&#45;&gt;Node20</title>
<path fill="none" stroke="midnightblue" d="M268.587,-168.083C276.159,-160.22 287.378,-148.569 296.514,-139.081"/>
<polygon fill="midnightblue" stroke="midnightblue" points="299.158,-141.382 303.573,-131.751 294.115,-136.527 299.158,-141.382"/>
</g>
<!-- Node37&#45;&gt;Node5 -->
<g id="edge51" class="edge"><title>Node37&#45;&gt;Node5</title>
<path fill="none" stroke="midnightblue" d="M736.49,-280.484C720.652,-267.762 689.582,-243.232 662,-224 646.288,-213.045 628.024,-201.494 613.955,-192.839"/>
<polygon fill="midnightblue" stroke="midnightblue" points="615.743,-189.83 605.384,-187.604 612.094,-195.804 615.743,-189.83"/>
</g>
<!-- Node37&#45;&gt;Node10 -->
<g id="edge52" class="edge"><title>Node37&#45;&gt;Node10</title>
<path fill="none" stroke="midnightblue" d="M750.002,-280.44C759.165,-252.63 783.745,-163.638 743,-112 727.343,-92.1574 661.073,-79.2226 615.783,-72.519"/>
<polygon fill="midnightblue" stroke="midnightblue" points="616.01,-69.0159 605.615,-71.0656 615.019,-75.9455 616.01,-69.0159"/>
</g>
<!-- Node37&#45;&gt;Node38 -->
<g id="edge53" class="edge"><title>Node37&#45;&gt;Node38</title>
<path fill="none" stroke="midnightblue" d="M771.085,-280.444C796.545,-271.399 836.894,-257.064 865.459,-246.916"/>
<polygon fill="midnightblue" stroke="midnightblue" points="866.777,-250.162 875.028,-243.516 864.433,-243.566 866.777,-250.162"/>
</g>
<!-- Node38&#45;&gt;Node5 -->
<g id="edge55" class="edge"><title>Node38&#45;&gt;Node5</title>
<path fill="none" stroke="midnightblue" d="M850.196,-224.444C789.356,-213.777 686.556,-195.753 630.443,-185.915"/>
<polygon fill="midnightblue" stroke="midnightblue" points="630.983,-182.457 620.529,-184.177 629.774,-189.352 630.983,-182.457"/>
</g>
<!-- Node38&#45;&gt;Node6 -->
<g id="edge58" class="edge"><title>Node38&#45;&gt;Node6</title>
<path fill="none" stroke="midnightblue" d="M915.164,-224.368C950.965,-205.251 1037.15,-159.229 1079.98,-136.361"/>
<polygon fill="midnightblue" stroke="midnightblue" points="1081.74,-139.389 1088.91,-131.591 1078.44,-133.214 1081.74,-139.389"/>
</g>
<!-- Node38&#45;&gt;Node7 -->
<g id="edge56" class="edge"><title>Node38&#45;&gt;Node7</title>
<path fill="none" stroke="midnightblue" d="M910.064,-224.368C934.054,-205.653 991.098,-161.151 1020.99,-137.832"/>
<polygon fill="midnightblue" stroke="midnightblue" points="1023.26,-140.502 1028.99,-131.591 1018.95,-134.983 1023.26,-140.502"/>
</g>
<!-- Node38&#45;&gt;Node8 -->
<g id="edge57" class="edge"><title>Node38&#45;&gt;Node8</title>
<path fill="none" stroke="midnightblue" d="M904.885,-224.368C917.262,-206.215 946.181,-163.802 962.416,-139.99"/>
<polygon fill="midnightblue" stroke="midnightblue" points="965.401,-141.825 968.142,-131.591 959.617,-137.882 965.401,-141.825"/>
</g>
<!-- Node38&#45;&gt;Node10 -->
<g id="edge54" class="edge"><title>Node38&#45;&gt;Node10</title>
<path fill="none" stroke="midnightblue" d="M892.964,-224.324C876.831,-201.846 830.237,-141.43 776,-112 725.347,-84.5149 658.98,-73.8127 615.922,-69.6483"/>
<polygon fill="midnightblue" stroke="midnightblue" points="616.039,-66.145 605.768,-68.7458 615.419,-73.1175 616.039,-66.145"/>
</g>
<!-- Node39&#45;&gt;Node40 -->
<g id="edge60" class="edge"><title>Node39&#45;&gt;Node40</title>
<path fill="none" stroke="midnightblue" d="M642.014,-504.324C654.532,-495.979 673.682,-483.212 688.471,-473.352"/>
<polygon fill="midnightblue" stroke="midnightblue" points="690.639,-476.114 697.018,-467.655 686.756,-470.289 690.639,-476.114"/>
</g>
<!-- Node40&#45;&gt;Node5 -->
<g id="edge61" class="edge"><title>Node40&#45;&gt;Node5</title>
<path fill="none" stroke="midnightblue" d="M707.705,-448.163C699.289,-416.527 668.297,-306.418 624,-224 618.678,-214.098 611.401,-203.928 605.035,-195.767"/>
<polygon fill="midnightblue" stroke="midnightblue" points="607.62,-193.397 598.62,-187.807 602.17,-197.789 607.62,-193.397"/>
</g>
<!-- Node40&#45;&gt;Node9 -->
<g id="edge62" class="edge"><title>Node40&#45;&gt;Node9</title>
<path fill="none" stroke="midnightblue" d="M723.795,-448.347C735.443,-440.324 751.674,-427.335 761,-412 792.162,-360.76 803.001,-338.315 789,-280 775.84,-225.186 740.174,-167.936 721.222,-140.159"/>
<polygon fill="midnightblue" stroke="midnightblue" points="723.863,-137.826 715.28,-131.615 718.116,-141.823 723.863,-137.826"/>
</g>
<!-- Node41 -->
<g id="node41" class="node"><title>Node41</title>
<polygon fill="none" stroke="#bfbfbf" points="714,-392.5 714,-411.5 752,-411.5 752,-392.5 714,-392.5"/>
<text text-anchor="middle" x="733" y="-399.5" font-family="Helvetica,sans-Serif" font-size="10.00">tcl.h</text>
</g>
<!-- Node40&#45;&gt;Node41 -->
<g id="edge63" class="edge"><title>Node40&#45;&gt;Node41</title>
<path fill="none" stroke="midnightblue" d="M713.798,-448.083C716.913,-440.77 721.423,-430.181 725.289,-421.103"/>
<polygon fill="midnightblue" stroke="midnightblue" points="728.574,-422.323 729.273,-411.751 722.134,-419.58 728.574,-422.323"/>
</g>
<!-- Node42&#45;&gt;Node6 -->
<g id="edge69" class="edge"><title>Node42&#45;&gt;Node6</title>
<path fill="none" stroke="midnightblue" d="M1003.75,-280.075C1020.81,-253.606 1071.35,-175.209 1093.91,-140.21"/>
<polygon fill="midnightblue" stroke="midnightblue" points="1097,-141.87 1099.48,-131.568 1091.12,-138.077 1097,-141.87"/>
</g>
<!-- Node42&#45;&gt;Node7 -->
<g id="edge67" class="edge"><title>Node42&#45;&gt;Node7</title>
<path fill="none" stroke="midnightblue" d="M1000.26,-280.075C1006.87,-253.945 1026.28,-177.211 1035.3,-141.577"/>
<polygon fill="midnightblue" stroke="midnightblue" points="1038.77,-142.121 1037.83,-131.568 1031.99,-140.404 1038.77,-142.121"/>
</g>
<!-- Node42&#45;&gt;Node8 -->
<g id="edge68" class="edge"><title>Node42&#45;&gt;Node8</title>
<path fill="none" stroke="midnightblue" d="M996.71,-280.075C992.932,-253.945 981.838,-177.211 976.686,-141.577"/>
<polygon fill="midnightblue" stroke="midnightblue" points="980.134,-140.964 975.239,-131.568 973.206,-141.966 980.134,-140.964"/>
</g>
<!-- Node42&#45;&gt;Node38 -->
<g id="edge70" class="edge"><title>Node42&#45;&gt;Node38</title>
<path fill="none" stroke="midnightblue" d="M982.094,-280.324C966.362,-271.743 942.058,-258.486 923.791,-248.522"/>
<polygon fill="midnightblue" stroke="midnightblue" points="925.322,-245.37 914.867,-243.655 921.97,-251.516 925.322,-245.37"/>
</g>
</g>
</svg>
