<?xml version="1.0" encoding="UTF-8" standalone="no"?>
<!DOCTYPE svg PUBLIC "-//W3C//DTD SVG 1.1//EN"
 "http://www.w3.org/Graphics/SVG/1.1/DTD/svg11.dtd">
<!-- Generated by graphviz version 2.38.0 (20140413.2041)
 -->
<!-- Title: integrate_sd_cuda_kernel.cu Pages: 1 -->
<svg width="828pt" height="252pt"
 viewBox="0.00 0.00 828.00 252.00" xmlns="http://www.w3.org/2000/svg" xmlns:xlink="http://www.w3.org/1999/xlink">
<g id="graph0" class="graph" transform="scale(1 1) rotate(0) translate(4 248)">
<title>integrate_sd_cuda_kernel.cu</title>
<!-- Node1 -->
<g id="node1" class="node"><title>Node1</title>
<polygon fill="#bfbfbf" stroke="black" points="312,-224.5 312,-243.5 468,-243.5 468,-224.5 312,-224.5"/>
<text text-anchor="middle" x="390" y="-231.5" font-family="Helvetica,sans-Serif" font-size="10.00">integrate_sd_cuda_kernel.cu</text>
</g>
<!-- Node2 -->
<g id="node2" class="node"><title>Node2</title>
<g id="a_node2"><a xlink:href="config_8hpp.html" target="_top" xlink:title="This file contains the defaults for Espresso. ">
<polygon fill="none" stroke="black" points="116.5,-168.5 116.5,-187.5 183.5,-187.5 183.5,-168.5 116.5,-168.5"/>
<text text-anchor="middle" x="150" y="-175.5" font-family="Helvetica,sans-Serif" font-size="10.00">config.hpp</text>
</a>
</g>
</g>
<!-- Node1&#45;&gt;Node2 -->
<g id="edge1" class="edge"><title>Node1&#45;&gt;Node2</title>
<path fill="none" stroke="midnightblue" d="M351.971,-224.444C308.84,-214.739 238.645,-198.945 193.405,-188.766"/>
<polygon fill="midnightblue" stroke="midnightblue" points="194.115,-185.339 183.591,-186.558 192.579,-192.168 194.115,-185.339"/>
</g>
<!-- Node6 -->
<g id="node6" class="node"><title>Node6</title>
<polygon fill="none" stroke="#bfbfbf" points="202,-168.5 202,-187.5 252,-187.5 252,-168.5 202,-168.5"/>
<text text-anchor="middle" x="227" y="-175.5" font-family="Helvetica,sans-Serif" font-size="10.00">stdio.h</text>
</g>
<!-- Node1&#45;&gt;Node6 -->
<g id="edge5" class="edge"><title>Node1&#45;&gt;Node6</title>
<path fill="none" stroke="midnightblue" d="M364.172,-224.444C336.589,-215.306 292.71,-200.769 262.028,-190.604"/>
<polygon fill="midnightblue" stroke="midnightblue" points="262.765,-187.161 252.171,-187.339 260.563,-193.806 262.765,-187.161"/>
</g>
<!-- Node7 -->
<g id="node7" class="node"><title>Node7</title>
<polygon fill="none" stroke="#bfbfbf" points="270,-168.5 270,-187.5 326,-187.5 326,-168.5 270,-168.5"/>
<text text-anchor="middle" x="298" y="-175.5" font-family="Helvetica,sans-Serif" font-size="10.00">assert.h</text>
</g>
<!-- Node1&#45;&gt;Node7 -->
<g id="edge6" class="edge"><title>Node1&#45;&gt;Node7</title>
<path fill="none" stroke="midnightblue" d="M375.219,-224.324C360.733,-215.822 338.427,-202.729 321.507,-192.797"/>
<polygon fill="midnightblue" stroke="midnightblue" points="323.141,-189.698 312.745,-187.655 319.597,-195.735 323.141,-189.698"/>
</g>
<!-- Node8 -->
<g id="node8" class="node"><title>Node8</title>
<polygon fill="none" stroke="#bfbfbf" points="344,-168.5 344,-187.5 436,-187.5 436,-168.5 344,-168.5"/>
<text text-anchor="middle" x="390" y="-175.5" font-family="Helvetica,sans-Serif" font-size="10.00">cuda_runtime.h</text>
</g>
<!-- Node1&#45;&gt;Node8 -->
<g id="edge7" class="edge"><title>Node1&#45;&gt;Node8</title>
<path fill="none" stroke="midnightblue" d="M390,-224.083C390,-217.006 390,-206.861 390,-197.986"/>
<polygon fill="midnightblue" stroke="midnightblue" points="393.5,-197.751 390,-187.751 386.5,-197.751 393.5,-197.751"/>
</g>
<!-- Node9 -->
<g id="node9" class="node"><title>Node9</title>
<polygon fill="none" stroke="#bfbfbf" points="454,-168.5 454,-187.5 562,-187.5 562,-168.5 454,-168.5"/>
<text text-anchor="middle" x="508" y="-175.5" font-family="Helvetica,sans-Serif" font-size="10.00">device_functions.h</text>
</g>
<!-- Node1&#45;&gt;Node9 -->
<g id="edge8" class="edge"><title>Node1&#45;&gt;Node9</title>
<path fill="none" stroke="midnightblue" d="M408.697,-224.444C427.944,-215.636 458.152,-201.812 480.2,-191.722"/>
<polygon fill="midnightblue" stroke="midnightblue" points="481.753,-194.86 489.39,-187.516 478.84,-188.495 481.753,-194.86"/>
</g>
<!-- Node10 -->
<g id="node10" class="node"><title>Node10</title>
<g id="a_node10"><a xlink:href="integrate__sd__cuda_8hpp.html" target="_top" xlink:title="integrate_sd_cuda.hpp">
<polygon fill="none" stroke="black" points="564.5,-56.5 564.5,-75.5 691.5,-75.5 691.5,-56.5 564.5,-56.5"/>
<text text-anchor="middle" x="628" y="-63.5" font-family="Helvetica,sans-Serif" font-size="10.00">integrate_sd_cuda.hpp</text>
</a>
</g>
</g>
<!-- Node1&#45;&gt;Node10 -->
<g id="edge9" class="edge"><title>Node1&#45;&gt;Node10</title>
<path fill="none" stroke="midnightblue" d="M468.041,-228.58C502.764,-223.1 542.213,-211.62 571,-188 603.358,-161.45 618.408,-112.301 624.481,-85.5394"/>
<polygon fill="midnightblue" stroke="midnightblue" points="627.944,-86.0757 626.558,-75.5719 621.091,-84.6473 627.944,-86.0757"/>
</g>
<!-- Node12 -->
<g id="node12" class="node"><title>Node12</title>
<g id="a_node12"><a xlink:href="integrate__sd__cuda__device_8cu.html" target="_top" xlink:title="integrate_sd_cuda_device.cu">
<polygon fill="none" stroke="black" points="618,-168.5 618,-187.5 776,-187.5 776,-168.5 618,-168.5"/>
<text text-anchor="middle" x="697" y="-175.5" font-family="Helvetica,sans-Serif" font-size="10.00">integrate_sd_cuda_device.cu</text>
</a>
</g>
</g>
<!-- Node1&#45;&gt;Node12 -->
<g id="edge11" class="edge"><title>Node1&#45;&gt;Node12</title>
<path fill="none" stroke="midnightblue" d="M438.645,-224.444C492.874,-214.905 580.548,-199.483 638.482,-189.293"/>
<polygon fill="midnightblue" stroke="midnightblue" points="639.34,-192.696 648.583,-187.516 638.127,-185.802 639.34,-192.696"/>
</g>
<!-- Node3 -->
<g id="node3" class="node"><title>Node3</title>
<g id="a_node3"><a xlink:href="acconfig_8hpp.html" target="_top" xlink:title="acconfig.hpp">
<polygon fill="none" stroke="black" points="0,-112.5 0,-131.5 78,-131.5 78,-112.5 0,-112.5"/>
<text text-anchor="middle" x="39" y="-119.5" font-family="Helvetica,sans-Serif" font-size="10.00">acconfig.hpp</text>
</a>
</g>
</g>
<!-- Node2&#45;&gt;Node3 -->
<g id="edge2" class="edge"><title>Node2&#45;&gt;Node3</title>
<path fill="none" stroke="midnightblue" d="M132.166,-168.324C114.284,-159.625 86.5249,-146.12 65.9544,-136.113"/>
<polygon fill="midnightblue" stroke="midnightblue" points="67.3133,-132.882 56.7898,-131.655 64.251,-139.177 67.3133,-132.882"/>
</g>
<!-- Node4 -->
<g id="node4" class="node"><title>Node4</title>
<g id="a_node4"><a xlink:href="myconfig-final_8hpp.html" target="_top" xlink:title="myconfig&#45;final.hpp">
<polygon fill="none" stroke="black" points="96.5,-112.5 96.5,-131.5 203.5,-131.5 203.5,-112.5 96.5,-112.5"/>
<text text-anchor="middle" x="150" y="-119.5" font-family="Helvetica,sans-Serif" font-size="10.00">myconfig&#45;final.hpp</text>
</a>
</g>
</g>
<!-- Node2&#45;&gt;Node4 -->
<g id="edge3" class="edge"><title>Node2&#45;&gt;Node4</title>
<path fill="none" stroke="midnightblue" d="M150,-168.083C150,-161.006 150,-150.861 150,-141.986"/>
<polygon fill="midnightblue" stroke="midnightblue" points="153.5,-141.751 150,-131.751 146.5,-141.751 153.5,-141.751"/>
</g>
<!-- Node5 -->
<g id="node5" class="node"><title>Node5</title>
<g id="a_node5"><a xlink:href="config-features_8hpp.html" target="_top" xlink:title="config&#45;features.hpp">
<polygon fill="none" stroke="black" points="221.5,-112.5 221.5,-131.5 332.5,-131.5 332.5,-112.5 221.5,-112.5"/>
<text text-anchor="middle" x="277" y="-119.5" font-family="Helvetica,sans-Serif" font-size="10.00">config&#45;features.hpp</text>
</a>
</g>
</g>
<!-- Node2&#45;&gt;Node5 -->
<g id="edge4" class="edge"><title>Node2&#45;&gt;Node5</title>
<path fill="none" stroke="midnightblue" d="M170.124,-168.444C191.024,-159.557 223.935,-145.563 247.716,-135.451"/>
<polygon fill="midnightblue" stroke="midnightblue" points="249.138,-138.65 256.971,-131.516 246.398,-132.208 249.138,-138.65"/>
</g>
<!-- Node11 -->
<g id="node11" class="node"><title>Node11</title>
<g id="a_node11"><a xlink:href="integrate__sd_8hpp.html" target="_top" xlink:title="Stokes dynamics integrator. ">
<polygon fill="none" stroke="black" points="579,-0.5 579,-19.5 677,-19.5 677,-0.5 579,-0.5"/>
<text text-anchor="middle" x="628" y="-7.5" font-family="Helvetica,sans-Serif" font-size="10.00">integrate_sd.hpp</text>
</a>
</g>
</g>
<!-- Node10&#45;&gt;Node11 -->
<g id="edge10" class="edge"><title>Node10&#45;&gt;Node11</title>
<path fill="none" stroke="midnightblue" d="M628,-56.083C628,-49.0059 628,-38.8611 628,-29.9865"/>
<polygon fill="midnightblue" stroke="midnightblue" points="631.5,-29.751 628,-19.7511 624.5,-29.7511 631.5,-29.751"/>
</g>
<!-- Node12&#45;&gt;Node10 -->
<g id="edge12" class="edge"><title>Node12&#45;&gt;Node10</title>
<path fill="none" stroke="midnightblue" d="M683.626,-168.195C672.303,-160.075 656.447,-147.029 647,-132 638.103,-117.847 633.228,-99.3638 630.652,-85.7266"/>
<polygon fill="midnightblue" stroke="midnightblue" points="634.065,-84.913 628.99,-75.6126 627.158,-86.0477 634.065,-84.913"/>
</g>
<!-- Node13 -->
<g id="node13" class="node"><title>Node13</title>
<g id="a_node13"><a xlink:href="integrate__sd__cuda__device_8hpp.html" target="_top" xlink:title="integrate_sd_cuda_device.hpp">
<polygon fill="none" stroke="black" points="656,-112.5 656,-131.5 820,-131.5 820,-112.5 656,-112.5"/>
<text text-anchor="middle" x="738" y="-119.5" font-family="Helvetica,sans-Serif" font-size="10.00">integrate_sd_cuda_device.hpp</text>
</a>
</g>
</g>
<!-- Node12&#45;&gt;Node13 -->
<g id="edge13" class="edge"><title>Node12&#45;&gt;Node13</title>
<path fill="none" stroke="midnightblue" d="M703.77,-168.083C709.562,-160.455 718.058,-149.264 725.138,-139.941"/>
<polygon fill="midnightblue" stroke="midnightblue" points="728.096,-141.832 731.356,-131.751 722.521,-137.599 728.096,-141.832"/>
</g>
<!-- Node13&#45;&gt;Node10 -->
<g id="edge14" class="edge"><title>Node13&#45;&gt;Node10</title>
<path fill="none" stroke="midnightblue" d="M720.327,-112.324C702.606,-103.625 675.097,-90.1202 654.712,-80.113"/>
<polygon fill="midnightblue" stroke="midnightblue" points="656.149,-76.9195 645.63,-75.6545 653.064,-83.2031 656.149,-76.9195"/>
</g>
</g>
</svg>
