<?xml version="1.0" encoding="UTF-8" standalone="no"?>
<!DOCTYPE svg PUBLIC "-//W3C//DTD SVG 1.1//EN"
 "http://www.w3.org/Graphics/SVG/1.1/DTD/svg11.dtd">
<!-- Generated by graphviz version 2.38.0 (20140413.2041)
 -->
<!-- Title: integrate_sd.hpp Pages: 1 -->
<svg width="1073pt" height="252pt"
 viewBox="0.00 0.00 1073.00 252.00" xmlns="http://www.w3.org/2000/svg" xmlns:xlink="http://www.w3.org/1999/xlink">
<g id="graph0" class="graph" transform="scale(1 1) rotate(0) translate(4 248)">
<title>integrate_sd.hpp</title>
<!-- Node1 -->
<g id="node1" class="node"><title>Node1</title>
<polygon fill="#bfbfbf" stroke="black" points="310.5,-224.5 310.5,-243.5 408.5,-243.5 408.5,-224.5 310.5,-224.5"/>
<text text-anchor="middle" x="359.5" y="-231.5" font-family="Helvetica,sans-Serif" font-size="10.00">integrate_sd.hpp</text>
</g>
<!-- Node2 -->
<g id="node2" class="node"><title>Node2</title>
<g id="a_node2"><a xlink:href="global_8cpp.html" target="_top" xlink:title="Implementation of global.h. ">
<polygon fill="none" stroke="black" points="0,-168.5 0,-187.5 67,-187.5 67,-168.5 0,-168.5"/>
<text text-anchor="middle" x="33.5" y="-175.5" font-family="Helvetica,sans-Serif" font-size="10.00">global.cpp</text>
</a>
</g>
</g>
<!-- Node1&#45;&gt;Node2 -->
<g id="edge1" class="edge"><title>Node1&#45;&gt;Node2</title>
<path fill="none" stroke="midnightblue" d="M300.321,-224.446C242.966,-215.954 153.581,-202.186 76.5,-188 73.4996,-187.448 70.387,-186.848 67.2705,-186.23"/>
<polygon fill="midnightblue" stroke="midnightblue" points="299.892,-227.921 310.296,-225.918 300.914,-220.996 299.892,-227.921"/>
</g>
<!-- Node3 -->
<g id="node3" class="node"><title>Node3</title>
<g id="a_node3"><a xlink:href="integrate__sd_8cpp.html" target="_top" xlink:title="Stokesian dynamics integrator. ">
<polygon fill="none" stroke="black" points="85.5,-168.5 85.5,-187.5 183.5,-187.5 183.5,-168.5 85.5,-168.5"/>
<text text-anchor="middle" x="134.5" y="-175.5" font-family="Helvetica,sans-Serif" font-size="10.00">integrate_sd.cpp</text>
</a>
</g>
</g>
<!-- Node1&#45;&gt;Node3 -->
<g id="edge2" class="edge"><title>Node1&#45;&gt;Node3</title>
<path fill="none" stroke="midnightblue" d="M314.035,-222.088C271.527,-211.887 208.921,-196.861 169.985,-187.516"/>
<polygon fill="midnightblue" stroke="midnightblue" points="313.307,-225.513 323.848,-224.444 314.941,-218.706 313.307,-225.513"/>
</g>
<!-- Node4 -->
<g id="node4" class="node"><title>Node4</title>
<g id="a_node4"><a xlink:href="integrate__sd__cuda_8hpp.html" target="_top" xlink:title="integrate_sd_cuda.hpp">
<polygon fill="none" stroke="black" points="586,-168.5 586,-187.5 713,-187.5 713,-168.5 586,-168.5"/>
<text text-anchor="middle" x="649.5" y="-175.5" font-family="Helvetica,sans-Serif" font-size="10.00">integrate_sd_cuda.hpp</text>
</a>
</g>
</g>
<!-- Node1&#45;&gt;Node4 -->
<g id="edge3" class="edge"><title>Node1&#45;&gt;Node4</title>
<path fill="none" stroke="midnightblue" d="M415.348,-222.601C470.155,-212.395 552.732,-197.019 603.764,-187.516"/>
<polygon fill="midnightblue" stroke="midnightblue" points="414.642,-219.172 405.451,-224.444 415.923,-226.054 414.642,-219.172"/>
</g>
<!-- Node5 -->
<g id="node5" class="node"><title>Node5</title>
<g id="a_node5"><a xlink:href="integrate__sd__cuda_8cu.html" target="_top" xlink:title="Stokes dynamics integrator. ">
<polygon fill="none" stroke="black" points="244.5,-56.5 244.5,-75.5 364.5,-75.5 364.5,-56.5 244.5,-56.5"/>
<text text-anchor="middle" x="304.5" y="-63.5" font-family="Helvetica,sans-Serif" font-size="10.00">integrate_sd_cuda.cu</text>
</a>
</g>
</g>
<!-- Node1&#45;&gt;Node5 -->
<g id="edge18" class="edge"><title>Node1&#45;&gt;Node5</title>
<path fill="none" stroke="midnightblue" d="M337.415,-218.538C313.276,-201.264 275.975,-169.894 260.5,-132 251.433,-109.796 275.63,-87.4001 291.638,-75.5707"/>
<polygon fill="midnightblue" stroke="midnightblue" points="335.737,-221.633 345.949,-224.453 339.724,-215.88 335.737,-221.633"/>
</g>
<!-- Node11 -->
<g id="node11" class="node"><title>Node11</title>
<g id="a_node11"><a xlink:href="integrate__sd__matrix_8cu.html" target="_top" xlink:title="integrate_sd_matrix.cu">
<polygon fill="none" stroke="black" points="936,-112.5 936,-131.5 1065,-131.5 1065,-112.5 936,-112.5"/>
<text text-anchor="middle" x="1000.5" y="-119.5" font-family="Helvetica,sans-Serif" font-size="10.00">integrate_sd_matrix.cu</text>
</a>
</g>
</g>
<!-- Node1&#45;&gt;Node11 -->
<g id="edge19" class="edge"><title>Node1&#45;&gt;Node11</title>
<path fill="none" stroke="midnightblue" d="M419.157,-231.958C492.196,-229.249 618.952,-219.872 722.5,-188 741.118,-182.27 743.071,-174.312 761.5,-168 794.704,-156.628 885.577,-141.048 945.214,-131.521"/>
<polygon fill="midnightblue" stroke="midnightblue" points="418.655,-228.473 408.78,-232.311 418.893,-235.469 418.655,-228.473"/>
</g>
<!-- Node12 -->
<g id="node12" class="node"><title>Node12</title>
<g id="a_node12"><a xlink:href="integrate__sd__cuda__kernel_8hpp.html" target="_top" xlink:title="integrate_sd_cuda_kernel.hpp">
<polygon fill="none" stroke="black" points="278,-112.5 278,-131.5 441,-131.5 441,-112.5 278,-112.5"/>
<text text-anchor="middle" x="359.5" y="-119.5" font-family="Helvetica,sans-Serif" font-size="10.00">integrate_sd_cuda_kernel.hpp</text>
</a>
</g>
</g>
<!-- Node1&#45;&gt;Node12 -->
<g id="edge15" class="edge"><title>Node1&#45;&gt;Node12</title>
<path fill="none" stroke="midnightblue" d="M359.5,-214.348C359.5,-190.254 359.5,-149.308 359.5,-131.591"/>
<polygon fill="midnightblue" stroke="midnightblue" points="356,-214.368 359.5,-224.368 363,-214.369 356,-214.368"/>
</g>
<!-- Node13 -->
<g id="node13" class="node"><title>Node13</title>
<g id="a_node13"><a xlink:href="integrate__sd__tcl_8cpp.html" target="_top" xlink:title="integrate_sd_tcl.cpp">
<polygon fill="none" stroke="black" points="770,-168.5 770,-187.5 885,-187.5 885,-168.5 770,-168.5"/>
<text text-anchor="middle" x="827.5" y="-175.5" font-family="Helvetica,sans-Serif" font-size="10.00">integrate_sd_tcl.cpp</text>
</a>
</g>
</g>
<!-- Node1&#45;&gt;Node13 -->
<g id="edge20" class="edge"><title>Node1&#45;&gt;Node13</title>
<path fill="none" stroke="midnightblue" d="M418.643,-226.488C496.069,-217.916 635.994,-202.259 755.5,-188 760.128,-187.448 764.923,-186.867 769.738,-186.278"/>
<polygon fill="midnightblue" stroke="midnightblue" points="418.155,-223.021 408.6,-227.599 418.924,-229.978 418.155,-223.021"/>
</g>
<!-- Node4&#45;&gt;Node5 -->
<g id="edge4" class="edge"><title>Node4&#45;&gt;Node5</title>
<path fill="none" stroke="midnightblue" d="M575.666,-173.474C470.638,-167.691 288.52,-154.523 268.5,-132 252.817,-114.356 277.952,-88.7221 293.562,-75.5377"/>
<polygon fill="midnightblue" stroke="midnightblue" points="575.719,-176.982 585.893,-174.027 576.097,-169.992 575.719,-176.982"/>
</g>
<!-- Node6 -->
<g id="node6" class="node"><title>Node6</title>
<g id="a_node6"><a xlink:href="integrate__sd__cuda__debug_8hpp.html" target="_top" xlink:title="integrate_sd_cuda_debug.hpp">
<polygon fill="none" stroke="black" points="459.5,-112.5 459.5,-131.5 621.5,-131.5 621.5,-112.5 459.5,-112.5"/>
<text text-anchor="middle" x="540.5" y="-119.5" font-family="Helvetica,sans-Serif" font-size="10.00">integrate_sd_cuda_debug.hpp</text>
</a>
</g>
</g>
<!-- Node4&#45;&gt;Node6 -->
<g id="edge5" class="edge"><title>Node4&#45;&gt;Node6</title>
<path fill="none" stroke="midnightblue" d="M622.981,-163.862C602.77,-153.849 575.513,-140.346 557.969,-131.655"/>
<polygon fill="midnightblue" stroke="midnightblue" points="621.473,-167.021 631.987,-168.324 624.58,-160.748 621.473,-167.021"/>
</g>
<!-- Node7 -->
<g id="node7" class="node"><title>Node7</title>
<g id="a_node7"><a xlink:href="integrate__sd__cuda__debug_8cu.html" target="_top" xlink:title="integrate_sd_cuda_debug.cu">
<polygon fill="none" stroke="black" points="463,-56.5 463,-75.5 618,-75.5 618,-56.5 463,-56.5"/>
<text text-anchor="middle" x="540.5" y="-63.5" font-family="Helvetica,sans-Serif" font-size="10.00">integrate_sd_cuda_debug.cu</text>
</a>
</g>
</g>
<!-- Node4&#45;&gt;Node7 -->
<g id="edge8" class="edge"><title>Node4&#45;&gt;Node7</title>
<path fill="none" stroke="midnightblue" d="M648.052,-158.371C646.083,-144.25 641.441,-125.102 630.5,-112 615.384,-93.8982 591.182,-82.374 571.681,-75.5241"/>
<polygon fill="midnightblue" stroke="midnightblue" points="644.582,-158.837 649.127,-168.408 651.542,-158.092 644.582,-158.837"/>
</g>
<!-- Node8 -->
<g id="node8" class="node"><title>Node8</title>
<g id="a_node8"><a xlink:href="integrate__sd__cuda__device_8cu.html" target="_top" xlink:title="integrate_sd_cuda_device.cu">
<polygon fill="none" stroke="black" points="715.5,-56.5 715.5,-75.5 873.5,-75.5 873.5,-56.5 715.5,-56.5"/>
<text text-anchor="middle" x="794.5" y="-63.5" font-family="Helvetica,sans-Serif" font-size="10.00">integrate_sd_cuda_device.cu</text>
</a>
</g>
</g>
<!-- Node4&#45;&gt;Node8 -->
<g id="edge9" class="edge"><title>Node4&#45;&gt;Node8</title>
<path fill="none" stroke="midnightblue" d="M669.118,-162.118C699.896,-138.769 758.553,-94.2699 783.175,-75.5914"/>
<polygon fill="midnightblue" stroke="midnightblue" points="666.729,-159.536 660.878,-168.368 670.96,-165.113 666.729,-159.536"/>
</g>
<!-- Node9 -->
<g id="node9" class="node"><title>Node9</title>
<g id="a_node9"><a xlink:href="integrate__sd__cuda__kernel_8cu.html" target="_top" xlink:title="integrate_sd_cuda_kernel.cu">
<polygon fill="none" stroke="black" points="662.5,-0.5 662.5,-19.5 818.5,-19.5 818.5,-0.5 662.5,-0.5"/>
<text text-anchor="middle" x="740.5" y="-7.5" font-family="Helvetica,sans-Serif" font-size="10.00">integrate_sd_cuda_kernel.cu</text>
</a>
</g>
</g>
<!-- Node4&#45;&gt;Node9 -->
<g id="edge13" class="edge"><title>Node4&#45;&gt;Node9</title>
<path fill="none" stroke="midnightblue" d="M656.533,-159.167C666.355,-135.032 685.365,-90.9692 706.5,-56 714.604,-42.5919 725.859,-28.3658 733.161,-19.5817"/>
<polygon fill="midnightblue" stroke="midnightblue" points="653.273,-157.894 652.8,-168.478 659.77,-160.499 653.273,-157.894"/>
</g>
<!-- Node10 -->
<g id="node10" class="node"><title>Node10</title>
<g id="a_node10"><a xlink:href="integrate__sd__cuda__device_8hpp.html" target="_top" xlink:title="integrate_sd_cuda_device.hpp">
<polygon fill="none" stroke="black" points="753.5,-112.5 753.5,-131.5 917.5,-131.5 917.5,-112.5 753.5,-112.5"/>
<text text-anchor="middle" x="835.5" y="-119.5" font-family="Helvetica,sans-Serif" font-size="10.00">integrate_sd_cuda_device.hpp</text>
</a>
</g>
</g>
<!-- Node4&#45;&gt;Node10 -->
<g id="edge11" class="edge"><title>Node4&#45;&gt;Node10</title>
<path fill="none" stroke="midnightblue" d="M688.878,-165.568C723.966,-155.381 774.521,-140.703 806.166,-131.516"/>
<polygon fill="midnightblue" stroke="midnightblue" points="687.6,-162.294 678.972,-168.444 689.552,-169.017 687.6,-162.294"/>
</g>
<!-- Node4&#45;&gt;Node11 -->
<g id="edge14" class="edge"><title>Node4&#45;&gt;Node11</title>
<path fill="none" stroke="midnightblue" d="M715.042,-166.917C781.353,-156.715 882.737,-141.117 945.143,-131.516"/>
<polygon fill="midnightblue" stroke="midnightblue" points="714.468,-163.464 705.117,-168.444 715.533,-170.382 714.468,-163.464"/>
</g>
<!-- Node6&#45;&gt;Node5 -->
<g id="edge6" class="edge"><title>Node6&#45;&gt;Node5</title>
<path fill="none" stroke="midnightblue" d="M493.094,-110.153C448.503,-99.95 382.646,-84.8809 341.72,-75.5164"/>
<polygon fill="midnightblue" stroke="midnightblue" points="492.576,-113.625 503.105,-112.444 494.138,-106.801 492.576,-113.625"/>
</g>
<!-- Node6&#45;&gt;Node7 -->
<g id="edge7" class="edge"><title>Node6&#45;&gt;Node7</title>
<path fill="none" stroke="midnightblue" d="M540.5,-101.805C540.5,-92.9102 540.5,-82.7798 540.5,-75.7511"/>
<polygon fill="midnightblue" stroke="midnightblue" points="537,-102.083 540.5,-112.083 544,-102.083 537,-102.083"/>
</g>
<!-- Node8&#45;&gt;Node9 -->
<g id="edge10" class="edge"><title>Node8&#45;&gt;Node9</title>
<path fill="none" stroke="midnightblue" d="M778.502,-49.0024C768.933,-39.4329 757.139,-27.6389 749.251,-19.7511"/>
<polygon fill="midnightblue" stroke="midnightblue" points="776.037,-51.4868 785.583,-56.083 780.987,-46.537 776.037,-51.4868"/>
</g>
<!-- Node10&#45;&gt;Node8 -->
<g id="edge12" class="edge"><title>Node10&#45;&gt;Node8</title>
<path fill="none" stroke="midnightblue" d="M822.483,-103.855C815.383,-94.5048 806.896,-83.3265 801.144,-75.7511"/>
<polygon fill="midnightblue" stroke="midnightblue" points="819.895,-106.235 828.73,-112.083 825.47,-102.002 819.895,-106.235"/>
</g>
<!-- Node12&#45;&gt;Node5 -->
<g id="edge16" class="edge"><title>Node12&#45;&gt;Node5</title>
<path fill="none" stroke="midnightblue" d="M343.206,-105.002C333.459,-95.4329 321.447,-83.6389 313.413,-75.7511"/>
<polygon fill="midnightblue" stroke="midnightblue" points="340.83,-107.575 350.418,-112.083 345.734,-102.58 340.83,-107.575"/>
</g>
<!-- Node12&#45;&gt;Node7 -->
<g id="edge17" class="edge"><title>Node12&#45;&gt;Node7</title>
<path fill="none" stroke="midnightblue" d="M397.819,-109.568C431.964,-99.381 481.161,-84.7034 511.954,-75.5164"/>
<polygon fill="midnightblue" stroke="midnightblue" points="396.762,-106.231 388.18,-112.444 398.763,-112.938 396.762,-106.231"/>
</g>
</g>
</svg>
