<?xml version="1.0" encoding="UTF-8" standalone="no"?>
<!DOCTYPE svg PUBLIC "-//W3C//DTD SVG 1.1//EN"
 "http://www.w3.org/Graphics/SVG/1.1/DTD/svg11.dtd">
<!-- Generated by graphviz version 2.38.0 (20140413.2041)
 -->
<!-- Title: integrate_sd_cuda_device.cu Pages: 1 -->
<svg width="224pt" height="196pt"
 viewBox="0.00 0.00 224.00 196.00" xmlns="http://www.w3.org/2000/svg" xmlns:xlink="http://www.w3.org/1999/xlink">
<g id="graph0" class="graph" transform="scale(1 1) rotate(0) translate(4 192)">
<title>integrate_sd_cuda_device.cu</title>
<!-- Node1 -->
<g id="node1" class="node"><title>Node1</title>
<polygon fill="#bfbfbf" stroke="black" points="-1.42109e-14,-168.5 -1.42109e-14,-187.5 158,-187.5 158,-168.5 -1.42109e-14,-168.5"/>
<text text-anchor="middle" x="79" y="-175.5" font-family="Helvetica,sans-Serif" font-size="10.00">integrate_sd_cuda_device.cu</text>
</g>
<!-- Node2 -->
<g id="node2" class="node"><title>Node2</title>
<g id="a_node2"><a xlink:href="integrate__sd__cuda_8hpp.html" target="_top" xlink:title="integrate_sd_cuda.hpp">
<polygon fill="none" stroke="black" points="15.5,-56.5 15.5,-75.5 142.5,-75.5 142.5,-56.5 15.5,-56.5"/>
<text text-anchor="middle" x="79" y="-63.5" font-family="Helvetica,sans-Serif" font-size="10.00">integrate_sd_cuda.hpp</text>
</a>
</g>
</g>
<!-- Node1&#45;&gt;Node2 -->
<g id="edge1" class="edge"><title>Node1&#45;&gt;Node2</title>
<path fill="none" stroke="midnightblue" d="M68.8379,-168.185C60.0916,-159.87 48.1,-146.539 43,-132 36.7765,-114.258 49.3087,-95.6492 61.2573,-82.9113"/>
<polygon fill="midnightblue" stroke="midnightblue" points="63.7997,-85.3195 68.4487,-75.7991 58.8774,-80.3424 63.7997,-85.3195"/>
</g>
<!-- Node4 -->
<g id="node4" class="node"><title>Node4</title>
<g id="a_node4"><a xlink:href="integrate__sd__cuda__device_8hpp.html" target="_top" xlink:title="integrate_sd_cuda_device.hpp">
<polygon fill="none" stroke="black" points="52,-112.5 52,-131.5 216,-131.5 216,-112.5 52,-112.5"/>
<text text-anchor="middle" x="134" y="-119.5" font-family="Helvetica,sans-Serif" font-size="10.00">integrate_sd_cuda_device.hpp</text>
</a>
</g>
</g>
<!-- Node1&#45;&gt;Node4 -->
<g id="edge3" class="edge"><title>Node1&#45;&gt;Node4</title>
<path fill="none" stroke="midnightblue" d="M88.0821,-168.083C96.1713,-160.141 108.195,-148.335 117.91,-138.797"/>
<polygon fill="midnightblue" stroke="midnightblue" points="120.403,-141.254 125.087,-131.751 115.499,-136.26 120.403,-141.254"/>
</g>
<!-- Node3 -->
<g id="node3" class="node"><title>Node3</title>
<g id="a_node3"><a xlink:href="integrate__sd_8hpp.html" target="_top" xlink:title="Stokes dynamics integrator. ">
<polygon fill="none" stroke="black" points="30,-0.5 30,-19.5 128,-19.5 128,-0.5 30,-0.5"/>
<text text-anchor="middle" x="79" y="-7.5" font-family="Helvetica,sans-Serif" font-size="10.00">integrate_sd.hpp</text>
</a>
</g>
</g>
<!-- Node2&#45;&gt;Node3 -->
<g id="edge2" class="edge"><title>Node2&#45;&gt;Node3</title>
<path fill="none" stroke="midnightblue" d="M79,-56.083C79,-49.0059 79,-38.8611 79,-29.9865"/>
<polygon fill="midnightblue" stroke="midnightblue" points="82.5001,-29.751 79,-19.7511 75.5001,-29.7511 82.5001,-29.751"/>
</g>
<!-- Node4&#45;&gt;Node2 -->
<g id="edge4" class="edge"><title>Node4&#45;&gt;Node2</title>
<path fill="none" stroke="midnightblue" d="M124.918,-112.083C116.829,-104.141 104.805,-92.3354 95.0898,-82.7973"/>
<polygon fill="midnightblue" stroke="midnightblue" points="97.5009,-80.2595 87.9131,-75.7511 92.5967,-85.2545 97.5009,-80.2595"/>
</g>
</g>
</svg>
