<?xml version="1.0" encoding="UTF-8" standalone="no"?>
<!DOCTYPE svg PUBLIC "-//W3C//DTD SVG 1.1//EN"
 "http://www.w3.org/Graphics/SVG/1.1/DTD/svg11.dtd">
<!-- Generated by graphviz version 2.38.0 (20140413.2041)
 -->
<!-- Title: integrate_sd_matrix.cu Pages: 1 -->
<svg width="888pt" height="140pt"
 viewBox="0.00 0.00 888.00 140.00" xmlns="http://www.w3.org/2000/svg" xmlns:xlink="http://www.w3.org/1999/xlink">
<g id="graph0" class="graph" transform="scale(1 1) rotate(0) translate(4 136)">
<title>integrate_sd_matrix.cu</title>
<!-- Node1 -->
<g id="node1" class="node"><title>Node1</title>
<polygon fill="#bfbfbf" stroke="black" points="362.5,-112.5 362.5,-131.5 491.5,-131.5 491.5,-112.5 362.5,-112.5"/>
<text text-anchor="middle" x="427" y="-119.5" font-family="Helvetica,sans-Serif" font-size="10.00">integrate_sd_matrix.cu</text>
</g>
<!-- Node2 -->
<g id="node2" class="node"><title>Node2</title>
<g id="a_node2"><a xlink:href="config_8hpp.html" target="_top" xlink:title="This file contains the defaults for Espresso. ">
<polygon fill="none" stroke="black" points="116.5,-56.5 116.5,-75.5 183.5,-75.5 183.5,-56.5 116.5,-56.5"/>
<text text-anchor="middle" x="150" y="-63.5" font-family="Helvetica,sans-Serif" font-size="10.00">config.hpp</text>
</a>
</g>
</g>
<!-- Node1&#45;&gt;Node2 -->
<g id="edge1" class="edge"><title>Node1&#45;&gt;Node2</title>
<path fill="none" stroke="midnightblue" d="M381.222,-112.425C336.139,-103.93 265.046,-90.3962 193.837,-76.1424"/>
<polygon fill="midnightblue" stroke="midnightblue" points="194.284,-72.6624 183.79,-74.1268 192.906,-79.5256 194.284,-72.6624"/>
</g>
<!-- Node6 -->
<g id="node6" class="node"><title>Node6</title>
<polygon fill="none" stroke="#bfbfbf" points="202,-56.5 202,-75.5 252,-75.5 252,-56.5 202,-56.5"/>
<text text-anchor="middle" x="227" y="-63.5" font-family="Helvetica,sans-Serif" font-size="10.00">stdio.h</text>
</g>
<!-- Node1&#45;&gt;Node6 -->
<g id="edge5" class="edge"><title>Node1&#45;&gt;Node6</title>
<path fill="none" stroke="midnightblue" d="M395.309,-112.444C359.065,-102.657 299.886,-86.6793 262.225,-76.5107"/>
<polygon fill="midnightblue" stroke="midnightblue" points="262.776,-73.0344 252.21,-73.8067 260.952,-79.7924 262.776,-73.0344"/>
</g>
<!-- Node7 -->
<g id="node7" class="node"><title>Node7</title>
<polygon fill="none" stroke="#bfbfbf" points="270,-56.5 270,-75.5 326,-75.5 326,-56.5 270,-56.5"/>
<text text-anchor="middle" x="298" y="-63.5" font-family="Helvetica,sans-Serif" font-size="10.00">assert.h</text>
</g>
<!-- Node1&#45;&gt;Node7 -->
<g id="edge6" class="edge"><title>Node1&#45;&gt;Node7</title>
<path fill="none" stroke="midnightblue" d="M406.56,-112.444C385.33,-103.557 351.901,-89.5632 327.745,-79.4514"/>
<polygon fill="midnightblue" stroke="midnightblue" points="328.921,-76.1493 318.345,-75.5164 326.218,-82.6064 328.921,-76.1493"/>
</g>
<!-- Node8 -->
<g id="node8" class="node"><title>Node8</title>
<polygon fill="none" stroke="#bfbfbf" points="344,-56.5 344,-75.5 436,-75.5 436,-56.5 344,-56.5"/>
<text text-anchor="middle" x="390" y="-63.5" font-family="Helvetica,sans-Serif" font-size="10.00">cuda_runtime.h</text>
</g>
<!-- Node1&#45;&gt;Node8 -->
<g id="edge7" class="edge"><title>Node1&#45;&gt;Node8</title>
<path fill="none" stroke="midnightblue" d="M420.89,-112.083C415.718,-104.534 408.154,-93.4948 401.806,-84.2298"/>
<polygon fill="midnightblue" stroke="midnightblue" points="404.536,-82.0221 395.996,-75.7511 398.761,-85.9787 404.536,-82.0221"/>
</g>
<!-- Node9 -->
<g id="node9" class="node"><title>Node9</title>
<g id="a_node9"><a xlink:href="integrate__sd_8hpp.html" target="_top" xlink:title="Stokes dynamics integrator. ">
<polygon fill="none" stroke="black" points="461,-0.5 461,-19.5 559,-19.5 559,-0.5 461,-0.5"/>
<text text-anchor="middle" x="510" y="-7.5" font-family="Helvetica,sans-Serif" font-size="10.00">integrate_sd.hpp</text>
</a>
</g>
</g>
<!-- Node1&#45;&gt;Node9 -->
<g id="edge8" class="edge"><title>Node1&#45;&gt;Node9</title>
<path fill="none" stroke="midnightblue" d="M433.513,-112.368C447.271,-94.135 479.497,-51.4257 497.418,-27.6752"/>
<polygon fill="midnightblue" stroke="midnightblue" points="500.288,-29.6821 503.517,-19.5914 494.7,-25.4659 500.288,-29.6821"/>
</g>
<!-- Node10 -->
<g id="node10" class="node"><title>Node10</title>
<g id="a_node10"><a xlink:href="integrate__sd__cuda_8hpp.html" target="_top" xlink:title="integrate_sd_cuda.hpp">
<polygon fill="none" stroke="black" points="492.5,-56.5 492.5,-75.5 619.5,-75.5 619.5,-56.5 492.5,-56.5"/>
<text text-anchor="middle" x="556" y="-63.5" font-family="Helvetica,sans-Serif" font-size="10.00">integrate_sd_cuda.hpp</text>
</a>
</g>
</g>
<!-- Node1&#45;&gt;Node10 -->
<g id="edge9" class="edge"><title>Node1&#45;&gt;Node10</title>
<path fill="none" stroke="midnightblue" d="M447.44,-112.444C468.67,-103.557 502.099,-89.5632 526.255,-79.4514"/>
<polygon fill="midnightblue" stroke="midnightblue" points="527.782,-82.6064 535.655,-75.5164 525.079,-76.1493 527.782,-82.6064"/>
</g>
<!-- Node11 -->
<g id="node11" class="node"><title>Node11</title>
<g id="a_node11"><a xlink:href="integrate__sd__matrix_8hpp.html" target="_top" xlink:title="integrate_sd_matrix.hpp">
<polygon fill="none" stroke="black" points="638,-56.5 638,-75.5 774,-75.5 774,-56.5 638,-56.5"/>
<text text-anchor="middle" x="706" y="-63.5" font-family="Helvetica,sans-Serif" font-size="10.00">integrate_sd_matrix.hpp</text>
</a>
</g>
</g>
<!-- Node1&#45;&gt;Node11 -->
<g id="edge11" class="edge"><title>Node1&#45;&gt;Node11</title>
<path fill="none" stroke="midnightblue" d="M471.208,-112.444C520.287,-102.944 599.51,-87.611 652.164,-77.4198"/>
<polygon fill="midnightblue" stroke="midnightblue" points="652.846,-80.853 661.998,-75.5164 651.516,-73.9805 652.846,-80.853"/>
</g>
<!-- Node12 -->
<g id="node12" class="node"><title>Node12</title>
<polygon fill="none" stroke="#bfbfbf" points="792,-56.5 792,-75.5 880,-75.5 880,-56.5 792,-56.5"/>
<text text-anchor="middle" x="836" y="-63.5" font-family="Helvetica,sans-Serif" font-size="10.00">openssl/md5.h</text>
</g>
<!-- Node1&#45;&gt;Node12 -->
<g id="edge12" class="edge"><title>Node1&#45;&gt;Node12</title>
<path fill="none" stroke="midnightblue" d="M491.75,-113.653C561.017,-105.604 674.352,-91.8919 781.738,-76.1357"/>
<polygon fill="midnightblue" stroke="midnightblue" points="782.394,-79.5768 791.776,-74.6541 781.372,-72.6518 782.394,-79.5768"/>
</g>
<!-- Node3 -->
<g id="node3" class="node"><title>Node3</title>
<g id="a_node3"><a xlink:href="acconfig_8hpp.html" target="_top" xlink:title="acconfig.hpp">
<polygon fill="none" stroke="black" points="0,-0.5 0,-19.5 78,-19.5 78,-0.5 0,-0.5"/>
<text text-anchor="middle" x="39" y="-7.5" font-family="Helvetica,sans-Serif" font-size="10.00">acconfig.hpp</text>
</a>
</g>
</g>
<!-- Node2&#45;&gt;Node3 -->
<g id="edge2" class="edge"><title>Node2&#45;&gt;Node3</title>
<path fill="none" stroke="midnightblue" d="M132.166,-56.324C114.284,-47.6247 86.5249,-34.1202 65.9544,-24.113"/>
<polygon fill="midnightblue" stroke="midnightblue" points="67.3133,-20.8819 56.7898,-19.6545 64.251,-27.1765 67.3133,-20.8819"/>
</g>
<!-- Node4 -->
<g id="node4" class="node"><title>Node4</title>
<g id="a_node4"><a xlink:href="myconfig-final_8hpp.html" target="_top" xlink:title="myconfig&#45;final.hpp">
<polygon fill="none" stroke="black" points="96.5,-0.5 96.5,-19.5 203.5,-19.5 203.5,-0.5 96.5,-0.5"/>
<text text-anchor="middle" x="150" y="-7.5" font-family="Helvetica,sans-Serif" font-size="10.00">myconfig&#45;final.hpp</text>
</a>
</g>
</g>
<!-- Node2&#45;&gt;Node4 -->
<g id="edge3" class="edge"><title>Node2&#45;&gt;Node4</title>
<path fill="none" stroke="midnightblue" d="M150,-56.083C150,-49.0059 150,-38.8611 150,-29.9865"/>
<polygon fill="midnightblue" stroke="midnightblue" points="153.5,-29.751 150,-19.7511 146.5,-29.7511 153.5,-29.751"/>
</g>
<!-- Node5 -->
<g id="node5" class="node"><title>Node5</title>
<g id="a_node5"><a xlink:href="config-features_8hpp.html" target="_top" xlink:title="config&#45;features.hpp">
<polygon fill="none" stroke="black" points="221.5,-0.5 221.5,-19.5 332.5,-19.5 332.5,-0.5 221.5,-0.5"/>
<text text-anchor="middle" x="277" y="-7.5" font-family="Helvetica,sans-Serif" font-size="10.00">config&#45;features.hpp</text>
</a>
</g>
</g>
<!-- Node2&#45;&gt;Node5 -->
<g id="edge4" class="edge"><title>Node2&#45;&gt;Node5</title>
<path fill="none" stroke="midnightblue" d="M170.124,-56.4435C191.024,-47.5566 223.935,-33.5632 247.716,-23.4514"/>
<polygon fill="midnightblue" stroke="midnightblue" points="249.138,-26.6504 256.971,-19.5164 246.398,-20.2085 249.138,-26.6504"/>
</g>
<!-- Node10&#45;&gt;Node9 -->
<g id="edge10" class="edge"><title>Node10&#45;&gt;Node9</title>
<path fill="none" stroke="midnightblue" d="M548.404,-56.083C541.773,-48.2982 531.979,-36.8015 523.942,-27.3665"/>
<polygon fill="midnightblue" stroke="midnightblue" points="526.604,-25.0939 517.455,-19.7511 521.275,-29.6332 526.604,-25.0939"/>
</g>
</g>
</svg>
