<?xml version="1.0" encoding="UTF-8" standalone="no"?>
<!DOCTYPE svg PUBLIC "-//W3C//DTD SVG 1.1//EN"
 "http://www.w3.org/Graphics/SVG/1.1/DTD/svg11.dtd">
<!-- Generated by graphviz version 2.38.0 (20140413.2041)
 -->
<!-- Title: integrate_sd_cuda_debug.hpp Pages: 1 -->
<svg width="650pt" height="140pt"
 viewBox="0.00 0.00 649.50 140.00" xmlns="http://www.w3.org/2000/svg" xmlns:xlink="http://www.w3.org/1999/xlink">
<g id="graph0" class="graph" transform="scale(1 1) rotate(0) translate(4 136)">
<title>integrate_sd_cuda_debug.hpp</title>
<!-- Node1 -->
<g id="node1" class="node"><title>Node1</title>
<polygon fill="#bfbfbf" stroke="black" points="273,-112.5 273,-131.5 435,-131.5 435,-112.5 273,-112.5"/>
<text text-anchor="middle" x="354" y="-119.5" font-family="Helvetica,sans-Serif" font-size="10.00">integrate_sd_cuda_debug.hpp</text>
</g>
<!-- Node2 -->
<g id="node2" class="node"><title>Node2</title>
<g id="a_node2"><a xlink:href="config_8hpp.html" target="_top" xlink:title="This file contains the defaults for Espresso. ">
<polygon fill="none" stroke="black" points="116.5,-56.5 116.5,-75.5 183.5,-75.5 183.5,-56.5 116.5,-56.5"/>
<text text-anchor="middle" x="150" y="-63.5" font-family="Helvetica,sans-Serif" font-size="10.00">config.hpp</text>
</a>
</g>
</g>
<!-- Node1&#45;&gt;Node2 -->
<g id="edge1" class="edge"><title>Node1&#45;&gt;Node2</title>
<path fill="none" stroke="midnightblue" d="M321.676,-112.444C286.611,-103.162 230.502,-88.3093 192.035,-78.127"/>
<polygon fill="midnightblue" stroke="midnightblue" points="192.736,-74.692 182.173,-75.5164 190.945,-81.4589 192.736,-74.692"/>
</g>
<!-- Node6 -->
<g id="node6" class="node"><title>Node6</title>
<polygon fill="none" stroke="#bfbfbf" points="202,-56.5 202,-75.5 270,-75.5 270,-56.5 202,-56.5"/>
<text text-anchor="middle" x="236" y="-63.5" font-family="Helvetica,sans-Serif" font-size="10.00">sys/time.h</text>
</g>
<!-- Node1&#45;&gt;Node6 -->
<g id="edge5" class="edge"><title>Node1&#45;&gt;Node6</title>
<path fill="none" stroke="midnightblue" d="M335.303,-112.444C316.056,-103.636 285.848,-89.8116 263.8,-79.722"/>
<polygon fill="midnightblue" stroke="midnightblue" points="265.16,-76.4951 254.61,-75.5164 262.247,-82.8603 265.16,-76.4951"/>
</g>
<!-- Node7 -->
<g id="node7" class="node"><title>Node7</title>
<polygon fill="none" stroke="#bfbfbf" points="288,-56.5 288,-75.5 344,-75.5 344,-56.5 288,-56.5"/>
<text text-anchor="middle" x="316" y="-63.5" font-family="Helvetica,sans-Serif" font-size="10.00">assert.h</text>
</g>
<!-- Node1&#45;&gt;Node7 -->
<g id="edge6" class="edge"><title>Node1&#45;&gt;Node7</title>
<path fill="none" stroke="midnightblue" d="M347.725,-112.083C342.358,-104.455 334.482,-93.2645 327.921,-83.9408"/>
<polygon fill="midnightblue" stroke="midnightblue" points="330.775,-81.9149 322.158,-75.7511 325.051,-85.9434 330.775,-81.9149"/>
</g>
<!-- Node8 -->
<g id="node8" class="node"><title>Node8</title>
<polygon fill="none" stroke="#bfbfbf" points="362,-56.5 362,-75.5 422,-75.5 422,-56.5 362,-56.5"/>
<text text-anchor="middle" x="392" y="-63.5" font-family="Helvetica,sans-Serif" font-size="10.00">iostream</text>
</g>
<!-- Node1&#45;&gt;Node8 -->
<g id="edge7" class="edge"><title>Node1&#45;&gt;Node8</title>
<path fill="none" stroke="midnightblue" d="M360.275,-112.083C365.642,-104.455 373.518,-93.2645 380.079,-83.9408"/>
<polygon fill="midnightblue" stroke="midnightblue" points="382.949,-85.9434 385.842,-75.7511 377.225,-81.9149 382.949,-85.9434"/>
</g>
<!-- Node9 -->
<g id="node9" class="node"><title>Node9</title>
<polygon fill="none" stroke="#bfbfbf" points="440,-56.5 440,-75.5 496,-75.5 496,-56.5 440,-56.5"/>
<text text-anchor="middle" x="468" y="-63.5" font-family="Helvetica,sans-Serif" font-size="10.00">iomanip</text>
</g>
<!-- Node1&#45;&gt;Node9 -->
<g id="edge8" class="edge"><title>Node1&#45;&gt;Node9</title>
<path fill="none" stroke="midnightblue" d="M372.064,-112.444C390.575,-103.675 419.581,-89.9355 440.855,-79.8579"/>
<polygon fill="midnightblue" stroke="midnightblue" points="442.482,-82.9604 450.021,-75.5164 439.485,-76.6343 442.482,-82.9604"/>
</g>
<!-- Node10 -->
<g id="node10" class="node"><title>Node10</title>
<g id="a_node10"><a xlink:href="integrate__sd__cuda_8hpp.html" target="_top" xlink:title="integrate_sd_cuda.hpp">
<polygon fill="none" stroke="black" points="514.5,-56.5 514.5,-75.5 641.5,-75.5 641.5,-56.5 514.5,-56.5"/>
<text text-anchor="middle" x="578" y="-63.5" font-family="Helvetica,sans-Serif" font-size="10.00">integrate_sd_cuda.hpp</text>
</a>
</g>
</g>
<!-- Node1&#45;&gt;Node10 -->
<g id="edge9" class="edge"><title>Node1&#45;&gt;Node10</title>
<path fill="none" stroke="midnightblue" d="M389.493,-112.444C428.324,-103.083 490.656,-88.0561 532.918,-77.868"/>
<polygon fill="midnightblue" stroke="midnightblue" points="533.771,-81.2626 542.673,-75.5164 532.131,-74.4576 533.771,-81.2626"/>
</g>
<!-- Node3 -->
<g id="node3" class="node"><title>Node3</title>
<g id="a_node3"><a xlink:href="acconfig_8hpp.html" target="_top" xlink:title="acconfig.hpp">
<polygon fill="none" stroke="black" points="0,-0.5 0,-19.5 78,-19.5 78,-0.5 0,-0.5"/>
<text text-anchor="middle" x="39" y="-7.5" font-family="Helvetica,sans-Serif" font-size="10.00">acconfig.hpp</text>
</a>
</g>
</g>
<!-- Node2&#45;&gt;Node3 -->
<g id="edge2" class="edge"><title>Node2&#45;&gt;Node3</title>
<path fill="none" stroke="midnightblue" d="M132.166,-56.324C114.284,-47.6247 86.5249,-34.1202 65.9544,-24.113"/>
<polygon fill="midnightblue" stroke="midnightblue" points="67.3133,-20.8819 56.7898,-19.6545 64.251,-27.1765 67.3133,-20.8819"/>
</g>
<!-- Node4 -->
<g id="node4" class="node"><title>Node4</title>
<g id="a_node4"><a xlink:href="myconfig-final_8hpp.html" target="_top" xlink:title="myconfig&#45;final.hpp">
<polygon fill="none" stroke="black" points="96.5,-0.5 96.5,-19.5 203.5,-19.5 203.5,-0.5 96.5,-0.5"/>
<text text-anchor="middle" x="150" y="-7.5" font-family="Helvetica,sans-Serif" font-size="10.00">myconfig&#45;final.hpp</text>
</a>
</g>
</g>
<!-- Node2&#45;&gt;Node4 -->
<g id="edge3" class="edge"><title>Node2&#45;&gt;Node4</title>
<path fill="none" stroke="midnightblue" d="M150,-56.083C150,-49.0059 150,-38.8611 150,-29.9865"/>
<polygon fill="midnightblue" stroke="midnightblue" points="153.5,-29.751 150,-19.7511 146.5,-29.7511 153.5,-29.751"/>
</g>
<!-- Node5 -->
<g id="node5" class="node"><title>Node5</title>
<g id="a_node5"><a xlink:href="config-features_8hpp.html" target="_top" xlink:title="config&#45;features.hpp">
<polygon fill="none" stroke="black" points="221.5,-0.5 221.5,-19.5 332.5,-19.5 332.5,-0.5 221.5,-0.5"/>
<text text-anchor="middle" x="277" y="-7.5" font-family="Helvetica,sans-Serif" font-size="10.00">config&#45;features.hpp</text>
</a>
</g>
</g>
<!-- Node2&#45;&gt;Node5 -->
<g id="edge4" class="edge"><title>Node2&#45;&gt;Node5</title>
<path fill="none" stroke="midnightblue" d="M170.124,-56.4435C191.024,-47.5566 223.935,-33.5632 247.716,-23.4514"/>
<polygon fill="midnightblue" stroke="midnightblue" points="249.138,-26.6504 256.971,-19.5164 246.398,-20.2085 249.138,-26.6504"/>
</g>
<!-- Node11 -->
<g id="node11" class="node"><title>Node11</title>
<g id="a_node11"><a xlink:href="integrate__sd_8hpp.html" target="_top" xlink:title="Stokes dynamics integrator. ">
<polygon fill="none" stroke="black" points="529,-0.5 529,-19.5 627,-19.5 627,-0.5 529,-0.5"/>
<text text-anchor="middle" x="578" y="-7.5" font-family="Helvetica,sans-Serif" font-size="10.00">integrate_sd.hpp</text>
</a>
</g>
</g>
<!-- Node10&#45;&gt;Node11 -->
<g id="edge10" class="edge"><title>Node10&#45;&gt;Node11</title>
<path fill="none" stroke="midnightblue" d="M578,-56.083C578,-49.0059 578,-38.8611 578,-29.9865"/>
<polygon fill="midnightblue" stroke="midnightblue" points="581.5,-29.751 578,-19.7511 574.5,-29.7511 581.5,-29.751"/>
</g>
</g>
</svg>
