<?xml version="1.0" encoding="UTF-8" standalone="no"?>
<!DOCTYPE svg PUBLIC "-//W3C//DTD SVG 1.1//EN"
 "http://www.w3.org/Graphics/SVG/1.1/DTD/svg11.dtd">
<!-- Generated by graphviz version 2.38.0 (20140413.2041)
 -->
<!-- Title: integrate_sd_cuda.cu Pages: 1 -->
<!--zoomable 196 -->
<svg id="main" version="1.1" xmlns="http://www.w3.org/2000/svg" xmlns:xlink="http://www.w3.org/1999/xlink" xml:space="preserve" onload="init(evt)">
<style type="text/css"><![CDATA[
.edge:hover path { stroke: red; }
.edge:hover polygon { stroke: red; fill: red; }
]]></style>
<script type="text/javascript"><![CDATA[
var edges = document.getElementsByTagName('g');
if (edges && edges.length) {
  for (var i=0;i<edges.length;i++) {
    if (edges[i].id.substr(0,4)=='edge') {
      edges[i].setAttribute('class','edge');
    }
  }
}
]]></script>
        <defs>
                <circle id="rim" cx="0" cy="0" r="7"/>
                <circle id="rim2" cx="0" cy="0" r="3.5"/>
                <g id="zoomPlus">
                        <use xlink:href="#rim" fill="#404040">
                                <set attributeName="fill" to="#808080" begin="zoomplus.mouseover" end="zoomplus.mouseout"/>
                        </use>
                        <path d="M-4,0h8M0,-4v8" fill="none" stroke="white" stroke-width="1.5" pointer-events="none"/>
                </g>
                <g id="zoomMin">
                        <use xlink:href="#rim" fill="#404040">
                                <set attributeName="fill" to="#808080" begin="zoomminus.mouseover" end="zoomminus.mouseout"/>
                        </use>
                        <path d="M-4,0h8" fill="none" stroke="white" stroke-width="1.5" pointer-events="none"/>
                </g>
                <g id="dirArrow">
                        <path fill="none" stroke="white" stroke-width="1.5" d="M0,-3.0v7 M-2.5,-0.5L0,-3.0L2.5,-0.5"/>
                </g>
               <g id="resetDef">
                       <use xlink:href="#rim2" fill="#404040">
                               <set attributeName="fill" to="#808080" begin="reset.mouseover" end="reset.mouseout"/>
                       </use>
               </g>
        </defs>

<script type="text/javascript">
var viewWidth = 1407;
var viewHeight = 196;
var sectionId = 'dynsection-0';
</script>
<script xlink:href="svgpan.js"/>
<svg id="graph" class="graph">
<g id="viewport">
<title>integrate_sd_cuda.cu</title>
<!-- Node1 -->
<g id="node1" class="node"><title>Node1</title>
<polygon fill="#bfbfbf" stroke="black" points="713,-168.5 713,-187.5 833,-187.5 833,-168.5 713,-168.5"/>
<text text-anchor="middle" x="773" y="-175.5" font-family="Helvetica,sans-Serif" font-size="10.00">integrate_sd_cuda.cu</text>
</g>
<!-- Node2 -->
<g id="node2" class="node"><title>Node2</title>
<g id="a_node2"><a xlink:href="config_8hpp.html" target="_top" xlink:title="This file contains the defaults for Espresso. ">
<polygon fill="none" stroke="black" points="116.5,-56.5 116.5,-75.5 183.5,-75.5 183.5,-56.5 116.5,-56.5"/>
<text text-anchor="middle" x="150" y="-63.5" font-family="Helvetica,sans-Serif" font-size="10.00">config.hpp</text>
</a>
</g>
</g>
<!-- Node1&#45;&gt;Node2 -->
<g id="edge1" class="edge"><title>Node1&#45;&gt;Node2</title>
<path fill="none" stroke="midnightblue" d="M712.985,-174.452C599.245,-169.149 356.481,-155.429 276,-132 236.776,-120.582 195.452,-96.6483 171.237,-81.2266"/>
<polygon fill="midnightblue" stroke="midnightblue" points="172.837,-78.0925 162.543,-75.5844 169.026,-83.9643 172.837,-78.0925"/>
</g>
<!-- Node6 -->
<g id="node6" class="node"><title>Node6</title>
<polygon fill="none" stroke="#bfbfbf" points="775,-112.5 775,-131.5 825,-131.5 825,-112.5 775,-112.5"/>
<text text-anchor="middle" x="800" y="-119.5" font-family="Helvetica,sans-Serif" font-size="10.00">stdio.h</text>
</g>
<!-- Node1&#45;&gt;Node6 -->
<g id="edge5" class="edge"><title>Node1&#45;&gt;Node6</title>
<path fill="none" stroke="midnightblue" d="M777.459,-168.083C781.154,-160.691 786.523,-149.953 791.094,-140.811"/>
<polygon fill="midnightblue" stroke="midnightblue" points="794.283,-142.261 795.624,-131.751 788.022,-139.13 794.283,-142.261"/>
</g>
<!-- Node7 -->
<g id="node7" class="node"><title>Node7</title>
<polygon fill="none" stroke="#bfbfbf" points="202,-56.5 202,-75.5 262,-75.5 262,-56.5 202,-56.5"/>
<text text-anchor="middle" x="232" y="-63.5" font-family="Helvetica,sans-Serif" font-size="10.00">iostream</text>
</g>
<!-- Node1&#45;&gt;Node7 -->
<g id="edge6" class="edge"><title>Node1&#45;&gt;Node7</title>
<path fill="none" stroke="midnightblue" d="M712.8,-175.534C604.453,-172.177 381.256,-161.776 310,-132 284.201,-121.219 260.426,-98.8426 246.072,-83.3794"/>
<polygon fill="midnightblue" stroke="midnightblue" points="248.395,-80.7275 239.114,-75.6176 243.183,-85.4 248.395,-80.7275"/>
</g>
<!-- Node8 -->
<g id="node8" class="node"><title>Node8</title>
<polygon fill="none" stroke="#bfbfbf" points="843,-112.5 843,-131.5 935,-131.5 935,-112.5 843,-112.5"/>
<text text-anchor="middle" x="889" y="-119.5" font-family="Helvetica,sans-Serif" font-size="10.00">cuda_runtime.h</text>
</g>
<!-- Node1&#45;&gt;Node8 -->
<g id="edge7" class="edge"><title>Node1&#45;&gt;Node8</title>
<path fill="none" stroke="midnightblue" d="M791.381,-168.444C810.216,-159.675 839.731,-145.935 861.379,-135.858"/>
<polygon fill="midnightblue" stroke="midnightblue" points="863.117,-138.91 870.705,-131.516 860.162,-132.564 863.117,-138.91"/>
</g>
<!-- Node9 -->
<g id="node9" class="node"><title>Node9</title>
<polygon fill="none" stroke="#bfbfbf" points="953.5,-112.5 953.5,-131.5 1012.5,-131.5 1012.5,-112.5 953.5,-112.5"/>
<text text-anchor="middle" x="983" y="-119.5" font-family="Helvetica,sans-Serif" font-size="10.00">curand.h</text>
</g>
<!-- Node1&#45;&gt;Node9 -->
<g id="edge8" class="edge"><title>Node1&#45;&gt;Node9</title>
<path fill="none" stroke="midnightblue" d="M806.275,-168.444C843.512,-158.868 903.803,-143.365 943.427,-133.176"/>
<polygon fill="midnightblue" stroke="midnightblue" points="944.463,-136.524 953.276,-130.643 942.719,-129.744 944.463,-136.524"/>
</g>
<!-- Node10 -->
<g id="node10" class="node"><title>Node10</title>
<polygon fill="none" stroke="#bfbfbf" points="1031,-112.5 1031,-131.5 1139,-131.5 1139,-112.5 1031,-112.5"/>
<text text-anchor="middle" x="1085" y="-119.5" font-family="Helvetica,sans-Serif" font-size="10.00">device_functions.h</text>
</g>
<!-- Node1&#45;&gt;Node10 -->
<g id="edge9" class="edge"><title>Node1&#45;&gt;Node10</title>
<path fill="none" stroke="midnightblue" d="M822.437,-168.444C877.664,-158.885 967.021,-143.419 1025.89,-133.23"/>
<polygon fill="midnightblue" stroke="midnightblue" points="1026.54,-136.671 1035.79,-131.516 1025.34,-129.773 1026.54,-136.671"/>
</g>
<!-- Node11 -->
<g id="node11" class="node"><title>Node11</title>
<polygon fill="none" stroke="#bfbfbf" points="1157,-112.5 1157,-131.5 1221,-131.5 1221,-112.5 1157,-112.5"/>
<text text-anchor="middle" x="1189" y="-119.5" font-family="Helvetica,sans-Serif" font-size="10.00">algorithm</text>
</g>
<!-- Node1&#45;&gt;Node11 -->
<g id="edge10" class="edge"><title>Node1&#45;&gt;Node11</title>
<path fill="none" stroke="midnightblue" d="M833.008,-171.603C905.165,-164.712 1030.12,-151.498 1146.66,-132.083"/>
<polygon fill="midnightblue" stroke="midnightblue" points="1147.55,-135.483 1156.83,-130.37 1146.39,-128.58 1147.55,-135.483"/>
</g>
<!-- Node12 -->
<g id="node12" class="node"><title>Node12</title>
<polygon fill="none" stroke="#bfbfbf" points="280,-56.5 280,-75.5 336,-75.5 336,-56.5 280,-56.5"/>
<text text-anchor="middle" x="308" y="-63.5" font-family="Helvetica,sans-Serif" font-size="10.00">assert.h</text>
</g>
<!-- Node1&#45;&gt;Node12 -->
<g id="edge11" class="edge"><title>Node1&#45;&gt;Node12</title>
<path fill="none" stroke="midnightblue" d="M712.743,-174.625C597.81,-169.564 356.064,-156.158 327,-132 313.599,-120.861 309.347,-100.831 308.141,-85.9401"/>
<polygon fill="midnightblue" stroke="midnightblue" points="311.632,-85.63 307.713,-75.7866 304.638,-85.9254 311.632,-85.63"/>
</g>
<!-- Node13 -->
<g id="node13" class="node"><title>Node13</title>
<g id="a_node13"><a xlink:href="integrate__sd__cuda_8hpp.html" target="_top" xlink:title="integrate_sd_cuda.hpp">
<polygon fill="none" stroke="black" points="514.5,-56.5 514.5,-75.5 641.5,-75.5 641.5,-56.5 514.5,-56.5"/>
<text text-anchor="middle" x="578" y="-63.5" font-family="Helvetica,sans-Serif" font-size="10.00">integrate_sd_cuda.hpp</text>
</a>
</g>
</g>
<!-- Node1&#45;&gt;Node13 -->
<g id="edge12" class="edge"><title>Node1&#45;&gt;Node13</title>
<path fill="none" stroke="midnightblue" d="M757.699,-168.368C723.881,-149.292 642.567,-103.422 601.941,-80.5054"/>
<polygon fill="midnightblue" stroke="midnightblue" points="603.66,-77.4563 593.23,-75.5914 600.22,-83.5531 603.66,-77.4563"/>
</g>
<!-- Node14 -->
<g id="node14" class="node"><title>Node14</title>
<g id="a_node14"><a xlink:href="integrate__sd_8hpp.html" target="_top" xlink:title="Stokes dynamics integrator. ">
<polygon fill="none" stroke="black" points="692,-0.5 692,-19.5 790,-19.5 790,-0.5 692,-0.5"/>
<text text-anchor="middle" x="741" y="-7.5" font-family="Helvetica,sans-Serif" font-size="10.00">integrate_sd.hpp</text>
</a>
</g>
</g>
<!-- Node1&#45;&gt;Node14 -->
<g id="edge23" class="edge"><title>Node1&#45;&gt;Node14</title>
<path fill="none" stroke="midnightblue" d="M768.94,-168.299C763.442,-155.122 755.455,-129.763 766,-112 783.056,-83.268 814.944,-104.732 832,-76 836.537,-68.3565 836.69,-63.551 832,-56 822.283,-40.3554 805.338,-29.9849 788.684,-23.1896"/>
<polygon fill="midnightblue" stroke="midnightblue" points="789.561,-19.7823 778.968,-19.5889 787.129,-26.346 789.561,-19.7823"/>
</g>
<!-- Node15 -->
<g id="node15" class="node"><title>Node15</title>
<g id="a_node15"><a xlink:href="integrate__sd__cuda__debug_8hpp.html" target="_top" xlink:title="integrate_sd_cuda_debug.hpp">
<polygon fill="none" stroke="black" points="336,-112.5 336,-131.5 498,-131.5 498,-112.5 336,-112.5"/>
<text text-anchor="middle" x="417" y="-119.5" font-family="Helvetica,sans-Serif" font-size="10.00">integrate_sd_cuda_debug.hpp</text>
</a>
</g>
</g>
<!-- Node1&#45;&gt;Node15 -->
<g id="edge14" class="edge"><title>Node1&#45;&gt;Node15</title>
<path fill="none" stroke="midnightblue" d="M716.591,-168.444C653.185,-158.826 550.352,-143.228 483.196,-133.041"/>
<polygon fill="midnightblue" stroke="midnightblue" points="483.557,-129.556 473.145,-131.516 482.507,-136.477 483.557,-129.556"/>
</g>
<!-- Node18 -->
<g id="node18" class="node"><title>Node18</title>
<g id="a_node18"><a xlink:href="integrate__sd__cuda__kernel_8hpp.html" target="_top" xlink:title="integrate_sd_cuda_kernel.hpp">
<polygon fill="none" stroke="black" points="659.5,-56.5 659.5,-75.5 822.5,-75.5 822.5,-56.5 659.5,-56.5"/>
<text text-anchor="middle" x="741" y="-63.5" font-family="Helvetica,sans-Serif" font-size="10.00">integrate_sd_cuda_kernel.hpp</text>
</a>
</g>
</g>
<!-- Node1&#45;&gt;Node18 -->
<g id="edge21" class="edge"><title>Node1&#45;&gt;Node18</title>
<path fill="none" stroke="midnightblue" d="M761.734,-168.427C752.034,-160.275 738.721,-147.046 733,-132 727.318,-117.055 730.292,-98.9153 734.127,-85.6005"/>
<polygon fill="midnightblue" stroke="midnightblue" points="737.575,-86.3199 737.38,-75.7268 730.927,-84.1295 737.575,-86.3199"/>
</g>
<!-- Node19 -->
<g id="node19" class="node"><title>Node19</title>
<polygon fill="none" stroke="#bfbfbf" points="1239,-112.5 1239,-131.5 1313,-131.5 1313,-112.5 1239,-112.5"/>
<text text-anchor="middle" x="1276" y="-119.5" font-family="Helvetica,sans-Serif" font-size="10.00">cublas_v2.h</text>
</g>
<!-- Node1&#45;&gt;Node19 -->
<g id="edge24" class="edge"><title>Node1&#45;&gt;Node19</title>
<path fill="none" stroke="midnightblue" d="M833.107,-172.912C918.731,-166.683 1080.92,-153.389 1228.73,-132.057"/>
<polygon fill="midnightblue" stroke="midnightblue" points="1229.51,-135.481 1238.89,-130.574 1228.49,-128.554 1229.51,-135.481"/>
</g>
<!-- Node20 -->
<g id="node20" class="node"><title>Node20</title>
<g id="a_node20"><a xlink:href="global_8hpp.html" target="_top" xlink:title="This file contains the code for access to globally defined variables using the script command setmd...">
<polygon fill="none" stroke="black" points="1331,-112.5 1331,-131.5 1399,-131.5 1399,-112.5 1331,-112.5"/>
<text text-anchor="middle" x="1365" y="-119.5" font-family="Helvetica,sans-Serif" font-size="10.00">global.hpp</text>
</a>
</g>
</g>
<!-- Node1&#45;&gt;Node20 -->
<g id="edge25" class="edge"><title>Node1&#45;&gt;Node20</title>
<path fill="none" stroke="midnightblue" d="M833.392,-174.512C932.957,-169.871 1137.92,-158.042 1320.73,-132.01"/>
<polygon fill="midnightblue" stroke="midnightblue" points="1321.4,-135.45 1330.8,-130.559 1320.4,-128.522 1321.4,-135.45"/>
</g>
<!-- Node3 -->
<g id="node3" class="node"><title>Node3</title>
<g id="a_node3"><a xlink:href="acconfig_8hpp.html" target="_top" xlink:title="acconfig.hpp">
<polygon fill="none" stroke="black" points="0,-0.5 0,-19.5 78,-19.5 78,-0.5 0,-0.5"/>
<text text-anchor="middle" x="39" y="-7.5" font-family="Helvetica,sans-Serif" font-size="10.00">acconfig.hpp</text>
</a>
</g>
</g>
<!-- Node2&#45;&gt;Node3 -->
<g id="edge2" class="edge"><title>Node2&#45;&gt;Node3</title>
<path fill="none" stroke="midnightblue" d="M132.166,-56.324C114.284,-47.6247 86.5249,-34.1202 65.9544,-24.113"/>
<polygon fill="midnightblue" stroke="midnightblue" points="67.3133,-20.8819 56.7898,-19.6545 64.251,-27.1765 67.3133,-20.8819"/>
</g>
<!-- Node4 -->
<g id="node4" class="node"><title>Node4</title>
<g id="a_node4"><a xlink:href="myconfig-final_8hpp.html" target="_top" xlink:title="myconfig&#45;final.hpp">
<polygon fill="none" stroke="black" points="96.5,-0.5 96.5,-19.5 203.5,-19.5 203.5,-0.5 96.5,-0.5"/>
<text text-anchor="middle" x="150" y="-7.5" font-family="Helvetica,sans-Serif" font-size="10.00">myconfig&#45;final.hpp</text>
</a>
</g>
</g>
<!-- Node2&#45;&gt;Node4 -->
<g id="edge3" class="edge"><title>Node2&#45;&gt;Node4</title>
<path fill="none" stroke="midnightblue" d="M150,-56.083C150,-49.0059 150,-38.8611 150,-29.9865"/>
<polygon fill="midnightblue" stroke="midnightblue" points="153.5,-29.751 150,-19.7511 146.5,-29.7511 153.5,-29.751"/>
</g>
<!-- Node5 -->
<g id="node5" class="node"><title>Node5</title>
<g id="a_node5"><a xlink:href="config-features_8hpp.html" target="_top" xlink:title="config&#45;features.hpp">
<polygon fill="none" stroke="black" points="221.5,-0.5 221.5,-19.5 332.5,-19.5 332.5,-0.5 221.5,-0.5"/>
<text text-anchor="middle" x="277" y="-7.5" font-family="Helvetica,sans-Serif" font-size="10.00">config&#45;features.hpp</text>
</a>
</g>
</g>
<!-- Node2&#45;&gt;Node5 -->
<g id="edge4" class="edge"><title>Node2&#45;&gt;Node5</title>
<path fill="none" stroke="midnightblue" d="M170.124,-56.4435C191.024,-47.5566 223.935,-33.5632 247.716,-23.4514"/>
<polygon fill="midnightblue" stroke="midnightblue" points="249.138,-26.6504 256.971,-19.5164 246.398,-20.2085 249.138,-26.6504"/>
</g>
<!-- Node13&#45;&gt;Node14 -->
<g id="edge13" class="edge"><title>Node13&#45;&gt;Node14</title>
<path fill="none" stroke="midnightblue" d="M603.828,-56.4435C631.249,-47.3591 674.777,-32.9388 705.432,-22.7831"/>
<polygon fill="midnightblue" stroke="midnightblue" points="706.901,-25.9837 715.293,-19.5164 704.7,-19.3389 706.901,-25.9837"/>
</g>
<!-- Node15&#45;&gt;Node2 -->
<g id="edge15" class="edge"><title>Node15&#45;&gt;Node2</title>
<path fill="none" stroke="midnightblue" d="M374.037,-112.476C331.043,-103.922 262.729,-90.2659 193.945,-76.181"/>
<polygon fill="midnightblue" stroke="midnightblue" points="194.295,-72.6801 183.796,-74.1004 192.889,-79.5375 194.295,-72.6801"/>
</g>
<!-- Node15&#45;&gt;Node7 -->
<g id="edge18" class="edge"><title>Node15&#45;&gt;Node7</title>
<path fill="none" stroke="midnightblue" d="M387.686,-112.444C356.158,-103.241 305.869,-88.5617 271.014,-78.3879"/>
<polygon fill="midnightblue" stroke="midnightblue" points="271.757,-74.9587 261.177,-75.5164 269.795,-81.6783 271.757,-74.9587"/>
</g>
<!-- Node15&#45;&gt;Node12 -->
<g id="edge17" class="edge"><title>Node15&#45;&gt;Node12</title>
<path fill="none" stroke="midnightblue" d="M399.487,-112.324C381.928,-103.625 354.669,-90.1202 334.469,-80.113"/>
<polygon fill="midnightblue" stroke="midnightblue" points="335.984,-76.9575 325.469,-75.6545 332.876,-83.23 335.984,-76.9575"/>
</g>
<!-- Node15&#45;&gt;Node13 -->
<g id="edge20" class="edge"><title>Node15&#45;&gt;Node13</title>
<path fill="none" stroke="midnightblue" d="M442.511,-112.444C469.596,-103.359 512.59,-88.9388 542.869,-78.7831"/>
<polygon fill="midnightblue" stroke="midnightblue" points="544.24,-82.0148 552.608,-75.5164 542.014,-75.3781 544.24,-82.0148"/>
</g>
<!-- Node16 -->
<g id="node16" class="node"><title>Node16</title>
<polygon fill="none" stroke="#bfbfbf" points="354,-56.5 354,-75.5 422,-75.5 422,-56.5 354,-56.5"/>
<text text-anchor="middle" x="388" y="-63.5" font-family="Helvetica,sans-Serif" font-size="10.00">sys/time.h</text>
</g>
<!-- Node15&#45;&gt;Node16 -->
<g id="edge16" class="edge"><title>Node15&#45;&gt;Node16</title>
<path fill="none" stroke="midnightblue" d="M412.211,-112.083C408.242,-104.691 402.475,-93.9533 397.565,-84.8111"/>
<polygon fill="midnightblue" stroke="midnightblue" points="400.514,-82.9051 392.7,-75.7511 394.347,-86.217 400.514,-82.9051"/>
</g>
<!-- Node17 -->
<g id="node17" class="node"><title>Node17</title>
<polygon fill="none" stroke="#bfbfbf" points="440,-56.5 440,-75.5 496,-75.5 496,-56.5 440,-56.5"/>
<text text-anchor="middle" x="468" y="-63.5" font-family="Helvetica,sans-Serif" font-size="10.00">iomanip</text>
</g>
<!-- Node15&#45;&gt;Node17 -->
<g id="edge19" class="edge"><title>Node15&#45;&gt;Node17</title>
<path fill="none" stroke="midnightblue" d="M425.422,-112.083C432.848,-104.22 443.852,-92.5688 452.812,-83.0813"/>
<polygon fill="midnightblue" stroke="midnightblue" points="455.413,-85.4244 459.735,-75.7511 450.324,-80.618 455.413,-85.4244"/>
</g>
<!-- Node18&#45;&gt;Node14 -->
<g id="edge22" class="edge"><title>Node18&#45;&gt;Node14</title>
<path fill="none" stroke="midnightblue" d="M741,-56.083C741,-49.0059 741,-38.8611 741,-29.9865"/>
<polygon fill="midnightblue" stroke="midnightblue" points="744.5,-29.751 741,-19.7511 737.5,-29.7511 744.5,-29.751"/>
</g>
</g>
</svg>
        <g id="navigator" transform="translate(0 0)" fill="#404254">
                <rect fill="#f2f5e9" fill-opacity="0.5" stroke="#606060" stroke-width=".5" x="0" y="0" width="60" height="60"/>
                <use id="zoomplus" xlink:href="#zoomPlus" x="17" y="9" onmousedown="handleZoom(evt,'in')"/>
                <use id="zoomminus" xlink:href="#zoomMin" x="42" y="9" onmousedown="handleZoom(evt,'out')"/>
                <use id="reset" xlink:href="#resetDef" x="30" y="36" onmousedown="handleReset()"/>
                <g id="arrowUp" xlink:href="#dirArrow" transform="translate(30 24)" onmousedown="handlePan(0,-1)">
                  <use xlink:href="#rim" fill="#404040">
                        <set attributeName="fill" to="#808080" begin="arrowUp.mouseover" end="arrowUp.mouseout"/>
                  </use>
                  <path fill="none" stroke="white" stroke-width="1.5" d="M0,-3.0v7 M-2.5,-0.5L0,-3.0L2.5,-0.5"/>
                </g>
                <g id="arrowRight" xlink:href="#dirArrow" transform="rotate(90) translate(36 -43)" onmousedown="handlePan(1,0)">
                  <use xlink:href="#rim" fill="#404040">
                        <set attributeName="fill" to="#808080" begin="arrowRight.mouseover" end="arrowRight.mouseout"/>
                  </use>
                  <path fill="none" stroke="white" stroke-width="1.5" d="M0,-3.0v7 M-2.5,-0.5L0,-3.0L2.5,-0.5"/>
                </g>
                <g id="arrowDown" xlink:href="#dirArrow" transform="rotate(180) translate(-30 -48)" onmousedown="handlePan(0,1)">
                  <use xlink:href="#rim" fill="#404040">
                        <set attributeName="fill" to="#808080" begin="arrowDown.mouseover" end="arrowDown.mouseout"/>
                  </use>
                  <path fill="none" stroke="white" stroke-width="1.5" d="M0,-3.0v7 M-2.5,-0.5L0,-3.0L2.5,-0.5"/>
                </g>
                <g id="arrowLeft" xlink:href="#dirArrow" transform="rotate(270) translate(-36 17)" onmousedown="handlePan(-1,0)">
                  <use xlink:href="#rim" fill="#404040">
                        <set attributeName="fill" to="#808080" begin="arrowLeft.mouseover" end="arrowLeft.mouseout"/>
                  </use>
                  <path fill="none" stroke="white" stroke-width="1.5" d="M0,-3.0v7 M-2.5,-0.5L0,-3.0L2.5,-0.5"/>
                </g>
        </g>
        <svg viewBox="0 0 15 15" width="100%" height="30px" preserveAspectRatio="xMaxYMin meet">
         <g id="arrow_out" transform="scale(0.3 0.3)">
          <a xlink:href="integrate__sd__cuda_8cu__incl_org.svg" target="_base">
           <rect id="button" ry="5" rx="5" y="6" x="6" height="38" width="38"
                fill="#f2f5e9" fill-opacity="0.5" stroke="#606060" stroke-width="1.0"/>
           <path id="arrow"
             d="M 11.500037,31.436501 C 11.940474,20.09759 22.043105,11.32322 32.158766,21.979434 L 37.068811,17.246167 C 37.068811,17.246167 37.088388,32 37.088388,32 L 22.160133,31.978069 C 22.160133,31.978069 26.997745,27.140456 26.997745,27.140456 C 18.528582,18.264221 13.291696,25.230495 11.500037,31.436501 z"
             style="fill:#404040;"/>
          </a>
         </g>
        </svg>
</svg>
