<?xml version="1.0" encoding="UTF-8" standalone="no"?>
<!DOCTYPE svg PUBLIC "-//W3C//DTD SVG 1.1//EN"
 "http://www.w3.org/Graphics/SVG/1.1/DTD/svg11.dtd">
<!-- Generated by graphviz version 2.38.0 (20140413.2041)
 -->
<!-- Title: lattice_inline.hpp Pages: 1 -->
<svg width="1010pt" height="476pt"
 viewBox="0.00 0.00 1010.00 476.00" xmlns="http://www.w3.org/2000/svg" xmlns:xlink="http://www.w3.org/1999/xlink">
<g id="graph0" class="graph" transform="scale(1 1) rotate(0) translate(4 472)">
<title>lattice_inline.hpp</title>
<!-- Node1 -->
<g id="node1" class="node"><title>Node1</title>
<polygon fill="#bfbfbf" stroke="black" points="279.5,-448.5 279.5,-467.5 380.5,-467.5 380.5,-448.5 279.5,-448.5"/>
<text text-anchor="middle" x="330" y="-455.5" font-family="Helvetica,sans-Serif" font-size="10.00">lattice_inline.hpp</text>
</g>
<!-- Node2 -->
<g id="node2" class="node"><title>Node2</title>
<g id="a_node2"><a xlink:href="lattice_8hpp.html" target="_top" xlink:title="Lattice class definition Contains the lattice layout and pointers to the data fields. ">
<polygon fill="none" stroke="black" points="296,-392.5 296,-411.5 364,-411.5 364,-392.5 296,-392.5"/>
<text text-anchor="middle" x="330" y="-399.5" font-family="Helvetica,sans-Serif" font-size="10.00">lattice.hpp</text>
</a>
</g>
</g>
<!-- Node1&#45;&gt;Node2 -->
<g id="edge1" class="edge"><title>Node1&#45;&gt;Node2</title>
<path fill="none" stroke="midnightblue" d="M330,-448.083C330,-441.006 330,-430.861 330,-421.986"/>
<polygon fill="midnightblue" stroke="midnightblue" points="333.5,-421.751 330,-411.751 326.5,-421.751 333.5,-421.751"/>
</g>
<!-- Node3 -->
<g id="node3" class="node"><title>Node3</title>
<g id="a_node3"><a xlink:href="grid_8hpp.html" target="_top" xlink:title="Domain decomposition for parallel computing. ">
<polygon fill="none" stroke="black" points="379,-336.5 379,-355.5 435,-355.5 435,-336.5 379,-336.5"/>
<text text-anchor="middle" x="407" y="-343.5" font-family="Helvetica,sans-Serif" font-size="10.00">grid.hpp</text>
</a>
</g>
</g>
<!-- Node2&#45;&gt;Node3 -->
<g id="edge2" class="edge"><title>Node2&#45;&gt;Node3</title>
<path fill="none" stroke="midnightblue" d="M342.371,-392.324C354.158,-384.058 372.132,-371.453 386.136,-361.632"/>
<polygon fill="midnightblue" stroke="midnightblue" points="388.482,-364.262 394.659,-355.655 384.462,-358.531 388.482,-364.262"/>
</g>
<!-- Node23 -->
<g id="node23" class="node"><title>Node23</title>
<g id="a_node23"><a xlink:href="particle__data_8hpp.html" target="_top" xlink:title="For more information on particle_data, see particle_data.c. ">
<polygon fill="none" stroke="black" points="206.5,-224.5 206.5,-243.5 307.5,-243.5 307.5,-224.5 206.5,-224.5"/>
<text text-anchor="middle" x="257" y="-231.5" font-family="Helvetica,sans-Serif" font-size="10.00">particle_data.hpp</text>
</a>
</g>
</g>
<!-- Node2&#45;&gt;Node23 -->
<g id="edge39" class="edge"><title>Node2&#45;&gt;Node23</title>
<path fill="none" stroke="midnightblue" d="M324.123,-392.486C312.709,-375.59 287.4,-336.309 273,-300 267.035,-284.96 262.826,-267.055 260.227,-253.849"/>
<polygon fill="midnightblue" stroke="midnightblue" points="263.602,-252.847 258.354,-243.643 256.717,-254.111 263.602,-252.847"/>
</g>
<!-- Node4 -->
<g id="node4" class="node"><title>Node4</title>
<g id="a_node4"><a xlink:href="utils_8hpp.html" target="_top" xlink:title="Small functions that are useful not only for one modul. ">
<polygon fill="none" stroke="black" points="469.5,-168.5 469.5,-187.5 528.5,-187.5 528.5,-168.5 469.5,-168.5"/>
<text text-anchor="middle" x="499" y="-175.5" font-family="Helvetica,sans-Serif" font-size="10.00">utils.hpp</text>
</a>
</g>
</g>
<!-- Node3&#45;&gt;Node4 -->
<g id="edge3" class="edge"><title>Node3&#45;&gt;Node4</title>
<path fill="none" stroke="midnightblue" d="M429.473,-336.482C462.087,-322.728 521.229,-292.195 545,-244 554.165,-225.418 536.832,-206.314 520.887,-193.67"/>
<polygon fill="midnightblue" stroke="midnightblue" points="522.938,-190.833 512.822,-187.683 518.765,-196.454 522.938,-190.833"/>
</g>
<!-- Node15 -->
<g id="node15" class="node"><title>Node15</title>
<g id="a_node15"><a xlink:href="errorhandling_8hpp.html" target="_top" xlink:title="This file contains the errorhandling code for severe errors, like a broken bond or illegal parameter ...">
<polygon fill="none" stroke="black" points="854.5,-112.5 854.5,-131.5 957.5,-131.5 957.5,-112.5 854.5,-112.5"/>
<text text-anchor="middle" x="906" y="-119.5" font-family="Helvetica,sans-Serif" font-size="10.00">errorhandling.hpp</text>
</a>
</g>
</g>
<!-- Node3&#45;&gt;Node15 -->
<g id="edge38" class="edge"><title>Node3&#45;&gt;Node15</title>
<path fill="none" stroke="midnightblue" d="M429.861,-336.4C452.985,-327.602 489.689,-313.365 521,-300 656.833,-242.019 816.395,-166.123 878.931,-136.069"/>
<polygon fill="midnightblue" stroke="midnightblue" points="880.623,-139.139 888.116,-131.648 877.588,-132.831 880.623,-139.139"/>
</g>
<!-- Node21 -->
<g id="node21" class="node"><title>Node21</title>
<polygon fill="none" stroke="#bfbfbf" points="282,-280.5 282,-299.5 332,-299.5 332,-280.5 282,-280.5"/>
<text text-anchor="middle" x="307" y="-287.5" font-family="Helvetica,sans-Serif" font-size="10.00">climits</text>
</g>
<!-- Node3&#45;&gt;Node21 -->
<g id="edge23" class="edge"><title>Node3&#45;&gt;Node21</title>
<path fill="none" stroke="midnightblue" d="M390.933,-336.324C375.042,-327.743 350.493,-314.486 332.042,-304.522"/>
<polygon fill="midnightblue" stroke="midnightblue" points="333.489,-301.326 323.027,-299.655 330.163,-307.486 333.489,-301.326"/>
</g>
<!-- Node22 -->
<g id="node22" class="node"><title>Node22</title>
<g id="a_node22"><a xlink:href="communication_8hpp.html" target="_top" xlink:title="This file contains the asynchronous MPI communication. ">
<polygon fill="none" stroke="black" points="350.5,-280.5 350.5,-299.5 463.5,-299.5 463.5,-280.5 350.5,-280.5"/>
<text text-anchor="middle" x="407" y="-287.5" font-family="Helvetica,sans-Serif" font-size="10.00">communication.hpp</text>
</a>
</g>
</g>
<!-- Node3&#45;&gt;Node22 -->
<g id="edge24" class="edge"><title>Node3&#45;&gt;Node22</title>
<path fill="none" stroke="midnightblue" d="M407,-336.083C407,-329.006 407,-318.861 407,-309.986"/>
<polygon fill="midnightblue" stroke="midnightblue" points="410.5,-309.751 407,-299.751 403.5,-309.751 410.5,-309.751"/>
</g>
<!-- Node5 -->
<g id="node5" class="node"><title>Node5</title>
<polygon fill="none" stroke="#bfbfbf" points="410.5,-112.5 410.5,-131.5 457.5,-131.5 457.5,-112.5 410.5,-112.5"/>
<text text-anchor="middle" x="434" y="-119.5" font-family="Helvetica,sans-Serif" font-size="10.00">cmath</text>
</g>
<!-- Node4&#45;&gt;Node5 -->
<g id="edge4" class="edge"><title>Node4&#45;&gt;Node5</title>
<path fill="none" stroke="midnightblue" d="M488.557,-168.324C478.854,-160.263 464.185,-148.077 452.5,-138.369"/>
<polygon fill="midnightblue" stroke="midnightblue" points="454.562,-135.532 444.633,-131.834 450.089,-140.916 454.562,-135.532"/>
</g>
<!-- Node6 -->
<g id="node6" class="node"><title>Node6</title>
<polygon fill="none" stroke="#bfbfbf" points="476,-112.5 476,-131.5 522,-131.5 522,-112.5 476,-112.5"/>
<text text-anchor="middle" x="499" y="-119.5" font-family="Helvetica,sans-Serif" font-size="10.00">cstdio</text>
</g>
<!-- Node4&#45;&gt;Node6 -->
<g id="edge5" class="edge"><title>Node4&#45;&gt;Node6</title>
<path fill="none" stroke="midnightblue" d="M499,-168.083C499,-161.006 499,-150.861 499,-141.986"/>
<polygon fill="midnightblue" stroke="midnightblue" points="502.5,-141.751 499,-131.751 495.5,-141.751 502.5,-141.751"/>
</g>
<!-- Node7 -->
<g id="node7" class="node"><title>Node7</title>
<polygon fill="none" stroke="#bfbfbf" points="540.5,-112.5 540.5,-131.5 589.5,-131.5 589.5,-112.5 540.5,-112.5"/>
<text text-anchor="middle" x="565" y="-119.5" font-family="Helvetica,sans-Serif" font-size="10.00">cstdlib</text>
</g>
<!-- Node4&#45;&gt;Node7 -->
<g id="edge6" class="edge"><title>Node4&#45;&gt;Node7</title>
<path fill="none" stroke="midnightblue" d="M509.604,-168.324C519.456,-160.263 534.351,-148.077 546.215,-138.369"/>
<polygon fill="midnightblue" stroke="midnightblue" points="548.68,-140.875 554.203,-131.834 544.247,-135.457 548.68,-140.875"/>
</g>
<!-- Node8 -->
<g id="node8" class="node"><title>Node8</title>
<polygon fill="none" stroke="#bfbfbf" points="259,-112.5 259,-131.5 309,-131.5 309,-112.5 259,-112.5"/>
<text text-anchor="middle" x="284" y="-119.5" font-family="Helvetica,sans-Serif" font-size="10.00">cstring</text>
</g>
<!-- Node4&#45;&gt;Node8 -->
<g id="edge7" class="edge"><title>Node4&#45;&gt;Node8</title>
<path fill="none" stroke="midnightblue" d="M469.496,-169.81C435.531,-161.501 377.818,-147.285 319.059,-132.245"/>
<polygon fill="midnightblue" stroke="midnightblue" points="319.796,-128.821 309.24,-129.726 318.057,-135.601 319.796,-128.821"/>
</g>
<!-- Node9 -->
<g id="node9" class="node"><title>Node9</title>
<g id="a_node9"><a xlink:href="config_8hpp.html" target="_top" xlink:title="This file contains the defaults for Espresso. ">
<polygon fill="none" stroke="black" points="646.5,-56.5 646.5,-75.5 713.5,-75.5 713.5,-56.5 646.5,-56.5"/>
<text text-anchor="middle" x="680" y="-63.5" font-family="Helvetica,sans-Serif" font-size="10.00">config.hpp</text>
</a>
</g>
</g>
<!-- Node4&#45;&gt;Node9 -->
<g id="edge8" class="edge"><title>Node4&#45;&gt;Node9</title>
<path fill="none" stroke="midnightblue" d="M522.475,-168.396C543.293,-160.316 574.161,-147.214 599,-132 622.611,-117.538 647.042,-97.0379 662.813,-82.9471"/>
<polygon fill="midnightblue" stroke="midnightblue" points="665.571,-85.1701 670.623,-75.8573 660.866,-79.9869 665.571,-85.1701"/>
</g>
<!-- Node13 -->
<g id="node13" class="node"><title>Node13</title>
<g id="a_node13"><a xlink:href="debug_8hpp.html" target="_top" xlink:title="This file controls debug facilities. ">
<polygon fill="none" stroke="black" points="646,-112.5 646,-131.5 714,-131.5 714,-112.5 646,-112.5"/>
<text text-anchor="middle" x="680" y="-119.5" font-family="Helvetica,sans-Serif" font-size="10.00">debug.hpp</text>
</a>
</g>
</g>
<!-- Node4&#45;&gt;Node13 -->
<g id="edge12" class="edge"><title>Node4&#45;&gt;Node13</title>
<path fill="none" stroke="midnightblue" d="M527.68,-168.444C558.527,-159.241 607.728,-144.562 641.829,-134.388"/>
<polygon fill="midnightblue" stroke="midnightblue" points="642.872,-137.729 651.454,-131.516 640.871,-131.021 642.872,-137.729"/>
</g>
<!-- Node14 -->
<g id="node14" class="node"><title>Node14</title>
<g id="a_node14"><a xlink:href="lees__edwards_8hpp.html" target="_top" xlink:title="lees_edwards.hpp">
<polygon fill="none" stroke="black" points="732,-112.5 732,-131.5 836,-131.5 836,-112.5 732,-112.5"/>
<text text-anchor="middle" x="784" y="-119.5" font-family="Helvetica,sans-Serif" font-size="10.00">lees_edwards.hpp</text>
</a>
</g>
</g>
<!-- Node4&#45;&gt;Node14 -->
<g id="edge14" class="edge"><title>Node4&#45;&gt;Node14</title>
<path fill="none" stroke="midnightblue" d="M528.693,-171.374C575.999,-162.411 669.214,-144.749 728.967,-133.427"/>
<polygon fill="midnightblue" stroke="midnightblue" points="729.813,-136.829 738.987,-131.529 728.51,-129.952 729.813,-136.829"/>
</g>
<!-- Node4&#45;&gt;Node15 -->
<g id="edge16" class="edge"><title>Node4&#45;&gt;Node15</title>
<path fill="none" stroke="midnightblue" d="M528.644,-173.319C586.91,-166.045 720.698,-149.16 844.398,-132.062"/>
<polygon fill="midnightblue" stroke="midnightblue" points="844.999,-135.513 854.424,-130.673 844.038,-128.579 844.999,-135.513"/>
</g>
<!-- Node19 -->
<g id="node19" class="node"><title>Node19</title>
<polygon fill="none" stroke="#bfbfbf" points="193.5,-112.5 193.5,-131.5 240.5,-131.5 240.5,-112.5 193.5,-112.5"/>
<text text-anchor="middle" x="217" y="-119.5" font-family="Helvetica,sans-Serif" font-size="10.00">vector</text>
</g>
<!-- Node4&#45;&gt;Node19 -->
<g id="edge21" class="edge"><title>Node4&#45;&gt;Node19</title>
<path fill="none" stroke="midnightblue" d="M469.317,-172.497C424.207,-165.468 335.523,-150.922 250.538,-131.952"/>
<polygon fill="midnightblue" stroke="midnightblue" points="251.256,-128.526 240.731,-129.739 249.715,-135.354 251.256,-128.526"/>
</g>
<!-- Node20 -->
<g id="node20" class="node"><title>Node20</title>
<polygon fill="none" stroke="#bfbfbf" points="327.5,-112.5 327.5,-131.5 392.5,-131.5 392.5,-112.5 327.5,-112.5"/>
<text text-anchor="middle" x="360" y="-119.5" font-family="Helvetica,sans-Serif" font-size="10.00">exception</text>
</g>
<!-- Node4&#45;&gt;Node20 -->
<g id="edge22" class="edge"><title>Node4&#45;&gt;Node20</title>
<path fill="none" stroke="midnightblue" d="M476.975,-168.444C453.896,-159.478 417.438,-145.314 391.359,-135.183"/>
<polygon fill="midnightblue" stroke="midnightblue" points="392.511,-131.875 381.922,-131.516 389.976,-138.4 392.511,-131.875"/>
</g>
<!-- Node10 -->
<g id="node10" class="node"><title>Node10</title>
<g id="a_node10"><a xlink:href="acconfig_8hpp.html" target="_top" xlink:title="acconfig.hpp">
<polygon fill="none" stroke="black" points="530,-0.5 530,-19.5 608,-19.5 608,-0.5 530,-0.5"/>
<text text-anchor="middle" x="569" y="-7.5" font-family="Helvetica,sans-Serif" font-size="10.00">acconfig.hpp</text>
</a>
</g>
</g>
<!-- Node9&#45;&gt;Node10 -->
<g id="edge9" class="edge"><title>Node9&#45;&gt;Node10</title>
<path fill="none" stroke="midnightblue" d="M662.166,-56.324C644.284,-47.6247 616.525,-34.1202 595.954,-24.113"/>
<polygon fill="midnightblue" stroke="midnightblue" points="597.313,-20.8819 586.79,-19.6545 594.251,-27.1765 597.313,-20.8819"/>
</g>
<!-- Node11 -->
<g id="node11" class="node"><title>Node11</title>
<g id="a_node11"><a xlink:href="myconfig-final_8hpp.html" target="_top" xlink:title="myconfig&#45;final.hpp">
<polygon fill="none" stroke="black" points="626.5,-0.5 626.5,-19.5 733.5,-19.5 733.5,-0.5 626.5,-0.5"/>
<text text-anchor="middle" x="680" y="-7.5" font-family="Helvetica,sans-Serif" font-size="10.00">myconfig&#45;final.hpp</text>
</a>
</g>
</g>
<!-- Node9&#45;&gt;Node11 -->
<g id="edge10" class="edge"><title>Node9&#45;&gt;Node11</title>
<path fill="none" stroke="midnightblue" d="M680,-56.083C680,-49.0059 680,-38.8611 680,-29.9865"/>
<polygon fill="midnightblue" stroke="midnightblue" points="683.5,-29.751 680,-19.7511 676.5,-29.7511 683.5,-29.751"/>
</g>
<!-- Node12 -->
<g id="node12" class="node"><title>Node12</title>
<g id="a_node12"><a xlink:href="config-features_8hpp.html" target="_top" xlink:title="config&#45;features.hpp">
<polygon fill="none" stroke="black" points="751.5,-0.5 751.5,-19.5 862.5,-19.5 862.5,-0.5 751.5,-0.5"/>
<text text-anchor="middle" x="807" y="-7.5" font-family="Helvetica,sans-Serif" font-size="10.00">config&#45;features.hpp</text>
</a>
</g>
</g>
<!-- Node9&#45;&gt;Node12 -->
<g id="edge11" class="edge"><title>Node9&#45;&gt;Node12</title>
<path fill="none" stroke="midnightblue" d="M700.124,-56.4435C721.024,-47.5566 753.935,-33.5632 777.716,-23.4514"/>
<polygon fill="midnightblue" stroke="midnightblue" points="779.138,-26.6504 786.971,-19.5164 776.398,-20.2085 779.138,-26.6504"/>
</g>
<!-- Node13&#45;&gt;Node9 -->
<g id="edge13" class="edge"><title>Node13&#45;&gt;Node9</title>
<path fill="none" stroke="midnightblue" d="M680,-112.083C680,-105.006 680,-94.8611 680,-85.9865"/>
<polygon fill="midnightblue" stroke="midnightblue" points="683.5,-85.751 680,-75.7511 676.5,-85.7511 683.5,-85.751"/>
</g>
<!-- Node14&#45;&gt;Node9 -->
<g id="edge15" class="edge"><title>Node14&#45;&gt;Node9</title>
<path fill="none" stroke="midnightblue" d="M767.291,-112.324C750.688,-103.703 724.998,-90.3643 705.78,-80.3855"/>
<polygon fill="midnightblue" stroke="midnightblue" points="707.156,-77.1565 696.668,-75.6545 703.93,-83.3689 707.156,-77.1565"/>
</g>
<!-- Node15&#45;&gt;Node9 -->
<g id="edge17" class="edge"><title>Node15&#45;&gt;Node9</title>
<path fill="none" stroke="midnightblue" d="M870.19,-112.444C830.436,-102.945 766.269,-87.6129 723.617,-77.4217"/>
<polygon fill="midnightblue" stroke="midnightblue" points="724.337,-73.9953 713.797,-75.0755 722.71,-80.8037 724.337,-73.9953"/>
</g>
<!-- Node16 -->
<g id="node16" class="node"><title>Node16</title>
<polygon fill="none" stroke="#bfbfbf" points="884,-56.5 884,-75.5 928,-75.5 928,-56.5 884,-56.5"/>
<text text-anchor="middle" x="906" y="-63.5" font-family="Helvetica,sans-Serif" font-size="10.00">string</text>
</g>
<!-- Node15&#45;&gt;Node16 -->
<g id="edge18" class="edge"><title>Node15&#45;&gt;Node16</title>
<path fill="none" stroke="midnightblue" d="M906,-112.083C906,-105.006 906,-94.8611 906,-85.9865"/>
<polygon fill="midnightblue" stroke="midnightblue" points="909.5,-85.751 906,-75.7511 902.5,-85.7511 909.5,-85.751"/>
</g>
<!-- Node17 -->
<g id="node17" class="node"><title>Node17</title>
<polygon fill="none" stroke="#bfbfbf" points="946,-56.5 946,-75.5 1002,-75.5 1002,-56.5 946,-56.5"/>
<text text-anchor="middle" x="974" y="-63.5" font-family="Helvetica,sans-Serif" font-size="10.00">sstream</text>
</g>
<!-- Node15&#45;&gt;Node17 -->
<g id="edge19" class="edge"><title>Node15&#45;&gt;Node17</title>
<path fill="none" stroke="midnightblue" d="M916.925,-112.324C927.175,-104.185 942.721,-91.8395 955.001,-82.0874"/>
<polygon fill="midnightblue" stroke="midnightblue" points="957.221,-84.7937 962.876,-75.8339 952.868,-79.3119 957.221,-84.7937"/>
</g>
<!-- Node18 -->
<g id="node18" class="node"><title>Node18</title>
<polygon fill="none" stroke="#bfbfbf" points="834,-56.5 834,-75.5 866,-75.5 866,-56.5 834,-56.5"/>
<text text-anchor="middle" x="850" y="-63.5" font-family="Helvetica,sans-Serif" font-size="10.00">list</text>
</g>
<!-- Node15&#45;&gt;Node18 -->
<g id="edge20" class="edge"><title>Node15&#45;&gt;Node18</title>
<path fill="none" stroke="midnightblue" d="M897.003,-112.324C888.806,-104.42 876.494,-92.5482 866.528,-82.9377"/>
<polygon fill="midnightblue" stroke="midnightblue" points="868.789,-80.2558 859.161,-75.8339 863.93,-85.2947 868.789,-80.2558"/>
</g>
<!-- Node22&#45;&gt;Node23 -->
<g id="edge25" class="edge"><title>Node22&#45;&gt;Node23</title>
<path fill="none" stroke="midnightblue" d="M383.232,-280.444C358.107,-271.399 318.289,-257.064 290.1,-246.916"/>
<polygon fill="midnightblue" stroke="midnightblue" points="291.251,-243.611 280.657,-243.516 288.88,-250.197 291.251,-243.611"/>
</g>
<!-- Node24 -->
<g id="node24" class="node"><title>Node24</title>
<g id="a_node24"><a xlink:href="random_8hpp.html" target="_top" xlink:title="A random generator. ">
<polygon fill="none" stroke="black" points="461.5,-224.5 461.5,-243.5 536.5,-243.5 536.5,-224.5 461.5,-224.5"/>
<text text-anchor="middle" x="499" y="-231.5" font-family="Helvetica,sans-Serif" font-size="10.00">random.hpp</text>
</a>
</g>
</g>
<!-- Node22&#45;&gt;Node24 -->
<g id="edge27" class="edge"><title>Node22&#45;&gt;Node24</title>
<path fill="none" stroke="midnightblue" d="M421.781,-280.324C436.267,-271.822 458.573,-258.729 475.493,-248.797"/>
<polygon fill="midnightblue" stroke="midnightblue" points="477.403,-251.735 484.255,-243.655 473.859,-245.698 477.403,-251.735"/>
</g>
<!-- Node25 -->
<g id="node25" class="node"><title>Node25</title>
<g id="a_node25"><a xlink:href="topology_8hpp.html" target="_top" xlink:title="This file contains functions for handling the system topology. ">
<polygon fill="none" stroke="black" points="364.5,-224.5 364.5,-243.5 443.5,-243.5 443.5,-224.5 364.5,-224.5"/>
<text text-anchor="middle" x="404" y="-231.5" font-family="Helvetica,sans-Serif" font-size="10.00">topology.hpp</text>
</a>
</g>
</g>
<!-- Node22&#45;&gt;Node25 -->
<g id="edge29" class="edge"><title>Node22&#45;&gt;Node25</title>
<path fill="none" stroke="midnightblue" d="M406.505,-280.083C406.111,-273.006 405.548,-262.861 405.055,-253.986"/>
<polygon fill="midnightblue" stroke="midnightblue" points="408.536,-253.542 404.486,-243.751 401.546,-253.93 408.536,-253.542"/>
</g>
<!-- Node26 -->
<g id="node26" class="node"><title>Node26</title>
<g id="a_node26"><a xlink:href="mpi_8h.html" target="_top" xlink:title="This is the MPIfake implementation. ">
<polygon fill="none" stroke="black" points="109,-224.5 109,-243.5 153,-243.5 153,-224.5 109,-224.5"/>
<text text-anchor="middle" x="131" y="-231.5" font-family="Helvetica,sans-Serif" font-size="10.00">mpi.h</text>
</a>
</g>
</g>
<!-- Node22&#45;&gt;Node26 -->
<g id="edge31" class="edge"><title>Node22&#45;&gt;Node26</title>
<path fill="none" stroke="midnightblue" d="M363.267,-280.444C307.497,-269.532 212.383,-250.923 162.952,-241.251"/>
<polygon fill="midnightblue" stroke="midnightblue" points="163.614,-237.815 153.128,-239.329 162.27,-244.684 163.614,-237.815"/>
</g>
<!-- Node30 -->
<g id="node30" class="node"><title>Node30</title>
<g id="a_node30"><a xlink:href="cuda__init_8hpp.html" target="_top" xlink:title="cuda_init.hpp">
<polygon fill="none" stroke="black" points="211,-168.5 211,-187.5 293,-187.5 293,-168.5 211,-168.5"/>
<text text-anchor="middle" x="252" y="-175.5" font-family="Helvetica,sans-Serif" font-size="10.00">cuda_init.hpp</text>
</a>
</g>
</g>
<!-- Node22&#45;&gt;Node30 -->
<g id="edge35" class="edge"><title>Node22&#45;&gt;Node30</title>
<path fill="none" stroke="midnightblue" d="M394.95,-280.35C377.547,-267.867 344.354,-244.094 316,-224 301.554,-213.762 285.225,-202.282 272.676,-193.48"/>
<polygon fill="midnightblue" stroke="midnightblue" points="274.486,-190.474 264.288,-187.6 270.468,-196.206 274.486,-190.474"/>
</g>
<!-- Node23&#45;&gt;Node4 -->
<g id="edge26" class="edge"><title>Node23&#45;&gt;Node4</title>
<path fill="none" stroke="midnightblue" d="M295.346,-224.444C340.199,-214.435 414.079,-197.949 459.446,-187.826"/>
<polygon fill="midnightblue" stroke="midnightblue" points="460.228,-191.238 469.226,-185.644 458.703,-184.406 460.228,-191.238"/>
</g>
<!-- Node24&#45;&gt;Node4 -->
<g id="edge28" class="edge"><title>Node24&#45;&gt;Node4</title>
<path fill="none" stroke="midnightblue" d="M499,-224.083C499,-217.006 499,-206.861 499,-197.986"/>
<polygon fill="midnightblue" stroke="midnightblue" points="502.5,-197.751 499,-187.751 495.5,-197.751 502.5,-197.751"/>
</g>
<!-- Node25&#45;&gt;Node4 -->
<g id="edge30" class="edge"><title>Node25&#45;&gt;Node4</title>
<path fill="none" stroke="midnightblue" d="M419.263,-224.324C434.221,-215.822 457.255,-202.729 474.727,-192.797"/>
<polygon fill="midnightblue" stroke="midnightblue" points="476.81,-195.639 483.774,-187.655 473.351,-189.553 476.81,-195.639"/>
</g>
<!-- Node27 -->
<g id="node27" class="node"><title>Node27</title>
<polygon fill="none" stroke="#bfbfbf" points="139.5,-168.5 139.5,-187.5 192.5,-187.5 192.5,-168.5 139.5,-168.5"/>
<text text-anchor="middle" x="166" y="-175.5" font-family="Helvetica,sans-Serif" font-size="10.00">string.h</text>
</g>
<!-- Node26&#45;&gt;Node27 -->
<g id="edge32" class="edge"><title>Node26&#45;&gt;Node27</title>
<path fill="none" stroke="midnightblue" d="M136.78,-224.083C141.672,-216.534 148.827,-205.495 154.833,-196.23"/>
<polygon fill="midnightblue" stroke="midnightblue" points="157.826,-198.046 160.328,-187.751 151.952,-194.239 157.826,-198.046"/>
</g>
<!-- Node28 -->
<g id="node28" class="node"><title>Node28</title>
<polygon fill="none" stroke="#bfbfbf" points="0,-168.5 0,-187.5 50,-187.5 50,-168.5 0,-168.5"/>
<text text-anchor="middle" x="25" y="-175.5" font-family="Helvetica,sans-Serif" font-size="10.00">stdio.h</text>
</g>
<!-- Node26&#45;&gt;Node28 -->
<g id="edge33" class="edge"><title>Node26&#45;&gt;Node28</title>
<path fill="none" stroke="midnightblue" d="M113.969,-224.324C96.9702,-215.664 70.6239,-202.242 51.0074,-192.249"/>
<polygon fill="midnightblue" stroke="midnightblue" points="52.4876,-189.075 41.9885,-187.655 49.3101,-195.312 52.4876,-189.075"/>
</g>
<!-- Node29 -->
<g id="node29" class="node"><title>Node29</title>
<polygon fill="none" stroke="#bfbfbf" points="68.5,-168.5 68.5,-187.5 121.5,-187.5 121.5,-168.5 68.5,-168.5"/>
<text text-anchor="middle" x="95" y="-175.5" font-family="Helvetica,sans-Serif" font-size="10.00">stdlib.h</text>
</g>
<!-- Node26&#45;&gt;Node29 -->
<g id="edge34" class="edge"><title>Node26&#45;&gt;Node29</title>
<path fill="none" stroke="midnightblue" d="M125.055,-224.083C120.023,-216.534 112.663,-205.495 106.487,-196.23"/>
<polygon fill="midnightblue" stroke="midnightblue" points="109.293,-194.13 100.834,-187.751 103.469,-198.013 109.293,-194.13"/>
</g>
<!-- Node30&#45;&gt;Node9 -->
<g id="edge36" class="edge"><title>Node30&#45;&gt;Node9</title>
<path fill="none" stroke="midnightblue" d="M231,-168.348C204.475,-156.246 164.505,-133.344 184,-112 214.217,-78.9171 520.673,-69.9061 636.226,-67.6745"/>
<polygon fill="midnightblue" stroke="midnightblue" points="636.542,-71.1694 646.476,-67.4848 636.413,-64.1706 636.542,-71.1694"/>
</g>
<!-- Node30&#45;&gt;Node19 -->
<g id="edge37" class="edge"><title>Node30&#45;&gt;Node19</title>
<path fill="none" stroke="midnightblue" d="M246.22,-168.083C241.328,-160.534 234.173,-149.495 228.167,-140.23"/>
<polygon fill="midnightblue" stroke="midnightblue" points="231.048,-138.239 222.672,-131.751 225.174,-142.046 231.048,-138.239"/>
</g>
</g>
</svg>
