<?xml version="1.0" encoding="UTF-8" standalone="no"?>
<!DOCTYPE svg PUBLIC "-//W3C//DTD SVG 1.1//EN"
 "http://www.w3.org/Graphics/SVG/1.1/DTD/svg11.dtd">
<!-- Generated by graphviz version 2.38.0 (20140413.2041)
 -->
<!-- Title: lb&#45;boundaries.cpp Pages: 1 -->
<svg width="993pt" height="599pt"
 viewBox="0.00 0.00 992.83 599.00" xmlns="http://www.w3.org/2000/svg" xmlns:xlink="http://www.w3.org/1999/xlink">
<g id="graph0" class="graph" transform="scale(1 1) rotate(0) translate(4 595)">
<title>lb&#45;boundaries.cpp</title>
<!-- Node1 -->
<g id="node1" class="node"><title>Node1</title>
<polygon fill="#bfbfbf" stroke="black" points="230,-571.5 230,-590.5 334,-590.5 334,-571.5 230,-571.5"/>
<text text-anchor="middle" x="282" y="-578.5" font-family="Helvetica,sans-Serif" font-size="10.00">lb&#45;boundaries.cpp</text>
</g>
<!-- Node2 -->
<g id="node2" class="node"><title>Node2</title>
<g id="a_node2"><a xlink:href="utils_8hpp.html" target="_top" xlink:title="Small functions that are useful not only for one modul. ">
<polygon fill="none" stroke="black" points="405.5,-168.5 405.5,-187.5 464.5,-187.5 464.5,-168.5 405.5,-168.5"/>
<text text-anchor="middle" x="435" y="-175.5" font-family="Helvetica,sans-Serif" font-size="10.00">utils.hpp</text>
</a>
</g>
</g>
<!-- Node1&#45;&gt;Node2 -->
<g id="edge1" class="edge"><title>Node1&#45;&gt;Node2</title>
<path fill="none" stroke="midnightblue" d="M334.399,-578.22C461.536,-572.482 776,-549.175 776,-459 776,-459 776,-459 776,-289 776,-257.366 772.237,-243.074 747,-224 704.918,-192.195 549.302,-182.773 474.997,-180.059"/>
<polygon fill="midnightblue" stroke="midnightblue" points="474.761,-176.549 464.648,-179.705 474.522,-183.545 474.761,-176.549"/>
</g>
<!-- Node19 -->
<g id="node19" class="node"><title>Node19</title>
<g id="a_node19"><a xlink:href="constraint_8hpp.html" target="_top" xlink:title="Routines for handling of constraints. ">
<polygon fill="none" stroke="black" points="348,-336.5 348,-355.5 434,-355.5 434,-336.5 348,-336.5"/>
<text text-anchor="middle" x="391" y="-343.5" font-family="Helvetica,sans-Serif" font-size="10.00">constraint.hpp</text>
</a>
</g>
</g>
<!-- Node1&#45;&gt;Node19 -->
<g id="edge21" class="edge"><title>Node1&#45;&gt;Node19</title>
<path fill="none" stroke="midnightblue" d="M286.009,-571.431C301.863,-537.541 360.396,-412.42 382.486,-365.2"/>
<polygon fill="midnightblue" stroke="midnightblue" points="385.771,-366.437 386.838,-355.896 379.431,-363.471 385.771,-366.437"/>
</g>
<!-- Node21 -->
<g id="node21" class="node"><title>Node21</title>
<g id="a_node21"><a xlink:href="interaction__data_8hpp.html" target="_top" xlink:title="Various procedures concerning interactions between particles. ">
<polygon fill="none" stroke="black" points="277.5,-280.5 277.5,-299.5 394.5,-299.5 394.5,-280.5 277.5,-280.5"/>
<text text-anchor="middle" x="336" y="-287.5" font-family="Helvetica,sans-Serif" font-size="10.00">interaction_data.hpp</text>
</a>
</g>
</g>
<!-- Node1&#45;&gt;Node21 -->
<g id="edge67" class="edge"><title>Node1&#45;&gt;Node21</title>
<path fill="none" stroke="midnightblue" d="M282,-571.491C282,-551.736 282,-501.224 282,-459 282,-459 282,-459 282,-401 282,-364.863 305.775,-328.252 321.774,-307.706"/>
<polygon fill="midnightblue" stroke="midnightblue" points="324.689,-309.668 328.263,-299.694 319.249,-305.262 324.689,-309.668"/>
</g>
<!-- Node22 -->
<g id="node22" class="node"><title>Node22</title>
<g id="a_node22"><a xlink:href="lb-boundaries_8hpp.html" target="_top" xlink:title="Boundary conditions for Lattice Boltzmann fluid dynamics. ">
<polygon fill="none" stroke="black" points="150,-392.5 150,-411.5 254,-411.5 254,-392.5 150,-392.5"/>
<text text-anchor="middle" x="202" y="-399.5" font-family="Helvetica,sans-Serif" font-size="10.00">lb&#45;boundaries.hpp</text>
</a>
</g>
</g>
<!-- Node1&#45;&gt;Node22 -->
<g id="edge27" class="edge"><title>Node1&#45;&gt;Node22</title>
<path fill="none" stroke="midnightblue" d="M278.141,-571.463C265.817,-544.195 227.213,-458.783 210.196,-421.133"/>
<polygon fill="midnightblue" stroke="midnightblue" points="213.316,-419.539 206.008,-411.868 206.938,-422.422 213.316,-419.539"/>
</g>
<!-- Node23 -->
<g id="node23" class="node"><title>Node23</title>
<g id="a_node23"><a xlink:href="lbgpu_8hpp.html" target="_top" xlink:title="Header file for lbgpu.cpp. ">
<polygon fill="none" stroke="black" points="104.5,-280.5 104.5,-299.5 169.5,-299.5 169.5,-280.5 104.5,-280.5"/>
<text text-anchor="middle" x="137" y="-287.5" font-family="Helvetica,sans-Serif" font-size="10.00">lbgpu.hpp</text>
</a>
</g>
</g>
<!-- Node1&#45;&gt;Node23 -->
<g id="edge30" class="edge"><title>Node1&#45;&gt;Node23</title>
<path fill="none" stroke="midnightblue" d="M229.885,-575.964C171.348,-570.364 81.3257,-558.195 57,-535 31.8017,-510.973 38,-493.817 38,-459 38,-459 38,-459 38,-401 38,-357.183 81.9362,-322.928 111.27,-304.941"/>
<polygon fill="midnightblue" stroke="midnightblue" points="113.363,-307.77 120.206,-299.682 109.813,-301.738 113.363,-307.77"/>
</g>
<!-- Node25 -->
<g id="node25" class="node"><title>Node25</title>
<g id="a_node25"><a xlink:href="lb_8hpp.html" target="_top" xlink:title="Header file for lb.cpp. ">
<polygon fill="none" stroke="black" points="393.5,-510 393.5,-529 440.5,-529 440.5,-510 393.5,-510"/>
<text text-anchor="middle" x="417" y="-517" font-family="Helvetica,sans-Serif" font-size="10.00">lb.hpp</text>
</a>
</g>
</g>
<!-- Node1&#45;&gt;Node25 -->
<g id="edge39" class="edge"><title>Node1&#45;&gt;Node25</title>
<path fill="none" stroke="midnightblue" d="M301.342,-571.475C324.099,-561.445 362.092,-544.7 388.288,-533.155"/>
<polygon fill="midnightblue" stroke="midnightblue" points="389.955,-536.245 397.694,-529.009 387.131,-529.839 389.955,-536.245"/>
</g>
<!-- Node30 -->
<g id="node30" class="node"><title>Node30</title>
<g id="a_node30"><a xlink:href="communication_8hpp.html" target="_top" xlink:title="This file contains the asynchronous MPI communication. ">
<polygon fill="none" stroke="black" points="634.5,-280.5 634.5,-299.5 747.5,-299.5 747.5,-280.5 634.5,-280.5"/>
<text text-anchor="middle" x="691" y="-287.5" font-family="Helvetica,sans-Serif" font-size="10.00">communication.hpp</text>
</a>
</g>
</g>
<!-- Node1&#45;&gt;Node30 -->
<g id="edge68" class="edge"><title>Node1&#45;&gt;Node30</title>
<path fill="none" stroke="midnightblue" d="M334.193,-574.73C439.827,-562.615 669,-528.339 669,-459 669,-459 669,-459 669,-401 669,-368.328 678.447,-331.24 684.96,-309.553"/>
<polygon fill="midnightblue" stroke="midnightblue" points="688.391,-310.31 688.033,-299.721 681.709,-308.222 688.391,-310.31"/>
</g>
<!-- Node38 -->
<g id="node38" class="node"><title>Node38</title>
<g id="a_node38"><a xlink:href="electrokinetics_8hpp.html" target="_top" xlink:title="electrokinetics.hpp">
<polygon fill="none" stroke="black" points="86,-448.5 86,-467.5 196,-467.5 196,-448.5 86,-448.5"/>
<text text-anchor="middle" x="141" y="-455.5" font-family="Helvetica,sans-Serif" font-size="10.00">electrokinetics.hpp</text>
</a>
</g>
</g>
<!-- Node1&#45;&gt;Node38 -->
<g id="edge62" class="edge"><title>Node1&#45;&gt;Node38</title>
<path fill="none" stroke="midnightblue" d="M271.86,-571.298C248.181,-550.978 188.994,-500.186 159.011,-474.457"/>
<polygon fill="midnightblue" stroke="midnightblue" points="160.917,-471.479 151.048,-467.623 156.358,-476.792 160.917,-471.479"/>
</g>
<!-- Node39 -->
<g id="node39" class="node"><title>Node39</title>
<g id="a_node39"><a xlink:href="electrokinetics__pdb__parse_8hpp.html" target="_top" xlink:title="electrokinetics_pdb\l_parse.hpp">
<polygon fill="none" stroke="black" points="66,-504.5 66,-534.5 178,-534.5 178,-504.5 66,-504.5"/>
<text text-anchor="start" x="74" y="-522.5" font-family="Helvetica,sans-Serif" font-size="10.00">electrokinetics_pdb</text>
<text text-anchor="middle" x="122" y="-511.5" font-family="Helvetica,sans-Serif" font-size="10.00">_parse.hpp</text>
</a>
</g>
</g>
<!-- Node1&#45;&gt;Node39 -->
<g id="edge65" class="edge"><title>Node1&#45;&gt;Node39</title>
<path fill="none" stroke="midnightblue" d="M259.076,-571.475C235.786,-562.814 199.03,-549.145 169.439,-538.141"/>
<polygon fill="midnightblue" stroke="midnightblue" points="170.302,-534.728 159.709,-534.523 167.862,-541.289 170.302,-534.728"/>
</g>
<!-- Node3 -->
<g id="node3" class="node"><title>Node3</title>
<polygon fill="none" stroke="#bfbfbf" points="171.5,-112.5 171.5,-131.5 218.5,-131.5 218.5,-112.5 171.5,-112.5"/>
<text text-anchor="middle" x="195" y="-119.5" font-family="Helvetica,sans-Serif" font-size="10.00">cmath</text>
</g>
<!-- Node2&#45;&gt;Node3 -->
<g id="edge2" class="edge"><title>Node2&#45;&gt;Node3</title>
<path fill="none" stroke="midnightblue" d="M405.409,-171.073C366.943,-163.259 297.473,-148.773 228.483,-132.017"/>
<polygon fill="midnightblue" stroke="midnightblue" points="229.3,-128.613 218.755,-129.638 227.637,-135.413 229.3,-128.613"/>
</g>
<!-- Node4 -->
<g id="node4" class="node"><title>Node4</title>
<polygon fill="none" stroke="#bfbfbf" points="237,-112.5 237,-131.5 283,-131.5 283,-112.5 237,-112.5"/>
<text text-anchor="middle" x="260" y="-119.5" font-family="Helvetica,sans-Serif" font-size="10.00">cstdio</text>
</g>
<!-- Node2&#45;&gt;Node4 -->
<g id="edge3" class="edge"><title>Node2&#45;&gt;Node4</title>
<path fill="none" stroke="midnightblue" d="M407.271,-168.444C376.177,-158.849 325.794,-143.302 292.777,-133.114"/>
<polygon fill="midnightblue" stroke="midnightblue" points="293.716,-129.741 283.129,-130.137 291.652,-136.43 293.716,-129.741"/>
</g>
<!-- Node5 -->
<g id="node5" class="node"><title>Node5</title>
<polygon fill="none" stroke="#bfbfbf" points="104.5,-112.5 104.5,-131.5 153.5,-131.5 153.5,-112.5 104.5,-112.5"/>
<text text-anchor="middle" x="129" y="-119.5" font-family="Helvetica,sans-Serif" font-size="10.00">cstdlib</text>
</g>
<!-- Node2&#45;&gt;Node5 -->
<g id="edge4" class="edge"><title>Node2&#45;&gt;Node5</title>
<path fill="none" stroke="midnightblue" d="M405.32,-173.128C356.698,-166.565 256.89,-152.176 163.668,-132.199"/>
<polygon fill="midnightblue" stroke="midnightblue" points="164.313,-128.758 153.799,-130.057 162.829,-135.598 164.313,-128.758"/>
</g>
<!-- Node6 -->
<g id="node6" class="node"><title>Node6</title>
<polygon fill="none" stroke="#bfbfbf" points="385,-112.5 385,-131.5 435,-131.5 435,-112.5 385,-112.5"/>
<text text-anchor="middle" x="410" y="-119.5" font-family="Helvetica,sans-Serif" font-size="10.00">cstring</text>
</g>
<!-- Node2&#45;&gt;Node6 -->
<g id="edge5" class="edge"><title>Node2&#45;&gt;Node6</title>
<path fill="none" stroke="midnightblue" d="M430.872,-168.083C427.486,-160.77 422.584,-150.181 418.381,-141.103"/>
<polygon fill="midnightblue" stroke="midnightblue" points="421.429,-139.355 414.051,-131.751 415.077,-142.296 421.429,-139.355"/>
</g>
<!-- Node7 -->
<g id="node7" class="node"><title>Node7</title>
<g id="a_node7"><a xlink:href="config_8hpp.html" target="_top" xlink:title="This file contains the defaults for Espresso. ">
<polygon fill="none" stroke="black" points="460.5,-56.5 460.5,-75.5 527.5,-75.5 527.5,-56.5 460.5,-56.5"/>
<text text-anchor="middle" x="494" y="-63.5" font-family="Helvetica,sans-Serif" font-size="10.00">config.hpp</text>
</a>
</g>
</g>
<!-- Node2&#45;&gt;Node7 -->
<g id="edge6" class="edge"><title>Node2&#45;&gt;Node7</title>
<path fill="none" stroke="midnightblue" d="M439.63,-168.368C449.28,-150.376 471.714,-108.55 484.546,-84.6267"/>
<polygon fill="midnightblue" stroke="midnightblue" points="487.75,-86.0582 489.392,-75.5914 481.581,-82.7495 487.75,-86.0582"/>
</g>
<!-- Node11 -->
<g id="node11" class="node"><title>Node11</title>
<g id="a_node11"><a xlink:href="debug_8hpp.html" target="_top" xlink:title="This file controls debug facilities. ">
<polygon fill="none" stroke="black" points="491,-112.5 491,-131.5 559,-131.5 559,-112.5 491,-112.5"/>
<text text-anchor="middle" x="525" y="-119.5" font-family="Helvetica,sans-Serif" font-size="10.00">debug.hpp</text>
</a>
</g>
</g>
<!-- Node2&#45;&gt;Node11 -->
<g id="edge10" class="edge"><title>Node2&#45;&gt;Node11</title>
<path fill="none" stroke="midnightblue" d="M449.46,-168.324C463.5,-159.9 485.048,-146.971 501.543,-137.074"/>
<polygon fill="midnightblue" stroke="midnightblue" points="503.802,-139.801 510.576,-131.655 500.2,-133.798 503.802,-139.801"/>
</g>
<!-- Node12 -->
<g id="node12" class="node"><title>Node12</title>
<g id="a_node12"><a xlink:href="lees__edwards_8hpp.html" target="_top" xlink:title="lees_edwards.hpp">
<polygon fill="none" stroke="black" points="577,-112.5 577,-131.5 681,-131.5 681,-112.5 577,-112.5"/>
<text text-anchor="middle" x="629" y="-119.5" font-family="Helvetica,sans-Serif" font-size="10.00">lees_edwards.hpp</text>
</a>
</g>
</g>
<!-- Node2&#45;&gt;Node12 -->
<g id="edge12" class="edge"><title>Node2&#45;&gt;Node12</title>
<path fill="none" stroke="midnightblue" d="M464.887,-168.681C498.016,-159.459 551.631,-144.536 588.511,-134.27"/>
<polygon fill="midnightblue" stroke="midnightblue" points="589.743,-137.56 598.438,-131.507 587.866,-130.817 589.743,-137.56"/>
</g>
<!-- Node13 -->
<g id="node13" class="node"><title>Node13</title>
<g id="a_node13"><a xlink:href="errorhandling_8hpp.html" target="_top" xlink:title="This file contains the errorhandling code for severe errors, like a broken bond or illegal parameter ...">
<polygon fill="none" stroke="black" points="803.5,-112.5 803.5,-131.5 906.5,-131.5 906.5,-112.5 803.5,-112.5"/>
<text text-anchor="middle" x="855" y="-119.5" font-family="Helvetica,sans-Serif" font-size="10.00">errorhandling.hpp</text>
</a>
</g>
</g>
<!-- Node2&#45;&gt;Node13 -->
<g id="edge14" class="edge"><title>Node2&#45;&gt;Node13</title>
<path fill="none" stroke="midnightblue" d="M464.534,-173.203C532.564,-164.456 701.498,-142.736 793.279,-130.936"/>
<polygon fill="midnightblue" stroke="midnightblue" points="793.794,-134.398 803.266,-129.651 792.902,-127.455 793.794,-134.398"/>
</g>
<!-- Node17 -->
<g id="node17" class="node"><title>Node17</title>
<polygon fill="none" stroke="#bfbfbf" points="699.5,-112.5 699.5,-131.5 746.5,-131.5 746.5,-112.5 699.5,-112.5"/>
<text text-anchor="middle" x="723" y="-119.5" font-family="Helvetica,sans-Serif" font-size="10.00">vector</text>
</g>
<!-- Node2&#45;&gt;Node17 -->
<g id="edge19" class="edge"><title>Node2&#45;&gt;Node17</title>
<path fill="none" stroke="midnightblue" d="M464.624,-172.675C510.616,-165.764 602.14,-151.238 689.471,-131.941"/>
<polygon fill="midnightblue" stroke="midnightblue" points="690.276,-135.347 699.272,-129.75 688.749,-128.516 690.276,-135.347"/>
</g>
<!-- Node18 -->
<g id="node18" class="node"><title>Node18</title>
<polygon fill="none" stroke="#bfbfbf" points="301.5,-112.5 301.5,-131.5 366.5,-131.5 366.5,-112.5 301.5,-112.5"/>
<text text-anchor="middle" x="334" y="-119.5" font-family="Helvetica,sans-Serif" font-size="10.00">exception</text>
</g>
<!-- Node2&#45;&gt;Node18 -->
<g id="edge20" class="edge"><title>Node2&#45;&gt;Node18</title>
<path fill="none" stroke="midnightblue" d="M418.773,-168.324C402.649,-159.703 377.7,-146.364 359.036,-136.386"/>
<polygon fill="midnightblue" stroke="midnightblue" points="360.656,-133.283 350.187,-131.655 357.356,-139.456 360.656,-133.283"/>
</g>
<!-- Node8 -->
<g id="node8" class="node"><title>Node8</title>
<g id="a_node8"><a xlink:href="acconfig_8hpp.html" target="_top" xlink:title="acconfig.hpp">
<polygon fill="none" stroke="black" points="344,-0.5 344,-19.5 422,-19.5 422,-0.5 344,-0.5"/>
<text text-anchor="middle" x="383" y="-7.5" font-family="Helvetica,sans-Serif" font-size="10.00">acconfig.hpp</text>
</a>
</g>
</g>
<!-- Node7&#45;&gt;Node8 -->
<g id="edge7" class="edge"><title>Node7&#45;&gt;Node8</title>
<path fill="none" stroke="midnightblue" d="M476.166,-56.324C458.284,-47.6247 430.525,-34.1202 409.954,-24.113"/>
<polygon fill="midnightblue" stroke="midnightblue" points="411.313,-20.8819 400.79,-19.6545 408.251,-27.1765 411.313,-20.8819"/>
</g>
<!-- Node9 -->
<g id="node9" class="node"><title>Node9</title>
<g id="a_node9"><a xlink:href="myconfig-final_8hpp.html" target="_top" xlink:title="myconfig&#45;final.hpp">
<polygon fill="none" stroke="black" points="440.5,-0.5 440.5,-19.5 547.5,-19.5 547.5,-0.5 440.5,-0.5"/>
<text text-anchor="middle" x="494" y="-7.5" font-family="Helvetica,sans-Serif" font-size="10.00">myconfig&#45;final.hpp</text>
</a>
</g>
</g>
<!-- Node7&#45;&gt;Node9 -->
<g id="edge8" class="edge"><title>Node7&#45;&gt;Node9</title>
<path fill="none" stroke="midnightblue" d="M494,-56.083C494,-49.0059 494,-38.8611 494,-29.9865"/>
<polygon fill="midnightblue" stroke="midnightblue" points="497.5,-29.751 494,-19.7511 490.5,-29.7511 497.5,-29.751"/>
</g>
<!-- Node10 -->
<g id="node10" class="node"><title>Node10</title>
<g id="a_node10"><a xlink:href="config-features_8hpp.html" target="_top" xlink:title="config&#45;features.hpp">
<polygon fill="none" stroke="black" points="565.5,-0.5 565.5,-19.5 676.5,-19.5 676.5,-0.5 565.5,-0.5"/>
<text text-anchor="middle" x="621" y="-7.5" font-family="Helvetica,sans-Serif" font-size="10.00">config&#45;features.hpp</text>
</a>
</g>
</g>
<!-- Node7&#45;&gt;Node10 -->
<g id="edge9" class="edge"><title>Node7&#45;&gt;Node10</title>
<path fill="none" stroke="midnightblue" d="M514.124,-56.4435C535.024,-47.5566 567.935,-33.5632 591.716,-23.4514"/>
<polygon fill="midnightblue" stroke="midnightblue" points="593.138,-26.6504 600.971,-19.5164 590.398,-20.2085 593.138,-26.6504"/>
</g>
<!-- Node11&#45;&gt;Node7 -->
<g id="edge11" class="edge"><title>Node11&#45;&gt;Node7</title>
<path fill="none" stroke="midnightblue" d="M519.881,-112.083C515.592,-104.613 509.342,-93.7244 504.058,-84.5199"/>
<polygon fill="midnightblue" stroke="midnightblue" points="507.038,-82.6811 499.024,-75.7511 500.967,-86.1662 507.038,-82.6811"/>
</g>
<!-- Node12&#45;&gt;Node7 -->
<g id="edge13" class="edge"><title>Node12&#45;&gt;Node7</title>
<path fill="none" stroke="midnightblue" d="M607.609,-112.444C585.293,-103.517 550.097,-89.4387 524.792,-79.3168"/>
<polygon fill="midnightblue" stroke="midnightblue" points="525.876,-75.9807 515.291,-75.5164 523.276,-82.4801 525.876,-75.9807"/>
</g>
<!-- Node13&#45;&gt;Node7 -->
<g id="edge15" class="edge"><title>Node13&#45;&gt;Node7</title>
<path fill="none" stroke="midnightblue" d="M803.278,-113.263C732.029,-102.606 604.925,-83.5926 537.999,-73.5815"/>
<polygon fill="midnightblue" stroke="midnightblue" points="538.2,-70.0728 527.792,-72.0548 537.164,-76.9957 538.2,-70.0728"/>
</g>
<!-- Node14 -->
<g id="node14" class="node"><title>Node14</title>
<polygon fill="none" stroke="#bfbfbf" points="889,-56.5 889,-75.5 933,-75.5 933,-56.5 889,-56.5"/>
<text text-anchor="middle" x="911" y="-63.5" font-family="Helvetica,sans-Serif" font-size="10.00">string</text>
</g>
<!-- Node13&#45;&gt;Node14 -->
<g id="edge16" class="edge"><title>Node13&#45;&gt;Node14</title>
<path fill="none" stroke="midnightblue" d="M863.997,-112.324C872.194,-104.42 884.506,-92.5482 894.472,-82.9377"/>
<polygon fill="midnightblue" stroke="midnightblue" points="897.07,-85.2947 901.839,-75.8339 892.211,-80.2558 897.07,-85.2947"/>
</g>
<!-- Node15 -->
<g id="node15" class="node"><title>Node15</title>
<polygon fill="none" stroke="#bfbfbf" points="765,-56.5 765,-75.5 821,-75.5 821,-56.5 765,-56.5"/>
<text text-anchor="middle" x="793" y="-63.5" font-family="Helvetica,sans-Serif" font-size="10.00">sstream</text>
</g>
<!-- Node13&#45;&gt;Node15 -->
<g id="edge17" class="edge"><title>Node13&#45;&gt;Node15</title>
<path fill="none" stroke="midnightblue" d="M845.039,-112.324C835.873,-104.341 822.063,-92.3128 810.972,-82.6529"/>
<polygon fill="midnightblue" stroke="midnightblue" points="812.982,-79.7624 803.143,-75.8339 808.385,-85.041 812.982,-79.7624"/>
</g>
<!-- Node16 -->
<g id="node16" class="node"><title>Node16</title>
<polygon fill="none" stroke="#bfbfbf" points="839,-56.5 839,-75.5 871,-75.5 871,-56.5 839,-56.5"/>
<text text-anchor="middle" x="855" y="-63.5" font-family="Helvetica,sans-Serif" font-size="10.00">list</text>
</g>
<!-- Node13&#45;&gt;Node16 -->
<g id="edge18" class="edge"><title>Node13&#45;&gt;Node16</title>
<path fill="none" stroke="midnightblue" d="M855,-112.083C855,-105.006 855,-94.8611 855,-85.9865"/>
<polygon fill="midnightblue" stroke="midnightblue" points="858.5,-85.751 855,-75.7511 851.5,-85.7511 858.5,-85.751"/>
</g>
<!-- Node20 -->
<g id="node20" class="node"><title>Node20</title>
<g id="a_node20"><a xlink:href="particle__data_8hpp.html" target="_top" xlink:title="For more information on particle_data, see particle_data.c. ">
<polygon fill="none" stroke="black" points="408.5,-224.5 408.5,-243.5 509.5,-243.5 509.5,-224.5 408.5,-224.5"/>
<text text-anchor="middle" x="459" y="-231.5" font-family="Helvetica,sans-Serif" font-size="10.00">particle_data.hpp</text>
</a>
</g>
</g>
<!-- Node19&#45;&gt;Node20 -->
<g id="edge22" class="edge"><title>Node19&#45;&gt;Node20</title>
<path fill="none" stroke="midnightblue" d="M396.336,-336.368C407.508,-318.296 433.545,-276.176 448.301,-252.307"/>
<polygon fill="midnightblue" stroke="midnightblue" points="451.408,-253.938 453.689,-243.591 445.454,-250.257 451.408,-253.938"/>
</g>
<!-- Node19&#45;&gt;Node21 -->
<g id="edge24" class="edge"><title>Node19&#45;&gt;Node21</title>
<path fill="none" stroke="midnightblue" d="M381.918,-336.083C373.829,-328.141 361.805,-316.335 352.09,-306.797"/>
<polygon fill="midnightblue" stroke="midnightblue" points="354.501,-304.26 344.913,-299.751 349.597,-309.254 354.501,-304.26"/>
</g>
<!-- Node20&#45;&gt;Node2 -->
<g id="edge23" class="edge"><title>Node20&#45;&gt;Node2</title>
<path fill="none" stroke="midnightblue" d="M455.037,-224.083C451.787,-216.77 447.081,-206.181 443.046,-197.103"/>
<polygon fill="midnightblue" stroke="midnightblue" points="446.149,-195.468 438.889,-187.751 439.752,-198.311 446.149,-195.468"/>
</g>
<!-- Node21&#45;&gt;Node2 -->
<g id="edge25" class="edge"><title>Node21&#45;&gt;Node2</title>
<path fill="none" stroke="midnightblue" d="M338.364,-280.137C342.287,-266.748 351.21,-241.115 366,-224 377.321,-210.9 393.365,-200.126 407.134,-192.408"/>
<polygon fill="midnightblue" stroke="midnightblue" points="409.041,-195.358 416.216,-187.562 405.746,-189.182 409.041,-195.358"/>
</g>
<!-- Node21&#45;&gt;Node20 -->
<g id="edge26" class="edge"><title>Node21&#45;&gt;Node20</title>
<path fill="none" stroke="midnightblue" d="M355.49,-280.444C375.642,-271.596 407.323,-257.687 430.331,-247.586"/>
<polygon fill="midnightblue" stroke="midnightblue" points="431.852,-250.741 439.601,-243.516 429.038,-244.332 431.852,-250.741"/>
</g>
<!-- Node22&#45;&gt;Node2 -->
<g id="edge28" class="edge"><title>Node22&#45;&gt;Node2</title>
<path fill="none" stroke="midnightblue" d="M205.138,-392.232C213.047,-371.037 235.512,-316.112 268,-280 306.173,-237.569 366.415,-207.248 403.156,-191.471"/>
<polygon fill="midnightblue" stroke="midnightblue" points="404.541,-194.686 412.41,-187.592 401.834,-188.23 404.541,-194.686"/>
</g>
<!-- Node22&#45;&gt;Node19 -->
<g id="edge29" class="edge"><title>Node22&#45;&gt;Node19</title>
<path fill="none" stroke="midnightblue" d="M231.948,-392.444C264.158,-383.241 315.534,-368.562 351.142,-358.388"/>
<polygon fill="midnightblue" stroke="midnightblue" points="352.539,-361.629 361.192,-355.516 350.616,-354.898 352.539,-361.629"/>
</g>
<!-- Node23&#45;&gt;Node2 -->
<g id="edge31" class="edge"><title>Node23&#45;&gt;Node2</title>
<path fill="none" stroke="midnightblue" d="M152.164,-280.411C179.999,-264.743 238.374,-232.361 260,-224 305.006,-206.6 359.106,-193.863 395.125,-186.468"/>
<polygon fill="midnightblue" stroke="midnightblue" points="396.122,-189.838 405.236,-184.435 394.743,-182.975 396.122,-189.838"/>
</g>
<!-- Node23&#45;&gt;Node7 -->
<g id="edge32" class="edge"><title>Node23&#45;&gt;Node7</title>
<path fill="none" stroke="midnightblue" d="M106.753,-280.488C88.8748,-273.726 67.6997,-262.295 57,-244 35.642,-207.481 -5.27855,-190.105 82,-112 109.058,-87.786 349.6,-73.7795 450.138,-68.9379"/>
<polygon fill="midnightblue" stroke="midnightblue" points="450.447,-72.4273 460.271,-68.4583 450.116,-65.4351 450.447,-72.4273"/>
</g>
<!-- Node24 -->
<g id="node24" class="node"><title>Node24</title>
<g id="a_node24"><a xlink:href="statistics__observable_8hpp.html" target="_top" xlink:title="statistics_observable.hpp">
<polygon fill="none" stroke="black" points="66.5,-224.5 66.5,-243.5 207.5,-243.5 207.5,-224.5 66.5,-224.5"/>
<text text-anchor="middle" x="137" y="-231.5" font-family="Helvetica,sans-Serif" font-size="10.00">statistics_observable.hpp</text>
</a>
</g>
</g>
<!-- Node23&#45;&gt;Node24 -->
<g id="edge33" class="edge"><title>Node23&#45;&gt;Node24</title>
<path fill="none" stroke="midnightblue" d="M137,-280.083C137,-273.006 137,-262.861 137,-253.986"/>
<polygon fill="midnightblue" stroke="midnightblue" points="140.5,-253.751 137,-243.751 133.5,-253.751 140.5,-253.751"/>
</g>
<!-- Node24&#45;&gt;Node2 -->
<g id="edge35" class="edge"><title>Node24&#45;&gt;Node2</title>
<path fill="none" stroke="midnightblue" d="M184.219,-224.444C242.499,-213.883 340.575,-196.111 395.207,-186.211"/>
<polygon fill="midnightblue" stroke="midnightblue" points="395.991,-189.626 405.206,-184.399 394.742,-182.738 395.991,-189.626"/>
</g>
<!-- Node24&#45;&gt;Node3 -->
<g id="edge38" class="edge"><title>Node24&#45;&gt;Node3</title>
<path fill="none" stroke="midnightblue" d="M141.551,-224.368C151.038,-206.376 173.092,-164.55 185.706,-140.627"/>
<polygon fill="midnightblue" stroke="midnightblue" points="188.902,-142.07 190.47,-131.591 182.71,-138.805 188.902,-142.07"/>
</g>
<!-- Node24&#45;&gt;Node4 -->
<g id="edge36" class="edge"><title>Node24&#45;&gt;Node4</title>
<path fill="none" stroke="midnightblue" d="M146.652,-224.368C167.399,-205.814 216.488,-161.913 242.738,-138.438"/>
<polygon fill="midnightblue" stroke="midnightblue" points="245.272,-140.867 250.393,-131.591 240.606,-135.649 245.272,-140.867"/>
</g>
<!-- Node24&#45;&gt;Node5 -->
<g id="edge37" class="edge"><title>Node24&#45;&gt;Node5</title>
<path fill="none" stroke="midnightblue" d="M136.372,-224.368C135.081,-206.617 132.103,-165.666 130.353,-141.597"/>
<polygon fill="midnightblue" stroke="midnightblue" points="133.841,-141.311 129.625,-131.591 126.859,-141.819 133.841,-141.311"/>
</g>
<!-- Node24&#45;&gt;Node7 -->
<g id="edge34" class="edge"><title>Node24&#45;&gt;Node7</title>
<path fill="none" stroke="midnightblue" d="M128.764,-224.238C109.391,-202.578 64.7748,-145.826 95,-112 118.36,-85.8574 351.394,-73.0134 450.145,-68.7109"/>
<polygon fill="midnightblue" stroke="midnightblue" points="450.546,-72.197 460.388,-68.2743 450.248,-65.2034 450.546,-72.197"/>
</g>
<!-- Node25&#45;&gt;Node2 -->
<g id="edge40" class="edge"><title>Node25&#45;&gt;Node2</title>
<path fill="none" stroke="midnightblue" d="M420.512,-509.67C430.589,-483.131 457.938,-401.855 443,-336 432.974,-291.798 409.026,-288.202 399,-244 397.034,-235.331 396.058,-232.388 399,-224 402.785,-213.209 410.367,-203.084 417.6,-195.181"/>
<polygon fill="midnightblue" stroke="midnightblue" points="420.326,-197.4 424.838,-187.815 415.333,-192.494 420.326,-197.4"/>
</g>
<!-- Node25&#45;&gt;Node23 -->
<g id="edge61" class="edge"><title>Node25&#45;&gt;Node23</title>
<path fill="none" stroke="midnightblue" d="M406.579,-509.867C381.779,-489.34 317.271,-436.039 263,-392 225.026,-361.186 180.302,-325.472 155.658,-305.842"/>
<polygon fill="midnightblue" stroke="midnightblue" points="157.825,-303.094 147.822,-299.603 153.465,-308.57 157.825,-303.094"/>
</g>
<!-- Node26 -->
<g id="node26" class="node"><title>Node26</title>
<g id="a_node26"><a xlink:href="lattice__inline_8hpp.html" target="_top" xlink:title="lattice_inline.hpp">
<polygon fill="none" stroke="black" points="490.5,-448.5 490.5,-467.5 591.5,-467.5 591.5,-448.5 490.5,-448.5"/>
<text text-anchor="middle" x="541" y="-455.5" font-family="Helvetica,sans-Serif" font-size="10.00">lattice_inline.hpp</text>
</a>
</g>
</g>
<!-- Node25&#45;&gt;Node26 -->
<g id="edge41" class="edge"><title>Node25&#45;&gt;Node26</title>
<path fill="none" stroke="midnightblue" d="M434.766,-509.975C455.484,-500.034 489.952,-483.495 513.989,-471.961"/>
<polygon fill="midnightblue" stroke="midnightblue" points="515.765,-474.991 523.267,-467.509 512.737,-468.68 515.765,-474.991"/>
</g>
<!-- Node27 -->
<g id="node27" class="node"><title>Node27</title>
<g id="a_node27"><a xlink:href="lattice_8hpp.html" target="_top" xlink:title="Lattice class definition Contains the lattice layout and pointers to the data fields. ">
<polygon fill="none" stroke="black" points="507,-392.5 507,-411.5 575,-411.5 575,-392.5 507,-392.5"/>
<text text-anchor="middle" x="541" y="-399.5" font-family="Helvetica,sans-Serif" font-size="10.00">lattice.hpp</text>
</a>
</g>
</g>
<!-- Node26&#45;&gt;Node27 -->
<g id="edge42" class="edge"><title>Node26&#45;&gt;Node27</title>
<path fill="none" stroke="midnightblue" d="M541,-448.083C541,-441.006 541,-430.861 541,-421.986"/>
<polygon fill="midnightblue" stroke="midnightblue" points="544.5,-421.751 541,-411.751 537.5,-421.751 544.5,-421.751"/>
</g>
<!-- Node27&#45;&gt;Node20 -->
<g id="edge60" class="edge"><title>Node27&#45;&gt;Node20</title>
<path fill="none" stroke="midnightblue" d="M536.591,-392.075C523.572,-365.719 485.12,-287.878 467.724,-252.661"/>
<polygon fill="midnightblue" stroke="midnightblue" points="470.799,-250.984 463.232,-243.568 464.523,-254.084 470.799,-250.984"/>
</g>
<!-- Node28 -->
<g id="node28" class="node"><title>Node28</title>
<g id="a_node28"><a xlink:href="grid_8hpp.html" target="_top" xlink:title="Domain decomposition for parallel computing. ">
<polygon fill="none" stroke="black" points="563,-336.5 563,-355.5 619,-355.5 619,-336.5 563,-336.5"/>
<text text-anchor="middle" x="591" y="-343.5" font-family="Helvetica,sans-Serif" font-size="10.00">grid.hpp</text>
</a>
</g>
</g>
<!-- Node27&#45;&gt;Node28 -->
<g id="edge43" class="edge"><title>Node27&#45;&gt;Node28</title>
<path fill="none" stroke="midnightblue" d="M549.256,-392.083C556.465,-384.298 567.11,-372.801 575.846,-363.367"/>
<polygon fill="midnightblue" stroke="midnightblue" points="578.671,-365.467 582.897,-355.751 573.535,-360.711 578.671,-365.467"/>
</g>
<!-- Node28&#45;&gt;Node2 -->
<g id="edge44" class="edge"><title>Node28&#45;&gt;Node2</title>
<path fill="none" stroke="midnightblue" d="M583.756,-336.36C576.529,-327.53 565.33,-313.269 557,-300 536.814,-267.845 544.539,-251.149 518,-224 504.207,-209.891 485.034,-199.101 468.59,-191.628"/>
<polygon fill="midnightblue" stroke="midnightblue" points="469.853,-188.361 459.285,-187.611 467.079,-194.788 469.853,-188.361"/>
</g>
<!-- Node28&#45;&gt;Node13 -->
<g id="edge59" class="edge"><title>Node28&#45;&gt;Node13</title>
<path fill="none" stroke="midnightblue" d="M619.08,-344.753C696.368,-342.311 911.121,-323.189 981,-188 997.15,-156.756 956.016,-140.14 916.514,-131.556"/>
<polygon fill="midnightblue" stroke="midnightblue" points="917.038,-128.091 906.543,-129.543 915.652,-134.953 917.038,-128.091"/>
</g>
<!-- Node29 -->
<g id="node29" class="node"><title>Node29</title>
<polygon fill="none" stroke="#bfbfbf" points="566,-280.5 566,-299.5 616,-299.5 616,-280.5 566,-280.5"/>
<text text-anchor="middle" x="591" y="-287.5" font-family="Helvetica,sans-Serif" font-size="10.00">climits</text>
</g>
<!-- Node28&#45;&gt;Node29 -->
<g id="edge45" class="edge"><title>Node28&#45;&gt;Node29</title>
<path fill="none" stroke="midnightblue" d="M591,-336.083C591,-329.006 591,-318.861 591,-309.986"/>
<polygon fill="midnightblue" stroke="midnightblue" points="594.5,-309.751 591,-299.751 587.5,-309.751 594.5,-309.751"/>
</g>
<!-- Node28&#45;&gt;Node30 -->
<g id="edge46" class="edge"><title>Node28&#45;&gt;Node30</title>
<path fill="none" stroke="midnightblue" d="M607.067,-336.324C622.958,-327.743 647.507,-314.486 665.958,-304.522"/>
<polygon fill="midnightblue" stroke="midnightblue" points="667.837,-307.486 674.973,-299.655 664.511,-301.326 667.837,-307.486"/>
</g>
<!-- Node30&#45;&gt;Node20 -->
<g id="edge47" class="edge"><title>Node30&#45;&gt;Node20</title>
<path fill="none" stroke="midnightblue" d="M654.239,-280.444C613.937,-271.063 549.191,-255.993 505.415,-245.804"/>
<polygon fill="midnightblue" stroke="midnightblue" points="506.122,-242.375 495.589,-243.516 504.535,-249.192 506.122,-242.375"/>
</g>
<!-- Node31 -->
<g id="node31" class="node"><title>Node31</title>
<g id="a_node31"><a xlink:href="random_8hpp.html" target="_top" xlink:title="A random generator. ">
<polygon fill="none" stroke="black" points="663.5,-224.5 663.5,-243.5 738.5,-243.5 738.5,-224.5 663.5,-224.5"/>
<text text-anchor="middle" x="701" y="-231.5" font-family="Helvetica,sans-Serif" font-size="10.00">random.hpp</text>
</a>
</g>
</g>
<!-- Node30&#45;&gt;Node31 -->
<g id="edge48" class="edge"><title>Node30&#45;&gt;Node31</title>
<path fill="none" stroke="midnightblue" d="M692.651,-280.083C693.976,-272.927 695.882,-262.635 697.539,-253.691"/>
<polygon fill="midnightblue" stroke="midnightblue" points="701,-254.221 699.379,-243.751 694.117,-252.947 701,-254.221"/>
</g>
<!-- Node32 -->
<g id="node32" class="node"><title>Node32</title>
<g id="a_node32"><a xlink:href="topology_8hpp.html" target="_top" xlink:title="This file contains functions for handling the system topology. ">
<polygon fill="none" stroke="black" points="566.5,-224.5 566.5,-243.5 645.5,-243.5 645.5,-224.5 566.5,-224.5"/>
<text text-anchor="middle" x="606" y="-231.5" font-family="Helvetica,sans-Serif" font-size="10.00">topology.hpp</text>
</a>
</g>
</g>
<!-- Node30&#45;&gt;Node32 -->
<g id="edge50" class="edge"><title>Node30&#45;&gt;Node32</title>
<path fill="none" stroke="midnightblue" d="M677.343,-280.324C664.084,-271.9 643.732,-258.971 628.154,-249.074"/>
<polygon fill="midnightblue" stroke="midnightblue" points="629.94,-246.063 619.623,-243.655 626.187,-251.971 629.94,-246.063"/>
</g>
<!-- Node33 -->
<g id="node33" class="node"><title>Node33</title>
<g id="a_node33"><a xlink:href="mpi_8h.html" target="_top" xlink:title="This is the MPIfake implementation. ">
<polygon fill="none" stroke="black" points="849,-224.5 849,-243.5 893,-243.5 893,-224.5 849,-224.5"/>
<text text-anchor="middle" x="871" y="-231.5" font-family="Helvetica,sans-Serif" font-size="10.00">mpi.h</text>
</a>
</g>
</g>
<!-- Node30&#45;&gt;Node33 -->
<g id="edge52" class="edge"><title>Node30&#45;&gt;Node33</title>
<path fill="none" stroke="midnightblue" d="M719.522,-280.444C752.043,-270.687 805.079,-254.776 838.988,-244.604"/>
<polygon fill="midnightblue" stroke="midnightblue" points="840.281,-247.87 848.854,-241.644 838.27,-241.165 840.281,-247.87"/>
</g>
<!-- Node37 -->
<g id="node37" class="node"><title>Node37</title>
<g id="a_node37"><a xlink:href="cuda__init_8hpp.html" target="_top" xlink:title="cuda_init.hpp">
<polygon fill="none" stroke="black" points="678,-168.5 678,-187.5 760,-187.5 760,-168.5 678,-168.5"/>
<text text-anchor="middle" x="719" y="-175.5" font-family="Helvetica,sans-Serif" font-size="10.00">cuda_init.hpp</text>
</a>
</g>
</g>
<!-- Node30&#45;&gt;Node37 -->
<g id="edge56" class="edge"><title>Node30&#45;&gt;Node37</title>
<path fill="none" stroke="midnightblue" d="M708.502,-280.465C721.787,-272.917 739.076,-260.533 747,-244 754.841,-227.639 744.322,-208.528 734.014,-195.281"/>
<polygon fill="midnightblue" stroke="midnightblue" points="736.586,-192.902 727.466,-187.511 731.234,-197.414 736.586,-192.902"/>
</g>
<!-- Node31&#45;&gt;Node2 -->
<g id="edge49" class="edge"><title>Node31&#45;&gt;Node2</title>
<path fill="none" stroke="midnightblue" d="M663.453,-225.378C613.479,-215.233 525.503,-197.373 474.541,-187.027"/>
<polygon fill="midnightblue" stroke="midnightblue" points="475.056,-183.56 464.56,-185.001 473.664,-190.421 475.056,-183.56"/>
</g>
<!-- Node32&#45;&gt;Node2 -->
<g id="edge51" class="edge"><title>Node32&#45;&gt;Node2</title>
<path fill="none" stroke="midnightblue" d="M578.905,-224.444C550.012,-215.32 504.075,-200.813 471.895,-190.651"/>
<polygon fill="midnightblue" stroke="midnightblue" points="472.559,-187.19 461.969,-187.516 470.451,-193.865 472.559,-187.19"/>
</g>
<!-- Node34 -->
<g id="node34" class="node"><title>Node34</title>
<polygon fill="none" stroke="#bfbfbf" points="778.5,-168.5 778.5,-187.5 831.5,-187.5 831.5,-168.5 778.5,-168.5"/>
<text text-anchor="middle" x="805" y="-175.5" font-family="Helvetica,sans-Serif" font-size="10.00">string.h</text>
</g>
<!-- Node33&#45;&gt;Node34 -->
<g id="edge53" class="edge"><title>Node33&#45;&gt;Node34</title>
<path fill="none" stroke="midnightblue" d="M860.396,-224.324C850.544,-216.263 835.649,-204.077 823.785,-194.369"/>
<polygon fill="midnightblue" stroke="midnightblue" points="825.753,-191.457 815.797,-187.834 821.32,-196.875 825.753,-191.457"/>
</g>
<!-- Node35 -->
<g id="node35" class="node"><title>Node35</title>
<polygon fill="none" stroke="#bfbfbf" points="850,-168.5 850,-187.5 900,-187.5 900,-168.5 850,-168.5"/>
<text text-anchor="middle" x="875" y="-175.5" font-family="Helvetica,sans-Serif" font-size="10.00">stdio.h</text>
</g>
<!-- Node33&#45;&gt;Node35 -->
<g id="edge54" class="edge"><title>Node33&#45;&gt;Node35</title>
<path fill="none" stroke="midnightblue" d="M871.661,-224.083C872.185,-217.006 872.936,-206.861 873.594,-197.986"/>
<polygon fill="midnightblue" stroke="midnightblue" points="877.103,-197.982 874.352,-187.751 870.123,-197.465 877.103,-197.982"/>
</g>
<!-- Node36 -->
<g id="node36" class="node"><title>Node36</title>
<polygon fill="none" stroke="#bfbfbf" points="918.5,-168.5 918.5,-187.5 971.5,-187.5 971.5,-168.5 918.5,-168.5"/>
<text text-anchor="middle" x="945" y="-175.5" font-family="Helvetica,sans-Serif" font-size="10.00">stdlib.h</text>
</g>
<!-- Node33&#45;&gt;Node36 -->
<g id="edge55" class="edge"><title>Node33&#45;&gt;Node36</title>
<path fill="none" stroke="midnightblue" d="M882.889,-224.324C894.15,-216.107 911.287,-203.602 924.709,-193.807"/>
<polygon fill="midnightblue" stroke="midnightblue" points="926.88,-196.556 932.894,-187.834 922.753,-190.901 926.88,-196.556"/>
</g>
<!-- Node37&#45;&gt;Node7 -->
<g id="edge57" class="edge"><title>Node37&#45;&gt;Node7</title>
<path fill="none" stroke="midnightblue" d="M730.077,-168.347C745.549,-155.234 770.125,-129.956 755,-112 727.795,-79.7034 605.273,-70.5861 538.213,-68.0124"/>
<polygon fill="midnightblue" stroke="midnightblue" points="538.066,-64.5052 527.95,-67.6529 537.821,-71.5009 538.066,-64.5052"/>
</g>
<!-- Node37&#45;&gt;Node17 -->
<g id="edge58" class="edge"><title>Node37&#45;&gt;Node17</title>
<path fill="none" stroke="midnightblue" d="M719.661,-168.083C720.185,-161.006 720.936,-150.861 721.594,-141.986"/>
<polygon fill="midnightblue" stroke="midnightblue" points="725.103,-141.982 722.352,-131.751 718.123,-141.465 725.103,-141.982"/>
</g>
<!-- Node38&#45;&gt;Node7 -->
<g id="edge63" class="edge"><title>Node38&#45;&gt;Node7</title>
<path fill="none" stroke="midnightblue" d="M125.372,-448.471C88.6607,-427.164 0,-367.76 0,-291 0,-291 0,-291 0,-177 0,-138.282 23.5253,-129.623 58,-112 125.745,-77.3705 353.675,-69.3839 450.212,-67.5468"/>
<polygon fill="midnightblue" stroke="midnightblue" points="450.291,-71.046 460.228,-67.3694 450.167,-64.0471 450.291,-71.046"/>
</g>
<!-- Node38&#45;&gt;Node22 -->
<g id="edge64" class="edge"><title>Node38&#45;&gt;Node22</title>
<path fill="none" stroke="midnightblue" d="M150.801,-448.324C159.818,-440.341 173.406,-428.313 184.318,-418.653"/>
<polygon fill="midnightblue" stroke="midnightblue" points="186.853,-421.083 192.021,-411.834 182.213,-415.842 186.853,-421.083"/>
</g>
<!-- Node39&#45;&gt;Node38 -->
<g id="edge66" class="edge"><title>Node39&#45;&gt;Node38</title>
<path fill="none" stroke="midnightblue" d="M126.503,-504.399C129.093,-496.288 132.376,-486.007 135.162,-477.281"/>
<polygon fill="midnightblue" stroke="midnightblue" points="138.527,-478.249 138.235,-467.658 131.859,-476.119 138.527,-478.249"/>
</g>
</g>
</svg>
