<?xml version="1.0" encoding="UTF-8" standalone="no"?>
<!DOCTYPE svg PUBLIC "-//W3C//DTD SVG 1.1//EN"
 "http://www.w3.org/Graphics/SVG/1.1/DTD/svg11.dtd">
<!-- Generated by graphviz version 2.38.0 (20140413.2041)
 -->
<!-- Title: lb.hpp Pages: 1 -->
<!--zoomable 532 -->
<svg id="main" version="1.1" xmlns="http://www.w3.org/2000/svg" xmlns:xlink="http://www.w3.org/1999/xlink" xml:space="preserve" onload="init(evt)">
<style type="text/css"><![CDATA[
.edge:hover path { stroke: red; }
.edge:hover polygon { stroke: red; fill: red; }
]]></style>
<script type="text/javascript"><![CDATA[
var edges = document.getElementsByTagName('g');
if (edges && edges.length) {
  for (var i=0;i<edges.length;i++) {
    if (edges[i].id.substr(0,4)=='edge') {
      edges[i].setAttribute('class','edge');
    }
  }
}
]]></script>
        <defs>
                <circle id="rim" cx="0" cy="0" r="7"/>
                <circle id="rim2" cx="0" cy="0" r="3.5"/>
                <g id="zoomPlus">
                        <use xlink:href="#rim" fill="#404040">
                                <set attributeName="fill" to="#808080" begin="zoomplus.mouseover" end="zoomplus.mouseout"/>
                        </use>
                        <path d="M-4,0h8M0,-4v8" fill="none" stroke="white" stroke-width="1.5" pointer-events="none"/>
                </g>
                <g id="zoomMin">
                        <use xlink:href="#rim" fill="#404040">
                                <set attributeName="fill" to="#808080" begin="zoomminus.mouseover" end="zoomminus.mouseout"/>
                        </use>
                        <path d="M-4,0h8" fill="none" stroke="white" stroke-width="1.5" pointer-events="none"/>
                </g>
                <g id="dirArrow">
                        <path fill="none" stroke="white" stroke-width="1.5" d="M0,-3.0v7 M-2.5,-0.5L0,-3.0L2.5,-0.5"/>
                </g>
               <g id="resetDef">
                       <use xlink:href="#rim2" fill="#404040">
                               <set attributeName="fill" to="#808080" begin="reset.mouseover" end="reset.mouseout"/>
                       </use>
               </g>
        </defs>

<script type="text/javascript">
var viewWidth = 904;
var viewHeight = 532;
var sectionId = 'dynsection-0';
</script>
<script xlink:href="svgpan.js"/>
<svg id="graph" class="graph">
<g id="viewport">
<title>lb.hpp</title>
<!-- Node1 -->
<g id="node1" class="node"><title>Node1</title>
<polygon fill="#bfbfbf" stroke="black" points="600.363,-504.5 600.363,-523.5 647.363,-523.5 647.363,-504.5 600.363,-504.5"/>
<text text-anchor="middle" x="623.863" y="-511.5" font-family="Helvetica,sans-Serif" font-size="10.00">lb.hpp</text>
</g>
<!-- Node2 -->
<g id="node2" class="node"><title>Node2</title>
<g id="a_node2"><a xlink:href="utils_8hpp.html" target="_top" xlink:title="Small functions that are useful not only for one modul. ">
<polygon fill="none" stroke="black" points="515.363,-168.5 515.363,-187.5 574.363,-187.5 574.363,-168.5 515.363,-168.5"/>
<text text-anchor="middle" x="544.863" y="-175.5" font-family="Helvetica,sans-Serif" font-size="10.00">utils.hpp</text>
</a>
</g>
</g>
<!-- Node1&#45;&gt;Node2 -->
<g id="edge1" class="edge"><title>Node1&#45;&gt;Node2</title>
<path fill="none" stroke="midnightblue" d="M623.863,-504.442C623.863,-485.936 623.863,-440.812 623.863,-403 623.863,-403 623.863,-403 623.863,-289 623.863,-258.775 621.15,-248.794 603.863,-224 595.056,-211.369 581.611,-200.722 569.779,-192.961"/>
<polygon fill="midnightblue" stroke="midnightblue" points="571.49,-189.904 561.148,-187.603 567.798,-195.851 571.49,-189.904"/>
</g>
<!-- Node19 -->
<g id="node19" class="node"><title>Node19</title>
<g id="a_node19"><a xlink:href="lattice__inline_8hpp.html" target="_top" xlink:title="lattice_inline.hpp">
<polygon fill="none" stroke="black" points="494.363,-448.5 494.363,-467.5 595.363,-467.5 595.363,-448.5 494.363,-448.5"/>
<text text-anchor="middle" x="544.863" y="-455.5" font-family="Helvetica,sans-Serif" font-size="10.00">lattice_inline.hpp</text>
</a>
</g>
</g>
<!-- Node1&#45;&gt;Node19 -->
<g id="edge21" class="edge"><title>Node1&#45;&gt;Node19</title>
<path fill="none" stroke="midnightblue" d="M611.17,-504.324C598.962,-495.979 580.285,-483.212 565.86,-473.352"/>
<polygon fill="midnightblue" stroke="midnightblue" points="567.755,-470.408 557.524,-467.655 563.805,-476.187 567.755,-470.408"/>
</g>
<!-- Node32 -->
<g id="node32" class="node"><title>Node32</title>
<g id="a_node32"><a xlink:href="lbgpu_8hpp.html" target="_top" xlink:title="Header file for lbgpu.cpp. ">
<polygon fill="none" stroke="black" points="690.363,-280.5 690.363,-299.5 755.363,-299.5 755.363,-280.5 690.363,-280.5"/>
<text text-anchor="middle" x="722.863" y="-287.5" font-family="Helvetica,sans-Serif" font-size="10.00">lbgpu.hpp</text>
</a>
</g>
</g>
<!-- Node1&#45;&gt;Node32 -->
<g id="edge42" class="edge"><title>Node1&#45;&gt;Node32</title>
<path fill="none" stroke="midnightblue" d="M627.744,-504.297C642.403,-471.425 694.594,-354.391 714.796,-309.09"/>
<polygon fill="midnightblue" stroke="midnightblue" points="718.025,-310.442 718.902,-299.884 711.632,-307.591 718.025,-310.442"/>
</g>
<!-- Node3 -->
<g id="node3" class="node"><title>Node3</title>
<polygon fill="none" stroke="#bfbfbf" points="671.363,-112.5 671.363,-131.5 718.363,-131.5 718.363,-112.5 671.363,-112.5"/>
<text text-anchor="middle" x="694.863" y="-119.5" font-family="Helvetica,sans-Serif" font-size="10.00">cmath</text>
</g>
<!-- Node2&#45;&gt;Node3 -->
<g id="edge2" class="edge"><title>Node2&#45;&gt;Node3</title>
<path fill="none" stroke="midnightblue" d="M568.631,-168.444C593.756,-159.399 633.574,-145.064 661.764,-134.916"/>
<polygon fill="midnightblue" stroke="midnightblue" points="662.983,-138.197 671.206,-131.516 660.612,-131.611 662.983,-138.197"/>
</g>
<!-- Node4 -->
<g id="node4" class="node"><title>Node4</title>
<polygon fill="none" stroke="#bfbfbf" points="736.863,-112.5 736.863,-131.5 782.863,-131.5 782.863,-112.5 736.863,-112.5"/>
<text text-anchor="middle" x="759.863" y="-119.5" font-family="Helvetica,sans-Serif" font-size="10.00">cstdio</text>
</g>
<!-- Node2&#45;&gt;Node4 -->
<g id="edge3" class="edge"><title>Node2&#45;&gt;Node4</title>
<path fill="none" stroke="midnightblue" d="M574.551,-169.89C610.624,-161.197 673.31,-145.921 726.863,-132 726.964,-131.974 727.065,-131.948 727.165,-131.921"/>
<polygon fill="midnightblue" stroke="midnightblue" points="728.035,-135.312 736.803,-129.364 726.24,-128.546 728.035,-135.312"/>
</g>
<!-- Node5 -->
<g id="node5" class="node"><title>Node5</title>
<polygon fill="none" stroke="#bfbfbf" points="801.363,-112.5 801.363,-131.5 850.363,-131.5 850.363,-112.5 801.363,-112.5"/>
<text text-anchor="middle" x="825.863" y="-119.5" font-family="Helvetica,sans-Serif" font-size="10.00">cstdlib</text>
</g>
<!-- Node2&#45;&gt;Node5 -->
<g id="edge4" class="edge"><title>Node2&#45;&gt;Node5</title>
<path fill="none" stroke="midnightblue" d="M574.671,-172.346C619.472,-165.184 707.012,-150.539 791.071,-132.029"/>
<polygon fill="midnightblue" stroke="midnightblue" points="792.034,-135.401 801.036,-129.813 790.515,-128.568 792.034,-135.401"/>
</g>
<!-- Node6 -->
<g id="node6" class="node"><title>Node6</title>
<polygon fill="none" stroke="#bfbfbf" points="519.863,-112.5 519.863,-131.5 569.863,-131.5 569.863,-112.5 519.863,-112.5"/>
<text text-anchor="middle" x="544.863" y="-119.5" font-family="Helvetica,sans-Serif" font-size="10.00">cstring</text>
</g>
<!-- Node2&#45;&gt;Node6 -->
<g id="edge5" class="edge"><title>Node2&#45;&gt;Node6</title>
<path fill="none" stroke="midnightblue" d="M544.863,-168.083C544.863,-161.006 544.863,-150.861 544.863,-141.986"/>
<polygon fill="midnightblue" stroke="midnightblue" points="548.363,-141.751 544.863,-131.751 541.363,-141.751 548.363,-141.751"/>
</g>
<!-- Node7 -->
<g id="node7" class="node"><title>Node7</title>
<g id="a_node7"><a xlink:href="config_8hpp.html" target="_top" xlink:title="This file contains the defaults for Espresso. ">
<polygon fill="none" stroke="black" points="378.363,-56.5 378.363,-75.5 445.363,-75.5 445.363,-56.5 378.363,-56.5"/>
<text text-anchor="middle" x="411.863" y="-63.5" font-family="Helvetica,sans-Serif" font-size="10.00">config.hpp</text>
</a>
</g>
</g>
<!-- Node2&#45;&gt;Node7 -->
<g id="edge6" class="edge"><title>Node2&#45;&gt;Node7</title>
<path fill="none" stroke="midnightblue" d="M535.801,-168.286C522.397,-155.521 496.338,-131.177 472.863,-112 459.869,-101.385 444.687,-90.181 432.72,-81.608"/>
<polygon fill="midnightblue" stroke="midnightblue" points="434.465,-78.5543 424.285,-75.6184 430.412,-84.2618 434.465,-78.5543"/>
</g>
<!-- Node11 -->
<g id="node11" class="node"><title>Node11</title>
<g id="a_node11"><a xlink:href="debug_8hpp.html" target="_top" xlink:title="This file controls debug facilities. ">
<polygon fill="none" stroke="black" points="273.863,-112.5 273.863,-131.5 341.863,-131.5 341.863,-112.5 273.863,-112.5"/>
<text text-anchor="middle" x="307.863" y="-119.5" font-family="Helvetica,sans-Serif" font-size="10.00">debug.hpp</text>
</a>
</g>
</g>
<!-- Node2&#45;&gt;Node11 -->
<g id="edge10" class="edge"><title>Node2&#45;&gt;Node11</title>
<path fill="none" stroke="midnightblue" d="M515.326,-170.27C474.287,-160.919 399.7,-143.925 352.031,-133.063"/>
<polygon fill="midnightblue" stroke="midnightblue" points="352.524,-129.586 341.996,-130.777 350.968,-136.411 352.524,-129.586"/>
</g>
<!-- Node12 -->
<g id="node12" class="node"><title>Node12</title>
<g id="a_node12"><a xlink:href="lees__edwards_8hpp.html" target="_top" xlink:title="lees_edwards.hpp">
<polygon fill="none" stroke="black" points="359.863,-112.5 359.863,-131.5 463.863,-131.5 463.863,-112.5 359.863,-112.5"/>
<text text-anchor="middle" x="411.863" y="-119.5" font-family="Helvetica,sans-Serif" font-size="10.00">lees_edwards.hpp</text>
</a>
</g>
</g>
<!-- Node2&#45;&gt;Node12 -->
<g id="edge12" class="edge"><title>Node2&#45;&gt;Node12</title>
<path fill="none" stroke="midnightblue" d="M523.789,-168.444C501.803,-159.517 467.129,-145.439 442.199,-135.317"/>
<polygon fill="midnightblue" stroke="midnightblue" points="443.421,-132.035 432.839,-131.516 440.788,-138.521 443.421,-132.035"/>
</g>
<!-- Node13 -->
<g id="node13" class="node"><title>Node13</title>
<g id="a_node13"><a xlink:href="errorhandling_8hpp.html" target="_top" xlink:title="This file contains the errorhandling code for severe errors, like a broken bond or illegal parameter ...">
<polygon fill="none" stroke="black" points="48.3632,-112.5 48.3632,-131.5 151.363,-131.5 151.363,-112.5 48.3632,-112.5"/>
<text text-anchor="middle" x="99.8632" y="-119.5" font-family="Helvetica,sans-Serif" font-size="10.00">errorhandling.hpp</text>
</a>
</g>
</g>
<!-- Node2&#45;&gt;Node13 -->
<g id="edge14" class="edge"><title>Node2&#45;&gt;Node13</title>
<path fill="none" stroke="midnightblue" d="M515.321,-173.415C443.515,-164.702 258.607,-142.263 161.505,-130.48"/>
<polygon fill="midnightblue" stroke="midnightblue" points="161.884,-127 151.535,-129.27 161.04,-133.95 161.884,-127"/>
</g>
<!-- Node17 -->
<g id="node17" class="node"><title>Node17</title>
<polygon fill="none" stroke="#bfbfbf" points="208.363,-112.5 208.363,-131.5 255.363,-131.5 255.363,-112.5 208.363,-112.5"/>
<text text-anchor="middle" x="231.863" y="-119.5" font-family="Helvetica,sans-Serif" font-size="10.00">vector</text>
</g>
<!-- Node2&#45;&gt;Node17 -->
<g id="edge19" class="edge"><title>Node2&#45;&gt;Node17</title>
<path fill="none" stroke="midnightblue" d="M515.241,-173.3C465.637,-166.875 362.485,-152.543 265.545,-131.939"/>
<polygon fill="midnightblue" stroke="midnightblue" points="266.094,-128.477 255.582,-129.794 264.621,-135.321 266.094,-128.477"/>
</g>
<!-- Node18 -->
<g id="node18" class="node"><title>Node18</title>
<polygon fill="none" stroke="#bfbfbf" points="588.363,-112.5 588.363,-131.5 653.363,-131.5 653.363,-112.5 588.363,-112.5"/>
<text text-anchor="middle" x="620.863" y="-119.5" font-family="Helvetica,sans-Serif" font-size="10.00">exception</text>
</g>
<!-- Node2&#45;&gt;Node18 -->
<g id="edge20" class="edge"><title>Node2&#45;&gt;Node18</title>
<path fill="none" stroke="midnightblue" d="M557.074,-168.324C568.639,-160.107 586.239,-147.602 600.024,-137.807"/>
<polygon fill="midnightblue" stroke="midnightblue" points="602.306,-140.479 608.43,-131.834 598.251,-134.773 602.306,-140.479"/>
</g>
<!-- Node8 -->
<g id="node8" class="node"><title>Node8</title>
<g id="a_node8"><a xlink:href="acconfig_8hpp.html" target="_top" xlink:title="acconfig.hpp">
<polygon fill="none" stroke="black" points="261.863,-0.5 261.863,-19.5 339.863,-19.5 339.863,-0.5 261.863,-0.5"/>
<text text-anchor="middle" x="300.863" y="-7.5" font-family="Helvetica,sans-Serif" font-size="10.00">acconfig.hpp</text>
</a>
</g>
</g>
<!-- Node7&#45;&gt;Node8 -->
<g id="edge7" class="edge"><title>Node7&#45;&gt;Node8</title>
<path fill="none" stroke="midnightblue" d="M394.029,-56.324C376.147,-47.6247 348.388,-34.1202 327.818,-24.113"/>
<polygon fill="midnightblue" stroke="midnightblue" points="329.177,-20.8819 318.653,-19.6545 326.114,-27.1765 329.177,-20.8819"/>
</g>
<!-- Node9 -->
<g id="node9" class="node"><title>Node9</title>
<g id="a_node9"><a xlink:href="myconfig-final_8hpp.html" target="_top" xlink:title="myconfig&#45;final.hpp">
<polygon fill="none" stroke="black" points="358.363,-0.5 358.363,-19.5 465.363,-19.5 465.363,-0.5 358.363,-0.5"/>
<text text-anchor="middle" x="411.863" y="-7.5" font-family="Helvetica,sans-Serif" font-size="10.00">myconfig&#45;final.hpp</text>
</a>
</g>
</g>
<!-- Node7&#45;&gt;Node9 -->
<g id="edge8" class="edge"><title>Node7&#45;&gt;Node9</title>
<path fill="none" stroke="midnightblue" d="M411.863,-56.083C411.863,-49.0059 411.863,-38.8611 411.863,-29.9865"/>
<polygon fill="midnightblue" stroke="midnightblue" points="415.363,-29.751 411.863,-19.7511 408.363,-29.7511 415.363,-29.751"/>
</g>
<!-- Node10 -->
<g id="node10" class="node"><title>Node10</title>
<g id="a_node10"><a xlink:href="config-features_8hpp.html" target="_top" xlink:title="config&#45;features.hpp">
<polygon fill="none" stroke="black" points="483.363,-0.5 483.363,-19.5 594.363,-19.5 594.363,-0.5 483.363,-0.5"/>
<text text-anchor="middle" x="538.863" y="-7.5" font-family="Helvetica,sans-Serif" font-size="10.00">config&#45;features.hpp</text>
</a>
</g>
</g>
<!-- Node7&#45;&gt;Node10 -->
<g id="edge9" class="edge"><title>Node7&#45;&gt;Node10</title>
<path fill="none" stroke="midnightblue" d="M431.987,-56.4435C452.888,-47.5566 485.798,-33.5632 509.579,-23.4514"/>
<polygon fill="midnightblue" stroke="midnightblue" points="511.001,-26.6504 518.834,-19.5164 508.262,-20.2085 511.001,-26.6504"/>
</g>
<!-- Node11&#45;&gt;Node7 -->
<g id="edge11" class="edge"><title>Node11&#45;&gt;Node7</title>
<path fill="none" stroke="midnightblue" d="M324.573,-112.324C341.175,-103.703 366.865,-90.3643 386.084,-80.3855"/>
<polygon fill="midnightblue" stroke="midnightblue" points="387.933,-83.3689 395.195,-75.6545 384.707,-77.1565 387.933,-83.3689"/>
</g>
<!-- Node12&#45;&gt;Node7 -->
<g id="edge13" class="edge"><title>Node12&#45;&gt;Node7</title>
<path fill="none" stroke="midnightblue" d="M411.863,-112.083C411.863,-105.006 411.863,-94.8611 411.863,-85.9865"/>
<polygon fill="midnightblue" stroke="midnightblue" points="415.363,-85.751 411.863,-75.7511 408.363,-85.7511 415.363,-85.751"/>
</g>
<!-- Node13&#45;&gt;Node7 -->
<g id="edge15" class="edge"><title>Node13&#45;&gt;Node7</title>
<path fill="none" stroke="midnightblue" d="M149.301,-112.444C209.6,-102.007 310.588,-84.5284 368.16,-74.564"/>
<polygon fill="midnightblue" stroke="midnightblue" points="368.786,-78.0078 378.043,-72.8536 367.592,-71.1103 368.786,-78.0078"/>
</g>
<!-- Node14 -->
<g id="node14" class="node"><title>Node14</title>
<polygon fill="none" stroke="#bfbfbf" points="9.86321,-56.5 9.86321,-75.5 53.8632,-75.5 53.8632,-56.5 9.86321,-56.5"/>
<text text-anchor="middle" x="31.8632" y="-63.5" font-family="Helvetica,sans-Serif" font-size="10.00">string</text>
</g>
<!-- Node13&#45;&gt;Node14 -->
<g id="edge16" class="edge"><title>Node13&#45;&gt;Node14</title>
<path fill="none" stroke="midnightblue" d="M88.9378,-112.324C78.6886,-104.185 63.1426,-91.8395 50.8622,-82.0874"/>
<polygon fill="midnightblue" stroke="midnightblue" points="52.9951,-79.3119 42.9874,-75.8339 48.6419,-84.7937 52.9951,-79.3119"/>
</g>
<!-- Node15 -->
<g id="node15" class="node"><title>Node15</title>
<polygon fill="none" stroke="#bfbfbf" points="71.8632,-56.5 71.8632,-75.5 127.863,-75.5 127.863,-56.5 71.8632,-56.5"/>
<text text-anchor="middle" x="99.8632" y="-63.5" font-family="Helvetica,sans-Serif" font-size="10.00">sstream</text>
</g>
<!-- Node13&#45;&gt;Node15 -->
<g id="edge17" class="edge"><title>Node13&#45;&gt;Node15</title>
<path fill="none" stroke="midnightblue" d="M99.8632,-112.083C99.8632,-105.006 99.8632,-94.8611 99.8632,-85.9865"/>
<polygon fill="midnightblue" stroke="midnightblue" points="103.363,-85.751 99.8632,-75.7511 96.3633,-85.7511 103.363,-85.751"/>
</g>
<!-- Node16 -->
<g id="node16" class="node"><title>Node16</title>
<polygon fill="none" stroke="#bfbfbf" points="145.863,-56.5 145.863,-75.5 177.863,-75.5 177.863,-56.5 145.863,-56.5"/>
<text text-anchor="middle" x="161.863" y="-63.5" font-family="Helvetica,sans-Serif" font-size="10.00">list</text>
</g>
<!-- Node13&#45;&gt;Node16 -->
<g id="edge18" class="edge"><title>Node13&#45;&gt;Node16</title>
<path fill="none" stroke="midnightblue" d="M109.825,-112.324C118.99,-104.341 132.8,-92.3128 143.891,-82.6529"/>
<polygon fill="midnightblue" stroke="midnightblue" points="146.478,-85.041 151.721,-75.8339 141.881,-79.7624 146.478,-85.041"/>
</g>
<!-- Node20 -->
<g id="node20" class="node"><title>Node20</title>
<g id="a_node20"><a xlink:href="lattice_8hpp.html" target="_top" xlink:title="Lattice class definition Contains the lattice layout and pointers to the data fields. ">
<polygon fill="none" stroke="black" points="510.863,-392.5 510.863,-411.5 578.863,-411.5 578.863,-392.5 510.863,-392.5"/>
<text text-anchor="middle" x="544.863" y="-399.5" font-family="Helvetica,sans-Serif" font-size="10.00">lattice.hpp</text>
</a>
</g>
</g>
<!-- Node19&#45;&gt;Node20 -->
<g id="edge22" class="edge"><title>Node19&#45;&gt;Node20</title>
<path fill="none" stroke="midnightblue" d="M544.863,-448.083C544.863,-441.006 544.863,-430.861 544.863,-421.986"/>
<polygon fill="midnightblue" stroke="midnightblue" points="548.363,-421.751 544.863,-411.751 541.363,-421.751 548.363,-421.751"/>
</g>
<!-- Node21 -->
<g id="node21" class="node"><title>Node21</title>
<g id="a_node21"><a xlink:href="grid_8hpp.html" target="_top" xlink:title="Domain decomposition for parallel computing. ">
<polygon fill="none" stroke="black" points="300.863,-336.5 300.863,-355.5 356.863,-355.5 356.863,-336.5 300.863,-336.5"/>
<text text-anchor="middle" x="328.863" y="-343.5" font-family="Helvetica,sans-Serif" font-size="10.00">grid.hpp</text>
</a>
</g>
</g>
<!-- Node20&#45;&gt;Node21 -->
<g id="edge23" class="edge"><title>Node20&#45;&gt;Node21</title>
<path fill="none" stroke="midnightblue" d="M510.637,-392.444C471.487,-382.656 407.562,-366.675 366.889,-356.506"/>
<polygon fill="midnightblue" stroke="midnightblue" points="367.628,-353.084 357.078,-354.054 365.931,-359.875 367.628,-353.084"/>
</g>
<!-- Node24 -->
<g id="node24" class="node"><title>Node24</title>
<g id="a_node24"><a xlink:href="particle__data_8hpp.html" target="_top" xlink:title="For more information on particle_data, see particle_data.c. ">
<polygon fill="none" stroke="black" points="494.363,-224.5 494.363,-243.5 595.363,-243.5 595.363,-224.5 494.363,-224.5"/>
<text text-anchor="middle" x="544.863" y="-231.5" font-family="Helvetica,sans-Serif" font-size="10.00">particle_data.hpp</text>
</a>
</g>
</g>
<!-- Node20&#45;&gt;Node24 -->
<g id="edge41" class="edge"><title>Node20&#45;&gt;Node24</title>
<path fill="none" stroke="midnightblue" d="M544.863,-392.075C544.863,-365.945 544.863,-289.211 544.863,-253.577"/>
<polygon fill="midnightblue" stroke="midnightblue" points="548.363,-253.568 544.863,-243.568 541.363,-253.568 548.363,-253.568"/>
</g>
<!-- Node21&#45;&gt;Node2 -->
<g id="edge24" class="edge"><title>Node21&#45;&gt;Node2</title>
<path fill="none" stroke="midnightblue" d="M319.575,-336.395C311.283,-328.025 299.719,-314.483 294.863,-300 284.125,-267.975 273.197,-249.914 294.863,-224 321.19,-192.512 441.401,-183.023 505.051,-180.19"/>
<polygon fill="midnightblue" stroke="midnightblue" points="505.282,-183.683 515.13,-179.776 504.995,-176.689 505.282,-183.683"/>
</g>
<!-- Node21&#45;&gt;Node13 -->
<g id="edge40" class="edge"><title>Node21&#45;&gt;Node13</title>
<path fill="none" stroke="midnightblue" d="M300.62,-341.639C234.036,-331.992 68.0278,-297.473 3.86321,-188 -11.0331,-162.585 22.4821,-144.985 53.9224,-134.57"/>
<polygon fill="midnightblue" stroke="midnightblue" points="55.0511,-137.885 63.5572,-131.568 52.9688,-131.202 55.0511,-137.885"/>
</g>
<!-- Node22 -->
<g id="node22" class="node"><title>Node22</title>
<polygon fill="none" stroke="#bfbfbf" points="303.863,-280.5 303.863,-299.5 353.863,-299.5 353.863,-280.5 303.863,-280.5"/>
<text text-anchor="middle" x="328.863" y="-287.5" font-family="Helvetica,sans-Serif" font-size="10.00">climits</text>
</g>
<!-- Node21&#45;&gt;Node22 -->
<g id="edge25" class="edge"><title>Node21&#45;&gt;Node22</title>
<path fill="none" stroke="midnightblue" d="M328.863,-336.083C328.863,-329.006 328.863,-318.861 328.863,-309.986"/>
<polygon fill="midnightblue" stroke="midnightblue" points="332.363,-309.751 328.863,-299.751 325.363,-309.751 332.363,-309.751"/>
</g>
<!-- Node23 -->
<g id="node23" class="node"><title>Node23</title>
<g id="a_node23"><a xlink:href="communication_8hpp.html" target="_top" xlink:title="This file contains the asynchronous MPI communication. ">
<polygon fill="none" stroke="black" points="372.363,-280.5 372.363,-299.5 485.363,-299.5 485.363,-280.5 372.363,-280.5"/>
<text text-anchor="middle" x="428.863" y="-287.5" font-family="Helvetica,sans-Serif" font-size="10.00">communication.hpp</text>
</a>
</g>
</g>
<!-- Node21&#45;&gt;Node23 -->
<g id="edge26" class="edge"><title>Node21&#45;&gt;Node23</title>
<path fill="none" stroke="midnightblue" d="M344.93,-336.324C360.821,-327.743 385.371,-314.486 403.822,-304.522"/>
<polygon fill="midnightblue" stroke="midnightblue" points="405.7,-307.486 412.836,-299.655 402.374,-301.326 405.7,-307.486"/>
</g>
<!-- Node23&#45;&gt;Node24 -->
<g id="edge27" class="edge"><title>Node23&#45;&gt;Node24</title>
<path fill="none" stroke="midnightblue" d="M447.244,-280.444C466.08,-271.675 495.594,-257.935 517.242,-247.858"/>
<polygon fill="midnightblue" stroke="midnightblue" points="518.98,-250.91 526.569,-243.516 516.026,-244.564 518.98,-250.91"/>
</g>
<!-- Node25 -->
<g id="node25" class="node"><title>Node25</title>
<g id="a_node25"><a xlink:href="random_8hpp.html" target="_top" xlink:title="A random generator. ">
<polygon fill="none" stroke="black" points="401.363,-224.5 401.363,-243.5 476.363,-243.5 476.363,-224.5 401.363,-224.5"/>
<text text-anchor="middle" x="438.863" y="-231.5" font-family="Helvetica,sans-Serif" font-size="10.00">random.hpp</text>
</a>
</g>
</g>
<!-- Node23&#45;&gt;Node25 -->
<g id="edge29" class="edge"><title>Node23&#45;&gt;Node25</title>
<path fill="none" stroke="midnightblue" d="M430.515,-280.083C431.84,-272.927 433.746,-262.635 435.402,-253.691"/>
<polygon fill="midnightblue" stroke="midnightblue" points="438.863,-254.221 437.243,-243.751 431.98,-252.947 438.863,-254.221"/>
</g>
<!-- Node26 -->
<g id="node26" class="node"><title>Node26</title>
<g id="a_node26"><a xlink:href="topology_8hpp.html" target="_top" xlink:title="This file contains functions for handling the system topology. ">
<polygon fill="none" stroke="black" points="304.363,-224.5 304.363,-243.5 383.363,-243.5 383.363,-224.5 304.363,-224.5"/>
<text text-anchor="middle" x="343.863" y="-231.5" font-family="Helvetica,sans-Serif" font-size="10.00">topology.hpp</text>
</a>
</g>
</g>
<!-- Node23&#45;&gt;Node26 -->
<g id="edge31" class="edge"><title>Node23&#45;&gt;Node26</title>
<path fill="none" stroke="midnightblue" d="M415.206,-280.324C401.947,-271.9 381.595,-258.971 366.017,-249.074"/>
<polygon fill="midnightblue" stroke="midnightblue" points="367.804,-246.063 357.486,-243.655 364.05,-251.971 367.804,-246.063"/>
</g>
<!-- Node27 -->
<g id="node27" class="node"><title>Node27</title>
<g id="a_node27"><a xlink:href="mpi_8h.html" target="_top" xlink:title="This is the MPIfake implementation. ">
<polygon fill="none" stroke="black" points="112.863,-224.5 112.863,-243.5 156.863,-243.5 156.863,-224.5 112.863,-224.5"/>
<text text-anchor="middle" x="134.863" y="-231.5" font-family="Helvetica,sans-Serif" font-size="10.00">mpi.h</text>
</a>
</g>
</g>
<!-- Node23&#45;&gt;Node27 -->
<g id="edge33" class="edge"><title>Node23&#45;&gt;Node27</title>
<path fill="none" stroke="midnightblue" d="M382.278,-280.444C322.141,-269.398 219.057,-250.464 166.98,-240.899"/>
<polygon fill="midnightblue" stroke="midnightblue" points="167.441,-237.425 156.973,-239.061 166.176,-244.31 167.441,-237.425"/>
</g>
<!-- Node31 -->
<g id="node31" class="node"><title>Node31</title>
<g id="a_node31"><a xlink:href="cuda__init_8hpp.html" target="_top" xlink:title="cuda_init.hpp">
<polygon fill="none" stroke="black" points="223.863,-168.5 223.863,-187.5 305.863,-187.5 305.863,-168.5 223.863,-168.5"/>
<text text-anchor="middle" x="264.863" y="-175.5" font-family="Helvetica,sans-Serif" font-size="10.00">cuda_init.hpp</text>
</a>
</g>
</g>
<!-- Node23&#45;&gt;Node31 -->
<g id="edge37" class="edge"><title>Node23&#45;&gt;Node31</title>
<path fill="none" stroke="midnightblue" d="M372.151,-280.564C346.063,-274.22 316.236,-263.173 294.863,-244 281.298,-231.831 273.43,-212.279 269.184,-197.793"/>
<polygon fill="midnightblue" stroke="midnightblue" points="272.517,-196.703 266.608,-187.909 265.743,-198.468 272.517,-196.703"/>
</g>
<!-- Node24&#45;&gt;Node2 -->
<g id="edge28" class="edge"><title>Node24&#45;&gt;Node2</title>
<path fill="none" stroke="midnightblue" d="M544.863,-224.083C544.863,-217.006 544.863,-206.861 544.863,-197.986"/>
<polygon fill="midnightblue" stroke="midnightblue" points="548.363,-197.751 544.863,-187.751 541.363,-197.751 548.363,-197.751"/>
</g>
<!-- Node25&#45;&gt;Node2 -->
<g id="edge30" class="edge"><title>Node25&#45;&gt;Node2</title>
<path fill="none" stroke="midnightblue" d="M455.894,-224.324C472.893,-215.664 499.239,-202.242 518.856,-192.249"/>
<polygon fill="midnightblue" stroke="midnightblue" points="520.553,-195.312 527.875,-187.655 517.376,-189.075 520.553,-195.312"/>
</g>
<!-- Node26&#45;&gt;Node2 -->
<g id="edge32" class="edge"><title>Node26&#45;&gt;Node2</title>
<path fill="none" stroke="midnightblue" d="M375.712,-224.444C410.871,-214.998 467.503,-199.783 505.436,-189.592"/>
<polygon fill="midnightblue" stroke="midnightblue" points="506.38,-192.963 515.129,-186.988 504.563,-186.203 506.38,-192.963"/>
</g>
<!-- Node28 -->
<g id="node28" class="node"><title>Node28</title>
<polygon fill="none" stroke="#bfbfbf" points="152.363,-168.5 152.363,-187.5 205.363,-187.5 205.363,-168.5 152.363,-168.5"/>
<text text-anchor="middle" x="178.863" y="-175.5" font-family="Helvetica,sans-Serif" font-size="10.00">string.h</text>
</g>
<!-- Node27&#45;&gt;Node28 -->
<g id="edge34" class="edge"><title>Node27&#45;&gt;Node28</title>
<path fill="none" stroke="midnightblue" d="M142.129,-224.083C148.408,-216.377 157.651,-205.033 165.294,-195.653"/>
<polygon fill="midnightblue" stroke="midnightblue" points="168.129,-197.714 171.733,-187.751 162.703,-193.293 168.129,-197.714"/>
</g>
<!-- Node29 -->
<g id="node29" class="node"><title>Node29</title>
<polygon fill="none" stroke="#bfbfbf" points="12.8632,-168.5 12.8632,-187.5 62.8632,-187.5 62.8632,-168.5 12.8632,-168.5"/>
<text text-anchor="middle" x="37.8632" y="-175.5" font-family="Helvetica,sans-Serif" font-size="10.00">stdio.h</text>
</g>
<!-- Node27&#45;&gt;Node29 -->
<g id="edge35" class="edge"><title>Node27&#45;&gt;Node29</title>
<path fill="none" stroke="midnightblue" d="M119.278,-224.324C103.864,-215.743 80.051,-202.486 62.1535,-192.522"/>
<polygon fill="midnightblue" stroke="midnightblue" points="63.849,-189.461 53.4093,-187.655 60.4442,-195.577 63.849,-189.461"/>
</g>
<!-- Node30 -->
<g id="node30" class="node"><title>Node30</title>
<polygon fill="none" stroke="#bfbfbf" points="81.3632,-168.5 81.3632,-187.5 134.363,-187.5 134.363,-168.5 81.3632,-168.5"/>
<text text-anchor="middle" x="107.863" y="-175.5" font-family="Helvetica,sans-Serif" font-size="10.00">stdlib.h</text>
</g>
<!-- Node27&#45;&gt;Node30 -->
<g id="edge36" class="edge"><title>Node27&#45;&gt;Node30</title>
<path fill="none" stroke="midnightblue" d="M130.405,-224.083C126.709,-216.691 121.34,-205.953 116.769,-196.811"/>
<polygon fill="midnightblue" stroke="midnightblue" points="119.841,-195.13 112.239,-187.751 113.58,-198.261 119.841,-195.13"/>
</g>
<!-- Node31&#45;&gt;Node7 -->
<g id="edge38" class="edge"><title>Node31&#45;&gt;Node7</title>
<path fill="none" stroke="midnightblue" d="M244.333,-168.366C218.917,-156.464 181.037,-133.986 198.863,-112 219.759,-86.2278 312.18,-74.64 368.19,-69.9027"/>
<polygon fill="midnightblue" stroke="midnightblue" points="368.512,-73.3881 378.198,-69.096 367.95,-66.4108 368.512,-73.3881"/>
</g>
<!-- Node31&#45;&gt;Node17 -->
<g id="edge39" class="edge"><title>Node31&#45;&gt;Node17</title>
<path fill="none" stroke="midnightblue" d="M259.414,-168.083C254.849,-160.613 248.195,-149.724 242.57,-140.52"/>
<polygon fill="midnightblue" stroke="midnightblue" points="245.412,-138.459 237.211,-131.751 239.439,-142.109 245.412,-138.459"/>
</g>
<!-- Node32&#45;&gt;Node2 -->
<g id="edge43" class="edge"><title>Node32&#45;&gt;Node2</title>
<path fill="none" stroke="midnightblue" d="M712.88,-280.289C697.471,-267.099 666.656,-241.723 637.863,-224 617.571,-211.51 593.296,-199.865 574.636,-191.551"/>
<polygon fill="midnightblue" stroke="midnightblue" points="576.005,-188.33 565.441,-187.521 573.194,-194.741 576.005,-188.33"/>
</g>
<!-- Node32&#45;&gt;Node7 -->
<g id="edge44" class="edge"><title>Node32&#45;&gt;Node7</title>
<path fill="none" stroke="midnightblue" d="M755.585,-284.188C781.69,-278.715 817.473,-267.306 839.863,-244 882.158,-199.975 918.904,-157.195 877.863,-112 849.775,-81.0691 566.183,-70.7948 455.644,-67.9488"/>
<polygon fill="midnightblue" stroke="midnightblue" points="455.585,-64.4463 445.501,-67.6961 455.411,-71.4441 455.585,-64.4463"/>
</g>
<!-- Node33 -->
<g id="node33" class="node"><title>Node33</title>
<g id="a_node33"><a xlink:href="statistics__observable_8hpp.html" target="_top" xlink:title="statistics_observable.hpp">
<polygon fill="none" stroke="black" points="690.363,-224.5 690.363,-243.5 831.363,-243.5 831.363,-224.5 690.363,-224.5"/>
<text text-anchor="middle" x="760.863" y="-231.5" font-family="Helvetica,sans-Serif" font-size="10.00">statistics_observable.hpp</text>
</a>
</g>
</g>
<!-- Node32&#45;&gt;Node33 -->
<g id="edge45" class="edge"><title>Node32&#45;&gt;Node33</title>
<path fill="none" stroke="midnightblue" d="M729.138,-280.083C734.506,-272.455 742.381,-261.264 748.942,-251.941"/>
<polygon fill="midnightblue" stroke="midnightblue" points="751.812,-253.943 754.705,-243.751 746.088,-249.915 751.812,-253.943"/>
</g>
<!-- Node33&#45;&gt;Node2 -->
<g id="edge47" class="edge"><title>Node33&#45;&gt;Node2</title>
<path fill="none" stroke="midnightblue" d="M726.637,-224.444C687.926,-214.766 624.992,-199.032 584.264,-188.85"/>
<polygon fill="midnightblue" stroke="midnightblue" points="584.967,-185.418 574.417,-186.388 583.269,-192.209 584.967,-185.418"/>
</g>
<!-- Node33&#45;&gt;Node3 -->
<g id="edge50" class="edge"><title>Node33&#45;&gt;Node3</title>
<path fill="none" stroke="midnightblue" d="M755.684,-224.368C744.841,-206.296 719.569,-164.176 705.248,-140.307"/>
<polygon fill="midnightblue" stroke="midnightblue" points="708.164,-138.366 700.018,-131.591 702.162,-141.967 708.164,-138.366"/>
</g>
<!-- Node33&#45;&gt;Node4 -->
<g id="edge48" class="edge"><title>Node33&#45;&gt;Node4</title>
<path fill="none" stroke="midnightblue" d="M760.785,-224.368C760.623,-206.617 760.251,-165.666 760.032,-141.597"/>
<polygon fill="midnightblue" stroke="midnightblue" points="763.532,-141.559 759.941,-131.591 756.532,-141.623 763.532,-141.559"/>
</g>
<!-- Node33&#45;&gt;Node5 -->
<g id="edge49" class="edge"><title>Node33&#45;&gt;Node5</title>
<path fill="none" stroke="midnightblue" d="M765.964,-224.368C776.643,-206.296 801.532,-164.176 815.636,-140.307"/>
<polygon fill="midnightblue" stroke="midnightblue" points="818.712,-141.981 820.786,-131.591 812.686,-138.42 818.712,-141.981"/>
</g>
<!-- Node33&#45;&gt;Node7 -->
<g id="edge46" class="edge"><title>Node33&#45;&gt;Node7</title>
<path fill="none" stroke="midnightblue" d="M777.265,-224.376C813.705,-204.166 895.4,-152.4 858.863,-112 832.124,-82.4336 563.012,-71.3913 455.699,-68.1428"/>
<polygon fill="midnightblue" stroke="midnightblue" points="455.63,-64.6394 445.532,-67.8438 455.424,-71.6363 455.63,-64.6394"/>
</g>
</g>
</svg>
        <g id="navigator" transform="translate(0 0)" fill="#404254">
                <rect fill="#f2f5e9" fill-opacity="0.5" stroke="#606060" stroke-width=".5" x="0" y="0" width="60" height="60"/>
                <use id="zoomplus" xlink:href="#zoomPlus" x="17" y="9" onmousedown="handleZoom(evt,'in')"/>
                <use id="zoomminus" xlink:href="#zoomMin" x="42" y="9" onmousedown="handleZoom(evt,'out')"/>
                <use id="reset" xlink:href="#resetDef" x="30" y="36" onmousedown="handleReset()"/>
                <g id="arrowUp" xlink:href="#dirArrow" transform="translate(30 24)" onmousedown="handlePan(0,-1)">
                  <use xlink:href="#rim" fill="#404040">
                        <set attributeName="fill" to="#808080" begin="arrowUp.mouseover" end="arrowUp.mouseout"/>
                  </use>
                  <path fill="none" stroke="white" stroke-width="1.5" d="M0,-3.0v7 M-2.5,-0.5L0,-3.0L2.5,-0.5"/>
                </g>
                <g id="arrowRight" xlink:href="#dirArrow" transform="rotate(90) translate(36 -43)" onmousedown="handlePan(1,0)">
                  <use xlink:href="#rim" fill="#404040">
                        <set attributeName="fill" to="#808080" begin="arrowRight.mouseover" end="arrowRight.mouseout"/>
                  </use>
                  <path fill="none" stroke="white" stroke-width="1.5" d="M0,-3.0v7 M-2.5,-0.5L0,-3.0L2.5,-0.5"/>
                </g>
                <g id="arrowDown" xlink:href="#dirArrow" transform="rotate(180) translate(-30 -48)" onmousedown="handlePan(0,1)">
                  <use xlink:href="#rim" fill="#404040">
                        <set attributeName="fill" to="#808080" begin="arrowDown.mouseover" end="arrowDown.mouseout"/>
                  </use>
                  <path fill="none" stroke="white" stroke-width="1.5" d="M0,-3.0v7 M-2.5,-0.5L0,-3.0L2.5,-0.5"/>
                </g>
                <g id="arrowLeft" xlink:href="#dirArrow" transform="rotate(270) translate(-36 17)" onmousedown="handlePan(-1,0)">
                  <use xlink:href="#rim" fill="#404040">
                        <set attributeName="fill" to="#808080" begin="arrowLeft.mouseover" end="arrowLeft.mouseout"/>
                  </use>
                  <path fill="none" stroke="white" stroke-width="1.5" d="M0,-3.0v7 M-2.5,-0.5L0,-3.0L2.5,-0.5"/>
                </g>
        </g>
        <svg viewBox="0 0 15 15" width="100%" height="30px" preserveAspectRatio="xMaxYMin meet">
         <g id="arrow_out" transform="scale(0.3 0.3)">
          <a xlink:href="lb_8hpp__incl_org.svg" target="_base">
           <rect id="button" ry="5" rx="5" y="6" x="6" height="38" width="38"
                fill="#f2f5e9" fill-opacity="0.5" stroke="#606060" stroke-width="1.0"/>
           <path id="arrow"
             d="M 11.500037,31.436501 C 11.940474,20.09759 22.043105,11.32322 32.158766,21.979434 L 37.068811,17.246167 C 37.068811,17.246167 37.088388,32 37.088388,32 L 22.160133,31.978069 C 22.160133,31.978069 26.997745,27.140456 26.997745,27.140456 C 18.528582,18.264221 13.291696,25.230495 11.500037,31.436501 z"
             style="fill:#404040;"/>
          </a>
         </g>
        </svg>
</svg>
