<?xml version="1.0" encoding="UTF-8" standalone="no"?>
<!DOCTYPE svg PUBLIC "-//W3C//DTD SVG 1.1//EN"
 "http://www.w3.org/Graphics/SVG/1.1/DTD/svg11.dtd">
<!-- Generated by graphviz version 2.38.0 (20140413.2041)
 -->
<!-- Title: lbgpu_cuda.cu Pages: 1 -->
<svg width="1044pt" height="599pt"
 viewBox="0.00 0.00 1043.69 599.00" xmlns="http://www.w3.org/2000/svg" xmlns:xlink="http://www.w3.org/1999/xlink">
<g id="graph0" class="graph" transform="scale(1 1) rotate(0) translate(4 595)">
<title>lbgpu_cuda.cu</title>
<!-- Node1 -->
<g id="node1" class="node"><title>Node1</title>
<polygon fill="#bfbfbf" stroke="black" points="489,-571.5 489,-590.5 575,-590.5 575,-571.5 489,-571.5"/>
<text text-anchor="middle" x="532" y="-578.5" font-family="Helvetica,sans-Serif" font-size="10.00">lbgpu_cuda.cu</text>
</g>
<!-- Node2 -->
<g id="node2" class="node"><title>Node2</title>
<g id="a_node2"><a xlink:href="config_8hpp.html" target="_top" xlink:title="This file contains the defaults for Espresso. ">
<polygon fill="none" stroke="black" points="474.5,-56.5 474.5,-75.5 541.5,-75.5 541.5,-56.5 474.5,-56.5"/>
<text text-anchor="middle" x="508" y="-63.5" font-family="Helvetica,sans-Serif" font-size="10.00">config.hpp</text>
</a>
</g>
</g>
<!-- Node1&#45;&gt;Node2 -->
<g id="edge1" class="edge"><title>Node1&#45;&gt;Node2</title>
<path fill="none" stroke="midnightblue" d="M488.504,-580.258C430.292,-579.063 324.997,-571.436 244,-535 195.632,-513.242 152,-512.036 152,-459 152,-459 152,-459 152,-177 152,-143.537 162.216,-130.65 190,-112 233.94,-82.5055 387.557,-72.0094 464.043,-68.5538"/>
<polygon fill="midnightblue" stroke="midnightblue" points="464.465,-72.039 474.305,-68.1116 464.163,-65.0454 464.465,-72.039"/>
</g>
<!-- Node6 -->
<g id="node6" class="node"><title>Node6</title>
<polygon fill="none" stroke="#bfbfbf" points="253,-510 253,-529 303,-529 303,-510 253,-510"/>
<text text-anchor="middle" x="278" y="-517" font-family="Helvetica,sans-Serif" font-size="10.00">stdio.h</text>
</g>
<!-- Node1&#45;&gt;Node6 -->
<g id="edge5" class="edge"><title>Node1&#45;&gt;Node6</title>
<path fill="none" stroke="midnightblue" d="M488.768,-573.797C443.93,-566.754 372.104,-553.753 312,-535 309.86,-534.332 307.67,-533.577 305.485,-532.77"/>
<polygon fill="midnightblue" stroke="midnightblue" points="306.682,-529.479 296.097,-529.016 304.083,-535.978 306.682,-529.479"/>
</g>
<!-- Node7 -->
<g id="node7" class="node"><title>Node7</title>
<polygon fill="none" stroke="#bfbfbf" points="539.5,-448.5 539.5,-467.5 588.5,-467.5 588.5,-448.5 539.5,-448.5"/>
<text text-anchor="middle" x="564" y="-455.5" font-family="Helvetica,sans-Serif" font-size="10.00">cuda.h</text>
</g>
<!-- Node1&#45;&gt;Node7 -->
<g id="edge6" class="edge"><title>Node1&#45;&gt;Node7</title>
<path fill="none" stroke="midnightblue" d="M534.862,-571.425C537.825,-562.409 542.502,-547.785 546,-535 551.299,-515.635 556.489,-493.248 559.925,-477.812"/>
<polygon fill="midnightblue" stroke="midnightblue" points="563.365,-478.461 562.092,-467.943 556.528,-476.959 563.365,-478.461"/>
</g>
<!-- Node8 -->
<g id="node8" class="node"><title>Node8</title>
<polygon fill="none" stroke="#bfbfbf" points="450.5,-510 450.5,-529 503.5,-529 503.5,-510 450.5,-510"/>
<text text-anchor="middle" x="477" y="-517" font-family="Helvetica,sans-Serif" font-size="10.00">stdlib.h</text>
</g>
<!-- Node1&#45;&gt;Node8 -->
<g id="edge7" class="edge"><title>Node1&#45;&gt;Node8</title>
<path fill="none" stroke="midnightblue" d="M524.12,-571.475C515.706,-562.373 502.181,-547.741 491.774,-536.483"/>
<polygon fill="midnightblue" stroke="midnightblue" points="494.224,-533.977 484.866,-529.009 489.083,-538.728 494.224,-533.977"/>
</g>
<!-- Node9 -->
<g id="node9" class="node"><title>Node9</title>
<g id="a_node9"><a xlink:href="electrokinetics_8hpp.html" target="_top" xlink:title="electrokinetics.hpp">
<polygon fill="none" stroke="black" points="325,-448.5 325,-467.5 435,-467.5 435,-448.5 325,-448.5"/>
<text text-anchor="middle" x="380" y="-455.5" font-family="Helvetica,sans-Serif" font-size="10.00">electrokinetics.hpp</text>
</a>
</g>
</g>
<!-- Node1&#45;&gt;Node9 -->
<g id="edge8" class="edge"><title>Node1&#45;&gt;Node9</title>
<path fill="none" stroke="midnightblue" d="M532.22,-571.233C532.126,-555.646 529.666,-522.971 512,-504 494.525,-485.234 468.917,-474.293 444.897,-467.915"/>
<polygon fill="midnightblue" stroke="midnightblue" points="445.628,-464.491 435.084,-465.53 443.974,-471.293 445.628,-464.491"/>
</g>
<!-- Node27 -->
<g id="node27" class="node"><title>Node27</title>
<g id="a_node27"><a xlink:href="electrokinetics__pdb__parse_8hpp.html" target="_top" xlink:title="electrokinetics_pdb\l_parse.hpp">
<polygon fill="none" stroke="black" points="321,-504.5 321,-534.5 433,-534.5 433,-504.5 321,-504.5"/>
<text text-anchor="start" x="329" y="-522.5" font-family="Helvetica,sans-Serif" font-size="10.00">electrokinetics_pdb</text>
<text text-anchor="middle" x="377" y="-511.5" font-family="Helvetica,sans-Serif" font-size="10.00">_parse.hpp</text>
</a>
</g>
</g>
<!-- Node1&#45;&gt;Node27 -->
<g id="edge34" class="edge"><title>Node1&#45;&gt;Node27</title>
<path fill="none" stroke="midnightblue" d="M509.792,-571.475C487.23,-562.814 451.622,-549.145 422.957,-538.141"/>
<polygon fill="midnightblue" stroke="midnightblue" points="424.121,-534.839 413.53,-534.523 421.612,-541.374 424.121,-534.839"/>
</g>
<!-- Node28 -->
<g id="node28" class="node"><title>Node28</title>
<g id="a_node28"><a xlink:href="lbgpu_8hpp.html" target="_top" xlink:title="Header file for lbgpu.cpp. ">
<polygon fill="none" stroke="black" points="694.5,-280.5 694.5,-299.5 759.5,-299.5 759.5,-280.5 694.5,-280.5"/>
<text text-anchor="middle" x="727" y="-287.5" font-family="Helvetica,sans-Serif" font-size="10.00">lbgpu.hpp</text>
</a>
</g>
</g>
<!-- Node1&#45;&gt;Node28 -->
<g id="edge36" class="edge"><title>Node1&#45;&gt;Node28</title>
<path fill="none" stroke="midnightblue" d="M575.333,-578.026C611.027,-574.25 660.968,-563.741 694,-535 721.781,-510.828 727,-495.825 727,-459 727,-459 727,-459 727,-401 727,-368.948 727,-331.643 727,-309.749"/>
<polygon fill="midnightblue" stroke="midnightblue" points="730.5,-309.558 727,-299.558 723.5,-309.558 730.5,-309.558"/>
</g>
<!-- Node30 -->
<g id="node30" class="node"><title>Node30</title>
<g id="a_node30"><a xlink:href="cuda__interface_8hpp.html" target="_top" xlink:title="cuda_interface.hpp">
<polygon fill="none" stroke="black" points="847,-280.5 847,-299.5 957,-299.5 957,-280.5 847,-280.5"/>
<text text-anchor="middle" x="902" y="-287.5" font-family="Helvetica,sans-Serif" font-size="10.00">cuda_interface.hpp</text>
</a>
</g>
</g>
<!-- Node1&#45;&gt;Node30 -->
<g id="edge45" class="edge"><title>Node1&#45;&gt;Node30</title>
<path fill="none" stroke="midnightblue" d="M575.117,-580.65C655.459,-579.371 820,-563.942 820,-459 820,-459 820,-459 820,-401 820,-360.269 856.587,-324.872 880.883,-305.856"/>
<polygon fill="midnightblue" stroke="midnightblue" points="883.298,-308.42 889.188,-299.612 879.091,-302.825 883.298,-308.42"/>
</g>
<!-- Node34 -->
<g id="node34" class="node"><title>Node34</title>
<g id="a_node34"><a xlink:href="cuda__utils_8hpp.html" target="_top" xlink:title="cuda_utils.hpp">
<polygon fill="none" stroke="black" points="598.5,-510 598.5,-529 685.5,-529 685.5,-510 598.5,-510"/>
<text text-anchor="middle" x="642" y="-517" font-family="Helvetica,sans-Serif" font-size="10.00">cuda_utils.hpp</text>
</a>
</g>
</g>
<!-- Node1&#45;&gt;Node34 -->
<g id="edge52" class="edge"><title>Node1&#45;&gt;Node34</title>
<path fill="none" stroke="midnightblue" d="M547.76,-571.475C565.976,-561.622 596.173,-545.288 617.468,-533.77"/>
<polygon fill="midnightblue" stroke="midnightblue" points="619.138,-536.845 626.269,-529.009 615.808,-530.688 619.138,-536.845"/>
</g>
<!-- Node3 -->
<g id="node3" class="node"><title>Node3</title>
<g id="a_node3"><a xlink:href="acconfig_8hpp.html" target="_top" xlink:title="acconfig.hpp">
<polygon fill="none" stroke="black" points="358,-0.5 358,-19.5 436,-19.5 436,-0.5 358,-0.5"/>
<text text-anchor="middle" x="397" y="-7.5" font-family="Helvetica,sans-Serif" font-size="10.00">acconfig.hpp</text>
</a>
</g>
</g>
<!-- Node2&#45;&gt;Node3 -->
<g id="edge2" class="edge"><title>Node2&#45;&gt;Node3</title>
<path fill="none" stroke="midnightblue" d="M490.166,-56.324C472.284,-47.6247 444.525,-34.1202 423.954,-24.113"/>
<polygon fill="midnightblue" stroke="midnightblue" points="425.313,-20.8819 414.79,-19.6545 422.251,-27.1765 425.313,-20.8819"/>
</g>
<!-- Node4 -->
<g id="node4" class="node"><title>Node4</title>
<g id="a_node4"><a xlink:href="myconfig-final_8hpp.html" target="_top" xlink:title="myconfig&#45;final.hpp">
<polygon fill="none" stroke="black" points="454.5,-0.5 454.5,-19.5 561.5,-19.5 561.5,-0.5 454.5,-0.5"/>
<text text-anchor="middle" x="508" y="-7.5" font-family="Helvetica,sans-Serif" font-size="10.00">myconfig&#45;final.hpp</text>
</a>
</g>
</g>
<!-- Node2&#45;&gt;Node4 -->
<g id="edge3" class="edge"><title>Node2&#45;&gt;Node4</title>
<path fill="none" stroke="midnightblue" d="M508,-56.083C508,-49.0059 508,-38.8611 508,-29.9865"/>
<polygon fill="midnightblue" stroke="midnightblue" points="511.5,-29.751 508,-19.7511 504.5,-29.7511 511.5,-29.751"/>
</g>
<!-- Node5 -->
<g id="node5" class="node"><title>Node5</title>
<g id="a_node5"><a xlink:href="config-features_8hpp.html" target="_top" xlink:title="config&#45;features.hpp">
<polygon fill="none" stroke="black" points="579.5,-0.5 579.5,-19.5 690.5,-19.5 690.5,-0.5 579.5,-0.5"/>
<text text-anchor="middle" x="635" y="-7.5" font-family="Helvetica,sans-Serif" font-size="10.00">config&#45;features.hpp</text>
</a>
</g>
</g>
<!-- Node2&#45;&gt;Node5 -->
<g id="edge4" class="edge"><title>Node2&#45;&gt;Node5</title>
<path fill="none" stroke="midnightblue" d="M528.124,-56.4435C549.024,-47.5566 581.935,-33.5632 605.716,-23.4514"/>
<polygon fill="midnightblue" stroke="midnightblue" points="607.138,-26.6504 614.971,-19.5164 604.398,-20.2085 607.138,-26.6504"/>
</g>
<!-- Node9&#45;&gt;Node2 -->
<g id="edge9" class="edge"><title>Node9&#45;&gt;Node2</title>
<path fill="none" stroke="midnightblue" d="M324.789,-448.971C268.691,-437.324 190,-409.795 190,-347 190,-347 190,-347 190,-177 190,-146.902 186.331,-131.798 209,-112 246.214,-79.4992 390.368,-70.4641 464.07,-67.9581"/>
<polygon fill="midnightblue" stroke="midnightblue" points="464.526,-71.4456 474.412,-67.6337 464.307,-64.449 464.526,-71.4456"/>
</g>
<!-- Node10 -->
<g id="node10" class="node"><title>Node10</title>
<g id="a_node10"><a xlink:href="lb-boundaries_8hpp.html" target="_top" xlink:title="Boundary conditions for Lattice Boltzmann fluid dynamics. ">
<polygon fill="none" stroke="black" points="331,-392.5 331,-411.5 435,-411.5 435,-392.5 331,-392.5"/>
<text text-anchor="middle" x="383" y="-399.5" font-family="Helvetica,sans-Serif" font-size="10.00">lb&#45;boundaries.hpp</text>
</a>
</g>
</g>
<!-- Node9&#45;&gt;Node10 -->
<g id="edge10" class="edge"><title>Node9&#45;&gt;Node10</title>
<path fill="none" stroke="midnightblue" d="M380.495,-448.083C380.889,-441.006 381.452,-430.861 381.945,-421.986"/>
<polygon fill="midnightblue" stroke="midnightblue" points="385.454,-421.93 382.514,-411.751 378.464,-421.542 385.454,-421.93"/>
</g>
<!-- Node11 -->
<g id="node11" class="node"><title>Node11</title>
<g id="a_node11"><a xlink:href="utils_8hpp.html" target="_top" xlink:title="Small functions that are useful not only for one modul. ">
<polygon fill="none" stroke="black" points="519.5,-168.5 519.5,-187.5 578.5,-187.5 578.5,-168.5 519.5,-168.5"/>
<text text-anchor="middle" x="549" y="-175.5" font-family="Helvetica,sans-Serif" font-size="10.00">utils.hpp</text>
</a>
</g>
</g>
<!-- Node10&#45;&gt;Node11 -->
<g id="edge11" class="edge"><title>Node10&#45;&gt;Node11</title>
<path fill="none" stroke="midnightblue" d="M382.255,-392.351C380.873,-371.421 379.83,-317.038 402,-280 428.311,-236.044 482.011,-206.719 516.709,-191.472"/>
<polygon fill="midnightblue" stroke="midnightblue" points="518.118,-194.676 525.953,-187.545 515.381,-188.234 518.118,-194.676"/>
</g>
<!-- Node24 -->
<g id="node24" class="node"><title>Node24</title>
<g id="a_node24"><a xlink:href="constraint_8hpp.html" target="_top" xlink:title="Routines for handling of constraints. ">
<polygon fill="none" stroke="black" points="427,-336.5 427,-355.5 513,-355.5 513,-336.5 427,-336.5"/>
<text text-anchor="middle" x="470" y="-343.5" font-family="Helvetica,sans-Serif" font-size="10.00">constraint.hpp</text>
</a>
</g>
</g>
<!-- Node10&#45;&gt;Node24 -->
<g id="edge28" class="edge"><title>Node10&#45;&gt;Node24</title>
<path fill="none" stroke="midnightblue" d="M396.978,-392.324C410.55,-383.9 431.38,-370.971 447.325,-361.074"/>
<polygon fill="midnightblue" stroke="midnightblue" points="449.406,-363.902 456.057,-355.655 445.714,-357.954 449.406,-363.902"/>
</g>
<!-- Node11&#45;&gt;Node2 -->
<g id="edge16" class="edge"><title>Node11&#45;&gt;Node2</title>
<path fill="none" stroke="midnightblue" d="M555.774,-168.231C564.8,-155.399 578.579,-130.971 569,-112 562.193,-98.5199 549.232,-88.083 537.002,-80.6696"/>
<polygon fill="midnightblue" stroke="midnightblue" points="538.343,-77.4099 527.906,-75.5896 534.93,-83.5214 538.343,-77.4099"/>
</g>
<!-- Node12 -->
<g id="node12" class="node"><title>Node12</title>
<polygon fill="none" stroke="#bfbfbf" points="851.5,-112.5 851.5,-131.5 898.5,-131.5 898.5,-112.5 851.5,-112.5"/>
<text text-anchor="middle" x="875" y="-119.5" font-family="Helvetica,sans-Serif" font-size="10.00">cmath</text>
</g>
<!-- Node11&#45;&gt;Node12 -->
<g id="edge12" class="edge"><title>Node11&#45;&gt;Node12</title>
<path fill="none" stroke="midnightblue" d="M578.848,-173.656C630.497,-167.607 740.004,-153.627 841.233,-132.177"/>
<polygon fill="midnightblue" stroke="midnightblue" points="842.274,-135.533 851.315,-130.01 840.803,-128.69 842.274,-135.533"/>
</g>
<!-- Node13 -->
<g id="node13" class="node"><title>Node13</title>
<polygon fill="none" stroke="#bfbfbf" points="684,-112.5 684,-131.5 730,-131.5 730,-112.5 684,-112.5"/>
<text text-anchor="middle" x="707" y="-119.5" font-family="Helvetica,sans-Serif" font-size="10.00">cstdio</text>
</g>
<!-- Node11&#45;&gt;Node13 -->
<g id="edge13" class="edge"><title>Node11&#45;&gt;Node13</title>
<path fill="none" stroke="midnightblue" d="M574.036,-168.444C601.163,-159.172 644.553,-144.343 674.343,-134.161"/>
<polygon fill="midnightblue" stroke="midnightblue" points="675.55,-137.448 683.881,-130.902 673.286,-130.824 675.55,-137.448"/>
</g>
<!-- Node14 -->
<g id="node14" class="node"><title>Node14</title>
<polygon fill="none" stroke="#bfbfbf" points="616.5,-112.5 616.5,-131.5 665.5,-131.5 665.5,-112.5 616.5,-112.5"/>
<text text-anchor="middle" x="641" y="-119.5" font-family="Helvetica,sans-Serif" font-size="10.00">cstdlib</text>
</g>
<!-- Node11&#45;&gt;Node14 -->
<g id="edge14" class="edge"><title>Node11&#45;&gt;Node14</title>
<path fill="none" stroke="midnightblue" d="M563.781,-168.324C578.267,-159.822 600.573,-146.729 617.493,-136.797"/>
<polygon fill="midnightblue" stroke="midnightblue" points="619.403,-139.735 626.255,-131.655 615.859,-133.698 619.403,-139.735"/>
</g>
<!-- Node15 -->
<g id="node15" class="node"><title>Node15</title>
<polygon fill="none" stroke="#bfbfbf" points="218,-112.5 218,-131.5 268,-131.5 268,-112.5 218,-112.5"/>
<text text-anchor="middle" x="243" y="-119.5" font-family="Helvetica,sans-Serif" font-size="10.00">cstring</text>
</g>
<!-- Node11&#45;&gt;Node15 -->
<g id="edge15" class="edge"><title>Node11&#45;&gt;Node15</title>
<path fill="none" stroke="midnightblue" d="M519.445,-173.047C471.024,-166.37 371.614,-151.818 278.091,-132.068"/>
<polygon fill="midnightblue" stroke="midnightblue" points="278.698,-128.618 268.187,-129.952 277.235,-135.464 278.698,-128.618"/>
</g>
<!-- Node16 -->
<g id="node16" class="node"><title>Node16</title>
<g id="a_node16"><a xlink:href="debug_8hpp.html" target="_top" xlink:title="This file controls debug facilities. ">
<polygon fill="none" stroke="black" points="286,-112.5 286,-131.5 354,-131.5 354,-112.5 286,-112.5"/>
<text text-anchor="middle" x="320" y="-119.5" font-family="Helvetica,sans-Serif" font-size="10.00">debug.hpp</text>
</a>
</g>
</g>
<!-- Node11&#45;&gt;Node16 -->
<g id="edge17" class="edge"><title>Node11&#45;&gt;Node16</title>
<path fill="none" stroke="midnightblue" d="M519.062,-169.94C479.5,-160.611 409.507,-144.106 363.943,-133.362"/>
<polygon fill="midnightblue" stroke="midnightblue" points="364.584,-129.917 354.048,-131.029 362.978,-136.731 364.584,-129.917"/>
</g>
<!-- Node17 -->
<g id="node17" class="node"><title>Node17</title>
<g id="a_node17"><a xlink:href="lees__edwards_8hpp.html" target="_top" xlink:title="lees_edwards.hpp">
<polygon fill="none" stroke="black" points="456,-112.5 456,-131.5 560,-131.5 560,-112.5 456,-112.5"/>
<text text-anchor="middle" x="508" y="-119.5" font-family="Helvetica,sans-Serif" font-size="10.00">lees_edwards.hpp</text>
</a>
</g>
</g>
<!-- Node11&#45;&gt;Node17 -->
<g id="edge19" class="edge"><title>Node11&#45;&gt;Node17</title>
<path fill="none" stroke="midnightblue" d="M542.23,-168.083C536.438,-160.455 527.942,-149.264 520.862,-139.941"/>
<polygon fill="midnightblue" stroke="midnightblue" points="523.479,-137.599 514.644,-131.751 517.904,-141.832 523.479,-137.599"/>
</g>
<!-- Node18 -->
<g id="node18" class="node"><title>Node18</title>
<g id="a_node18"><a xlink:href="errorhandling_8hpp.html" target="_top" xlink:title="This file contains the errorhandling code for severe errors, like a broken bond or illegal parameter ...">
<polygon fill="none" stroke="black" points="20.5,-112.5 20.5,-131.5 123.5,-131.5 123.5,-112.5 20.5,-112.5"/>
<text text-anchor="middle" x="72" y="-119.5" font-family="Helvetica,sans-Serif" font-size="10.00">errorhandling.hpp</text>
</a>
</g>
</g>
<!-- Node11&#45;&gt;Node18 -->
<g id="edge21" class="edge"><title>Node11&#45;&gt;Node18</title>
<path fill="none" stroke="midnightblue" d="M519.162,-173.622C442.477,-164.941 237.285,-141.712 133.673,-129.982"/>
<polygon fill="midnightblue" stroke="midnightblue" points="133.999,-126.497 123.669,-128.849 133.212,-133.452 133.999,-126.497"/>
</g>
<!-- Node22 -->
<g id="node22" class="node"><title>Node22</title>
<polygon fill="none" stroke="#bfbfbf" points="786.5,-112.5 786.5,-131.5 833.5,-131.5 833.5,-112.5 786.5,-112.5"/>
<text text-anchor="middle" x="810" y="-119.5" font-family="Helvetica,sans-Serif" font-size="10.00">vector</text>
</g>
<!-- Node11&#45;&gt;Node22 -->
<g id="edge26" class="edge"><title>Node11&#45;&gt;Node22</title>
<path fill="none" stroke="midnightblue" d="M578.686,-170.858C627.685,-160.72 725.167,-140.552 776.538,-129.923"/>
<polygon fill="midnightblue" stroke="midnightblue" points="777.384,-133.322 786.468,-127.869 775.966,-126.467 777.384,-133.322"/>
</g>
<!-- Node23 -->
<g id="node23" class="node"><title>Node23</title>
<polygon fill="none" stroke="#bfbfbf" points="372.5,-112.5 372.5,-131.5 437.5,-131.5 437.5,-112.5 372.5,-112.5"/>
<text text-anchor="middle" x="405" y="-119.5" font-family="Helvetica,sans-Serif" font-size="10.00">exception</text>
</g>
<!-- Node11&#45;&gt;Node23 -->
<g id="edge27" class="edge"><title>Node11&#45;&gt;Node23</title>
<path fill="none" stroke="midnightblue" d="M526.183,-168.444C502.168,-159.438 464.171,-145.189 437.131,-135.049"/>
<polygon fill="midnightblue" stroke="midnightblue" points="438.303,-131.751 427.71,-131.516 435.845,-138.305 438.303,-131.751"/>
</g>
<!-- Node16&#45;&gt;Node2 -->
<g id="edge18" class="edge"><title>Node16&#45;&gt;Node2</title>
<path fill="none" stroke="midnightblue" d="M349.789,-112.444C381.829,-103.241 432.933,-88.5617 468.353,-78.3879"/>
<polygon fill="midnightblue" stroke="midnightblue" points="469.705,-81.6412 478.35,-75.5164 467.773,-74.9132 469.705,-81.6412"/>
</g>
<!-- Node17&#45;&gt;Node2 -->
<g id="edge20" class="edge"><title>Node17&#45;&gt;Node2</title>
<path fill="none" stroke="midnightblue" d="M508,-112.083C508,-105.006 508,-94.8611 508,-85.9865"/>
<polygon fill="midnightblue" stroke="midnightblue" points="511.5,-85.751 508,-75.7511 504.5,-85.7511 511.5,-85.751"/>
</g>
<!-- Node18&#45;&gt;Node2 -->
<g id="edge22" class="edge"><title>Node18&#45;&gt;Node2</title>
<path fill="none" stroke="midnightblue" d="M123.513,-113.902C128.408,-113.25 133.298,-112.607 138,-112 255.815,-96.8035 394.924,-80.2616 464.204,-72.1182"/>
<polygon fill="midnightblue" stroke="midnightblue" points="464.786,-75.5741 474.309,-70.9318 463.969,-68.6218 464.786,-75.5741"/>
</g>
<!-- Node19 -->
<g id="node19" class="node"><title>Node19</title>
<polygon fill="none" stroke="#bfbfbf" points="50,-56.5 50,-75.5 94,-75.5 94,-56.5 50,-56.5"/>
<text text-anchor="middle" x="72" y="-63.5" font-family="Helvetica,sans-Serif" font-size="10.00">string</text>
</g>
<!-- Node18&#45;&gt;Node19 -->
<g id="edge23" class="edge"><title>Node18&#45;&gt;Node19</title>
<path fill="none" stroke="midnightblue" d="M72,-112.083C72,-105.006 72,-94.8611 72,-85.9865"/>
<polygon fill="midnightblue" stroke="midnightblue" points="75.5001,-85.751 72,-75.7511 68.5001,-85.7511 75.5001,-85.751"/>
</g>
<!-- Node20 -->
<g id="node20" class="node"><title>Node20</title>
<polygon fill="none" stroke="#bfbfbf" points="112,-56.5 112,-75.5 168,-75.5 168,-56.5 112,-56.5"/>
<text text-anchor="middle" x="140" y="-63.5" font-family="Helvetica,sans-Serif" font-size="10.00">sstream</text>
</g>
<!-- Node18&#45;&gt;Node20 -->
<g id="edge24" class="edge"><title>Node18&#45;&gt;Node20</title>
<path fill="none" stroke="midnightblue" d="M82.9254,-112.324C93.1746,-104.185 108.721,-91.8395 121.001,-82.0874"/>
<polygon fill="midnightblue" stroke="midnightblue" points="123.221,-84.7937 128.876,-75.8339 118.868,-79.3119 123.221,-84.7937"/>
</g>
<!-- Node21 -->
<g id="node21" class="node"><title>Node21</title>
<polygon fill="none" stroke="#bfbfbf" points="0,-56.5 0,-75.5 32,-75.5 32,-56.5 0,-56.5"/>
<text text-anchor="middle" x="16" y="-63.5" font-family="Helvetica,sans-Serif" font-size="10.00">list</text>
</g>
<!-- Node18&#45;&gt;Node21 -->
<g id="edge25" class="edge"><title>Node18&#45;&gt;Node21</title>
<path fill="none" stroke="midnightblue" d="M63.0026,-112.324C54.8056,-104.42 42.4945,-92.5482 32.528,-82.9377"/>
<polygon fill="midnightblue" stroke="midnightblue" points="34.789,-80.2558 25.1611,-75.8339 29.9301,-85.2947 34.789,-80.2558"/>
</g>
<!-- Node25 -->
<g id="node25" class="node"><title>Node25</title>
<g id="a_node25"><a xlink:href="particle__data_8hpp.html" target="_top" xlink:title="For more information on particle_data, see particle_data.c. ">
<polygon fill="none" stroke="black" points="498.5,-224.5 498.5,-243.5 599.5,-243.5 599.5,-224.5 498.5,-224.5"/>
<text text-anchor="middle" x="549" y="-231.5" font-family="Helvetica,sans-Serif" font-size="10.00">particle_data.hpp</text>
</a>
</g>
</g>
<!-- Node24&#45;&gt;Node25 -->
<g id="edge29" class="edge"><title>Node24&#45;&gt;Node25</title>
<path fill="none" stroke="midnightblue" d="M490.893,-336.382C506.111,-328.997 525.926,-316.867 537,-300 545.955,-286.36 548.664,-267.82 549.303,-254.031"/>
<polygon fill="midnightblue" stroke="midnightblue" points="552.806,-253.825 549.445,-243.777 545.807,-253.728 552.806,-253.825"/>
</g>
<!-- Node26 -->
<g id="node26" class="node"><title>Node26</title>
<g id="a_node26"><a xlink:href="interaction__data_8hpp.html" target="_top" xlink:title="Various procedures concerning interactions between particles. ">
<polygon fill="none" stroke="black" points="411.5,-280.5 411.5,-299.5 528.5,-299.5 528.5,-280.5 411.5,-280.5"/>
<text text-anchor="middle" x="470" y="-287.5" font-family="Helvetica,sans-Serif" font-size="10.00">interaction_data.hpp</text>
</a>
</g>
</g>
<!-- Node24&#45;&gt;Node26 -->
<g id="edge31" class="edge"><title>Node24&#45;&gt;Node26</title>
<path fill="none" stroke="midnightblue" d="M470,-336.083C470,-329.006 470,-318.861 470,-309.986"/>
<polygon fill="midnightblue" stroke="midnightblue" points="473.5,-309.751 470,-299.751 466.5,-309.751 473.5,-309.751"/>
</g>
<!-- Node25&#45;&gt;Node11 -->
<g id="edge30" class="edge"><title>Node25&#45;&gt;Node11</title>
<path fill="none" stroke="midnightblue" d="M549,-224.083C549,-217.006 549,-206.861 549,-197.986"/>
<polygon fill="midnightblue" stroke="midnightblue" points="552.5,-197.751 549,-187.751 545.5,-197.751 552.5,-197.751"/>
</g>
<!-- Node26&#45;&gt;Node11 -->
<g id="edge32" class="edge"><title>Node26&#45;&gt;Node11</title>
<path fill="none" stroke="midnightblue" d="M470.791,-280.255C472.352,-267.022 476.815,-241.589 489,-224 497.804,-211.291 511.348,-200.691 523.342,-192.977"/>
<polygon fill="midnightblue" stroke="midnightblue" points="525.376,-195.837 532.107,-187.654 521.743,-189.854 525.376,-195.837"/>
</g>
<!-- Node26&#45;&gt;Node25 -->
<g id="edge33" class="edge"><title>Node26&#45;&gt;Node25</title>
<path fill="none" stroke="midnightblue" d="M482.693,-280.324C494.901,-271.979 513.578,-259.212 528.003,-249.352"/>
<polygon fill="midnightblue" stroke="midnightblue" points="530.058,-252.187 536.339,-243.655 526.108,-246.408 530.058,-252.187"/>
</g>
<!-- Node27&#45;&gt;Node9 -->
<g id="edge35" class="edge"><title>Node27&#45;&gt;Node9</title>
<path fill="none" stroke="midnightblue" d="M377.711,-504.399C378.111,-496.466 378.616,-486.458 379.049,-477.858"/>
<polygon fill="midnightblue" stroke="midnightblue" points="382.555,-477.821 379.563,-467.658 375.564,-477.469 382.555,-477.821"/>
</g>
<!-- Node28&#45;&gt;Node2 -->
<g id="edge38" class="edge"><title>Node28&#45;&gt;Node2</title>
<path fill="none" stroke="midnightblue" d="M759.788,-285.019C822.665,-277.086 955.295,-258.799 970,-244 1011.82,-201.909 1029.96,-155.864 990,-112 960.773,-79.9178 664.93,-70.3114 551.731,-67.7973"/>
<polygon fill="midnightblue" stroke="midnightblue" points="551.75,-64.297 541.677,-67.5821 551.6,-71.2954 551.75,-64.297"/>
</g>
<!-- Node28&#45;&gt;Node11 -->
<g id="edge37" class="edge"><title>Node28&#45;&gt;Node11</title>
<path fill="none" stroke="midnightblue" d="M710.863,-280.375C694.562,-271.557 668.75,-257.305 647,-244 619.787,-227.353 589.284,-206.812 569.646,-193.332"/>
<polygon fill="midnightblue" stroke="midnightblue" points="571.409,-190.296 561.189,-187.503 567.436,-196.06 571.409,-190.296"/>
</g>
<!-- Node29 -->
<g id="node29" class="node"><title>Node29</title>
<g id="a_node29"><a xlink:href="statistics__observable_8hpp.html" target="_top" xlink:title="statistics_observable.hpp">
<polygon fill="none" stroke="black" points="656.5,-224.5 656.5,-243.5 797.5,-243.5 797.5,-224.5 656.5,-224.5"/>
<text text-anchor="middle" x="727" y="-231.5" font-family="Helvetica,sans-Serif" font-size="10.00">statistics_observable.hpp</text>
</a>
</g>
</g>
<!-- Node28&#45;&gt;Node29 -->
<g id="edge39" class="edge"><title>Node28&#45;&gt;Node29</title>
<path fill="none" stroke="midnightblue" d="M727,-280.083C727,-273.006 727,-262.861 727,-253.986"/>
<polygon fill="midnightblue" stroke="midnightblue" points="730.5,-253.751 727,-243.751 723.5,-253.751 730.5,-253.751"/>
</g>
<!-- Node29&#45;&gt;Node2 -->
<g id="edge40" class="edge"><title>Node29&#45;&gt;Node2</title>
<path fill="none" stroke="midnightblue" d="M731.516,-224.483C742.27,-202.898 766.52,-145.398 739,-112 715.728,-83.757 611.915,-73.0058 551.674,-69.0958"/>
<polygon fill="midnightblue" stroke="midnightblue" points="551.876,-65.6017 541.681,-68.4839 551.448,-72.5886 551.876,-65.6017"/>
</g>
<!-- Node29&#45;&gt;Node11 -->
<g id="edge41" class="edge"><title>Node29&#45;&gt;Node11</title>
<path fill="none" stroke="midnightblue" d="M698.795,-224.444C668.59,-215.28 620.489,-200.688 586.971,-190.519"/>
<polygon fill="midnightblue" stroke="midnightblue" points="587.658,-187.07 577.073,-187.516 585.626,-193.769 587.658,-187.07"/>
</g>
<!-- Node29&#45;&gt;Node12 -->
<g id="edge44" class="edge"><title>Node29&#45;&gt;Node12</title>
<path fill="none" stroke="midnightblue" d="M738.613,-224.368C763.794,-205.653 823.67,-161.151 855.044,-137.832"/>
<polygon fill="midnightblue" stroke="midnightblue" points="857.503,-140.366 863.441,-131.591 853.327,-134.748 857.503,-140.366"/>
</g>
<!-- Node29&#45;&gt;Node13 -->
<g id="edge42" class="edge"><title>Node29&#45;&gt;Node13</title>
<path fill="none" stroke="midnightblue" d="M725.431,-224.368C722.203,-206.617 714.758,-165.666 710.381,-141.597"/>
<polygon fill="midnightblue" stroke="midnightblue" points="713.795,-140.804 708.562,-131.591 706.907,-142.056 713.795,-140.804"/>
</g>
<!-- Node29&#45;&gt;Node14 -->
<g id="edge43" class="edge"><title>Node29&#45;&gt;Node14</title>
<path fill="none" stroke="midnightblue" d="M720.252,-224.368C705.996,-206.135 672.606,-163.426 654.037,-139.675"/>
<polygon fill="midnightblue" stroke="midnightblue" points="656.634,-137.314 647.717,-131.591 651.119,-141.625 656.634,-137.314"/>
</g>
<!-- Node30&#45;&gt;Node2 -->
<g id="edge46" class="edge"><title>Node30&#45;&gt;Node2</title>
<path fill="none" stroke="midnightblue" d="M928.518,-280.472C947.897,-273.197 973.852,-261.167 992,-244 1035.01,-203.31 1054.99,-150.487 1010,-112 975.543,-82.5259 667.779,-71.2797 551.883,-68.0667"/>
<polygon fill="midnightblue" stroke="midnightblue" points="551.694,-64.5604 541.603,-67.7889 551.505,-71.5578 551.694,-64.5604"/>
</g>
<!-- Node31 -->
<g id="node31" class="node"><title>Node31</title>
<g id="a_node31"><a xlink:href="SystemInterface_8hpp.html" target="_top" xlink:title="SystemInterface.hpp">
<polygon fill="none" stroke="black" points="843,-224.5 843,-243.5 961,-243.5 961,-224.5 843,-224.5"/>
<text text-anchor="middle" x="902" y="-231.5" font-family="Helvetica,sans-Serif" font-size="10.00">SystemInterface.hpp</text>
</a>
</g>
</g>
<!-- Node30&#45;&gt;Node31 -->
<g id="edge47" class="edge"><title>Node30&#45;&gt;Node31</title>
<path fill="none" stroke="midnightblue" d="M902,-280.083C902,-273.006 902,-262.861 902,-253.986"/>
<polygon fill="midnightblue" stroke="midnightblue" points="905.5,-253.751 902,-243.751 898.5,-253.751 905.5,-253.751"/>
</g>
<!-- Node31&#45;&gt;Node22 -->
<g id="edge51" class="edge"><title>Node31&#45;&gt;Node22</title>
<path fill="none" stroke="midnightblue" d="M894.781,-224.368C879.464,-206.055 843.495,-163.049 823.685,-139.362"/>
<polygon fill="midnightblue" stroke="midnightblue" points="826.286,-137.017 817.186,-131.591 820.916,-141.508 826.286,-137.017"/>
</g>
<!-- Node32 -->
<g id="node32" class="node"><title>Node32</title>
<g id="a_node32"><a xlink:href="Vector_8hpp.html" target="_top" xlink:title="Vector.hpp">
<polygon fill="none" stroke="black" points="876,-168.5 876,-187.5 944,-187.5 944,-168.5 876,-168.5"/>
<text text-anchor="middle" x="910" y="-175.5" font-family="Helvetica,sans-Serif" font-size="10.00">Vector.hpp</text>
</a>
</g>
</g>
<!-- Node31&#45;&gt;Node32 -->
<g id="edge48" class="edge"><title>Node31&#45;&gt;Node32</title>
<path fill="none" stroke="midnightblue" d="M903.321,-224.083C904.381,-216.927 905.906,-206.635 907.231,-197.691"/>
<polygon fill="midnightblue" stroke="midnightblue" points="910.7,-198.156 908.704,-187.751 903.776,-197.13 910.7,-198.156"/>
</g>
<!-- Node32&#45;&gt;Node12 -->
<g id="edge50" class="edge"><title>Node32&#45;&gt;Node12</title>
<path fill="none" stroke="midnightblue" d="M904.22,-168.083C899.328,-160.534 892.173,-149.495 886.167,-140.23"/>
<polygon fill="midnightblue" stroke="midnightblue" points="889.048,-138.239 880.672,-131.751 883.174,-142.046 889.048,-138.239"/>
</g>
<!-- Node33 -->
<g id="node33" class="node"><title>Node33</title>
<polygon fill="none" stroke="#bfbfbf" points="917,-112.5 917,-131.5 981,-131.5 981,-112.5 917,-112.5"/>
<text text-anchor="middle" x="949" y="-119.5" font-family="Helvetica,sans-Serif" font-size="10.00">algorithm</text>
</g>
<!-- Node32&#45;&gt;Node33 -->
<g id="edge49" class="edge"><title>Node32&#45;&gt;Node33</title>
<path fill="none" stroke="midnightblue" d="M916.44,-168.083C921.949,-160.455 930.031,-149.264 936.765,-139.941"/>
<polygon fill="midnightblue" stroke="midnightblue" points="939.662,-141.907 942.68,-131.751 933.987,-137.809 939.662,-141.907"/>
</g>
<!-- Node34&#45;&gt;Node7 -->
<g id="edge53" class="edge"><title>Node34&#45;&gt;Node7</title>
<path fill="none" stroke="midnightblue" d="M630.825,-509.975C618.429,-500.52 598.21,-485.096 583.254,-473.687"/>
<polygon fill="midnightblue" stroke="midnightblue" points="585.228,-470.791 575.155,-467.509 580.983,-476.357 585.228,-470.791"/>
</g>
<!-- Node35 -->
<g id="node35" class="node"><title>Node35</title>
<polygon fill="none" stroke="#bfbfbf" points="607,-448.5 607,-467.5 699,-467.5 699,-448.5 607,-448.5"/>
<text text-anchor="middle" x="653" y="-455.5" font-family="Helvetica,sans-Serif" font-size="10.00">cuda_runtime.h</text>
</g>
<!-- Node34&#45;&gt;Node35 -->
<g id="edge54" class="edge"><title>Node34&#45;&gt;Node35</title>
<path fill="none" stroke="midnightblue" d="M643.576,-509.975C645.128,-501.58 647.55,-488.481 649.55,-477.663"/>
<polygon fill="midnightblue" stroke="midnightblue" points="653.051,-477.979 651.427,-467.509 646.167,-476.706 653.051,-477.979"/>
</g>
</g>
</svg>
