<?xml version="1.0" encoding="UTF-8" standalone="no"?>
<!DOCTYPE svg PUBLIC "-//W3C//DTD SVG 1.1//EN"
 "http://www.w3.org/Graphics/SVG/1.1/DTD/svg11.dtd">
<!-- Generated by graphviz version 2.38.0 (20140413.2041)
 -->
<!-- Title: lees_edwards_domain_decomposition.hpp Pages: 1 -->
<svg width="645pt" height="106pt"
 viewBox="0.00 0.00 645.00 106.00" xmlns="http://www.w3.org/2000/svg" xmlns:xlink="http://www.w3.org/1999/xlink">
<g id="graph0" class="graph" transform="scale(1 1) rotate(0) translate(4 102)">
<title>lees_edwards_domain_decomposition.hpp</title>
<!-- Node1 -->
<g id="node1" class="node"><title>Node1</title>
<polygon fill="#bfbfbf" stroke="black" points="236,-67.5 236,-97.5 361,-97.5 361,-67.5 236,-67.5"/>
<text text-anchor="start" x="244" y="-85.5" font-family="Helvetica,sans-Serif" font-size="10.00">lees_edwards_domain</text>
<text text-anchor="middle" x="298.5" y="-74.5" font-family="Helvetica,sans-Serif" font-size="10.00">_decomposition.hpp</text>
</g>
<!-- Node2 -->
<g id="node2" class="node"><title>Node2</title>
<g id="a_node2"><a xlink:href="cells_8cpp.html" target="_top" xlink:title="This file contains functions for the cell system. ">
<polygon fill="none" stroke="black" points="0,-6 0,-25 59,-25 59,-6 0,-6"/>
<text text-anchor="middle" x="29.5" y="-13" font-family="Helvetica,sans-Serif" font-size="10.00">cells.cpp</text>
</a>
</g>
</g>
<!-- Node1&#45;&gt;Node2 -->
<g id="edge1" class="edge"><title>Node1&#45;&gt;Node2</title>
<path fill="none" stroke="midnightblue" d="M225.749,-68.4882C179.908,-59.5798 119.725,-46.5778 67.5,-31 61.8161,-29.3046 55.7709,-27.1606 50.2135,-25.045"/>
<polygon fill="midnightblue" stroke="midnightblue" points="225.118,-71.931 235.599,-70.3825 226.44,-65.0569 225.118,-71.931"/>
</g>
<!-- Node3 -->
<g id="node3" class="node"><title>Node3</title>
<g id="a_node3"><a xlink:href="domain__decomposition_8cpp.html" target="_top" xlink:title="This file contains everything related to the cell system: domain decomposition. ">
<polygon fill="none" stroke="black" points="77,-6 77,-25 228,-25 228,-6 77,-6"/>
<text text-anchor="middle" x="152.5" y="-13" font-family="Helvetica,sans-Serif" font-size="10.00">domain_decomposition.cpp</text>
</a>
</g>
</g>
<!-- Node1&#45;&gt;Node3 -->
<g id="edge2" class="edge"><title>Node1&#45;&gt;Node3</title>
<path fill="none" stroke="midnightblue" d="M257.609,-63.2952C229.454,-50.7602 193.34,-34.682 171.608,-25.007"/>
<polygon fill="midnightblue" stroke="midnightblue" points="256.261,-66.5262 266.82,-67.396 259.108,-60.1313 256.261,-66.5262"/>
</g>
<!-- Node4 -->
<g id="node4" class="node"><title>Node4</title>
<g id="a_node4"><a xlink:href="lees__edwards_8cpp.html" target="_top" xlink:title="lees_edwards.cpp">
<polygon fill="none" stroke="black" points="246.5,-6 246.5,-25 350.5,-25 350.5,-6 246.5,-6"/>
<text text-anchor="middle" x="298.5" y="-13" font-family="Helvetica,sans-Serif" font-size="10.00">lees_edwards.cpp</text>
</a>
</g>
</g>
<!-- Node1&#45;&gt;Node4 -->
<g id="edge3" class="edge"><title>Node1&#45;&gt;Node4</title>
<path fill="none" stroke="midnightblue" d="M298.5,-57.2495C298.5,-46.017 298.5,-33.3767 298.5,-25.1945"/>
<polygon fill="midnightblue" stroke="midnightblue" points="295,-57.3959 298.5,-67.396 302,-57.396 295,-57.3959"/>
</g>
<!-- Node5 -->
<g id="node5" class="node"><title>Node5</title>
<g id="a_node5"><a xlink:href="lees__edwards__comms__manager_8cpp.html" target="_top" xlink:title="This file defined methods for a class to hold some state for Lees&#45;Edwards Comms updates. ">
<polygon fill="none" stroke="black" points="369,-0.5 369,-30.5 494,-30.5 494,-0.5 369,-0.5"/>
<text text-anchor="start" x="377" y="-18.5" font-family="Helvetica,sans-Serif" font-size="10.00">lees_edwards_comms</text>
<text text-anchor="middle" x="431.5" y="-7.5" font-family="Helvetica,sans-Serif" font-size="10.00">_manager.cpp</text>
</a>
</g>
</g>
<!-- Node1&#45;&gt;Node5 -->
<g id="edge4" class="edge"><title>Node1&#45;&gt;Node5</title>
<path fill="none" stroke="midnightblue" d="M336.37,-62.9921C357.451,-52.6892 383.277,-40.0677 402.697,-30.5765"/>
<polygon fill="midnightblue" stroke="midnightblue" points="334.807,-59.8605 327.359,-67.396 337.88,-66.1496 334.807,-59.8605"/>
</g>
<!-- Node6 -->
<g id="node6" class="node"><title>Node6</title>
<g id="a_node6"><a xlink:href="lees__edwards__domain__decomposition_8cpp.html" target="_top" xlink:title="This file contains modifications to the domain decomposition functions which are specific to Lees&#45;Edw...">
<polygon fill="none" stroke="black" points="512,-0.5 512,-30.5 637,-30.5 637,-0.5 512,-0.5"/>
<text text-anchor="start" x="520" y="-18.5" font-family="Helvetica,sans-Serif" font-size="10.00">lees_edwards_domain</text>
<text text-anchor="middle" x="574.5" y="-7.5" font-family="Helvetica,sans-Serif" font-size="10.00">_decomposition.cpp</text>
</a>
</g>
</g>
<!-- Node1&#45;&gt;Node6 -->
<g id="edge5" class="edge"><title>Node1&#45;&gt;Node6</title>
<path fill="none" stroke="midnightblue" d="M368.058,-65.1186C413.22,-54.4827 471.477,-40.7628 514.583,-30.6109"/>
<polygon fill="midnightblue" stroke="midnightblue" points="366.979,-61.7768 358.048,-67.476 368.584,-68.5904 366.979,-61.7768"/>
</g>
</g>
</svg>
