<?xml version="1.0" encoding="UTF-8" standalone="no"?>
<!DOCTYPE svg PUBLIC "-//W3C//DTD SVG 1.1//EN"
 "http://www.w3.org/Graphics/SVG/1.1/DTD/svg11.dtd">
<!-- Generated by graphviz version 2.38.0 (20140413.2041)
 -->
<!-- Title: lj_tcl.hpp Pages: 1 -->
<svg width="374pt" height="84pt"
 viewBox="0.00 0.00 373.50 84.00" xmlns="http://www.w3.org/2000/svg" xmlns:xlink="http://www.w3.org/1999/xlink">
<g id="graph0" class="graph" transform="scale(1 1) rotate(0) translate(4 80)">
<title>lj_tcl.hpp</title>
<!-- Node1 -->
<g id="node1" class="node"><title>Node1</title>
<polygon fill="#bfbfbf" stroke="black" points="190,-56.5 190,-75.5 251,-75.5 251,-56.5 190,-56.5"/>
<text text-anchor="middle" x="220.5" y="-63.5" font-family="Helvetica,sans-Serif" font-size="10.00">lj_tcl.hpp</text>
</g>
<!-- Node2 -->
<g id="node2" class="node"><title>Node2</title>
<g id="a_node2"><a xlink:href="initialize__interpreter_8cpp.html" target="_top" xlink:title="initialize_interpreter.cpp">
<polygon fill="none" stroke="black" points="0,-0.5 0,-19.5 135,-19.5 135,-0.5 0,-0.5"/>
<text text-anchor="middle" x="67.5" y="-7.5" font-family="Helvetica,sans-Serif" font-size="10.00">initialize_interpreter.cpp</text>
</a>
</g>
</g>
<!-- Node1&#45;&gt;Node2 -->
<g id="edge1" class="edge"><title>Node1&#45;&gt;Node2</title>
<path fill="none" stroke="midnightblue" d="M186.611,-53.0392C157.823,-42.8786 117.213,-28.5457 91.6299,-19.5164"/>
<polygon fill="midnightblue" stroke="midnightblue" points="185.662,-56.4157 196.257,-56.4435 187.992,-49.8148 185.662,-56.4157"/>
</g>
<!-- Node3 -->
<g id="node3" class="node"><title>Node3</title>
<g id="a_node3"><a xlink:href="interaction__data__tcl_8cpp.html" target="_top" xlink:title="interaction_data_tcl.cpp">
<polygon fill="none" stroke="black" points="153.5,-0.5 153.5,-19.5 287.5,-19.5 287.5,-0.5 153.5,-0.5"/>
<text text-anchor="middle" x="220.5" y="-7.5" font-family="Helvetica,sans-Serif" font-size="10.00">interaction_data_tcl.cpp</text>
</a>
</g>
</g>
<!-- Node1&#45;&gt;Node3 -->
<g id="edge2" class="edge"><title>Node1&#45;&gt;Node3</title>
<path fill="none" stroke="midnightblue" d="M220.5,-45.8045C220.5,-36.9102 220.5,-26.7798 220.5,-19.7511"/>
<polygon fill="midnightblue" stroke="midnightblue" points="217,-46.083 220.5,-56.083 224,-46.083 217,-46.083"/>
</g>
<!-- Node4 -->
<g id="node4" class="node"><title>Node4</title>
<g id="a_node4"><a xlink:href="lj__tcl_8cpp.html" target="_top" xlink:title="lj_tcl.cpp">
<polygon fill="none" stroke="black" points="305.5,-0.5 305.5,-19.5 365.5,-19.5 365.5,-0.5 305.5,-0.5"/>
<text text-anchor="middle" x="335.5" y="-7.5" font-family="Helvetica,sans-Serif" font-size="10.00">lj_tcl.cpp</text>
</a>
</g>
</g>
<!-- Node1&#45;&gt;Node4 -->
<g id="edge3" class="edge"><title>Node1&#45;&gt;Node4</title>
<path fill="none" stroke="midnightblue" d="M247.981,-52.096C269.466,-42.0073 298.722,-28.2697 317.363,-19.5164"/>
<polygon fill="midnightblue" stroke="midnightblue" points="246.286,-49.025 238.722,-56.4435 249.262,-55.3612 246.286,-49.025"/>
</g>
</g>
</svg>
