<?xml version="1.0" encoding="UTF-8" standalone="no"?>
<!DOCTYPE svg PUBLIC "-//W3C//DTD SVG 1.1//EN"
 "http://www.w3.org/Graphics/SVG/1.1/DTD/svg11.dtd">
<!-- Generated by graphviz version 2.38.0 (20140413.2041)
 -->
<!-- Title: ljangle.cpp Pages: 1 -->
<svg width="980pt" height="532pt"
 viewBox="0.00 0.00 980.00 532.00" xmlns="http://www.w3.org/2000/svg" xmlns:xlink="http://www.w3.org/1999/xlink">
<g id="graph0" class="graph" transform="scale(1 1) rotate(0) translate(4 528)">
<title>ljangle.cpp</title>
<!-- Node1 -->
<g id="node1" class="node"><title>Node1</title>
<polygon fill="#bfbfbf" stroke="black" points="455,-504.5 455,-523.5 525,-523.5 525,-504.5 455,-504.5"/>
<text text-anchor="middle" x="490" y="-511.5" font-family="Helvetica,sans-Serif" font-size="10.00">ljangle.cpp</text>
</g>
<!-- Node2 -->
<g id="node2" class="node"><title>Node2</title>
<g id="a_node2"><a xlink:href="utils_8hpp.html" target="_top" xlink:title="Small functions that are useful not only for one modul. ">
<polygon fill="none" stroke="black" points="494.5,-168.5 494.5,-187.5 553.5,-187.5 553.5,-168.5 494.5,-168.5"/>
<text text-anchor="middle" x="524" y="-175.5" font-family="Helvetica,sans-Serif" font-size="10.00">utils.hpp</text>
</a>
</g>
</g>
<!-- Node1&#45;&gt;Node2 -->
<g id="edge1" class="edge"><title>Node1&#45;&gt;Node2</title>
<path fill="none" stroke="midnightblue" d="M454.76,-512.622C342.408,-510.478 0,-496.29 0,-403 0,-403 0,-403 0,-289 0,-190.097 362.064,-179.613 484.267,-178.891"/>
<polygon fill="midnightblue" stroke="midnightblue" points="484.34,-182.391 494.326,-178.851 484.312,-175.391 484.34,-182.391"/>
</g>
<!-- Node3 -->
<g id="node3" class="node"><title>Node3</title>
<polygon fill="none" stroke="#bfbfbf" points="910.5,-112.5 910.5,-131.5 957.5,-131.5 957.5,-112.5 910.5,-112.5"/>
<text text-anchor="middle" x="934" y="-119.5" font-family="Helvetica,sans-Serif" font-size="10.00">cmath</text>
</g>
<!-- Node1&#45;&gt;Node3 -->
<g id="edge58" class="edge"><title>Node1&#45;&gt;Node3</title>
<path fill="none" stroke="midnightblue" d="M525.053,-512.496C635.969,-509.967 972,-494.733 972,-403 972,-403 972,-403 972,-233 972,-198.813 955.4,-161.764 944.143,-140.571"/>
<polygon fill="midnightblue" stroke="midnightblue" points="947.181,-138.832 939.284,-131.769 941.053,-142.215 947.181,-138.832"/>
</g>
<!-- Node19 -->
<g id="node19" class="node"><title>Node19</title>
<g id="a_node19"><a xlink:href="ljangle_8hpp.html" target="_top" xlink:title="Routines to calculate the lennard&#45;jones 12&#45;10 with angular dependance. ">
<polygon fill="none" stroke="black" points="454.5,-448.5 454.5,-467.5 525.5,-467.5 525.5,-448.5 454.5,-448.5"/>
<text text-anchor="middle" x="490" y="-455.5" font-family="Helvetica,sans-Serif" font-size="10.00">ljangle.hpp</text>
</a>
</g>
</g>
<!-- Node1&#45;&gt;Node19 -->
<g id="edge21" class="edge"><title>Node1&#45;&gt;Node19</title>
<path fill="none" stroke="midnightblue" d="M490,-504.083C490,-497.006 490,-486.861 490,-477.986"/>
<polygon fill="midnightblue" stroke="midnightblue" points="493.5,-477.751 490,-467.751 486.5,-477.751 493.5,-477.751"/>
</g>
<!-- Node20 -->
<g id="node20" class="node"><title>Node20</title>
<g id="a_node20"><a xlink:href="interaction__data_8hpp.html" target="_top" xlink:title="Various procedures concerning interactions between particles. ">
<polygon fill="none" stroke="black" points="190.5,-336.5 190.5,-355.5 307.5,-355.5 307.5,-336.5 190.5,-336.5"/>
<text text-anchor="middle" x="249" y="-343.5" font-family="Helvetica,sans-Serif" font-size="10.00">interaction_data.hpp</text>
</a>
</g>
</g>
<!-- Node1&#45;&gt;Node20 -->
<g id="edge59" class="edge"><title>Node1&#45;&gt;Node20</title>
<path fill="none" stroke="midnightblue" d="M454.733,-508.458C402.66,-499.743 306.182,-475.526 258,-412 248.005,-398.821 246.452,-379.684 246.981,-365.586"/>
<polygon fill="midnightblue" stroke="midnightblue" points="250.474,-365.802 247.729,-355.569 243.494,-365.281 250.474,-365.802"/>
</g>
<!-- Node28 -->
<g id="node28" class="node"><title>Node28</title>
<g id="a_node28"><a xlink:href="communication_8hpp.html" target="_top" xlink:title="This file contains the asynchronous MPI communication. ">
<polygon fill="none" stroke="black" points="662.5,-280.5 662.5,-299.5 775.5,-299.5 775.5,-280.5 662.5,-280.5"/>
<text text-anchor="middle" x="719" y="-287.5" font-family="Helvetica,sans-Serif" font-size="10.00">communication.hpp</text>
</a>
</g>
</g>
<!-- Node1&#45;&gt;Node28 -->
<g id="edge60" class="edge"><title>Node1&#45;&gt;Node28</title>
<path fill="none" stroke="midnightblue" d="M509.302,-504.382C541.281,-489.356 605.893,-455.744 648,-412 678.151,-380.677 700.774,-334.207 711.708,-308.942"/>
<polygon fill="midnightblue" stroke="midnightblue" points="715.021,-310.093 715.667,-299.518 708.567,-307.382 715.021,-310.093"/>
</g>
<!-- Node2&#45;&gt;Node3 -->
<g id="edge2" class="edge"><title>Node2&#45;&gt;Node3</title>
<path fill="none" stroke="midnightblue" d="M553.764,-170.278C557.864,-169.453 562.029,-168.667 566,-168 629.959,-157.259 821.261,-135.543 899.786,-126.787"/>
<polygon fill="midnightblue" stroke="midnightblue" points="900.541,-130.225 910.093,-125.64 899.767,-123.268 900.541,-130.225"/>
</g>
<!-- Node4 -->
<g id="node4" class="node"><title>Node4</title>
<polygon fill="none" stroke="#bfbfbf" points="190,-112.5 190,-131.5 236,-131.5 236,-112.5 190,-112.5"/>
<text text-anchor="middle" x="213" y="-119.5" font-family="Helvetica,sans-Serif" font-size="10.00">cstdio</text>
</g>
<!-- Node2&#45;&gt;Node4 -->
<g id="edge3" class="edge"><title>Node2&#45;&gt;Node4</title>
<path fill="none" stroke="midnightblue" d="M494.468,-173.366C445.017,-167.038 342.2,-152.847 246.205,-132.062"/>
<polygon fill="midnightblue" stroke="midnightblue" points="246.859,-128.622 236.341,-129.897 245.358,-135.459 246.859,-128.622"/>
</g>
<!-- Node5 -->
<g id="node5" class="node"><title>Node5</title>
<polygon fill="none" stroke="#bfbfbf" points="254.5,-112.5 254.5,-131.5 303.5,-131.5 303.5,-112.5 254.5,-112.5"/>
<text text-anchor="middle" x="279" y="-119.5" font-family="Helvetica,sans-Serif" font-size="10.00">cstdlib</text>
</g>
<!-- Node2&#45;&gt;Node5 -->
<g id="edge4" class="edge"><title>Node2&#45;&gt;Node5</title>
<path fill="none" stroke="midnightblue" d="M494.196,-171.119C455.075,-163.297 384.052,-148.742 313.758,-132.09"/>
<polygon fill="midnightblue" stroke="midnightblue" points="314.386,-128.641 303.847,-129.726 312.763,-135.45 314.386,-128.641"/>
</g>
<!-- Node6 -->
<g id="node6" class="node"><title>Node6</title>
<polygon fill="none" stroke="#bfbfbf" points="444,-112.5 444,-131.5 494,-131.5 494,-112.5 444,-112.5"/>
<text text-anchor="middle" x="469" y="-119.5" font-family="Helvetica,sans-Serif" font-size="10.00">cstring</text>
</g>
<!-- Node2&#45;&gt;Node6 -->
<g id="edge5" class="edge"><title>Node2&#45;&gt;Node6</title>
<path fill="none" stroke="midnightblue" d="M514.918,-168.083C506.829,-160.141 494.805,-148.335 485.09,-138.797"/>
<polygon fill="midnightblue" stroke="midnightblue" points="487.501,-136.26 477.913,-131.751 482.597,-141.254 487.501,-136.26"/>
</g>
<!-- Node7 -->
<g id="node7" class="node"><title>Node7</title>
<g id="a_node7"><a xlink:href="config_8hpp.html" target="_top" xlink:title="This file contains the defaults for Espresso. ">
<polygon fill="none" stroke="black" points="340.5,-56.5 340.5,-75.5 407.5,-75.5 407.5,-56.5 340.5,-56.5"/>
<text text-anchor="middle" x="374" y="-63.5" font-family="Helvetica,sans-Serif" font-size="10.00">config.hpp</text>
</a>
</g>
</g>
<!-- Node2&#45;&gt;Node7 -->
<g id="edge6" class="edge"><title>Node2&#45;&gt;Node7</title>
<path fill="none" stroke="midnightblue" d="M543.032,-168.378C567.085,-156.311 603.374,-133.449 586,-112 565.253,-86.387 473.601,-74.7549 417.819,-69.9638"/>
<polygon fill="midnightblue" stroke="midnightblue" points="417.761,-66.4475 407.509,-69.1208 417.19,-73.4242 417.761,-66.4475"/>
</g>
<!-- Node11 -->
<g id="node11" class="node"><title>Node11</title>
<g id="a_node11"><a xlink:href="debug_8hpp.html" target="_top" xlink:title="This file controls debug facilities. ">
<polygon fill="none" stroke="black" points="104,-112.5 104,-131.5 172,-131.5 172,-112.5 104,-112.5"/>
<text text-anchor="middle" x="138" y="-119.5" font-family="Helvetica,sans-Serif" font-size="10.00">debug.hpp</text>
</a>
</g>
</g>
<!-- Node2&#45;&gt;Node11 -->
<g id="edge10" class="edge"><title>Node2&#45;&gt;Node11</title>
<path fill="none" stroke="midnightblue" d="M494.064,-173.846C435.96,-167.559 303.66,-152.435 182.42,-132.132"/>
<polygon fill="midnightblue" stroke="midnightblue" points="182.667,-128.624 172.223,-130.407 181.499,-135.526 182.667,-128.624"/>
</g>
<!-- Node12 -->
<g id="node12" class="node"><title>Node12</title>
<g id="a_node12"><a xlink:href="lees__edwards_8hpp.html" target="_top" xlink:title="lees_edwards.hpp">
<polygon fill="none" stroke="black" points="322,-112.5 322,-131.5 426,-131.5 426,-112.5 322,-112.5"/>
<text text-anchor="middle" x="374" y="-119.5" font-family="Helvetica,sans-Serif" font-size="10.00">lees_edwards.hpp</text>
</a>
</g>
</g>
<!-- Node2&#45;&gt;Node12 -->
<g id="edge12" class="edge"><title>Node2&#45;&gt;Node12</title>
<path fill="none" stroke="midnightblue" d="M500.232,-168.444C475.107,-159.399 435.289,-145.064 407.1,-134.916"/>
<polygon fill="midnightblue" stroke="midnightblue" points="408.251,-131.611 397.657,-131.516 405.88,-138.197 408.251,-131.611"/>
</g>
<!-- Node13 -->
<g id="node13" class="node"><title>Node13</title>
<g id="a_node13"><a xlink:href="errorhandling_8hpp.html" target="_top" xlink:title="This file contains the errorhandling code for severe errors, like a broken bond or illegal parameter ...">
<polygon fill="none" stroke="black" points="738.5,-112.5 738.5,-131.5 841.5,-131.5 841.5,-112.5 738.5,-112.5"/>
<text text-anchor="middle" x="790" y="-119.5" font-family="Helvetica,sans-Serif" font-size="10.00">errorhandling.hpp</text>
</a>
</g>
</g>
<!-- Node2&#45;&gt;Node13 -->
<g id="edge14" class="edge"><title>Node2&#45;&gt;Node13</title>
<path fill="none" stroke="midnightblue" d="M553.817,-170.561C557.909,-169.692 562.057,-168.818 566,-168 624.313,-155.895 691.277,-142.51 736.686,-133.51"/>
<polygon fill="midnightblue" stroke="midnightblue" points="737.476,-136.922 746.606,-131.546 736.116,-130.055 737.476,-136.922"/>
</g>
<!-- Node17 -->
<g id="node17" class="node"><title>Node17</title>
<polygon fill="none" stroke="#bfbfbf" points="634.5,-112.5 634.5,-131.5 681.5,-131.5 681.5,-112.5 634.5,-112.5"/>
<text text-anchor="middle" x="658" y="-119.5" font-family="Helvetica,sans-Serif" font-size="10.00">vector</text>
</g>
<!-- Node2&#45;&gt;Node17 -->
<g id="edge19" class="edge"><title>Node2&#45;&gt;Node17</title>
<path fill="none" stroke="midnightblue" d="M545.233,-168.444C567.384,-159.517 602.319,-145.439 627.436,-135.317"/>
<polygon fill="midnightblue" stroke="midnightblue" points="628.9,-138.501 636.867,-131.516 626.283,-132.008 628.9,-138.501"/>
</g>
<!-- Node18 -->
<g id="node18" class="node"><title>Node18</title>
<polygon fill="none" stroke="#bfbfbf" points="512.5,-112.5 512.5,-131.5 577.5,-131.5 577.5,-112.5 512.5,-112.5"/>
<text text-anchor="middle" x="545" y="-119.5" font-family="Helvetica,sans-Serif" font-size="10.00">exception</text>
</g>
<!-- Node2&#45;&gt;Node18 -->
<g id="edge20" class="edge"><title>Node2&#45;&gt;Node18</title>
<path fill="none" stroke="midnightblue" d="M527.468,-168.083C530.312,-160.77 534.429,-150.181 537.96,-141.103"/>
<polygon fill="midnightblue" stroke="midnightblue" points="541.234,-142.34 541.597,-131.751 534.71,-139.803 541.234,-142.34"/>
</g>
<!-- Node8 -->
<g id="node8" class="node"><title>Node8</title>
<g id="a_node8"><a xlink:href="acconfig_8hpp.html" target="_top" xlink:title="acconfig.hpp">
<polygon fill="none" stroke="black" points="224,-0.5 224,-19.5 302,-19.5 302,-0.5 224,-0.5"/>
<text text-anchor="middle" x="263" y="-7.5" font-family="Helvetica,sans-Serif" font-size="10.00">acconfig.hpp</text>
</a>
</g>
</g>
<!-- Node7&#45;&gt;Node8 -->
<g id="edge7" class="edge"><title>Node7&#45;&gt;Node8</title>
<path fill="none" stroke="midnightblue" d="M356.166,-56.324C338.284,-47.6247 310.525,-34.1202 289.954,-24.113"/>
<polygon fill="midnightblue" stroke="midnightblue" points="291.313,-20.8819 280.79,-19.6545 288.251,-27.1765 291.313,-20.8819"/>
</g>
<!-- Node9 -->
<g id="node9" class="node"><title>Node9</title>
<g id="a_node9"><a xlink:href="myconfig-final_8hpp.html" target="_top" xlink:title="myconfig&#45;final.hpp">
<polygon fill="none" stroke="black" points="320.5,-0.5 320.5,-19.5 427.5,-19.5 427.5,-0.5 320.5,-0.5"/>
<text text-anchor="middle" x="374" y="-7.5" font-family="Helvetica,sans-Serif" font-size="10.00">myconfig&#45;final.hpp</text>
</a>
</g>
</g>
<!-- Node7&#45;&gt;Node9 -->
<g id="edge8" class="edge"><title>Node7&#45;&gt;Node9</title>
<path fill="none" stroke="midnightblue" d="M374,-56.083C374,-49.0059 374,-38.8611 374,-29.9865"/>
<polygon fill="midnightblue" stroke="midnightblue" points="377.5,-29.751 374,-19.7511 370.5,-29.7511 377.5,-29.751"/>
</g>
<!-- Node10 -->
<g id="node10" class="node"><title>Node10</title>
<g id="a_node10"><a xlink:href="config-features_8hpp.html" target="_top" xlink:title="config&#45;features.hpp">
<polygon fill="none" stroke="black" points="445.5,-0.5 445.5,-19.5 556.5,-19.5 556.5,-0.5 445.5,-0.5"/>
<text text-anchor="middle" x="501" y="-7.5" font-family="Helvetica,sans-Serif" font-size="10.00">config&#45;features.hpp</text>
</a>
</g>
</g>
<!-- Node7&#45;&gt;Node10 -->
<g id="edge9" class="edge"><title>Node7&#45;&gt;Node10</title>
<path fill="none" stroke="midnightblue" d="M394.124,-56.4435C415.024,-47.5566 447.935,-33.5632 471.716,-23.4514"/>
<polygon fill="midnightblue" stroke="midnightblue" points="473.138,-26.6504 480.971,-19.5164 470.398,-20.2085 473.138,-26.6504"/>
</g>
<!-- Node11&#45;&gt;Node7 -->
<g id="edge11" class="edge"><title>Node11&#45;&gt;Node7</title>
<path fill="none" stroke="midnightblue" d="M172.064,-113.206C213.837,-103.647 284.707,-87.4315 330.413,-76.9733"/>
<polygon fill="midnightblue" stroke="midnightblue" points="331.361,-80.347 340.328,-74.7046 329.799,-73.5233 331.361,-80.347"/>
</g>
<!-- Node12&#45;&gt;Node7 -->
<g id="edge13" class="edge"><title>Node12&#45;&gt;Node7</title>
<path fill="none" stroke="midnightblue" d="M374,-112.083C374,-105.006 374,-94.8611 374,-85.9865"/>
<polygon fill="midnightblue" stroke="midnightblue" points="377.5,-85.751 374,-75.7511 370.5,-85.7511 377.5,-85.751"/>
</g>
<!-- Node13&#45;&gt;Node7 -->
<g id="edge15" class="edge"><title>Node13&#45;&gt;Node7</title>
<path fill="none" stroke="midnightblue" d="M738.482,-113.936C733.588,-113.277 728.7,-112.623 724,-112 613.89,-97.4142 484.196,-80.9179 417.884,-72.5327"/>
<polygon fill="midnightblue" stroke="midnightblue" points="418.158,-69.0396 407.798,-71.2581 417.281,-75.9844 418.158,-69.0396"/>
</g>
<!-- Node14 -->
<g id="node14" class="node"><title>Node14</title>
<polygon fill="none" stroke="#bfbfbf" points="700,-56.5 700,-75.5 744,-75.5 744,-56.5 700,-56.5"/>
<text text-anchor="middle" x="722" y="-63.5" font-family="Helvetica,sans-Serif" font-size="10.00">string</text>
</g>
<!-- Node13&#45;&gt;Node14 -->
<g id="edge16" class="edge"><title>Node13&#45;&gt;Node14</title>
<path fill="none" stroke="midnightblue" d="M779.075,-112.324C768.825,-104.185 753.279,-91.8395 740.999,-82.0874"/>
<polygon fill="midnightblue" stroke="midnightblue" points="743.132,-79.3119 733.124,-75.8339 738.779,-84.7937 743.132,-79.3119"/>
</g>
<!-- Node15 -->
<g id="node15" class="node"><title>Node15</title>
<polygon fill="none" stroke="#bfbfbf" points="762,-56.5 762,-75.5 818,-75.5 818,-56.5 762,-56.5"/>
<text text-anchor="middle" x="790" y="-63.5" font-family="Helvetica,sans-Serif" font-size="10.00">sstream</text>
</g>
<!-- Node13&#45;&gt;Node15 -->
<g id="edge17" class="edge"><title>Node13&#45;&gt;Node15</title>
<path fill="none" stroke="midnightblue" d="M790,-112.083C790,-105.006 790,-94.8611 790,-85.9865"/>
<polygon fill="midnightblue" stroke="midnightblue" points="793.5,-85.751 790,-75.7511 786.5,-85.7511 793.5,-85.751"/>
</g>
<!-- Node16 -->
<g id="node16" class="node"><title>Node16</title>
<polygon fill="none" stroke="#bfbfbf" points="836,-56.5 836,-75.5 868,-75.5 868,-56.5 836,-56.5"/>
<text text-anchor="middle" x="852" y="-63.5" font-family="Helvetica,sans-Serif" font-size="10.00">list</text>
</g>
<!-- Node13&#45;&gt;Node16 -->
<g id="edge18" class="edge"><title>Node13&#45;&gt;Node16</title>
<path fill="none" stroke="midnightblue" d="M799.961,-112.324C809.127,-104.341 822.937,-92.3128 834.028,-82.6529"/>
<polygon fill="midnightblue" stroke="midnightblue" points="836.615,-85.041 841.857,-75.8339 832.018,-79.7624 836.615,-85.041"/>
</g>
<!-- Node19&#45;&gt;Node2 -->
<g id="edge22" class="edge"><title>Node19&#45;&gt;Node2</title>
<path fill="none" stroke="midnightblue" d="M509.421,-448.329C538.793,-433.99 593.378,-402.253 615,-356 629.305,-325.401 627.479,-311.388 615,-280 606.869,-259.549 595.813,-260.276 581,-244 566.083,-227.61 549.411,-208.503 537.971,-195.266"/>
<polygon fill="midnightblue" stroke="midnightblue" points="540.46,-192.792 531.28,-187.502 535.157,-197.362 540.46,-192.792"/>
</g>
<!-- Node19&#45;&gt;Node3 -->
<g id="edge57" class="edge"><title>Node19&#45;&gt;Node3</title>
<path fill="none" stroke="midnightblue" d="M525.584,-455.797C630.943,-451.278 934,-430.98 934,-347 934,-347 934,-347 934,-233 934,-200.948 934,-163.643 934,-141.749"/>
<polygon fill="midnightblue" stroke="midnightblue" points="937.5,-141.558 934,-131.558 930.5,-141.558 937.5,-141.558"/>
</g>
<!-- Node19&#45;&gt;Node20 -->
<g id="edge23" class="edge"><title>Node19&#45;&gt;Node20</title>
<path fill="none" stroke="midnightblue" d="M454.445,-453.454C401.103,-447.491 303.757,-433.91 277,-412 262.909,-400.462 255.749,-380.495 252.217,-365.728"/>
<polygon fill="midnightblue" stroke="midnightblue" points="255.595,-364.774 250.169,-355.674 248.736,-366.172 255.595,-364.774"/>
</g>
<!-- Node21 -->
<g id="node21" class="node"><title>Node21</title>
<g id="a_node21"><a xlink:href="particle__data_8hpp.html" target="_top" xlink:title="For more information on particle_data, see particle_data.c. ">
<polygon fill="none" stroke="black" points="378.5,-224.5 378.5,-243.5 479.5,-243.5 479.5,-224.5 378.5,-224.5"/>
<text text-anchor="middle" x="429" y="-231.5" font-family="Helvetica,sans-Serif" font-size="10.00">particle_data.hpp</text>
</a>
</g>
</g>
<!-- Node19&#45;&gt;Node21 -->
<g id="edge27" class="edge"><title>Node19&#45;&gt;Node21</title>
<path fill="none" stroke="midnightblue" d="M488.603,-448.366C484.278,-422.431 470.121,-343.115 449,-280 445.948,-270.879 441.716,-261.084 437.93,-252.969"/>
<polygon fill="midnightblue" stroke="midnightblue" points="440.99,-251.256 433.497,-243.766 434.684,-254.294 440.99,-251.256"/>
</g>
<!-- Node22 -->
<g id="node22" class="node"><title>Node22</title>
<g id="a_node22"><a xlink:href="mol__cut_8hpp.html" target="_top" xlink:title="mol_cut.hpp">
<polygon fill="none" stroke="black" points="384.5,-392.5 384.5,-411.5 461.5,-411.5 461.5,-392.5 384.5,-392.5"/>
<text text-anchor="middle" x="423" y="-399.5" font-family="Helvetica,sans-Serif" font-size="10.00">mol_cut.hpp</text>
</a>
</g>
</g>
<!-- Node19&#45;&gt;Node22 -->
<g id="edge28" class="edge"><title>Node19&#45;&gt;Node22</title>
<path fill="none" stroke="midnightblue" d="M479.235,-448.324C469.234,-440.263 454.113,-428.077 442.07,-418.369"/>
<polygon fill="midnightblue" stroke="midnightblue" points="443.943,-415.384 433.961,-411.834 439.55,-420.834 443.943,-415.384"/>
</g>
<!-- Node26 -->
<g id="node26" class="node"><title>Node26</title>
<g id="a_node26"><a xlink:href="grid_8hpp.html" target="_top" xlink:title="Domain decomposition for parallel computing. ">
<polygon fill="none" stroke="black" points="550,-336.5 550,-355.5 606,-355.5 606,-336.5 550,-336.5"/>
<text text-anchor="middle" x="578" y="-343.5" font-family="Helvetica,sans-Serif" font-size="10.00">grid.hpp</text>
</a>
</g>
</g>
<!-- Node19&#45;&gt;Node26 -->
<g id="edge39" class="edge"><title>Node19&#45;&gt;Node26</title>
<path fill="none" stroke="midnightblue" d="M496.905,-448.368C511.492,-430.135 545.659,-387.426 564.66,-363.675"/>
<polygon fill="midnightblue" stroke="midnightblue" points="567.613,-365.587 571.127,-355.591 562.147,-361.214 567.613,-365.587"/>
</g>
<!-- Node36 -->
<g id="node36" class="node"><title>Node36</title>
<g id="a_node36"><a xlink:href="forcecap_8hpp.html" target="_top" xlink:title="forcecap.hpp">
<polygon fill="none" stroke="black" points="286,-392.5 286,-411.5 366,-411.5 366,-392.5 286,-392.5"/>
<text text-anchor="middle" x="326" y="-399.5" font-family="Helvetica,sans-Serif" font-size="10.00">forcecap.hpp</text>
</a>
</g>
</g>
<!-- Node19&#45;&gt;Node36 -->
<g id="edge56" class="edge"><title>Node19&#45;&gt;Node36</title>
<path fill="none" stroke="midnightblue" d="M464.014,-448.444C436.304,-439.32 392.248,-424.813 361.384,-414.651"/>
<polygon fill="midnightblue" stroke="midnightblue" points="362.458,-411.32 351.865,-411.516 360.268,-417.968 362.458,-411.32"/>
</g>
<!-- Node20&#45;&gt;Node2 -->
<g id="edge24" class="edge"><title>Node20&#45;&gt;Node2</title>
<path fill="none" stroke="midnightblue" d="M190.387,-343.919C120.772,-340.521 18.6043,-327.587 57,-280 110.758,-213.373 381.427,-188.527 484.271,-181.401"/>
<polygon fill="midnightblue" stroke="midnightblue" points="484.516,-184.893 494.258,-180.729 484.045,-177.908 484.516,-184.893"/>
</g>
<!-- Node20&#45;&gt;Node21 -->
<g id="edge25" class="edge"><title>Node20&#45;&gt;Node21</title>
<path fill="none" stroke="midnightblue" d="M276.43,-336.474C299.04,-328.781 331.431,-316.194 357,-300 378.883,-286.141 400.462,-265.471 414.202,-251.178"/>
<polygon fill="midnightblue" stroke="midnightblue" points="417.029,-253.281 421.33,-243.598 411.929,-248.485 417.029,-253.281"/>
</g>
<!-- Node21&#45;&gt;Node2 -->
<g id="edge26" class="edge"><title>Node21&#45;&gt;Node2</title>
<path fill="none" stroke="midnightblue" d="M444.263,-224.324C459.221,-215.822 482.255,-202.729 499.727,-192.797"/>
<polygon fill="midnightblue" stroke="midnightblue" points="501.81,-195.639 508.774,-187.655 498.351,-189.553 501.81,-195.639"/>
</g>
<!-- Node22&#45;&gt;Node20 -->
<g id="edge38" class="edge"><title>Node22&#45;&gt;Node20</title>
<path fill="none" stroke="midnightblue" d="M395.429,-392.444C365.903,-383.28 318.882,-368.688 286.117,-358.519"/>
<polygon fill="midnightblue" stroke="midnightblue" points="287.03,-355.138 276.442,-355.516 284.955,-361.823 287.03,-355.138"/>
</g>
<!-- Node22&#45;&gt;Node21 -->
<g id="edge37" class="edge"><title>Node22&#45;&gt;Node21</title>
<path fill="none" stroke="midnightblue" d="M425.482,-392.467C427.957,-383.485 431.585,-368.888 433,-356 436.962,-319.911 433.756,-277.435 431.252,-253.621"/>
<polygon fill="midnightblue" stroke="midnightblue" points="434.713,-253.084 430.113,-243.54 427.757,-253.87 434.713,-253.084"/>
</g>
<!-- Node23 -->
<g id="node23" class="node"><title>Node23</title>
<g id="a_node23"><a xlink:href="virtual__sites_8hpp.html" target="_top" xlink:title="This file contains routine to handle virtual sites Virtual sites are like particles, but they will be not integrated. ">
<polygon fill="none" stroke="black" points="326,-336.5 326,-355.5 424,-355.5 424,-336.5 326,-336.5"/>
<text text-anchor="middle" x="375" y="-343.5" font-family="Helvetica,sans-Serif" font-size="10.00">virtual_sites.hpp</text>
</a>
</g>
</g>
<!-- Node22&#45;&gt;Node23 -->
<g id="edge29" class="edge"><title>Node22&#45;&gt;Node23</title>
<path fill="none" stroke="midnightblue" d="M415.074,-392.083C408.154,-384.298 397.935,-372.801 389.548,-363.367"/>
<polygon fill="midnightblue" stroke="midnightblue" points="392.038,-360.9 382.779,-355.751 386.806,-365.55 392.038,-360.9"/>
</g>
<!-- Node23&#45;&gt;Node21 -->
<g id="edge30" class="edge"><title>Node23&#45;&gt;Node21</title>
<path fill="none" stroke="midnightblue" d="M379.237,-336.368C388.07,-318.376 408.603,-276.55 420.347,-252.627"/>
<polygon fill="midnightblue" stroke="midnightblue" points="423.517,-254.11 424.782,-243.591 417.234,-251.026 423.517,-254.11"/>
</g>
<!-- Node24 -->
<g id="node24" class="node"><title>Node24</title>
<g id="a_node24"><a xlink:href="virtual__sites__com_8hpp.html" target="_top" xlink:title="virtual_sites_com.hpp">
<polygon fill="none" stroke="black" points="66,-280.5 66,-299.5 190,-299.5 190,-280.5 66,-280.5"/>
<text text-anchor="middle" x="128" y="-287.5" font-family="Helvetica,sans-Serif" font-size="10.00">virtual_sites_com.hpp</text>
</a>
</g>
</g>
<!-- Node23&#45;&gt;Node24 -->
<g id="edge31" class="edge"><title>Node23&#45;&gt;Node24</title>
<path fill="none" stroke="midnightblue" d="M335.862,-336.444C292.774,-327.023 223.441,-311.866 176.829,-301.675"/>
<polygon fill="midnightblue" stroke="midnightblue" points="177.472,-298.233 166.955,-299.516 175.976,-305.072 177.472,-298.233"/>
</g>
<!-- Node25 -->
<g id="node25" class="node"><title>Node25</title>
<g id="a_node25"><a xlink:href="virtual__sites__relative_8hpp.html" target="_top" xlink:title="virtual_sites_relative.hpp">
<polygon fill="none" stroke="black" points="208,-280.5 208,-299.5 348,-299.5 348,-280.5 208,-280.5"/>
<text text-anchor="middle" x="278" y="-287.5" font-family="Helvetica,sans-Serif" font-size="10.00">virtual_sites_relative.hpp</text>
</a>
</g>
</g>
<!-- Node23&#45;&gt;Node25 -->
<g id="edge34" class="edge"><title>Node23&#45;&gt;Node25</title>
<path fill="none" stroke="midnightblue" d="M359.415,-336.324C344.001,-327.743 320.188,-314.486 302.29,-304.522"/>
<polygon fill="midnightblue" stroke="midnightblue" points="303.986,-301.461 293.546,-299.655 300.581,-307.577 303.986,-301.461"/>
</g>
<!-- Node24&#45;&gt;Node7 -->
<g id="edge32" class="edge"><title>Node24&#45;&gt;Node7</title>
<path fill="none" stroke="midnightblue" d="M121.042,-280.44C99.3043,-252.628 36.6909,-163.634 81,-112 112.545,-75.2406 256.123,-68.2097 329.917,-67.0631"/>
<polygon fill="midnightblue" stroke="midnightblue" points="330.321,-70.5584 340.277,-66.9338 330.234,-63.559 330.321,-70.5584"/>
</g>
<!-- Node24&#45;&gt;Node21 -->
<g id="edge33" class="edge"><title>Node24&#45;&gt;Node21</title>
<path fill="none" stroke="midnightblue" d="M175.694,-280.444C228.864,-270.905 314.824,-255.483 371.626,-245.293"/>
<polygon fill="midnightblue" stroke="midnightblue" points="372.304,-248.727 381.529,-243.516 371.068,-241.837 372.304,-248.727"/>
</g>
<!-- Node25&#45;&gt;Node7 -->
<g id="edge35" class="edge"><title>Node25&#45;&gt;Node7</title>
<path fill="none" stroke="midnightblue" d="M255.703,-280.404C194.98,-255.798 35.1044,-182.33 95,-112 124.653,-77.1812 259.08,-69.2103 329.954,-67.4494"/>
<polygon fill="midnightblue" stroke="midnightblue" points="330.422,-70.9402 340.344,-67.2245 330.27,-63.9418 330.422,-70.9402"/>
</g>
<!-- Node25&#45;&gt;Node21 -->
<g id="edge36" class="edge"><title>Node25&#45;&gt;Node21</title>
<path fill="none" stroke="midnightblue" d="M301.926,-280.444C327.219,-271.399 367.302,-257.064 395.68,-246.916"/>
<polygon fill="midnightblue" stroke="midnightblue" points="396.948,-250.179 405.186,-243.516 394.591,-243.588 396.948,-250.179"/>
</g>
<!-- Node26&#45;&gt;Node2 -->
<g id="edge40" class="edge"><title>Node26&#45;&gt;Node2</title>
<path fill="none" stroke="midnightblue" d="M570.389,-336.346C563.23,-327.731 552.775,-313.832 547,-300 532.633,-265.591 527.167,-221.914 525.142,-197.562"/>
<polygon fill="midnightblue" stroke="midnightblue" points="528.631,-197.281 524.417,-187.56 521.649,-197.787 528.631,-197.281"/>
</g>
<!-- Node26&#45;&gt;Node13 -->
<g id="edge55" class="edge"><title>Node26&#45;&gt;Node13</title>
<path fill="none" stroke="midnightblue" d="M606.114,-345.924C668.371,-346.205 816.719,-336.708 872,-244 889.323,-214.948 893.517,-196.936 876,-168 866.59,-152.455 849.847,-142.022 833.62,-135.151"/>
<polygon fill="midnightblue" stroke="midnightblue" points="834.774,-131.845 824.184,-131.507 832.251,-138.375 834.774,-131.845"/>
</g>
<!-- Node27 -->
<g id="node27" class="node"><title>Node27</title>
<polygon fill="none" stroke="#bfbfbf" points="556,-280.5 556,-299.5 606,-299.5 606,-280.5 556,-280.5"/>
<text text-anchor="middle" x="581" y="-287.5" font-family="Helvetica,sans-Serif" font-size="10.00">climits</text>
</g>
<!-- Node26&#45;&gt;Node27 -->
<g id="edge41" class="edge"><title>Node26&#45;&gt;Node27</title>
<path fill="none" stroke="midnightblue" d="M578.495,-336.083C578.889,-329.006 579.452,-318.861 579.945,-309.986"/>
<polygon fill="midnightblue" stroke="midnightblue" points="583.454,-309.93 580.514,-299.751 576.464,-309.542 583.454,-309.93"/>
</g>
<!-- Node26&#45;&gt;Node28 -->
<g id="edge42" class="edge"><title>Node26&#45;&gt;Node28</title>
<path fill="none" stroke="midnightblue" d="M600.342,-336.444C623.753,-327.478 660.736,-313.314 687.19,-303.183"/>
<polygon fill="midnightblue" stroke="midnightblue" points="688.676,-306.361 696.763,-299.516 686.172,-299.824 688.676,-306.361"/>
</g>
<!-- Node28&#45;&gt;Node21 -->
<g id="edge43" class="edge"><title>Node28&#45;&gt;Node21</title>
<path fill="none" stroke="midnightblue" d="M673.049,-280.444C621.929,-270.925 539.346,-255.547 484.617,-245.356"/>
<polygon fill="midnightblue" stroke="midnightblue" points="485.208,-241.906 474.736,-243.516 483.927,-248.788 485.208,-241.906"/>
</g>
<!-- Node29 -->
<g id="node29" class="node"><title>Node29</title>
<g id="a_node29"><a xlink:href="random_8hpp.html" target="_top" xlink:title="A random generator. ">
<polygon fill="none" stroke="black" points="590.5,-224.5 590.5,-243.5 665.5,-243.5 665.5,-224.5 590.5,-224.5"/>
<text text-anchor="middle" x="628" y="-231.5" font-family="Helvetica,sans-Serif" font-size="10.00">random.hpp</text>
</a>
</g>
</g>
<!-- Node28&#45;&gt;Node29 -->
<g id="edge44" class="edge"><title>Node28&#45;&gt;Node29</title>
<path fill="none" stroke="midnightblue" d="M704.379,-280.324C690.051,-271.822 667.987,-258.729 651.251,-248.797"/>
<polygon fill="midnightblue" stroke="midnightblue" points="652.97,-245.748 642.584,-243.655 649.398,-251.768 652.97,-245.748"/>
</g>
<!-- Node30 -->
<g id="node30" class="node"><title>Node30</title>
<g id="a_node30"><a xlink:href="topology_8hpp.html" target="_top" xlink:title="This file contains functions for handling the system topology. ">
<polygon fill="none" stroke="black" points="683.5,-224.5 683.5,-243.5 762.5,-243.5 762.5,-224.5 683.5,-224.5"/>
<text text-anchor="middle" x="723" y="-231.5" font-family="Helvetica,sans-Serif" font-size="10.00">topology.hpp</text>
</a>
</g>
</g>
<!-- Node28&#45;&gt;Node30 -->
<g id="edge46" class="edge"><title>Node28&#45;&gt;Node30</title>
<path fill="none" stroke="midnightblue" d="M719.661,-280.083C720.185,-273.006 720.936,-262.861 721.594,-253.986"/>
<polygon fill="midnightblue" stroke="midnightblue" points="725.103,-253.982 722.352,-243.751 718.123,-253.465 725.103,-253.982"/>
</g>
<!-- Node31 -->
<g id="node31" class="node"><title>Node31</title>
<g id="a_node31"><a xlink:href="mpi_8h.html" target="_top" xlink:title="This is the MPIfake implementation. ">
<polygon fill="none" stroke="black" points="819,-224.5 819,-243.5 863,-243.5 863,-224.5 819,-224.5"/>
<text text-anchor="middle" x="841" y="-231.5" font-family="Helvetica,sans-Serif" font-size="10.00">mpi.h</text>
</a>
</g>
</g>
<!-- Node28&#45;&gt;Node31 -->
<g id="edge48" class="edge"><title>Node28&#45;&gt;Node31</title>
<path fill="none" stroke="midnightblue" d="M738.331,-280.444C758.32,-271.596 789.743,-257.687 812.564,-247.586"/>
<polygon fill="midnightblue" stroke="midnightblue" points="814.032,-250.764 821.759,-243.516 811.198,-244.363 814.032,-250.764"/>
</g>
<!-- Node35 -->
<g id="node35" class="node"><title>Node35</title>
<g id="a_node35"><a xlink:href="cuda__init_8hpp.html" target="_top" xlink:title="cuda_init.hpp">
<polygon fill="none" stroke="black" points="575,-168.5 575,-187.5 657,-187.5 657,-168.5 575,-168.5"/>
<text text-anchor="middle" x="616" y="-175.5" font-family="Helvetica,sans-Serif" font-size="10.00">cuda_init.hpp</text>
</a>
</g>
</g>
<!-- Node28&#45;&gt;Node35 -->
<g id="edge52" class="edge"><title>Node28&#45;&gt;Node35</title>
<path fill="none" stroke="midnightblue" d="M734.843,-280.303C755.273,-267.959 786.447,-244.569 771,-224 764.346,-215.14 706.739,-200.048 663.685,-189.809"/>
<polygon fill="midnightblue" stroke="midnightblue" points="664.456,-186.395 653.92,-187.51 662.851,-193.209 664.456,-186.395"/>
</g>
<!-- Node29&#45;&gt;Node2 -->
<g id="edge45" class="edge"><title>Node29&#45;&gt;Node2</title>
<path fill="none" stroke="midnightblue" d="M611.291,-224.324C594.688,-215.703 568.998,-202.364 549.78,-192.386"/>
<polygon fill="midnightblue" stroke="midnightblue" points="551.156,-189.156 540.668,-187.655 547.93,-195.369 551.156,-189.156"/>
</g>
<!-- Node30&#45;&gt;Node2 -->
<g id="edge47" class="edge"><title>Node30&#45;&gt;Node2</title>
<path fill="none" stroke="midnightblue" d="M691.468,-224.444C656.907,-215.065 601.389,-200 563.841,-189.811"/>
<polygon fill="midnightblue" stroke="midnightblue" points="564.327,-186.317 553.76,-187.075 562.494,-193.072 564.327,-186.317"/>
</g>
<!-- Node32 -->
<g id="node32" class="node"><title>Node32</title>
<polygon fill="none" stroke="#bfbfbf" points="814.5,-168.5 814.5,-187.5 867.5,-187.5 867.5,-168.5 814.5,-168.5"/>
<text text-anchor="middle" x="841" y="-175.5" font-family="Helvetica,sans-Serif" font-size="10.00">string.h</text>
</g>
<!-- Node31&#45;&gt;Node32 -->
<g id="edge49" class="edge"><title>Node31&#45;&gt;Node32</title>
<path fill="none" stroke="midnightblue" d="M841,-224.083C841,-217.006 841,-206.861 841,-197.986"/>
<polygon fill="midnightblue" stroke="midnightblue" points="844.5,-197.751 841,-187.751 837.5,-197.751 844.5,-197.751"/>
</g>
<!-- Node33 -->
<g id="node33" class="node"><title>Node33</title>
<polygon fill="none" stroke="#bfbfbf" points="675,-168.5 675,-187.5 725,-187.5 725,-168.5 675,-168.5"/>
<text text-anchor="middle" x="700" y="-175.5" font-family="Helvetica,sans-Serif" font-size="10.00">stdio.h</text>
</g>
<!-- Node31&#45;&gt;Node33 -->
<g id="edge50" class="edge"><title>Node31&#45;&gt;Node33</title>
<path fill="none" stroke="midnightblue" d="M818.969,-224.562C795.618,-215.62 758.517,-201.411 731.955,-191.238"/>
<polygon fill="midnightblue" stroke="midnightblue" points="732.932,-187.864 722.342,-187.556 730.429,-194.401 732.932,-187.864"/>
</g>
<!-- Node34 -->
<g id="node34" class="node"><title>Node34</title>
<polygon fill="none" stroke="#bfbfbf" points="743.5,-168.5 743.5,-187.5 796.5,-187.5 796.5,-168.5 743.5,-168.5"/>
<text text-anchor="middle" x="770" y="-175.5" font-family="Helvetica,sans-Serif" font-size="10.00">stdlib.h</text>
</g>
<!-- Node31&#45;&gt;Node34 -->
<g id="edge51" class="edge"><title>Node31&#45;&gt;Node34</title>
<path fill="none" stroke="midnightblue" d="M829.593,-224.324C818.891,-216.185 802.659,-203.839 789.837,-194.087"/>
<polygon fill="midnightblue" stroke="midnightblue" points="791.693,-191.102 781.615,-187.834 787.456,-196.673 791.693,-191.102"/>
</g>
<!-- Node35&#45;&gt;Node7 -->
<g id="edge53" class="edge"><title>Node35&#45;&gt;Node7</title>
<path fill="none" stroke="midnightblue" d="M639.427,-168.384C667.83,-156.677 709.611,-134.602 690,-112 655.243,-71.9433 495.808,-66.6297 417.564,-66.4984"/>
<polygon fill="midnightblue" stroke="midnightblue" points="417.53,-62.9983 407.534,-66.5094 417.538,-69.9983 417.53,-62.9983"/>
</g>
<!-- Node35&#45;&gt;Node17 -->
<g id="edge54" class="edge"><title>Node35&#45;&gt;Node17</title>
<path fill="none" stroke="midnightblue" d="M622.935,-168.083C628.929,-160.377 637.752,-149.033 645.048,-139.653"/>
<polygon fill="midnightblue" stroke="midnightblue" points="647.817,-141.793 651.194,-131.751 642.291,-137.496 647.817,-141.793"/>
</g>
</g>
</svg>
