<?xml version="1.0" encoding="UTF-8" standalone="no"?>
<!DOCTYPE svg PUBLIC "-//W3C//DTD SVG 1.1//EN"
 "http://www.w3.org/Graphics/SVG/1.1/DTD/svg11.dtd">
<!-- Generated by graphviz version 2.38.0 (20140413.2041)
 -->
<!-- Title: ljcos.cpp Pages: 1 -->
<svg width="944pt" height="532pt"
 viewBox="0.00 0.00 944.00 532.00" xmlns="http://www.w3.org/2000/svg" xmlns:xlink="http://www.w3.org/1999/xlink">
<g id="graph0" class="graph" transform="scale(1 1) rotate(0) translate(4 528)">
<title>ljcos.cpp</title>
<!-- Node1 -->
<g id="node1" class="node"><title>Node1</title>
<polygon fill="#bfbfbf" stroke="black" points="231.5,-504.5 231.5,-523.5 290.5,-523.5 290.5,-504.5 231.5,-504.5"/>
<text text-anchor="middle" x="261" y="-511.5" font-family="Helvetica,sans-Serif" font-size="10.00">ljcos.cpp</text>
</g>
<!-- Node2 -->
<g id="node2" class="node"><title>Node2</title>
<g id="a_node2"><a xlink:href="utils_8hpp.html" target="_top" xlink:title="Small functions that are useful not only for one modul. ">
<polygon fill="none" stroke="black" points="375.5,-168.5 375.5,-187.5 434.5,-187.5 434.5,-168.5 375.5,-168.5"/>
<text text-anchor="middle" x="405" y="-175.5" font-family="Helvetica,sans-Serif" font-size="10.00">utils.hpp</text>
</a>
</g>
</g>
<!-- Node1&#45;&gt;Node2 -->
<g id="edge1" class="edge"><title>Node1&#45;&gt;Node2</title>
<path fill="none" stroke="midnightblue" d="M247.343,-504.242C223.316,-487.641 176,-449.097 176,-403 176,-403 176,-403 176,-289 176,-258.902 172.952,-244.488 195,-224 219.326,-201.395 311.469,-188.461 365.278,-182.684"/>
<polygon fill="midnightblue" stroke="midnightblue" points="365.912,-186.137 375.497,-181.623 365.189,-179.174 365.912,-186.137"/>
</g>
<!-- Node19 -->
<g id="node19" class="node"><title>Node19</title>
<g id="a_node19"><a xlink:href="ljcos_8hpp.html" target="_top" xlink:title="Routines to calculate the lennard jones+cosine energy and/or force for a particle pair...">
<polygon fill="none" stroke="black" points="387,-448.5 387,-467.5 447,-467.5 447,-448.5 387,-448.5"/>
<text text-anchor="middle" x="417" y="-455.5" font-family="Helvetica,sans-Serif" font-size="10.00">ljcos.hpp</text>
</a>
</g>
</g>
<!-- Node1&#45;&gt;Node19 -->
<g id="edge21" class="edge"><title>Node1&#45;&gt;Node19</title>
<path fill="none" stroke="midnightblue" d="M285.719,-504.444C311.848,-495.399 353.259,-481.064 382.576,-470.916"/>
<polygon fill="midnightblue" stroke="midnightblue" points="384.092,-474.095 392.397,-467.516 381.802,-467.48 384.092,-474.095"/>
</g>
<!-- Node26 -->
<g id="node26" class="node"><title>Node26</title>
<g id="a_node26"><a xlink:href="communication_8hpp.html" target="_top" xlink:title="This file contains the asynchronous MPI communication. ">
<polygon fill="none" stroke="black" points="204.5,-280.5 204.5,-299.5 317.5,-299.5 317.5,-280.5 204.5,-280.5"/>
<text text-anchor="middle" x="261" y="-287.5" font-family="Helvetica,sans-Serif" font-size="10.00">communication.hpp</text>
</a>
</g>
</g>
<!-- Node1&#45;&gt;Node26 -->
<g id="edge39" class="edge"><title>Node1&#45;&gt;Node26</title>
<path fill="none" stroke="midnightblue" d="M261,-504.297C261,-471.633 261,-355.866 261,-309.957"/>
<polygon fill="midnightblue" stroke="midnightblue" points="264.5,-309.884 261,-299.884 257.5,-309.884 264.5,-309.884"/>
</g>
<!-- Node3 -->
<g id="node3" class="node"><title>Node3</title>
<polygon fill="none" stroke="#bfbfbf" points="381.5,-112.5 381.5,-131.5 428.5,-131.5 428.5,-112.5 381.5,-112.5"/>
<text text-anchor="middle" x="405" y="-119.5" font-family="Helvetica,sans-Serif" font-size="10.00">cmath</text>
</g>
<!-- Node2&#45;&gt;Node3 -->
<g id="edge2" class="edge"><title>Node2&#45;&gt;Node3</title>
<path fill="none" stroke="midnightblue" d="M405,-168.083C405,-161.006 405,-150.861 405,-141.986"/>
<polygon fill="midnightblue" stroke="midnightblue" points="408.5,-141.751 405,-131.751 401.5,-141.751 408.5,-141.751"/>
</g>
<!-- Node4 -->
<g id="node4" class="node"><title>Node4</title>
<polygon fill="none" stroke="#bfbfbf" points="530,-112.5 530,-131.5 576,-131.5 576,-112.5 530,-112.5"/>
<text text-anchor="middle" x="553" y="-119.5" font-family="Helvetica,sans-Serif" font-size="10.00">cstdio</text>
</g>
<!-- Node2&#45;&gt;Node4 -->
<g id="edge3" class="edge"><title>Node2&#45;&gt;Node4</title>
<path fill="none" stroke="midnightblue" d="M428.451,-168.444C453.133,-159.438 492.185,-145.189 519.977,-135.049"/>
<polygon fill="midnightblue" stroke="midnightblue" points="521.464,-138.232 529.659,-131.516 519.065,-131.656 521.464,-138.232"/>
</g>
<!-- Node5 -->
<g id="node5" class="node"><title>Node5</title>
<polygon fill="none" stroke="#bfbfbf" points="594.5,-112.5 594.5,-131.5 643.5,-131.5 643.5,-112.5 594.5,-112.5"/>
<text text-anchor="middle" x="619" y="-119.5" font-family="Helvetica,sans-Serif" font-size="10.00">cstdlib</text>
</g>
<!-- Node2&#45;&gt;Node5 -->
<g id="edge4" class="edge"><title>Node2&#45;&gt;Node5</title>
<path fill="none" stroke="midnightblue" d="M434.653,-169.72C468.474,-161.387 525.682,-147.204 584.638,-132.066"/>
<polygon fill="midnightblue" stroke="midnightblue" points="585.684,-135.411 594.497,-129.529 583.94,-128.631 585.684,-135.411"/>
</g>
<!-- Node6 -->
<g id="node6" class="node"><title>Node6</title>
<polygon fill="none" stroke="#bfbfbf" points="662,-112.5 662,-131.5 712,-131.5 712,-112.5 662,-112.5"/>
<text text-anchor="middle" x="687" y="-119.5" font-family="Helvetica,sans-Serif" font-size="10.00">cstring</text>
</g>
<!-- Node2&#45;&gt;Node6 -->
<g id="edge5" class="edge"><title>Node2&#45;&gt;Node6</title>
<path fill="none" stroke="midnightblue" d="M434.793,-172.279C481.348,-164.743 574.087,-149.092 652,-132 652.1,-131.978 652.199,-131.956 652.299,-131.934"/>
<polygon fill="midnightblue" stroke="midnightblue" points="652.878,-135.393 661.816,-129.705 651.282,-128.578 652.878,-135.393"/>
</g>
<!-- Node7 -->
<g id="node7" class="node"><title>Node7</title>
<g id="a_node7"><a xlink:href="config_8hpp.html" target="_top" xlink:title="This file contains the defaults for Espresso. ">
<polygon fill="none" stroke="black" points="277.5,-56.5 277.5,-75.5 344.5,-75.5 344.5,-56.5 277.5,-56.5"/>
<text text-anchor="middle" x="311" y="-63.5" font-family="Helvetica,sans-Serif" font-size="10.00">config.hpp</text>
</a>
</g>
</g>
<!-- Node2&#45;&gt;Node7 -->
<g id="edge6" class="edge"><title>Node2&#45;&gt;Node7</title>
<path fill="none" stroke="midnightblue" d="M375.101,-173.557C313.577,-166.172 177.427,-148.167 164,-132 132.679,-94.289 213.572,-77.7254 267.417,-71.0439"/>
<polygon fill="midnightblue" stroke="midnightblue" points="267.927,-74.5083 277.453,-69.8722 267.115,-67.5555 267.927,-74.5083"/>
</g>
<!-- Node11 -->
<g id="node11" class="node"><title>Node11</title>
<g id="a_node11"><a xlink:href="debug_8hpp.html" target="_top" xlink:title="This file controls debug facilities. ">
<polygon fill="none" stroke="black" points="173,-112.5 173,-131.5 241,-131.5 241,-112.5 173,-112.5"/>
<text text-anchor="middle" x="207" y="-119.5" font-family="Helvetica,sans-Serif" font-size="10.00">debug.hpp</text>
</a>
</g>
</g>
<!-- Node2&#45;&gt;Node11 -->
<g id="edge10" class="edge"><title>Node2&#45;&gt;Node11</title>
<path fill="none" stroke="midnightblue" d="M375.357,-168.916C341.588,-159.706 286.18,-144.595 248.216,-134.241"/>
<polygon fill="midnightblue" stroke="midnightblue" points="249.053,-130.841 238.484,-131.587 247.211,-137.594 249.053,-130.841"/>
</g>
<!-- Node12 -->
<g id="node12" class="node"><title>Node12</title>
<g id="a_node12"><a xlink:href="lees__edwards_8hpp.html" target="_top" xlink:title="lees_edwards.hpp">
<polygon fill="none" stroke="black" points="259,-112.5 259,-131.5 363,-131.5 363,-112.5 259,-112.5"/>
<text text-anchor="middle" x="311" y="-119.5" font-family="Helvetica,sans-Serif" font-size="10.00">lees_edwards.hpp</text>
</a>
</g>
</g>
<!-- Node2&#45;&gt;Node12 -->
<g id="edge12" class="edge"><title>Node2&#45;&gt;Node12</title>
<path fill="none" stroke="midnightblue" d="M389.897,-168.324C375.097,-159.822 352.306,-146.729 335.018,-136.797"/>
<polygon fill="midnightblue" stroke="midnightblue" points="336.48,-133.601 326.065,-131.655 332.993,-139.671 336.48,-133.601"/>
</g>
<!-- Node13 -->
<g id="node13" class="node"><title>Node13</title>
<g id="a_node13"><a xlink:href="errorhandling_8hpp.html" target="_top" xlink:title="This file contains the errorhandling code for severe errors, like a broken bond or illegal parameter ...">
<polygon fill="none" stroke="black" points="806.5,-112.5 806.5,-131.5 909.5,-131.5 909.5,-112.5 806.5,-112.5"/>
<text text-anchor="middle" x="858" y="-119.5" font-family="Helvetica,sans-Serif" font-size="10.00">errorhandling.hpp</text>
</a>
</g>
</g>
<!-- Node2&#45;&gt;Node13 -->
<g id="edge14" class="edge"><title>Node2&#45;&gt;Node13</title>
<path fill="none" stroke="midnightblue" d="M434.723,-173.457C507.819,-164.743 697.555,-142.126 796.277,-130.358"/>
<polygon fill="midnightblue" stroke="midnightblue" points="796.892,-133.809 806.407,-129.15 796.063,-126.858 796.892,-133.809"/>
</g>
<!-- Node17 -->
<g id="node17" class="node"><title>Node17</title>
<polygon fill="none" stroke="#bfbfbf" points="69.5,-112.5 69.5,-131.5 116.5,-131.5 116.5,-112.5 69.5,-112.5"/>
<text text-anchor="middle" x="93" y="-119.5" font-family="Helvetica,sans-Serif" font-size="10.00">vector</text>
</g>
<!-- Node2&#45;&gt;Node17 -->
<g id="edge19" class="edge"><title>Node2&#45;&gt;Node17</title>
<path fill="none" stroke="midnightblue" d="M375.278,-172.813C324.851,-165.555 219.391,-149.703 131,-132 129.546,-131.709 128.063,-131.402 126.566,-131.083"/>
<polygon fill="midnightblue" stroke="midnightblue" points="127.183,-127.635 116.661,-128.873 125.659,-134.467 127.183,-127.635"/>
</g>
<!-- Node18 -->
<g id="node18" class="node"><title>Node18</title>
<polygon fill="none" stroke="#bfbfbf" points="446.5,-112.5 446.5,-131.5 511.5,-131.5 511.5,-112.5 446.5,-112.5"/>
<text text-anchor="middle" x="479" y="-119.5" font-family="Helvetica,sans-Serif" font-size="10.00">exception</text>
</g>
<!-- Node2&#45;&gt;Node18 -->
<g id="edge20" class="edge"><title>Node2&#45;&gt;Node18</title>
<path fill="none" stroke="midnightblue" d="M416.889,-168.324C428.15,-160.107 445.287,-147.602 458.709,-137.807"/>
<polygon fill="midnightblue" stroke="midnightblue" points="460.88,-140.556 466.894,-131.834 456.753,-134.901 460.88,-140.556"/>
</g>
<!-- Node8 -->
<g id="node8" class="node"><title>Node8</title>
<g id="a_node8"><a xlink:href="acconfig_8hpp.html" target="_top" xlink:title="acconfig.hpp">
<polygon fill="none" stroke="black" points="161,-0.5 161,-19.5 239,-19.5 239,-0.5 161,-0.5"/>
<text text-anchor="middle" x="200" y="-7.5" font-family="Helvetica,sans-Serif" font-size="10.00">acconfig.hpp</text>
</a>
</g>
</g>
<!-- Node7&#45;&gt;Node8 -->
<g id="edge7" class="edge"><title>Node7&#45;&gt;Node8</title>
<path fill="none" stroke="midnightblue" d="M293.166,-56.324C275.284,-47.6247 247.525,-34.1202 226.954,-24.113"/>
<polygon fill="midnightblue" stroke="midnightblue" points="228.313,-20.8819 217.79,-19.6545 225.251,-27.1765 228.313,-20.8819"/>
</g>
<!-- Node9 -->
<g id="node9" class="node"><title>Node9</title>
<g id="a_node9"><a xlink:href="myconfig-final_8hpp.html" target="_top" xlink:title="myconfig&#45;final.hpp">
<polygon fill="none" stroke="black" points="257.5,-0.5 257.5,-19.5 364.5,-19.5 364.5,-0.5 257.5,-0.5"/>
<text text-anchor="middle" x="311" y="-7.5" font-family="Helvetica,sans-Serif" font-size="10.00">myconfig&#45;final.hpp</text>
</a>
</g>
</g>
<!-- Node7&#45;&gt;Node9 -->
<g id="edge8" class="edge"><title>Node7&#45;&gt;Node9</title>
<path fill="none" stroke="midnightblue" d="M311,-56.083C311,-49.0059 311,-38.8611 311,-29.9865"/>
<polygon fill="midnightblue" stroke="midnightblue" points="314.5,-29.751 311,-19.7511 307.5,-29.7511 314.5,-29.751"/>
</g>
<!-- Node10 -->
<g id="node10" class="node"><title>Node10</title>
<g id="a_node10"><a xlink:href="config-features_8hpp.html" target="_top" xlink:title="config&#45;features.hpp">
<polygon fill="none" stroke="black" points="382.5,-0.5 382.5,-19.5 493.5,-19.5 493.5,-0.5 382.5,-0.5"/>
<text text-anchor="middle" x="438" y="-7.5" font-family="Helvetica,sans-Serif" font-size="10.00">config&#45;features.hpp</text>
</a>
</g>
</g>
<!-- Node7&#45;&gt;Node10 -->
<g id="edge9" class="edge"><title>Node7&#45;&gt;Node10</title>
<path fill="none" stroke="midnightblue" d="M331.124,-56.4435C352.024,-47.5566 384.935,-33.5632 408.716,-23.4514"/>
<polygon fill="midnightblue" stroke="midnightblue" points="410.138,-26.6504 417.971,-19.5164 407.398,-20.2085 410.138,-26.6504"/>
</g>
<!-- Node11&#45;&gt;Node7 -->
<g id="edge11" class="edge"><title>Node11&#45;&gt;Node7</title>
<path fill="none" stroke="midnightblue" d="M223.709,-112.324C240.312,-103.703 266.002,-90.3643 285.22,-80.3855"/>
<polygon fill="midnightblue" stroke="midnightblue" points="287.07,-83.3689 294.332,-75.6545 283.844,-77.1565 287.07,-83.3689"/>
</g>
<!-- Node12&#45;&gt;Node7 -->
<g id="edge13" class="edge"><title>Node12&#45;&gt;Node7</title>
<path fill="none" stroke="midnightblue" d="M311,-112.083C311,-105.006 311,-94.8611 311,-85.9865"/>
<polygon fill="midnightblue" stroke="midnightblue" points="314.5,-85.751 311,-75.7511 307.5,-85.7511 314.5,-85.751"/>
</g>
<!-- Node13&#45;&gt;Node7 -->
<g id="edge15" class="edge"><title>Node13&#45;&gt;Node7</title>
<path fill="none" stroke="midnightblue" d="M806.145,-113.718C801.366,-113.111 796.596,-112.528 792,-112 631.026,-93.5029 439.079,-77.2959 354.583,-70.4568"/>
<polygon fill="midnightblue" stroke="midnightblue" points="354.83,-66.9654 344.581,-69.6504 354.268,-73.9428 354.83,-66.9654"/>
</g>
<!-- Node14 -->
<g id="node14" class="node"><title>Node14</title>
<polygon fill="none" stroke="#bfbfbf" points="892,-56.5 892,-75.5 936,-75.5 936,-56.5 892,-56.5"/>
<text text-anchor="middle" x="914" y="-63.5" font-family="Helvetica,sans-Serif" font-size="10.00">string</text>
</g>
<!-- Node13&#45;&gt;Node14 -->
<g id="edge16" class="edge"><title>Node13&#45;&gt;Node14</title>
<path fill="none" stroke="midnightblue" d="M866.997,-112.324C875.194,-104.42 887.506,-92.5482 897.472,-82.9377"/>
<polygon fill="midnightblue" stroke="midnightblue" points="900.07,-85.2947 904.839,-75.8339 895.211,-80.2558 900.07,-85.2947"/>
</g>
<!-- Node15 -->
<g id="node15" class="node"><title>Node15</title>
<polygon fill="none" stroke="#bfbfbf" points="768,-56.5 768,-75.5 824,-75.5 824,-56.5 768,-56.5"/>
<text text-anchor="middle" x="796" y="-63.5" font-family="Helvetica,sans-Serif" font-size="10.00">sstream</text>
</g>
<!-- Node13&#45;&gt;Node15 -->
<g id="edge17" class="edge"><title>Node13&#45;&gt;Node15</title>
<path fill="none" stroke="midnightblue" d="M848.039,-112.324C838.873,-104.341 825.063,-92.3128 813.972,-82.6529"/>
<polygon fill="midnightblue" stroke="midnightblue" points="815.982,-79.7624 806.143,-75.8339 811.385,-85.041 815.982,-79.7624"/>
</g>
<!-- Node16 -->
<g id="node16" class="node"><title>Node16</title>
<polygon fill="none" stroke="#bfbfbf" points="842,-56.5 842,-75.5 874,-75.5 874,-56.5 842,-56.5"/>
<text text-anchor="middle" x="858" y="-63.5" font-family="Helvetica,sans-Serif" font-size="10.00">list</text>
</g>
<!-- Node13&#45;&gt;Node16 -->
<g id="edge18" class="edge"><title>Node13&#45;&gt;Node16</title>
<path fill="none" stroke="midnightblue" d="M858,-112.083C858,-105.006 858,-94.8611 858,-85.9865"/>
<polygon fill="midnightblue" stroke="midnightblue" points="861.5,-85.751 858,-75.7511 854.5,-85.7511 861.5,-85.751"/>
</g>
<!-- Node19&#45;&gt;Node2 -->
<g id="edge22" class="edge"><title>Node19&#45;&gt;Node2</title>
<path fill="none" stroke="midnightblue" d="M447.044,-455.591C560.353,-449.211 949.945,-417.067 841,-280 791.555,-217.791 542.773,-190.513 444.766,-182.061"/>
<polygon fill="midnightblue" stroke="midnightblue" points="444.929,-178.562 434.671,-181.211 444.342,-185.538 444.929,-178.562"/>
</g>
<!-- Node20 -->
<g id="node20" class="node"><title>Node20</title>
<g id="a_node20"><a xlink:href="interaction__data_8hpp.html" target="_top" xlink:title="Various procedures concerning interactions between particles. ">
<polygon fill="none" stroke="black" points="300.5,-336.5 300.5,-355.5 417.5,-355.5 417.5,-336.5 300.5,-336.5"/>
<text text-anchor="middle" x="359" y="-343.5" font-family="Helvetica,sans-Serif" font-size="10.00">interaction_data.hpp</text>
</a>
</g>
</g>
<!-- Node19&#45;&gt;Node20 -->
<g id="edge23" class="edge"><title>Node19&#45;&gt;Node20</title>
<path fill="none" stroke="midnightblue" d="M403.68,-448.359C392.501,-440.344 377.097,-427.359 369,-412 361.429,-397.639 359.184,-379.179 358.683,-365.603"/>
<polygon fill="midnightblue" stroke="midnightblue" points="362.183,-365.515 358.595,-355.546 355.183,-365.576 362.183,-365.515"/>
</g>
<!-- Node21 -->
<g id="node21" class="node"><title>Node21</title>
<g id="a_node21"><a xlink:href="particle__data_8hpp.html" target="_top" xlink:title="For more information on particle_data, see particle_data.c. ">
<polygon fill="none" stroke="black" points="433.5,-224.5 433.5,-243.5 534.5,-243.5 534.5,-224.5 433.5,-224.5"/>
<text text-anchor="middle" x="484" y="-231.5" font-family="Helvetica,sans-Serif" font-size="10.00">particle_data.hpp</text>
</a>
</g>
</g>
<!-- Node19&#45;&gt;Node21 -->
<g id="edge27" class="edge"><title>Node19&#45;&gt;Node21</title>
<path fill="none" stroke="midnightblue" d="M430.195,-448.373C441.239,-440.367 456.38,-427.387 464,-412 490.027,-359.446 488.468,-287.624 485.912,-253.92"/>
<polygon fill="midnightblue" stroke="midnightblue" points="489.374,-253.336 485.009,-243.682 482.401,-253.951 489.374,-253.336"/>
</g>
<!-- Node22 -->
<g id="node22" class="node"><title>Node22</title>
<g id="a_node22"><a xlink:href="mol__cut_8hpp.html" target="_top" xlink:title="mol_cut.hpp">
<polygon fill="none" stroke="black" points="378.5,-392.5 378.5,-411.5 455.5,-411.5 455.5,-392.5 378.5,-392.5"/>
<text text-anchor="middle" x="417" y="-399.5" font-family="Helvetica,sans-Serif" font-size="10.00">mol_cut.hpp</text>
</a>
</g>
</g>
<!-- Node19&#45;&gt;Node22 -->
<g id="edge28" class="edge"><title>Node19&#45;&gt;Node22</title>
<path fill="none" stroke="midnightblue" d="M417,-448.083C417,-441.006 417,-430.861 417,-421.986"/>
<polygon fill="midnightblue" stroke="midnightblue" points="420.5,-421.751 417,-411.751 413.5,-421.751 420.5,-421.751"/>
</g>
<!-- Node20&#45;&gt;Node2 -->
<g id="edge24" class="edge"><title>Node20&#45;&gt;Node2</title>
<path fill="none" stroke="midnightblue" d="M361.473,-336.075C368.714,-309.945 389.978,-233.211 399.852,-197.577"/>
<polygon fill="midnightblue" stroke="midnightblue" points="403.328,-198.14 402.626,-187.568 396.582,-196.27 403.328,-198.14"/>
</g>
<!-- Node20&#45;&gt;Node21 -->
<g id="edge25" class="edge"><title>Node20&#45;&gt;Node21</title>
<path fill="none" stroke="midnightblue" d="M368.879,-336.124C382.874,-323.568 409.3,-299.927 432,-280 443.356,-270.032 456.193,-258.921 466.271,-250.234"/>
<polygon fill="midnightblue" stroke="midnightblue" points="468.7,-252.762 473.995,-243.585 464.133,-247.457 468.7,-252.762"/>
</g>
<!-- Node21&#45;&gt;Node2 -->
<g id="edge26" class="edge"><title>Node21&#45;&gt;Node2</title>
<path fill="none" stroke="midnightblue" d="M471.307,-224.324C459.099,-215.979 440.422,-203.212 425.997,-193.352"/>
<polygon fill="midnightblue" stroke="midnightblue" points="427.892,-190.408 417.661,-187.655 423.942,-196.187 427.892,-190.408"/>
</g>
<!-- Node22&#45;&gt;Node20 -->
<g id="edge38" class="edge"><title>Node22&#45;&gt;Node20</title>
<path fill="none" stroke="midnightblue" d="M407.681,-392.324C399.107,-384.341 386.188,-372.313 375.812,-362.653"/>
<polygon fill="midnightblue" stroke="midnightblue" points="378.192,-360.086 368.488,-355.834 373.422,-365.21 378.192,-360.086"/>
</g>
<!-- Node22&#45;&gt;Node21 -->
<g id="edge37" class="edge"><title>Node22&#45;&gt;Node21</title>
<path fill="none" stroke="midnightblue" d="M420.602,-392.075C431.194,-365.832 462.388,-288.545 476.688,-253.117"/>
<polygon fill="midnightblue" stroke="midnightblue" points="480.045,-254.151 480.542,-243.568 473.553,-251.531 480.045,-254.151"/>
</g>
<!-- Node23 -->
<g id="node23" class="node"><title>Node23</title>
<g id="a_node23"><a xlink:href="virtual__sites_8hpp.html" target="_top" xlink:title="This file contains routine to handle virtual sites Virtual sites are like particles, but they will be not integrated. ">
<polygon fill="none" stroke="black" points="542,-336.5 542,-355.5 640,-355.5 640,-336.5 542,-336.5"/>
<text text-anchor="middle" x="591" y="-343.5" font-family="Helvetica,sans-Serif" font-size="10.00">virtual_sites.hpp</text>
</a>
</g>
</g>
<!-- Node22&#45;&gt;Node23 -->
<g id="edge29" class="edge"><title>Node22&#45;&gt;Node23</title>
<path fill="none" stroke="midnightblue" d="M444.571,-392.444C474.097,-383.28 521.118,-368.688 553.883,-358.519"/>
<polygon fill="midnightblue" stroke="midnightblue" points="555.045,-361.823 563.558,-355.516 552.97,-355.138 555.045,-361.823"/>
</g>
<!-- Node23&#45;&gt;Node21 -->
<g id="edge30" class="edge"><title>Node23&#45;&gt;Node21</title>
<path fill="none" stroke="midnightblue" d="M580.718,-336.372C570.377,-327.551 554.127,-313.298 541,-300 525.431,-284.228 508.859,-265.026 497.621,-251.598"/>
<polygon fill="midnightblue" stroke="midnightblue" points="500.148,-249.163 491.07,-243.701 494.761,-253.632 500.148,-249.163"/>
</g>
<!-- Node24 -->
<g id="node24" class="node"><title>Node24</title>
<g id="a_node24"><a xlink:href="virtual__sites__com_8hpp.html" target="_top" xlink:title="virtual_sites_com.hpp">
<polygon fill="none" stroke="black" points="708,-280.5 708,-299.5 832,-299.5 832,-280.5 708,-280.5"/>
<text text-anchor="middle" x="770" y="-287.5" font-family="Helvetica,sans-Serif" font-size="10.00">virtual_sites_com.hpp</text>
</a>
</g>
</g>
<!-- Node23&#45;&gt;Node24 -->
<g id="edge31" class="edge"><title>Node23&#45;&gt;Node24</title>
<path fill="none" stroke="midnightblue" d="M619.363,-336.444C649.738,-327.28 698.11,-312.688 731.816,-302.519"/>
<polygon fill="midnightblue" stroke="midnightblue" points="733.207,-305.756 741.77,-299.516 731.185,-299.054 733.207,-305.756"/>
</g>
<!-- Node25 -->
<g id="node25" class="node"><title>Node25</title>
<g id="a_node25"><a xlink:href="virtual__sites__relative_8hpp.html" target="_top" xlink:title="virtual_sites_relative.hpp">
<polygon fill="none" stroke="black" points="550,-280.5 550,-299.5 690,-299.5 690,-280.5 550,-280.5"/>
<text text-anchor="middle" x="620" y="-287.5" font-family="Helvetica,sans-Serif" font-size="10.00">virtual_sites_relative.hpp</text>
</a>
</g>
</g>
<!-- Node23&#45;&gt;Node25 -->
<g id="edge34" class="edge"><title>Node23&#45;&gt;Node25</title>
<path fill="none" stroke="midnightblue" d="M595.789,-336.083C599.758,-328.691 605.525,-317.953 610.435,-308.811"/>
<polygon fill="midnightblue" stroke="midnightblue" points="613.653,-310.217 615.3,-299.751 607.486,-306.905 613.653,-310.217"/>
</g>
<!-- Node24&#45;&gt;Node7 -->
<g id="edge32" class="edge"><title>Node24&#45;&gt;Node7</title>
<path fill="none" stroke="midnightblue" d="M771.698,-280.363C776.811,-251.534 788.861,-157.858 740,-112 712.284,-85.9875 458.702,-72.9312 354.944,-68.6416"/>
<polygon fill="midnightblue" stroke="midnightblue" points="354.933,-65.1384 344.799,-68.2305 354.65,-72.1326 354.933,-65.1384"/>
</g>
<!-- Node24&#45;&gt;Node21 -->
<g id="edge33" class="edge"><title>Node24&#45;&gt;Node21</title>
<path fill="none" stroke="midnightblue" d="M724.682,-280.444C674.372,-270.944 593.162,-255.611 539.187,-245.42"/>
<polygon fill="midnightblue" stroke="midnightblue" points="539.581,-241.933 529.106,-243.516 538.283,-248.811 539.581,-241.933"/>
</g>
<!-- Node25&#45;&gt;Node7 -->
<g id="edge35" class="edge"><title>Node25&#45;&gt;Node7</title>
<path fill="none" stroke="midnightblue" d="M631.849,-280.446C667.977,-253.385 771.296,-168.119 721,-112 696.853,-85.0577 455.31,-72.6093 354.664,-68.5616"/>
<polygon fill="midnightblue" stroke="midnightblue" points="354.654,-65.0586 344.524,-68.1631 354.379,-72.0532 354.654,-65.0586"/>
</g>
<!-- Node25&#45;&gt;Node21 -->
<g id="edge36" class="edge"><title>Node25&#45;&gt;Node21</title>
<path fill="none" stroke="midnightblue" d="M598.45,-280.444C575.969,-271.517 540.512,-257.439 515.02,-247.317"/>
<polygon fill="midnightblue" stroke="midnightblue" points="516.035,-243.954 505.449,-243.516 513.451,-250.46 516.035,-243.954"/>
</g>
<!-- Node26&#45;&gt;Node21 -->
<g id="edge40" class="edge"><title>Node26&#45;&gt;Node21</title>
<path fill="none" stroke="midnightblue" d="M296.335,-280.444C334.911,-271.102 396.785,-256.119 438.853,-245.933"/>
<polygon fill="midnightblue" stroke="midnightblue" points="439.935,-249.272 448.83,-243.516 438.287,-242.468 439.935,-249.272"/>
</g>
<!-- Node27 -->
<g id="node27" class="node"><title>Node27</title>
<g id="a_node27"><a xlink:href="random_8hpp.html" target="_top" xlink:title="A random generator. ">
<polygon fill="none" stroke="black" points="204.5,-224.5 204.5,-243.5 279.5,-243.5 279.5,-224.5 204.5,-224.5"/>
<text text-anchor="middle" x="242" y="-231.5" font-family="Helvetica,sans-Serif" font-size="10.00">random.hpp</text>
</a>
</g>
</g>
<!-- Node26&#45;&gt;Node27 -->
<g id="edge41" class="edge"><title>Node26&#45;&gt;Node27</title>
<path fill="none" stroke="midnightblue" d="M257.863,-280.083C255.317,-272.849 251.644,-262.409 248.473,-253.397"/>
<polygon fill="midnightblue" stroke="midnightblue" points="251.7,-252.023 245.079,-243.751 245.097,-254.346 251.7,-252.023"/>
</g>
<!-- Node28 -->
<g id="node28" class="node"><title>Node28</title>
<g id="a_node28"><a xlink:href="topology_8hpp.html" target="_top" xlink:title="This file contains functions for handling the system topology. ">
<polygon fill="none" stroke="black" points="297.5,-224.5 297.5,-243.5 376.5,-243.5 376.5,-224.5 297.5,-224.5"/>
<text text-anchor="middle" x="337" y="-231.5" font-family="Helvetica,sans-Serif" font-size="10.00">topology.hpp</text>
</a>
</g>
</g>
<!-- Node26&#45;&gt;Node28 -->
<g id="edge43" class="edge"><title>Node26&#45;&gt;Node28</title>
<path fill="none" stroke="midnightblue" d="M273.211,-280.324C284.776,-272.107 302.375,-259.602 316.161,-249.807"/>
<polygon fill="midnightblue" stroke="midnightblue" points="318.443,-252.479 324.567,-243.834 314.388,-246.773 318.443,-252.479"/>
</g>
<!-- Node29 -->
<g id="node29" class="node"><title>Node29</title>
<g id="a_node29"><a xlink:href="mpi_8h.html" target="_top" xlink:title="This is the MPIfake implementation. ">
<polygon fill="none" stroke="black" points="104,-224.5 104,-243.5 148,-243.5 148,-224.5 104,-224.5"/>
<text text-anchor="middle" x="126" y="-231.5" font-family="Helvetica,sans-Serif" font-size="10.00">mpi.h</text>
</a>
</g>
</g>
<!-- Node26&#45;&gt;Node29 -->
<g id="edge45" class="edge"><title>Node26&#45;&gt;Node29</title>
<path fill="none" stroke="midnightblue" d="M239.609,-280.444C217.293,-271.517 182.097,-257.439 156.792,-247.317"/>
<polygon fill="midnightblue" stroke="midnightblue" points="157.876,-243.981 147.291,-243.516 155.276,-250.48 157.876,-243.981"/>
</g>
<!-- Node33 -->
<g id="node33" class="node"><title>Node33</title>
<g id="a_node33"><a xlink:href="cuda__init_8hpp.html" target="_top" xlink:title="cuda_init.hpp">
<polygon fill="none" stroke="black" points="0,-168.5 0,-187.5 82,-187.5 82,-168.5 0,-168.5"/>
<text text-anchor="middle" x="41" y="-175.5" font-family="Helvetica,sans-Serif" font-size="10.00">cuda_init.hpp</text>
</a>
</g>
</g>
<!-- Node26&#45;&gt;Node33 -->
<g id="edge49" class="edge"><title>Node26&#45;&gt;Node33</title>
<path fill="none" stroke="midnightblue" d="M204.455,-282.416C170.604,-276.434 127.908,-265.146 95,-244 76.1683,-231.899 60.6021,-211.133 51.0984,-196.329"/>
<polygon fill="midnightblue" stroke="midnightblue" points="53.9655,-194.309 45.7551,-187.613 47.9976,-197.968 53.9655,-194.309"/>
</g>
<!-- Node27&#45;&gt;Node2 -->
<g id="edge42" class="edge"><title>Node27&#45;&gt;Node2</title>
<path fill="none" stroke="midnightblue" d="M267.828,-224.444C295.249,-215.359 338.777,-200.939 369.432,-190.783"/>
<polygon fill="midnightblue" stroke="midnightblue" points="370.901,-193.984 379.293,-187.516 368.7,-187.339 370.901,-193.984"/>
</g>
<!-- Node28&#45;&gt;Node2 -->
<g id="edge44" class="edge"><title>Node28&#45;&gt;Node2</title>
<path fill="none" stroke="midnightblue" d="M347.925,-224.324C358.175,-216.185 373.721,-203.839 386.001,-194.087"/>
<polygon fill="midnightblue" stroke="midnightblue" points="388.221,-196.794 393.876,-187.834 383.868,-191.312 388.221,-196.794"/>
</g>
<!-- Node30 -->
<g id="node30" class="node"><title>Node30</title>
<polygon fill="none" stroke="#bfbfbf" points="239.5,-168.5 239.5,-187.5 292.5,-187.5 292.5,-168.5 239.5,-168.5"/>
<text text-anchor="middle" x="266" y="-175.5" font-family="Helvetica,sans-Serif" font-size="10.00">string.h</text>
</g>
<!-- Node29&#45;&gt;Node30 -->
<g id="edge46" class="edge"><title>Node29&#45;&gt;Node30</title>
<path fill="none" stroke="midnightblue" d="M148.183,-224.444C171.428,-215.478 208.149,-201.314 234.415,-191.183"/>
<polygon fill="midnightblue" stroke="midnightblue" points="235.85,-194.381 243.92,-187.516 233.331,-187.85 235.85,-194.381"/>
</g>
<!-- Node31 -->
<g id="node31" class="node"><title>Node31</title>
<polygon fill="none" stroke="#bfbfbf" points="100,-168.5 100,-187.5 150,-187.5 150,-168.5 100,-168.5"/>
<text text-anchor="middle" x="125" y="-175.5" font-family="Helvetica,sans-Serif" font-size="10.00">stdio.h</text>
</g>
<!-- Node29&#45;&gt;Node31 -->
<g id="edge47" class="edge"><title>Node29&#45;&gt;Node31</title>
<path fill="none" stroke="midnightblue" d="M125.835,-224.083C125.704,-217.006 125.516,-206.861 125.352,-197.986"/>
<polygon fill="midnightblue" stroke="midnightblue" points="128.847,-197.685 125.162,-187.751 121.848,-197.814 128.847,-197.685"/>
</g>
<!-- Node32 -->
<g id="node32" class="node"><title>Node32</title>
<polygon fill="none" stroke="#bfbfbf" points="168.5,-168.5 168.5,-187.5 221.5,-187.5 221.5,-168.5 168.5,-168.5"/>
<text text-anchor="middle" x="195" y="-175.5" font-family="Helvetica,sans-Serif" font-size="10.00">stdlib.h</text>
</g>
<!-- Node29&#45;&gt;Node32 -->
<g id="edge48" class="edge"><title>Node29&#45;&gt;Node32</title>
<path fill="none" stroke="midnightblue" d="M137.086,-224.324C147.486,-216.185 163.261,-203.839 175.722,-194.087"/>
<polygon fill="midnightblue" stroke="midnightblue" points="177.994,-196.753 183.712,-187.834 173.68,-191.241 177.994,-196.753"/>
</g>
<!-- Node33&#45;&gt;Node7 -->
<g id="edge50" class="edge"><title>Node33&#45;&gt;Node7</title>
<path fill="none" stroke="midnightblue" d="M40.836,-168.356C41.0737,-154.305 43.7324,-126.614 60,-112 89.8709,-85.1654 203.439,-73.7657 267.09,-69.4005"/>
<polygon fill="midnightblue" stroke="midnightblue" points="267.484,-72.8823 277.234,-68.7355 267.026,-65.8973 267.484,-72.8823"/>
</g>
<!-- Node33&#45;&gt;Node17 -->
<g id="edge51" class="edge"><title>Node33&#45;&gt;Node17</title>
<path fill="none" stroke="midnightblue" d="M49.5867,-168.083C57.159,-160.22 68.3782,-148.569 77.5144,-139.081"/>
<polygon fill="midnightblue" stroke="midnightblue" points="80.1577,-141.382 84.573,-131.751 75.1155,-136.527 80.1577,-141.382"/>
</g>
</g>
</svg>
