<?xml version="1.0" encoding="UTF-8" standalone="no"?>
<!DOCTYPE svg PUBLIC "-//W3C//DTD SVG 1.1//EN"
 "http://www.w3.org/Graphics/SVG/1.1/DTD/svg11.dtd">
<!-- Generated by graphviz version 2.38.0 (20140413.2041)
 -->
<!-- Title: ljcos_tcl.cpp Pages: 1 -->
<svg width="1158pt" height="532pt"
 viewBox="0.00 0.00 1157.50 532.00" xmlns="http://www.w3.org/2000/svg" xmlns:xlink="http://www.w3.org/1999/xlink">
<g id="graph0" class="graph" transform="scale(1 1) rotate(0) translate(4 528)">
<title>ljcos_tcl.cpp</title>
<!-- Node1 -->
<g id="node1" class="node"><title>Node1</title>
<polygon fill="#bfbfbf" stroke="black" points="832,-504.5 832,-523.5 909,-523.5 909,-504.5 832,-504.5"/>
<text text-anchor="middle" x="870.5" y="-511.5" font-family="Helvetica,sans-Serif" font-size="10.00">ljcos_tcl.cpp</text>
</g>
<!-- Node2 -->
<g id="node2" class="node"><title>Node2</title>
<g id="a_node2"><a xlink:href="utils_8hpp.html" target="_top" xlink:title="Small functions that are useful not only for one modul. ">
<polygon fill="none" stroke="black" points="721,-168.5 721,-187.5 780,-187.5 780,-168.5 721,-168.5"/>
<text text-anchor="middle" x="750.5" y="-175.5" font-family="Helvetica,sans-Serif" font-size="10.00">utils.hpp</text>
</a>
</g>
</g>
<!-- Node1&#45;&gt;Node2 -->
<g id="edge1" class="edge"><title>Node1&#45;&gt;Node2</title>
<path fill="none" stroke="midnightblue" d="M898.886,-504.424C939.015,-490.338 1007.5,-458.21 1007.5,-403 1007.5,-403 1007.5,-403 1007.5,-289 1007.5,-195.674 862.496,-180.487 790.326,-178.707"/>
<polygon fill="midnightblue" stroke="midnightblue" points="790.291,-175.206 780.232,-178.534 790.171,-182.205 790.291,-175.206"/>
</g>
<!-- Node19 -->
<g id="node19" class="node"><title>Node19</title>
<g id="a_node19"><a xlink:href="ljcos_8hpp.html" target="_top" xlink:title="Routines to calculate the lennard jones+cosine energy and/or force for a particle pair...">
<polygon fill="none" stroke="black" points="753.5,-448.5 753.5,-467.5 813.5,-467.5 813.5,-448.5 753.5,-448.5"/>
<text text-anchor="middle" x="783.5" y="-455.5" font-family="Helvetica,sans-Serif" font-size="10.00">ljcos.hpp</text>
</a>
</g>
</g>
<!-- Node1&#45;&gt;Node19 -->
<g id="edge21" class="edge"><title>Node1&#45;&gt;Node19</title>
<path fill="none" stroke="midnightblue" d="M856.522,-504.324C842.95,-495.9 822.12,-482.971 806.175,-473.074"/>
<polygon fill="midnightblue" stroke="midnightblue" points="807.786,-469.954 797.443,-467.655 804.094,-475.902 807.786,-469.954"/>
</g>
<!-- Node26 -->
<g id="node26" class="node"><title>Node26</title>
<g id="a_node26"><a xlink:href="ljcos__tcl_8hpp.html" target="_top" xlink:title="ljcos_tcl.hpp">
<polygon fill="none" stroke="black" points="832,-448.5 832,-467.5 909,-467.5 909,-448.5 832,-448.5"/>
<text text-anchor="middle" x="870.5" y="-455.5" font-family="Helvetica,sans-Serif" font-size="10.00">ljcos_tcl.hpp</text>
</a>
</g>
</g>
<!-- Node1&#45;&gt;Node26 -->
<g id="edge39" class="edge"><title>Node1&#45;&gt;Node26</title>
<path fill="none" stroke="midnightblue" d="M870.5,-504.083C870.5,-497.006 870.5,-486.861 870.5,-477.986"/>
<polygon fill="midnightblue" stroke="midnightblue" points="874,-477.751 870.5,-467.751 867,-477.751 874,-477.751"/>
</g>
<!-- Node27 -->
<g id="node27" class="node"><title>Node27</title>
<g id="a_node27"><a xlink:href="parser_8hpp.html" target="_top" xlink:title="This file contains macros for parsing the parameters to the &#39;inter&#39; command. ">
<polygon fill="none" stroke="black" points="888.5,-392.5 888.5,-411.5 956.5,-411.5 956.5,-392.5 888.5,-392.5"/>
<text text-anchor="middle" x="922.5" y="-399.5" font-family="Helvetica,sans-Serif" font-size="10.00">parser.hpp</text>
</a>
</g>
</g>
<!-- Node1&#45;&gt;Node27 -->
<g id="edge44" class="edge"><title>Node1&#45;&gt;Node27</title>
<path fill="none" stroke="midnightblue" d="M883.832,-504.439C894.964,-496.475 910.156,-483.521 917.5,-468 924.307,-453.613 925.145,-435.419 924.517,-421.941"/>
<polygon fill="midnightblue" stroke="midnightblue" points="928.002,-421.617 923.743,-411.916 921.023,-422.155 928.002,-421.617"/>
</g>
<!-- Node29 -->
<g id="node29" class="node"><title>Node29</title>
<g id="a_node29"><a xlink:href="communication_8hpp.html" target="_top" xlink:title="This file contains the asynchronous MPI communication. ">
<polygon fill="none" stroke="black" points="195,-280.5 195,-299.5 308,-299.5 308,-280.5 195,-280.5"/>
<text text-anchor="middle" x="251.5" y="-287.5" font-family="Helvetica,sans-Serif" font-size="10.00">communication.hpp</text>
</a>
</g>
</g>
<!-- Node1&#45;&gt;Node29 -->
<g id="edge45" class="edge"><title>Node1&#45;&gt;Node29</title>
<path fill="none" stroke="midnightblue" d="M846.341,-504.385C820.974,-495.336 779.927,-480.686 744.5,-468 571.465,-406.039 364.371,-331.592 284.843,-302.993"/>
<polygon fill="midnightblue" stroke="midnightblue" points="285.946,-299.67 275.351,-299.579 283.577,-306.257 285.946,-299.67"/>
</g>
<!-- Node3 -->
<g id="node3" class="node"><title>Node3</title>
<polygon fill="none" stroke="#bfbfbf" points="694,-112.5 694,-131.5 741,-131.5 741,-112.5 694,-112.5"/>
<text text-anchor="middle" x="717.5" y="-119.5" font-family="Helvetica,sans-Serif" font-size="10.00">cmath</text>
</g>
<!-- Node2&#45;&gt;Node3 -->
<g id="edge2" class="edge"><title>Node2&#45;&gt;Node3</title>
<path fill="none" stroke="midnightblue" d="M745.051,-168.083C740.486,-160.613 733.832,-149.724 728.207,-140.52"/>
<polygon fill="midnightblue" stroke="midnightblue" points="731.049,-138.459 722.848,-131.751 725.076,-142.109 731.049,-138.459"/>
</g>
<!-- Node4 -->
<g id="node4" class="node"><title>Node4</title>
<polygon fill="none" stroke="#bfbfbf" points="759.5,-112.5 759.5,-131.5 805.5,-131.5 805.5,-112.5 759.5,-112.5"/>
<text text-anchor="middle" x="782.5" y="-119.5" font-family="Helvetica,sans-Serif" font-size="10.00">cstdio</text>
</g>
<!-- Node2&#45;&gt;Node4 -->
<g id="edge3" class="edge"><title>Node2&#45;&gt;Node4</title>
<path fill="none" stroke="midnightblue" d="M755.784,-168.083C760.211,-160.613 766.663,-149.724 772.118,-140.52"/>
<polygon fill="midnightblue" stroke="midnightblue" points="775.227,-142.138 777.314,-131.751 769.205,-138.57 775.227,-142.138"/>
</g>
<!-- Node5 -->
<g id="node5" class="node"><title>Node5</title>
<polygon fill="none" stroke="#bfbfbf" points="824,-112.5 824,-131.5 873,-131.5 873,-112.5 824,-112.5"/>
<text text-anchor="middle" x="848.5" y="-119.5" font-family="Helvetica,sans-Serif" font-size="10.00">cstdlib</text>
</g>
<!-- Node2&#45;&gt;Node5 -->
<g id="edge4" class="edge"><title>Node2&#45;&gt;Node5</title>
<path fill="none" stroke="midnightblue" d="M766.245,-168.324C781.819,-159.743 805.877,-146.486 823.959,-136.522"/>
<polygon fill="midnightblue" stroke="midnightblue" points="825.724,-139.546 832.794,-131.655 822.346,-133.415 825.724,-139.546"/>
</g>
<!-- Node6 -->
<g id="node6" class="node"><title>Node6</title>
<polygon fill="none" stroke="#bfbfbf" points="1099.5,-112.5 1099.5,-131.5 1149.5,-131.5 1149.5,-112.5 1099.5,-112.5"/>
<text text-anchor="middle" x="1124.5" y="-119.5" font-family="Helvetica,sans-Serif" font-size="10.00">cstring</text>
</g>
<!-- Node2&#45;&gt;Node6 -->
<g id="edge5" class="edge"><title>Node2&#45;&gt;Node6</title>
<path fill="none" stroke="midnightblue" d="M780.269,-174.345C838.027,-168.92 969.442,-155.236 1089.26,-132.024"/>
<polygon fill="midnightblue" stroke="midnightblue" points="1090.19,-135.407 1099.33,-130.044 1088.84,-128.538 1090.19,-135.407"/>
</g>
<!-- Node7 -->
<g id="node7" class="node"><title>Node7</title>
<g id="a_node7"><a xlink:href="config_8hpp.html" target="_top" xlink:title="This file contains the defaults for Espresso. ">
<polygon fill="none" stroke="black" points="469,-56.5 469,-75.5 536,-75.5 536,-56.5 469,-56.5"/>
<text text-anchor="middle" x="502.5" y="-63.5" font-family="Helvetica,sans-Serif" font-size="10.00">config.hpp</text>
</a>
</g>
</g>
<!-- Node2&#45;&gt;Node7 -->
<g id="edge6" class="edge"><title>Node2&#45;&gt;Node7</title>
<path fill="none" stroke="midnightblue" d="M720.742,-170.684C689.989,-163.549 641.037,-150.475 601.5,-132 571.75,-118.098 540.589,-96.2442 521.356,-81.7704"/>
<polygon fill="midnightblue" stroke="midnightblue" points="523.239,-78.8039 513.169,-75.51 518.987,-84.3646 523.239,-78.8039"/>
</g>
<!-- Node11 -->
<g id="node11" class="node"><title>Node11</title>
<g id="a_node11"><a xlink:href="debug_8hpp.html" target="_top" xlink:title="This file controls debug facilities. ">
<polygon fill="none" stroke="black" points="891.5,-112.5 891.5,-131.5 959.5,-131.5 959.5,-112.5 891.5,-112.5"/>
<text text-anchor="middle" x="925.5" y="-119.5" font-family="Helvetica,sans-Serif" font-size="10.00">debug.hpp</text>
</a>
</g>
</g>
<!-- Node2&#45;&gt;Node11 -->
<g id="edge10" class="edge"><title>Node2&#45;&gt;Node11</title>
<path fill="none" stroke="midnightblue" d="M778.229,-168.444C807.926,-159.28 855.216,-144.688 888.169,-134.519"/>
<polygon fill="midnightblue" stroke="midnightblue" points="889.377,-137.809 897.9,-131.516 887.313,-131.121 889.377,-137.809"/>
</g>
<!-- Node12 -->
<g id="node12" class="node"><title>Node12</title>
<g id="a_node12"><a xlink:href="lees__edwards_8hpp.html" target="_top" xlink:title="lees_edwards.hpp">
<polygon fill="none" stroke="black" points="450.5,-112.5 450.5,-131.5 554.5,-131.5 554.5,-112.5 450.5,-112.5"/>
<text text-anchor="middle" x="502.5" y="-119.5" font-family="Helvetica,sans-Serif" font-size="10.00">lees_edwards.hpp</text>
</a>
</g>
</g>
<!-- Node2&#45;&gt;Node12 -->
<g id="edge12" class="edge"><title>Node2&#45;&gt;Node12</title>
<path fill="none" stroke="midnightblue" d="M720.585,-170.486C678.763,-161.38 602.301,-144.731 551.939,-133.765"/>
<polygon fill="midnightblue" stroke="midnightblue" points="552.437,-130.292 541.922,-131.584 550.948,-137.131 552.437,-130.292"/>
</g>
<!-- Node13 -->
<g id="node13" class="node"><title>Node13</title>
<g id="a_node13"><a xlink:href="errorhandling_8hpp.html" target="_top" xlink:title="This file contains the errorhandling code for severe errors, like a broken bond or illegal parameter ...">
<polygon fill="none" stroke="black" points="978,-112.5 978,-131.5 1081,-131.5 1081,-112.5 978,-112.5"/>
<text text-anchor="middle" x="1029.5" y="-119.5" font-family="Helvetica,sans-Serif" font-size="10.00">errorhandling.hpp</text>
</a>
</g>
</g>
<!-- Node2&#45;&gt;Node13 -->
<g id="edge14" class="edge"><title>Node2&#45;&gt;Node13</title>
<path fill="none" stroke="midnightblue" d="M780.094,-171.272C826.398,-162.31 916.701,-144.832 974.998,-133.549"/>
<polygon fill="midnightblue" stroke="midnightblue" points="975.984,-136.923 985.136,-131.587 974.653,-130.051 975.984,-136.923"/>
</g>
<!-- Node17 -->
<g id="node17" class="node"><title>Node17</title>
<polygon fill="none" stroke="#bfbfbf" points="245,-112.5 245,-131.5 292,-131.5 292,-112.5 245,-112.5"/>
<text text-anchor="middle" x="268.5" y="-119.5" font-family="Helvetica,sans-Serif" font-size="10.00">vector</text>
</g>
<!-- Node2&#45;&gt;Node17 -->
<g id="edge19" class="edge"><title>Node2&#45;&gt;Node17</title>
<path fill="none" stroke="midnightblue" d="M720.712,-173.663C635.706,-164.139 392.324,-136.872 302.414,-126.799"/>
<polygon fill="midnightblue" stroke="midnightblue" points="302.559,-123.294 292.231,-125.659 301.779,-130.25 302.559,-123.294"/>
</g>
<!-- Node18 -->
<g id="node18" class="node"><title>Node18</title>
<polygon fill="none" stroke="#bfbfbf" points="611,-112.5 611,-131.5 676,-131.5 676,-112.5 611,-112.5"/>
<text text-anchor="middle" x="643.5" y="-119.5" font-family="Helvetica,sans-Serif" font-size="10.00">exception</text>
</g>
<!-- Node2&#45;&gt;Node18 -->
<g id="edge20" class="edge"><title>Node2&#45;&gt;Node18</title>
<path fill="none" stroke="midnightblue" d="M733.309,-168.324C716.149,-159.664 689.554,-146.242 669.753,-136.249"/>
<polygon fill="midnightblue" stroke="midnightblue" points="671.153,-133.035 660.649,-131.655 667.999,-139.285 671.153,-133.035"/>
</g>
<!-- Node8 -->
<g id="node8" class="node"><title>Node8</title>
<g id="a_node8"><a xlink:href="acconfig_8hpp.html" target="_top" xlink:title="acconfig.hpp">
<polygon fill="none" stroke="black" points="352.5,-0.5 352.5,-19.5 430.5,-19.5 430.5,-0.5 352.5,-0.5"/>
<text text-anchor="middle" x="391.5" y="-7.5" font-family="Helvetica,sans-Serif" font-size="10.00">acconfig.hpp</text>
</a>
</g>
</g>
<!-- Node7&#45;&gt;Node8 -->
<g id="edge7" class="edge"><title>Node7&#45;&gt;Node8</title>
<path fill="none" stroke="midnightblue" d="M484.666,-56.324C466.784,-47.6247 439.025,-34.1202 418.454,-24.113"/>
<polygon fill="midnightblue" stroke="midnightblue" points="419.813,-20.8819 409.29,-19.6545 416.751,-27.1765 419.813,-20.8819"/>
</g>
<!-- Node9 -->
<g id="node9" class="node"><title>Node9</title>
<g id="a_node9"><a xlink:href="myconfig-final_8hpp.html" target="_top" xlink:title="myconfig&#45;final.hpp">
<polygon fill="none" stroke="black" points="449,-0.5 449,-19.5 556,-19.5 556,-0.5 449,-0.5"/>
<text text-anchor="middle" x="502.5" y="-7.5" font-family="Helvetica,sans-Serif" font-size="10.00">myconfig&#45;final.hpp</text>
</a>
</g>
</g>
<!-- Node7&#45;&gt;Node9 -->
<g id="edge8" class="edge"><title>Node7&#45;&gt;Node9</title>
<path fill="none" stroke="midnightblue" d="M502.5,-56.083C502.5,-49.0059 502.5,-38.8611 502.5,-29.9865"/>
<polygon fill="midnightblue" stroke="midnightblue" points="506,-29.751 502.5,-19.7511 499,-29.7511 506,-29.751"/>
</g>
<!-- Node10 -->
<g id="node10" class="node"><title>Node10</title>
<g id="a_node10"><a xlink:href="config-features_8hpp.html" target="_top" xlink:title="config&#45;features.hpp">
<polygon fill="none" stroke="black" points="574,-0.5 574,-19.5 685,-19.5 685,-0.5 574,-0.5"/>
<text text-anchor="middle" x="629.5" y="-7.5" font-family="Helvetica,sans-Serif" font-size="10.00">config&#45;features.hpp</text>
</a>
</g>
</g>
<!-- Node7&#45;&gt;Node10 -->
<g id="edge9" class="edge"><title>Node7&#45;&gt;Node10</title>
<path fill="none" stroke="midnightblue" d="M522.624,-56.4435C543.524,-47.5566 576.435,-33.5632 600.216,-23.4514"/>
<polygon fill="midnightblue" stroke="midnightblue" points="601.638,-26.6504 609.471,-19.5164 598.898,-20.2085 601.638,-26.6504"/>
</g>
<!-- Node11&#45;&gt;Node7 -->
<g id="edge11" class="edge"><title>Node11&#45;&gt;Node7</title>
<path fill="none" stroke="midnightblue" d="M891.442,-113.741C888.089,-113.114 884.733,-112.522 881.5,-112 760.792,-92.5237 617.183,-77.7443 546.404,-71.0099"/>
<polygon fill="midnightblue" stroke="midnightblue" points="546.377,-67.4919 536.092,-70.0368 545.719,-74.4609 546.377,-67.4919"/>
</g>
<!-- Node12&#45;&gt;Node7 -->
<g id="edge13" class="edge"><title>Node12&#45;&gt;Node7</title>
<path fill="none" stroke="midnightblue" d="M502.5,-112.083C502.5,-105.006 502.5,-94.8611 502.5,-85.9865"/>
<polygon fill="midnightblue" stroke="midnightblue" points="506,-85.751 502.5,-75.7511 499,-85.7511 506,-85.751"/>
</g>
<!-- Node13&#45;&gt;Node7 -->
<g id="edge15" class="edge"><title>Node13&#45;&gt;Node7</title>
<path fill="none" stroke="midnightblue" d="M977.94,-113.207C974.748,-112.782 971.582,-112.376 968.5,-112 813.563,-93.1014 628.851,-77.234 546.22,-70.4846"/>
<polygon fill="midnightblue" stroke="midnightblue" points="546.439,-66.9909 536.188,-69.6691 545.872,-73.9679 546.439,-66.9909"/>
</g>
<!-- Node14 -->
<g id="node14" class="node"><title>Node14</title>
<polygon fill="none" stroke="#bfbfbf" points="939.5,-56.5 939.5,-75.5 983.5,-75.5 983.5,-56.5 939.5,-56.5"/>
<text text-anchor="middle" x="961.5" y="-63.5" font-family="Helvetica,sans-Serif" font-size="10.00">string</text>
</g>
<!-- Node13&#45;&gt;Node14 -->
<g id="edge16" class="edge"><title>Node13&#45;&gt;Node14</title>
<path fill="none" stroke="midnightblue" d="M1018.57,-112.324C1008.33,-104.185 992.779,-91.8395 980.499,-82.0874"/>
<polygon fill="midnightblue" stroke="midnightblue" points="982.632,-79.3119 972.624,-75.8339 978.279,-84.7937 982.632,-79.3119"/>
</g>
<!-- Node15 -->
<g id="node15" class="node"><title>Node15</title>
<polygon fill="none" stroke="#bfbfbf" points="1001.5,-56.5 1001.5,-75.5 1057.5,-75.5 1057.5,-56.5 1001.5,-56.5"/>
<text text-anchor="middle" x="1029.5" y="-63.5" font-family="Helvetica,sans-Serif" font-size="10.00">sstream</text>
</g>
<!-- Node13&#45;&gt;Node15 -->
<g id="edge17" class="edge"><title>Node13&#45;&gt;Node15</title>
<path fill="none" stroke="midnightblue" d="M1029.5,-112.083C1029.5,-105.006 1029.5,-94.8611 1029.5,-85.9865"/>
<polygon fill="midnightblue" stroke="midnightblue" points="1033,-85.751 1029.5,-75.7511 1026,-85.7511 1033,-85.751"/>
</g>
<!-- Node16 -->
<g id="node16" class="node"><title>Node16</title>
<polygon fill="none" stroke="#bfbfbf" points="1075.5,-56.5 1075.5,-75.5 1107.5,-75.5 1107.5,-56.5 1075.5,-56.5"/>
<text text-anchor="middle" x="1091.5" y="-63.5" font-family="Helvetica,sans-Serif" font-size="10.00">list</text>
</g>
<!-- Node13&#45;&gt;Node16 -->
<g id="edge18" class="edge"><title>Node13&#45;&gt;Node16</title>
<path fill="none" stroke="midnightblue" d="M1039.46,-112.324C1048.63,-104.341 1062.44,-92.3128 1073.53,-82.6529"/>
<polygon fill="midnightblue" stroke="midnightblue" points="1076.12,-85.041 1081.36,-75.8339 1071.52,-79.7624 1076.12,-85.041"/>
</g>
<!-- Node19&#45;&gt;Node2 -->
<g id="edge22" class="edge"><title>Node19&#45;&gt;Node2</title>
<path fill="none" stroke="midnightblue" d="M791.237,-448.306C806.168,-430.594 837.5,-388.485 837.5,-347 837.5,-347 837.5,-347 837.5,-289 837.5,-247.4 798.748,-212.331 772.97,-193.605"/>
<polygon fill="midnightblue" stroke="midnightblue" points="774.682,-190.531 764.478,-187.679 770.676,-196.272 774.682,-190.531"/>
</g>
<!-- Node20 -->
<g id="node20" class="node"><title>Node20</title>
<g id="a_node20"><a xlink:href="interaction__data_8hpp.html" target="_top" xlink:title="Various procedures concerning interactions between particles. ">
<polygon fill="none" stroke="black" points="654,-336.5 654,-355.5 771,-355.5 771,-336.5 654,-336.5"/>
<text text-anchor="middle" x="712.5" y="-343.5" font-family="Helvetica,sans-Serif" font-size="10.00">interaction_data.hpp</text>
</a>
</g>
</g>
<!-- Node19&#45;&gt;Node20 -->
<g id="edge23" class="edge"><title>Node19&#45;&gt;Node20</title>
<path fill="none" stroke="midnightblue" d="M777.929,-448.368C766.264,-430.296 739.077,-388.176 723.671,-364.307"/>
<polygon fill="midnightblue" stroke="midnightblue" points="726.409,-362.095 718.045,-355.591 720.528,-365.891 726.409,-362.095"/>
</g>
<!-- Node21 -->
<g id="node21" class="node"><title>Node21</title>
<g id="a_node21"><a xlink:href="particle__data_8hpp.html" target="_top" xlink:title="For more information on particle_data, see particle_data.c. ">
<polygon fill="none" stroke="black" points="603,-224.5 603,-243.5 704,-243.5 704,-224.5 603,-224.5"/>
<text text-anchor="middle" x="653.5" y="-231.5" font-family="Helvetica,sans-Serif" font-size="10.00">particle_data.hpp</text>
</a>
</g>
</g>
<!-- Node19&#45;&gt;Node21 -->
<g id="edge27" class="edge"><title>Node19&#45;&gt;Node21</title>
<path fill="none" stroke="midnightblue" d="M785.512,-448.495C789.923,-427.883 798.597,-374.155 779.5,-336 758.666,-294.375 711.857,-264.259 681.529,-248.232"/>
<polygon fill="midnightblue" stroke="midnightblue" points="682.813,-244.958 672.315,-243.527 679.629,-251.192 682.813,-244.958"/>
</g>
<!-- Node22 -->
<g id="node22" class="node"><title>Node22</title>
<g id="a_node22"><a xlink:href="mol__cut_8hpp.html" target="_top" xlink:title="mol_cut.hpp">
<polygon fill="none" stroke="black" points="605,-392.5 605,-411.5 682,-411.5 682,-392.5 605,-392.5"/>
<text text-anchor="middle" x="643.5" y="-399.5" font-family="Helvetica,sans-Serif" font-size="10.00">mol_cut.hpp</text>
</a>
</g>
</g>
<!-- Node19&#45;&gt;Node22 -->
<g id="edge28" class="edge"><title>Node19&#45;&gt;Node22</title>
<path fill="none" stroke="midnightblue" d="M761.317,-448.444C738.072,-439.478 701.351,-425.314 675.085,-415.183"/>
<polygon fill="midnightblue" stroke="midnightblue" points="676.169,-411.85 665.58,-411.516 673.65,-418.381 676.169,-411.85"/>
</g>
<!-- Node20&#45;&gt;Node2 -->
<g id="edge24" class="edge"><title>Node20&#45;&gt;Node2</title>
<path fill="none" stroke="midnightblue" d="M714.543,-336.075C720.525,-309.945 738.09,-233.211 746.247,-197.577"/>
<polygon fill="midnightblue" stroke="midnightblue" points="749.719,-198.097 748.539,-187.568 742.895,-196.535 749.719,-198.097"/>
</g>
<!-- Node20&#45;&gt;Node21 -->
<g id="edge25" class="edge"><title>Node20&#45;&gt;Node21</title>
<path fill="none" stroke="midnightblue" d="M710.192,-336.219C706.612,-323.372 699.021,-298.925 688.5,-280 682.861,-269.856 675.044,-259.563 668.228,-251.386"/>
<polygon fill="midnightblue" stroke="midnightblue" points="670.802,-249.012 661.62,-243.726 665.501,-253.584 670.802,-249.012"/>
</g>
<!-- Node21&#45;&gt;Node2 -->
<g id="edge26" class="edge"><title>Node21&#45;&gt;Node2</title>
<path fill="none" stroke="midnightblue" d="M669.085,-224.324C684.499,-215.743 708.312,-202.486 726.21,-192.522"/>
<polygon fill="midnightblue" stroke="midnightblue" points="727.919,-195.577 734.954,-187.655 724.514,-189.461 727.919,-195.577"/>
</g>
<!-- Node22&#45;&gt;Node20 -->
<g id="edge38" class="edge"><title>Node22&#45;&gt;Node20</title>
<path fill="none" stroke="midnightblue" d="M654.586,-392.324C664.986,-384.185 680.761,-371.839 693.222,-362.087"/>
<polygon fill="midnightblue" stroke="midnightblue" points="695.494,-364.753 701.212,-355.834 691.18,-359.241 695.494,-364.753"/>
</g>
<!-- Node22&#45;&gt;Node21 -->
<g id="edge37" class="edge"><title>Node22&#45;&gt;Node21</title>
<path fill="none" stroke="midnightblue" d="M643.43,-392.162C643.379,-379.65 643.453,-356.062 644.5,-336 646.002,-307.209 649.266,-273.92 651.422,-253.672"/>
<polygon fill="midnightblue" stroke="midnightblue" points="654.912,-253.952 652.515,-243.632 647.953,-253.194 654.912,-253.952"/>
</g>
<!-- Node23 -->
<g id="node23" class="node"><title>Node23</title>
<g id="a_node23"><a xlink:href="virtual__sites_8hpp.html" target="_top" xlink:title="This file contains routine to handle virtual sites Virtual sites are like particles, but they will be not integrated. ">
<polygon fill="none" stroke="black" points="498.5,-336.5 498.5,-355.5 596.5,-355.5 596.5,-336.5 498.5,-336.5"/>
<text text-anchor="middle" x="547.5" y="-343.5" font-family="Helvetica,sans-Serif" font-size="10.00">virtual_sites.hpp</text>
</a>
</g>
</g>
<!-- Node22&#45;&gt;Node23 -->
<g id="edge29" class="edge"><title>Node22&#45;&gt;Node23</title>
<path fill="none" stroke="midnightblue" d="M628.076,-392.324C612.96,-383.822 589.685,-370.729 572.029,-360.797"/>
<polygon fill="midnightblue" stroke="midnightblue" points="573.317,-357.507 562.886,-355.655 569.886,-363.608 573.317,-357.507"/>
</g>
<!-- Node23&#45;&gt;Node21 -->
<g id="edge30" class="edge"><title>Node23&#45;&gt;Node21</title>
<path fill="none" stroke="midnightblue" d="M565.946,-336.379C581.2,-328.548 602.687,-315.818 617.5,-300 630.289,-286.344 640.141,-267.299 646.28,-253.354"/>
<polygon fill="midnightblue" stroke="midnightblue" points="649.621,-254.435 650.238,-243.858 643.16,-251.742 649.621,-254.435"/>
</g>
<!-- Node24 -->
<g id="node24" class="node"><title>Node24</title>
<g id="a_node24"><a xlink:href="virtual__sites__com_8hpp.html" target="_top" xlink:title="virtual_sites_com.hpp">
<polygon fill="none" stroke="black" points="484.5,-280.5 484.5,-299.5 608.5,-299.5 608.5,-280.5 484.5,-280.5"/>
<text text-anchor="middle" x="546.5" y="-287.5" font-family="Helvetica,sans-Serif" font-size="10.00">virtual_sites_com.hpp</text>
</a>
</g>
</g>
<!-- Node23&#45;&gt;Node24 -->
<g id="edge31" class="edge"><title>Node23&#45;&gt;Node24</title>
<path fill="none" stroke="midnightblue" d="M547.335,-336.083C547.204,-329.006 547.016,-318.861 546.852,-309.986"/>
<polygon fill="midnightblue" stroke="midnightblue" points="550.347,-309.685 546.662,-299.751 543.348,-309.814 550.347,-309.685"/>
</g>
<!-- Node25 -->
<g id="node25" class="node"><title>Node25</title>
<g id="a_node25"><a xlink:href="virtual__sites__relative_8hpp.html" target="_top" xlink:title="virtual_sites_relative.hpp">
<polygon fill="none" stroke="black" points="326.5,-280.5 326.5,-299.5 466.5,-299.5 466.5,-280.5 326.5,-280.5"/>
<text text-anchor="middle" x="396.5" y="-287.5" font-family="Helvetica,sans-Serif" font-size="10.00">virtual_sites_relative.hpp</text>
</a>
</g>
</g>
<!-- Node23&#45;&gt;Node25 -->
<g id="edge34" class="edge"><title>Node23&#45;&gt;Node25</title>
<path fill="none" stroke="midnightblue" d="M523.574,-336.444C498.281,-327.399 458.198,-313.064 429.82,-302.916"/>
<polygon fill="midnightblue" stroke="midnightblue" points="430.909,-299.588 420.314,-299.516 428.552,-306.179 430.909,-299.588"/>
</g>
<!-- Node24&#45;&gt;Node7 -->
<g id="edge32" class="edge"><title>Node24&#45;&gt;Node7</title>
<path fill="none" stroke="midnightblue" d="M545.483,-280.499C543.653,-267.583 538.974,-242.559 528.5,-224 500.84,-174.99 462.308,-184.288 441.5,-132 438.213,-123.741 437.493,-119.935 441.5,-112 448.307,-98.5199 461.268,-88.083 473.498,-80.6696"/>
<polygon fill="midnightblue" stroke="midnightblue" points="475.57,-83.5214 482.594,-75.5896 472.157,-77.4099 475.57,-83.5214"/>
</g>
<!-- Node24&#45;&gt;Node21 -->
<g id="edge33" class="edge"><title>Node24&#45;&gt;Node21</title>
<path fill="none" stroke="midnightblue" d="M563.691,-280.324C580.851,-271.664 607.446,-258.242 627.247,-248.249"/>
<polygon fill="midnightblue" stroke="midnightblue" points="629.001,-251.285 636.351,-243.655 625.847,-245.035 629.001,-251.285"/>
</g>
<!-- Node25&#45;&gt;Node7 -->
<g id="edge35" class="edge"><title>Node25&#45;&gt;Node7</title>
<path fill="none" stroke="midnightblue" d="M378.111,-280.471C364.399,-272.997 346.685,-260.71 338.5,-244 334.59,-236.017 335.395,-232.329 338.5,-224 363.996,-155.617 438.402,-104.024 477.631,-80.7048"/>
<polygon fill="midnightblue" stroke="midnightblue" points="479.452,-83.6946 486.344,-75.6477 475.938,-77.6404 479.452,-83.6946"/>
</g>
<!-- Node25&#45;&gt;Node21 -->
<g id="edge36" class="edge"><title>Node25&#45;&gt;Node21</title>
<path fill="none" stroke="midnightblue" d="M437.222,-280.444C482.149,-271.004 554.498,-255.802 602.999,-245.611"/>
<polygon fill="midnightblue" stroke="midnightblue" points="603.902,-248.998 612.968,-243.516 602.462,-242.148 603.902,-248.998"/>
</g>
<!-- Node26&#45;&gt;Node27 -->
<g id="edge40" class="edge"><title>Node26&#45;&gt;Node27</title>
<path fill="none" stroke="midnightblue" d="M879.087,-448.083C886.659,-440.22 897.878,-428.569 907.014,-419.081"/>
<polygon fill="midnightblue" stroke="midnightblue" points="909.658,-421.382 914.073,-411.751 904.615,-416.527 909.658,-421.382"/>
</g>
<!-- Node27&#45;&gt;Node2 -->
<g id="edge41" class="edge"><title>Node27&#45;&gt;Node2</title>
<path fill="none" stroke="midnightblue" d="M916.262,-392.392C910.098,-383.588 900.714,-369.346 894.5,-356 868.456,-300.065 892.797,-269.843 851.5,-224 835.306,-206.024 810.576,-194.84 789.64,-188.118"/>
<polygon fill="midnightblue" stroke="midnightblue" points="790.611,-184.756 780.028,-185.251 788.61,-191.464 790.611,-184.756"/>
</g>
<!-- Node27&#45;&gt;Node6 -->
<g id="edge42" class="edge"><title>Node27&#45;&gt;Node6</title>
<path fill="none" stroke="midnightblue" d="M929.035,-392.413C941.949,-374.56 969.5,-331.704 969.5,-291 969.5,-291 969.5,-291 969.5,-233 969.5,-202.181 1052.02,-157.772 1096.64,-136.014"/>
<polygon fill="midnightblue" stroke="midnightblue" points="1098.31,-139.095 1105.8,-131.604 1095.27,-132.787 1098.31,-139.095"/>
</g>
<!-- Node28 -->
<g id="node28" class="node"><title>Node28</title>
<polygon fill="none" stroke="#bfbfbf" points="903.5,-336.5 903.5,-355.5 941.5,-355.5 941.5,-336.5 903.5,-336.5"/>
<text text-anchor="middle" x="922.5" y="-343.5" font-family="Helvetica,sans-Serif" font-size="10.00">tcl.h</text>
</g>
<!-- Node27&#45;&gt;Node28 -->
<g id="edge43" class="edge"><title>Node27&#45;&gt;Node28</title>
<path fill="none" stroke="midnightblue" d="M922.5,-392.083C922.5,-385.006 922.5,-374.861 922.5,-365.986"/>
<polygon fill="midnightblue" stroke="midnightblue" points="926,-365.751 922.5,-355.751 919,-365.751 926,-365.751"/>
</g>
<!-- Node29&#45;&gt;Node21 -->
<g id="edge46" class="edge"><title>Node29&#45;&gt;Node21</title>
<path fill="none" stroke="midnightblue" d="M308.024,-281.283C311.23,-280.848 314.406,-280.418 317.5,-280 413.751,-266.992 525.536,-252.055 592.83,-243.081"/>
<polygon fill="midnightblue" stroke="midnightblue" points="593.383,-246.538 602.833,-241.747 592.458,-239.6 593.383,-246.538"/>
</g>
<!-- Node30 -->
<g id="node30" class="node"><title>Node30</title>
<g id="a_node30"><a xlink:href="random_8hpp.html" target="_top" xlink:title="A random generator. ">
<polygon fill="none" stroke="black" points="348,-224.5 348,-243.5 423,-243.5 423,-224.5 348,-224.5"/>
<text text-anchor="middle" x="385.5" y="-231.5" font-family="Helvetica,sans-Serif" font-size="10.00">random.hpp</text>
</a>
</g>
</g>
<!-- Node29&#45;&gt;Node30 -->
<g id="edge47" class="edge"><title>Node29&#45;&gt;Node30</title>
<path fill="none" stroke="midnightblue" d="M272.733,-280.444C294.884,-271.517 329.819,-257.439 354.936,-247.317"/>
<polygon fill="midnightblue" stroke="midnightblue" points="356.4,-250.501 364.367,-243.516 353.783,-244.008 356.4,-250.501"/>
</g>
<!-- Node31 -->
<g id="node31" class="node"><title>Node31</title>
<g id="a_node31"><a xlink:href="topology_8hpp.html" target="_top" xlink:title="This file contains functions for handling the system topology. ">
<polygon fill="none" stroke="black" points="441,-224.5 441,-243.5 520,-243.5 520,-224.5 441,-224.5"/>
<text text-anchor="middle" x="480.5" y="-231.5" font-family="Helvetica,sans-Serif" font-size="10.00">topology.hpp</text>
</a>
</g>
</g>
<!-- Node29&#45;&gt;Node31 -->
<g id="edge49" class="edge"><title>Node29&#45;&gt;Node31</title>
<path fill="none" stroke="midnightblue" d="M287.786,-280.444C327.483,-271.083 391.207,-256.056 434.412,-245.868"/>
<polygon fill="midnightblue" stroke="midnightblue" points="435.454,-249.218 444.384,-243.516 433.848,-242.405 435.454,-249.218"/>
</g>
<!-- Node32 -->
<g id="node32" class="node"><title>Node32</title>
<g id="a_node32"><a xlink:href="mpi_8h.html" target="_top" xlink:title="This is the MPIfake implementation. ">
<polygon fill="none" stroke="black" points="110.5,-224.5 110.5,-243.5 154.5,-243.5 154.5,-224.5 110.5,-224.5"/>
<text text-anchor="middle" x="132.5" y="-231.5" font-family="Helvetica,sans-Serif" font-size="10.00">mpi.h</text>
</a>
</g>
</g>
<!-- Node29&#45;&gt;Node32 -->
<g id="edge51" class="edge"><title>Node29&#45;&gt;Node32</title>
<path fill="none" stroke="midnightblue" d="M232.644,-280.444C213.234,-271.636 182.77,-257.812 160.535,-247.722"/>
<polygon fill="midnightblue" stroke="midnightblue" points="161.82,-244.462 151.268,-243.516 158.928,-250.836 161.82,-244.462"/>
</g>
<!-- Node36 -->
<g id="node36" class="node"><title>Node36</title>
<g id="a_node36"><a xlink:href="cuda__init_8hpp.html" target="_top" xlink:title="cuda_init.hpp">
<polygon fill="none" stroke="black" points="210.5,-168.5 210.5,-187.5 292.5,-187.5 292.5,-168.5 210.5,-168.5"/>
<text text-anchor="middle" x="251.5" y="-175.5" font-family="Helvetica,sans-Serif" font-size="10.00">cuda_init.hpp</text>
</a>
</g>
</g>
<!-- Node29&#45;&gt;Node36 -->
<g id="edge55" class="edge"><title>Node29&#45;&gt;Node36</title>
<path fill="none" stroke="midnightblue" d="M251.5,-280.368C251.5,-262.617 251.5,-221.666 251.5,-197.597"/>
<polygon fill="midnightblue" stroke="midnightblue" points="255,-197.591 251.5,-187.591 248,-197.591 255,-197.591"/>
</g>
<!-- Node30&#45;&gt;Node2 -->
<g id="edge48" class="edge"><title>Node30&#45;&gt;Node2</title>
<path fill="none" stroke="midnightblue" d="M423.126,-225.47C425.957,-224.955 428.772,-224.459 431.5,-224 531.66,-207.149 650.24,-191.561 710.707,-183.924"/>
<polygon fill="midnightblue" stroke="midnightblue" points="711.468,-187.356 720.953,-182.636 710.595,-180.41 711.468,-187.356"/>
</g>
<!-- Node31&#45;&gt;Node2 -->
<g id="edge50" class="edge"><title>Node31&#45;&gt;Node2</title>
<path fill="none" stroke="midnightblue" d="M520.049,-225.09C571.163,-214.867 659.653,-197.169 710.827,-186.935"/>
<polygon fill="midnightblue" stroke="midnightblue" points="711.728,-190.324 720.848,-184.93 710.355,-183.46 711.728,-190.324"/>
</g>
<!-- Node33 -->
<g id="node33" class="node"><title>Node33</title>
<polygon fill="none" stroke="#bfbfbf" points="71,-168.5 71,-187.5 124,-187.5 124,-168.5 71,-168.5"/>
<text text-anchor="middle" x="97.5" y="-175.5" font-family="Helvetica,sans-Serif" font-size="10.00">string.h</text>
</g>
<!-- Node32&#45;&gt;Node33 -->
<g id="edge52" class="edge"><title>Node32&#45;&gt;Node33</title>
<path fill="none" stroke="midnightblue" d="M126.72,-224.083C121.828,-216.534 114.673,-205.495 108.667,-196.23"/>
<polygon fill="midnightblue" stroke="midnightblue" points="111.548,-194.239 103.172,-187.751 105.674,-198.046 111.548,-194.239"/>
</g>
<!-- Node34 -->
<g id="node34" class="node"><title>Node34</title>
<polygon fill="none" stroke="#bfbfbf" points="142.5,-168.5 142.5,-187.5 192.5,-187.5 192.5,-168.5 142.5,-168.5"/>
<text text-anchor="middle" x="167.5" y="-175.5" font-family="Helvetica,sans-Serif" font-size="10.00">stdio.h</text>
</g>
<!-- Node32&#45;&gt;Node34 -->
<g id="edge53" class="edge"><title>Node32&#45;&gt;Node34</title>
<path fill="none" stroke="midnightblue" d="M138.28,-224.083C143.172,-216.534 150.327,-205.495 156.333,-196.23"/>
<polygon fill="midnightblue" stroke="midnightblue" points="159.326,-198.046 161.828,-187.751 153.452,-194.239 159.326,-198.046"/>
</g>
<!-- Node35 -->
<g id="node35" class="node"><title>Node35</title>
<polygon fill="none" stroke="#bfbfbf" points="0,-168.5 0,-187.5 53,-187.5 53,-168.5 0,-168.5"/>
<text text-anchor="middle" x="26.5" y="-175.5" font-family="Helvetica,sans-Serif" font-size="10.00">stdlib.h</text>
</g>
<!-- Node32&#45;&gt;Node35 -->
<g id="edge54" class="edge"><title>Node32&#45;&gt;Node35</title>
<path fill="none" stroke="midnightblue" d="M115.469,-224.324C98.4702,-215.664 72.1239,-202.242 52.5074,-192.249"/>
<polygon fill="midnightblue" stroke="midnightblue" points="53.9876,-189.075 43.4885,-187.655 50.8101,-195.312 53.9876,-189.075"/>
</g>
<!-- Node36&#45;&gt;Node7 -->
<g id="edge56" class="edge"><title>Node36&#45;&gt;Node7</title>
<path fill="none" stroke="midnightblue" d="M245.139,-168.342C235.999,-154.764 221.693,-128.329 235.5,-112 263.576,-78.796 390.513,-70.0817 458.761,-67.8021"/>
<polygon fill="midnightblue" stroke="midnightblue" points="458.897,-71.2997 468.786,-67.4994 458.685,-64.3029 458.897,-71.2997"/>
</g>
<!-- Node36&#45;&gt;Node17 -->
<g id="edge57" class="edge"><title>Node36&#45;&gt;Node17</title>
<path fill="none" stroke="midnightblue" d="M254.307,-168.083C256.585,-160.849 259.871,-150.409 262.708,-141.397"/>
<polygon fill="midnightblue" stroke="midnightblue" points="266.081,-142.341 265.745,-131.751 259.404,-140.239 266.081,-142.341"/>
</g>
</g>
</svg>
