<?xml version="1.0" encoding="UTF-8" standalone="no"?>
<!DOCTYPE svg PUBLIC "-//W3C//DTD SVG 1.1//EN"
 "http://www.w3.org/Graphics/SVG/1.1/DTD/svg11.dtd">
<!-- Generated by graphviz version 2.38.0 (20140413.2041)
 -->
<!-- Title: ljcos2.cpp Pages: 1 -->
<!--zoomable 532 -->
<svg id="main" version="1.1" xmlns="http://www.w3.org/2000/svg" xmlns:xlink="http://www.w3.org/1999/xlink" xml:space="preserve" onload="init(evt)">
<style type="text/css"><![CDATA[
.edge:hover path { stroke: red; }
.edge:hover polygon { stroke: red; fill: red; }
]]></style>
<script type="text/javascript"><![CDATA[
var edges = document.getElementsByTagName('g');
if (edges && edges.length) {
  for (var i=0;i<edges.length;i++) {
    if (edges[i].id.substr(0,4)=='edge') {
      edges[i].setAttribute('class','edge');
    }
  }
}
]]></script>
        <defs>
                <circle id="rim" cx="0" cy="0" r="7"/>
                <circle id="rim2" cx="0" cy="0" r="3.5"/>
                <g id="zoomPlus">
                        <use xlink:href="#rim" fill="#404040">
                                <set attributeName="fill" to="#808080" begin="zoomplus.mouseover" end="zoomplus.mouseout"/>
                        </use>
                        <path d="M-4,0h8M0,-4v8" fill="none" stroke="white" stroke-width="1.5" pointer-events="none"/>
                </g>
                <g id="zoomMin">
                        <use xlink:href="#rim" fill="#404040">
                                <set attributeName="fill" to="#808080" begin="zoomminus.mouseover" end="zoomminus.mouseout"/>
                        </use>
                        <path d="M-4,0h8" fill="none" stroke="white" stroke-width="1.5" pointer-events="none"/>
                </g>
                <g id="dirArrow">
                        <path fill="none" stroke="white" stroke-width="1.5" d="M0,-3.0v7 M-2.5,-0.5L0,-3.0L2.5,-0.5"/>
                </g>
               <g id="resetDef">
                       <use xlink:href="#rim2" fill="#404040">
                               <set attributeName="fill" to="#808080" begin="reset.mouseover" end="reset.mouseout"/>
                       </use>
               </g>
        </defs>

<script type="text/javascript">
var viewWidth = 1118;
var viewHeight = 532;
var sectionId = 'dynsection-0';
</script>
<script xlink:href="svgpan.js"/>
<svg id="graph" class="graph">
<g id="viewport">
<title>ljcos2.cpp</title>
<!-- Node1 -->
<g id="node1" class="node"><title>Node1</title>
<polygon fill="#bfbfbf" stroke="black" points="440.5,-504.5 440.5,-523.5 505.5,-523.5 505.5,-504.5 440.5,-504.5"/>
<text text-anchor="middle" x="473" y="-511.5" font-family="Helvetica,sans-Serif" font-size="10.00">ljcos2.cpp</text>
</g>
<!-- Node2 -->
<g id="node2" class="node"><title>Node2</title>
<g id="a_node2"><a xlink:href="ljcos2_8hpp.html" target="_top" xlink:title="Routines to calculate the lennard&#45;jones with cosine tail energy and/or force for a particle pair...">
<polygon fill="none" stroke="black" points="339,-448.5 339,-467.5 405,-467.5 405,-448.5 339,-448.5"/>
<text text-anchor="middle" x="372" y="-455.5" font-family="Helvetica,sans-Serif" font-size="10.00">ljcos2.hpp</text>
</a>
</g>
</g>
<!-- Node1&#45;&gt;Node2 -->
<g id="edge1" class="edge"><title>Node1&#45;&gt;Node2</title>
<path fill="none" stroke="midnightblue" d="M456.773,-504.324C440.649,-495.703 415.7,-482.364 397.036,-472.386"/>
<polygon fill="midnightblue" stroke="midnightblue" points="398.656,-469.283 388.187,-467.655 395.356,-475.456 398.656,-469.283"/>
</g>
<!-- Node4 -->
<g id="node4" class="node"><title>Node4</title>
<polygon fill="none" stroke="#bfbfbf" points="14.5,-112.5 14.5,-131.5 61.5,-131.5 61.5,-112.5 14.5,-112.5"/>
<text text-anchor="middle" x="38" y="-119.5" font-family="Helvetica,sans-Serif" font-size="10.00">cmath</text>
</g>
<!-- Node1&#45;&gt;Node4 -->
<g id="edge40" class="edge"><title>Node1&#45;&gt;Node4</title>
<path fill="none" stroke="midnightblue" d="M440.489,-512.413C333.625,-509.618 0,-493.633 0,-403 0,-403 0,-403 0,-233 0,-198.813 16.6005,-161.764 27.8573,-140.571"/>
<polygon fill="midnightblue" stroke="midnightblue" points="30.9473,-142.215 32.7163,-131.769 24.8191,-138.832 30.9473,-142.215"/>
</g>
<!-- Node27 -->
<g id="node27" class="node"><title>Node27</title>
<g id="a_node27"><a xlink:href="lj_8hpp.html" target="_top" xlink:title="Routines to calculate the lennard jones energy and/or force for a particle pair. ">
<polygon fill="none" stroke="black" points="519,-448.5 519,-467.5 563,-467.5 563,-448.5 519,-448.5"/>
<text text-anchor="middle" x="541" y="-455.5" font-family="Helvetica,sans-Serif" font-size="10.00">lj.hpp</text>
</a>
</g>
</g>
<!-- Node1&#45;&gt;Node27 -->
<g id="edge41" class="edge"><title>Node1&#45;&gt;Node27</title>
<path fill="none" stroke="midnightblue" d="M483.925,-504.324C494.175,-496.185 509.721,-483.839 522.001,-474.087"/>
<polygon fill="midnightblue" stroke="midnightblue" points="524.221,-476.794 529.876,-467.834 519.868,-471.312 524.221,-476.794"/>
</g>
<!-- Node28 -->
<g id="node28" class="node"><title>Node28</title>
<g id="a_node28"><a xlink:href="communication_8hpp.html" target="_top" xlink:title="This file contains the asynchronous MPI communication. ">
<polygon fill="none" stroke="black" points="724.5,-280.5 724.5,-299.5 837.5,-299.5 837.5,-280.5 724.5,-280.5"/>
<text text-anchor="middle" x="781" y="-287.5" font-family="Helvetica,sans-Serif" font-size="10.00">communication.hpp</text>
</a>
</g>
</g>
<!-- Node1&#45;&gt;Node28 -->
<g id="edge47" class="edge"><title>Node1&#45;&gt;Node28</title>
<path fill="none" stroke="midnightblue" d="M493.81,-504.371C514.077,-495.775 545.601,-481.889 572,-468 614.7,-445.536 627.309,-442.122 665,-412 706.101,-379.153 747.005,-332.35 767.491,-307.687"/>
<polygon fill="midnightblue" stroke="midnightblue" points="770.434,-309.618 774.077,-299.669 765.025,-305.175 770.434,-309.618"/>
</g>
<!-- Node3 -->
<g id="node3" class="node"><title>Node3</title>
<g id="a_node3"><a xlink:href="utils_8hpp.html" target="_top" xlink:title="Small functions that are useful not only for one modul. ">
<polygon fill="none" stroke="black" points="583.5,-168.5 583.5,-187.5 642.5,-187.5 642.5,-168.5 583.5,-168.5"/>
<text text-anchor="middle" x="613" y="-175.5" font-family="Helvetica,sans-Serif" font-size="10.00">utils.hpp</text>
</a>
</g>
</g>
<!-- Node2&#45;&gt;Node3 -->
<g id="edge2" class="edge"><title>Node2&#45;&gt;Node3</title>
<path fill="none" stroke="midnightblue" d="M338.907,-451.916C261.666,-439.118 76,-402.576 76,-347 76,-347 76,-347 76,-289 76,-187.514 448.743,-178.779 573.135,-178.689"/>
<polygon fill="midnightblue" stroke="midnightblue" points="573.359,-182.189 583.364,-178.701 573.368,-175.189 573.359,-182.189"/>
</g>
<!-- Node2&#45;&gt;Node4 -->
<g id="edge39" class="edge"><title>Node2&#45;&gt;Node4</title>
<path fill="none" stroke="midnightblue" d="M338.714,-456.644C288.074,-454.925 189.685,-446.907 115,-412 74.4274,-393.037 38,-391.785 38,-347 38,-347 38,-347 38,-233 38,-200.948 38,-163.643 38,-141.749"/>
<polygon fill="midnightblue" stroke="midnightblue" points="41.5001,-141.558 38,-131.558 34.5001,-141.558 41.5001,-141.558"/>
</g>
<!-- Node20 -->
<g id="node20" class="node"><title>Node20</title>
<g id="a_node20"><a xlink:href="interaction__data_8hpp.html" target="_top" xlink:title="Various procedures concerning interactions between particles. ">
<polygon fill="none" stroke="black" points="467.5,-336.5 467.5,-355.5 584.5,-355.5 584.5,-336.5 467.5,-336.5"/>
<text text-anchor="middle" x="526" y="-343.5" font-family="Helvetica,sans-Serif" font-size="10.00">interaction_data.hpp</text>
</a>
</g>
</g>
<!-- Node2&#45;&gt;Node20 -->
<g id="edge22" class="edge"><title>Node2&#45;&gt;Node20</title>
<path fill="none" stroke="midnightblue" d="M382.968,-448.361C399.156,-435.69 430.502,-411.461 458,-392 473.116,-381.302 490.539,-369.787 503.964,-361.084"/>
<polygon fill="midnightblue" stroke="midnightblue" points="506.036,-363.913 512.543,-355.552 502.242,-358.03 506.036,-363.913"/>
</g>
<!-- Node21 -->
<g id="node21" class="node"><title>Node21</title>
<g id="a_node21"><a xlink:href="particle__data_8hpp.html" target="_top" xlink:title="For more information on particle_data, see particle_data.c. ">
<polygon fill="none" stroke="black" points="439.5,-224.5 439.5,-243.5 540.5,-243.5 540.5,-224.5 439.5,-224.5"/>
<text text-anchor="middle" x="490" y="-231.5" font-family="Helvetica,sans-Serif" font-size="10.00">particle_data.hpp</text>
</a>
</g>
</g>
<!-- Node2&#45;&gt;Node21 -->
<g id="edge26" class="edge"><title>Node2&#45;&gt;Node21</title>
<path fill="none" stroke="midnightblue" d="M357.539,-448.347C339.588,-436.424 312.641,-413.922 324,-392 336.764,-367.366 354.009,-374.143 375,-356 414.447,-321.906 455.245,-275.973 476.014,-251.68"/>
<polygon fill="midnightblue" stroke="midnightblue" points="478.923,-253.661 482.72,-243.77 473.584,-249.134 478.923,-253.661"/>
</g>
<!-- Node22 -->
<g id="node22" class="node"><title>Node22</title>
<g id="a_node22"><a xlink:href="mol__cut_8hpp.html" target="_top" xlink:title="mol_cut.hpp">
<polygon fill="none" stroke="black" points="333.5,-392.5 333.5,-411.5 410.5,-411.5 410.5,-392.5 333.5,-392.5"/>
<text text-anchor="middle" x="372" y="-399.5" font-family="Helvetica,sans-Serif" font-size="10.00">mol_cut.hpp</text>
</a>
</g>
</g>
<!-- Node2&#45;&gt;Node22 -->
<g id="edge27" class="edge"><title>Node2&#45;&gt;Node22</title>
<path fill="none" stroke="midnightblue" d="M372,-448.083C372,-441.006 372,-430.861 372,-421.986"/>
<polygon fill="midnightblue" stroke="midnightblue" points="375.5,-421.751 372,-411.751 368.5,-421.751 375.5,-421.751"/>
</g>
<!-- Node26 -->
<g id="node26" class="node"><title>Node26</title>
<g id="a_node26"><a xlink:href="forcecap_8hpp.html" target="_top" xlink:title="forcecap.hpp">
<polygon fill="none" stroke="black" points="467,-392.5 467,-411.5 547,-411.5 547,-392.5 467,-392.5"/>
<text text-anchor="middle" x="507" y="-399.5" font-family="Helvetica,sans-Serif" font-size="10.00">forcecap.hpp</text>
</a>
</g>
</g>
<!-- Node2&#45;&gt;Node26 -->
<g id="edge38" class="edge"><title>Node2&#45;&gt;Node26</title>
<path fill="none" stroke="midnightblue" d="M393.391,-448.444C415.707,-439.517 450.903,-425.439 476.208,-415.317"/>
<polygon fill="midnightblue" stroke="midnightblue" points="477.724,-418.48 485.709,-411.516 475.124,-411.981 477.724,-418.48"/>
</g>
<!-- Node3&#45;&gt;Node4 -->
<g id="edge3" class="edge"><title>Node3&#45;&gt;Node4</title>
<path fill="none" stroke="midnightblue" d="M583.296,-174.21C485.68,-165.043 175.12,-135.877 71.7973,-126.174"/>
<polygon fill="midnightblue" stroke="midnightblue" points="71.9085,-122.669 61.625,-125.219 71.2539,-129.638 71.9085,-122.669"/>
</g>
<!-- Node5 -->
<g id="node5" class="node"><title>Node5</title>
<polygon fill="none" stroke="#bfbfbf" points="403,-112.5 403,-131.5 449,-131.5 449,-112.5 403,-112.5"/>
<text text-anchor="middle" x="426" y="-119.5" font-family="Helvetica,sans-Serif" font-size="10.00">cstdio</text>
</g>
<!-- Node3&#45;&gt;Node5 -->
<g id="edge4" class="edge"><title>Node3&#45;&gt;Node5</title>
<path fill="none" stroke="midnightblue" d="M583.369,-168.444C549.438,-158.645 494.01,-142.639 458.802,-132.472"/>
<polygon fill="midnightblue" stroke="midnightblue" points="459.586,-129.056 449.007,-129.644 457.644,-135.781 459.586,-129.056"/>
</g>
<!-- Node6 -->
<g id="node6" class="node"><title>Node6</title>
<polygon fill="none" stroke="#bfbfbf" points="588.5,-112.5 588.5,-131.5 637.5,-131.5 637.5,-112.5 588.5,-112.5"/>
<text text-anchor="middle" x="613" y="-119.5" font-family="Helvetica,sans-Serif" font-size="10.00">cstdlib</text>
</g>
<!-- Node3&#45;&gt;Node6 -->
<g id="edge5" class="edge"><title>Node3&#45;&gt;Node6</title>
<path fill="none" stroke="midnightblue" d="M613,-168.083C613,-161.006 613,-150.861 613,-141.986"/>
<polygon fill="midnightblue" stroke="midnightblue" points="616.5,-141.751 613,-131.751 609.5,-141.751 616.5,-141.751"/>
</g>
<!-- Node7 -->
<g id="node7" class="node"><title>Node7</title>
<polygon fill="none" stroke="#bfbfbf" points="656,-112.5 656,-131.5 706,-131.5 706,-112.5 656,-112.5"/>
<text text-anchor="middle" x="681" y="-119.5" font-family="Helvetica,sans-Serif" font-size="10.00">cstring</text>
</g>
<!-- Node3&#45;&gt;Node7 -->
<g id="edge6" class="edge"><title>Node3&#45;&gt;Node7</title>
<path fill="none" stroke="midnightblue" d="M623.925,-168.324C634.175,-160.185 649.721,-147.839 662.001,-138.087"/>
<polygon fill="midnightblue" stroke="midnightblue" points="664.221,-140.794 669.876,-131.834 659.868,-135.312 664.221,-140.794"/>
</g>
<!-- Node8 -->
<g id="node8" class="node"><title>Node8</title>
<g id="a_node8"><a xlink:href="config_8hpp.html" target="_top" xlink:title="This file contains the defaults for Espresso. ">
<polygon fill="none" stroke="black" points="443.5,-56.5 443.5,-75.5 510.5,-75.5 510.5,-56.5 443.5,-56.5"/>
<text text-anchor="middle" x="477" y="-63.5" font-family="Helvetica,sans-Serif" font-size="10.00">config.hpp</text>
</a>
</g>
</g>
<!-- Node3&#45;&gt;Node8 -->
<g id="edge7" class="edge"><title>Node3&#45;&gt;Node8</title>
<path fill="none" stroke="midnightblue" d="M583.403,-173.103C556.918,-168.081 518.845,-156.819 496,-132 484.44,-119.441 479.881,-100.22 478.1,-85.9337"/>
<polygon fill="midnightblue" stroke="midnightblue" points="481.566,-85.4027 477.187,-75.7556 474.594,-86.0284 481.566,-85.4027"/>
</g>
<!-- Node12 -->
<g id="node12" class="node"><title>Node12</title>
<g id="a_node12"><a xlink:href="debug_8hpp.html" target="_top" xlink:title="This file controls debug facilities. ">
<polygon fill="none" stroke="black" points="724,-112.5 724,-131.5 792,-131.5 792,-112.5 724,-112.5"/>
<text text-anchor="middle" x="758" y="-119.5" font-family="Helvetica,sans-Serif" font-size="10.00">debug.hpp</text>
</a>
</g>
</g>
<!-- Node3&#45;&gt;Node12 -->
<g id="edge11" class="edge"><title>Node3&#45;&gt;Node12</title>
<path fill="none" stroke="midnightblue" d="M635.976,-168.444C660.157,-159.438 698.418,-145.189 725.646,-135.049"/>
<polygon fill="midnightblue" stroke="midnightblue" points="726.982,-138.286 735.132,-131.516 724.539,-131.727 726.982,-138.286"/>
</g>
<!-- Node13 -->
<g id="node13" class="node"><title>Node13</title>
<g id="a_node13"><a xlink:href="lees__edwards_8hpp.html" target="_top" xlink:title="lees_edwards.hpp">
<polygon fill="none" stroke="black" points="281,-112.5 281,-131.5 385,-131.5 385,-112.5 281,-112.5"/>
<text text-anchor="middle" x="333" y="-119.5" font-family="Helvetica,sans-Serif" font-size="10.00">lees_edwards.hpp</text>
</a>
</g>
</g>
<!-- Node3&#45;&gt;Node13 -->
<g id="edge13" class="edge"><title>Node3&#45;&gt;Node13</title>
<path fill="none" stroke="midnightblue" d="M583.3,-171.272C536.83,-162.31 446.204,-144.832 387.697,-133.549"/>
<polygon fill="midnightblue" stroke="midnightblue" points="388.005,-130.044 377.523,-131.587 386.679,-136.917 388.005,-130.044"/>
</g>
<!-- Node14 -->
<g id="node14" class="node"><title>Node14</title>
<g id="a_node14"><a xlink:href="errorhandling_8hpp.html" target="_top" xlink:title="This file contains the errorhandling code for severe errors, like a broken bond or illegal parameter ...">
<polygon fill="none" stroke="black" points="914.5,-112.5 914.5,-131.5 1017.5,-131.5 1017.5,-112.5 914.5,-112.5"/>
<text text-anchor="middle" x="966" y="-119.5" font-family="Helvetica,sans-Serif" font-size="10.00">errorhandling.hpp</text>
</a>
</g>
</g>
<!-- Node3&#45;&gt;Node14 -->
<g id="edge15" class="edge"><title>Node3&#45;&gt;Node14</title>
<path fill="none" stroke="midnightblue" d="M642.792,-172.443C700.298,-163.646 827.663,-144.162 904.22,-132.451"/>
<polygon fill="midnightblue" stroke="midnightblue" points="904.858,-135.894 914.214,-130.922 903.8,-128.974 904.858,-135.894"/>
</g>
<!-- Node18 -->
<g id="node18" class="node"><title>Node18</title>
<polygon fill="none" stroke="#bfbfbf" points="810.5,-112.5 810.5,-131.5 857.5,-131.5 857.5,-112.5 810.5,-112.5"/>
<text text-anchor="middle" x="834" y="-119.5" font-family="Helvetica,sans-Serif" font-size="10.00">vector</text>
</g>
<!-- Node3&#45;&gt;Node18 -->
<g id="edge20" class="edge"><title>Node3&#45;&gt;Node18</title>
<path fill="none" stroke="midnightblue" d="M642.702,-170.193C677.932,-162.054 738.669,-147.814 800.33,-132.11"/>
<polygon fill="midnightblue" stroke="midnightblue" points="801.41,-135.447 810.231,-129.578 799.675,-128.665 801.41,-135.447"/>
</g>
<!-- Node19 -->
<g id="node19" class="node"><title>Node19</title>
<polygon fill="none" stroke="#bfbfbf" points="505.5,-112.5 505.5,-131.5 570.5,-131.5 570.5,-112.5 505.5,-112.5"/>
<text text-anchor="middle" x="538" y="-119.5" font-family="Helvetica,sans-Serif" font-size="10.00">exception</text>
</g>
<!-- Node3&#45;&gt;Node19 -->
<g id="edge21" class="edge"><title>Node3&#45;&gt;Node19</title>
<path fill="none" stroke="midnightblue" d="M600.95,-168.324C589.537,-160.107 572.169,-147.602 558.565,-137.807"/>
<polygon fill="midnightblue" stroke="midnightblue" points="560.43,-134.837 550.269,-131.834 556.34,-140.517 560.43,-134.837"/>
</g>
<!-- Node9 -->
<g id="node9" class="node"><title>Node9</title>
<g id="a_node9"><a xlink:href="acconfig_8hpp.html" target="_top" xlink:title="acconfig.hpp">
<polygon fill="none" stroke="black" points="327,-0.5 327,-19.5 405,-19.5 405,-0.5 327,-0.5"/>
<text text-anchor="middle" x="366" y="-7.5" font-family="Helvetica,sans-Serif" font-size="10.00">acconfig.hpp</text>
</a>
</g>
</g>
<!-- Node8&#45;&gt;Node9 -->
<g id="edge8" class="edge"><title>Node8&#45;&gt;Node9</title>
<path fill="none" stroke="midnightblue" d="M459.166,-56.324C441.284,-47.6247 413.525,-34.1202 392.954,-24.113"/>
<polygon fill="midnightblue" stroke="midnightblue" points="394.313,-20.8819 383.79,-19.6545 391.251,-27.1765 394.313,-20.8819"/>
</g>
<!-- Node10 -->
<g id="node10" class="node"><title>Node10</title>
<g id="a_node10"><a xlink:href="myconfig-final_8hpp.html" target="_top" xlink:title="myconfig&#45;final.hpp">
<polygon fill="none" stroke="black" points="423.5,-0.5 423.5,-19.5 530.5,-19.5 530.5,-0.5 423.5,-0.5"/>
<text text-anchor="middle" x="477" y="-7.5" font-family="Helvetica,sans-Serif" font-size="10.00">myconfig&#45;final.hpp</text>
</a>
</g>
</g>
<!-- Node8&#45;&gt;Node10 -->
<g id="edge9" class="edge"><title>Node8&#45;&gt;Node10</title>
<path fill="none" stroke="midnightblue" d="M477,-56.083C477,-49.0059 477,-38.8611 477,-29.9865"/>
<polygon fill="midnightblue" stroke="midnightblue" points="480.5,-29.751 477,-19.7511 473.5,-29.7511 480.5,-29.751"/>
</g>
<!-- Node11 -->
<g id="node11" class="node"><title>Node11</title>
<g id="a_node11"><a xlink:href="config-features_8hpp.html" target="_top" xlink:title="config&#45;features.hpp">
<polygon fill="none" stroke="black" points="548.5,-0.5 548.5,-19.5 659.5,-19.5 659.5,-0.5 548.5,-0.5"/>
<text text-anchor="middle" x="604" y="-7.5" font-family="Helvetica,sans-Serif" font-size="10.00">config&#45;features.hpp</text>
</a>
</g>
</g>
<!-- Node8&#45;&gt;Node11 -->
<g id="edge10" class="edge"><title>Node8&#45;&gt;Node11</title>
<path fill="none" stroke="midnightblue" d="M497.124,-56.4435C518.024,-47.5566 550.935,-33.5632 574.716,-23.4514"/>
<polygon fill="midnightblue" stroke="midnightblue" points="576.138,-26.6504 583.971,-19.5164 573.398,-20.2085 576.138,-26.6504"/>
</g>
<!-- Node12&#45;&gt;Node8 -->
<g id="edge12" class="edge"><title>Node12&#45;&gt;Node8</title>
<path fill="none" stroke="midnightblue" d="M723.745,-113.768C720.788,-113.162 717.842,-112.566 715,-112 647.185,-98.4933 568.294,-83.7719 520.536,-74.9688"/>
<polygon fill="midnightblue" stroke="midnightblue" points="521.011,-71.4975 510.542,-73.1294 519.743,-78.3819 521.011,-71.4975"/>
</g>
<!-- Node13&#45;&gt;Node8 -->
<g id="edge14" class="edge"><title>Node13&#45;&gt;Node8</title>
<path fill="none" stroke="midnightblue" d="M355.817,-112.444C379.832,-103.438 417.829,-89.1891 444.869,-79.049"/>
<polygon fill="midnightblue" stroke="midnightblue" points="446.155,-82.3049 454.29,-75.5164 443.697,-75.7506 446.155,-82.3049"/>
</g>
<!-- Node14&#45;&gt;Node8 -->
<g id="edge16" class="edge"><title>Node14&#45;&gt;Node8</title>
<path fill="none" stroke="midnightblue" d="M914.496,-113.827C909.599,-113.19 904.707,-112.571 900,-112 761.884,-95.2401 597.974,-78.7779 521.028,-71.2514"/>
<polygon fill="midnightblue" stroke="midnightblue" points="521.053,-67.7372 510.76,-70.2496 520.373,-74.7042 521.053,-67.7372"/>
</g>
<!-- Node15 -->
<g id="node15" class="node"><title>Node15</title>
<polygon fill="none" stroke="#bfbfbf" points="876,-56.5 876,-75.5 920,-75.5 920,-56.5 876,-56.5"/>
<text text-anchor="middle" x="898" y="-63.5" font-family="Helvetica,sans-Serif" font-size="10.00">string</text>
</g>
<!-- Node14&#45;&gt;Node15 -->
<g id="edge17" class="edge"><title>Node14&#45;&gt;Node15</title>
<path fill="none" stroke="midnightblue" d="M955.075,-112.324C944.825,-104.185 929.279,-91.8395 916.999,-82.0874"/>
<polygon fill="midnightblue" stroke="midnightblue" points="919.132,-79.3119 909.124,-75.8339 914.779,-84.7937 919.132,-79.3119"/>
</g>
<!-- Node16 -->
<g id="node16" class="node"><title>Node16</title>
<polygon fill="none" stroke="#bfbfbf" points="938,-56.5 938,-75.5 994,-75.5 994,-56.5 938,-56.5"/>
<text text-anchor="middle" x="966" y="-63.5" font-family="Helvetica,sans-Serif" font-size="10.00">sstream</text>
</g>
<!-- Node14&#45;&gt;Node16 -->
<g id="edge18" class="edge"><title>Node14&#45;&gt;Node16</title>
<path fill="none" stroke="midnightblue" d="M966,-112.083C966,-105.006 966,-94.8611 966,-85.9865"/>
<polygon fill="midnightblue" stroke="midnightblue" points="969.5,-85.751 966,-75.7511 962.5,-85.7511 969.5,-85.751"/>
</g>
<!-- Node17 -->
<g id="node17" class="node"><title>Node17</title>
<polygon fill="none" stroke="#bfbfbf" points="1012,-56.5 1012,-75.5 1044,-75.5 1044,-56.5 1012,-56.5"/>
<text text-anchor="middle" x="1028" y="-63.5" font-family="Helvetica,sans-Serif" font-size="10.00">list</text>
</g>
<!-- Node14&#45;&gt;Node17 -->
<g id="edge19" class="edge"><title>Node14&#45;&gt;Node17</title>
<path fill="none" stroke="midnightblue" d="M975.961,-112.324C985.127,-104.341 998.937,-92.3128 1010.03,-82.6529"/>
<polygon fill="midnightblue" stroke="midnightblue" points="1012.62,-85.041 1017.86,-75.8339 1008.02,-79.7624 1012.62,-85.041"/>
</g>
<!-- Node20&#45;&gt;Node3 -->
<g id="edge23" class="edge"><title>Node20&#45;&gt;Node3</title>
<path fill="none" stroke="midnightblue" d="M530.677,-336.075C544.491,-309.719 585.287,-231.878 603.744,-196.661"/>
<polygon fill="midnightblue" stroke="midnightblue" points="606.967,-198.05 608.509,-187.568 600.767,-194.801 606.967,-198.05"/>
</g>
<!-- Node20&#45;&gt;Node21 -->
<g id="edge24" class="edge"><title>Node20&#45;&gt;Node21</title>
<path fill="none" stroke="midnightblue" d="M523.175,-336.368C517.339,-318.537 503.842,-277.295 495.98,-253.272"/>
<polygon fill="midnightblue" stroke="midnightblue" points="499.249,-252.007 492.812,-243.591 492.596,-254.184 499.249,-252.007"/>
</g>
<!-- Node21&#45;&gt;Node3 -->
<g id="edge25" class="edge"><title>Node21&#45;&gt;Node3</title>
<path fill="none" stroke="midnightblue" d="M509.49,-224.444C529.642,-215.596 561.323,-201.687 584.331,-191.586"/>
<polygon fill="midnightblue" stroke="midnightblue" points="585.852,-194.741 593.601,-187.516 583.038,-188.332 585.852,-194.741"/>
</g>
<!-- Node22&#45;&gt;Node20 -->
<g id="edge37" class="edge"><title>Node22&#45;&gt;Node20</title>
<path fill="none" stroke="midnightblue" d="M396.402,-392.444C422.197,-383.399 463.077,-369.064 492.018,-358.916"/>
<polygon fill="midnightblue" stroke="midnightblue" points="493.434,-362.128 501.712,-355.516 491.118,-355.523 493.434,-362.128"/>
</g>
<!-- Node22&#45;&gt;Node21 -->
<g id="edge36" class="edge"><title>Node22&#45;&gt;Node21</title>
<path fill="none" stroke="midnightblue" d="M382.466,-392.309C401.499,-376.01 442.023,-338.966 466,-300 474.865,-285.593 481.233,-267.4 485.172,-253.928"/>
<polygon fill="midnightblue" stroke="midnightblue" points="488.65,-254.478 487.911,-243.909 481.897,-252.632 488.65,-254.478"/>
</g>
<!-- Node23 -->
<g id="node23" class="node"><title>Node23</title>
<g id="a_node23"><a xlink:href="virtual__sites_8hpp.html" target="_top" xlink:title="This file contains routine to handle virtual sites Virtual sites are like particles, but they will be not integrated. ">
<polygon fill="none" stroke="black" points="268,-336.5 268,-355.5 366,-355.5 366,-336.5 268,-336.5"/>
<text text-anchor="middle" x="317" y="-343.5" font-family="Helvetica,sans-Serif" font-size="10.00">virtual_sites.hpp</text>
</a>
</g>
</g>
<!-- Node22&#45;&gt;Node23 -->
<g id="edge28" class="edge"><title>Node22&#45;&gt;Node23</title>
<path fill="none" stroke="midnightblue" d="M362.918,-392.083C354.829,-384.141 342.805,-372.335 333.09,-362.797"/>
<polygon fill="midnightblue" stroke="midnightblue" points="335.501,-360.26 325.913,-355.751 330.597,-365.254 335.501,-360.26"/>
</g>
<!-- Node23&#45;&gt;Node21 -->
<g id="edge29" class="edge"><title>Node23&#45;&gt;Node21</title>
<path fill="none" stroke="midnightblue" d="M332.748,-336.382C348.653,-327.57 373.829,-313.322 395,-300 421.429,-283.369 450.987,-262.825 470.009,-249.34"/>
<polygon fill="midnightblue" stroke="midnightblue" points="472.083,-252.159 478.199,-243.508 468.023,-246.457 472.083,-252.159"/>
</g>
<!-- Node24 -->
<g id="node24" class="node"><title>Node24</title>
<g id="a_node24"><a xlink:href="virtual__sites__com_8hpp.html" target="_top" xlink:title="virtual_sites_com.hpp">
<polygon fill="none" stroke="black" points="104,-280.5 104,-299.5 228,-299.5 228,-280.5 104,-280.5"/>
<text text-anchor="middle" x="166" y="-287.5" font-family="Helvetica,sans-Serif" font-size="10.00">virtual_sites_com.hpp</text>
</a>
</g>
</g>
<!-- Node23&#45;&gt;Node24 -->
<g id="edge30" class="edge"><title>Node23&#45;&gt;Node24</title>
<path fill="none" stroke="midnightblue" d="M293.074,-336.444C267.781,-327.399 227.698,-313.064 199.32,-302.916"/>
<polygon fill="midnightblue" stroke="midnightblue" points="200.409,-299.588 189.814,-299.516 198.052,-306.179 200.409,-299.588"/>
</g>
<!-- Node25 -->
<g id="node25" class="node"><title>Node25</title>
<g id="a_node25"><a xlink:href="virtual__sites__relative_8hpp.html" target="_top" xlink:title="virtual_sites_relative.hpp">
<polygon fill="none" stroke="black" points="246,-280.5 246,-299.5 386,-299.5 386,-280.5 246,-280.5"/>
<text text-anchor="middle" x="316" y="-287.5" font-family="Helvetica,sans-Serif" font-size="10.00">virtual_sites_relative.hpp</text>
</a>
</g>
</g>
<!-- Node23&#45;&gt;Node25 -->
<g id="edge33" class="edge"><title>Node23&#45;&gt;Node25</title>
<path fill="none" stroke="midnightblue" d="M316.835,-336.083C316.704,-329.006 316.516,-318.861 316.352,-309.986"/>
<polygon fill="midnightblue" stroke="midnightblue" points="319.847,-309.685 316.162,-299.751 312.848,-309.814 319.847,-309.685"/>
</g>
<!-- Node24&#45;&gt;Node8 -->
<g id="edge31" class="edge"><title>Node24&#45;&gt;Node8</title>
<path fill="none" stroke="midnightblue" d="M167.752,-280.288C174.08,-251.223 198.592,-156.887 258,-112 285.114,-91.5137 377.594,-77.9993 433.336,-71.5038"/>
<polygon fill="midnightblue" stroke="midnightblue" points="433.751,-74.9792 443.292,-70.3725 432.961,-68.0239 433.751,-74.9792"/>
</g>
<!-- Node24&#45;&gt;Node21 -->
<g id="edge32" class="edge"><title>Node24&#45;&gt;Node21</title>
<path fill="none" stroke="midnightblue" d="M217.339,-280.444C274.977,-270.837 368.414,-255.264 429.539,-245.077"/>
<polygon fill="midnightblue" stroke="midnightblue" points="430.146,-248.524 439.435,-243.428 428.995,-241.619 430.146,-248.524"/>
</g>
<!-- Node25&#45;&gt;Node8 -->
<g id="edge34" class="edge"><title>Node25&#45;&gt;Node8</title>
<path fill="none" stroke="midnightblue" d="M309.115,-280.145C288.26,-252.188 229.73,-164.555 272,-112 291.845,-87.3263 379.23,-75.4138 433.303,-70.3076"/>
<polygon fill="midnightblue" stroke="midnightblue" points="433.671,-73.7887 443.316,-69.4035 433.041,-66.8171 433.671,-73.7887"/>
</g>
<!-- Node25&#45;&gt;Node21 -->
<g id="edge35" class="edge"><title>Node25&#45;&gt;Node21</title>
<path fill="none" stroke="midnightblue" d="M343.571,-280.444C373.097,-271.28 420.118,-256.688 452.883,-246.519"/>
<polygon fill="midnightblue" stroke="midnightblue" points="454.045,-249.823 462.558,-243.516 451.97,-243.138 454.045,-249.823"/>
</g>
<!-- Node27&#45;&gt;Node3 -->
<g id="edge42" class="edge"><title>Node27&#45;&gt;Node3</title>
<path fill="none" stroke="midnightblue" d="M560.413,-448.464C591.991,-433.108 651,-397.639 651,-347 651,-347 651,-347 651,-289 651,-254.813 634.4,-217.764 623.143,-196.571"/>
<polygon fill="midnightblue" stroke="midnightblue" points="626.181,-194.832 618.284,-187.769 620.053,-198.215 626.181,-194.832"/>
</g>
<!-- Node27&#45;&gt;Node20 -->
<g id="edge44" class="edge"><title>Node27&#45;&gt;Node20</title>
<path fill="none" stroke="midnightblue" d="M545.778,-448.491C552.171,-435.981 562.041,-411.952 556,-392 552.883,-381.705 546.548,-371.612 540.499,-363.602"/>
<polygon fill="midnightblue" stroke="midnightblue" points="543.219,-361.399 534.214,-355.818 537.772,-365.797 543.219,-361.399"/>
</g>
<!-- Node27&#45;&gt;Node21 -->
<g id="edge43" class="edge"><title>Node27&#45;&gt;Node21</title>
<path fill="none" stroke="midnightblue" d="M549.918,-448.216C569.008,-428.298 610.707,-378.162 593,-336 576.849,-297.543 538.119,-266.376 513.024,-249.291"/>
<polygon fill="midnightblue" stroke="midnightblue" points="514.737,-246.229 504.462,-243.646 510.884,-252.073 514.737,-246.229"/>
</g>
<!-- Node27&#45;&gt;Node22 -->
<g id="edge45" class="edge"><title>Node27&#45;&gt;Node22</title>
<path fill="none" stroke="midnightblue" d="M518.906,-449.94C490.932,-441.002 442.342,-425.476 408.745,-414.741"/>
<polygon fill="midnightblue" stroke="midnightblue" points="409.431,-411.286 398.84,-411.576 407.3,-417.954 409.431,-411.286"/>
</g>
<!-- Node27&#45;&gt;Node26 -->
<g id="edge46" class="edge"><title>Node27&#45;&gt;Node26</title>
<path fill="none" stroke="midnightblue" d="M535.386,-448.083C530.633,-440.534 523.682,-429.495 517.848,-420.23"/>
<polygon fill="midnightblue" stroke="midnightblue" points="520.8,-418.349 512.51,-411.751 514.876,-422.078 520.8,-418.349"/>
</g>
<!-- Node28&#45;&gt;Node21 -->
<g id="edge48" class="edge"><title>Node28&#45;&gt;Node21</title>
<path fill="none" stroke="midnightblue" d="M734.89,-280.444C683.594,-270.925 600.727,-255.547 545.809,-245.356"/>
<polygon fill="midnightblue" stroke="midnightblue" points="546.365,-241.9 535.894,-243.516 545.088,-248.782 546.365,-241.9"/>
</g>
<!-- Node29 -->
<g id="node29" class="node"><title>Node29</title>
<g id="a_node29"><a xlink:href="random_8hpp.html" target="_top" xlink:title="A random generator. ">
<polygon fill="none" stroke="black" points="679.5,-224.5 679.5,-243.5 754.5,-243.5 754.5,-224.5 679.5,-224.5"/>
<text text-anchor="middle" x="717" y="-231.5" font-family="Helvetica,sans-Serif" font-size="10.00">random.hpp</text>
</a>
</g>
</g>
<!-- Node28&#45;&gt;Node29 -->
<g id="edge49" class="edge"><title>Node28&#45;&gt;Node29</title>
<path fill="none" stroke="midnightblue" d="M770.717,-280.324C761.164,-272.263 746.72,-260.077 735.216,-250.369"/>
<polygon fill="midnightblue" stroke="midnightblue" points="737.37,-247.608 727.47,-243.834 732.856,-252.958 737.37,-247.608"/>
</g>
<!-- Node30 -->
<g id="node30" class="node"><title>Node30</title>
<g id="a_node30"><a xlink:href="topology_8hpp.html" target="_top" xlink:title="This file contains functions for handling the system topology. ">
<polygon fill="none" stroke="black" points="772.5,-224.5 772.5,-243.5 851.5,-243.5 851.5,-224.5 772.5,-224.5"/>
<text text-anchor="middle" x="812" y="-231.5" font-family="Helvetica,sans-Serif" font-size="10.00">topology.hpp</text>
</a>
</g>
</g>
<!-- Node28&#45;&gt;Node30 -->
<g id="edge51" class="edge"><title>Node28&#45;&gt;Node30</title>
<path fill="none" stroke="midnightblue" d="M786.119,-280.083C790.408,-272.613 796.658,-261.724 801.942,-252.52"/>
<polygon fill="midnightblue" stroke="midnightblue" points="805.033,-254.166 806.976,-243.751 798.962,-250.681 805.033,-254.166"/>
</g>
<!-- Node31 -->
<g id="node31" class="node"><title>Node31</title>
<g id="a_node31"><a xlink:href="mpi_8h.html" target="_top" xlink:title="This is the MPIfake implementation. ">
<polygon fill="none" stroke="black" points="961,-224.5 961,-243.5 1005,-243.5 1005,-224.5 961,-224.5"/>
<text text-anchor="middle" x="983" y="-231.5" font-family="Helvetica,sans-Serif" font-size="10.00">mpi.h</text>
</a>
</g>
</g>
<!-- Node28&#45;&gt;Node31 -->
<g id="edge53" class="edge"><title>Node28&#45;&gt;Node31</title>
<path fill="none" stroke="midnightblue" d="M813.008,-280.444C850.733,-270.358 913.059,-253.697 950.848,-243.595"/>
<polygon fill="midnightblue" stroke="midnightblue" points="952.058,-246.895 960.814,-240.931 950.25,-240.132 952.058,-246.895"/>
</g>
<!-- Node35 -->
<g id="node35" class="node"><title>Node35</title>
<g id="a_node35"><a xlink:href="cuda__init_8hpp.html" target="_top" xlink:title="cuda_init.hpp">
<polygon fill="none" stroke="black" points="816,-168.5 816,-187.5 898,-187.5 898,-168.5 816,-168.5"/>
<text text-anchor="middle" x="857" y="-175.5" font-family="Helvetica,sans-Serif" font-size="10.00">cuda_init.hpp</text>
</a>
</g>
</g>
<!-- Node28&#45;&gt;Node35 -->
<g id="edge57" class="edge"><title>Node28&#45;&gt;Node35</title>
<path fill="none" stroke="midnightblue" d="M810.881,-280.387C828.54,-273.587 849.451,-262.15 860,-244 868.152,-229.974 866.214,-211.229 862.941,-197.474"/>
<polygon fill="midnightblue" stroke="midnightblue" points="866.269,-196.38 860.197,-187.698 859.53,-198.272 866.269,-196.38"/>
</g>
<!-- Node29&#45;&gt;Node3 -->
<g id="edge50" class="edge"><title>Node29&#45;&gt;Node3</title>
<path fill="none" stroke="midnightblue" d="M700.291,-224.324C683.688,-215.703 657.998,-202.364 638.78,-192.386"/>
<polygon fill="midnightblue" stroke="midnightblue" points="640.156,-189.156 629.668,-187.655 636.93,-195.369 640.156,-189.156"/>
</g>
<!-- Node30&#45;&gt;Node3 -->
<g id="edge52" class="edge"><title>Node30&#45;&gt;Node3</title>
<path fill="none" stroke="midnightblue" d="M780.468,-224.444C745.907,-215.065 690.389,-200 652.841,-189.811"/>
<polygon fill="midnightblue" stroke="midnightblue" points="653.327,-186.317 642.76,-187.075 651.494,-193.072 653.327,-186.317"/>
</g>
<!-- Node32 -->
<g id="node32" class="node"><title>Node32</title>
<polygon fill="none" stroke="#bfbfbf" points="916.5,-168.5 916.5,-187.5 969.5,-187.5 969.5,-168.5 916.5,-168.5"/>
<text text-anchor="middle" x="943" y="-175.5" font-family="Helvetica,sans-Serif" font-size="10.00">string.h</text>
</g>
<!-- Node31&#45;&gt;Node32 -->
<g id="edge54" class="edge"><title>Node31&#45;&gt;Node32</title>
<path fill="none" stroke="midnightblue" d="M976.395,-224.083C970.745,-216.455 962.455,-205.264 955.549,-195.941"/>
<polygon fill="midnightblue" stroke="midnightblue" points="958.247,-193.703 949.482,-187.751 952.622,-197.87 958.247,-193.703"/>
</g>
<!-- Node33 -->
<g id="node33" class="node"><title>Node33</title>
<polygon fill="none" stroke="#bfbfbf" points="988,-168.5 988,-187.5 1038,-187.5 1038,-168.5 988,-168.5"/>
<text text-anchor="middle" x="1013" y="-175.5" font-family="Helvetica,sans-Serif" font-size="10.00">stdio.h</text>
</g>
<!-- Node31&#45;&gt;Node33 -->
<g id="edge55" class="edge"><title>Node31&#45;&gt;Node33</title>
<path fill="none" stroke="midnightblue" d="M987.954,-224.083C992.104,-216.613 998.153,-205.724 1003.27,-196.52"/>
<polygon fill="midnightblue" stroke="midnightblue" points="1006.34,-198.192 1008.14,-187.751 1000.22,-194.793 1006.34,-198.192"/>
</g>
<!-- Node34 -->
<g id="node34" class="node"><title>Node34</title>
<polygon fill="none" stroke="#bfbfbf" points="1056.5,-168.5 1056.5,-187.5 1109.5,-187.5 1109.5,-168.5 1056.5,-168.5"/>
<text text-anchor="middle" x="1083" y="-175.5" font-family="Helvetica,sans-Serif" font-size="10.00">stdlib.h</text>
</g>
<!-- Node31&#45;&gt;Node34 -->
<g id="edge56" class="edge"><title>Node31&#45;&gt;Node34</title>
<path fill="none" stroke="midnightblue" d="M999.067,-224.324C1014.96,-215.743 1039.51,-202.486 1057.96,-192.522"/>
<polygon fill="midnightblue" stroke="midnightblue" points="1059.84,-195.486 1066.97,-187.655 1056.51,-189.326 1059.84,-195.486"/>
</g>
<!-- Node35&#45;&gt;Node8 -->
<g id="edge58" class="edge"><title>Node35&#45;&gt;Node8</title>
<path fill="none" stroke="midnightblue" d="M862.044,-168.181C869.194,-154.383 879.945,-127.651 866,-112 843.336,-86.5635 617.676,-73.3717 520.804,-68.8441"/>
<polygon fill="midnightblue" stroke="midnightblue" points="520.893,-65.3446 510.744,-68.3835 520.573,-72.3373 520.893,-65.3446"/>
</g>
<!-- Node35&#45;&gt;Node18 -->
<g id="edge59" class="edge"><title>Node35&#45;&gt;Node18</title>
<path fill="none" stroke="midnightblue" d="M853.202,-168.083C850.087,-160.77 845.577,-150.181 841.711,-141.103"/>
<polygon fill="midnightblue" stroke="midnightblue" points="844.866,-139.58 837.727,-131.751 838.426,-142.323 844.866,-139.58"/>
</g>
</g>
</svg>
        <g id="navigator" transform="translate(0 0)" fill="#404254">
                <rect fill="#f2f5e9" fill-opacity="0.5" stroke="#606060" stroke-width=".5" x="0" y="0" width="60" height="60"/>
                <use id="zoomplus" xlink:href="#zoomPlus" x="17" y="9" onmousedown="handleZoom(evt,'in')"/>
                <use id="zoomminus" xlink:href="#zoomMin" x="42" y="9" onmousedown="handleZoom(evt,'out')"/>
                <use id="reset" xlink:href="#resetDef" x="30" y="36" onmousedown="handleReset()"/>
                <g id="arrowUp" xlink:href="#dirArrow" transform="translate(30 24)" onmousedown="handlePan(0,-1)">
                  <use xlink:href="#rim" fill="#404040">
                        <set attributeName="fill" to="#808080" begin="arrowUp.mouseover" end="arrowUp.mouseout"/>
                  </use>
                  <path fill="none" stroke="white" stroke-width="1.5" d="M0,-3.0v7 M-2.5,-0.5L0,-3.0L2.5,-0.5"/>
                </g>
                <g id="arrowRight" xlink:href="#dirArrow" transform="rotate(90) translate(36 -43)" onmousedown="handlePan(1,0)">
                  <use xlink:href="#rim" fill="#404040">
                        <set attributeName="fill" to="#808080" begin="arrowRight.mouseover" end="arrowRight.mouseout"/>
                  </use>
                  <path fill="none" stroke="white" stroke-width="1.5" d="M0,-3.0v7 M-2.5,-0.5L0,-3.0L2.5,-0.5"/>
                </g>
                <g id="arrowDown" xlink:href="#dirArrow" transform="rotate(180) translate(-30 -48)" onmousedown="handlePan(0,1)">
                  <use xlink:href="#rim" fill="#404040">
                        <set attributeName="fill" to="#808080" begin="arrowDown.mouseover" end="arrowDown.mouseout"/>
                  </use>
                  <path fill="none" stroke="white" stroke-width="1.5" d="M0,-3.0v7 M-2.5,-0.5L0,-3.0L2.5,-0.5"/>
                </g>
                <g id="arrowLeft" xlink:href="#dirArrow" transform="rotate(270) translate(-36 17)" onmousedown="handlePan(-1,0)">
                  <use xlink:href="#rim" fill="#404040">
                        <set attributeName="fill" to="#808080" begin="arrowLeft.mouseover" end="arrowLeft.mouseout"/>
                  </use>
                  <path fill="none" stroke="white" stroke-width="1.5" d="M0,-3.0v7 M-2.5,-0.5L0,-3.0L2.5,-0.5"/>
                </g>
        </g>
        <svg viewBox="0 0 15 15" width="100%" height="30px" preserveAspectRatio="xMaxYMin meet">
         <g id="arrow_out" transform="scale(0.3 0.3)">
          <a xlink:href="ljcos2_8cpp__incl_org.svg" target="_base">
           <rect id="button" ry="5" rx="5" y="6" x="6" height="38" width="38"
                fill="#f2f5e9" fill-opacity="0.5" stroke="#606060" stroke-width="1.0"/>
           <path id="arrow"
             d="M 11.500037,31.436501 C 11.940474,20.09759 22.043105,11.32322 32.158766,21.979434 L 37.068811,17.246167 C 37.068811,17.246167 37.088388,32 37.088388,32 L 22.160133,31.978069 C 22.160133,31.978069 26.997745,27.140456 26.997745,27.140456 C 18.528582,18.264221 13.291696,25.230495 11.500037,31.436501 z"
             style="fill:#404040;"/>
          </a>
         </g>
        </svg>
</svg>
