<?xml version="1.0" encoding="UTF-8" standalone="no"?>
<!DOCTYPE svg PUBLIC "-//W3C//DTD SVG 1.1//EN"
 "http://www.w3.org/Graphics/SVG/1.1/DTD/svg11.dtd">
<!-- Generated by graphviz version 2.38.0 (20140413.2041)
 -->
<!-- Title: ljgen_tcl.cpp Pages: 1 -->
<!--zoomable 532 -->
<svg id="main" version="1.1" xmlns="http://www.w3.org/2000/svg" xmlns:xlink="http://www.w3.org/1999/xlink" xml:space="preserve" onload="init(evt)">
<style type="text/css"><![CDATA[
.edge:hover path { stroke: red; }
.edge:hover polygon { stroke: red; fill: red; }
]]></style>
<script type="text/javascript"><![CDATA[
var edges = document.getElementsByTagName('g');
if (edges && edges.length) {
  for (var i=0;i<edges.length;i++) {
    if (edges[i].id.substr(0,4)=='edge') {
      edges[i].setAttribute('class','edge');
    }
  }
}
]]></script>
        <defs>
                <circle id="rim" cx="0" cy="0" r="7"/>
                <circle id="rim2" cx="0" cy="0" r="3.5"/>
                <g id="zoomPlus">
                        <use xlink:href="#rim" fill="#404040">
                                <set attributeName="fill" to="#808080" begin="zoomplus.mouseover" end="zoomplus.mouseout"/>
                        </use>
                        <path d="M-4,0h8M0,-4v8" fill="none" stroke="white" stroke-width="1.5" pointer-events="none"/>
                </g>
                <g id="zoomMin">
                        <use xlink:href="#rim" fill="#404040">
                                <set attributeName="fill" to="#808080" begin="zoomminus.mouseover" end="zoomminus.mouseout"/>
                        </use>
                        <path d="M-4,0h8" fill="none" stroke="white" stroke-width="1.5" pointer-events="none"/>
                </g>
                <g id="dirArrow">
                        <path fill="none" stroke="white" stroke-width="1.5" d="M0,-3.0v7 M-2.5,-0.5L0,-3.0L2.5,-0.5"/>
                </g>
               <g id="resetDef">
                       <use xlink:href="#rim2" fill="#404040">
                               <set attributeName="fill" to="#808080" begin="reset.mouseover" end="reset.mouseout"/>
                       </use>
               </g>
        </defs>

<script type="text/javascript">
var viewWidth = 955;
var viewHeight = 532;
var sectionId = 'dynsection-0';
</script>
<script xlink:href="svgpan.js"/>
<svg id="graph" class="graph">
<g id="viewport">
<title>ljgen_tcl.cpp</title>
<!-- Node1 -->
<g id="node1" class="node"><title>Node1</title>
<polygon fill="#bfbfbf" stroke="black" points="656,-504.5 656,-523.5 734,-523.5 734,-504.5 656,-504.5"/>
<text text-anchor="middle" x="695" y="-511.5" font-family="Helvetica,sans-Serif" font-size="10.00">ljgen_tcl.cpp</text>
</g>
<!-- Node2 -->
<g id="node2" class="node"><title>Node2</title>
<g id="a_node2"><a xlink:href="config_8hpp.html" target="_top" xlink:title="This file contains the defaults for Espresso. ">
<polygon fill="none" stroke="black" points="571.5,-56.5 571.5,-75.5 638.5,-75.5 638.5,-56.5 571.5,-56.5"/>
<text text-anchor="middle" x="605" y="-63.5" font-family="Helvetica,sans-Serif" font-size="10.00">config.hpp</text>
</a>
</g>
</g>
<!-- Node1&#45;&gt;Node2 -->
<g id="edge1" class="edge"><title>Node1&#45;&gt;Node2</title>
<path fill="none" stroke="midnightblue" d="M734.099,-513.007C804.881,-510.744 947,-494.773 947,-403 947,-403 947,-403 947,-177 947,-143.079 935.308,-130.689 907,-112 865.416,-84.5451 722.032,-73.1456 648.798,-69.0269"/>
<polygon fill="midnightblue" stroke="midnightblue" points="648.697,-65.5164 638.522,-68.471 648.319,-72.5062 648.697,-65.5164"/>
</g>
<!-- Node6 -->
<g id="node6" class="node"><title>Node6</title>
<g id="a_node6"><a xlink:href="ljgen_8hpp.html" target="_top" xlink:title="Routines to calculate the generalized lennard jones energy and/or force for a particle pair...">
<polygon fill="none" stroke="black" points="442,-448.5 442,-467.5 504,-467.5 504,-448.5 442,-448.5"/>
<text text-anchor="middle" x="473" y="-455.5" font-family="Helvetica,sans-Serif" font-size="10.00">ljgen.hpp</text>
</a>
</g>
</g>
<!-- Node1&#45;&gt;Node6 -->
<g id="edge5" class="edge"><title>Node1&#45;&gt;Node6</title>
<path fill="none" stroke="midnightblue" d="M659.823,-504.444C620.178,-494.8 555.814,-479.144 513.944,-468.959"/>
<polygon fill="midnightblue" stroke="midnightblue" points="514.616,-465.521 504.072,-466.558 512.961,-472.322 514.616,-465.521"/>
</g>
<!-- Node26 -->
<g id="node26" class="node"><title>Node26</title>
<g id="a_node26"><a xlink:href="ljgen__tcl_8hpp.html" target="_top" xlink:title="ljgen_tcl.hpp">
<polygon fill="none" stroke="black" points="723.5,-448.5 723.5,-467.5 802.5,-467.5 802.5,-448.5 723.5,-448.5"/>
<text text-anchor="middle" x="763" y="-455.5" font-family="Helvetica,sans-Serif" font-size="10.00">ljgen_tcl.hpp</text>
</a>
</g>
</g>
<!-- Node1&#45;&gt;Node26 -->
<g id="edge39" class="edge"><title>Node1&#45;&gt;Node26</title>
<path fill="none" stroke="midnightblue" d="M705.925,-504.324C716.175,-496.185 731.721,-483.839 744.001,-474.087"/>
<polygon fill="midnightblue" stroke="midnightblue" points="746.221,-476.794 751.876,-467.834 741.868,-471.312 746.221,-476.794"/>
</g>
<!-- Node27 -->
<g id="node27" class="node"><title>Node27</title>
<g id="a_node27"><a xlink:href="parser_8hpp.html" target="_top" xlink:title="This file contains macros for parsing the parameters to the &#39;inter&#39; command. ">
<polygon fill="none" stroke="black" points="729,-392.5 729,-411.5 797,-411.5 797,-392.5 729,-392.5"/>
<text text-anchor="middle" x="763" y="-399.5" font-family="Helvetica,sans-Serif" font-size="10.00">parser.hpp</text>
</a>
</g>
</g>
<!-- Node1&#45;&gt;Node27 -->
<g id="edge57" class="edge"><title>Node1&#45;&gt;Node27</title>
<path fill="none" stroke="midnightblue" d="M696.013,-504.402C697.866,-491.359 702.704,-466.173 714,-448 721.263,-436.316 732.375,-425.763 742.182,-417.818"/>
<polygon fill="midnightblue" stroke="midnightblue" points="744.544,-420.417 750.334,-411.544 740.275,-414.869 744.544,-420.417"/>
</g>
<!-- Node29 -->
<g id="node29" class="node"><title>Node29</title>
<g id="a_node29"><a xlink:href="communication_8hpp.html" target="_top" xlink:title="This file contains the asynchronous MPI communication. ">
<polygon fill="none" stroke="black" points="581.5,-280.5 581.5,-299.5 694.5,-299.5 694.5,-280.5 581.5,-280.5"/>
<text text-anchor="middle" x="638" y="-287.5" font-family="Helvetica,sans-Serif" font-size="10.00">communication.hpp</text>
</a>
</g>
</g>
<!-- Node1&#45;&gt;Node29 -->
<g id="edge44" class="edge"><title>Node1&#45;&gt;Node29</title>
<path fill="none" stroke="midnightblue" d="M692.766,-504.297C684.361,-471.563 654.529,-355.375 642.793,-309.666"/>
<polygon fill="midnightblue" stroke="midnightblue" points="646.158,-308.699 640.281,-299.884 639.378,-310.44 646.158,-308.699"/>
</g>
<!-- Node3 -->
<g id="node3" class="node"><title>Node3</title>
<g id="a_node3"><a xlink:href="acconfig_8hpp.html" target="_top" xlink:title="acconfig.hpp">
<polygon fill="none" stroke="black" points="455,-0.5 455,-19.5 533,-19.5 533,-0.5 455,-0.5"/>
<text text-anchor="middle" x="494" y="-7.5" font-family="Helvetica,sans-Serif" font-size="10.00">acconfig.hpp</text>
</a>
</g>
</g>
<!-- Node2&#45;&gt;Node3 -->
<g id="edge2" class="edge"><title>Node2&#45;&gt;Node3</title>
<path fill="none" stroke="midnightblue" d="M587.166,-56.324C569.284,-47.6247 541.525,-34.1202 520.954,-24.113"/>
<polygon fill="midnightblue" stroke="midnightblue" points="522.313,-20.8819 511.79,-19.6545 519.251,-27.1765 522.313,-20.8819"/>
</g>
<!-- Node4 -->
<g id="node4" class="node"><title>Node4</title>
<g id="a_node4"><a xlink:href="myconfig-final_8hpp.html" target="_top" xlink:title="myconfig&#45;final.hpp">
<polygon fill="none" stroke="black" points="551.5,-0.5 551.5,-19.5 658.5,-19.5 658.5,-0.5 551.5,-0.5"/>
<text text-anchor="middle" x="605" y="-7.5" font-family="Helvetica,sans-Serif" font-size="10.00">myconfig&#45;final.hpp</text>
</a>
</g>
</g>
<!-- Node2&#45;&gt;Node4 -->
<g id="edge3" class="edge"><title>Node2&#45;&gt;Node4</title>
<path fill="none" stroke="midnightblue" d="M605,-56.083C605,-49.0059 605,-38.8611 605,-29.9865"/>
<polygon fill="midnightblue" stroke="midnightblue" points="608.5,-29.751 605,-19.7511 601.5,-29.7511 608.5,-29.751"/>
</g>
<!-- Node5 -->
<g id="node5" class="node"><title>Node5</title>
<g id="a_node5"><a xlink:href="config-features_8hpp.html" target="_top" xlink:title="config&#45;features.hpp">
<polygon fill="none" stroke="black" points="676.5,-0.5 676.5,-19.5 787.5,-19.5 787.5,-0.5 676.5,-0.5"/>
<text text-anchor="middle" x="732" y="-7.5" font-family="Helvetica,sans-Serif" font-size="10.00">config&#45;features.hpp</text>
</a>
</g>
</g>
<!-- Node2&#45;&gt;Node5 -->
<g id="edge4" class="edge"><title>Node2&#45;&gt;Node5</title>
<path fill="none" stroke="midnightblue" d="M625.124,-56.4435C646.024,-47.5566 678.935,-33.5632 702.716,-23.4514"/>
<polygon fill="midnightblue" stroke="midnightblue" points="704.138,-26.6504 711.971,-19.5164 701.398,-20.2085 704.138,-26.6504"/>
</g>
<!-- Node7 -->
<g id="node7" class="node"><title>Node7</title>
<g id="a_node7"><a xlink:href="utils_8hpp.html" target="_top" xlink:title="Small functions that are useful not only for one modul. ">
<polygon fill="none" stroke="black" points="485.5,-168.5 485.5,-187.5 544.5,-187.5 544.5,-168.5 485.5,-168.5"/>
<text text-anchor="middle" x="515" y="-175.5" font-family="Helvetica,sans-Serif" font-size="10.00">utils.hpp</text>
</a>
</g>
</g>
<!-- Node6&#45;&gt;Node7 -->
<g id="edge6" class="edge"><title>Node6&#45;&gt;Node7</title>
<path fill="none" stroke="midnightblue" d="M475.643,-448.452C478.337,-439.458 482.471,-424.852 485,-412 500.555,-332.964 509.965,-237.196 513.453,-197.557"/>
<polygon fill="midnightblue" stroke="midnightblue" points="516.946,-197.792 514.313,-187.529 509.971,-197.193 516.946,-197.792"/>
</g>
<!-- Node20 -->
<g id="node20" class="node"><title>Node20</title>
<g id="a_node20"><a xlink:href="interaction__data_8hpp.html" target="_top" xlink:title="Various procedures concerning interactions between particles. ">
<polygon fill="none" stroke="black" points="327.5,-336.5 327.5,-355.5 444.5,-355.5 444.5,-336.5 327.5,-336.5"/>
<text text-anchor="middle" x="386" y="-343.5" font-family="Helvetica,sans-Serif" font-size="10.00">interaction_data.hpp</text>
</a>
</g>
</g>
<!-- Node6&#45;&gt;Node20 -->
<g id="edge23" class="edge"><title>Node6&#45;&gt;Node20</title>
<path fill="none" stroke="midnightblue" d="M466.173,-448.368C451.752,-430.135 417.973,-387.426 399.189,-363.675"/>
<polygon fill="midnightblue" stroke="midnightblue" points="401.744,-361.264 392.795,-355.591 396.253,-365.606 401.744,-361.264"/>
</g>
<!-- Node21 -->
<g id="node21" class="node"><title>Node21</title>
<g id="a_node21"><a xlink:href="particle__data_8hpp.html" target="_top" xlink:title="For more information on particle_data, see particle_data.c. ">
<polygon fill="none" stroke="black" points="301.5,-224.5 301.5,-243.5 402.5,-243.5 402.5,-224.5 301.5,-224.5"/>
<text text-anchor="middle" x="352" y="-231.5" font-family="Helvetica,sans-Serif" font-size="10.00">particle_data.hpp</text>
</a>
</g>
</g>
<!-- Node6&#45;&gt;Node21 -->
<g id="edge27" class="edge"><title>Node6&#45;&gt;Node21</title>
<path fill="none" stroke="midnightblue" d="M473.329,-448.226C473.744,-427.476 472.655,-374.256 453,-336 434.008,-299.035 396.597,-267.183 373.023,-249.592"/>
<polygon fill="midnightblue" stroke="midnightblue" points="374.879,-246.614 364.732,-243.567 370.764,-252.277 374.879,-246.614"/>
</g>
<!-- Node22 -->
<g id="node22" class="node"><title>Node22</title>
<g id="a_node22"><a xlink:href="mol__cut_8hpp.html" target="_top" xlink:title="mol_cut.hpp">
<polygon fill="none" stroke="black" points="278.5,-392.5 278.5,-411.5 355.5,-411.5 355.5,-392.5 278.5,-392.5"/>
<text text-anchor="middle" x="317" y="-399.5" font-family="Helvetica,sans-Serif" font-size="10.00">mol_cut.hpp</text>
</a>
</g>
</g>
<!-- Node6&#45;&gt;Node22 -->
<g id="edge28" class="edge"><title>Node6&#45;&gt;Node22</title>
<path fill="none" stroke="midnightblue" d="M448.281,-448.444C422.152,-439.399 380.741,-425.064 351.424,-414.916"/>
<polygon fill="midnightblue" stroke="midnightblue" points="352.198,-411.48 341.603,-411.516 349.908,-418.095 352.198,-411.48"/>
</g>
<!-- Node7&#45;&gt;Node2 -->
<g id="edge11" class="edge"><title>Node7&#45;&gt;Node2</title>
<path fill="none" stroke="midnightblue" d="M544.685,-172.502C598.39,-164.069 707.154,-145.513 718,-132 741.033,-103.302 689.225,-84.8373 648.352,-75.1837"/>
<polygon fill="midnightblue" stroke="midnightblue" points="649.037,-71.7504 638.513,-72.9747 647.503,-78.5804 649.037,-71.7504"/>
</g>
<!-- Node8 -->
<g id="node8" class="node"><title>Node8</title>
<polygon fill="none" stroke="#bfbfbf" points="238.5,-112.5 238.5,-131.5 285.5,-131.5 285.5,-112.5 238.5,-112.5"/>
<text text-anchor="middle" x="262" y="-119.5" font-family="Helvetica,sans-Serif" font-size="10.00">cmath</text>
</g>
<!-- Node7&#45;&gt;Node8 -->
<g id="edge7" class="edge"><title>Node7&#45;&gt;Node8</title>
<path fill="none" stroke="midnightblue" d="M485.332,-171.561C444.766,-163.988 369.519,-149.455 295.68,-132.036"/>
<polygon fill="midnightblue" stroke="midnightblue" points="296.285,-128.582 285.746,-129.673 294.664,-135.392 296.285,-128.582"/>
</g>
<!-- Node9 -->
<g id="node9" class="node"><title>Node9</title>
<polygon fill="none" stroke="#bfbfbf" points="304,-112.5 304,-131.5 350,-131.5 350,-112.5 304,-112.5"/>
<text text-anchor="middle" x="327" y="-119.5" font-family="Helvetica,sans-Serif" font-size="10.00">cstdio</text>
</g>
<!-- Node7&#45;&gt;Node9 -->
<g id="edge8" class="edge"><title>Node7&#45;&gt;Node9</title>
<path fill="none" stroke="midnightblue" d="M485.211,-168.444C451.098,-158.645 395.373,-142.639 359.978,-132.472"/>
<polygon fill="midnightblue" stroke="midnightblue" points="360.708,-129.041 350.13,-129.644 358.776,-135.769 360.708,-129.041"/>
</g>
<!-- Node10 -->
<g id="node10" class="node"><title>Node10</title>
<polygon fill="none" stroke="#bfbfbf" points="368.5,-112.5 368.5,-131.5 417.5,-131.5 417.5,-112.5 368.5,-112.5"/>
<text text-anchor="middle" x="393" y="-119.5" font-family="Helvetica,sans-Serif" font-size="10.00">cstdlib</text>
</g>
<!-- Node7&#45;&gt;Node10 -->
<g id="edge9" class="edge"><title>Node7&#45;&gt;Node10</title>
<path fill="none" stroke="midnightblue" d="M495.669,-168.444C475.68,-159.596 444.257,-145.687 421.436,-135.586"/>
<polygon fill="midnightblue" stroke="midnightblue" points="422.802,-132.363 412.241,-131.516 419.968,-138.764 422.802,-132.363"/>
</g>
<!-- Node11 -->
<g id="node11" class="node"><title>Node11</title>
<polygon fill="none" stroke="#bfbfbf" points="831,-112.5 831,-131.5 881,-131.5 881,-112.5 831,-112.5"/>
<text text-anchor="middle" x="856" y="-119.5" font-family="Helvetica,sans-Serif" font-size="10.00">cstring</text>
</g>
<!-- Node7&#45;&gt;Node11 -->
<g id="edge10" class="edge"><title>Node7&#45;&gt;Node11</title>
<path fill="none" stroke="midnightblue" d="M544.785,-172.602C554.713,-171.137 565.833,-169.497 576,-168 684.884,-151.968 713.109,-153.735 821,-132 821.1,-131.98 821.2,-131.96 821.3,-131.939"/>
<polygon fill="midnightblue" stroke="midnightblue" points="821.842,-135.405 830.838,-129.809 820.316,-128.573 821.842,-135.405"/>
</g>
<!-- Node12 -->
<g id="node12" class="node"><title>Node12</title>
<g id="a_node12"><a xlink:href="debug_8hpp.html" target="_top" xlink:title="This file controls debug facilities. ">
<polygon fill="none" stroke="black" points="519,-112.5 519,-131.5 587,-131.5 587,-112.5 519,-112.5"/>
<text text-anchor="middle" x="553" y="-119.5" font-family="Helvetica,sans-Serif" font-size="10.00">debug.hpp</text>
</a>
</g>
</g>
<!-- Node7&#45;&gt;Node12 -->
<g id="edge12" class="edge"><title>Node7&#45;&gt;Node12</title>
<path fill="none" stroke="midnightblue" d="M521.275,-168.083C526.642,-160.455 534.518,-149.264 541.079,-139.941"/>
<polygon fill="midnightblue" stroke="midnightblue" points="543.949,-141.943 546.842,-131.751 538.225,-137.915 543.949,-141.943"/>
</g>
<!-- Node13 -->
<g id="node13" class="node"><title>Node13</title>
<g id="a_node13"><a xlink:href="lees__edwards_8hpp.html" target="_top" xlink:title="lees_edwards.hpp">
<polygon fill="none" stroke="black" points="605,-112.5 605,-131.5 709,-131.5 709,-112.5 605,-112.5"/>
<text text-anchor="middle" x="657" y="-119.5" font-family="Helvetica,sans-Serif" font-size="10.00">lees_edwards.hpp</text>
</a>
</g>
</g>
<!-- Node7&#45;&gt;Node13 -->
<g id="edge14" class="edge"><title>Node7&#45;&gt;Node13</title>
<path fill="none" stroke="midnightblue" d="M537.5,-168.444C561.077,-159.478 598.322,-145.314 624.964,-135.183"/>
<polygon fill="midnightblue" stroke="midnightblue" points="626.502,-138.342 634.605,-131.516 624.014,-131.8 626.502,-138.342"/>
</g>
<!-- Node14 -->
<g id="node14" class="node"><title>Node14</title>
<g id="a_node14"><a xlink:href="errorhandling_8hpp.html" target="_top" xlink:title="This file contains the errorhandling code for severe errors, like a broken bond or illegal parameter ...">
<polygon fill="none" stroke="black" points="40.5,-112.5 40.5,-131.5 143.5,-131.5 143.5,-112.5 40.5,-112.5"/>
<text text-anchor="middle" x="92" y="-119.5" font-family="Helvetica,sans-Serif" font-size="10.00">errorhandling.hpp</text>
</a>
</g>
</g>
<!-- Node7&#45;&gt;Node14 -->
<g id="edge16" class="edge"><title>Node7&#45;&gt;Node14</title>
<path fill="none" stroke="midnightblue" d="M485.255,-173.203C416.649,-164.445 246.148,-142.679 153.795,-130.889"/>
<polygon fill="midnightblue" stroke="midnightblue" points="154.111,-127.401 143.748,-129.606 153.224,-134.344 154.111,-127.401"/>
</g>
<!-- Node18 -->
<g id="node18" class="node"><title>Node18</title>
<polygon fill="none" stroke="#bfbfbf" points="765.5,-112.5 765.5,-131.5 812.5,-131.5 812.5,-112.5 765.5,-112.5"/>
<text text-anchor="middle" x="789" y="-119.5" font-family="Helvetica,sans-Serif" font-size="10.00">vector</text>
</g>
<!-- Node7&#45;&gt;Node18 -->
<g id="edge21" class="edge"><title>Node7&#45;&gt;Node18</title>
<path fill="none" stroke="midnightblue" d="M544.518,-171.804C589.283,-163.826 676.966,-147.817 751,-132 752.45,-131.69 753.93,-131.368 755.424,-131.037"/>
<polygon fill="midnightblue" stroke="midnightblue" points="756.349,-134.416 765.32,-128.779 754.792,-127.591 756.349,-134.416"/>
</g>
<!-- Node19 -->
<g id="node19" class="node"><title>Node19</title>
<polygon fill="none" stroke="#bfbfbf" points="435.5,-112.5 435.5,-131.5 500.5,-131.5 500.5,-112.5 435.5,-112.5"/>
<text text-anchor="middle" x="468" y="-119.5" font-family="Helvetica,sans-Serif" font-size="10.00">exception</text>
</g>
<!-- Node7&#45;&gt;Node19 -->
<g id="edge22" class="edge"><title>Node7&#45;&gt;Node19</title>
<path fill="none" stroke="midnightblue" d="M507.239,-168.083C500.463,-160.298 490.457,-148.801 482.245,-139.367"/>
<polygon fill="midnightblue" stroke="midnightblue" points="484.822,-136.996 475.617,-131.751 479.542,-141.592 484.822,-136.996"/>
</g>
<!-- Node12&#45;&gt;Node2 -->
<g id="edge13" class="edge"><title>Node12&#45;&gt;Node2</title>
<path fill="none" stroke="midnightblue" d="M561.587,-112.083C569.159,-104.22 580.378,-92.5688 589.514,-83.0813"/>
<polygon fill="midnightblue" stroke="midnightblue" points="592.158,-85.3821 596.573,-75.7511 587.115,-80.5266 592.158,-85.3821"/>
</g>
<!-- Node13&#45;&gt;Node2 -->
<g id="edge15" class="edge"><title>Node13&#45;&gt;Node2</title>
<path fill="none" stroke="midnightblue" d="M648.413,-112.083C640.841,-104.22 629.622,-92.5688 620.486,-83.0813"/>
<polygon fill="midnightblue" stroke="midnightblue" points="622.885,-80.5266 613.427,-75.7511 617.842,-85.3821 622.885,-80.5266"/>
</g>
<!-- Node14&#45;&gt;Node2 -->
<g id="edge17" class="edge"><title>Node14&#45;&gt;Node2</title>
<path fill="none" stroke="midnightblue" d="M143.5,-113.799C148.398,-113.168 153.292,-112.558 158,-112 305.512,-94.5228 480.935,-78.1444 561.101,-70.9027"/>
<polygon fill="midnightblue" stroke="midnightblue" points="561.665,-74.3661 571.311,-69.9832 561.038,-67.3943 561.665,-74.3661"/>
</g>
<!-- Node15 -->
<g id="node15" class="node"><title>Node15</title>
<polygon fill="none" stroke="#bfbfbf" points="126,-56.5 126,-75.5 170,-75.5 170,-56.5 126,-56.5"/>
<text text-anchor="middle" x="148" y="-63.5" font-family="Helvetica,sans-Serif" font-size="10.00">string</text>
</g>
<!-- Node14&#45;&gt;Node15 -->
<g id="edge18" class="edge"><title>Node14&#45;&gt;Node15</title>
<path fill="none" stroke="midnightblue" d="M100.997,-112.324C109.194,-104.42 121.506,-92.5482 131.472,-82.9377"/>
<polygon fill="midnightblue" stroke="midnightblue" points="134.07,-85.2947 138.839,-75.8339 129.211,-80.2558 134.07,-85.2947"/>
</g>
<!-- Node16 -->
<g id="node16" class="node"><title>Node16</title>
<polygon fill="none" stroke="#bfbfbf" points="2,-56.5 2,-75.5 58,-75.5 58,-56.5 2,-56.5"/>
<text text-anchor="middle" x="30" y="-63.5" font-family="Helvetica,sans-Serif" font-size="10.00">sstream</text>
</g>
<!-- Node14&#45;&gt;Node16 -->
<g id="edge19" class="edge"><title>Node14&#45;&gt;Node16</title>
<path fill="none" stroke="midnightblue" d="M82.0386,-112.324C72.8734,-104.341 59.0628,-92.3128 47.9718,-82.6529"/>
<polygon fill="midnightblue" stroke="midnightblue" points="49.9822,-79.7624 40.1426,-75.8339 45.3847,-85.041 49.9822,-79.7624"/>
</g>
<!-- Node17 -->
<g id="node17" class="node"><title>Node17</title>
<polygon fill="none" stroke="#bfbfbf" points="76,-56.5 76,-75.5 108,-75.5 108,-56.5 76,-56.5"/>
<text text-anchor="middle" x="92" y="-63.5" font-family="Helvetica,sans-Serif" font-size="10.00">list</text>
</g>
<!-- Node14&#45;&gt;Node17 -->
<g id="edge20" class="edge"><title>Node14&#45;&gt;Node17</title>
<path fill="none" stroke="midnightblue" d="M92,-112.083C92,-105.006 92,-94.8611 92,-85.9865"/>
<polygon fill="midnightblue" stroke="midnightblue" points="95.5001,-85.751 92,-75.7511 88.5001,-85.7511 95.5001,-85.751"/>
</g>
<!-- Node20&#45;&gt;Node7 -->
<g id="edge24" class="edge"><title>Node20&#45;&gt;Node7</title>
<path fill="none" stroke="midnightblue" d="M392.608,-336.49C407.952,-316.732 447.186,-266.215 480,-224 487.303,-214.605 495.467,-204.108 502.072,-195.618"/>
<polygon fill="midnightblue" stroke="midnightblue" points="504.911,-197.668 508.289,-187.626 499.386,-193.37 504.911,-197.668"/>
</g>
<!-- Node20&#45;&gt;Node21 -->
<g id="edge25" class="edge"><title>Node20&#45;&gt;Node21</title>
<path fill="none" stroke="midnightblue" d="M383.332,-336.368C377.82,-318.537 365.073,-277.295 357.648,-253.272"/>
<polygon fill="midnightblue" stroke="midnightblue" points="360.953,-252.112 354.656,-243.591 354.265,-254.179 360.953,-252.112"/>
</g>
<!-- Node21&#45;&gt;Node7 -->
<g id="edge26" class="edge"><title>Node21&#45;&gt;Node7</title>
<path fill="none" stroke="midnightblue" d="M377.828,-224.444C405.249,-215.359 448.777,-200.939 479.432,-190.783"/>
<polygon fill="midnightblue" stroke="midnightblue" points="480.901,-193.984 489.293,-187.516 478.7,-187.339 480.901,-193.984"/>
</g>
<!-- Node22&#45;&gt;Node20 -->
<g id="edge38" class="edge"><title>Node22&#45;&gt;Node20</title>
<path fill="none" stroke="midnightblue" d="M328.086,-392.324C338.486,-384.185 354.261,-371.839 366.722,-362.087"/>
<polygon fill="midnightblue" stroke="midnightblue" points="368.994,-364.753 374.712,-355.834 364.68,-359.241 368.994,-364.753"/>
</g>
<!-- Node22&#45;&gt;Node21 -->
<g id="edge37" class="edge"><title>Node22&#45;&gt;Node21</title>
<path fill="none" stroke="midnightblue" d="M316.275,-392.089C315.445,-379.49 314.6,-355.799 318,-336 323.149,-306.014 335.712,-272.876 344.04,-253.009"/>
<polygon fill="midnightblue" stroke="midnightblue" points="347.317,-254.247 348.052,-243.678 340.886,-251.482 347.317,-254.247"/>
</g>
<!-- Node23 -->
<g id="node23" class="node"><title>Node23</title>
<g id="a_node23"><a xlink:href="virtual__sites_8hpp.html" target="_top" xlink:title="This file contains routine to handle virtual sites Virtual sites are like particles, but they will be not integrated. ">
<polygon fill="none" stroke="black" points="168,-336.5 168,-355.5 266,-355.5 266,-336.5 168,-336.5"/>
<text text-anchor="middle" x="217" y="-343.5" font-family="Helvetica,sans-Serif" font-size="10.00">virtual_sites.hpp</text>
</a>
</g>
</g>
<!-- Node22&#45;&gt;Node23 -->
<g id="edge29" class="edge"><title>Node22&#45;&gt;Node23</title>
<path fill="none" stroke="midnightblue" d="M300.933,-392.324C285.042,-383.743 260.493,-370.486 242.042,-360.522"/>
<polygon fill="midnightblue" stroke="midnightblue" points="243.489,-357.326 233.027,-355.655 240.163,-363.486 243.489,-357.326"/>
</g>
<!-- Node23&#45;&gt;Node21 -->
<g id="edge30" class="edge"><title>Node23&#45;&gt;Node21</title>
<path fill="none" stroke="midnightblue" d="M234.016,-336.372C249.593,-328.085 272.903,-314.686 291,-300 309.111,-285.302 327.04,-265.38 338.724,-251.48"/>
<polygon fill="midnightblue" stroke="midnightblue" points="341.475,-253.646 345.138,-243.705 336.075,-249.192 341.475,-253.646"/>
</g>
<!-- Node24 -->
<g id="node24" class="node"><title>Node24</title>
<g id="a_node24"><a xlink:href="virtual__sites__com_8hpp.html" target="_top" xlink:title="virtual_sites_com.hpp">
<polygon fill="none" stroke="black" points="0,-280.5 0,-299.5 124,-299.5 124,-280.5 0,-280.5"/>
<text text-anchor="middle" x="62" y="-287.5" font-family="Helvetica,sans-Serif" font-size="10.00">virtual_sites_com.hpp</text>
</a>
</g>
</g>
<!-- Node23&#45;&gt;Node24 -->
<g id="edge31" class="edge"><title>Node23&#45;&gt;Node24</title>
<path fill="none" stroke="midnightblue" d="M192.44,-336.444C166.477,-327.399 125.332,-313.064 96.2029,-302.916"/>
<polygon fill="midnightblue" stroke="midnightblue" points="97.0401,-299.501 86.4453,-299.516 94.7371,-306.112 97.0401,-299.501"/>
</g>
<!-- Node25 -->
<g id="node25" class="node"><title>Node25</title>
<g id="a_node25"><a xlink:href="virtual__sites__relative_8hpp.html" target="_top" xlink:title="virtual_sites_relative.hpp">
<polygon fill="none" stroke="black" points="142,-280.5 142,-299.5 282,-299.5 282,-280.5 142,-280.5"/>
<text text-anchor="middle" x="212" y="-287.5" font-family="Helvetica,sans-Serif" font-size="10.00">virtual_sites_relative.hpp</text>
</a>
</g>
</g>
<!-- Node23&#45;&gt;Node25 -->
<g id="edge34" class="edge"><title>Node23&#45;&gt;Node25</title>
<path fill="none" stroke="midnightblue" d="M216.174,-336.083C215.519,-329.006 214.58,-318.861 213.758,-309.986"/>
<polygon fill="midnightblue" stroke="midnightblue" points="217.217,-309.386 212.81,-299.751 210.247,-310.031 217.217,-309.386"/>
</g>
<!-- Node24&#45;&gt;Node2 -->
<g id="edge32" class="edge"><title>Node24&#45;&gt;Node2</title>
<path fill="none" stroke="midnightblue" d="M66.2221,-280.391C81.2348,-250.826 135.27,-153.015 212,-112 271.569,-80.158 471.637,-70.681 561.111,-67.9993"/>
<polygon fill="midnightblue" stroke="midnightblue" points="561.307,-71.4952 571.204,-67.7117 561.108,-64.498 561.307,-71.4952"/>
</g>
<!-- Node24&#45;&gt;Node21 -->
<g id="edge33" class="edge"><title>Node24&#45;&gt;Node21</title>
<path fill="none" stroke="midnightblue" d="M107.951,-280.444C159.071,-270.925 241.654,-255.547 296.383,-245.356"/>
<polygon fill="midnightblue" stroke="midnightblue" points="297.073,-248.788 306.264,-243.516 295.792,-241.906 297.073,-248.788"/>
</g>
<!-- Node25&#45;&gt;Node2 -->
<g id="edge35" class="edge"><title>Node25&#45;&gt;Node2</title>
<path fill="none" stroke="midnightblue" d="M209.599,-280.487C202.153,-252.052 182.62,-159.477 229,-112 251.888,-88.5709 466.984,-74.3496 561.176,-69.1979"/>
<polygon fill="midnightblue" stroke="midnightblue" points="561.445,-72.6886 571.243,-68.6567 561.069,-65.6987 561.445,-72.6886"/>
</g>
<!-- Node25&#45;&gt;Node21 -->
<g id="edge36" class="edge"><title>Node25&#45;&gt;Node21</title>
<path fill="none" stroke="midnightblue" d="M234.183,-280.444C257.428,-271.478 294.149,-257.314 320.415,-247.183"/>
<polygon fill="midnightblue" stroke="midnightblue" points="321.85,-250.381 329.92,-243.516 319.331,-243.85 321.85,-250.381"/>
</g>
<!-- Node26&#45;&gt;Node27 -->
<g id="edge40" class="edge"><title>Node26&#45;&gt;Node27</title>
<path fill="none" stroke="midnightblue" d="M763,-448.083C763,-441.006 763,-430.861 763,-421.986"/>
<polygon fill="midnightblue" stroke="midnightblue" points="766.5,-421.751 763,-411.751 759.5,-421.751 766.5,-421.751"/>
</g>
<!-- Node27&#45;&gt;Node7 -->
<g id="edge41" class="edge"><title>Node27&#45;&gt;Node7</title>
<path fill="none" stroke="midnightblue" d="M758.416,-392.204C753.867,-383.253 746.885,-368.9 742,-356 720.338,-298.79 747.373,-266.11 703,-224 692.216,-213.767 606.298,-196.142 554.418,-186.259"/>
<polygon fill="midnightblue" stroke="midnightblue" points="555.004,-182.808 544.528,-184.391 553.704,-189.686 555.004,-182.808"/>
</g>
<!-- Node27&#45;&gt;Node11 -->
<g id="edge42" class="edge"><title>Node27&#45;&gt;Node11</title>
<path fill="none" stroke="midnightblue" d="M793.677,-392.464C835.695,-378.682 906,-347.223 906,-291 906,-291 906,-291 906,-233 906,-202.902 899.923,-195.182 887,-168 882.273,-158.059 875.463,-147.885 869.429,-139.731"/>
<polygon fill="midnightblue" stroke="midnightblue" points="872.19,-137.58 863.321,-131.783 866.639,-141.845 872.19,-137.58"/>
</g>
<!-- Node28 -->
<g id="node28" class="node"><title>Node28</title>
<polygon fill="none" stroke="#bfbfbf" points="751,-336.5 751,-355.5 789,-355.5 789,-336.5 751,-336.5"/>
<text text-anchor="middle" x="770" y="-343.5" font-family="Helvetica,sans-Serif" font-size="10.00">tcl.h</text>
</g>
<!-- Node27&#45;&gt;Node28 -->
<g id="edge43" class="edge"><title>Node27&#45;&gt;Node28</title>
<path fill="none" stroke="midnightblue" d="M764.156,-392.083C765.084,-384.927 766.418,-374.635 767.577,-365.691"/>
<polygon fill="midnightblue" stroke="midnightblue" points="771.051,-366.118 768.866,-355.751 764.109,-365.218 771.051,-366.118"/>
</g>
<!-- Node29&#45;&gt;Node21 -->
<g id="edge45" class="edge"><title>Node29&#45;&gt;Node21</title>
<path fill="none" stroke="midnightblue" d="M592.682,-280.444C542.372,-270.944 461.162,-255.611 407.187,-245.42"/>
<polygon fill="midnightblue" stroke="midnightblue" points="407.581,-241.933 397.106,-243.516 406.283,-248.811 407.581,-241.933"/>
</g>
<!-- Node30 -->
<g id="node30" class="node"><title>Node30</title>
<g id="a_node30"><a xlink:href="random_8hpp.html" target="_top" xlink:title="A random generator. ">
<polygon fill="none" stroke="black" points="619.5,-224.5 619.5,-243.5 694.5,-243.5 694.5,-224.5 619.5,-224.5"/>
<text text-anchor="middle" x="657" y="-231.5" font-family="Helvetica,sans-Serif" font-size="10.00">random.hpp</text>
</a>
</g>
</g>
<!-- Node29&#45;&gt;Node30 -->
<g id="edge46" class="edge"><title>Node29&#45;&gt;Node30</title>
<path fill="none" stroke="midnightblue" d="M641.137,-280.083C643.683,-272.849 647.356,-262.409 650.527,-253.397"/>
<polygon fill="midnightblue" stroke="midnightblue" points="653.903,-254.346 653.921,-243.751 647.3,-252.023 653.903,-254.346"/>
</g>
<!-- Node31 -->
<g id="node31" class="node"><title>Node31</title>
<g id="a_node31"><a xlink:href="topology_8hpp.html" target="_top" xlink:title="This file contains functions for handling the system topology. ">
<polygon fill="none" stroke="black" points="522.5,-224.5 522.5,-243.5 601.5,-243.5 601.5,-224.5 522.5,-224.5"/>
<text text-anchor="middle" x="562" y="-231.5" font-family="Helvetica,sans-Serif" font-size="10.00">topology.hpp</text>
</a>
</g>
</g>
<!-- Node29&#45;&gt;Node31 -->
<g id="edge48" class="edge"><title>Node29&#45;&gt;Node31</title>
<path fill="none" stroke="midnightblue" d="M625.789,-280.324C614.224,-272.107 596.625,-259.602 582.839,-249.807"/>
<polygon fill="midnightblue" stroke="midnightblue" points="584.612,-246.773 574.433,-243.834 580.557,-252.479 584.612,-246.773"/>
</g>
<!-- Node32 -->
<g id="node32" class="node"><title>Node32</title>
<g id="a_node32"><a xlink:href="mpi_8h.html" target="_top" xlink:title="This is the MPIfake implementation. ">
<polygon fill="none" stroke="black" points="751,-224.5 751,-243.5 795,-243.5 795,-224.5 751,-224.5"/>
<text text-anchor="middle" x="773" y="-231.5" font-family="Helvetica,sans-Serif" font-size="10.00">mpi.h</text>
</a>
</g>
</g>
<!-- Node29&#45;&gt;Node32 -->
<g id="edge50" class="edge"><title>Node29&#45;&gt;Node32</title>
<path fill="none" stroke="midnightblue" d="M659.391,-280.444C681.707,-271.517 716.903,-257.439 742.208,-247.317"/>
<polygon fill="midnightblue" stroke="midnightblue" points="743.724,-250.48 751.709,-243.516 741.124,-243.981 743.724,-250.48"/>
</g>
<!-- Node36 -->
<g id="node36" class="node"><title>Node36</title>
<g id="a_node36"><a xlink:href="cuda__init_8hpp.html" target="_top" xlink:title="cuda_init.hpp">
<polygon fill="none" stroke="black" points="796,-168.5 796,-187.5 878,-187.5 878,-168.5 796,-168.5"/>
<text text-anchor="middle" x="837" y="-175.5" font-family="Helvetica,sans-Serif" font-size="10.00">cuda_init.hpp</text>
</a>
</g>
</g>
<!-- Node29&#45;&gt;Node36 -->
<g id="edge54" class="edge"><title>Node29&#45;&gt;Node36</title>
<path fill="none" stroke="midnightblue" d="M694.803,-285.173C729.59,-280.227 773.192,-269.06 804,-244 818.552,-232.163 827.316,-212.244 832.115,-197.569"/>
<polygon fill="midnightblue" stroke="midnightblue" points="835.586,-198.171 835.043,-187.59 828.869,-196.2 835.586,-198.171"/>
</g>
<!-- Node30&#45;&gt;Node7 -->
<g id="edge47" class="edge"><title>Node30&#45;&gt;Node7</title>
<path fill="none" stroke="midnightblue" d="M634.5,-224.444C610.923,-215.478 573.678,-201.314 547.036,-191.183"/>
<polygon fill="midnightblue" stroke="midnightblue" points="547.986,-187.8 537.395,-187.516 545.498,-194.342 547.986,-187.8"/>
</g>
<!-- Node31&#45;&gt;Node7 -->
<g id="edge49" class="edge"><title>Node31&#45;&gt;Node7</title>
<path fill="none" stroke="midnightblue" d="M554.239,-224.083C547.463,-216.298 537.457,-204.801 529.245,-195.367"/>
<polygon fill="midnightblue" stroke="midnightblue" points="531.822,-192.996 522.617,-187.751 526.542,-197.592 531.822,-192.996"/>
</g>
<!-- Node33 -->
<g id="node33" class="node"><title>Node33</title>
<polygon fill="none" stroke="#bfbfbf" points="724.5,-168.5 724.5,-187.5 777.5,-187.5 777.5,-168.5 724.5,-168.5"/>
<text text-anchor="middle" x="751" y="-175.5" font-family="Helvetica,sans-Serif" font-size="10.00">string.h</text>
</g>
<!-- Node32&#45;&gt;Node33 -->
<g id="edge51" class="edge"><title>Node32&#45;&gt;Node33</title>
<path fill="none" stroke="midnightblue" d="M769.367,-224.083C766.388,-216.77 762.074,-206.181 758.375,-197.103"/>
<polygon fill="midnightblue" stroke="midnightblue" points="761.58,-195.691 754.565,-187.751 755.097,-198.333 761.58,-195.691"/>
</g>
<!-- Node34 -->
<g id="node34" class="node"><title>Node34</title>
<polygon fill="none" stroke="#bfbfbf" points="585,-168.5 585,-187.5 635,-187.5 635,-168.5 585,-168.5"/>
<text text-anchor="middle" x="610" y="-175.5" font-family="Helvetica,sans-Serif" font-size="10.00">stdio.h</text>
</g>
<!-- Node32&#45;&gt;Node34 -->
<g id="edge52" class="edge"><title>Node32&#45;&gt;Node34</title>
<path fill="none" stroke="midnightblue" d="M750.677,-225.605C723.455,-216.586 677.123,-201.237 645.109,-190.631"/>
<polygon fill="midnightblue" stroke="midnightblue" points="645.854,-187.191 635.261,-187.369 643.653,-193.836 645.854,-187.191"/>
</g>
<!-- Node35 -->
<g id="node35" class="node"><title>Node35</title>
<polygon fill="none" stroke="#bfbfbf" points="653.5,-168.5 653.5,-187.5 706.5,-187.5 706.5,-168.5 653.5,-168.5"/>
<text text-anchor="middle" x="680" y="-175.5" font-family="Helvetica,sans-Serif" font-size="10.00">stdlib.h</text>
</g>
<!-- Node32&#45;&gt;Node35 -->
<g id="edge53" class="edge"><title>Node32&#45;&gt;Node35</title>
<path fill="none" stroke="midnightblue" d="M758.058,-224.324C743.415,-215.822 720.866,-202.729 703.762,-192.797"/>
<polygon fill="midnightblue" stroke="midnightblue" points="705.31,-189.649 694.905,-187.655 701.795,-195.703 705.31,-189.649"/>
</g>
<!-- Node36&#45;&gt;Node2 -->
<g id="edge55" class="edge"><title>Node36&#45;&gt;Node2</title>
<path fill="none" stroke="midnightblue" d="M852.742,-168.484C873.907,-155.966 907.026,-131.925 890,-112 859.488,-76.2924 720.747,-68.7515 648.712,-67.2722"/>
<polygon fill="midnightblue" stroke="midnightblue" points="648.648,-63.7706 638.589,-67.0953 648.526,-70.7696 648.648,-63.7706"/>
</g>
<!-- Node36&#45;&gt;Node18 -->
<g id="edge56" class="edge"><title>Node36&#45;&gt;Node18</title>
<path fill="none" stroke="midnightblue" d="M829.074,-168.083C822.154,-160.298 811.935,-148.801 803.548,-139.367"/>
<polygon fill="midnightblue" stroke="midnightblue" points="806.038,-136.9 796.779,-131.751 800.806,-141.55 806.038,-136.9"/>
</g>
</g>
</svg>
        <g id="navigator" transform="translate(0 0)" fill="#404254">
                <rect fill="#f2f5e9" fill-opacity="0.5" stroke="#606060" stroke-width=".5" x="0" y="0" width="60" height="60"/>
                <use id="zoomplus" xlink:href="#zoomPlus" x="17" y="9" onmousedown="handleZoom(evt,'in')"/>
                <use id="zoomminus" xlink:href="#zoomMin" x="42" y="9" onmousedown="handleZoom(evt,'out')"/>
                <use id="reset" xlink:href="#resetDef" x="30" y="36" onmousedown="handleReset()"/>
                <g id="arrowUp" xlink:href="#dirArrow" transform="translate(30 24)" onmousedown="handlePan(0,-1)">
                  <use xlink:href="#rim" fill="#404040">
                        <set attributeName="fill" to="#808080" begin="arrowUp.mouseover" end="arrowUp.mouseout"/>
                  </use>
                  <path fill="none" stroke="white" stroke-width="1.5" d="M0,-3.0v7 M-2.5,-0.5L0,-3.0L2.5,-0.5"/>
                </g>
                <g id="arrowRight" xlink:href="#dirArrow" transform="rotate(90) translate(36 -43)" onmousedown="handlePan(1,0)">
                  <use xlink:href="#rim" fill="#404040">
                        <set attributeName="fill" to="#808080" begin="arrowRight.mouseover" end="arrowRight.mouseout"/>
                  </use>
                  <path fill="none" stroke="white" stroke-width="1.5" d="M0,-3.0v7 M-2.5,-0.5L0,-3.0L2.5,-0.5"/>
                </g>
                <g id="arrowDown" xlink:href="#dirArrow" transform="rotate(180) translate(-30 -48)" onmousedown="handlePan(0,1)">
                  <use xlink:href="#rim" fill="#404040">
                        <set attributeName="fill" to="#808080" begin="arrowDown.mouseover" end="arrowDown.mouseout"/>
                  </use>
                  <path fill="none" stroke="white" stroke-width="1.5" d="M0,-3.0v7 M-2.5,-0.5L0,-3.0L2.5,-0.5"/>
                </g>
                <g id="arrowLeft" xlink:href="#dirArrow" transform="rotate(270) translate(-36 17)" onmousedown="handlePan(-1,0)">
                  <use xlink:href="#rim" fill="#404040">
                        <set attributeName="fill" to="#808080" begin="arrowLeft.mouseover" end="arrowLeft.mouseout"/>
                  </use>
                  <path fill="none" stroke="white" stroke-width="1.5" d="M0,-3.0v7 M-2.5,-0.5L0,-3.0L2.5,-0.5"/>
                </g>
        </g>
        <svg viewBox="0 0 15 15" width="100%" height="30px" preserveAspectRatio="xMaxYMin meet">
         <g id="arrow_out" transform="scale(0.3 0.3)">
          <a xlink:href="ljgen__tcl_8cpp__incl_org.svg" target="_base">
           <rect id="button" ry="5" rx="5" y="6" x="6" height="38" width="38"
                fill="#f2f5e9" fill-opacity="0.5" stroke="#606060" stroke-width="1.0"/>
           <path id="arrow"
             d="M 11.500037,31.436501 C 11.940474,20.09759 22.043105,11.32322 32.158766,21.979434 L 37.068811,17.246167 C 37.068811,17.246167 37.088388,32 37.088388,32 L 22.160133,31.978069 C 22.160133,31.978069 26.997745,27.140456 26.997745,27.140456 C 18.528582,18.264221 13.291696,25.230495 11.500037,31.436501 z"
             style="fill:#404040;"/>
          </a>
         </g>
        </svg>
</svg>
