<?xml version="1.0" encoding="UTF-8" standalone="no"?>
<!DOCTYPE svg PUBLIC "-//W3C//DTD SVG 1.1//EN"
 "http://www.w3.org/Graphics/SVG/1.1/DTD/svg11.dtd">
<!-- Generated by graphviz version 2.38.0 (20140413.2041)
 -->
<!-- Title: ljgen.cpp Pages: 1 -->
<svg width="993pt" height="532pt"
 viewBox="0.00 0.00 993.00 532.00" xmlns="http://www.w3.org/2000/svg" xmlns:xlink="http://www.w3.org/1999/xlink">
<g id="graph0" class="graph" transform="scale(1 1) rotate(0) translate(4 528)">
<title>ljgen.cpp</title>
<!-- Node1 -->
<g id="node1" class="node"><title>Node1</title>
<polygon fill="#bfbfbf" stroke="black" points="655.5,-504.5 655.5,-523.5 716.5,-523.5 716.5,-504.5 655.5,-504.5"/>
<text text-anchor="middle" x="686" y="-511.5" font-family="Helvetica,sans-Serif" font-size="10.00">ljgen.cpp</text>
</g>
<!-- Node2 -->
<g id="node2" class="node"><title>Node2</title>
<g id="a_node2"><a xlink:href="config_8hpp.html" target="_top" xlink:title="This file contains the defaults for Espresso. ">
<polygon fill="none" stroke="black" points="624.5,-56.5 624.5,-75.5 691.5,-75.5 691.5,-56.5 624.5,-56.5"/>
<text text-anchor="middle" x="658" y="-63.5" font-family="Helvetica,sans-Serif" font-size="10.00">config.hpp</text>
</a>
</g>
</g>
<!-- Node1&#45;&gt;Node2 -->
<g id="edge1" class="edge"><title>Node1&#45;&gt;Node2</title>
<path fill="none" stroke="midnightblue" d="M716.593,-508.437C792.798,-496.215 985,-459.763 985,-403 985,-403 985,-403 985,-177 985,-141.088 967.666,-130.689 937,-112 898.245,-88.382 769.797,-75.3988 701.532,-70.0139"/>
<polygon fill="midnightblue" stroke="midnightblue" points="701.753,-66.5207 691.515,-69.2443 701.217,-73.5002 701.753,-66.5207"/>
</g>
<!-- Node6 -->
<g id="node6" class="node"><title>Node6</title>
<g id="a_node6"><a xlink:href="lj_8hpp.html" target="_top" xlink:title="Routines to calculate the lennard jones energy and/or force for a particle pair. ">
<polygon fill="none" stroke="black" points="565,-448.5 565,-467.5 609,-467.5 609,-448.5 565,-448.5"/>
<text text-anchor="middle" x="587" y="-455.5" font-family="Helvetica,sans-Serif" font-size="10.00">lj.hpp</text>
</a>
</g>
</g>
<!-- Node1&#45;&gt;Node6 -->
<g id="edge5" class="edge"><title>Node1&#45;&gt;Node6</title>
<path fill="none" stroke="midnightblue" d="M670.094,-504.324C654.362,-495.743 630.058,-482.486 611.791,-472.522"/>
<polygon fill="midnightblue" stroke="midnightblue" points="613.322,-469.37 602.867,-467.655 609.97,-475.516 613.322,-469.37"/>
</g>
<!-- Node27 -->
<g id="node27" class="node"><title>Node27</title>
<g id="a_node27"><a xlink:href="ljgen_8hpp.html" target="_top" xlink:title="Routines to calculate the generalized lennard jones energy and/or force for a particle pair...">
<polygon fill="none" stroke="black" points="392,-448.5 392,-467.5 454,-467.5 454,-448.5 392,-448.5"/>
<text text-anchor="middle" x="423" y="-455.5" font-family="Helvetica,sans-Serif" font-size="10.00">ljgen.hpp</text>
</a>
</g>
</g>
<!-- Node1&#45;&gt;Node27 -->
<g id="edge40" class="edge"><title>Node1&#45;&gt;Node27</title>
<path fill="none" stroke="midnightblue" d="M655.316,-506.7C608.06,-496.997 517.394,-478.381 464.381,-467.496"/>
<polygon fill="midnightblue" stroke="midnightblue" points="464.804,-464.01 454.304,-465.427 463.396,-470.867 464.804,-464.01"/>
</g>
<!-- Node28 -->
<g id="node28" class="node"><title>Node28</title>
<g id="a_node28"><a xlink:href="communication_8hpp.html" target="_top" xlink:title="This file contains the asynchronous MPI communication. ">
<polygon fill="none" stroke="black" points="697.5,-280.5 697.5,-299.5 810.5,-299.5 810.5,-280.5 697.5,-280.5"/>
<text text-anchor="middle" x="754" y="-287.5" font-family="Helvetica,sans-Serif" font-size="10.00">communication.hpp</text>
</a>
</g>
</g>
<!-- Node1&#45;&gt;Node28 -->
<g id="edge45" class="edge"><title>Node1&#45;&gt;Node28</title>
<path fill="none" stroke="midnightblue" d="M689.462,-504.453C696.387,-487.176 712.205,-446.778 723,-412 734.155,-376.063 744.43,-333.252 749.894,-309.396"/>
<polygon fill="midnightblue" stroke="midnightblue" points="753.319,-310.117 752.111,-299.591 746.491,-308.572 753.319,-310.117"/>
</g>
<!-- Node3 -->
<g id="node3" class="node"><title>Node3</title>
<g id="a_node3"><a xlink:href="acconfig_8hpp.html" target="_top" xlink:title="acconfig.hpp">
<polygon fill="none" stroke="black" points="508,-0.5 508,-19.5 586,-19.5 586,-0.5 508,-0.5"/>
<text text-anchor="middle" x="547" y="-7.5" font-family="Helvetica,sans-Serif" font-size="10.00">acconfig.hpp</text>
</a>
</g>
</g>
<!-- Node2&#45;&gt;Node3 -->
<g id="edge2" class="edge"><title>Node2&#45;&gt;Node3</title>
<path fill="none" stroke="midnightblue" d="M640.166,-56.324C622.284,-47.6247 594.525,-34.1202 573.954,-24.113"/>
<polygon fill="midnightblue" stroke="midnightblue" points="575.313,-20.8819 564.79,-19.6545 572.251,-27.1765 575.313,-20.8819"/>
</g>
<!-- Node4 -->
<g id="node4" class="node"><title>Node4</title>
<g id="a_node4"><a xlink:href="myconfig-final_8hpp.html" target="_top" xlink:title="myconfig&#45;final.hpp">
<polygon fill="none" stroke="black" points="604.5,-0.5 604.5,-19.5 711.5,-19.5 711.5,-0.5 604.5,-0.5"/>
<text text-anchor="middle" x="658" y="-7.5" font-family="Helvetica,sans-Serif" font-size="10.00">myconfig&#45;final.hpp</text>
</a>
</g>
</g>
<!-- Node2&#45;&gt;Node4 -->
<g id="edge3" class="edge"><title>Node2&#45;&gt;Node4</title>
<path fill="none" stroke="midnightblue" d="M658,-56.083C658,-49.0059 658,-38.8611 658,-29.9865"/>
<polygon fill="midnightblue" stroke="midnightblue" points="661.5,-29.751 658,-19.7511 654.5,-29.7511 661.5,-29.751"/>
</g>
<!-- Node5 -->
<g id="node5" class="node"><title>Node5</title>
<g id="a_node5"><a xlink:href="config-features_8hpp.html" target="_top" xlink:title="config&#45;features.hpp">
<polygon fill="none" stroke="black" points="729.5,-0.5 729.5,-19.5 840.5,-19.5 840.5,-0.5 729.5,-0.5"/>
<text text-anchor="middle" x="785" y="-7.5" font-family="Helvetica,sans-Serif" font-size="10.00">config&#45;features.hpp</text>
</a>
</g>
</g>
<!-- Node2&#45;&gt;Node5 -->
<g id="edge4" class="edge"><title>Node2&#45;&gt;Node5</title>
<path fill="none" stroke="midnightblue" d="M678.124,-56.4435C699.024,-47.5566 731.935,-33.5632 755.716,-23.4514"/>
<polygon fill="midnightblue" stroke="midnightblue" points="757.138,-26.6504 764.971,-19.5164 754.398,-20.2085 757.138,-26.6504"/>
</g>
<!-- Node7 -->
<g id="node7" class="node"><title>Node7</title>
<g id="a_node7"><a xlink:href="utils_8hpp.html" target="_top" xlink:title="Small functions that are useful not only for one modul. ">
<polygon fill="none" stroke="black" points="532.5,-168.5 532.5,-187.5 591.5,-187.5 591.5,-168.5 532.5,-168.5"/>
<text text-anchor="middle" x="562" y="-175.5" font-family="Helvetica,sans-Serif" font-size="10.00">utils.hpp</text>
</a>
</g>
</g>
<!-- Node6&#45;&gt;Node7 -->
<g id="edge6" class="edge"><title>Node6&#45;&gt;Node7</title>
<path fill="none" stroke="midnightblue" d="M588.267,-448.166C589.895,-435.66 592.361,-412.079 591,-392 586.107,-319.787 571.984,-234.744 565.424,-197.754"/>
<polygon fill="midnightblue" stroke="midnightblue" points="568.864,-197.107 563.65,-187.884 561.974,-198.346 568.864,-197.107"/>
</g>
<!-- Node20 -->
<g id="node20" class="node"><title>Node20</title>
<g id="a_node20"><a xlink:href="particle__data_8hpp.html" target="_top" xlink:title="For more information on particle_data, see particle_data.c. ">
<polygon fill="none" stroke="black" points="363.5,-224.5 363.5,-243.5 464.5,-243.5 464.5,-224.5 363.5,-224.5"/>
<text text-anchor="middle" x="414" y="-231.5" font-family="Helvetica,sans-Serif" font-size="10.00">particle_data.hpp</text>
</a>
</g>
</g>
<!-- Node6&#45;&gt;Node20 -->
<g id="edge23" class="edge"><title>Node6&#45;&gt;Node20</title>
<path fill="none" stroke="midnightblue" d="M586.017,-448.283C583.278,-427.201 573.973,-372.508 548,-336 519.656,-296.16 470.881,-265.146 440.647,-248.511"/>
<polygon fill="midnightblue" stroke="midnightblue" points="441.999,-245.264 431.532,-243.621 438.69,-251.432 441.999,-245.264"/>
</g>
<!-- Node21 -->
<g id="node21" class="node"><title>Node21</title>
<g id="a_node21"><a xlink:href="interaction__data_8hpp.html" target="_top" xlink:title="Various procedures concerning interactions between particles. ">
<polygon fill="none" stroke="black" points="422.5,-336.5 422.5,-355.5 539.5,-355.5 539.5,-336.5 422.5,-336.5"/>
<text text-anchor="middle" x="481" y="-343.5" font-family="Helvetica,sans-Serif" font-size="10.00">interaction_data.hpp</text>
</a>
</g>
</g>
<!-- Node6&#45;&gt;Node21 -->
<g id="edge25" class="edge"><title>Node6&#45;&gt;Node21</title>
<path fill="none" stroke="midnightblue" d="M578.682,-448.368C560.957,-429.974 519.229,-386.671 496.468,-363.052"/>
<polygon fill="midnightblue" stroke="midnightblue" points="498.738,-360.364 489.279,-355.591 493.698,-365.221 498.738,-360.364"/>
</g>
<!-- Node22 -->
<g id="node22" class="node"><title>Node22</title>
<g id="a_node22"><a xlink:href="mol__cut_8hpp.html" target="_top" xlink:title="mol_cut.hpp">
<polygon fill="none" stroke="black" points="384.5,-392.5 384.5,-411.5 461.5,-411.5 461.5,-392.5 384.5,-392.5"/>
<text text-anchor="middle" x="423" y="-399.5" font-family="Helvetica,sans-Serif" font-size="10.00">mol_cut.hpp</text>
</a>
</g>
</g>
<!-- Node6&#45;&gt;Node22 -->
<g id="edge28" class="edge"><title>Node6&#45;&gt;Node22</title>
<path fill="none" stroke="midnightblue" d="M564.882,-449.717C537.625,-440.743 490.959,-425.377 458.625,-414.73"/>
<polygon fill="midnightblue" stroke="midnightblue" points="459.681,-411.393 449.088,-411.59 457.492,-418.042 459.681,-411.393"/>
</g>
<!-- Node26 -->
<g id="node26" class="node"><title>Node26</title>
<g id="a_node26"><a xlink:href="forcecap_8hpp.html" target="_top" xlink:title="forcecap.hpp">
<polygon fill="none" stroke="black" points="634,-392.5 634,-411.5 714,-411.5 714,-392.5 634,-392.5"/>
<text text-anchor="middle" x="674" y="-399.5" font-family="Helvetica,sans-Serif" font-size="10.00">forcecap.hpp</text>
</a>
</g>
</g>
<!-- Node6&#45;&gt;Node26 -->
<g id="edge39" class="edge"><title>Node6&#45;&gt;Node26</title>
<path fill="none" stroke="midnightblue" d="M600.978,-448.324C614.55,-439.9 635.38,-426.971 651.325,-417.074"/>
<polygon fill="midnightblue" stroke="midnightblue" points="653.406,-419.902 660.057,-411.655 649.714,-413.954 653.406,-419.902"/>
</g>
<!-- Node7&#45;&gt;Node2 -->
<g id="edge11" class="edge"><title>Node7&#45;&gt;Node2</title>
<path fill="none" stroke="midnightblue" d="M571.548,-168.401C581.131,-159.604 596.132,-145.367 608,-132 621.824,-116.429 636.172,-97.4352 645.933,-84.011"/>
<polygon fill="midnightblue" stroke="midnightblue" points="648.899,-85.8804 651.895,-75.7178 643.216,-81.7942 648.899,-85.8804"/>
</g>
<!-- Node8 -->
<g id="node8" class="node"><title>Node8</title>
<polygon fill="none" stroke="#bfbfbf" points="351.5,-112.5 351.5,-131.5 398.5,-131.5 398.5,-112.5 351.5,-112.5"/>
<text text-anchor="middle" x="375" y="-119.5" font-family="Helvetica,sans-Serif" font-size="10.00">cmath</text>
</g>
<!-- Node7&#45;&gt;Node8 -->
<g id="edge7" class="edge"><title>Node7&#45;&gt;Node8</title>
<path fill="none" stroke="midnightblue" d="M532.369,-168.444C498.625,-158.699 443.621,-142.816 408.388,-132.641"/>
<polygon fill="midnightblue" stroke="midnightblue" points="409.15,-129.218 398.571,-129.807 407.208,-135.944 409.15,-129.218"/>
</g>
<!-- Node9 -->
<g id="node9" class="node"><title>Node9</title>
<polygon fill="none" stroke="#bfbfbf" points="417,-112.5 417,-131.5 463,-131.5 463,-112.5 417,-112.5"/>
<text text-anchor="middle" x="440" y="-119.5" font-family="Helvetica,sans-Serif" font-size="10.00">cstdio</text>
</g>
<!-- Node7&#45;&gt;Node9 -->
<g id="edge8" class="edge"><title>Node7&#45;&gt;Node9</title>
<path fill="none" stroke="midnightblue" d="M542.669,-168.444C522.68,-159.596 491.257,-145.687 468.436,-135.586"/>
<polygon fill="midnightblue" stroke="midnightblue" points="469.802,-132.363 459.241,-131.516 466.968,-138.764 469.802,-132.363"/>
</g>
<!-- Node10 -->
<g id="node10" class="node"><title>Node10</title>
<polygon fill="none" stroke="#bfbfbf" points="481.5,-112.5 481.5,-131.5 530.5,-131.5 530.5,-112.5 481.5,-112.5"/>
<text text-anchor="middle" x="506" y="-119.5" font-family="Helvetica,sans-Serif" font-size="10.00">cstdlib</text>
</g>
<!-- Node7&#45;&gt;Node10 -->
<g id="edge9" class="edge"><title>Node7&#45;&gt;Node10</title>
<path fill="none" stroke="midnightblue" d="M553.003,-168.324C544.806,-160.42 532.494,-148.548 522.528,-138.938"/>
<polygon fill="midnightblue" stroke="midnightblue" points="524.789,-136.256 515.161,-131.834 519.93,-141.295 524.789,-136.256"/>
</g>
<!-- Node11 -->
<g id="node11" class="node"><title>Node11</title>
<polygon fill="none" stroke="#bfbfbf" points="549,-112.5 549,-131.5 599,-131.5 599,-112.5 549,-112.5"/>
<text text-anchor="middle" x="574" y="-119.5" font-family="Helvetica,sans-Serif" font-size="10.00">cstring</text>
</g>
<!-- Node7&#45;&gt;Node11 -->
<g id="edge10" class="edge"><title>Node7&#45;&gt;Node11</title>
<path fill="none" stroke="midnightblue" d="M563.982,-168.083C565.572,-160.927 567.859,-150.635 569.846,-141.691"/>
<polygon fill="midnightblue" stroke="midnightblue" points="573.303,-142.272 572.055,-131.751 566.469,-140.754 573.303,-142.272"/>
</g>
<!-- Node12 -->
<g id="node12" class="node"><title>Node12</title>
<g id="a_node12"><a xlink:href="debug_8hpp.html" target="_top" xlink:title="This file controls debug facilities. ">
<polygon fill="none" stroke="black" points="655,-112.5 655,-131.5 723,-131.5 723,-112.5 655,-112.5"/>
<text text-anchor="middle" x="689" y="-119.5" font-family="Helvetica,sans-Serif" font-size="10.00">debug.hpp</text>
</a>
</g>
</g>
<!-- Node7&#45;&gt;Node12 -->
<g id="edge12" class="edge"><title>Node7&#45;&gt;Node12</title>
<path fill="none" stroke="midnightblue" d="M582.124,-168.444C603.024,-159.557 635.935,-145.563 659.716,-135.451"/>
<polygon fill="midnightblue" stroke="midnightblue" points="661.138,-138.65 668.971,-131.516 658.398,-132.208 661.138,-138.65"/>
</g>
<!-- Node13 -->
<g id="node13" class="node"><title>Node13</title>
<g id="a_node13"><a xlink:href="lees__edwards_8hpp.html" target="_top" xlink:title="lees_edwards.hpp">
<polygon fill="none" stroke="black" points="741,-112.5 741,-131.5 845,-131.5 845,-112.5 741,-112.5"/>
<text text-anchor="middle" x="793" y="-119.5" font-family="Helvetica,sans-Serif" font-size="10.00">lees_edwards.hpp</text>
</a>
</g>
</g>
<!-- Node7&#45;&gt;Node13 -->
<g id="edge14" class="edge"><title>Node7&#45;&gt;Node13</title>
<path fill="none" stroke="midnightblue" d="M591.726,-170.051C631.006,-160.869 700.606,-144.599 746.779,-133.805"/>
<polygon fill="midnightblue" stroke="midnightblue" points="747.602,-137.207 756.543,-131.522 746.009,-130.391 747.602,-137.207"/>
</g>
<!-- Node14 -->
<g id="node14" class="node"><title>Node14</title>
<g id="a_node14"><a xlink:href="errorhandling_8hpp.html" target="_top" xlink:title="This file contains the errorhandling code for severe errors, like a broken bond or illegal parameter ...">
<polygon fill="none" stroke="black" points="70.5,-112.5 70.5,-131.5 173.5,-131.5 173.5,-112.5 70.5,-112.5"/>
<text text-anchor="middle" x="122" y="-119.5" font-family="Helvetica,sans-Serif" font-size="10.00">errorhandling.hpp</text>
</a>
</g>
</g>
<!-- Node7&#45;&gt;Node14 -->
<g id="edge16" class="edge"><title>Node7&#45;&gt;Node14</title>
<path fill="none" stroke="midnightblue" d="M532.447,-173.373C461.43,-164.657 279.963,-142.386 183.865,-130.593"/>
<polygon fill="midnightblue" stroke="midnightblue" points="184.062,-127.09 173.71,-129.346 183.209,-134.038 184.062,-127.09"/>
</g>
<!-- Node18 -->
<g id="node18" class="node"><title>Node18</title>
<polygon fill="none" stroke="#bfbfbf" points="863.5,-112.5 863.5,-131.5 910.5,-131.5 910.5,-112.5 863.5,-112.5"/>
<text text-anchor="middle" x="887" y="-119.5" font-family="Helvetica,sans-Serif" font-size="10.00">vector</text>
</g>
<!-- Node7&#45;&gt;Node18 -->
<g id="edge21" class="edge"><title>Node7&#45;&gt;Node18</title>
<path fill="none" stroke="midnightblue" d="M591.628,-173.562C642.95,-167.364 751.842,-153.148 853.475,-131.892"/>
<polygon fill="midnightblue" stroke="midnightblue" points="854.228,-135.31 863.286,-129.813 852.777,-128.462 854.228,-135.31"/>
</g>
<!-- Node19 -->
<g id="node19" class="node"><title>Node19</title>
<polygon fill="none" stroke="#bfbfbf" points="268.5,-112.5 268.5,-131.5 333.5,-131.5 333.5,-112.5 268.5,-112.5"/>
<text text-anchor="middle" x="301" y="-119.5" font-family="Helvetica,sans-Serif" font-size="10.00">exception</text>
</g>
<!-- Node7&#45;&gt;Node19 -->
<g id="edge22" class="edge"><title>Node7&#45;&gt;Node19</title>
<path fill="none" stroke="midnightblue" d="M532.437,-171.093C491.993,-162.981 416.889,-147.81 343.532,-132.304"/>
<polygon fill="midnightblue" stroke="midnightblue" points="344.173,-128.863 333.665,-130.214 342.722,-135.711 344.173,-128.863"/>
</g>
<!-- Node12&#45;&gt;Node2 -->
<g id="edge13" class="edge"><title>Node12&#45;&gt;Node2</title>
<path fill="none" stroke="midnightblue" d="M683.881,-112.083C679.592,-104.613 673.342,-93.7244 668.058,-84.5199"/>
<polygon fill="midnightblue" stroke="midnightblue" points="671.038,-82.6811 663.024,-75.7511 664.967,-86.1662 671.038,-82.6811"/>
</g>
<!-- Node13&#45;&gt;Node2 -->
<g id="edge15" class="edge"><title>Node13&#45;&gt;Node2</title>
<path fill="none" stroke="midnightblue" d="M771.609,-112.444C749.293,-103.517 714.097,-89.4387 688.792,-79.3168"/>
<polygon fill="midnightblue" stroke="midnightblue" points="689.876,-75.9807 679.291,-75.5164 687.276,-82.4801 689.876,-75.9807"/>
</g>
<!-- Node14&#45;&gt;Node2 -->
<g id="edge17" class="edge"><title>Node14&#45;&gt;Node2</title>
<path fill="none" stroke="midnightblue" d="M173.856,-113.729C178.635,-113.119 183.405,-112.533 188,-112 344.56,-93.838 531.078,-77.5728 614.234,-70.6006"/>
<polygon fill="midnightblue" stroke="midnightblue" points="614.653,-74.078 624.327,-69.7576 614.07,-67.1023 614.653,-74.078"/>
</g>
<!-- Node15 -->
<g id="node15" class="node"><title>Node15</title>
<polygon fill="none" stroke="#bfbfbf" points="100,-56.5 100,-75.5 144,-75.5 144,-56.5 100,-56.5"/>
<text text-anchor="middle" x="122" y="-63.5" font-family="Helvetica,sans-Serif" font-size="10.00">string</text>
</g>
<!-- Node14&#45;&gt;Node15 -->
<g id="edge18" class="edge"><title>Node14&#45;&gt;Node15</title>
<path fill="none" stroke="midnightblue" d="M122,-112.083C122,-105.006 122,-94.8611 122,-85.9865"/>
<polygon fill="midnightblue" stroke="midnightblue" points="125.5,-85.751 122,-75.7511 118.5,-85.7511 125.5,-85.751"/>
</g>
<!-- Node16 -->
<g id="node16" class="node"><title>Node16</title>
<polygon fill="none" stroke="#bfbfbf" points="162,-56.5 162,-75.5 218,-75.5 218,-56.5 162,-56.5"/>
<text text-anchor="middle" x="190" y="-63.5" font-family="Helvetica,sans-Serif" font-size="10.00">sstream</text>
</g>
<!-- Node14&#45;&gt;Node16 -->
<g id="edge19" class="edge"><title>Node14&#45;&gt;Node16</title>
<path fill="none" stroke="midnightblue" d="M132.925,-112.324C143.175,-104.185 158.721,-91.8395 171.001,-82.0874"/>
<polygon fill="midnightblue" stroke="midnightblue" points="173.221,-84.7937 178.876,-75.8339 168.868,-79.3119 173.221,-84.7937"/>
</g>
<!-- Node17 -->
<g id="node17" class="node"><title>Node17</title>
<polygon fill="none" stroke="#bfbfbf" points="50,-56.5 50,-75.5 82,-75.5 82,-56.5 50,-56.5"/>
<text text-anchor="middle" x="66" y="-63.5" font-family="Helvetica,sans-Serif" font-size="10.00">list</text>
</g>
<!-- Node14&#45;&gt;Node17 -->
<g id="edge20" class="edge"><title>Node14&#45;&gt;Node17</title>
<path fill="none" stroke="midnightblue" d="M113.003,-112.324C104.806,-104.42 92.4945,-92.5482 82.528,-82.9377"/>
<polygon fill="midnightblue" stroke="midnightblue" points="84.789,-80.2558 75.1611,-75.8339 79.9301,-85.2947 84.789,-80.2558"/>
</g>
<!-- Node20&#45;&gt;Node7 -->
<g id="edge24" class="edge"><title>Node20&#45;&gt;Node7</title>
<path fill="none" stroke="midnightblue" d="M437.451,-224.444C462.133,-215.438 501.185,-201.189 528.977,-191.049"/>
<polygon fill="midnightblue" stroke="midnightblue" points="530.464,-194.232 538.659,-187.516 528.065,-187.656 530.464,-194.232"/>
</g>
<!-- Node21&#45;&gt;Node7 -->
<g id="edge26" class="edge"><title>Node21&#45;&gt;Node7</title>
<path fill="none" stroke="midnightblue" d="M485.355,-336.075C498.215,-309.719 536.198,-231.878 553.382,-196.661"/>
<polygon fill="midnightblue" stroke="midnightblue" points="556.579,-198.09 557.819,-187.568 550.288,-195.02 556.579,-198.09"/>
</g>
<!-- Node21&#45;&gt;Node20 -->
<g id="edge27" class="edge"><title>Node21&#45;&gt;Node20</title>
<path fill="none" stroke="midnightblue" d="M475.743,-336.368C464.735,-318.296 439.08,-276.176 424.542,-252.307"/>
<polygon fill="midnightblue" stroke="midnightblue" points="427.424,-250.311 419.233,-243.591 421.446,-253.953 427.424,-250.311"/>
</g>
<!-- Node22&#45;&gt;Node20 -->
<g id="edge37" class="edge"><title>Node22&#45;&gt;Node20</title>
<path fill="none" stroke="midnightblue" d="M420.518,-392.467C418.043,-383.485 414.415,-368.888 413,-356 409.04,-319.929 410.88,-277.447 412.495,-253.627"/>
<polygon fill="midnightblue" stroke="midnightblue" points="415.993,-253.775 413.243,-243.543 409.013,-253.257 415.993,-253.775"/>
</g>
<!-- Node22&#45;&gt;Node21 -->
<g id="edge38" class="edge"><title>Node22&#45;&gt;Node21</title>
<path fill="none" stroke="midnightblue" d="M432.319,-392.324C440.893,-384.341 453.812,-372.313 464.188,-362.653"/>
<polygon fill="midnightblue" stroke="midnightblue" points="466.578,-365.21 471.512,-355.834 461.808,-360.086 466.578,-365.21"/>
</g>
<!-- Node23 -->
<g id="node23" class="node"><title>Node23</title>
<g id="a_node23"><a xlink:href="virtual__sites_8hpp.html" target="_top" xlink:title="This file contains routine to handle virtual sites Virtual sites are like particles, but they will be not integrated. ">
<polygon fill="none" stroke="black" points="217,-336.5 217,-355.5 315,-355.5 315,-336.5 217,-336.5"/>
<text text-anchor="middle" x="266" y="-343.5" font-family="Helvetica,sans-Serif" font-size="10.00">virtual_sites.hpp</text>
</a>
</g>
</g>
<!-- Node22&#45;&gt;Node23 -->
<g id="edge29" class="edge"><title>Node22&#45;&gt;Node23</title>
<path fill="none" stroke="midnightblue" d="M398.123,-392.444C371.711,-383.359 329.785,-368.939 300.258,-358.783"/>
<polygon fill="midnightblue" stroke="midnightblue" points="301.355,-355.459 290.761,-355.516 299.079,-362.079 301.355,-355.459"/>
</g>
<!-- Node23&#45;&gt;Node20 -->
<g id="edge30" class="edge"><title>Node23&#45;&gt;Node20</title>
<path fill="none" stroke="midnightblue" d="M277.613,-336.368C302.794,-317.653 362.67,-273.151 394.044,-249.832"/>
<polygon fill="midnightblue" stroke="midnightblue" points="396.503,-252.366 402.441,-243.591 392.327,-246.748 396.503,-252.366"/>
</g>
<!-- Node24 -->
<g id="node24" class="node"><title>Node24</title>
<g id="a_node24"><a xlink:href="virtual__sites__com_8hpp.html" target="_top" xlink:title="virtual_sites_com.hpp">
<polygon fill="none" stroke="black" points="28,-280.5 28,-299.5 152,-299.5 152,-280.5 28,-280.5"/>
<text text-anchor="middle" x="90" y="-287.5" font-family="Helvetica,sans-Serif" font-size="10.00">virtual_sites_com.hpp</text>
</a>
</g>
</g>
<!-- Node23&#45;&gt;Node24 -->
<g id="edge31" class="edge"><title>Node23&#45;&gt;Node24</title>
<path fill="none" stroke="midnightblue" d="M238.112,-336.444C208.246,-327.28 160.685,-312.688 127.544,-302.519"/>
<polygon fill="midnightblue" stroke="midnightblue" points="128.344,-299.104 117.757,-299.516 126.291,-305.796 128.344,-299.104"/>
</g>
<!-- Node25 -->
<g id="node25" class="node"><title>Node25</title>
<g id="a_node25"><a xlink:href="virtual__sites__relative_8hpp.html" target="_top" xlink:title="virtual_sites_relative.hpp">
<polygon fill="none" stroke="black" points="170,-280.5 170,-299.5 310,-299.5 310,-280.5 170,-280.5"/>
<text text-anchor="middle" x="240" y="-287.5" font-family="Helvetica,sans-Serif" font-size="10.00">virtual_sites_relative.hpp</text>
</a>
</g>
</g>
<!-- Node23&#45;&gt;Node25 -->
<g id="edge34" class="edge"><title>Node23&#45;&gt;Node25</title>
<path fill="none" stroke="midnightblue" d="M261.707,-336.083C258.148,-328.691 252.978,-317.953 248.576,-308.811"/>
<polygon fill="midnightblue" stroke="midnightblue" points="251.705,-307.243 244.213,-299.751 245.398,-310.279 251.705,-307.243"/>
</g>
<!-- Node24&#45;&gt;Node2 -->
<g id="edge32" class="edge"><title>Node24&#45;&gt;Node2</title>
<path fill="none" stroke="midnightblue" d="M94.2573,-280.371C109.393,-250.744 163.855,-152.752 241,-112 304.933,-78.2269 520.628,-69.7723 614.146,-67.6788"/>
<polygon fill="midnightblue" stroke="midnightblue" points="614.473,-71.1728 624.398,-67.464 614.327,-64.1743 614.473,-71.1728"/>
</g>
<!-- Node24&#45;&gt;Node20 -->
<g id="edge33" class="edge"><title>Node24&#45;&gt;Node20</title>
<path fill="none" stroke="midnightblue" d="M141.339,-280.444C198.977,-270.837 292.414,-255.264 353.539,-245.077"/>
<polygon fill="midnightblue" stroke="midnightblue" points="354.146,-248.524 363.435,-243.428 352.995,-241.619 354.146,-248.524"/>
</g>
<!-- Node25&#45;&gt;Node2 -->
<g id="edge35" class="edge"><title>Node25&#45;&gt;Node2</title>
<path fill="none" stroke="midnightblue" d="M237.7,-280.459C230.589,-251.935 212.141,-159.111 259,-112 283.694,-87.1729 515.422,-73.5968 613.978,-68.9047"/>
<polygon fill="midnightblue" stroke="midnightblue" points="614.379,-72.3899 624.205,-68.427 614.053,-65.3975 614.379,-72.3899"/>
</g>
<!-- Node25&#45;&gt;Node20 -->
<g id="edge36" class="edge"><title>Node25&#45;&gt;Node20</title>
<path fill="none" stroke="midnightblue" d="M267.571,-280.444C297.097,-271.28 344.118,-256.688 376.883,-246.519"/>
<polygon fill="midnightblue" stroke="midnightblue" points="378.045,-249.823 386.558,-243.516 375.97,-243.138 378.045,-249.823"/>
</g>
<!-- Node27&#45;&gt;Node7 -->
<g id="edge41" class="edge"><title>Node27&#45;&gt;Node7</title>
<path fill="none" stroke="midnightblue" d="M391.896,-455.609C294.209,-450.403 0,-428.002 0,-347 0,-347 0,-347 0,-289 0,-182.507 393.556,-177.216 521.992,-178.324"/>
<polygon fill="midnightblue" stroke="midnightblue" points="522.145,-181.826 532.181,-178.431 522.218,-174.826 522.145,-181.826"/>
</g>
<!-- Node27&#45;&gt;Node20 -->
<g id="edge43" class="edge"><title>Node27&#45;&gt;Node20</title>
<path fill="none" stroke="midnightblue" d="M408.63,-448.33C397.12,-440.469 381.811,-427.722 375,-412 351.081,-356.789 384.654,-285.304 403.177,-252.66"/>
<polygon fill="midnightblue" stroke="midnightblue" points="406.313,-254.232 408.362,-243.837 400.278,-250.685 406.313,-254.232"/>
</g>
<!-- Node27&#45;&gt;Node21 -->
<g id="edge42" class="edge"><title>Node27&#45;&gt;Node21</title>
<path fill="none" stroke="midnightblue" d="M435.987,-448.266C446.897,-440.191 461.958,-427.172 470,-412 477.621,-397.621 480.17,-379.163 480.93,-365.593"/>
<polygon fill="midnightblue" stroke="midnightblue" points="484.43,-365.637 481.219,-355.54 477.433,-365.435 484.43,-365.637"/>
</g>
<!-- Node27&#45;&gt;Node22 -->
<g id="edge44" class="edge"><title>Node27&#45;&gt;Node22</title>
<path fill="none" stroke="midnightblue" d="M423,-448.083C423,-441.006 423,-430.861 423,-421.986"/>
<polygon fill="midnightblue" stroke="midnightblue" points="426.5,-421.751 423,-411.751 419.5,-421.751 426.5,-421.751"/>
</g>
<!-- Node28&#45;&gt;Node20 -->
<g id="edge46" class="edge"><title>Node28&#45;&gt;Node20</title>
<path fill="none" stroke="midnightblue" d="M700.126,-280.444C638.717,-270.69 538.584,-254.787 474.53,-244.614"/>
<polygon fill="midnightblue" stroke="midnightblue" points="474.996,-241.144 464.571,-243.032 473.898,-248.057 474.996,-241.144"/>
</g>
<!-- Node29 -->
<g id="node29" class="node"><title>Node29</title>
<g id="a_node29"><a xlink:href="random_8hpp.html" target="_top" xlink:title="A random generator. ">
<polygon fill="none" stroke="black" points="624.5,-224.5 624.5,-243.5 699.5,-243.5 699.5,-224.5 624.5,-224.5"/>
<text text-anchor="middle" x="662" y="-231.5" font-family="Helvetica,sans-Serif" font-size="10.00">random.hpp</text>
</a>
</g>
</g>
<!-- Node28&#45;&gt;Node29 -->
<g id="edge47" class="edge"><title>Node28&#45;&gt;Node29</title>
<path fill="none" stroke="midnightblue" d="M739.219,-280.324C724.733,-271.822 702.427,-258.729 685.507,-248.797"/>
<polygon fill="midnightblue" stroke="midnightblue" points="687.141,-245.698 676.745,-243.655 683.597,-251.735 687.141,-245.698"/>
</g>
<!-- Node30 -->
<g id="node30" class="node"><title>Node30</title>
<g id="a_node30"><a xlink:href="topology_8hpp.html" target="_top" xlink:title="This file contains functions for handling the system topology. ">
<polygon fill="none" stroke="black" points="717.5,-224.5 717.5,-243.5 796.5,-243.5 796.5,-224.5 717.5,-224.5"/>
<text text-anchor="middle" x="757" y="-231.5" font-family="Helvetica,sans-Serif" font-size="10.00">topology.hpp</text>
</a>
</g>
</g>
<!-- Node28&#45;&gt;Node30 -->
<g id="edge49" class="edge"><title>Node28&#45;&gt;Node30</title>
<path fill="none" stroke="midnightblue" d="M754.495,-280.083C754.889,-273.006 755.452,-262.861 755.945,-253.986"/>
<polygon fill="midnightblue" stroke="midnightblue" points="759.454,-253.93 756.514,-243.751 752.464,-253.542 759.454,-253.93"/>
</g>
<!-- Node31 -->
<g id="node31" class="node"><title>Node31</title>
<g id="a_node31"><a xlink:href="mpi_8h.html" target="_top" xlink:title="This is the MPIfake implementation. ">
<polygon fill="none" stroke="black" points="814,-224.5 814,-243.5 858,-243.5 858,-224.5 814,-224.5"/>
<text text-anchor="middle" x="836" y="-231.5" font-family="Helvetica,sans-Serif" font-size="10.00">mpi.h</text>
</a>
</g>
</g>
<!-- Node28&#45;&gt;Node31 -->
<g id="edge51" class="edge"><title>Node28&#45;&gt;Node31</title>
<path fill="none" stroke="midnightblue" d="M767.175,-280.324C779.847,-271.979 799.233,-259.212 814.206,-249.352"/>
<polygon fill="midnightblue" stroke="midnightblue" points="816.431,-252.078 822.858,-243.655 812.581,-246.231 816.431,-252.078"/>
</g>
<!-- Node35 -->
<g id="node35" class="node"><title>Node35</title>
<g id="a_node35"><a xlink:href="cuda__init_8hpp.html" target="_top" xlink:title="cuda_init.hpp">
<polygon fill="none" stroke="black" points="875,-168.5 875,-187.5 957,-187.5 957,-168.5 875,-168.5"/>
<text text-anchor="middle" x="916" y="-175.5" font-family="Helvetica,sans-Serif" font-size="10.00">cuda_init.hpp</text>
</a>
</g>
</g>
<!-- Node28&#45;&gt;Node35 -->
<g id="edge55" class="edge"><title>Node28&#45;&gt;Node35</title>
<path fill="none" stroke="midnightblue" d="M788.87,-280.476C812.584,-273.46 843.751,-261.744 867,-244 883.795,-231.182 897.685,-211.168 906.335,-196.733"/>
<polygon fill="midnightblue" stroke="midnightblue" points="909.525,-198.206 911.457,-187.789 903.45,-194.727 909.525,-198.206"/>
</g>
<!-- Node29&#45;&gt;Node7 -->
<g id="edge48" class="edge"><title>Node29&#45;&gt;Node7</title>
<path fill="none" stroke="midnightblue" d="M645.933,-224.324C630.042,-215.743 605.493,-202.486 587.042,-192.522"/>
<polygon fill="midnightblue" stroke="midnightblue" points="588.489,-189.326 578.027,-187.655 585.163,-195.486 588.489,-189.326"/>
</g>
<!-- Node30&#45;&gt;Node7 -->
<g id="edge50" class="edge"><title>Node30&#45;&gt;Node7</title>
<path fill="none" stroke="midnightblue" d="M726.102,-224.444C692.432,-215.12 638.464,-200.175 601.682,-189.989"/>
<polygon fill="midnightblue" stroke="midnightblue" points="602.366,-186.547 591.795,-187.251 600.498,-193.293 602.366,-186.547"/>
</g>
<!-- Node32 -->
<g id="node32" class="node"><title>Node32</title>
<polygon fill="none" stroke="#bfbfbf" points="735.5,-168.5 735.5,-187.5 788.5,-187.5 788.5,-168.5 735.5,-168.5"/>
<text text-anchor="middle" x="762" y="-175.5" font-family="Helvetica,sans-Serif" font-size="10.00">string.h</text>
</g>
<!-- Node31&#45;&gt;Node32 -->
<g id="edge52" class="edge"><title>Node31&#45;&gt;Node32</title>
<path fill="none" stroke="midnightblue" d="M824.111,-224.324C812.85,-216.107 795.713,-203.602 782.291,-193.807"/>
<polygon fill="midnightblue" stroke="midnightblue" points="784.247,-190.901 774.106,-187.834 780.12,-196.556 784.247,-190.901"/>
</g>
<!-- Node33 -->
<g id="node33" class="node"><title>Node33</title>
<polygon fill="none" stroke="#bfbfbf" points="807,-168.5 807,-187.5 857,-187.5 857,-168.5 807,-168.5"/>
<text text-anchor="middle" x="832" y="-175.5" font-family="Helvetica,sans-Serif" font-size="10.00">stdio.h</text>
</g>
<!-- Node31&#45;&gt;Node33 -->
<g id="edge53" class="edge"><title>Node31&#45;&gt;Node33</title>
<path fill="none" stroke="midnightblue" d="M835.339,-224.083C834.815,-217.006 834.064,-206.861 833.406,-197.986"/>
<polygon fill="midnightblue" stroke="midnightblue" points="836.877,-197.465 832.648,-187.751 829.897,-197.982 836.877,-197.465"/>
</g>
<!-- Node34 -->
<g id="node34" class="node"><title>Node34</title>
<polygon fill="none" stroke="#bfbfbf" points="664.5,-168.5 664.5,-187.5 717.5,-187.5 717.5,-168.5 664.5,-168.5"/>
<text text-anchor="middle" x="691" y="-175.5" font-family="Helvetica,sans-Serif" font-size="10.00">stdlib.h</text>
</g>
<!-- Node31&#45;&gt;Node34 -->
<g id="edge54" class="edge"><title>Node31&#45;&gt;Node34</title>
<path fill="none" stroke="midnightblue" d="M813.978,-224.799C789.987,-215.864 751.358,-201.478 723.797,-191.214"/>
<polygon fill="midnightblue" stroke="midnightblue" points="724.784,-187.847 714.191,-187.637 722.341,-194.407 724.784,-187.847"/>
</g>
<!-- Node35&#45;&gt;Node2 -->
<g id="edge56" class="edge"><title>Node35&#45;&gt;Node2</title>
<path fill="none" stroke="midnightblue" d="M919.756,-168.24C924.983,-154.521 932.391,-127.898 919,-112 891.795,-79.7034 769.273,-70.5861 702.213,-68.0124"/>
<polygon fill="midnightblue" stroke="midnightblue" points="702.066,-64.5052 691.95,-67.6529 701.821,-71.5009 702.066,-64.5052"/>
</g>
<!-- Node35&#45;&gt;Node18 -->
<g id="edge57" class="edge"><title>Node35&#45;&gt;Node18</title>
<path fill="none" stroke="midnightblue" d="M911.211,-168.083C907.242,-160.691 901.475,-149.953 896.565,-140.811"/>
<polygon fill="midnightblue" stroke="midnightblue" points="899.514,-138.905 891.7,-131.751 893.347,-142.217 899.514,-138.905"/>
</g>
</g>
</svg>
