<?xml version="1.0" encoding="UTF-8" standalone="no"?>
<!DOCTYPE svg PUBLIC "-//W3C//DTD SVG 1.1//EN"
 "http://www.w3.org/Graphics/SVG/1.1/DTD/svg11.dtd">
<!-- Generated by graphviz version 2.38.0 (20140413.2041)
 -->
<!-- Title: maggs_tcl.cpp Pages: 1 -->
<svg width="796pt" height="364pt"
 viewBox="0.00 0.00 795.65 364.00" xmlns="http://www.w3.org/2000/svg" xmlns:xlink="http://www.w3.org/1999/xlink">
<g id="graph0" class="graph" transform="scale(1 1) rotate(0) translate(4 360)">
<title>maggs_tcl.cpp</title>
<!-- Node1 -->
<g id="node1" class="node"><title>Node1</title>
<polygon fill="#bfbfbf" stroke="black" points="421.147,-336.5 421.147,-355.5 508.147,-355.5 508.147,-336.5 421.147,-336.5"/>
<text text-anchor="middle" x="464.647" y="-343.5" font-family="Helvetica,sans-Serif" font-size="10.00">maggs_tcl.cpp</text>
</g>
<!-- Node2 -->
<g id="node2" class="node"><title>Node2</title>
<polygon fill="none" stroke="#bfbfbf" points="23.6467,-112.5 23.6467,-131.5 69.6467,-131.5 69.6467,-112.5 23.6467,-112.5"/>
<text text-anchor="middle" x="46.6467" y="-119.5" font-family="Helvetica,sans-Serif" font-size="10.00">cstdio</text>
</g>
<!-- Node1&#45;&gt;Node2 -->
<g id="edge1" class="edge"><title>Node1&#45;&gt;Node2</title>
<path fill="none" stroke="midnightblue" d="M440.848,-336.44C418.087,-328.001 382.985,-314.32 353.647,-300 243.273,-246.127 118.35,-168.64 68.6897,-137.129"/>
<polygon fill="midnightblue" stroke="midnightblue" points="70.365,-134.046 60.0499,-131.628 66.6054,-139.951 70.365,-134.046"/>
</g>
<!-- Node3 -->
<g id="node3" class="node"><title>Node3</title>
<polygon fill="none" stroke="#bfbfbf" points="670.147,-112.5 670.147,-131.5 719.147,-131.5 719.147,-112.5 670.147,-112.5"/>
<text text-anchor="middle" x="694.647" y="-119.5" font-family="Helvetica,sans-Serif" font-size="10.00">cstdlib</text>
</g>
<!-- Node1&#45;&gt;Node3 -->
<g id="edge2" class="edge"><title>Node1&#45;&gt;Node3</title>
<path fill="none" stroke="midnightblue" d="M469.699,-336.171C474.754,-327.195 482.624,-312.823 488.647,-300 515.596,-242.628 495.632,-210.513 542.647,-168 544.896,-165.966 616.111,-145.399 660.253,-132.784"/>
<polygon fill="midnightblue" stroke="midnightblue" points="661.375,-136.104 670.03,-129.994 659.454,-129.373 661.375,-136.104"/>
</g>
<!-- Node4 -->
<g id="node4" class="node"><title>Node4</title>
<polygon fill="none" stroke="#bfbfbf" points="737.647,-112.5 737.647,-131.5 787.647,-131.5 787.647,-112.5 737.647,-112.5"/>
<text text-anchor="middle" x="762.647" y="-119.5" font-family="Helvetica,sans-Serif" font-size="10.00">cstring</text>
</g>
<!-- Node1&#45;&gt;Node4 -->
<g id="edge3" class="edge"><title>Node1&#45;&gt;Node4</title>
<path fill="none" stroke="midnightblue" d="M482.239,-336.373C499.011,-327.885 524.74,-314.17 545.647,-300 624.632,-246.465 710.053,-170.981 745.617,-138.669"/>
<polygon fill="midnightblue" stroke="midnightblue" points="748.155,-141.092 753.18,-131.764 743.435,-135.922 748.155,-141.092"/>
</g>
<!-- Node5 -->
<g id="node5" class="node"><title>Node5</title>
<g id="a_node5"><a xlink:href="interaction__data_8hpp.html" target="_top" xlink:title="Various procedures concerning interactions between particles. ">
<polygon fill="none" stroke="black" points="363.147,-280.5 363.147,-299.5 480.147,-299.5 480.147,-280.5 363.147,-280.5"/>
<text text-anchor="middle" x="421.647" y="-287.5" font-family="Helvetica,sans-Serif" font-size="10.00">interaction_data.hpp</text>
</a>
</g>
</g>
<!-- Node1&#45;&gt;Node5 -->
<g id="edge4" class="edge"><title>Node1&#45;&gt;Node5</title>
<path fill="none" stroke="midnightblue" d="M457.546,-336.083C451.41,-328.377 442.377,-317.033 434.907,-307.653"/>
<polygon fill="midnightblue" stroke="midnightblue" points="437.582,-305.394 428.615,-299.751 432.106,-309.754 437.582,-305.394"/>
</g>
<!-- Node21 -->
<g id="node21" class="node"><title>Node21</title>
<g id="a_node21"><a xlink:href="maggs_8hpp.html" target="_top" xlink:title="Maxwell Equations Molecular Dynamics (MEMD) method for electrostatic interactions. ">
<polygon fill="none" stroke="black" points="33.1467,-280.5 33.1467,-299.5 104.147,-299.5 104.147,-280.5 33.1467,-280.5"/>
<text text-anchor="middle" x="68.6467" y="-287.5" font-family="Helvetica,sans-Serif" font-size="10.00">maggs.hpp</text>
</a>
</g>
</g>
<!-- Node1&#45;&gt;Node21 -->
<g id="edge27" class="edge"><title>Node1&#45;&gt;Node21</title>
<path fill="none" stroke="midnightblue" d="M421.135,-339.067C345.817,-328.796 191.833,-307.798 114.751,-297.287"/>
<polygon fill="midnightblue" stroke="midnightblue" points="114.782,-293.759 104.401,-295.876 113.836,-300.695 114.782,-293.759"/>
</g>
<!-- Node22 -->
<g id="node22" class="node"><title>Node22</title>
<g id="a_node22"><a xlink:href="parser_8hpp.html" target="_top" xlink:title="This file contains macros for parsing the parameters to the &#39;inter&#39; command. ">
<polygon fill="none" stroke="black" points="536.647,-224.5 536.647,-243.5 604.647,-243.5 604.647,-224.5 536.647,-224.5"/>
<text text-anchor="middle" x="570.647" y="-231.5" font-family="Helvetica,sans-Serif" font-size="10.00">parser.hpp</text>
</a>
</g>
</g>
<!-- Node1&#45;&gt;Node22 -->
<g id="edge29" class="edge"><title>Node1&#45;&gt;Node22</title>
<path fill="none" stroke="midnightblue" d="M477.924,-336.277C490.257,-327.823 508.756,-314.225 522.647,-300 537.14,-285.158 550.905,-265.775 559.948,-252.048"/>
<polygon fill="midnightblue" stroke="midnightblue" points="562.933,-253.877 565.405,-243.575 557.048,-250.087 562.933,-253.877"/>
</g>
<!-- Node6 -->
<g id="node6" class="node"><title>Node6</title>
<g id="a_node6"><a xlink:href="utils_8hpp.html" target="_top" xlink:title="Small functions that are useful not only for one modul. ">
<polygon fill="none" stroke="black" points="382.147,-168.5 382.147,-187.5 441.147,-187.5 441.147,-168.5 382.147,-168.5"/>
<text text-anchor="middle" x="411.647" y="-175.5" font-family="Helvetica,sans-Serif" font-size="10.00">utils.hpp</text>
</a>
</g>
</g>
<!-- Node5&#45;&gt;Node6 -->
<g id="edge5" class="edge"><title>Node5&#45;&gt;Node6</title>
<path fill="none" stroke="midnightblue" d="M404.145,-280.465C390.859,-272.917 373.571,-260.533 365.647,-244 356.691,-225.315 373.988,-206.23 389.868,-193.617"/>
<polygon fill="midnightblue" stroke="midnightblue" points="391.96,-196.423 397.897,-187.648 387.784,-190.806 391.96,-196.423"/>
</g>
<!-- Node20 -->
<g id="node20" class="node"><title>Node20</title>
<g id="a_node20"><a xlink:href="particle__data_8hpp.html" target="_top" xlink:title="For more information on particle_data, see particle_data.c. ">
<polygon fill="none" stroke="black" points="375.147,-224.5 375.147,-243.5 476.147,-243.5 476.147,-224.5 375.147,-224.5"/>
<text text-anchor="middle" x="425.647" y="-231.5" font-family="Helvetica,sans-Serif" font-size="10.00">particle_data.hpp</text>
</a>
</g>
</g>
<!-- Node5&#45;&gt;Node20 -->
<g id="edge25" class="edge"><title>Node5&#45;&gt;Node20</title>
<path fill="none" stroke="midnightblue" d="M422.307,-280.083C422.831,-273.006 423.583,-262.861 424.24,-253.986"/>
<polygon fill="midnightblue" stroke="midnightblue" points="427.75,-253.982 424.998,-243.751 420.769,-253.465 427.75,-253.982"/>
</g>
<!-- Node6&#45;&gt;Node2 -->
<g id="edge7" class="edge"><title>Node6&#45;&gt;Node2</title>
<path fill="none" stroke="midnightblue" d="M382.081,-173.97C324.396,-167.831 192.918,-152.729 83.6467,-132 82.368,-131.757 81.0671,-131.499 79.755,-131.228"/>
<polygon fill="midnightblue" stroke="midnightblue" points="80.1814,-127.738 69.66,-128.983 78.6617,-134.571 80.1814,-127.738"/>
</g>
<!-- Node6&#45;&gt;Node3 -->
<g id="edge8" class="edge"><title>Node6&#45;&gt;Node3</title>
<path fill="none" stroke="midnightblue" d="M441.45,-172.507C486.696,-165.498 575.603,-150.992 659.856,-132.262"/>
<polygon fill="midnightblue" stroke="midnightblue" points="660.851,-135.626 669.839,-130.018 659.315,-128.796 660.851,-135.626"/>
</g>
<!-- Node6&#45;&gt;Node4 -->
<g id="edge9" class="edge"><title>Node6&#45;&gt;Node4</title>
<path fill="none" stroke="midnightblue" d="M441.565,-173.942C496.379,-168.085 616.722,-154.047 727.474,-132.032"/>
<polygon fill="midnightblue" stroke="midnightblue" points="728.362,-135.423 737.473,-130.017 726.979,-128.561 728.362,-135.423"/>
</g>
<!-- Node7 -->
<g id="node7" class="node"><title>Node7</title>
<polygon fill="none" stroke="#bfbfbf" points="126.147,-112.5 126.147,-131.5 173.147,-131.5 173.147,-112.5 126.147,-112.5"/>
<text text-anchor="middle" x="149.647" y="-119.5" font-family="Helvetica,sans-Serif" font-size="10.00">cmath</text>
</g>
<!-- Node6&#45;&gt;Node7 -->
<g id="edge6" class="edge"><title>Node6&#45;&gt;Node7</title>
<path fill="none" stroke="midnightblue" d="M381.857,-171.856C339.82,-164.442 260.507,-149.894 183.282,-132.008"/>
<polygon fill="midnightblue" stroke="midnightblue" points="183.922,-128.563 173.388,-129.695 182.328,-135.379 183.922,-128.563"/>
</g>
<!-- Node8 -->
<g id="node8" class="node"><title>Node8</title>
<g id="a_node8"><a xlink:href="config_8hpp.html" target="_top" xlink:title="This file contains the defaults for Espresso. ">
<polygon fill="none" stroke="black" points="210.147,-56.5 210.147,-75.5 277.147,-75.5 277.147,-56.5 210.147,-56.5"/>
<text text-anchor="middle" x="243.647" y="-63.5" font-family="Helvetica,sans-Serif" font-size="10.00">config.hpp</text>
</a>
</g>
</g>
<!-- Node6&#45;&gt;Node8 -->
<g id="edge10" class="edge"><title>Node6&#45;&gt;Node8</title>
<path fill="none" stroke="midnightblue" d="M382.106,-177.135C314.298,-176.75 150.701,-171.643 116.647,-132 89.431,-100.318 153.172,-82.1713 199.853,-73.4748"/>
<polygon fill="midnightblue" stroke="midnightblue" points="200.574,-76.9017 209.81,-71.7116 199.353,-70.009 200.574,-76.9017"/>
</g>
<!-- Node12 -->
<g id="node12" class="node"><title>Node12</title>
<g id="a_node12"><a xlink:href="debug_8hpp.html" target="_top" xlink:title="This file controls debug facilities. ">
<polygon fill="none" stroke="black" points="462.647,-112.5 462.647,-131.5 530.647,-131.5 530.647,-112.5 462.647,-112.5"/>
<text text-anchor="middle" x="496.647" y="-119.5" font-family="Helvetica,sans-Serif" font-size="10.00">debug.hpp</text>
</a>
</g>
</g>
<!-- Node6&#45;&gt;Node12 -->
<g id="edge14" class="edge"><title>Node6&#45;&gt;Node12</title>
<path fill="none" stroke="midnightblue" d="M425.303,-168.324C438.563,-159.9 458.915,-146.971 474.493,-137.074"/>
<polygon fill="midnightblue" stroke="midnightblue" points="476.46,-139.971 483.024,-131.655 472.706,-134.063 476.46,-139.971"/>
</g>
<!-- Node13 -->
<g id="node13" class="node"><title>Node13</title>
<g id="a_node13"><a xlink:href="lees__edwards_8hpp.html" target="_top" xlink:title="lees_edwards.hpp">
<polygon fill="none" stroke="black" points="191.647,-112.5 191.647,-131.5 295.647,-131.5 295.647,-112.5 191.647,-112.5"/>
<text text-anchor="middle" x="243.647" y="-119.5" font-family="Helvetica,sans-Serif" font-size="10.00">lees_edwards.hpp</text>
</a>
</g>
</g>
<!-- Node6&#45;&gt;Node13 -->
<g id="edge16" class="edge"><title>Node6&#45;&gt;Node13</title>
<path fill="none" stroke="midnightblue" d="M385.027,-168.444C356.641,-159.32 311.51,-144.813 279.894,-134.651"/>
<polygon fill="midnightblue" stroke="midnightblue" points="280.734,-131.244 270.142,-131.516 278.591,-137.909 280.734,-131.244"/>
</g>
<!-- Node14 -->
<g id="node14" class="node"><title>Node14</title>
<g id="a_node14"><a xlink:href="errorhandling_8hpp.html" target="_top" xlink:title="This file contains the errorhandling code for severe errors, like a broken bond or illegal parameter ...">
<polygon fill="none" stroke="black" points="549.147,-112.5 549.147,-131.5 652.147,-131.5 652.147,-112.5 549.147,-112.5"/>
<text text-anchor="middle" x="600.647" y="-119.5" font-family="Helvetica,sans-Serif" font-size="10.00">errorhandling.hpp</text>
</a>
</g>
</g>
<!-- Node6&#45;&gt;Node14 -->
<g id="edge18" class="edge"><title>Node6&#45;&gt;Node14</title>
<path fill="none" stroke="midnightblue" d="M441.178,-168.562C473.443,-159.344 525.294,-144.529 561.066,-134.309"/>
<polygon fill="midnightblue" stroke="midnightblue" points="562.045,-137.669 570.699,-131.556 560.122,-130.938 562.045,-137.669"/>
</g>
<!-- Node18 -->
<g id="node18" class="node"><title>Node18</title>
<polygon fill="none" stroke="#bfbfbf" points="314.147,-112.5 314.147,-131.5 361.147,-131.5 361.147,-112.5 314.147,-112.5"/>
<text text-anchor="middle" x="337.647" y="-119.5" font-family="Helvetica,sans-Serif" font-size="10.00">vector</text>
</g>
<!-- Node6&#45;&gt;Node18 -->
<g id="edge23" class="edge"><title>Node6&#45;&gt;Node18</title>
<path fill="none" stroke="midnightblue" d="M399.757,-168.324C388.496,-160.107 371.36,-147.602 357.938,-137.807"/>
<polygon fill="midnightblue" stroke="midnightblue" points="359.893,-134.901 349.752,-131.834 355.767,-140.556 359.893,-134.901"/>
</g>
<!-- Node19 -->
<g id="node19" class="node"><title>Node19</title>
<polygon fill="none" stroke="#bfbfbf" points="379.147,-112.5 379.147,-131.5 444.147,-131.5 444.147,-112.5 379.147,-112.5"/>
<text text-anchor="middle" x="411.647" y="-119.5" font-family="Helvetica,sans-Serif" font-size="10.00">exception</text>
</g>
<!-- Node6&#45;&gt;Node19 -->
<g id="edge24" class="edge"><title>Node6&#45;&gt;Node19</title>
<path fill="none" stroke="midnightblue" d="M411.647,-168.083C411.647,-161.006 411.647,-150.861 411.647,-141.986"/>
<polygon fill="midnightblue" stroke="midnightblue" points="415.147,-141.751 411.647,-131.751 408.147,-141.751 415.147,-141.751"/>
</g>
<!-- Node9 -->
<g id="node9" class="node"><title>Node9</title>
<g id="a_node9"><a xlink:href="acconfig_8hpp.html" target="_top" xlink:title="acconfig.hpp">
<polygon fill="none" stroke="black" points="93.6467,-0.5 93.6467,-19.5 171.647,-19.5 171.647,-0.5 93.6467,-0.5"/>
<text text-anchor="middle" x="132.647" y="-7.5" font-family="Helvetica,sans-Serif" font-size="10.00">acconfig.hpp</text>
</a>
</g>
</g>
<!-- Node8&#45;&gt;Node9 -->
<g id="edge11" class="edge"><title>Node8&#45;&gt;Node9</title>
<path fill="none" stroke="midnightblue" d="M225.813,-56.324C207.931,-47.6247 180.172,-34.1202 159.601,-24.113"/>
<polygon fill="midnightblue" stroke="midnightblue" points="160.96,-20.8819 150.436,-19.6545 157.898,-27.1765 160.96,-20.8819"/>
</g>
<!-- Node10 -->
<g id="node10" class="node"><title>Node10</title>
<g id="a_node10"><a xlink:href="myconfig-final_8hpp.html" target="_top" xlink:title="myconfig&#45;final.hpp">
<polygon fill="none" stroke="black" points="190.147,-0.5 190.147,-19.5 297.147,-19.5 297.147,-0.5 190.147,-0.5"/>
<text text-anchor="middle" x="243.647" y="-7.5" font-family="Helvetica,sans-Serif" font-size="10.00">myconfig&#45;final.hpp</text>
</a>
</g>
</g>
<!-- Node8&#45;&gt;Node10 -->
<g id="edge12" class="edge"><title>Node8&#45;&gt;Node10</title>
<path fill="none" stroke="midnightblue" d="M243.647,-56.083C243.647,-49.0059 243.647,-38.8611 243.647,-29.9865"/>
<polygon fill="midnightblue" stroke="midnightblue" points="247.147,-29.751 243.647,-19.7511 240.147,-29.7511 247.147,-29.751"/>
</g>
<!-- Node11 -->
<g id="node11" class="node"><title>Node11</title>
<g id="a_node11"><a xlink:href="config-features_8hpp.html" target="_top" xlink:title="config&#45;features.hpp">
<polygon fill="none" stroke="black" points="315.147,-0.5 315.147,-19.5 426.147,-19.5 426.147,-0.5 315.147,-0.5"/>
<text text-anchor="middle" x="370.647" y="-7.5" font-family="Helvetica,sans-Serif" font-size="10.00">config&#45;features.hpp</text>
</a>
</g>
</g>
<!-- Node8&#45;&gt;Node11 -->
<g id="edge13" class="edge"><title>Node8&#45;&gt;Node11</title>
<path fill="none" stroke="midnightblue" d="M263.77,-56.4435C284.671,-47.5566 317.581,-33.5632 341.363,-23.4514"/>
<polygon fill="midnightblue" stroke="midnightblue" points="342.784,-26.6504 350.617,-19.5164 340.045,-20.2085 342.784,-26.6504"/>
</g>
<!-- Node12&#45;&gt;Node8 -->
<g id="edge15" class="edge"><title>Node12&#45;&gt;Node8</title>
<path fill="none" stroke="midnightblue" d="M462.526,-113.717C417.099,-104.021 336.725,-86.8666 287.038,-76.2614"/>
<polygon fill="midnightblue" stroke="midnightblue" points="287.737,-72.8318 277.227,-74.1673 286.276,-79.6776 287.737,-72.8318"/>
</g>
<!-- Node13&#45;&gt;Node8 -->
<g id="edge17" class="edge"><title>Node13&#45;&gt;Node8</title>
<path fill="none" stroke="midnightblue" d="M243.647,-112.083C243.647,-105.006 243.647,-94.8611 243.647,-85.9865"/>
<polygon fill="midnightblue" stroke="midnightblue" points="247.147,-85.751 243.647,-75.7511 240.147,-85.7511 247.147,-85.751"/>
</g>
<!-- Node14&#45;&gt;Node8 -->
<g id="edge19" class="edge"><title>Node14&#45;&gt;Node8</title>
<path fill="none" stroke="midnightblue" d="M549.117,-113.206C478.734,-102.559 353.745,-83.6536 287.572,-73.6441"/>
<polygon fill="midnightblue" stroke="midnightblue" points="287.885,-70.1517 277.474,-72.1167 286.838,-77.073 287.885,-70.1517"/>
</g>
<!-- Node15 -->
<g id="node15" class="node"><title>Node15</title>
<polygon fill="none" stroke="#bfbfbf" points="510.647,-56.5 510.647,-75.5 554.647,-75.5 554.647,-56.5 510.647,-56.5"/>
<text text-anchor="middle" x="532.647" y="-63.5" font-family="Helvetica,sans-Serif" font-size="10.00">string</text>
</g>
<!-- Node14&#45;&gt;Node15 -->
<g id="edge20" class="edge"><title>Node14&#45;&gt;Node15</title>
<path fill="none" stroke="midnightblue" d="M589.721,-112.324C579.472,-104.185 563.926,-91.8395 551.646,-82.0874"/>
<polygon fill="midnightblue" stroke="midnightblue" points="553.779,-79.3119 543.771,-75.8339 549.425,-84.7937 553.779,-79.3119"/>
</g>
<!-- Node16 -->
<g id="node16" class="node"><title>Node16</title>
<polygon fill="none" stroke="#bfbfbf" points="572.647,-56.5 572.647,-75.5 628.647,-75.5 628.647,-56.5 572.647,-56.5"/>
<text text-anchor="middle" x="600.647" y="-63.5" font-family="Helvetica,sans-Serif" font-size="10.00">sstream</text>
</g>
<!-- Node14&#45;&gt;Node16 -->
<g id="edge21" class="edge"><title>Node14&#45;&gt;Node16</title>
<path fill="none" stroke="midnightblue" d="M600.647,-112.083C600.647,-105.006 600.647,-94.8611 600.647,-85.9865"/>
<polygon fill="midnightblue" stroke="midnightblue" points="604.147,-85.751 600.647,-75.7511 597.147,-85.7511 604.147,-85.751"/>
</g>
<!-- Node17 -->
<g id="node17" class="node"><title>Node17</title>
<polygon fill="none" stroke="#bfbfbf" points="646.647,-56.5 646.647,-75.5 678.647,-75.5 678.647,-56.5 646.647,-56.5"/>
<text text-anchor="middle" x="662.647" y="-63.5" font-family="Helvetica,sans-Serif" font-size="10.00">list</text>
</g>
<!-- Node14&#45;&gt;Node17 -->
<g id="edge22" class="edge"><title>Node14&#45;&gt;Node17</title>
<path fill="none" stroke="midnightblue" d="M610.608,-112.324C619.773,-104.341 633.584,-92.3128 644.675,-82.6529"/>
<polygon fill="midnightblue" stroke="midnightblue" points="647.262,-85.041 652.504,-75.8339 642.664,-79.7624 647.262,-85.041"/>
</g>
<!-- Node20&#45;&gt;Node6 -->
<g id="edge26" class="edge"><title>Node20&#45;&gt;Node6</title>
<path fill="none" stroke="midnightblue" d="M423.335,-224.083C421.48,-216.927 418.811,-206.635 416.493,-197.691"/>
<polygon fill="midnightblue" stroke="midnightblue" points="419.813,-196.553 413.915,-187.751 413.037,-198.309 419.813,-196.553"/>
</g>
<!-- Node21&#45;&gt;Node8 -->
<g id="edge28" class="edge"><title>Node21&#45;&gt;Node8</title>
<path fill="none" stroke="midnightblue" d="M60.9083,-280.169C37.4252,-252.286 -28.827,-164.848 14.6467,-112 37.5934,-84.1053 139.656,-73.2381 199.502,-69.211"/>
<polygon fill="midnightblue" stroke="midnightblue" points="200.04,-72.684 209.798,-68.5574 199.597,-65.698 200.04,-72.684"/>
</g>
<!-- Node22&#45;&gt;Node4 -->
<g id="edge31" class="edge"><title>Node22&#45;&gt;Node4</title>
<path fill="none" stroke="midnightblue" d="M585.713,-224.368C618.94,-205.332 698.736,-159.615 738.82,-136.65"/>
<polygon fill="midnightblue" stroke="midnightblue" points="740.714,-139.599 747.651,-131.591 737.234,-133.526 740.714,-139.599"/>
</g>
<!-- Node22&#45;&gt;Node6 -->
<g id="edge30" class="edge"><title>Node22&#45;&gt;Node6</title>
<path fill="none" stroke="midnightblue" d="M545.453,-224.444C518.704,-215.359 476.244,-200.939 446.341,-190.783"/>
<polygon fill="midnightblue" stroke="midnightblue" points="447.317,-187.418 436.723,-187.516 445.066,-194.046 447.317,-187.418"/>
</g>
<!-- Node23 -->
<g id="node23" class="node"><title>Node23</title>
<polygon fill="none" stroke="#bfbfbf" points="551.647,-168.5 551.647,-187.5 589.647,-187.5 589.647,-168.5 551.647,-168.5"/>
<text text-anchor="middle" x="570.647" y="-175.5" font-family="Helvetica,sans-Serif" font-size="10.00">tcl.h</text>
</g>
<!-- Node22&#45;&gt;Node23 -->
<g id="edge32" class="edge"><title>Node22&#45;&gt;Node23</title>
<path fill="none" stroke="midnightblue" d="M570.647,-224.083C570.647,-217.006 570.647,-206.861 570.647,-197.986"/>
<polygon fill="midnightblue" stroke="midnightblue" points="574.147,-197.751 570.647,-187.751 567.147,-197.751 574.147,-197.751"/>
</g>
</g>
</svg>
