<?xml version="1.0" encoding="UTF-8" standalone="no"?>
<!DOCTYPE svg PUBLIC "-//W3C//DTD SVG 1.1//EN"
 "http://www.w3.org/Graphics/SVG/1.1/DTD/svg11.dtd">
<!-- Generated by graphviz version 2.38.0 (20140413.2041)
 -->
<!-- Title: maggs.hpp Pages: 1 -->
<svg width="933pt" height="84pt"
 viewBox="0.00 0.00 933.00 84.00" xmlns="http://www.w3.org/2000/svg" xmlns:xlink="http://www.w3.org/1999/xlink">
<g id="graph0" class="graph" transform="scale(1 1) rotate(0) translate(4 80)">
<title>maggs.hpp</title>
<!-- Node1 -->
<g id="node1" class="node"><title>Node1</title>
<polygon fill="#bfbfbf" stroke="black" points="405,-56.5 405,-75.5 476,-75.5 476,-56.5 405,-56.5"/>
<text text-anchor="middle" x="440.5" y="-63.5" font-family="Helvetica,sans-Serif" font-size="10.00">maggs.hpp</text>
</g>
<!-- Node2 -->
<g id="node2" class="node"><title>Node2</title>
<g id="a_node2"><a xlink:href="communication_8cpp.html" target="_top" xlink:title="communication.cpp">
<polygon fill="none" stroke="black" points="0,-0.5 0,-19.5 113,-19.5 113,-0.5 0,-0.5"/>
<text text-anchor="middle" x="56.5" y="-7.5" font-family="Helvetica,sans-Serif" font-size="10.00">communication.cpp</text>
</a>
</g>
</g>
<!-- Node1&#45;&gt;Node2 -->
<g id="edge1" class="edge"><title>Node1&#45;&gt;Node2</title>
<path fill="none" stroke="midnightblue" d="M394.39,-58.5158C323.938,-48.6085 189.652,-29.7245 113.295,-18.9868"/>
<polygon fill="midnightblue" stroke="midnightblue" points="394.329,-62.0416 404.719,-59.9683 395.304,-55.1098 394.329,-62.0416"/>
</g>
<!-- Node3 -->
<g id="node3" class="node"><title>Node3</title>
<g id="a_node3"><a xlink:href="energy_8cpp.html" target="_top" xlink:title="Implementation of energy.hpp. ">
<polygon fill="none" stroke="black" points="131,-0.5 131,-19.5 200,-19.5 200,-0.5 131,-0.5"/>
<text text-anchor="middle" x="165.5" y="-7.5" font-family="Helvetica,sans-Serif" font-size="10.00">energy.cpp</text>
</a>
</g>
</g>
<!-- Node1&#45;&gt;Node3 -->
<g id="edge2" class="edge"><title>Node1&#45;&gt;Node3</title>
<path fill="none" stroke="midnightblue" d="M394.862,-56.3535C348.048,-47.4359 273.135,-33.0319 208.5,-20 205.808,-19.4573 203.024,-18.8893 200.225,-18.3138"/>
<polygon fill="midnightblue" stroke="midnightblue" points="394.22,-59.7941 404.698,-58.2252 395.529,-52.9175 394.22,-59.7941"/>
</g>
<!-- Node4 -->
<g id="node4" class="node"><title>Node4</title>
<g id="a_node4"><a xlink:href="forces_8cpp.html" target="_top" xlink:title="Force calculation. ">
<polygon fill="none" stroke="black" points="218,-0.5 218,-19.5 285,-19.5 285,-0.5 218,-0.5"/>
<text text-anchor="middle" x="251.5" y="-7.5" font-family="Helvetica,sans-Serif" font-size="10.00">forces.cpp</text>
</a>
</g>
</g>
<!-- Node1&#45;&gt;Node4 -->
<g id="edge3" class="edge"><title>Node1&#45;&gt;Node4</title>
<path fill="none" stroke="midnightblue" d="M400.487,-53.5677C364.833,-43.381 313.462,-28.7034 281.308,-19.5164"/>
<polygon fill="midnightblue" stroke="midnightblue" points="399.976,-57.0616 410.552,-56.4435 401.899,-50.3309 399.976,-57.0616"/>
</g>
<!-- Node5 -->
<g id="node5" class="node"><title>Node5</title>
<g id="a_node5"><a xlink:href="initialize_8cpp.html" target="_top" xlink:title="Implementation of initialize.hpp. ">
<polygon fill="none" stroke="black" points="303,-0.5 303,-19.5 382,-19.5 382,-0.5 303,-0.5"/>
<text text-anchor="middle" x="342.5" y="-7.5" font-family="Helvetica,sans-Serif" font-size="10.00">initialize.cpp</text>
</a>
</g>
</g>
<!-- Node1&#45;&gt;Node5 -->
<g id="edge4" class="edge"><title>Node1&#45;&gt;Node5</title>
<path fill="none" stroke="midnightblue" d="M415.914,-51.4526C397.822,-41.4835 373.765,-28.2279 358.206,-19.6545"/>
<polygon fill="midnightblue" stroke="midnightblue" points="414.307,-54.5633 424.755,-56.324 417.685,-48.4324 414.307,-54.5633"/>
</g>
<!-- Node6 -->
<g id="node6" class="node"><title>Node6</title>
<g id="a_node6"><a xlink:href="core_2integrate_8cpp.html" target="_top" xlink:title="integrate.cpp">
<polygon fill="none" stroke="black" points="400,-0.5 400,-19.5 481,-19.5 481,-0.5 400,-0.5"/>
<text text-anchor="middle" x="440.5" y="-7.5" font-family="Helvetica,sans-Serif" font-size="10.00">integrate.cpp</text>
</a>
</g>
</g>
<!-- Node1&#45;&gt;Node6 -->
<g id="edge5" class="edge"><title>Node1&#45;&gt;Node6</title>
<path fill="none" stroke="midnightblue" d="M440.5,-45.8045C440.5,-36.9102 440.5,-26.7798 440.5,-19.7511"/>
<polygon fill="midnightblue" stroke="midnightblue" points="437,-46.083 440.5,-56.083 444,-46.083 437,-46.083"/>
</g>
<!-- Node7 -->
<g id="node7" class="node"><title>Node7</title>
<g id="a_node7"><a xlink:href="integrate__sd_8cpp.html" target="_top" xlink:title="Stokesian dynamics integrator. ">
<polygon fill="none" stroke="black" points="499.5,-0.5 499.5,-19.5 597.5,-19.5 597.5,-0.5 499.5,-0.5"/>
<text text-anchor="middle" x="548.5" y="-7.5" font-family="Helvetica,sans-Serif" font-size="10.00">integrate_sd.cpp</text>
</a>
</g>
</g>
<!-- Node1&#45;&gt;Node7 -->
<g id="edge6" class="edge"><title>Node1&#45;&gt;Node7</title>
<path fill="none" stroke="midnightblue" d="M467.048,-51.7261C487.046,-41.7271 513.887,-28.3065 531.191,-19.6545"/>
<polygon fill="midnightblue" stroke="midnightblue" points="465.231,-48.7213 457.852,-56.324 468.362,-54.9823 465.231,-48.7213"/>
</g>
<!-- Node8 -->
<g id="node8" class="node"><title>Node8</title>
<g id="a_node8"><a xlink:href="interaction__data_8cpp.html" target="_top" xlink:title="Implementation of interaction_data.hpp. ">
<polygon fill="none" stroke="black" points="615.5,-0.5 615.5,-19.5 731.5,-19.5 731.5,-0.5 615.5,-0.5"/>
<text text-anchor="middle" x="673.5" y="-7.5" font-family="Helvetica,sans-Serif" font-size="10.00">interaction_data.cpp</text>
</a>
</g>
</g>
<!-- Node1&#45;&gt;Node8 -->
<g id="edge7" class="edge"><title>Node1&#45;&gt;Node8</title>
<path fill="none" stroke="midnightblue" d="M486.008,-54.4531C530.027,-44.2513 595.901,-28.9843 636.709,-19.5268"/>
<polygon fill="midnightblue" stroke="midnightblue" points="485.093,-51.0723 476.141,-56.7398 486.673,-57.8916 485.093,-51.0723"/>
</g>
<!-- Node9 -->
<g id="node9" class="node"><title>Node9</title>
<g id="a_node9"><a xlink:href="maggs_8cpp.html" target="_top" xlink:title="Maxwell Equations Molecular Dynamics (MEMD) method for electrostatic interactions. ">
<polygon fill="none" stroke="black" points="749.5,-0.5 749.5,-19.5 819.5,-19.5 819.5,-0.5 749.5,-0.5"/>
<text text-anchor="middle" x="784.5" y="-7.5" font-family="Helvetica,sans-Serif" font-size="10.00">maggs.cpp</text>
</a>
</g>
</g>
<!-- Node1&#45;&gt;Node9 -->
<g id="edge8" class="edge"><title>Node1&#45;&gt;Node9</title>
<path fill="none" stroke="midnightblue" d="M486.256,-58.903C545.191,-50.8744 650.729,-35.9024 740.5,-20 743.417,-19.4832 746.438,-18.9215 749.467,-18.3396"/>
<polygon fill="midnightblue" stroke="midnightblue" points="485.597,-55.4603 476.158,-60.2728 486.538,-62.3968 485.597,-55.4603"/>
</g>
<!-- Node10 -->
<g id="node10" class="node"><title>Node10</title>
<g id="a_node10"><a xlink:href="maggs__tcl_8cpp.html" target="_top" xlink:title="maggs_tcl.cpp">
<polygon fill="none" stroke="black" points="838,-0.5 838,-19.5 925,-19.5 925,-0.5 838,-0.5"/>
<text text-anchor="middle" x="881.5" y="-7.5" font-family="Helvetica,sans-Serif" font-size="10.00">maggs_tcl.cpp</text>
</a>
</g>
</g>
<!-- Node1&#45;&gt;Node10 -->
<g id="edge9" class="edge"><title>Node1&#45;&gt;Node10</title>
<path fill="none" stroke="midnightblue" d="M486.336,-60.475C559.031,-53.1204 705.169,-37.6109 828.5,-20 831.549,-19.5646 834.693,-19.0919 837.856,-18.5988"/>
<polygon fill="midnightblue" stroke="midnightblue" points="485.754,-57.0158 476.155,-61.5002 486.455,-63.9806 485.754,-57.0158"/>
</g>
</g>
</svg>
