<?xml version="1.0" encoding="UTF-8" standalone="no"?>
<!DOCTYPE svg PUBLIC "-//W3C//DTD SVG 1.1//EN"
 "http://www.w3.org/Graphics/SVG/1.1/DTD/svg11.dtd">
<!-- Generated by graphviz version 2.38.0 (20140413.2041)
 -->
<!-- Title: magnetic_non_p3m_methods_tcl.hpp Pages: 1 -->
<svg width="322pt" height="106pt"
 viewBox="0.00 0.00 321.50 106.00" xmlns="http://www.w3.org/2000/svg" xmlns:xlink="http://www.w3.org/1999/xlink">
<g id="graph0" class="graph" transform="scale(1 1) rotate(0) translate(4 102)">
<title>magnetic_non_p3m_methods_tcl.hpp</title>
<!-- Node1 -->
<g id="node1" class="node"><title>Node1</title>
<polygon fill="#bfbfbf" stroke="black" points="69.5,-67.5 69.5,-97.5 230.5,-97.5 230.5,-67.5 69.5,-67.5"/>
<text text-anchor="start" x="77.5" y="-85.5" font-family="Helvetica,sans-Serif" font-size="10.00">magnetic_non_p3m_methods</text>
<text text-anchor="middle" x="150" y="-74.5" font-family="Helvetica,sans-Serif" font-size="10.00">_tcl.hpp</text>
</g>
<!-- Node2 -->
<g id="node2" class="node"><title>Node2</title>
<g id="a_node2"><a xlink:href="interaction__data__tcl_8cpp.html" target="_top" xlink:title="interaction_data_tcl.cpp">
<polygon fill="none" stroke="black" points="0,-6 0,-25 134,-25 134,-6 0,-6"/>
<text text-anchor="middle" x="67" y="-13" font-family="Helvetica,sans-Serif" font-size="10.00">interaction_data_tcl.cpp</text>
</a>
</g>
</g>
<!-- Node1&#45;&gt;Node2 -->
<g id="edge1" class="edge"><title>Node1&#45;&gt;Node2</title>
<path fill="none" stroke="midnightblue" d="M123.833,-61.008C108.425,-48.9412 89.7351,-34.3046 78.1023,-25.1945"/>
<polygon fill="midnightblue" stroke="midnightblue" points="121.959,-63.9859 131.99,-67.396 126.275,-58.4747 121.959,-63.9859"/>
</g>
<!-- Node3 -->
<g id="node3" class="node"><title>Node3</title>
<g id="a_node3"><a xlink:href="magnetic__non__p3m__methods__tcl_8cpp.html" target="_top" xlink:title="magnetic_non_p3m_methods\l_tcl.cpp">
<polygon fill="none" stroke="black" points="152.5,-0.5 152.5,-30.5 313.5,-30.5 313.5,-0.5 152.5,-0.5"/>
<text text-anchor="start" x="160.5" y="-18.5" font-family="Helvetica,sans-Serif" font-size="10.00">magnetic_non_p3m_methods</text>
<text text-anchor="middle" x="233" y="-7.5" font-family="Helvetica,sans-Serif" font-size="10.00">_tcl.cpp</text>
</a>
</g>
</g>
<!-- Node1&#45;&gt;Node3 -->
<g id="edge2" class="edge"><title>Node1&#45;&gt;Node3</title>
<path fill="none" stroke="midnightblue" d="M175.963,-61.1677C188.655,-51.2283 203.612,-39.5144 215.025,-30.5765"/>
<polygon fill="midnightblue" stroke="midnightblue" points="173.725,-58.4747 168.01,-67.396 178.041,-63.9859 173.725,-58.4747"/>
</g>
</g>
</svg>
