<?xml version="1.0" encoding="UTF-8" standalone="no"?>
<!DOCTYPE svg PUBLIC "-//W3C//DTD SVG 1.1//EN"
 "http://www.w3.org/Graphics/SVG/1.1/DTD/svg11.dtd">
<!-- Generated by graphviz version 2.38.0 (20140413.2041)
 -->
<!-- Title: magnetic_non_p3m_methods.hpp Pages: 1 -->
<svg width="2094pt" height="218pt"
 viewBox="0.00 0.00 2093.50 218.00" xmlns="http://www.w3.org/2000/svg" xmlns:xlink="http://www.w3.org/1999/xlink">
<g id="graph0" class="graph" transform="scale(1 1) rotate(0) translate(4 214)">
<title>magnetic_non_p3m_methods.hpp</title>
<!-- Node1 -->
<g id="node1" class="node"><title>Node1</title>
<polygon fill="#bfbfbf" stroke="black" points="913,-190.5 913,-209.5 1095,-209.5 1095,-190.5 913,-190.5"/>
<text text-anchor="middle" x="1004" y="-197.5" font-family="Helvetica,sans-Serif" font-size="10.00">magnetic_non_p3m_methods.hpp</text>
</g>
<!-- Node2 -->
<g id="node2" class="node"><title>Node2</title>
<g id="a_node2"><a xlink:href="forces__inline_8hpp.html" target="_top" xlink:title="forces_inline.hpp">
<polygon fill="none" stroke="black" points="851,-129 851,-148 951,-148 951,-129 851,-129"/>
<text text-anchor="middle" x="901" y="-136" font-family="Helvetica,sans-Serif" font-size="10.00">forces_inline.hpp</text>
</a>
</g>
</g>
<!-- Node1&#45;&gt;Node2 -->
<g id="edge1" class="edge"><title>Node1&#45;&gt;Node2</title>
<path fill="none" stroke="midnightblue" d="M980.458,-185.401C960.542,-173.896 932.621,-157.767 915.73,-148.009"/>
<polygon fill="midnightblue" stroke="midnightblue" points="978.833,-188.504 989.243,-190.475 982.334,-182.442 978.833,-188.504"/>
</g>
<!-- Node10 -->
<g id="node10" class="node"><title>Node10</title>
<g id="a_node10"><a xlink:href="interaction__data_8cpp.html" target="_top" xlink:title="Implementation of interaction_data.hpp. ">
<polygon fill="none" stroke="black" points="0,-6 0,-25 116,-25 116,-6 0,-6"/>
<text text-anchor="middle" x="58" y="-13" font-family="Helvetica,sans-Serif" font-size="10.00">interaction_data.cpp</text>
</a>
</g>
</g>
<!-- Node1&#45;&gt;Node10 -->
<g id="edge29" class="edge"><title>Node1&#45;&gt;Node10</title>
<path fill="none" stroke="midnightblue" d="M946.591,-188.701C839.178,-169.354 600.548,-126.01 400,-87 277.564,-63.184 247.068,-56.6365 125,-31 115.915,-29.092 106.147,-27.0006 96.9542,-25.0147"/>
<polygon fill="midnightblue" stroke="midnightblue" points="946.109,-192.17 956.571,-190.497 947.349,-185.281 946.109,-192.17"/>
</g>
<!-- Node26 -->
<g id="node26" class="node"><title>Node26</title>
<g id="a_node26"><a xlink:href="energy_8cpp.html" target="_top" xlink:title="Implementation of energy.hpp. ">
<polygon fill="none" stroke="black" points="969.5,-129 969.5,-148 1038.5,-148 1038.5,-129 969.5,-129"/>
<text text-anchor="middle" x="1004" y="-136" font-family="Helvetica,sans-Serif" font-size="10.00">energy.cpp</text>
</a>
</g>
</g>
<!-- Node1&#45;&gt;Node26 -->
<g id="edge28" class="edge"><title>Node1&#45;&gt;Node26</title>
<path fill="none" stroke="midnightblue" d="M1004,-180.317C1004,-169.496 1004,-156.398 1004,-148.009"/>
<polygon fill="midnightblue" stroke="midnightblue" points="1000.5,-180.475 1004,-190.475 1007.5,-180.475 1000.5,-180.475"/>
</g>
<!-- Node27 -->
<g id="node27" class="node"><title>Node27</title>
<g id="a_node27"><a xlink:href="magnetic__non__p3m__methods_8cpp.html" target="_top" xlink:title="All 3d non P3M methods to deal with the magnetic dipoles. ">
<polygon fill="none" stroke="black" points="1056.5,-129 1056.5,-148 1237.5,-148 1237.5,-129 1056.5,-129"/>
<text text-anchor="middle" x="1147" y="-136" font-family="Helvetica,sans-Serif" font-size="10.00">magnetic_non_p3m_methods.cpp</text>
</a>
</g>
</g>
<!-- Node1&#45;&gt;Node27 -->
<g id="edge30" class="edge"><title>Node1&#45;&gt;Node27</title>
<path fill="none" stroke="midnightblue" d="M1033.73,-186.631C1061.51,-175.072 1102.25,-158.12 1126.55,-148.009"/>
<polygon fill="midnightblue" stroke="midnightblue" points="1032.38,-183.402 1024.49,-190.475 1035.07,-189.865 1032.38,-183.402"/>
</g>
<!-- Node28 -->
<g id="node28" class="node"><title>Node28</title>
<g id="a_node28"><a xlink:href="magnetic__non__p3m__methods__tcl_8cpp.html" target="_top" xlink:title="magnetic_non_p3m_methods\l_tcl.cpp">
<polygon fill="none" stroke="black" points="1255.5,-123.5 1255.5,-153.5 1416.5,-153.5 1416.5,-123.5 1255.5,-123.5"/>
<text text-anchor="start" x="1263.5" y="-141.5" font-family="Helvetica,sans-Serif" font-size="10.00">magnetic_non_p3m_methods</text>
<text text-anchor="middle" x="1336" y="-130.5" font-family="Helvetica,sans-Serif" font-size="10.00">_tcl.cpp</text>
</a>
</g>
</g>
<!-- Node1&#45;&gt;Node28 -->
<g id="edge31" class="edge"><title>Node1&#45;&gt;Node28</title>
<path fill="none" stroke="midnightblue" d="M1061.71,-188.658C1115.97,-178.933 1197.64,-164.297 1257.75,-153.523"/>
<polygon fill="midnightblue" stroke="midnightblue" points="1060.79,-185.266 1051.57,-190.475 1062.03,-192.156 1060.79,-185.266"/>
</g>
<!-- Node3 -->
<g id="node3" class="node"><title>Node3</title>
<g id="a_node3"><a xlink:href="pressure_8hpp.html" target="_top" xlink:title="Pressure calculation. ">
<polygon fill="none" stroke="black" points="760,-67.5 760,-86.5 840,-86.5 840,-67.5 760,-67.5"/>
<text text-anchor="middle" x="800" y="-74.5" font-family="Helvetica,sans-Serif" font-size="10.00">pressure.hpp</text>
</a>
</g>
</g>
<!-- Node2&#45;&gt;Node3 -->
<g id="edge2" class="edge"><title>Node2&#45;&gt;Node3</title>
<path fill="none" stroke="midnightblue" d="M877.65,-123.744C858.138,-112.25 830.932,-96.2226 814.444,-86.5091"/>
<polygon fill="midnightblue" stroke="midnightblue" points="876.137,-126.915 886.529,-128.975 879.69,-120.884 876.137,-126.915"/>
</g>
<!-- Node11 -->
<g id="node11" class="node"><title>Node11</title>
<g id="a_node11"><a xlink:href="layered_8cpp.html" target="_top" xlink:title="Implementation of layered.h. ">
<polygon fill="none" stroke="black" points="134,-6 134,-25 208,-25 208,-6 134,-6"/>
<text text-anchor="middle" x="171" y="-13" font-family="Helvetica,sans-Serif" font-size="10.00">layered.cpp</text>
</a>
</g>
</g>
<!-- Node2&#45;&gt;Node11 -->
<g id="edge27" class="edge"><title>Node2&#45;&gt;Node11</title>
<path fill="none" stroke="midnightblue" d="M840.643,-131.204C720.723,-118.014 444.409,-84.2247 217,-31 209.988,-29.3589 202.496,-27.1841 195.638,-25.0193"/>
<polygon fill="midnightblue" stroke="midnightblue" points="840.404,-134.698 850.725,-132.304 841.164,-127.74 840.404,-134.698"/>
</g>
<!-- Node20 -->
<g id="node20" class="node"><title>Node20</title>
<g id="a_node20"><a xlink:href="minimize__energy_8hpp.html" target="_top" xlink:title="minimize_energy.hpp">
<polygon fill="none" stroke="black" points="1688.5,-67.5 1688.5,-86.5 1809.5,-86.5 1809.5,-67.5 1688.5,-67.5"/>
<text text-anchor="middle" x="1749" y="-74.5" font-family="Helvetica,sans-Serif" font-size="10.00">minimize_energy.hpp</text>
</a>
</g>
</g>
<!-- Node2&#45;&gt;Node20 -->
<g id="edge19" class="edge"><title>Node2&#45;&gt;Node20</title>
<path fill="none" stroke="midnightblue" d="M941.563,-126.653C948.027,-125.227 954.669,-123.938 961,-123 1230.06,-83.1374 1555.64,-78.0376 1688.32,-77.7577"/>
<polygon fill="midnightblue" stroke="midnightblue" points="940.565,-123.292 931.623,-128.975 942.157,-130.109 940.565,-123.292"/>
</g>
<!-- Node23 -->
<g id="node23" class="node"><title>Node23</title>
<g id="a_node23"><a xlink:href="constraint_8cpp.html" target="_top" xlink:title="Implementation of constraint.hpp, here it&#39;s just the parsing stuff. ">
<polygon fill="none" stroke="black" points="858,-67.5 858,-86.5 944,-86.5 944,-67.5 858,-67.5"/>
<text text-anchor="middle" x="901" y="-74.5" font-family="Helvetica,sans-Serif" font-size="10.00">constraint.cpp</text>
</a>
</g>
</g>
<!-- Node2&#45;&gt;Node23 -->
<g id="edge24" class="edge"><title>Node2&#45;&gt;Node23</title>
<path fill="none" stroke="midnightblue" d="M901,-118.817C901,-107.996 901,-94.898 901,-86.5091"/>
<polygon fill="midnightblue" stroke="midnightblue" points="897.5,-118.975 901,-128.975 904.5,-118.975 897.5,-118.975"/>
</g>
<!-- Node24 -->
<g id="node24" class="node"><title>Node24</title>
<g id="a_node24"><a xlink:href="forces_8cpp.html" target="_top" xlink:title="Force calculation. ">
<polygon fill="none" stroke="black" points="962.5,-67.5 962.5,-86.5 1029.5,-86.5 1029.5,-67.5 962.5,-67.5"/>
<text text-anchor="middle" x="996" y="-74.5" font-family="Helvetica,sans-Serif" font-size="10.00">forces.cpp</text>
</a>
</g>
</g>
<!-- Node2&#45;&gt;Node24 -->
<g id="edge25" class="edge"><title>Node2&#45;&gt;Node24</title>
<path fill="none" stroke="midnightblue" d="M923.214,-123.587C941.548,-112.104 966.976,-96.1784 982.414,-86.5091"/>
<polygon fill="midnightblue" stroke="midnightblue" points="921.228,-120.701 914.611,-128.975 924.944,-126.633 921.228,-120.701"/>
</g>
<!-- Node25 -->
<g id="node25" class="node"><title>Node25</title>
<g id="a_node25"><a xlink:href="ghosts_8cpp.html" target="_top" xlink:title="Ghost particles and particle exchange. ">
<polygon fill="none" stroke="black" points="1047.5,-67.5 1047.5,-86.5 1116.5,-86.5 1116.5,-67.5 1047.5,-67.5"/>
<text text-anchor="middle" x="1082" y="-74.5" font-family="Helvetica,sans-Serif" font-size="10.00">ghosts.cpp</text>
</a>
</g>
</g>
<!-- Node2&#45;&gt;Node25 -->
<g id="edge26" class="edge"><title>Node2&#45;&gt;Node25</title>
<path fill="none" stroke="midnightblue" d="M936.798,-125.732C971.982,-114.166 1024.82,-96.7966 1056.12,-86.5091"/>
<polygon fill="midnightblue" stroke="midnightblue" points="935.34,-122.527 926.933,-128.975 937.526,-129.177 935.34,-122.527"/>
</g>
<!-- Node4 -->
<g id="node4" class="node"><title>Node4</title>
<g id="a_node4"><a xlink:href="communication_8cpp.html" target="_top" xlink:title="communication.cpp">
<polygon fill="none" stroke="black" points="1577.5,-6 1577.5,-25 1690.5,-25 1690.5,-6 1577.5,-6"/>
<text text-anchor="middle" x="1634" y="-13" font-family="Helvetica,sans-Serif" font-size="10.00">communication.cpp</text>
</a>
</g>
</g>
<!-- Node3&#45;&gt;Node4 -->
<g id="edge3" class="edge"><title>Node3&#45;&gt;Node4</title>
<path fill="none" stroke="midnightblue" d="M850.036,-67.0507C1169.01,-30.8737 1254.76,-73.5928 1569,-31 1579.43,-29.5868 1590.65,-27.3461 1600.79,-25.0448"/>
<polygon fill="midnightblue" stroke="midnightblue" points="849.581,-63.5799 840.047,-68.2007 850.381,-70.534 849.581,-63.5799"/>
</g>
<!-- Node5 -->
<g id="node5" class="node"><title>Node5</title>
<g id="a_node5"><a xlink:href="domain__decomposition_8cpp.html" target="_top" xlink:title="This file contains everything related to the cell system: domain decomposition. ">
<polygon fill="none" stroke="black" points="1339.5,-6 1339.5,-25 1490.5,-25 1490.5,-6 1339.5,-6"/>
<text text-anchor="middle" x="1415" y="-13" font-family="Helvetica,sans-Serif" font-size="10.00">domain_decomposition.cpp</text>
</a>
</g>
</g>
<!-- Node3&#45;&gt;Node5 -->
<g id="edge4" class="edge"><title>Node3&#45;&gt;Node5</title>
<path fill="none" stroke="midnightblue" d="M850.005,-67.011C1063.34,-40.1157 1120.43,-56.6592 1330,-31 1342.93,-29.4172 1356.89,-27.2355 1369.68,-25.0448"/>
<polygon fill="midnightblue" stroke="midnightblue" points="849.532,-63.5428 840.057,-68.2821 850.42,-70.4863 849.532,-63.5428"/>
</g>
<!-- Node6 -->
<g id="node6" class="node"><title>Node6</title>
<g id="a_node6"><a xlink:href="elc_8cpp.html" target="_top" xlink:title="For more information about ELC, see elc.hpp. ">
<polygon fill="none" stroke="black" points="1508.5,-6 1508.5,-25 1559.5,-25 1559.5,-6 1508.5,-6"/>
<text text-anchor="middle" x="1534" y="-13" font-family="Helvetica,sans-Serif" font-size="10.00">elc.cpp</text>
</a>
</g>
</g>
<!-- Node3&#45;&gt;Node6 -->
<g id="edge5" class="edge"><title>Node3&#45;&gt;Node6</title>
<path fill="none" stroke="midnightblue" d="M850.391,-67.0121C1138.67,-34.2413 1221.11,-96.0593 1500,-31 1505.75,-29.6588 1511.76,-27.4089 1517.1,-25.0766"/>
<polygon fill="midnightblue" stroke="midnightblue" points="849.576,-63.5833 840.049,-68.2181 850.387,-70.5362 849.576,-63.5833"/>
</g>
<!-- Node7 -->
<g id="node7" class="node"><title>Node7</title>
<g id="a_node7"><a xlink:href="initialize_8cpp.html" target="_top" xlink:title="Implementation of initialize.hpp. ">
<polygon fill="none" stroke="black" points="226.5,-6 226.5,-25 305.5,-25 305.5,-6 226.5,-6"/>
<text text-anchor="middle" x="266" y="-13" font-family="Helvetica,sans-Serif" font-size="10.00">initialize.cpp</text>
</a>
</g>
</g>
<!-- Node3&#45;&gt;Node7 -->
<g id="edge6" class="edge"><title>Node3&#45;&gt;Node7</title>
<path fill="none" stroke="midnightblue" d="M749.879,-74.6744C661.206,-71.5956 471.195,-61.6963 314,-31 306.481,-29.5318 298.46,-27.3596 291.17,-25.1409"/>
<polygon fill="midnightblue" stroke="midnightblue" points="749.816,-78.1741 759.927,-75.0089 750.049,-71.178 749.816,-78.1741"/>
</g>
<!-- Node8 -->
<g id="node8" class="node"><title>Node8</title>
<g id="a_node8"><a xlink:href="core_2integrate_8cpp.html" target="_top" xlink:title="integrate.cpp">
<polygon fill="none" stroke="black" points="1708.5,-6 1708.5,-25 1789.5,-25 1789.5,-6 1708.5,-6"/>
<text text-anchor="middle" x="1749" y="-13" font-family="Helvetica,sans-Serif" font-size="10.00">integrate.cpp</text>
</a>
</g>
</g>
<!-- Node3&#45;&gt;Node8 -->
<g id="edge7" class="edge"><title>Node3&#45;&gt;Node8</title>
<path fill="none" stroke="midnightblue" d="M850.134,-67.0549C1226.99,-25.8971 1329.86,-92.6303 1700,-31 1708.14,-29.6449 1716.83,-27.3607 1724.6,-25.0014"/>
<polygon fill="midnightblue" stroke="midnightblue" points="849.596,-63.593 840.044,-68.1754 850.369,-70.5502 849.596,-63.593"/>
</g>
<!-- Node9 -->
<g id="node9" class="node"><title>Node9</title>
<g id="a_node9"><a xlink:href="integrate__sd_8cpp.html" target="_top" xlink:title="Stokesian dynamics integrator. ">
<polygon fill="none" stroke="black" points="323,-6 323,-25 421,-25 421,-6 323,-6"/>
<text text-anchor="middle" x="372" y="-13" font-family="Helvetica,sans-Serif" font-size="10.00">integrate_sd.cpp</text>
</a>
</g>
</g>
<!-- Node3&#45;&gt;Node9 -->
<g id="edge8" class="edge"><title>Node3&#45;&gt;Node9</title>
<path fill="none" stroke="midnightblue" d="M749.71,-71.8758C678.252,-65.5647 543.409,-51.9889 430,-31 421.223,-29.3756 411.797,-27.2062 403.15,-25.0413"/>
<polygon fill="midnightblue" stroke="midnightblue" points="749.517,-75.3721 759.783,-72.7542 750.125,-68.3986 749.517,-75.3721"/>
</g>
<!-- Node3&#45;&gt;Node10 -->
<g id="edge9" class="edge"><title>Node3&#45;&gt;Node10</title>
<path fill="none" stroke="midnightblue" d="M749.817,-75.1652C637.405,-72.7474 357.045,-63.6647 125,-31 114.393,-29.5069 102.964,-27.2715 92.6005,-25.0003"/>
<polygon fill="midnightblue" stroke="midnightblue" points="749.777,-78.6651 759.847,-75.3727 749.921,-71.6666 749.777,-78.6651"/>
</g>
<!-- Node3&#45;&gt;Node11 -->
<g id="edge10" class="edge"><title>Node3&#45;&gt;Node11</title>
<path fill="none" stroke="midnightblue" d="M749.724,-75.9617C648.118,-75.0435 411.445,-68.6369 217,-31 209.601,-29.5679 201.719,-27.3506 194.608,-25.0772"/>
<polygon fill="midnightblue" stroke="midnightblue" points="749.97,-79.4635 759.996,-76.0396 750.023,-72.4637 749.97,-79.4635"/>
</g>
<!-- Node12 -->
<g id="node12" class="node"><title>Node12</title>
<g id="a_node12"><a xlink:href="nsquare_8cpp.html" target="_top" xlink:title="Implementation of nsquare.h. ">
<polygon fill="none" stroke="black" points="439,-6 439,-25 515,-25 515,-6 439,-6"/>
<text text-anchor="middle" x="477" y="-13" font-family="Helvetica,sans-Serif" font-size="10.00">nsquare.cpp</text>
</a>
</g>
</g>
<!-- Node3&#45;&gt;Node12 -->
<g id="edge11" class="edge"><title>Node3&#45;&gt;Node12</title>
<path fill="none" stroke="midnightblue" d="M749.952,-69.9482C694.343,-62.7367 602.092,-49.3204 524,-31 517.017,-29.3617 509.556,-27.2374 502.683,-25.1224"/>
<polygon fill="midnightblue" stroke="midnightblue" points="749.534,-73.4231 759.897,-71.2223 750.423,-66.4799 749.534,-73.4231"/>
</g>
<!-- Node13 -->
<g id="node13" class="node"><title>Node13</title>
<g id="a_node13"><a xlink:href="pressure_8cpp.html" target="_top" xlink:title="Implementation of pressure.h. ">
<polygon fill="none" stroke="black" points="533.5,-6 533.5,-25 612.5,-25 612.5,-6 533.5,-6"/>
<text text-anchor="middle" x="573" y="-13" font-family="Helvetica,sans-Serif" font-size="10.00">pressure.cpp</text>
</a>
</g>
</g>
<!-- Node3&#45;&gt;Node13 -->
<g id="edge12" class="edge"><title>Node3&#45;&gt;Node13</title>
<path fill="none" stroke="midnightblue" d="M754.075,-65.085C717.823,-56.3172 666.027,-43.4532 621,-31 614.288,-29.1436 607.083,-27.0314 600.349,-25.0046"/>
<polygon fill="midnightblue" stroke="midnightblue" points="753.328,-68.505 763.87,-67.4457 754.968,-61.6999 753.328,-68.505"/>
</g>
<!-- Node14 -->
<g id="node14" class="node"><title>Node14</title>
<g id="a_node14"><a xlink:href="statistics_8cpp.html" target="_top" xlink:title="This is the place for analysis (so far...). ">
<polygon fill="none" stroke="black" points="630.5,-6 630.5,-25 711.5,-25 711.5,-6 630.5,-6"/>
<text text-anchor="middle" x="671" y="-13" font-family="Helvetica,sans-Serif" font-size="10.00">statistics.cpp</text>
</a>
</g>
</g>
<!-- Node3&#45;&gt;Node14 -->
<g id="edge13" class="edge"><title>Node3&#45;&gt;Node14</title>
<path fill="none" stroke="midnightblue" d="M772.193,-63.1742C747.161,-51.6287 711.082,-34.9875 689.448,-25.0091"/>
<polygon fill="midnightblue" stroke="midnightblue" points="770.971,-66.4649 781.517,-67.4751 773.903,-60.1085 770.971,-66.4649"/>
</g>
<!-- Node15 -->
<g id="node15" class="node"><title>Node15</title>
<g id="a_node15"><a xlink:href="statistics__observable_8cpp.html" target="_top" xlink:title="statistics_observable.cpp">
<polygon fill="none" stroke="black" points="730,-6 730,-25 870,-25 870,-6 730,-6"/>
<text text-anchor="middle" x="800" y="-13" font-family="Helvetica,sans-Serif" font-size="10.00">statistics_observable.cpp</text>
</a>
</g>
</g>
<!-- Node3&#45;&gt;Node15 -->
<g id="edge14" class="edge"><title>Node3&#45;&gt;Node15</title>
<path fill="none" stroke="midnightblue" d="M800,-57.3165C800,-46.4962 800,-33.398 800,-25.0091"/>
<polygon fill="midnightblue" stroke="midnightblue" points="796.5,-57.4751 800,-67.4751 803.5,-57.4751 796.5,-57.4751"/>
</g>
<!-- Node16 -->
<g id="node16" class="node"><title>Node16</title>
<g id="a_node16"><a xlink:href="verlet_8cpp.html" target="_top" xlink:title="Verlet list. ">
<polygon fill="none" stroke="black" points="888.5,-6 888.5,-25 953.5,-25 953.5,-6 888.5,-6"/>
<text text-anchor="middle" x="921" y="-13" font-family="Helvetica,sans-Serif" font-size="10.00">verlet.cpp</text>
</a>
</g>
</g>
<!-- Node3&#45;&gt;Node16 -->
<g id="edge15" class="edge"><title>Node3&#45;&gt;Node16</title>
<path fill="none" stroke="midnightblue" d="M826.395,-63.0207C849.861,-51.4816 883.493,-34.9433 903.696,-25.0091"/>
<polygon fill="midnightblue" stroke="midnightblue" points="824.766,-59.9215 817.336,-67.4751 827.855,-66.2032 824.766,-59.9215"/>
</g>
<!-- Node17 -->
<g id="node17" class="node"><title>Node17</title>
<g id="a_node17"><a xlink:href="virtual__sites_8cpp.html" target="_top" xlink:title="virtual_sites.cpp">
<polygon fill="none" stroke="black" points="971.5,-6 971.5,-25 1068.5,-25 1068.5,-6 971.5,-6"/>
<text text-anchor="middle" x="1020" y="-13" font-family="Helvetica,sans-Serif" font-size="10.00">virtual_sites.cpp</text>
</a>
</g>
</g>
<!-- Node3&#45;&gt;Node17 -->
<g id="edge16" class="edge"><title>Node3&#45;&gt;Node17</title>
<path fill="none" stroke="midnightblue" d="M841.329,-64.8225C884.064,-53.2645 949.847,-35.4732 988.538,-25.0091"/>
<polygon fill="midnightblue" stroke="midnightblue" points="840.26,-61.4857 831.521,-67.4751 842.088,-68.2429 840.26,-61.4857"/>
</g>
<!-- Node18 -->
<g id="node18" class="node"><title>Node18</title>
<g id="a_node18"><a xlink:href="pressure__tcl_8cpp.html" target="_top" xlink:title="pressure_tcl.cpp">
<polygon fill="none" stroke="black" points="1087,-6 1087,-25 1183,-25 1183,-6 1087,-6"/>
<text text-anchor="middle" x="1135" y="-13" font-family="Helvetica,sans-Serif" font-size="10.00">pressure_tcl.cpp</text>
</a>
</g>
</g>
<!-- Node3&#45;&gt;Node18 -->
<g id="edge17" class="edge"><title>Node3&#45;&gt;Node18</title>
<path fill="none" stroke="midnightblue" d="M850.212,-66.8407C952.293,-49.7972 980.232,-51.0748 1078,-31 1086.4,-29.2748 1095.43,-27.1206 1103.76,-25.0047"/>
<polygon fill="midnightblue" stroke="midnightblue" points="849.374,-63.4325 840.096,-68.5486 850.54,-70.3348 849.374,-63.4325"/>
</g>
<!-- Node19 -->
<g id="node19" class="node"><title>Node19</title>
<g id="a_node19"><a xlink:href="statistics__observable__tcl_8cpp.html" target="_top" xlink:title="statistics_observable\l_tcl.cpp">
<polygon fill="none" stroke="black" points="1201,-0.5 1201,-30.5 1321,-30.5 1321,-0.5 1201,-0.5"/>
<text text-anchor="start" x="1209" y="-18.5" font-family="Helvetica,sans-Serif" font-size="10.00">statistics_observable</text>
<text text-anchor="middle" x="1261" y="-7.5" font-family="Helvetica,sans-Serif" font-size="10.00">_tcl.cpp</text>
</a>
</g>
</g>
<!-- Node3&#45;&gt;Node19 -->
<g id="edge18" class="edge"><title>Node3&#45;&gt;Node19</title>
<path fill="none" stroke="midnightblue" d="M850.259,-66.9272C1002.48,-45.5379 1043.83,-54.2815 1192,-31 1194.9,-30.544 1197.87,-30.046 1200.86,-29.518"/>
<polygon fill="midnightblue" stroke="midnightblue" points="849.476,-63.5034 840.07,-68.3803 850.464,-70.4333 849.476,-63.5034"/>
</g>
<!-- Node20&#45;&gt;Node4 -->
<g id="edge20" class="edge"><title>Node20&#45;&gt;Node4</title>
<path fill="none" stroke="midnightblue" d="M1723.62,-62.8665C1701.33,-51.3347 1669.56,-34.8992 1650.45,-25.0091"/>
<polygon fill="midnightblue" stroke="midnightblue" points="1722.03,-65.9883 1732.52,-67.4751 1725.25,-59.7712 1722.03,-65.9883"/>
</g>
<!-- Node20&#45;&gt;Node8 -->
<g id="edge21" class="edge"><title>Node20&#45;&gt;Node8</title>
<path fill="none" stroke="midnightblue" d="M1749,-57.3165C1749,-46.4962 1749,-33.398 1749,-25.0091"/>
<polygon fill="midnightblue" stroke="midnightblue" points="1745.5,-57.4751 1749,-67.4751 1752.5,-57.4751 1745.5,-57.4751"/>
</g>
<!-- Node21 -->
<g id="node21" class="node"><title>Node21</title>
<g id="a_node21"><a xlink:href="minimize__energy_8cpp.html" target="_top" xlink:title="minimize_energy.cpp">
<polygon fill="none" stroke="black" points="1808,-6 1808,-25 1928,-25 1928,-6 1808,-6"/>
<text text-anchor="middle" x="1868" y="-13" font-family="Helvetica,sans-Serif" font-size="10.00">minimize_energy.cpp</text>
</a>
</g>
</g>
<!-- Node20&#45;&gt;Node21 -->
<g id="edge22" class="edge"><title>Node20&#45;&gt;Node21</title>
<path fill="none" stroke="midnightblue" d="M1775.27,-62.8665C1798.33,-51.3347 1831.2,-34.8992 1850.98,-25.0091"/>
<polygon fill="midnightblue" stroke="midnightblue" points="1773.43,-59.8724 1766.05,-67.4751 1776.56,-66.1334 1773.43,-59.8724"/>
</g>
<!-- Node22 -->
<g id="node22" class="node"><title>Node22</title>
<g id="a_node22"><a xlink:href="minimize__energy__tcl_8cpp.html" target="_top" xlink:title="minimize_energy_tcl.cpp">
<polygon fill="none" stroke="black" points="1946.5,-6 1946.5,-25 2085.5,-25 2085.5,-6 1946.5,-6"/>
<text text-anchor="middle" x="2016" y="-13" font-family="Helvetica,sans-Serif" font-size="10.00">minimize_energy_tcl.cpp</text>
</a>
</g>
</g>
<!-- Node20&#45;&gt;Node22 -->
<g id="edge23" class="edge"><title>Node20&#45;&gt;Node22</title>
<path fill="none" stroke="midnightblue" d="M1797.2,-65.2584C1849,-53.716 1930.27,-35.6056 1977.82,-25.0091"/>
<polygon fill="midnightblue" stroke="midnightblue" points="1796.25,-61.8837 1787.25,-67.4751 1797.78,-68.7161 1796.25,-61.8837"/>
</g>
</g>
</svg>
