<?xml version="1.0" encoding="UTF-8" standalone="no"?>
<!DOCTYPE svg PUBLIC "-//W3C//DTD SVG 1.1//EN"
 "http://www.w3.org/Graphics/SVG/1.1/DTD/svg11.dtd">
<!-- Generated by graphviz version 2.38.0 (20140413.2041)
 -->
<!-- Title: metadynamics.cpp Pages: 1 -->
<!--zoomable 420 -->
<svg id="main" version="1.1" xmlns="http://www.w3.org/2000/svg" xmlns:xlink="http://www.w3.org/1999/xlink" xml:space="preserve" onload="init(evt)">
<style type="text/css"><![CDATA[
.edge:hover path { stroke: red; }
.edge:hover polygon { stroke: red; fill: red; }
]]></style>
<script type="text/javascript"><![CDATA[
var edges = document.getElementsByTagName('g');
if (edges && edges.length) {
  for (var i=0;i<edges.length;i++) {
    if (edges[i].id.substr(0,4)=='edge') {
      edges[i].setAttribute('class','edge');
    }
  }
}
]]></script>
        <defs>
                <circle id="rim" cx="0" cy="0" r="7"/>
                <circle id="rim2" cx="0" cy="0" r="3.5"/>
                <g id="zoomPlus">
                        <use xlink:href="#rim" fill="#404040">
                                <set attributeName="fill" to="#808080" begin="zoomplus.mouseover" end="zoomplus.mouseout"/>
                        </use>
                        <path d="M-4,0h8M0,-4v8" fill="none" stroke="white" stroke-width="1.5" pointer-events="none"/>
                </g>
                <g id="zoomMin">
                        <use xlink:href="#rim" fill="#404040">
                                <set attributeName="fill" to="#808080" begin="zoomminus.mouseover" end="zoomminus.mouseout"/>
                        </use>
                        <path d="M-4,0h8" fill="none" stroke="white" stroke-width="1.5" pointer-events="none"/>
                </g>
                <g id="dirArrow">
                        <path fill="none" stroke="white" stroke-width="1.5" d="M0,-3.0v7 M-2.5,-0.5L0,-3.0L2.5,-0.5"/>
                </g>
               <g id="resetDef">
                       <use xlink:href="#rim2" fill="#404040">
                               <set attributeName="fill" to="#808080" begin="reset.mouseover" end="reset.mouseout"/>
                       </use>
               </g>
        </defs>

<script type="text/javascript">
var viewWidth = 838;
var viewHeight = 420;
var sectionId = 'dynsection-0';
</script>
<script xlink:href="svgpan.js"/>
<svg id="graph" class="graph">
<g id="viewport">
<title>metadynamics.cpp</title>
<!-- Node1 -->
<g id="node1" class="node"><title>Node1</title>
<polygon fill="#bfbfbf" stroke="black" points="439,-392.5 439,-411.5 549,-411.5 549,-392.5 439,-392.5"/>
<text text-anchor="middle" x="494" y="-399.5" font-family="Helvetica,sans-Serif" font-size="10.00">metadynamics.cpp</text>
</g>
<!-- Node2 -->
<g id="node2" class="node"><title>Node2</title>
<g id="a_node2"><a xlink:href="metadynamics_8hpp.html" target="_top" xlink:title="This file contains routines to perform metadynamics. ">
<polygon fill="none" stroke="black" points="77,-280.5 77,-299.5 187,-299.5 187,-280.5 77,-280.5"/>
<text text-anchor="middle" x="132" y="-287.5" font-family="Helvetica,sans-Serif" font-size="10.00">metadynamics.hpp</text>
</a>
</g>
</g>
<!-- Node1&#45;&gt;Node2 -->
<g id="edge1" class="edge"><title>Node1&#45;&gt;Node2</title>
<path fill="none" stroke="midnightblue" d="M456.441,-392.475C420.428,-384.061 364.652,-370.398 317,-356 262.638,-339.575 200.569,-316.956 163.921,-303.189"/>
<polygon fill="midnightblue" stroke="midnightblue" points="164.877,-299.809 154.286,-299.554 162.406,-306.359 164.877,-299.809"/>
</g>
<!-- Node15 -->
<g id="node15" class="node"><title>Node15</title>
<g id="a_node15"><a xlink:href="errorhandling_8hpp.html" target="_top" xlink:title="This file contains the errorhandling code for severe errors, like a broken bond or illegal parameter ...">
<polygon fill="none" stroke="black" points="700.5,-112.5 700.5,-131.5 803.5,-131.5 803.5,-112.5 700.5,-112.5"/>
<text text-anchor="middle" x="752" y="-119.5" font-family="Helvetica,sans-Serif" font-size="10.00">errorhandling.hpp</text>
</a>
</g>
</g>
<!-- Node1&#45;&gt;Node15 -->
<g id="edge26" class="edge"><title>Node1&#45;&gt;Node15</title>
<path fill="none" stroke="midnightblue" d="M538.119,-392.457C614.433,-376.406 763,-338.995 763,-291 763,-291 763,-291 763,-233 763,-200.788 758.272,-163.532 755.015,-141.692"/>
<polygon fill="midnightblue" stroke="midnightblue" points="758.43,-140.874 753.438,-131.529 751.513,-141.947 758.43,-140.874"/>
</g>
<!-- Node21 -->
<g id="node21" class="node"><title>Node21</title>
<g id="a_node21"><a xlink:href="grid_8hpp.html" target="_top" xlink:title="Domain decomposition for parallel computing. ">
<polygon fill="none" stroke="black" points="591,-336.5 591,-355.5 647,-355.5 647,-336.5 591,-336.5"/>
<text text-anchor="middle" x="619" y="-343.5" font-family="Helvetica,sans-Serif" font-size="10.00">grid.hpp</text>
</a>
</g>
</g>
<!-- Node1&#45;&gt;Node21 -->
<g id="edge27" class="edge"><title>Node1&#45;&gt;Node21</title>
<path fill="none" stroke="midnightblue" d="M513.807,-392.444C534.287,-383.596 566.483,-369.687 589.865,-359.586"/>
<polygon fill="midnightblue" stroke="midnightblue" points="591.494,-362.695 599.286,-355.516 588.718,-356.269 591.494,-362.695"/>
</g>
<!-- Node31 -->
<g id="node31" class="node"><title>Node31</title>
<g id="a_node31"><a xlink:href="cells_8hpp.html" target="_top" xlink:title="This file contains everything related to the cell structure / cell system. ">
<polygon fill="none" stroke="black" points="326,-336.5 326,-355.5 386,-355.5 386,-336.5 326,-336.5"/>
<text text-anchor="middle" x="356" y="-343.5" font-family="Helvetica,sans-Serif" font-size="10.00">cells.hpp</text>
</a>
</g>
</g>
<!-- Node1&#45;&gt;Node31 -->
<g id="edge44" class="edge"><title>Node1&#45;&gt;Node31</title>
<path fill="none" stroke="midnightblue" d="M472.133,-392.444C449.221,-383.478 413.025,-369.314 387.134,-359.183"/>
<polygon fill="midnightblue" stroke="midnightblue" points="388.352,-355.901 377.764,-355.516 385.801,-362.42 388.352,-355.901"/>
</g>
<!-- Node3 -->
<g id="node3" class="node"><title>Node3</title>
<polygon fill="none" stroke="#bfbfbf" points="0,-112.5 0,-131.5 50,-131.5 50,-112.5 0,-112.5"/>
<text text-anchor="middle" x="25" y="-119.5" font-family="Helvetica,sans-Serif" font-size="10.00">cstring</text>
</g>
<!-- Node2&#45;&gt;Node3 -->
<g id="edge2" class="edge"><title>Node2&#45;&gt;Node3</title>
<path fill="none" stroke="midnightblue" d="M126.247,-280.075C109.186,-253.606 58.6527,-175.209 36.093,-140.21"/>
<polygon fill="midnightblue" stroke="midnightblue" points="38.8825,-138.077 30.5228,-131.568 32.9988,-141.87 38.8825,-138.077"/>
</g>
<!-- Node4 -->
<g id="node4" class="node"><title>Node4</title>
<polygon fill="none" stroke="#bfbfbf" points="68.5,-112.5 68.5,-131.5 115.5,-131.5 115.5,-112.5 68.5,-112.5"/>
<text text-anchor="middle" x="92" y="-119.5" font-family="Helvetica,sans-Serif" font-size="10.00">cmath</text>
</g>
<!-- Node2&#45;&gt;Node4 -->
<g id="edge3" class="edge"><title>Node2&#45;&gt;Node4</title>
<path fill="none" stroke="midnightblue" d="M129.849,-280.075C123.553,-253.945 105.063,-177.211 96.4764,-141.577"/>
<polygon fill="midnightblue" stroke="midnightblue" points="99.8099,-140.47 94.0646,-131.568 93.0047,-142.11 99.8099,-140.47"/>
</g>
<!-- Node5 -->
<g id="node5" class="node"><title>Node5</title>
<g id="a_node5"><a xlink:href="particle__data_8hpp.html" target="_top" xlink:title="For more information on particle_data, see particle_data.c. ">
<polygon fill="none" stroke="black" points="261.5,-224.5 261.5,-243.5 362.5,-243.5 362.5,-224.5 261.5,-224.5"/>
<text text-anchor="middle" x="312" y="-231.5" font-family="Helvetica,sans-Serif" font-size="10.00">particle_data.hpp</text>
</a>
</g>
</g>
<!-- Node2&#45;&gt;Node5 -->
<g id="edge4" class="edge"><title>Node2&#45;&gt;Node5</title>
<path fill="none" stroke="midnightblue" d="M160.522,-280.444C191.066,-271.28 239.708,-256.688 273.603,-246.519"/>
<polygon fill="midnightblue" stroke="midnightblue" points="275.039,-249.742 283.612,-243.516 273.028,-243.038 275.039,-249.742"/>
</g>
<!-- Node6 -->
<g id="node6" class="node"><title>Node6</title>
<g id="a_node6"><a xlink:href="utils_8hpp.html" target="_top" xlink:title="Small functions that are useful not only for one modul. ">
<polygon fill="none" stroke="black" points="388.5,-168.5 388.5,-187.5 447.5,-187.5 447.5,-168.5 388.5,-168.5"/>
<text text-anchor="middle" x="418" y="-175.5" font-family="Helvetica,sans-Serif" font-size="10.00">utils.hpp</text>
</a>
</g>
</g>
<!-- Node2&#45;&gt;Node6 -->
<g id="edge25" class="edge"><title>Node2&#45;&gt;Node6</title>
<path fill="none" stroke="midnightblue" d="M147.797,-280.317C179.132,-263.113 246.61,-226.156 252,-224 293.832,-207.264 344.021,-194.624 378.183,-187.065"/>
<polygon fill="midnightblue" stroke="midnightblue" points="379.213,-190.423 388.244,-184.883 377.729,-183.582 379.213,-190.423"/>
</g>
<!-- Node5&#45;&gt;Node6 -->
<g id="edge5" class="edge"><title>Node5&#45;&gt;Node6</title>
<path fill="none" stroke="midnightblue" d="M329.031,-224.324C346.03,-215.664 372.376,-202.242 391.993,-192.249"/>
<polygon fill="midnightblue" stroke="midnightblue" points="393.69,-195.312 401.012,-187.655 390.512,-189.075 393.69,-195.312"/>
</g>
<!-- Node6&#45;&gt;Node3 -->
<g id="edge9" class="edge"><title>Node6&#45;&gt;Node3</title>
<path fill="none" stroke="midnightblue" d="M388.458,-173.815C317.575,-166.092 138.503,-146.09 60.0971,-131.933"/>
<polygon fill="midnightblue" stroke="midnightblue" points="60.639,-128.474 50.1641,-130.063 59.344,-135.353 60.639,-128.474"/>
</g>
<!-- Node6&#45;&gt;Node4 -->
<g id="edge6" class="edge"><title>Node6&#45;&gt;Node4</title>
<path fill="none" stroke="midnightblue" d="M388.27,-173.57C336.771,-167.386 227.506,-153.19 125.555,-131.897"/>
<polygon fill="midnightblue" stroke="midnightblue" points="126.222,-128.461 115.714,-129.814 124.773,-135.309 126.222,-128.461"/>
</g>
<!-- Node7 -->
<g id="node7" class="node"><title>Node7</title>
<polygon fill="none" stroke="#bfbfbf" points="340,-112.5 340,-131.5 386,-131.5 386,-112.5 340,-112.5"/>
<text text-anchor="middle" x="363" y="-119.5" font-family="Helvetica,sans-Serif" font-size="10.00">cstdio</text>
</g>
<!-- Node6&#45;&gt;Node7 -->
<g id="edge7" class="edge"><title>Node6&#45;&gt;Node7</title>
<path fill="none" stroke="midnightblue" d="M408.918,-168.083C400.829,-160.141 388.805,-148.335 379.09,-138.797"/>
<polygon fill="midnightblue" stroke="midnightblue" points="381.501,-136.26 371.913,-131.751 376.597,-141.254 381.501,-136.26"/>
</g>
<!-- Node8 -->
<g id="node8" class="node"><title>Node8</title>
<polygon fill="none" stroke="#bfbfbf" points="404.5,-112.5 404.5,-131.5 453.5,-131.5 453.5,-112.5 404.5,-112.5"/>
<text text-anchor="middle" x="429" y="-119.5" font-family="Helvetica,sans-Serif" font-size="10.00">cstdlib</text>
</g>
<!-- Node6&#45;&gt;Node8 -->
<g id="edge8" class="edge"><title>Node6&#45;&gt;Node8</title>
<path fill="none" stroke="midnightblue" d="M419.816,-168.083C421.274,-160.927 423.371,-150.635 425.193,-141.691"/>
<polygon fill="midnightblue" stroke="midnightblue" points="428.651,-142.248 427.217,-131.751 421.792,-140.851 428.651,-142.248"/>
</g>
<!-- Node9 -->
<g id="node9" class="node"><title>Node9</title>
<g id="a_node9"><a xlink:href="config_8hpp.html" target="_top" xlink:title="This file contains the defaults for Espresso. ">
<polygon fill="none" stroke="black" points="510.5,-56.5 510.5,-75.5 577.5,-75.5 577.5,-56.5 510.5,-56.5"/>
<text text-anchor="middle" x="544" y="-63.5" font-family="Helvetica,sans-Serif" font-size="10.00">config.hpp</text>
</a>
</g>
</g>
<!-- Node6&#45;&gt;Node9 -->
<g id="edge10" class="edge"><title>Node6&#45;&gt;Node9</title>
<path fill="none" stroke="midnightblue" d="M427.887,-168.368C449.141,-149.814 499.427,-105.913 526.317,-82.4376"/>
<polygon fill="midnightblue" stroke="midnightblue" points="528.928,-84.8046 534.159,-75.5914 524.324,-79.5314 528.928,-84.8046"/>
</g>
<!-- Node13 -->
<g id="node13" class="node"><title>Node13</title>
<g id="a_node13"><a xlink:href="debug_8hpp.html" target="_top" xlink:title="This file controls debug facilities. ">
<polygon fill="none" stroke="black" points="510,-112.5 510,-131.5 578,-131.5 578,-112.5 510,-112.5"/>
<text text-anchor="middle" x="544" y="-119.5" font-family="Helvetica,sans-Serif" font-size="10.00">debug.hpp</text>
</a>
</g>
</g>
<!-- Node6&#45;&gt;Node13 -->
<g id="edge14" class="edge"><title>Node6&#45;&gt;Node13</title>
<path fill="none" stroke="midnightblue" d="M437.965,-168.444C458.609,-159.596 491.063,-145.687 514.632,-135.586"/>
<polygon fill="midnightblue" stroke="midnightblue" points="516.316,-138.673 524.128,-131.516 513.558,-132.239 516.316,-138.673"/>
</g>
<!-- Node14 -->
<g id="node14" class="node"><title>Node14</title>
<g id="a_node14"><a xlink:href="lees__edwards_8hpp.html" target="_top" xlink:title="lees_edwards.hpp">
<polygon fill="none" stroke="black" points="134,-112.5 134,-131.5 238,-131.5 238,-112.5 134,-112.5"/>
<text text-anchor="middle" x="186" y="-119.5" font-family="Helvetica,sans-Serif" font-size="10.00">lees_edwards.hpp</text>
</a>
</g>
</g>
<!-- Node6&#45;&gt;Node14 -->
<g id="edge16" class="edge"><title>Node6&#45;&gt;Node14</title>
<path fill="none" stroke="midnightblue" d="M388.145,-170.051C348.696,-160.869 278.794,-144.599 232.421,-133.805"/>
<polygon fill="midnightblue" stroke="midnightblue" points="233.148,-130.381 222.615,-131.522 231.561,-137.198 233.148,-130.381"/>
</g>
<!-- Node6&#45;&gt;Node15 -->
<g id="edge18" class="edge"><title>Node6&#45;&gt;Node15</title>
<path fill="none" stroke="midnightblue" d="M447.64,-172.208C501.813,-163.449 617.857,-144.688 689.973,-133.028"/>
<polygon fill="midnightblue" stroke="midnightblue" points="690.969,-136.413 700.282,-131.362 689.851,-129.503 690.969,-136.413"/>
</g>
<!-- Node19 -->
<g id="node19" class="node"><title>Node19</title>
<polygon fill="none" stroke="#bfbfbf" points="596.5,-112.5 596.5,-131.5 643.5,-131.5 643.5,-112.5 596.5,-112.5"/>
<text text-anchor="middle" x="620" y="-119.5" font-family="Helvetica,sans-Serif" font-size="10.00">vector</text>
</g>
<!-- Node6&#45;&gt;Node19 -->
<g id="edge23" class="edge"><title>Node6&#45;&gt;Node19</title>
<path fill="none" stroke="midnightblue" d="M447.627,-169.169C479.469,-160.74 531.827,-146.843 586.368,-132.159"/>
<polygon fill="midnightblue" stroke="midnightblue" points="587.467,-135.487 596.212,-129.506 585.645,-128.729 587.467,-135.487"/>
</g>
<!-- Node20 -->
<g id="node20" class="node"><title>Node20</title>
<polygon fill="none" stroke="#bfbfbf" points="256.5,-112.5 256.5,-131.5 321.5,-131.5 321.5,-112.5 256.5,-112.5"/>
<text text-anchor="middle" x="289" y="-119.5" font-family="Helvetica,sans-Serif" font-size="10.00">exception</text>
</g>
<!-- Node6&#45;&gt;Node20 -->
<g id="edge24" class="edge"><title>Node6&#45;&gt;Node20</title>
<path fill="none" stroke="midnightblue" d="M397.56,-168.444C376.33,-159.557 342.901,-145.563 318.745,-135.451"/>
<polygon fill="midnightblue" stroke="midnightblue" points="319.921,-132.149 309.345,-131.516 317.218,-138.606 319.921,-132.149"/>
</g>
<!-- Node10 -->
<g id="node10" class="node"><title>Node10</title>
<g id="a_node10"><a xlink:href="acconfig_8hpp.html" target="_top" xlink:title="acconfig.hpp">
<polygon fill="none" stroke="black" points="394,-0.5 394,-19.5 472,-19.5 472,-0.5 394,-0.5"/>
<text text-anchor="middle" x="433" y="-7.5" font-family="Helvetica,sans-Serif" font-size="10.00">acconfig.hpp</text>
</a>
</g>
</g>
<!-- Node9&#45;&gt;Node10 -->
<g id="edge11" class="edge"><title>Node9&#45;&gt;Node10</title>
<path fill="none" stroke="midnightblue" d="M526.166,-56.324C508.284,-47.6247 480.525,-34.1202 459.954,-24.113"/>
<polygon fill="midnightblue" stroke="midnightblue" points="461.313,-20.8819 450.79,-19.6545 458.251,-27.1765 461.313,-20.8819"/>
</g>
<!-- Node11 -->
<g id="node11" class="node"><title>Node11</title>
<g id="a_node11"><a xlink:href="myconfig-final_8hpp.html" target="_top" xlink:title="myconfig&#45;final.hpp">
<polygon fill="none" stroke="black" points="490.5,-0.5 490.5,-19.5 597.5,-19.5 597.5,-0.5 490.5,-0.5"/>
<text text-anchor="middle" x="544" y="-7.5" font-family="Helvetica,sans-Serif" font-size="10.00">myconfig&#45;final.hpp</text>
</a>
</g>
</g>
<!-- Node9&#45;&gt;Node11 -->
<g id="edge12" class="edge"><title>Node9&#45;&gt;Node11</title>
<path fill="none" stroke="midnightblue" d="M544,-56.083C544,-49.0059 544,-38.8611 544,-29.9865"/>
<polygon fill="midnightblue" stroke="midnightblue" points="547.5,-29.751 544,-19.7511 540.5,-29.7511 547.5,-29.751"/>
</g>
<!-- Node12 -->
<g id="node12" class="node"><title>Node12</title>
<g id="a_node12"><a xlink:href="config-features_8hpp.html" target="_top" xlink:title="config&#45;features.hpp">
<polygon fill="none" stroke="black" points="615.5,-0.5 615.5,-19.5 726.5,-19.5 726.5,-0.5 615.5,-0.5"/>
<text text-anchor="middle" x="671" y="-7.5" font-family="Helvetica,sans-Serif" font-size="10.00">config&#45;features.hpp</text>
</a>
</g>
</g>
<!-- Node9&#45;&gt;Node12 -->
<g id="edge13" class="edge"><title>Node9&#45;&gt;Node12</title>
<path fill="none" stroke="midnightblue" d="M564.124,-56.4435C585.024,-47.5566 617.935,-33.5632 641.716,-23.4514"/>
<polygon fill="midnightblue" stroke="midnightblue" points="643.138,-26.6504 650.971,-19.5164 640.398,-20.2085 643.138,-26.6504"/>
</g>
<!-- Node13&#45;&gt;Node9 -->
<g id="edge15" class="edge"><title>Node13&#45;&gt;Node9</title>
<path fill="none" stroke="midnightblue" d="M544,-112.083C544,-105.006 544,-94.8611 544,-85.9865"/>
<polygon fill="midnightblue" stroke="midnightblue" points="547.5,-85.751 544,-75.7511 540.5,-85.7511 547.5,-85.751"/>
</g>
<!-- Node14&#45;&gt;Node9 -->
<g id="edge17" class="edge"><title>Node14&#45;&gt;Node9</title>
<path fill="none" stroke="midnightblue" d="M238.056,-113.148C308.743,-102.486 433.843,-83.6159 500.055,-73.6285"/>
<polygon fill="midnightblue" stroke="midnightblue" points="500.793,-77.0569 510.159,-72.1045 499.749,-70.1352 500.793,-77.0569"/>
</g>
<!-- Node15&#45;&gt;Node9 -->
<g id="edge19" class="edge"><title>Node15&#45;&gt;Node9</title>
<path fill="none" stroke="midnightblue" d="M719.042,-112.444C683.213,-103.142 625.837,-88.246 586.609,-78.062"/>
<polygon fill="midnightblue" stroke="midnightblue" points="587.363,-74.6417 576.804,-75.5164 585.604,-81.4171 587.363,-74.6417"/>
</g>
<!-- Node16 -->
<g id="node16" class="node"><title>Node16</title>
<polygon fill="none" stroke="#bfbfbf" points="786,-56.5 786,-75.5 830,-75.5 830,-56.5 786,-56.5"/>
<text text-anchor="middle" x="808" y="-63.5" font-family="Helvetica,sans-Serif" font-size="10.00">string</text>
</g>
<!-- Node15&#45;&gt;Node16 -->
<g id="edge20" class="edge"><title>Node15&#45;&gt;Node16</title>
<path fill="none" stroke="midnightblue" d="M760.997,-112.324C769.194,-104.42 781.506,-92.5482 791.472,-82.9377"/>
<polygon fill="midnightblue" stroke="midnightblue" points="794.07,-85.2947 798.839,-75.8339 789.211,-80.2558 794.07,-85.2947"/>
</g>
<!-- Node17 -->
<g id="node17" class="node"><title>Node17</title>
<polygon fill="none" stroke="#bfbfbf" points="662,-56.5 662,-75.5 718,-75.5 718,-56.5 662,-56.5"/>
<text text-anchor="middle" x="690" y="-63.5" font-family="Helvetica,sans-Serif" font-size="10.00">sstream</text>
</g>
<!-- Node15&#45;&gt;Node17 -->
<g id="edge21" class="edge"><title>Node15&#45;&gt;Node17</title>
<path fill="none" stroke="midnightblue" d="M742.039,-112.324C732.873,-104.341 719.063,-92.3128 707.972,-82.6529"/>
<polygon fill="midnightblue" stroke="midnightblue" points="709.982,-79.7624 700.143,-75.8339 705.385,-85.041 709.982,-79.7624"/>
</g>
<!-- Node18 -->
<g id="node18" class="node"><title>Node18</title>
<polygon fill="none" stroke="#bfbfbf" points="736,-56.5 736,-75.5 768,-75.5 768,-56.5 736,-56.5"/>
<text text-anchor="middle" x="752" y="-63.5" font-family="Helvetica,sans-Serif" font-size="10.00">list</text>
</g>
<!-- Node15&#45;&gt;Node18 -->
<g id="edge22" class="edge"><title>Node15&#45;&gt;Node18</title>
<path fill="none" stroke="midnightblue" d="M752,-112.083C752,-105.006 752,-94.8611 752,-85.9865"/>
<polygon fill="midnightblue" stroke="midnightblue" points="755.5,-85.751 752,-75.7511 748.5,-85.7511 755.5,-85.751"/>
</g>
<!-- Node21&#45;&gt;Node6 -->
<g id="edge28" class="edge"><title>Node21&#45;&gt;Node6</title>
<path fill="none" stroke="midnightblue" d="M617.307,-336.232C612.568,-314.057 597.081,-255.286 561,-224 532.027,-198.877 489.034,-187.766 457.757,-182.861"/>
<polygon fill="midnightblue" stroke="midnightblue" points="458.029,-179.364 447.637,-181.424 457.045,-186.295 458.029,-179.364"/>
</g>
<!-- Node21&#45;&gt;Node15 -->
<g id="edge43" class="edge"><title>Node21&#45;&gt;Node15</title>
<path fill="none" stroke="midnightblue" d="M647.25,-337.114C666.518,-330.318 691.144,-318.603 706,-300 725.697,-275.334 742.547,-182.202 749.09,-141.843"/>
<polygon fill="midnightblue" stroke="midnightblue" points="752.581,-142.179 750.688,-131.755 745.667,-141.084 752.581,-142.179"/>
</g>
<!-- Node22 -->
<g id="node22" class="node"><title>Node22</title>
<polygon fill="none" stroke="#bfbfbf" points="647,-280.5 647,-299.5 697,-299.5 697,-280.5 647,-280.5"/>
<text text-anchor="middle" x="672" y="-287.5" font-family="Helvetica,sans-Serif" font-size="10.00">climits</text>
</g>
<!-- Node21&#45;&gt;Node22 -->
<g id="edge29" class="edge"><title>Node21&#45;&gt;Node22</title>
<path fill="none" stroke="midnightblue" d="M627.752,-336.083C635.47,-328.22 646.905,-316.569 656.217,-307.081"/>
<polygon fill="midnightblue" stroke="midnightblue" points="658.904,-309.34 663.411,-299.751 653.908,-304.436 658.904,-309.34"/>
</g>
<!-- Node23 -->
<g id="node23" class="node"><title>Node23</title>
<g id="a_node23"><a xlink:href="communication_8hpp.html" target="_top" xlink:title="This file contains the asynchronous MPI communication. ">
<polygon fill="none" stroke="black" points="429.5,-280.5 429.5,-299.5 542.5,-299.5 542.5,-280.5 429.5,-280.5"/>
<text text-anchor="middle" x="486" y="-287.5" font-family="Helvetica,sans-Serif" font-size="10.00">communication.hpp</text>
</a>
</g>
</g>
<!-- Node21&#45;&gt;Node23 -->
<g id="edge30" class="edge"><title>Node21&#45;&gt;Node23</title>
<path fill="none" stroke="midnightblue" d="M597.926,-336.444C575.94,-327.517 541.266,-313.439 516.336,-303.317"/>
<polygon fill="midnightblue" stroke="midnightblue" points="517.558,-300.035 506.976,-299.516 514.924,-306.521 517.558,-300.035"/>
</g>
<!-- Node23&#45;&gt;Node5 -->
<g id="edge31" class="edge"><title>Node23&#45;&gt;Node5</title>
<path fill="none" stroke="midnightblue" d="M458.429,-280.444C428.903,-271.28 381.882,-256.688 349.117,-246.519"/>
<polygon fill="midnightblue" stroke="midnightblue" points="350.03,-243.138 339.442,-243.516 347.955,-249.823 350.03,-243.138"/>
</g>
<!-- Node24 -->
<g id="node24" class="node"><title>Node24</title>
<g id="a_node24"><a xlink:href="random_8hpp.html" target="_top" xlink:title="A random generator. ">
<polygon fill="none" stroke="black" points="380.5,-224.5 380.5,-243.5 455.5,-243.5 455.5,-224.5 380.5,-224.5"/>
<text text-anchor="middle" x="418" y="-231.5" font-family="Helvetica,sans-Serif" font-size="10.00">random.hpp</text>
</a>
</g>
</g>
<!-- Node23&#45;&gt;Node24 -->
<g id="edge32" class="edge"><title>Node23&#45;&gt;Node24</title>
<path fill="none" stroke="midnightblue" d="M475.075,-280.324C464.825,-272.185 449.279,-259.839 436.999,-250.087"/>
<polygon fill="midnightblue" stroke="midnightblue" points="439.132,-247.312 429.124,-243.834 434.779,-252.794 439.132,-247.312"/>
</g>
<!-- Node25 -->
<g id="node25" class="node"><title>Node25</title>
<g id="a_node25"><a xlink:href="topology_8hpp.html" target="_top" xlink:title="This file contains functions for handling the system topology. ">
<polygon fill="none" stroke="black" points="473.5,-224.5 473.5,-243.5 552.5,-243.5 552.5,-224.5 473.5,-224.5"/>
<text text-anchor="middle" x="513" y="-231.5" font-family="Helvetica,sans-Serif" font-size="10.00">topology.hpp</text>
</a>
</g>
</g>
<!-- Node23&#45;&gt;Node25 -->
<g id="edge34" class="edge"><title>Node23&#45;&gt;Node25</title>
<path fill="none" stroke="midnightblue" d="M490.459,-280.083C494.154,-272.691 499.523,-261.953 504.094,-252.811"/>
<polygon fill="midnightblue" stroke="midnightblue" points="507.283,-254.261 508.624,-243.751 501.022,-251.13 507.283,-254.261"/>
</g>
<!-- Node26 -->
<g id="node26" class="node"><title>Node26</title>
<g id="a_node26"><a xlink:href="mpi_8h.html" target="_top" xlink:title="This is the MPIfake implementation. ">
<polygon fill="none" stroke="black" points="161,-224.5 161,-243.5 205,-243.5 205,-224.5 161,-224.5"/>
<text text-anchor="middle" x="183" y="-231.5" font-family="Helvetica,sans-Serif" font-size="10.00">mpi.h</text>
</a>
</g>
</g>
<!-- Node23&#45;&gt;Node26 -->
<g id="edge36" class="edge"><title>Node23&#45;&gt;Node26</title>
<path fill="none" stroke="midnightblue" d="M437.989,-280.444C375.569,-269.319 268.252,-250.193 214.959,-240.696"/>
<polygon fill="midnightblue" stroke="midnightblue" points="215.508,-237.239 205.049,-238.93 214.28,-244.13 215.508,-237.239"/>
</g>
<!-- Node30 -->
<g id="node30" class="node"><title>Node30</title>
<g id="a_node30"><a xlink:href="cuda__init_8hpp.html" target="_top" xlink:title="cuda_init.hpp">
<polygon fill="none" stroke="black" points="579,-168.5 579,-187.5 661,-187.5 661,-168.5 579,-168.5"/>
<text text-anchor="middle" x="620" y="-175.5" font-family="Helvetica,sans-Serif" font-size="10.00">cuda_init.hpp</text>
</a>
</g>
</g>
<!-- Node23&#45;&gt;Node30 -->
<g id="edge40" class="edge"><title>Node23&#45;&gt;Node30</title>
<path fill="none" stroke="midnightblue" d="M503.314,-280.485C519.148,-272.276 542.804,-258.929 561,-244 578.59,-229.568 595.73,-209.862 606.962,-195.942"/>
<polygon fill="midnightblue" stroke="midnightblue" points="609.986,-197.761 613.436,-187.744 604.492,-193.423 609.986,-197.761"/>
</g>
<!-- Node24&#45;&gt;Node6 -->
<g id="edge33" class="edge"><title>Node24&#45;&gt;Node6</title>
<path fill="none" stroke="midnightblue" d="M418,-224.083C418,-217.006 418,-206.861 418,-197.986"/>
<polygon fill="midnightblue" stroke="midnightblue" points="421.5,-197.751 418,-187.751 414.5,-197.751 421.5,-197.751"/>
</g>
<!-- Node25&#45;&gt;Node6 -->
<g id="edge35" class="edge"><title>Node25&#45;&gt;Node6</title>
<path fill="none" stroke="midnightblue" d="M497.737,-224.324C482.779,-215.822 459.745,-202.729 442.273,-192.797"/>
<polygon fill="midnightblue" stroke="midnightblue" points="443.649,-189.553 433.226,-187.655 440.19,-195.639 443.649,-189.553"/>
</g>
<!-- Node27 -->
<g id="node27" class="node"><title>Node27</title>
<polygon fill="none" stroke="#bfbfbf" points="191.5,-168.5 191.5,-187.5 244.5,-187.5 244.5,-168.5 191.5,-168.5"/>
<text text-anchor="middle" x="218" y="-175.5" font-family="Helvetica,sans-Serif" font-size="10.00">string.h</text>
</g>
<!-- Node26&#45;&gt;Node27 -->
<g id="edge37" class="edge"><title>Node26&#45;&gt;Node27</title>
<path fill="none" stroke="midnightblue" d="M188.78,-224.083C193.672,-216.534 200.827,-205.495 206.833,-196.23"/>
<polygon fill="midnightblue" stroke="midnightblue" points="209.826,-198.046 212.328,-187.751 203.952,-194.239 209.826,-198.046"/>
</g>
<!-- Node28 -->
<g id="node28" class="node"><title>Node28</title>
<polygon fill="none" stroke="#bfbfbf" points="263,-168.5 263,-187.5 313,-187.5 313,-168.5 263,-168.5"/>
<text text-anchor="middle" x="288" y="-175.5" font-family="Helvetica,sans-Serif" font-size="10.00">stdio.h</text>
</g>
<!-- Node26&#45;&gt;Node28 -->
<g id="edge38" class="edge"><title>Node26&#45;&gt;Node28</title>
<path fill="none" stroke="midnightblue" d="M199.87,-224.324C216.709,-215.664 242.807,-202.242 262.238,-192.249"/>
<polygon fill="midnightblue" stroke="midnightblue" points="263.88,-195.341 271.172,-187.655 260.678,-189.116 263.88,-195.341"/>
</g>
<!-- Node29 -->
<g id="node29" class="node"><title>Node29</title>
<polygon fill="none" stroke="#bfbfbf" points="120.5,-168.5 120.5,-187.5 173.5,-187.5 173.5,-168.5 120.5,-168.5"/>
<text text-anchor="middle" x="147" y="-175.5" font-family="Helvetica,sans-Serif" font-size="10.00">stdlib.h</text>
</g>
<!-- Node26&#45;&gt;Node29 -->
<g id="edge39" class="edge"><title>Node26&#45;&gt;Node29</title>
<path fill="none" stroke="midnightblue" d="M177.055,-224.083C172.023,-216.534 164.663,-205.495 158.487,-196.23"/>
<polygon fill="midnightblue" stroke="midnightblue" points="161.293,-194.13 152.834,-187.751 155.469,-198.013 161.293,-194.13"/>
</g>
<!-- Node30&#45;&gt;Node9 -->
<g id="edge41" class="edge"><title>Node30&#45;&gt;Node9</title>
<path fill="none" stroke="midnightblue" d="M630.107,-168.196C643.636,-155.32 664.559,-130.838 652,-112 637.67,-90.5053 610.923,-79.2613 587.634,-73.388"/>
<polygon fill="midnightblue" stroke="midnightblue" points="588.098,-69.9048 577.573,-71.1176 586.557,-76.7331 588.098,-69.9048"/>
</g>
<!-- Node30&#45;&gt;Node19 -->
<g id="edge42" class="edge"><title>Node30&#45;&gt;Node19</title>
<path fill="none" stroke="midnightblue" d="M620,-168.083C620,-161.006 620,-150.861 620,-141.986"/>
<polygon fill="midnightblue" stroke="midnightblue" points="623.5,-141.751 620,-131.751 616.5,-141.751 623.5,-141.751"/>
</g>
<!-- Node31&#45;&gt;Node5 -->
<g id="edge45" class="edge"><title>Node31&#45;&gt;Node5</title>
<path fill="none" stroke="midnightblue" d="M360.905,-336.14C367.368,-323.195 376.928,-298.627 368,-280 361.747,-266.954 349.664,-256.492 338.318,-248.951"/>
<polygon fill="midnightblue" stroke="midnightblue" points="339.854,-245.787 329.502,-243.535 336.191,-251.752 339.854,-245.787"/>
</g>
<!-- Node32 -->
<g id="node32" class="node"><title>Node32</title>
<g id="a_node32"><a xlink:href="ghosts_8hpp.html" target="_top" xlink:title="Ghost particles and particle exchange. ">
<polygon fill="none" stroke="black" points="205,-280.5 205,-299.5 275,-299.5 275,-280.5 205,-280.5"/>
<text text-anchor="middle" x="240" y="-287.5" font-family="Helvetica,sans-Serif" font-size="10.00">ghosts.hpp</text>
</a>
</g>
</g>
<!-- Node31&#45;&gt;Node32 -->
<g id="edge46" class="edge"><title>Node31&#45;&gt;Node32</title>
<path fill="none" stroke="midnightblue" d="M337.619,-336.444C318.784,-327.675 289.269,-313.935 267.621,-303.858"/>
<polygon fill="midnightblue" stroke="midnightblue" points="268.838,-300.564 258.295,-299.516 265.883,-306.91 268.838,-300.564"/>
</g>
<!-- Node33 -->
<g id="node33" class="node"><title>Node33</title>
<g id="a_node33"><a xlink:href="verlet_8hpp.html" target="_top" xlink:title="This file contains routines to setup and handle interaction pair lists (verlet pair lists) for the no...">
<polygon fill="none" stroke="black" points="293,-280.5 293,-299.5 359,-299.5 359,-280.5 293,-280.5"/>
<text text-anchor="middle" x="326" y="-287.5" font-family="Helvetica,sans-Serif" font-size="10.00">verlet.hpp</text>
</a>
</g>
</g>
<!-- Node31&#45;&gt;Node33 -->
<g id="edge49" class="edge"><title>Node31&#45;&gt;Node33</title>
<path fill="none" stroke="midnightblue" d="M351.046,-336.083C346.896,-328.613 340.847,-317.724 335.733,-308.52"/>
<polygon fill="midnightblue" stroke="midnightblue" points="338.778,-306.793 330.862,-299.751 332.659,-310.192 338.778,-306.793"/>
</g>
<!-- Node32&#45;&gt;Node5 -->
<g id="edge48" class="edge"><title>Node32&#45;&gt;Node5</title>
<path fill="none" stroke="midnightblue" d="M251.568,-280.324C262.42,-272.185 278.881,-259.839 291.883,-250.087"/>
<polygon fill="midnightblue" stroke="midnightblue" points="294.321,-252.634 300.221,-243.834 290.121,-247.034 294.321,-252.634"/>
</g>
<!-- Node32&#45;&gt;Node26 -->
<g id="edge47" class="edge"><title>Node32&#45;&gt;Node26</title>
<path fill="none" stroke="midnightblue" d="M230.842,-280.324C222.499,-272.42 209.968,-260.548 199.823,-250.938"/>
<polygon fill="midnightblue" stroke="midnightblue" points="201.991,-248.171 192.325,-243.834 197.177,-253.252 201.991,-248.171"/>
</g>
<!-- Node33&#45;&gt;Node5 -->
<g id="edge50" class="edge"><title>Node33&#45;&gt;Node5</title>
<path fill="none" stroke="midnightblue" d="M323.688,-280.083C321.833,-272.927 319.165,-262.635 316.846,-253.691"/>
<polygon fill="midnightblue" stroke="midnightblue" points="320.166,-252.553 314.269,-243.751 313.391,-254.309 320.166,-252.553"/>
</g>
</g>
</svg>
        <g id="navigator" transform="translate(0 0)" fill="#404254">
                <rect fill="#f2f5e9" fill-opacity="0.5" stroke="#606060" stroke-width=".5" x="0" y="0" width="60" height="60"/>
                <use id="zoomplus" xlink:href="#zoomPlus" x="17" y="9" onmousedown="handleZoom(evt,'in')"/>
                <use id="zoomminus" xlink:href="#zoomMin" x="42" y="9" onmousedown="handleZoom(evt,'out')"/>
                <use id="reset" xlink:href="#resetDef" x="30" y="36" onmousedown="handleReset()"/>
                <g id="arrowUp" xlink:href="#dirArrow" transform="translate(30 24)" onmousedown="handlePan(0,-1)">
                  <use xlink:href="#rim" fill="#404040">
                        <set attributeName="fill" to="#808080" begin="arrowUp.mouseover" end="arrowUp.mouseout"/>
                  </use>
                  <path fill="none" stroke="white" stroke-width="1.5" d="M0,-3.0v7 M-2.5,-0.5L0,-3.0L2.5,-0.5"/>
                </g>
                <g id="arrowRight" xlink:href="#dirArrow" transform="rotate(90) translate(36 -43)" onmousedown="handlePan(1,0)">
                  <use xlink:href="#rim" fill="#404040">
                        <set attributeName="fill" to="#808080" begin="arrowRight.mouseover" end="arrowRight.mouseout"/>
                  </use>
                  <path fill="none" stroke="white" stroke-width="1.5" d="M0,-3.0v7 M-2.5,-0.5L0,-3.0L2.5,-0.5"/>
                </g>
                <g id="arrowDown" xlink:href="#dirArrow" transform="rotate(180) translate(-30 -48)" onmousedown="handlePan(0,1)">
                  <use xlink:href="#rim" fill="#404040">
                        <set attributeName="fill" to="#808080" begin="arrowDown.mouseover" end="arrowDown.mouseout"/>
                  </use>
                  <path fill="none" stroke="white" stroke-width="1.5" d="M0,-3.0v7 M-2.5,-0.5L0,-3.0L2.5,-0.5"/>
                </g>
                <g id="arrowLeft" xlink:href="#dirArrow" transform="rotate(270) translate(-36 17)" onmousedown="handlePan(-1,0)">
                  <use xlink:href="#rim" fill="#404040">
                        <set attributeName="fill" to="#808080" begin="arrowLeft.mouseover" end="arrowLeft.mouseout"/>
                  </use>
                  <path fill="none" stroke="white" stroke-width="1.5" d="M0,-3.0v7 M-2.5,-0.5L0,-3.0L2.5,-0.5"/>
                </g>
        </g>
        <svg viewBox="0 0 15 15" width="100%" height="30px" preserveAspectRatio="xMaxYMin meet">
         <g id="arrow_out" transform="scale(0.3 0.3)">
          <a xlink:href="metadynamics_8cpp__incl_org.svg" target="_base">
           <rect id="button" ry="5" rx="5" y="6" x="6" height="38" width="38"
                fill="#f2f5e9" fill-opacity="0.5" stroke="#606060" stroke-width="1.0"/>
           <path id="arrow"
             d="M 11.500037,31.436501 C 11.940474,20.09759 22.043105,11.32322 32.158766,21.979434 L 37.068811,17.246167 C 37.068811,17.246167 37.088388,32 37.088388,32 L 22.160133,31.978069 C 22.160133,31.978069 26.997745,27.140456 26.997745,27.140456 C 18.528582,18.264221 13.291696,25.230495 11.500037,31.436501 z"
             style="fill:#404040;"/>
          </a>
         </g>
        </svg>
</svg>
