<?xml version="1.0" encoding="UTF-8" standalone="no"?>
<!DOCTYPE svg PUBLIC "-//W3C//DTD SVG 1.1//EN"
 "http://www.w3.org/Graphics/SVG/1.1/DTD/svg11.dtd">
<!-- Generated by graphviz version 2.38.0 (20140413.2041)
 -->
<!-- Title: metadynamics.hpp Pages: 1 -->
<svg width="816pt" height="308pt"
 viewBox="0.00 0.00 816.00 308.00" xmlns="http://www.w3.org/2000/svg" xmlns:xlink="http://www.w3.org/1999/xlink">
<g id="graph0" class="graph" transform="scale(1 1) rotate(0) translate(4 304)">
<title>metadynamics.hpp</title>
<!-- Node1 -->
<g id="node1" class="node"><title>Node1</title>
<polygon fill="#bfbfbf" stroke="black" points="64,-280.5 64,-299.5 174,-299.5 174,-280.5 64,-280.5"/>
<text text-anchor="middle" x="119" y="-287.5" font-family="Helvetica,sans-Serif" font-size="10.00">metadynamics.hpp</text>
</g>
<!-- Node2 -->
<g id="node2" class="node"><title>Node2</title>
<polygon fill="none" stroke="#bfbfbf" points="0,-112.5 0,-131.5 50,-131.5 50,-112.5 0,-112.5"/>
<text text-anchor="middle" x="25" y="-119.5" font-family="Helvetica,sans-Serif" font-size="10.00">cstring</text>
</g>
<!-- Node1&#45;&gt;Node2 -->
<g id="edge1" class="edge"><title>Node1&#45;&gt;Node2</title>
<path fill="none" stroke="midnightblue" d="M113.946,-280.075C99.0216,-253.719 54.943,-175.878 35.0007,-140.661"/>
<polygon fill="midnightblue" stroke="midnightblue" points="37.825,-138.545 29.8518,-131.568 31.7337,-141.994 37.825,-138.545"/>
</g>
<!-- Node3 -->
<g id="node3" class="node"><title>Node3</title>
<polygon fill="none" stroke="#bfbfbf" points="68.5,-112.5 68.5,-131.5 115.5,-131.5 115.5,-112.5 68.5,-112.5"/>
<text text-anchor="middle" x="92" y="-119.5" font-family="Helvetica,sans-Serif" font-size="10.00">cmath</text>
</g>
<!-- Node1&#45;&gt;Node3 -->
<g id="edge2" class="edge"><title>Node1&#45;&gt;Node3</title>
<path fill="none" stroke="midnightblue" d="M117.548,-280.075C113.298,-253.945 100.817,-177.211 95.0216,-141.577"/>
<polygon fill="midnightblue" stroke="midnightblue" points="98.4537,-140.876 93.3936,-131.568 91.5445,-142 98.4537,-140.876"/>
</g>
<!-- Node4 -->
<g id="node4" class="node"><title>Node4</title>
<g id="a_node4"><a xlink:href="particle__data_8hpp.html" target="_top" xlink:title="For more information on particle_data, see particle_data.c. ">
<polygon fill="none" stroke="black" points="177.5,-224.5 177.5,-243.5 278.5,-243.5 278.5,-224.5 177.5,-224.5"/>
<text text-anchor="middle" x="228" y="-231.5" font-family="Helvetica,sans-Serif" font-size="10.00">particle_data.hpp</text>
</a>
</g>
</g>
<!-- Node1&#45;&gt;Node4 -->
<g id="edge3" class="edge"><title>Node1&#45;&gt;Node4</title>
<path fill="none" stroke="midnightblue" d="M136.513,-280.324C154.072,-271.625 181.331,-258.12 201.531,-248.113"/>
<polygon fill="midnightblue" stroke="midnightblue" points="203.124,-251.23 210.531,-243.655 200.016,-244.958 203.124,-251.23"/>
</g>
<!-- Node5 -->
<g id="node5" class="node"><title>Node5</title>
<g id="a_node5"><a xlink:href="utils_8hpp.html" target="_top" xlink:title="Small functions that are useful not only for one modul. ">
<polygon fill="none" stroke="black" points="238.5,-168.5 238.5,-187.5 297.5,-187.5 297.5,-168.5 238.5,-168.5"/>
<text text-anchor="middle" x="268" y="-175.5" font-family="Helvetica,sans-Serif" font-size="10.00">utils.hpp</text>
</a>
</g>
</g>
<!-- Node1&#45;&gt;Node5 -->
<g id="edge24" class="edge"><title>Node1&#45;&gt;Node5</title>
<path fill="none" stroke="midnightblue" d="M123.626,-280.318C131.257,-266.706 147.681,-240.226 168,-224 186.199,-209.467 209.84,-198.548 229.566,-191.107"/>
<polygon fill="midnightblue" stroke="midnightblue" points="230.968,-194.323 239.184,-187.633 228.589,-187.739 230.968,-194.323"/>
</g>
<!-- Node4&#45;&gt;Node5 -->
<g id="edge4" class="edge"><title>Node4&#45;&gt;Node5</title>
<path fill="none" stroke="midnightblue" d="M234.605,-224.083C240.255,-216.455 248.545,-205.264 255.451,-195.941"/>
<polygon fill="midnightblue" stroke="midnightblue" points="258.378,-197.87 261.518,-187.751 252.753,-193.703 258.378,-197.87"/>
</g>
<!-- Node5&#45;&gt;Node2 -->
<g id="edge8" class="edge"><title>Node5&#45;&gt;Node2</title>
<path fill="none" stroke="midnightblue" d="M238.482,-171.097C199.735,-163.25 129.39,-148.667 59.9995,-132.157"/>
<polygon fill="midnightblue" stroke="midnightblue" points="60.7579,-128.74 50.2178,-129.815 59.128,-135.548 60.7579,-128.74"/>
</g>
<!-- Node5&#45;&gt;Node3 -->
<g id="edge5" class="edge"><title>Node5&#45;&gt;Node3</title>
<path fill="none" stroke="midnightblue" d="M240.112,-168.444C208.929,-158.876 158.454,-143.389 125.245,-133.2"/>
<polygon fill="midnightblue" stroke="midnightblue" points="126.12,-129.808 115.533,-130.22 124.066,-136.5 126.12,-129.808"/>
</g>
<!-- Node6 -->
<g id="node6" class="node"><title>Node6</title>
<polygon fill="none" stroke="#bfbfbf" points="282,-112.5 282,-131.5 328,-131.5 328,-112.5 282,-112.5"/>
<text text-anchor="middle" x="305" y="-119.5" font-family="Helvetica,sans-Serif" font-size="10.00">cstdio</text>
</g>
<!-- Node5&#45;&gt;Node6 -->
<g id="edge6" class="edge"><title>Node5&#45;&gt;Node6</title>
<path fill="none" stroke="midnightblue" d="M274.11,-168.083C279.282,-160.534 286.846,-149.495 293.194,-140.23"/>
<polygon fill="midnightblue" stroke="midnightblue" points="296.239,-141.979 299.004,-131.751 290.464,-138.022 296.239,-141.979"/>
</g>
<!-- Node7 -->
<g id="node7" class="node"><title>Node7</title>
<polygon fill="none" stroke="#bfbfbf" points="346.5,-112.5 346.5,-131.5 395.5,-131.5 395.5,-112.5 346.5,-112.5"/>
<text text-anchor="middle" x="371" y="-119.5" font-family="Helvetica,sans-Serif" font-size="10.00">cstdlib</text>
</g>
<!-- Node5&#45;&gt;Node7 -->
<g id="edge7" class="edge"><title>Node5&#45;&gt;Node7</title>
<path fill="none" stroke="midnightblue" d="M284.549,-168.324C300.992,-159.703 326.435,-146.364 345.468,-136.386"/>
<polygon fill="midnightblue" stroke="midnightblue" points="347.261,-139.398 354.492,-131.655 344.011,-133.198 347.261,-139.398"/>
</g>
<!-- Node8 -->
<g id="node8" class="node"><title>Node8</title>
<g id="a_node8"><a xlink:href="config_8hpp.html" target="_top" xlink:title="This file contains the defaults for Espresso. ">
<polygon fill="none" stroke="black" points="503.5,-56.5 503.5,-75.5 570.5,-75.5 570.5,-56.5 503.5,-56.5"/>
<text text-anchor="middle" x="537" y="-63.5" font-family="Helvetica,sans-Serif" font-size="10.00">config.hpp</text>
</a>
</g>
</g>
<!-- Node5&#45;&gt;Node8 -->
<g id="edge9" class="edge"><title>Node5&#45;&gt;Node8</title>
<path fill="none" stroke="midnightblue" d="M297.652,-168.82C325.759,-160.703 368.927,-147.291 405,-132 422.572,-124.552 425.945,-120.566 443,-112 465.167,-100.866 490.551,-88.7508 509.349,-79.8989"/>
<polygon fill="midnightblue" stroke="midnightblue" points="510.963,-83.0081 518.527,-75.5899 507.988,-76.6717 510.963,-83.0081"/>
</g>
<!-- Node12 -->
<g id="node12" class="node"><title>Node12</title>
<g id="a_node12"><a xlink:href="debug_8hpp.html" target="_top" xlink:title="This file controls debug facilities. ">
<polygon fill="none" stroke="black" points="452,-112.5 452,-131.5 520,-131.5 520,-112.5 452,-112.5"/>
<text text-anchor="middle" x="486" y="-119.5" font-family="Helvetica,sans-Serif" font-size="10.00">debug.hpp</text>
</a>
</g>
</g>
<!-- Node5&#45;&gt;Node12 -->
<g id="edge13" class="edge"><title>Node5&#45;&gt;Node12</title>
<path fill="none" stroke="midnightblue" d="M297.855,-169.605C335.1,-160.379 399.093,-144.527 441.969,-133.907"/>
<polygon fill="midnightblue" stroke="midnightblue" points="442.984,-137.261 451.849,-131.46 441.3,-130.467 442.984,-137.261"/>
</g>
<!-- Node13 -->
<g id="node13" class="node"><title>Node13</title>
<g id="a_node13"><a xlink:href="lees__edwards_8hpp.html" target="_top" xlink:title="lees_edwards.hpp">
<polygon fill="none" stroke="black" points="538,-112.5 538,-131.5 642,-131.5 642,-112.5 538,-112.5"/>
<text text-anchor="middle" x="590" y="-119.5" font-family="Helvetica,sans-Serif" font-size="10.00">lees_edwards.hpp</text>
</a>
</g>
</g>
<!-- Node5&#45;&gt;Node13 -->
<g id="edge15" class="edge"><title>Node5&#45;&gt;Node13</title>
<path fill="none" stroke="midnightblue" d="M297.716,-172.017C350.173,-163.219 460.163,-144.774 529.249,-133.188"/>
<polygon fill="midnightblue" stroke="midnightblue" points="529.85,-136.636 539.134,-131.53 528.692,-129.733 529.85,-136.636"/>
</g>
<!-- Node14 -->
<g id="node14" class="node"><title>Node14</title>
<g id="a_node14"><a xlink:href="errorhandling_8hpp.html" target="_top" xlink:title="This file contains the errorhandling code for severe errors, like a broken bond or illegal parameter ...">
<polygon fill="none" stroke="black" points="660.5,-112.5 660.5,-131.5 763.5,-131.5 763.5,-112.5 660.5,-112.5"/>
<text text-anchor="middle" x="712" y="-119.5" font-family="Helvetica,sans-Serif" font-size="10.00">errorhandling.hpp</text>
</a>
</g>
</g>
<!-- Node5&#45;&gt;Node14 -->
<g id="edge17" class="edge"><title>Node5&#45;&gt;Node14</title>
<path fill="none" stroke="midnightblue" d="M297.834,-173.798C360.829,-166.972 512.267,-150.22 650.502,-132.03"/>
<polygon fill="midnightblue" stroke="midnightblue" points="650.975,-135.498 660.43,-130.718 650.058,-128.558 650.975,-135.498"/>
</g>
<!-- Node18 -->
<g id="node18" class="node"><title>Node18</title>
<polygon fill="none" stroke="#bfbfbf" points="133.5,-112.5 133.5,-131.5 180.5,-131.5 180.5,-112.5 133.5,-112.5"/>
<text text-anchor="middle" x="157" y="-119.5" font-family="Helvetica,sans-Serif" font-size="10.00">vector</text>
</g>
<!-- Node5&#45;&gt;Node18 -->
<g id="edge22" class="edge"><title>Node5&#45;&gt;Node18</title>
<path fill="none" stroke="midnightblue" d="M250.166,-168.324C232.284,-159.625 204.525,-146.12 183.954,-136.113"/>
<polygon fill="midnightblue" stroke="midnightblue" points="185.313,-132.882 174.79,-131.655 182.251,-139.177 185.313,-132.882"/>
</g>
<!-- Node19 -->
<g id="node19" class="node"><title>Node19</title>
<polygon fill="none" stroke="#bfbfbf" points="198.5,-112.5 198.5,-131.5 263.5,-131.5 263.5,-112.5 198.5,-112.5"/>
<text text-anchor="middle" x="231" y="-119.5" font-family="Helvetica,sans-Serif" font-size="10.00">exception</text>
</g>
<!-- Node5&#45;&gt;Node19 -->
<g id="edge23" class="edge"><title>Node5&#45;&gt;Node19</title>
<path fill="none" stroke="midnightblue" d="M261.89,-168.083C256.718,-160.534 249.154,-149.495 242.806,-140.23"/>
<polygon fill="midnightblue" stroke="midnightblue" points="245.536,-138.022 236.996,-131.751 239.761,-141.979 245.536,-138.022"/>
</g>
<!-- Node9 -->
<g id="node9" class="node"><title>Node9</title>
<g id="a_node9"><a xlink:href="acconfig_8hpp.html" target="_top" xlink:title="acconfig.hpp">
<polygon fill="none" stroke="black" points="387,-0.5 387,-19.5 465,-19.5 465,-0.5 387,-0.5"/>
<text text-anchor="middle" x="426" y="-7.5" font-family="Helvetica,sans-Serif" font-size="10.00">acconfig.hpp</text>
</a>
</g>
</g>
<!-- Node8&#45;&gt;Node9 -->
<g id="edge10" class="edge"><title>Node8&#45;&gt;Node9</title>
<path fill="none" stroke="midnightblue" d="M519.166,-56.324C501.284,-47.6247 473.525,-34.1202 452.954,-24.113"/>
<polygon fill="midnightblue" stroke="midnightblue" points="454.313,-20.8819 443.79,-19.6545 451.251,-27.1765 454.313,-20.8819"/>
</g>
<!-- Node10 -->
<g id="node10" class="node"><title>Node10</title>
<g id="a_node10"><a xlink:href="myconfig-final_8hpp.html" target="_top" xlink:title="myconfig&#45;final.hpp">
<polygon fill="none" stroke="black" points="483.5,-0.5 483.5,-19.5 590.5,-19.5 590.5,-0.5 483.5,-0.5"/>
<text text-anchor="middle" x="537" y="-7.5" font-family="Helvetica,sans-Serif" font-size="10.00">myconfig&#45;final.hpp</text>
</a>
</g>
</g>
<!-- Node8&#45;&gt;Node10 -->
<g id="edge11" class="edge"><title>Node8&#45;&gt;Node10</title>
<path fill="none" stroke="midnightblue" d="M537,-56.083C537,-49.0059 537,-38.8611 537,-29.9865"/>
<polygon fill="midnightblue" stroke="midnightblue" points="540.5,-29.751 537,-19.7511 533.5,-29.7511 540.5,-29.751"/>
</g>
<!-- Node11 -->
<g id="node11" class="node"><title>Node11</title>
<g id="a_node11"><a xlink:href="config-features_8hpp.html" target="_top" xlink:title="config&#45;features.hpp">
<polygon fill="none" stroke="black" points="608.5,-0.5 608.5,-19.5 719.5,-19.5 719.5,-0.5 608.5,-0.5"/>
<text text-anchor="middle" x="664" y="-7.5" font-family="Helvetica,sans-Serif" font-size="10.00">config&#45;features.hpp</text>
</a>
</g>
</g>
<!-- Node8&#45;&gt;Node11 -->
<g id="edge12" class="edge"><title>Node8&#45;&gt;Node11</title>
<path fill="none" stroke="midnightblue" d="M557.124,-56.4435C578.024,-47.5566 610.935,-33.5632 634.716,-23.4514"/>
<polygon fill="midnightblue" stroke="midnightblue" points="636.138,-26.6504 643.971,-19.5164 633.398,-20.2085 636.138,-26.6504"/>
</g>
<!-- Node12&#45;&gt;Node8 -->
<g id="edge14" class="edge"><title>Node12&#45;&gt;Node8</title>
<path fill="none" stroke="midnightblue" d="M494.422,-112.083C501.848,-104.22 512.852,-92.5688 521.812,-83.0813"/>
<polygon fill="midnightblue" stroke="midnightblue" points="524.413,-85.4244 528.735,-75.7511 519.324,-80.618 524.413,-85.4244"/>
</g>
<!-- Node13&#45;&gt;Node8 -->
<g id="edge16" class="edge"><title>Node13&#45;&gt;Node8</title>
<path fill="none" stroke="midnightblue" d="M581.248,-112.083C573.53,-104.22 562.095,-92.5688 552.783,-83.0813"/>
<polygon fill="midnightblue" stroke="midnightblue" points="555.092,-80.4363 545.589,-75.7511 550.096,-85.3396 555.092,-80.4363"/>
</g>
<!-- Node14&#45;&gt;Node8 -->
<g id="edge18" class="edge"><title>Node14&#45;&gt;Node8</title>
<path fill="none" stroke="midnightblue" d="M684.271,-112.444C654.574,-103.28 607.284,-88.6876 574.331,-78.5192"/>
<polygon fill="midnightblue" stroke="midnightblue" points="575.187,-75.1206 564.6,-75.5164 573.123,-81.8094 575.187,-75.1206"/>
</g>
<!-- Node15 -->
<g id="node15" class="node"><title>Node15</title>
<polygon fill="none" stroke="#bfbfbf" points="690,-56.5 690,-75.5 734,-75.5 734,-56.5 690,-56.5"/>
<text text-anchor="middle" x="712" y="-63.5" font-family="Helvetica,sans-Serif" font-size="10.00">string</text>
</g>
<!-- Node14&#45;&gt;Node15 -->
<g id="edge19" class="edge"><title>Node14&#45;&gt;Node15</title>
<path fill="none" stroke="midnightblue" d="M712,-112.083C712,-105.006 712,-94.8611 712,-85.9865"/>
<polygon fill="midnightblue" stroke="midnightblue" points="715.5,-85.751 712,-75.7511 708.5,-85.7511 715.5,-85.751"/>
</g>
<!-- Node16 -->
<g id="node16" class="node"><title>Node16</title>
<polygon fill="none" stroke="#bfbfbf" points="752,-56.5 752,-75.5 808,-75.5 808,-56.5 752,-56.5"/>
<text text-anchor="middle" x="780" y="-63.5" font-family="Helvetica,sans-Serif" font-size="10.00">sstream</text>
</g>
<!-- Node14&#45;&gt;Node16 -->
<g id="edge20" class="edge"><title>Node14&#45;&gt;Node16</title>
<path fill="none" stroke="midnightblue" d="M722.925,-112.324C733.175,-104.185 748.721,-91.8395 761.001,-82.0874"/>
<polygon fill="midnightblue" stroke="midnightblue" points="763.221,-84.7937 768.876,-75.8339 758.868,-79.3119 763.221,-84.7937"/>
</g>
<!-- Node17 -->
<g id="node17" class="node"><title>Node17</title>
<polygon fill="none" stroke="#bfbfbf" points="640,-56.5 640,-75.5 672,-75.5 672,-56.5 640,-56.5"/>
<text text-anchor="middle" x="656" y="-63.5" font-family="Helvetica,sans-Serif" font-size="10.00">list</text>
</g>
<!-- Node14&#45;&gt;Node17 -->
<g id="edge21" class="edge"><title>Node14&#45;&gt;Node17</title>
<path fill="none" stroke="midnightblue" d="M703.003,-112.324C694.806,-104.42 682.494,-92.5482 672.528,-82.9377"/>
<polygon fill="midnightblue" stroke="midnightblue" points="674.789,-80.2558 665.161,-75.8339 669.93,-85.2947 674.789,-80.2558"/>
</g>
</g>
</svg>
