<?xml version="1.0" encoding="UTF-8" standalone="no"?>
<!DOCTYPE svg PUBLIC "-//W3C//DTD SVG 1.1//EN"
 "http://www.w3.org/Graphics/SVG/1.1/DTD/svg11.dtd">
<!-- Generated by graphviz version 2.38.0 (20140413.2041)
 -->
<!-- Title: mmm&#45;common_cuda.hpp Pages: 1 -->
<!--zoomable 364 -->
<svg id="main" version="1.1" xmlns="http://www.w3.org/2000/svg" xmlns:xlink="http://www.w3.org/1999/xlink" xml:space="preserve" onload="init(evt)">
<style type="text/css"><![CDATA[
.edge:hover path { stroke: red; }
.edge:hover polygon { stroke: red; fill: red; }
]]></style>
<script type="text/javascript"><![CDATA[
var edges = document.getElementsByTagName('g');
if (edges && edges.length) {
  for (var i=0;i<edges.length;i++) {
    if (edges[i].id.substr(0,4)=='edge') {
      edges[i].setAttribute('class','edge');
    }
  }
}
]]></script>
        <defs>
                <circle id="rim" cx="0" cy="0" r="7"/>
                <circle id="rim2" cx="0" cy="0" r="3.5"/>
                <g id="zoomPlus">
                        <use xlink:href="#rim" fill="#404040">
                                <set attributeName="fill" to="#808080" begin="zoomplus.mouseover" end="zoomplus.mouseout"/>
                        </use>
                        <path d="M-4,0h8M0,-4v8" fill="none" stroke="white" stroke-width="1.5" pointer-events="none"/>
                </g>
                <g id="zoomMin">
                        <use xlink:href="#rim" fill="#404040">
                                <set attributeName="fill" to="#808080" begin="zoomminus.mouseover" end="zoomminus.mouseout"/>
                        </use>
                        <path d="M-4,0h8" fill="none" stroke="white" stroke-width="1.5" pointer-events="none"/>
                </g>
                <g id="dirArrow">
                        <path fill="none" stroke="white" stroke-width="1.5" d="M0,-3.0v7 M-2.5,-0.5L0,-3.0L2.5,-0.5"/>
                </g>
               <g id="resetDef">
                       <use xlink:href="#rim2" fill="#404040">
                               <set attributeName="fill" to="#808080" begin="reset.mouseover" end="reset.mouseout"/>
                       </use>
               </g>
        </defs>

<script type="text/javascript">
var viewWidth = 853;
var viewHeight = 364;
var sectionId = 'dynsection-0';
</script>
<script xlink:href="svgpan.js"/>
<svg id="graph" class="graph">
<g id="viewport">
<title>mmm&#45;common_cuda.hpp</title>
<!-- Node1 -->
<g id="node1" class="node"><title>Node1</title>
<polygon fill="#bfbfbf" stroke="black" points="130,-336.5 130,-355.5 272,-355.5 272,-336.5 130,-336.5"/>
<text text-anchor="middle" x="201" y="-343.5" font-family="Helvetica,sans-Serif" font-size="10.00">mmm&#45;common_cuda.hpp</text>
</g>
<!-- Node2 -->
<g id="node2" class="node"><title>Node2</title>
<g id="a_node2"><a xlink:href="mmm-common_8hpp.html" target="_top" xlink:title="modified polygamma functions. ">
<polygon fill="none" stroke="black" points="144.5,-280.5 144.5,-299.5 257.5,-299.5 257.5,-280.5 144.5,-280.5"/>
<text text-anchor="middle" x="201" y="-287.5" font-family="Helvetica,sans-Serif" font-size="10.00">mmm&#45;common.hpp</text>
</a>
</g>
</g>
<!-- Node1&#45;&gt;Node2 -->
<g id="edge1" class="edge"><title>Node1&#45;&gt;Node2</title>
<path fill="none" stroke="midnightblue" d="M201,-336.083C201,-329.006 201,-318.861 201,-309.986"/>
<polygon fill="midnightblue" stroke="midnightblue" points="204.5,-309.751 201,-299.751 197.5,-309.751 204.5,-309.751"/>
</g>
<!-- Node22 -->
<g id="node22" class="node"><title>Node22</title>
<g id="a_node22"><a xlink:href="specfunc__cuda_8hpp.html" target="_top" xlink:title="specfunc_cuda.hpp">
<polygon fill="none" stroke="black" points="0,-168.5 0,-187.5 110,-187.5 110,-168.5 0,-168.5"/>
<text text-anchor="middle" x="55" y="-175.5" font-family="Helvetica,sans-Serif" font-size="10.00">specfunc_cuda.hpp</text>
</a>
</g>
</g>
<!-- Node1&#45;&gt;Node22 -->
<g id="edge24" class="edge"><title>Node1&#45;&gt;Node22</title>
<path fill="none" stroke="midnightblue" d="M184.779,-336.346C170.562,-328.233 149.896,-315.11 135,-300 103.456,-268.003 77.0221,-221.833 63.8975,-196.787"/>
<polygon fill="midnightblue" stroke="midnightblue" points="66.9302,-195.031 59.2521,-187.73 60.7018,-198.225 66.9302,-195.031"/>
</g>
<!-- Node23 -->
<g id="node23" class="node"><title>Node23</title>
<g id="a_node23"><a xlink:href="cuda__utils_8hpp.html" target="_top" xlink:title="cuda_utils.hpp">
<polygon fill="none" stroke="black" points="335.5,-280.5 335.5,-299.5 422.5,-299.5 422.5,-280.5 335.5,-280.5"/>
<text text-anchor="middle" x="379" y="-287.5" font-family="Helvetica,sans-Serif" font-size="10.00">cuda_utils.hpp</text>
</a>
</g>
</g>
<!-- Node1&#45;&gt;Node23 -->
<g id="edge26" class="edge"><title>Node1&#45;&gt;Node23</title>
<path fill="none" stroke="midnightblue" d="M229.205,-336.444C259.41,-327.28 307.511,-312.688 341.029,-302.519"/>
<polygon fill="midnightblue" stroke="midnightblue" points="342.374,-305.769 350.927,-299.516 340.342,-299.07 342.374,-305.769"/>
</g>
<!-- Node3 -->
<g id="node3" class="node"><title>Node3</title>
<g id="a_node3"><a xlink:href="polynom_8hpp.html" target="_top" xlink:title="Datatypes and functions for polynomials. ">
<polygon fill="none" stroke="black" points="235,-224.5 235,-243.5 315,-243.5 315,-224.5 235,-224.5"/>
<text text-anchor="middle" x="275" y="-231.5" font-family="Helvetica,sans-Serif" font-size="10.00">polynom.hpp</text>
</a>
</g>
</g>
<!-- Node2&#45;&gt;Node3 -->
<g id="edge2" class="edge"><title>Node2&#45;&gt;Node3</title>
<path fill="none" stroke="midnightblue" d="M212.889,-280.324C224.15,-272.107 241.287,-259.602 254.709,-249.807"/>
<polygon fill="midnightblue" stroke="midnightblue" points="256.88,-252.556 262.894,-243.834 252.753,-246.901 256.88,-252.556"/>
</g>
<!-- Node21 -->
<g id="node21" class="node"><title>Node21</title>
<g id="a_node21"><a xlink:href="specfunc_8hpp.html" target="_top" xlink:title="This file contains implementations for some special functions which are needed by the MMM family of a...">
<polygon fill="none" stroke="black" points="135.5,-224.5 135.5,-243.5 216.5,-243.5 216.5,-224.5 135.5,-224.5"/>
<text text-anchor="middle" x="176" y="-231.5" font-family="Helvetica,sans-Serif" font-size="10.00">specfunc.hpp</text>
</a>
</g>
</g>
<!-- Node2&#45;&gt;Node21 -->
<g id="edge23" class="edge"><title>Node2&#45;&gt;Node21</title>
<path fill="none" stroke="midnightblue" d="M196.872,-280.083C193.486,-272.77 188.584,-262.181 184.381,-253.103"/>
<polygon fill="midnightblue" stroke="midnightblue" points="187.429,-251.355 180.051,-243.751 181.077,-254.296 187.429,-251.355"/>
</g>
<!-- Node4 -->
<g id="node4" class="node"><title>Node4</title>
<g id="a_node4"><a xlink:href="utils_8hpp.html" target="_top" xlink:title="Small functions that are useful not only for one modul. ">
<polygon fill="none" stroke="black" points="298.5,-168.5 298.5,-187.5 357.5,-187.5 357.5,-168.5 298.5,-168.5"/>
<text text-anchor="middle" x="328" y="-175.5" font-family="Helvetica,sans-Serif" font-size="10.00">utils.hpp</text>
</a>
</g>
</g>
<!-- Node3&#45;&gt;Node4 -->
<g id="edge3" class="edge"><title>Node3&#45;&gt;Node4</title>
<path fill="none" stroke="midnightblue" d="M283.752,-224.083C291.47,-216.22 302.905,-204.569 312.217,-195.081"/>
<polygon fill="midnightblue" stroke="midnightblue" points="314.904,-197.34 319.411,-187.751 309.908,-192.436 314.904,-197.34"/>
</g>
<!-- Node5 -->
<g id="node5" class="node"><title>Node5</title>
<polygon fill="none" stroke="#bfbfbf" points="650.5,-112.5 650.5,-131.5 697.5,-131.5 697.5,-112.5 650.5,-112.5"/>
<text text-anchor="middle" x="674" y="-119.5" font-family="Helvetica,sans-Serif" font-size="10.00">cmath</text>
</g>
<!-- Node4&#45;&gt;Node5 -->
<g id="edge4" class="edge"><title>Node4&#45;&gt;Node5</title>
<path fill="none" stroke="midnightblue" d="M357.665,-174.068C412.009,-168.414 531.289,-154.697 640.465,-132.105"/>
<polygon fill="midnightblue" stroke="midnightblue" points="641.254,-135.516 650.321,-130.035 639.815,-128.665 641.254,-135.516"/>
</g>
<!-- Node6 -->
<g id="node6" class="node"><title>Node6</title>
<polygon fill="none" stroke="#bfbfbf" points="56,-112.5 56,-131.5 102,-131.5 102,-112.5 56,-112.5"/>
<text text-anchor="middle" x="79" y="-119.5" font-family="Helvetica,sans-Serif" font-size="10.00">cstdio</text>
</g>
<!-- Node4&#45;&gt;Node6 -->
<g id="edge5" class="edge"><title>Node4&#45;&gt;Node6</title>
<path fill="none" stroke="midnightblue" d="M298.371,-171.534C258.256,-163.987 184.248,-149.545 111.771,-132.055"/>
<polygon fill="midnightblue" stroke="midnightblue" points="112.566,-128.647 102.021,-129.682 110.91,-135.448 112.566,-128.647"/>
</g>
<!-- Node7 -->
<g id="node7" class="node"><title>Node7</title>
<polygon fill="none" stroke="#bfbfbf" points="120.5,-112.5 120.5,-131.5 169.5,-131.5 169.5,-112.5 120.5,-112.5"/>
<text text-anchor="middle" x="145" y="-119.5" font-family="Helvetica,sans-Serif" font-size="10.00">cstdlib</text>
</g>
<!-- Node4&#45;&gt;Node7 -->
<g id="edge6" class="edge"><title>Node4&#45;&gt;Node7</title>
<path fill="none" stroke="midnightblue" d="M299.003,-168.444C266.531,-158.862 213.942,-143.344 179.414,-133.155"/>
<polygon fill="midnightblue" stroke="midnightblue" points="180.335,-129.778 169.753,-130.304 178.354,-136.491 180.335,-129.778"/>
</g>
<!-- Node8 -->
<g id="node8" class="node"><title>Node8</title>
<polygon fill="none" stroke="#bfbfbf" points="188,-112.5 188,-131.5 238,-131.5 238,-112.5 188,-112.5"/>
<text text-anchor="middle" x="213" y="-119.5" font-family="Helvetica,sans-Serif" font-size="10.00">cstring</text>
</g>
<!-- Node4&#45;&gt;Node8 -->
<g id="edge7" class="edge"><title>Node4&#45;&gt;Node8</title>
<path fill="none" stroke="midnightblue" d="M309.778,-168.444C291.104,-159.675 261.844,-145.935 240.383,-135.858"/>
<polygon fill="midnightblue" stroke="midnightblue" points="241.676,-132.599 231.137,-131.516 238.701,-138.935 241.676,-132.599"/>
</g>
<!-- Node9 -->
<g id="node9" class="node"><title>Node9</title>
<g id="a_node9"><a xlink:href="config_8hpp.html" target="_top" xlink:title="This file contains the defaults for Espresso. ">
<polygon fill="none" stroke="black" points="294.5,-56.5 294.5,-75.5 361.5,-75.5 361.5,-56.5 294.5,-56.5"/>
<text text-anchor="middle" x="328" y="-63.5" font-family="Helvetica,sans-Serif" font-size="10.00">config.hpp</text>
</a>
</g>
</g>
<!-- Node4&#45;&gt;Node9 -->
<g id="edge8" class="edge"><title>Node4&#45;&gt;Node9</title>
<path fill="none" stroke="midnightblue" d="M315.43,-168.4C299.785,-156.537 276.137,-134.103 285,-112 289.68,-100.328 298.991,-89.9687 307.756,-82.1405"/>
<polygon fill="midnightblue" stroke="midnightblue" points="310.052,-84.7832 315.503,-75.698 305.576,-79.4011 310.052,-84.7832"/>
</g>
<!-- Node13 -->
<g id="node13" class="node"><title>Node13</title>
<g id="a_node13"><a xlink:href="debug_8hpp.html" target="_top" xlink:title="This file controls debug facilities. ">
<polygon fill="none" stroke="black" points="294,-112.5 294,-131.5 362,-131.5 362,-112.5 294,-112.5"/>
<text text-anchor="middle" x="328" y="-119.5" font-family="Helvetica,sans-Serif" font-size="10.00">debug.hpp</text>
</a>
</g>
</g>
<!-- Node4&#45;&gt;Node13 -->
<g id="edge12" class="edge"><title>Node4&#45;&gt;Node13</title>
<path fill="none" stroke="midnightblue" d="M328,-168.083C328,-161.006 328,-150.861 328,-141.986"/>
<polygon fill="midnightblue" stroke="midnightblue" points="331.5,-141.751 328,-131.751 324.5,-141.751 331.5,-141.751"/>
</g>
<!-- Node14 -->
<g id="node14" class="node"><title>Node14</title>
<g id="a_node14"><a xlink:href="lees__edwards_8hpp.html" target="_top" xlink:title="lees_edwards.hpp">
<polygon fill="none" stroke="black" points="380,-112.5 380,-131.5 484,-131.5 484,-112.5 380,-112.5"/>
<text text-anchor="middle" x="432" y="-119.5" font-family="Helvetica,sans-Serif" font-size="10.00">lees_edwards.hpp</text>
</a>
</g>
</g>
<!-- Node4&#45;&gt;Node14 -->
<g id="edge14" class="edge"><title>Node4&#45;&gt;Node14</title>
<path fill="none" stroke="midnightblue" d="M344.709,-168.324C361.312,-159.703 387.002,-146.364 406.22,-136.386"/>
<polygon fill="midnightblue" stroke="midnightblue" points="408.07,-139.369 415.332,-131.655 404.844,-133.156 408.07,-139.369"/>
</g>
<!-- Node15 -->
<g id="node15" class="node"><title>Node15</title>
<g id="a_node15"><a xlink:href="errorhandling_8hpp.html" target="_top" xlink:title="This file contains the errorhandling code for severe errors, like a broken bond or illegal parameter ...">
<polygon fill="none" stroke="black" points="715.5,-112.5 715.5,-131.5 818.5,-131.5 818.5,-112.5 715.5,-112.5"/>
<text text-anchor="middle" x="767" y="-119.5" font-family="Helvetica,sans-Serif" font-size="10.00">errorhandling.hpp</text>
</a>
</g>
</g>
<!-- Node4&#45;&gt;Node15 -->
<g id="edge16" class="edge"><title>Node4&#45;&gt;Node15</title>
<path fill="none" stroke="midnightblue" d="M357.524,-173.807C419.802,-167.004 569.428,-150.309 705.143,-132.218"/>
<polygon fill="midnightblue" stroke="midnightblue" points="705.857,-135.654 715.304,-130.857 704.928,-128.716 705.857,-135.654"/>
</g>
<!-- Node19 -->
<g id="node19" class="node"><title>Node19</title>
<polygon fill="none" stroke="#bfbfbf" points="502.5,-112.5 502.5,-131.5 549.5,-131.5 549.5,-112.5 502.5,-112.5"/>
<text text-anchor="middle" x="526" y="-119.5" font-family="Helvetica,sans-Serif" font-size="10.00">vector</text>
</g>
<!-- Node4&#45;&gt;Node19 -->
<g id="edge21" class="edge"><title>Node4&#45;&gt;Node19</title>
<path fill="none" stroke="midnightblue" d="M357.643,-168.916C393.734,-159.073 454.54,-142.489 492.354,-132.176"/>
<polygon fill="midnightblue" stroke="midnightblue" points="493.643,-135.452 502.37,-129.445 491.801,-128.699 493.643,-135.452"/>
</g>
<!-- Node20 -->
<g id="node20" class="node"><title>Node20</title>
<polygon fill="none" stroke="#bfbfbf" points="567.5,-112.5 567.5,-131.5 632.5,-131.5 632.5,-112.5 567.5,-112.5"/>
<text text-anchor="middle" x="600" y="-119.5" font-family="Helvetica,sans-Serif" font-size="10.00">exception</text>
</g>
<!-- Node4&#45;&gt;Node20 -->
<g id="edge22" class="edge"><title>Node4&#45;&gt;Node20</title>
<path fill="none" stroke="midnightblue" d="M357.581,-171.47C399.762,-163.533 479.863,-148.276 557.409,-132.296"/>
<polygon fill="midnightblue" stroke="midnightblue" points="558.257,-135.695 567.341,-130.242 556.84,-128.84 558.257,-135.695"/>
</g>
<!-- Node10 -->
<g id="node10" class="node"><title>Node10</title>
<g id="a_node10"><a xlink:href="acconfig_8hpp.html" target="_top" xlink:title="acconfig.hpp">
<polygon fill="none" stroke="black" points="178,-0.5 178,-19.5 256,-19.5 256,-0.5 178,-0.5"/>
<text text-anchor="middle" x="217" y="-7.5" font-family="Helvetica,sans-Serif" font-size="10.00">acconfig.hpp</text>
</a>
</g>
</g>
<!-- Node9&#45;&gt;Node10 -->
<g id="edge9" class="edge"><title>Node9&#45;&gt;Node10</title>
<path fill="none" stroke="midnightblue" d="M310.166,-56.324C292.284,-47.6247 264.525,-34.1202 243.954,-24.113"/>
<polygon fill="midnightblue" stroke="midnightblue" points="245.313,-20.8819 234.79,-19.6545 242.251,-27.1765 245.313,-20.8819"/>
</g>
<!-- Node11 -->
<g id="node11" class="node"><title>Node11</title>
<g id="a_node11"><a xlink:href="myconfig-final_8hpp.html" target="_top" xlink:title="myconfig&#45;final.hpp">
<polygon fill="none" stroke="black" points="274.5,-0.5 274.5,-19.5 381.5,-19.5 381.5,-0.5 274.5,-0.5"/>
<text text-anchor="middle" x="328" y="-7.5" font-family="Helvetica,sans-Serif" font-size="10.00">myconfig&#45;final.hpp</text>
</a>
</g>
</g>
<!-- Node9&#45;&gt;Node11 -->
<g id="edge10" class="edge"><title>Node9&#45;&gt;Node11</title>
<path fill="none" stroke="midnightblue" d="M328,-56.083C328,-49.0059 328,-38.8611 328,-29.9865"/>
<polygon fill="midnightblue" stroke="midnightblue" points="331.5,-29.751 328,-19.7511 324.5,-29.7511 331.5,-29.751"/>
</g>
<!-- Node12 -->
<g id="node12" class="node"><title>Node12</title>
<g id="a_node12"><a xlink:href="config-features_8hpp.html" target="_top" xlink:title="config&#45;features.hpp">
<polygon fill="none" stroke="black" points="399.5,-0.5 399.5,-19.5 510.5,-19.5 510.5,-0.5 399.5,-0.5"/>
<text text-anchor="middle" x="455" y="-7.5" font-family="Helvetica,sans-Serif" font-size="10.00">config&#45;features.hpp</text>
</a>
</g>
</g>
<!-- Node9&#45;&gt;Node12 -->
<g id="edge11" class="edge"><title>Node9&#45;&gt;Node12</title>
<path fill="none" stroke="midnightblue" d="M348.124,-56.4435C369.024,-47.5566 401.935,-33.5632 425.716,-23.4514"/>
<polygon fill="midnightblue" stroke="midnightblue" points="427.138,-26.6504 434.971,-19.5164 424.398,-20.2085 427.138,-26.6504"/>
</g>
<!-- Node13&#45;&gt;Node9 -->
<g id="edge13" class="edge"><title>Node13&#45;&gt;Node9</title>
<path fill="none" stroke="midnightblue" d="M328,-112.083C328,-105.006 328,-94.8611 328,-85.9865"/>
<polygon fill="midnightblue" stroke="midnightblue" points="331.5,-85.751 328,-75.7511 324.5,-85.7511 331.5,-85.751"/>
</g>
<!-- Node14&#45;&gt;Node9 -->
<g id="edge15" class="edge"><title>Node14&#45;&gt;Node9</title>
<path fill="none" stroke="midnightblue" d="M415.291,-112.324C398.688,-103.703 372.998,-90.3643 353.78,-80.3855"/>
<polygon fill="midnightblue" stroke="midnightblue" points="355.156,-77.1565 344.668,-75.6545 351.93,-83.3689 355.156,-77.1565"/>
</g>
<!-- Node15&#45;&gt;Node9 -->
<g id="edge17" class="edge"><title>Node15&#45;&gt;Node9</title>
<path fill="none" stroke="midnightblue" d="M715.304,-113.143C712.496,-112.748 709.714,-112.365 707,-112 585.819,-95.7212 442.419,-79.5298 371.793,-71.7576"/>
<polygon fill="midnightblue" stroke="midnightblue" points="371.827,-68.2404 361.505,-70.6284 371.063,-75.1986 371.827,-68.2404"/>
</g>
<!-- Node16 -->
<g id="node16" class="node"><title>Node16</title>
<polygon fill="none" stroke="#bfbfbf" points="801,-56.5 801,-75.5 845,-75.5 845,-56.5 801,-56.5"/>
<text text-anchor="middle" x="823" y="-63.5" font-family="Helvetica,sans-Serif" font-size="10.00">string</text>
</g>
<!-- Node15&#45;&gt;Node16 -->
<g id="edge18" class="edge"><title>Node15&#45;&gt;Node16</title>
<path fill="none" stroke="midnightblue" d="M775.997,-112.324C784.194,-104.42 796.506,-92.5482 806.472,-82.9377"/>
<polygon fill="midnightblue" stroke="midnightblue" points="809.07,-85.2947 813.839,-75.8339 804.211,-80.2558 809.07,-85.2947"/>
</g>
<!-- Node17 -->
<g id="node17" class="node"><title>Node17</title>
<polygon fill="none" stroke="#bfbfbf" points="677,-56.5 677,-75.5 733,-75.5 733,-56.5 677,-56.5"/>
<text text-anchor="middle" x="705" y="-63.5" font-family="Helvetica,sans-Serif" font-size="10.00">sstream</text>
</g>
<!-- Node15&#45;&gt;Node17 -->
<g id="edge19" class="edge"><title>Node15&#45;&gt;Node17</title>
<path fill="none" stroke="midnightblue" d="M757.039,-112.324C747.873,-104.341 734.063,-92.3128 722.972,-82.6529"/>
<polygon fill="midnightblue" stroke="midnightblue" points="724.982,-79.7624 715.143,-75.8339 720.385,-85.041 724.982,-79.7624"/>
</g>
<!-- Node18 -->
<g id="node18" class="node"><title>Node18</title>
<polygon fill="none" stroke="#bfbfbf" points="751,-56.5 751,-75.5 783,-75.5 783,-56.5 751,-56.5"/>
<text text-anchor="middle" x="767" y="-63.5" font-family="Helvetica,sans-Serif" font-size="10.00">list</text>
</g>
<!-- Node15&#45;&gt;Node18 -->
<g id="edge20" class="edge"><title>Node15&#45;&gt;Node18</title>
<path fill="none" stroke="midnightblue" d="M767,-112.083C767,-105.006 767,-94.8611 767,-85.9865"/>
<polygon fill="midnightblue" stroke="midnightblue" points="770.5,-85.751 767,-75.7511 763.5,-85.7511 770.5,-85.751"/>
</g>
<!-- Node22&#45;&gt;Node9 -->
<g id="edge25" class="edge"><title>Node22&#45;&gt;Node9</title>
<path fill="none" stroke="midnightblue" d="M50.2365,-168.245C43.4979,-154.534 33.4268,-127.92 47,-112 76.9792,-76.8379 213.167,-69.035 284.353,-67.3826"/>
<polygon fill="midnightblue" stroke="midnightblue" points="284.436,-70.8817 294.363,-67.1809 284.295,-63.8831 284.436,-70.8817"/>
</g>
<!-- Node24 -->
<g id="node24" class="node"><title>Node24</title>
<polygon fill="none" stroke="#bfbfbf" points="443.5,-224.5 443.5,-243.5 492.5,-243.5 492.5,-224.5 443.5,-224.5"/>
<text text-anchor="middle" x="468" y="-231.5" font-family="Helvetica,sans-Serif" font-size="10.00">cuda.h</text>
</g>
<!-- Node23&#45;&gt;Node24 -->
<g id="edge27" class="edge"><title>Node23&#45;&gt;Node24</title>
<path fill="none" stroke="midnightblue" d="M393.299,-280.324C407.183,-271.9 428.492,-258.971 444.804,-249.074"/>
<polygon fill="midnightblue" stroke="midnightblue" points="447.002,-251.834 453.736,-243.655 443.371,-245.85 447.002,-251.834"/>
</g>
<!-- Node25 -->
<g id="node25" class="node"><title>Node25</title>
<polygon fill="none" stroke="#bfbfbf" points="333,-224.5 333,-243.5 425,-243.5 425,-224.5 333,-224.5"/>
<text text-anchor="middle" x="379" y="-231.5" font-family="Helvetica,sans-Serif" font-size="10.00">cuda_runtime.h</text>
</g>
<!-- Node23&#45;&gt;Node25 -->
<g id="edge28" class="edge"><title>Node23&#45;&gt;Node25</title>
<path fill="none" stroke="midnightblue" d="M379,-280.083C379,-273.006 379,-262.861 379,-253.986"/>
<polygon fill="midnightblue" stroke="midnightblue" points="382.5,-253.751 379,-243.751 375.5,-253.751 382.5,-253.751"/>
</g>
</g>
</svg>
        <g id="navigator" transform="translate(0 0)" fill="#404254">
                <rect fill="#f2f5e9" fill-opacity="0.5" stroke="#606060" stroke-width=".5" x="0" y="0" width="60" height="60"/>
                <use id="zoomplus" xlink:href="#zoomPlus" x="17" y="9" onmousedown="handleZoom(evt,'in')"/>
                <use id="zoomminus" xlink:href="#zoomMin" x="42" y="9" onmousedown="handleZoom(evt,'out')"/>
                <use id="reset" xlink:href="#resetDef" x="30" y="36" onmousedown="handleReset()"/>
                <g id="arrowUp" xlink:href="#dirArrow" transform="translate(30 24)" onmousedown="handlePan(0,-1)">
                  <use xlink:href="#rim" fill="#404040">
                        <set attributeName="fill" to="#808080" begin="arrowUp.mouseover" end="arrowUp.mouseout"/>
                  </use>
                  <path fill="none" stroke="white" stroke-width="1.5" d="M0,-3.0v7 M-2.5,-0.5L0,-3.0L2.5,-0.5"/>
                </g>
                <g id="arrowRight" xlink:href="#dirArrow" transform="rotate(90) translate(36 -43)" onmousedown="handlePan(1,0)">
                  <use xlink:href="#rim" fill="#404040">
                        <set attributeName="fill" to="#808080" begin="arrowRight.mouseover" end="arrowRight.mouseout"/>
                  </use>
                  <path fill="none" stroke="white" stroke-width="1.5" d="M0,-3.0v7 M-2.5,-0.5L0,-3.0L2.5,-0.5"/>
                </g>
                <g id="arrowDown" xlink:href="#dirArrow" transform="rotate(180) translate(-30 -48)" onmousedown="handlePan(0,1)">
                  <use xlink:href="#rim" fill="#404040">
                        <set attributeName="fill" to="#808080" begin="arrowDown.mouseover" end="arrowDown.mouseout"/>
                  </use>
                  <path fill="none" stroke="white" stroke-width="1.5" d="M0,-3.0v7 M-2.5,-0.5L0,-3.0L2.5,-0.5"/>
                </g>
                <g id="arrowLeft" xlink:href="#dirArrow" transform="rotate(270) translate(-36 17)" onmousedown="handlePan(-1,0)">
                  <use xlink:href="#rim" fill="#404040">
                        <set attributeName="fill" to="#808080" begin="arrowLeft.mouseover" end="arrowLeft.mouseout"/>
                  </use>
                  <path fill="none" stroke="white" stroke-width="1.5" d="M0,-3.0v7 M-2.5,-0.5L0,-3.0L2.5,-0.5"/>
                </g>
        </g>
        <svg viewBox="0 0 15 15" width="100%" height="30px" preserveAspectRatio="xMaxYMin meet">
         <g id="arrow_out" transform="scale(0.3 0.3)">
          <a xlink:href="mmm-common__cuda_8hpp__incl_org.svg" target="_base">
           <rect id="button" ry="5" rx="5" y="6" x="6" height="38" width="38"
                fill="#f2f5e9" fill-opacity="0.5" stroke="#606060" stroke-width="1.0"/>
           <path id="arrow"
             d="M 11.500037,31.436501 C 11.940474,20.09759 22.043105,11.32322 32.158766,21.979434 L 37.068811,17.246167 C 37.068811,17.246167 37.088388,32 37.088388,32 L 22.160133,31.978069 C 22.160133,31.978069 26.997745,27.140456 26.997745,27.140456 C 18.528582,18.264221 13.291696,25.230495 11.500037,31.436501 z"
             style="fill:#404040;"/>
          </a>
         </g>
        </svg>
</svg>
