<?xml version="1.0" encoding="UTF-8" standalone="no"?>
<!DOCTYPE svg PUBLIC "-//W3C//DTD SVG 1.1//EN"
 "http://www.w3.org/Graphics/SVG/1.1/DTD/svg11.dtd">
<!-- Generated by graphviz version 2.38.0 (20140413.2041)
 -->
<!-- Title: Mmm1dgpuForce.hpp Pages: 1 -->
<svg width="421pt" height="84pt"
 viewBox="0.00 0.00 420.50 84.00" xmlns="http://www.w3.org/2000/svg" xmlns:xlink="http://www.w3.org/1999/xlink">
<g id="graph0" class="graph" transform="scale(1 1) rotate(0) translate(4 80)">
<title>Mmm1dgpuForce.hpp</title>
<!-- Node1 -->
<g id="node1" class="node"><title>Node1</title>
<polygon fill="#bfbfbf" stroke="black" points="149.5,-56.5 149.5,-75.5 271.5,-75.5 271.5,-56.5 149.5,-56.5"/>
<text text-anchor="middle" x="210.5" y="-63.5" font-family="Helvetica,sans-Serif" font-size="10.00">Mmm1dgpuForce.hpp</text>
</g>
<!-- Node2 -->
<g id="node2" class="node"><title>Node2</title>
<g id="a_node2"><a xlink:href="Mmm1dgpuForce_8cpp.html" target="_top" xlink:title="Mmm1dgpuForce.cpp">
<polygon fill="none" stroke="black" points="0,-0.5 0,-19.5 121,-19.5 121,-0.5 0,-0.5"/>
<text text-anchor="middle" x="60.5" y="-7.5" font-family="Helvetica,sans-Serif" font-size="10.00">Mmm1dgpuForce.cpp</text>
</a>
</g>
</g>
<!-- Node1&#45;&gt;Node2 -->
<g id="edge1" class="edge"><title>Node1&#45;&gt;Node2</title>
<path fill="none" stroke="midnightblue" d="M177.275,-53.0392C149.052,-42.8786 109.238,-28.5457 84.1567,-19.5164"/>
<polygon fill="midnightblue" stroke="midnightblue" points="176.138,-56.3494 186.732,-56.4435 178.509,-49.7632 176.138,-56.3494"/>
</g>
<!-- Node3 -->
<g id="node3" class="node"><title>Node3</title>
<g id="a_node3"><a xlink:href="Mmm1dgpuForce__cuda_8cu.html" target="_top" xlink:title="Mmm1dgpuForce_cuda.cu">
<polygon fill="none" stroke="black" points="139,-0.5 139,-19.5 282,-19.5 282,-0.5 139,-0.5"/>
<text text-anchor="middle" x="210.5" y="-7.5" font-family="Helvetica,sans-Serif" font-size="10.00">Mmm1dgpuForce_cuda.cu</text>
</a>
</g>
</g>
<!-- Node1&#45;&gt;Node3 -->
<g id="edge2" class="edge"><title>Node1&#45;&gt;Node3</title>
<path fill="none" stroke="midnightblue" d="M210.5,-45.8045C210.5,-36.9102 210.5,-26.7798 210.5,-19.7511"/>
<polygon fill="midnightblue" stroke="midnightblue" points="207,-46.083 210.5,-56.083 214,-46.083 207,-46.083"/>
</g>
<!-- Node4 -->
<g id="node4" class="node"><title>Node4</title>
<g id="a_node4"><a xlink:href="Mmm1dgpu__tcl_8cpp.html" target="_top" xlink:title="Mmm1dgpu_tcl.cpp">
<polygon fill="none" stroke="black" points="300.5,-0.5 300.5,-19.5 412.5,-19.5 412.5,-0.5 300.5,-0.5"/>
<text text-anchor="middle" x="356.5" y="-7.5" font-family="Helvetica,sans-Serif" font-size="10.00">Mmm1dgpu_tcl.cpp</text>
</a>
</g>
</g>
<!-- Node1&#45;&gt;Node4 -->
<g id="edge3" class="edge"><title>Node1&#45;&gt;Node4</title>
<path fill="none" stroke="midnightblue" d="M243.199,-52.9058C270.648,-42.7536 309.168,-28.5063 333.474,-19.5164"/>
<polygon fill="midnightblue" stroke="midnightblue" points="241.799,-49.6919 233.634,-56.4435 244.227,-56.2572 241.799,-49.6919"/>
</g>
</g>
</svg>
