<?xml version="1.0" encoding="UTF-8" standalone="no"?>
<!DOCTYPE svg PUBLIC "-//W3C//DTD SVG 1.1//EN"
 "http://www.w3.org/Graphics/SVG/1.1/DTD/svg11.dtd">
<!-- Generated by graphviz version 2.38.0 (20140413.2041)
 -->
<!-- Title: mmm1d.hpp Pages: 1 -->
<svg width="2580pt" height="330pt"
 viewBox="0.00 0.00 2580.00 330.00" xmlns="http://www.w3.org/2000/svg" xmlns:xlink="http://www.w3.org/1999/xlink">
<g id="graph0" class="graph" transform="scale(1 1) rotate(0) translate(4 326)">
<title>mmm1d.hpp</title>
<!-- Node1 -->
<g id="node1" class="node"><title>Node1</title>
<polygon fill="#bfbfbf" stroke="black" points="2180,-302.5 2180,-321.5 2259,-321.5 2259,-302.5 2180,-302.5"/>
<text text-anchor="middle" x="2219.5" y="-309.5" font-family="Helvetica,sans-Serif" font-size="10.00">mmm1d.hpp</text>
</g>
<!-- Node2 -->
<g id="node2" class="node"><title>Node2</title>
<g id="a_node2"><a xlink:href="Mmm1dgpuForce__cuda_8cu.html" target="_top" xlink:title="Mmm1dgpuForce_cuda.cu">
<polygon fill="none" stroke="black" points="0,-246.5 0,-265.5 143,-265.5 143,-246.5 0,-246.5"/>
<text text-anchor="middle" x="71.5" y="-253.5" font-family="Helvetica,sans-Serif" font-size="10.00">Mmm1dgpuForce_cuda.cu</text>
</a>
</g>
</g>
<!-- Node1&#45;&gt;Node2 -->
<g id="edge1" class="edge"><title>Node1&#45;&gt;Node2</title>
<path fill="none" stroke="midnightblue" d="M2169.82,-310.473C1895.86,-307.481 566.995,-291.851 157.5,-266 152.855,-265.707 148.075,-265.353 143.259,-264.957"/>
<polygon fill="midnightblue" stroke="midnightblue" points="2169.83,-313.973 2179.86,-310.582 2169.9,-306.973 2169.83,-313.973"/>
</g>
<!-- Node3 -->
<g id="node3" class="node"><title>Node3</title>
<g id="a_node3"><a xlink:href="iccp3m_8hpp.html" target="_top" xlink:title="ICCP3M is a method that allows to take into account the influence of arbitrarliy shaped dielectric in...">
<polygon fill="none" stroke="black" points="1518,-246.5 1518,-265.5 1591,-265.5 1591,-246.5 1518,-246.5"/>
<text text-anchor="middle" x="1554.5" y="-253.5" font-family="Helvetica,sans-Serif" font-size="10.00">iccp3m.hpp</text>
</a>
</g>
</g>
<!-- Node1&#45;&gt;Node3 -->
<g id="edge2" class="edge"><title>Node1&#45;&gt;Node3</title>
<path fill="none" stroke="midnightblue" d="M2169.59,-306.947C2041.43,-296.54 1702.96,-269.055 1591.02,-259.965"/>
<polygon fill="midnightblue" stroke="midnightblue" points="2169.64,-310.463 2179.89,-307.784 2170.21,-303.486 2169.64,-310.463"/>
</g>
<!-- Node8 -->
<g id="node8" class="node"><title>Node8</title>
<g id="a_node8"><a xlink:href="communication_8cpp.html" target="_top" xlink:title="communication.cpp">
<polygon fill="none" stroke="black" points="115,-6 115,-25 228,-25 228,-6 115,-6"/>
<text text-anchor="middle" x="171.5" y="-13" font-family="Helvetica,sans-Serif" font-size="10.00">communication.cpp</text>
</a>
</g>
</g>
<!-- Node1&#45;&gt;Node8 -->
<g id="edge57" class="edge"><title>Node1&#45;&gt;Node8</title>
<path fill="none" stroke="midnightblue" d="M2169.84,-311.004C1856.94,-310.716 171.5,-304.365 171.5,-201 171.5,-201 171.5,-201 171.5,-137.5 171.5,-95.276 171.5,-44.764 171.5,-25.0085"/>
<polygon fill="midnightblue" stroke="midnightblue" points="2169.96,-314.504 2179.96,-311.012 2169.97,-307.504 2169.96,-314.504"/>
</g>
<!-- Node13 -->
<g id="node13" class="node"><title>Node13</title>
<g id="a_node13"><a xlink:href="initialize_8cpp.html" target="_top" xlink:title="Implementation of initialize.hpp. ">
<polygon fill="none" stroke="black" points="2314,-6 2314,-25 2393,-25 2393,-6 2314,-6"/>
<text text-anchor="middle" x="2353.5" y="-13" font-family="Helvetica,sans-Serif" font-size="10.00">initialize.cpp</text>
</a>
</g>
</g>
<!-- Node1&#45;&gt;Node13 -->
<g id="edge66" class="edge"><title>Node1&#45;&gt;Node13</title>
<path fill="none" stroke="midnightblue" d="M2256,-298.725C2295.37,-282.899 2352.5,-251.275 2352.5,-201 2352.5,-201 2352.5,-201 2352.5,-137.5 2352.5,-95.2746 2353.12,-44.7634 2353.38,-25.0083"/>
<polygon fill="midnightblue" stroke="midnightblue" points="2254.49,-295.554 2246.41,-302.41 2257,-302.088 2254.49,-295.554"/>
</g>
<!-- Node16 -->
<g id="node16" class="node"><title>Node16</title>
<g id="a_node16"><a xlink:href="interaction__data_8cpp.html" target="_top" xlink:title="Implementation of interaction_data.hpp. ">
<polygon fill="none" stroke="black" points="2180.5,-6 2180.5,-25 2296.5,-25 2296.5,-6 2180.5,-6"/>
<text text-anchor="middle" x="2238.5" y="-13" font-family="Helvetica,sans-Serif" font-size="10.00">interaction_data.cpp</text>
</a>
</g>
</g>
<!-- Node1&#45;&gt;Node16 -->
<g id="edge67" class="edge"><title>Node1&#45;&gt;Node16</title>
<path fill="none" stroke="midnightblue" d="M2233.66,-294.579C2239.85,-286.494 2246.58,-276.287 2250.5,-266 2284.29,-177.244 2251.49,-57.7531 2241.3,-25.0669"/>
<polygon fill="midnightblue" stroke="midnightblue" points="2230.88,-292.449 2227.31,-302.424 2236.32,-296.853 2230.88,-292.449"/>
</g>
<!-- Node34 -->
<g id="node34" class="node"><title>Node34</title>
<g id="a_node34"><a xlink:href="iccp3m_8cpp.html" target="_top" xlink:title="Detailed Information about the method is included in the corresponding header file iccp3m...">
<polygon fill="none" stroke="black" points="2008.5,-129 2008.5,-148 2080.5,-148 2080.5,-129 2008.5,-129"/>
<text text-anchor="middle" x="2044.5" y="-136" font-family="Helvetica,sans-Serif" font-size="10.00">iccp3m.cpp</text>
</a>
</g>
</g>
<!-- Node1&#45;&gt;Node34 -->
<g id="edge65" class="edge"><title>Node1&#45;&gt;Node34</title>
<path fill="none" stroke="midnightblue" d="M2203.28,-295.105C2167.11,-259.657 2080.85,-175.124 2053.19,-148.019"/>
<polygon fill="midnightblue" stroke="midnightblue" points="2200.99,-297.76 2210.58,-302.26 2205.89,-292.76 2200.99,-297.76"/>
</g>
<!-- Node41 -->
<g id="node41" class="node"><title>Node41</title>
<g id="a_node41"><a xlink:href="Mmm1dgpu__tcl_8cpp.html" target="_top" xlink:title="Mmm1dgpu_tcl.cpp">
<polygon fill="none" stroke="black" points="2098.5,-129 2098.5,-148 2210.5,-148 2210.5,-129 2098.5,-129"/>
<text text-anchor="middle" x="2154.5" y="-136" font-family="Helvetica,sans-Serif" font-size="10.00">Mmm1dgpu_tcl.cpp</text>
</a>
</g>
</g>
<!-- Node1&#45;&gt;Node41 -->
<g id="edge69" class="edge"><title>Node1&#45;&gt;Node41</title>
<path fill="none" stroke="midnightblue" d="M2212.6,-292.807C2198.7,-256.13 2167.79,-174.554 2157.73,-148.019"/>
<polygon fill="midnightblue" stroke="midnightblue" points="2209.37,-294.149 2216.19,-302.26 2215.92,-291.668 2209.37,-294.149"/>
</g>
<!-- Node43 -->
<g id="node43" class="node"><title>Node43</title>
<g id="a_node43"><a xlink:href="energy__inline_8hpp.html" target="_top" xlink:title="Implementation of the energy calculation. ">
<polygon fill="none" stroke="black" points="1735.5,-67.5 1735.5,-86.5 1839.5,-86.5 1839.5,-67.5 1735.5,-67.5"/>
<text text-anchor="middle" x="1787.5" y="-74.5" font-family="Helvetica,sans-Serif" font-size="10.00">energy_inline.hpp</text>
</a>
</g>
</g>
<!-- Node1&#45;&gt;Node43 -->
<g id="edge58" class="edge"><title>Node1&#45;&gt;Node43</title>
<path fill="none" stroke="midnightblue" d="M2226.62,-292.51C2239.65,-255.203 2262.26,-170.444 2219.5,-123 2194.48,-95.238 1949.13,-83.4873 1839.71,-79.5985"/>
<polygon fill="midnightblue" stroke="midnightblue" points="2223.27,-291.495 2223.12,-302.089 2229.84,-293.901 2223.27,-291.495"/>
</g>
<!-- Node44 -->
<g id="node44" class="node"><title>Node44</title>
<g id="a_node44"><a xlink:href="mmm1d_8cpp.html" target="_top" xlink:title="MMM1D algorithm for long range coulomb interaction. ">
<polygon fill="none" stroke="black" points="2380.5,-246.5 2380.5,-265.5 2458.5,-265.5 2458.5,-246.5 2380.5,-246.5"/>
<text text-anchor="middle" x="2419.5" y="-253.5" font-family="Helvetica,sans-Serif" font-size="10.00">mmm1d.cpp</text>
</a>
</g>
</g>
<!-- Node1&#45;&gt;Node44 -->
<g id="edge68" class="edge"><title>Node1&#45;&gt;Node44</title>
<path fill="none" stroke="midnightblue" d="M2260.87,-299.829C2298.64,-289.633 2353.64,-274.782 2387.96,-265.516"/>
<polygon fill="midnightblue" stroke="midnightblue" points="2259.93,-296.458 2251.19,-302.444 2261.76,-303.216 2259.93,-296.458"/>
</g>
<!-- Node45 -->
<g id="node45" class="node"><title>Node45</title>
<g id="a_node45"><a xlink:href="mmm1d__tcl_8cpp.html" target="_top" xlink:title="mmm1d_tcl.cpp">
<polygon fill="none" stroke="black" points="2477,-246.5 2477,-265.5 2572,-265.5 2572,-246.5 2477,-246.5"/>
<text text-anchor="middle" x="2524.5" y="-253.5" font-family="Helvetica,sans-Serif" font-size="10.00">mmm1d_tcl.cpp</text>
</a>
</g>
</g>
<!-- Node1&#45;&gt;Node45 -->
<g id="edge70" class="edge"><title>Node1&#45;&gt;Node45</title>
<path fill="none" stroke="midnightblue" d="M2268.99,-302.237C2326.42,-292.071 2420.43,-275.426 2476.99,-265.411"/>
<polygon fill="midnightblue" stroke="midnightblue" points="2268.3,-298.806 2259.06,-303.996 2269.52,-305.699 2268.3,-298.806"/>
</g>
<!-- Node4 -->
<g id="node4" class="node"><title>Node4</title>
<g id="a_node4"><a xlink:href="forces_8hpp.html" target="_top" xlink:title="Force calculation. ">
<polygon fill="none" stroke="black" points="1520.5,-190.5 1520.5,-209.5 1588.5,-209.5 1588.5,-190.5 1520.5,-190.5"/>
<text text-anchor="middle" x="1554.5" y="-197.5" font-family="Helvetica,sans-Serif" font-size="10.00">forces.hpp</text>
</a>
</g>
</g>
<!-- Node3&#45;&gt;Node4 -->
<g id="edge3" class="edge"><title>Node3&#45;&gt;Node4</title>
<path fill="none" stroke="midnightblue" d="M1548.03,-236.101C1547.4,-227.136 1547.84,-216.858 1549.37,-209.751"/>
<polygon fill="midnightblue" stroke="midnightblue" points="1544.57,-236.622 1549.33,-246.083 1551.51,-235.713 1544.57,-236.622"/>
</g>
<!-- Node3&#45;&gt;Node8 -->
<g id="edge53" class="edge"><title>Node3&#45;&gt;Node8</title>
<path fill="none" stroke="midnightblue" d="M1507.67,-254.121C1285.78,-249.596 346.492,-226.272 239.5,-154 215.887,-138.05 184.234,-52.6824 174.484,-25.1007"/>
<polygon fill="midnightblue" stroke="midnightblue" points="1507.92,-257.627 1517.99,-254.328 1508.06,-250.628 1507.92,-257.627"/>
</g>
<!-- Node3&#45;&gt;Node13 -->
<g id="edge55" class="edge"><title>Node3&#45;&gt;Node13</title>
<path fill="none" stroke="midnightblue" d="M1601.44,-251.756C1734.35,-241.967 2110.65,-209.909 2219.5,-154 2281.76,-122.018 2332.05,-49.9809 2348.11,-25.1253"/>
<polygon fill="midnightblue" stroke="midnightblue" points="1600.91,-248.285 1591.19,-252.502 1601.42,-255.267 1600.91,-248.285"/>
</g>
<!-- Node3&#45;&gt;Node34 -->
<g id="edge54" class="edge"><title>Node3&#45;&gt;Node34</title>
<path fill="none" stroke="midnightblue" d="M1601,-245.232C1681.51,-228.12 1851.91,-191.01 1994.5,-154 2001.5,-152.183 2009.01,-150.086 2016.02,-148.061"/>
<polygon fill="midnightblue" stroke="midnightblue" points="1600.23,-241.817 1591.18,-247.316 1601.69,-248.665 1600.23,-241.817"/>
</g>
<!-- Node42 -->
<g id="node42" class="node"><title>Node42</title>
<g id="a_node42"><a xlink:href="iccp3m__tcl_8cpp.html" target="_top" xlink:title="iccp3m_tcl.cpp">
<polygon fill="none" stroke="black" points="1413,-190.5 1413,-209.5 1502,-209.5 1502,-190.5 1413,-190.5"/>
<text text-anchor="middle" x="1457.5" y="-197.5" font-family="Helvetica,sans-Serif" font-size="10.00">iccp3m_tcl.cpp</text>
</a>
</g>
</g>
<!-- Node3&#45;&gt;Node42 -->
<g id="edge56" class="edge"><title>Node3&#45;&gt;Node42</title>
<path fill="none" stroke="midnightblue" d="M1530.16,-241.453C1512.26,-231.483 1488.45,-218.228 1473.05,-209.655"/>
<polygon fill="midnightblue" stroke="midnightblue" points="1528.48,-244.518 1538.92,-246.324 1531.88,-238.402 1528.48,-244.518"/>
</g>
<!-- Node4&#45;&gt;Node3 -->
<g id="edge8" class="edge"><title>Node4&#45;&gt;Node3</title>
<path fill="none" stroke="midnightblue" d="M1560.96,-219.691C1561.61,-228.635 1561.18,-238.927 1559.67,-246.083"/>
<polygon fill="midnightblue" stroke="midnightblue" points="1564.42,-219.2 1559.63,-209.751 1557.48,-220.126 1564.42,-219.2"/>
</g>
<!-- Node5 -->
<g id="node5" class="node"><title>Node5</title>
<g id="a_node5"><a xlink:href="HarmonicOrientationWell_8cpp.html" target="_top" xlink:title="HarmonicOrientationWell.cpp">
<polygon fill="none" stroke="black" points="986.5,-129 986.5,-148 1146.5,-148 1146.5,-129 986.5,-129"/>
<text text-anchor="middle" x="1066.5" y="-136" font-family="Helvetica,sans-Serif" font-size="10.00">HarmonicOrientationWell.cpp</text>
</a>
</g>
</g>
<!-- Node4&#45;&gt;Node5 -->
<g id="edge4" class="edge"><title>Node4&#45;&gt;Node5</title>
<path fill="none" stroke="midnightblue" d="M1510.8,-190.047C1510.7,-190.031 1510.6,-190.015 1510.5,-190 1353.73,-166.08 1312.72,-174.76 1155.5,-154 1142.46,-152.279 1128.4,-150.126 1115.39,-148.01"/>
<polygon fill="midnightblue" stroke="midnightblue" points="1510.01,-193.461 1520.45,-191.683 1511.18,-186.56 1510.01,-193.461"/>
</g>
<!-- Node6 -->
<g id="node6" class="node"><title>Node6</title>
<g id="a_node6"><a xlink:href="HarmonicWell_8cpp.html" target="_top" xlink:title="HarmonicWell.cpp">
<polygon fill="none" stroke="black" points="1165,-129 1165,-148 1270,-148 1270,-129 1165,-129"/>
<text text-anchor="middle" x="1217.5" y="-136" font-family="Helvetica,sans-Serif" font-size="10.00">HarmonicWell.cpp</text>
</a>
</g>
</g>
<!-- Node4&#45;&gt;Node6 -->
<g id="edge5" class="edge"><title>Node4&#45;&gt;Node6</title>
<path fill="none" stroke="midnightblue" d="M1510.8,-190.054C1510.7,-190.036 1510.6,-190.018 1510.5,-190 1407.8,-171.54 1380.89,-174.081 1278.5,-154 1269.63,-152.261 1260.1,-150.126 1251.27,-148.034"/>
<polygon fill="midnightblue" stroke="midnightblue" points="1509.95,-193.455 1520.42,-191.862 1511.24,-186.575 1509.95,-193.455"/>
</g>
<!-- Node7 -->
<g id="node7" class="node"><title>Node7</title>
<g id="a_node7"><a xlink:href="Mmm1dgpuForce_8cpp.html" target="_top" xlink:title="Mmm1dgpuForce.cpp">
<polygon fill="none" stroke="black" points="1288,-129 1288,-148 1409,-148 1409,-129 1288,-129"/>
<text text-anchor="middle" x="1348.5" y="-136" font-family="Helvetica,sans-Serif" font-size="10.00">Mmm1dgpuForce.cpp</text>
</a>
</g>
</g>
<!-- Node4&#45;&gt;Node7 -->
<g id="edge6" class="edge"><title>Node4&#45;&gt;Node7</title>
<path fill="none" stroke="midnightblue" d="M1515.29,-187.676C1475.27,-176.114 1414.04,-158.429 1377.96,-148.009"/>
<polygon fill="midnightblue" stroke="midnightblue" points="1514.41,-191.063 1524.99,-190.475 1516.35,-184.338 1514.41,-191.063"/>
</g>
<!-- Node4&#45;&gt;Node8 -->
<g id="edge7" class="edge"><title>Node4&#45;&gt;Node8</title>
<path fill="none" stroke="midnightblue" d="M1510.81,-190.036C1510.7,-190.024 1510.6,-190.012 1510.5,-190 1441.82,-182.043 324.696,-191.33 266.5,-154 230.195,-130.712 248.895,-101.863 223.5,-67 211.497,-50.5214 193.862,-34.6757 182.529,-25.2608"/>
<polygon fill="midnightblue" stroke="midnightblue" points="1510.09,-193.468 1520.48,-191.437 1511.09,-186.54 1510.09,-193.468"/>
</g>
<!-- Node9 -->
<g id="node9" class="node"><title>Node9</title>
<g id="a_node9"><a xlink:href="forces__inline_8hpp.html" target="_top" xlink:title="forces_inline.hpp">
<polygon fill="none" stroke="black" points="1465.5,-129 1465.5,-148 1565.5,-148 1565.5,-129 1465.5,-129"/>
<text text-anchor="middle" x="1515.5" y="-136" font-family="Helvetica,sans-Serif" font-size="10.00">forces_inline.hpp</text>
</a>
</g>
</g>
<!-- Node4&#45;&gt;Node9 -->
<g id="edge9" class="edge"><title>Node4&#45;&gt;Node9</title>
<path fill="none" stroke="midnightblue" d="M1543.36,-182.005C1536.07,-170.888 1526.87,-156.84 1521.08,-148.009"/>
<polygon fill="midnightblue" stroke="midnightblue" points="1540.5,-184.03 1548.91,-190.475 1546.36,-180.193 1540.5,-184.03"/>
</g>
<!-- Node11 -->
<g id="node11" class="node"><title>Node11</title>
<g id="a_node11"><a xlink:href="domain__decomposition_8cpp.html" target="_top" xlink:title="This file contains everything related to the cell system: domain decomposition. ">
<polygon fill="none" stroke="black" points="1641,-6 1641,-25 1792,-25 1792,-6 1641,-6"/>
<text text-anchor="middle" x="1716.5" y="-13" font-family="Helvetica,sans-Serif" font-size="10.00">domain_decomposition.cpp</text>
</a>
</g>
</g>
<!-- Node4&#45;&gt;Node11 -->
<g id="edge36" class="edge"><title>Node4&#45;&gt;Node11</title>
<path fill="none" stroke="midnightblue" d="M1581.82,-185.621C1596.18,-177.723 1613.45,-166.775 1626.5,-154 1668.7,-112.68 1701.5,-48.2813 1712.51,-25.1426"/>
<polygon fill="midnightblue" stroke="midnightblue" points="1580.07,-182.584 1572.88,-190.359 1583.35,-188.769 1580.07,-182.584"/>
</g>
<!-- Node4&#45;&gt;Node13 -->
<g id="edge40" class="edge"><title>Node4&#45;&gt;Node13</title>
<path fill="none" stroke="midnightblue" d="M1598.95,-195.774C1665.38,-190.384 1794.24,-177.722 1901.5,-154 1946.1,-144.135 1955.85,-136.466 1999.5,-123 2135.2,-81.139 2169.53,-71.978 2305.5,-31 2311.92,-29.0658 2318.82,-26.9834 2325.33,-25.0168"/>
<polygon fill="midnightblue" stroke="midnightblue" points="1598.52,-192.297 1588.83,-196.578 1599.08,-199.275 1598.52,-192.297"/>
</g>
<!-- Node14 -->
<g id="node14" class="node"><title>Node14</title>
<g id="a_node14"><a xlink:href="core_2integrate_8cpp.html" target="_top" xlink:title="integrate.cpp">
<polygon fill="none" stroke="black" points="542,-6 542,-25 623,-25 623,-6 542,-6"/>
<text text-anchor="middle" x="582.5" y="-13" font-family="Helvetica,sans-Serif" font-size="10.00">integrate.cpp</text>
</a>
</g>
</g>
<!-- Node4&#45;&gt;Node14 -->
<g id="edge41" class="edge"><title>Node4&#45;&gt;Node14</title>
<path fill="none" stroke="midnightblue" d="M1522.5,-186.614C1502.85,-178.454 1477.51,-166.914 1456.5,-154 1437.64,-142.407 1437.95,-131.501 1417.5,-123 1092.74,12.0395 976.059,-101.604 631.5,-31 623.852,-29.4328 615.672,-27.2297 608.229,-25.013"/>
<polygon fill="midnightblue" stroke="midnightblue" points="1521.34,-189.921 1531.92,-190.45 1523.98,-183.438 1521.34,-189.921"/>
</g>
<!-- Node15 -->
<g id="node15" class="node"><title>Node15</title>
<g id="a_node15"><a xlink:href="integrate__sd_8cpp.html" target="_top" xlink:title="Stokesian dynamics integrator. ">
<polygon fill="none" stroke="black" points="1432.5,-6 1432.5,-25 1530.5,-25 1530.5,-6 1432.5,-6"/>
<text text-anchor="middle" x="1481.5" y="-13" font-family="Helvetica,sans-Serif" font-size="10.00">integrate_sd.cpp</text>
</a>
</g>
</g>
<!-- Node4&#45;&gt;Node15 -->
<g id="edge42" class="edge"><title>Node4&#45;&gt;Node15</title>
<path fill="none" stroke="midnightblue" d="M1564.93,-181.462C1572.8,-165.924 1581.19,-142.711 1574.5,-123 1559.42,-78.606 1515.07,-41.1723 1493.53,-25.025"/>
<polygon fill="midnightblue" stroke="midnightblue" points="1561.74,-180 1560,-190.45 1567.88,-183.368 1561.74,-180"/>
</g>
<!-- Node17 -->
<g id="node17" class="node"><title>Node17</title>
<g id="a_node17"><a xlink:href="layered_8cpp.html" target="_top" xlink:title="Implementation of layered.h. ">
<polygon fill="none" stroke="black" points="1548.5,-6 1548.5,-25 1622.5,-25 1622.5,-6 1548.5,-6"/>
<text text-anchor="middle" x="1585.5" y="-13" font-family="Helvetica,sans-Serif" font-size="10.00">layered.cpp</text>
</a>
</g>
</g>
<!-- Node4&#45;&gt;Node17 -->
<g id="edge43" class="edge"><title>Node4&#45;&gt;Node17</title>
<path fill="none" stroke="midnightblue" d="M1579.22,-184.9C1590.03,-177.278 1601.58,-166.793 1607.5,-154 1623.74,-118.909 1615.39,-104.854 1607.5,-67 1604.26,-51.4589 1595.97,-34.8388 1590.54,-25.0737"/>
<polygon fill="midnightblue" stroke="midnightblue" points="1577.29,-181.984 1570.83,-190.387 1581.12,-187.842 1577.29,-181.984"/>
</g>
<!-- Node18 -->
<g id="node18" class="node"><title>Node18</title>
<g id="a_node18"><a xlink:href="nsquare_8cpp.html" target="_top" xlink:title="Implementation of nsquare.h. ">
<polygon fill="none" stroke="black" points="1810.5,-6 1810.5,-25 1886.5,-25 1886.5,-6 1810.5,-6"/>
<text text-anchor="middle" x="1848.5" y="-13" font-family="Helvetica,sans-Serif" font-size="10.00">nsquare.cpp</text>
</a>
</g>
</g>
<!-- Node4&#45;&gt;Node18 -->
<g id="edge45" class="edge"><title>Node4&#45;&gt;Node18</title>
<path fill="none" stroke="midnightblue" d="M1591.03,-186.905C1610.7,-179.321 1634.72,-168.264 1653.5,-154 1693.69,-123.467 1685.79,-96.8419 1726.5,-67 1742.63,-55.1752 1793.46,-36.0069 1824.18,-25.0006"/>
<polygon fill="midnightblue" stroke="midnightblue" points="1589.63,-183.69 1581.47,-190.45 1592.06,-190.253 1589.63,-183.69"/>
</g>
<!-- Node22 -->
<g id="node22" class="node"><title>Node22</title>
<g id="a_node22"><a xlink:href="verlet_8cpp.html" target="_top" xlink:title="Verlet list. ">
<polygon fill="none" stroke="black" points="1905,-6 1905,-25 1970,-25 1970,-6 1905,-6"/>
<text text-anchor="middle" x="1937.5" y="-13" font-family="Helvetica,sans-Serif" font-size="10.00">verlet.cpp</text>
</a>
</g>
</g>
<!-- Node4&#45;&gt;Node22 -->
<g id="edge48" class="edge"><title>Node4&#45;&gt;Node22</title>
<path fill="none" stroke="midnightblue" d="M1599.01,-199.705C1652.63,-198.716 1743.9,-191.032 1811.5,-154 1871.13,-121.331 1917.72,-49.7342 1932.53,-25.0588"/>
<polygon fill="midnightblue" stroke="midnightblue" points="1598.77,-196.208 1588.81,-199.821 1598.85,-203.207 1598.77,-196.208"/>
</g>
<!-- Node32 -->
<g id="node32" class="node"><title>Node32</title>
<g id="a_node32"><a xlink:href="energy_8cpp.html" target="_top" xlink:title="Implementation of energy.hpp. ">
<polygon fill="none" stroke="black" points="2093,-6 2093,-25 2162,-25 2162,-6 2093,-6"/>
<text text-anchor="middle" x="2127.5" y="-13" font-family="Helvetica,sans-Serif" font-size="10.00">energy.cpp</text>
</a>
</g>
</g>
<!-- Node4&#45;&gt;Node32 -->
<g id="edge37" class="edge"><title>Node4&#45;&gt;Node32</title>
<path fill="none" stroke="midnightblue" d="M1598.81,-196.342C1656.86,-191.924 1761.26,-180.74 1846.5,-154 1955.07,-119.941 2074.13,-49.5417 2113.8,-25.0906"/>
<polygon fill="midnightblue" stroke="midnightblue" points="1598.25,-192.874 1588.53,-197.09 1598.76,-199.855 1598.25,-192.874"/>
</g>
<!-- Node33 -->
<g id="node33" class="node"><title>Node33</title>
<g id="a_node33"><a xlink:href="galilei_8cpp.html" target="_top" xlink:title="galilei.cpp">
<polygon fill="none" stroke="black" points="1736,-129 1736,-148 1803,-148 1803,-129 1736,-129"/>
<text text-anchor="middle" x="1769.5" y="-136" font-family="Helvetica,sans-Serif" font-size="10.00">galilei.cpp</text>
</a>
</g>
</g>
<!-- Node4&#45;&gt;Node33 -->
<g id="edge38" class="edge"><title>Node4&#45;&gt;Node33</title>
<path fill="none" stroke="midnightblue" d="M1597.22,-187.868C1631.02,-178.97 1679.37,-166.035 1721.5,-154 1728.11,-152.111 1735.21,-150.007 1741.88,-148"/>
<polygon fill="midnightblue" stroke="midnightblue" points="1596,-184.569 1587.22,-190.495 1597.78,-191.339 1596,-184.569"/>
</g>
<!-- Node4&#45;&gt;Node34 -->
<g id="edge39" class="edge"><title>Node4&#45;&gt;Node34</title>
<path fill="none" stroke="midnightblue" d="M1598.94,-197.106C1678.77,-193.118 1851.49,-181.813 1994.5,-154 2002.4,-152.464 2010.85,-150.244 2018.51,-148"/>
<polygon fill="midnightblue" stroke="midnightblue" points="1598.58,-193.62 1588.76,-197.6 1598.92,-200.611 1598.58,-193.62"/>
</g>
<!-- Node35 -->
<g id="node35" class="node"><title>Node35</title>
<g id="a_node35"><a xlink:href="molforces_8cpp.html" target="_top" xlink:title="Routines for calculating and applying trap forces upon molecules. ">
<polygon fill="none" stroke="black" points="275.5,-129 275.5,-148 361.5,-148 361.5,-129 275.5,-129"/>
<text text-anchor="middle" x="318.5" y="-136" font-family="Helvetica,sans-Serif" font-size="10.00">molforces.cpp</text>
</a>
</g>
</g>
<!-- Node4&#45;&gt;Node35 -->
<g id="edge44" class="edge"><title>Node4&#45;&gt;Node35</title>
<path fill="none" stroke="midnightblue" d="M1510.81,-190.036C1510.7,-190.024 1510.6,-190.012 1510.5,-190 1007.03,-130.994 871.593,-230.632 370.5,-154 361.884,-152.682 352.665,-150.408 344.419,-148.047"/>
<polygon fill="midnightblue" stroke="midnightblue" points="1510.08,-193.468 1520.48,-191.446 1511.09,-186.541 1510.08,-193.468"/>
</g>
<!-- Node36 -->
<g id="node36" class="node"><title>Node36</title>
<g id="a_node36"><a xlink:href="reaction_8cpp.html" target="_top" xlink:title="reaction.cpp">
<polygon fill="none" stroke="black" points="380,-129 380,-148 457,-148 457,-129 380,-129"/>
<text text-anchor="middle" x="418.5" y="-136" font-family="Helvetica,sans-Serif" font-size="10.00">reaction.cpp</text>
</a>
</g>
</g>
<!-- Node4&#45;&gt;Node36 -->
<g id="edge46" class="edge"><title>Node4&#45;&gt;Node36</title>
<path fill="none" stroke="midnightblue" d="M1510.81,-190.037C1510.7,-190.024 1510.6,-190.012 1510.5,-190 1049.02,-135.244 923.767,-231.175 465.5,-154 457.753,-152.695 449.504,-150.456 442.115,-148.122"/>
<polygon fill="midnightblue" stroke="midnightblue" points="1510.08,-193.467 1520.48,-191.456 1511.1,-186.542 1510.08,-193.467"/>
</g>
<!-- Node37 -->
<g id="node37" class="node"><title>Node37</title>
<g id="a_node37"><a xlink:href="rotation_8cpp.html" target="_top" xlink:title="Molecular dynamics integrator for rotational motion. ">
<polygon fill="none" stroke="black" points="475,-129 475,-148 550,-148 550,-129 475,-129"/>
<text text-anchor="middle" x="512.5" y="-136" font-family="Helvetica,sans-Serif" font-size="10.00">rotation.cpp</text>
</a>
</g>
</g>
<!-- Node4&#45;&gt;Node37 -->
<g id="edge47" class="edge"><title>Node4&#45;&gt;Node37</title>
<path fill="none" stroke="midnightblue" d="M1510.81,-190.037C1510.7,-190.025 1510.6,-190.012 1510.5,-190 1090.12,-139.405 975.696,-226.292 558.5,-154 550.91,-152.685 542.834,-150.442 535.602,-148.109"/>
<polygon fill="midnightblue" stroke="midnightblue" points="1510.08,-193.467 1520.48,-191.468 1511.1,-186.542 1510.08,-193.467"/>
</g>
<!-- Node38 -->
<g id="node38" class="node"><title>Node38</title>
<g id="a_node38"><a xlink:href="virtual__sites__com_8cpp.html" target="_top" xlink:title="virtual_sites_com.cpp">
<polygon fill="none" stroke="black" points="568,-129 568,-148 691,-148 691,-129 568,-129"/>
<text text-anchor="middle" x="629.5" y="-136" font-family="Helvetica,sans-Serif" font-size="10.00">virtual_sites_com.cpp</text>
</a>
</g>
</g>
<!-- Node4&#45;&gt;Node38 -->
<g id="edge49" class="edge"><title>Node4&#45;&gt;Node38</title>
<path fill="none" stroke="midnightblue" d="M1510.81,-190.038C1510.7,-190.025 1510.6,-190.013 1510.5,-190 1152.43,-145.711 1057.52,-198.735 699.5,-154 688.293,-152.6 676.209,-150.363 665.287,-148.061"/>
<polygon fill="midnightblue" stroke="midnightblue" points="1510.07,-193.467 1520.48,-191.49 1511.11,-186.544 1510.07,-193.467"/>
</g>
<!-- Node39 -->
<g id="node39" class="node"><title>Node39</title>
<g id="a_node39"><a xlink:href="Ewaldgpu__tcl_8cpp.html" target="_top" xlink:title="Ewaldgpu_tcl.cpp">
<polygon fill="none" stroke="black" points="709,-129 709,-148 810,-148 810,-129 709,-129"/>
<text text-anchor="middle" x="759.5" y="-136" font-family="Helvetica,sans-Serif" font-size="10.00">Ewaldgpu_tcl.cpp</text>
</a>
</g>
</g>
<!-- Node4&#45;&gt;Node39 -->
<g id="edge50" class="edge"><title>Node4&#45;&gt;Node39</title>
<path fill="none" stroke="midnightblue" d="M1510.8,-190.039C1510.7,-190.026 1510.6,-190.013 1510.5,-190 1205.45,-151.077 1123.82,-198.309 819.5,-154 809.85,-152.595 799.479,-150.357 790.119,-148.055"/>
<polygon fill="midnightblue" stroke="midnightblue" points="1510.06,-193.466 1520.47,-191.516 1511.12,-186.546 1510.06,-193.466"/>
</g>
<!-- Node40 -->
<g id="node40" class="node"><title>Node40</title>
<g id="a_node40"><a xlink:href="HarmonicOrientationWell__tcl_8cpp.html" target="_top" xlink:title="HarmonicOrientationWell\l_tcl.cpp">
<polygon fill="none" stroke="black" points="828.5,-123.5 828.5,-153.5 968.5,-153.5 968.5,-123.5 828.5,-123.5"/>
<text text-anchor="start" x="836.5" y="-141.5" font-family="Helvetica,sans-Serif" font-size="10.00">HarmonicOrientationWell</text>
<text text-anchor="middle" x="898.5" y="-130.5" font-family="Helvetica,sans-Serif" font-size="10.00">_tcl.cpp</text>
</a>
</g>
</g>
<!-- Node4&#45;&gt;Node40 -->
<g id="edge51" class="edge"><title>Node4&#45;&gt;Node40</title>
<path fill="none" stroke="midnightblue" d="M1510.8,-190.041C1510.7,-190.028 1510.6,-190.014 1510.5,-190 1275.22,-158.138 1213.09,-183.479 977.5,-154 974.594,-153.636 971.634,-153.235 968.647,-152.804"/>
<polygon fill="midnightblue" stroke="midnightblue" points="1510.04,-193.465 1520.47,-191.569 1511.14,-186.55 1510.04,-193.465"/>
</g>
<!-- Node4&#45;&gt;Node41 -->
<g id="edge52" class="edge"><title>Node4&#45;&gt;Node41</title>
<path fill="none" stroke="midnightblue" d="M1598.86,-197.304C1690.82,-193.342 1908.73,-181.635 2089.5,-154 2099.56,-152.462 2110.38,-150.269 2120.26,-148.051"/>
<polygon fill="midnightblue" stroke="midnightblue" points="1598.64,-193.81 1588.8,-197.728 1598.94,-200.804 1598.64,-193.81"/>
</g>
<!-- Node10 -->
<g id="node10" class="node"><title>Node10</title>
<g id="a_node10"><a xlink:href="pressure_8hpp.html" target="_top" xlink:title="Pressure calculation. ">
<polygon fill="none" stroke="black" points="1442.5,-67.5 1442.5,-86.5 1522.5,-86.5 1522.5,-67.5 1442.5,-67.5"/>
<text text-anchor="middle" x="1482.5" y="-74.5" font-family="Helvetica,sans-Serif" font-size="10.00">pressure.hpp</text>
</a>
</g>
</g>
<!-- Node9&#45;&gt;Node10 -->
<g id="edge10" class="edge"><title>Node9&#45;&gt;Node10</title>
<path fill="none" stroke="midnightblue" d="M1505.89,-120.171C1499.75,-109.108 1492.07,-95.2512 1487.22,-86.5091"/>
<polygon fill="midnightblue" stroke="midnightblue" points="1502.86,-121.928 1510.77,-128.975 1508.98,-118.532 1502.86,-121.928"/>
</g>
<!-- Node9&#45;&gt;Node17 -->
<g id="edge35" class="edge"><title>Node9&#45;&gt;Node17</title>
<path fill="none" stroke="midnightblue" d="M1525.68,-119.902C1540.92,-93.5534 1569.1,-44.8425 1580.51,-25.1232"/>
<polygon fill="midnightblue" stroke="midnightblue" points="1522.51,-118.389 1520.53,-128.798 1528.57,-121.895 1522.51,-118.389"/>
</g>
<!-- Node26 -->
<g id="node26" class="node"><title>Node26</title>
<g id="a_node26"><a xlink:href="minimize__energy_8hpp.html" target="_top" xlink:title="minimize_energy.hpp">
<polygon fill="none" stroke="black" points="522,-67.5 522,-86.5 643,-86.5 643,-67.5 522,-67.5"/>
<text text-anchor="middle" x="582.5" y="-74.5" font-family="Helvetica,sans-Serif" font-size="10.00">minimize_energy.hpp</text>
</a>
</g>
</g>
<!-- Node9&#45;&gt;Node26 -->
<g id="edge27" class="edge"><title>Node9&#45;&gt;Node26</title>
<path fill="none" stroke="midnightblue" d="M1455.02,-127.651C1442.63,-125.888 1429.67,-124.225 1417.5,-123 1128.43,-93.8891 781.033,-82.7922 643.157,-79.335"/>
<polygon fill="midnightblue" stroke="midnightblue" points="1454.85,-131.164 1465.25,-129.148 1455.86,-124.238 1454.85,-131.164"/>
</g>
<!-- Node29 -->
<g id="node29" class="node"><title>Node29</title>
<g id="a_node29"><a xlink:href="constraint_8cpp.html" target="_top" xlink:title="Implementation of constraint.hpp, here it&#39;s just the parsing stuff. ">
<polygon fill="none" stroke="black" points="1988.5,-6 1988.5,-25 2074.5,-25 2074.5,-6 1988.5,-6"/>
<text text-anchor="middle" x="2031.5" y="-13" font-family="Helvetica,sans-Serif" font-size="10.00">constraint.cpp</text>
</a>
</g>
</g>
<!-- Node9&#45;&gt;Node29 -->
<g id="edge32" class="edge"><title>Node9&#45;&gt;Node29</title>
<path fill="none" stroke="midnightblue" d="M1575.56,-132.354C1642.86,-125.678 1754.82,-111.832 1848.5,-87 1910.7,-70.5123 1980.8,-39.9431 2013.24,-25.0713"/>
<polygon fill="midnightblue" stroke="midnightblue" points="1575.17,-128.876 1565.56,-133.326 1575.85,-135.843 1575.17,-128.876"/>
</g>
<!-- Node30 -->
<g id="node30" class="node"><title>Node30</title>
<g id="a_node30"><a xlink:href="forces_8cpp.html" target="_top" xlink:title="Force calculation. ">
<polygon fill="none" stroke="black" points="350,-67.5 350,-86.5 417,-86.5 417,-67.5 350,-67.5"/>
<text text-anchor="middle" x="383.5" y="-74.5" font-family="Helvetica,sans-Serif" font-size="10.00">forces.cpp</text>
</a>
</g>
</g>
<!-- Node9&#45;&gt;Node30 -->
<g id="edge33" class="edge"><title>Node9&#45;&gt;Node30</title>
<path fill="none" stroke="midnightblue" d="M1455.03,-127.484C1442.65,-125.734 1429.68,-124.118 1417.5,-123 978.17,-82.6515 863.309,-141.428 425.5,-87 422.836,-86.6688 420.091,-86.2528 417.339,-85.7823"/>
<polygon fill="midnightblue" stroke="midnightblue" points="1454.87,-130.997 1465.27,-128.978 1455.88,-124.07 1454.87,-130.997"/>
</g>
<!-- Node31 -->
<g id="node31" class="node"><title>Node31</title>
<g id="a_node31"><a xlink:href="ghosts_8cpp.html" target="_top" xlink:title="Ghost particles and particle exchange. ">
<polygon fill="none" stroke="black" points="435,-67.5 435,-86.5 504,-86.5 504,-67.5 435,-67.5"/>
<text text-anchor="middle" x="469.5" y="-74.5" font-family="Helvetica,sans-Serif" font-size="10.00">ghosts.cpp</text>
</a>
</g>
</g>
<!-- Node9&#45;&gt;Node31 -->
<g id="edge34" class="edge"><title>Node9&#45;&gt;Node31</title>
<path fill="none" stroke="midnightblue" d="M1455.03,-127.517C1442.64,-125.764 1429.67,-124.139 1417.5,-123 1016.71,-85.4871 911.997,-136.404 512.5,-87 509.775,-86.663 506.966,-86.2428 504.151,-85.7695"/>
<polygon fill="midnightblue" stroke="midnightblue" points="1454.87,-131.03 1465.27,-129.012 1455.88,-124.104 1454.87,-131.03"/>
</g>
<!-- Node10&#45;&gt;Node8 -->
<g id="edge11" class="edge"><title>Node10&#45;&gt;Node8</title>
<path fill="none" stroke="midnightblue" d="M1432.43,-75.3945C1230.39,-72.7649 474.631,-61.0846 237.5,-31 226.793,-29.6416 215.257,-27.3868 204.872,-25.0555"/>
<polygon fill="midnightblue" stroke="midnightblue" points="1432.42,-78.8945 1442.46,-75.5235 1432.51,-71.8951 1432.42,-78.8945"/>
</g>
<!-- Node10&#45;&gt;Node11 -->
<g id="edge12" class="edge"><title>Node10&#45;&gt;Node11</title>
<path fill="none" stroke="midnightblue" d="M1525.88,-64.9685C1571.32,-53.4147 1641.71,-35.5173 1683.04,-25.0091"/>
<polygon fill="midnightblue" stroke="midnightblue" points="1524.86,-61.6186 1516.03,-67.4751 1526.58,-68.4028 1524.86,-61.6186"/>
</g>
<!-- Node12 -->
<g id="node12" class="node"><title>Node12</title>
<g id="a_node12"><a xlink:href="elc_8cpp.html" target="_top" xlink:title="For more information about ELC, see elc.hpp. ">
<polygon fill="none" stroke="black" points="641,-6 641,-25 692,-25 692,-6 641,-6"/>
<text text-anchor="middle" x="666.5" y="-13" font-family="Helvetica,sans-Serif" font-size="10.00">elc.cpp</text>
</a>
</g>
</g>
<!-- Node10&#45;&gt;Node12 -->
<g id="edge13" class="edge"><title>Node10&#45;&gt;Node12</title>
<path fill="none" stroke="midnightblue" d="M1432.37,-67.4423C1431.07,-67.2853 1429.78,-67.1374 1428.5,-67 1106.41,-32.3133 1016.19,-103.674 700.5,-31 694.747,-29.6756 688.737,-27.4304 683.399,-25.0973"/>
<polygon fill="midnightblue" stroke="midnightblue" points="1432.09,-70.9361 1442.47,-68.798 1433.02,-63.9984 1432.09,-70.9361"/>
</g>
<!-- Node10&#45;&gt;Node13 -->
<g id="edge14" class="edge"><title>Node10&#45;&gt;Node13</title>
<path fill="none" stroke="midnightblue" d="M1532.67,-73.955C1699.54,-67.0566 2229.66,-44.3303 2305.5,-31 2313.39,-29.6135 2321.81,-27.3509 2329.35,-25.0209"/>
<polygon fill="midnightblue" stroke="midnightblue" points="1532.52,-70.4581 1522.68,-74.3673 1532.81,-77.4522 1532.52,-70.4581"/>
</g>
<!-- Node10&#45;&gt;Node14 -->
<g id="edge15" class="edge"><title>Node10&#45;&gt;Node14</title>
<path fill="none" stroke="midnightblue" d="M1432.37,-67.4349C1431.07,-67.2801 1429.78,-67.1347 1428.5,-67 1075.87,-29.7864 981.184,-89.7389 631.5,-31 623.451,-29.6479 614.859,-27.395 607.153,-25.0633"/>
<polygon fill="midnightblue" stroke="midnightblue" points="1432.09,-70.9291 1442.47,-68.7788 1433.02,-63.9902 1432.09,-70.9291"/>
</g>
<!-- Node10&#45;&gt;Node15 -->
<g id="edge16" class="edge"><title>Node10&#45;&gt;Node15</title>
<path fill="none" stroke="midnightblue" d="M1482.19,-57.3165C1482,-46.4962 1481.78,-33.398 1481.64,-25.0091"/>
<polygon fill="midnightblue" stroke="midnightblue" points="1478.69,-57.5354 1482.36,-67.4751 1485.69,-57.4177 1478.69,-57.5354"/>
</g>
<!-- Node10&#45;&gt;Node16 -->
<g id="edge17" class="edge"><title>Node10&#45;&gt;Node16</title>
<path fill="none" stroke="midnightblue" d="M1532.91,-73.6786C1670.07,-67.2069 2047.99,-48.3013 2171.5,-31 2182.11,-29.5141 2193.54,-27.2808 2203.9,-25.0093"/>
<polygon fill="midnightblue" stroke="midnightblue" points="1532.51,-70.1933 1522.69,-74.1588 1532.84,-77.1856 1532.51,-70.1933"/>
</g>
<!-- Node10&#45;&gt;Node17 -->
<g id="edge18" class="edge"><title>Node10&#45;&gt;Node17</title>
<path fill="none" stroke="midnightblue" d="M1506.04,-62.4006C1525.96,-50.8957 1553.88,-34.7667 1570.77,-25.0091"/>
<polygon fill="midnightblue" stroke="midnightblue" points="1504.17,-59.4423 1497.26,-67.4751 1507.67,-65.5036 1504.17,-59.4423"/>
</g>
<!-- Node10&#45;&gt;Node18 -->
<g id="edge19" class="edge"><title>Node10&#45;&gt;Node18</title>
<path fill="none" stroke="midnightblue" d="M1532.57,-71.3051C1595.58,-64.8515 1706.88,-51.6371 1800.5,-31 1807.81,-29.3884 1815.63,-27.2231 1822.78,-25.0582"/>
<polygon fill="midnightblue" stroke="midnightblue" points="1532.11,-67.8341 1522.51,-72.3202 1532.81,-74.7987 1532.11,-67.8341"/>
</g>
<!-- Node19 -->
<g id="node19" class="node"><title>Node19</title>
<g id="a_node19"><a xlink:href="pressure_8cpp.html" target="_top" xlink:title="Implementation of pressure.h. ">
<polygon fill="none" stroke="black" points="710,-6 710,-25 789,-25 789,-6 710,-6"/>
<text text-anchor="middle" x="749.5" y="-13" font-family="Helvetica,sans-Serif" font-size="10.00">pressure.cpp</text>
</a>
</g>
</g>
<!-- Node10&#45;&gt;Node19 -->
<g id="edge20" class="edge"><title>Node10&#45;&gt;Node19</title>
<path fill="none" stroke="midnightblue" d="M1432.37,-67.4553C1431.07,-67.2945 1429.78,-67.1422 1428.5,-67 1149.33,-35.8646 1074.1,-79.9565 797.5,-31 789.614,-29.6042 781.197,-27.3389 773.648,-25.0094"/>
<polygon fill="midnightblue" stroke="midnightblue" points="1432.08,-70.9486 1442.46,-68.832 1433.03,-64.0128 1432.08,-70.9486"/>
</g>
<!-- Node20 -->
<g id="node20" class="node"><title>Node20</title>
<g id="a_node20"><a xlink:href="statistics_8cpp.html" target="_top" xlink:title="This is the place for analysis (so far...). ">
<polygon fill="none" stroke="black" points="807,-6 807,-25 888,-25 888,-6 807,-6"/>
<text text-anchor="middle" x="847.5" y="-13" font-family="Helvetica,sans-Serif" font-size="10.00">statistics.cpp</text>
</a>
</g>
</g>
<!-- Node10&#45;&gt;Node20 -->
<g id="edge21" class="edge"><title>Node10&#45;&gt;Node20</title>
<path fill="none" stroke="midnightblue" d="M1432.37,-67.4737C1431.06,-67.3074 1429.77,-67.149 1428.5,-67 1193.56,-39.5238 1130.43,-72.1781 897.5,-31 889.401,-29.5682 880.742,-27.3221 872.944,-25.0216"/>
<polygon fill="midnightblue" stroke="midnightblue" points="1432.07,-70.9662 1442.46,-68.8801 1433.04,-64.0332 1432.07,-70.9662"/>
</g>
<!-- Node21 -->
<g id="node21" class="node"><title>Node21</title>
<g id="a_node21"><a xlink:href="statistics__observable_8cpp.html" target="_top" xlink:title="statistics_observable.cpp">
<polygon fill="none" stroke="black" points="906.5,-6 906.5,-25 1046.5,-25 1046.5,-6 906.5,-6"/>
<text text-anchor="middle" x="976.5" y="-13" font-family="Helvetica,sans-Serif" font-size="10.00">statistics_observable.cpp</text>
</a>
</g>
</g>
<!-- Node10&#45;&gt;Node21 -->
<g id="edge22" class="edge"><title>Node10&#45;&gt;Node21</title>
<path fill="none" stroke="midnightblue" d="M1432.36,-67.5225C1431.06,-67.3418 1429.77,-67.1672 1428.5,-67 1263.37,-45.2969 1220.44,-54.0543 1055.5,-31 1043.76,-29.3593 1031.11,-27.2096 1019.44,-25.0697"/>
<polygon fill="midnightblue" stroke="midnightblue" points="1432.04,-71.0129 1442.44,-69.0079 1433.06,-64.0877 1432.04,-71.0129"/>
</g>
<!-- Node10&#45;&gt;Node22 -->
<g id="edge23" class="edge"><title>Node10&#45;&gt;Node22</title>
<path fill="none" stroke="midnightblue" d="M1532.64,-74.153C1610.95,-70.4613 1766.68,-59.8709 1895.5,-31 1902.12,-29.5154 1909.16,-27.3381 1915.53,-25.1197"/>
<polygon fill="midnightblue" stroke="midnightblue" points="1532.4,-70.6601 1522.57,-74.6095 1532.71,-77.653 1532.4,-70.6601"/>
</g>
<!-- Node23 -->
<g id="node23" class="node"><title>Node23</title>
<g id="a_node23"><a xlink:href="virtual__sites_8cpp.html" target="_top" xlink:title="virtual_sites.cpp">
<polygon fill="none" stroke="black" points="1065,-6 1065,-25 1162,-25 1162,-6 1065,-6"/>
<text text-anchor="middle" x="1113.5" y="-13" font-family="Helvetica,sans-Serif" font-size="10.00">virtual_sites.cpp</text>
</a>
</g>
</g>
<!-- Node10&#45;&gt;Node23 -->
<g id="edge24" class="edge"><title>Node10&#45;&gt;Node23</title>
<path fill="none" stroke="midnightblue" d="M1432.35,-67.596C1431.05,-67.3935 1429.77,-67.1945 1428.5,-67 1314.5,-49.5178 1284.72,-53.0175 1171.5,-31 1162.84,-29.3158 1153.54,-27.1515 1144.97,-25.0115"/>
<polygon fill="midnightblue" stroke="midnightblue" points="1431.99,-71.0825 1442.41,-69.2 1433.09,-64.1698 1431.99,-71.0825"/>
</g>
<!-- Node24 -->
<g id="node24" class="node"><title>Node24</title>
<g id="a_node24"><a xlink:href="pressure__tcl_8cpp.html" target="_top" xlink:title="pressure_tcl.cpp">
<polygon fill="none" stroke="black" points="1180.5,-6 1180.5,-25 1276.5,-25 1276.5,-6 1180.5,-6"/>
<text text-anchor="middle" x="1228.5" y="-13" font-family="Helvetica,sans-Serif" font-size="10.00">pressure_tcl.cpp</text>
</a>
</g>
</g>
<!-- Node10&#45;&gt;Node24 -->
<g id="edge25" class="edge"><title>Node10&#45;&gt;Node24</title>
<path fill="none" stroke="midnightblue" d="M1433.93,-65.2546C1394.01,-56.3383 1336.01,-43.1913 1285.5,-31 1277.76,-29.1313 1269.44,-27.0552 1261.62,-25.0716"/>
<polygon fill="midnightblue" stroke="midnightblue" points="1433.41,-68.7234 1443.93,-67.4834 1434.93,-61.8912 1433.41,-68.7234"/>
</g>
<!-- Node25 -->
<g id="node25" class="node"><title>Node25</title>
<g id="a_node25"><a xlink:href="statistics__observable__tcl_8cpp.html" target="_top" xlink:title="statistics_observable\l_tcl.cpp">
<polygon fill="none" stroke="black" points="1294.5,-0.5 1294.5,-30.5 1414.5,-30.5 1414.5,-0.5 1294.5,-0.5"/>
<text text-anchor="start" x="1302.5" y="-18.5" font-family="Helvetica,sans-Serif" font-size="10.00">statistics_observable</text>
<text text-anchor="middle" x="1354.5" y="-7.5" font-family="Helvetica,sans-Serif" font-size="10.00">_tcl.cpp</text>
</a>
</g>
</g>
<!-- Node10&#45;&gt;Node25 -->
<g id="edge26" class="edge"><title>Node10&#45;&gt;Node25</title>
<path fill="none" stroke="midnightblue" d="M1454.96,-63.2003C1434.28,-53.5845 1405.96,-40.4232 1384.67,-30.523"/>
<polygon fill="midnightblue" stroke="midnightblue" points="1453.62,-66.4336 1464.16,-67.4751 1456.57,-60.0859 1453.62,-66.4336"/>
</g>
<!-- Node26&#45;&gt;Node8 -->
<g id="edge28" class="edge"><title>Node26&#45;&gt;Node8</title>
<path fill="none" stroke="midnightblue" d="M512.009,-66.8831C413.063,-54.0749 244.214,-32.1732 237.5,-31 227.793,-29.3038 217.35,-27.1596 207.699,-25.044"/>
<polygon fill="midnightblue" stroke="midnightblue" points="511.58,-70.3567 521.947,-68.1693 512.479,-63.4146 511.58,-70.3567"/>
</g>
<!-- Node26&#45;&gt;Node14 -->
<g id="edge29" class="edge"><title>Node26&#45;&gt;Node14</title>
<path fill="none" stroke="midnightblue" d="M582.5,-57.3165C582.5,-46.4962 582.5,-33.398 582.5,-25.0091"/>
<polygon fill="midnightblue" stroke="midnightblue" points="579,-57.4751 582.5,-67.4751 586,-57.4751 579,-57.4751"/>
</g>
<!-- Node27 -->
<g id="node27" class="node"><title>Node27</title>
<g id="a_node27"><a xlink:href="minimize__energy_8cpp.html" target="_top" xlink:title="minimize_energy.cpp">
<polygon fill="none" stroke="black" points="246.5,-6 246.5,-25 366.5,-25 366.5,-6 246.5,-6"/>
<text text-anchor="middle" x="306.5" y="-13" font-family="Helvetica,sans-Serif" font-size="10.00">minimize_energy.cpp</text>
</a>
</g>
</g>
<!-- Node26&#45;&gt;Node27 -->
<g id="edge30" class="edge"><title>Node26&#45;&gt;Node27</title>
<path fill="none" stroke="midnightblue" d="M533.008,-65.3304C479.483,-53.7915 395.227,-35.6277 345.971,-25.0091"/>
<polygon fill="midnightblue" stroke="midnightblue" points="532.443,-68.789 542.956,-67.4751 533.918,-61.9462 532.443,-68.789"/>
</g>
<!-- Node28 -->
<g id="node28" class="node"><title>Node28</title>
<g id="a_node28"><a xlink:href="minimize__energy__tcl_8cpp.html" target="_top" xlink:title="minimize_energy_tcl.cpp">
<polygon fill="none" stroke="black" points="385,-6 385,-25 524,-25 524,-6 385,-6"/>
<text text-anchor="middle" x="454.5" y="-13" font-family="Helvetica,sans-Serif" font-size="10.00">minimize_energy_tcl.cpp</text>
</a>
</g>
</g>
<!-- Node26&#45;&gt;Node28 -->
<g id="edge31" class="edge"><title>Node26&#45;&gt;Node28</title>
<path fill="none" stroke="midnightblue" d="M554.908,-63.1742C530.071,-51.6287 494.271,-34.9875 472.805,-25.0091"/>
<polygon fill="midnightblue" stroke="midnightblue" points="553.617,-66.4336 564.161,-67.4751 556.568,-60.0859 553.617,-66.4336"/>
</g>
<!-- Node43&#45;&gt;Node11 -->
<g id="edge60" class="edge"><title>Node43&#45;&gt;Node11</title>
<path fill="none" stroke="midnightblue" d="M1769.57,-60.9727C1755.99,-49.5925 1737.82,-34.3694 1726.65,-25.0091"/>
<polygon fill="midnightblue" stroke="midnightblue" points="1767.41,-63.7346 1777.33,-67.4751 1771.91,-58.3694 1767.41,-63.7346"/>
</g>
<!-- Node43&#45;&gt;Node17 -->
<g id="edge62" class="edge"><title>Node43&#45;&gt;Node17</title>
<path fill="none" stroke="midnightblue" d="M1747.2,-64.6676C1715.65,-55.7263 1670.7,-42.8313 1631.5,-31 1625.25,-29.113 1618.53,-27.0298 1612.22,-25.0451"/>
<polygon fill="midnightblue" stroke="midnightblue" points="1746.37,-68.0707 1756.94,-67.4253 1748.28,-61.335 1746.37,-68.0707"/>
</g>
<!-- Node43&#45;&gt;Node18 -->
<g id="edge63" class="edge"><title>Node43&#45;&gt;Node18</title>
<path fill="none" stroke="midnightblue" d="M1803.57,-60.3245C1815.16,-49.0202 1830.36,-34.1928 1839.78,-25.0091"/>
<polygon fill="midnightblue" stroke="midnightblue" points="1800.95,-57.9871 1796.24,-67.4751 1805.84,-62.9981 1800.95,-57.9871"/>
</g>
<!-- Node43&#45;&gt;Node22 -->
<g id="edge64" class="edge"><title>Node43&#45;&gt;Node22</title>
<path fill="none" stroke="midnightblue" d="M1818.3,-63.7824C1847.45,-52.2199 1890.45,-35.1641 1916.05,-25.0091"/>
<polygon fill="midnightblue" stroke="midnightblue" points="1817,-60.5345 1808.99,-67.4751 1819.58,-67.0413 1817,-60.5345"/>
</g>
<!-- Node43&#45;&gt;Node29 -->
<g id="edge59" class="edge"><title>Node43&#45;&gt;Node29</title>
<path fill="none" stroke="midnightblue" d="M1835.6,-65.1682C1874.29,-56.3339 1930.01,-43.3413 1978.5,-31 1985.8,-29.1412 1993.65,-27.0488 2001,-25.044"/>
<polygon fill="midnightblue" stroke="midnightblue" points="1834.62,-61.8004 1825.65,-67.4335 1836.18,-68.6257 1834.62,-61.8004"/>
</g>
<!-- Node43&#45;&gt;Node32 -->
<g id="edge61" class="edge"><title>Node43&#45;&gt;Node32</title>
<path fill="none" stroke="midnightblue" d="M1849.73,-69.61C1910.03,-62.6989 2003.81,-50.0466 2083.5,-31 2090.23,-29.3921 2097.4,-27.2281 2103.96,-25.0631"/>
<polygon fill="midnightblue" stroke="midnightblue" points="1849.15,-66.1527 1839.61,-70.752 1849.94,-73.1086 1849.15,-66.1527"/>
</g>
</g>
</svg>
