<?xml version="1.0" encoding="UTF-8" standalone="no"?>
<!DOCTYPE svg PUBLIC "-//W3C//DTD SVG 1.1//EN"
 "http://www.w3.org/Graphics/SVG/1.1/DTD/svg11.dtd">
<!-- Generated by graphviz version 2.38.0 (20140413.2041)
 -->
<!-- Title: mmm1d.cpp Pages: 1 -->
<svg width="1010pt" height="420pt"
 viewBox="0.00 0.00 1010.00 420.00" xmlns="http://www.w3.org/2000/svg" xmlns:xlink="http://www.w3.org/1999/xlink">
<g id="graph0" class="graph" transform="scale(1 1) rotate(0) translate(4 416)">
<title>mmm1d.cpp</title>
<!-- Node1 -->
<g id="node1" class="node"><title>Node1</title>
<polygon fill="#bfbfbf" stroke="black" points="365.998,-392.5 365.998,-411.5 443.998,-411.5 443.998,-392.5 365.998,-392.5"/>
<text text-anchor="middle" x="404.998" y="-399.5" font-family="Helvetica,sans-Serif" font-size="10.00">mmm1d.cpp</text>
</g>
<!-- Node2 -->
<g id="node2" class="node"><title>Node2</title>
<g id="a_node2"><a xlink:href="utils_8hpp.html" target="_top" xlink:title="Small functions that are useful not only for one modul. ">
<polygon fill="none" stroke="black" points="456.498,-168.5 456.498,-187.5 515.498,-187.5 515.498,-168.5 456.498,-168.5"/>
<text text-anchor="middle" x="485.998" y="-175.5" font-family="Helvetica,sans-Serif" font-size="10.00">utils.hpp</text>
</a>
</g>
</g>
<!-- Node1&#45;&gt;Node2 -->
<g id="edge1" class="edge"><title>Node1&#45;&gt;Node2</title>
<path fill="none" stroke="midnightblue" d="M365.99,-398.391C310.951,-393.898 207.856,-382.491 123.998,-356 65.5793,-337.546 -28.1487,-328.718 8.99784,-280 62.1545,-210.285 341.575,-187.263 446.307,-181.015"/>
<polygon fill="midnightblue" stroke="midnightblue" points="446.681,-184.499 456.463,-180.429 446.278,-177.511 446.681,-184.499"/>
</g>
<!-- Node13 -->
<g id="node13" class="node"><title>Node13</title>
<g id="a_node13"><a xlink:href="errorhandling_8hpp.html" target="_top" xlink:title="This file contains the errorhandling code for severe errors, like a broken bond or illegal parameter ...">
<polygon fill="none" stroke="black" points="872.498,-112.5 872.498,-131.5 975.498,-131.5 975.498,-112.5 872.498,-112.5"/>
<text text-anchor="middle" x="923.998" y="-119.5" font-family="Helvetica,sans-Serif" font-size="10.00">errorhandling.hpp</text>
</a>
</g>
</g>
<!-- Node1&#45;&gt;Node13 -->
<g id="edge60" class="edge"><title>Node1&#45;&gt;Node13</title>
<path fill="none" stroke="midnightblue" d="M444.121,-401.414C568.855,-401.697 948.998,-394.101 948.998,-291 948.998,-291 948.998,-291 948.998,-233 948.998,-199.995 938.164,-162.774 930.76,-141.192"/>
<polygon fill="midnightblue" stroke="midnightblue" points="934.026,-139.93 927.369,-131.687 927.433,-142.282 934.026,-139.93"/>
</g>
<!-- Node19 -->
<g id="node19" class="node"><title>Node19</title>
<g id="a_node19"><a xlink:href="mmm1d_8hpp.html" target="_top" xlink:title="MMM1D algorithm for long range coulomb interactions. ">
<polygon fill="none" stroke="black" points="18.4978,-280.5 18.4978,-299.5 97.4978,-299.5 97.4978,-280.5 18.4978,-280.5"/>
<text text-anchor="middle" x="57.9978" y="-287.5" font-family="Helvetica,sans-Serif" font-size="10.00">mmm1d.hpp</text>
</a>
</g>
</g>
<!-- Node1&#45;&gt;Node19 -->
<g id="edge21" class="edge"><title>Node1&#45;&gt;Node19</title>
<path fill="none" stroke="midnightblue" d="M365.888,-397.657C318.156,-392.654 235.578,-380.991 168.998,-356 134.971,-343.228 99.346,-320.424 77.9076,-305.506"/>
<polygon fill="midnightblue" stroke="midnightblue" points="79.818,-302.57 69.6342,-299.648 75.7727,-308.283 79.818,-302.57"/>
</g>
<!-- Node21 -->
<g id="node21" class="node"><title>Node21</title>
<g id="a_node21"><a xlink:href="polynom_8hpp.html" target="_top" xlink:title="Datatypes and functions for polynomials. ">
<polygon fill="none" stroke="black" points="115.998,-280.5 115.998,-299.5 195.998,-299.5 195.998,-280.5 115.998,-280.5"/>
<text text-anchor="middle" x="155.998" y="-287.5" font-family="Helvetica,sans-Serif" font-size="10.00">polynom.hpp</text>
</a>
</g>
</g>
<!-- Node1&#45;&gt;Node21 -->
<g id="edge25" class="edge"><title>Node1&#45;&gt;Node21</title>
<path fill="none" stroke="midnightblue" d="M365.974,-396.944C311.51,-390.611 216.299,-376.893 188.998,-356 173.955,-344.488 165.222,-324.219 160.562,-309.367"/>
<polygon fill="midnightblue" stroke="midnightblue" points="163.926,-308.398 157.857,-299.713 157.185,-310.287 163.926,-308.398"/>
</g>
<!-- Node22 -->
<g id="node22" class="node"><title>Node22</title>
<g id="a_node22"><a xlink:href="specfunc_8hpp.html" target="_top" xlink:title="This file contains implementations for some special functions which are needed by the MMM family of a...">
<polygon fill="none" stroke="black" points="214.498,-280.5 214.498,-299.5 295.498,-299.5 295.498,-280.5 214.498,-280.5"/>
<text text-anchor="middle" x="254.998" y="-287.5" font-family="Helvetica,sans-Serif" font-size="10.00">specfunc.hpp</text>
</a>
</g>
</g>
<!-- Node1&#45;&gt;Node22 -->
<g id="edge27" class="edge"><title>Node1&#45;&gt;Node22</title>
<path fill="none" stroke="midnightblue" d="M394.12,-392.418C378.073,-379.819 347.033,-355.679 319.998,-336 305.711,-325.601 289.353,-314.279 276.622,-305.594"/>
<polygon fill="midnightblue" stroke="midnightblue" points="278.312,-302.511 268.074,-299.786 274.379,-308.301 278.312,-302.511"/>
</g>
<!-- Node23 -->
<g id="node23" class="node"><title>Node23</title>
<g id="a_node23"><a xlink:href="communication_8hpp.html" target="_top" xlink:title="This file contains the asynchronous MPI communication. ">
<polygon fill="none" stroke="black" points="659.498,-280.5 659.498,-299.5 772.498,-299.5 772.498,-280.5 659.498,-280.5"/>
<text text-anchor="middle" x="715.998" y="-287.5" font-family="Helvetica,sans-Serif" font-size="10.00">communication.hpp</text>
</a>
</g>
</g>
<!-- Node1&#45;&gt;Node23 -->
<g id="edge28" class="edge"><title>Node1&#45;&gt;Node23</title>
<path fill="none" stroke="midnightblue" d="M421.138,-392.407C437.758,-383.497 464.353,-369.067 486.998,-356 501.852,-347.428 504.105,-342.445 519.998,-336 561.429,-319.198 610.454,-307.945 649.109,-300.895"/>
<polygon fill="midnightblue" stroke="midnightblue" points="649.975,-304.296 659.21,-299.104 648.753,-297.403 649.975,-304.296"/>
</g>
<!-- Node31 -->
<g id="node31" class="node"><title>Node31</title>
<g id="a_node31"><a xlink:href="cells_8hpp.html" target="_top" xlink:title="This file contains everything related to the cell structure / cell system. ">
<polygon fill="none" stroke="black" points="374.998,-336.5 374.998,-355.5 434.998,-355.5 434.998,-336.5 374.998,-336.5"/>
<text text-anchor="middle" x="404.998" y="-343.5" font-family="Helvetica,sans-Serif" font-size="10.00">cells.hpp</text>
</a>
</g>
</g>
<!-- Node1&#45;&gt;Node31 -->
<g id="edge41" class="edge"><title>Node1&#45;&gt;Node31</title>
<path fill="none" stroke="midnightblue" d="M404.998,-392.083C404.998,-385.006 404.998,-374.861 404.998,-365.986"/>
<polygon fill="midnightblue" stroke="midnightblue" points="408.498,-365.751 404.998,-355.751 401.498,-365.751 408.498,-365.751"/>
</g>
<!-- Node34 -->
<g id="node34" class="node"><title>Node34</title>
<g id="a_node34"><a xlink:href="grid_8hpp.html" target="_top" xlink:title="Domain decomposition for parallel computing. ">
<polygon fill="none" stroke="black" points="772.998,-336.5 772.998,-355.5 828.998,-355.5 828.998,-336.5 772.998,-336.5"/>
<text text-anchor="middle" x="800.998" y="-343.5" font-family="Helvetica,sans-Serif" font-size="10.00">grid.hpp</text>
</a>
</g>
</g>
<!-- Node1&#45;&gt;Node34 -->
<g id="edge48" class="edge"><title>Node1&#45;&gt;Node34</title>
<path fill="none" stroke="midnightblue" d="M444.052,-395.674C520.18,-385.293 687.552,-362.47 762.905,-352.194"/>
<polygon fill="midnightblue" stroke="midnightblue" points="763.473,-355.65 772.908,-350.83 762.527,-348.714 763.473,-355.65"/>
</g>
<!-- Node36 -->
<g id="node36" class="node"><title>Node36</title>
<g id="a_node36"><a xlink:href="tuning_8hpp.html" target="_top" xlink:title="This contains a timing loop for the force calculation. ">
<polygon fill="none" stroke="black" points="528.998,-336.5 528.998,-355.5 596.998,-355.5 596.998,-336.5 528.998,-336.5"/>
<text text-anchor="middle" x="562.998" y="-343.5" font-family="Helvetica,sans-Serif" font-size="10.00">tuning.hpp</text>
</a>
</g>
</g>
<!-- Node1&#45;&gt;Node36 -->
<g id="edge53" class="edge"><title>Node1&#45;&gt;Node36</title>
<path fill="none" stroke="midnightblue" d="M430.033,-392.444C456.614,-383.359 498.807,-368.939 528.521,-358.783"/>
<polygon fill="midnightblue" stroke="midnightblue" points="529.749,-362.062 538.079,-355.516 527.485,-355.439 529.749,-362.062"/>
</g>
<!-- Node37 -->
<g id="node37" class="node"><title>Node37</title>
<g id="a_node37"><a xlink:href="interaction__data_8hpp.html" target="_top" xlink:title="Various procedures concerning interactions between particles. ">
<polygon fill="none" stroke="black" points="524.498,-280.5 524.498,-299.5 641.498,-299.5 641.498,-280.5 524.498,-280.5"/>
<text text-anchor="middle" x="582.998" y="-287.5" font-family="Helvetica,sans-Serif" font-size="10.00">interaction_data.hpp</text>
</a>
</g>
</g>
<!-- Node1&#45;&gt;Node37 -->
<g id="edge54" class="edge"><title>Node1&#45;&gt;Node37</title>
<path fill="none" stroke="midnightblue" d="M414.545,-392.209C429.3,-378.914 458.886,-353.402 486.998,-336 507.617,-323.236 532.438,-311.692 551.675,-303.492"/>
<polygon fill="midnightblue" stroke="midnightblue" points="553.026,-306.721 560.901,-299.633 550.324,-300.264 553.026,-306.721"/>
</g>
<!-- Node38 -->
<g id="node38" class="node"><title>Node38</title>
<g id="a_node38"><a xlink:href="mmm-common_8hpp.html" target="_top" xlink:title="modified polygamma functions. ">
<polygon fill="none" stroke="black" points="198.498,-336.5 198.498,-355.5 311.498,-355.5 311.498,-336.5 198.498,-336.5"/>
<text text-anchor="middle" x="254.998" y="-343.5" font-family="Helvetica,sans-Serif" font-size="10.00">mmm&#45;common.hpp</text>
</a>
</g>
</g>
<!-- Node1&#45;&gt;Node38 -->
<g id="edge57" class="edge"><title>Node1&#45;&gt;Node38</title>
<path fill="none" stroke="midnightblue" d="M381.23,-392.444C356.105,-383.399 316.287,-369.064 288.097,-358.916"/>
<polygon fill="midnightblue" stroke="midnightblue" points="289.249,-355.611 278.655,-355.516 286.878,-362.197 289.249,-355.611"/>
</g>
<!-- Node3 -->
<g id="node3" class="node"><title>Node3</title>
<polygon fill="none" stroke="#bfbfbf" points="638.498,-112.5 638.498,-131.5 685.498,-131.5 685.498,-112.5 638.498,-112.5"/>
<text text-anchor="middle" x="661.998" y="-119.5" font-family="Helvetica,sans-Serif" font-size="10.00">cmath</text>
</g>
<!-- Node2&#45;&gt;Node3 -->
<g id="edge2" class="edge"><title>Node2&#45;&gt;Node3</title>
<path fill="none" stroke="midnightblue" d="M513.886,-168.444C545.069,-158.876 595.543,-143.389 628.753,-133.2"/>
<polygon fill="midnightblue" stroke="midnightblue" points="629.931,-136.5 638.465,-130.22 627.878,-129.808 629.931,-136.5"/>
</g>
<!-- Node4 -->
<g id="node4" class="node"><title>Node4</title>
<polygon fill="none" stroke="#bfbfbf" points="703.998,-112.5 703.998,-131.5 749.998,-131.5 749.998,-112.5 703.998,-112.5"/>
<text text-anchor="middle" x="726.998" y="-119.5" font-family="Helvetica,sans-Serif" font-size="10.00">cstdio</text>
</g>
<!-- Node2&#45;&gt;Node4 -->
<g id="edge3" class="edge"><title>Node2&#45;&gt;Node4</title>
<path fill="none" stroke="midnightblue" d="M515.551,-171.239C554.335,-163.547 624.723,-149.141 694.18,-132.084"/>
<polygon fill="midnightblue" stroke="midnightblue" points="695.105,-135.461 703.971,-129.661 693.423,-128.666 695.105,-135.461"/>
</g>
<!-- Node5 -->
<g id="node5" class="node"><title>Node5</title>
<polygon fill="none" stroke="#bfbfbf" points="173.498,-112.5 173.498,-131.5 222.498,-131.5 222.498,-112.5 173.498,-112.5"/>
<text text-anchor="middle" x="197.998" y="-119.5" font-family="Helvetica,sans-Serif" font-size="10.00">cstdlib</text>
</g>
<!-- Node2&#45;&gt;Node5 -->
<g id="edge4" class="edge"><title>Node2&#45;&gt;Node5</title>
<path fill="none" stroke="midnightblue" d="M456.12,-172.535C410.246,-165.5 319.526,-150.884 232.825,-132.026"/>
<polygon fill="midnightblue" stroke="midnightblue" points="233.34,-128.556 222.822,-129.827 231.837,-135.392 233.34,-128.556"/>
</g>
<!-- Node6 -->
<g id="node6" class="node"><title>Node6</title>
<polygon fill="none" stroke="#bfbfbf" points="240.998,-112.5 240.998,-131.5 290.998,-131.5 290.998,-112.5 240.998,-112.5"/>
<text text-anchor="middle" x="265.998" y="-119.5" font-family="Helvetica,sans-Serif" font-size="10.00">cstring</text>
</g>
<!-- Node2&#45;&gt;Node6 -->
<g id="edge5" class="edge"><title>Node2&#45;&gt;Node6</title>
<path fill="none" stroke="midnightblue" d="M456.328,-169.717C415.935,-159.803 343.769,-142.089 300.848,-131.554"/>
<polygon fill="midnightblue" stroke="midnightblue" points="301.667,-128.151 291.121,-129.167 299.998,-134.95 301.667,-128.151"/>
</g>
<!-- Node7 -->
<g id="node7" class="node"><title>Node7</title>
<g id="a_node7"><a xlink:href="config_8hpp.html" target="_top" xlink:title="This file contains the defaults for Espresso. ">
<polygon fill="none" stroke="black" points="451.498,-56.5 451.498,-75.5 518.498,-75.5 518.498,-56.5 451.498,-56.5"/>
<text text-anchor="middle" x="484.998" y="-63.5" font-family="Helvetica,sans-Serif" font-size="10.00">config.hpp</text>
</a>
</g>
</g>
<!-- Node2&#45;&gt;Node7 -->
<g id="edge6" class="edge"><title>Node2&#45;&gt;Node7</title>
<path fill="none" stroke="midnightblue" d="M456.316,-177.595C421.528,-176.488 365.183,-168.679 337.998,-132 309.025,-92.9078 387.725,-76.9132 440.858,-70.6877"/>
<polygon fill="midnightblue" stroke="midnightblue" points="441.543,-74.1338 451.104,-69.5689 440.783,-67.1751 441.543,-74.1338"/>
</g>
<!-- Node11 -->
<g id="node11" class="node"><title>Node11</title>
<g id="a_node11"><a xlink:href="debug_8hpp.html" target="_top" xlink:title="This file controls debug facilities. ">
<polygon fill="none" stroke="black" points="346.998,-112.5 346.998,-131.5 414.998,-131.5 414.998,-112.5 346.998,-112.5"/>
<text text-anchor="middle" x="380.998" y="-119.5" font-family="Helvetica,sans-Serif" font-size="10.00">debug.hpp</text>
</a>
</g>
</g>
<!-- Node2&#45;&gt;Node11 -->
<g id="edge10" class="edge"><title>Node2&#45;&gt;Node11</title>
<path fill="none" stroke="midnightblue" d="M469.128,-168.324C452.289,-159.664 426.191,-146.242 406.76,-136.249"/>
<polygon fill="midnightblue" stroke="midnightblue" points="408.32,-133.116 397.826,-131.655 405.118,-139.341 408.32,-133.116"/>
</g>
<!-- Node12 -->
<g id="node12" class="node"><title>Node12</title>
<g id="a_node12"><a xlink:href="lees__edwards_8hpp.html" target="_top" xlink:title="lees_edwards.hpp">
<polygon fill="none" stroke="black" points="432.998,-112.5 432.998,-131.5 536.998,-131.5 536.998,-112.5 432.998,-112.5"/>
<text text-anchor="middle" x="484.998" y="-119.5" font-family="Helvetica,sans-Serif" font-size="10.00">lees_edwards.hpp</text>
</a>
</g>
</g>
<!-- Node2&#45;&gt;Node12 -->
<g id="edge12" class="edge"><title>Node2&#45;&gt;Node12</title>
<path fill="none" stroke="midnightblue" d="M485.833,-168.083C485.702,-161.006 485.514,-150.861 485.349,-141.986"/>
<polygon fill="midnightblue" stroke="midnightblue" points="488.845,-141.685 485.16,-131.751 481.846,-141.814 488.845,-141.685"/>
</g>
<!-- Node2&#45;&gt;Node13 -->
<g id="edge14" class="edge"><title>Node2&#45;&gt;Node13</title>
<path fill="none" stroke="midnightblue" d="M515.759,-173.331C586.632,-164.593 766.598,-142.405 862.168,-130.623"/>
<polygon fill="midnightblue" stroke="midnightblue" points="862.773,-134.075 872.27,-129.377 861.916,-127.127 862.773,-134.075"/>
</g>
<!-- Node17 -->
<g id="node17" class="node"><title>Node17</title>
<polygon fill="none" stroke="#bfbfbf" points="768.498,-112.5 768.498,-131.5 815.498,-131.5 815.498,-112.5 768.498,-112.5"/>
<text text-anchor="middle" x="791.998" y="-119.5" font-family="Helvetica,sans-Serif" font-size="10.00">vector</text>
</g>
<!-- Node2&#45;&gt;Node17 -->
<g id="edge19" class="edge"><title>Node2&#45;&gt;Node17</title>
<path fill="none" stroke="midnightblue" d="M515.678,-173.128C564.299,-166.565 664.108,-152.176 758.3,-131.952"/>
<polygon fill="midnightblue" stroke="midnightblue" points="759.249,-135.327 768.277,-129.783 757.762,-128.487 759.249,-135.327"/>
</g>
<!-- Node18 -->
<g id="node18" class="node"><title>Node18</title>
<polygon fill="none" stroke="#bfbfbf" points="555.498,-112.5 555.498,-131.5 620.498,-131.5 620.498,-112.5 555.498,-112.5"/>
<text text-anchor="middle" x="587.998" y="-119.5" font-family="Helvetica,sans-Serif" font-size="10.00">exception</text>
</g>
<!-- Node2&#45;&gt;Node18 -->
<g id="edge20" class="edge"><title>Node2&#45;&gt;Node18</title>
<path fill="none" stroke="midnightblue" d="M502.386,-168.324C518.669,-159.703 543.865,-146.364 562.714,-136.386"/>
<polygon fill="midnightblue" stroke="midnightblue" points="564.45,-139.427 571.65,-131.655 561.175,-133.24 564.45,-139.427"/>
</g>
<!-- Node8 -->
<g id="node8" class="node"><title>Node8</title>
<g id="a_node8"><a xlink:href="acconfig_8hpp.html" target="_top" xlink:title="acconfig.hpp">
<polygon fill="none" stroke="black" points="334.998,-0.5 334.998,-19.5 412.998,-19.5 412.998,-0.5 334.998,-0.5"/>
<text text-anchor="middle" x="373.998" y="-7.5" font-family="Helvetica,sans-Serif" font-size="10.00">acconfig.hpp</text>
</a>
</g>
</g>
<!-- Node7&#45;&gt;Node8 -->
<g id="edge7" class="edge"><title>Node7&#45;&gt;Node8</title>
<path fill="none" stroke="midnightblue" d="M467.164,-56.324C449.282,-47.6247 421.523,-34.1202 400.952,-24.113"/>
<polygon fill="midnightblue" stroke="midnightblue" points="402.311,-20.8819 391.788,-19.6545 399.249,-27.1765 402.311,-20.8819"/>
</g>
<!-- Node9 -->
<g id="node9" class="node"><title>Node9</title>
<g id="a_node9"><a xlink:href="myconfig-final_8hpp.html" target="_top" xlink:title="myconfig&#45;final.hpp">
<polygon fill="none" stroke="black" points="431.498,-0.5 431.498,-19.5 538.498,-19.5 538.498,-0.5 431.498,-0.5"/>
<text text-anchor="middle" x="484.998" y="-7.5" font-family="Helvetica,sans-Serif" font-size="10.00">myconfig&#45;final.hpp</text>
</a>
</g>
</g>
<!-- Node7&#45;&gt;Node9 -->
<g id="edge8" class="edge"><title>Node7&#45;&gt;Node9</title>
<path fill="none" stroke="midnightblue" d="M484.998,-56.083C484.998,-49.0059 484.998,-38.8611 484.998,-29.9865"/>
<polygon fill="midnightblue" stroke="midnightblue" points="488.498,-29.751 484.998,-19.7511 481.498,-29.7511 488.498,-29.751"/>
</g>
<!-- Node10 -->
<g id="node10" class="node"><title>Node10</title>
<g id="a_node10"><a xlink:href="config-features_8hpp.html" target="_top" xlink:title="config&#45;features.hpp">
<polygon fill="none" stroke="black" points="556.498,-0.5 556.498,-19.5 667.498,-19.5 667.498,-0.5 556.498,-0.5"/>
<text text-anchor="middle" x="611.998" y="-7.5" font-family="Helvetica,sans-Serif" font-size="10.00">config&#45;features.hpp</text>
</a>
</g>
</g>
<!-- Node7&#45;&gt;Node10 -->
<g id="edge9" class="edge"><title>Node7&#45;&gt;Node10</title>
<path fill="none" stroke="midnightblue" d="M505.121,-56.4435C526.022,-47.5566 558.933,-33.5632 582.714,-23.4514"/>
<polygon fill="midnightblue" stroke="midnightblue" points="584.135,-26.6504 591.968,-19.5164 581.396,-20.2085 584.135,-26.6504"/>
</g>
<!-- Node11&#45;&gt;Node7 -->
<g id="edge11" class="edge"><title>Node11&#45;&gt;Node7</title>
<path fill="none" stroke="midnightblue" d="M397.707,-112.324C414.31,-103.703 440,-90.3643 459.218,-80.3855"/>
<polygon fill="midnightblue" stroke="midnightblue" points="461.068,-83.3689 468.33,-75.6545 457.842,-77.1565 461.068,-83.3689"/>
</g>
<!-- Node12&#45;&gt;Node7 -->
<g id="edge13" class="edge"><title>Node12&#45;&gt;Node7</title>
<path fill="none" stroke="midnightblue" d="M484.998,-112.083C484.998,-105.006 484.998,-94.8611 484.998,-85.9865"/>
<polygon fill="midnightblue" stroke="midnightblue" points="488.498,-85.751 484.998,-75.7511 481.498,-85.7511 488.498,-85.751"/>
</g>
<!-- Node13&#45;&gt;Node7 -->
<g id="edge15" class="edge"><title>Node13&#45;&gt;Node7</title>
<path fill="none" stroke="midnightblue" d="M872.485,-113.897C867.59,-113.246 862.701,-112.604 857.998,-112 739.08,-96.7196 598.631,-80.1825 528.879,-72.0713"/>
<polygon fill="midnightblue" stroke="midnightblue" points="529.046,-68.5672 518.709,-70.89 528.238,-75.5204 529.046,-68.5672"/>
</g>
<!-- Node14 -->
<g id="node14" class="node"><title>Node14</title>
<polygon fill="none" stroke="#bfbfbf" points="957.998,-56.5 957.998,-75.5 1002,-75.5 1002,-56.5 957.998,-56.5"/>
<text text-anchor="middle" x="979.998" y="-63.5" font-family="Helvetica,sans-Serif" font-size="10.00">string</text>
</g>
<!-- Node13&#45;&gt;Node14 -->
<g id="edge16" class="edge"><title>Node13&#45;&gt;Node14</title>
<path fill="none" stroke="midnightblue" d="M932.995,-112.324C941.192,-104.42 953.503,-92.5482 963.47,-82.9377"/>
<polygon fill="midnightblue" stroke="midnightblue" points="966.068,-85.2947 970.837,-75.8339 961.209,-80.2558 966.068,-85.2947"/>
</g>
<!-- Node15 -->
<g id="node15" class="node"><title>Node15</title>
<polygon fill="none" stroke="#bfbfbf" points="833.998,-56.5 833.998,-75.5 889.998,-75.5 889.998,-56.5 833.998,-56.5"/>
<text text-anchor="middle" x="861.998" y="-63.5" font-family="Helvetica,sans-Serif" font-size="10.00">sstream</text>
</g>
<!-- Node13&#45;&gt;Node15 -->
<g id="edge17" class="edge"><title>Node13&#45;&gt;Node15</title>
<path fill="none" stroke="midnightblue" d="M914.036,-112.324C904.871,-104.341 891.061,-92.3128 879.97,-82.6529"/>
<polygon fill="midnightblue" stroke="midnightblue" points="881.98,-79.7624 872.14,-75.8339 877.383,-85.041 881.98,-79.7624"/>
</g>
<!-- Node16 -->
<g id="node16" class="node"><title>Node16</title>
<polygon fill="none" stroke="#bfbfbf" points="907.998,-56.5 907.998,-75.5 939.998,-75.5 939.998,-56.5 907.998,-56.5"/>
<text text-anchor="middle" x="923.998" y="-63.5" font-family="Helvetica,sans-Serif" font-size="10.00">list</text>
</g>
<!-- Node13&#45;&gt;Node16 -->
<g id="edge18" class="edge"><title>Node13&#45;&gt;Node16</title>
<path fill="none" stroke="midnightblue" d="M923.998,-112.083C923.998,-105.006 923.998,-94.8611 923.998,-85.9865"/>
<polygon fill="midnightblue" stroke="midnightblue" points="927.498,-85.751 923.998,-75.7511 920.498,-85.7511 927.498,-85.751"/>
</g>
<!-- Node19&#45;&gt;Node2 -->
<g id="edge22" class="edge"><title>Node19&#45;&gt;Node2</title>
<path fill="none" stroke="midnightblue" d="M85.9403,-280.483C128.792,-267.548 213.406,-242.499 285.998,-224 341.36,-209.892 405.932,-195.783 446.395,-187.222"/>
<polygon fill="midnightblue" stroke="midnightblue" points="447.328,-190.602 456.392,-185.116 445.885,-183.752 447.328,-190.602"/>
</g>
<!-- Node20 -->
<g id="node20" class="node"><title>Node20</title>
<g id="a_node20"><a xlink:href="particle__data_8hpp.html" target="_top" xlink:title="For more information on particle_data, see particle_data.c. ">
<polygon fill="none" stroke="black" points="357.498,-224.5 357.498,-243.5 458.498,-243.5 458.498,-224.5 357.498,-224.5"/>
<text text-anchor="middle" x="407.998" y="-231.5" font-family="Helvetica,sans-Serif" font-size="10.00">particle_data.hpp</text>
</a>
</g>
</g>
<!-- Node19&#45;&gt;Node20 -->
<g id="edge23" class="edge"><title>Node19&#45;&gt;Node20</title>
<path fill="none" stroke="midnightblue" d="M97.5584,-281.617C100.75,-281.057 103.926,-280.512 106.998,-280 190.017,-266.174 286.256,-252.132 347.123,-243.495"/>
<polygon fill="midnightblue" stroke="midnightblue" points="347.912,-246.919 357.322,-242.052 346.931,-239.988 347.912,-246.919"/>
</g>
<!-- Node20&#45;&gt;Node2 -->
<g id="edge24" class="edge"><title>Node20&#45;&gt;Node2</title>
<path fill="none" stroke="midnightblue" d="M420.53,-224.324C432.584,-215.979 451.025,-203.212 465.267,-193.352"/>
<polygon fill="midnightblue" stroke="midnightblue" points="467.267,-196.224 473.497,-187.655 463.283,-190.469 467.267,-196.224"/>
</g>
<!-- Node21&#45;&gt;Node2 -->
<g id="edge26" class="edge"><title>Node21&#45;&gt;Node2</title>
<path fill="none" stroke="midnightblue" d="M180.822,-280.497C217.384,-267.996 287.885,-243.976 347.998,-224 382.501,-212.534 421.947,-199.699 449.805,-190.679"/>
<polygon fill="midnightblue" stroke="midnightblue" points="451.076,-193.947 459.513,-187.539 448.922,-187.287 451.076,-193.947"/>
</g>
<!-- Node23&#45;&gt;Node20 -->
<g id="edge29" class="edge"><title>Node23&#45;&gt;Node20</title>
<path fill="none" stroke="midnightblue" d="M667.194,-280.444C612.789,-270.905 524.829,-255.483 466.706,-245.293"/>
<polygon fill="midnightblue" stroke="midnightblue" points="467.027,-241.796 456.573,-243.516 465.818,-248.691 467.027,-241.796"/>
</g>
<!-- Node24 -->
<g id="node24" class="node"><title>Node24</title>
<g id="a_node24"><a xlink:href="random_8hpp.html" target="_top" xlink:title="A random generator. ">
<polygon fill="none" stroke="black" points="515.498,-224.5 515.498,-243.5 590.498,-243.5 590.498,-224.5 515.498,-224.5"/>
<text text-anchor="middle" x="552.998" y="-231.5" font-family="Helvetica,sans-Serif" font-size="10.00">random.hpp</text>
</a>
</g>
</g>
<!-- Node23&#45;&gt;Node24 -->
<g id="edge30" class="edge"><title>Node23&#45;&gt;Node24</title>
<path fill="none" stroke="midnightblue" d="M690.17,-280.444C662.748,-271.359 619.22,-256.939 588.565,-246.783"/>
<polygon fill="midnightblue" stroke="midnightblue" points="589.298,-243.339 578.705,-243.516 587.097,-249.984 589.298,-243.339"/>
</g>
<!-- Node25 -->
<g id="node25" class="node"><title>Node25</title>
<g id="a_node25"><a xlink:href="topology_8hpp.html" target="_top" xlink:title="This file contains functions for handling the system topology. ">
<polygon fill="none" stroke="black" points="608.498,-224.5 608.498,-243.5 687.498,-243.5 687.498,-224.5 608.498,-224.5"/>
<text text-anchor="middle" x="647.998" y="-231.5" font-family="Helvetica,sans-Serif" font-size="10.00">topology.hpp</text>
</a>
</g>
</g>
<!-- Node23&#45;&gt;Node25 -->
<g id="edge32" class="edge"><title>Node23&#45;&gt;Node25</title>
<path fill="none" stroke="midnightblue" d="M705.072,-280.324C694.823,-272.185 679.277,-259.839 666.997,-250.087"/>
<polygon fill="midnightblue" stroke="midnightblue" points="669.13,-247.312 659.122,-243.834 664.777,-252.794 669.13,-247.312"/>
</g>
<!-- Node26 -->
<g id="node26" class="node"><title>Node26</title>
<g id="a_node26"><a xlink:href="mpi_8h.html" target="_top" xlink:title="This is the MPIfake implementation. ">
<polygon fill="none" stroke="black" points="743.998,-224.5 743.998,-243.5 787.998,-243.5 787.998,-224.5 743.998,-224.5"/>
<text text-anchor="middle" x="765.998" y="-231.5" font-family="Helvetica,sans-Serif" font-size="10.00">mpi.h</text>
</a>
</g>
</g>
<!-- Node23&#45;&gt;Node26 -->
<g id="edge34" class="edge"><title>Node23&#45;&gt;Node26</title>
<path fill="none" stroke="midnightblue" d="M724.254,-280.083C731.463,-272.298 742.108,-260.801 750.844,-251.367"/>
<polygon fill="midnightblue" stroke="midnightblue" points="753.669,-253.467 757.895,-243.751 748.533,-248.711 753.669,-253.467"/>
</g>
<!-- Node30 -->
<g id="node30" class="node"><title>Node30</title>
<g id="a_node30"><a xlink:href="cuda__init_8hpp.html" target="_top" xlink:title="cuda_init.hpp">
<polygon fill="none" stroke="black" points="800.998,-168.5 800.998,-187.5 882.998,-187.5 882.998,-168.5 800.998,-168.5"/>
<text text-anchor="middle" x="841.998" y="-175.5" font-family="Helvetica,sans-Serif" font-size="10.00">cuda_init.hpp</text>
</a>
</g>
</g>
<!-- Node23&#45;&gt;Node30 -->
<g id="edge38" class="edge"><title>Node23&#45;&gt;Node30</title>
<path fill="none" stroke="midnightblue" d="M737.311,-280.422C754.71,-272.698 779.235,-260.095 796.998,-244 812.057,-230.355 824.75,-210.75 832.776,-196.644"/>
<polygon fill="midnightblue" stroke="midnightblue" points="836.043,-197.963 837.762,-187.509 829.899,-194.609 836.043,-197.963"/>
</g>
<!-- Node24&#45;&gt;Node2 -->
<g id="edge31" class="edge"><title>Node24&#45;&gt;Node2</title>
<path fill="none" stroke="midnightblue" d="M542.233,-224.324C532.232,-216.263 517.111,-204.077 505.067,-194.369"/>
<polygon fill="midnightblue" stroke="midnightblue" points="506.941,-191.384 496.958,-187.834 502.548,-196.834 506.941,-191.384"/>
</g>
<!-- Node25&#45;&gt;Node2 -->
<g id="edge33" class="edge"><title>Node25&#45;&gt;Node2</title>
<path fill="none" stroke="midnightblue" d="M622.328,-224.444C595.075,-215.359 551.814,-200.939 521.347,-190.783"/>
<polygon fill="midnightblue" stroke="midnightblue" points="522.141,-187.358 511.547,-187.516 519.927,-193.999 522.141,-187.358"/>
</g>
<!-- Node27 -->
<g id="node27" class="node"><title>Node27</title>
<polygon fill="none" stroke="#bfbfbf" points="589.498,-168.5 589.498,-187.5 642.498,-187.5 642.498,-168.5 589.498,-168.5"/>
<text text-anchor="middle" x="615.998" y="-175.5" font-family="Helvetica,sans-Serif" font-size="10.00">string.h</text>
</g>
<!-- Node26&#45;&gt;Node27 -->
<g id="edge35" class="edge"><title>Node26&#45;&gt;Node27</title>
<path fill="none" stroke="midnightblue" d="M743.865,-225.032C718.933,-216.057 678.144,-201.373 649.348,-191.006"/>
<polygon fill="midnightblue" stroke="midnightblue" points="650.303,-187.63 639.709,-187.536 647.932,-194.216 650.303,-187.63"/>
</g>
<!-- Node28 -->
<g id="node28" class="node"><title>Node28</title>
<polygon fill="none" stroke="#bfbfbf" points="660.998,-168.5 660.998,-187.5 710.998,-187.5 710.998,-168.5 660.998,-168.5"/>
<text text-anchor="middle" x="685.998" y="-175.5" font-family="Helvetica,sans-Serif" font-size="10.00">stdio.h</text>
</g>
<!-- Node26&#45;&gt;Node28 -->
<g id="edge36" class="edge"><title>Node26&#45;&gt;Node28</title>
<path fill="none" stroke="midnightblue" d="M753.144,-224.324C740.781,-215.979 721.868,-203.212 707.261,-193.352"/>
<polygon fill="midnightblue" stroke="midnightblue" points="709.066,-190.348 698.819,-187.655 705.15,-196.15 709.066,-190.348"/>
</g>
<!-- Node29 -->
<g id="node29" class="node"><title>Node29</title>
<polygon fill="none" stroke="#bfbfbf" points="729.498,-168.5 729.498,-187.5 782.498,-187.5 782.498,-168.5 729.498,-168.5"/>
<text text-anchor="middle" x="755.998" y="-175.5" font-family="Helvetica,sans-Serif" font-size="10.00">stdlib.h</text>
</g>
<!-- Node26&#45;&gt;Node29 -->
<g id="edge37" class="edge"><title>Node26&#45;&gt;Node29</title>
<path fill="none" stroke="midnightblue" d="M764.347,-224.083C763.021,-216.927 761.115,-206.635 759.459,-197.691"/>
<polygon fill="midnightblue" stroke="midnightblue" points="762.881,-196.947 757.618,-187.751 755.998,-198.221 762.881,-196.947"/>
</g>
<!-- Node30&#45;&gt;Node7 -->
<g id="edge39" class="edge"><title>Node30&#45;&gt;Node7</title>
<path fill="none" stroke="midnightblue" d="M842.528,-168.299C842.866,-154.166 841.262,-126.359 824.998,-112 781.96,-74.0021 610.831,-67.716 529.012,-66.9271"/>
<polygon fill="midnightblue" stroke="midnightblue" points="528.576,-63.424 518.551,-66.8517 528.526,-70.4238 528.576,-63.424"/>
</g>
<!-- Node30&#45;&gt;Node17 -->
<g id="edge40" class="edge"><title>Node30&#45;&gt;Node17</title>
<path fill="none" stroke="midnightblue" d="M833.741,-168.083C826.533,-160.298 815.888,-148.801 807.152,-139.367"/>
<polygon fill="midnightblue" stroke="midnightblue" points="809.463,-136.711 800.101,-131.751 804.327,-141.467 809.463,-136.711"/>
</g>
<!-- Node31&#45;&gt;Node20 -->
<g id="edge42" class="edge"><title>Node31&#45;&gt;Node20</title>
<path fill="none" stroke="midnightblue" d="M405.233,-336.368C405.717,-318.617 406.834,-277.666 407.491,-253.597"/>
<polygon fill="midnightblue" stroke="midnightblue" points="410.99,-253.683 407.764,-243.591 403.992,-253.492 410.99,-253.683"/>
</g>
<!-- Node32 -->
<g id="node32" class="node"><title>Node32</title>
<g id="a_node32"><a xlink:href="ghosts_8hpp.html" target="_top" xlink:title="Ghost particles and particle exchange. ">
<polygon fill="none" stroke="black" points="435.998,-280.5 435.998,-299.5 505.998,-299.5 505.998,-280.5 435.998,-280.5"/>
<text text-anchor="middle" x="470.998" y="-287.5" font-family="Helvetica,sans-Serif" font-size="10.00">ghosts.hpp</text>
</a>
</g>
</g>
<!-- Node31&#45;&gt;Node32 -->
<g id="edge43" class="edge"><title>Node31&#45;&gt;Node32</title>
<path fill="none" stroke="midnightblue" d="M415.602,-336.324C425.454,-328.263 440.349,-316.077 452.213,-306.369"/>
<polygon fill="midnightblue" stroke="midnightblue" points="454.678,-308.875 460.201,-299.834 450.245,-303.457 454.678,-308.875"/>
</g>
<!-- Node33 -->
<g id="node33" class="node"><title>Node33</title>
<g id="a_node33"><a xlink:href="verlet_8hpp.html" target="_top" xlink:title="This file contains routines to setup and handle interaction pair lists (verlet pair lists) for the no...">
<polygon fill="none" stroke="black" points="313.998,-280.5 313.998,-299.5 379.998,-299.5 379.998,-280.5 313.998,-280.5"/>
<text text-anchor="middle" x="346.998" y="-287.5" font-family="Helvetica,sans-Serif" font-size="10.00">verlet.hpp</text>
</a>
</g>
</g>
<!-- Node31&#45;&gt;Node33 -->
<g id="edge46" class="edge"><title>Node31&#45;&gt;Node33</title>
<path fill="none" stroke="midnightblue" d="M395.679,-336.324C387.105,-328.341 374.186,-316.313 363.81,-306.653"/>
<polygon fill="midnightblue" stroke="midnightblue" points="366.19,-304.086 356.486,-299.834 361.42,-309.21 366.19,-304.086"/>
</g>
<!-- Node32&#45;&gt;Node20 -->
<g id="edge45" class="edge"><title>Node32&#45;&gt;Node20</title>
<path fill="none" stroke="midnightblue" d="M460.876,-280.324C451.471,-272.263 437.254,-260.077 425.929,-250.369"/>
<polygon fill="midnightblue" stroke="midnightblue" points="428.174,-247.684 418.304,-243.834 423.619,-252.999 428.174,-247.684"/>
</g>
<!-- Node32&#45;&gt;Node26 -->
<g id="edge44" class="edge"><title>Node32&#45;&gt;Node26</title>
<path fill="none" stroke="midnightblue" d="M506.047,-281.751C509.073,-281.149 512.088,-280.558 514.998,-280 593.414,-264.953 685.924,-248.772 733.746,-240.523"/>
<polygon fill="midnightblue" stroke="midnightblue" points="734.543,-243.938 743.804,-238.792 733.355,-237.039 734.543,-243.938"/>
</g>
<!-- Node33&#45;&gt;Node20 -->
<g id="edge47" class="edge"><title>Node33&#45;&gt;Node20</title>
<path fill="none" stroke="midnightblue" d="M356.799,-280.324C365.816,-272.341 379.404,-260.313 390.316,-250.653"/>
<polygon fill="midnightblue" stroke="midnightblue" points="392.851,-253.083 398.019,-243.834 388.211,-247.842 392.851,-253.083"/>
</g>
<!-- Node34&#45;&gt;Node2 -->
<g id="edge49" class="edge"><title>Node34&#45;&gt;Node2</title>
<path fill="none" stroke="midnightblue" d="M800.352,-336.152C798.979,-322.783 794.759,-297.176 781.998,-280 768.397,-261.694 717.055,-232.758 695.998,-224 639.385,-200.455 568.854,-188.59 525.645,-183.116"/>
<polygon fill="midnightblue" stroke="midnightblue" points="525.886,-179.619 515.537,-181.889 525.042,-186.568 525.886,-179.619"/>
</g>
<!-- Node34&#45;&gt;Node13 -->
<g id="edge52" class="edge"><title>Node34&#45;&gt;Node13</title>
<path fill="none" stroke="midnightblue" d="M829.143,-337.497C848.619,-330.839 873.544,-319.13 887.998,-300 924.174,-252.121 926.381,-176.916 925.19,-141.994"/>
<polygon fill="midnightblue" stroke="midnightblue" points="928.676,-141.614 924.7,-131.793 921.684,-141.95 928.676,-141.614"/>
</g>
<!-- Node34&#45;&gt;Node23 -->
<g id="edge51" class="edge"><title>Node34&#45;&gt;Node23</title>
<path fill="none" stroke="midnightblue" d="M787.341,-336.324C774.082,-327.9 753.73,-314.971 738.152,-305.074"/>
<polygon fill="midnightblue" stroke="midnightblue" points="739.938,-302.063 729.621,-299.655 736.185,-307.971 739.938,-302.063"/>
</g>
<!-- Node35 -->
<g id="node35" class="node"><title>Node35</title>
<polygon fill="none" stroke="#bfbfbf" points="828.998,-280.5 828.998,-299.5 878.998,-299.5 878.998,-280.5 828.998,-280.5"/>
<text text-anchor="middle" x="853.998" y="-287.5" font-family="Helvetica,sans-Serif" font-size="10.00">climits</text>
</g>
<!-- Node34&#45;&gt;Node35 -->
<g id="edge50" class="edge"><title>Node34&#45;&gt;Node35</title>
<path fill="none" stroke="midnightblue" d="M809.75,-336.083C817.468,-328.22 828.903,-316.569 838.214,-307.081"/>
<polygon fill="midnightblue" stroke="midnightblue" points="840.902,-309.34 845.409,-299.751 835.906,-304.436 840.902,-309.34"/>
</g>
<!-- Node37&#45;&gt;Node2 -->
<g id="edge55" class="edge"><title>Node37&#45;&gt;Node2</title>
<path fill="none" stroke="midnightblue" d="M558.914,-280.427C541.852,-273.192 519.655,-261.231 505.998,-244 495.466,-230.712 490.456,-211.877 488.088,-197.901"/>
<polygon fill="midnightblue" stroke="midnightblue" points="491.545,-197.354 486.699,-187.932 484.612,-198.32 491.545,-197.354"/>
</g>
<!-- Node37&#45;&gt;Node20 -->
<g id="edge56" class="edge"><title>Node37&#45;&gt;Node20</title>
<path fill="none" stroke="midnightblue" d="M555.269,-280.444C525.572,-271.28 478.282,-256.688 445.329,-246.519"/>
<polygon fill="midnightblue" stroke="midnightblue" points="446.185,-243.121 435.597,-243.516 444.121,-249.809 446.185,-243.121"/>
</g>
<!-- Node38&#45;&gt;Node21 -->
<g id="edge58" class="edge"><title>Node38&#45;&gt;Node21</title>
<path fill="none" stroke="midnightblue" d="M239.092,-336.324C223.36,-327.743 199.055,-314.486 180.789,-304.522"/>
<polygon fill="midnightblue" stroke="midnightblue" points="182.319,-301.37 171.864,-299.655 178.967,-307.516 182.319,-301.37"/>
</g>
<!-- Node38&#45;&gt;Node22 -->
<g id="edge59" class="edge"><title>Node38&#45;&gt;Node22</title>
<path fill="none" stroke="midnightblue" d="M254.998,-336.083C254.998,-329.006 254.998,-318.861 254.998,-309.986"/>
<polygon fill="midnightblue" stroke="midnightblue" points="258.498,-309.751 254.998,-299.751 251.498,-309.751 258.498,-309.751"/>
</g>
</g>
</svg>
