<?xml version="1.0" encoding="UTF-8" standalone="no"?>
<!DOCTYPE svg PUBLIC "-//W3C//DTD SVG 1.1//EN"
 "http://www.w3.org/Graphics/SVG/1.1/DTD/svg11.dtd">
<!-- Generated by graphviz version 2.38.0 (20140413.2041)
 -->
<!-- Title: mmm1d_tcl.cpp Pages: 1 -->
<svg width="1262pt" height="420pt"
 viewBox="0.00 0.00 1262.00 420.00" xmlns="http://www.w3.org/2000/svg" xmlns:xlink="http://www.w3.org/1999/xlink">
<g id="graph0" class="graph" transform="scale(1 1) rotate(0) translate(4 416)">
<title>mmm1d_tcl.cpp</title>
<!-- Node1 -->
<g id="node1" class="node"><title>Node1</title>
<polygon fill="#bfbfbf" stroke="black" points="743.5,-392.5 743.5,-411.5 838.5,-411.5 838.5,-392.5 743.5,-392.5"/>
<text text-anchor="middle" x="791" y="-399.5" font-family="Helvetica,sans-Serif" font-size="10.00">mmm1d_tcl.cpp</text>
</g>
<!-- Node2 -->
<g id="node2" class="node"><title>Node2</title>
<g id="a_node2"><a xlink:href="mpi_8h.html" target="_top" xlink:title="This is the MPIfake implementation. ">
<polygon fill="none" stroke="black" points="73,-224.5 73,-243.5 117,-243.5 117,-224.5 73,-224.5"/>
<text text-anchor="middle" x="95" y="-231.5" font-family="Helvetica,sans-Serif" font-size="10.00">mpi.h</text>
</a>
</g>
</g>
<!-- Node1&#45;&gt;Node2 -->
<g id="edge1" class="edge"><title>Node1&#45;&gt;Node2</title>
<path fill="none" stroke="midnightblue" d="M743.199,-401.216C644.04,-400.799 409.188,-395.318 217,-356 140.717,-340.394 96.4131,-363.248 51,-300 38.8173,-283.033 56.9978,-263.081 73.5489,-249.802"/>
<polygon fill="midnightblue" stroke="midnightblue" points="76.0077,-252.331 81.8861,-243.517 71.794,-246.742 76.0077,-252.331"/>
</g>
<!-- Node6 -->
<g id="node6" class="node"><title>Node6</title>
<polygon fill="none" stroke="#bfbfbf" points="1092,-280.5 1092,-299.5 1130,-299.5 1130,-280.5 1092,-280.5"/>
<text text-anchor="middle" x="1111" y="-287.5" font-family="Helvetica,sans-Serif" font-size="10.00">tcl.h</text>
</g>
<!-- Node1&#45;&gt;Node6 -->
<g id="edge5" class="edge"><title>Node1&#45;&gt;Node6</title>
<path fill="none" stroke="midnightblue" d="M838.718,-400.053C914.15,-397.571 1056.18,-388.577 1093,-356 1106,-344.5 1109.98,-324.528 1111.03,-309.748"/>
<polygon fill="midnightblue" stroke="midnightblue" points="1114.53,-309.795 1111.36,-299.685 1107.53,-309.565 1114.53,-309.795"/>
</g>
<!-- Node7 -->
<g id="node7" class="node"><title>Node7</title>
<g id="a_node7"><a xlink:href="utils_8hpp.html" target="_top" xlink:title="Small functions that are useful not only for one modul. ">
<polygon fill="none" stroke="black" points="617.5,-168.5 617.5,-187.5 676.5,-187.5 676.5,-168.5 617.5,-168.5"/>
<text text-anchor="middle" x="647" y="-175.5" font-family="Helvetica,sans-Serif" font-size="10.00">utils.hpp</text>
</a>
</g>
</g>
<!-- Node1&#45;&gt;Node7 -->
<g id="edge6" class="edge"><title>Node1&#45;&gt;Node7</title>
<path fill="none" stroke="midnightblue" d="M828.57,-392.39C892.073,-376.054 1009.84,-337.023 968,-280 934.222,-233.962 764.873,-199.343 686.682,-185.547"/>
<polygon fill="midnightblue" stroke="midnightblue" points="687.174,-182.08 676.722,-183.816 685.975,-188.977 687.174,-182.08"/>
</g>
<!-- Node18 -->
<g id="node18" class="node"><title>Node18</title>
<g id="a_node18"><a xlink:href="errorhandling_8hpp.html" target="_top" xlink:title="This file contains the errorhandling code for severe errors, like a broken bond or illegal parameter ...">
<polygon fill="none" stroke="black" points="1002.5,-112.5 1002.5,-131.5 1105.5,-131.5 1105.5,-112.5 1002.5,-112.5"/>
<text text-anchor="middle" x="1054" y="-119.5" font-family="Helvetica,sans-Serif" font-size="10.00">errorhandling.hpp</text>
</a>
</g>
</g>
<!-- Node1&#45;&gt;Node18 -->
<g id="edge66" class="edge"><title>Node1&#45;&gt;Node18</title>
<path fill="none" stroke="midnightblue" d="M838.774,-398.987C916.962,-394.932 1068.06,-383.678 1113,-356 1142.92,-337.573 1158,-326.136 1158,-291 1158,-291 1158,-291 1158,-233 1158,-188.223 1111.94,-154.325 1081.12,-136.658"/>
<polygon fill="midnightblue" stroke="midnightblue" points="1082.56,-133.457 1072.12,-131.702 1079.19,-139.59 1082.56,-133.457"/>
</g>
<!-- Node24 -->
<g id="node24" class="node"><title>Node24</title>
<g id="a_node24"><a xlink:href="mmm1d_8hpp.html" target="_top" xlink:title="MMM1D algorithm for long range coulomb interactions. ">
<polygon fill="none" stroke="black" points="148.5,-280.5 148.5,-299.5 227.5,-299.5 227.5,-280.5 148.5,-280.5"/>
<text text-anchor="middle" x="188" y="-287.5" font-family="Helvetica,sans-Serif" font-size="10.00">mmm1d.hpp</text>
</a>
</g>
</g>
<!-- Node1&#45;&gt;Node24 -->
<g id="edge26" class="edge"><title>Node1&#45;&gt;Node24</title>
<path fill="none" stroke="midnightblue" d="M743.087,-401.478C626.945,-401.936 333.588,-398.7 247,-356 225.72,-345.506 208.502,-323.736 198.275,-308.286"/>
<polygon fill="midnightblue" stroke="midnightblue" points="201.124,-306.241 192.838,-299.64 195.199,-309.968 201.124,-306.241"/>
</g>
<!-- Node26 -->
<g id="node26" class="node"><title>Node26</title>
<g id="a_node26"><a xlink:href="polynom_8hpp.html" target="_top" xlink:title="Datatypes and functions for polynomials. ">
<polygon fill="none" stroke="black" points="780,-280.5 780,-299.5 860,-299.5 860,-280.5 780,-280.5"/>
<text text-anchor="middle" x="820" y="-287.5" font-family="Helvetica,sans-Serif" font-size="10.00">polynom.hpp</text>
</a>
</g>
</g>
<!-- Node1&#45;&gt;Node26 -->
<g id="edge30" class="edge"><title>Node1&#45;&gt;Node26</title>
<path fill="none" stroke="midnightblue" d="M783.754,-392.397C774.053,-379.771 759.043,-355.597 768,-336 773.777,-323.36 785.052,-312.911 795.631,-305.274"/>
<polygon fill="midnightblue" stroke="midnightblue" points="797.849,-308.001 804.217,-299.533 793.958,-302.182 797.849,-308.001"/>
</g>
<!-- Node27 -->
<g id="node27" class="node"><title>Node27</title>
<g id="a_node27"><a xlink:href="specfunc_8hpp.html" target="_top" xlink:title="This file contains implementations for some special functions which are needed by the MMM family of a...">
<polygon fill="none" stroke="black" points="878.5,-280.5 878.5,-299.5 959.5,-299.5 959.5,-280.5 878.5,-280.5"/>
<text text-anchor="middle" x="919" y="-287.5" font-family="Helvetica,sans-Serif" font-size="10.00">specfunc.hpp</text>
</a>
</g>
</g>
<!-- Node1&#45;&gt;Node27 -->
<g id="edge32" class="edge"><title>Node1&#45;&gt;Node27</title>
<path fill="none" stroke="midnightblue" d="M833.489,-392.476C855.782,-385.967 881.931,-374.797 899,-356 910.524,-343.309 915.409,-324.106 917.48,-309.86"/>
<polygon fill="midnightblue" stroke="midnightblue" points="920.981,-310.042 918.61,-299.716 914.024,-309.267 920.981,-310.042"/>
</g>
<!-- Node28 -->
<g id="node28" class="node"><title>Node28</title>
<g id="a_node28"><a xlink:href="communication_8hpp.html" target="_top" xlink:title="This file contains the asynchronous MPI communication. ">
<polygon fill="none" stroke="black" points="368.5,-280.5 368.5,-299.5 481.5,-299.5 481.5,-280.5 368.5,-280.5"/>
<text text-anchor="middle" x="425" y="-287.5" font-family="Helvetica,sans-Serif" font-size="10.00">communication.hpp</text>
</a>
</g>
</g>
<!-- Node1&#45;&gt;Node28 -->
<g id="edge33" class="edge"><title>Node1&#45;&gt;Node28</title>
<path fill="none" stroke="midnightblue" d="M743.251,-397.156C692.022,-391.949 608.869,-380.346 541,-356 505.478,-343.257 468.02,-320.283 445.584,-305.341"/>
<polygon fill="midnightblue" stroke="midnightblue" points="447.453,-302.38 437.211,-299.67 443.528,-308.175 447.453,-302.38"/>
</g>
<!-- Node32 -->
<g id="node32" class="node"><title>Node32</title>
<g id="a_node32"><a xlink:href="cells_8hpp.html" target="_top" xlink:title="This file contains everything related to the cell structure / cell system. ">
<polygon fill="none" stroke="black" points="256,-336.5 256,-355.5 316,-355.5 316,-336.5 256,-336.5"/>
<text text-anchor="middle" x="286" y="-343.5" font-family="Helvetica,sans-Serif" font-size="10.00">cells.hpp</text>
</a>
</g>
</g>
<!-- Node1&#45;&gt;Node32 -->
<g id="edge43" class="edge"><title>Node1&#45;&gt;Node32</title>
<path fill="none" stroke="midnightblue" d="M743.491,-395.92C644.667,-385.352 418.501,-361.168 326.273,-351.306"/>
<polygon fill="midnightblue" stroke="midnightblue" points="326.537,-347.815 316.221,-350.232 325.792,-354.775 326.537,-347.815"/>
</g>
<!-- Node35 -->
<g id="node35" class="node"><title>Node35</title>
<g id="a_node35"><a xlink:href="grid_8hpp.html" target="_top" xlink:title="Domain decomposition for parallel computing. ">
<polygon fill="none" stroke="black" points="550,-336.5 550,-355.5 606,-355.5 606,-336.5 550,-336.5"/>
<text text-anchor="middle" x="578" y="-343.5" font-family="Helvetica,sans-Serif" font-size="10.00">grid.hpp</text>
</a>
</g>
</g>
<!-- Node1&#45;&gt;Node35 -->
<g id="edge50" class="edge"><title>Node1&#45;&gt;Node35</title>
<path fill="none" stroke="midnightblue" d="M757.25,-392.444C718.833,-382.704 656.225,-366.832 616.09,-356.657"/>
<polygon fill="midnightblue" stroke="midnightblue" points="616.704,-353.202 606.151,-354.137 614.984,-359.987 616.704,-353.202"/>
</g>
<!-- Node37 -->
<g id="node37" class="node"><title>Node37</title>
<g id="a_node37"><a xlink:href="tuning_8hpp.html" target="_top" xlink:title="This contains a timing loop for the force calculation. ">
<polygon fill="none" stroke="black" points="1186,-336.5 1186,-355.5 1254,-355.5 1254,-336.5 1186,-336.5"/>
<text text-anchor="middle" x="1220" y="-343.5" font-family="Helvetica,sans-Serif" font-size="10.00">tuning.hpp</text>
</a>
</g>
</g>
<!-- Node1&#45;&gt;Node37 -->
<g id="edge55" class="edge"><title>Node1&#45;&gt;Node37</title>
<path fill="none" stroke="midnightblue" d="M838.658,-396.419C910.931,-389.236 1052.49,-374.24 1172,-356 1173.27,-355.806 1174.56,-355.603 1175.87,-355.393"/>
<polygon fill="midnightblue" stroke="midnightblue" points="1176.69,-358.804 1185.96,-353.677 1175.52,-351.903 1176.69,-358.804"/>
</g>
<!-- Node38 -->
<g id="node38" class="node"><title>Node38</title>
<g id="a_node38"><a xlink:href="interaction__data_8hpp.html" target="_top" xlink:title="Various procedures concerning interactions between particles. ">
<polygon fill="none" stroke="black" points="606.5,-280.5 606.5,-299.5 723.5,-299.5 723.5,-280.5 606.5,-280.5"/>
<text text-anchor="middle" x="665" y="-287.5" font-family="Helvetica,sans-Serif" font-size="10.00">interaction_data.hpp</text>
</a>
</g>
</g>
<!-- Node1&#45;&gt;Node38 -->
<g id="edge56" class="edge"><title>Node1&#45;&gt;Node38</title>
<path fill="none" stroke="midnightblue" d="M781.113,-392.368C759.859,-373.814 709.573,-329.913 682.683,-306.438"/>
<polygon fill="midnightblue" stroke="midnightblue" points="684.676,-303.531 674.841,-299.591 680.072,-308.805 684.676,-303.531"/>
</g>
<!-- Node39 -->
<g id="node39" class="node"><title>Node39</title>
<g id="a_node39"><a xlink:href="mmm-common_8hpp.html" target="_top" xlink:title="modified polygamma functions. ">
<polygon fill="none" stroke="black" points="777.5,-336.5 777.5,-355.5 890.5,-355.5 890.5,-336.5 777.5,-336.5"/>
<text text-anchor="middle" x="834" y="-343.5" font-family="Helvetica,sans-Serif" font-size="10.00">mmm&#45;common.hpp</text>
</a>
</g>
</g>
<!-- Node1&#45;&gt;Node39 -->
<g id="edge59" class="edge"><title>Node1&#45;&gt;Node39</title>
<path fill="none" stroke="midnightblue" d="M798.101,-392.083C804.237,-384.377 813.27,-373.033 820.739,-363.653"/>
<polygon fill="midnightblue" stroke="midnightblue" points="823.54,-365.754 827.032,-355.751 818.064,-361.394 823.54,-365.754"/>
</g>
<!-- Node40 -->
<g id="node40" class="node"><title>Node40</title>
<g id="a_node40"><a xlink:href="parser_8hpp.html" target="_top" xlink:title="This file contains macros for parsing the parameters to the &#39;inter&#39; command. ">
<polygon fill="none" stroke="black" points="1016,-336.5 1016,-355.5 1084,-355.5 1084,-336.5 1016,-336.5"/>
<text text-anchor="middle" x="1050" y="-343.5" font-family="Helvetica,sans-Serif" font-size="10.00">parser.hpp</text>
</a>
</g>
</g>
<!-- Node1&#45;&gt;Node40 -->
<g id="edge62" class="edge"><title>Node1&#45;&gt;Node40</title>
<path fill="none" stroke="midnightblue" d="M832.039,-392.444C879.447,-382.559 957.151,-366.359 1005.84,-356.207"/>
<polygon fill="midnightblue" stroke="midnightblue" points="1006.69,-359.604 1015.77,-354.137 1005.27,-352.752 1006.69,-359.604"/>
</g>
<!-- Node3 -->
<g id="node3" class="node"><title>Node3</title>
<polygon fill="none" stroke="#bfbfbf" points="139.5,-168.5 139.5,-187.5 192.5,-187.5 192.5,-168.5 139.5,-168.5"/>
<text text-anchor="middle" x="166" y="-175.5" font-family="Helvetica,sans-Serif" font-size="10.00">string.h</text>
</g>
<!-- Node2&#45;&gt;Node3 -->
<g id="edge2" class="edge"><title>Node2&#45;&gt;Node3</title>
<path fill="none" stroke="midnightblue" d="M106.407,-224.324C117.109,-216.185 133.341,-203.839 146.163,-194.087"/>
<polygon fill="midnightblue" stroke="midnightblue" points="148.544,-196.673 154.385,-187.834 144.307,-191.102 148.544,-196.673"/>
</g>
<!-- Node4 -->
<g id="node4" class="node"><title>Node4</title>
<polygon fill="none" stroke="#bfbfbf" points="0,-168.5 0,-187.5 50,-187.5 50,-168.5 0,-168.5"/>
<text text-anchor="middle" x="25" y="-175.5" font-family="Helvetica,sans-Serif" font-size="10.00">stdio.h</text>
</g>
<!-- Node2&#45;&gt;Node4 -->
<g id="edge3" class="edge"><title>Node2&#45;&gt;Node4</title>
<path fill="none" stroke="midnightblue" d="M83.7533,-224.324C73.2026,-216.185 57.1993,-203.839 44.5578,-194.087"/>
<polygon fill="midnightblue" stroke="midnightblue" points="46.507,-191.171 36.4513,-187.834 42.2314,-196.713 46.507,-191.171"/>
</g>
<!-- Node5 -->
<g id="node5" class="node"><title>Node5</title>
<polygon fill="none" stroke="#bfbfbf" points="68.5,-168.5 68.5,-187.5 121.5,-187.5 121.5,-168.5 68.5,-168.5"/>
<text text-anchor="middle" x="95" y="-175.5" font-family="Helvetica,sans-Serif" font-size="10.00">stdlib.h</text>
</g>
<!-- Node2&#45;&gt;Node5 -->
<g id="edge4" class="edge"><title>Node2&#45;&gt;Node5</title>
<path fill="none" stroke="midnightblue" d="M95,-224.083C95,-217.006 95,-206.861 95,-197.986"/>
<polygon fill="midnightblue" stroke="midnightblue" points="98.5001,-197.751 95,-187.751 91.5001,-197.751 98.5001,-197.751"/>
</g>
<!-- Node8 -->
<g id="node8" class="node"><title>Node8</title>
<polygon fill="none" stroke="#bfbfbf" points="492.5,-112.5 492.5,-131.5 539.5,-131.5 539.5,-112.5 492.5,-112.5"/>
<text text-anchor="middle" x="516" y="-119.5" font-family="Helvetica,sans-Serif" font-size="10.00">cmath</text>
</g>
<!-- Node7&#45;&gt;Node8 -->
<g id="edge7" class="edge"><title>Node7&#45;&gt;Node8</title>
<path fill="none" stroke="midnightblue" d="M626.243,-168.444C604.684,-159.557 570.737,-145.563 546.206,-135.451"/>
<polygon fill="midnightblue" stroke="midnightblue" points="547.239,-132.092 536.66,-131.516 544.572,-138.563 547.239,-132.092"/>
</g>
<!-- Node9 -->
<g id="node9" class="node"><title>Node9</title>
<polygon fill="none" stroke="#bfbfbf" points="558,-112.5 558,-131.5 604,-131.5 604,-112.5 558,-112.5"/>
<text text-anchor="middle" x="581" y="-119.5" font-family="Helvetica,sans-Serif" font-size="10.00">cstdio</text>
</g>
<!-- Node7&#45;&gt;Node9 -->
<g id="edge8" class="edge"><title>Node7&#45;&gt;Node9</title>
<path fill="none" stroke="midnightblue" d="M636.396,-168.324C626.544,-160.263 611.649,-148.077 599.785,-138.369"/>
<polygon fill="midnightblue" stroke="midnightblue" points="601.753,-135.457 591.797,-131.834 597.32,-140.875 601.753,-135.457"/>
</g>
<!-- Node10 -->
<g id="node10" class="node"><title>Node10</title>
<polygon fill="none" stroke="#bfbfbf" points="622.5,-112.5 622.5,-131.5 671.5,-131.5 671.5,-112.5 622.5,-112.5"/>
<text text-anchor="middle" x="647" y="-119.5" font-family="Helvetica,sans-Serif" font-size="10.00">cstdlib</text>
</g>
<!-- Node7&#45;&gt;Node10 -->
<g id="edge9" class="edge"><title>Node7&#45;&gt;Node10</title>
<path fill="none" stroke="midnightblue" d="M647,-168.083C647,-161.006 647,-150.861 647,-141.986"/>
<polygon fill="midnightblue" stroke="midnightblue" points="650.5,-141.751 647,-131.751 643.5,-141.751 650.5,-141.751"/>
</g>
<!-- Node11 -->
<g id="node11" class="node"><title>Node11</title>
<polygon fill="none" stroke="#bfbfbf" points="934,-112.5 934,-131.5 984,-131.5 984,-112.5 934,-112.5"/>
<text text-anchor="middle" x="959" y="-119.5" font-family="Helvetica,sans-Serif" font-size="10.00">cstring</text>
</g>
<!-- Node7&#45;&gt;Node11 -->
<g id="edge10" class="edge"><title>Node7&#45;&gt;Node11</title>
<path fill="none" stroke="midnightblue" d="M676.679,-173.079C727.556,-166.157 834.587,-150.719 924,-132 924.1,-131.979 924.2,-131.958 924.3,-131.937"/>
<polygon fill="midnightblue" stroke="midnightblue" points="924.858,-135.4 933.829,-129.763 923.301,-128.575 924.858,-135.4"/>
</g>
<!-- Node12 -->
<g id="node12" class="node"><title>Node12</title>
<g id="a_node12"><a xlink:href="config_8hpp.html" target="_top" xlink:title="This file contains the defaults for Espresso. ">
<polygon fill="none" stroke="black" points="708.5,-56.5 708.5,-75.5 775.5,-75.5 775.5,-56.5 708.5,-56.5"/>
<text text-anchor="middle" x="742" y="-63.5" font-family="Helvetica,sans-Serif" font-size="10.00">config.hpp</text>
</a>
</g>
</g>
<!-- Node7&#45;&gt;Node12 -->
<g id="edge11" class="edge"><title>Node7&#45;&gt;Node12</title>
<path fill="none" stroke="midnightblue" d="M676.733,-172.707C717.607,-166.128 787.833,-152.16 803,-132 817.392,-112.87 792.119,-93.126 769.862,-80.4947"/>
<polygon fill="midnightblue" stroke="midnightblue" points="771.41,-77.3534 760.945,-75.699 768.094,-83.5183 771.41,-77.3534"/>
</g>
<!-- Node16 -->
<g id="node16" class="node"><title>Node16</title>
<g id="a_node16"><a xlink:href="debug_8hpp.html" target="_top" xlink:title="This file controls debug facilities. ">
<polygon fill="none" stroke="black" points="406,-112.5 406,-131.5 474,-131.5 474,-112.5 406,-112.5"/>
<text text-anchor="middle" x="440" y="-119.5" font-family="Helvetica,sans-Serif" font-size="10.00">debug.hpp</text>
</a>
</g>
</g>
<!-- Node7&#45;&gt;Node16 -->
<g id="edge15" class="edge"><title>Node7&#45;&gt;Node16</title>
<path fill="none" stroke="midnightblue" d="M617.342,-169.263C581.993,-160.042 522.666,-144.565 482.46,-134.077"/>
<polygon fill="midnightblue" stroke="midnightblue" points="483.236,-130.662 472.677,-131.524 481.469,-137.435 483.236,-130.662"/>
</g>
<!-- Node17 -->
<g id="node17" class="node"><title>Node17</title>
<g id="a_node17"><a xlink:href="lees__edwards_8hpp.html" target="_top" xlink:title="lees_edwards.hpp">
<polygon fill="none" stroke="black" points="690,-112.5 690,-131.5 794,-131.5 794,-112.5 690,-112.5"/>
<text text-anchor="middle" x="742" y="-119.5" font-family="Helvetica,sans-Serif" font-size="10.00">lees_edwards.hpp</text>
</a>
</g>
</g>
<!-- Node7&#45;&gt;Node17 -->
<g id="edge17" class="edge"><title>Node7&#45;&gt;Node17</title>
<path fill="none" stroke="midnightblue" d="M662.263,-168.324C677.221,-159.822 700.255,-146.729 717.727,-136.797"/>
<polygon fill="midnightblue" stroke="midnightblue" points="719.81,-139.639 726.774,-131.655 716.351,-133.553 719.81,-139.639"/>
</g>
<!-- Node7&#45;&gt;Node18 -->
<g id="edge19" class="edge"><title>Node7&#45;&gt;Node18</title>
<path fill="none" stroke="midnightblue" d="M676.644,-173.319C734.91,-166.045 868.698,-149.16 992.398,-132.062"/>
<polygon fill="midnightblue" stroke="midnightblue" points="992.999,-135.513 1002.42,-130.673 992.038,-128.579 992.999,-135.513"/>
</g>
<!-- Node22 -->
<g id="node22" class="node"><title>Node22</title>
<polygon fill="none" stroke="#bfbfbf" points="340.5,-112.5 340.5,-131.5 387.5,-131.5 387.5,-112.5 340.5,-112.5"/>
<text text-anchor="middle" x="364" y="-119.5" font-family="Helvetica,sans-Serif" font-size="10.00">vector</text>
</g>
<!-- Node7&#45;&gt;Node22 -->
<g id="edge24" class="edge"><title>Node7&#45;&gt;Node22</title>
<path fill="none" stroke="midnightblue" d="M617.197,-172.507C571.904,-165.491 482.863,-150.963 397.572,-131.958"/>
<polygon fill="midnightblue" stroke="midnightblue" points="398.255,-128.524 387.73,-129.741 396.717,-135.353 398.255,-128.524"/>
</g>
<!-- Node23 -->
<g id="node23" class="node"><title>Node23</title>
<polygon fill="none" stroke="#bfbfbf" points="850.5,-112.5 850.5,-131.5 915.5,-131.5 915.5,-112.5 850.5,-112.5"/>
<text text-anchor="middle" x="883" y="-119.5" font-family="Helvetica,sans-Serif" font-size="10.00">exception</text>
</g>
<!-- Node7&#45;&gt;Node23 -->
<g id="edge25" class="edge"><title>Node7&#45;&gt;Node23</title>
<path fill="none" stroke="midnightblue" d="M676.89,-170.161C718.258,-160.695 793.192,-143.549 840.407,-132.746"/>
<polygon fill="midnightblue" stroke="midnightblue" points="841.361,-136.118 850.329,-130.476 839.8,-129.294 841.361,-136.118"/>
</g>
<!-- Node13 -->
<g id="node13" class="node"><title>Node13</title>
<g id="a_node13"><a xlink:href="acconfig_8hpp.html" target="_top" xlink:title="acconfig.hpp">
<polygon fill="none" stroke="black" points="592,-0.5 592,-19.5 670,-19.5 670,-0.5 592,-0.5"/>
<text text-anchor="middle" x="631" y="-7.5" font-family="Helvetica,sans-Serif" font-size="10.00">acconfig.hpp</text>
</a>
</g>
</g>
<!-- Node12&#45;&gt;Node13 -->
<g id="edge12" class="edge"><title>Node12&#45;&gt;Node13</title>
<path fill="none" stroke="midnightblue" d="M724.166,-56.324C706.284,-47.6247 678.525,-34.1202 657.954,-24.113"/>
<polygon fill="midnightblue" stroke="midnightblue" points="659.313,-20.8819 648.79,-19.6545 656.251,-27.1765 659.313,-20.8819"/>
</g>
<!-- Node14 -->
<g id="node14" class="node"><title>Node14</title>
<g id="a_node14"><a xlink:href="myconfig-final_8hpp.html" target="_top" xlink:title="myconfig&#45;final.hpp">
<polygon fill="none" stroke="black" points="688.5,-0.5 688.5,-19.5 795.5,-19.5 795.5,-0.5 688.5,-0.5"/>
<text text-anchor="middle" x="742" y="-7.5" font-family="Helvetica,sans-Serif" font-size="10.00">myconfig&#45;final.hpp</text>
</a>
</g>
</g>
<!-- Node12&#45;&gt;Node14 -->
<g id="edge13" class="edge"><title>Node12&#45;&gt;Node14</title>
<path fill="none" stroke="midnightblue" d="M742,-56.083C742,-49.0059 742,-38.8611 742,-29.9865"/>
<polygon fill="midnightblue" stroke="midnightblue" points="745.5,-29.751 742,-19.7511 738.5,-29.7511 745.5,-29.751"/>
</g>
<!-- Node15 -->
<g id="node15" class="node"><title>Node15</title>
<g id="a_node15"><a xlink:href="config-features_8hpp.html" target="_top" xlink:title="config&#45;features.hpp">
<polygon fill="none" stroke="black" points="813.5,-0.5 813.5,-19.5 924.5,-19.5 924.5,-0.5 813.5,-0.5"/>
<text text-anchor="middle" x="869" y="-7.5" font-family="Helvetica,sans-Serif" font-size="10.00">config&#45;features.hpp</text>
</a>
</g>
</g>
<!-- Node12&#45;&gt;Node15 -->
<g id="edge14" class="edge"><title>Node12&#45;&gt;Node15</title>
<path fill="none" stroke="midnightblue" d="M762.124,-56.4435C783.024,-47.5566 815.935,-33.5632 839.716,-23.4514"/>
<polygon fill="midnightblue" stroke="midnightblue" points="841.138,-26.6504 848.971,-19.5164 838.398,-20.2085 841.138,-26.6504"/>
</g>
<!-- Node16&#45;&gt;Node12 -->
<g id="edge16" class="edge"><title>Node16&#45;&gt;Node12</title>
<path fill="none" stroke="midnightblue" d="M474.246,-113.722C477.204,-113.127 480.153,-112.545 483,-112 558.484,-97.5474 646.732,-82.6369 698.289,-74.1247"/>
<polygon fill="midnightblue" stroke="midnightblue" points="699.108,-77.5371 708.406,-72.4588 697.97,-70.6301 699.108,-77.5371"/>
</g>
<!-- Node17&#45;&gt;Node12 -->
<g id="edge18" class="edge"><title>Node17&#45;&gt;Node12</title>
<path fill="none" stroke="midnightblue" d="M742,-112.083C742,-105.006 742,-94.8611 742,-85.9865"/>
<polygon fill="midnightblue" stroke="midnightblue" points="745.5,-85.751 742,-75.7511 738.5,-85.7511 745.5,-85.751"/>
</g>
<!-- Node18&#45;&gt;Node12 -->
<g id="edge20" class="edge"><title>Node18&#45;&gt;Node12</title>
<path fill="none" stroke="midnightblue" d="M1004.56,-112.444C944.263,-102.007 843.275,-84.5284 785.703,-74.564"/>
<polygon fill="midnightblue" stroke="midnightblue" points="786.271,-71.1103 775.821,-72.8536 785.077,-78.0078 786.271,-71.1103"/>
</g>
<!-- Node19 -->
<g id="node19" class="node"><title>Node19</title>
<polygon fill="none" stroke="#bfbfbf" points="1032,-56.5 1032,-75.5 1076,-75.5 1076,-56.5 1032,-56.5"/>
<text text-anchor="middle" x="1054" y="-63.5" font-family="Helvetica,sans-Serif" font-size="10.00">string</text>
</g>
<!-- Node18&#45;&gt;Node19 -->
<g id="edge21" class="edge"><title>Node18&#45;&gt;Node19</title>
<path fill="none" stroke="midnightblue" d="M1054,-112.083C1054,-105.006 1054,-94.8611 1054,-85.9865"/>
<polygon fill="midnightblue" stroke="midnightblue" points="1057.5,-85.751 1054,-75.7511 1050.5,-85.7511 1057.5,-85.751"/>
</g>
<!-- Node20 -->
<g id="node20" class="node"><title>Node20</title>
<polygon fill="none" stroke="#bfbfbf" points="1094,-56.5 1094,-75.5 1150,-75.5 1150,-56.5 1094,-56.5"/>
<text text-anchor="middle" x="1122" y="-63.5" font-family="Helvetica,sans-Serif" font-size="10.00">sstream</text>
</g>
<!-- Node18&#45;&gt;Node20 -->
<g id="edge22" class="edge"><title>Node18&#45;&gt;Node20</title>
<path fill="none" stroke="midnightblue" d="M1064.93,-112.324C1075.17,-104.185 1090.72,-91.8395 1103,-82.0874"/>
<polygon fill="midnightblue" stroke="midnightblue" points="1105.22,-84.7937 1110.88,-75.8339 1100.87,-79.3119 1105.22,-84.7937"/>
</g>
<!-- Node21 -->
<g id="node21" class="node"><title>Node21</title>
<polygon fill="none" stroke="#bfbfbf" points="982,-56.5 982,-75.5 1014,-75.5 1014,-56.5 982,-56.5"/>
<text text-anchor="middle" x="998" y="-63.5" font-family="Helvetica,sans-Serif" font-size="10.00">list</text>
</g>
<!-- Node18&#45;&gt;Node21 -->
<g id="edge23" class="edge"><title>Node18&#45;&gt;Node21</title>
<path fill="none" stroke="midnightblue" d="M1045,-112.324C1036.81,-104.42 1024.49,-92.5482 1014.53,-82.9377"/>
<polygon fill="midnightblue" stroke="midnightblue" points="1016.79,-80.2558 1007.16,-75.8339 1011.93,-85.2947 1016.79,-80.2558"/>
</g>
<!-- Node24&#45;&gt;Node7 -->
<g id="edge27" class="edge"><title>Node24&#45;&gt;Node7</title>
<path fill="none" stroke="midnightblue" d="M189.287,-280.097C191.885,-265.674 199.205,-237.459 218,-224 249.314,-201.576 507.332,-186.132 607.477,-180.931"/>
<polygon fill="midnightblue" stroke="midnightblue" points="607.692,-184.424 617.499,-180.417 607.333,-177.434 607.692,-184.424"/>
</g>
<!-- Node25 -->
<g id="node25" class="node"><title>Node25</title>
<g id="a_node25"><a xlink:href="particle__data_8hpp.html" target="_top" xlink:title="For more information on particle_data, see particle_data.c. ">
<polygon fill="none" stroke="black" points="227.5,-224.5 227.5,-243.5 328.5,-243.5 328.5,-224.5 227.5,-224.5"/>
<text text-anchor="middle" x="278" y="-231.5" font-family="Helvetica,sans-Serif" font-size="10.00">particle_data.hpp</text>
</a>
</g>
</g>
<!-- Node24&#45;&gt;Node25 -->
<g id="edge28" class="edge"><title>Node24&#45;&gt;Node25</title>
<path fill="none" stroke="midnightblue" d="M202.46,-280.324C216.5,-271.9 238.048,-258.971 254.543,-249.074"/>
<polygon fill="midnightblue" stroke="midnightblue" points="256.802,-251.801 263.576,-243.655 253.2,-245.798 256.802,-251.801"/>
</g>
<!-- Node25&#45;&gt;Node7 -->
<g id="edge29" class="edge"><title>Node25&#45;&gt;Node7</title>
<path fill="none" stroke="midnightblue" d="M328.534,-225.605C402.728,-214.747 539.632,-194.712 607.178,-184.828"/>
<polygon fill="midnightblue" stroke="midnightblue" points="608.015,-188.243 617.403,-183.331 607.001,-181.316 608.015,-188.243"/>
</g>
<!-- Node26&#45;&gt;Node7 -->
<g id="edge31" class="edge"><title>Node26&#45;&gt;Node7</title>
<path fill="none" stroke="midnightblue" d="M806.425,-280.368C776.738,-261.492 705.796,-216.385 669.39,-193.237"/>
<polygon fill="midnightblue" stroke="midnightblue" points="670.829,-190.004 660.512,-187.591 667.073,-195.911 670.829,-190.004"/>
</g>
<!-- Node28&#45;&gt;Node2 -->
<g id="edge39" class="edge"><title>Node28&#45;&gt;Node2</title>
<path fill="none" stroke="midnightblue" d="M372.711,-280.444C303.59,-269.133 183.92,-249.55 126.94,-240.226"/>
<polygon fill="midnightblue" stroke="midnightblue" points="127.49,-236.77 117.056,-238.609 126.36,-243.678 127.49,-236.77"/>
</g>
<!-- Node28&#45;&gt;Node25 -->
<g id="edge34" class="edge"><title>Node28&#45;&gt;Node25</title>
<path fill="none" stroke="midnightblue" d="M401.707,-280.444C377.193,-271.438 338.404,-257.189 310.8,-247.049"/>
<polygon fill="midnightblue" stroke="midnightblue" points="311.777,-243.679 301.184,-243.516 309.363,-250.25 311.777,-243.679"/>
</g>
<!-- Node29 -->
<g id="node29" class="node"><title>Node29</title>
<g id="a_node29"><a xlink:href="random_8hpp.html" target="_top" xlink:title="A random generator. ">
<polygon fill="none" stroke="black" points="482.5,-224.5 482.5,-243.5 557.5,-243.5 557.5,-224.5 482.5,-224.5"/>
<text text-anchor="middle" x="520" y="-231.5" font-family="Helvetica,sans-Serif" font-size="10.00">random.hpp</text>
</a>
</g>
</g>
<!-- Node28&#45;&gt;Node29 -->
<g id="edge35" class="edge"><title>Node28&#45;&gt;Node29</title>
<path fill="none" stroke="midnightblue" d="M440.263,-280.324C455.221,-271.822 478.255,-258.729 495.727,-248.797"/>
<polygon fill="midnightblue" stroke="midnightblue" points="497.81,-251.639 504.774,-243.655 494.351,-245.553 497.81,-251.639"/>
</g>
<!-- Node30 -->
<g id="node30" class="node"><title>Node30</title>
<g id="a_node30"><a xlink:href="topology_8hpp.html" target="_top" xlink:title="This file contains functions for handling the system topology. ">
<polygon fill="none" stroke="black" points="385.5,-224.5 385.5,-243.5 464.5,-243.5 464.5,-224.5 385.5,-224.5"/>
<text text-anchor="middle" x="425" y="-231.5" font-family="Helvetica,sans-Serif" font-size="10.00">topology.hpp</text>
</a>
</g>
</g>
<!-- Node28&#45;&gt;Node30 -->
<g id="edge37" class="edge"><title>Node28&#45;&gt;Node30</title>
<path fill="none" stroke="midnightblue" d="M425,-280.083C425,-273.006 425,-262.861 425,-253.986"/>
<polygon fill="midnightblue" stroke="midnightblue" points="428.5,-253.751 425,-243.751 421.5,-253.751 428.5,-253.751"/>
</g>
<!-- Node31 -->
<g id="node31" class="node"><title>Node31</title>
<g id="a_node31"><a xlink:href="cuda__init_8hpp.html" target="_top" xlink:title="cuda_init.hpp">
<polygon fill="none" stroke="black" points="316,-168.5 316,-187.5 398,-187.5 398,-168.5 316,-168.5"/>
<text text-anchor="middle" x="357" y="-175.5" font-family="Helvetica,sans-Serif" font-size="10.00">cuda_init.hpp</text>
</a>
</g>
</g>
<!-- Node28&#45;&gt;Node31 -->
<g id="edge40" class="edge"><title>Node28&#45;&gt;Node31</title>
<path fill="none" stroke="midnightblue" d="M412.334,-280.456C401.215,-272.322 385.39,-259.106 376,-244 367.175,-229.802 362.292,-211.324 359.694,-197.7"/>
<polygon fill="midnightblue" stroke="midnightblue" points="363.107,-196.888 358.013,-187.598 356.202,-198.037 363.107,-196.888"/>
</g>
<!-- Node29&#45;&gt;Node7 -->
<g id="edge36" class="edge"><title>Node29&#45;&gt;Node7</title>
<path fill="none" stroke="midnightblue" d="M540.124,-224.444C561.024,-215.557 593.935,-201.563 617.716,-191.451"/>
<polygon fill="midnightblue" stroke="midnightblue" points="619.138,-194.65 626.971,-187.516 616.398,-188.208 619.138,-194.65"/>
</g>
<!-- Node30&#45;&gt;Node7 -->
<g id="edge38" class="edge"><title>Node30&#45;&gt;Node7</title>
<path fill="none" stroke="midnightblue" d="M460.177,-224.444C500.273,-214.69 565.656,-198.786 607.479,-188.613"/>
<polygon fill="midnightblue" stroke="midnightblue" points="608.427,-191.985 617.316,-186.22 606.773,-185.183 608.427,-191.985"/>
</g>
<!-- Node31&#45;&gt;Node12 -->
<g id="edge41" class="edge"><title>Node31&#45;&gt;Node12</title>
<path fill="none" stroke="midnightblue" d="M348.444,-168.419C336.035,-154.946 316.072,-128.652 331,-112 355.209,-84.996 597.339,-72.5833 698.23,-68.5534"/>
<polygon fill="midnightblue" stroke="midnightblue" points="698.539,-72.0441 708.394,-68.1567 698.266,-65.0494 698.539,-72.0441"/>
</g>
<!-- Node31&#45;&gt;Node22 -->
<g id="edge42" class="edge"><title>Node31&#45;&gt;Node22</title>
<path fill="none" stroke="midnightblue" d="M358.156,-168.083C359.084,-160.927 360.418,-150.635 361.577,-141.691"/>
<polygon fill="midnightblue" stroke="midnightblue" points="365.051,-142.118 362.866,-131.751 358.109,-141.218 365.051,-142.118"/>
</g>
<!-- Node32&#45;&gt;Node25 -->
<g id="edge44" class="edge"><title>Node32&#45;&gt;Node25</title>
<path fill="none" stroke="midnightblue" d="M283.27,-336.486C280.549,-327.52 276.558,-312.935 275,-300 273.14,-284.559 274.148,-266.927 275.478,-253.927"/>
<polygon fill="midnightblue" stroke="midnightblue" points="278.969,-254.207 276.665,-243.866 272.017,-253.387 278.969,-254.207"/>
</g>
<!-- Node33 -->
<g id="node33" class="node"><title>Node33</title>
<g id="a_node33"><a xlink:href="ghosts_8hpp.html" target="_top" xlink:title="Ghost particles and particle exchange. ">
<polygon fill="none" stroke="black" points="60,-280.5 60,-299.5 130,-299.5 130,-280.5 60,-280.5"/>
<text text-anchor="middle" x="95" y="-287.5" font-family="Helvetica,sans-Serif" font-size="10.00">ghosts.hpp</text>
</a>
</g>
</g>
<!-- Node32&#45;&gt;Node33 -->
<g id="edge45" class="edge"><title>Node32&#45;&gt;Node33</title>
<path fill="none" stroke="midnightblue" d="M255.735,-336.444C223.045,-327.201 170.818,-312.436 134.817,-302.257"/>
<polygon fill="midnightblue" stroke="midnightblue" points="135.698,-298.869 125.123,-299.516 133.794,-305.605 135.698,-298.869"/>
</g>
<!-- Node34 -->
<g id="node34" class="node"><title>Node34</title>
<g id="a_node34"><a xlink:href="verlet_8hpp.html" target="_top" xlink:title="This file contains routines to setup and handle interaction pair lists (verlet pair lists) for the no...">
<polygon fill="none" stroke="black" points="284,-280.5 284,-299.5 350,-299.5 350,-280.5 284,-280.5"/>
<text text-anchor="middle" x="317" y="-287.5" font-family="Helvetica,sans-Serif" font-size="10.00">verlet.hpp</text>
</a>
</g>
</g>
<!-- Node32&#45;&gt;Node34 -->
<g id="edge48" class="edge"><title>Node32&#45;&gt;Node34</title>
<path fill="none" stroke="midnightblue" d="M291.119,-336.083C295.408,-328.613 301.658,-317.724 306.942,-308.52"/>
<polygon fill="midnightblue" stroke="midnightblue" points="310.033,-310.166 311.976,-299.751 303.962,-306.681 310.033,-310.166"/>
</g>
<!-- Node33&#45;&gt;Node2 -->
<g id="edge46" class="edge"><title>Node33&#45;&gt;Node2</title>
<path fill="none" stroke="midnightblue" d="M95,-280.083C95,-273.006 95,-262.861 95,-253.986"/>
<polygon fill="midnightblue" stroke="midnightblue" points="98.5001,-253.751 95,-243.751 91.5001,-253.751 98.5001,-253.751"/>
</g>
<!-- Node33&#45;&gt;Node25 -->
<g id="edge47" class="edge"><title>Node33&#45;&gt;Node25</title>
<path fill="none" stroke="midnightblue" d="M123.997,-280.444C155.185,-271.241 204.93,-256.562 239.408,-246.388"/>
<polygon fill="midnightblue" stroke="midnightblue" points="240.538,-249.704 249.139,-243.516 238.557,-242.99 240.538,-249.704"/>
</g>
<!-- Node34&#45;&gt;Node25 -->
<g id="edge49" class="edge"><title>Node34&#45;&gt;Node25</title>
<path fill="none" stroke="midnightblue" d="M310.56,-280.083C305.051,-272.455 296.969,-261.264 290.235,-251.941"/>
<polygon fill="midnightblue" stroke="midnightblue" points="293.013,-249.809 284.32,-243.751 287.338,-253.907 293.013,-249.809"/>
</g>
<!-- Node35&#45;&gt;Node7 -->
<g id="edge51" class="edge"><title>Node35&#45;&gt;Node7</title>
<path fill="none" stroke="midnightblue" d="M579.995,-336.428C583.039,-323.841 589.307,-299.715 597,-280 608.804,-249.75 626.317,-216.274 637.176,-196.467"/>
<polygon fill="midnightblue" stroke="midnightblue" points="640.26,-198.123 642.05,-187.681 634.139,-194.727 640.26,-198.123"/>
</g>
<!-- Node35&#45;&gt;Node18 -->
<g id="edge54" class="edge"><title>Node35&#45;&gt;Node18</title>
<path fill="none" stroke="midnightblue" d="M606.167,-338.731C637.534,-331.303 689.424,-317.673 732,-300 747.577,-293.534 957.207,-176.935 1029.61,-136.597"/>
<polygon fill="midnightblue" stroke="midnightblue" points="1031.47,-139.567 1038.5,-131.642 1028.06,-133.452 1031.47,-139.567"/>
</g>
<!-- Node35&#45;&gt;Node28 -->
<g id="edge53" class="edge"><title>Node35&#45;&gt;Node28</title>
<path fill="none" stroke="midnightblue" d="M553.757,-336.444C528.129,-327.399 487.515,-313.064 458.762,-302.916"/>
<polygon fill="midnightblue" stroke="midnightblue" points="459.725,-299.544 449.13,-299.516 457.395,-306.145 459.725,-299.544"/>
</g>
<!-- Node36 -->
<g id="node36" class="node"><title>Node36</title>
<polygon fill="none" stroke="#bfbfbf" points="500,-280.5 500,-299.5 550,-299.5 550,-280.5 500,-280.5"/>
<text text-anchor="middle" x="525" y="-287.5" font-family="Helvetica,sans-Serif" font-size="10.00">climits</text>
</g>
<!-- Node35&#45;&gt;Node36 -->
<g id="edge52" class="edge"><title>Node35&#45;&gt;Node36</title>
<path fill="none" stroke="midnightblue" d="M569.248,-336.083C561.53,-328.22 550.095,-316.569 540.783,-307.081"/>
<polygon fill="midnightblue" stroke="midnightblue" points="543.092,-304.436 533.589,-299.751 538.096,-309.34 543.092,-304.436"/>
</g>
<!-- Node38&#45;&gt;Node7 -->
<g id="edge57" class="edge"><title>Node38&#45;&gt;Node7</title>
<path fill="none" stroke="midnightblue" d="M663.588,-280.368C660.683,-262.617 653.982,-221.666 650.043,-197.597"/>
<polygon fill="midnightblue" stroke="midnightblue" points="653.475,-196.895 648.406,-187.591 646.567,-198.025 653.475,-196.895"/>
</g>
<!-- Node38&#45;&gt;Node25 -->
<g id="edge58" class="edge"><title>Node38&#45;&gt;Node25</title>
<path fill="none" stroke="midnightblue" d="M606.223,-280.799C533.925,-270.71 411.812,-253.671 338.661,-243.464"/>
<polygon fill="midnightblue" stroke="midnightblue" points="339.062,-239.986 328.674,-242.071 338.095,-246.919 339.062,-239.986"/>
</g>
<!-- Node39&#45;&gt;Node26 -->
<g id="edge60" class="edge"><title>Node39&#45;&gt;Node26</title>
<path fill="none" stroke="midnightblue" d="M831.688,-336.083C829.833,-328.927 827.165,-318.635 824.846,-309.691"/>
<polygon fill="midnightblue" stroke="midnightblue" points="828.166,-308.553 822.269,-299.751 821.391,-310.309 828.166,-308.553"/>
</g>
<!-- Node39&#45;&gt;Node27 -->
<g id="edge61" class="edge"><title>Node39&#45;&gt;Node27</title>
<path fill="none" stroke="midnightblue" d="M847.657,-336.324C860.916,-327.9 881.268,-314.971 896.846,-305.074"/>
<polygon fill="midnightblue" stroke="midnightblue" points="898.813,-307.971 905.377,-299.655 895.06,-302.063 898.813,-307.971"/>
</g>
<!-- Node40&#45;&gt;Node6 -->
<g id="edge65" class="edge"><title>Node40&#45;&gt;Node6</title>
<path fill="none" stroke="midnightblue" d="M1059.8,-336.324C1068.82,-328.341 1082.41,-316.313 1093.32,-306.653"/>
<polygon fill="midnightblue" stroke="midnightblue" points="1095.85,-309.083 1101.02,-299.834 1091.21,-303.842 1095.85,-309.083"/>
</g>
<!-- Node40&#45;&gt;Node7 -->
<g id="edge63" class="edge"><title>Node40&#45;&gt;Node7</title>
<path fill="none" stroke="midnightblue" d="M1049.43,-336.221C1047.45,-313.494 1038.79,-252.529 1002,-224 953.558,-186.433 768.833,-180.044 686.734,-179.088"/>
<polygon fill="midnightblue" stroke="midnightblue" points="686.583,-175.587 676.55,-178.992 686.516,-182.586 686.583,-175.587"/>
</g>
<!-- Node40&#45;&gt;Node11 -->
<g id="edge64" class="edge"><title>Node40&#45;&gt;Node11</title>
<path fill="none" stroke="midnightblue" d="M1051.12,-336.468C1052.51,-323.931 1054.23,-299.867 1050,-280 1037.85,-223.002 995.748,-166.402 973.321,-139.385"/>
<polygon fill="midnightblue" stroke="midnightblue" points="975.931,-137.052 966.793,-131.69 970.593,-141.58 975.931,-137.052"/>
</g>
</g>
</svg>
