<?xml version="1.0" encoding="UTF-8" standalone="no"?>
<!DOCTYPE svg PUBLIC "-//W3C//DTD SVG 1.1//EN"
 "http://www.w3.org/Graphics/SVG/1.1/DTD/svg11.dtd">
<!-- Generated by graphviz version 2.38.0 (20140413.2041)
 -->
<!-- Title: mmm2d.cpp Pages: 1 -->
<svg width="999pt" height="476pt"
 viewBox="0.00 0.00 998.70 476.00" xmlns="http://www.w3.org/2000/svg" xmlns:xlink="http://www.w3.org/1999/xlink">
<g id="graph0" class="graph" transform="scale(1 1) rotate(0) translate(4 472)">
<title>mmm2d.cpp</title>
<!-- Node1 -->
<g id="node1" class="node"><title>Node1</title>
<polygon fill="#bfbfbf" stroke="black" points="366.697,-448.5 366.697,-467.5 444.697,-467.5 444.697,-448.5 366.697,-448.5"/>
<text text-anchor="middle" x="405.697" y="-455.5" font-family="Helvetica,sans-Serif" font-size="10.00">mmm2d.cpp</text>
</g>
<!-- Node2 -->
<g id="node2" class="node"><title>Node2</title>
<polygon fill="none" stroke="#bfbfbf" points="183.197,-112.5 183.197,-131.5 230.197,-131.5 230.197,-112.5 183.197,-112.5"/>
<text text-anchor="middle" x="206.697" y="-119.5" font-family="Helvetica,sans-Serif" font-size="10.00">cmath</text>
</g>
<!-- Node1&#45;&gt;Node2 -->
<g id="edge1" class="edge"><title>Node1&#45;&gt;Node2</title>
<path fill="none" stroke="midnightblue" d="M366.496,-454.716C264.857,-447.727 0.697341,-422.319 0.697341,-347 0.697341,-347 0.697341,-347 0.697341,-233 0.697341,-202.902 -2.09202,-188.763 19.6973,-168 41.4414,-147.28 124.967,-133.459 172.708,-127.073"/>
<polygon fill="midnightblue" stroke="midnightblue" points="173.418,-130.51 182.884,-125.752 172.516,-123.569 173.418,-130.51"/>
</g>
<!-- Node3 -->
<g id="node3" class="node"><title>Node3</title>
<g id="a_node3"><a xlink:href="mpi_8h.html" target="_top" xlink:title="This is the MPIfake implementation. ">
<polygon fill="none" stroke="black" points="97.6973,-224.5 97.6973,-243.5 141.697,-243.5 141.697,-224.5 97.6973,-224.5"/>
<text text-anchor="middle" x="119.697" y="-231.5" font-family="Helvetica,sans-Serif" font-size="10.00">mpi.h</text>
</a>
</g>
</g>
<!-- Node1&#45;&gt;Node3 -->
<g id="edge2" class="edge"><title>Node1&#45;&gt;Node3</title>
<path fill="none" stroke="midnightblue" d="M366.659,-456.695C318.426,-454.751 235.21,-446.166 173.697,-412 114.314,-379.017 94.5265,-363.228 69.6973,-300 66.4483,-291.726 66.081,-288.12 69.6973,-280 75.2652,-267.498 86.2129,-257.012 96.4484,-249.317"/>
<polygon fill="midnightblue" stroke="midnightblue" points="98.5482,-252.119 104.745,-243.526 94.5416,-246.379 98.5482,-252.119"/>
</g>
<!-- Node7 -->
<g id="node7" class="node"><title>Node7</title>
<g id="a_node7"><a xlink:href="utils_8hpp.html" target="_top" xlink:title="Small functions that are useful not only for one modul. ">
<polygon fill="none" stroke="black" points="545.197,-168.5 545.197,-187.5 604.197,-187.5 604.197,-168.5 545.197,-168.5"/>
<text text-anchor="middle" x="574.697" y="-175.5" font-family="Helvetica,sans-Serif" font-size="10.00">utils.hpp</text>
</a>
</g>
</g>
<!-- Node1&#45;&gt;Node7 -->
<g id="edge6" class="edge"><title>Node1&#45;&gt;Node7</title>
<path fill="none" stroke="midnightblue" d="M445.046,-456.845C486.178,-454.736 550.614,-445.711 593.697,-412 659.517,-360.498 626.045,-302.62 597.697,-224 594.312,-214.611 589.394,-204.682 584.974,-196.545"/>
<polygon fill="midnightblue" stroke="midnightblue" points="587.928,-194.657 579.966,-187.667 581.831,-198.096 587.928,-194.657"/>
</g>
<!-- Node23 -->
<g id="node23" class="node"><title>Node23</title>
<g id="a_node23"><a xlink:href="communication_8hpp.html" target="_top" xlink:title="This file contains the asynchronous MPI communication. ">
<polygon fill="none" stroke="black" points="327.197,-280.5 327.197,-299.5 440.197,-299.5 440.197,-280.5 327.197,-280.5"/>
<text text-anchor="middle" x="383.697" y="-287.5" font-family="Helvetica,sans-Serif" font-size="10.00">communication.hpp</text>
</a>
</g>
</g>
<!-- Node1&#45;&gt;Node23 -->
<g id="edge26" class="edge"><title>Node1&#45;&gt;Node23</title>
<path fill="none" stroke="midnightblue" d="M402.277,-448.191C398.961,-439.231 394.09,-424.87 391.697,-412 385.05,-376.247 383.731,-333.654 383.576,-309.728"/>
<polygon fill="midnightblue" stroke="midnightblue" points="387.076,-309.594 383.575,-299.595 380.076,-309.595 387.076,-309.594"/>
</g>
<!-- Node24 -->
<g id="node24" class="node"><title>Node24</title>
<g id="a_node24"><a xlink:href="particle__data_8hpp.html" target="_top" xlink:title="For more information on particle_data, see particle_data.c. ">
<polygon fill="none" stroke="black" points="207.197,-224.5 207.197,-243.5 308.197,-243.5 308.197,-224.5 207.197,-224.5"/>
<text text-anchor="middle" x="257.697" y="-231.5" font-family="Helvetica,sans-Serif" font-size="10.00">particle_data.hpp</text>
</a>
</g>
</g>
<!-- Node1&#45;&gt;Node24 -->
<g id="edge42" class="edge"><title>Node1&#45;&gt;Node24</title>
<path fill="none" stroke="midnightblue" d="M399.896,-448.297C377.842,-415.217 298.97,-296.909 269.191,-252.241"/>
<polygon fill="midnightblue" stroke="midnightblue" points="272.079,-250.263 263.62,-243.884 266.255,-254.146 272.079,-250.263"/>
</g>
<!-- Node28 -->
<g id="node28" class="node"><title>Node28</title>
<g id="a_node28"><a xlink:href="grid_8hpp.html" target="_top" xlink:title="Domain decomposition for parallel computing. ">
<polygon fill="none" stroke="black" points="721.697,-336.5 721.697,-355.5 777.697,-355.5 777.697,-336.5 721.697,-336.5"/>
<text text-anchor="middle" x="749.697" y="-343.5" font-family="Helvetica,sans-Serif" font-size="10.00">grid.hpp</text>
</a>
</g>
</g>
<!-- Node1&#45;&gt;Node28 -->
<g id="edge37" class="edge"><title>Node1&#45;&gt;Node28</title>
<path fill="none" stroke="midnightblue" d="M444.936,-456.666C521.613,-455.213 687.532,-447.888 729.697,-412 743.024,-400.657 747.623,-380.66 749.134,-365.832"/>
<polygon fill="midnightblue" stroke="midnightblue" points="752.634,-365.932 749.78,-355.729 745.649,-365.485 752.634,-365.932"/>
</g>
<!-- Node30 -->
<g id="node30" class="node"><title>Node30</title>
<g id="a_node30"><a xlink:href="interaction__data_8hpp.html" target="_top" xlink:title="Various procedures concerning interactions between particles. ">
<polygon fill="none" stroke="black" points="458.197,-280.5 458.197,-299.5 575.197,-299.5 575.197,-280.5 458.197,-280.5"/>
<text text-anchor="middle" x="516.697" y="-287.5" font-family="Helvetica,sans-Serif" font-size="10.00">interaction_data.hpp</text>
</a>
</g>
</g>
<!-- Node1&#45;&gt;Node30 -->
<g id="edge43" class="edge"><title>Node1&#45;&gt;Node30</title>
<path fill="none" stroke="midnightblue" d="M404.542,-448.371C402.167,-427.015 398.937,-370.902 424.697,-336 436.19,-320.429 454.541,-309.964 471.84,-303.078"/>
<polygon fill="midnightblue" stroke="midnightblue" points="473.11,-306.34 481.293,-299.611 470.699,-299.768 473.11,-306.34"/>
</g>
<!-- Node31 -->
<g id="node31" class="node"><title>Node31</title>
<g id="a_node31"><a xlink:href="cells_8hpp.html" target="_top" xlink:title="This file contains everything related to the cell structure / cell system. ">
<polygon fill="none" stroke="black" points="146.697,-336.5 146.697,-355.5 206.697,-355.5 206.697,-336.5 146.697,-336.5"/>
<text text-anchor="middle" x="176.697" y="-343.5" font-family="Helvetica,sans-Serif" font-size="10.00">cells.hpp</text>
</a>
</g>
</g>
<!-- Node1&#45;&gt;Node31 -->
<g id="edge46" class="edge"><title>Node1&#45;&gt;Node31</title>
<path fill="none" stroke="midnightblue" d="M366.316,-454.116C310.356,-449.177 211.912,-437.101 187.697,-412 176.16,-400.041 174.171,-380.74 174.611,-366.271"/>
<polygon fill="midnightblue" stroke="midnightblue" points="178.128,-366.16 175.349,-355.936 171.146,-365.662 178.128,-366.16"/>
</g>
<!-- Node34 -->
<g id="node34" class="node"><title>Node34</title>
<g id="a_node34"><a xlink:href="mmm2d_8hpp.html" target="_top" xlink:title="MMM2D algorithm for long range coulomb interaction in 2d+h geometries. ">
<polygon fill="none" stroke="black" points="642.197,-392.5 642.197,-411.5 721.197,-411.5 721.197,-392.5 642.197,-392.5"/>
<text text-anchor="middle" x="681.697" y="-399.5" font-family="Helvetica,sans-Serif" font-size="10.00">mmm2d.hpp</text>
</a>
</g>
</g>
<!-- Node1&#45;&gt;Node34 -->
<g id="edge53" class="edge"><title>Node1&#45;&gt;Node34</title>
<path fill="none" stroke="midnightblue" d="M444.948,-449.32C494.163,-439.691 578.565,-423.178 632.172,-412.69"/>
<polygon fill="midnightblue" stroke="midnightblue" points="632.993,-416.096 642.135,-410.74 631.649,-409.226 632.993,-416.096"/>
</g>
<!-- Node35 -->
<g id="node35" class="node"><title>Node35</title>
<g id="a_node35"><a xlink:href="mmm-common_8hpp.html" target="_top" xlink:title="modified polygamma functions. ">
<polygon fill="none" stroke="black" points="472.197,-392.5 472.197,-411.5 585.197,-411.5 585.197,-392.5 472.197,-392.5"/>
<text text-anchor="middle" x="528.697" y="-399.5" font-family="Helvetica,sans-Serif" font-size="10.00">mmm&#45;common.hpp</text>
</a>
</g>
</g>
<!-- Node1&#45;&gt;Node35 -->
<g id="edge55" class="edge"><title>Node1&#45;&gt;Node35</title>
<path fill="none" stroke="midnightblue" d="M425.187,-448.444C445.34,-439.596 477.02,-425.687 500.028,-415.586"/>
<polygon fill="midnightblue" stroke="midnightblue" points="501.549,-418.741 509.299,-411.516 498.735,-412.332 501.549,-418.741"/>
</g>
<!-- Node37 -->
<g id="node37" class="node"><title>Node37</title>
<g id="a_node37"><a xlink:href="specfunc_8hpp.html" target="_top" xlink:title="This file contains implementations for some special functions which are needed by the MMM family of a...">
<polygon fill="none" stroke="black" points="434.197,-336.5 434.197,-355.5 515.197,-355.5 515.197,-336.5 434.197,-336.5"/>
<text text-anchor="middle" x="474.697" y="-343.5" font-family="Helvetica,sans-Serif" font-size="10.00">specfunc.hpp</text>
</a>
</g>
</g>
<!-- Node1&#45;&gt;Node37 -->
<g id="edge59" class="edge"><title>Node1&#45;&gt;Node37</title>
<path fill="none" stroke="midnightblue" d="M411.112,-448.368C422.448,-430.296 448.869,-388.176 463.841,-364.307"/>
<polygon fill="midnightblue" stroke="midnightblue" points="466.959,-365.923 469.308,-355.591 461.029,-362.203 466.959,-365.923"/>
</g>
<!-- Node38 -->
<g id="node38" class="node"><title>Node38</title>
<g id="a_node38"><a xlink:href="integrate_8hpp.html" target="_top" xlink:title="Molecular dynamics integrator. ">
<polygon fill="none" stroke="black" points="777.697,-392.5 777.697,-411.5 859.697,-411.5 859.697,-392.5 777.697,-392.5"/>
<text text-anchor="middle" x="818.697" y="-399.5" font-family="Helvetica,sans-Serif" font-size="10.00">integrate.hpp</text>
</a>
</g>
</g>
<!-- Node1&#45;&gt;Node38 -->
<g id="edge60" class="edge"><title>Node1&#45;&gt;Node38</title>
<path fill="none" stroke="midnightblue" d="M444.698,-452.579C510.546,-445.006 647.918,-428.744 763.697,-412 764.963,-411.817 766.245,-411.629 767.538,-411.437"/>
<polygon fill="midnightblue" stroke="midnightblue" points="768.222,-414.873 777.578,-409.9 767.163,-407.953 768.222,-414.873"/>
</g>
<!-- Node39 -->
<g id="node39" class="node"><title>Node39</title>
<g id="a_node39"><a xlink:href="layered_8hpp.html" target="_top" xlink:title="The layered cellsystem. ">
<polygon fill="none" stroke="black" points="196.697,-392.5 196.697,-411.5 270.697,-411.5 270.697,-392.5 196.697,-392.5"/>
<text text-anchor="middle" x="233.697" y="-399.5" font-family="Helvetica,sans-Serif" font-size="10.00">layered.hpp</text>
</a>
</g>
</g>
<!-- Node1&#45;&gt;Node39 -->
<g id="edge61" class="edge"><title>Node1&#45;&gt;Node39</title>
<path fill="none" stroke="midnightblue" d="M378.443,-448.444C349.256,-439.28 302.776,-424.688 270.388,-414.519"/>
<polygon fill="midnightblue" stroke="midnightblue" points="271.413,-411.173 260.824,-411.516 269.316,-417.851 271.413,-411.173"/>
</g>
<!-- Node4 -->
<g id="node4" class="node"><title>Node4</title>
<polygon fill="none" stroke="#bfbfbf" points="29.1973,-168.5 29.1973,-187.5 82.1973,-187.5 82.1973,-168.5 29.1973,-168.5"/>
<text text-anchor="middle" x="55.6973" y="-175.5" font-family="Helvetica,sans-Serif" font-size="10.00">string.h</text>
</g>
<!-- Node3&#45;&gt;Node4 -->
<g id="edge3" class="edge"><title>Node3&#45;&gt;Node4</title>
<path fill="none" stroke="midnightblue" d="M109.415,-224.324C99.861,-216.263 85.4177,-204.077 73.913,-194.369"/>
<polygon fill="midnightblue" stroke="midnightblue" points="76.0671,-191.608 66.1671,-187.834 71.553,-196.958 76.0671,-191.608"/>
</g>
<!-- Node5 -->
<g id="node5" class="node"><title>Node5</title>
<polygon fill="none" stroke="#bfbfbf" points="100.697,-168.5 100.697,-187.5 150.697,-187.5 150.697,-168.5 100.697,-168.5"/>
<text text-anchor="middle" x="125.697" y="-175.5" font-family="Helvetica,sans-Serif" font-size="10.00">stdio.h</text>
</g>
<!-- Node3&#45;&gt;Node5 -->
<g id="edge4" class="edge"><title>Node3&#45;&gt;Node5</title>
<path fill="none" stroke="midnightblue" d="M120.688,-224.083C121.483,-216.927 122.627,-206.635 123.621,-197.691"/>
<polygon fill="midnightblue" stroke="midnightblue" points="127.099,-198.076 124.725,-187.751 120.142,-197.303 127.099,-198.076"/>
</g>
<!-- Node6 -->
<g id="node6" class="node"><title>Node6</title>
<polygon fill="none" stroke="#bfbfbf" points="169.197,-168.5 169.197,-187.5 222.197,-187.5 222.197,-168.5 169.197,-168.5"/>
<text text-anchor="middle" x="195.697" y="-175.5" font-family="Helvetica,sans-Serif" font-size="10.00">stdlib.h</text>
</g>
<!-- Node3&#45;&gt;Node6 -->
<g id="edge5" class="edge"><title>Node3&#45;&gt;Node6</title>
<path fill="none" stroke="midnightblue" d="M131.908,-224.324C143.473,-216.107 161.073,-203.602 174.858,-193.807"/>
<polygon fill="midnightblue" stroke="midnightblue" points="177.14,-196.479 183.264,-187.834 173.085,-190.773 177.14,-196.479"/>
</g>
<!-- Node7&#45;&gt;Node2 -->
<g id="edge7" class="edge"><title>Node7&#45;&gt;Node2</title>
<path fill="none" stroke="midnightblue" d="M544.795,-174.423C487.43,-169.175 357.857,-155.848 240.259,-132.088"/>
<polygon fill="midnightblue" stroke="midnightblue" points="240.871,-128.641 230.371,-130.06 239.464,-135.498 240.871,-128.641"/>
</g>
<!-- Node8 -->
<g id="node8" class="node"><title>Node8</title>
<polygon fill="none" stroke="#bfbfbf" points="435.697,-112.5 435.697,-131.5 481.697,-131.5 481.697,-112.5 435.697,-112.5"/>
<text text-anchor="middle" x="458.697" y="-119.5" font-family="Helvetica,sans-Serif" font-size="10.00">cstdio</text>
</g>
<!-- Node7&#45;&gt;Node8 -->
<g id="edge8" class="edge"><title>Node7&#45;&gt;Node8</title>
<path fill="none" stroke="midnightblue" d="M556.317,-168.444C537.481,-159.675 507.966,-145.935 486.318,-135.858"/>
<polygon fill="midnightblue" stroke="midnightblue" points="487.535,-132.564 476.992,-131.516 484.581,-138.91 487.535,-132.564"/>
</g>
<!-- Node9 -->
<g id="node9" class="node"><title>Node9</title>
<polygon fill="none" stroke="#bfbfbf" points="500.197,-112.5 500.197,-131.5 549.197,-131.5 549.197,-112.5 500.197,-112.5"/>
<text text-anchor="middle" x="524.697" y="-119.5" font-family="Helvetica,sans-Serif" font-size="10.00">cstdlib</text>
</g>
<!-- Node7&#45;&gt;Node9 -->
<g id="edge9" class="edge"><title>Node7&#45;&gt;Node9</title>
<path fill="none" stroke="midnightblue" d="M566.441,-168.083C559.233,-160.298 548.588,-148.801 539.852,-139.367"/>
<polygon fill="midnightblue" stroke="midnightblue" points="542.162,-136.711 532.8,-131.751 537.026,-141.467 542.162,-136.711"/>
</g>
<!-- Node10 -->
<g id="node10" class="node"><title>Node10</title>
<polygon fill="none" stroke="#bfbfbf" points="567.697,-112.5 567.697,-131.5 617.697,-131.5 617.697,-112.5 567.697,-112.5"/>
<text text-anchor="middle" x="592.697" y="-119.5" font-family="Helvetica,sans-Serif" font-size="10.00">cstring</text>
</g>
<!-- Node7&#45;&gt;Node10 -->
<g id="edge10" class="edge"><title>Node7&#45;&gt;Node10</title>
<path fill="none" stroke="midnightblue" d="M577.67,-168.083C580.081,-160.849 583.561,-150.409 586.565,-141.397"/>
<polygon fill="midnightblue" stroke="midnightblue" points="589.938,-142.345 589.78,-131.751 583.298,-140.131 589.938,-142.345"/>
</g>
<!-- Node11 -->
<g id="node11" class="node"><title>Node11</title>
<g id="a_node11"><a xlink:href="config_8hpp.html" target="_top" xlink:title="This file contains the defaults for Espresso. ">
<polygon fill="none" stroke="black" points="612.197,-56.5 612.197,-75.5 679.197,-75.5 679.197,-56.5 612.197,-56.5"/>
<text text-anchor="middle" x="645.697" y="-63.5" font-family="Helvetica,sans-Serif" font-size="10.00">config.hpp</text>
</a>
</g>
</g>
<!-- Node7&#45;&gt;Node11 -->
<g id="edge11" class="edge"><title>Node7&#45;&gt;Node11</title>
<path fill="none" stroke="midnightblue" d="M588.615,-168.314C600.397,-160.27 616.891,-147.269 626.697,-132 635.731,-117.934 640.591,-99.4414 643.127,-85.7783"/>
<polygon fill="midnightblue" stroke="midnightblue" points="646.625,-86.0684 644.751,-75.6406 639.713,-84.961 646.625,-86.0684"/>
</g>
<!-- Node15 -->
<g id="node15" class="node"><title>Node15</title>
<g id="a_node15"><a xlink:href="debug_8hpp.html" target="_top" xlink:title="This file controls debug facilities. ">
<polygon fill="none" stroke="black" points="673.697,-112.5 673.697,-131.5 741.697,-131.5 741.697,-112.5 673.697,-112.5"/>
<text text-anchor="middle" x="707.697" y="-119.5" font-family="Helvetica,sans-Serif" font-size="10.00">debug.hpp</text>
</a>
</g>
</g>
<!-- Node7&#45;&gt;Node15 -->
<g id="edge15" class="edge"><title>Node7&#45;&gt;Node15</title>
<path fill="none" stroke="midnightblue" d="M595.772,-168.444C617.757,-159.517 652.432,-145.439 677.361,-135.317"/>
<polygon fill="midnightblue" stroke="midnightblue" points="678.773,-138.521 686.722,-131.516 676.14,-132.035 678.773,-138.521"/>
</g>
<!-- Node16 -->
<g id="node16" class="node"><title>Node16</title>
<g id="a_node16"><a xlink:href="lees__edwards_8hpp.html" target="_top" xlink:title="lees_edwards.hpp">
<polygon fill="none" stroke="black" points="313.697,-112.5 313.697,-131.5 417.697,-131.5 417.697,-112.5 313.697,-112.5"/>
<text text-anchor="middle" x="365.697" y="-119.5" font-family="Helvetica,sans-Serif" font-size="10.00">lees_edwards.hpp</text>
</a>
</g>
</g>
<!-- Node7&#45;&gt;Node16 -->
<g id="edge17" class="edge"><title>Node7&#45;&gt;Node16</title>
<path fill="none" stroke="midnightblue" d="M545.196,-169.378C509.616,-160.185 449.521,-144.658 408.761,-134.127"/>
<polygon fill="midnightblue" stroke="midnightblue" points="409.4,-130.677 398.842,-131.564 407.648,-137.454 409.4,-130.677"/>
</g>
<!-- Node17 -->
<g id="node17" class="node"><title>Node17</title>
<g id="a_node17"><a xlink:href="errorhandling_8hpp.html" target="_top" xlink:title="This file contains the errorhandling code for severe errors, like a broken bond or illegal parameter ...">
<polygon fill="none" stroke="black" points="843.197,-112.5 843.197,-131.5 946.197,-131.5 946.197,-112.5 843.197,-112.5"/>
<text text-anchor="middle" x="894.697" y="-119.5" font-family="Helvetica,sans-Serif" font-size="10.00">errorhandling.hpp</text>
</a>
</g>
</g>
<!-- Node7&#45;&gt;Node17 -->
<g id="edge19" class="edge"><title>Node7&#45;&gt;Node17</title>
<path fill="none" stroke="midnightblue" d="M604.229,-172.017C656.253,-163.237 765.219,-144.849 833.901,-133.259"/>
<polygon fill="midnightblue" stroke="midnightblue" points="834.869,-136.646 844.147,-131.53 833.704,-129.743 834.869,-136.646"/>
</g>
<!-- Node21 -->
<g id="node21" class="node"><title>Node21</title>
<polygon fill="none" stroke="#bfbfbf" points="248.197,-112.5 248.197,-131.5 295.197,-131.5 295.197,-112.5 248.197,-112.5"/>
<text text-anchor="middle" x="271.697" y="-119.5" font-family="Helvetica,sans-Serif" font-size="10.00">vector</text>
</g>
<!-- Node7&#45;&gt;Node21 -->
<g id="edge24" class="edge"><title>Node7&#45;&gt;Node21</title>
<path fill="none" stroke="midnightblue" d="M544.945,-173.045C496.71,-166.417 398.299,-151.999 305.273,-131.93"/>
<polygon fill="midnightblue" stroke="midnightblue" points="305.936,-128.492 295.419,-129.778 304.442,-135.331 305.936,-128.492"/>
</g>
<!-- Node22 -->
<g id="node22" class="node"><title>Node22</title>
<polygon fill="none" stroke="#bfbfbf" points="760.197,-112.5 760.197,-131.5 825.197,-131.5 825.197,-112.5 760.197,-112.5"/>
<text text-anchor="middle" x="792.697" y="-119.5" font-family="Helvetica,sans-Serif" font-size="10.00">exception</text>
</g>
<!-- Node7&#45;&gt;Node22 -->
<g id="edge25" class="edge"><title>Node7&#45;&gt;Node22</title>
<path fill="none" stroke="midnightblue" d="M604.552,-169.605C642.229,-160.272 707.278,-144.159 750.149,-133.54"/>
<polygon fill="midnightblue" stroke="midnightblue" points="751.141,-136.9 760.006,-131.098 749.458,-130.105 751.141,-136.9"/>
</g>
<!-- Node12 -->
<g id="node12" class="node"><title>Node12</title>
<g id="a_node12"><a xlink:href="acconfig_8hpp.html" target="_top" xlink:title="acconfig.hpp">
<polygon fill="none" stroke="black" points="495.697,-0.5 495.697,-19.5 573.697,-19.5 573.697,-0.5 495.697,-0.5"/>
<text text-anchor="middle" x="534.697" y="-7.5" font-family="Helvetica,sans-Serif" font-size="10.00">acconfig.hpp</text>
</a>
</g>
</g>
<!-- Node11&#45;&gt;Node12 -->
<g id="edge12" class="edge"><title>Node11&#45;&gt;Node12</title>
<path fill="none" stroke="midnightblue" d="M627.863,-56.324C609.981,-47.6247 582.222,-34.1202 561.652,-24.113"/>
<polygon fill="midnightblue" stroke="midnightblue" points="563.011,-20.8819 552.487,-19.6545 559.948,-27.1765 563.011,-20.8819"/>
</g>
<!-- Node13 -->
<g id="node13" class="node"><title>Node13</title>
<g id="a_node13"><a xlink:href="myconfig-final_8hpp.html" target="_top" xlink:title="myconfig&#45;final.hpp">
<polygon fill="none" stroke="black" points="592.197,-0.5 592.197,-19.5 699.197,-19.5 699.197,-0.5 592.197,-0.5"/>
<text text-anchor="middle" x="645.697" y="-7.5" font-family="Helvetica,sans-Serif" font-size="10.00">myconfig&#45;final.hpp</text>
</a>
</g>
</g>
<!-- Node11&#45;&gt;Node13 -->
<g id="edge13" class="edge"><title>Node11&#45;&gt;Node13</title>
<path fill="none" stroke="midnightblue" d="M645.697,-56.083C645.697,-49.0059 645.697,-38.8611 645.697,-29.9865"/>
<polygon fill="midnightblue" stroke="midnightblue" points="649.197,-29.751 645.697,-19.7511 642.197,-29.7511 649.197,-29.751"/>
</g>
<!-- Node14 -->
<g id="node14" class="node"><title>Node14</title>
<g id="a_node14"><a xlink:href="config-features_8hpp.html" target="_top" xlink:title="config&#45;features.hpp">
<polygon fill="none" stroke="black" points="717.197,-0.5 717.197,-19.5 828.197,-19.5 828.197,-0.5 717.197,-0.5"/>
<text text-anchor="middle" x="772.697" y="-7.5" font-family="Helvetica,sans-Serif" font-size="10.00">config&#45;features.hpp</text>
</a>
</g>
</g>
<!-- Node11&#45;&gt;Node14 -->
<g id="edge14" class="edge"><title>Node11&#45;&gt;Node14</title>
<path fill="none" stroke="midnightblue" d="M665.821,-56.4435C686.722,-47.5566 719.632,-33.5632 743.413,-23.4514"/>
<polygon fill="midnightblue" stroke="midnightblue" points="744.835,-26.6504 752.668,-19.5164 742.096,-20.2085 744.835,-26.6504"/>
</g>
<!-- Node15&#45;&gt;Node11 -->
<g id="edge16" class="edge"><title>Node15&#45;&gt;Node11</title>
<path fill="none" stroke="midnightblue" d="M697.736,-112.324C688.571,-104.341 674.76,-92.3128 663.669,-82.6529"/>
<polygon fill="midnightblue" stroke="midnightblue" points="665.68,-79.7624 655.84,-75.8339 661.082,-85.041 665.68,-79.7624"/>
</g>
<!-- Node16&#45;&gt;Node11 -->
<g id="edge18" class="edge"><title>Node16&#45;&gt;Node11</title>
<path fill="none" stroke="midnightblue" d="M410.064,-112.444C462.686,-102.295 549.837,-85.4873 602.114,-75.4054"/>
<polygon fill="midnightblue" stroke="midnightblue" points="602.927,-78.8131 612.084,-73.4826 601.602,-71.9397 602.927,-78.8131"/>
</g>
<!-- Node17&#45;&gt;Node11 -->
<g id="edge20" class="edge"><title>Node17&#45;&gt;Node11</title>
<path fill="none" stroke="midnightblue" d="M855.243,-112.444C810.017,-102.635 736.11,-86.6076 689.237,-76.4423"/>
<polygon fill="midnightblue" stroke="midnightblue" points="689.892,-73.0032 679.378,-74.3042 688.409,-79.8441 689.892,-73.0032"/>
</g>
<!-- Node18 -->
<g id="node18" class="node"><title>Node18</title>
<polygon fill="none" stroke="#bfbfbf" points="872.697,-56.5 872.697,-75.5 916.697,-75.5 916.697,-56.5 872.697,-56.5"/>
<text text-anchor="middle" x="894.697" y="-63.5" font-family="Helvetica,sans-Serif" font-size="10.00">string</text>
</g>
<!-- Node17&#45;&gt;Node18 -->
<g id="edge21" class="edge"><title>Node17&#45;&gt;Node18</title>
<path fill="none" stroke="midnightblue" d="M894.697,-112.083C894.697,-105.006 894.697,-94.8611 894.697,-85.9865"/>
<polygon fill="midnightblue" stroke="midnightblue" points="898.197,-85.751 894.697,-75.7511 891.197,-85.7511 898.197,-85.751"/>
</g>
<!-- Node19 -->
<g id="node19" class="node"><title>Node19</title>
<polygon fill="none" stroke="#bfbfbf" points="934.697,-56.5 934.697,-75.5 990.697,-75.5 990.697,-56.5 934.697,-56.5"/>
<text text-anchor="middle" x="962.697" y="-63.5" font-family="Helvetica,sans-Serif" font-size="10.00">sstream</text>
</g>
<!-- Node17&#45;&gt;Node19 -->
<g id="edge22" class="edge"><title>Node17&#45;&gt;Node19</title>
<path fill="none" stroke="midnightblue" d="M905.623,-112.324C915.872,-104.185 931.418,-91.8395 943.698,-82.0874"/>
<polygon fill="midnightblue" stroke="midnightblue" points="945.919,-84.7937 951.573,-75.8339 941.565,-79.3119 945.919,-84.7937"/>
</g>
<!-- Node20 -->
<g id="node20" class="node"><title>Node20</title>
<polygon fill="none" stroke="#bfbfbf" points="822.697,-56.5 822.697,-75.5 854.697,-75.5 854.697,-56.5 822.697,-56.5"/>
<text text-anchor="middle" x="838.697" y="-63.5" font-family="Helvetica,sans-Serif" font-size="10.00">list</text>
</g>
<!-- Node17&#45;&gt;Node20 -->
<g id="edge23" class="edge"><title>Node17&#45;&gt;Node20</title>
<path fill="none" stroke="midnightblue" d="M885.7,-112.324C877.503,-104.42 865.192,-92.5482 855.225,-82.9377"/>
<polygon fill="midnightblue" stroke="midnightblue" points="857.486,-80.2558 847.858,-75.8339 852.627,-85.2947 857.486,-80.2558"/>
</g>
<!-- Node23&#45;&gt;Node3 -->
<g id="edge33" class="edge"><title>Node23&#45;&gt;Node3</title>
<path fill="none" stroke="midnightblue" d="M341.866,-280.444C289.15,-269.661 199.681,-251.36 151.95,-241.597"/>
<polygon fill="midnightblue" stroke="midnightblue" points="152.369,-238.11 141.87,-239.535 150.966,-244.968 152.369,-238.11"/>
</g>
<!-- Node23&#45;&gt;Node24 -->
<g id="edge27" class="edge"><title>Node23&#45;&gt;Node24</title>
<path fill="none" stroke="midnightblue" d="M363.732,-280.444C343.088,-271.596 310.635,-257.687 287.066,-247.586"/>
<polygon fill="midnightblue" stroke="midnightblue" points="288.139,-244.239 277.569,-243.516 285.382,-250.673 288.139,-244.239"/>
</g>
<!-- Node25 -->
<g id="node25" class="node"><title>Node25</title>
<g id="a_node25"><a xlink:href="random_8hpp.html" target="_top" xlink:title="A random generator. ">
<polygon fill="none" stroke="black" points="365.197,-224.5 365.197,-243.5 440.197,-243.5 440.197,-224.5 365.197,-224.5"/>
<text text-anchor="middle" x="402.697" y="-231.5" font-family="Helvetica,sans-Serif" font-size="10.00">random.hpp</text>
</a>
</g>
</g>
<!-- Node23&#45;&gt;Node25 -->
<g id="edge29" class="edge"><title>Node23&#45;&gt;Node25</title>
<path fill="none" stroke="midnightblue" d="M386.835,-280.083C389.38,-272.849 393.054,-262.409 396.224,-253.397"/>
<polygon fill="midnightblue" stroke="midnightblue" points="399.601,-254.346 399.618,-243.751 392.998,-252.023 399.601,-254.346"/>
</g>
<!-- Node26 -->
<g id="node26" class="node"><title>Node26</title>
<g id="a_node26"><a xlink:href="topology_8hpp.html" target="_top" xlink:title="This file contains functions for handling the system topology. ">
<polygon fill="none" stroke="black" points="458.197,-224.5 458.197,-243.5 537.197,-243.5 537.197,-224.5 458.197,-224.5"/>
<text text-anchor="middle" x="497.697" y="-231.5" font-family="Helvetica,sans-Serif" font-size="10.00">topology.hpp</text>
</a>
</g>
</g>
<!-- Node23&#45;&gt;Node26 -->
<g id="edge31" class="edge"><title>Node23&#45;&gt;Node26</title>
<path fill="none" stroke="midnightblue" d="M401.761,-280.444C420.272,-271.675 449.278,-257.935 470.553,-247.858"/>
<polygon fill="midnightblue" stroke="midnightblue" points="472.179,-250.96 479.718,-243.516 469.183,-244.634 472.179,-250.96"/>
</g>
<!-- Node27 -->
<g id="node27" class="node"><title>Node27</title>
<g id="a_node27"><a xlink:href="cuda__init_8hpp.html" target="_top" xlink:title="cuda_init.hpp">
<polygon fill="none" stroke="black" points="240.697,-168.5 240.697,-187.5 322.697,-187.5 322.697,-168.5 240.697,-168.5"/>
<text text-anchor="middle" x="281.697" y="-175.5" font-family="Helvetica,sans-Serif" font-size="10.00">cuda_init.hpp</text>
</a>
</g>
</g>
<!-- Node23&#45;&gt;Node27 -->
<g id="edge34" class="edge"><title>Node23&#45;&gt;Node27</title>
<path fill="none" stroke="midnightblue" d="M375.694,-280.368C358.637,-261.974 318.483,-218.671 296.582,-195.052"/>
<polygon fill="midnightblue" stroke="midnightblue" points="299.03,-192.544 289.664,-187.591 293.897,-197.304 299.03,-192.544"/>
</g>
<!-- Node24&#45;&gt;Node7 -->
<g id="edge28" class="edge"><title>Node24&#45;&gt;Node7</title>
<path fill="none" stroke="midnightblue" d="M307.927,-224.444C370.874,-213.721 477.461,-195.564 535.008,-185.761"/>
<polygon fill="midnightblue" stroke="midnightblue" points="535.89,-189.161 545.161,-184.032 534.715,-182.261 535.89,-189.161"/>
</g>
<!-- Node25&#45;&gt;Node7 -->
<g id="edge30" class="edge"><title>Node25&#45;&gt;Node7</title>
<path fill="none" stroke="midnightblue" d="M429.951,-224.444C459.138,-215.28 505.618,-200.688 538.007,-190.519"/>
<polygon fill="midnightblue" stroke="midnightblue" points="539.078,-193.851 547.571,-187.516 536.982,-187.173 539.078,-193.851"/>
</g>
<!-- Node26&#45;&gt;Node7 -->
<g id="edge32" class="edge"><title>Node26&#45;&gt;Node7</title>
<path fill="none" stroke="midnightblue" d="M510.069,-224.324C521.856,-216.058 539.83,-203.453 553.833,-193.632"/>
<polygon fill="midnightblue" stroke="midnightblue" points="556.179,-196.262 562.357,-187.655 552.16,-190.531 556.179,-196.262"/>
</g>
<!-- Node27&#45;&gt;Node11 -->
<g id="edge35" class="edge"><title>Node27&#45;&gt;Node11</title>
<path fill="none" stroke="midnightblue" d="M241.614,-168.421C201.609,-158.113 149.333,-138.798 173.697,-112 202.196,-80.655 490.074,-70.6227 601.75,-67.8953"/>
<polygon fill="midnightblue" stroke="midnightblue" points="602.078,-71.3886 611.992,-67.6537 601.912,-64.3905 602.078,-71.3886"/>
</g>
<!-- Node27&#45;&gt;Node21 -->
<g id="edge36" class="edge"><title>Node27&#45;&gt;Node21</title>
<path fill="none" stroke="midnightblue" d="M280.046,-168.083C278.721,-160.927 276.815,-150.635 275.159,-141.691"/>
<polygon fill="midnightblue" stroke="midnightblue" points="278.58,-140.947 273.318,-131.751 271.697,-142.221 278.58,-140.947"/>
</g>
<!-- Node28&#45;&gt;Node7 -->
<g id="edge38" class="edge"><title>Node28&#45;&gt;Node7</title>
<path fill="none" stroke="midnightblue" d="M746.646,-336.287C737.775,-311.373 711.49,-240.557 693.697,-224 671.74,-203.568 639.595,-192.151 614.248,-185.933"/>
<polygon fill="midnightblue" stroke="midnightblue" points="614.729,-182.453 604.202,-183.649 613.177,-189.279 614.729,-182.453"/>
</g>
<!-- Node28&#45;&gt;Node17 -->
<g id="edge41" class="edge"><title>Node28&#45;&gt;Node17</title>
<path fill="none" stroke="midnightblue" d="M763.26,-336.31C775.301,-328.079 792.784,-314.801 804.697,-300 846.048,-248.628 875.855,-175.197 888.28,-141.36"/>
<polygon fill="midnightblue" stroke="midnightblue" points="891.612,-142.438 891.696,-131.843 885.024,-140.073 891.612,-142.438"/>
</g>
<!-- Node28&#45;&gt;Node23 -->
<g id="edge40" class="edge"><title>Node28&#45;&gt;Node23</title>
<path fill="none" stroke="midnightblue" d="M721.586,-340.852C664.038,-332.362 531.427,-312.796 450.506,-300.857"/>
<polygon fill="midnightblue" stroke="midnightblue" points="450.82,-297.366 440.417,-299.368 449.799,-304.291 450.82,-297.366"/>
</g>
<!-- Node29 -->
<g id="node29" class="node"><title>Node29</title>
<polygon fill="none" stroke="#bfbfbf" points="745.697,-280.5 745.697,-299.5 795.697,-299.5 795.697,-280.5 745.697,-280.5"/>
<text text-anchor="middle" x="770.697" y="-287.5" font-family="Helvetica,sans-Serif" font-size="10.00">climits</text>
</g>
<!-- Node28&#45;&gt;Node29 -->
<g id="edge39" class="edge"><title>Node28&#45;&gt;Node29</title>
<path fill="none" stroke="midnightblue" d="M753.165,-336.083C756.009,-328.77 760.127,-318.181 763.657,-309.103"/>
<polygon fill="midnightblue" stroke="midnightblue" points="766.932,-310.34 767.294,-299.751 760.408,-307.803 766.932,-310.34"/>
</g>
<!-- Node30&#45;&gt;Node7 -->
<g id="edge44" class="edge"><title>Node30&#45;&gt;Node7</title>
<path fill="none" stroke="midnightblue" d="M522.887,-280.279C529.061,-271.387 538.619,-257.078 545.697,-244 554.051,-228.565 562.062,-210.249 567.539,-197"/>
<polygon fill="midnightblue" stroke="midnightblue" points="570.831,-198.195 571.346,-187.613 564.344,-195.564 570.831,-198.195"/>
</g>
<!-- Node30&#45;&gt;Node24 -->
<g id="edge45" class="edge"><title>Node30&#45;&gt;Node24</title>
<path fill="none" stroke="midnightblue" d="M475.658,-280.444C430.381,-271.004 357.47,-255.802 308.591,-245.611"/>
<polygon fill="midnightblue" stroke="midnightblue" points="309.049,-242.131 298.545,-243.516 307.62,-248.984 309.049,-242.131"/>
</g>
<!-- Node31&#45;&gt;Node24 -->
<g id="edge47" class="edge"><title>Node31&#45;&gt;Node24</title>
<path fill="none" stroke="midnightblue" d="M177.453,-336.231C178.97,-322.966 183.375,-297.493 195.697,-280 204.881,-266.963 219.062,-256.267 231.545,-248.579"/>
<polygon fill="midnightblue" stroke="midnightblue" points="233.355,-251.575 240.239,-243.521 229.835,-245.524 233.355,-251.575"/>
</g>
<!-- Node32 -->
<g id="node32" class="node"><title>Node32</title>
<g id="a_node32"><a xlink:href="ghosts_8hpp.html" target="_top" xlink:title="Ghost particles and particle exchange. ">
<polygon fill="none" stroke="black" points="78.6973,-280.5 78.6973,-299.5 148.697,-299.5 148.697,-280.5 78.6973,-280.5"/>
<text text-anchor="middle" x="113.697" y="-287.5" font-family="Helvetica,sans-Serif" font-size="10.00">ghosts.hpp</text>
</a>
</g>
</g>
<!-- Node31&#45;&gt;Node32 -->
<g id="edge48" class="edge"><title>Node31&#45;&gt;Node32</title>
<path fill="none" stroke="midnightblue" d="M166.575,-336.324C157.171,-328.263 142.953,-316.077 131.628,-306.369"/>
<polygon fill="midnightblue" stroke="midnightblue" points="133.874,-303.684 124.004,-299.834 129.318,-308.999 133.874,-303.684"/>
</g>
<!-- Node33 -->
<g id="node33" class="node"><title>Node33</title>
<g id="a_node33"><a xlink:href="verlet_8hpp.html" target="_top" xlink:title="This file contains routines to setup and handle interaction pair lists (verlet pair lists) for the no...">
<polygon fill="none" stroke="black" points="204.697,-280.5 204.697,-299.5 270.697,-299.5 270.697,-280.5 204.697,-280.5"/>
<text text-anchor="middle" x="237.697" y="-287.5" font-family="Helvetica,sans-Serif" font-size="10.00">verlet.hpp</text>
</a>
</g>
</g>
<!-- Node31&#45;&gt;Node33 -->
<g id="edge51" class="edge"><title>Node31&#45;&gt;Node33</title>
<path fill="none" stroke="midnightblue" d="M186.498,-336.324C195.515,-328.341 209.103,-316.313 220.015,-306.653"/>
<polygon fill="midnightblue" stroke="midnightblue" points="222.551,-309.083 227.718,-299.834 217.911,-303.842 222.551,-309.083"/>
</g>
<!-- Node32&#45;&gt;Node3 -->
<g id="edge49" class="edge"><title>Node32&#45;&gt;Node3</title>
<path fill="none" stroke="midnightblue" d="M114.688,-280.083C115.483,-272.927 116.627,-262.635 117.621,-253.691"/>
<polygon fill="midnightblue" stroke="midnightblue" points="121.099,-254.076 118.725,-243.751 114.142,-253.303 121.099,-254.076"/>
</g>
<!-- Node32&#45;&gt;Node24 -->
<g id="edge50" class="edge"><title>Node32&#45;&gt;Node24</title>
<path fill="none" stroke="midnightblue" d="M136.515,-280.444C160.529,-271.438 198.526,-257.189 225.567,-247.049"/>
<polygon fill="midnightblue" stroke="midnightblue" points="226.853,-250.305 234.987,-243.516 224.395,-243.751 226.853,-250.305"/>
</g>
<!-- Node33&#45;&gt;Node24 -->
<g id="edge52" class="edge"><title>Node33&#45;&gt;Node24</title>
<path fill="none" stroke="midnightblue" d="M241,-280.083C243.679,-272.849 247.546,-262.409 250.884,-253.397"/>
<polygon fill="midnightblue" stroke="midnightblue" points="254.265,-254.344 254.456,-243.751 247.701,-251.913 254.265,-254.344"/>
</g>
<!-- Node34&#45;&gt;Node7 -->
<g id="edge54" class="edge"><title>Node34&#45;&gt;Node7</title>
<path fill="none" stroke="midnightblue" d="M682.927,-392.303C686.333,-364.815 693.312,-278.422 655.697,-224 645.396,-209.096 628.481,-198.596 612.766,-191.51"/>
<polygon fill="midnightblue" stroke="midnightblue" points="613.783,-188.142 603.206,-187.53 611.092,-194.604 613.783,-188.142"/>
</g>
<!-- Node36 -->
<g id="node36" class="node"><title>Node36</title>
<g id="a_node36"><a xlink:href="polynom_8hpp.html" target="_top" xlink:title="Datatypes and functions for polynomials. ">
<polygon fill="none" stroke="black" points="533.697,-336.5 533.697,-355.5 613.697,-355.5 613.697,-336.5 533.697,-336.5"/>
<text text-anchor="middle" x="573.697" y="-343.5" font-family="Helvetica,sans-Serif" font-size="10.00">polynom.hpp</text>
</a>
</g>
</g>
<!-- Node35&#45;&gt;Node36 -->
<g id="edge56" class="edge"><title>Node35&#45;&gt;Node36</title>
<path fill="none" stroke="midnightblue" d="M536.128,-392.083C542.55,-384.377 552.003,-373.033 559.82,-363.653"/>
<polygon fill="midnightblue" stroke="midnightblue" points="562.692,-365.674 566.405,-355.751 557.314,-361.193 562.692,-365.674"/>
</g>
<!-- Node35&#45;&gt;Node37 -->
<g id="edge58" class="edge"><title>Node35&#45;&gt;Node37</title>
<path fill="none" stroke="midnightblue" d="M519.78,-392.083C511.917,-384.22 500.266,-372.569 490.779,-363.081"/>
<polygon fill="midnightblue" stroke="midnightblue" points="492.994,-360.347 483.448,-355.751 488.045,-365.297 492.994,-360.347"/>
</g>
<!-- Node36&#45;&gt;Node7 -->
<g id="edge57" class="edge"><title>Node36&#45;&gt;Node7</title>
<path fill="none" stroke="midnightblue" d="M576.18,-336.467C578.654,-327.485 582.283,-312.888 583.697,-300 587.668,-263.831 582.183,-221.383 578.194,-197.596"/>
<polygon fill="midnightblue" stroke="midnightblue" points="581.601,-196.761 576.405,-187.527 574.709,-197.986 581.601,-196.761"/>
</g>
<!-- Node39&#45;&gt;Node31 -->
<g id="edge62" class="edge"><title>Node39&#45;&gt;Node31</title>
<path fill="none" stroke="midnightblue" d="M224.539,-392.324C216.196,-384.42 203.665,-372.548 193.52,-362.938"/>
<polygon fill="midnightblue" stroke="midnightblue" points="195.689,-360.171 186.022,-355.834 190.874,-365.252 195.689,-360.171"/>
</g>
</g>
</svg>
