<?xml version="1.0" encoding="UTF-8" standalone="no"?>
<!DOCTYPE svg PUBLIC "-//W3C//DTD SVG 1.1//EN"
 "http://www.w3.org/Graphics/SVG/1.1/DTD/svg11.dtd">
<!-- Generated by graphviz version 2.38.0 (20140413.2041)
 -->
<!-- Title: mol_cut.cpp Pages: 1 -->
<!--zoomable 364 -->
<svg id="main" version="1.1" xmlns="http://www.w3.org/2000/svg" xmlns:xlink="http://www.w3.org/1999/xlink" xml:space="preserve" onload="init(evt)">
<style type="text/css"><![CDATA[
.edge:hover path { stroke: red; }
.edge:hover polygon { stroke: red; fill: red; }
]]></style>
<script type="text/javascript"><![CDATA[
var edges = document.getElementsByTagName('g');
if (edges && edges.length) {
  for (var i=0;i<edges.length;i++) {
    if (edges[i].id.substr(0,4)=='edge') {
      edges[i].setAttribute('class','edge');
    }
  }
}
]]></script>
        <defs>
                <circle id="rim" cx="0" cy="0" r="7"/>
                <circle id="rim2" cx="0" cy="0" r="3.5"/>
                <g id="zoomPlus">
                        <use xlink:href="#rim" fill="#404040">
                                <set attributeName="fill" to="#808080" begin="zoomplus.mouseover" end="zoomplus.mouseout"/>
                        </use>
                        <path d="M-4,0h8M0,-4v8" fill="none" stroke="white" stroke-width="1.5" pointer-events="none"/>
                </g>
                <g id="zoomMin">
                        <use xlink:href="#rim" fill="#404040">
                                <set attributeName="fill" to="#808080" begin="zoomminus.mouseover" end="zoomminus.mouseout"/>
                        </use>
                        <path d="M-4,0h8" fill="none" stroke="white" stroke-width="1.5" pointer-events="none"/>
                </g>
                <g id="dirArrow">
                        <path fill="none" stroke="white" stroke-width="1.5" d="M0,-3.0v7 M-2.5,-0.5L0,-3.0L2.5,-0.5"/>
                </g>
               <g id="resetDef">
                       <use xlink:href="#rim2" fill="#404040">
                               <set attributeName="fill" to="#808080" begin="reset.mouseover" end="reset.mouseout"/>
                       </use>
               </g>
        </defs>

<script type="text/javascript">
var viewWidth = 861;
var viewHeight = 364;
var sectionId = 'dynsection-0';
</script>
<script xlink:href="svgpan.js"/>
<svg id="graph" class="graph">
<g id="viewport">
<title>mol_cut.cpp</title>
<!-- Node1 -->
<g id="node1" class="node"><title>Node1</title>
<polygon fill="#bfbfbf" stroke="black" points="407,-336.5 407,-355.5 483,-355.5 483,-336.5 407,-336.5"/>
<text text-anchor="middle" x="445" y="-343.5" font-family="Helvetica,sans-Serif" font-size="10.00">mol_cut.cpp</text>
</g>
<!-- Node2 -->
<g id="node2" class="node"><title>Node2</title>
<g id="a_node2"><a xlink:href="utils_8hpp.html" target="_top" xlink:title="Small functions that are useful not only for one modul. ">
<polygon fill="none" stroke="black" points="400.5,-168.5 400.5,-187.5 459.5,-187.5 459.5,-168.5 400.5,-168.5"/>
<text text-anchor="middle" x="430" y="-175.5" font-family="Helvetica,sans-Serif" font-size="10.00">utils.hpp</text>
</a>
</g>
</g>
<!-- Node1&#45;&gt;Node2 -->
<g id="edge1" class="edge"><title>Node1&#45;&gt;Node2</title>
<path fill="none" stroke="midnightblue" d="M468.454,-336.408C484.161,-329.28 503.619,-317.458 513,-300 517.208,-292.17 513.63,-288.867 513,-280 511.218,-254.922 518.907,-244.945 505,-224 495.423,-209.576 479.498,-199.074 464.78,-191.861"/>
<polygon fill="midnightblue" stroke="midnightblue" points="465.915,-188.532 455.362,-187.588 463.023,-194.907 465.915,-188.532"/>
</g>
<!-- Node19 -->
<g id="node19" class="node"><title>Node19</title>
<g id="a_node19"><a xlink:href="interaction__data_8hpp.html" target="_top" xlink:title="Various procedures concerning interactions between particles. ">
<polygon fill="none" stroke="black" points="386.5,-280.5 386.5,-299.5 503.5,-299.5 503.5,-280.5 386.5,-280.5"/>
<text text-anchor="middle" x="445" y="-287.5" font-family="Helvetica,sans-Serif" font-size="10.00">interaction_data.hpp</text>
</a>
</g>
</g>
<!-- Node1&#45;&gt;Node19 -->
<g id="edge21" class="edge"><title>Node1&#45;&gt;Node19</title>
<path fill="none" stroke="midnightblue" d="M445,-336.083C445,-329.006 445,-318.861 445,-309.986"/>
<polygon fill="midnightblue" stroke="midnightblue" points="448.5,-309.751 445,-299.751 441.5,-309.751 448.5,-309.751"/>
</g>
<!-- Node21 -->
<g id="node21" class="node"><title>Node21</title>
<g id="a_node21"><a xlink:href="communication_8hpp.html" target="_top" xlink:title="This file contains the asynchronous MPI communication. ">
<polygon fill="none" stroke="black" points="220.5,-280.5 220.5,-299.5 333.5,-299.5 333.5,-280.5 220.5,-280.5"/>
<text text-anchor="middle" x="277" y="-287.5" font-family="Helvetica,sans-Serif" font-size="10.00">communication.hpp</text>
</a>
</g>
</g>
<!-- Node1&#45;&gt;Node21 -->
<g id="edge25" class="edge"><title>Node1&#45;&gt;Node21</title>
<path fill="none" stroke="midnightblue" d="M418.38,-336.444C389.994,-327.32 344.863,-312.813 313.247,-302.651"/>
<polygon fill="midnightblue" stroke="midnightblue" points="314.087,-299.244 303.496,-299.516 311.945,-305.909 314.087,-299.244"/>
</g>
<!-- Node3 -->
<g id="node3" class="node"><title>Node3</title>
<polygon fill="none" stroke="#bfbfbf" points="233.5,-112.5 233.5,-131.5 280.5,-131.5 280.5,-112.5 233.5,-112.5"/>
<text text-anchor="middle" x="257" y="-119.5" font-family="Helvetica,sans-Serif" font-size="10.00">cmath</text>
</g>
<!-- Node2&#45;&gt;Node3 -->
<g id="edge2" class="edge"><title>Node2&#45;&gt;Node3</title>
<path fill="none" stroke="midnightblue" d="M402.588,-168.444C372.108,-158.93 322.88,-143.564 290.231,-133.373"/>
<polygon fill="midnightblue" stroke="midnightblue" points="291.259,-130.027 280.67,-130.388 289.173,-136.709 291.259,-130.027"/>
</g>
<!-- Node4 -->
<g id="node4" class="node"><title>Node4</title>
<polygon fill="none" stroke="#bfbfbf" points="505,-112.5 505,-131.5 551,-131.5 551,-112.5 505,-112.5"/>
<text text-anchor="middle" x="528" y="-119.5" font-family="Helvetica,sans-Serif" font-size="10.00">cstdio</text>
</g>
<!-- Node2&#45;&gt;Node4 -->
<g id="edge3" class="edge"><title>Node2&#45;&gt;Node4</title>
<path fill="none" stroke="midnightblue" d="M445.745,-168.324C461.319,-159.743 485.377,-146.486 503.459,-136.522"/>
<polygon fill="midnightblue" stroke="midnightblue" points="505.224,-139.546 512.294,-131.655 501.846,-133.415 505.224,-139.546"/>
</g>
<!-- Node5 -->
<g id="node5" class="node"><title>Node5</title>
<polygon fill="none" stroke="#bfbfbf" points="569.5,-112.5 569.5,-131.5 618.5,-131.5 618.5,-112.5 569.5,-112.5"/>
<text text-anchor="middle" x="594" y="-119.5" font-family="Helvetica,sans-Serif" font-size="10.00">cstdlib</text>
</g>
<!-- Node2&#45;&gt;Node5 -->
<g id="edge4" class="edge"><title>Node2&#45;&gt;Node5</title>
<path fill="none" stroke="midnightblue" d="M455.986,-168.444C484.104,-159.185 529.052,-144.385 559.969,-134.205"/>
<polygon fill="midnightblue" stroke="midnightblue" points="561.071,-137.527 569.475,-131.075 558.882,-130.879 561.071,-137.527"/>
</g>
<!-- Node6 -->
<g id="node6" class="node"><title>Node6</title>
<polygon fill="none" stroke="#bfbfbf" points="637,-112.5 637,-131.5 687,-131.5 687,-112.5 637,-112.5"/>
<text text-anchor="middle" x="662" y="-119.5" font-family="Helvetica,sans-Serif" font-size="10.00">cstring</text>
</g>
<!-- Node2&#45;&gt;Node6 -->
<g id="edge5" class="edge"><title>Node2&#45;&gt;Node6</title>
<path fill="none" stroke="midnightblue" d="M459.597,-170.615C496.478,-162.584 561.669,-148.146 626.755,-132.243"/>
<polygon fill="midnightblue" stroke="midnightblue" points="627.897,-135.567 636.774,-129.783 626.228,-128.769 627.897,-135.567"/>
</g>
<!-- Node7 -->
<g id="node7" class="node"><title>Node7</title>
<g id="a_node7"><a xlink:href="config_8hpp.html" target="_top" xlink:title="This file contains the defaults for Espresso. ">
<polygon fill="none" stroke="black" points="147.5,-56.5 147.5,-75.5 214.5,-75.5 214.5,-56.5 147.5,-56.5"/>
<text text-anchor="middle" x="181" y="-63.5" font-family="Helvetica,sans-Serif" font-size="10.00">config.hpp</text>
</a>
</g>
</g>
<!-- Node2&#45;&gt;Node7 -->
<g id="edge6" class="edge"><title>Node2&#45;&gt;Node7</title>
<path fill="none" stroke="midnightblue" d="M400.339,-174.598C329.483,-168.56 154.989,-151.808 138,-132 124.298,-116.025 143.122,-95.4659 160.004,-81.7912"/>
<polygon fill="midnightblue" stroke="midnightblue" points="162.172,-84.5394 167.985,-75.6814 157.917,-78.9812 162.172,-84.5394"/>
</g>
<!-- Node11 -->
<g id="node11" class="node"><title>Node11</title>
<g id="a_node11"><a xlink:href="debug_8hpp.html" target="_top" xlink:title="This file controls debug facilities. ">
<polygon fill="none" stroke="black" points="147,-112.5 147,-131.5 215,-131.5 215,-112.5 147,-112.5"/>
<text text-anchor="middle" x="181" y="-119.5" font-family="Helvetica,sans-Serif" font-size="10.00">debug.hpp</text>
</a>
</g>
</g>
<!-- Node2&#45;&gt;Node11 -->
<g id="edge10" class="edge"><title>Node2&#45;&gt;Node11</title>
<path fill="none" stroke="midnightblue" d="M400.459,-170.593C357.071,-161.184 275.803,-143.56 225.265,-132.6"/>
<polygon fill="midnightblue" stroke="midnightblue" points="225.794,-129.133 215.279,-130.434 224.31,-135.974 225.794,-129.133"/>
</g>
<!-- Node12 -->
<g id="node12" class="node"><title>Node12</title>
<g id="a_node12"><a xlink:href="lees__edwards_8hpp.html" target="_top" xlink:title="lees_edwards.hpp">
<polygon fill="none" stroke="black" points="299,-112.5 299,-131.5 403,-131.5 403,-112.5 299,-112.5"/>
<text text-anchor="middle" x="351" y="-119.5" font-family="Helvetica,sans-Serif" font-size="10.00">lees_edwards.hpp</text>
</a>
</g>
</g>
<!-- Node2&#45;&gt;Node12 -->
<g id="edge12" class="edge"><title>Node2&#45;&gt;Node12</title>
<path fill="none" stroke="midnightblue" d="M417.307,-168.324C405.099,-159.979 386.422,-147.212 371.997,-137.352"/>
<polygon fill="midnightblue" stroke="midnightblue" points="373.892,-134.408 363.661,-131.655 369.942,-140.187 373.892,-134.408"/>
</g>
<!-- Node13 -->
<g id="node13" class="node"><title>Node13</title>
<g id="a_node13"><a xlink:href="errorhandling_8hpp.html" target="_top" xlink:title="This file contains the errorhandling code for severe errors, like a broken bond or illegal parameter ...">
<polygon fill="none" stroke="black" points="705.5,-112.5 705.5,-131.5 808.5,-131.5 808.5,-112.5 705.5,-112.5"/>
<text text-anchor="middle" x="757" y="-119.5" font-family="Helvetica,sans-Serif" font-size="10.00">errorhandling.hpp</text>
</a>
</g>
</g>
<!-- Node2&#45;&gt;Node13 -->
<g id="edge14" class="edge"><title>Node2&#45;&gt;Node13</title>
<path fill="none" stroke="midnightblue" d="M459.596,-172.113C512.641,-163.353 624.929,-144.81 695.341,-133.182"/>
<polygon fill="midnightblue" stroke="midnightblue" points="696.118,-136.601 705.414,-131.519 694.978,-129.695 696.118,-136.601"/>
</g>
<!-- Node17 -->
<g id="node17" class="node"><title>Node17</title>
<polygon fill="none" stroke="#bfbfbf" points="43.5,-112.5 43.5,-131.5 90.5,-131.5 90.5,-112.5 43.5,-112.5"/>
<text text-anchor="middle" x="67" y="-119.5" font-family="Helvetica,sans-Serif" font-size="10.00">vector</text>
</g>
<!-- Node2&#45;&gt;Node17 -->
<g id="edge19" class="edge"><title>Node2&#45;&gt;Node17</title>
<path fill="none" stroke="midnightblue" d="M400.272,-173.841C342.907,-167.534 213.059,-152.23 105,-132 103.542,-131.727 102.056,-131.435 100.557,-131.129"/>
<polygon fill="midnightblue" stroke="midnightblue" points="101.159,-127.678 90.6427,-128.966 99.6668,-134.517 101.159,-127.678"/>
</g>
<!-- Node18 -->
<g id="node18" class="node"><title>Node18</title>
<polygon fill="none" stroke="#bfbfbf" points="421.5,-112.5 421.5,-131.5 486.5,-131.5 486.5,-112.5 421.5,-112.5"/>
<text text-anchor="middle" x="454" y="-119.5" font-family="Helvetica,sans-Serif" font-size="10.00">exception</text>
</g>
<!-- Node2&#45;&gt;Node18 -->
<g id="edge20" class="edge"><title>Node2&#45;&gt;Node18</title>
<path fill="none" stroke="midnightblue" d="M433.963,-168.083C437.213,-160.77 441.919,-150.181 445.954,-141.103"/>
<polygon fill="midnightblue" stroke="midnightblue" points="449.248,-142.311 450.111,-131.751 442.851,-139.468 449.248,-142.311"/>
</g>
<!-- Node8 -->
<g id="node8" class="node"><title>Node8</title>
<g id="a_node8"><a xlink:href="acconfig_8hpp.html" target="_top" xlink:title="acconfig.hpp">
<polygon fill="none" stroke="black" points="31,-0.5 31,-19.5 109,-19.5 109,-0.5 31,-0.5"/>
<text text-anchor="middle" x="70" y="-7.5" font-family="Helvetica,sans-Serif" font-size="10.00">acconfig.hpp</text>
</a>
</g>
</g>
<!-- Node7&#45;&gt;Node8 -->
<g id="edge7" class="edge"><title>Node7&#45;&gt;Node8</title>
<path fill="none" stroke="midnightblue" d="M163.166,-56.324C145.284,-47.6247 117.525,-34.1202 96.9544,-24.113"/>
<polygon fill="midnightblue" stroke="midnightblue" points="98.3133,-20.8819 87.7898,-19.6545 95.251,-27.1765 98.3133,-20.8819"/>
</g>
<!-- Node9 -->
<g id="node9" class="node"><title>Node9</title>
<g id="a_node9"><a xlink:href="myconfig-final_8hpp.html" target="_top" xlink:title="myconfig&#45;final.hpp">
<polygon fill="none" stroke="black" points="127.5,-0.5 127.5,-19.5 234.5,-19.5 234.5,-0.5 127.5,-0.5"/>
<text text-anchor="middle" x="181" y="-7.5" font-family="Helvetica,sans-Serif" font-size="10.00">myconfig&#45;final.hpp</text>
</a>
</g>
</g>
<!-- Node7&#45;&gt;Node9 -->
<g id="edge8" class="edge"><title>Node7&#45;&gt;Node9</title>
<path fill="none" stroke="midnightblue" d="M181,-56.083C181,-49.0059 181,-38.8611 181,-29.9865"/>
<polygon fill="midnightblue" stroke="midnightblue" points="184.5,-29.751 181,-19.7511 177.5,-29.7511 184.5,-29.751"/>
</g>
<!-- Node10 -->
<g id="node10" class="node"><title>Node10</title>
<g id="a_node10"><a xlink:href="config-features_8hpp.html" target="_top" xlink:title="config&#45;features.hpp">
<polygon fill="none" stroke="black" points="252.5,-0.5 252.5,-19.5 363.5,-19.5 363.5,-0.5 252.5,-0.5"/>
<text text-anchor="middle" x="308" y="-7.5" font-family="Helvetica,sans-Serif" font-size="10.00">config&#45;features.hpp</text>
</a>
</g>
</g>
<!-- Node7&#45;&gt;Node10 -->
<g id="edge9" class="edge"><title>Node7&#45;&gt;Node10</title>
<path fill="none" stroke="midnightblue" d="M201.124,-56.4435C222.024,-47.5566 254.935,-33.5632 278.716,-23.4514"/>
<polygon fill="midnightblue" stroke="midnightblue" points="280.138,-26.6504 287.971,-19.5164 277.398,-20.2085 280.138,-26.6504"/>
</g>
<!-- Node11&#45;&gt;Node7 -->
<g id="edge11" class="edge"><title>Node11&#45;&gt;Node7</title>
<path fill="none" stroke="midnightblue" d="M181,-112.083C181,-105.006 181,-94.8611 181,-85.9865"/>
<polygon fill="midnightblue" stroke="midnightblue" points="184.5,-85.751 181,-75.7511 177.5,-85.7511 184.5,-85.751"/>
</g>
<!-- Node12&#45;&gt;Node7 -->
<g id="edge13" class="edge"><title>Node12&#45;&gt;Node7</title>
<path fill="none" stroke="midnightblue" d="M324.063,-112.444C295.34,-103.32 249.671,-88.8133 217.679,-78.6509"/>
<polygon fill="midnightblue" stroke="midnightblue" points="218.401,-75.2081 207.811,-75.5164 216.282,-81.8797 218.401,-75.2081"/>
</g>
<!-- Node13&#45;&gt;Node7 -->
<g id="edge15" class="edge"><title>Node13&#45;&gt;Node7</title>
<path fill="none" stroke="midnightblue" d="M705.444,-113.174C702.251,-112.757 699.083,-112.362 696,-112 521.903,-91.5688 313.691,-76.1199 224.754,-69.9433"/>
<polygon fill="midnightblue" stroke="midnightblue" points="224.727,-66.4332 214.51,-69.2363 224.245,-73.4166 224.727,-66.4332"/>
</g>
<!-- Node14 -->
<g id="node14" class="node"><title>Node14</title>
<polygon fill="none" stroke="#bfbfbf" points="735,-56.5 735,-75.5 779,-75.5 779,-56.5 735,-56.5"/>
<text text-anchor="middle" x="757" y="-63.5" font-family="Helvetica,sans-Serif" font-size="10.00">string</text>
</g>
<!-- Node13&#45;&gt;Node14 -->
<g id="edge16" class="edge"><title>Node13&#45;&gt;Node14</title>
<path fill="none" stroke="midnightblue" d="M757,-112.083C757,-105.006 757,-94.8611 757,-85.9865"/>
<polygon fill="midnightblue" stroke="midnightblue" points="760.5,-85.751 757,-75.7511 753.5,-85.7511 760.5,-85.751"/>
</g>
<!-- Node15 -->
<g id="node15" class="node"><title>Node15</title>
<polygon fill="none" stroke="#bfbfbf" points="797,-56.5 797,-75.5 853,-75.5 853,-56.5 797,-56.5"/>
<text text-anchor="middle" x="825" y="-63.5" font-family="Helvetica,sans-Serif" font-size="10.00">sstream</text>
</g>
<!-- Node13&#45;&gt;Node15 -->
<g id="edge17" class="edge"><title>Node13&#45;&gt;Node15</title>
<path fill="none" stroke="midnightblue" d="M767.925,-112.324C778.175,-104.185 793.721,-91.8395 806.001,-82.0874"/>
<polygon fill="midnightblue" stroke="midnightblue" points="808.221,-84.7937 813.876,-75.8339 803.868,-79.3119 808.221,-84.7937"/>
</g>
<!-- Node16 -->
<g id="node16" class="node"><title>Node16</title>
<polygon fill="none" stroke="#bfbfbf" points="685,-56.5 685,-75.5 717,-75.5 717,-56.5 685,-56.5"/>
<text text-anchor="middle" x="701" y="-63.5" font-family="Helvetica,sans-Serif" font-size="10.00">list</text>
</g>
<!-- Node13&#45;&gt;Node16 -->
<g id="edge18" class="edge"><title>Node13&#45;&gt;Node16</title>
<path fill="none" stroke="midnightblue" d="M748.003,-112.324C739.806,-104.42 727.494,-92.5482 717.528,-82.9377"/>
<polygon fill="midnightblue" stroke="midnightblue" points="719.789,-80.2558 710.161,-75.8339 714.93,-85.2947 719.789,-80.2558"/>
</g>
<!-- Node19&#45;&gt;Node2 -->
<g id="edge22" class="edge"><title>Node19&#45;&gt;Node2</title>
<path fill="none" stroke="midnightblue" d="M458.315,-280.458C475.193,-268.484 500.864,-245.729 490,-224 483.272,-210.543 470.394,-200.067 458.288,-192.621"/>
<polygon fill="midnightblue" stroke="midnightblue" points="459.721,-189.41 449.296,-187.52 456.267,-195.498 459.721,-189.41"/>
</g>
<!-- Node20 -->
<g id="node20" class="node"><title>Node20</title>
<g id="a_node20"><a xlink:href="particle__data_8hpp.html" target="_top" xlink:title="For more information on particle_data, see particle_data.c. ">
<polygon fill="none" stroke="black" points="379.5,-224.5 379.5,-243.5 480.5,-243.5 480.5,-224.5 379.5,-224.5"/>
<text text-anchor="middle" x="430" y="-231.5" font-family="Helvetica,sans-Serif" font-size="10.00">particle_data.hpp</text>
</a>
</g>
</g>
<!-- Node19&#45;&gt;Node20 -->
<g id="edge23" class="edge"><title>Node19&#45;&gt;Node20</title>
<path fill="none" stroke="midnightblue" d="M442.523,-280.083C440.514,-272.849 437.614,-262.409 435.11,-253.397"/>
<polygon fill="midnightblue" stroke="midnightblue" points="438.48,-252.449 432.431,-243.751 431.735,-254.323 438.48,-252.449"/>
</g>
<!-- Node20&#45;&gt;Node2 -->
<g id="edge24" class="edge"><title>Node20&#45;&gt;Node2</title>
<path fill="none" stroke="midnightblue" d="M430,-224.083C430,-217.006 430,-206.861 430,-197.986"/>
<polygon fill="midnightblue" stroke="midnightblue" points="433.5,-197.751 430,-187.751 426.5,-197.751 433.5,-197.751"/>
</g>
<!-- Node21&#45;&gt;Node20 -->
<g id="edge26" class="edge"><title>Node21&#45;&gt;Node20</title>
<path fill="none" stroke="midnightblue" d="M301.243,-280.444C326.871,-271.399 367.485,-257.064 396.238,-246.916"/>
<polygon fill="midnightblue" stroke="midnightblue" points="397.605,-250.145 405.87,-243.516 395.275,-243.544 397.605,-250.145"/>
</g>
<!-- Node22 -->
<g id="node22" class="node"><title>Node22</title>
<g id="a_node22"><a xlink:href="random_8hpp.html" target="_top" xlink:title="A random generator. ">
<polygon fill="none" stroke="black" points="189.5,-224.5 189.5,-243.5 264.5,-243.5 264.5,-224.5 189.5,-224.5"/>
<text text-anchor="middle" x="227" y="-231.5" font-family="Helvetica,sans-Serif" font-size="10.00">random.hpp</text>
</a>
</g>
</g>
<!-- Node21&#45;&gt;Node22 -->
<g id="edge27" class="edge"><title>Node21&#45;&gt;Node22</title>
<path fill="none" stroke="midnightblue" d="M268.744,-280.083C261.535,-272.298 250.89,-260.801 242.154,-251.367"/>
<polygon fill="midnightblue" stroke="midnightblue" points="244.465,-248.711 235.103,-243.751 239.329,-253.467 244.465,-248.711"/>
</g>
<!-- Node23 -->
<g id="node23" class="node"><title>Node23</title>
<g id="a_node23"><a xlink:href="topology_8hpp.html" target="_top" xlink:title="This file contains functions for handling the system topology. ">
<polygon fill="none" stroke="black" points="282.5,-224.5 282.5,-243.5 361.5,-243.5 361.5,-224.5 282.5,-224.5"/>
<text text-anchor="middle" x="322" y="-231.5" font-family="Helvetica,sans-Serif" font-size="10.00">topology.hpp</text>
</a>
</g>
</g>
<!-- Node21&#45;&gt;Node23 -->
<g id="edge29" class="edge"><title>Node21&#45;&gt;Node23</title>
<path fill="none" stroke="midnightblue" d="M284.431,-280.083C290.853,-272.377 300.306,-261.033 308.122,-251.653"/>
<polygon fill="midnightblue" stroke="midnightblue" points="310.994,-253.674 314.707,-243.751 305.617,-249.193 310.994,-253.674"/>
</g>
<!-- Node24 -->
<g id="node24" class="node"><title>Node24</title>
<g id="a_node24"><a xlink:href="mpi_8h.html" target="_top" xlink:title="This is the MPIfake implementation. ">
<polygon fill="none" stroke="black" points="128,-224.5 128,-243.5 172,-243.5 172,-224.5 128,-224.5"/>
<text text-anchor="middle" x="150" y="-231.5" font-family="Helvetica,sans-Serif" font-size="10.00">mpi.h</text>
</a>
</g>
</g>
<!-- Node21&#45;&gt;Node24 -->
<g id="edge31" class="edge"><title>Node21&#45;&gt;Node24</title>
<path fill="none" stroke="midnightblue" d="M256.876,-280.444C235.976,-271.557 203.065,-257.563 179.284,-247.451"/>
<polygon fill="midnightblue" stroke="midnightblue" points="180.602,-244.208 170.029,-243.516 177.862,-250.65 180.602,-244.208"/>
</g>
<!-- Node28 -->
<g id="node28" class="node"><title>Node28</title>
<g id="a_node28"><a xlink:href="cuda__init_8hpp.html" target="_top" xlink:title="cuda_init.hpp">
<polygon fill="none" stroke="black" points="0,-168.5 0,-187.5 82,-187.5 82,-168.5 0,-168.5"/>
<text text-anchor="middle" x="41" y="-175.5" font-family="Helvetica,sans-Serif" font-size="10.00">cuda_init.hpp</text>
</a>
</g>
</g>
<!-- Node21&#45;&gt;Node28 -->
<g id="edge35" class="edge"><title>Node21&#45;&gt;Node28</title>
<path fill="none" stroke="midnightblue" d="M227.648,-280.476C195.432,-273.604 153.17,-262.055 119,-244 94.8037,-231.215 71.2683,-210.031 56.4911,-195.338"/>
<polygon fill="midnightblue" stroke="midnightblue" points="58.7344,-192.626 49.234,-187.937 53.7364,-197.527 58.7344,-192.626"/>
</g>
<!-- Node22&#45;&gt;Node2 -->
<g id="edge28" class="edge"><title>Node22&#45;&gt;Node2</title>
<path fill="none" stroke="midnightblue" d="M259.166,-224.444C294.777,-214.971 352.201,-199.695 390.512,-189.504"/>
<polygon fill="midnightblue" stroke="midnightblue" points="391.532,-192.855 400.296,-186.902 389.732,-186.09 391.532,-192.855"/>
</g>
<!-- Node23&#45;&gt;Node2 -->
<g id="edge30" class="edge"><title>Node23&#45;&gt;Node2</title>
<path fill="none" stroke="midnightblue" d="M339.352,-224.324C356.672,-215.664 383.515,-202.242 403.502,-192.249"/>
<polygon fill="midnightblue" stroke="midnightblue" points="405.312,-195.257 412.691,-187.655 402.181,-188.996 405.312,-195.257"/>
</g>
<!-- Node25 -->
<g id="node25" class="node"><title>Node25</title>
<polygon fill="none" stroke="#bfbfbf" points="100.5,-168.5 100.5,-187.5 153.5,-187.5 153.5,-168.5 100.5,-168.5"/>
<text text-anchor="middle" x="127" y="-175.5" font-family="Helvetica,sans-Serif" font-size="10.00">string.h</text>
</g>
<!-- Node24&#45;&gt;Node25 -->
<g id="edge32" class="edge"><title>Node24&#45;&gt;Node25</title>
<path fill="none" stroke="midnightblue" d="M146.202,-224.083C143.087,-216.77 138.577,-206.181 134.711,-197.103"/>
<polygon fill="midnightblue" stroke="midnightblue" points="137.866,-195.58 130.727,-187.751 131.426,-198.323 137.866,-195.58"/>
</g>
<!-- Node26 -->
<g id="node26" class="node"><title>Node26</title>
<polygon fill="none" stroke="#bfbfbf" points="172,-168.5 172,-187.5 222,-187.5 222,-168.5 172,-168.5"/>
<text text-anchor="middle" x="197" y="-175.5" font-family="Helvetica,sans-Serif" font-size="10.00">stdio.h</text>
</g>
<!-- Node24&#45;&gt;Node26 -->
<g id="edge33" class="edge"><title>Node24&#45;&gt;Node26</title>
<path fill="none" stroke="midnightblue" d="M157.761,-224.083C164.537,-216.298 174.543,-204.801 182.755,-195.367"/>
<polygon fill="midnightblue" stroke="midnightblue" points="185.458,-197.592 189.383,-187.751 180.178,-192.996 185.458,-197.592"/>
</g>
<!-- Node27 -->
<g id="node27" class="node"><title>Node27</title>
<polygon fill="none" stroke="#bfbfbf" points="240.5,-168.5 240.5,-187.5 293.5,-187.5 293.5,-168.5 240.5,-168.5"/>
<text text-anchor="middle" x="267" y="-175.5" font-family="Helvetica,sans-Serif" font-size="10.00">stdlib.h</text>
</g>
<!-- Node24&#45;&gt;Node27 -->
<g id="edge34" class="edge"><title>Node24&#45;&gt;Node27</title>
<path fill="none" stroke="midnightblue" d="M168.539,-224.444C187.623,-215.636 217.575,-201.812 239.436,-191.722"/>
<polygon fill="midnightblue" stroke="midnightblue" points="240.935,-194.885 248.548,-187.516 238.001,-188.529 240.935,-194.885"/>
</g>
<!-- Node28&#45;&gt;Node7 -->
<g id="edge36" class="edge"><title>Node28&#45;&gt;Node7</title>
<path fill="none" stroke="midnightblue" d="M36.7032,-168.452C30.6304,-155.023 21.5808,-128.79 34,-112 57.5177,-80.2058 103.057,-70.1411 137.248,-67.3032"/>
<polygon fill="midnightblue" stroke="midnightblue" points="137.706,-70.7809 147.457,-66.6384 137.251,-63.7957 137.706,-70.7809"/>
</g>
<!-- Node28&#45;&gt;Node17 -->
<g id="edge37" class="edge"><title>Node28&#45;&gt;Node17</title>
<path fill="none" stroke="midnightblue" d="M45.2934,-168.083C48.8523,-160.691 54.0225,-149.953 58.4243,-140.811"/>
<polygon fill="midnightblue" stroke="midnightblue" points="61.6018,-142.279 62.7865,-131.751 55.2948,-139.243 61.6018,-142.279"/>
</g>
</g>
</svg>
        <g id="navigator" transform="translate(0 0)" fill="#404254">
                <rect fill="#f2f5e9" fill-opacity="0.5" stroke="#606060" stroke-width=".5" x="0" y="0" width="60" height="60"/>
                <use id="zoomplus" xlink:href="#zoomPlus" x="17" y="9" onmousedown="handleZoom(evt,'in')"/>
                <use id="zoomminus" xlink:href="#zoomMin" x="42" y="9" onmousedown="handleZoom(evt,'out')"/>
                <use id="reset" xlink:href="#resetDef" x="30" y="36" onmousedown="handleReset()"/>
                <g id="arrowUp" xlink:href="#dirArrow" transform="translate(30 24)" onmousedown="handlePan(0,-1)">
                  <use xlink:href="#rim" fill="#404040">
                        <set attributeName="fill" to="#808080" begin="arrowUp.mouseover" end="arrowUp.mouseout"/>
                  </use>
                  <path fill="none" stroke="white" stroke-width="1.5" d="M0,-3.0v7 M-2.5,-0.5L0,-3.0L2.5,-0.5"/>
                </g>
                <g id="arrowRight" xlink:href="#dirArrow" transform="rotate(90) translate(36 -43)" onmousedown="handlePan(1,0)">
                  <use xlink:href="#rim" fill="#404040">
                        <set attributeName="fill" to="#808080" begin="arrowRight.mouseover" end="arrowRight.mouseout"/>
                  </use>
                  <path fill="none" stroke="white" stroke-width="1.5" d="M0,-3.0v7 M-2.5,-0.5L0,-3.0L2.5,-0.5"/>
                </g>
                <g id="arrowDown" xlink:href="#dirArrow" transform="rotate(180) translate(-30 -48)" onmousedown="handlePan(0,1)">
                  <use xlink:href="#rim" fill="#404040">
                        <set attributeName="fill" to="#808080" begin="arrowDown.mouseover" end="arrowDown.mouseout"/>
                  </use>
                  <path fill="none" stroke="white" stroke-width="1.5" d="M0,-3.0v7 M-2.5,-0.5L0,-3.0L2.5,-0.5"/>
                </g>
                <g id="arrowLeft" xlink:href="#dirArrow" transform="rotate(270) translate(-36 17)" onmousedown="handlePan(-1,0)">
                  <use xlink:href="#rim" fill="#404040">
                        <set attributeName="fill" to="#808080" begin="arrowLeft.mouseover" end="arrowLeft.mouseout"/>
                  </use>
                  <path fill="none" stroke="white" stroke-width="1.5" d="M0,-3.0v7 M-2.5,-0.5L0,-3.0L2.5,-0.5"/>
                </g>
        </g>
        <svg viewBox="0 0 15 15" width="100%" height="30px" preserveAspectRatio="xMaxYMin meet">
         <g id="arrow_out" transform="scale(0.3 0.3)">
          <a xlink:href="mol__cut_8cpp__incl_org.svg" target="_base">
           <rect id="button" ry="5" rx="5" y="6" x="6" height="38" width="38"
                fill="#f2f5e9" fill-opacity="0.5" stroke="#606060" stroke-width="1.0"/>
           <path id="arrow"
             d="M 11.500037,31.436501 C 11.940474,20.09759 22.043105,11.32322 32.158766,21.979434 L 37.068811,17.246167 C 37.068811,17.246167 37.088388,32 37.088388,32 L 22.160133,31.978069 C 22.160133,31.978069 26.997745,27.140456 26.997745,27.140456 C 18.528582,18.264221 13.291696,25.230495 11.500037,31.436501 z"
             style="fill:#404040;"/>
          </a>
         </g>
        </svg>
</svg>
