<?xml version="1.0" encoding="UTF-8" standalone="no"?>
<!DOCTYPE svg PUBLIC "-//W3C//DTD SVG 1.1//EN"
 "http://www.w3.org/Graphics/SVG/1.1/DTD/svg11.dtd">
<!-- Generated by graphviz version 2.38.0 (20140413.2041)
 -->
<!-- Title: molforces.hpp Pages: 1 -->
<svg width="2202pt" height="207pt"
 viewBox="0.00 0.00 2202.00 207.00" xmlns="http://www.w3.org/2000/svg" xmlns:xlink="http://www.w3.org/1999/xlink">
<g id="graph0" class="graph" transform="scale(1 1) rotate(0) translate(4 203)">
<title>molforces.hpp</title>
<!-- Node1 -->
<g id="node1" class="node"><title>Node1</title>
<polygon fill="#bfbfbf" stroke="black" points="1976,-179.5 1976,-198.5 2062,-198.5 2062,-179.5 1976,-179.5"/>
<text text-anchor="middle" x="2019" y="-186.5" font-family="Helvetica,sans-Serif" font-size="10.00">molforces.hpp</text>
</g>
<!-- Node2 -->
<g id="node2" class="node"><title>Node2</title>
<g id="a_node2"><a xlink:href="forces__inline_8hpp.html" target="_top" xlink:title="forces_inline.hpp">
<polygon fill="none" stroke="black" points="1690,-123.5 1690,-142.5 1790,-142.5 1790,-123.5 1690,-123.5"/>
<text text-anchor="middle" x="1740" y="-130.5" font-family="Helvetica,sans-Serif" font-size="10.00">forces_inline.hpp</text>
</a>
</g>
</g>
<!-- Node1&#45;&gt;Node2 -->
<g id="edge1" class="edge"><title>Node1&#45;&gt;Node2</title>
<path fill="none" stroke="midnightblue" d="M1965.89,-177.721C1913.28,-167.538 1833.63,-152.121 1784.31,-142.577"/>
<polygon fill="midnightblue" stroke="midnightblue" points="1965.23,-181.158 1975.71,-179.622 1966.56,-174.285 1965.23,-181.158"/>
</g>
<!-- Node4 -->
<g id="node4" class="node"><title>Node4</title>
<g id="a_node4"><a xlink:href="communication_8cpp.html" target="_top" xlink:title="communication.cpp">
<polygon fill="none" stroke="black" points="1676.5,-6 1676.5,-25 1789.5,-25 1789.5,-6 1676.5,-6"/>
<text text-anchor="middle" x="1733" y="-13" font-family="Helvetica,sans-Serif" font-size="10.00">communication.cpp</text>
</a>
</g>
</g>
<!-- Node1&#45;&gt;Node4 -->
<g id="edge28" class="edge"><title>Node1&#45;&gt;Node4</title>
<path fill="none" stroke="midnightblue" d="M2011.87,-169.631C1999.24,-137.517 1973.5,-73.9073 1965,-67 1906.41,-19.3958 1872.76,-47.0996 1799,-31 1790.17,-29.0735 1780.69,-26.9942 1771.73,-25.0281"/>
<polygon fill="midnightblue" stroke="midnightblue" points="2008.7,-171.146 2015.6,-179.187 2015.22,-168.599 2008.7,-171.146"/>
</g>
<!-- Node26 -->
<g id="node26" class="node"><title>Node26</title>
<g id="a_node26"><a xlink:href="molforces_8cpp.html" target="_top" xlink:title="Routines for calculating and applying trap forces upon molecules. ">
<polygon fill="none" stroke="black" points="2012,-123.5 2012,-142.5 2098,-142.5 2098,-123.5 2012,-123.5"/>
<text text-anchor="middle" x="2055" y="-130.5" font-family="Helvetica,sans-Serif" font-size="10.00">molforces.cpp</text>
</a>
</g>
</g>
<!-- Node1&#45;&gt;Node26 -->
<g id="edge29" class="edge"><title>Node1&#45;&gt;Node26</title>
<path fill="none" stroke="midnightblue" d="M2030.62,-170.566C2036.82,-161.275 2044.17,-150.248 2049.17,-142.751"/>
<polygon fill="midnightblue" stroke="midnightblue" points="2027.58,-168.821 2024.94,-179.083 2033.4,-172.704 2027.58,-168.821"/>
</g>
<!-- Node27 -->
<g id="node27" class="node"><title>Node27</title>
<g id="a_node27"><a xlink:href="topology_8cpp.html" target="_top" xlink:title="This file contains functions for handling the system topology. ">
<polygon fill="none" stroke="black" points="2116,-123.5 2116,-142.5 2194,-142.5 2194,-123.5 2116,-123.5"/>
<text text-anchor="middle" x="2155" y="-130.5" font-family="Helvetica,sans-Serif" font-size="10.00">topology.cpp</text>
</a>
</g>
</g>
<!-- Node1&#45;&gt;Node27 -->
<g id="edge30" class="edge"><title>Node1&#45;&gt;Node27</title>
<path fill="none" stroke="midnightblue" d="M2050.13,-175.638C2075.66,-165.504 2111.11,-151.427 2133.55,-142.516"/>
<polygon fill="midnightblue" stroke="midnightblue" points="2048.55,-172.5 2040.55,-179.444 2051.14,-179.006 2048.55,-172.5"/>
</g>
<!-- Node3 -->
<g id="node3" class="node"><title>Node3</title>
<g id="a_node3"><a xlink:href="pressure_8hpp.html" target="_top" xlink:title="Pressure calculation. ">
<polygon fill="none" stroke="black" points="869,-67.5 869,-86.5 949,-86.5 949,-67.5 869,-67.5"/>
<text text-anchor="middle" x="909" y="-74.5" font-family="Helvetica,sans-Serif" font-size="10.00">pressure.hpp</text>
</a>
</g>
</g>
<!-- Node2&#45;&gt;Node3 -->
<g id="edge2" class="edge"><title>Node2&#45;&gt;Node3</title>
<path fill="none" stroke="midnightblue" d="M1679.71,-128.082C1519.03,-117.641 1083.64,-89.3483 949.133,-80.6079"/>
<polygon fill="midnightblue" stroke="midnightblue" points="1679.68,-131.588 1689.89,-128.744 1680.14,-124.602 1679.68,-131.588"/>
</g>
<!-- Node11 -->
<g id="node11" class="node"><title>Node11</title>
<g id="a_node11"><a xlink:href="layered_8cpp.html" target="_top" xlink:title="Implementation of layered.h. ">
<polygon fill="none" stroke="black" points="0,-6 0,-25 74,-25 74,-6 0,-6"/>
<text text-anchor="middle" x="37" y="-13" font-family="Helvetica,sans-Serif" font-size="10.00">layered.cpp</text>
</a>
</g>
</g>
<!-- Node2&#45;&gt;Node11 -->
<g id="edge27" class="edge"><title>Node2&#45;&gt;Node11</title>
<path fill="none" stroke="midnightblue" d="M1679.49,-130.381C1419.76,-123.115 398.348,-91.2074 83,-31 75.5976,-29.5867 67.7146,-27.375 60.6038,-25.1009"/>
<polygon fill="midnightblue" stroke="midnightblue" points="1679.75,-133.89 1689.85,-130.669 1679.95,-126.893 1679.75,-133.89"/>
</g>
<!-- Node20 -->
<g id="node20" class="node"><title>Node20</title>
<g id="a_node20"><a xlink:href="minimize__energy_8hpp.html" target="_top" xlink:title="minimize_energy.hpp">
<polygon fill="none" stroke="black" points="1557.5,-67.5 1557.5,-86.5 1678.5,-86.5 1678.5,-67.5 1557.5,-67.5"/>
<text text-anchor="middle" x="1618" y="-74.5" font-family="Helvetica,sans-Serif" font-size="10.00">minimize_energy.hpp</text>
</a>
</g>
</g>
<!-- Node2&#45;&gt;Node20 -->
<g id="edge19" class="edge"><title>Node2&#45;&gt;Node20</title>
<path fill="none" stroke="midnightblue" d="M1711.46,-119.368C1688.61,-109.255 1657.19,-95.3486 1637.24,-86.5164"/>
<polygon fill="midnightblue" stroke="midnightblue" points="1710.11,-122.597 1720.67,-123.444 1712.94,-116.196 1710.11,-122.597"/>
</g>
<!-- Node23 -->
<g id="node23" class="node"><title>Node23</title>
<g id="a_node23"><a xlink:href="constraint_8cpp.html" target="_top" xlink:title="Implementation of constraint.hpp, here it&#39;s just the parsing stuff. ">
<polygon fill="none" stroke="black" points="1697,-67.5 1697,-86.5 1783,-86.5 1783,-67.5 1697,-67.5"/>
<text text-anchor="middle" x="1740" y="-74.5" font-family="Helvetica,sans-Serif" font-size="10.00">constraint.cpp</text>
</a>
</g>
</g>
<!-- Node2&#45;&gt;Node23 -->
<g id="edge24" class="edge"><title>Node2&#45;&gt;Node23</title>
<path fill="none" stroke="midnightblue" d="M1740,-112.805C1740,-103.91 1740,-93.7798 1740,-86.7511"/>
<polygon fill="midnightblue" stroke="midnightblue" points="1736.5,-113.083 1740,-123.083 1743.5,-113.083 1736.5,-113.083"/>
</g>
<!-- Node24 -->
<g id="node24" class="node"><title>Node24</title>
<g id="a_node24"><a xlink:href="forces_8cpp.html" target="_top" xlink:title="Force calculation. ">
<polygon fill="none" stroke="black" points="1801.5,-67.5 1801.5,-86.5 1868.5,-86.5 1868.5,-67.5 1801.5,-67.5"/>
<text text-anchor="middle" x="1835" y="-74.5" font-family="Helvetica,sans-Serif" font-size="10.00">forces.cpp</text>
</a>
</g>
</g>
<!-- Node2&#45;&gt;Node24 -->
<g id="edge25" class="edge"><title>Node2&#45;&gt;Node24</title>
<path fill="none" stroke="midnightblue" d="M1764.32,-118.177C1781.8,-108.241 1804.83,-95.1492 1819.77,-86.6545"/>
<polygon fill="midnightblue" stroke="midnightblue" points="1762.23,-115.339 1755.26,-123.324 1765.69,-121.425 1762.23,-115.339"/>
</g>
<!-- Node25 -->
<g id="node25" class="node"><title>Node25</title>
<g id="a_node25"><a xlink:href="ghosts_8cpp.html" target="_top" xlink:title="Ghost particles and particle exchange. ">
<polygon fill="none" stroke="black" points="1886.5,-67.5 1886.5,-86.5 1955.5,-86.5 1955.5,-67.5 1886.5,-67.5"/>
<text text-anchor="middle" x="1921" y="-74.5" font-family="Helvetica,sans-Serif" font-size="10.00">ghosts.cpp</text>
</a>
</g>
</g>
<!-- Node2&#45;&gt;Node25 -->
<g id="edge26" class="edge"><title>Node2&#45;&gt;Node25</title>
<path fill="none" stroke="midnightblue" d="M1778.32,-120.568C1812.46,-110.381 1861.66,-95.7034 1892.45,-86.5164"/>
<polygon fill="midnightblue" stroke="midnightblue" points="1777.26,-117.231 1768.68,-123.444 1779.26,-123.938 1777.26,-117.231"/>
</g>
<!-- Node3&#45;&gt;Node4 -->
<g id="edge3" class="edge"><title>Node3&#45;&gt;Node4</title>
<path fill="none" stroke="midnightblue" d="M959.296,-75.7957C1081.38,-74.6972 1402.84,-68.1908 1668,-31 1678.31,-29.5546 1689.4,-27.3334 1699.45,-25.0604"/>
<polygon fill="midnightblue" stroke="midnightblue" points="959.107,-72.297 949.136,-75.8786 959.164,-79.2968 959.107,-72.297"/>
</g>
<!-- Node5 -->
<g id="node5" class="node"><title>Node5</title>
<g id="a_node5"><a xlink:href="domain__decomposition_8cpp.html" target="_top" xlink:title="This file contains everything related to the cell system: domain decomposition. ">
<polygon fill="none" stroke="black" points="92.5,-6 92.5,-25 243.5,-25 243.5,-6 92.5,-6"/>
<text text-anchor="middle" x="168" y="-13" font-family="Helvetica,sans-Serif" font-size="10.00">domain_decomposition.cpp</text>
</a>
</g>
</g>
<!-- Node3&#45;&gt;Node5 -->
<g id="edge4" class="edge"><title>Node3&#45;&gt;Node5</title>
<path fill="none" stroke="midnightblue" d="M858.712,-74.3152C748.483,-70.2369 477.428,-58.1043 252,-31 239.07,-29.4454 225.104,-27.2462 212.341,-25.0292"/>
<polygon fill="midnightblue" stroke="midnightblue" points="858.75,-77.8188 868.87,-74.685 859.004,-70.8234 858.75,-77.8188"/>
</g>
<!-- Node6 -->
<g id="node6" class="node"><title>Node6</title>
<g id="a_node6"><a xlink:href="elc_8cpp.html" target="_top" xlink:title="For more information about ELC, see elc.hpp. ">
<polygon fill="none" stroke="black" points="261.5,-6 261.5,-25 312.5,-25 312.5,-6 261.5,-6"/>
<text text-anchor="middle" x="287" y="-13" font-family="Helvetica,sans-Serif" font-size="10.00">elc.cpp</text>
</a>
</g>
</g>
<!-- Node3&#45;&gt;Node6 -->
<g id="edge5" class="edge"><title>Node3&#45;&gt;Node6</title>
<path fill="none" stroke="midnightblue" d="M858.726,-74.2572C735.759,-69.6567 422.469,-55.8041 321,-31 315.265,-29.5981 309.261,-27.3311 303.922,-25.0019"/>
<polygon fill="midnightblue" stroke="midnightblue" points="858.86,-77.7645 868.982,-74.6359 859.118,-70.7692 858.86,-77.7645"/>
</g>
<!-- Node7 -->
<g id="node7" class="node"><title>Node7</title>
<g id="a_node7"><a xlink:href="initialize_8cpp.html" target="_top" xlink:title="Implementation of initialize.hpp. ">
<polygon fill="none" stroke="black" points="330.5,-6 330.5,-25 409.5,-25 409.5,-6 330.5,-6"/>
<text text-anchor="middle" x="370" y="-13" font-family="Helvetica,sans-Serif" font-size="10.00">initialize.cpp</text>
</a>
</g>
</g>
<!-- Node3&#45;&gt;Node7 -->
<g id="edge6" class="edge"><title>Node3&#45;&gt;Node7</title>
<path fill="none" stroke="midnightblue" d="M858.705,-74.7349C769.267,-71.7455 577.016,-61.9746 418,-31 410.481,-29.5353 402.459,-27.3642 395.169,-25.1455"/>
<polygon fill="midnightblue" stroke="midnightblue" points="858.729,-78.2374 868.836,-75.059 858.953,-71.241 858.729,-78.2374"/>
</g>
<!-- Node8 -->
<g id="node8" class="node"><title>Node8</title>
<g id="a_node8"><a xlink:href="core_2integrate_8cpp.html" target="_top" xlink:title="integrate.cpp">
<polygon fill="none" stroke="black" points="1577.5,-6 1577.5,-25 1658.5,-25 1658.5,-6 1577.5,-6"/>
<text text-anchor="middle" x="1618" y="-13" font-family="Helvetica,sans-Serif" font-size="10.00">integrate.cpp</text>
</a>
</g>
</g>
<!-- Node3&#45;&gt;Node8 -->
<g id="edge7" class="edge"><title>Node3&#45;&gt;Node8</title>
<path fill="none" stroke="midnightblue" d="M959.316,-76.2165C1070.17,-75.8986 1343.47,-70.7487 1568,-31 1576.1,-29.5662 1584.76,-27.3196 1592.56,-25.0191"/>
<polygon fill="midnightblue" stroke="midnightblue" points="959.096,-72.7168 949.102,-76.2332 959.108,-79.7168 959.096,-72.7168"/>
</g>
<!-- Node9 -->
<g id="node9" class="node"><title>Node9</title>
<g id="a_node9"><a xlink:href="integrate__sd_8cpp.html" target="_top" xlink:title="Stokesian dynamics integrator. ">
<polygon fill="none" stroke="black" points="427,-6 427,-25 525,-25 525,-6 427,-6"/>
<text text-anchor="middle" x="476" y="-13" font-family="Helvetica,sans-Serif" font-size="10.00">integrate_sd.cpp</text>
</a>
</g>
</g>
<!-- Node3&#45;&gt;Node9 -->
<g id="edge8" class="edge"><title>Node3&#45;&gt;Node9</title>
<path fill="none" stroke="midnightblue" d="M858.609,-71.9777C786.335,-65.7509 649.243,-52.2332 534,-31 525.222,-29.3826 515.796,-27.2155 507.148,-25.0506"/>
<polygon fill="midnightblue" stroke="midnightblue" points="858.531,-75.4836 868.792,-72.8436 859.124,-68.5088 858.531,-75.4836"/>
</g>
<!-- Node10 -->
<g id="node10" class="node"><title>Node10</title>
<g id="a_node10"><a xlink:href="interaction__data_8cpp.html" target="_top" xlink:title="Implementation of interaction_data.hpp. ">
<polygon fill="none" stroke="black" points="543,-6 543,-25 659,-25 659,-6 543,-6"/>
<text text-anchor="middle" x="601" y="-13" font-family="Helvetica,sans-Serif" font-size="10.00">interaction_data.cpp</text>
</a>
</g>
</g>
<!-- Node3&#45;&gt;Node10 -->
<g id="edge9" class="edge"><title>Node3&#45;&gt;Node10</title>
<path fill="none" stroke="midnightblue" d="M858.864,-67.069C810.06,-58.2737 733.832,-44.2669 668,-31 658.783,-29.1426 648.875,-27.0507 639.579,-25.046"/>
<polygon fill="midnightblue" stroke="midnightblue" points="858.387,-70.5392 868.848,-68.8645 859.626,-63.6497 858.387,-70.5392"/>
</g>
<!-- Node3&#45;&gt;Node11 -->
<g id="edge10" class="edge"><title>Node3&#45;&gt;Node11</title>
<path fill="none" stroke="midnightblue" d="M858.812,-74.9144C703.667,-71.2988 233.21,-58.3169 83,-31 75.4207,-29.6216 67.3481,-27.3613 60.1157,-25.0309"/>
<polygon fill="midnightblue" stroke="midnightblue" points="858.922,-78.4178 869,-75.1489 859.083,-71.4196 858.922,-78.4178"/>
</g>
<!-- Node12 -->
<g id="node12" class="node"><title>Node12</title>
<g id="a_node12"><a xlink:href="nsquare_8cpp.html" target="_top" xlink:title="Implementation of nsquare.h. ">
<polygon fill="none" stroke="black" points="677,-6 677,-25 753,-25 753,-6 677,-6"/>
<text text-anchor="middle" x="715" y="-13" font-family="Helvetica,sans-Serif" font-size="10.00">nsquare.cpp</text>
</a>
</g>
</g>
<!-- Node3&#45;&gt;Node12 -->
<g id="edge11" class="edge"><title>Node3&#45;&gt;Node12</title>
<path fill="none" stroke="midnightblue" d="M871.597,-64.5286C833.893,-52.9647 776.574,-35.3849 742.744,-25.0091"/>
<polygon fill="midnightblue" stroke="midnightblue" points="870.618,-67.889 881.205,-67.4751 872.67,-61.1967 870.618,-67.889"/>
</g>
<!-- Node13 -->
<g id="node13" class="node"><title>Node13</title>
<g id="a_node13"><a xlink:href="pressure_8cpp.html" target="_top" xlink:title="Implementation of pressure.h. ">
<polygon fill="none" stroke="black" points="771.5,-6 771.5,-25 850.5,-25 850.5,-6 771.5,-6"/>
<text text-anchor="middle" x="811" y="-13" font-family="Helvetica,sans-Serif" font-size="10.00">pressure.cpp</text>
</a>
</g>
</g>
<!-- Node3&#45;&gt;Node13 -->
<g id="edge12" class="edge"><title>Node3&#45;&gt;Node13</title>
<path fill="none" stroke="midnightblue" d="M886.343,-62.2441C867.411,-50.7498 841.014,-34.7226 825.015,-25.0091"/>
<polygon fill="midnightblue" stroke="midnightblue" points="884.595,-65.277 894.959,-67.4751 888.228,-59.2935 884.595,-65.277"/>
</g>
<!-- Node14 -->
<g id="node14" class="node"><title>Node14</title>
<g id="a_node14"><a xlink:href="statistics_8cpp.html" target="_top" xlink:title="This is the place for analysis (so far...). ">
<polygon fill="none" stroke="black" points="868.5,-6 868.5,-25 949.5,-25 949.5,-6 868.5,-6"/>
<text text-anchor="middle" x="909" y="-13" font-family="Helvetica,sans-Serif" font-size="10.00">statistics.cpp</text>
</a>
</g>
</g>
<!-- Node3&#45;&gt;Node14 -->
<g id="edge13" class="edge"><title>Node3&#45;&gt;Node14</title>
<path fill="none" stroke="midnightblue" d="M909,-57.3165C909,-46.4962 909,-33.398 909,-25.0091"/>
<polygon fill="midnightblue" stroke="midnightblue" points="905.5,-57.4751 909,-67.4751 912.5,-57.4751 905.5,-57.4751"/>
</g>
<!-- Node15 -->
<g id="node15" class="node"><title>Node15</title>
<g id="a_node15"><a xlink:href="statistics__observable_8cpp.html" target="_top" xlink:title="statistics_observable.cpp">
<polygon fill="none" stroke="black" points="968,-6 968,-25 1108,-25 1108,-6 968,-6"/>
<text text-anchor="middle" x="1038" y="-13" font-family="Helvetica,sans-Serif" font-size="10.00">statistics_observable.cpp</text>
</a>
</g>
</g>
<!-- Node3&#45;&gt;Node15 -->
<g id="edge14" class="edge"><title>Node3&#45;&gt;Node15</title>
<path fill="none" stroke="midnightblue" d="M936.807,-63.1742C961.839,-51.6287 997.918,-34.9875 1019.55,-25.0091"/>
<polygon fill="midnightblue" stroke="midnightblue" points="935.097,-60.1085 927.483,-67.4751 938.029,-66.4649 935.097,-60.1085"/>
</g>
<!-- Node16 -->
<g id="node16" class="node"><title>Node16</title>
<g id="a_node16"><a xlink:href="verlet_8cpp.html" target="_top" xlink:title="Verlet list. ">
<polygon fill="none" stroke="black" points="1126.5,-6 1126.5,-25 1191.5,-25 1191.5,-6 1126.5,-6"/>
<text text-anchor="middle" x="1159" y="-13" font-family="Helvetica,sans-Serif" font-size="10.00">verlet.cpp</text>
</a>
</g>
</g>
<!-- Node3&#45;&gt;Node16 -->
<g id="edge15" class="edge"><title>Node3&#45;&gt;Node16</title>
<path fill="none" stroke="midnightblue" d="M959.289,-66.867C1001.67,-58.754 1063.75,-45.8949 1117,-31 1123.09,-29.2961 1129.59,-27.196 1135.61,-25.1284"/>
<polygon fill="midnightblue" stroke="midnightblue" points="958.395,-63.4739 949.222,-68.7754 959.699,-70.3514 958.395,-63.4739"/>
</g>
<!-- Node17 -->
<g id="node17" class="node"><title>Node17</title>
<g id="a_node17"><a xlink:href="virtual__sites_8cpp.html" target="_top" xlink:title="virtual_sites.cpp">
<polygon fill="none" stroke="black" points="1209.5,-6 1209.5,-25 1306.5,-25 1306.5,-6 1209.5,-6"/>
<text text-anchor="middle" x="1258" y="-13" font-family="Helvetica,sans-Serif" font-size="10.00">virtual_sites.cpp</text>
</a>
</g>
</g>
<!-- Node3&#45;&gt;Node17 -->
<g id="edge16" class="edge"><title>Node3&#45;&gt;Node17</title>
<path fill="none" stroke="midnightblue" d="M959.436,-69.7271C1017.85,-62.1157 1116.84,-48.1479 1201,-31 1209.4,-29.2875 1218.43,-27.1377 1226.77,-25.0219"/>
<polygon fill="midnightblue" stroke="midnightblue" points="958.834,-66.2758 949.365,-71.0287 959.731,-73.218 958.834,-66.2758"/>
</g>
<!-- Node18 -->
<g id="node18" class="node"><title>Node18</title>
<g id="a_node18"><a xlink:href="pressure__tcl_8cpp.html" target="_top" xlink:title="pressure_tcl.cpp">
<polygon fill="none" stroke="black" points="1325,-6 1325,-25 1421,-25 1421,-6 1325,-6"/>
<text text-anchor="middle" x="1373" y="-13" font-family="Helvetica,sans-Serif" font-size="10.00">pressure_tcl.cpp</text>
</a>
</g>
</g>
<!-- Node3&#45;&gt;Node18 -->
<g id="edge17" class="edge"><title>Node3&#45;&gt;Node18</title>
<path fill="none" stroke="midnightblue" d="M959.525,-72.6823C1036.79,-67.099 1188.74,-54.1067 1316,-31 1324.74,-29.413 1334.12,-27.23 1342.7,-25.0394"/>
<polygon fill="midnightblue" stroke="midnightblue" points="958.855,-69.221 949.128,-73.4212 959.351,-76.2033 958.855,-69.221"/>
</g>
<!-- Node19 -->
<g id="node19" class="node"><title>Node19</title>
<g id="a_node19"><a xlink:href="statistics__observable__tcl_8cpp.html" target="_top" xlink:title="statistics_observable\l_tcl.cpp">
<polygon fill="none" stroke="black" points="1439,-0.5 1439,-30.5 1559,-30.5 1559,-0.5 1439,-0.5"/>
<text text-anchor="start" x="1447" y="-18.5" font-family="Helvetica,sans-Serif" font-size="10.00">statistics_observable</text>
<text text-anchor="middle" x="1499" y="-7.5" font-family="Helvetica,sans-Serif" font-size="10.00">_tcl.cpp</text>
</a>
</g>
</g>
<!-- Node3&#45;&gt;Node19 -->
<g id="edge18" class="edge"><title>Node3&#45;&gt;Node19</title>
<path fill="none" stroke="midnightblue" d="M959.051,-73.6949C1052.16,-68.9596 1258.16,-56.3814 1430,-31 1432.91,-30.5707 1435.87,-30.0945 1438.87,-29.5839"/>
<polygon fill="midnightblue" stroke="midnightblue" points="958.875,-70.1992 949.063,-74.1946 959.225,-77.1904 958.875,-70.1992"/>
</g>
<!-- Node20&#45;&gt;Node4 -->
<g id="edge20" class="edge"><title>Node20&#45;&gt;Node4</title>
<path fill="none" stroke="midnightblue" d="M1643.38,-62.8665C1665.67,-51.3347 1697.44,-34.8992 1716.55,-25.0091"/>
<polygon fill="midnightblue" stroke="midnightblue" points="1641.75,-59.7712 1634.48,-67.4751 1644.97,-65.9883 1641.75,-59.7712"/>
</g>
<!-- Node20&#45;&gt;Node8 -->
<g id="edge21" class="edge"><title>Node20&#45;&gt;Node8</title>
<path fill="none" stroke="midnightblue" d="M1618,-57.3165C1618,-46.4962 1618,-33.398 1618,-25.0091"/>
<polygon fill="midnightblue" stroke="midnightblue" points="1614.5,-57.4751 1618,-67.4751 1621.5,-57.4751 1614.5,-57.4751"/>
</g>
<!-- Node21 -->
<g id="node21" class="node"><title>Node21</title>
<g id="a_node21"><a xlink:href="minimize__energy_8cpp.html" target="_top" xlink:title="minimize_energy.cpp">
<polygon fill="none" stroke="black" points="1808,-6 1808,-25 1928,-25 1928,-6 1808,-6"/>
<text text-anchor="middle" x="1868" y="-13" font-family="Helvetica,sans-Serif" font-size="10.00">minimize_energy.cpp</text>
</a>
</g>
</g>
<!-- Node20&#45;&gt;Node21 -->
<g id="edge22" class="edge"><title>Node20&#45;&gt;Node21</title>
<path fill="none" stroke="midnightblue" d="M1663.74,-65.1138C1712.26,-53.5653 1787.91,-35.5615 1832.25,-25.0091"/>
<polygon fill="midnightblue" stroke="midnightblue" points="1662.74,-61.7548 1653.82,-67.4751 1664.36,-68.5646 1662.74,-61.7548"/>
</g>
<!-- Node22 -->
<g id="node22" class="node"><title>Node22</title>
<g id="a_node22"><a xlink:href="minimize__energy__tcl_8cpp.html" target="_top" xlink:title="minimize_energy_tcl.cpp">
<polygon fill="none" stroke="black" points="1946.5,-6 1946.5,-25 2085.5,-25 2085.5,-6 1946.5,-6"/>
<text text-anchor="middle" x="2016" y="-13" font-family="Helvetica,sans-Serif" font-size="10.00">minimize_energy_tcl.cpp</text>
</a>
</g>
</g>
<!-- Node20&#45;&gt;Node22 -->
<g id="edge23" class="edge"><title>Node20&#45;&gt;Node22</title>
<path fill="none" stroke="midnightblue" d="M1688.77,-66.8716C1753.49,-58.3194 1851.84,-44.8155 1937,-31 1948.15,-29.1912 1960.15,-27.0754 1971.35,-25.028"/>
<polygon fill="midnightblue" stroke="midnightblue" points="1688.13,-63.425 1678.67,-68.201 1689.05,-70.365 1688.13,-63.425"/>
</g>
</g>
</svg>
