<?xml version="1.0" encoding="UTF-8" standalone="no"?>
<!DOCTYPE svg PUBLIC "-//W3C//DTD SVG 1.1//EN"
 "http://www.w3.org/Graphics/SVG/1.1/DTD/svg11.dtd">
<!-- Generated by graphviz version 2.38.0 (20140413.2041)
 -->
<!-- Title: morse.cpp Pages: 1 -->
<!--zoomable 532 -->
<svg id="main" version="1.1" xmlns="http://www.w3.org/2000/svg" xmlns:xlink="http://www.w3.org/1999/xlink" xml:space="preserve" onload="init(evt)">
<style type="text/css"><![CDATA[
.edge:hover path { stroke: red; }
.edge:hover polygon { stroke: red; fill: red; }
]]></style>
<script type="text/javascript"><![CDATA[
var edges = document.getElementsByTagName('g');
if (edges && edges.length) {
  for (var i=0;i<edges.length;i++) {
    if (edges[i].id.substr(0,4)=='edge') {
      edges[i].setAttribute('class','edge');
    }
  }
}
]]></script>
        <defs>
                <circle id="rim" cx="0" cy="0" r="7"/>
                <circle id="rim2" cx="0" cy="0" r="3.5"/>
                <g id="zoomPlus">
                        <use xlink:href="#rim" fill="#404040">
                                <set attributeName="fill" to="#808080" begin="zoomplus.mouseover" end="zoomplus.mouseout"/>
                        </use>
                        <path d="M-4,0h8M0,-4v8" fill="none" stroke="white" stroke-width="1.5" pointer-events="none"/>
                </g>
                <g id="zoomMin">
                        <use xlink:href="#rim" fill="#404040">
                                <set attributeName="fill" to="#808080" begin="zoomminus.mouseover" end="zoomminus.mouseout"/>
                        </use>
                        <path d="M-4,0h8" fill="none" stroke="white" stroke-width="1.5" pointer-events="none"/>
                </g>
                <g id="dirArrow">
                        <path fill="none" stroke="white" stroke-width="1.5" d="M0,-3.0v7 M-2.5,-0.5L0,-3.0L2.5,-0.5"/>
                </g>
               <g id="resetDef">
                       <use xlink:href="#rim2" fill="#404040">
                               <set attributeName="fill" to="#808080" begin="reset.mouseover" end="reset.mouseout"/>
                       </use>
               </g>
        </defs>

<script type="text/javascript">
var viewWidth = 1028;
var viewHeight = 532;
var sectionId = 'dynsection-0';
</script>
<script xlink:href="svgpan.js"/>
<svg id="graph" class="graph">
<g id="viewport">
<title>morse.cpp</title>
<!-- Node1 -->
<g id="node1" class="node"><title>Node1</title>
<polygon fill="#bfbfbf" stroke="black" points="511,-504.5 511,-523.5 579,-523.5 579,-504.5 511,-504.5"/>
<text text-anchor="middle" x="545" y="-511.5" font-family="Helvetica,sans-Serif" font-size="10.00">morse.cpp</text>
</g>
<!-- Node2 -->
<g id="node2" class="node"><title>Node2</title>
<g id="a_node2"><a xlink:href="morse_8hpp.html" target="_top" xlink:title="Routines to calculate the lennard jones energy and/or force for a particle pair. ">
<polygon fill="none" stroke="black" points="424,-448.5 424,-467.5 492,-467.5 492,-448.5 424,-448.5"/>
<text text-anchor="middle" x="458" y="-455.5" font-family="Helvetica,sans-Serif" font-size="10.00">morse.hpp</text>
</a>
</g>
</g>
<!-- Node1&#45;&gt;Node2 -->
<g id="edge1" class="edge"><title>Node1&#45;&gt;Node2</title>
<path fill="none" stroke="midnightblue" d="M531.022,-504.324C517.45,-495.9 496.62,-482.971 480.675,-473.074"/>
<polygon fill="midnightblue" stroke="midnightblue" points="482.286,-469.954 471.943,-467.655 478.594,-475.902 482.286,-469.954"/>
</g>
<!-- Node27 -->
<g id="node27" class="node"><title>Node27</title>
<g id="a_node27"><a xlink:href="communication_8hpp.html" target="_top" xlink:title="This file contains the asynchronous MPI communication. ">
<polygon fill="none" stroke="black" points="629.5,-280.5 629.5,-299.5 742.5,-299.5 742.5,-280.5 629.5,-280.5"/>
<text text-anchor="middle" x="686" y="-287.5" font-family="Helvetica,sans-Serif" font-size="10.00">communication.hpp</text>
</a>
</g>
</g>
<!-- Node1&#45;&gt;Node27 -->
<g id="edge39" class="edge"><title>Node1&#45;&gt;Node27</title>
<path fill="none" stroke="midnightblue" d="M550.527,-504.297C571.494,-471.286 646.365,-353.404 674.871,-308.522"/>
<polygon fill="midnightblue" stroke="midnightblue" points="677.951,-310.202 680.358,-299.884 672.042,-306.449 677.951,-310.202"/>
</g>
<!-- Node3 -->
<g id="node3" class="node"><title>Node3</title>
<g id="a_node3"><a xlink:href="utils_8hpp.html" target="_top" xlink:title="Small functions that are useful not only for one modul. ">
<polygon fill="none" stroke="black" points="522.5,-168.5 522.5,-187.5 581.5,-187.5 581.5,-168.5 522.5,-168.5"/>
<text text-anchor="middle" x="552" y="-175.5" font-family="Helvetica,sans-Serif" font-size="10.00">utils.hpp</text>
</a>
</g>
</g>
<!-- Node2&#45;&gt;Node3 -->
<g id="edge2" class="edge"><title>Node2&#45;&gt;Node3</title>
<path fill="none" stroke="midnightblue" d="M489.458,-448.453C507.789,-441.716 529.496,-430.325 541,-412 583.996,-343.509 566.607,-240.097 556.878,-197.918"/>
<polygon fill="midnightblue" stroke="midnightblue" points="560.214,-196.823 554.447,-187.935 553.412,-198.479 560.214,-196.823"/>
</g>
<!-- Node20 -->
<g id="node20" class="node"><title>Node20</title>
<g id="a_node20"><a xlink:href="interaction__data_8hpp.html" target="_top" xlink:title="Various procedures concerning interactions between particles. ">
<polygon fill="none" stroke="black" points="327.5,-336.5 327.5,-355.5 444.5,-355.5 444.5,-336.5 327.5,-336.5"/>
<text text-anchor="middle" x="386" y="-343.5" font-family="Helvetica,sans-Serif" font-size="10.00">interaction_data.hpp</text>
</a>
</g>
</g>
<!-- Node2&#45;&gt;Node20 -->
<g id="edge22" class="edge"><title>Node2&#45;&gt;Node20</title>
<path fill="none" stroke="midnightblue" d="M445.843,-448.243C435.119,-439.966 419.724,-426.659 410,-412 400.545,-397.746 394.19,-379.274 390.407,-365.667"/>
<polygon fill="midnightblue" stroke="midnightblue" points="393.695,-364.399 387.823,-355.58 386.914,-366.136 393.695,-364.399"/>
</g>
<!-- Node21 -->
<g id="node21" class="node"><title>Node21</title>
<g id="a_node21"><a xlink:href="particle__data_8hpp.html" target="_top" xlink:title="For more information on particle_data, see particle_data.c. ">
<polygon fill="none" stroke="black" points="316.5,-224.5 316.5,-243.5 417.5,-243.5 417.5,-224.5 316.5,-224.5"/>
<text text-anchor="middle" x="367" y="-231.5" font-family="Helvetica,sans-Serif" font-size="10.00">particle_data.hpp</text>
</a>
</g>
</g>
<!-- Node2&#45;&gt;Node21 -->
<g id="edge26" class="edge"><title>Node2&#45;&gt;Node21</title>
<path fill="none" stroke="midnightblue" d="M454.144,-448.249C450.442,-439.333 445.111,-425.006 443,-412 441.576,-403.226 441.799,-400.807 443,-392 445.243,-375.546 450.757,-372.454 453,-356 454.201,-347.193 456.07,-344.342 453,-336 439.786,-300.098 407.511,-268.263 386.475,-250.333"/>
<polygon fill="midnightblue" stroke="midnightblue" points="388.437,-247.414 378.499,-243.739 383.976,-252.809 388.437,-247.414"/>
</g>
<!-- Node22 -->
<g id="node22" class="node"><title>Node22</title>
<g id="a_node22"><a xlink:href="mol__cut_8hpp.html" target="_top" xlink:title="mol_cut.hpp">
<polygon fill="none" stroke="black" points="270.5,-392.5 270.5,-411.5 347.5,-411.5 347.5,-392.5 270.5,-392.5"/>
<text text-anchor="middle" x="309" y="-399.5" font-family="Helvetica,sans-Serif" font-size="10.00">mol_cut.hpp</text>
</a>
</g>
</g>
<!-- Node2&#45;&gt;Node22 -->
<g id="edge27" class="edge"><title>Node2&#45;&gt;Node22</title>
<path fill="none" stroke="midnightblue" d="M434.391,-448.444C409.542,-439.438 370.226,-425.189 342.246,-415.049"/>
<polygon fill="midnightblue" stroke="midnightblue" points="343.093,-411.633 332.499,-411.516 340.708,-418.214 343.093,-411.633"/>
</g>
<!-- Node26 -->
<g id="node26" class="node"><title>Node26</title>
<g id="a_node26"><a xlink:href="forcecap_8hpp.html" target="_top" xlink:title="forcecap.hpp">
<polygon fill="none" stroke="black" points="452,-392.5 452,-411.5 532,-411.5 532,-392.5 452,-392.5"/>
<text text-anchor="middle" x="492" y="-399.5" font-family="Helvetica,sans-Serif" font-size="10.00">forcecap.hpp</text>
</a>
</g>
</g>
<!-- Node2&#45;&gt;Node26 -->
<g id="edge38" class="edge"><title>Node2&#45;&gt;Node26</title>
<path fill="none" stroke="midnightblue" d="M463.614,-448.083C468.367,-440.534 475.318,-429.495 481.152,-420.23"/>
<polygon fill="midnightblue" stroke="midnightblue" points="484.124,-422.078 486.49,-411.751 478.2,-418.349 484.124,-422.078"/>
</g>
<!-- Node4 -->
<g id="node4" class="node"><title>Node4</title>
<polygon fill="none" stroke="#bfbfbf" points="392.5,-112.5 392.5,-131.5 439.5,-131.5 439.5,-112.5 392.5,-112.5"/>
<text text-anchor="middle" x="416" y="-119.5" font-family="Helvetica,sans-Serif" font-size="10.00">cmath</text>
</g>
<!-- Node3&#45;&gt;Node4 -->
<g id="edge3" class="edge"><title>Node3&#45;&gt;Node4</title>
<path fill="none" stroke="midnightblue" d="M530.45,-168.444C507.969,-159.517 472.512,-145.439 447.02,-135.317"/>
<polygon fill="midnightblue" stroke="midnightblue" points="448.035,-131.954 437.449,-131.516 445.451,-138.46 448.035,-131.954"/>
</g>
<!-- Node5 -->
<g id="node5" class="node"><title>Node5</title>
<polygon fill="none" stroke="#bfbfbf" points="541,-112.5 541,-131.5 587,-131.5 587,-112.5 541,-112.5"/>
<text text-anchor="middle" x="564" y="-119.5" font-family="Helvetica,sans-Serif" font-size="10.00">cstdio</text>
</g>
<!-- Node3&#45;&gt;Node5 -->
<g id="edge4" class="edge"><title>Node3&#45;&gt;Node5</title>
<path fill="none" stroke="midnightblue" d="M553.982,-168.083C555.572,-160.927 557.859,-150.635 559.846,-141.691"/>
<polygon fill="midnightblue" stroke="midnightblue" points="563.303,-142.272 562.055,-131.751 556.469,-140.754 563.303,-142.272"/>
</g>
<!-- Node6 -->
<g id="node6" class="node"><title>Node6</title>
<polygon fill="none" stroke="#bfbfbf" points="605.5,-112.5 605.5,-131.5 654.5,-131.5 654.5,-112.5 605.5,-112.5"/>
<text text-anchor="middle" x="630" y="-119.5" font-family="Helvetica,sans-Serif" font-size="10.00">cstdlib</text>
</g>
<!-- Node3&#45;&gt;Node6 -->
<g id="edge5" class="edge"><title>Node3&#45;&gt;Node6</title>
<path fill="none" stroke="midnightblue" d="M564.532,-168.324C576.586,-159.979 595.027,-147.212 609.269,-137.352"/>
<polygon fill="midnightblue" stroke="midnightblue" points="611.269,-140.224 617.499,-131.655 607.285,-134.469 611.269,-140.224"/>
</g>
<!-- Node7 -->
<g id="node7" class="node"><title>Node7</title>
<polygon fill="none" stroke="#bfbfbf" points="673,-112.5 673,-131.5 723,-131.5 723,-112.5 673,-112.5"/>
<text text-anchor="middle" x="698" y="-119.5" font-family="Helvetica,sans-Serif" font-size="10.00">cstring</text>
</g>
<!-- Node3&#45;&gt;Node7 -->
<g id="edge6" class="edge"><title>Node3&#45;&gt;Node7</title>
<path fill="none" stroke="midnightblue" d="M575.134,-168.444C599.482,-159.438 638.007,-145.189 665.423,-135.049"/>
<polygon fill="midnightblue" stroke="midnightblue" points="666.809,-138.268 674.974,-131.516 664.381,-131.703 666.809,-138.268"/>
</g>
<!-- Node8 -->
<g id="node8" class="node"><title>Node8</title>
<g id="a_node8"><a xlink:href="config_8hpp.html" target="_top" xlink:title="This file contains the defaults for Espresso. ">
<polygon fill="none" stroke="black" points="184.5,-56.5 184.5,-75.5 251.5,-75.5 251.5,-56.5 184.5,-56.5"/>
<text text-anchor="middle" x="218" y="-63.5" font-family="Helvetica,sans-Serif" font-size="10.00">config.hpp</text>
</a>
</g>
</g>
<!-- Node3&#45;&gt;Node8 -->
<g id="edge7" class="edge"><title>Node3&#45;&gt;Node8</title>
<path fill="none" stroke="midnightblue" d="M522.386,-175.685C437.514,-171.614 198.002,-157.91 175,-132 160.951,-116.174 180.119,-95.4232 197.16,-81.6729"/>
<polygon fill="midnightblue" stroke="midnightblue" points="199.374,-84.3864 205.2,-75.5374 195.127,-78.8217 199.374,-84.3864"/>
</g>
<!-- Node12 -->
<g id="node12" class="node"><title>Node12</title>
<g id="a_node12"><a xlink:href="debug_8hpp.html" target="_top" xlink:title="This file controls debug facilities. ">
<polygon fill="none" stroke="black" points="184,-112.5 184,-131.5 252,-131.5 252,-112.5 184,-112.5"/>
<text text-anchor="middle" x="218" y="-119.5" font-family="Helvetica,sans-Serif" font-size="10.00">debug.hpp</text>
</a>
</g>
</g>
<!-- Node3&#45;&gt;Node12 -->
<g id="edge11" class="edge"><title>Node3&#45;&gt;Node12</title>
<path fill="none" stroke="midnightblue" d="M522.17,-172.918C471.072,-165.812 363.301,-150.326 262.3,-132.16"/>
<polygon fill="midnightblue" stroke="midnightblue" points="262.699,-128.675 252.236,-130.336 261.451,-135.563 262.699,-128.675"/>
</g>
<!-- Node13 -->
<g id="node13" class="node"><title>Node13</title>
<g id="a_node13"><a xlink:href="lees__edwards_8hpp.html" target="_top" xlink:title="lees_edwards.hpp">
<polygon fill="none" stroke="black" points="270,-112.5 270,-131.5 374,-131.5 374,-112.5 270,-112.5"/>
<text text-anchor="middle" x="322" y="-119.5" font-family="Helvetica,sans-Serif" font-size="10.00">lees_edwards.hpp</text>
</a>
</g>
</g>
<!-- Node3&#45;&gt;Node13 -->
<g id="edge13" class="edge"><title>Node3&#45;&gt;Node13</title>
<path fill="none" stroke="midnightblue" d="M522.402,-170.051C483.375,-160.888 414.284,-144.667 368.311,-133.873"/>
<polygon fill="midnightblue" stroke="midnightblue" points="368.835,-130.401 358.299,-131.522 367.235,-137.216 368.835,-130.401"/>
</g>
<!-- Node14 -->
<g id="node14" class="node"><title>Node14</title>
<g id="a_node14"><a xlink:href="errorhandling_8hpp.html" target="_top" xlink:title="This file contains the errorhandling code for severe errors, like a broken bond or illegal parameter ...">
<polygon fill="none" stroke="black" points="845.5,-112.5 845.5,-131.5 948.5,-131.5 948.5,-112.5 845.5,-112.5"/>
<text text-anchor="middle" x="897" y="-119.5" font-family="Helvetica,sans-Serif" font-size="10.00">errorhandling.hpp</text>
</a>
</g>
</g>
<!-- Node3&#45;&gt;Node14 -->
<g id="edge15" class="edge"><title>Node3&#45;&gt;Node14</title>
<path fill="none" stroke="midnightblue" d="M581.713,-172.349C637.832,-163.565 760.472,-144.37 835.177,-132.677"/>
<polygon fill="midnightblue" stroke="midnightblue" points="836.05,-136.083 845.388,-131.078 834.967,-129.167 836.05,-136.083"/>
</g>
<!-- Node18 -->
<g id="node18" class="node"><title>Node18</title>
<polygon fill="none" stroke="#bfbfbf" points="741.5,-112.5 741.5,-131.5 788.5,-131.5 788.5,-112.5 741.5,-112.5"/>
<text text-anchor="middle" x="765" y="-119.5" font-family="Helvetica,sans-Serif" font-size="10.00">vector</text>
</g>
<!-- Node3&#45;&gt;Node18 -->
<g id="edge20" class="edge"><title>Node3&#45;&gt;Node18</title>
<path fill="none" stroke="midnightblue" d="M581.671,-169.787C615.508,-161.517 672.731,-147.395 731.413,-132.112"/>
<polygon fill="midnightblue" stroke="midnightblue" points="732.432,-135.463 741.223,-129.549 730.663,-128.69 732.432,-135.463"/>
</g>
<!-- Node19 -->
<g id="node19" class="node"><title>Node19</title>
<polygon fill="none" stroke="#bfbfbf" points="457.5,-112.5 457.5,-131.5 522.5,-131.5 522.5,-112.5 457.5,-112.5"/>
<text text-anchor="middle" x="490" y="-119.5" font-family="Helvetica,sans-Serif" font-size="10.00">exception</text>
</g>
<!-- Node3&#45;&gt;Node19 -->
<g id="edge21" class="edge"><title>Node3&#45;&gt;Node19</title>
<path fill="none" stroke="midnightblue" d="M542.039,-168.324C532.873,-160.341 519.063,-148.313 507.972,-138.653"/>
<polygon fill="midnightblue" stroke="midnightblue" points="509.982,-135.762 500.143,-131.834 505.385,-141.041 509.982,-135.762"/>
</g>
<!-- Node9 -->
<g id="node9" class="node"><title>Node9</title>
<g id="a_node9"><a xlink:href="acconfig_8hpp.html" target="_top" xlink:title="acconfig.hpp">
<polygon fill="none" stroke="black" points="68,-0.5 68,-19.5 146,-19.5 146,-0.5 68,-0.5"/>
<text text-anchor="middle" x="107" y="-7.5" font-family="Helvetica,sans-Serif" font-size="10.00">acconfig.hpp</text>
</a>
</g>
</g>
<!-- Node8&#45;&gt;Node9 -->
<g id="edge8" class="edge"><title>Node8&#45;&gt;Node9</title>
<path fill="none" stroke="midnightblue" d="M200.166,-56.324C182.284,-47.6247 154.525,-34.1202 133.954,-24.113"/>
<polygon fill="midnightblue" stroke="midnightblue" points="135.313,-20.8819 124.79,-19.6545 132.251,-27.1765 135.313,-20.8819"/>
</g>
<!-- Node10 -->
<g id="node10" class="node"><title>Node10</title>
<g id="a_node10"><a xlink:href="myconfig-final_8hpp.html" target="_top" xlink:title="myconfig&#45;final.hpp">
<polygon fill="none" stroke="black" points="164.5,-0.5 164.5,-19.5 271.5,-19.5 271.5,-0.5 164.5,-0.5"/>
<text text-anchor="middle" x="218" y="-7.5" font-family="Helvetica,sans-Serif" font-size="10.00">myconfig&#45;final.hpp</text>
</a>
</g>
</g>
<!-- Node8&#45;&gt;Node10 -->
<g id="edge9" class="edge"><title>Node8&#45;&gt;Node10</title>
<path fill="none" stroke="midnightblue" d="M218,-56.083C218,-49.0059 218,-38.8611 218,-29.9865"/>
<polygon fill="midnightblue" stroke="midnightblue" points="221.5,-29.751 218,-19.7511 214.5,-29.7511 221.5,-29.751"/>
</g>
<!-- Node11 -->
<g id="node11" class="node"><title>Node11</title>
<g id="a_node11"><a xlink:href="config-features_8hpp.html" target="_top" xlink:title="config&#45;features.hpp">
<polygon fill="none" stroke="black" points="289.5,-0.5 289.5,-19.5 400.5,-19.5 400.5,-0.5 289.5,-0.5"/>
<text text-anchor="middle" x="345" y="-7.5" font-family="Helvetica,sans-Serif" font-size="10.00">config&#45;features.hpp</text>
</a>
</g>
</g>
<!-- Node8&#45;&gt;Node11 -->
<g id="edge10" class="edge"><title>Node8&#45;&gt;Node11</title>
<path fill="none" stroke="midnightblue" d="M238.124,-56.4435C259.024,-47.5566 291.935,-33.5632 315.716,-23.4514"/>
<polygon fill="midnightblue" stroke="midnightblue" points="317.138,-26.6504 324.971,-19.5164 314.398,-20.2085 317.138,-26.6504"/>
</g>
<!-- Node12&#45;&gt;Node8 -->
<g id="edge12" class="edge"><title>Node12&#45;&gt;Node8</title>
<path fill="none" stroke="midnightblue" d="M218,-112.083C218,-105.006 218,-94.8611 218,-85.9865"/>
<polygon fill="midnightblue" stroke="midnightblue" points="221.5,-85.751 218,-75.7511 214.5,-85.7511 221.5,-85.751"/>
</g>
<!-- Node13&#45;&gt;Node8 -->
<g id="edge14" class="edge"><title>Node13&#45;&gt;Node8</title>
<path fill="none" stroke="midnightblue" d="M305.291,-112.324C288.688,-103.703 262.998,-90.3643 243.78,-80.3855"/>
<polygon fill="midnightblue" stroke="midnightblue" points="245.156,-77.1565 234.668,-75.6545 241.93,-83.3689 245.156,-77.1565"/>
</g>
<!-- Node14&#45;&gt;Node8 -->
<g id="edge16" class="edge"><title>Node14&#45;&gt;Node8</title>
<path fill="none" stroke="midnightblue" d="M845.156,-113.62C840.375,-113.033 835.601,-112.482 831,-112 618.053,-89.6866 362.337,-74.7066 261.714,-69.272"/>
<polygon fill="midnightblue" stroke="midnightblue" points="261.795,-65.7714 251.622,-68.731 261.42,-72.7614 261.795,-65.7714"/>
</g>
<!-- Node15 -->
<g id="node15" class="node"><title>Node15</title>
<polygon fill="none" stroke="#bfbfbf" points="931,-56.5 931,-75.5 975,-75.5 975,-56.5 931,-56.5"/>
<text text-anchor="middle" x="953" y="-63.5" font-family="Helvetica,sans-Serif" font-size="10.00">string</text>
</g>
<!-- Node14&#45;&gt;Node15 -->
<g id="edge17" class="edge"><title>Node14&#45;&gt;Node15</title>
<path fill="none" stroke="midnightblue" d="M905.997,-112.324C914.194,-104.42 926.506,-92.5482 936.472,-82.9377"/>
<polygon fill="midnightblue" stroke="midnightblue" points="939.07,-85.2947 943.839,-75.8339 934.211,-80.2558 939.07,-85.2947"/>
</g>
<!-- Node16 -->
<g id="node16" class="node"><title>Node16</title>
<polygon fill="none" stroke="#bfbfbf" points="807,-56.5 807,-75.5 863,-75.5 863,-56.5 807,-56.5"/>
<text text-anchor="middle" x="835" y="-63.5" font-family="Helvetica,sans-Serif" font-size="10.00">sstream</text>
</g>
<!-- Node14&#45;&gt;Node16 -->
<g id="edge18" class="edge"><title>Node14&#45;&gt;Node16</title>
<path fill="none" stroke="midnightblue" d="M887.039,-112.324C877.873,-104.341 864.063,-92.3128 852.972,-82.6529"/>
<polygon fill="midnightblue" stroke="midnightblue" points="854.982,-79.7624 845.143,-75.8339 850.385,-85.041 854.982,-79.7624"/>
</g>
<!-- Node17 -->
<g id="node17" class="node"><title>Node17</title>
<polygon fill="none" stroke="#bfbfbf" points="881,-56.5 881,-75.5 913,-75.5 913,-56.5 881,-56.5"/>
<text text-anchor="middle" x="897" y="-63.5" font-family="Helvetica,sans-Serif" font-size="10.00">list</text>
</g>
<!-- Node14&#45;&gt;Node17 -->
<g id="edge19" class="edge"><title>Node14&#45;&gt;Node17</title>
<path fill="none" stroke="midnightblue" d="M897,-112.083C897,-105.006 897,-94.8611 897,-85.9865"/>
<polygon fill="midnightblue" stroke="midnightblue" points="900.5,-85.751 897,-75.7511 893.5,-85.7511 900.5,-85.751"/>
</g>
<!-- Node20&#45;&gt;Node3 -->
<g id="edge23" class="edge"><title>Node20&#45;&gt;Node3</title>
<path fill="none" stroke="midnightblue" d="M394.925,-336.075C421.733,-309.267 501.81,-229.19 536.115,-194.885"/>
<polygon fill="midnightblue" stroke="midnightblue" points="538.836,-197.114 543.432,-187.568 533.886,-192.164 538.836,-197.114"/>
</g>
<!-- Node20&#45;&gt;Node21 -->
<g id="edge24" class="edge"><title>Node20&#45;&gt;Node21</title>
<path fill="none" stroke="midnightblue" d="M384.509,-336.368C381.443,-318.617 374.37,-277.666 370.212,-253.597"/>
<polygon fill="midnightblue" stroke="midnightblue" points="373.635,-252.85 368.484,-243.591 366.737,-254.041 373.635,-252.85"/>
</g>
<!-- Node21&#45;&gt;Node3 -->
<g id="edge25" class="edge"><title>Node21&#45;&gt;Node3</title>
<path fill="none" stroke="midnightblue" d="M396.314,-224.444C427.842,-215.241 478.131,-200.562 512.986,-190.388"/>
<polygon fill="midnightblue" stroke="midnightblue" points="514.205,-193.678 522.823,-187.516 512.243,-186.959 514.205,-193.678"/>
</g>
<!-- Node22&#45;&gt;Node20 -->
<g id="edge37" class="edge"><title>Node22&#45;&gt;Node20</title>
<path fill="none" stroke="midnightblue" d="M321.371,-392.324C333.158,-384.058 351.132,-371.453 365.136,-361.632"/>
<polygon fill="midnightblue" stroke="midnightblue" points="367.482,-364.262 373.659,-355.655 363.462,-358.531 367.482,-364.262"/>
</g>
<!-- Node22&#45;&gt;Node21 -->
<g id="edge36" class="edge"><title>Node22&#45;&gt;Node21</title>
<path fill="none" stroke="midnightblue" d="M309.334,-392.403C310.015,-379.786 312.045,-355.623 318,-336 327.393,-305.049 345.201,-271.781 356.565,-252.207"/>
<polygon fill="midnightblue" stroke="midnightblue" points="359.616,-253.924 361.702,-243.537 353.594,-250.356 359.616,-253.924"/>
</g>
<!-- Node23 -->
<g id="node23" class="node"><title>Node23</title>
<g id="a_node23"><a xlink:href="virtual__sites_8hpp.html" target="_top" xlink:title="This file contains routine to handle virtual sites Virtual sites are like particles, but they will be not integrated. ">
<polygon fill="none" stroke="black" points="172,-336.5 172,-355.5 270,-355.5 270,-336.5 172,-336.5"/>
<text text-anchor="middle" x="221" y="-343.5" font-family="Helvetica,sans-Serif" font-size="10.00">virtual_sites.hpp</text>
</a>
</g>
</g>
<!-- Node22&#45;&gt;Node23 -->
<g id="edge28" class="edge"><title>Node22&#45;&gt;Node23</title>
<path fill="none" stroke="midnightblue" d="M294.861,-392.324C281.134,-383.9 260.064,-370.971 243.936,-361.074"/>
<polygon fill="midnightblue" stroke="midnightblue" points="245.457,-357.902 235.104,-355.655 241.796,-363.868 245.457,-357.902"/>
</g>
<!-- Node23&#45;&gt;Node21 -->
<g id="edge29" class="edge"><title>Node23&#45;&gt;Node21</title>
<path fill="none" stroke="midnightblue" d="M235.595,-336.418C250.028,-327.747 272.567,-313.708 291,-300 312.159,-284.265 334.961,-264.322 350.01,-250.703"/>
<polygon fill="midnightblue" stroke="midnightblue" points="352.487,-253.181 357.513,-243.854 347.768,-248.011 352.487,-253.181"/>
</g>
<!-- Node24 -->
<g id="node24" class="node"><title>Node24</title>
<g id="a_node24"><a xlink:href="virtual__sites__com_8hpp.html" target="_top" xlink:title="virtual_sites_com.hpp">
<polygon fill="none" stroke="black" points="158,-280.5 158,-299.5 282,-299.5 282,-280.5 158,-280.5"/>
<text text-anchor="middle" x="220" y="-287.5" font-family="Helvetica,sans-Serif" font-size="10.00">virtual_sites_com.hpp</text>
</a>
</g>
</g>
<!-- Node23&#45;&gt;Node24 -->
<g id="edge30" class="edge"><title>Node23&#45;&gt;Node24</title>
<path fill="none" stroke="midnightblue" d="M220.835,-336.083C220.704,-329.006 220.516,-318.861 220.352,-309.986"/>
<polygon fill="midnightblue" stroke="midnightblue" points="223.847,-309.685 220.162,-299.751 216.848,-309.814 223.847,-309.685"/>
</g>
<!-- Node25 -->
<g id="node25" class="node"><title>Node25</title>
<g id="a_node25"><a xlink:href="virtual__sites__relative_8hpp.html" target="_top" xlink:title="virtual_sites_relative.hpp">
<polygon fill="none" stroke="black" points="0,-280.5 0,-299.5 140,-299.5 140,-280.5 0,-280.5"/>
<text text-anchor="middle" x="70" y="-287.5" font-family="Helvetica,sans-Serif" font-size="10.00">virtual_sites_relative.hpp</text>
</a>
</g>
</g>
<!-- Node23&#45;&gt;Node25 -->
<g id="edge33" class="edge"><title>Node23&#45;&gt;Node25</title>
<path fill="none" stroke="midnightblue" d="M197.074,-336.444C171.781,-327.399 131.698,-313.064 103.32,-302.916"/>
<polygon fill="midnightblue" stroke="midnightblue" points="104.409,-299.588 93.8145,-299.516 102.052,-306.179 104.409,-299.588"/>
</g>
<!-- Node24&#45;&gt;Node8 -->
<g id="edge31" class="edge"><title>Node24&#45;&gt;Node8</title>
<path fill="none" stroke="midnightblue" d="M213.082,-280.234C193.217,-253.931 139.16,-173.692 167,-112 172.616,-99.5553 183.563,-89.1723 193.879,-81.5273"/>
<polygon fill="midnightblue" stroke="midnightblue" points="196.006,-84.3123 202.266,-75.7643 192.042,-78.5431 196.006,-84.3123"/>
</g>
<!-- Node24&#45;&gt;Node21 -->
<g id="edge32" class="edge"><title>Node24&#45;&gt;Node21</title>
<path fill="none" stroke="midnightblue" d="M243.293,-280.444C267.807,-271.438 306.596,-257.189 334.2,-247.049"/>
<polygon fill="midnightblue" stroke="midnightblue" points="335.637,-250.25 343.816,-243.516 333.223,-243.679 335.637,-250.25"/>
</g>
<!-- Node25&#45;&gt;Node8 -->
<g id="edge34" class="edge"><title>Node25&#45;&gt;Node8</title>
<path fill="none" stroke="midnightblue" d="M72.6554,-280.451C81.367,-253.403 111.227,-168.173 158,-112 168.158,-99.8003 182.25,-89.014 194.224,-81.062"/>
<polygon fill="midnightblue" stroke="midnightblue" points="196.313,-83.881 202.868,-75.5571 192.553,-77.9767 196.313,-83.881"/>
</g>
<!-- Node25&#45;&gt;Node21 -->
<g id="edge35" class="edge"><title>Node25&#45;&gt;Node21</title>
<path fill="none" stroke="midnightblue" d="M117.061,-280.444C169.415,-270.925 253.99,-255.547 310.04,-245.356"/>
<polygon fill="midnightblue" stroke="midnightblue" points="310.947,-248.749 320.16,-243.516 309.695,-241.862 310.947,-248.749"/>
</g>
<!-- Node27&#45;&gt;Node21 -->
<g id="edge40" class="edge"><title>Node27&#45;&gt;Node21</title>
<path fill="none" stroke="midnightblue" d="M635.454,-280.444C578.988,-270.885 487.626,-255.419 427.431,-245.23"/>
<polygon fill="midnightblue" stroke="midnightblue" points="427.754,-241.735 417.31,-243.516 426.586,-248.636 427.754,-241.735"/>
</g>
<!-- Node28 -->
<g id="node28" class="node"><title>Node28</title>
<g id="a_node28"><a xlink:href="random_8hpp.html" target="_top" xlink:title="A random generator. ">
<polygon fill="none" stroke="black" points="580.5,-224.5 580.5,-243.5 655.5,-243.5 655.5,-224.5 580.5,-224.5"/>
<text text-anchor="middle" x="618" y="-231.5" font-family="Helvetica,sans-Serif" font-size="10.00">random.hpp</text>
</a>
</g>
</g>
<!-- Node27&#45;&gt;Node28 -->
<g id="edge41" class="edge"><title>Node27&#45;&gt;Node28</title>
<path fill="none" stroke="midnightblue" d="M675.075,-280.324C664.825,-272.185 649.279,-259.839 636.999,-250.087"/>
<polygon fill="midnightblue" stroke="midnightblue" points="639.132,-247.312 629.124,-243.834 634.779,-252.794 639.132,-247.312"/>
</g>
<!-- Node29 -->
<g id="node29" class="node"><title>Node29</title>
<g id="a_node29"><a xlink:href="topology_8hpp.html" target="_top" xlink:title="This file contains functions for handling the system topology. ">
<polygon fill="none" stroke="black" points="673.5,-224.5 673.5,-243.5 752.5,-243.5 752.5,-224.5 673.5,-224.5"/>
<text text-anchor="middle" x="713" y="-231.5" font-family="Helvetica,sans-Serif" font-size="10.00">topology.hpp</text>
</a>
</g>
</g>
<!-- Node27&#45;&gt;Node29 -->
<g id="edge43" class="edge"><title>Node27&#45;&gt;Node29</title>
<path fill="none" stroke="midnightblue" d="M690.459,-280.083C694.154,-272.691 699.523,-261.953 704.094,-252.811"/>
<polygon fill="midnightblue" stroke="midnightblue" points="707.283,-254.261 708.624,-243.751 701.022,-251.13 707.283,-254.261"/>
</g>
<!-- Node30 -->
<g id="node30" class="node"><title>Node30</title>
<g id="a_node30"><a xlink:href="mpi_8h.html" target="_top" xlink:title="This is the MPIfake implementation. ">
<polygon fill="none" stroke="black" points="865,-224.5 865,-243.5 909,-243.5 909,-224.5 865,-224.5"/>
<text text-anchor="middle" x="887" y="-231.5" font-family="Helvetica,sans-Serif" font-size="10.00">mpi.h</text>
</a>
</g>
</g>
<!-- Node27&#45;&gt;Node30 -->
<g id="edge45" class="edge"><title>Node27&#45;&gt;Node30</title>
<path fill="none" stroke="midnightblue" d="M717.849,-280.444C755.388,-270.358 817.405,-253.697 855.007,-243.595"/>
<polygon fill="midnightblue" stroke="midnightblue" points="856.175,-246.906 864.924,-240.931 854.359,-240.145 856.175,-246.906"/>
</g>
<!-- Node34 -->
<g id="node34" class="node"><title>Node34</title>
<g id="a_node34"><a xlink:href="cuda__init_8hpp.html" target="_top" xlink:title="cuda_init.hpp">
<polygon fill="none" stroke="black" points="727,-168.5 727,-187.5 809,-187.5 809,-168.5 727,-168.5"/>
<text text-anchor="middle" x="768" y="-175.5" font-family="Helvetica,sans-Serif" font-size="10.00">cuda_init.hpp</text>
</a>
</g>
</g>
<!-- Node27&#45;&gt;Node34 -->
<g id="edge49" class="edge"><title>Node27&#45;&gt;Node34</title>
<path fill="none" stroke="midnightblue" d="M711.92,-280.385C728.8,-273.352 749.713,-261.655 761,-244 769.693,-230.403 770.889,-211.858 770.234,-198.056"/>
<polygon fill="midnightblue" stroke="midnightblue" points="773.697,-197.463 769.373,-187.791 766.721,-198.049 773.697,-197.463"/>
</g>
<!-- Node28&#45;&gt;Node3 -->
<g id="edge42" class="edge"><title>Node28&#45;&gt;Node3</title>
<path fill="none" stroke="midnightblue" d="M607.396,-224.324C597.544,-216.263 582.649,-204.077 570.785,-194.369"/>
<polygon fill="midnightblue" stroke="midnightblue" points="572.753,-191.457 562.797,-187.834 568.32,-196.875 572.753,-191.457"/>
</g>
<!-- Node29&#45;&gt;Node3 -->
<g id="edge44" class="edge"><title>Node29&#45;&gt;Node3</title>
<path fill="none" stroke="midnightblue" d="M687.489,-224.444C660.404,-215.359 617.41,-200.939 587.131,-190.783"/>
<polygon fill="midnightblue" stroke="midnightblue" points="587.986,-187.378 577.392,-187.516 585.76,-194.015 587.986,-187.378"/>
</g>
<!-- Node31 -->
<g id="node31" class="node"><title>Node31</title>
<polygon fill="none" stroke="#bfbfbf" points="966.5,-168.5 966.5,-187.5 1019.5,-187.5 1019.5,-168.5 966.5,-168.5"/>
<text text-anchor="middle" x="993" y="-175.5" font-family="Helvetica,sans-Serif" font-size="10.00">string.h</text>
</g>
<!-- Node30&#45;&gt;Node31 -->
<g id="edge46" class="edge"><title>Node30&#45;&gt;Node31</title>
<path fill="none" stroke="midnightblue" d="M904.031,-224.324C921.03,-215.664 947.376,-202.242 966.993,-192.249"/>
<polygon fill="midnightblue" stroke="midnightblue" points="968.69,-195.312 976.012,-187.655 965.512,-189.075 968.69,-195.312"/>
</g>
<!-- Node32 -->
<g id="node32" class="node"><title>Node32</title>
<polygon fill="none" stroke="#bfbfbf" points="827,-168.5 827,-187.5 877,-187.5 877,-168.5 827,-168.5"/>
<text text-anchor="middle" x="852" y="-175.5" font-family="Helvetica,sans-Serif" font-size="10.00">stdio.h</text>
</g>
<!-- Node30&#45;&gt;Node32 -->
<g id="edge47" class="edge"><title>Node30&#45;&gt;Node32</title>
<path fill="none" stroke="midnightblue" d="M881.22,-224.083C876.328,-216.534 869.173,-205.495 863.167,-196.23"/>
<polygon fill="midnightblue" stroke="midnightblue" points="866.048,-194.239 857.672,-187.751 860.174,-198.046 866.048,-194.239"/>
</g>
<!-- Node33 -->
<g id="node33" class="node"><title>Node33</title>
<polygon fill="none" stroke="#bfbfbf" points="895.5,-168.5 895.5,-187.5 948.5,-187.5 948.5,-168.5 895.5,-168.5"/>
<text text-anchor="middle" x="922" y="-175.5" font-family="Helvetica,sans-Serif" font-size="10.00">stdlib.h</text>
</g>
<!-- Node30&#45;&gt;Node33 -->
<g id="edge48" class="edge"><title>Node30&#45;&gt;Node33</title>
<path fill="none" stroke="midnightblue" d="M892.78,-224.083C897.672,-216.534 904.827,-205.495 910.833,-196.23"/>
<polygon fill="midnightblue" stroke="midnightblue" points="913.826,-198.046 916.328,-187.751 907.952,-194.239 913.826,-198.046"/>
</g>
<!-- Node34&#45;&gt;Node8 -->
<g id="edge50" class="edge"><title>Node34&#45;&gt;Node8</title>
<path fill="none" stroke="midnightblue" d="M777.256,-168.428C790.705,-154.966 812.442,-128.689 797,-112 760.868,-72.9506 390.733,-67.7026 261.912,-67.0633"/>
<polygon fill="midnightblue" stroke="midnightblue" points="261.647,-63.5623 251.633,-67.0197 261.618,-70.5622 261.647,-63.5623"/>
</g>
<!-- Node34&#45;&gt;Node18 -->
<g id="edge51" class="edge"><title>Node34&#45;&gt;Node18</title>
<path fill="none" stroke="midnightblue" d="M767.505,-168.083C767.111,-161.006 766.548,-150.861 766.055,-141.986"/>
<polygon fill="midnightblue" stroke="midnightblue" points="769.536,-141.542 765.486,-131.751 762.546,-141.93 769.536,-141.542"/>
</g>
</g>
</svg>
        <g id="navigator" transform="translate(0 0)" fill="#404254">
                <rect fill="#f2f5e9" fill-opacity="0.5" stroke="#606060" stroke-width=".5" x="0" y="0" width="60" height="60"/>
                <use id="zoomplus" xlink:href="#zoomPlus" x="17" y="9" onmousedown="handleZoom(evt,'in')"/>
                <use id="zoomminus" xlink:href="#zoomMin" x="42" y="9" onmousedown="handleZoom(evt,'out')"/>
                <use id="reset" xlink:href="#resetDef" x="30" y="36" onmousedown="handleReset()"/>
                <g id="arrowUp" xlink:href="#dirArrow" transform="translate(30 24)" onmousedown="handlePan(0,-1)">
                  <use xlink:href="#rim" fill="#404040">
                        <set attributeName="fill" to="#808080" begin="arrowUp.mouseover" end="arrowUp.mouseout"/>
                  </use>
                  <path fill="none" stroke="white" stroke-width="1.5" d="M0,-3.0v7 M-2.5,-0.5L0,-3.0L2.5,-0.5"/>
                </g>
                <g id="arrowRight" xlink:href="#dirArrow" transform="rotate(90) translate(36 -43)" onmousedown="handlePan(1,0)">
                  <use xlink:href="#rim" fill="#404040">
                        <set attributeName="fill" to="#808080" begin="arrowRight.mouseover" end="arrowRight.mouseout"/>
                  </use>
                  <path fill="none" stroke="white" stroke-width="1.5" d="M0,-3.0v7 M-2.5,-0.5L0,-3.0L2.5,-0.5"/>
                </g>
                <g id="arrowDown" xlink:href="#dirArrow" transform="rotate(180) translate(-30 -48)" onmousedown="handlePan(0,1)">
                  <use xlink:href="#rim" fill="#404040">
                        <set attributeName="fill" to="#808080" begin="arrowDown.mouseover" end="arrowDown.mouseout"/>
                  </use>
                  <path fill="none" stroke="white" stroke-width="1.5" d="M0,-3.0v7 M-2.5,-0.5L0,-3.0L2.5,-0.5"/>
                </g>
                <g id="arrowLeft" xlink:href="#dirArrow" transform="rotate(270) translate(-36 17)" onmousedown="handlePan(-1,0)">
                  <use xlink:href="#rim" fill="#404040">
                        <set attributeName="fill" to="#808080" begin="arrowLeft.mouseover" end="arrowLeft.mouseout"/>
                  </use>
                  <path fill="none" stroke="white" stroke-width="1.5" d="M0,-3.0v7 M-2.5,-0.5L0,-3.0L2.5,-0.5"/>
                </g>
        </g>
        <svg viewBox="0 0 15 15" width="100%" height="30px" preserveAspectRatio="xMaxYMin meet">
         <g id="arrow_out" transform="scale(0.3 0.3)">
          <a xlink:href="morse_8cpp__incl_org.svg" target="_base">
           <rect id="button" ry="5" rx="5" y="6" x="6" height="38" width="38"
                fill="#f2f5e9" fill-opacity="0.5" stroke="#606060" stroke-width="1.0"/>
           <path id="arrow"
             d="M 11.500037,31.436501 C 11.940474,20.09759 22.043105,11.32322 32.158766,21.979434 L 37.068811,17.246167 C 37.068811,17.246167 37.088388,32 37.088388,32 L 22.160133,31.978069 C 22.160133,31.978069 26.997745,27.140456 26.997745,27.140456 C 18.528582,18.264221 13.291696,25.230495 11.500037,31.436501 z"
             style="fill:#404040;"/>
          </a>
         </g>
        </svg>
</svg>
