<?xml version="1.0" encoding="UTF-8" standalone="no"?>
<!DOCTYPE svg PUBLIC "-//W3C//DTD SVG 1.1//EN"
 "http://www.w3.org/Graphics/SVG/1.1/DTD/svg11.dtd">
<!-- Generated by graphviz version 2.38.0 (20140413.2041)
 -->
<!-- Title: mpi.h Pages: 1 -->
<svg width="201pt" height="84pt"
 viewBox="0.00 0.00 201.00 84.00" xmlns="http://www.w3.org/2000/svg" xmlns:xlink="http://www.w3.org/1999/xlink">
<g id="graph0" class="graph" transform="scale(1 1) rotate(0) translate(4 80)">
<title>mpi.h</title>
<!-- Node1 -->
<g id="node1" class="node"><title>Node1</title>
<polygon fill="#bfbfbf" stroke="black" points="74.5,-56.5 74.5,-75.5 118.5,-75.5 118.5,-56.5 74.5,-56.5"/>
<text text-anchor="middle" x="96.5" y="-63.5" font-family="Helvetica,sans-Serif" font-size="10.00">mpi.h</text>
</g>
<!-- Node2 -->
<g id="node2" class="node"><title>Node2</title>
<polygon fill="none" stroke="#bfbfbf" points="0,-0.5 0,-19.5 53,-19.5 53,-0.5 0,-0.5"/>
<text text-anchor="middle" x="26.5" y="-7.5" font-family="Helvetica,sans-Serif" font-size="10.00">string.h</text>
</g>
<!-- Node1&#45;&gt;Node2 -->
<g id="edge1" class="edge"><title>Node1&#45;&gt;Node2</title>
<path fill="none" stroke="midnightblue" d="M85.2533,-56.324C74.7026,-48.1849 58.6993,-35.8395 46.0578,-26.0874"/>
<polygon fill="midnightblue" stroke="midnightblue" points="48.007,-23.1707 37.9513,-19.8339 43.7314,-28.7132 48.007,-23.1707"/>
</g>
<!-- Node3 -->
<g id="node3" class="node"><title>Node3</title>
<polygon fill="none" stroke="#bfbfbf" points="71.5,-0.5 71.5,-19.5 121.5,-19.5 121.5,-0.5 71.5,-0.5"/>
<text text-anchor="middle" x="96.5" y="-7.5" font-family="Helvetica,sans-Serif" font-size="10.00">stdio.h</text>
</g>
<!-- Node1&#45;&gt;Node3 -->
<g id="edge2" class="edge"><title>Node1&#45;&gt;Node3</title>
<path fill="none" stroke="midnightblue" d="M96.5,-56.083C96.5,-49.0059 96.5,-38.8611 96.5,-29.9865"/>
<polygon fill="midnightblue" stroke="midnightblue" points="100,-29.751 96.5,-19.7511 93.0001,-29.7511 100,-29.751"/>
</g>
<!-- Node4 -->
<g id="node4" class="node"><title>Node4</title>
<polygon fill="none" stroke="#bfbfbf" points="140,-0.5 140,-19.5 193,-19.5 193,-0.5 140,-0.5"/>
<text text-anchor="middle" x="166.5" y="-7.5" font-family="Helvetica,sans-Serif" font-size="10.00">stdlib.h</text>
</g>
<!-- Node1&#45;&gt;Node4 -->
<g id="edge3" class="edge"><title>Node1&#45;&gt;Node4</title>
<path fill="none" stroke="midnightblue" d="M107.747,-56.324C118.297,-48.1849 134.301,-35.8395 146.942,-26.0874"/>
<polygon fill="midnightblue" stroke="midnightblue" points="149.269,-28.7132 155.049,-19.8339 144.993,-23.1707 149.269,-28.7132"/>
</g>
</g>
</svg>
