<?xml version="1.0" encoding="UTF-8" standalone="no"?>
<!DOCTYPE svg PUBLIC "-//W3C//DTD SVG 1.1//EN"
 "http://www.w3.org/Graphics/SVG/1.1/DTD/svg11.dtd">
<!-- Generated by graphviz version 2.38.0 (20140413.2041)
 -->
<!-- Title: nemd.hpp Pages: 1 -->
<svg width="487pt" height="84pt"
 viewBox="0.00 0.00 486.50 84.00" xmlns="http://www.w3.org/2000/svg" xmlns:xlink="http://www.w3.org/1999/xlink">
<g id="graph0" class="graph" transform="scale(1 1) rotate(0) translate(4 80)">
<title>nemd.hpp</title>
<!-- Node1 -->
<g id="node1" class="node"><title>Node1</title>
<polygon fill="#bfbfbf" stroke="black" points="213,-56.5 213,-75.5 278,-75.5 278,-56.5 213,-56.5"/>
<text text-anchor="middle" x="245.5" y="-63.5" font-family="Helvetica,sans-Serif" font-size="10.00">nemd.hpp</text>
</g>
<!-- Node2 -->
<g id="node2" class="node"><title>Node2</title>
<g id="a_node2"><a xlink:href="initialize_8cpp.html" target="_top" xlink:title="Implementation of initialize.hpp. ">
<polygon fill="none" stroke="black" points="0,-0.5 0,-19.5 79,-19.5 79,-0.5 0,-0.5"/>
<text text-anchor="middle" x="39.5" y="-7.5" font-family="Helvetica,sans-Serif" font-size="10.00">initialize.cpp</text>
</a>
</g>
</g>
<!-- Node1&#45;&gt;Node2 -->
<g id="edge1" class="edge"><title>Node1&#45;&gt;Node2</title>
<path fill="none" stroke="midnightblue" d="M202.885,-53.8291C163.99,-43.6333 107.336,-28.7823 71.9886,-19.5164"/>
<polygon fill="midnightblue" stroke="midnightblue" points="202.298,-57.2934 212.859,-56.4435 204.073,-50.5222 202.298,-57.2934"/>
</g>
<!-- Node3 -->
<g id="node3" class="node"><title>Node3</title>
<g id="a_node3"><a xlink:href="core_2integrate_8cpp.html" target="_top" xlink:title="integrate.cpp">
<polygon fill="none" stroke="black" points="97,-0.5 97,-19.5 178,-19.5 178,-0.5 97,-0.5"/>
<text text-anchor="middle" x="137.5" y="-7.5" font-family="Helvetica,sans-Serif" font-size="10.00">integrate.cpp</text>
</a>
</g>
</g>
<!-- Node1&#45;&gt;Node3 -->
<g id="edge2" class="edge"><title>Node1&#45;&gt;Node3</title>
<path fill="none" stroke="midnightblue" d="M218.952,-51.7261C198.954,-41.7271 172.113,-28.3065 154.809,-19.6545"/>
<polygon fill="midnightblue" stroke="midnightblue" points="217.638,-54.9823 228.148,-56.324 220.769,-48.7213 217.638,-54.9823"/>
</g>
<!-- Node4 -->
<g id="node4" class="node"><title>Node4</title>
<g id="a_node4"><a xlink:href="integrate__sd_8cpp.html" target="_top" xlink:title="Stokesian dynamics integrator. ">
<polygon fill="none" stroke="black" points="196.5,-0.5 196.5,-19.5 294.5,-19.5 294.5,-0.5 196.5,-0.5"/>
<text text-anchor="middle" x="245.5" y="-7.5" font-family="Helvetica,sans-Serif" font-size="10.00">integrate_sd.cpp</text>
</a>
</g>
</g>
<!-- Node1&#45;&gt;Node4 -->
<g id="edge3" class="edge"><title>Node1&#45;&gt;Node4</title>
<path fill="none" stroke="midnightblue" d="M245.5,-45.8045C245.5,-36.9102 245.5,-26.7798 245.5,-19.7511"/>
<polygon fill="midnightblue" stroke="midnightblue" points="242,-46.083 245.5,-56.083 249,-46.083 242,-46.083"/>
</g>
<!-- Node5 -->
<g id="node5" class="node"><title>Node5</title>
<g id="a_node5"><a xlink:href="nemd_8cpp.html" target="_top" xlink:title="For more information see nemd.hpp. ">
<polygon fill="none" stroke="black" points="313,-0.5 313,-19.5 378,-19.5 378,-0.5 313,-0.5"/>
<text text-anchor="middle" x="345.5" y="-7.5" font-family="Helvetica,sans-Serif" font-size="10.00">nemd.cpp</text>
</a>
</g>
</g>
<!-- Node1&#45;&gt;Node5 -->
<g id="edge4" class="edge"><title>Node1&#45;&gt;Node5</title>
<path fill="none" stroke="midnightblue" d="M270.588,-51.4526C289.049,-41.4835 313.597,-28.2279 329.473,-19.6545"/>
<polygon fill="midnightblue" stroke="midnightblue" points="268.703,-48.4928 261.567,-56.324 272.029,-54.6521 268.703,-48.4928"/>
</g>
<!-- Node6 -->
<g id="node6" class="node"><title>Node6</title>
<g id="a_node6"><a xlink:href="nemd__tcl_8cpp.html" target="_top" xlink:title="nemd_tcl.cpp">
<polygon fill="none" stroke="black" points="396.5,-0.5 396.5,-19.5 478.5,-19.5 478.5,-0.5 396.5,-0.5"/>
<text text-anchor="middle" x="437.5" y="-7.5" font-family="Helvetica,sans-Serif" font-size="10.00">nemd_tcl.cpp</text>
</a>
</g>
</g>
<!-- Node1&#45;&gt;Node6 -->
<g id="edge5" class="edge"><title>Node1&#45;&gt;Node6</title>
<path fill="none" stroke="midnightblue" d="M285.683,-53.6986C321.919,-43.507 374.414,-28.7429 407.219,-19.5164"/>
<polygon fill="midnightblue" stroke="midnightblue" points="284.602,-50.3667 275.923,-56.4435 286.497,-57.1053 284.602,-50.3667"/>
</g>
</g>
</svg>
