<?xml version="1.0" encoding="UTF-8" standalone="no"?>
<!DOCTYPE svg PUBLIC "-//W3C//DTD SVG 1.1//EN"
 "http://www.w3.org/Graphics/SVG/1.1/DTD/svg11.dtd">
<!-- Generated by graphviz version 2.38.0 (20140413.2041)
 -->
<!-- Title: nemd.cpp Pages: 1 -->
<!--zoomable 420 -->
<svg id="main" version="1.1" xmlns="http://www.w3.org/2000/svg" xmlns:xlink="http://www.w3.org/1999/xlink" xml:space="preserve" onload="init(evt)">
<style type="text/css"><![CDATA[
.edge:hover path { stroke: red; }
.edge:hover polygon { stroke: red; fill: red; }
]]></style>
<script type="text/javascript"><![CDATA[
var edges = document.getElementsByTagName('g');
if (edges && edges.length) {
  for (var i=0;i<edges.length;i++) {
    if (edges[i].id.substr(0,4)=='edge') {
      edges[i].setAttribute('class','edge');
    }
  }
}
]]></script>
        <defs>
                <circle id="rim" cx="0" cy="0" r="7"/>
                <circle id="rim2" cx="0" cy="0" r="3.5"/>
                <g id="zoomPlus">
                        <use xlink:href="#rim" fill="#404040">
                                <set attributeName="fill" to="#808080" begin="zoomplus.mouseover" end="zoomplus.mouseout"/>
                        </use>
                        <path d="M-4,0h8M0,-4v8" fill="none" stroke="white" stroke-width="1.5" pointer-events="none"/>
                </g>
                <g id="zoomMin">
                        <use xlink:href="#rim" fill="#404040">
                                <set attributeName="fill" to="#808080" begin="zoomminus.mouseover" end="zoomminus.mouseout"/>
                        </use>
                        <path d="M-4,0h8" fill="none" stroke="white" stroke-width="1.5" pointer-events="none"/>
                </g>
                <g id="dirArrow">
                        <path fill="none" stroke="white" stroke-width="1.5" d="M0,-3.0v7 M-2.5,-0.5L0,-3.0L2.5,-0.5"/>
                </g>
               <g id="resetDef">
                       <use xlink:href="#rim2" fill="#404040">
                               <set attributeName="fill" to="#808080" begin="reset.mouseover" end="reset.mouseout"/>
                       </use>
               </g>
        </defs>

<script type="text/javascript">
var viewWidth = 835;
var viewHeight = 420;
var sectionId = 'dynsection-0';
</script>
<script xlink:href="svgpan.js"/>
<svg id="graph" class="graph">
<g id="viewport">
<title>nemd.cpp</title>
<!-- Node1 -->
<g id="node1" class="node"><title>Node1</title>
<polygon fill="#bfbfbf" stroke="black" points="573.5,-392.5 573.5,-411.5 638.5,-411.5 638.5,-392.5 573.5,-392.5"/>
<text text-anchor="middle" x="606" y="-399.5" font-family="Helvetica,sans-Serif" font-size="10.00">nemd.cpp</text>
</g>
<!-- Node2 -->
<g id="node2" class="node"><title>Node2</title>
<g id="a_node2"><a xlink:href="nemd_8hpp.html" target="_top" xlink:title="This file contains the implementation of the NEMD (Non Equilibrium Molecular Dynamics) algorithm...">
<polygon fill="none" stroke="black" points="219.5,-280.5 219.5,-299.5 284.5,-299.5 284.5,-280.5 219.5,-280.5"/>
<text text-anchor="middle" x="252" y="-287.5" font-family="Helvetica,sans-Serif" font-size="10.00">nemd.hpp</text>
</a>
</g>
</g>
<!-- Node1&#45;&gt;Node2 -->
<g id="edge1" class="edge"><title>Node1&#45;&gt;Node2</title>
<path fill="none" stroke="midnightblue" d="M578.272,-392.489C548.897,-383.464 501.164,-368.776 460,-356 400.082,-337.404 330.513,-315.626 288.938,-302.591"/>
<polygon fill="midnightblue" stroke="midnightblue" points="289.835,-299.204 279.246,-299.552 287.74,-305.883 289.835,-299.204"/>
</g>
<!-- Node6 -->
<g id="node6" class="node"><title>Node6</title>
<polygon fill="none" stroke="#bfbfbf" points="613,-112.5 613,-131.5 659,-131.5 659,-112.5 613,-112.5"/>
<text text-anchor="middle" x="636" y="-119.5" font-family="Helvetica,sans-Serif" font-size="10.00">cstdio</text>
</g>
<!-- Node1&#45;&gt;Node6 -->
<g id="edge23" class="edge"><title>Node1&#45;&gt;Node6</title>
<path fill="none" stroke="midnightblue" d="M617.087,-392.33C637.509,-375.293 679,-335.236 679,-291 679,-291 679,-291 679,-233 679,-198.306 660.215,-161.42 647.477,-140.396"/>
<polygon fill="midnightblue" stroke="midnightblue" points="650.272,-138.266 641.979,-131.672 644.35,-141.998 650.272,-138.266"/>
</g>
<!-- Node15 -->
<g id="node15" class="node"><title>Node15</title>
<g id="a_node15"><a xlink:href="errorhandling_8hpp.html" target="_top" xlink:title="This file contains the errorhandling code for severe errors, like a broken bond or illegal parameter ...">
<polygon fill="none" stroke="black" points="677.5,-112.5 677.5,-131.5 780.5,-131.5 780.5,-112.5 677.5,-112.5"/>
<text text-anchor="middle" x="729" y="-119.5" font-family="Helvetica,sans-Serif" font-size="10.00">errorhandling.hpp</text>
</a>
</g>
</g>
<!-- Node1&#45;&gt;Node15 -->
<g id="edge38" class="edge"><title>Node1&#45;&gt;Node15</title>
<path fill="none" stroke="midnightblue" d="M625.845,-392.391C657.772,-377.043 717,-341.734 717,-291 717,-291 717,-291 717,-233 717,-200.758 722.158,-163.512 725.711,-141.681"/>
<polygon fill="midnightblue" stroke="midnightblue" points="729.212,-141.967 727.431,-131.523 722.31,-140.798 729.212,-141.967"/>
</g>
<!-- Node21 -->
<g id="node21" class="node"><title>Node21</title>
<g id="a_node21"><a xlink:href="integrate_8hpp.html" target="_top" xlink:title="Molecular dynamics integrator. ">
<polygon fill="none" stroke="black" points="745,-336.5 745,-355.5 827,-355.5 827,-336.5 745,-336.5"/>
<text text-anchor="middle" x="786" y="-343.5" font-family="Helvetica,sans-Serif" font-size="10.00">integrate.hpp</text>
</a>
</g>
</g>
<!-- Node1&#45;&gt;Node21 -->
<g id="edge24" class="edge"><title>Node1&#45;&gt;Node21</title>
<path fill="none" stroke="midnightblue" d="M634.522,-392.444C665.066,-383.28 713.708,-368.688 747.603,-358.519"/>
<polygon fill="midnightblue" stroke="midnightblue" points="749.039,-361.742 757.612,-355.516 747.028,-355.038 749.039,-361.742"/>
</g>
<!-- Node22 -->
<g id="node22" class="node"><title>Node22</title>
<g id="a_node22"><a xlink:href="communication_8hpp.html" target="_top" xlink:title="This file contains the asynchronous MPI communication. ">
<polygon fill="none" stroke="black" points="326.5,-280.5 326.5,-299.5 439.5,-299.5 439.5,-280.5 326.5,-280.5"/>
<text text-anchor="middle" x="383" y="-287.5" font-family="Helvetica,sans-Serif" font-size="10.00">communication.hpp</text>
</a>
</g>
</g>
<!-- Node1&#45;&gt;Node22 -->
<g id="edge25" class="edge"><title>Node1&#45;&gt;Node22</title>
<path fill="none" stroke="midnightblue" d="M583.542,-392.41C561.662,-383.842 527.609,-369.976 499,-356 465.821,-339.791 428.815,-318.46 405.719,-304.737"/>
<polygon fill="midnightblue" stroke="midnightblue" points="407.39,-301.658 397.011,-299.531 403.798,-307.666 407.39,-301.658"/>
</g>
<!-- Node30 -->
<g id="node30" class="node"><title>Node30</title>
<g id="a_node30"><a xlink:href="grid_8hpp.html" target="_top" xlink:title="Domain decomposition for parallel computing. ">
<polygon fill="none" stroke="black" points="508,-336.5 508,-355.5 564,-355.5 564,-336.5 508,-336.5"/>
<text text-anchor="middle" x="536" y="-343.5" font-family="Helvetica,sans-Serif" font-size="10.00">grid.hpp</text>
</a>
</g>
</g>
<!-- Node1&#45;&gt;Node30 -->
<g id="edge39" class="edge"><title>Node1&#45;&gt;Node30</title>
<path fill="none" stroke="midnightblue" d="M594.753,-392.324C584.203,-384.185 568.199,-371.839 555.558,-362.087"/>
<polygon fill="midnightblue" stroke="midnightblue" points="557.507,-359.171 547.451,-355.834 553.231,-364.713 557.507,-359.171"/>
</g>
<!-- Node3 -->
<g id="node3" class="node"><title>Node3</title>
<g id="a_node3"><a xlink:href="particle__data_8hpp.html" target="_top" xlink:title="For more information on particle_data, see particle_data.c. ">
<polygon fill="none" stroke="black" points="177.5,-224.5 177.5,-243.5 278.5,-243.5 278.5,-224.5 177.5,-224.5"/>
<text text-anchor="middle" x="228" y="-231.5" font-family="Helvetica,sans-Serif" font-size="10.00">particle_data.hpp</text>
</a>
</g>
</g>
<!-- Node2&#45;&gt;Node3 -->
<g id="edge2" class="edge"><title>Node2&#45;&gt;Node3</title>
<path fill="none" stroke="midnightblue" d="M248.037,-280.083C244.787,-272.77 240.081,-262.181 236.046,-253.103"/>
<polygon fill="midnightblue" stroke="midnightblue" points="239.149,-251.468 231.889,-243.751 232.752,-254.311 239.149,-251.468"/>
</g>
<!-- Node4 -->
<g id="node4" class="node"><title>Node4</title>
<g id="a_node4"><a xlink:href="utils_8hpp.html" target="_top" xlink:title="Small functions that are useful not only for one modul. ">
<polygon fill="none" stroke="black" points="343.5,-168.5 343.5,-187.5 402.5,-187.5 402.5,-168.5 343.5,-168.5"/>
<text text-anchor="middle" x="373" y="-175.5" font-family="Helvetica,sans-Serif" font-size="10.00">utils.hpp</text>
</a>
</g>
</g>
<!-- Node3&#45;&gt;Node4 -->
<g id="edge3" class="edge"><title>Node3&#45;&gt;Node4</title>
<path fill="none" stroke="midnightblue" d="M250.976,-224.444C275.157,-215.438 313.418,-201.189 340.646,-191.049"/>
<polygon fill="midnightblue" stroke="midnightblue" points="341.982,-194.286 350.132,-187.516 339.539,-187.727 341.982,-194.286"/>
</g>
<!-- Node5 -->
<g id="node5" class="node"><title>Node5</title>
<polygon fill="none" stroke="#bfbfbf" points="412.5,-112.5 412.5,-131.5 459.5,-131.5 459.5,-112.5 412.5,-112.5"/>
<text text-anchor="middle" x="436" y="-119.5" font-family="Helvetica,sans-Serif" font-size="10.00">cmath</text>
</g>
<!-- Node4&#45;&gt;Node5 -->
<g id="edge4" class="edge"><title>Node4&#45;&gt;Node5</title>
<path fill="none" stroke="midnightblue" d="M383.122,-168.324C392.526,-160.263 406.744,-148.077 418.069,-138.369"/>
<polygon fill="midnightblue" stroke="midnightblue" points="420.379,-140.999 425.694,-131.834 415.823,-135.684 420.379,-140.999"/>
</g>
<!-- Node4&#45;&gt;Node6 -->
<g id="edge5" class="edge"><title>Node4&#45;&gt;Node6</title>
<path fill="none" stroke="midnightblue" d="M402.84,-169.789C405.595,-169.167 408.347,-168.561 411,-168 493.283,-150.592 517.307,-151.722 603.079,-132.041"/>
<polygon fill="midnightblue" stroke="midnightblue" points="604.043,-135.41 612.992,-129.737 602.459,-128.592 604.043,-135.41"/>
</g>
<!-- Node7 -->
<g id="node7" class="node"><title>Node7</title>
<polygon fill="none" stroke="#bfbfbf" points="477.5,-112.5 477.5,-131.5 526.5,-131.5 526.5,-112.5 477.5,-112.5"/>
<text text-anchor="middle" x="502" y="-119.5" font-family="Helvetica,sans-Serif" font-size="10.00">cstdlib</text>
</g>
<!-- Node4&#45;&gt;Node7 -->
<g id="edge6" class="edge"><title>Node4&#45;&gt;Node7</title>
<path fill="none" stroke="midnightblue" d="M393.44,-168.444C414.67,-159.557 448.099,-145.563 472.255,-135.451"/>
<polygon fill="midnightblue" stroke="midnightblue" points="473.782,-138.606 481.655,-131.516 471.079,-132.149 473.782,-138.606"/>
</g>
<!-- Node8 -->
<g id="node8" class="node"><title>Node8</title>
<polygon fill="none" stroke="#bfbfbf" points="545,-112.5 545,-131.5 595,-131.5 595,-112.5 545,-112.5"/>
<text text-anchor="middle" x="570" y="-119.5" font-family="Helvetica,sans-Serif" font-size="10.00">cstring</text>
</g>
<!-- Node4&#45;&gt;Node8 -->
<g id="edge7" class="edge"><title>Node4&#45;&gt;Node8</title>
<path fill="none" stroke="midnightblue" d="M402.92,-168.799C438.339,-159.09 497.245,-142.943 534.818,-132.644"/>
<polygon fill="midnightblue" stroke="midnightblue" points="536.093,-135.923 544.812,-129.904 534.243,-129.172 536.093,-135.923"/>
</g>
<!-- Node9 -->
<g id="node9" class="node"><title>Node9</title>
<g id="a_node9"><a xlink:href="config_8hpp.html" target="_top" xlink:title="This file contains the defaults for Espresso. ">
<polygon fill="none" stroke="black" points="121.5,-56.5 121.5,-75.5 188.5,-75.5 188.5,-56.5 121.5,-56.5"/>
<text text-anchor="middle" x="155" y="-63.5" font-family="Helvetica,sans-Serif" font-size="10.00">config.hpp</text>
</a>
</g>
</g>
<!-- Node4&#45;&gt;Node9 -->
<g id="edge8" class="edge"><title>Node4&#45;&gt;Node9</title>
<path fill="none" stroke="midnightblue" d="M343.395,-176.478C281.42,-174.695 141.327,-166.816 112,-132 98.4411,-115.903 117.234,-95.3705 134.07,-81.7351"/>
<polygon fill="midnightblue" stroke="midnightblue" points="136.214,-84.5021 142.028,-75.645 131.959,-78.9432 136.214,-84.5021"/>
</g>
<!-- Node13 -->
<g id="node13" class="node"><title>Node13</title>
<g id="a_node13"><a xlink:href="debug_8hpp.html" target="_top" xlink:title="This file controls debug facilities. ">
<polygon fill="none" stroke="black" points="121,-112.5 121,-131.5 189,-131.5 189,-112.5 121,-112.5"/>
<text text-anchor="middle" x="155" y="-119.5" font-family="Helvetica,sans-Serif" font-size="10.00">debug.hpp</text>
</a>
</g>
</g>
<!-- Node4&#45;&gt;Node13 -->
<g id="edge12" class="edge"><title>Node4&#45;&gt;Node13</title>
<path fill="none" stroke="midnightblue" d="M343.145,-169.605C305.9,-160.379 241.907,-144.527 199.031,-133.907"/>
<polygon fill="midnightblue" stroke="midnightblue" points="199.7,-130.467 189.151,-131.46 198.016,-137.261 199.7,-130.467"/>
</g>
<!-- Node14 -->
<g id="node14" class="node"><title>Node14</title>
<g id="a_node14"><a xlink:href="lees__edwards_8hpp.html" target="_top" xlink:title="lees_edwards.hpp">
<polygon fill="none" stroke="black" points="207,-112.5 207,-131.5 311,-131.5 311,-112.5 207,-112.5"/>
<text text-anchor="middle" x="259" y="-119.5" font-family="Helvetica,sans-Serif" font-size="10.00">lees_edwards.hpp</text>
</a>
</g>
</g>
<!-- Node4&#45;&gt;Node14 -->
<g id="edge14" class="edge"><title>Node4&#45;&gt;Node14</title>
<path fill="none" stroke="midnightblue" d="M354.936,-168.444C336.425,-159.675 307.419,-145.935 286.145,-135.858"/>
<polygon fill="midnightblue" stroke="midnightblue" points="287.515,-132.634 276.979,-131.516 284.518,-138.96 287.515,-132.634"/>
</g>
<!-- Node4&#45;&gt;Node15 -->
<g id="edge16" class="edge"><title>Node4&#45;&gt;Node15</title>
<path fill="none" stroke="midnightblue" d="M402.815,-169.661C405.575,-169.065 408.335,-168.501 411,-168 521.251,-147.269 552.162,-148.34 667.489,-132.053"/>
<polygon fill="midnightblue" stroke="midnightblue" points="668.013,-135.514 677.419,-130.637 667.025,-128.584 668.013,-135.514"/>
</g>
<!-- Node19 -->
<g id="node19" class="node"><title>Node19</title>
<polygon fill="none" stroke="#bfbfbf" points="17.5,-112.5 17.5,-131.5 64.5,-131.5 64.5,-112.5 17.5,-112.5"/>
<text text-anchor="middle" x="41" y="-119.5" font-family="Helvetica,sans-Serif" font-size="10.00">vector</text>
</g>
<!-- Node4&#45;&gt;Node19 -->
<g id="edge21" class="edge"><title>Node4&#45;&gt;Node19</title>
<path fill="none" stroke="midnightblue" d="M343.234,-173.252C289.996,-166.369 175.048,-150.693 79,-132 77.5442,-131.717 76.0598,-131.416 74.5623,-131.103"/>
<polygon fill="midnightblue" stroke="midnightblue" points="75.1725,-127.654 64.6528,-128.913 73.662,-134.489 75.1725,-127.654"/>
</g>
<!-- Node20 -->
<g id="node20" class="node"><title>Node20</title>
<polygon fill="none" stroke="#bfbfbf" points="329.5,-112.5 329.5,-131.5 394.5,-131.5 394.5,-112.5 329.5,-112.5"/>
<text text-anchor="middle" x="362" y="-119.5" font-family="Helvetica,sans-Serif" font-size="10.00">exception</text>
</g>
<!-- Node4&#45;&gt;Node20 -->
<g id="edge22" class="edge"><title>Node4&#45;&gt;Node20</title>
<path fill="none" stroke="midnightblue" d="M371.184,-168.083C369.726,-160.927 367.629,-150.635 365.807,-141.691"/>
<polygon fill="midnightblue" stroke="midnightblue" points="369.208,-140.851 363.783,-131.751 362.349,-142.248 369.208,-140.851"/>
</g>
<!-- Node10 -->
<g id="node10" class="node"><title>Node10</title>
<g id="a_node10"><a xlink:href="acconfig_8hpp.html" target="_top" xlink:title="acconfig.hpp">
<polygon fill="none" stroke="black" points="5,-0.5 5,-19.5 83,-19.5 83,-0.5 5,-0.5"/>
<text text-anchor="middle" x="44" y="-7.5" font-family="Helvetica,sans-Serif" font-size="10.00">acconfig.hpp</text>
</a>
</g>
</g>
<!-- Node9&#45;&gt;Node10 -->
<g id="edge9" class="edge"><title>Node9&#45;&gt;Node10</title>
<path fill="none" stroke="midnightblue" d="M137.166,-56.324C119.284,-47.6247 91.5249,-34.1202 70.9544,-24.113"/>
<polygon fill="midnightblue" stroke="midnightblue" points="72.3133,-20.8819 61.7898,-19.6545 69.251,-27.1765 72.3133,-20.8819"/>
</g>
<!-- Node11 -->
<g id="node11" class="node"><title>Node11</title>
<g id="a_node11"><a xlink:href="myconfig-final_8hpp.html" target="_top" xlink:title="myconfig&#45;final.hpp">
<polygon fill="none" stroke="black" points="101.5,-0.5 101.5,-19.5 208.5,-19.5 208.5,-0.5 101.5,-0.5"/>
<text text-anchor="middle" x="155" y="-7.5" font-family="Helvetica,sans-Serif" font-size="10.00">myconfig&#45;final.hpp</text>
</a>
</g>
</g>
<!-- Node9&#45;&gt;Node11 -->
<g id="edge10" class="edge"><title>Node9&#45;&gt;Node11</title>
<path fill="none" stroke="midnightblue" d="M155,-56.083C155,-49.0059 155,-38.8611 155,-29.9865"/>
<polygon fill="midnightblue" stroke="midnightblue" points="158.5,-29.751 155,-19.7511 151.5,-29.7511 158.5,-29.751"/>
</g>
<!-- Node12 -->
<g id="node12" class="node"><title>Node12</title>
<g id="a_node12"><a xlink:href="config-features_8hpp.html" target="_top" xlink:title="config&#45;features.hpp">
<polygon fill="none" stroke="black" points="226.5,-0.5 226.5,-19.5 337.5,-19.5 337.5,-0.5 226.5,-0.5"/>
<text text-anchor="middle" x="282" y="-7.5" font-family="Helvetica,sans-Serif" font-size="10.00">config&#45;features.hpp</text>
</a>
</g>
</g>
<!-- Node9&#45;&gt;Node12 -->
<g id="edge11" class="edge"><title>Node9&#45;&gt;Node12</title>
<path fill="none" stroke="midnightblue" d="M175.124,-56.4435C196.024,-47.5566 228.935,-33.5632 252.716,-23.4514"/>
<polygon fill="midnightblue" stroke="midnightblue" points="254.138,-26.6504 261.971,-19.5164 251.398,-20.2085 254.138,-26.6504"/>
</g>
<!-- Node13&#45;&gt;Node9 -->
<g id="edge13" class="edge"><title>Node13&#45;&gt;Node9</title>
<path fill="none" stroke="midnightblue" d="M155,-112.083C155,-105.006 155,-94.8611 155,-85.9865"/>
<polygon fill="midnightblue" stroke="midnightblue" points="158.5,-85.751 155,-75.7511 151.5,-85.7511 158.5,-85.751"/>
</g>
<!-- Node14&#45;&gt;Node9 -->
<g id="edge15" class="edge"><title>Node14&#45;&gt;Node9</title>
<path fill="none" stroke="midnightblue" d="M242.291,-112.324C225.688,-103.703 199.998,-90.3643 180.78,-80.3855"/>
<polygon fill="midnightblue" stroke="midnightblue" points="182.156,-77.1565 171.668,-75.6545 178.93,-83.3689 182.156,-77.1565"/>
</g>
<!-- Node15&#45;&gt;Node9 -->
<g id="edge17" class="edge"><title>Node15&#45;&gt;Node9</title>
<path fill="none" stroke="midnightblue" d="M677.444,-113.175C674.251,-112.758 671.083,-112.362 668,-112 494.79,-91.6433 287.685,-76.1814 198.912,-69.9745"/>
<polygon fill="midnightblue" stroke="midnightblue" points="198.901,-66.4654 188.682,-69.2637 198.416,-73.4486 198.901,-66.4654"/>
</g>
<!-- Node16 -->
<g id="node16" class="node"><title>Node16</title>
<polygon fill="none" stroke="#bfbfbf" points="763,-56.5 763,-75.5 807,-75.5 807,-56.5 763,-56.5"/>
<text text-anchor="middle" x="785" y="-63.5" font-family="Helvetica,sans-Serif" font-size="10.00">string</text>
</g>
<!-- Node15&#45;&gt;Node16 -->
<g id="edge18" class="edge"><title>Node15&#45;&gt;Node16</title>
<path fill="none" stroke="midnightblue" d="M737.997,-112.324C746.194,-104.42 758.506,-92.5482 768.472,-82.9377"/>
<polygon fill="midnightblue" stroke="midnightblue" points="771.07,-85.2947 775.839,-75.8339 766.211,-80.2558 771.07,-85.2947"/>
</g>
<!-- Node17 -->
<g id="node17" class="node"><title>Node17</title>
<polygon fill="none" stroke="#bfbfbf" points="639,-56.5 639,-75.5 695,-75.5 695,-56.5 639,-56.5"/>
<text text-anchor="middle" x="667" y="-63.5" font-family="Helvetica,sans-Serif" font-size="10.00">sstream</text>
</g>
<!-- Node15&#45;&gt;Node17 -->
<g id="edge19" class="edge"><title>Node15&#45;&gt;Node17</title>
<path fill="none" stroke="midnightblue" d="M719.039,-112.324C709.873,-104.341 696.063,-92.3128 684.972,-82.6529"/>
<polygon fill="midnightblue" stroke="midnightblue" points="686.982,-79.7624 677.143,-75.8339 682.385,-85.041 686.982,-79.7624"/>
</g>
<!-- Node18 -->
<g id="node18" class="node"><title>Node18</title>
<polygon fill="none" stroke="#bfbfbf" points="713,-56.5 713,-75.5 745,-75.5 745,-56.5 713,-56.5"/>
<text text-anchor="middle" x="729" y="-63.5" font-family="Helvetica,sans-Serif" font-size="10.00">list</text>
</g>
<!-- Node15&#45;&gt;Node18 -->
<g id="edge20" class="edge"><title>Node15&#45;&gt;Node18</title>
<path fill="none" stroke="midnightblue" d="M729,-112.083C729,-105.006 729,-94.8611 729,-85.9865"/>
<polygon fill="midnightblue" stroke="midnightblue" points="732.5,-85.751 729,-75.7511 725.5,-85.7511 732.5,-85.751"/>
</g>
<!-- Node22&#45;&gt;Node3 -->
<g id="edge26" class="edge"><title>Node22&#45;&gt;Node3</title>
<path fill="none" stroke="midnightblue" d="M358.44,-280.444C332.477,-271.399 291.332,-257.064 262.203,-246.916"/>
<polygon fill="midnightblue" stroke="midnightblue" points="263.04,-243.501 252.445,-243.516 260.737,-250.112 263.04,-243.501"/>
</g>
<!-- Node23 -->
<g id="node23" class="node"><title>Node23</title>
<g id="a_node23"><a xlink:href="random_8hpp.html" target="_top" xlink:title="A random generator. ">
<polygon fill="none" stroke="black" points="432.5,-224.5 432.5,-243.5 507.5,-243.5 507.5,-224.5 432.5,-224.5"/>
<text text-anchor="middle" x="470" y="-231.5" font-family="Helvetica,sans-Serif" font-size="10.00">random.hpp</text>
</a>
</g>
</g>
<!-- Node22&#45;&gt;Node23 -->
<g id="edge27" class="edge"><title>Node22&#45;&gt;Node23</title>
<path fill="none" stroke="midnightblue" d="M396.978,-280.324C410.55,-271.9 431.38,-258.971 447.325,-249.074"/>
<polygon fill="midnightblue" stroke="midnightblue" points="449.406,-251.902 456.057,-243.655 445.714,-245.954 449.406,-251.902"/>
</g>
<!-- Node24 -->
<g id="node24" class="node"><title>Node24</title>
<g id="a_node24"><a xlink:href="topology_8hpp.html" target="_top" xlink:title="This file contains functions for handling the system topology. ">
<polygon fill="none" stroke="black" points="335.5,-224.5 335.5,-243.5 414.5,-243.5 414.5,-224.5 335.5,-224.5"/>
<text text-anchor="middle" x="375" y="-231.5" font-family="Helvetica,sans-Serif" font-size="10.00">topology.hpp</text>
</a>
</g>
</g>
<!-- Node22&#45;&gt;Node24 -->
<g id="edge29" class="edge"><title>Node22&#45;&gt;Node24</title>
<path fill="none" stroke="midnightblue" d="M381.679,-280.083C380.619,-272.927 379.094,-262.635 377.769,-253.691"/>
<polygon fill="midnightblue" stroke="midnightblue" points="381.224,-253.13 376.296,-243.751 374.3,-254.156 381.224,-253.13"/>
</g>
<!-- Node25 -->
<g id="node25" class="node"><title>Node25</title>
<g id="a_node25"><a xlink:href="mpi_8h.html" target="_top" xlink:title="This is the MPIfake implementation. ">
<polygon fill="none" stroke="black" points="564,-224.5 564,-243.5 608,-243.5 608,-224.5 564,-224.5"/>
<text text-anchor="middle" x="586" y="-231.5" font-family="Helvetica,sans-Serif" font-size="10.00">mpi.h</text>
</a>
</g>
</g>
<!-- Node22&#45;&gt;Node25 -->
<g id="edge31" class="edge"><title>Node22&#45;&gt;Node25</title>
<path fill="none" stroke="midnightblue" d="M415.166,-280.444C453.181,-270.331 516.051,-253.607 553.995,-243.514"/>
<polygon fill="midnightblue" stroke="midnightblue" points="555.231,-246.807 563.995,-240.854 553.431,-240.042 555.231,-246.807"/>
</g>
<!-- Node29 -->
<g id="node29" class="node"><title>Node29</title>
<g id="a_node29"><a xlink:href="cuda__init_8hpp.html" target="_top" xlink:title="cuda_init.hpp">
<polygon fill="none" stroke="black" points="0,-168.5 0,-187.5 82,-187.5 82,-168.5 0,-168.5"/>
<text text-anchor="middle" x="41" y="-175.5" font-family="Helvetica,sans-Serif" font-size="10.00">cuda_init.hpp</text>
</a>
</g>
</g>
<!-- Node22&#45;&gt;Node29 -->
<g id="edge35" class="edge"><title>Node22&#45;&gt;Node29</title>
<path fill="none" stroke="midnightblue" d="M373.43,-280.483C357.005,-266.36 321.84,-238.242 287,-224 222.894,-197.795 143.169,-186.775 92.1769,-182.191"/>
<polygon fill="midnightblue" stroke="midnightblue" points="92.3217,-178.691 82.0615,-181.332 91.7295,-185.666 92.3217,-178.691"/>
</g>
<!-- Node23&#45;&gt;Node4 -->
<g id="edge28" class="edge"><title>Node23&#45;&gt;Node4</title>
<path fill="none" stroke="midnightblue" d="M454.415,-224.324C439.001,-215.743 415.188,-202.486 397.29,-192.522"/>
<polygon fill="midnightblue" stroke="midnightblue" points="398.986,-189.461 388.546,-187.655 395.581,-195.577 398.986,-189.461"/>
</g>
<!-- Node24&#45;&gt;Node4 -->
<g id="edge30" class="edge"><title>Node24&#45;&gt;Node4</title>
<path fill="none" stroke="midnightblue" d="M374.67,-224.083C374.408,-217.006 374.032,-206.861 373.703,-197.986"/>
<polygon fill="midnightblue" stroke="midnightblue" points="377.192,-197.615 373.324,-187.751 370.197,-197.874 377.192,-197.615"/>
</g>
<!-- Node26 -->
<g id="node26" class="node"><title>Node26</title>
<polygon fill="none" stroke="#bfbfbf" points="491.5,-168.5 491.5,-187.5 544.5,-187.5 544.5,-168.5 491.5,-168.5"/>
<text text-anchor="middle" x="518" y="-175.5" font-family="Helvetica,sans-Serif" font-size="10.00">string.h</text>
</g>
<!-- Node25&#45;&gt;Node26 -->
<g id="edge32" class="edge"><title>Node25&#45;&gt;Node26</title>
<path fill="none" stroke="midnightblue" d="M575.075,-224.324C564.825,-216.185 549.279,-203.839 536.999,-194.087"/>
<polygon fill="midnightblue" stroke="midnightblue" points="539.132,-191.312 529.124,-187.834 534.779,-196.794 539.132,-191.312"/>
</g>
<!-- Node27 -->
<g id="node27" class="node"><title>Node27</title>
<polygon fill="none" stroke="#bfbfbf" points="563,-168.5 563,-187.5 613,-187.5 613,-168.5 563,-168.5"/>
<text text-anchor="middle" x="588" y="-175.5" font-family="Helvetica,sans-Serif" font-size="10.00">stdio.h</text>
</g>
<!-- Node25&#45;&gt;Node27 -->
<g id="edge33" class="edge"><title>Node25&#45;&gt;Node27</title>
<path fill="none" stroke="midnightblue" d="M586.33,-224.083C586.592,-217.006 586.968,-206.861 587.297,-197.986"/>
<polygon fill="midnightblue" stroke="midnightblue" points="590.803,-197.874 587.676,-187.751 583.808,-197.615 590.803,-197.874"/>
</g>
<!-- Node28 -->
<g id="node28" class="node"><title>Node28</title>
<polygon fill="none" stroke="#bfbfbf" points="420.5,-168.5 420.5,-187.5 473.5,-187.5 473.5,-168.5 420.5,-168.5"/>
<text text-anchor="middle" x="447" y="-175.5" font-family="Helvetica,sans-Serif" font-size="10.00">stdlib.h</text>
</g>
<!-- Node25&#45;&gt;Node28 -->
<g id="edge34" class="edge"><title>Node25&#45;&gt;Node28</title>
<path fill="none" stroke="midnightblue" d="M563.975,-224.444C540.896,-215.478 504.438,-201.314 478.359,-191.183"/>
<polygon fill="midnightblue" stroke="midnightblue" points="479.511,-187.875 468.922,-187.516 476.976,-194.4 479.511,-187.875"/>
</g>
<!-- Node29&#45;&gt;Node9 -->
<g id="edge36" class="edge"><title>Node29&#45;&gt;Node9</title>
<path fill="none" stroke="midnightblue" d="M30.8884,-168.488C16.7604,-155.559 -5.69753,-130.518 8,-112 31.5177,-80.2058 77.0572,-70.1411 111.248,-67.3032"/>
<polygon fill="midnightblue" stroke="midnightblue" points="111.706,-70.7809 121.457,-66.6384 111.251,-63.7957 111.706,-70.7809"/>
</g>
<!-- Node29&#45;&gt;Node19 -->
<g id="edge37" class="edge"><title>Node29&#45;&gt;Node19</title>
<path fill="none" stroke="midnightblue" d="M41,-168.083C41,-161.006 41,-150.861 41,-141.986"/>
<polygon fill="midnightblue" stroke="midnightblue" points="44.5001,-141.751 41,-131.751 37.5001,-141.751 44.5001,-141.751"/>
</g>
<!-- Node30&#45;&gt;Node4 -->
<g id="edge40" class="edge"><title>Node30&#45;&gt;Node4</title>
<path fill="none" stroke="midnightblue" d="M537.342,-336.431C540.225,-314.725 544.612,-256.963 516,-224 509.001,-215.937 452.22,-199.721 412.353,-189.118"/>
<polygon fill="midnightblue" stroke="midnightblue" points="413.184,-185.717 402.622,-186.551 411.399,-192.486 413.184,-185.717"/>
</g>
<!-- Node30&#45;&gt;Node15 -->
<g id="edge43" class="edge"><title>Node30&#45;&gt;Node15</title>
<path fill="none" stroke="midnightblue" d="M543.566,-336.297C572.445,-303.079 676.04,-183.918 714.496,-139.684"/>
<polygon fill="midnightblue" stroke="midnightblue" points="717.357,-141.727 721.277,-131.884 712.074,-137.134 717.357,-141.727"/>
</g>
<!-- Node30&#45;&gt;Node22 -->
<g id="edge42" class="edge"><title>Node30&#45;&gt;Node22</title>
<path fill="none" stroke="midnightblue" d="M511.757,-336.444C486.129,-327.399 445.515,-313.064 416.762,-302.916"/>
<polygon fill="midnightblue" stroke="midnightblue" points="417.725,-299.544 407.13,-299.516 415.395,-306.145 417.725,-299.544"/>
</g>
<!-- Node31 -->
<g id="node31" class="node"><title>Node31</title>
<polygon fill="none" stroke="#bfbfbf" points="458,-280.5 458,-299.5 508,-299.5 508,-280.5 458,-280.5"/>
<text text-anchor="middle" x="483" y="-287.5" font-family="Helvetica,sans-Serif" font-size="10.00">climits</text>
</g>
<!-- Node30&#45;&gt;Node31 -->
<g id="edge41" class="edge"><title>Node30&#45;&gt;Node31</title>
<path fill="none" stroke="midnightblue" d="M527.248,-336.083C519.53,-328.22 508.095,-316.569 498.783,-307.081"/>
<polygon fill="midnightblue" stroke="midnightblue" points="501.092,-304.436 491.589,-299.751 496.096,-309.34 501.092,-304.436"/>
</g>
</g>
</svg>
        <g id="navigator" transform="translate(0 0)" fill="#404254">
                <rect fill="#f2f5e9" fill-opacity="0.5" stroke="#606060" stroke-width=".5" x="0" y="0" width="60" height="60"/>
                <use id="zoomplus" xlink:href="#zoomPlus" x="17" y="9" onmousedown="handleZoom(evt,'in')"/>
                <use id="zoomminus" xlink:href="#zoomMin" x="42" y="9" onmousedown="handleZoom(evt,'out')"/>
                <use id="reset" xlink:href="#resetDef" x="30" y="36" onmousedown="handleReset()"/>
                <g id="arrowUp" xlink:href="#dirArrow" transform="translate(30 24)" onmousedown="handlePan(0,-1)">
                  <use xlink:href="#rim" fill="#404040">
                        <set attributeName="fill" to="#808080" begin="arrowUp.mouseover" end="arrowUp.mouseout"/>
                  </use>
                  <path fill="none" stroke="white" stroke-width="1.5" d="M0,-3.0v7 M-2.5,-0.5L0,-3.0L2.5,-0.5"/>
                </g>
                <g id="arrowRight" xlink:href="#dirArrow" transform="rotate(90) translate(36 -43)" onmousedown="handlePan(1,0)">
                  <use xlink:href="#rim" fill="#404040">
                        <set attributeName="fill" to="#808080" begin="arrowRight.mouseover" end="arrowRight.mouseout"/>
                  </use>
                  <path fill="none" stroke="white" stroke-width="1.5" d="M0,-3.0v7 M-2.5,-0.5L0,-3.0L2.5,-0.5"/>
                </g>
                <g id="arrowDown" xlink:href="#dirArrow" transform="rotate(180) translate(-30 -48)" onmousedown="handlePan(0,1)">
                  <use xlink:href="#rim" fill="#404040">
                        <set attributeName="fill" to="#808080" begin="arrowDown.mouseover" end="arrowDown.mouseout"/>
                  </use>
                  <path fill="none" stroke="white" stroke-width="1.5" d="M0,-3.0v7 M-2.5,-0.5L0,-3.0L2.5,-0.5"/>
                </g>
                <g id="arrowLeft" xlink:href="#dirArrow" transform="rotate(270) translate(-36 17)" onmousedown="handlePan(-1,0)">
                  <use xlink:href="#rim" fill="#404040">
                        <set attributeName="fill" to="#808080" begin="arrowLeft.mouseover" end="arrowLeft.mouseout"/>
                  </use>
                  <path fill="none" stroke="white" stroke-width="1.5" d="M0,-3.0v7 M-2.5,-0.5L0,-3.0L2.5,-0.5"/>
                </g>
        </g>
        <svg viewBox="0 0 15 15" width="100%" height="30px" preserveAspectRatio="xMaxYMin meet">
         <g id="arrow_out" transform="scale(0.3 0.3)">
          <a xlink:href="nemd_8cpp__incl_org.svg" target="_base">
           <rect id="button" ry="5" rx="5" y="6" x="6" height="38" width="38"
                fill="#f2f5e9" fill-opacity="0.5" stroke="#606060" stroke-width="1.0"/>
           <path id="arrow"
             d="M 11.500037,31.436501 C 11.940474,20.09759 22.043105,11.32322 32.158766,21.979434 L 37.068811,17.246167 C 37.068811,17.246167 37.088388,32 37.088388,32 L 22.160133,31.978069 C 22.160133,31.978069 26.997745,27.140456 26.997745,27.140456 C 18.528582,18.264221 13.291696,25.230495 11.500037,31.436501 z"
             style="fill:#404040;"/>
          </a>
         </g>
        </svg>
</svg>
