<?xml version="1.0" encoding="UTF-8" standalone="no"?>
<!DOCTYPE svg PUBLIC "-//W3C//DTD SVG 1.1//EN"
 "http://www.w3.org/Graphics/SVG/1.1/DTD/svg11.dtd">
<!-- Generated by graphviz version 2.38.0 (20140413.2041)
 -->
<!-- Title: nsquare.hpp Pages: 1 -->
<svg width="771pt" height="420pt"
 viewBox="0.00 0.00 771.00 420.00" xmlns="http://www.w3.org/2000/svg" xmlns:xlink="http://www.w3.org/1999/xlink">
<g id="graph0" class="graph" transform="scale(1 1) rotate(0) translate(4 416)">
<title>nsquare.hpp</title>
<!-- Node1 -->
<g id="node1" class="node"><title>Node1</title>
<polygon fill="#bfbfbf" stroke="black" points="284,-392.5 284,-411.5 361,-411.5 361,-392.5 284,-392.5"/>
<text text-anchor="middle" x="322.5" y="-399.5" font-family="Helvetica,sans-Serif" font-size="10.00">nsquare.hpp</text>
</g>
<!-- Node2 -->
<g id="node2" class="node"><title>Node2</title>
<g id="a_node2"><a xlink:href="cells_8hpp.html" target="_top" xlink:title="This file contains everything related to the cell structure / cell system. ">
<polygon fill="none" stroke="black" points="292.5,-336.5 292.5,-355.5 352.5,-355.5 352.5,-336.5 292.5,-336.5"/>
<text text-anchor="middle" x="322.5" y="-343.5" font-family="Helvetica,sans-Serif" font-size="10.00">cells.hpp</text>
</a>
</g>
</g>
<!-- Node1&#45;&gt;Node2 -->
<g id="edge1" class="edge"><title>Node1&#45;&gt;Node2</title>
<path fill="none" stroke="midnightblue" d="M322.5,-392.083C322.5,-385.006 322.5,-374.861 322.5,-365.986"/>
<polygon fill="midnightblue" stroke="midnightblue" points="326,-365.751 322.5,-355.751 319,-365.751 326,-365.751"/>
</g>
<!-- Node3 -->
<g id="node3" class="node"><title>Node3</title>
<g id="a_node3"><a xlink:href="particle__data_8hpp.html" target="_top" xlink:title="For more information on particle_data, see particle_data.c. ">
<polygon fill="none" stroke="black" points="264,-224.5 264,-243.5 365,-243.5 365,-224.5 264,-224.5"/>
<text text-anchor="middle" x="314.5" y="-231.5" font-family="Helvetica,sans-Serif" font-size="10.00">particle_data.hpp</text>
</a>
</g>
</g>
<!-- Node2&#45;&gt;Node3 -->
<g id="edge2" class="edge"><title>Node2&#45;&gt;Node3</title>
<path fill="none" stroke="midnightblue" d="M310.286,-336.236C300.146,-328.143 286.457,-315.112 280.5,-300 273.616,-282.535 285.932,-263.632 297.62,-250.738"/>
<polygon fill="midnightblue" stroke="midnightblue" points="300.155,-253.151 304.639,-243.552 295.148,-248.26 300.155,-253.151"/>
</g>
<!-- Node21 -->
<g id="node21" class="node"><title>Node21</title>
<g id="a_node21"><a xlink:href="ghosts_8hpp.html" target="_top" xlink:title="Ghost particles and particle exchange. ">
<polygon fill="none" stroke="black" points="373.5,-280.5 373.5,-299.5 443.5,-299.5 443.5,-280.5 373.5,-280.5"/>
<text text-anchor="middle" x="408.5" y="-287.5" font-family="Helvetica,sans-Serif" font-size="10.00">ghosts.hpp</text>
</a>
</g>
</g>
<!-- Node2&#45;&gt;Node21 -->
<g id="edge23" class="edge"><title>Node2&#45;&gt;Node21</title>
<path fill="none" stroke="midnightblue" d="M336.317,-336.324C349.733,-327.9 370.324,-314.971 386.086,-305.074"/>
<polygon fill="midnightblue" stroke="midnightblue" points="388.109,-307.936 394.717,-299.655 384.387,-302.008 388.109,-307.936"/>
</g>
<!-- Node26 -->
<g id="node26" class="node"><title>Node26</title>
<g id="a_node26"><a xlink:href="verlet_8hpp.html" target="_top" xlink:title="This file contains routines to setup and handle interaction pair lists (verlet pair lists) for the no...">
<polygon fill="none" stroke="black" points="289.5,-280.5 289.5,-299.5 355.5,-299.5 355.5,-280.5 289.5,-280.5"/>
<text text-anchor="middle" x="322.5" y="-287.5" font-family="Helvetica,sans-Serif" font-size="10.00">verlet.hpp</text>
</a>
</g>
</g>
<!-- Node2&#45;&gt;Node26 -->
<g id="edge29" class="edge"><title>Node2&#45;&gt;Node26</title>
<path fill="none" stroke="midnightblue" d="M322.5,-336.083C322.5,-329.006 322.5,-318.861 322.5,-309.986"/>
<polygon fill="midnightblue" stroke="midnightblue" points="326,-309.751 322.5,-299.751 319,-309.751 326,-309.751"/>
</g>
<!-- Node4 -->
<g id="node4" class="node"><title>Node4</title>
<g id="a_node4"><a xlink:href="utils_8hpp.html" target="_top" xlink:title="Small functions that are useful not only for one modul. ">
<polygon fill="none" stroke="black" points="277,-168.5 277,-187.5 336,-187.5 336,-168.5 277,-168.5"/>
<text text-anchor="middle" x="306.5" y="-175.5" font-family="Helvetica,sans-Serif" font-size="10.00">utils.hpp</text>
</a>
</g>
</g>
<!-- Node3&#45;&gt;Node4 -->
<g id="edge3" class="edge"><title>Node3&#45;&gt;Node4</title>
<path fill="none" stroke="midnightblue" d="M313.179,-224.083C312.119,-216.927 310.594,-206.635 309.269,-197.691"/>
<polygon fill="midnightblue" stroke="midnightblue" points="312.724,-197.13 307.796,-187.751 305.8,-198.156 312.724,-197.13"/>
</g>
<!-- Node5 -->
<g id="node5" class="node"><title>Node5</title>
<polygon fill="none" stroke="#bfbfbf" points="0,-112.5 0,-131.5 47,-131.5 47,-112.5 0,-112.5"/>
<text text-anchor="middle" x="23.5" y="-119.5" font-family="Helvetica,sans-Serif" font-size="10.00">cmath</text>
</g>
<!-- Node4&#45;&gt;Node5 -->
<g id="edge4" class="edge"><title>Node4&#45;&gt;Node5</title>
<path fill="none" stroke="midnightblue" d="M276.697,-172.507C231.404,-165.491 142.363,-150.963 57.0721,-131.958"/>
<polygon fill="midnightblue" stroke="midnightblue" points="57.7551,-128.524 47.2303,-129.741 56.2167,-135.353 57.7551,-128.524"/>
</g>
<!-- Node6 -->
<g id="node6" class="node"><title>Node6</title>
<polygon fill="none" stroke="#bfbfbf" points="65.5,-112.5 65.5,-131.5 111.5,-131.5 111.5,-112.5 65.5,-112.5"/>
<text text-anchor="middle" x="88.5" y="-119.5" font-family="Helvetica,sans-Serif" font-size="10.00">cstdio</text>
</g>
<!-- Node4&#45;&gt;Node6 -->
<g id="edge5" class="edge"><title>Node4&#45;&gt;Node6</title>
<path fill="none" stroke="midnightblue" d="M276.779,-170.165C241.857,-162.056 181.946,-147.904 121.283,-132.135"/>
<polygon fill="midnightblue" stroke="midnightblue" points="122.104,-128.732 111.544,-129.591 120.335,-135.505 122.104,-128.732"/>
</g>
<!-- Node7 -->
<g id="node7" class="node"><title>Node7</title>
<polygon fill="none" stroke="#bfbfbf" points="130,-112.5 130,-131.5 179,-131.5 179,-112.5 130,-112.5"/>
<text text-anchor="middle" x="154.5" y="-119.5" font-family="Helvetica,sans-Serif" font-size="10.00">cstdlib</text>
</g>
<!-- Node4&#45;&gt;Node7 -->
<g id="edge6" class="edge"><title>Node4&#45;&gt;Node7</title>
<path fill="none" stroke="midnightblue" d="M282.415,-168.444C256.955,-159.399 216.606,-145.064 188.041,-134.916"/>
<polygon fill="midnightblue" stroke="midnightblue" points="189.067,-131.566 178.472,-131.516 186.723,-138.162 189.067,-131.566"/>
</g>
<!-- Node8 -->
<g id="node8" class="node"><title>Node8</title>
<polygon fill="none" stroke="#bfbfbf" points="197.5,-112.5 197.5,-131.5 247.5,-131.5 247.5,-112.5 197.5,-112.5"/>
<text text-anchor="middle" x="222.5" y="-119.5" font-family="Helvetica,sans-Serif" font-size="10.00">cstring</text>
</g>
<!-- Node4&#45;&gt;Node8 -->
<g id="edge7" class="edge"><title>Node4&#45;&gt;Node8</title>
<path fill="none" stroke="midnightblue" d="M293.004,-168.324C279.9,-159.9 259.788,-146.971 244.393,-137.074"/>
<polygon fill="midnightblue" stroke="midnightblue" points="246.267,-134.118 235.963,-131.655 242.482,-140.006 246.267,-134.118"/>
</g>
<!-- Node9 -->
<g id="node9" class="node"><title>Node9</title>
<g id="a_node9"><a xlink:href="config_8hpp.html" target="_top" xlink:title="This file contains the defaults for Espresso. ">
<polygon fill="none" stroke="black" points="346,-56.5 346,-75.5 413,-75.5 413,-56.5 346,-56.5"/>
<text text-anchor="middle" x="379.5" y="-63.5" font-family="Helvetica,sans-Serif" font-size="10.00">config.hpp</text>
</a>
</g>
</g>
<!-- Node4&#45;&gt;Node9 -->
<g id="edge8" class="edge"><title>Node4&#45;&gt;Node9</title>
<path fill="none" stroke="midnightblue" d="M301.371,-168.331C294.337,-155.197 283.727,-129.893 294.5,-112 303.787,-96.5744 320.333,-86.1596 336.374,-79.2713"/>
<polygon fill="midnightblue" stroke="midnightblue" points="337.67,-82.5224 345.701,-75.6119 335.114,-76.006 337.67,-82.5224"/>
</g>
<!-- Node13 -->
<g id="node13" class="node"><title>Node13</title>
<g id="a_node13"><a xlink:href="debug_8hpp.html" target="_top" xlink:title="This file controls debug facilities. ">
<polygon fill="none" stroke="black" points="303.5,-112.5 303.5,-131.5 371.5,-131.5 371.5,-112.5 303.5,-112.5"/>
<text text-anchor="middle" x="337.5" y="-119.5" font-family="Helvetica,sans-Serif" font-size="10.00">debug.hpp</text>
</a>
</g>
</g>
<!-- Node4&#45;&gt;Node13 -->
<g id="edge12" class="edge"><title>Node4&#45;&gt;Node13</title>
<path fill="none" stroke="midnightblue" d="M311.619,-168.083C315.908,-160.613 322.158,-149.724 327.442,-140.52"/>
<polygon fill="midnightblue" stroke="midnightblue" points="330.533,-142.166 332.476,-131.751 324.462,-138.681 330.533,-142.166"/>
</g>
<!-- Node14 -->
<g id="node14" class="node"><title>Node14</title>
<g id="a_node14"><a xlink:href="lees__edwards_8hpp.html" target="_top" xlink:title="lees_edwards.hpp">
<polygon fill="none" stroke="black" points="389.5,-112.5 389.5,-131.5 493.5,-131.5 493.5,-112.5 389.5,-112.5"/>
<text text-anchor="middle" x="441.5" y="-119.5" font-family="Helvetica,sans-Serif" font-size="10.00">lees_edwards.hpp</text>
</a>
</g>
</g>
<!-- Node4&#45;&gt;Node14 -->
<g id="edge14" class="edge"><title>Node4&#45;&gt;Node14</title>
<path fill="none" stroke="midnightblue" d="M327.891,-168.444C350.207,-159.517 385.403,-145.439 410.708,-135.317"/>
<polygon fill="midnightblue" stroke="midnightblue" points="412.224,-138.48 420.209,-131.516 409.624,-131.981 412.224,-138.48"/>
</g>
<!-- Node15 -->
<g id="node15" class="node"><title>Node15</title>
<g id="a_node15"><a xlink:href="errorhandling_8hpp.html" target="_top" xlink:title="This file contains the errorhandling code for severe errors, like a broken bond or illegal parameter ...">
<polygon fill="none" stroke="black" points="512,-112.5 512,-131.5 615,-131.5 615,-112.5 512,-112.5"/>
<text text-anchor="middle" x="563.5" y="-119.5" font-family="Helvetica,sans-Serif" font-size="10.00">errorhandling.hpp</text>
</a>
</g>
</g>
<!-- Node4&#45;&gt;Node15 -->
<g id="edge16" class="edge"><title>Node4&#45;&gt;Node15</title>
<path fill="none" stroke="midnightblue" d="M336.351,-169.841C339.104,-169.208 341.852,-168.585 344.5,-168 400.758,-155.561 465.404,-142.418 509.798,-133.569"/>
<polygon fill="midnightblue" stroke="midnightblue" points="510.664,-136.965 519.789,-131.582 509.299,-130.1 510.664,-136.965"/>
</g>
<!-- Node19 -->
<g id="node19" class="node"><title>Node19</title>
<polygon fill="none" stroke="#bfbfbf" points="633,-112.5 633,-131.5 680,-131.5 680,-112.5 633,-112.5"/>
<text text-anchor="middle" x="656.5" y="-119.5" font-family="Helvetica,sans-Serif" font-size="10.00">vector</text>
</g>
<!-- Node4&#45;&gt;Node19 -->
<g id="edge21" class="edge"><title>Node4&#45;&gt;Node19</title>
<path fill="none" stroke="midnightblue" d="M336.309,-169.63C339.07,-169.041 341.832,-168.487 344.5,-168 464.375,-146.132 499.144,-155.973 622.94,-131.84"/>
<polygon fill="midnightblue" stroke="midnightblue" points="623.673,-135.263 632.8,-129.884 622.31,-128.397 623.673,-135.263"/>
</g>
<!-- Node20 -->
<g id="node20" class="node"><title>Node20</title>
<polygon fill="none" stroke="#bfbfbf" points="698,-112.5 698,-131.5 763,-131.5 763,-112.5 698,-112.5"/>
<text text-anchor="middle" x="730.5" y="-119.5" font-family="Helvetica,sans-Serif" font-size="10.00">exception</text>
</g>
<!-- Node4&#45;&gt;Node20 -->
<g id="edge22" class="edge"><title>Node4&#45;&gt;Node20</title>
<path fill="none" stroke="midnightblue" d="M336.297,-169.561C339.061,-168.987 341.826,-168.455 344.5,-168 492.793,-142.787 534.886,-155.56 687.343,-132.013"/>
<polygon fill="midnightblue" stroke="midnightblue" points="688.212,-135.42 697.547,-130.409 687.125,-128.505 688.212,-135.42"/>
</g>
<!-- Node10 -->
<g id="node10" class="node"><title>Node10</title>
<g id="a_node10"><a xlink:href="acconfig_8hpp.html" target="_top" xlink:title="acconfig.hpp">
<polygon fill="none" stroke="black" points="229.5,-0.5 229.5,-19.5 307.5,-19.5 307.5,-0.5 229.5,-0.5"/>
<text text-anchor="middle" x="268.5" y="-7.5" font-family="Helvetica,sans-Serif" font-size="10.00">acconfig.hpp</text>
</a>
</g>
</g>
<!-- Node9&#45;&gt;Node10 -->
<g id="edge9" class="edge"><title>Node9&#45;&gt;Node10</title>
<path fill="none" stroke="midnightblue" d="M361.666,-56.324C343.784,-47.6247 316.025,-34.1202 295.454,-24.113"/>
<polygon fill="midnightblue" stroke="midnightblue" points="296.813,-20.8819 286.29,-19.6545 293.751,-27.1765 296.813,-20.8819"/>
</g>
<!-- Node11 -->
<g id="node11" class="node"><title>Node11</title>
<g id="a_node11"><a xlink:href="myconfig-final_8hpp.html" target="_top" xlink:title="myconfig&#45;final.hpp">
<polygon fill="none" stroke="black" points="326,-0.5 326,-19.5 433,-19.5 433,-0.5 326,-0.5"/>
<text text-anchor="middle" x="379.5" y="-7.5" font-family="Helvetica,sans-Serif" font-size="10.00">myconfig&#45;final.hpp</text>
</a>
</g>
</g>
<!-- Node9&#45;&gt;Node11 -->
<g id="edge10" class="edge"><title>Node9&#45;&gt;Node11</title>
<path fill="none" stroke="midnightblue" d="M379.5,-56.083C379.5,-49.0059 379.5,-38.8611 379.5,-29.9865"/>
<polygon fill="midnightblue" stroke="midnightblue" points="383,-29.751 379.5,-19.7511 376,-29.7511 383,-29.751"/>
</g>
<!-- Node12 -->
<g id="node12" class="node"><title>Node12</title>
<g id="a_node12"><a xlink:href="config-features_8hpp.html" target="_top" xlink:title="config&#45;features.hpp">
<polygon fill="none" stroke="black" points="451,-0.5 451,-19.5 562,-19.5 562,-0.5 451,-0.5"/>
<text text-anchor="middle" x="506.5" y="-7.5" font-family="Helvetica,sans-Serif" font-size="10.00">config&#45;features.hpp</text>
</a>
</g>
</g>
<!-- Node9&#45;&gt;Node12 -->
<g id="edge11" class="edge"><title>Node9&#45;&gt;Node12</title>
<path fill="none" stroke="midnightblue" d="M399.624,-56.4435C420.524,-47.5566 453.435,-33.5632 477.216,-23.4514"/>
<polygon fill="midnightblue" stroke="midnightblue" points="478.638,-26.6504 486.471,-19.5164 475.898,-20.2085 478.638,-26.6504"/>
</g>
<!-- Node13&#45;&gt;Node9 -->
<g id="edge13" class="edge"><title>Node13&#45;&gt;Node9</title>
<path fill="none" stroke="midnightblue" d="M344.435,-112.083C350.429,-104.377 359.252,-93.0333 366.548,-83.6531"/>
<polygon fill="midnightblue" stroke="midnightblue" points="369.317,-85.7934 372.694,-75.7511 363.791,-81.4958 369.317,-85.7934"/>
</g>
<!-- Node14&#45;&gt;Node9 -->
<g id="edge15" class="edge"><title>Node14&#45;&gt;Node9</title>
<path fill="none" stroke="midnightblue" d="M431.539,-112.324C422.373,-104.341 408.563,-92.3128 397.472,-82.6529"/>
<polygon fill="midnightblue" stroke="midnightblue" points="399.482,-79.7624 389.643,-75.8339 394.885,-85.041 399.482,-79.7624"/>
</g>
<!-- Node15&#45;&gt;Node9 -->
<g id="edge17" class="edge"><title>Node15&#45;&gt;Node9</title>
<path fill="none" stroke="midnightblue" d="M534.345,-112.444C502.987,-103.241 452.969,-88.5617 418.303,-78.3879"/>
<polygon fill="midnightblue" stroke="midnightblue" points="419.1,-74.9742 408.519,-75.5164 417.129,-81.6909 419.1,-74.9742"/>
</g>
<!-- Node16 -->
<g id="node16" class="node"><title>Node16</title>
<polygon fill="none" stroke="#bfbfbf" points="473.5,-56.5 473.5,-75.5 517.5,-75.5 517.5,-56.5 473.5,-56.5"/>
<text text-anchor="middle" x="495.5" y="-63.5" font-family="Helvetica,sans-Serif" font-size="10.00">string</text>
</g>
<!-- Node15&#45;&gt;Node16 -->
<g id="edge18" class="edge"><title>Node15&#45;&gt;Node16</title>
<path fill="none" stroke="midnightblue" d="M552.575,-112.324C542.325,-104.185 526.779,-91.8395 514.499,-82.0874"/>
<polygon fill="midnightblue" stroke="midnightblue" points="516.632,-79.3119 506.624,-75.8339 512.279,-84.7937 516.632,-79.3119"/>
</g>
<!-- Node17 -->
<g id="node17" class="node"><title>Node17</title>
<polygon fill="none" stroke="#bfbfbf" points="535.5,-56.5 535.5,-75.5 591.5,-75.5 591.5,-56.5 535.5,-56.5"/>
<text text-anchor="middle" x="563.5" y="-63.5" font-family="Helvetica,sans-Serif" font-size="10.00">sstream</text>
</g>
<!-- Node15&#45;&gt;Node17 -->
<g id="edge19" class="edge"><title>Node15&#45;&gt;Node17</title>
<path fill="none" stroke="midnightblue" d="M563.5,-112.083C563.5,-105.006 563.5,-94.8611 563.5,-85.9865"/>
<polygon fill="midnightblue" stroke="midnightblue" points="567,-85.751 563.5,-75.7511 560,-85.7511 567,-85.751"/>
</g>
<!-- Node18 -->
<g id="node18" class="node"><title>Node18</title>
<polygon fill="none" stroke="#bfbfbf" points="609.5,-56.5 609.5,-75.5 641.5,-75.5 641.5,-56.5 609.5,-56.5"/>
<text text-anchor="middle" x="625.5" y="-63.5" font-family="Helvetica,sans-Serif" font-size="10.00">list</text>
</g>
<!-- Node15&#45;&gt;Node18 -->
<g id="edge20" class="edge"><title>Node15&#45;&gt;Node18</title>
<path fill="none" stroke="midnightblue" d="M573.461,-112.324C582.627,-104.341 596.437,-92.3128 607.528,-82.6529"/>
<polygon fill="midnightblue" stroke="midnightblue" points="610.115,-85.041 615.357,-75.8339 605.518,-79.7624 610.115,-85.041"/>
</g>
<!-- Node21&#45;&gt;Node3 -->
<g id="edge28" class="edge"><title>Node21&#45;&gt;Node3</title>
<path fill="none" stroke="midnightblue" d="M393.397,-280.324C378.597,-271.822 355.806,-258.729 338.518,-248.797"/>
<polygon fill="midnightblue" stroke="midnightblue" points="339.98,-245.601 329.565,-243.655 336.493,-251.671 339.98,-245.601"/>
</g>
<!-- Node22 -->
<g id="node22" class="node"><title>Node22</title>
<g id="a_node22"><a xlink:href="mpi_8h.html" target="_top" xlink:title="This is the MPIfake implementation. ">
<polygon fill="none" stroke="black" points="402.5,-224.5 402.5,-243.5 446.5,-243.5 446.5,-224.5 402.5,-224.5"/>
<text text-anchor="middle" x="424.5" y="-231.5" font-family="Helvetica,sans-Serif" font-size="10.00">mpi.h</text>
</a>
</g>
</g>
<!-- Node21&#45;&gt;Node22 -->
<g id="edge24" class="edge"><title>Node21&#45;&gt;Node22</title>
<path fill="none" stroke="midnightblue" d="M411.142,-280.083C413.286,-272.849 416.379,-262.409 419.049,-253.397"/>
<polygon fill="midnightblue" stroke="midnightblue" points="422.422,-254.333 421.907,-243.751 415.71,-252.345 422.422,-254.333"/>
</g>
<!-- Node23 -->
<g id="node23" class="node"><title>Node23</title>
<polygon fill="none" stroke="#bfbfbf" points="354,-168.5 354,-187.5 407,-187.5 407,-168.5 354,-168.5"/>
<text text-anchor="middle" x="380.5" y="-175.5" font-family="Helvetica,sans-Serif" font-size="10.00">string.h</text>
</g>
<!-- Node22&#45;&gt;Node23 -->
<g id="edge25" class="edge"><title>Node22&#45;&gt;Node23</title>
<path fill="none" stroke="midnightblue" d="M417.234,-224.083C410.955,-216.377 401.712,-205.033 394.069,-195.653"/>
<polygon fill="midnightblue" stroke="midnightblue" points="396.661,-193.293 387.631,-187.751 391.234,-197.714 396.661,-193.293"/>
</g>
<!-- Node24 -->
<g id="node24" class="node"><title>Node24</title>
<polygon fill="none" stroke="#bfbfbf" points="425.5,-168.5 425.5,-187.5 475.5,-187.5 475.5,-168.5 425.5,-168.5"/>
<text text-anchor="middle" x="450.5" y="-175.5" font-family="Helvetica,sans-Serif" font-size="10.00">stdio.h</text>
</g>
<!-- Node22&#45;&gt;Node24 -->
<g id="edge26" class="edge"><title>Node22&#45;&gt;Node24</title>
<path fill="none" stroke="midnightblue" d="M428.793,-224.083C432.352,-216.691 437.522,-205.953 441.924,-196.811"/>
<polygon fill="midnightblue" stroke="midnightblue" points="445.102,-198.279 446.287,-187.751 438.795,-195.243 445.102,-198.279"/>
</g>
<!-- Node25 -->
<g id="node25" class="node"><title>Node25</title>
<polygon fill="none" stroke="#bfbfbf" points="494,-168.5 494,-187.5 547,-187.5 547,-168.5 494,-168.5"/>
<text text-anchor="middle" x="520.5" y="-175.5" font-family="Helvetica,sans-Serif" font-size="10.00">stdlib.h</text>
</g>
<!-- Node22&#45;&gt;Node25 -->
<g id="edge27" class="edge"><title>Node22&#45;&gt;Node25</title>
<path fill="none" stroke="midnightblue" d="M439.924,-224.324C455.04,-215.822 478.315,-202.729 495.971,-192.797"/>
<polygon fill="midnightblue" stroke="midnightblue" points="498.114,-195.608 505.114,-187.655 494.683,-189.507 498.114,-195.608"/>
</g>
<!-- Node26&#45;&gt;Node3 -->
<g id="edge30" class="edge"><title>Node26&#45;&gt;Node3</title>
<path fill="none" stroke="midnightblue" d="M321.179,-280.083C320.119,-272.927 318.594,-262.635 317.269,-253.691"/>
<polygon fill="midnightblue" stroke="midnightblue" points="320.724,-253.13 315.796,-243.751 313.8,-254.156 320.724,-253.13"/>
</g>
</g>
</svg>
