<?xml version="1.0" encoding="UTF-8" standalone="no"?>
<!DOCTYPE svg PUBLIC "-//W3C//DTD SVG 1.1//EN"
 "http://www.w3.org/Graphics/SVG/1.1/DTD/svg11.dtd">
<!-- Generated by graphviz version 2.38.0 (20140413.2041)
 -->
<!-- Title: nsquare.hpp Pages: 1 -->
<!--zoomable 330 -->
<svg id="main" version="1.1" xmlns="http://www.w3.org/2000/svg" xmlns:xlink="http://www.w3.org/1999/xlink" xml:space="preserve" onload="init(evt)">
<style type="text/css"><![CDATA[
.edge:hover path { stroke: red; }
.edge:hover polygon { stroke: red; fill: red; }
]]></style>
<script type="text/javascript"><![CDATA[
var edges = document.getElementsByTagName('g');
if (edges && edges.length) {
  for (var i=0;i<edges.length;i++) {
    if (edges[i].id.substr(0,4)=='edge') {
      edges[i].setAttribute('class','edge');
    }
  }
}
]]></script>
        <defs>
                <circle id="rim" cx="0" cy="0" r="7"/>
                <circle id="rim2" cx="0" cy="0" r="3.5"/>
                <g id="zoomPlus">
                        <use xlink:href="#rim" fill="#404040">
                                <set attributeName="fill" to="#808080" begin="zoomplus.mouseover" end="zoomplus.mouseout"/>
                        </use>
                        <path d="M-4,0h8M0,-4v8" fill="none" stroke="white" stroke-width="1.5" pointer-events="none"/>
                </g>
                <g id="zoomMin">
                        <use xlink:href="#rim" fill="#404040">
                                <set attributeName="fill" to="#808080" begin="zoomminus.mouseover" end="zoomminus.mouseout"/>
                        </use>
                        <path d="M-4,0h8" fill="none" stroke="white" stroke-width="1.5" pointer-events="none"/>
                </g>
                <g id="dirArrow">
                        <path fill="none" stroke="white" stroke-width="1.5" d="M0,-3.0v7 M-2.5,-0.5L0,-3.0L2.5,-0.5"/>
                </g>
               <g id="resetDef">
                       <use xlink:href="#rim2" fill="#404040">
                               <set attributeName="fill" to="#808080" begin="reset.mouseover" end="reset.mouseout"/>
                       </use>
               </g>
        </defs>

<script type="text/javascript">
var viewWidth = 2471;
var viewHeight = 330;
var sectionId = 'dynsection-1';
</script>
<script xlink:href="svgpan.js"/>
<svg id="graph" class="graph">
<g id="viewport">
<title>nsquare.hpp</title>
<!-- Node1 -->
<g id="node1" class="node"><title>Node1</title>
<polygon fill="#bfbfbf" stroke="black" points="1065,-302.5 1065,-321.5 1142,-321.5 1142,-302.5 1065,-302.5"/>
<text text-anchor="middle" x="1103.5" y="-309.5" font-family="Helvetica,sans-Serif" font-size="10.00">nsquare.hpp</text>
</g>
<!-- Node2 -->
<g id="node2" class="node"><title>Node2</title>
<g id="a_node2"><a xlink:href="cells_8cpp.html" target="_top" xlink:title="This file contains functions for the cell system. ">
<polygon fill="none" stroke="black" points="102,-246.5 102,-265.5 161,-265.5 161,-246.5 102,-246.5"/>
<text text-anchor="middle" x="131.5" y="-253.5" font-family="Helvetica,sans-Serif" font-size="10.00">cells.cpp</text>
</a>
</g>
</g>
<!-- Node1&#45;&gt;Node2 -->
<g id="edge1" class="edge"><title>Node1&#45;&gt;Node2</title>
<path fill="none" stroke="midnightblue" d="M1054.59,-311.261C916.108,-311.433 509.679,-308.028 175.5,-266 170.858,-265.416 165.975,-264.612 161.219,-263.722"/>
<polygon fill="midnightblue" stroke="midnightblue" points="1054.87,-314.76 1064.86,-311.241 1054.86,-307.76 1054.87,-314.76"/>
</g>
<!-- Node3 -->
<g id="node3" class="node"><title>Node3</title>
<g id="a_node3"><a xlink:href="iccp3m_8hpp.html" target="_top" xlink:title="ICCP3M is a method that allows to take into account the influence of arbitrarliy shaped dielectric in...">
<polygon fill="none" stroke="black" points="1067,-246.5 1067,-265.5 1140,-265.5 1140,-246.5 1067,-246.5"/>
<text text-anchor="middle" x="1103.5" y="-253.5" font-family="Helvetica,sans-Serif" font-size="10.00">iccp3m.hpp</text>
</a>
</g>
</g>
<!-- Node1&#45;&gt;Node3 -->
<g id="edge2" class="edge"><title>Node1&#45;&gt;Node3</title>
<path fill="none" stroke="midnightblue" d="M1103.5,-291.805C1103.5,-282.91 1103.5,-272.78 1103.5,-265.751"/>
<polygon fill="midnightblue" stroke="midnightblue" points="1100,-292.083 1103.5,-302.083 1107,-292.083 1100,-292.083"/>
</g>
<!-- Node13 -->
<g id="node13" class="node"><title>Node13</title>
<g id="a_node13"><a xlink:href="initialize_8cpp.html" target="_top" xlink:title="Implementation of initialize.hpp. ">
<polygon fill="none" stroke="black" points="2384,-6 2384,-25 2463,-25 2463,-6 2384,-6"/>
<text text-anchor="middle" x="2423.5" y="-13" font-family="Helvetica,sans-Serif" font-size="10.00">initialize.cpp</text>
</a>
</g>
</g>
<!-- Node1&#45;&gt;Node13 -->
<g id="edge57" class="edge"><title>Node1&#45;&gt;Node13</title>
<path fill="none" stroke="midnightblue" d="M1152.62,-309.646C1396.06,-302.621 2461.5,-268.044 2461.5,-201 2461.5,-201 2461.5,-201 2461.5,-137.5 2461.5,-93.463 2438.31,-44.3813 2428.16,-25.0153"/>
<polygon fill="midnightblue" stroke="midnightblue" points="1152.21,-306.156 1142.32,-309.941 1152.41,-313.153 1152.21,-306.156"/>
</g>
<!-- Node14 -->
<g id="node14" class="node"><title>Node14</title>
<g id="a_node14"><a xlink:href="core_2integrate_8cpp.html" target="_top" xlink:title="integrate.cpp">
<polygon fill="none" stroke="black" points="0,-6 0,-25 81,-25 81,-6 0,-6"/>
<text text-anchor="middle" x="40.5" y="-13" font-family="Helvetica,sans-Serif" font-size="10.00">integrate.cpp</text>
</a>
</g>
</g>
<!-- Node1&#45;&gt;Node14 -->
<g id="edge58" class="edge"><title>Node1&#45;&gt;Node14</title>
<path fill="none" stroke="midnightblue" d="M1054.59,-310.305C865.059,-306.975 189.5,-288.94 189.5,-201 189.5,-201 189.5,-201 189.5,-137.5 189.5,-75.8517 111.687,-40.1144 68.5258,-25.0333"/>
<polygon fill="midnightblue" stroke="midnightblue" points="1054.75,-313.808 1064.81,-310.478 1054.87,-306.809 1054.75,-313.808"/>
</g>
<!-- Node15 -->
<g id="node15" class="node"><title>Node15</title>
<g id="a_node15"><a xlink:href="integrate__sd_8cpp.html" target="_top" xlink:title="Stokesian dynamics integrator. ">
<polygon fill="none" stroke="black" points="618.5,-6 618.5,-25 716.5,-25 716.5,-6 618.5,-6"/>
<text text-anchor="middle" x="667.5" y="-13" font-family="Helvetica,sans-Serif" font-size="10.00">integrate_sd.cpp</text>
</a>
</g>
</g>
<!-- Node1&#45;&gt;Node15 -->
<g id="edge59" class="edge"><title>Node1&#45;&gt;Node15</title>
<path fill="none" stroke="midnightblue" d="M1054.7,-308.111C968.181,-300.05 789.674,-269.521 711.5,-154 703.778,-142.589 703.508,-134.223 711.5,-123 741.95,-80.2364 846.045,-109.696 815.5,-67 808.49,-57.2018 740.051,-36.7132 698.737,-25.0693"/>
<polygon fill="midnightblue" stroke="midnightblue" points="1054.51,-311.609 1064.78,-308.987 1055.12,-304.635 1054.51,-311.609"/>
</g>
<!-- Node18 -->
<g id="node18" class="node"><title>Node18</title>
<g id="a_node18"><a xlink:href="nsquare_8cpp.html" target="_top" xlink:title="Implementation of nsquare.h. ">
<polygon fill="none" stroke="black" points="2192.5,-6 2192.5,-25 2268.5,-25 2268.5,-6 2192.5,-6"/>
<text text-anchor="middle" x="2230.5" y="-13" font-family="Helvetica,sans-Serif" font-size="10.00">nsquare.cpp</text>
</a>
</g>
</g>
<!-- Node1&#45;&gt;Node18 -->
<g id="edge60" class="edge"><title>Node1&#45;&gt;Node18</title>
<path fill="none" stroke="midnightblue" d="M1152.33,-308.142C1364.19,-295.256 2196.62,-239.454 2272.5,-154 2298.17,-125.085 2286.86,-103.289 2273.5,-67 2267.14,-49.7099 2251.93,-34.3058 2241.42,-25.1842"/>
<polygon fill="midnightblue" stroke="midnightblue" points="1151.91,-304.661 1142.13,-308.758 1152.33,-311.648 1151.91,-304.661"/>
</g>
<!-- Node19 -->
<g id="node19" class="node"><title>Node19</title>
<g id="a_node19"><a xlink:href="pressure_8cpp.html" target="_top" xlink:title="Implementation of pressure.h. ">
<polygon fill="none" stroke="black" points="2287,-6 2287,-25 2366,-25 2366,-6 2287,-6"/>
<text text-anchor="middle" x="2326.5" y="-13" font-family="Helvetica,sans-Serif" font-size="10.00">pressure.cpp</text>
</a>
</g>
</g>
<!-- Node1&#45;&gt;Node19 -->
<g id="edge61" class="edge"><title>Node1&#45;&gt;Node19</title>
<path fill="none" stroke="midnightblue" d="M1152.13,-309.304C1265.6,-305.029 1556.62,-292.235 1798.5,-266 1962.54,-248.208 2007.01,-255.902 2165.5,-210 2225.14,-192.725 2253.64,-201.614 2293.5,-154 2326.28,-114.845 2327.58,-48.5455 2326.91,-25.0596"/>
<polygon fill="midnightblue" stroke="midnightblue" points="1151.89,-305.81 1142.03,-309.68 1152.15,-312.806 1151.89,-305.81"/>
</g>
<!-- Node4 -->
<g id="node4" class="node"><title>Node4</title>
<g id="a_node4"><a xlink:href="forces_8hpp.html" target="_top" xlink:title="Force calculation. ">
<polygon fill="none" stroke="black" points="1118.5,-190.5 1118.5,-209.5 1186.5,-209.5 1186.5,-190.5 1118.5,-190.5"/>
<text text-anchor="middle" x="1152.5" y="-197.5" font-family="Helvetica,sans-Serif" font-size="10.00">forces.hpp</text>
</a>
</g>
</g>
<!-- Node3&#45;&gt;Node4 -->
<g id="edge3" class="edge"><title>Node3&#45;&gt;Node4</title>
<path fill="none" stroke="midnightblue" d="M1112.72,-237.855C1120.38,-228.505 1130.93,-217.327 1139.43,-209.751"/>
<polygon fill="midnightblue" stroke="midnightblue" points="1109.72,-236.015 1106.43,-246.083 1115.28,-240.27 1109.72,-236.015"/>
</g>
<!-- Node8 -->
<g id="node8" class="node"><title>Node8</title>
<g id="a_node8"><a xlink:href="communication_8cpp.html" target="_top" xlink:title="communication.cpp">
<polygon fill="none" stroke="black" points="395,-6 395,-25 508,-25 508,-6 395,-6"/>
<text text-anchor="middle" x="451.5" y="-13" font-family="Helvetica,sans-Serif" font-size="10.00">communication.cpp</text>
</a>
</g>
</g>
<!-- Node3&#45;&gt;Node8 -->
<g id="edge53" class="edge"><title>Node3&#45;&gt;Node8</title>
<path fill="none" stroke="midnightblue" d="M1056.65,-252.813C891.718,-244.626 345.187,-213.185 296.5,-154 246.044,-92.6644 360.678,-104.031 385.5,-87 411.49,-69.1669 434.902,-39.505 445.505,-25.0054"/>
<polygon fill="midnightblue" stroke="midnightblue" points="1056.8,-256.324 1066.96,-253.319 1057.14,-249.333 1056.8,-256.324"/>
</g>
<!-- Node3&#45;&gt;Node13 -->
<g id="edge55" class="edge"><title>Node3&#45;&gt;Node13</title>
<path fill="none" stroke="midnightblue" d="M1150.26,-254.904C1345.56,-253.923 2095.99,-244.243 2311.5,-154 2353.65,-136.349 2361.65,-123.236 2389.5,-87 2404.74,-67.175 2415.63,-39.428 2420.56,-25.3886"/>
<polygon fill="midnightblue" stroke="midnightblue" points="1150.03,-251.405 1140.05,-254.949 1150.06,-258.404 1150.03,-251.405"/>
</g>
<!-- Node34 -->
<g id="node34" class="node"><title>Node34</title>
<g id="a_node34"><a xlink:href="iccp3m_8cpp.html" target="_top" xlink:title="Detailed Information about the method is included in the corresponding header file iccp3m...">
<polygon fill="none" stroke="black" points="305.5,-129 305.5,-148 377.5,-148 377.5,-129 305.5,-129"/>
<text text-anchor="middle" x="341.5" y="-136" font-family="Helvetica,sans-Serif" font-size="10.00">iccp3m.cpp</text>
</a>
</g>
</g>
<!-- Node3&#45;&gt;Node34 -->
<g id="edge54" class="edge"><title>Node3&#45;&gt;Node34</title>
<path fill="none" stroke="midnightblue" d="M1056.71,-250.675C942.276,-239.598 639.483,-207.267 391.5,-154 383.9,-152.368 375.764,-150.196 368.309,-148.031"/>
<polygon fill="midnightblue" stroke="midnightblue" points="1056.58,-254.179 1066.87,-251.651 1057.25,-247.211 1056.58,-254.179"/>
</g>
<!-- Node42 -->
<g id="node42" class="node"><title>Node42</title>
<g id="a_node42"><a xlink:href="iccp3m__tcl_8cpp.html" target="_top" xlink:title="iccp3m_tcl.cpp">
<polygon fill="none" stroke="black" points="1011,-190.5 1011,-209.5 1100,-209.5 1100,-190.5 1011,-190.5"/>
<text text-anchor="middle" x="1055.5" y="-197.5" font-family="Helvetica,sans-Serif" font-size="10.00">iccp3m_tcl.cpp</text>
</a>
</g>
</g>
<!-- Node3&#45;&gt;Node42 -->
<g id="edge56" class="edge"><title>Node3&#45;&gt;Node42</title>
<path fill="none" stroke="midnightblue" d="M1088.77,-238.431C1080.36,-228.967 1070.15,-217.483 1063.28,-209.751"/>
<polygon fill="midnightblue" stroke="midnightblue" points="1086.31,-240.934 1095.57,-246.083 1091.55,-236.284 1086.31,-240.934"/>
</g>
<!-- Node4&#45;&gt;Node3 -->
<g id="edge8" class="edge"><title>Node4&#45;&gt;Node3</title>
<path fill="none" stroke="midnightblue" d="M1143.56,-217.8C1135.85,-227.25 1125.11,-238.654 1116.49,-246.324"/>
<polygon fill="midnightblue" stroke="midnightblue" points="1146.35,-219.908 1149.63,-209.834 1140.79,-215.663 1146.35,-219.908"/>
</g>
<!-- Node5 -->
<g id="node5" class="node"><title>Node5</title>
<g id="a_node5"><a xlink:href="HarmonicOrientationWell_8cpp.html" target="_top" xlink:title="HarmonicOrientationWell.cpp">
<polygon fill="none" stroke="black" points="2083.5,-129 2083.5,-148 2243.5,-148 2243.5,-129 2083.5,-129"/>
<text text-anchor="middle" x="2163.5" y="-136" font-family="Helvetica,sans-Serif" font-size="10.00">HarmonicOrientationWell.cpp</text>
</a>
</g>
</g>
<!-- Node4&#45;&gt;Node5 -->
<g id="edge4" class="edge"><title>Node4&#45;&gt;Node5</title>
<path fill="none" stroke="midnightblue" d="M1196.92,-198.456C1329.72,-196.48 1735.23,-187.891 2069.5,-154 2084.12,-152.518 2099.94,-150.313 2114.35,-148.068"/>
<polygon fill="midnightblue" stroke="midnightblue" points="1196.68,-194.959 1186.74,-198.603 1196.79,-201.958 1196.68,-194.959"/>
</g>
<!-- Node6 -->
<g id="node6" class="node"><title>Node6</title>
<g id="a_node6"><a xlink:href="HarmonicWell_8cpp.html" target="_top" xlink:title="HarmonicWell.cpp">
<polygon fill="none" stroke="black" points="731,-129 731,-148 836,-148 836,-129 731,-129"/>
<text text-anchor="middle" x="783.5" y="-136" font-family="Helvetica,sans-Serif" font-size="10.00">HarmonicWell.cpp</text>
</a>
</g>
</g>
<!-- Node4&#45;&gt;Node6 -->
<g id="edge5" class="edge"><title>Node4&#45;&gt;Node6</title>
<path fill="none" stroke="midnightblue" d="M1108.19,-189.885C991.055,-170.146 958.766,-174.919 845.5,-154 836.369,-152.314 826.555,-150.173 817.489,-148.057"/>
<polygon fill="midnightblue" stroke="midnightblue" points="1107.83,-193.373 1118.27,-191.609 1109.01,-186.473 1107.83,-193.373"/>
</g>
<!-- Node7 -->
<g id="node7" class="node"><title>Node7</title>
<g id="a_node7"><a xlink:href="Mmm1dgpuForce_8cpp.html" target="_top" xlink:title="Mmm1dgpuForce.cpp">
<polygon fill="none" stroke="black" points="854,-129 854,-148 975,-148 975,-129 854,-129"/>
<text text-anchor="middle" x="914.5" y="-136" font-family="Helvetica,sans-Serif" font-size="10.00">Mmm1dgpuForce.cpp</text>
</a>
</g>
</g>
<!-- Node4&#45;&gt;Node7 -->
<g id="edge6" class="edge"><title>Node4&#45;&gt;Node7</title>
<path fill="none" stroke="midnightblue" d="M1108.66,-188.041C1062.46,-176.49 990.658,-158.539 948.536,-148.009"/>
<polygon fill="midnightblue" stroke="midnightblue" points="1107.85,-191.445 1118.4,-190.475 1109.55,-184.654 1107.85,-191.445"/>
</g>
<!-- Node4&#45;&gt;Node8 -->
<g id="edge7" class="edge"><title>Node4&#45;&gt;Node8</title>
<path fill="none" stroke="midnightblue" d="M1108.35,-190.32C1008.49,-181.91 563.021,-190.923 510.5,-154 465.874,-122.627 454.761,-50.1999 452.208,-25.1843"/>
<polygon fill="midnightblue" stroke="midnightblue" points="1108,-193.802 1118.31,-191.373 1108.73,-186.841 1108,-193.802"/>
</g>
<!-- Node9 -->
<g id="node9" class="node"><title>Node9</title>
<g id="a_node9"><a xlink:href="forces__inline_8hpp.html" target="_top" xlink:title="forces_inline.hpp">
<polygon fill="none" stroke="black" points="536.5,-129 536.5,-148 636.5,-148 636.5,-129 536.5,-129"/>
<text text-anchor="middle" x="586.5" y="-136" font-family="Helvetica,sans-Serif" font-size="10.00">forces_inline.hpp</text>
</a>
</g>
</g>
<!-- Node4&#45;&gt;Node9 -->
<g id="edge9" class="edge"><title>Node4&#45;&gt;Node9</title>
<path fill="none" stroke="midnightblue" d="M1108.17,-189.974C921.947,-163.143 871.811,-174.85 688.5,-154 671.617,-152.08 653.218,-149.588 636.753,-147.213"/>
<polygon fill="midnightblue" stroke="midnightblue" points="1107.9,-193.472 1118.3,-191.452 1108.91,-186.545 1107.9,-193.472"/>
</g>
<!-- Node11 -->
<g id="node11" class="node"><title>Node11</title>
<g id="a_node11"><a xlink:href="domain__decomposition_8cpp.html" target="_top" xlink:title="This file contains everything related to the cell system: domain decomposition. ">
<polygon fill="none" stroke="black" points="1813,-6 1813,-25 1964,-25 1964,-6 1813,-6"/>
<text text-anchor="middle" x="1888.5" y="-13" font-family="Helvetica,sans-Serif" font-size="10.00">domain_decomposition.cpp</text>
</a>
</g>
</g>
<!-- Node4&#45;&gt;Node11 -->
<g id="edge36" class="edge"><title>Node4&#45;&gt;Node11</title>
<path fill="none" stroke="midnightblue" d="M1196.82,-198.419C1371.9,-195.912 2007.31,-184.718 2036.5,-154 2085.55,-102.393 1963.75,-46.1714 1911.21,-25.1043"/>
<polygon fill="midnightblue" stroke="midnightblue" points="1196.62,-194.921 1186.67,-198.562 1196.72,-201.921 1196.62,-194.921"/>
</g>
<!-- Node4&#45;&gt;Node13 -->
<g id="edge40" class="edge"><title>Node4&#45;&gt;Node13</title>
<path fill="none" stroke="midnightblue" d="M1196.85,-199.005C1392.34,-198.785 2171.85,-195.304 2272.5,-154 2341.71,-125.599 2399.41,-50.6066 2417.56,-25.1195"/>
<polygon fill="midnightblue" stroke="midnightblue" points="1196.66,-195.505 1186.66,-199.014 1196.66,-202.505 1196.66,-195.505"/>
</g>
<!-- Node4&#45;&gt;Node14 -->
<g id="edge41" class="edge"><title>Node4&#45;&gt;Node14</title>
<path fill="none" stroke="midnightblue" d="M1108.3,-190.057C829.205,-154.38 751.06,-206.701 478.5,-154 436.137,-145.809 427.866,-135.27 386.5,-123 324.906,-104.73 306.993,-108.639 246.5,-87 226.654,-79.9011 223.167,-74.5805 203.5,-67 190.784,-62.0987 112.141,-38.1547 68.9105,-25.0738"/>
<polygon fill="midnightblue" stroke="midnightblue" points="1107.94,-193.54 1118.31,-191.364 1108.85,-186.599 1107.94,-193.54"/>
</g>
<!-- Node4&#45;&gt;Node15 -->
<g id="edge42" class="edge"><title>Node4&#45;&gt;Node15</title>
<path fill="none" stroke="midnightblue" d="M1108.03,-190.303C1034.35,-183.719 750.054,-184.236 722.5,-154 713.22,-143.816 714.203,-133.999 722.5,-123 759.404,-74.0758 885.555,-115.809 848.5,-67 846.207,-63.9794 751.697,-38.6895 700.184,-25.0849"/>
<polygon fill="midnightblue" stroke="midnightblue" points="1107.96,-193.818 1118.3,-191.475 1108.76,-186.864 1107.96,-193.818"/>
</g>
<!-- Node17 -->
<g id="node17" class="node"><title>Node17</title>
<g id="a_node17"><a xlink:href="layered_8cpp.html" target="_top" xlink:title="Implementation of layered.h. ">
<polygon fill="none" stroke="black" points="526.5,-6 526.5,-25 600.5,-25 600.5,-6 526.5,-6"/>
<text text-anchor="middle" x="563.5" y="-13" font-family="Helvetica,sans-Serif" font-size="10.00">layered.cpp</text>
</a>
</g>
</g>
<!-- Node4&#45;&gt;Node17 -->
<g id="edge43" class="edge"><title>Node4&#45;&gt;Node17</title>
<path fill="none" stroke="midnightblue" d="M1108.27,-190.357C1009.85,-182.757 570.187,-199.409 527.5,-154 492.345,-116.603 538.082,-49.2047 556.47,-25.245"/>
<polygon fill="midnightblue" stroke="midnightblue" points="1108.01,-193.848 1118.31,-191.379 1108.72,-186.884 1108.01,-193.848"/>
</g>
<!-- Node4&#45;&gt;Node18 -->
<g id="edge45" class="edge"><title>Node4&#45;&gt;Node18</title>
<path fill="none" stroke="midnightblue" d="M1196.72,-198.881C1397.53,-198.129 2215.36,-192.691 2252.5,-154 2287.49,-117.55 2250.68,-48.9696 2235.99,-25.0164"/>
<polygon fill="midnightblue" stroke="midnightblue" points="1196.53,-195.382 1186.54,-198.917 1196.56,-202.382 1196.53,-195.382"/>
</g>
<!-- Node22 -->
<g id="node22" class="node"><title>Node22</title>
<g id="a_node22"><a xlink:href="verlet_8cpp.html" target="_top" xlink:title="Verlet list. ">
<polygon fill="none" stroke="black" points="1563,-6 1563,-25 1628,-25 1628,-6 1563,-6"/>
<text text-anchor="middle" x="1595.5" y="-13" font-family="Helvetica,sans-Serif" font-size="10.00">verlet.cpp</text>
</a>
</g>
</g>
<!-- Node4&#45;&gt;Node22 -->
<g id="edge48" class="edge"><title>Node4&#45;&gt;Node22</title>
<path fill="none" stroke="midnightblue" d="M1108.23,-189.324C1075.03,-181.066 1033.64,-168.283 1023.5,-154 1015.52,-142.767 1014.63,-133.543 1023.5,-123 1100.46,-31.5301 1437.74,-60.8233 1553.5,-31 1559.92,-29.3449 1566.77,-27.1654 1573.03,-25.0007"/>
<polygon fill="midnightblue" stroke="midnightblue" points="1107.69,-192.793 1118.23,-191.738 1109.33,-185.988 1107.69,-192.793"/>
</g>
<!-- Node32 -->
<g id="node32" class="node"><title>Node32</title>
<g id="a_node32"><a xlink:href="energy_8cpp.html" target="_top" xlink:title="Implementation of energy.hpp. ">
<polygon fill="none" stroke="black" points="1032,-129 1032,-148 1101,-148 1101,-129 1032,-129"/>
<text text-anchor="middle" x="1066.5" y="-136" font-family="Helvetica,sans-Serif" font-size="10.00">energy.cpp</text>
</a>
</g>
</g>
<!-- Node4&#45;&gt;Node32 -->
<g id="edge37" class="edge"><title>Node4&#45;&gt;Node32</title>
<path fill="none" stroke="midnightblue" d="M1131.7,-184.613C1115.16,-173.169 1092.58,-157.546 1078.8,-148.009"/>
<polygon fill="midnightblue" stroke="midnightblue" points="1129.96,-187.664 1140.18,-190.475 1133.95,-181.907 1129.96,-187.664"/>
</g>
<!-- Node33 -->
<g id="node33" class="node"><title>Node33</title>
<g id="a_node33"><a xlink:href="galilei_8cpp.html" target="_top" xlink:title="galilei.cpp">
<polygon fill="none" stroke="black" points="1119,-129 1119,-148 1186,-148 1186,-129 1119,-129"/>
<text text-anchor="middle" x="1152.5" y="-136" font-family="Helvetica,sans-Serif" font-size="10.00">galilei.cpp</text>
</a>
</g>
</g>
<!-- Node4&#45;&gt;Node33 -->
<g id="edge38" class="edge"><title>Node4&#45;&gt;Node33</title>
<path fill="none" stroke="midnightblue" d="M1152.5,-180.317C1152.5,-169.496 1152.5,-156.398 1152.5,-148.009"/>
<polygon fill="midnightblue" stroke="midnightblue" points="1149,-180.475 1152.5,-190.475 1156,-180.475 1149,-180.475"/>
</g>
<!-- Node4&#45;&gt;Node34 -->
<g id="edge39" class="edge"><title>Node4&#45;&gt;Node34</title>
<path fill="none" stroke="midnightblue" d="M1108.37,-190.076C790.823,-150.319 703.379,-206.31 391.5,-154 383.299,-152.625 374.535,-150.365 366.672,-148.035"/>
<polygon fill="midnightblue" stroke="midnightblue" points="1107.95,-193.55 1118.31,-191.342 1108.84,-186.607 1107.95,-193.55"/>
</g>
<!-- Node35 -->
<g id="node35" class="node"><title>Node35</title>
<g id="a_node35"><a xlink:href="molforces_8cpp.html" target="_top" xlink:title="Routines for calculating and applying trap forces upon molecules. ">
<polygon fill="none" stroke="black" points="1204.5,-129 1204.5,-148 1290.5,-148 1290.5,-129 1204.5,-129"/>
<text text-anchor="middle" x="1247.5" y="-136" font-family="Helvetica,sans-Serif" font-size="10.00">molforces.cpp</text>
</a>
</g>
</g>
<!-- Node4&#45;&gt;Node35 -->
<g id="edge44" class="edge"><title>Node4&#45;&gt;Node35</title>
<path fill="none" stroke="midnightblue" d="M1174.71,-185.087C1193.05,-173.604 1218.48,-157.678 1233.91,-148.009"/>
<polygon fill="midnightblue" stroke="midnightblue" points="1172.73,-182.201 1166.11,-190.475 1176.44,-188.133 1172.73,-182.201"/>
</g>
<!-- Node36 -->
<g id="node36" class="node"><title>Node36</title>
<g id="a_node36"><a xlink:href="reaction_8cpp.html" target="_top" xlink:title="reaction.cpp">
<polygon fill="none" stroke="black" points="1309,-129 1309,-148 1386,-148 1386,-129 1309,-129"/>
<text text-anchor="middle" x="1347.5" y="-136" font-family="Helvetica,sans-Serif" font-size="10.00">reaction.cpp</text>
</a>
</g>
</g>
<!-- Node4&#45;&gt;Node36 -->
<g id="edge46" class="edge"><title>Node4&#45;&gt;Node36</title>
<path fill="none" stroke="midnightblue" d="M1190.1,-187.529C1227.99,-175.965 1285.61,-158.385 1319.61,-148.009"/>
<polygon fill="midnightblue" stroke="midnightblue" points="1188.98,-184.209 1180.44,-190.475 1191.02,-190.904 1188.98,-184.209"/>
</g>
<!-- Node37 -->
<g id="node37" class="node"><title>Node37</title>
<g id="a_node37"><a xlink:href="rotation_8cpp.html" target="_top" xlink:title="Molecular dynamics integrator for rotational motion. ">
<polygon fill="none" stroke="black" points="1404,-129 1404,-148 1479,-148 1479,-129 1404,-129"/>
<text text-anchor="middle" x="1441.5" y="-136" font-family="Helvetica,sans-Serif" font-size="10.00">rotation.cpp</text>
</a>
</g>
</g>
<!-- Node4&#45;&gt;Node37 -->
<g id="edge47" class="edge"><title>Node4&#45;&gt;Node37</title>
<path fill="none" stroke="midnightblue" d="M1196.53,-192.507C1245.48,-184.905 1326.71,-171.144 1395.5,-154 1402.32,-152.299 1409.62,-150.153 1416.35,-148.038"/>
<polygon fill="midnightblue" stroke="midnightblue" points="1195.94,-189.056 1186.59,-194.035 1197,-195.975 1195.94,-189.056"/>
</g>
<!-- Node38 -->
<g id="node38" class="node"><title>Node38</title>
<g id="a_node38"><a xlink:href="virtual__sites__com_8cpp.html" target="_top" xlink:title="virtual_sites_com.cpp">
<polygon fill="none" stroke="black" points="1497,-129 1497,-148 1620,-148 1620,-129 1497,-129"/>
<text text-anchor="middle" x="1558.5" y="-136" font-family="Helvetica,sans-Serif" font-size="10.00">virtual_sites_com.cpp</text>
</a>
</g>
</g>
<!-- Node4&#45;&gt;Node38 -->
<g id="edge49" class="edge"><title>Node4&#45;&gt;Node38</title>
<path fill="none" stroke="midnightblue" d="M1197.18,-194.04C1261.71,-186.647 1384.63,-171.691 1488.5,-154 1498.65,-152.271 1509.58,-150.138 1519.72,-148.046"/>
<polygon fill="midnightblue" stroke="midnightblue" points="1196.5,-190.595 1186.96,-195.204 1197.3,-197.55 1196.5,-190.595"/>
</g>
<!-- Node39 -->
<g id="node39" class="node"><title>Node39</title>
<g id="a_node39"><a xlink:href="Ewaldgpu__tcl_8cpp.html" target="_top" xlink:title="Ewaldgpu_tcl.cpp">
<polygon fill="none" stroke="black" points="1638,-129 1638,-148 1739,-148 1739,-129 1638,-129"/>
<text text-anchor="middle" x="1688.5" y="-136" font-family="Helvetica,sans-Serif" font-size="10.00">Ewaldgpu_tcl.cpp</text>
</a>
</g>
</g>
<!-- Node4&#45;&gt;Node39 -->
<g id="edge50" class="edge"><title>Node4&#45;&gt;Node39</title>
<path fill="none" stroke="midnightblue" d="M1196.56,-197.01C1281.05,-192.716 1471.45,-180.728 1629.5,-154 1638.65,-152.452 1648.48,-150.255 1657.45,-148.038"/>
<polygon fill="midnightblue" stroke="midnightblue" points="1196.37,-193.515 1186.56,-197.507 1196.72,-200.506 1196.37,-193.515"/>
</g>
<!-- Node40 -->
<g id="node40" class="node"><title>Node40</title>
<g id="a_node40"><a xlink:href="HarmonicOrientationWell__tcl_8cpp.html" target="_top" xlink:title="HarmonicOrientationWell\l_tcl.cpp">
<polygon fill="none" stroke="black" points="1757.5,-123.5 1757.5,-153.5 1897.5,-153.5 1897.5,-123.5 1757.5,-123.5"/>
<text text-anchor="start" x="1765.5" y="-141.5" font-family="Helvetica,sans-Serif" font-size="10.00">HarmonicOrientationWell</text>
<text text-anchor="middle" x="1827.5" y="-130.5" font-family="Helvetica,sans-Serif" font-size="10.00">_tcl.cpp</text>
</a>
</g>
</g>
<!-- Node4&#45;&gt;Node40 -->
<g id="edge51" class="edge"><title>Node4&#45;&gt;Node40</title>
<path fill="none" stroke="midnightblue" d="M1196.8,-197.265C1295.97,-193.031 1543.21,-180.514 1748.5,-154 1751.4,-153.625 1754.36,-153.214 1757.35,-152.775"/>
<polygon fill="midnightblue" stroke="midnightblue" points="1196.41,-193.779 1186.56,-197.696 1196.7,-200.773 1196.41,-193.779"/>
</g>
<!-- Node41 -->
<g id="node41" class="node"><title>Node41</title>
<g id="a_node41"><a xlink:href="Mmm1dgpu__tcl_8cpp.html" target="_top" xlink:title="Mmm1dgpu_tcl.cpp">
<polygon fill="none" stroke="black" points="1915.5,-129 1915.5,-148 2027.5,-148 2027.5,-129 1915.5,-129"/>
<text text-anchor="middle" x="1971.5" y="-136" font-family="Helvetica,sans-Serif" font-size="10.00">Mmm1dgpu_tcl.cpp</text>
</a>
</g>
</g>
<!-- Node4&#45;&gt;Node41 -->
<g id="edge52" class="edge"><title>Node4&#45;&gt;Node41</title>
<path fill="none" stroke="midnightblue" d="M1196.82,-198.822C1313.56,-197.82 1638.9,-191.587 1906.5,-154 1916.8,-152.553 1927.9,-150.331 1937.95,-148.058"/>
<polygon fill="midnightblue" stroke="midnightblue" points="1196.48,-195.324 1186.51,-198.901 1196.54,-202.324 1196.48,-195.324"/>
</g>
<!-- Node10 -->
<g id="node10" class="node"><title>Node10</title>
<g id="a_node10"><a xlink:href="pressure_8hpp.html" target="_top" xlink:title="Pressure calculation. ">
<polygon fill="none" stroke="black" points="918.5,-67.5 918.5,-86.5 998.5,-86.5 998.5,-67.5 918.5,-67.5"/>
<text text-anchor="middle" x="958.5" y="-74.5" font-family="Helvetica,sans-Serif" font-size="10.00">pressure.hpp</text>
</a>
</g>
</g>
<!-- Node9&#45;&gt;Node10 -->
<g id="edge10" class="edge"><title>Node9&#45;&gt;Node10</title>
<path fill="none" stroke="midnightblue" d="M646.64,-127.881C723.142,-115.645 853.152,-94.85 918.498,-84.3982"/>
<polygon fill="midnightblue" stroke="midnightblue" points="645.991,-124.44 636.67,-129.476 647.097,-131.352 645.991,-124.44"/>
</g>
<!-- Node9&#45;&gt;Node17 -->
<g id="edge35" class="edge"><title>Node9&#45;&gt;Node17</title>
<path fill="none" stroke="midnightblue" d="M566.399,-122.236C556.255,-113.234 544.966,-100.896 539.5,-87 530.886,-65.1017 546.651,-38.7071 556.484,-25.2775"/>
<polygon fill="midnightblue" stroke="midnightblue" points="564.235,-124.989 574.156,-128.707 568.719,-119.613 564.235,-124.989"/>
</g>
<!-- Node26 -->
<g id="node26" class="node"><title>Node26</title>
<g id="a_node26"><a xlink:href="minimize__energy_8hpp.html" target="_top" xlink:title="minimize_energy.hpp">
<polygon fill="none" stroke="black" points="256,-67.5 256,-86.5 377,-86.5 377,-67.5 256,-67.5"/>
<text text-anchor="middle" x="316.5" y="-74.5" font-family="Helvetica,sans-Serif" font-size="10.00">minimize_energy.hpp</text>
</a>
</g>
</g>
<!-- Node9&#45;&gt;Node26 -->
<g id="edge27" class="edge"><title>Node9&#45;&gt;Node26</title>
<path fill="none" stroke="midnightblue" d="M537.757,-126.758C485.38,-115.216 403.198,-97.1056 355.113,-86.5091"/>
<polygon fill="midnightblue" stroke="midnightblue" points="537.297,-130.241 547.816,-128.975 538.803,-123.405 537.297,-130.241"/>
</g>
<!-- Node29 -->
<g id="node29" class="node"><title>Node29</title>
<g id="a_node29"><a xlink:href="constraint_8cpp.html" target="_top" xlink:title="Implementation of constraint.hpp, here it&#39;s just the parsing stuff. ">
<polygon fill="none" stroke="black" points="720.5,-67.5 720.5,-86.5 806.5,-86.5 806.5,-67.5 720.5,-67.5"/>
<text text-anchor="middle" x="763.5" y="-74.5" font-family="Helvetica,sans-Serif" font-size="10.00">constraint.cpp</text>
</a>
</g>
</g>
<!-- Node9&#45;&gt;Node29 -->
<g id="edge32" class="edge"><title>Node9&#45;&gt;Node29</title>
<path fill="none" stroke="midnightblue" d="M621.507,-125.732C655.914,-114.166 707.584,-96.7966 738.187,-86.5091"/>
<polygon fill="midnightblue" stroke="midnightblue" points="620.223,-122.471 611.86,-128.975 622.454,-129.106 620.223,-122.471"/>
</g>
<!-- Node30 -->
<g id="node30" class="node"><title>Node30</title>
<g id="a_node30"><a xlink:href="forces_8cpp.html" target="_top" xlink:title="Force calculation. ">
<polygon fill="none" stroke="black" points="548,-67.5 548,-86.5 615,-86.5 615,-67.5 548,-67.5"/>
<text text-anchor="middle" x="581.5" y="-74.5" font-family="Helvetica,sans-Serif" font-size="10.00">forces.cpp</text>
</a>
</g>
</g>
<!-- Node9&#45;&gt;Node30 -->
<g id="edge33" class="edge"><title>Node9&#45;&gt;Node30</title>
<path fill="none" stroke="midnightblue" d="M584.93,-118.817C584.021,-107.996 582.92,-94.898 582.215,-86.5091"/>
<polygon fill="midnightblue" stroke="midnightblue" points="581.458,-119.303 585.784,-128.975 588.434,-118.717 581.458,-119.303"/>
</g>
<!-- Node31 -->
<g id="node31" class="node"><title>Node31</title>
<g id="a_node31"><a xlink:href="ghosts_8cpp.html" target="_top" xlink:title="Ghost particles and particle exchange. ">
<polygon fill="none" stroke="black" points="633,-67.5 633,-86.5 702,-86.5 702,-67.5 633,-67.5"/>
<text text-anchor="middle" x="667.5" y="-74.5" font-family="Helvetica,sans-Serif" font-size="10.00">ghosts.cpp</text>
</a>
</g>
</g>
<!-- Node9&#45;&gt;Node31 -->
<g id="edge34" class="edge"><title>Node9&#45;&gt;Node31</title>
<path fill="none" stroke="midnightblue" d="M606.52,-122.794C622.058,-111.38 643.053,-95.9577 655.916,-86.5091"/>
<polygon fill="midnightblue" stroke="midnightblue" points="604.093,-120.234 598.105,-128.975 608.237,-125.876 604.093,-120.234"/>
</g>
<!-- Node10&#45;&gt;Node8 -->
<g id="edge11" class="edge"><title>Node10&#45;&gt;Node8</title>
<path fill="none" stroke="midnightblue" d="M908.422,-72.767C826.37,-67.0497 658.327,-53.5785 517.5,-31 507.422,-29.3842 496.572,-27.192 486.637,-25.0018"/>
<polygon fill="midnightblue" stroke="midnightblue" points="908.253,-76.2635 918.47,-73.4581 908.733,-69.28 908.253,-76.2635"/>
</g>
<!-- Node10&#45;&gt;Node11 -->
<g id="edge12" class="edge"><title>Node10&#45;&gt;Node11</title>
<path fill="none" stroke="midnightblue" d="M1008.89,-72.7762C1163.1,-62.91 1629.3,-33.0833 1812.97,-21.3326"/>
<polygon fill="midnightblue" stroke="midnightblue" points="1008.52,-69.2928 998.759,-73.4243 1008.96,-76.2785 1008.52,-69.2928"/>
</g>
<!-- Node12 -->
<g id="node12" class="node"><title>Node12</title>
<g id="a_node12"><a xlink:href="elc_8cpp.html" target="_top" xlink:title="For more information about ELC, see elc.hpp. ">
<polygon fill="none" stroke="black" points="734,-6 734,-25 785,-25 785,-6 734,-6"/>
<text text-anchor="middle" x="759.5" y="-13" font-family="Helvetica,sans-Serif" font-size="10.00">elc.cpp</text>
</a>
</g>
</g>
<!-- Node10&#45;&gt;Node12 -->
<g id="edge13" class="edge"><title>Node10&#45;&gt;Node12</title>
<path fill="none" stroke="midnightblue" d="M911.763,-65.0681C878.439,-56.8351 832.767,-44.6557 793.5,-31 788.53,-29.2716 783.255,-27.1627 778.381,-25.0945"/>
<polygon fill="midnightblue" stroke="midnightblue" points="911.143,-68.5194 921.688,-67.4937 912.805,-61.7196 911.143,-68.5194"/>
</g>
<!-- Node10&#45;&gt;Node13 -->
<g id="edge14" class="edge"><title>Node10&#45;&gt;Node13</title>
<path fill="none" stroke="midnightblue" d="M1008.92,-76.1623C1228.73,-76.5993 2104.42,-75.4589 2375.5,-31 2383.4,-29.7038 2391.83,-27.4666 2399.37,-25.1321"/>
<polygon fill="midnightblue" stroke="midnightblue" points="1008.66,-72.6619 998.651,-76.1398 1008.64,-79.6618 1008.66,-72.6619"/>
</g>
<!-- Node10&#45;&gt;Node14 -->
<g id="edge15" class="edge"><title>Node10&#45;&gt;Node14</title>
<path fill="none" stroke="midnightblue" d="M908.307,-72.6771C880.888,-70.9032 846.332,-68.7346 815.5,-67 492.947,-48.8534 407.981,-85.2194 89.5,-31 81.4539,-29.6302 72.8626,-27.3723 65.157,-25.0414"/>
<polygon fill="midnightblue" stroke="midnightblue" points="908.237,-76.1799 918.443,-73.3359 908.691,-69.1946 908.237,-76.1799"/>
</g>
<!-- Node10&#45;&gt;Node15 -->
<g id="edge16" class="edge"><title>Node10&#45;&gt;Node15</title>
<path fill="none" stroke="midnightblue" d="M908.387,-67.1329C861.092,-58.5727 788.271,-44.8972 725.5,-31 717.291,-29.1827 708.471,-27.0637 700.247,-25.016"/>
<polygon fill="midnightblue" stroke="midnightblue" points="907.909,-70.6031 918.372,-68.9326 909.151,-63.7141 907.909,-70.6031"/>
</g>
<!-- Node16 -->
<g id="node16" class="node"><title>Node16</title>
<g id="a_node16"><a xlink:href="interaction__data_8cpp.html" target="_top" xlink:title="Implementation of interaction_data.hpp. ">
<polygon fill="none" stroke="black" points="802.5,-6 802.5,-25 918.5,-25 918.5,-6 802.5,-6"/>
<text text-anchor="middle" x="860.5" y="-13" font-family="Helvetica,sans-Serif" font-size="10.00">interaction_data.cpp</text>
</a>
</g>
</g>
<!-- Node10&#45;&gt;Node16 -->
<g id="edge17" class="edge"><title>Node10&#45;&gt;Node16</title>
<path fill="none" stroke="midnightblue" d="M935.843,-62.2441C916.911,-50.7498 890.514,-34.7226 874.515,-25.0091"/>
<polygon fill="midnightblue" stroke="midnightblue" points="934.095,-65.277 944.459,-67.4751 937.728,-59.2935 934.095,-65.277"/>
</g>
<!-- Node10&#45;&gt;Node17 -->
<g id="edge18" class="edge"><title>Node10&#45;&gt;Node17</title>
<path fill="none" stroke="midnightblue" d="M908.28,-72.3356C840.038,-66.7198 714.485,-54.1237 609.5,-31 602.467,-29.451 594.969,-27.3064 588.11,-25.1411"/>
<polygon fill="midnightblue" stroke="midnightblue" points="908.077,-75.8305 918.326,-73.1458 908.639,-68.8532 908.077,-75.8305"/>
</g>
<!-- Node10&#45;&gt;Node18 -->
<g id="edge19" class="edge"><title>Node10&#45;&gt;Node18</title>
<path fill="none" stroke="midnightblue" d="M1008.77,-73.986C1156.67,-68.0143 1603.19,-49.6545 1973.5,-31 2051.16,-27.0878 2141.98,-21.7951 2192.19,-18.8059"/>
<polygon fill="midnightblue" stroke="midnightblue" points="1008.49,-70.4942 998.643,-74.3944 1008.78,-77.4886 1008.49,-70.4942"/>
</g>
<!-- Node10&#45;&gt;Node19 -->
<g id="edge20" class="edge"><title>Node10&#45;&gt;Node19</title>
<path fill="none" stroke="midnightblue" d="M1008.83,-75.9858C1218.89,-75.6641 2026.45,-71.7472 2277.5,-31 2285.64,-29.6782 2294.34,-27.4031 2302.11,-25.0419"/>
<polygon fill="midnightblue" stroke="midnightblue" points="1008.7,-72.4859 998.705,-75.9992 1008.71,-79.4858 1008.7,-72.4859"/>
</g>
<!-- Node20 -->
<g id="node20" class="node"><title>Node20</title>
<g id="a_node20"><a xlink:href="statistics_8cpp.html" target="_top" xlink:title="This is the place for analysis (so far...). ">
<polygon fill="none" stroke="black" points="937,-6 937,-25 1018,-25 1018,-6 937,-6"/>
<text text-anchor="middle" x="977.5" y="-13" font-family="Helvetica,sans-Serif" font-size="10.00">statistics.cpp</text>
</a>
</g>
</g>
<!-- Node10&#45;&gt;Node20 -->
<g id="edge21" class="edge"><title>Node10&#45;&gt;Node20</title>
<path fill="none" stroke="midnightblue" d="M964.357,-57.6575C967.833,-46.7724 972.076,-33.4863 974.783,-25.0091"/>
<polygon fill="midnightblue" stroke="midnightblue" points="960.93,-56.8843 961.222,-67.4751 967.598,-59.0137 960.93,-56.8843"/>
</g>
<!-- Node21 -->
<g id="node21" class="node"><title>Node21</title>
<g id="a_node21"><a xlink:href="statistics__observable_8cpp.html" target="_top" xlink:title="statistics_observable.cpp">
<polygon fill="none" stroke="black" points="1036.5,-6 1036.5,-25 1176.5,-25 1176.5,-6 1036.5,-6"/>
<text text-anchor="middle" x="1106.5" y="-13" font-family="Helvetica,sans-Serif" font-size="10.00">statistics_observable.cpp</text>
</a>
</g>
</g>
<!-- Node10&#45;&gt;Node21 -->
<g id="edge22" class="edge"><title>Node10&#45;&gt;Node21</title>
<path fill="none" stroke="midnightblue" d="M989.266,-63.6313C1018.02,-52.0717 1060.18,-35.12 1085.33,-25.0091"/>
<polygon fill="midnightblue" stroke="midnightblue" points="987.678,-60.4975 979.705,-67.4751 990.289,-66.9923 987.678,-60.4975"/>
</g>
<!-- Node10&#45;&gt;Node22 -->
<g id="edge23" class="edge"><title>Node10&#45;&gt;Node22</title>
<path fill="none" stroke="midnightblue" d="M1008.63,-67.4715C1009.94,-67.3059 1011.23,-67.1482 1012.5,-67 1251.86,-39.158 1317.3,-78.7413 1553.5,-31 1560.3,-29.6246 1567.52,-27.4241 1574.01,-25.1487"/>
<polygon fill="midnightblue" stroke="midnightblue" points="1007.96,-64.0308 998.542,-68.8745 1008.93,-70.9642 1007.96,-64.0308"/>
</g>
<!-- Node23 -->
<g id="node23" class="node"><title>Node23</title>
<g id="a_node23"><a xlink:href="virtual__sites_8cpp.html" target="_top" xlink:title="virtual_sites.cpp">
<polygon fill="none" stroke="black" points="1195,-6 1195,-25 1292,-25 1292,-6 1195,-6"/>
<text text-anchor="middle" x="1243.5" y="-13" font-family="Helvetica,sans-Serif" font-size="10.00">virtual_sites.cpp</text>
</a>
</g>
</g>
<!-- Node10&#45;&gt;Node23 -->
<g id="edge24" class="edge"><title>Node10&#45;&gt;Node23</title>
<path fill="none" stroke="midnightblue" d="M1008.84,-66.7567C1054.94,-58.1182 1125,-44.5516 1185.5,-31 1193.6,-29.1852 1202.31,-27.0886 1210.44,-25.0636"/>
<polygon fill="midnightblue" stroke="midnightblue" points="1008,-63.3541 998.811,-68.63 1009.28,-70.2352 1008,-63.3541"/>
</g>
<!-- Node24 -->
<g id="node24" class="node"><title>Node24</title>
<g id="a_node24"><a xlink:href="pressure__tcl_8cpp.html" target="_top" xlink:title="pressure_tcl.cpp">
<polygon fill="none" stroke="black" points="1310.5,-6 1310.5,-25 1406.5,-25 1406.5,-6 1310.5,-6"/>
<text text-anchor="middle" x="1358.5" y="-13" font-family="Helvetica,sans-Serif" font-size="10.00">pressure_tcl.cpp</text>
</a>
</g>
</g>
<!-- Node10&#45;&gt;Node24 -->
<g id="edge25" class="edge"><title>Node10&#45;&gt;Node24</title>
<path fill="none" stroke="midnightblue" d="M1008.65,-67.5699C1009.94,-67.3752 1011.23,-67.1848 1012.5,-67 1140.59,-48.3564 1174.31,-55.0023 1301.5,-31 1310.13,-29.3716 1319.39,-27.2009 1327.89,-25.036"/>
<polygon fill="midnightblue" stroke="midnightblue" points="1007.92,-64.1406 998.576,-69.1319 1008.99,-71.0579 1007.92,-64.1406"/>
</g>
<!-- Node25 -->
<g id="node25" class="node"><title>Node25</title>
<g id="a_node25"><a xlink:href="statistics__observable__tcl_8cpp.html" target="_top" xlink:title="statistics_observable\l_tcl.cpp">
<polygon fill="none" stroke="black" points="1424.5,-0.5 1424.5,-30.5 1544.5,-30.5 1544.5,-0.5 1424.5,-0.5"/>
<text text-anchor="start" x="1432.5" y="-18.5" font-family="Helvetica,sans-Serif" font-size="10.00">statistics_observable</text>
<text text-anchor="middle" x="1484.5" y="-7.5" font-family="Helvetica,sans-Serif" font-size="10.00">_tcl.cpp</text>
</a>
</g>
</g>
<!-- Node10&#45;&gt;Node25 -->
<g id="edge26" class="edge"><title>Node10&#45;&gt;Node25</title>
<path fill="none" stroke="midnightblue" d="M1008.64,-67.5103C1009.94,-67.3332 1011.23,-67.1627 1012.5,-67 1190.87,-44.202 1237.64,-57.5369 1415.5,-31 1418.41,-30.5665 1421.37,-30.0868 1424.36,-29.5734"/>
<polygon fill="midnightblue" stroke="midnightblue" points="1007.95,-64.0741 998.554,-68.976 1008.95,-71.0013 1007.95,-64.0741"/>
</g>
<!-- Node26&#45;&gt;Node8 -->
<g id="edge28" class="edge"><title>Node26&#45;&gt;Node8</title>
<path fill="none" stroke="midnightblue" d="M345.253,-63.3272C371.462,-51.7761 409.453,-35.0316 432.194,-25.0091"/>
<polygon fill="midnightblue" stroke="midnightblue" points="343.581,-60.2392 335.842,-67.4751 346.404,-66.6447 343.581,-60.2392"/>
</g>
<!-- Node26&#45;&gt;Node14 -->
<g id="edge29" class="edge"><title>Node26&#45;&gt;Node14</title>
<path fill="none" stroke="midnightblue" d="M256.523,-65.666C210.567,-57.3728 145.712,-44.8577 89.5,-31 82.3506,-29.2375 74.6864,-27.0937 67.5927,-25.001"/>
<polygon fill="midnightblue" stroke="midnightblue" points="256.153,-69.1555 266.614,-67.474 257.388,-62.2652 256.153,-69.1555"/>
</g>
<!-- Node27 -->
<g id="node27" class="node"><title>Node27</title>
<g id="a_node27"><a xlink:href="minimize__energy_8cpp.html" target="_top" xlink:title="minimize_energy.cpp">
<polygon fill="none" stroke="black" points="256.5,-6 256.5,-25 376.5,-25 376.5,-6 256.5,-6"/>
<text text-anchor="middle" x="316.5" y="-13" font-family="Helvetica,sans-Serif" font-size="10.00">minimize_energy.cpp</text>
</a>
</g>
</g>
<!-- Node26&#45;&gt;Node27 -->
<g id="edge30" class="edge"><title>Node26&#45;&gt;Node27</title>
<path fill="none" stroke="midnightblue" d="M316.5,-57.3165C316.5,-46.4962 316.5,-33.398 316.5,-25.0091"/>
<polygon fill="midnightblue" stroke="midnightblue" points="313,-57.4751 316.5,-67.4751 320,-57.4751 313,-57.4751"/>
</g>
<!-- Node28 -->
<g id="node28" class="node"><title>Node28</title>
<g id="a_node28"><a xlink:href="minimize__energy__tcl_8cpp.html" target="_top" xlink:title="minimize_energy_tcl.cpp">
<polygon fill="none" stroke="black" points="99,-6 99,-25 238,-25 238,-6 99,-6"/>
<text text-anchor="middle" x="168.5" y="-13" font-family="Helvetica,sans-Serif" font-size="10.00">minimize_energy_tcl.cpp</text>
</a>
</g>
</g>
<!-- Node26&#45;&gt;Node28 -->
<g id="edge31" class="edge"><title>Node26&#45;&gt;Node28</title>
<path fill="none" stroke="midnightblue" d="M285.734,-63.6313C256.981,-52.0717 214.815,-35.12 189.665,-25.0091"/>
<polygon fill="midnightblue" stroke="midnightblue" points="284.711,-66.9923 295.295,-67.4751 287.322,-60.4975 284.711,-66.9923"/>
</g>
</g>
</svg>
        <g id="navigator" transform="translate(0 0)" fill="#404254">
                <rect fill="#f2f5e9" fill-opacity="0.5" stroke="#606060" stroke-width=".5" x="0" y="0" width="60" height="60"/>
                <use id="zoomplus" xlink:href="#zoomPlus" x="17" y="9" onmousedown="handleZoom(evt,'in')"/>
                <use id="zoomminus" xlink:href="#zoomMin" x="42" y="9" onmousedown="handleZoom(evt,'out')"/>
                <use id="reset" xlink:href="#resetDef" x="30" y="36" onmousedown="handleReset()"/>
                <g id="arrowUp" xlink:href="#dirArrow" transform="translate(30 24)" onmousedown="handlePan(0,-1)">
                  <use xlink:href="#rim" fill="#404040">
                        <set attributeName="fill" to="#808080" begin="arrowUp.mouseover" end="arrowUp.mouseout"/>
                  </use>
                  <path fill="none" stroke="white" stroke-width="1.5" d="M0,-3.0v7 M-2.5,-0.5L0,-3.0L2.5,-0.5"/>
                </g>
                <g id="arrowRight" xlink:href="#dirArrow" transform="rotate(90) translate(36 -43)" onmousedown="handlePan(1,0)">
                  <use xlink:href="#rim" fill="#404040">
                        <set attributeName="fill" to="#808080" begin="arrowRight.mouseover" end="arrowRight.mouseout"/>
                  </use>
                  <path fill="none" stroke="white" stroke-width="1.5" d="M0,-3.0v7 M-2.5,-0.5L0,-3.0L2.5,-0.5"/>
                </g>
                <g id="arrowDown" xlink:href="#dirArrow" transform="rotate(180) translate(-30 -48)" onmousedown="handlePan(0,1)">
                  <use xlink:href="#rim" fill="#404040">
                        <set attributeName="fill" to="#808080" begin="arrowDown.mouseover" end="arrowDown.mouseout"/>
                  </use>
                  <path fill="none" stroke="white" stroke-width="1.5" d="M0,-3.0v7 M-2.5,-0.5L0,-3.0L2.5,-0.5"/>
                </g>
                <g id="arrowLeft" xlink:href="#dirArrow" transform="rotate(270) translate(-36 17)" onmousedown="handlePan(-1,0)">
                  <use xlink:href="#rim" fill="#404040">
                        <set attributeName="fill" to="#808080" begin="arrowLeft.mouseover" end="arrowLeft.mouseout"/>
                  </use>
                  <path fill="none" stroke="white" stroke-width="1.5" d="M0,-3.0v7 M-2.5,-0.5L0,-3.0L2.5,-0.5"/>
                </g>
        </g>
        <svg viewBox="0 0 15 15" width="100%" height="30px" preserveAspectRatio="xMaxYMin meet">
         <g id="arrow_out" transform="scale(0.3 0.3)">
          <a xlink:href="nsquare_8hpp__dep__incl_org.svg" target="_base">
           <rect id="button" ry="5" rx="5" y="6" x="6" height="38" width="38"
                fill="#f2f5e9" fill-opacity="0.5" stroke="#606060" stroke-width="1.0"/>
           <path id="arrow"
             d="M 11.500037,31.436501 C 11.940474,20.09759 22.043105,11.32322 32.158766,21.979434 L 37.068811,17.246167 C 37.068811,17.246167 37.088388,32 37.088388,32 L 22.160133,31.978069 C 22.160133,31.978069 26.997745,27.140456 26.997745,27.140456 C 18.528582,18.264221 13.291696,25.230495 11.500037,31.436501 z"
             style="fill:#404040;"/>
          </a>
         </g>
        </svg>
</svg>
