<?xml version="1.0" encoding="UTF-8" standalone="no"?>
<!DOCTYPE svg PUBLIC "-//W3C//DTD SVG 1.1//EN"
 "http://www.w3.org/Graphics/SVG/1.1/DTD/svg11.dtd">
<!-- Generated by graphviz version 2.38.0 (20140413.2041)
 -->
<!-- Title: overlap.cpp Pages: 1 -->
<svg width="861pt" height="532pt"
 viewBox="0.00 0.00 861.00 532.00" xmlns="http://www.w3.org/2000/svg" xmlns:xlink="http://www.w3.org/1999/xlink">
<g id="graph0" class="graph" transform="scale(1 1) rotate(0) translate(4 528)">
<title>overlap.cpp</title>
<!-- Node1 -->
<g id="node1" class="node"><title>Node1</title>
<polygon fill="#bfbfbf" stroke="black" points="485,-504.5 485,-523.5 559,-523.5 559,-504.5 485,-504.5"/>
<text text-anchor="middle" x="522" y="-511.5" font-family="Helvetica,sans-Serif" font-size="10.00">overlap.cpp</text>
</g>
<!-- Node2 -->
<g id="node2" class="node"><title>Node2</title>
<g id="a_node2"><a xlink:href="utils_8hpp.html" target="_top" xlink:title="Small functions that are useful not only for one modul. ">
<polygon fill="none" stroke="black" points="397.5,-168.5 397.5,-187.5 456.5,-187.5 456.5,-168.5 397.5,-168.5"/>
<text text-anchor="middle" x="427" y="-175.5" font-family="Helvetica,sans-Serif" font-size="10.00">utils.hpp</text>
</a>
</g>
</g>
<!-- Node1&#45;&gt;Node2 -->
<g id="edge1" class="edge"><title>Node1&#45;&gt;Node2</title>
<path fill="none" stroke="midnightblue" d="M559.054,-509.032C616.12,-500.643 719,-475.468 719,-403 719,-403 719,-403 719,-289 719,-235.73 546.663,-199.387 466.782,-185.403"/>
<polygon fill="midnightblue" stroke="midnightblue" points="467.054,-181.898 456.605,-183.655 465.869,-188.797 467.054,-181.898"/>
</g>
<!-- Node19 -->
<g id="node19" class="node"><title>Node19</title>
<g id="a_node19"><a xlink:href="overlap_8hpp.html" target="_top" xlink:title="Routines to calculate the energy and/or force for bonds, angles and dihedrals as a sum of N functions...">
<polygon fill="none" stroke="black" points="520,-448.5 520,-467.5 594,-467.5 594,-448.5 520,-448.5"/>
<text text-anchor="middle" x="557" y="-455.5" font-family="Helvetica,sans-Serif" font-size="10.00">overlap.hpp</text>
</a>
</g>
</g>
<!-- Node1&#45;&gt;Node19 -->
<g id="edge21" class="edge"><title>Node1&#45;&gt;Node19</title>
<path fill="none" stroke="midnightblue" d="M527.78,-504.083C532.672,-496.534 539.827,-485.495 545.833,-476.23"/>
<polygon fill="midnightblue" stroke="midnightblue" points="548.826,-478.046 551.328,-467.751 542.952,-474.239 548.826,-478.046"/>
</g>
<!-- Node21 -->
<g id="node21" class="node"><title>Node21</title>
<g id="a_node21"><a xlink:href="interaction__data_8hpp.html" target="_top" xlink:title="Various procedures concerning interactions between particles. ">
<polygon fill="none" stroke="black" points="423.5,-336.5 423.5,-355.5 540.5,-355.5 540.5,-336.5 423.5,-336.5"/>
<text text-anchor="middle" x="482" y="-343.5" font-family="Helvetica,sans-Serif" font-size="10.00">interaction_data.hpp</text>
</a>
</g>
</g>
<!-- Node1&#45;&gt;Node21 -->
<g id="edge45" class="edge"><title>Node1&#45;&gt;Node21</title>
<path fill="none" stroke="midnightblue" d="M519.88,-504.376C517.656,-495.32 514.065,-480.663 511,-468 502.182,-431.569 491.994,-388.934 486.345,-365.242"/>
<polygon fill="midnightblue" stroke="midnightblue" points="489.749,-364.428 484.026,-355.512 482.94,-366.051 489.749,-364.428"/>
</g>
<!-- Node25 -->
<g id="node25" class="node"><title>Node25</title>
<g id="a_node25"><a xlink:href="communication_8hpp.html" target="_top" xlink:title="This file contains the asynchronous MPI communication. ">
<polygon fill="none" stroke="black" points="255.5,-280.5 255.5,-299.5 368.5,-299.5 368.5,-280.5 255.5,-280.5"/>
<text text-anchor="middle" x="312" y="-287.5" font-family="Helvetica,sans-Serif" font-size="10.00">communication.hpp</text>
</a>
</g>
</g>
<!-- Node1&#45;&gt;Node25 -->
<g id="edge46" class="edge"><title>Node1&#45;&gt;Node25</title>
<path fill="none" stroke="midnightblue" d="M513.768,-504.297C482.279,-471.01 369.155,-351.421 327.521,-307.408"/>
<polygon fill="midnightblue" stroke="midnightblue" points="329.818,-304.743 320.404,-299.884 324.733,-309.554 329.818,-304.743"/>
</g>
<!-- Node3 -->
<g id="node3" class="node"><title>Node3</title>
<polygon fill="none" stroke="#bfbfbf" points="403.5,-112.5 403.5,-131.5 450.5,-131.5 450.5,-112.5 403.5,-112.5"/>
<text text-anchor="middle" x="427" y="-119.5" font-family="Helvetica,sans-Serif" font-size="10.00">cmath</text>
</g>
<!-- Node2&#45;&gt;Node3 -->
<g id="edge2" class="edge"><title>Node2&#45;&gt;Node3</title>
<path fill="none" stroke="midnightblue" d="M427,-168.083C427,-161.006 427,-150.861 427,-141.986"/>
<polygon fill="midnightblue" stroke="midnightblue" points="430.5,-141.751 427,-131.751 423.5,-141.751 430.5,-141.751"/>
</g>
<!-- Node4 -->
<g id="node4" class="node"><title>Node4</title>
<polygon fill="none" stroke="#bfbfbf" points="469,-112.5 469,-131.5 515,-131.5 515,-112.5 469,-112.5"/>
<text text-anchor="middle" x="492" y="-119.5" font-family="Helvetica,sans-Serif" font-size="10.00">cstdio</text>
</g>
<!-- Node2&#45;&gt;Node4 -->
<g id="edge3" class="edge"><title>Node2&#45;&gt;Node4</title>
<path fill="none" stroke="midnightblue" d="M437.443,-168.324C447.146,-160.263 461.815,-148.077 473.5,-138.369"/>
<polygon fill="midnightblue" stroke="midnightblue" points="475.911,-140.916 481.367,-131.834 471.438,-135.532 475.911,-140.916"/>
</g>
<!-- Node5 -->
<g id="node5" class="node"><title>Node5</title>
<polygon fill="none" stroke="#bfbfbf" points="533.5,-112.5 533.5,-131.5 582.5,-131.5 582.5,-112.5 533.5,-112.5"/>
<text text-anchor="middle" x="558" y="-119.5" font-family="Helvetica,sans-Serif" font-size="10.00">cstdlib</text>
</g>
<!-- Node2&#45;&gt;Node5 -->
<g id="edge4" class="edge"><title>Node2&#45;&gt;Node5</title>
<path fill="none" stroke="midnightblue" d="M447.757,-168.444C469.316,-159.557 503.263,-145.563 527.794,-135.451"/>
<polygon fill="midnightblue" stroke="midnightblue" points="529.428,-138.563 537.34,-131.516 526.761,-132.092 529.428,-138.563"/>
</g>
<!-- Node6 -->
<g id="node6" class="node"><title>Node6</title>
<polygon fill="none" stroke="#bfbfbf" points="128,-112.5 128,-131.5 178,-131.5 178,-112.5 128,-112.5"/>
<text text-anchor="middle" x="153" y="-119.5" font-family="Helvetica,sans-Serif" font-size="10.00">cstring</text>
</g>
<!-- Node2&#45;&gt;Node6 -->
<g id="edge5" class="edge"><title>Node2&#45;&gt;Node6</title>
<path fill="none" stroke="midnightblue" d="M397.251,-171.674C352.58,-163.593 265.567,-147.526 192,-132 190.738,-131.734 189.454,-131.459 188.158,-131.178"/>
<polygon fill="midnightblue" stroke="midnightblue" points="188.666,-127.705 178.144,-128.949 187.145,-134.538 188.666,-127.705"/>
</g>
<!-- Node7 -->
<g id="node7" class="node"><title>Node7</title>
<g id="a_node7"><a xlink:href="config_8hpp.html" target="_top" xlink:title="This file contains the defaults for Espresso. ">
<polygon fill="none" stroke="black" points="234.5,-56.5 234.5,-75.5 301.5,-75.5 301.5,-56.5 234.5,-56.5"/>
<text text-anchor="middle" x="268" y="-63.5" font-family="Helvetica,sans-Serif" font-size="10.00">config.hpp</text>
</a>
</g>
</g>
<!-- Node2&#45;&gt;Node7 -->
<g id="edge6" class="edge"><title>Node2&#45;&gt;Node7</title>
<path fill="none" stroke="midnightblue" d="M397.098,-174.81C346.219,-170.394 246.238,-158.49 225,-132 211.955,-115.729 230.206,-95.4882 246.796,-81.9563"/>
<polygon fill="midnightblue" stroke="midnightblue" points="249.344,-84.413 255.146,-75.548 245.082,-78.8599 249.344,-84.413"/>
</g>
<!-- Node11 -->
<g id="node11" class="node"><title>Node11</title>
<g id="a_node11"><a xlink:href="debug_8hpp.html" target="_top" xlink:title="This file controls debug facilities. ">
<polygon fill="none" stroke="black" points="234,-112.5 234,-131.5 302,-131.5 302,-112.5 234,-112.5"/>
<text text-anchor="middle" x="268" y="-119.5" font-family="Helvetica,sans-Serif" font-size="10.00">debug.hpp</text>
</a>
</g>
</g>
<!-- Node2&#45;&gt;Node11 -->
<g id="edge10" class="edge"><title>Node2&#45;&gt;Node11</title>
<path fill="none" stroke="midnightblue" d="M401.806,-168.444C375.057,-159.359 332.597,-144.939 302.695,-134.783"/>
<polygon fill="midnightblue" stroke="midnightblue" points="303.671,-131.418 293.076,-131.516 301.419,-138.046 303.671,-131.418"/>
</g>
<!-- Node12 -->
<g id="node12" class="node"><title>Node12</title>
<g id="a_node12"><a xlink:href="lees__edwards_8hpp.html" target="_top" xlink:title="lees_edwards.hpp">
<polygon fill="none" stroke="black" points="601,-112.5 601,-131.5 705,-131.5 705,-112.5 601,-112.5"/>
<text text-anchor="middle" x="653" y="-119.5" font-family="Helvetica,sans-Serif" font-size="10.00">lees_edwards.hpp</text>
</a>
</g>
</g>
<!-- Node2&#45;&gt;Node12 -->
<g id="edge12" class="edge"><title>Node2&#45;&gt;Node12</title>
<path fill="none" stroke="midnightblue" d="M456.546,-169.94C494.922,-160.771 562.313,-144.669 607.306,-133.918"/>
<polygon fill="midnightblue" stroke="midnightblue" points="608.195,-137.304 617.108,-131.576 606.568,-130.496 608.195,-137.304"/>
</g>
<!-- Node13 -->
<g id="node13" class="node"><title>Node13</title>
<g id="a_node13"><a xlink:href="errorhandling_8hpp.html" target="_top" xlink:title="This file contains the errorhandling code for severe errors, like a broken bond or illegal parameter ...">
<polygon fill="none" stroke="black" points="723.5,-112.5 723.5,-131.5 826.5,-131.5 826.5,-112.5 723.5,-112.5"/>
<text text-anchor="middle" x="775" y="-119.5" font-family="Helvetica,sans-Serif" font-size="10.00">errorhandling.hpp</text>
</a>
</g>
</g>
<!-- Node2&#45;&gt;Node13 -->
<g id="edge14" class="edge"><title>Node2&#45;&gt;Node13</title>
<path fill="none" stroke="midnightblue" d="M456.67,-172.396C513.263,-163.614 637.696,-144.306 713.136,-132.6"/>
<polygon fill="midnightblue" stroke="midnightblue" points="714.099,-135.992 723.444,-131 713.025,-129.075 714.099,-135.992"/>
</g>
<!-- Node17 -->
<g id="node17" class="node"><title>Node17</title>
<polygon fill="none" stroke="#bfbfbf" points="62.5,-112.5 62.5,-131.5 109.5,-131.5 109.5,-112.5 62.5,-112.5"/>
<text text-anchor="middle" x="86" y="-119.5" font-family="Helvetica,sans-Serif" font-size="10.00">vector</text>
</g>
<!-- Node2&#45;&gt;Node17 -->
<g id="edge19" class="edge"><title>Node2&#45;&gt;Node17</title>
<path fill="none" stroke="midnightblue" d="M397.489,-173.894C344.065,-168.014 227.636,-154.016 119.783,-131.928"/>
<polygon fill="midnightblue" stroke="midnightblue" points="120.213,-128.442 109.71,-129.835 118.789,-135.296 120.213,-128.442"/>
</g>
<!-- Node18 -->
<g id="node18" class="node"><title>Node18</title>
<polygon fill="none" stroke="#bfbfbf" points="320.5,-112.5 320.5,-131.5 385.5,-131.5 385.5,-112.5 320.5,-112.5"/>
<text text-anchor="middle" x="353" y="-119.5" font-family="Helvetica,sans-Serif" font-size="10.00">exception</text>
</g>
<!-- Node2&#45;&gt;Node18 -->
<g id="edge20" class="edge"><title>Node2&#45;&gt;Node18</title>
<path fill="none" stroke="midnightblue" d="M415.111,-168.324C403.85,-160.107 386.713,-147.602 373.291,-137.807"/>
<polygon fill="midnightblue" stroke="midnightblue" points="375.247,-134.901 365.106,-131.834 371.12,-140.556 375.247,-134.901"/>
</g>
<!-- Node8 -->
<g id="node8" class="node"><title>Node8</title>
<g id="a_node8"><a xlink:href="acconfig_8hpp.html" target="_top" xlink:title="acconfig.hpp">
<polygon fill="none" stroke="black" points="118,-0.5 118,-19.5 196,-19.5 196,-0.5 118,-0.5"/>
<text text-anchor="middle" x="157" y="-7.5" font-family="Helvetica,sans-Serif" font-size="10.00">acconfig.hpp</text>
</a>
</g>
</g>
<!-- Node7&#45;&gt;Node8 -->
<g id="edge7" class="edge"><title>Node7&#45;&gt;Node8</title>
<path fill="none" stroke="midnightblue" d="M250.166,-56.324C232.284,-47.6247 204.525,-34.1202 183.954,-24.113"/>
<polygon fill="midnightblue" stroke="midnightblue" points="185.313,-20.8819 174.79,-19.6545 182.251,-27.1765 185.313,-20.8819"/>
</g>
<!-- Node9 -->
<g id="node9" class="node"><title>Node9</title>
<g id="a_node9"><a xlink:href="myconfig-final_8hpp.html" target="_top" xlink:title="myconfig&#45;final.hpp">
<polygon fill="none" stroke="black" points="214.5,-0.5 214.5,-19.5 321.5,-19.5 321.5,-0.5 214.5,-0.5"/>
<text text-anchor="middle" x="268" y="-7.5" font-family="Helvetica,sans-Serif" font-size="10.00">myconfig&#45;final.hpp</text>
</a>
</g>
</g>
<!-- Node7&#45;&gt;Node9 -->
<g id="edge8" class="edge"><title>Node7&#45;&gt;Node9</title>
<path fill="none" stroke="midnightblue" d="M268,-56.083C268,-49.0059 268,-38.8611 268,-29.9865"/>
<polygon fill="midnightblue" stroke="midnightblue" points="271.5,-29.751 268,-19.7511 264.5,-29.7511 271.5,-29.751"/>
</g>
<!-- Node10 -->
<g id="node10" class="node"><title>Node10</title>
<g id="a_node10"><a xlink:href="config-features_8hpp.html" target="_top" xlink:title="config&#45;features.hpp">
<polygon fill="none" stroke="black" points="339.5,-0.5 339.5,-19.5 450.5,-19.5 450.5,-0.5 339.5,-0.5"/>
<text text-anchor="middle" x="395" y="-7.5" font-family="Helvetica,sans-Serif" font-size="10.00">config&#45;features.hpp</text>
</a>
</g>
</g>
<!-- Node7&#45;&gt;Node10 -->
<g id="edge9" class="edge"><title>Node7&#45;&gt;Node10</title>
<path fill="none" stroke="midnightblue" d="M288.124,-56.4435C309.024,-47.5566 341.935,-33.5632 365.716,-23.4514"/>
<polygon fill="midnightblue" stroke="midnightblue" points="367.138,-26.6504 374.971,-19.5164 364.398,-20.2085 367.138,-26.6504"/>
</g>
<!-- Node11&#45;&gt;Node7 -->
<g id="edge11" class="edge"><title>Node11&#45;&gt;Node7</title>
<path fill="none" stroke="midnightblue" d="M268,-112.083C268,-105.006 268,-94.8611 268,-85.9865"/>
<polygon fill="midnightblue" stroke="midnightblue" points="271.5,-85.751 268,-75.7511 264.5,-85.7511 271.5,-85.751"/>
</g>
<!-- Node12&#45;&gt;Node7 -->
<g id="edge13" class="edge"><title>Node12&#45;&gt;Node7</title>
<path fill="none" stroke="midnightblue" d="M600.908,-113.416C597.555,-112.935 594.23,-112.46 591,-112 491.382,-97.8304 374.412,-81.6473 312.191,-73.0751"/>
<polygon fill="midnightblue" stroke="midnightblue" points="312.34,-69.5627 301.956,-71.6656 311.385,-76.4972 312.34,-69.5627"/>
</g>
<!-- Node13&#45;&gt;Node7 -->
<g id="edge15" class="edge"><title>Node13&#45;&gt;Node7</title>
<path fill="none" stroke="midnightblue" d="M723.438,-113.223C720.246,-112.794 717.081,-112.382 714,-112 566.915,-93.739 391.837,-77.743 311.82,-70.7485"/>
<polygon fill="midnightblue" stroke="midnightblue" points="311.894,-67.2418 301.628,-69.8614 311.287,-74.2154 311.894,-67.2418"/>
</g>
<!-- Node14 -->
<g id="node14" class="node"><title>Node14</title>
<polygon fill="none" stroke="#bfbfbf" points="685,-56.5 685,-75.5 729,-75.5 729,-56.5 685,-56.5"/>
<text text-anchor="middle" x="707" y="-63.5" font-family="Helvetica,sans-Serif" font-size="10.00">string</text>
</g>
<!-- Node13&#45;&gt;Node14 -->
<g id="edge16" class="edge"><title>Node13&#45;&gt;Node14</title>
<path fill="none" stroke="midnightblue" d="M764.075,-112.324C753.825,-104.185 738.279,-91.8395 725.999,-82.0874"/>
<polygon fill="midnightblue" stroke="midnightblue" points="728.132,-79.3119 718.124,-75.8339 723.779,-84.7937 728.132,-79.3119"/>
</g>
<!-- Node15 -->
<g id="node15" class="node"><title>Node15</title>
<polygon fill="none" stroke="#bfbfbf" points="747,-56.5 747,-75.5 803,-75.5 803,-56.5 747,-56.5"/>
<text text-anchor="middle" x="775" y="-63.5" font-family="Helvetica,sans-Serif" font-size="10.00">sstream</text>
</g>
<!-- Node13&#45;&gt;Node15 -->
<g id="edge17" class="edge"><title>Node13&#45;&gt;Node15</title>
<path fill="none" stroke="midnightblue" d="M775,-112.083C775,-105.006 775,-94.8611 775,-85.9865"/>
<polygon fill="midnightblue" stroke="midnightblue" points="778.5,-85.751 775,-75.7511 771.5,-85.7511 778.5,-85.751"/>
</g>
<!-- Node16 -->
<g id="node16" class="node"><title>Node16</title>
<polygon fill="none" stroke="#bfbfbf" points="821,-56.5 821,-75.5 853,-75.5 853,-56.5 821,-56.5"/>
<text text-anchor="middle" x="837" y="-63.5" font-family="Helvetica,sans-Serif" font-size="10.00">list</text>
</g>
<!-- Node13&#45;&gt;Node16 -->
<g id="edge18" class="edge"><title>Node13&#45;&gt;Node16</title>
<path fill="none" stroke="midnightblue" d="M784.961,-112.324C794.127,-104.341 807.937,-92.3128 819.028,-82.6529"/>
<polygon fill="midnightblue" stroke="midnightblue" points="821.615,-85.041 826.857,-75.8339 817.018,-79.7624 821.615,-85.041"/>
</g>
<!-- Node20 -->
<g id="node20" class="node"><title>Node20</title>
<g id="a_node20"><a xlink:href="dihedral_8hpp.html" target="_top" xlink:title="Routines to calculate the dihedral energy or/and and force for a particle quadruple. ">
<polygon fill="none" stroke="black" points="538.5,-392.5 538.5,-411.5 615.5,-411.5 615.5,-392.5 538.5,-392.5"/>
<text text-anchor="middle" x="577" y="-399.5" font-family="Helvetica,sans-Serif" font-size="10.00">dihedral.hpp</text>
</a>
</g>
</g>
<!-- Node19&#45;&gt;Node20 -->
<g id="edge22" class="edge"><title>Node19&#45;&gt;Node20</title>
<path fill="none" stroke="midnightblue" d="M560.303,-448.083C562.982,-440.849 566.849,-430.409 570.186,-421.397"/>
<polygon fill="midnightblue" stroke="midnightblue" points="573.568,-422.344 573.759,-411.751 567.004,-419.913 573.568,-422.344"/>
</g>
<!-- Node20&#45;&gt;Node2 -->
<g id="edge23" class="edge"><title>Node20&#45;&gt;Node2</title>
<path fill="none" stroke="midnightblue" d="M591.078,-392.259C602.353,-384.355 617.346,-371.584 624,-356 637.265,-324.936 641.379,-308.964 624,-280 590.195,-223.658 513.687,-197.525 466.585,-186.379"/>
<polygon fill="midnightblue" stroke="midnightblue" points="467.245,-182.94 456.72,-184.162 465.709,-189.77 467.245,-182.94"/>
</g>
<!-- Node20&#45;&gt;Node21 -->
<g id="edge24" class="edge"><title>Node20&#45;&gt;Node21</title>
<path fill="none" stroke="midnightblue" d="M561.737,-392.324C546.779,-383.822 523.745,-370.729 506.273,-360.797"/>
<polygon fill="midnightblue" stroke="midnightblue" points="507.649,-357.553 497.226,-355.655 504.19,-363.639 507.649,-357.553"/>
</g>
<!-- Node23 -->
<g id="node23" class="node"><title>Node23</title>
<g id="a_node23"><a xlink:href="grid_8hpp.html" target="_top" xlink:title="Domain decomposition for parallel computing. ">
<polygon fill="none" stroke="black" points="559,-336.5 559,-355.5 615,-355.5 615,-336.5 559,-336.5"/>
<text text-anchor="middle" x="587" y="-343.5" font-family="Helvetica,sans-Serif" font-size="10.00">grid.hpp</text>
</a>
</g>
</g>
<!-- Node20&#45;&gt;Node23 -->
<g id="edge28" class="edge"><title>Node20&#45;&gt;Node23</title>
<path fill="none" stroke="midnightblue" d="M578.651,-392.083C579.976,-384.927 581.882,-374.635 583.539,-365.691"/>
<polygon fill="midnightblue" stroke="midnightblue" points="587,-366.221 585.379,-355.751 580.117,-364.947 587,-366.221"/>
</g>
<!-- Node21&#45;&gt;Node2 -->
<g id="edge25" class="edge"><title>Node21&#45;&gt;Node2</title>
<path fill="none" stroke="midnightblue" d="M484.075,-336.243C488.513,-315.53 497.123,-262.384 479,-224 473.106,-211.517 461.929,-201.13 451.442,-193.493"/>
<polygon fill="midnightblue" stroke="midnightblue" points="453.173,-190.438 442.928,-187.738 449.253,-196.238 453.173,-190.438"/>
</g>
<!-- Node22 -->
<g id="node22" class="node"><title>Node22</title>
<g id="a_node22"><a xlink:href="particle__data_8hpp.html" target="_top" xlink:title="For more information on particle_data, see particle_data.c. ">
<polygon fill="none" stroke="black" points="369.5,-224.5 369.5,-243.5 470.5,-243.5 470.5,-224.5 369.5,-224.5"/>
<text text-anchor="middle" x="420" y="-231.5" font-family="Helvetica,sans-Serif" font-size="10.00">particle_data.hpp</text>
</a>
</g>
</g>
<!-- Node21&#45;&gt;Node22 -->
<g id="edge26" class="edge"><title>Node21&#45;&gt;Node22</title>
<path fill="none" stroke="midnightblue" d="M477.135,-336.368C466.948,-318.296 443.209,-276.176 429.755,-252.307"/>
<polygon fill="midnightblue" stroke="midnightblue" points="432.802,-250.584 424.842,-243.591 426.704,-254.022 432.802,-250.584"/>
</g>
<!-- Node22&#45;&gt;Node2 -->
<g id="edge27" class="edge"><title>Node22&#45;&gt;Node2</title>
<path fill="none" stroke="midnightblue" d="M421.156,-224.083C422.084,-216.927 423.418,-206.635 424.577,-197.691"/>
<polygon fill="midnightblue" stroke="midnightblue" points="428.051,-198.118 425.866,-187.751 421.109,-197.218 428.051,-198.118"/>
</g>
<!-- Node23&#45;&gt;Node2 -->
<g id="edge29" class="edge"><title>Node23&#45;&gt;Node2</title>
<path fill="none" stroke="midnightblue" d="M580.837,-336.345C562.207,-310.237 507.14,-233.472 497,-224 483.789,-211.661 466.77,-200.633 452.821,-192.583"/>
<polygon fill="midnightblue" stroke="midnightblue" points="454.175,-189.331 443.739,-187.506 450.76,-195.441 454.175,-189.331"/>
</g>
<!-- Node23&#45;&gt;Node13 -->
<g id="edge44" class="edge"><title>Node23&#45;&gt;Node13</title>
<path fill="none" stroke="midnightblue" d="M594.37,-336.297C622.501,-303.079 723.412,-183.918 760.871,-139.684"/>
<polygon fill="midnightblue" stroke="midnightblue" points="763.685,-141.777 767.477,-131.884 758.343,-137.253 763.685,-141.777"/>
</g>
<!-- Node24 -->
<g id="node24" class="node"><title>Node24</title>
<polygon fill="none" stroke="#bfbfbf" points="565,-280.5 565,-299.5 615,-299.5 615,-280.5 565,-280.5"/>
<text text-anchor="middle" x="590" y="-287.5" font-family="Helvetica,sans-Serif" font-size="10.00">climits</text>
</g>
<!-- Node23&#45;&gt;Node24 -->
<g id="edge30" class="edge"><title>Node23&#45;&gt;Node24</title>
<path fill="none" stroke="midnightblue" d="M587.495,-336.083C587.889,-329.006 588.452,-318.861 588.945,-309.986"/>
<polygon fill="midnightblue" stroke="midnightblue" points="592.454,-309.93 589.514,-299.751 585.464,-309.542 592.454,-309.93"/>
</g>
<!-- Node23&#45;&gt;Node25 -->
<g id="edge31" class="edge"><title>Node23&#45;&gt;Node25</title>
<path fill="none" stroke="midnightblue" d="M558.81,-338.175C555.508,-337.419 552.183,-336.679 549,-336 488.198,-323.034 418.223,-309.975 370.156,-301.29"/>
<polygon fill="midnightblue" stroke="midnightblue" points="370.704,-297.832 360.242,-299.504 369.464,-304.721 370.704,-297.832"/>
</g>
<!-- Node25&#45;&gt;Node22 -->
<g id="edge32" class="edge"><title>Node25&#45;&gt;Node22</title>
<path fill="none" stroke="midnightblue" d="M329.352,-280.324C346.672,-271.664 373.515,-258.242 393.502,-248.249"/>
<polygon fill="midnightblue" stroke="midnightblue" points="395.312,-251.257 402.691,-243.655 392.181,-244.996 395.312,-251.257"/>
</g>
<!-- Node26 -->
<g id="node26" class="node"><title>Node26</title>
<g id="a_node26"><a xlink:href="random_8hpp.html" target="_top" xlink:title="A random generator. ">
<polygon fill="none" stroke="black" points="179.5,-224.5 179.5,-243.5 254.5,-243.5 254.5,-224.5 179.5,-224.5"/>
<text text-anchor="middle" x="217" y="-231.5" font-family="Helvetica,sans-Serif" font-size="10.00">random.hpp</text>
</a>
</g>
</g>
<!-- Node25&#45;&gt;Node26 -->
<g id="edge33" class="edge"><title>Node25&#45;&gt;Node26</title>
<path fill="none" stroke="midnightblue" d="M296.737,-280.324C281.779,-271.822 258.745,-258.729 241.273,-248.797"/>
<polygon fill="midnightblue" stroke="midnightblue" points="242.649,-245.553 232.226,-243.655 239.19,-251.639 242.649,-245.553"/>
</g>
<!-- Node27 -->
<g id="node27" class="node"><title>Node27</title>
<g id="a_node27"><a xlink:href="topology_8hpp.html" target="_top" xlink:title="This file contains functions for handling the system topology. ">
<polygon fill="none" stroke="black" points="272.5,-224.5 272.5,-243.5 351.5,-243.5 351.5,-224.5 272.5,-224.5"/>
<text text-anchor="middle" x="312" y="-231.5" font-family="Helvetica,sans-Serif" font-size="10.00">topology.hpp</text>
</a>
</g>
</g>
<!-- Node25&#45;&gt;Node27 -->
<g id="edge35" class="edge"><title>Node25&#45;&gt;Node27</title>
<path fill="none" stroke="midnightblue" d="M312,-280.083C312,-273.006 312,-262.861 312,-253.986"/>
<polygon fill="midnightblue" stroke="midnightblue" points="315.5,-253.751 312,-243.751 308.5,-253.751 315.5,-253.751"/>
</g>
<!-- Node28 -->
<g id="node28" class="node"><title>Node28</title>
<g id="a_node28"><a xlink:href="mpi_8h.html" target="_top" xlink:title="This is the MPIfake implementation. ">
<polygon fill="none" stroke="black" points="118,-224.5 118,-243.5 162,-243.5 162,-224.5 118,-224.5"/>
<text text-anchor="middle" x="140" y="-231.5" font-family="Helvetica,sans-Serif" font-size="10.00">mpi.h</text>
</a>
</g>
</g>
<!-- Node25&#45;&gt;Node28 -->
<g id="edge37" class="edge"><title>Node25&#45;&gt;Node28</title>
<path fill="none" stroke="midnightblue" d="M284.746,-280.444C254.146,-270.837 204.539,-255.262 172.09,-245.075"/>
<polygon fill="midnightblue" stroke="midnightblue" points="172.793,-241.627 162.204,-241.971 170.696,-248.306 172.793,-241.627"/>
</g>
<!-- Node32 -->
<g id="node32" class="node"><title>Node32</title>
<g id="a_node32"><a xlink:href="cuda__init_8hpp.html" target="_top" xlink:title="cuda_init.hpp">
<polygon fill="none" stroke="black" points="0,-168.5 0,-187.5 82,-187.5 82,-168.5 0,-168.5"/>
<text text-anchor="middle" x="41" y="-175.5" font-family="Helvetica,sans-Serif" font-size="10.00">cuda_init.hpp</text>
</a>
</g>
</g>
<!-- Node25&#45;&gt;Node32 -->
<g id="edge41" class="edge"><title>Node25&#45;&gt;Node32</title>
<path fill="none" stroke="midnightblue" d="M255.32,-284.704C212.946,-279.586 154.694,-268.402 109,-244 86.601,-232.038 66.3262,-210.629 53.858,-195.661"/>
<polygon fill="midnightblue" stroke="midnightblue" points="56.458,-193.309 47.462,-187.712 51.0043,-197.697 56.458,-193.309"/>
</g>
<!-- Node26&#45;&gt;Node2 -->
<g id="edge34" class="edge"><title>Node26&#45;&gt;Node2</title>
<path fill="none" stroke="midnightblue" d="M250.275,-224.444C287.512,-214.868 347.803,-199.365 387.427,-189.176"/>
<polygon fill="midnightblue" stroke="midnightblue" points="388.463,-192.524 397.276,-186.643 386.719,-185.744 388.463,-192.524"/>
</g>
<!-- Node27&#45;&gt;Node2 -->
<g id="edge36" class="edge"><title>Node27&#45;&gt;Node2</title>
<path fill="none" stroke="midnightblue" d="M330.222,-224.444C348.896,-215.675 378.156,-201.935 399.617,-191.858"/>
<polygon fill="midnightblue" stroke="midnightblue" points="401.299,-194.935 408.863,-187.516 398.324,-188.599 401.299,-194.935"/>
</g>
<!-- Node29 -->
<g id="node29" class="node"><title>Node29</title>
<polygon fill="none" stroke="#bfbfbf" points="100.5,-168.5 100.5,-187.5 153.5,-187.5 153.5,-168.5 100.5,-168.5"/>
<text text-anchor="middle" x="127" y="-175.5" font-family="Helvetica,sans-Serif" font-size="10.00">string.h</text>
</g>
<!-- Node28&#45;&gt;Node29 -->
<g id="edge38" class="edge"><title>Node28&#45;&gt;Node29</title>
<path fill="none" stroke="midnightblue" d="M137.853,-224.083C136.131,-216.927 133.653,-206.635 131.5,-197.691"/>
<polygon fill="midnightblue" stroke="midnightblue" points="134.85,-196.654 129.107,-187.751 128.045,-198.293 134.85,-196.654"/>
</g>
<!-- Node30 -->
<g id="node30" class="node"><title>Node30</title>
<polygon fill="none" stroke="#bfbfbf" points="172,-168.5 172,-187.5 222,-187.5 222,-168.5 172,-168.5"/>
<text text-anchor="middle" x="197" y="-175.5" font-family="Helvetica,sans-Serif" font-size="10.00">stdio.h</text>
</g>
<!-- Node28&#45;&gt;Node30 -->
<g id="edge39" class="edge"><title>Node28&#45;&gt;Node30</title>
<path fill="none" stroke="midnightblue" d="M149.158,-224.324C157.501,-216.42 170.032,-204.548 180.177,-194.938"/>
<polygon fill="midnightblue" stroke="midnightblue" points="182.823,-197.252 187.675,-187.834 178.009,-192.171 182.823,-197.252"/>
</g>
<!-- Node31 -->
<g id="node31" class="node"><title>Node31</title>
<polygon fill="none" stroke="#bfbfbf" points="240.5,-168.5 240.5,-187.5 293.5,-187.5 293.5,-168.5 240.5,-168.5"/>
<text text-anchor="middle" x="267" y="-175.5" font-family="Helvetica,sans-Serif" font-size="10.00">stdlib.h</text>
</g>
<!-- Node28&#45;&gt;Node31 -->
<g id="edge40" class="edge"><title>Node28&#45;&gt;Node31</title>
<path fill="none" stroke="midnightblue" d="M160.124,-224.444C181.024,-215.557 213.935,-201.563 237.716,-191.451"/>
<polygon fill="midnightblue" stroke="midnightblue" points="239.138,-194.65 246.971,-187.516 236.398,-188.208 239.138,-194.65"/>
</g>
<!-- Node32&#45;&gt;Node7 -->
<g id="edge42" class="edge"><title>Node32&#45;&gt;Node7</title>
<path fill="none" stroke="midnightblue" d="M39.813,-168.052C38.5028,-154.077 38.2481,-127.107 53,-112 76.3265,-88.1125 168.329,-75.8497 224.147,-70.4848"/>
<polygon fill="midnightblue" stroke="midnightblue" points="224.488,-73.9683 234.124,-69.5621 223.844,-66.998 224.488,-73.9683"/>
</g>
<!-- Node32&#45;&gt;Node17 -->
<g id="edge43" class="edge"><title>Node32&#45;&gt;Node17</title>
<path fill="none" stroke="midnightblue" d="M48.4308,-168.083C54.8527,-160.377 64.3056,-149.033 72.1225,-139.653"/>
<polygon fill="midnightblue" stroke="midnightblue" points="74.9943,-141.674 78.7074,-131.751 69.6168,-137.193 74.9943,-141.674"/>
</g>
</g>
</svg>
