<?xml version="1.0" encoding="UTF-8" standalone="no"?>
<!DOCTYPE svg PUBLIC "-//W3C//DTD SVG 1.1//EN"
 "http://www.w3.org/Graphics/SVG/1.1/DTD/svg11.dtd">
<!-- Generated by graphviz version 2.38.0 (20140413.2041)
 -->
<!-- Title: overlap_tcl.cpp Pages: 1 -->
<!--zoomable 532 -->
<svg id="main" version="1.1" xmlns="http://www.w3.org/2000/svg" xmlns:xlink="http://www.w3.org/1999/xlink" xml:space="preserve" onload="init(evt)">
<style type="text/css"><![CDATA[
.edge:hover path { stroke: red; }
.edge:hover polygon { stroke: red; fill: red; }
]]></style>
<script type="text/javascript"><![CDATA[
var edges = document.getElementsByTagName('g');
if (edges && edges.length) {
  for (var i=0;i<edges.length;i++) {
    if (edges[i].id.substr(0,4)=='edge') {
      edges[i].setAttribute('class','edge');
    }
  }
}
]]></script>
        <defs>
                <circle id="rim" cx="0" cy="0" r="7"/>
                <circle id="rim2" cx="0" cy="0" r="3.5"/>
                <g id="zoomPlus">
                        <use xlink:href="#rim" fill="#404040">
                                <set attributeName="fill" to="#808080" begin="zoomplus.mouseover" end="zoomplus.mouseout"/>
                        </use>
                        <path d="M-4,0h8M0,-4v8" fill="none" stroke="white" stroke-width="1.5" pointer-events="none"/>
                </g>
                <g id="zoomMin">
                        <use xlink:href="#rim" fill="#404040">
                                <set attributeName="fill" to="#808080" begin="zoomminus.mouseover" end="zoomminus.mouseout"/>
                        </use>
                        <path d="M-4,0h8" fill="none" stroke="white" stroke-width="1.5" pointer-events="none"/>
                </g>
                <g id="dirArrow">
                        <path fill="none" stroke="white" stroke-width="1.5" d="M0,-3.0v7 M-2.5,-0.5L0,-3.0L2.5,-0.5"/>
                </g>
               <g id="resetDef">
                       <use xlink:href="#rim2" fill="#404040">
                               <set attributeName="fill" to="#808080" begin="reset.mouseover" end="reset.mouseout"/>
                       </use>
               </g>
        </defs>

<script type="text/javascript">
var viewWidth = 889;
var viewHeight = 532;
var sectionId = 'dynsection-0';
</script>
<script xlink:href="svgpan.js"/>
<svg id="graph" class="graph">
<g id="viewport">
<title>overlap_tcl.cpp</title>
<!-- Node1 -->
<g id="node1" class="node"><title>Node1</title>
<polygon fill="#bfbfbf" stroke="black" points="130.5,-504.5 130.5,-523.5 221.5,-523.5 221.5,-504.5 130.5,-504.5"/>
<text text-anchor="middle" x="176" y="-511.5" font-family="Helvetica,sans-Serif" font-size="10.00">overlap_tcl.cpp</text>
</g>
<!-- Node2 -->
<g id="node2" class="node"><title>Node2</title>
<g id="a_node2"><a xlink:href="utils_8hpp.html" target="_top" xlink:title="Small functions that are useful not only for one modul. ">
<polygon fill="none" stroke="black" points="347.5,-168.5 347.5,-187.5 406.5,-187.5 406.5,-168.5 347.5,-168.5"/>
<text text-anchor="middle" x="377" y="-175.5" font-family="Helvetica,sans-Serif" font-size="10.00">utils.hpp</text>
</a>
</g>
</g>
<!-- Node1&#45;&gt;Node2 -->
<g id="edge1" class="edge"><title>Node1&#45;&gt;Node2</title>
<path fill="none" stroke="midnightblue" d="M172.359,-504.338C164.989,-485.996 149,-441.738 149,-403 149,-403 149,-403 149,-289 149,-206.569 271.385,-185.879 336.824,-180.708"/>
<polygon fill="midnightblue" stroke="midnightblue" points="337.462,-184.172 347.193,-179.98 336.973,-177.189 337.462,-184.172"/>
</g>
<!-- Node19 -->
<g id="node19" class="node"><title>Node19</title>
<g id="a_node19"><a xlink:href="interaction__data_8hpp.html" target="_top" xlink:title="Various procedures concerning interactions between particles. ">
<polygon fill="none" stroke="black" points="177.5,-336.5 177.5,-355.5 294.5,-355.5 294.5,-336.5 177.5,-336.5"/>
<text text-anchor="middle" x="236" y="-343.5" font-family="Helvetica,sans-Serif" font-size="10.00">interaction_data.hpp</text>
</a>
</g>
</g>
<!-- Node1&#45;&gt;Node19 -->
<g id="edge21" class="edge"><title>Node1&#45;&gt;Node19</title>
<path fill="none" stroke="midnightblue" d="M179.226,-504.075C188.711,-477.832 216.646,-400.545 229.452,-365.117"/>
<polygon fill="midnightblue" stroke="midnightblue" points="232.795,-366.162 232.903,-355.568 226.212,-363.783 232.795,-366.162"/>
</g>
<!-- Node21 -->
<g id="node21" class="node"><title>Node21</title>
<g id="a_node21"><a xlink:href="overlap__tcl_8hpp.html" target="_top" xlink:title="Tcl interface for overlap.hpp. ">
<polygon fill="none" stroke="black" points="29,-448.5 29,-467.5 121,-467.5 121,-448.5 29,-448.5"/>
<text text-anchor="middle" x="75" y="-455.5" font-family="Helvetica,sans-Serif" font-size="10.00">overlap_tcl.hpp</text>
</a>
</g>
</g>
<!-- Node1&#45;&gt;Node21 -->
<g id="edge25" class="edge"><title>Node1&#45;&gt;Node21</title>
<path fill="none" stroke="midnightblue" d="M159.773,-504.324C143.649,-495.703 118.7,-482.364 100.036,-472.386"/>
<polygon fill="midnightblue" stroke="midnightblue" points="101.656,-469.283 91.1871,-467.655 98.3556,-475.456 101.656,-469.283"/>
</g>
<!-- Node24 -->
<g id="node24" class="node"><title>Node24</title>
<g id="a_node24"><a xlink:href="overlap_8hpp.html" target="_top" xlink:title="Routines to calculate the energy and/or force for bonds, angles and dihedrals as a sum of N functions...">
<polygon fill="none" stroke="black" points="250,-448.5 250,-467.5 324,-467.5 324,-448.5 250,-448.5"/>
<text text-anchor="middle" x="287" y="-455.5" font-family="Helvetica,sans-Serif" font-size="10.00">overlap.hpp</text>
</a>
</g>
</g>
<!-- Node1&#45;&gt;Node24 -->
<g id="edge30" class="edge"><title>Node1&#45;&gt;Node24</title>
<path fill="none" stroke="midnightblue" d="M193.834,-504.324C211.716,-495.625 239.475,-482.12 260.046,-472.113"/>
<polygon fill="midnightblue" stroke="midnightblue" points="261.749,-475.177 269.21,-467.655 258.687,-468.882 261.749,-475.177"/>
</g>
<!-- Node3 -->
<g id="node3" class="node"><title>Node3</title>
<polygon fill="none" stroke="#bfbfbf" points="274.5,-112.5 274.5,-131.5 321.5,-131.5 321.5,-112.5 274.5,-112.5"/>
<text text-anchor="middle" x="298" y="-119.5" font-family="Helvetica,sans-Serif" font-size="10.00">cmath</text>
</g>
<!-- Node2&#45;&gt;Node3 -->
<g id="edge2" class="edge"><title>Node2&#45;&gt;Node3</title>
<path fill="none" stroke="midnightblue" d="M364.307,-168.324C352.099,-159.979 333.422,-147.212 318.997,-137.352"/>
<polygon fill="midnightblue" stroke="midnightblue" points="320.892,-134.408 310.661,-131.655 316.942,-140.187 320.892,-134.408"/>
</g>
<!-- Node4 -->
<g id="node4" class="node"><title>Node4</title>
<polygon fill="none" stroke="#bfbfbf" points="340,-112.5 340,-131.5 386,-131.5 386,-112.5 340,-112.5"/>
<text text-anchor="middle" x="363" y="-119.5" font-family="Helvetica,sans-Serif" font-size="10.00">cstdio</text>
</g>
<!-- Node2&#45;&gt;Node4 -->
<g id="edge3" class="edge"><title>Node2&#45;&gt;Node4</title>
<path fill="none" stroke="midnightblue" d="M374.688,-168.083C372.833,-160.927 370.165,-150.635 367.846,-141.691"/>
<polygon fill="midnightblue" stroke="midnightblue" points="371.166,-140.553 365.269,-131.751 364.391,-142.309 371.166,-140.553"/>
</g>
<!-- Node5 -->
<g id="node5" class="node"><title>Node5</title>
<polygon fill="none" stroke="#bfbfbf" points="404.5,-112.5 404.5,-131.5 453.5,-131.5 453.5,-112.5 404.5,-112.5"/>
<text text-anchor="middle" x="429" y="-119.5" font-family="Helvetica,sans-Serif" font-size="10.00">cstdlib</text>
</g>
<!-- Node2&#45;&gt;Node5 -->
<g id="edge4" class="edge"><title>Node2&#45;&gt;Node5</title>
<path fill="none" stroke="midnightblue" d="M385.587,-168.083C393.159,-160.22 404.378,-148.569 413.514,-139.081"/>
<polygon fill="midnightblue" stroke="midnightblue" points="416.158,-141.382 420.573,-131.751 411.115,-136.527 416.158,-141.382"/>
</g>
<!-- Node6 -->
<g id="node6" class="node"><title>Node6</title>
<polygon fill="none" stroke="#bfbfbf" points="0,-112.5 0,-131.5 50,-131.5 50,-112.5 0,-112.5"/>
<text text-anchor="middle" x="25" y="-119.5" font-family="Helvetica,sans-Serif" font-size="10.00">cstring</text>
</g>
<!-- Node2&#45;&gt;Node6 -->
<g id="edge5" class="edge"><title>Node2&#45;&gt;Node6</title>
<path fill="none" stroke="midnightblue" d="M347.428,-173.997C292.651,-168.182 171.571,-154.145 60.2259,-132.041"/>
<polygon fill="midnightblue" stroke="midnightblue" points="60.6671,-128.56 50.173,-130.018 59.2858,-135.422 60.6671,-128.56"/>
</g>
<!-- Node7 -->
<g id="node7" class="node"><title>Node7</title>
<g id="a_node7"><a xlink:href="config_8hpp.html" target="_top" xlink:title="This file contains the defaults for Espresso. ">
<polygon fill="none" stroke="black" points="510.5,-56.5 510.5,-75.5 577.5,-75.5 577.5,-56.5 510.5,-56.5"/>
<text text-anchor="middle" x="544" y="-63.5" font-family="Helvetica,sans-Serif" font-size="10.00">config.hpp</text>
</a>
</g>
</g>
<!-- Node2&#45;&gt;Node7 -->
<g id="edge6" class="edge"><title>Node2&#45;&gt;Node7</title>
<path fill="none" stroke="midnightblue" d="M395.457,-168.447C413.055,-160.013 440.052,-146.335 462,-132 485.572,-116.604 510.657,-96.0259 526.784,-82.1833"/>
<polygon fill="midnightblue" stroke="midnightblue" points="529.086,-84.8194 534.345,-75.6216 524.498,-79.5326 529.086,-84.8194"/>
</g>
<!-- Node11 -->
<g id="node11" class="node"><title>Node11</title>
<g id="a_node11"><a xlink:href="debug_8hpp.html" target="_top" xlink:title="This file controls debug facilities. ">
<polygon fill="none" stroke="black" points="510,-112.5 510,-131.5 578,-131.5 578,-112.5 510,-112.5"/>
<text text-anchor="middle" x="544" y="-119.5" font-family="Helvetica,sans-Serif" font-size="10.00">debug.hpp</text>
</a>
</g>
</g>
<!-- Node2&#45;&gt;Node11 -->
<g id="edge10" class="edge"><title>Node2&#45;&gt;Node11</title>
<path fill="none" stroke="midnightblue" d="M403.462,-168.444C431.678,-159.32 476.54,-144.813 507.968,-134.651"/>
<polygon fill="midnightblue" stroke="midnightblue" points="509.224,-137.923 517.662,-131.516 507.07,-131.263 509.224,-137.923"/>
</g>
<!-- Node12 -->
<g id="node12" class="node"><title>Node12</title>
<g id="a_node12"><a xlink:href="lees__edwards_8hpp.html" target="_top" xlink:title="lees_edwards.hpp">
<polygon fill="none" stroke="black" points="152,-112.5 152,-131.5 256,-131.5 256,-112.5 152,-112.5"/>
<text text-anchor="middle" x="204" y="-119.5" font-family="Helvetica,sans-Serif" font-size="10.00">lees_edwards.hpp</text>
</a>
</g>
</g>
<!-- Node2&#45;&gt;Node12 -->
<g id="edge12" class="edge"><title>Node2&#45;&gt;Node12</title>
<path fill="none" stroke="midnightblue" d="M349.588,-168.444C320.231,-159.28 273.481,-144.688 240.904,-134.519"/>
<polygon fill="midnightblue" stroke="midnightblue" points="241.873,-131.155 231.284,-131.516 239.787,-137.837 241.873,-131.155"/>
</g>
<!-- Node13 -->
<g id="node13" class="node"><title>Node13</title>
<g id="a_node13"><a xlink:href="errorhandling_8hpp.html" target="_top" xlink:title="This file contains the errorhandling code for severe errors, like a broken bond or illegal parameter ...">
<polygon fill="none" stroke="black" points="700.5,-112.5 700.5,-131.5 803.5,-131.5 803.5,-112.5 700.5,-112.5"/>
<text text-anchor="middle" x="752" y="-119.5" font-family="Helvetica,sans-Serif" font-size="10.00">errorhandling.hpp</text>
</a>
</g>
</g>
<!-- Node2&#45;&gt;Node13 -->
<g id="edge14" class="edge"><title>Node2&#45;&gt;Node13</title>
<path fill="none" stroke="midnightblue" d="M406.739,-172.718C467.791,-163.926 608.381,-143.681 690.084,-131.916"/>
<polygon fill="midnightblue" stroke="midnightblue" points="690.835,-135.344 700.234,-130.454 689.837,-128.415 690.835,-135.344"/>
</g>
<!-- Node17 -->
<g id="node17" class="node"><title>Node17</title>
<polygon fill="none" stroke="#bfbfbf" points="596.5,-112.5 596.5,-131.5 643.5,-131.5 643.5,-112.5 596.5,-112.5"/>
<text text-anchor="middle" x="620" y="-119.5" font-family="Helvetica,sans-Serif" font-size="10.00">vector</text>
</g>
<!-- Node2&#45;&gt;Node17 -->
<g id="edge19" class="edge"><title>Node2&#45;&gt;Node17</title>
<path fill="none" stroke="midnightblue" d="M406.678,-171.177C445.63,-163.419 516.334,-148.936 586.373,-132.045"/>
<polygon fill="midnightblue" stroke="midnightblue" points="587.356,-135.408 596.248,-129.646 585.704,-128.606 587.356,-135.408"/>
</g>
<!-- Node18 -->
<g id="node18" class="node"><title>Node18</title>
<polygon fill="none" stroke="#bfbfbf" points="68.5,-112.5 68.5,-131.5 133.5,-131.5 133.5,-112.5 68.5,-112.5"/>
<text text-anchor="middle" x="101" y="-119.5" font-family="Helvetica,sans-Serif" font-size="10.00">exception</text>
</g>
<!-- Node2&#45;&gt;Node18 -->
<g id="edge20" class="edge"><title>Node2&#45;&gt;Node18</title>
<path fill="none" stroke="midnightblue" d="M347.409,-171.517C304.793,-163.575 223.41,-148.241 143.753,-132.117"/>
<polygon fill="midnightblue" stroke="midnightblue" points="144.042,-128.605 133.545,-130.045 142.649,-135.465 144.042,-128.605"/>
</g>
<!-- Node8 -->
<g id="node8" class="node"><title>Node8</title>
<g id="a_node8"><a xlink:href="acconfig_8hpp.html" target="_top" xlink:title="acconfig.hpp">
<polygon fill="none" stroke="black" points="394,-0.5 394,-19.5 472,-19.5 472,-0.5 394,-0.5"/>
<text text-anchor="middle" x="433" y="-7.5" font-family="Helvetica,sans-Serif" font-size="10.00">acconfig.hpp</text>
</a>
</g>
</g>
<!-- Node7&#45;&gt;Node8 -->
<g id="edge7" class="edge"><title>Node7&#45;&gt;Node8</title>
<path fill="none" stroke="midnightblue" d="M526.166,-56.324C508.284,-47.6247 480.525,-34.1202 459.954,-24.113"/>
<polygon fill="midnightblue" stroke="midnightblue" points="461.313,-20.8819 450.79,-19.6545 458.251,-27.1765 461.313,-20.8819"/>
</g>
<!-- Node9 -->
<g id="node9" class="node"><title>Node9</title>
<g id="a_node9"><a xlink:href="myconfig-final_8hpp.html" target="_top" xlink:title="myconfig&#45;final.hpp">
<polygon fill="none" stroke="black" points="490.5,-0.5 490.5,-19.5 597.5,-19.5 597.5,-0.5 490.5,-0.5"/>
<text text-anchor="middle" x="544" y="-7.5" font-family="Helvetica,sans-Serif" font-size="10.00">myconfig&#45;final.hpp</text>
</a>
</g>
</g>
<!-- Node7&#45;&gt;Node9 -->
<g id="edge8" class="edge"><title>Node7&#45;&gt;Node9</title>
<path fill="none" stroke="midnightblue" d="M544,-56.083C544,-49.0059 544,-38.8611 544,-29.9865"/>
<polygon fill="midnightblue" stroke="midnightblue" points="547.5,-29.751 544,-19.7511 540.5,-29.7511 547.5,-29.751"/>
</g>
<!-- Node10 -->
<g id="node10" class="node"><title>Node10</title>
<g id="a_node10"><a xlink:href="config-features_8hpp.html" target="_top" xlink:title="config&#45;features.hpp">
<polygon fill="none" stroke="black" points="615.5,-0.5 615.5,-19.5 726.5,-19.5 726.5,-0.5 615.5,-0.5"/>
<text text-anchor="middle" x="671" y="-7.5" font-family="Helvetica,sans-Serif" font-size="10.00">config&#45;features.hpp</text>
</a>
</g>
</g>
<!-- Node7&#45;&gt;Node10 -->
<g id="edge9" class="edge"><title>Node7&#45;&gt;Node10</title>
<path fill="none" stroke="midnightblue" d="M564.124,-56.4435C585.024,-47.5566 617.935,-33.5632 641.716,-23.4514"/>
<polygon fill="midnightblue" stroke="midnightblue" points="643.138,-26.6504 650.971,-19.5164 640.398,-20.2085 643.138,-26.6504"/>
</g>
<!-- Node11&#45;&gt;Node7 -->
<g id="edge11" class="edge"><title>Node11&#45;&gt;Node7</title>
<path fill="none" stroke="midnightblue" d="M544,-112.083C544,-105.006 544,-94.8611 544,-85.9865"/>
<polygon fill="midnightblue" stroke="midnightblue" points="547.5,-85.751 544,-75.7511 540.5,-85.7511 547.5,-85.751"/>
</g>
<!-- Node12&#45;&gt;Node7 -->
<g id="edge13" class="edge"><title>Node12&#45;&gt;Node7</title>
<path fill="none" stroke="midnightblue" d="M256.009,-112.74C322.794,-102.133 437.519,-83.9117 500.116,-73.9697"/>
<polygon fill="midnightblue" stroke="midnightblue" points="500.742,-77.4144 510.069,-72.389 499.644,-70.501 500.742,-77.4144"/>
</g>
<!-- Node13&#45;&gt;Node7 -->
<g id="edge15" class="edge"><title>Node13&#45;&gt;Node7</title>
<path fill="none" stroke="midnightblue" d="M719.042,-112.444C683.213,-103.142 625.837,-88.246 586.609,-78.062"/>
<polygon fill="midnightblue" stroke="midnightblue" points="587.363,-74.6417 576.804,-75.5164 585.604,-81.4171 587.363,-74.6417"/>
</g>
<!-- Node14 -->
<g id="node14" class="node"><title>Node14</title>
<polygon fill="none" stroke="#bfbfbf" points="786,-56.5 786,-75.5 830,-75.5 830,-56.5 786,-56.5"/>
<text text-anchor="middle" x="808" y="-63.5" font-family="Helvetica,sans-Serif" font-size="10.00">string</text>
</g>
<!-- Node13&#45;&gt;Node14 -->
<g id="edge16" class="edge"><title>Node13&#45;&gt;Node14</title>
<path fill="none" stroke="midnightblue" d="M760.997,-112.324C769.194,-104.42 781.506,-92.5482 791.472,-82.9377"/>
<polygon fill="midnightblue" stroke="midnightblue" points="794.07,-85.2947 798.839,-75.8339 789.211,-80.2558 794.07,-85.2947"/>
</g>
<!-- Node15 -->
<g id="node15" class="node"><title>Node15</title>
<polygon fill="none" stroke="#bfbfbf" points="662,-56.5 662,-75.5 718,-75.5 718,-56.5 662,-56.5"/>
<text text-anchor="middle" x="690" y="-63.5" font-family="Helvetica,sans-Serif" font-size="10.00">sstream</text>
</g>
<!-- Node13&#45;&gt;Node15 -->
<g id="edge17" class="edge"><title>Node13&#45;&gt;Node15</title>
<path fill="none" stroke="midnightblue" d="M742.039,-112.324C732.873,-104.341 719.063,-92.3128 707.972,-82.6529"/>
<polygon fill="midnightblue" stroke="midnightblue" points="709.982,-79.7624 700.143,-75.8339 705.385,-85.041 709.982,-79.7624"/>
</g>
<!-- Node16 -->
<g id="node16" class="node"><title>Node16</title>
<polygon fill="none" stroke="#bfbfbf" points="736,-56.5 736,-75.5 768,-75.5 768,-56.5 736,-56.5"/>
<text text-anchor="middle" x="752" y="-63.5" font-family="Helvetica,sans-Serif" font-size="10.00">list</text>
</g>
<!-- Node13&#45;&gt;Node16 -->
<g id="edge18" class="edge"><title>Node13&#45;&gt;Node16</title>
<path fill="none" stroke="midnightblue" d="M752,-112.083C752,-105.006 752,-94.8611 752,-85.9865"/>
<polygon fill="midnightblue" stroke="midnightblue" points="755.5,-85.751 752,-75.7511 748.5,-85.7511 755.5,-85.751"/>
</g>
<!-- Node19&#45;&gt;Node2 -->
<g id="edge22" class="edge"><title>Node19&#45;&gt;Node2</title>
<path fill="none" stroke="midnightblue" d="M237.882,-336.284C242.932,-314.728 258.65,-258.196 291,-224 304.65,-209.572 323.961,-198.89 340.827,-191.564"/>
<polygon fill="midnightblue" stroke="midnightblue" points="342.488,-194.666 350.413,-187.635 339.833,-188.189 342.488,-194.666"/>
</g>
<!-- Node20 -->
<g id="node20" class="node"><title>Node20</title>
<g id="a_node20"><a xlink:href="particle__data_8hpp.html" target="_top" xlink:title="For more information on particle_data, see particle_data.c. ">
<polygon fill="none" stroke="black" points="333.5,-224.5 333.5,-243.5 434.5,-243.5 434.5,-224.5 333.5,-224.5"/>
<text text-anchor="middle" x="384" y="-231.5" font-family="Helvetica,sans-Serif" font-size="10.00">particle_data.hpp</text>
</a>
</g>
</g>
<!-- Node19&#45;&gt;Node20 -->
<g id="edge23" class="edge"><title>Node19&#45;&gt;Node20</title>
<path fill="none" stroke="midnightblue" d="M247.613,-336.368C272.794,-317.653 332.67,-273.151 364.044,-249.832"/>
<polygon fill="midnightblue" stroke="midnightblue" points="366.503,-252.366 372.441,-243.591 362.327,-246.748 366.503,-252.366"/>
</g>
<!-- Node20&#45;&gt;Node2 -->
<g id="edge24" class="edge"><title>Node20&#45;&gt;Node2</title>
<path fill="none" stroke="midnightblue" d="M382.844,-224.083C381.916,-216.927 380.582,-206.635 379.423,-197.691"/>
<polygon fill="midnightblue" stroke="midnightblue" points="382.891,-197.218 378.134,-187.751 375.949,-198.118 382.891,-197.218"/>
</g>
<!-- Node22 -->
<g id="node22" class="node"><title>Node22</title>
<g id="a_node22"><a xlink:href="parser_8hpp.html" target="_top" xlink:title="This file contains macros for parsing the parameters to the &#39;inter&#39; command. ">
<polygon fill="none" stroke="black" points="41,-224.5 41,-243.5 109,-243.5 109,-224.5 41,-224.5"/>
<text text-anchor="middle" x="75" y="-231.5" font-family="Helvetica,sans-Serif" font-size="10.00">parser.hpp</text>
</a>
</g>
</g>
<!-- Node21&#45;&gt;Node22 -->
<g id="edge26" class="edge"><title>Node21&#45;&gt;Node22</title>
<path fill="none" stroke="midnightblue" d="M75,-448.297C75,-415.633 75,-299.866 75,-253.957"/>
<polygon fill="midnightblue" stroke="midnightblue" points="78.5001,-253.884 75,-243.884 71.5001,-253.884 78.5001,-253.884"/>
</g>
<!-- Node22&#45;&gt;Node2 -->
<g id="edge27" class="edge"><title>Node22&#45;&gt;Node2</title>
<path fill="none" stroke="midnightblue" d="M109.056,-226.91C165.228,-216.867 277.029,-196.876 336.92,-186.167"/>
<polygon fill="midnightblue" stroke="midnightblue" points="337.896,-189.548 347.123,-184.342 336.663,-182.657 337.896,-189.548"/>
</g>
<!-- Node22&#45;&gt;Node6 -->
<g id="edge28" class="edge"><title>Node22&#45;&gt;Node6</title>
<path fill="none" stroke="midnightblue" d="M73.3732,-224.269C70.7886,-211.483 65.0868,-187.112 56,-168 51.2735,-158.059 44.4631,-147.885 38.4289,-139.731"/>
<polygon fill="midnightblue" stroke="midnightblue" points="41.1897,-137.58 32.321,-131.783 35.6393,-141.845 41.1897,-137.58"/>
</g>
<!-- Node23 -->
<g id="node23" class="node"><title>Node23</title>
<polygon fill="none" stroke="#bfbfbf" points="9,-168.5 9,-187.5 47,-187.5 47,-168.5 9,-168.5"/>
<text text-anchor="middle" x="28" y="-175.5" font-family="Helvetica,sans-Serif" font-size="10.00">tcl.h</text>
</g>
<!-- Node22&#45;&gt;Node23 -->
<g id="edge29" class="edge"><title>Node22&#45;&gt;Node23</title>
<path fill="none" stroke="midnightblue" d="M67.2389,-224.083C60.4632,-216.298 50.4568,-204.801 42.2449,-195.367"/>
<polygon fill="midnightblue" stroke="midnightblue" points="44.822,-192.996 35.6167,-187.751 39.5419,-197.592 44.822,-192.996"/>
</g>
<!-- Node25 -->
<g id="node25" class="node"><title>Node25</title>
<g id="a_node25"><a xlink:href="dihedral_8hpp.html" target="_top" xlink:title="Routines to calculate the dihedral energy or/and and force for a particle quadruple. ">
<polygon fill="none" stroke="black" points="266.5,-392.5 266.5,-411.5 343.5,-411.5 343.5,-392.5 266.5,-392.5"/>
<text text-anchor="middle" x="305" y="-399.5" font-family="Helvetica,sans-Serif" font-size="10.00">dihedral.hpp</text>
</a>
</g>
</g>
<!-- Node24&#45;&gt;Node25 -->
<g id="edge31" class="edge"><title>Node24&#45;&gt;Node25</title>
<path fill="none" stroke="midnightblue" d="M289.972,-448.083C292.384,-440.849 295.864,-430.409 298.868,-421.397"/>
<polygon fill="midnightblue" stroke="midnightblue" points="302.241,-422.345 302.083,-411.751 295.6,-420.131 302.241,-422.345"/>
</g>
<!-- Node25&#45;&gt;Node2 -->
<g id="edge32" class="edge"><title>Node25&#45;&gt;Node2</title>
<path fill="none" stroke="midnightblue" d="M305.09,-392.426C305.543,-361.192 308.238,-253.772 324,-224 330.685,-211.373 342.517,-200.803 353.309,-193.087"/>
<polygon fill="midnightblue" stroke="midnightblue" points="355.256,-195.995 361.622,-187.526 351.364,-190.177 355.256,-195.995"/>
</g>
<!-- Node25&#45;&gt;Node19 -->
<g id="edge33" class="edge"><title>Node25&#45;&gt;Node19</title>
<path fill="none" stroke="midnightblue" d="M293.914,-392.324C283.514,-384.185 267.739,-371.839 255.278,-362.087"/>
<polygon fill="midnightblue" stroke="midnightblue" points="257.32,-359.241 247.288,-355.834 253.006,-364.753 257.32,-359.241"/>
</g>
<!-- Node26 -->
<g id="node26" class="node"><title>Node26</title>
<g id="a_node26"><a xlink:href="grid_8hpp.html" target="_top" xlink:title="Domain decomposition for parallel computing. ">
<polygon fill="none" stroke="black" points="490,-336.5 490,-355.5 546,-355.5 546,-336.5 490,-336.5"/>
<text text-anchor="middle" x="518" y="-343.5" font-family="Helvetica,sans-Serif" font-size="10.00">grid.hpp</text>
</a>
</g>
</g>
<!-- Node25&#45;&gt;Node26 -->
<g id="edge34" class="edge"><title>Node25&#45;&gt;Node26</title>
<path fill="none" stroke="midnightblue" d="M338.75,-392.444C377.167,-382.704 439.775,-366.832 479.91,-356.657"/>
<polygon fill="midnightblue" stroke="midnightblue" points="481.016,-359.987 489.849,-354.137 479.296,-353.202 481.016,-359.987"/>
</g>
<!-- Node26&#45;&gt;Node2 -->
<g id="edge35" class="edge"><title>Node26&#45;&gt;Node2</title>
<path fill="none" stroke="midnightblue" d="M510.814,-336.323C503.631,-327.465 492.466,-313.182 484,-300 463.261,-267.707 468.696,-252.508 443,-224 431.718,-211.483 416.277,-200.71 403.167,-192.846"/>
<polygon fill="midnightblue" stroke="midnightblue" points="404.54,-189.598 394.125,-187.65 401.052,-195.668 404.54,-189.598"/>
</g>
<!-- Node26&#45;&gt;Node13 -->
<g id="edge50" class="edge"><title>Node26&#45;&gt;Node13</title>
<path fill="none" stroke="midnightblue" d="M546.008,-343.256C617.737,-337.061 807.29,-309.368 877,-188 894.408,-157.692 853.439,-140.967 813.838,-132.105"/>
<polygon fill="midnightblue" stroke="midnightblue" points="814.34,-128.634 803.836,-130.017 812.91,-135.486 814.34,-128.634"/>
</g>
<!-- Node27 -->
<g id="node27" class="node"><title>Node27</title>
<polygon fill="none" stroke="#bfbfbf" points="493,-280.5 493,-299.5 543,-299.5 543,-280.5 493,-280.5"/>
<text text-anchor="middle" x="518" y="-287.5" font-family="Helvetica,sans-Serif" font-size="10.00">climits</text>
</g>
<!-- Node26&#45;&gt;Node27 -->
<g id="edge36" class="edge"><title>Node26&#45;&gt;Node27</title>
<path fill="none" stroke="midnightblue" d="M518,-336.083C518,-329.006 518,-318.861 518,-309.986"/>
<polygon fill="midnightblue" stroke="midnightblue" points="521.5,-309.751 518,-299.751 514.5,-309.751 521.5,-309.751"/>
</g>
<!-- Node28 -->
<g id="node28" class="node"><title>Node28</title>
<g id="a_node28"><a xlink:href="communication_8hpp.html" target="_top" xlink:title="This file contains the asynchronous MPI communication. ">
<polygon fill="none" stroke="black" points="563.5,-280.5 563.5,-299.5 676.5,-299.5 676.5,-280.5 563.5,-280.5"/>
<text text-anchor="middle" x="620" y="-287.5" font-family="Helvetica,sans-Serif" font-size="10.00">communication.hpp</text>
</a>
</g>
</g>
<!-- Node26&#45;&gt;Node28 -->
<g id="edge37" class="edge"><title>Node26&#45;&gt;Node28</title>
<path fill="none" stroke="midnightblue" d="M534.388,-336.324C550.671,-327.703 575.867,-314.364 594.716,-304.386"/>
<polygon fill="midnightblue" stroke="midnightblue" points="596.452,-307.427 603.653,-299.655 593.177,-301.24 596.452,-307.427"/>
</g>
<!-- Node28&#45;&gt;Node20 -->
<g id="edge38" class="edge"><title>Node28&#45;&gt;Node20</title>
<path fill="none" stroke="midnightblue" d="M582.605,-280.444C541.608,-271.063 475.746,-255.993 431.216,-245.804"/>
<polygon fill="midnightblue" stroke="midnightblue" points="431.749,-242.335 421.22,-243.516 430.187,-249.159 431.749,-242.335"/>
</g>
<!-- Node29 -->
<g id="node29" class="node"><title>Node29</title>
<g id="a_node29"><a xlink:href="random_8hpp.html" target="_top" xlink:title="A random generator. ">
<polygon fill="none" stroke="black" points="491.5,-224.5 491.5,-243.5 566.5,-243.5 566.5,-224.5 491.5,-224.5"/>
<text text-anchor="middle" x="529" y="-231.5" font-family="Helvetica,sans-Serif" font-size="10.00">random.hpp</text>
</a>
</g>
</g>
<!-- Node28&#45;&gt;Node29 -->
<g id="edge39" class="edge"><title>Node28&#45;&gt;Node29</title>
<path fill="none" stroke="midnightblue" d="M605.379,-280.324C591.051,-271.822 568.987,-258.729 552.251,-248.797"/>
<polygon fill="midnightblue" stroke="midnightblue" points="553.97,-245.748 543.584,-243.655 550.398,-251.768 553.97,-245.748"/>
</g>
<!-- Node30 -->
<g id="node30" class="node"><title>Node30</title>
<g id="a_node30"><a xlink:href="topology_8hpp.html" target="_top" xlink:title="This file contains functions for handling the system topology. ">
<polygon fill="none" stroke="black" points="584.5,-224.5 584.5,-243.5 663.5,-243.5 663.5,-224.5 584.5,-224.5"/>
<text text-anchor="middle" x="624" y="-231.5" font-family="Helvetica,sans-Serif" font-size="10.00">topology.hpp</text>
</a>
</g>
</g>
<!-- Node28&#45;&gt;Node30 -->
<g id="edge41" class="edge"><title>Node28&#45;&gt;Node30</title>
<path fill="none" stroke="midnightblue" d="M620.661,-280.083C621.185,-273.006 621.936,-262.861 622.594,-253.986"/>
<polygon fill="midnightblue" stroke="midnightblue" points="626.103,-253.982 623.352,-243.751 619.123,-253.465 626.103,-253.982"/>
</g>
<!-- Node31 -->
<g id="node31" class="node"><title>Node31</title>
<g id="a_node31"><a xlink:href="mpi_8h.html" target="_top" xlink:title="This is the MPIfake implementation. ">
<polygon fill="none" stroke="black" points="723,-224.5 723,-243.5 767,-243.5 767,-224.5 723,-224.5"/>
<text text-anchor="middle" x="745" y="-231.5" font-family="Helvetica,sans-Serif" font-size="10.00">mpi.h</text>
</a>
</g>
</g>
<!-- Node28&#45;&gt;Node31 -->
<g id="edge43" class="edge"><title>Node28&#45;&gt;Node31</title>
<path fill="none" stroke="midnightblue" d="M639.807,-280.444C660.287,-271.596 692.483,-257.687 715.865,-247.586"/>
<polygon fill="midnightblue" stroke="midnightblue" points="717.494,-250.695 725.286,-243.516 714.718,-244.269 717.494,-250.695"/>
</g>
<!-- Node35 -->
<g id="node35" class="node"><title>Node35</title>
<g id="a_node35"><a xlink:href="cuda__init_8hpp.html" target="_top" xlink:title="cuda_init.hpp">
<polygon fill="none" stroke="black" points="575,-168.5 575,-187.5 657,-187.5 657,-168.5 575,-168.5"/>
<text text-anchor="middle" x="616" y="-175.5" font-family="Helvetica,sans-Serif" font-size="10.00">cuda_init.hpp</text>
</a>
</g>
</g>
<!-- Node28&#45;&gt;Node35 -->
<g id="edge47" class="edge"><title>Node28&#45;&gt;Node35</title>
<path fill="none" stroke="midnightblue" d="M635.606,-280.445C654.617,-268.806 682.931,-246.806 672,-224 665.747,-210.954 653.664,-200.492 642.318,-192.951"/>
<polygon fill="midnightblue" stroke="midnightblue" points="643.854,-189.787 633.502,-187.535 640.191,-195.752 643.854,-189.787"/>
</g>
<!-- Node29&#45;&gt;Node2 -->
<g id="edge40" class="edge"><title>Node29&#45;&gt;Node2</title>
<path fill="none" stroke="midnightblue" d="M504.915,-224.444C479.455,-215.399 439.106,-201.064 410.541,-190.916"/>
<polygon fill="midnightblue" stroke="midnightblue" points="411.567,-187.566 400.972,-187.516 409.223,-194.162 411.567,-187.566"/>
</g>
<!-- Node30&#45;&gt;Node2 -->
<g id="edge42" class="edge"><title>Node30&#45;&gt;Node2</title>
<path fill="none" stroke="midnightblue" d="M584.862,-224.444C538.829,-214.38 462.841,-197.767 416.606,-187.659"/>
<polygon fill="midnightblue" stroke="midnightblue" points="417.169,-184.199 406.652,-185.483 415.674,-191.038 417.169,-184.199"/>
</g>
<!-- Node32 -->
<g id="node32" class="node"><title>Node32</title>
<polygon fill="none" stroke="#bfbfbf" points="746.5,-168.5 746.5,-187.5 799.5,-187.5 799.5,-168.5 746.5,-168.5"/>
<text text-anchor="middle" x="773" y="-175.5" font-family="Helvetica,sans-Serif" font-size="10.00">string.h</text>
</g>
<!-- Node31&#45;&gt;Node32 -->
<g id="edge44" class="edge"><title>Node31&#45;&gt;Node32</title>
<path fill="none" stroke="midnightblue" d="M749.624,-224.083C753.456,-216.691 759.024,-205.953 763.765,-196.811"/>
<polygon fill="midnightblue" stroke="midnightblue" points="766.966,-198.24 768.462,-187.751 760.752,-195.018 766.966,-198.24"/>
</g>
<!-- Node33 -->
<g id="node33" class="node"><title>Node33</title>
<polygon fill="none" stroke="#bfbfbf" points="818,-168.5 818,-187.5 868,-187.5 868,-168.5 818,-168.5"/>
<text text-anchor="middle" x="843" y="-175.5" font-family="Helvetica,sans-Serif" font-size="10.00">stdio.h</text>
</g>
<!-- Node31&#45;&gt;Node33 -->
<g id="edge45" class="edge"><title>Node31&#45;&gt;Node33</title>
<path fill="none" stroke="midnightblue" d="M760.745,-224.324C776.319,-215.743 800.377,-202.486 818.459,-192.522"/>
<polygon fill="midnightblue" stroke="midnightblue" points="820.224,-195.546 827.294,-187.655 816.846,-189.415 820.224,-195.546"/>
</g>
<!-- Node34 -->
<g id="node34" class="node"><title>Node34</title>
<polygon fill="none" stroke="#bfbfbf" points="675.5,-168.5 675.5,-187.5 728.5,-187.5 728.5,-168.5 675.5,-168.5"/>
<text text-anchor="middle" x="702" y="-175.5" font-family="Helvetica,sans-Serif" font-size="10.00">stdlib.h</text>
</g>
<!-- Node31&#45;&gt;Node34 -->
<g id="edge46" class="edge"><title>Node31&#45;&gt;Node34</title>
<path fill="none" stroke="midnightblue" d="M737.899,-224.083C731.763,-216.377 722.73,-205.033 715.261,-195.653"/>
<polygon fill="midnightblue" stroke="midnightblue" points="717.936,-193.394 708.968,-187.751 712.46,-197.754 717.936,-193.394"/>
</g>
<!-- Node35&#45;&gt;Node7 -->
<g id="edge48" class="edge"><title>Node35&#45;&gt;Node7</title>
<path fill="none" stroke="midnightblue" d="M627.04,-168.323C641.85,-155.606 664.88,-131.32 652,-112 637.67,-90.5053 610.923,-79.2613 587.634,-73.388"/>
<polygon fill="midnightblue" stroke="midnightblue" points="588.098,-69.9048 577.573,-71.1176 586.557,-76.7331 588.098,-69.9048"/>
</g>
<!-- Node35&#45;&gt;Node17 -->
<g id="edge49" class="edge"><title>Node35&#45;&gt;Node17</title>
<path fill="none" stroke="midnightblue" d="M616.661,-168.083C617.185,-161.006 617.936,-150.861 618.594,-141.986"/>
<polygon fill="midnightblue" stroke="midnightblue" points="622.103,-141.982 619.352,-131.751 615.123,-141.465 622.103,-141.982"/>
</g>
</g>
</svg>
        <g id="navigator" transform="translate(0 0)" fill="#404254">
                <rect fill="#f2f5e9" fill-opacity="0.5" stroke="#606060" stroke-width=".5" x="0" y="0" width="60" height="60"/>
                <use id="zoomplus" xlink:href="#zoomPlus" x="17" y="9" onmousedown="handleZoom(evt,'in')"/>
                <use id="zoomminus" xlink:href="#zoomMin" x="42" y="9" onmousedown="handleZoom(evt,'out')"/>
                <use id="reset" xlink:href="#resetDef" x="30" y="36" onmousedown="handleReset()"/>
                <g id="arrowUp" xlink:href="#dirArrow" transform="translate(30 24)" onmousedown="handlePan(0,-1)">
                  <use xlink:href="#rim" fill="#404040">
                        <set attributeName="fill" to="#808080" begin="arrowUp.mouseover" end="arrowUp.mouseout"/>
                  </use>
                  <path fill="none" stroke="white" stroke-width="1.5" d="M0,-3.0v7 M-2.5,-0.5L0,-3.0L2.5,-0.5"/>
                </g>
                <g id="arrowRight" xlink:href="#dirArrow" transform="rotate(90) translate(36 -43)" onmousedown="handlePan(1,0)">
                  <use xlink:href="#rim" fill="#404040">
                        <set attributeName="fill" to="#808080" begin="arrowRight.mouseover" end="arrowRight.mouseout"/>
                  </use>
                  <path fill="none" stroke="white" stroke-width="1.5" d="M0,-3.0v7 M-2.5,-0.5L0,-3.0L2.5,-0.5"/>
                </g>
                <g id="arrowDown" xlink:href="#dirArrow" transform="rotate(180) translate(-30 -48)" onmousedown="handlePan(0,1)">
                  <use xlink:href="#rim" fill="#404040">
                        <set attributeName="fill" to="#808080" begin="arrowDown.mouseover" end="arrowDown.mouseout"/>
                  </use>
                  <path fill="none" stroke="white" stroke-width="1.5" d="M0,-3.0v7 M-2.5,-0.5L0,-3.0L2.5,-0.5"/>
                </g>
                <g id="arrowLeft" xlink:href="#dirArrow" transform="rotate(270) translate(-36 17)" onmousedown="handlePan(-1,0)">
                  <use xlink:href="#rim" fill="#404040">
                        <set attributeName="fill" to="#808080" begin="arrowLeft.mouseover" end="arrowLeft.mouseout"/>
                  </use>
                  <path fill="none" stroke="white" stroke-width="1.5" d="M0,-3.0v7 M-2.5,-0.5L0,-3.0L2.5,-0.5"/>
                </g>
        </g>
        <svg viewBox="0 0 15 15" width="100%" height="30px" preserveAspectRatio="xMaxYMin meet">
         <g id="arrow_out" transform="scale(0.3 0.3)">
          <a xlink:href="overlap__tcl_8cpp__incl_org.svg" target="_base">
           <rect id="button" ry="5" rx="5" y="6" x="6" height="38" width="38"
                fill="#f2f5e9" fill-opacity="0.5" stroke="#606060" stroke-width="1.0"/>
           <path id="arrow"
             d="M 11.500037,31.436501 C 11.940474,20.09759 22.043105,11.32322 32.158766,21.979434 L 37.068811,17.246167 C 37.068811,17.246167 37.088388,32 37.088388,32 L 22.160133,31.978069 C 22.160133,31.978069 26.997745,27.140456 26.997745,27.140456 C 18.528582,18.264221 13.291696,25.230495 11.500037,31.436501 z"
             style="fill:#404040;"/>
          </a>
         </g>
        </svg>
</svg>
