<?xml version="1.0" encoding="UTF-8" standalone="no"?>
<!DOCTYPE svg PUBLIC "-//W3C//DTD SVG 1.1//EN"
 "http://www.w3.org/Graphics/SVG/1.1/DTD/svg11.dtd">
<!-- Generated by graphviz version 2.38.0 (20140413.2041)
 -->
<!-- Title: overlap.hpp Pages: 1 -->
<svg width="2284pt" height="207pt"
 viewBox="0.00 0.00 2284.00 207.00" xmlns="http://www.w3.org/2000/svg" xmlns:xlink="http://www.w3.org/1999/xlink">
<g id="graph0" class="graph" transform="scale(1 1) rotate(0) translate(4 203)">
<title>overlap.hpp</title>
<!-- Node1 -->
<g id="node1" class="node"><title>Node1</title>
<polygon fill="#bfbfbf" stroke="black" points="2008,-179.5 2008,-198.5 2082,-198.5 2082,-179.5 2008,-179.5"/>
<text text-anchor="middle" x="2045" y="-186.5" font-family="Helvetica,sans-Serif" font-size="10.00">overlap.hpp</text>
</g>
<!-- Node2 -->
<g id="node2" class="node"><title>Node2</title>
<g id="a_node2"><a xlink:href="forces__inline_8hpp.html" target="_top" xlink:title="forces_inline.hpp">
<polygon fill="none" stroke="black" points="1128,-123.5 1128,-142.5 1228,-142.5 1228,-123.5 1128,-123.5"/>
<text text-anchor="middle" x="1178" y="-130.5" font-family="Helvetica,sans-Serif" font-size="10.00">forces_inline.hpp</text>
</a>
</g>
</g>
<!-- Node1&#45;&gt;Node2 -->
<g id="edge1" class="edge"><title>Node1&#45;&gt;Node2</title>
<path fill="none" stroke="midnightblue" d="M1997.47,-185.039C1847.01,-175.669 1382.12,-146.713 1228.12,-137.122"/>
<polygon fill="midnightblue" stroke="midnightblue" points="1997.55,-188.551 2007.75,-185.68 1997.98,-181.565 1997.55,-188.551"/>
</g>
<!-- Node4 -->
<g id="node4" class="node"><title>Node4</title>
<g id="a_node4"><a xlink:href="communication_8cpp.html" target="_top" xlink:title="communication.cpp">
<polygon fill="none" stroke="black" points="2028.5,-6 2028.5,-25 2141.5,-25 2141.5,-6 2028.5,-6"/>
<text text-anchor="middle" x="2085" y="-13" font-family="Helvetica,sans-Serif" font-size="10.00">communication.cpp</text>
</a>
</g>
</g>
<!-- Node1&#45;&gt;Node4 -->
<g id="edge28" class="edge"><title>Node1&#45;&gt;Node4</title>
<path fill="none" stroke="midnightblue" d="M2042.64,-169.545C2040.24,-145.309 2038.34,-101.76 2050,-67 2055.5,-50.6165 2068.05,-34.7456 2076.53,-25.2993"/>
<polygon fill="midnightblue" stroke="midnightblue" points="2039.17,-169.951 2043.77,-179.494 2046.12,-169.164 2039.17,-169.951"/>
</g>
<!-- Node10 -->
<g id="node10" class="node"><title>Node10</title>
<g id="a_node10"><a xlink:href="interaction__data_8cpp.html" target="_top" xlink:title="Implementation of interaction_data.hpp. ">
<polygon fill="none" stroke="black" points="2160,-6 2160,-25 2276,-25 2276,-6 2160,-6"/>
<text text-anchor="middle" x="2218" y="-13" font-family="Helvetica,sans-Serif" font-size="10.00">interaction_data.cpp</text>
</a>
</g>
</g>
<!-- Node1&#45;&gt;Node10 -->
<g id="edge36" class="edge"><title>Node1&#45;&gt;Node10</title>
<path fill="none" stroke="midnightblue" d="M2053.22,-170.011C2060.02,-156.262 2070.56,-137.303 2083,-123 2120.62,-79.7559 2177.75,-41.4717 2203.96,-25.0324"/>
<polygon fill="midnightblue" stroke="midnightblue" points="2049.91,-168.812 2048.78,-179.346 2056.23,-171.819 2049.91,-168.812"/>
</g>
<!-- Node26 -->
<g id="node26" class="node"><title>Node26</title>
<g id="a_node26"><a xlink:href="energy__inline_8hpp.html" target="_top" xlink:title="Implementation of the energy calculation. ">
<polygon fill="none" stroke="black" points="341,-67.5 341,-86.5 445,-86.5 445,-67.5 341,-67.5"/>
<text text-anchor="middle" x="393" y="-74.5" font-family="Helvetica,sans-Serif" font-size="10.00">energy_inline.hpp</text>
</a>
</g>
</g>
<!-- Node1&#45;&gt;Node26 -->
<g id="edge29" class="edge"><title>Node1&#45;&gt;Node26</title>
<path fill="none" stroke="midnightblue" d="M1997.82,-186.387C1861.52,-181.58 1455.46,-166.228 1119,-143 866.194,-125.547 564.667,-95.6265 445.328,-83.4222"/>
<polygon fill="midnightblue" stroke="midnightblue" points="1997.8,-189.888 2007.92,-186.741 1998.05,-182.892 1997.8,-189.888"/>
</g>
<!-- Node28 -->
<g id="node28" class="node"><title>Node28</title>
<g id="a_node28"><a xlink:href="overlap_8cpp.html" target="_top" xlink:title="Implementation of overlap.hpp. ">
<polygon fill="none" stroke="black" points="2092,-123.5 2092,-142.5 2166,-142.5 2166,-123.5 2092,-123.5"/>
<text text-anchor="middle" x="2129" y="-130.5" font-family="Helvetica,sans-Serif" font-size="10.00">overlap.cpp</text>
</a>
</g>
</g>
<!-- Node1&#45;&gt;Node28 -->
<g id="edge37" class="edge"><title>Node1&#45;&gt;Node28</title>
<path fill="none" stroke="midnightblue" d="M2066.93,-173.901C2082.34,-163.999 2102.45,-151.071 2115.54,-142.655"/>
<polygon fill="midnightblue" stroke="midnightblue" points="2065.02,-170.972 2058.5,-179.324 2068.8,-176.86 2065.02,-170.972"/>
</g>
<!-- Node29 -->
<g id="node29" class="node"><title>Node29</title>
<g id="a_node29"><a xlink:href="overlap__tcl_8cpp.html" target="_top" xlink:title="Implementation of overlap_tcl.hpp. ">
<polygon fill="none" stroke="black" points="2184.5,-123.5 2184.5,-142.5 2275.5,-142.5 2275.5,-123.5 2184.5,-123.5"/>
<text text-anchor="middle" x="2230" y="-130.5" font-family="Helvetica,sans-Serif" font-size="10.00">overlap_tcl.cpp</text>
</a>
</g>
</g>
<!-- Node1&#45;&gt;Node29 -->
<g id="edge38" class="edge"><title>Node1&#45;&gt;Node29</title>
<path fill="none" stroke="midnightblue" d="M2084.17,-176.568C2119.07,-166.381 2169.35,-151.703 2200.82,-142.516"/>
<polygon fill="midnightblue" stroke="midnightblue" points="2082.93,-173.282 2074.31,-179.444 2084.89,-180.001 2082.93,-173.282"/>
</g>
<!-- Node3 -->
<g id="node3" class="node"><title>Node3</title>
<g id="a_node3"><a xlink:href="pressure_8hpp.html" target="_top" xlink:title="Pressure calculation. ">
<polygon fill="none" stroke="black" points="1138,-67.5 1138,-86.5 1218,-86.5 1218,-67.5 1138,-67.5"/>
<text text-anchor="middle" x="1178" y="-74.5" font-family="Helvetica,sans-Serif" font-size="10.00">pressure.hpp</text>
</a>
</g>
</g>
<!-- Node2&#45;&gt;Node3 -->
<g id="edge2" class="edge"><title>Node2&#45;&gt;Node3</title>
<path fill="none" stroke="midnightblue" d="M1178,-112.805C1178,-103.91 1178,-93.7798 1178,-86.7511"/>
<polygon fill="midnightblue" stroke="midnightblue" points="1174.5,-113.083 1178,-123.083 1181.5,-113.083 1174.5,-113.083"/>
</g>
<!-- Node11 -->
<g id="node11" class="node"><title>Node11</title>
<g id="a_node11"><a xlink:href="layered_8cpp.html" target="_top" xlink:title="Implementation of layered.h. ">
<polygon fill="none" stroke="black" points="444,-6 444,-25 518,-25 518,-6 444,-6"/>
<text text-anchor="middle" x="481" y="-13" font-family="Helvetica,sans-Serif" font-size="10.00">layered.cpp</text>
</a>
</g>
</g>
<!-- Node2&#45;&gt;Node11 -->
<g id="edge27" class="edge"><title>Node2&#45;&gt;Node11</title>
<path fill="none" stroke="midnightblue" d="M1117.61,-125.727C1001.95,-113.032 741.594,-81.1639 527,-31 519.988,-29.3608 512.496,-27.1866 505.637,-25.0218"/>
<polygon fill="midnightblue" stroke="midnightblue" points="1117.36,-129.221 1127.68,-126.824 1118.12,-122.262 1117.36,-129.221"/>
</g>
<!-- Node20 -->
<g id="node20" class="node"><title>Node20</title>
<g id="a_node20"><a xlink:href="minimize__energy_8hpp.html" target="_top" xlink:title="minimize_energy.hpp">
<polygon fill="none" stroke="black" points="1672.5,-67.5 1672.5,-86.5 1793.5,-86.5 1793.5,-67.5 1672.5,-67.5"/>
<text text-anchor="middle" x="1733" y="-74.5" font-family="Helvetica,sans-Serif" font-size="10.00">minimize_energy.hpp</text>
</a>
</g>
</g>
<!-- Node2&#45;&gt;Node20 -->
<g id="edge19" class="edge"><title>Node2&#45;&gt;Node20</title>
<path fill="none" stroke="midnightblue" d="M1238.51,-126.113C1345.24,-115.728 1565.74,-94.274 1672.48,-83.8884"/>
<polygon fill="midnightblue" stroke="midnightblue" points="1237.85,-122.661 1228.23,-127.113 1238.52,-129.628 1237.85,-122.661"/>
</g>
<!-- Node23 -->
<g id="node23" class="node"><title>Node23</title>
<g id="a_node23"><a xlink:href="constraint_8cpp.html" target="_top" xlink:title="Implementation of constraint.hpp, here it&#39;s just the parsing stuff. ">
<polygon fill="none" stroke="black" points="0,-6 0,-25 86,-25 86,-6 0,-6"/>
<text text-anchor="middle" x="43" y="-13" font-family="Helvetica,sans-Serif" font-size="10.00">constraint.cpp</text>
</a>
</g>
</g>
<!-- Node2&#45;&gt;Node23 -->
<g id="edge24" class="edge"><title>Node2&#45;&gt;Node23</title>
<path fill="none" stroke="midnightblue" d="M1117.59,-132.48C978.312,-132.782 624.238,-128.954 332,-87 234.359,-72.9826 121.543,-40.6376 70.5486,-25.116"/>
<polygon fill="midnightblue" stroke="midnightblue" points="1117.64,-135.98 1127.63,-132.45 1117.62,-128.98 1117.64,-135.98"/>
</g>
<!-- Node24 -->
<g id="node24" class="node"><title>Node24</title>
<g id="a_node24"><a xlink:href="forces_8cpp.html" target="_top" xlink:title="Force calculation. ">
<polygon fill="none" stroke="black" points="1052.5,-67.5 1052.5,-86.5 1119.5,-86.5 1119.5,-67.5 1052.5,-67.5"/>
<text text-anchor="middle" x="1086" y="-74.5" font-family="Helvetica,sans-Serif" font-size="10.00">forces.cpp</text>
</a>
</g>
</g>
<!-- Node2&#45;&gt;Node24 -->
<g id="edge25" class="edge"><title>Node2&#45;&gt;Node24</title>
<path fill="none" stroke="midnightblue" d="M1154.45,-118.177C1137.52,-108.241 1115.22,-95.1492 1100.74,-86.6545"/>
<polygon fill="midnightblue" stroke="midnightblue" points="1152.82,-121.28 1163.22,-123.324 1156.37,-115.243 1152.82,-121.28"/>
</g>
<!-- Node25 -->
<g id="node25" class="node"><title>Node25</title>
<g id="a_node25"><a xlink:href="ghosts_8cpp.html" target="_top" xlink:title="Ghost particles and particle exchange. ">
<polygon fill="none" stroke="black" points="1811.5,-67.5 1811.5,-86.5 1880.5,-86.5 1880.5,-67.5 1811.5,-67.5"/>
<text text-anchor="middle" x="1846" y="-74.5" font-family="Helvetica,sans-Serif" font-size="10.00">ghosts.cpp</text>
</a>
</g>
</g>
<!-- Node2&#45;&gt;Node25 -->
<g id="edge26" class="edge"><title>Node2&#45;&gt;Node25</title>
<path fill="none" stroke="midnightblue" d="M1238.45,-130.247C1350.19,-126.428 1596.45,-115.312 1802,-87 1805.09,-86.5744 1808.29,-86.0621 1811.49,-85.5006"/>
<polygon fill="midnightblue" stroke="midnightblue" points="1238.26,-126.751 1228.38,-130.583 1238.49,-133.747 1238.26,-126.751"/>
</g>
<!-- Node3&#45;&gt;Node4 -->
<g id="edge3" class="edge"><title>Node3&#45;&gt;Node4</title>
<path fill="none" stroke="midnightblue" d="M1228.16,-76.1543C1358.97,-75.9437 1720.99,-71.4342 2019,-31 2029.58,-29.5646 2040.98,-27.3175 2051.27,-25.0172"/>
<polygon fill="midnightblue" stroke="midnightblue" points="1228.05,-72.6543 1218.05,-76.1626 1228.06,-79.6543 1228.05,-72.6543"/>
</g>
<!-- Node5 -->
<g id="node5" class="node"><title>Node5</title>
<g id="a_node5"><a xlink:href="domain__decomposition_8cpp.html" target="_top" xlink:title="This file contains everything related to the cell system: domain decomposition. ">
<polygon fill="none" stroke="black" points="191.5,-6 191.5,-25 342.5,-25 342.5,-6 191.5,-6"/>
<text text-anchor="middle" x="267" y="-13" font-family="Helvetica,sans-Serif" font-size="10.00">domain_decomposition.cpp</text>
</a>
</g>
</g>
<!-- Node3&#45;&gt;Node5 -->
<g id="edge4" class="edge"><title>Node3&#45;&gt;Node5</title>
<path fill="none" stroke="midnightblue" d="M1128.3,-67.0345C1128.2,-67.0229 1128.1,-67.0114 1128,-67 784.47,-28.2948 694.667,-68.4754 351,-31 337.759,-29.5562 323.446,-27.3354 310.452,-25.0624"/>
<polygon fill="midnightblue" stroke="midnightblue" points="1127.58,-70.4688 1137.95,-68.3118 1128.5,-63.5294 1127.58,-70.4688"/>
</g>
<!-- Node6 -->
<g id="node6" class="node"><title>Node6</title>
<g id="a_node6"><a xlink:href="elc_8cpp.html" target="_top" xlink:title="For more information about ELC, see elc.hpp. ">
<polygon fill="none" stroke="black" points="1255.5,-6 1255.5,-25 1306.5,-25 1306.5,-6 1255.5,-6"/>
<text text-anchor="middle" x="1281" y="-13" font-family="Helvetica,sans-Serif" font-size="10.00">elc.cpp</text>
</a>
</g>
</g>
<!-- Node3&#45;&gt;Node6 -->
<g id="edge5" class="edge"><title>Node3&#45;&gt;Node6</title>
<path fill="none" stroke="midnightblue" d="M1201.54,-62.4006C1221.46,-50.8957 1249.38,-34.7667 1266.27,-25.0091"/>
<polygon fill="midnightblue" stroke="midnightblue" points="1199.67,-59.4423 1192.76,-67.4751 1203.17,-65.5036 1199.67,-59.4423"/>
</g>
<!-- Node7 -->
<g id="node7" class="node"><title>Node7</title>
<g id="a_node7"><a xlink:href="initialize_8cpp.html" target="_top" xlink:title="Implementation of initialize.hpp. ">
<polygon fill="none" stroke="black" points="1324.5,-6 1324.5,-25 1403.5,-25 1403.5,-6 1324.5,-6"/>
<text text-anchor="middle" x="1364" y="-13" font-family="Helvetica,sans-Serif" font-size="10.00">initialize.cpp</text>
</a>
</g>
</g>
<!-- Node3&#45;&gt;Node7 -->
<g id="edge6" class="edge"><title>Node3&#45;&gt;Node7</title>
<path fill="none" stroke="midnightblue" d="M1214.32,-64.3806C1250.48,-52.8152 1305.1,-35.3407 1337.4,-25.0091"/>
<polygon fill="midnightblue" stroke="midnightblue" points="1213.11,-61.0946 1204.65,-67.4751 1215.24,-67.7618 1213.11,-61.0946"/>
</g>
<!-- Node8 -->
<g id="node8" class="node"><title>Node8</title>
<g id="a_node8"><a xlink:href="core_2integrate_8cpp.html" target="_top" xlink:title="integrate.cpp">
<polygon fill="none" stroke="black" points="1633.5,-6 1633.5,-25 1714.5,-25 1714.5,-6 1633.5,-6"/>
<text text-anchor="middle" x="1674" y="-13" font-family="Helvetica,sans-Serif" font-size="10.00">integrate.cpp</text>
</a>
</g>
</g>
<!-- Node3&#45;&gt;Node8 -->
<g id="edge7" class="edge"><title>Node3&#45;&gt;Node8</title>
<path fill="none" stroke="midnightblue" d="M1228.19,-73.9101C1311.21,-69.791 1482.04,-58.5086 1624,-31 1631.9,-29.4697 1640.35,-27.2509 1648.01,-25.0073"/>
<polygon fill="midnightblue" stroke="midnightblue" points="1227.85,-70.4223 1218.03,-74.4 1228.19,-77.4142 1227.85,-70.4223"/>
</g>
<!-- Node9 -->
<g id="node9" class="node"><title>Node9</title>
<g id="a_node9"><a xlink:href="integrate__sd_8cpp.html" target="_top" xlink:title="Stokesian dynamics integrator. ">
<polygon fill="none" stroke="black" points="1421,-6 1421,-25 1519,-25 1519,-6 1421,-6"/>
<text text-anchor="middle" x="1470" y="-13" font-family="Helvetica,sans-Serif" font-size="10.00">integrate_sd.cpp</text>
</a>
</g>
</g>
<!-- Node3&#45;&gt;Node9 -->
<g id="edge8" class="edge"><title>Node3&#45;&gt;Node9</title>
<path fill="none" stroke="midnightblue" d="M1228.33,-67.1477C1275.83,-58.598 1348.96,-44.9296 1412,-31 1420.21,-29.1859 1429.03,-27.0682 1437.25,-25.0206"/>
<polygon fill="midnightblue" stroke="midnightblue" points="1227.53,-63.7356 1218.3,-68.9451 1228.76,-70.6258 1227.53,-63.7356"/>
</g>
<!-- Node3&#45;&gt;Node10 -->
<g id="edge9" class="edge"><title>Node3&#45;&gt;Node10</title>
<path fill="none" stroke="midnightblue" d="M1228.32,-74.7608C1401.02,-70.3367 1968.98,-54.3304 2150,-31 2160.89,-29.5959 2172.64,-27.3578 2183.25,-25.0561"/>
<polygon fill="midnightblue" stroke="midnightblue" points="1228.14,-71.264 1218.23,-75.0174 1228.32,-78.2617 1228.14,-71.264"/>
</g>
<!-- Node3&#45;&gt;Node11 -->
<g id="edge10" class="edge"><title>Node3&#45;&gt;Node11</title>
<path fill="none" stroke="midnightblue" d="M1128.3,-67.0365C1128.2,-67.0243 1128.1,-67.0121 1128,-67 862.301,-35.2423 790.141,-79.5892 527,-31 519.424,-29.6012 511.353,-27.3351 504.12,-25.0057"/>
<polygon fill="midnightblue" stroke="midnightblue" points="1127.56,-70.4675 1137.95,-68.36 1128.51,-63.5325 1127.56,-70.4675"/>
</g>
<!-- Node12 -->
<g id="node12" class="node"><title>Node12</title>
<g id="a_node12"><a xlink:href="nsquare_8cpp.html" target="_top" xlink:title="Implementation of nsquare.h. ">
<polygon fill="none" stroke="black" points="536,-6 536,-25 612,-25 612,-6 536,-6"/>
<text text-anchor="middle" x="574" y="-13" font-family="Helvetica,sans-Serif" font-size="10.00">nsquare.cpp</text>
</a>
</g>
</g>
<!-- Node3&#45;&gt;Node12 -->
<g id="edge11" class="edge"><title>Node3&#45;&gt;Node12</title>
<path fill="none" stroke="midnightblue" d="M1128.3,-67.0382C1128.2,-67.0254 1128.1,-67.0127 1128,-67 903.848,-38.9502 843.043,-72.5684 621,-31 613.446,-29.5858 605.394,-27.3738 598.129,-25.0998"/>
<polygon fill="midnightblue" stroke="midnightblue" points="1127.55,-70.4663 1137.94,-68.3993 1128.53,-63.5351 1127.55,-70.4663"/>
</g>
<!-- Node13 -->
<g id="node13" class="node"><title>Node13</title>
<g id="a_node13"><a xlink:href="pressure_8cpp.html" target="_top" xlink:title="Implementation of pressure.h. ">
<polygon fill="none" stroke="black" points="1536.5,-6 1536.5,-25 1615.5,-25 1615.5,-6 1536.5,-6"/>
<text text-anchor="middle" x="1576" y="-13" font-family="Helvetica,sans-Serif" font-size="10.00">pressure.cpp</text>
</a>
</g>
</g>
<!-- Node3&#45;&gt;Node13 -->
<g id="edge12" class="edge"><title>Node3&#45;&gt;Node13</title>
<path fill="none" stroke="midnightblue" d="M1228.32,-72.1639C1296.72,-66.3537 1422.58,-53.5381 1528,-31 1535.41,-29.4166 1543.32,-27.2348 1550.55,-25.0441"/>
<polygon fill="midnightblue" stroke="midnightblue" points="1227.93,-68.6845 1218.26,-73.0037 1228.51,-75.6602 1227.93,-68.6845"/>
</g>
<!-- Node14 -->
<g id="node14" class="node"><title>Node14</title>
<g id="a_node14"><a xlink:href="statistics_8cpp.html" target="_top" xlink:title="This is the place for analysis (so far...). ">
<polygon fill="none" stroke="black" points="630.5,-6 630.5,-25 711.5,-25 711.5,-6 630.5,-6"/>
<text text-anchor="middle" x="671" y="-13" font-family="Helvetica,sans-Serif" font-size="10.00">statistics.cpp</text>
</a>
</g>
</g>
<!-- Node3&#45;&gt;Node14 -->
<g id="edge13" class="edge"><title>Node3&#45;&gt;Node14</title>
<path fill="none" stroke="midnightblue" d="M1128.3,-67.0408C1128.2,-67.0271 1128.1,-67.0135 1128,-67 948.012,-42.8906 899.488,-64.4466 721,-31 713.094,-29.5184 704.641,-27.3145 696.978,-25.0695"/>
<polygon fill="midnightblue" stroke="midnightblue" points="1127.53,-70.4644 1137.93,-68.4609 1128.55,-63.5393 1127.53,-70.4644"/>
</g>
<!-- Node15 -->
<g id="node15" class="node"><title>Node15</title>
<g id="a_node15"><a xlink:href="statistics__observable_8cpp.html" target="_top" xlink:title="statistics_observable.cpp">
<polygon fill="none" stroke="black" points="730,-6 730,-25 870,-25 870,-6 730,-6"/>
<text text-anchor="middle" x="800" y="-13" font-family="Helvetica,sans-Serif" font-size="10.00">statistics_observable.cpp</text>
</a>
</g>
</g>
<!-- Node3&#45;&gt;Node15 -->
<g id="edge14" class="edge"><title>Node3&#45;&gt;Node15</title>
<path fill="none" stroke="midnightblue" d="M1128.3,-67.0491C1128.2,-67.0327 1128.1,-67.0163 1128,-67 1017.63,-49.0929 989.343,-49.0964 879,-31 867.854,-29.172 855.852,-27.0492 844.652,-25.0011"/>
<polygon fill="midnightblue" stroke="midnightblue" points="1127.46,-70.4572 1137.9,-68.6571 1128.62,-63.5533 1127.46,-70.4572"/>
</g>
<!-- Node16 -->
<g id="node16" class="node"><title>Node16</title>
<g id="a_node16"><a xlink:href="verlet_8cpp.html" target="_top" xlink:title="Verlet list. ">
<polygon fill="none" stroke="black" points="360.5,-6 360.5,-25 425.5,-25 425.5,-6 360.5,-6"/>
<text text-anchor="middle" x="393" y="-13" font-family="Helvetica,sans-Serif" font-size="10.00">verlet.cpp</text>
</a>
</g>
</g>
<!-- Node3&#45;&gt;Node16 -->
<g id="edge15" class="edge"><title>Node3&#45;&gt;Node16</title>
<path fill="none" stroke="midnightblue" d="M1128.3,-67.0353C1128.2,-67.0235 1128.1,-67.0117 1128,-67 821.622,-31.6112 737.738,-89.9022 435,-31 428.034,-29.6446 420.65,-27.3907 414.049,-25.0592"/>
<polygon fill="midnightblue" stroke="midnightblue" points="1127.57,-70.4683 1137.95,-68.3318 1128.5,-63.5307 1127.57,-70.4683"/>
</g>
<!-- Node17 -->
<g id="node17" class="node"><title>Node17</title>
<g id="a_node17"><a xlink:href="virtual__sites_8cpp.html" target="_top" xlink:title="virtual_sites.cpp">
<polygon fill="none" stroke="black" points="888.5,-6 888.5,-25 985.5,-25 985.5,-6 888.5,-6"/>
<text text-anchor="middle" x="937" y="-13" font-family="Helvetica,sans-Serif" font-size="10.00">virtual_sites.cpp</text>
</a>
</g>
</g>
<!-- Node3&#45;&gt;Node17 -->
<g id="edge16" class="edge"><title>Node3&#45;&gt;Node17</title>
<path fill="none" stroke="midnightblue" d="M1133.27,-65.0509C1096.21,-55.9683 1042.17,-42.6954 995,-31 987.243,-29.0766 978.905,-26.9984 971.037,-25.0326"/>
<polygon fill="midnightblue" stroke="midnightblue" points="1132.7,-68.5163 1143.25,-67.4968 1134.37,-61.7174 1132.7,-68.5163"/>
</g>
<!-- Node18 -->
<g id="node18" class="node"><title>Node18</title>
<g id="a_node18"><a xlink:href="pressure__tcl_8cpp.html" target="_top" xlink:title="pressure_tcl.cpp">
<polygon fill="none" stroke="black" points="1004,-6 1004,-25 1100,-25 1100,-6 1004,-6"/>
<text text-anchor="middle" x="1052" y="-13" font-family="Helvetica,sans-Serif" font-size="10.00">pressure_tcl.cpp</text>
</a>
</g>
</g>
<!-- Node3&#45;&gt;Node18 -->
<g id="edge17" class="edge"><title>Node3&#45;&gt;Node18</title>
<path fill="none" stroke="midnightblue" d="M1150.84,-63.1742C1126.39,-51.6287 1091.15,-34.9875 1070.02,-25.0091"/>
<polygon fill="midnightblue" stroke="midnightblue" points="1149.41,-66.3699 1159.95,-67.4751 1152.4,-60.0401 1149.41,-66.3699"/>
</g>
<!-- Node19 -->
<g id="node19" class="node"><title>Node19</title>
<g id="a_node19"><a xlink:href="statistics__observable__tcl_8cpp.html" target="_top" xlink:title="statistics_observable\l_tcl.cpp">
<polygon fill="none" stroke="black" points="1118,-0.5 1118,-30.5 1238,-30.5 1238,-0.5 1118,-0.5"/>
<text text-anchor="start" x="1126" y="-18.5" font-family="Helvetica,sans-Serif" font-size="10.00">statistics_observable</text>
<text text-anchor="middle" x="1178" y="-7.5" font-family="Helvetica,sans-Serif" font-size="10.00">_tcl.cpp</text>
</a>
</g>
</g>
<!-- Node3&#45;&gt;Node19 -->
<g id="edge18" class="edge"><title>Node3&#45;&gt;Node19</title>
<path fill="none" stroke="midnightblue" d="M1178,-57.2349C1178,-48.5864 1178,-38.4969 1178,-30.523"/>
<polygon fill="midnightblue" stroke="midnightblue" points="1174.5,-57.4751 1178,-67.4751 1181.5,-57.4751 1174.5,-57.4751"/>
</g>
<!-- Node20&#45;&gt;Node4 -->
<g id="edge20" class="edge"><title>Node20&#45;&gt;Node4</title>
<path fill="none" stroke="midnightblue" d="M1803.87,-66.0602C1861.87,-57.6353 1945.96,-44.7568 2019,-31 2028.45,-29.2195 2038.62,-27.0919 2048.08,-25.0223"/>
<polygon fill="midnightblue" stroke="midnightblue" points="1803.11,-62.6337 1793.72,-67.5288 1804.12,-69.5617 1803.11,-62.6337"/>
</g>
<!-- Node20&#45;&gt;Node8 -->
<g id="edge21" class="edge"><title>Node20&#45;&gt;Node8</title>
<path fill="none" stroke="midnightblue" d="M1717.46,-60.3245C1706.25,-49.0202 1691.54,-34.1928 1682.44,-25.0091"/>
<polygon fill="midnightblue" stroke="midnightblue" points="1715.02,-62.8387 1724.55,-67.4751 1719.99,-57.9098 1715.02,-62.8387"/>
</g>
<!-- Node21 -->
<g id="node21" class="node"><title>Node21</title>
<g id="a_node21"><a xlink:href="minimize__energy_8cpp.html" target="_top" xlink:title="minimize_energy.cpp">
<polygon fill="none" stroke="black" points="1733,-6 1733,-25 1853,-25 1853,-6 1733,-6"/>
<text text-anchor="middle" x="1793" y="-13" font-family="Helvetica,sans-Serif" font-size="10.00">minimize_energy.cpp</text>
</a>
</g>
</g>
<!-- Node20&#45;&gt;Node21 -->
<g id="edge22" class="edge"><title>Node20&#45;&gt;Node21</title>
<path fill="none" stroke="midnightblue" d="M1748.81,-60.3245C1760.21,-49.0202 1775.16,-34.1928 1784.42,-25.0091"/>
<polygon fill="midnightblue" stroke="midnightblue" points="1746.23,-57.9484 1741.6,-67.4751 1751.16,-62.9189 1746.23,-57.9484"/>
</g>
<!-- Node22 -->
<g id="node22" class="node"><title>Node22</title>
<g id="a_node22"><a xlink:href="minimize__energy__tcl_8cpp.html" target="_top" xlink:title="minimize_energy_tcl.cpp">
<polygon fill="none" stroke="black" points="1871.5,-6 1871.5,-25 2010.5,-25 2010.5,-6 1871.5,-6"/>
<text text-anchor="middle" x="1941" y="-13" font-family="Helvetica,sans-Serif" font-size="10.00">minimize_energy_tcl.cpp</text>
</a>
</g>
</g>
<!-- Node20&#45;&gt;Node22 -->
<g id="edge23" class="edge"><title>Node20&#45;&gt;Node22</title>
<path fill="none" stroke="midnightblue" d="M1772.59,-64.6759C1813,-53.1144 1874.83,-35.429 1911.25,-25.0091"/>
<polygon fill="midnightblue" stroke="midnightblue" points="1771.45,-61.3597 1762.8,-67.4751 1773.38,-68.0898 1771.45,-61.3597"/>
</g>
<!-- Node26&#45;&gt;Node5 -->
<g id="edge31" class="edge"><title>Node26&#45;&gt;Node5</title>
<path fill="none" stroke="midnightblue" d="M365.84,-63.1742C341.39,-51.6287 306.15,-34.9875 285.019,-25.0091"/>
<polygon fill="midnightblue" stroke="midnightblue" points="364.41,-66.3699 374.947,-67.4751 367.399,-60.0401 364.41,-66.3699"/>
</g>
<!-- Node26&#45;&gt;Node11 -->
<g id="edge33" class="edge"><title>Node26&#45;&gt;Node11</title>
<path fill="none" stroke="midnightblue" d="M414.279,-61.6127C431.204,-50.1691 454.31,-34.546 468.415,-25.0091"/>
<polygon fill="midnightblue" stroke="midnightblue" points="411.932,-58.9744 405.608,-67.4751 415.853,-64.7733 411.932,-58.9744"/>
</g>
<!-- Node26&#45;&gt;Node12 -->
<g id="edge34" class="edge"><title>Node26&#45;&gt;Node12</title>
<path fill="none" stroke="midnightblue" d="M428.798,-64.232C463.982,-52.666 516.821,-35.2966 548.115,-25.0091"/>
<polygon fill="midnightblue" stroke="midnightblue" points="427.34,-61.0272 418.933,-67.4751 429.526,-67.6771 427.34,-61.0272"/>
</g>
<!-- Node26&#45;&gt;Node16 -->
<g id="edge35" class="edge"><title>Node26&#45;&gt;Node16</title>
<path fill="none" stroke="midnightblue" d="M393,-57.3165C393,-46.4962 393,-33.398 393,-25.0091"/>
<polygon fill="midnightblue" stroke="midnightblue" points="389.5,-57.4751 393,-67.4751 396.5,-57.4751 389.5,-57.4751"/>
</g>
<!-- Node26&#45;&gt;Node23 -->
<g id="edge30" class="edge"><title>Node26&#45;&gt;Node23</title>
<path fill="none" stroke="midnightblue" d="M330.81,-68.8551C270.247,-61.3698 175.77,-48.2921 95,-31 87.2102,-29.3323 78.8605,-27.1735 71.1816,-25.0336"/>
<polygon fill="midnightblue" stroke="midnightblue" points="330.62,-72.3578 340.971,-70.0977 331.47,-65.4096 330.62,-72.3578"/>
</g>
<!-- Node27 -->
<g id="node27" class="node"><title>Node27</title>
<g id="a_node27"><a xlink:href="energy_8cpp.html" target="_top" xlink:title="Implementation of energy.hpp. ">
<polygon fill="none" stroke="black" points="104.5,-6 104.5,-25 173.5,-25 173.5,-6 104.5,-6"/>
<text text-anchor="middle" x="139" y="-13" font-family="Helvetica,sans-Serif" font-size="10.00">energy.cpp</text>
</a>
</g>
</g>
<!-- Node26&#45;&gt;Node27 -->
<g id="edge32" class="edge"><title>Node26&#45;&gt;Node27</title>
<path fill="none" stroke="midnightblue" d="M335.351,-65.5642C292.693,-57.3931 233.332,-45.0783 182,-31 175.77,-29.2913 169.119,-27.1896 162.956,-25.1219"/>
<polygon fill="midnightblue" stroke="midnightblue" points="334.799,-69.0218 345.276,-67.4483 336.104,-62.1446 334.799,-69.0218"/>
</g>
</g>
</svg>
