<?xml version="1.0" encoding="UTF-8" standalone="no"?>
<!DOCTYPE svg PUBLIC "-//W3C//DTD SVG 1.1//EN"
 "http://www.w3.org/Graphics/SVG/1.1/DTD/svg11.dtd">
<!-- Generated by graphviz version 2.38.0 (20140413.2041)
 -->
<!-- Title: p3m_gpu.hpp Pages: 1 -->
<svg width="295pt" height="84pt"
 viewBox="0.00 0.00 294.50 84.00" xmlns="http://www.w3.org/2000/svg" xmlns:xlink="http://www.w3.org/1999/xlink">
<g id="graph0" class="graph" transform="scale(1 1) rotate(0) translate(4 80)">
<title>p3m_gpu.hpp</title>
<!-- Node1 -->
<g id="node1" class="node"><title>Node1</title>
<polygon fill="#bfbfbf" stroke="black" points="83,-56.5 83,-75.5 166,-75.5 166,-56.5 83,-56.5"/>
<text text-anchor="middle" x="124.5" y="-63.5" font-family="Helvetica,sans-Serif" font-size="10.00">p3m_gpu.hpp</text>
</g>
<!-- Node2 -->
<g id="node2" class="node"><title>Node2</title>
<g id="a_node2"><a xlink:href="forces_8cpp.html" target="_top" xlink:title="Force calculation. ">
<polygon fill="none" stroke="black" points="0,-0.5 0,-19.5 67,-19.5 67,-0.5 0,-0.5"/>
<text text-anchor="middle" x="33.5" y="-7.5" font-family="Helvetica,sans-Serif" font-size="10.00">forces.cpp</text>
</a>
</g>
</g>
<!-- Node1&#45;&gt;Node2 -->
<g id="edge1" class="edge"><title>Node1&#45;&gt;Node2</title>
<path fill="none" stroke="midnightblue" d="M101.206,-51.1774C84.4611,-41.2407 62.3996,-28.1492 48.0844,-19.6545"/>
<polygon fill="midnightblue" stroke="midnightblue" points="99.4933,-54.2307 109.879,-56.324 103.066,-48.2108 99.4933,-54.2307"/>
</g>
<!-- Node3 -->
<g id="node3" class="node"><title>Node3</title>
<g id="a_node3"><a xlink:href="initialize_8cpp.html" target="_top" xlink:title="Implementation of initialize.hpp. ">
<polygon fill="none" stroke="black" points="85,-0.5 85,-19.5 164,-19.5 164,-0.5 85,-0.5"/>
<text text-anchor="middle" x="124.5" y="-7.5" font-family="Helvetica,sans-Serif" font-size="10.00">initialize.cpp</text>
</a>
</g>
</g>
<!-- Node1&#45;&gt;Node3 -->
<g id="edge2" class="edge"><title>Node1&#45;&gt;Node3</title>
<path fill="none" stroke="midnightblue" d="M124.5,-45.8045C124.5,-36.9102 124.5,-26.7798 124.5,-19.7511"/>
<polygon fill="midnightblue" stroke="midnightblue" points="121,-46.083 124.5,-56.083 128,-46.083 121,-46.083"/>
</g>
<!-- Node4 -->
<g id="node4" class="node"><title>Node4</title>
<g id="a_node4"><a xlink:href="p3m__gpu__cuda_8cu.html" target="_top" xlink:title="Cuda (.cu) file for the P3M electrostatics method. ">
<polygon fill="none" stroke="black" points="182.5,-0.5 182.5,-19.5 286.5,-19.5 286.5,-0.5 182.5,-0.5"/>
<text text-anchor="middle" x="234.5" y="-7.5" font-family="Helvetica,sans-Serif" font-size="10.00">p3m_gpu_cuda.cu</text>
</a>
</g>
</g>
<!-- Node1&#45;&gt;Node4 -->
<g id="edge3" class="edge"><title>Node1&#45;&gt;Node4</title>
<path fill="none" stroke="midnightblue" d="M151.262,-51.8622C171.659,-41.8492 199.166,-28.3458 216.87,-19.6545"/>
<polygon fill="midnightblue" stroke="midnightblue" points="149.608,-48.7753 142.173,-56.324 152.692,-55.059 149.608,-48.7753"/>
</g>
</g>
</svg>
