<?xml version="1.0" encoding="UTF-8" standalone="no"?>
<!DOCTYPE svg PUBLIC "-//W3C//DTD SVG 1.1//EN"
 "http://www.w3.org/Graphics/SVG/1.1/DTD/svg11.dtd">
<!-- Generated by graphviz version 2.38.0 (20140413.2041)
 -->
<!-- Title: parser.cpp Pages: 1 -->
<svg width="1044pt" height="364pt"
 viewBox="0.00 0.00 1044.00 364.00" xmlns="http://www.w3.org/2000/svg" xmlns:xlink="http://www.w3.org/1999/xlink">
<g id="graph0" class="graph" transform="scale(1 1) rotate(0) translate(4 360)">
<title>parser.cpp</title>
<!-- Node1 -->
<g id="node1" class="node"><title>Node1</title>
<polygon fill="#bfbfbf" stroke="black" points="838.5,-336.5 838.5,-355.5 905.5,-355.5 905.5,-336.5 838.5,-336.5"/>
<text text-anchor="middle" x="872" y="-343.5" font-family="Helvetica,sans-Serif" font-size="10.00">parser.cpp</text>
</g>
<!-- Node2 -->
<g id="node2" class="node"><title>Node2</title>
<g id="a_node2"><a xlink:href="utils_8hpp.html" target="_top" xlink:title="Small functions that are useful not only for one modul. ">
<polygon fill="none" stroke="black" points="575.5,-168.5 575.5,-187.5 634.5,-187.5 634.5,-168.5 575.5,-168.5"/>
<text text-anchor="middle" x="605" y="-175.5" font-family="Helvetica,sans-Serif" font-size="10.00">utils.hpp</text>
</a>
</g>
</g>
<!-- Node1&#45;&gt;Node2 -->
<g id="edge1" class="edge"><title>Node1&#45;&gt;Node2</title>
<path fill="none" stroke="midnightblue" d="M860.923,-336.462C833.829,-315.778 761.698,-261.902 697,-224 676.583,-212.039 652.531,-200.353 634.141,-191.888"/>
<polygon fill="midnightblue" stroke="midnightblue" points="635.38,-188.607 624.828,-187.654 632.482,-194.979 635.38,-188.607"/>
</g>
<!-- Node13 -->
<g id="node13" class="node"><title>Node13</title>
<g id="a_node13"><a xlink:href="errorhandling_8hpp.html" target="_top" xlink:title="This file contains the errorhandling code for severe errors, like a broken bond or illegal parameter ...">
<polygon fill="none" stroke="black" points="850.5,-112.5 850.5,-131.5 953.5,-131.5 953.5,-112.5 850.5,-112.5"/>
<text text-anchor="middle" x="902" y="-119.5" font-family="Helvetica,sans-Serif" font-size="10.00">errorhandling.hpp</text>
</a>
</g>
</g>
<!-- Node1&#45;&gt;Node13 -->
<g id="edge39" class="edge"><title>Node1&#45;&gt;Node13</title>
<path fill="none" stroke="midnightblue" d="M873.176,-336.297C877.59,-303.633 893.234,-187.866 899.438,-141.957"/>
<polygon fill="midnightblue" stroke="midnightblue" points="902.929,-142.262 900.799,-131.884 895.992,-141.325 902.929,-142.262"/>
</g>
<!-- Node14 -->
<g id="node14" class="node"><title>Node14</title>
<polygon fill="none" stroke="#bfbfbf" points="942,-56.5 942,-75.5 986,-75.5 986,-56.5 942,-56.5"/>
<text text-anchor="middle" x="964" y="-63.5" font-family="Helvetica,sans-Serif" font-size="10.00">string</text>
</g>
<!-- Node1&#45;&gt;Node14 -->
<g id="edge41" class="edge"><title>Node1&#45;&gt;Node14</title>
<path fill="none" stroke="midnightblue" d="M891.413,-336.464C922.991,-321.108 982,-285.639 982,-235 982,-235 982,-235 982,-177 982,-144.537 974.27,-107.384 968.942,-85.6276"/>
<polygon fill="midnightblue" stroke="midnightblue" points="972.288,-84.5867 966.428,-75.7605 965.505,-86.3151 972.288,-84.5867"/>
</g>
<!-- Node16 -->
<g id="node16" class="node"><title>Node16</title>
<polygon fill="none" stroke="#bfbfbf" points="1004,-56.5 1004,-75.5 1036,-75.5 1036,-56.5 1004,-56.5"/>
<text text-anchor="middle" x="1020" y="-63.5" font-family="Helvetica,sans-Serif" font-size="10.00">list</text>
</g>
<!-- Node1&#45;&gt;Node16 -->
<g id="edge40" class="edge"><title>Node1&#45;&gt;Node16</title>
<path fill="none" stroke="midnightblue" d="M904.846,-336.458C948.448,-322.906 1020,-291.985 1020,-235 1020,-235 1020,-235 1020,-177 1020,-144.948 1020,-107.643 1020,-85.7489"/>
<polygon fill="midnightblue" stroke="midnightblue" points="1023.5,-85.5577 1020,-75.5578 1016.5,-85.5578 1023.5,-85.5577"/>
</g>
<!-- Node19 -->
<g id="node19" class="node"><title>Node19</title>
<g id="a_node19"><a xlink:href="parser_8hpp.html" target="_top" xlink:title="This file contains macros for parsing the parameters to the &#39;inter&#39; command. ">
<polygon fill="none" stroke="black" points="789,-224.5 789,-243.5 857,-243.5 857,-224.5 789,-224.5"/>
<text text-anchor="middle" x="823" y="-231.5" font-family="Helvetica,sans-Serif" font-size="10.00">parser.hpp</text>
</a>
</g>
</g>
<!-- Node1&#45;&gt;Node19 -->
<g id="edge21" class="edge"><title>Node1&#45;&gt;Node19</title>
<path fill="none" stroke="midnightblue" d="M868.155,-336.368C860.176,-318.456 841.675,-276.923 830.995,-252.948"/>
<polygon fill="midnightblue" stroke="midnightblue" points="834.093,-251.302 826.827,-243.591 827.699,-254.15 834.093,-251.302"/>
</g>
<!-- Node21 -->
<g id="node21" class="node"><title>Node21</title>
<g id="a_node21"><a xlink:href="communication_8hpp.html" target="_top" xlink:title="This file contains the asynchronous MPI communication. ">
<polygon fill="none" stroke="black" points="425.5,-280.5 425.5,-299.5 538.5,-299.5 538.5,-280.5 425.5,-280.5"/>
<text text-anchor="middle" x="482" y="-287.5" font-family="Helvetica,sans-Serif" font-size="10.00">communication.hpp</text>
</a>
</g>
</g>
<!-- Node1&#45;&gt;Node21 -->
<g id="edge25" class="edge"><title>Node1&#45;&gt;Node21</title>
<path fill="none" stroke="midnightblue" d="M838.411,-340.349C774.139,-331.45 632.681,-311.864 548.588,-300.22"/>
<polygon fill="midnightblue" stroke="midnightblue" points="549.012,-296.745 538.626,-298.841 548.052,-303.679 549.012,-296.745"/>
</g>
<!-- Node3 -->
<g id="node3" class="node"><title>Node3</title>
<polygon fill="none" stroke="#bfbfbf" points="716.5,-112.5 716.5,-131.5 763.5,-131.5 763.5,-112.5 716.5,-112.5"/>
<text text-anchor="middle" x="740" y="-119.5" font-family="Helvetica,sans-Serif" font-size="10.00">cmath</text>
</g>
<!-- Node2&#45;&gt;Node3 -->
<g id="edge2" class="edge"><title>Node2&#45;&gt;Node3</title>
<path fill="none" stroke="midnightblue" d="M626.391,-168.444C648.707,-159.517 683.903,-145.439 709.208,-135.317"/>
<polygon fill="midnightblue" stroke="midnightblue" points="710.724,-138.48 718.709,-131.516 708.124,-131.981 710.724,-138.48"/>
</g>
<!-- Node4 -->
<g id="node4" class="node"><title>Node4</title>
<polygon fill="none" stroke="#bfbfbf" points="255,-112.5 255,-131.5 301,-131.5 301,-112.5 255,-112.5"/>
<text text-anchor="middle" x="278" y="-119.5" font-family="Helvetica,sans-Serif" font-size="10.00">cstdio</text>
</g>
<!-- Node2&#45;&gt;Node4 -->
<g id="edge3" class="edge"><title>Node2&#45;&gt;Node4</title>
<path fill="none" stroke="midnightblue" d="M575.472,-173.714C523.777,-167.7 413.397,-153.698 311.198,-132.04"/>
<polygon fill="midnightblue" stroke="midnightblue" points="311.848,-128.6 301.336,-129.92 310.377,-135.444 311.848,-128.6"/>
</g>
<!-- Node5 -->
<g id="node5" class="node"><title>Node5</title>
<polygon fill="none" stroke="#bfbfbf" points="405.5,-112.5 405.5,-131.5 454.5,-131.5 454.5,-112.5 405.5,-112.5"/>
<text text-anchor="middle" x="430" y="-119.5" font-family="Helvetica,sans-Serif" font-size="10.00">cstdlib</text>
</g>
<!-- Node2&#45;&gt;Node5 -->
<g id="edge4" class="edge"><title>Node2&#45;&gt;Node5</title>
<path fill="none" stroke="midnightblue" d="M577.271,-168.444C546.701,-159.011 497.487,-143.824 464.461,-133.634"/>
<polygon fill="midnightblue" stroke="midnightblue" points="465.357,-130.248 454.77,-130.643 463.293,-136.936 465.357,-130.248"/>
</g>
<!-- Node6 -->
<g id="node6" class="node"><title>Node6</title>
<polygon fill="none" stroke="#bfbfbf" points="782,-112.5 782,-131.5 832,-131.5 832,-112.5 782,-112.5"/>
<text text-anchor="middle" x="807" y="-119.5" font-family="Helvetica,sans-Serif" font-size="10.00">cstring</text>
</g>
<!-- Node2&#45;&gt;Node6 -->
<g id="edge5" class="edge"><title>Node2&#45;&gt;Node6</title>
<path fill="none" stroke="midnightblue" d="M634.806,-169.032C671.375,-159.256 733.281,-142.707 772.054,-132.342"/>
<polygon fill="midnightblue" stroke="midnightblue" points="773.103,-135.685 781.86,-129.721 771.295,-128.922 773.103,-135.685"/>
</g>
<!-- Node7 -->
<g id="node7" class="node"><title>Node7</title>
<g id="a_node7"><a xlink:href="config_8hpp.html" target="_top" xlink:title="This file contains the defaults for Espresso. ">
<polygon fill="none" stroke="black" points="491.5,-56.5 491.5,-75.5 558.5,-75.5 558.5,-56.5 491.5,-56.5"/>
<text text-anchor="middle" x="525" y="-63.5" font-family="Helvetica,sans-Serif" font-size="10.00">config.hpp</text>
</a>
</g>
</g>
<!-- Node2&#45;&gt;Node7 -->
<g id="edge6" class="edge"><title>Node2&#45;&gt;Node7</title>
<path fill="none" stroke="midnightblue" d="M604.227,-168.243C602.688,-154.994 598.254,-129.541 586,-112 577.051,-99.1907 563.281,-88.5832 551.088,-80.8906"/>
<polygon fill="midnightblue" stroke="midnightblue" points="552.559,-77.6938 542.176,-75.5881 548.98,-83.7094 552.559,-77.6938"/>
</g>
<!-- Node11 -->
<g id="node11" class="node"><title>Node11</title>
<g id="a_node11"><a xlink:href="debug_8hpp.html" target="_top" xlink:title="This file controls debug facilities. ">
<polygon fill="none" stroke="black" points="319,-112.5 319,-131.5 387,-131.5 387,-112.5 319,-112.5"/>
<text text-anchor="middle" x="353" y="-119.5" font-family="Helvetica,sans-Serif" font-size="10.00">debug.hpp</text>
</a>
</g>
</g>
<!-- Node2&#45;&gt;Node11 -->
<g id="edge10" class="edge"><title>Node2&#45;&gt;Node11</title>
<path fill="none" stroke="midnightblue" d="M575.103,-170.593C531.071,-161.158 448.488,-143.462 397.373,-132.508"/>
<polygon fill="midnightblue" stroke="midnightblue" points="397.79,-129.019 387.279,-130.345 396.324,-135.863 397.79,-129.019"/>
</g>
<!-- Node12 -->
<g id="node12" class="node"><title>Node12</title>
<g id="a_node12"><a xlink:href="lees__edwards_8hpp.html" target="_top" xlink:title="lees_edwards.hpp">
<polygon fill="none" stroke="black" points="473,-112.5 473,-131.5 577,-131.5 577,-112.5 473,-112.5"/>
<text text-anchor="middle" x="525" y="-119.5" font-family="Helvetica,sans-Serif" font-size="10.00">lees_edwards.hpp</text>
</a>
</g>
</g>
<!-- Node2&#45;&gt;Node12 -->
<g id="edge12" class="edge"><title>Node2&#45;&gt;Node12</title>
<path fill="none" stroke="midnightblue" d="M592.147,-168.324C579.784,-159.979 560.87,-147.212 546.263,-137.352"/>
<polygon fill="midnightblue" stroke="midnightblue" points="548.068,-134.348 537.821,-131.655 544.152,-140.15 548.068,-134.348"/>
</g>
<!-- Node2&#45;&gt;Node13 -->
<g id="edge14" class="edge"><title>Node2&#45;&gt;Node13</title>
<path fill="none" stroke="midnightblue" d="M634.563,-171.625C683.487,-162.73 782.113,-144.798 844.955,-133.372"/>
<polygon fill="midnightblue" stroke="midnightblue" points="845.891,-136.759 855.103,-131.527 844.639,-129.872 845.891,-136.759"/>
</g>
<!-- Node17 -->
<g id="node17" class="node"><title>Node17</title>
<polygon fill="none" stroke="#bfbfbf" points="189.5,-112.5 189.5,-131.5 236.5,-131.5 236.5,-112.5 189.5,-112.5"/>
<text text-anchor="middle" x="213" y="-119.5" font-family="Helvetica,sans-Serif" font-size="10.00">vector</text>
</g>
<!-- Node2&#45;&gt;Node17 -->
<g id="edge19" class="edge"><title>Node2&#45;&gt;Node17</title>
<path fill="none" stroke="midnightblue" d="M575.457,-174.723C515.363,-169.786 374.475,-156.663 246.659,-131.857"/>
<polygon fill="midnightblue" stroke="midnightblue" points="247.186,-128.393 236.698,-129.894 245.833,-135.261 247.186,-128.393"/>
</g>
<!-- Node18 -->
<g id="node18" class="node"><title>Node18</title>
<polygon fill="none" stroke="#bfbfbf" points="633.5,-112.5 633.5,-131.5 698.5,-131.5 698.5,-112.5 633.5,-112.5"/>
<text text-anchor="middle" x="666" y="-119.5" font-family="Helvetica,sans-Serif" font-size="10.00">exception</text>
</g>
<!-- Node2&#45;&gt;Node18 -->
<g id="edge20" class="edge"><title>Node2&#45;&gt;Node18</title>
<path fill="none" stroke="midnightblue" d="M614.801,-168.324C623.818,-160.341 637.406,-148.313 648.318,-138.653"/>
<polygon fill="midnightblue" stroke="midnightblue" points="650.853,-141.083 656.021,-131.834 646.213,-135.842 650.853,-141.083"/>
</g>
<!-- Node8 -->
<g id="node8" class="node"><title>Node8</title>
<g id="a_node8"><a xlink:href="acconfig_8hpp.html" target="_top" xlink:title="acconfig.hpp">
<polygon fill="none" stroke="black" points="375,-0.5 375,-19.5 453,-19.5 453,-0.5 375,-0.5"/>
<text text-anchor="middle" x="414" y="-7.5" font-family="Helvetica,sans-Serif" font-size="10.00">acconfig.hpp</text>
</a>
</g>
</g>
<!-- Node7&#45;&gt;Node8 -->
<g id="edge7" class="edge"><title>Node7&#45;&gt;Node8</title>
<path fill="none" stroke="midnightblue" d="M507.166,-56.324C489.284,-47.6247 461.525,-34.1202 440.954,-24.113"/>
<polygon fill="midnightblue" stroke="midnightblue" points="442.313,-20.8819 431.79,-19.6545 439.251,-27.1765 442.313,-20.8819"/>
</g>
<!-- Node9 -->
<g id="node9" class="node"><title>Node9</title>
<g id="a_node9"><a xlink:href="myconfig-final_8hpp.html" target="_top" xlink:title="myconfig&#45;final.hpp">
<polygon fill="none" stroke="black" points="471.5,-0.5 471.5,-19.5 578.5,-19.5 578.5,-0.5 471.5,-0.5"/>
<text text-anchor="middle" x="525" y="-7.5" font-family="Helvetica,sans-Serif" font-size="10.00">myconfig&#45;final.hpp</text>
</a>
</g>
</g>
<!-- Node7&#45;&gt;Node9 -->
<g id="edge8" class="edge"><title>Node7&#45;&gt;Node9</title>
<path fill="none" stroke="midnightblue" d="M525,-56.083C525,-49.0059 525,-38.8611 525,-29.9865"/>
<polygon fill="midnightblue" stroke="midnightblue" points="528.5,-29.751 525,-19.7511 521.5,-29.7511 528.5,-29.751"/>
</g>
<!-- Node10 -->
<g id="node10" class="node"><title>Node10</title>
<g id="a_node10"><a xlink:href="config-features_8hpp.html" target="_top" xlink:title="config&#45;features.hpp">
<polygon fill="none" stroke="black" points="596.5,-0.5 596.5,-19.5 707.5,-19.5 707.5,-0.5 596.5,-0.5"/>
<text text-anchor="middle" x="652" y="-7.5" font-family="Helvetica,sans-Serif" font-size="10.00">config&#45;features.hpp</text>
</a>
</g>
</g>
<!-- Node7&#45;&gt;Node10 -->
<g id="edge9" class="edge"><title>Node7&#45;&gt;Node10</title>
<path fill="none" stroke="midnightblue" d="M545.124,-56.4435C566.024,-47.5566 598.935,-33.5632 622.716,-23.4514"/>
<polygon fill="midnightblue" stroke="midnightblue" points="624.138,-26.6504 631.971,-19.5164 621.398,-20.2085 624.138,-26.6504"/>
</g>
<!-- Node11&#45;&gt;Node7 -->
<g id="edge11" class="edge"><title>Node11&#45;&gt;Node7</title>
<path fill="none" stroke="midnightblue" d="M380.254,-112.444C409.441,-103.28 455.921,-88.6876 488.309,-78.5192"/>
<polygon fill="midnightblue" stroke="midnightblue" points="489.381,-81.8512 497.874,-75.5164 487.284,-75.1726 489.381,-81.8512"/>
</g>
<!-- Node12&#45;&gt;Node7 -->
<g id="edge13" class="edge"><title>Node12&#45;&gt;Node7</title>
<path fill="none" stroke="midnightblue" d="M525,-112.083C525,-105.006 525,-94.8611 525,-85.9865"/>
<polygon fill="midnightblue" stroke="midnightblue" points="528.5,-85.751 525,-75.7511 521.5,-85.7511 528.5,-85.751"/>
</g>
<!-- Node13&#45;&gt;Node7 -->
<g id="edge15" class="edge"><title>Node13&#45;&gt;Node7</title>
<path fill="none" stroke="midnightblue" d="M850.418,-113.371C847.231,-112.905 844.072,-112.445 841,-112 743.796,-97.9081 629.712,-81.758 568.719,-73.155"/>
<polygon fill="midnightblue" stroke="midnightblue" points="569.071,-69.6701 558.68,-71.7396 568.094,-76.6015 569.071,-69.6701"/>
</g>
<!-- Node13&#45;&gt;Node14 -->
<g id="edge16" class="edge"><title>Node13&#45;&gt;Node14</title>
<path fill="none" stroke="midnightblue" d="M911.961,-112.324C921.127,-104.341 934.937,-92.3128 946.028,-82.6529"/>
<polygon fill="midnightblue" stroke="midnightblue" points="948.615,-85.041 953.857,-75.8339 944.018,-79.7624 948.615,-85.041"/>
</g>
<!-- Node15 -->
<g id="node15" class="node"><title>Node15</title>
<polygon fill="none" stroke="#bfbfbf" points="868,-56.5 868,-75.5 924,-75.5 924,-56.5 868,-56.5"/>
<text text-anchor="middle" x="896" y="-63.5" font-family="Helvetica,sans-Serif" font-size="10.00">sstream</text>
</g>
<!-- Node13&#45;&gt;Node15 -->
<g id="edge17" class="edge"><title>Node13&#45;&gt;Node15</title>
<path fill="none" stroke="midnightblue" d="M901.009,-112.083C900.214,-104.927 899.071,-94.6353 898.077,-85.6911"/>
<polygon fill="midnightblue" stroke="midnightblue" points="901.555,-85.3034 896.972,-75.7511 894.598,-86.0765 901.555,-85.3034"/>
</g>
<!-- Node13&#45;&gt;Node16 -->
<g id="edge18" class="edge"><title>Node13&#45;&gt;Node16</title>
<path fill="none" stroke="midnightblue" d="M920.697,-112.444C940.624,-103.325 972.298,-88.8295 994.503,-78.668"/>
<polygon fill="midnightblue" stroke="midnightblue" points="996.033,-81.8169 1003.67,-74.473 993.121,-75.4517 996.033,-81.8169"/>
</g>
<!-- Node19&#45;&gt;Node2 -->
<g id="edge22" class="edge"><title>Node19&#45;&gt;Node2</title>
<path fill="none" stroke="midnightblue" d="M788.938,-224.562C749.775,-214.862 685.597,-198.964 644.339,-188.744"/>
<polygon fill="midnightblue" stroke="midnightblue" points="645.176,-185.346 634.627,-186.339 643.492,-192.141 645.176,-185.346"/>
</g>
<!-- Node19&#45;&gt;Node6 -->
<g id="edge23" class="edge"><title>Node19&#45;&gt;Node6</title>
<path fill="none" stroke="midnightblue" d="M821.745,-224.368C819.162,-206.617 813.206,-165.666 809.705,-141.597"/>
<polygon fill="midnightblue" stroke="midnightblue" points="813.153,-140.983 808.25,-131.591 806.226,-141.991 813.153,-140.983"/>
</g>
<!-- Node20 -->
<g id="node20" class="node"><title>Node20</title>
<polygon fill="none" stroke="#bfbfbf" points="835,-168.5 835,-187.5 873,-187.5 873,-168.5 835,-168.5"/>
<text text-anchor="middle" x="854" y="-175.5" font-family="Helvetica,sans-Serif" font-size="10.00">tcl.h</text>
</g>
<!-- Node19&#45;&gt;Node20 -->
<g id="edge24" class="edge"><title>Node19&#45;&gt;Node20</title>
<path fill="none" stroke="midnightblue" d="M828.119,-224.083C832.408,-216.613 838.658,-205.724 843.942,-196.52"/>
<polygon fill="midnightblue" stroke="midnightblue" points="847.033,-198.166 848.976,-187.751 840.962,-194.681 847.033,-198.166"/>
</g>
<!-- Node22 -->
<g id="node22" class="node"><title>Node22</title>
<g id="a_node22"><a xlink:href="particle__data_8hpp.html" target="_top" xlink:title="For more information on particle_data, see particle_data.c. ">
<polygon fill="none" stroke="black" points="586.5,-224.5 586.5,-243.5 687.5,-243.5 687.5,-224.5 586.5,-224.5"/>
<text text-anchor="middle" x="637" y="-231.5" font-family="Helvetica,sans-Serif" font-size="10.00">particle_data.hpp</text>
</a>
</g>
</g>
<!-- Node21&#45;&gt;Node22 -->
<g id="edge26" class="edge"><title>Node21&#45;&gt;Node22</title>
<path fill="none" stroke="midnightblue" d="M506.56,-280.444C532.523,-271.399 573.668,-257.064 602.797,-246.916"/>
<polygon fill="midnightblue" stroke="midnightblue" points="604.263,-250.112 612.555,-243.516 601.96,-243.501 604.263,-250.112"/>
</g>
<!-- Node23 -->
<g id="node23" class="node"><title>Node23</title>
<g id="a_node23"><a xlink:href="random_8hpp.html" target="_top" xlink:title="A random generator. ">
<polygon fill="none" stroke="black" points="396.5,-224.5 396.5,-243.5 471.5,-243.5 471.5,-224.5 396.5,-224.5"/>
<text text-anchor="middle" x="434" y="-231.5" font-family="Helvetica,sans-Serif" font-size="10.00">random.hpp</text>
</a>
</g>
</g>
<!-- Node21&#45;&gt;Node23 -->
<g id="edge28" class="edge"><title>Node21&#45;&gt;Node23</title>
<path fill="none" stroke="midnightblue" d="M474.074,-280.083C467.154,-272.298 456.935,-260.801 448.548,-251.367"/>
<polygon fill="midnightblue" stroke="midnightblue" points="451.038,-248.9 441.779,-243.751 445.806,-253.55 451.038,-248.9"/>
</g>
<!-- Node24 -->
<g id="node24" class="node"><title>Node24</title>
<g id="a_node24"><a xlink:href="topology_8hpp.html" target="_top" xlink:title="This file contains functions for handling the system topology. ">
<polygon fill="none" stroke="black" points="489.5,-224.5 489.5,-243.5 568.5,-243.5 568.5,-224.5 489.5,-224.5"/>
<text text-anchor="middle" x="529" y="-231.5" font-family="Helvetica,sans-Serif" font-size="10.00">topology.hpp</text>
</a>
</g>
</g>
<!-- Node21&#45;&gt;Node24 -->
<g id="edge30" class="edge"><title>Node21&#45;&gt;Node24</title>
<path fill="none" stroke="midnightblue" d="M489.761,-280.083C496.537,-272.298 506.543,-260.801 514.755,-251.367"/>
<polygon fill="midnightblue" stroke="midnightblue" points="517.458,-253.592 521.383,-243.751 512.178,-248.996 517.458,-253.592"/>
</g>
<!-- Node25 -->
<g id="node25" class="node"><title>Node25</title>
<g id="a_node25"><a xlink:href="mpi_8h.html" target="_top" xlink:title="This is the MPIfake implementation. ">
<polygon fill="none" stroke="black" points="109,-224.5 109,-243.5 153,-243.5 153,-224.5 109,-224.5"/>
<text text-anchor="middle" x="131" y="-231.5" font-family="Helvetica,sans-Serif" font-size="10.00">mpi.h</text>
</a>
</g>
</g>
<!-- Node21&#45;&gt;Node25 -->
<g id="edge32" class="edge"><title>Node21&#45;&gt;Node25</title>
<path fill="none" stroke="midnightblue" d="M426.383,-280.444C352.164,-269.025 223.151,-249.177 163.26,-239.963"/>
<polygon fill="midnightblue" stroke="midnightblue" points="163.663,-236.484 153.247,-238.423 162.598,-243.403 163.663,-236.484"/>
</g>
<!-- Node29 -->
<g id="node29" class="node"><title>Node29</title>
<g id="a_node29"><a xlink:href="cuda__init_8hpp.html" target="_top" xlink:title="cuda_init.hpp">
<polygon fill="none" stroke="black" points="211,-168.5 211,-187.5 293,-187.5 293,-168.5 211,-168.5"/>
<text text-anchor="middle" x="252" y="-175.5" font-family="Helvetica,sans-Serif" font-size="10.00">cuda_init.hpp</text>
</a>
</g>
</g>
<!-- Node21&#45;&gt;Node29 -->
<g id="edge36" class="edge"><title>Node21&#45;&gt;Node29</title>
<path fill="none" stroke="midnightblue" d="M463.772,-280.407C444.635,-271.377 413.678,-256.741 387,-244 349.579,-226.128 306.411,-205.308 279.166,-192.142"/>
<polygon fill="midnightblue" stroke="midnightblue" points="280.416,-188.859 269.889,-187.658 277.369,-195.161 280.416,-188.859"/>
</g>
<!-- Node22&#45;&gt;Node2 -->
<g id="edge27" class="edge"><title>Node22&#45;&gt;Node2</title>
<path fill="none" stroke="midnightblue" d="M631.716,-224.083C627.289,-216.613 620.837,-205.724 615.382,-196.52"/>
<polygon fill="midnightblue" stroke="midnightblue" points="618.295,-194.57 610.186,-187.751 612.273,-198.138 618.295,-194.57"/>
</g>
<!-- Node23&#45;&gt;Node2 -->
<g id="edge29" class="edge"><title>Node23&#45;&gt;Node2</title>
<path fill="none" stroke="midnightblue" d="M461.095,-224.444C489.988,-215.32 535.925,-200.813 568.105,-190.651"/>
<polygon fill="midnightblue" stroke="midnightblue" points="569.549,-193.865 578.031,-187.516 567.441,-187.19 569.549,-193.865"/>
</g>
<!-- Node24&#45;&gt;Node2 -->
<g id="edge31" class="edge"><title>Node24&#45;&gt;Node2</title>
<path fill="none" stroke="midnightblue" d="M541.211,-224.324C552.776,-216.107 570.375,-203.602 584.161,-193.807"/>
<polygon fill="midnightblue" stroke="midnightblue" points="586.443,-196.479 592.567,-187.834 582.388,-190.773 586.443,-196.479"/>
</g>
<!-- Node26 -->
<g id="node26" class="node"><title>Node26</title>
<polygon fill="none" stroke="#bfbfbf" points="139.5,-168.5 139.5,-187.5 192.5,-187.5 192.5,-168.5 139.5,-168.5"/>
<text text-anchor="middle" x="166" y="-175.5" font-family="Helvetica,sans-Serif" font-size="10.00">string.h</text>
</g>
<!-- Node25&#45;&gt;Node26 -->
<g id="edge33" class="edge"><title>Node25&#45;&gt;Node26</title>
<path fill="none" stroke="midnightblue" d="M136.78,-224.083C141.672,-216.534 148.827,-205.495 154.833,-196.23"/>
<polygon fill="midnightblue" stroke="midnightblue" points="157.826,-198.046 160.328,-187.751 151.952,-194.239 157.826,-198.046"/>
</g>
<!-- Node27 -->
<g id="node27" class="node"><title>Node27</title>
<polygon fill="none" stroke="#bfbfbf" points="0,-168.5 0,-187.5 50,-187.5 50,-168.5 0,-168.5"/>
<text text-anchor="middle" x="25" y="-175.5" font-family="Helvetica,sans-Serif" font-size="10.00">stdio.h</text>
</g>
<!-- Node25&#45;&gt;Node27 -->
<g id="edge34" class="edge"><title>Node25&#45;&gt;Node27</title>
<path fill="none" stroke="midnightblue" d="M113.969,-224.324C96.9702,-215.664 70.6239,-202.242 51.0074,-192.249"/>
<polygon fill="midnightblue" stroke="midnightblue" points="52.4876,-189.075 41.9885,-187.655 49.3101,-195.312 52.4876,-189.075"/>
</g>
<!-- Node28 -->
<g id="node28" class="node"><title>Node28</title>
<polygon fill="none" stroke="#bfbfbf" points="68.5,-168.5 68.5,-187.5 121.5,-187.5 121.5,-168.5 68.5,-168.5"/>
<text text-anchor="middle" x="95" y="-175.5" font-family="Helvetica,sans-Serif" font-size="10.00">stdlib.h</text>
</g>
<!-- Node25&#45;&gt;Node28 -->
<g id="edge35" class="edge"><title>Node25&#45;&gt;Node28</title>
<path fill="none" stroke="midnightblue" d="M125.055,-224.083C120.023,-216.534 112.663,-205.495 106.487,-196.23"/>
<polygon fill="midnightblue" stroke="midnightblue" points="109.293,-194.13 100.834,-187.751 103.469,-198.013 109.293,-194.13"/>
</g>
<!-- Node29&#45;&gt;Node7 -->
<g id="edge37" class="edge"><title>Node29&#45;&gt;Node7</title>
<path fill="none" stroke="midnightblue" d="M229.572,-168.449C201.809,-156.643 160.444,-134.272 180,-112 199.599,-89.6783 392.782,-75.0908 481.211,-69.5312"/>
<polygon fill="midnightblue" stroke="midnightblue" points="481.44,-73.0238 491.205,-68.9134 481.008,-66.0372 481.44,-73.0238"/>
</g>
<!-- Node29&#45;&gt;Node17 -->
<g id="edge38" class="edge"><title>Node29&#45;&gt;Node17</title>
<path fill="none" stroke="midnightblue" d="M245.56,-168.083C240.051,-160.455 231.969,-149.264 225.235,-139.941"/>
<polygon fill="midnightblue" stroke="midnightblue" points="228.013,-137.809 219.32,-131.751 222.338,-141.907 228.013,-137.809"/>
</g>
</g>
</svg>
