<?xml version="1.0" encoding="UTF-8" standalone="no"?>
<!DOCTYPE svg PUBLIC "-//W3C//DTD SVG 1.1//EN"
 "http://www.w3.org/Graphics/SVG/1.1/DTD/svg11.dtd">
<!-- Generated by graphviz version 2.38.0 (20140413.2041)
 -->
<!-- Title: particle_data.hpp Pages: 1 -->
<svg width="771pt" height="252pt"
 viewBox="0.00 0.00 771.00 252.00" xmlns="http://www.w3.org/2000/svg" xmlns:xlink="http://www.w3.org/1999/xlink">
<g id="graph0" class="graph" transform="scale(1 1) rotate(0) translate(4 248)">
<title>particle_data.hpp</title>
<!-- Node1 -->
<g id="node1" class="node"><title>Node1</title>
<polygon fill="#bfbfbf" stroke="black" points="256,-224.5 256,-243.5 357,-243.5 357,-224.5 256,-224.5"/>
<text text-anchor="middle" x="306.5" y="-231.5" font-family="Helvetica,sans-Serif" font-size="10.00">particle_data.hpp</text>
</g>
<!-- Node2 -->
<g id="node2" class="node"><title>Node2</title>
<g id="a_node2"><a xlink:href="utils_8hpp.html" target="_top" xlink:title="Small functions that are useful not only for one modul. ">
<polygon fill="none" stroke="black" points="277,-168.5 277,-187.5 336,-187.5 336,-168.5 277,-168.5"/>
<text text-anchor="middle" x="306.5" y="-175.5" font-family="Helvetica,sans-Serif" font-size="10.00">utils.hpp</text>
</a>
</g>
</g>
<!-- Node1&#45;&gt;Node2 -->
<g id="edge1" class="edge"><title>Node1&#45;&gt;Node2</title>
<path fill="none" stroke="midnightblue" d="M306.5,-224.083C306.5,-217.006 306.5,-206.861 306.5,-197.986"/>
<polygon fill="midnightblue" stroke="midnightblue" points="310,-197.751 306.5,-187.751 303,-197.751 310,-197.751"/>
</g>
<!-- Node3 -->
<g id="node3" class="node"><title>Node3</title>
<polygon fill="none" stroke="#bfbfbf" points="0,-112.5 0,-131.5 47,-131.5 47,-112.5 0,-112.5"/>
<text text-anchor="middle" x="23.5" y="-119.5" font-family="Helvetica,sans-Serif" font-size="10.00">cmath</text>
</g>
<!-- Node2&#45;&gt;Node3 -->
<g id="edge2" class="edge"><title>Node2&#45;&gt;Node3</title>
<path fill="none" stroke="midnightblue" d="M276.697,-172.507C231.404,-165.491 142.363,-150.963 57.0721,-131.958"/>
<polygon fill="midnightblue" stroke="midnightblue" points="57.7551,-128.524 47.2303,-129.741 56.2167,-135.353 57.7551,-128.524"/>
</g>
<!-- Node4 -->
<g id="node4" class="node"><title>Node4</title>
<polygon fill="none" stroke="#bfbfbf" points="65.5,-112.5 65.5,-131.5 111.5,-131.5 111.5,-112.5 65.5,-112.5"/>
<text text-anchor="middle" x="88.5" y="-119.5" font-family="Helvetica,sans-Serif" font-size="10.00">cstdio</text>
</g>
<!-- Node2&#45;&gt;Node4 -->
<g id="edge3" class="edge"><title>Node2&#45;&gt;Node4</title>
<path fill="none" stroke="midnightblue" d="M276.96,-170.08C240.389,-161.453 176.232,-146.117 121.5,-132 121.399,-131.974 121.299,-131.948 121.198,-131.922"/>
<polygon fill="midnightblue" stroke="midnightblue" points="122.12,-128.545 111.557,-129.376 120.332,-135.313 122.12,-128.545"/>
</g>
<!-- Node5 -->
<g id="node5" class="node"><title>Node5</title>
<polygon fill="none" stroke="#bfbfbf" points="130,-112.5 130,-131.5 179,-131.5 179,-112.5 130,-112.5"/>
<text text-anchor="middle" x="154.5" y="-119.5" font-family="Helvetica,sans-Serif" font-size="10.00">cstdlib</text>
</g>
<!-- Node2&#45;&gt;Node5 -->
<g id="edge4" class="edge"><title>Node2&#45;&gt;Node5</title>
<path fill="none" stroke="midnightblue" d="M282.415,-168.444C256.955,-159.399 216.606,-145.064 188.041,-134.916"/>
<polygon fill="midnightblue" stroke="midnightblue" points="189.067,-131.566 178.472,-131.516 186.723,-138.162 189.067,-131.566"/>
</g>
<!-- Node6 -->
<g id="node6" class="node"><title>Node6</title>
<polygon fill="none" stroke="#bfbfbf" points="197.5,-112.5 197.5,-131.5 247.5,-131.5 247.5,-112.5 197.5,-112.5"/>
<text text-anchor="middle" x="222.5" y="-119.5" font-family="Helvetica,sans-Serif" font-size="10.00">cstring</text>
</g>
<!-- Node2&#45;&gt;Node6 -->
<g id="edge5" class="edge"><title>Node2&#45;&gt;Node6</title>
<path fill="none" stroke="midnightblue" d="M293.004,-168.324C279.9,-159.9 259.788,-146.971 244.393,-137.074"/>
<polygon fill="midnightblue" stroke="midnightblue" points="246.267,-134.118 235.963,-131.655 242.482,-140.006 246.267,-134.118"/>
</g>
<!-- Node7 -->
<g id="node7" class="node"><title>Node7</title>
<g id="a_node7"><a xlink:href="config_8hpp.html" target="_top" xlink:title="This file contains the defaults for Espresso. ">
<polygon fill="none" stroke="black" points="346,-56.5 346,-75.5 413,-75.5 413,-56.5 346,-56.5"/>
<text text-anchor="middle" x="379.5" y="-63.5" font-family="Helvetica,sans-Serif" font-size="10.00">config.hpp</text>
</a>
</g>
</g>
<!-- Node2&#45;&gt;Node7 -->
<g id="edge6" class="edge"><title>Node2&#45;&gt;Node7</title>
<path fill="none" stroke="midnightblue" d="M301.371,-168.331C294.337,-155.197 283.727,-129.893 294.5,-112 303.787,-96.5744 320.333,-86.1596 336.374,-79.2713"/>
<polygon fill="midnightblue" stroke="midnightblue" points="337.67,-82.5224 345.701,-75.6119 335.114,-76.006 337.67,-82.5224"/>
</g>
<!-- Node11 -->
<g id="node11" class="node"><title>Node11</title>
<g id="a_node11"><a xlink:href="debug_8hpp.html" target="_top" xlink:title="This file controls debug facilities. ">
<polygon fill="none" stroke="black" points="303.5,-112.5 303.5,-131.5 371.5,-131.5 371.5,-112.5 303.5,-112.5"/>
<text text-anchor="middle" x="337.5" y="-119.5" font-family="Helvetica,sans-Serif" font-size="10.00">debug.hpp</text>
</a>
</g>
</g>
<!-- Node2&#45;&gt;Node11 -->
<g id="edge10" class="edge"><title>Node2&#45;&gt;Node11</title>
<path fill="none" stroke="midnightblue" d="M311.619,-168.083C315.908,-160.613 322.158,-149.724 327.442,-140.52"/>
<polygon fill="midnightblue" stroke="midnightblue" points="330.533,-142.166 332.476,-131.751 324.462,-138.681 330.533,-142.166"/>
</g>
<!-- Node12 -->
<g id="node12" class="node"><title>Node12</title>
<g id="a_node12"><a xlink:href="lees__edwards_8hpp.html" target="_top" xlink:title="lees_edwards.hpp">
<polygon fill="none" stroke="black" points="389.5,-112.5 389.5,-131.5 493.5,-131.5 493.5,-112.5 389.5,-112.5"/>
<text text-anchor="middle" x="441.5" y="-119.5" font-family="Helvetica,sans-Serif" font-size="10.00">lees_edwards.hpp</text>
</a>
</g>
</g>
<!-- Node2&#45;&gt;Node12 -->
<g id="edge12" class="edge"><title>Node2&#45;&gt;Node12</title>
<path fill="none" stroke="midnightblue" d="M327.891,-168.444C350.207,-159.517 385.403,-145.439 410.708,-135.317"/>
<polygon fill="midnightblue" stroke="midnightblue" points="412.224,-138.48 420.209,-131.516 409.624,-131.981 412.224,-138.48"/>
</g>
<!-- Node13 -->
<g id="node13" class="node"><title>Node13</title>
<g id="a_node13"><a xlink:href="errorhandling_8hpp.html" target="_top" xlink:title="This file contains the errorhandling code for severe errors, like a broken bond or illegal parameter ...">
<polygon fill="none" stroke="black" points="512,-112.5 512,-131.5 615,-131.5 615,-112.5 512,-112.5"/>
<text text-anchor="middle" x="563.5" y="-119.5" font-family="Helvetica,sans-Serif" font-size="10.00">errorhandling.hpp</text>
</a>
</g>
</g>
<!-- Node2&#45;&gt;Node13 -->
<g id="edge14" class="edge"><title>Node2&#45;&gt;Node13</title>
<path fill="none" stroke="midnightblue" d="M336.232,-170.753C379.429,-161.676 460.124,-144.721 512.816,-133.649"/>
<polygon fill="midnightblue" stroke="midnightblue" points="513.571,-137.067 522.638,-131.586 512.132,-130.217 513.571,-137.067"/>
</g>
<!-- Node17 -->
<g id="node17" class="node"><title>Node17</title>
<polygon fill="none" stroke="#bfbfbf" points="633,-112.5 633,-131.5 680,-131.5 680,-112.5 633,-112.5"/>
<text text-anchor="middle" x="656.5" y="-119.5" font-family="Helvetica,sans-Serif" font-size="10.00">vector</text>
</g>
<!-- Node2&#45;&gt;Node17 -->
<g id="edge19" class="edge"><title>Node2&#45;&gt;Node17</title>
<path fill="none" stroke="midnightblue" d="M336.103,-174.146C390.93,-168.576 512.091,-154.93 622.826,-132.129"/>
<polygon fill="midnightblue" stroke="midnightblue" points="623.749,-135.512 632.822,-130.04 622.317,-128.66 623.749,-135.512"/>
</g>
<!-- Node18 -->
<g id="node18" class="node"><title>Node18</title>
<polygon fill="none" stroke="#bfbfbf" points="698,-112.5 698,-131.5 763,-131.5 763,-112.5 698,-112.5"/>
<text text-anchor="middle" x="730.5" y="-119.5" font-family="Helvetica,sans-Serif" font-size="10.00">exception</text>
</g>
<!-- Node2&#45;&gt;Node18 -->
<g id="edge20" class="edge"><title>Node2&#45;&gt;Node18</title>
<path fill="none" stroke="midnightblue" d="M336.44,-174.501C399.571,-169.013 551.131,-154.695 687.663,-132.172"/>
<polygon fill="midnightblue" stroke="midnightblue" points="688.596,-135.564 697.883,-130.465 687.443,-128.66 688.596,-135.564"/>
</g>
<!-- Node8 -->
<g id="node8" class="node"><title>Node8</title>
<g id="a_node8"><a xlink:href="acconfig_8hpp.html" target="_top" xlink:title="acconfig.hpp">
<polygon fill="none" stroke="black" points="229.5,-0.5 229.5,-19.5 307.5,-19.5 307.5,-0.5 229.5,-0.5"/>
<text text-anchor="middle" x="268.5" y="-7.5" font-family="Helvetica,sans-Serif" font-size="10.00">acconfig.hpp</text>
</a>
</g>
</g>
<!-- Node7&#45;&gt;Node8 -->
<g id="edge7" class="edge"><title>Node7&#45;&gt;Node8</title>
<path fill="none" stroke="midnightblue" d="M361.666,-56.324C343.784,-47.6247 316.025,-34.1202 295.454,-24.113"/>
<polygon fill="midnightblue" stroke="midnightblue" points="296.813,-20.8819 286.29,-19.6545 293.751,-27.1765 296.813,-20.8819"/>
</g>
<!-- Node9 -->
<g id="node9" class="node"><title>Node9</title>
<g id="a_node9"><a xlink:href="myconfig-final_8hpp.html" target="_top" xlink:title="myconfig&#45;final.hpp">
<polygon fill="none" stroke="black" points="326,-0.5 326,-19.5 433,-19.5 433,-0.5 326,-0.5"/>
<text text-anchor="middle" x="379.5" y="-7.5" font-family="Helvetica,sans-Serif" font-size="10.00">myconfig&#45;final.hpp</text>
</a>
</g>
</g>
<!-- Node7&#45;&gt;Node9 -->
<g id="edge8" class="edge"><title>Node7&#45;&gt;Node9</title>
<path fill="none" stroke="midnightblue" d="M379.5,-56.083C379.5,-49.0059 379.5,-38.8611 379.5,-29.9865"/>
<polygon fill="midnightblue" stroke="midnightblue" points="383,-29.751 379.5,-19.7511 376,-29.7511 383,-29.751"/>
</g>
<!-- Node10 -->
<g id="node10" class="node"><title>Node10</title>
<g id="a_node10"><a xlink:href="config-features_8hpp.html" target="_top" xlink:title="config&#45;features.hpp">
<polygon fill="none" stroke="black" points="451,-0.5 451,-19.5 562,-19.5 562,-0.5 451,-0.5"/>
<text text-anchor="middle" x="506.5" y="-7.5" font-family="Helvetica,sans-Serif" font-size="10.00">config&#45;features.hpp</text>
</a>
</g>
</g>
<!-- Node7&#45;&gt;Node10 -->
<g id="edge9" class="edge"><title>Node7&#45;&gt;Node10</title>
<path fill="none" stroke="midnightblue" d="M399.624,-56.4435C420.524,-47.5566 453.435,-33.5632 477.216,-23.4514"/>
<polygon fill="midnightblue" stroke="midnightblue" points="478.638,-26.6504 486.471,-19.5164 475.898,-20.2085 478.638,-26.6504"/>
</g>
<!-- Node11&#45;&gt;Node7 -->
<g id="edge11" class="edge"><title>Node11&#45;&gt;Node7</title>
<path fill="none" stroke="midnightblue" d="M344.435,-112.083C350.429,-104.377 359.252,-93.0333 366.548,-83.6531"/>
<polygon fill="midnightblue" stroke="midnightblue" points="369.317,-85.7934 372.694,-75.7511 363.791,-81.4958 369.317,-85.7934"/>
</g>
<!-- Node12&#45;&gt;Node7 -->
<g id="edge13" class="edge"><title>Node12&#45;&gt;Node7</title>
<path fill="none" stroke="midnightblue" d="M431.539,-112.324C422.373,-104.341 408.563,-92.3128 397.472,-82.6529"/>
<polygon fill="midnightblue" stroke="midnightblue" points="399.482,-79.7624 389.643,-75.8339 394.885,-85.041 399.482,-79.7624"/>
</g>
<!-- Node13&#45;&gt;Node7 -->
<g id="edge15" class="edge"><title>Node13&#45;&gt;Node7</title>
<path fill="none" stroke="midnightblue" d="M534.345,-112.444C502.987,-103.241 452.969,-88.5617 418.303,-78.3879"/>
<polygon fill="midnightblue" stroke="midnightblue" points="419.1,-74.9742 408.519,-75.5164 417.129,-81.6909 419.1,-74.9742"/>
</g>
<!-- Node14 -->
<g id="node14" class="node"><title>Node14</title>
<polygon fill="none" stroke="#bfbfbf" points="473.5,-56.5 473.5,-75.5 517.5,-75.5 517.5,-56.5 473.5,-56.5"/>
<text text-anchor="middle" x="495.5" y="-63.5" font-family="Helvetica,sans-Serif" font-size="10.00">string</text>
</g>
<!-- Node13&#45;&gt;Node14 -->
<g id="edge16" class="edge"><title>Node13&#45;&gt;Node14</title>
<path fill="none" stroke="midnightblue" d="M552.575,-112.324C542.325,-104.185 526.779,-91.8395 514.499,-82.0874"/>
<polygon fill="midnightblue" stroke="midnightblue" points="516.632,-79.3119 506.624,-75.8339 512.279,-84.7937 516.632,-79.3119"/>
</g>
<!-- Node15 -->
<g id="node15" class="node"><title>Node15</title>
<polygon fill="none" stroke="#bfbfbf" points="535.5,-56.5 535.5,-75.5 591.5,-75.5 591.5,-56.5 535.5,-56.5"/>
<text text-anchor="middle" x="563.5" y="-63.5" font-family="Helvetica,sans-Serif" font-size="10.00">sstream</text>
</g>
<!-- Node13&#45;&gt;Node15 -->
<g id="edge17" class="edge"><title>Node13&#45;&gt;Node15</title>
<path fill="none" stroke="midnightblue" d="M563.5,-112.083C563.5,-105.006 563.5,-94.8611 563.5,-85.9865"/>
<polygon fill="midnightblue" stroke="midnightblue" points="567,-85.751 563.5,-75.7511 560,-85.7511 567,-85.751"/>
</g>
<!-- Node16 -->
<g id="node16" class="node"><title>Node16</title>
<polygon fill="none" stroke="#bfbfbf" points="609.5,-56.5 609.5,-75.5 641.5,-75.5 641.5,-56.5 609.5,-56.5"/>
<text text-anchor="middle" x="625.5" y="-63.5" font-family="Helvetica,sans-Serif" font-size="10.00">list</text>
</g>
<!-- Node13&#45;&gt;Node16 -->
<g id="edge18" class="edge"><title>Node13&#45;&gt;Node16</title>
<path fill="none" stroke="midnightblue" d="M573.461,-112.324C582.627,-104.341 596.437,-92.3128 607.528,-82.6529"/>
<polygon fill="midnightblue" stroke="midnightblue" points="610.115,-85.041 615.357,-75.8339 605.518,-79.7624 610.115,-85.041"/>
</g>
</g>
</svg>
