<?xml version="1.0" encoding="UTF-8" standalone="no"?>
<!DOCTYPE svg PUBLIC "-//W3C//DTD SVG 1.1//EN"
 "http://www.w3.org/Graphics/SVG/1.1/DTD/svg11.dtd">
<!-- Generated by graphviz version 2.38.0 (20140413.2041)
 -->
<!-- Title: polynom.hpp Pages: 1 -->
<svg width="808pt" height="196pt"
 viewBox="0.00 0.00 808.00 196.00" xmlns="http://www.w3.org/2000/svg" xmlns:xlink="http://www.w3.org/1999/xlink">
<g id="graph0" class="graph" transform="scale(1 1) rotate(0) translate(4 192)">
<title>polynom.hpp</title>
<!-- Node1 -->
<g id="node1" class="node"><title>Node1</title>
<polygon fill="#bfbfbf" stroke="black" points="626.5,-168.5 626.5,-187.5 706.5,-187.5 706.5,-168.5 626.5,-168.5"/>
<text text-anchor="middle" x="666.5" y="-175.5" font-family="Helvetica,sans-Serif" font-size="10.00">polynom.hpp</text>
</g>
<!-- Node2 -->
<g id="node2" class="node"><title>Node2</title>
<g id="a_node2"><a xlink:href="mmm-common_8hpp.html" target="_top" xlink:title="modified polygamma functions. ">
<polygon fill="none" stroke="black" points="385,-112.5 385,-131.5 498,-131.5 498,-112.5 385,-112.5"/>
<text text-anchor="middle" x="441.5" y="-119.5" font-family="Helvetica,sans-Serif" font-size="10.00">mmm&#45;common.hpp</text>
</a>
</g>
</g>
<!-- Node1&#45;&gt;Node2 -->
<g id="edge1" class="edge"><title>Node1&#45;&gt;Node2</title>
<path fill="none" stroke="midnightblue" d="M621.035,-166.088C578.527,-155.887 515.921,-140.861 476.985,-131.516"/>
<polygon fill="midnightblue" stroke="midnightblue" points="620.307,-169.513 630.848,-168.444 621.941,-162.706 620.307,-169.513"/>
</g>
<!-- Node7 -->
<g id="node7" class="node"><title>Node7</title>
<g id="a_node7"><a xlink:href="mmm1d_8cpp.html" target="_top" xlink:title="MMM1D algorithm for long range coulomb interaction. ">
<polygon fill="none" stroke="black" points="608.5,-56.5 608.5,-75.5 686.5,-75.5 686.5,-56.5 608.5,-56.5"/>
<text text-anchor="middle" x="647.5" y="-63.5" font-family="Helvetica,sans-Serif" font-size="10.00">mmm1d.cpp</text>
</a>
</g>
</g>
<!-- Node1&#45;&gt;Node7 -->
<g id="edge10" class="edge"><title>Node1&#45;&gt;Node7</title>
<path fill="none" stroke="midnightblue" d="M663.278,-158.348C659.117,-134.254 652.044,-93.3079 648.984,-75.5914"/>
<polygon fill="midnightblue" stroke="midnightblue" points="659.858,-159.11 665.009,-168.368 666.756,-157.919 659.858,-159.11"/>
</g>
<!-- Node10 -->
<g id="node10" class="node"><title>Node10</title>
<g id="a_node10"><a xlink:href="mmm1d__tcl_8cpp.html" target="_top" xlink:title="mmm1d_tcl.cpp">
<polygon fill="none" stroke="black" points="705,-56.5 705,-75.5 800,-75.5 800,-56.5 705,-56.5"/>
<text text-anchor="middle" x="752.5" y="-63.5" font-family="Helvetica,sans-Serif" font-size="10.00">mmm1d_tcl.cpp</text>
</a>
</g>
</g>
<!-- Node1&#45;&gt;Node10 -->
<g id="edge12" class="edge"><title>Node1&#45;&gt;Node10</title>
<path fill="none" stroke="midnightblue" d="M675.298,-158.852C682.288,-145.296 692.808,-126.657 704.5,-112 715.755,-97.8911 731.401,-84.0565 741.731,-75.5319"/>
<polygon fill="midnightblue" stroke="midnightblue" points="672.026,-157.57 670.679,-168.079 678.286,-160.703 672.026,-157.57"/>
</g>
<!-- Node11 -->
<g id="node11" class="node"><title>Node11</title>
<g id="a_node11"><a xlink:href="specfunc_8cpp.html" target="_top" xlink:title="Special functions, see specfunc.h. ">
<polygon fill="none" stroke="black" points="713.5,-112.5 713.5,-131.5 793.5,-131.5 793.5,-112.5 713.5,-112.5"/>
<text text-anchor="middle" x="753.5" y="-119.5" font-family="Helvetica,sans-Serif" font-size="10.00">specfunc.cpp</text>
</a>
</g>
</g>
<!-- Node1&#45;&gt;Node11 -->
<g id="edge11" class="edge"><title>Node1&#45;&gt;Node11</title>
<path fill="none" stroke="midnightblue" d="M689.216,-162.901C705.169,-152.999 725.997,-140.071 739.557,-131.655"/>
<polygon fill="midnightblue" stroke="midnightblue" points="687.129,-160.077 680.478,-168.324 690.82,-166.024 687.129,-160.077"/>
</g>
<!-- Node3 -->
<g id="node3" class="node"><title>Node3</title>
<g id="a_node3"><a xlink:href="mmm-common__cuda_8hpp.html" target="_top" xlink:title="mmm&#45;common_cuda.hpp">
<polygon fill="none" stroke="black" points="448.5,-56.5 448.5,-75.5 590.5,-75.5 590.5,-56.5 448.5,-56.5"/>
<text text-anchor="middle" x="519.5" y="-63.5" font-family="Helvetica,sans-Serif" font-size="10.00">mmm&#45;common_cuda.hpp</text>
</a>
</g>
</g>
<!-- Node2&#45;&gt;Node3 -->
<g id="edge2" class="edge"><title>Node2&#45;&gt;Node3</title>
<path fill="none" stroke="midnightblue" d="M462.268,-106.622C476.517,-96.7574 494.956,-83.9919 506.999,-75.6545"/>
<polygon fill="midnightblue" stroke="midnightblue" points="460.262,-103.754 454.032,-112.324 464.246,-109.51 460.262,-103.754"/>
</g>
<!-- Node5 -->
<g id="node5" class="node"><title>Node5</title>
<g id="a_node5"><a xlink:href="elc_8cpp.html" target="_top" xlink:title="For more information about ELC, see elc.hpp. ">
<polygon fill="none" stroke="black" points="0,-56.5 0,-75.5 51,-75.5 51,-56.5 0,-56.5"/>
<text text-anchor="middle" x="25.5" y="-63.5" font-family="Helvetica,sans-Serif" font-size="10.00">elc.cpp</text>
</a>
</g>
</g>
<!-- Node2&#45;&gt;Node5 -->
<g id="edge4" class="edge"><title>Node2&#45;&gt;Node5</title>
<path fill="none" stroke="midnightblue" d="M374.818,-116.023C298.238,-109.643 169.055,-96.8443 59.5,-76 56.7407,-75.475 53.8753,-74.8481 51.0309,-74.1728"/>
<polygon fill="midnightblue" stroke="midnightblue" points="374.555,-119.513 384.808,-116.844 375.128,-112.537 374.555,-119.513"/>
</g>
<!-- Node6 -->
<g id="node6" class="node"><title>Node6</title>
<g id="a_node6"><a xlink:href="mmm-common_8cpp.html" target="_top" xlink:title="Common parts of the MMM family of methods for the electrostatic interaction, MMM1D, MMM2D and ELC. ">
<polygon fill="none" stroke="black" points="69,-56.5 69,-75.5 182,-75.5 182,-56.5 69,-56.5"/>
<text text-anchor="middle" x="125.5" y="-63.5" font-family="Helvetica,sans-Serif" font-size="10.00">mmm&#45;common.cpp</text>
</a>
</g>
</g>
<!-- Node2&#45;&gt;Node6 -->
<g id="edge5" class="edge"><title>Node2&#45;&gt;Node6</title>
<path fill="none" stroke="midnightblue" d="M381.387,-110.727C321.672,-100.523 231.175,-85.0583 175.337,-75.5164"/>
<polygon fill="midnightblue" stroke="midnightblue" points="380.982,-114.209 391.429,-112.444 382.161,-107.309 380.982,-114.209"/>
</g>
<!-- Node2&#45;&gt;Node7 -->
<g id="edge6" class="edge"><title>Node2&#45;&gt;Node7</title>
<path fill="none" stroke="midnightblue" d="M484.115,-109.829C523.01,-99.6333 579.664,-84.7823 615.011,-75.5164"/>
<polygon fill="midnightblue" stroke="midnightblue" points="482.927,-106.522 474.141,-112.444 484.702,-113.293 482.927,-106.522"/>
</g>
<!-- Node8 -->
<g id="node8" class="node"><title>Node8</title>
<g id="a_node8"><a xlink:href="mmm2d_8cpp.html" target="_top" xlink:title="MMM2D algorithm for long range coulomb interaction. ">
<polygon fill="none" stroke="black" points="200.5,-56.5 200.5,-75.5 278.5,-75.5 278.5,-56.5 200.5,-56.5"/>
<text text-anchor="middle" x="239.5" y="-63.5" font-family="Helvetica,sans-Serif" font-size="10.00">mmm2d.cpp</text>
</a>
</g>
</g>
<!-- Node2&#45;&gt;Node8 -->
<g id="edge7" class="edge"><title>Node2&#45;&gt;Node8</title>
<path fill="none" stroke="midnightblue" d="M399.712,-109.829C361.573,-99.6333 306.019,-84.7823 271.358,-75.5164"/>
<polygon fill="midnightblue" stroke="midnightblue" points="398.928,-113.242 409.492,-112.444 400.736,-106.48 398.928,-113.242"/>
</g>
<!-- Node9 -->
<g id="node9" class="node"><title>Node9</title>
<g id="a_node9"><a xlink:href="interaction__data__tcl_8cpp.html" target="_top" xlink:title="interaction_data_tcl.cpp">
<polygon fill="none" stroke="black" points="296.5,-56.5 296.5,-75.5 430.5,-75.5 430.5,-56.5 296.5,-56.5"/>
<text text-anchor="middle" x="363.5" y="-63.5" font-family="Helvetica,sans-Serif" font-size="10.00">interaction_data_tcl.cpp</text>
</a>
</g>
</g>
<!-- Node2&#45;&gt;Node9 -->
<g id="edge8" class="edge"><title>Node2&#45;&gt;Node9</title>
<path fill="none" stroke="midnightblue" d="M420.732,-106.622C406.483,-96.7574 388.044,-83.9919 376.001,-75.6545"/>
<polygon fill="midnightblue" stroke="midnightblue" points="418.754,-109.51 428.968,-112.324 422.738,-103.754 418.754,-109.51"/>
</g>
<!-- Node2&#45;&gt;Node10 -->
<g id="edge9" class="edge"><title>Node2&#45;&gt;Node10</title>
<path fill="none" stroke="midnightblue" d="M500.752,-110.712C560.072,-100.412 650.191,-84.7643 704.982,-75.2508"/>
<polygon fill="midnightblue" stroke="midnightblue" points="500.033,-107.284 490.779,-112.444 501.23,-114.181 500.033,-107.284"/>
</g>
<!-- Node4 -->
<g id="node4" class="node"><title>Node4</title>
<g id="a_node4"><a xlink:href="Mmm1dgpuForce__cuda_8cu.html" target="_top" xlink:title="Mmm1dgpuForce_cuda.cu">
<polygon fill="none" stroke="black" points="448,-0.5 448,-19.5 591,-19.5 591,-0.5 448,-0.5"/>
<text text-anchor="middle" x="519.5" y="-7.5" font-family="Helvetica,sans-Serif" font-size="10.00">Mmm1dgpuForce_cuda.cu</text>
</a>
</g>
</g>
<!-- Node3&#45;&gt;Node4 -->
<g id="edge3" class="edge"><title>Node3&#45;&gt;Node4</title>
<path fill="none" stroke="midnightblue" d="M519.5,-45.8045C519.5,-36.9102 519.5,-26.7798 519.5,-19.7511"/>
<polygon fill="midnightblue" stroke="midnightblue" points="516,-46.083 519.5,-56.083 523,-46.083 516,-46.083"/>
</g>
</g>
</svg>
