<?xml version="1.0" encoding="UTF-8" standalone="no"?>
<!DOCTYPE svg PUBLIC "-//W3C//DTD SVG 1.1//EN"
 "http://www.w3.org/Graphics/SVG/1.1/DTD/svg11.dtd">
<!-- Generated by graphviz version 2.38.0 (20140413.2041)
 -->
<!-- Title: polymer_tcl.cpp Pages: 1 -->
<!--zoomable 420 -->
<svg id="main" version="1.1" xmlns="http://www.w3.org/2000/svg" xmlns:xlink="http://www.w3.org/1999/xlink" xml:space="preserve" onload="init(evt)">
<style type="text/css"><![CDATA[
.edge:hover path { stroke: red; }
.edge:hover polygon { stroke: red; fill: red; }
]]></style>
<script type="text/javascript"><![CDATA[
var edges = document.getElementsByTagName('g');
if (edges && edges.length) {
  for (var i=0;i<edges.length;i++) {
    if (edges[i].id.substr(0,4)=='edge') {
      edges[i].setAttribute('class','edge');
    }
  }
}
]]></script>
        <defs>
                <circle id="rim" cx="0" cy="0" r="7"/>
                <circle id="rim2" cx="0" cy="0" r="3.5"/>
                <g id="zoomPlus">
                        <use xlink:href="#rim" fill="#404040">
                                <set attributeName="fill" to="#808080" begin="zoomplus.mouseover" end="zoomplus.mouseout"/>
                        </use>
                        <path d="M-4,0h8M0,-4v8" fill="none" stroke="white" stroke-width="1.5" pointer-events="none"/>
                </g>
                <g id="zoomMin">
                        <use xlink:href="#rim" fill="#404040">
                                <set attributeName="fill" to="#808080" begin="zoomminus.mouseover" end="zoomminus.mouseout"/>
                        </use>
                        <path d="M-4,0h8" fill="none" stroke="white" stroke-width="1.5" pointer-events="none"/>
                </g>
                <g id="dirArrow">
                        <path fill="none" stroke="white" stroke-width="1.5" d="M0,-3.0v7 M-2.5,-0.5L0,-3.0L2.5,-0.5"/>
                </g>
               <g id="resetDef">
                       <use xlink:href="#rim2" fill="#404040">
                               <set attributeName="fill" to="#808080" begin="reset.mouseover" end="reset.mouseout"/>
                       </use>
               </g>
        </defs>

<script type="text/javascript">
var viewWidth = 923;
var viewHeight = 420;
var sectionId = 'dynsection-0';
</script>
<script xlink:href="svgpan.js"/>
<svg id="graph" class="graph">
<g id="viewport">
<title>polymer_tcl.cpp</title>
<!-- Node1 -->
<g id="node1" class="node"><title>Node1</title>
<polygon fill="#bfbfbf" stroke="black" points="514,-392.5 514,-411.5 609,-411.5 609,-392.5 514,-392.5"/>
<text text-anchor="middle" x="561.5" y="-399.5" font-family="Helvetica,sans-Serif" font-size="10.00">polymer_tcl.cpp</text>
</g>
<!-- Node2 -->
<g id="node2" class="node"><title>Node2</title>
<g id="a_node2"><a xlink:href="polymer_8hpp.html" target="_top" xlink:title="This file contains everything needed to create a start&#45;up configuration of (partially charged) polyme...">
<polygon fill="none" stroke="black" points="473,-336.5 473,-355.5 550,-355.5 550,-336.5 473,-336.5"/>
<text text-anchor="middle" x="511.5" y="-343.5" font-family="Helvetica,sans-Serif" font-size="10.00">polymer.hpp</text>
</a>
</g>
</g>
<!-- Node1&#45;&gt;Node2 -->
<g id="edge1" class="edge"><title>Node1&#45;&gt;Node2</title>
<path fill="none" stroke="midnightblue" d="M553.244,-392.083C546.035,-384.298 535.39,-372.801 526.654,-363.367"/>
<polygon fill="midnightblue" stroke="midnightblue" points="528.965,-360.711 519.603,-355.751 523.829,-365.467 528.965,-360.711"/>
</g>
<!-- Node21 -->
<g id="node21" class="node"><title>Node21</title>
<g id="a_node21"><a xlink:href="communication_8hpp.html" target="_top" xlink:title="This file contains the asynchronous MPI communication. ">
<polygon fill="none" stroke="black" points="290,-280.5 290,-299.5 403,-299.5 403,-280.5 290,-280.5"/>
<text text-anchor="middle" x="346.5" y="-287.5" font-family="Helvetica,sans-Serif" font-size="10.00">communication.hpp</text>
</a>
</g>
</g>
<!-- Node1&#45;&gt;Node21 -->
<g id="edge23" class="edge"><title>Node1&#45;&gt;Node21</title>
<path fill="none" stroke="midnightblue" d="M513.82,-397.741C476.938,-393.174 426.148,-382.225 389.5,-356 372.871,-344.1 360.89,-323.598 353.865,-308.797"/>
<polygon fill="midnightblue" stroke="midnightblue" points="357.054,-307.355 349.796,-299.637 350.657,-310.197 357.054,-307.355"/>
</g>
<!-- Node29 -->
<g id="node29" class="node"><title>Node29</title>
<g id="a_node29"><a xlink:href="interaction__data_8hpp.html" target="_top" xlink:title="Various procedures concerning interactions between particles. ">
<polygon fill="none" stroke="black" points="608,-280.5 608,-299.5 725,-299.5 725,-280.5 608,-280.5"/>
<text text-anchor="middle" x="666.5" y="-287.5" font-family="Helvetica,sans-Serif" font-size="10.00">interaction_data.hpp</text>
</a>
</g>
</g>
<!-- Node1&#45;&gt;Node29 -->
<g id="edge36" class="edge"><title>Node1&#45;&gt;Node29</title>
<path fill="none" stroke="midnightblue" d="M606.685,-392.456C627.526,-386.06 650.481,-375 663.5,-356 672.67,-342.617 672.496,-323.794 670.575,-309.846"/>
<polygon fill="midnightblue" stroke="midnightblue" points="674.004,-309.134 668.806,-299.902 667.112,-310.361 674.004,-309.134"/>
</g>
<!-- Node30 -->
<g id="node30" class="node"><title>Node30</title>
<g id="a_node30"><a xlink:href="parser_8hpp.html" target="_top" xlink:title="This file contains macros for parsing the parameters to the &#39;inter&#39; command. ">
<polygon fill="none" stroke="black" points="719.5,-224.5 719.5,-243.5 787.5,-243.5 787.5,-224.5 719.5,-224.5"/>
<text text-anchor="middle" x="753.5" y="-231.5" font-family="Helvetica,sans-Serif" font-size="10.00">parser.hpp</text>
</a>
</g>
</g>
<!-- Node1&#45;&gt;Node30 -->
<g id="edge39" class="edge"><title>Node1&#45;&gt;Node30</title>
<path fill="none" stroke="midnightblue" d="M596.615,-392.492C621.685,-385.347 655.442,-373.47 681.5,-356 709.711,-337.087 716.523,-329.417 733.5,-300 741.799,-285.62 747.016,-267.424 750.032,-253.945"/>
<polygon fill="midnightblue" stroke="midnightblue" points="753.508,-254.414 752.067,-243.918 746.648,-253.022 753.508,-254.414"/>
</g>
<!-- Node32 -->
<g id="node32" class="node"><title>Node32</title>
<g id="a_node32"><a xlink:href="grid_8hpp.html" target="_top" xlink:title="Domain decomposition for parallel computing. ">
<polygon fill="none" stroke="black" points="398.5,-336.5 398.5,-355.5 454.5,-355.5 454.5,-336.5 398.5,-336.5"/>
<text text-anchor="middle" x="426.5" y="-343.5" font-family="Helvetica,sans-Serif" font-size="10.00">grid.hpp</text>
</a>
</g>
</g>
<!-- Node1&#45;&gt;Node32 -->
<g id="edge43" class="edge"><title>Node1&#45;&gt;Node32</title>
<path fill="none" stroke="midnightblue" d="M540.109,-392.444C517.793,-383.517 482.597,-369.439 457.292,-359.317"/>
<polygon fill="midnightblue" stroke="midnightblue" points="458.376,-355.981 447.791,-355.516 455.776,-362.48 458.376,-355.981"/>
</g>
<!-- Node34 -->
<g id="node34" class="node"><title>Node34</title>
<g id="a_node34"><a xlink:href="constraint_8hpp.html" target="_top" xlink:title="Routines for handling of constraints. ">
<polygon fill="none" stroke="black" points="568.5,-336.5 568.5,-355.5 654.5,-355.5 654.5,-336.5 568.5,-336.5"/>
<text text-anchor="middle" x="611.5" y="-343.5" font-family="Helvetica,sans-Serif" font-size="10.00">constraint.hpp</text>
</a>
</g>
</g>
<!-- Node1&#45;&gt;Node34 -->
<g id="edge48" class="edge"><title>Node1&#45;&gt;Node34</title>
<path fill="none" stroke="midnightblue" d="M569.756,-392.083C576.965,-384.298 587.61,-372.801 596.346,-363.367"/>
<polygon fill="midnightblue" stroke="midnightblue" points="599.171,-365.467 603.397,-355.751 594.035,-360.711 599.171,-365.467"/>
</g>
<!-- Node3 -->
<g id="node3" class="node"><title>Node3</title>
<g id="a_node3"><a xlink:href="particle__data_8hpp.html" target="_top" xlink:title="For more information on particle_data, see particle_data.c. ">
<polygon fill="none" stroke="black" points="532,-224.5 532,-243.5 633,-243.5 633,-224.5 532,-224.5"/>
<text text-anchor="middle" x="582.5" y="-231.5" font-family="Helvetica,sans-Serif" font-size="10.00">particle_data.hpp</text>
</a>
</g>
</g>
<!-- Node2&#45;&gt;Node3 -->
<g id="edge2" class="edge"><title>Node2&#45;&gt;Node3</title>
<path fill="none" stroke="midnightblue" d="M517.071,-336.368C528.736,-318.296 555.923,-276.176 571.329,-252.307"/>
<polygon fill="midnightblue" stroke="midnightblue" points="574.472,-253.891 576.955,-243.591 568.591,-250.095 574.472,-253.891"/>
</g>
<!-- Node4 -->
<g id="node4" class="node"><title>Node4</title>
<g id="a_node4"><a xlink:href="utils_8hpp.html" target="_top" xlink:title="Small functions that are useful not only for one modul. ">
<polygon fill="none" stroke="black" points="542,-168.5 542,-187.5 601,-187.5 601,-168.5 542,-168.5"/>
<text text-anchor="middle" x="571.5" y="-175.5" font-family="Helvetica,sans-Serif" font-size="10.00">utils.hpp</text>
</a>
</g>
</g>
<!-- Node3&#45;&gt;Node4 -->
<g id="edge3" class="edge"><title>Node3&#45;&gt;Node4</title>
<path fill="none" stroke="midnightblue" d="M580.684,-224.083C579.226,-216.927 577.129,-206.635 575.307,-197.691"/>
<polygon fill="midnightblue" stroke="midnightblue" points="578.708,-196.851 573.283,-187.751 571.849,-198.248 578.708,-196.851"/>
</g>
<!-- Node5 -->
<g id="node5" class="node"><title>Node5</title>
<polygon fill="none" stroke="#bfbfbf" points="543,-112.5 543,-131.5 590,-131.5 590,-112.5 543,-112.5"/>
<text text-anchor="middle" x="566.5" y="-119.5" font-family="Helvetica,sans-Serif" font-size="10.00">cmath</text>
</g>
<!-- Node4&#45;&gt;Node5 -->
<g id="edge4" class="edge"><title>Node4&#45;&gt;Node5</title>
<path fill="none" stroke="midnightblue" d="M570.674,-168.083C570.019,-161.006 569.08,-150.861 568.258,-141.986"/>
<polygon fill="midnightblue" stroke="midnightblue" points="571.717,-141.386 567.31,-131.751 564.747,-142.031 571.717,-141.386"/>
</g>
<!-- Node6 -->
<g id="node6" class="node"><title>Node6</title>
<polygon fill="none" stroke="#bfbfbf" points="646.5,-112.5 646.5,-131.5 692.5,-131.5 692.5,-112.5 646.5,-112.5"/>
<text text-anchor="middle" x="669.5" y="-119.5" font-family="Helvetica,sans-Serif" font-size="10.00">cstdio</text>
</g>
<!-- Node4&#45;&gt;Node6 -->
<g id="edge5" class="edge"><title>Node4&#45;&gt;Node6</title>
<path fill="none" stroke="midnightblue" d="M587.245,-168.324C602.819,-159.743 626.877,-146.486 644.959,-136.522"/>
<polygon fill="midnightblue" stroke="midnightblue" points="646.724,-139.546 653.794,-131.655 643.346,-133.415 646.724,-139.546"/>
</g>
<!-- Node7 -->
<g id="node7" class="node"><title>Node7</title>
<polygon fill="none" stroke="#bfbfbf" points="711,-112.5 711,-131.5 760,-131.5 760,-112.5 711,-112.5"/>
<text text-anchor="middle" x="735.5" y="-119.5" font-family="Helvetica,sans-Serif" font-size="10.00">cstdlib</text>
</g>
<!-- Node4&#45;&gt;Node7 -->
<g id="edge6" class="edge"><title>Node4&#45;&gt;Node7</title>
<path fill="none" stroke="midnightblue" d="M597.486,-168.444C625.604,-159.185 670.552,-144.385 701.469,-134.205"/>
<polygon fill="midnightblue" stroke="midnightblue" points="702.571,-137.527 710.975,-131.075 700.382,-130.879 702.571,-137.527"/>
</g>
<!-- Node8 -->
<g id="node8" class="node"><title>Node8</title>
<polygon fill="none" stroke="#bfbfbf" points="864.5,-112.5 864.5,-131.5 914.5,-131.5 914.5,-112.5 864.5,-112.5"/>
<text text-anchor="middle" x="889.5" y="-119.5" font-family="Helvetica,sans-Serif" font-size="10.00">cstring</text>
</g>
<!-- Node4&#45;&gt;Node8 -->
<g id="edge7" class="edge"><title>Node4&#45;&gt;Node8</title>
<path fill="none" stroke="midnightblue" d="M601.118,-173.316C651.245,-166.865 756.156,-152.429 854.238,-132.088"/>
<polygon fill="midnightblue" stroke="midnightblue" points="855.25,-135.452 864.317,-129.971 853.811,-128.601 855.25,-135.452"/>
</g>
<!-- Node9 -->
<g id="node9" class="node"><title>Node9</title>
<g id="a_node9"><a xlink:href="config_8hpp.html" target="_top" xlink:title="This file contains the defaults for Espresso. ">
<polygon fill="none" stroke="black" points="356,-56.5 356,-75.5 423,-75.5 423,-56.5 356,-56.5"/>
<text text-anchor="middle" x="389.5" y="-63.5" font-family="Helvetica,sans-Serif" font-size="10.00">config.hpp</text>
</a>
</g>
</g>
<!-- Node4&#45;&gt;Node9 -->
<g id="edge8" class="edge"><title>Node4&#45;&gt;Node9</title>
<path fill="none" stroke="midnightblue" d="M580.466,-168.183C592.932,-154.856 612.473,-129.302 598.5,-112 578.18,-86.8396 488.674,-75.0813 433.593,-70.1379"/>
<polygon fill="midnightblue" stroke="midnightblue" points="433.663,-66.6311 423.4,-69.2653 433.065,-73.6056 433.663,-66.6311"/>
</g>
<!-- Node13 -->
<g id="node13" class="node"><title>Node13</title>
<g id="a_node13"><a xlink:href="debug_8hpp.html" target="_top" xlink:title="This file controls debug facilities. ">
<polygon fill="none" stroke="black" points="778.5,-112.5 778.5,-131.5 846.5,-131.5 846.5,-112.5 778.5,-112.5"/>
<text text-anchor="middle" x="812.5" y="-119.5" font-family="Helvetica,sans-Serif" font-size="10.00">debug.hpp</text>
</a>
</g>
</g>
<!-- Node4&#45;&gt;Node13 -->
<g id="edge12" class="edge"><title>Node4&#45;&gt;Node13</title>
<path fill="none" stroke="midnightblue" d="M601.051,-170.379C642.943,-160.992 719.897,-143.749 768.513,-132.856"/>
<polygon fill="midnightblue" stroke="midnightblue" points="769.441,-136.235 778.434,-130.633 767.911,-129.404 769.441,-136.235"/>
</g>
<!-- Node14 -->
<g id="node14" class="node"><title>Node14</title>
<g id="a_node14"><a xlink:href="lees__edwards_8hpp.html" target="_top" xlink:title="lees_edwards.hpp">
<polygon fill="none" stroke="black" points="337.5,-112.5 337.5,-131.5 441.5,-131.5 441.5,-112.5 337.5,-112.5"/>
<text text-anchor="middle" x="389.5" y="-119.5" font-family="Helvetica,sans-Serif" font-size="10.00">lees_edwards.hpp</text>
</a>
</g>
</g>
<!-- Node4&#45;&gt;Node14 -->
<g id="edge14" class="edge"><title>Node4&#45;&gt;Node14</title>
<path fill="none" stroke="midnightblue" d="M542.662,-168.444C511.644,-159.241 462.171,-144.562 427.882,-134.388"/>
<polygon fill="midnightblue" stroke="midnightblue" points="428.786,-131.006 418.204,-131.516 426.795,-137.716 428.786,-131.006"/>
</g>
<!-- Node15 -->
<g id="node15" class="node"><title>Node15</title>
<g id="a_node15"><a xlink:href="errorhandling_8hpp.html" target="_top" xlink:title="This file contains the errorhandling code for severe errors, like a broken bond or illegal parameter ...">
<polygon fill="none" stroke="black" points="112,-112.5 112,-131.5 215,-131.5 215,-112.5 112,-112.5"/>
<text text-anchor="middle" x="163.5" y="-119.5" font-family="Helvetica,sans-Serif" font-size="10.00">errorhandling.hpp</text>
</a>
</g>
</g>
<!-- Node4&#45;&gt;Node15 -->
<g id="edge16" class="edge"><title>Node4&#45;&gt;Node15</title>
<path fill="none" stroke="midnightblue" d="M541.829,-173.073C475.527,-164.298 314.197,-142.945 225.118,-131.155"/>
<polygon fill="midnightblue" stroke="midnightblue" points="225.523,-127.679 215.15,-129.836 224.605,-134.618 225.523,-127.679"/>
</g>
<!-- Node19 -->
<g id="node19" class="node"><title>Node19</title>
<polygon fill="none" stroke="#bfbfbf" points="272,-112.5 272,-131.5 319,-131.5 319,-112.5 272,-112.5"/>
<text text-anchor="middle" x="295.5" y="-119.5" font-family="Helvetica,sans-Serif" font-size="10.00">vector</text>
</g>
<!-- Node4&#45;&gt;Node19 -->
<g id="edge21" class="edge"><title>Node4&#45;&gt;Node19</title>
<path fill="none" stroke="midnightblue" d="M541.786,-172.316C497.578,-165.17 411.699,-150.61 329.035,-131.96"/>
<polygon fill="midnightblue" stroke="midnightblue" points="329.761,-128.536 319.234,-129.726 328.206,-135.361 329.761,-128.536"/>
</g>
<!-- Node20 -->
<g id="node20" class="node"><title>Node20</title>
<polygon fill="none" stroke="#bfbfbf" points="460,-112.5 460,-131.5 525,-131.5 525,-112.5 460,-112.5"/>
<text text-anchor="middle" x="492.5" y="-119.5" font-family="Helvetica,sans-Serif" font-size="10.00">exception</text>
</g>
<!-- Node4&#45;&gt;Node20 -->
<g id="edge22" class="edge"><title>Node4&#45;&gt;Node20</title>
<path fill="none" stroke="midnightblue" d="M558.807,-168.324C546.599,-159.979 527.922,-147.212 513.497,-137.352"/>
<polygon fill="midnightblue" stroke="midnightblue" points="515.392,-134.408 505.161,-131.655 511.442,-140.187 515.392,-134.408"/>
</g>
<!-- Node10 -->
<g id="node10" class="node"><title>Node10</title>
<g id="a_node10"><a xlink:href="acconfig_8hpp.html" target="_top" xlink:title="acconfig.hpp">
<polygon fill="none" stroke="black" points="239.5,-0.5 239.5,-19.5 317.5,-19.5 317.5,-0.5 239.5,-0.5"/>
<text text-anchor="middle" x="278.5" y="-7.5" font-family="Helvetica,sans-Serif" font-size="10.00">acconfig.hpp</text>
</a>
</g>
</g>
<!-- Node9&#45;&gt;Node10 -->
<g id="edge9" class="edge"><title>Node9&#45;&gt;Node10</title>
<path fill="none" stroke="midnightblue" d="M371.666,-56.324C353.784,-47.6247 326.025,-34.1202 305.454,-24.113"/>
<polygon fill="midnightblue" stroke="midnightblue" points="306.813,-20.8819 296.29,-19.6545 303.751,-27.1765 306.813,-20.8819"/>
</g>
<!-- Node11 -->
<g id="node11" class="node"><title>Node11</title>
<g id="a_node11"><a xlink:href="myconfig-final_8hpp.html" target="_top" xlink:title="myconfig&#45;final.hpp">
<polygon fill="none" stroke="black" points="336,-0.5 336,-19.5 443,-19.5 443,-0.5 336,-0.5"/>
<text text-anchor="middle" x="389.5" y="-7.5" font-family="Helvetica,sans-Serif" font-size="10.00">myconfig&#45;final.hpp</text>
</a>
</g>
</g>
<!-- Node9&#45;&gt;Node11 -->
<g id="edge10" class="edge"><title>Node9&#45;&gt;Node11</title>
<path fill="none" stroke="midnightblue" d="M389.5,-56.083C389.5,-49.0059 389.5,-38.8611 389.5,-29.9865"/>
<polygon fill="midnightblue" stroke="midnightblue" points="393,-29.751 389.5,-19.7511 386,-29.7511 393,-29.751"/>
</g>
<!-- Node12 -->
<g id="node12" class="node"><title>Node12</title>
<g id="a_node12"><a xlink:href="config-features_8hpp.html" target="_top" xlink:title="config&#45;features.hpp">
<polygon fill="none" stroke="black" points="461,-0.5 461,-19.5 572,-19.5 572,-0.5 461,-0.5"/>
<text text-anchor="middle" x="516.5" y="-7.5" font-family="Helvetica,sans-Serif" font-size="10.00">config&#45;features.hpp</text>
</a>
</g>
</g>
<!-- Node9&#45;&gt;Node12 -->
<g id="edge11" class="edge"><title>Node9&#45;&gt;Node12</title>
<path fill="none" stroke="midnightblue" d="M409.624,-56.4435C430.524,-47.5566 463.435,-33.5632 487.216,-23.4514"/>
<polygon fill="midnightblue" stroke="midnightblue" points="488.638,-26.6504 496.471,-19.5164 485.898,-20.2085 488.638,-26.6504"/>
</g>
<!-- Node13&#45;&gt;Node9 -->
<g id="edge13" class="edge"><title>Node13&#45;&gt;Node9</title>
<path fill="none" stroke="midnightblue" d="M778.442,-113.741C775.089,-113.114 771.733,-112.522 768.5,-112 647.792,-92.5237 504.183,-77.7443 433.404,-71.0099"/>
<polygon fill="midnightblue" stroke="midnightblue" points="433.377,-67.4919 423.092,-70.0368 432.719,-74.4609 433.377,-67.4919"/>
</g>
<!-- Node14&#45;&gt;Node9 -->
<g id="edge15" class="edge"><title>Node14&#45;&gt;Node9</title>
<path fill="none" stroke="midnightblue" d="M389.5,-112.083C389.5,-105.006 389.5,-94.8611 389.5,-85.9865"/>
<polygon fill="midnightblue" stroke="midnightblue" points="393,-85.751 389.5,-75.7511 386,-85.7511 393,-85.751"/>
</g>
<!-- Node15&#45;&gt;Node9 -->
<g id="edge17" class="edge"><title>Node15&#45;&gt;Node9</title>
<path fill="none" stroke="midnightblue" d="M199.31,-112.444C239.064,-102.945 303.231,-87.6129 345.883,-77.4217"/>
<polygon fill="midnightblue" stroke="midnightblue" points="346.79,-80.8037 355.703,-75.0755 345.163,-73.9953 346.79,-80.8037"/>
</g>
<!-- Node16 -->
<g id="node16" class="node"><title>Node16</title>
<polygon fill="none" stroke="#bfbfbf" points="141.5,-56.5 141.5,-75.5 185.5,-75.5 185.5,-56.5 141.5,-56.5"/>
<text text-anchor="middle" x="163.5" y="-63.5" font-family="Helvetica,sans-Serif" font-size="10.00">string</text>
</g>
<!-- Node15&#45;&gt;Node16 -->
<g id="edge18" class="edge"><title>Node15&#45;&gt;Node16</title>
<path fill="none" stroke="midnightblue" d="M163.5,-112.083C163.5,-105.006 163.5,-94.8611 163.5,-85.9865"/>
<polygon fill="midnightblue" stroke="midnightblue" points="167,-85.751 163.5,-75.7511 160,-85.7511 167,-85.751"/>
</g>
<!-- Node17 -->
<g id="node17" class="node"><title>Node17</title>
<polygon fill="none" stroke="#bfbfbf" points="203.5,-56.5 203.5,-75.5 259.5,-75.5 259.5,-56.5 203.5,-56.5"/>
<text text-anchor="middle" x="231.5" y="-63.5" font-family="Helvetica,sans-Serif" font-size="10.00">sstream</text>
</g>
<!-- Node15&#45;&gt;Node17 -->
<g id="edge19" class="edge"><title>Node15&#45;&gt;Node17</title>
<path fill="none" stroke="midnightblue" d="M174.425,-112.324C184.675,-104.185 200.221,-91.8395 212.501,-82.0874"/>
<polygon fill="midnightblue" stroke="midnightblue" points="214.721,-84.7937 220.376,-75.8339 210.368,-79.3119 214.721,-84.7937"/>
</g>
<!-- Node18 -->
<g id="node18" class="node"><title>Node18</title>
<polygon fill="none" stroke="#bfbfbf" points="91.5,-56.5 91.5,-75.5 123.5,-75.5 123.5,-56.5 91.5,-56.5"/>
<text text-anchor="middle" x="107.5" y="-63.5" font-family="Helvetica,sans-Serif" font-size="10.00">list</text>
</g>
<!-- Node15&#45;&gt;Node18 -->
<g id="edge20" class="edge"><title>Node15&#45;&gt;Node18</title>
<path fill="none" stroke="midnightblue" d="M154.503,-112.324C146.306,-104.42 133.994,-92.5482 124.028,-82.9377"/>
<polygon fill="midnightblue" stroke="midnightblue" points="126.289,-80.2558 116.661,-75.8339 121.43,-85.2947 126.289,-80.2558"/>
</g>
<!-- Node21&#45;&gt;Node3 -->
<g id="edge24" class="edge"><title>Node21&#45;&gt;Node3</title>
<path fill="none" stroke="midnightblue" d="M383.895,-280.444C424.892,-271.063 490.754,-255.993 535.284,-245.804"/>
<polygon fill="midnightblue" stroke="midnightblue" points="536.313,-249.159 545.28,-243.516 534.751,-242.335 536.313,-249.159"/>
</g>
<!-- Node22 -->
<g id="node22" class="node"><title>Node22</title>
<g id="a_node22"><a xlink:href="random_8hpp.html" target="_top" xlink:title="A random generator. ">
<polygon fill="none" stroke="black" points="400,-224.5 400,-243.5 475,-243.5 475,-224.5 400,-224.5"/>
<text text-anchor="middle" x="437.5" y="-231.5" font-family="Helvetica,sans-Serif" font-size="10.00">random.hpp</text>
</a>
</g>
</g>
<!-- Node21&#45;&gt;Node22 -->
<g id="edge25" class="edge"><title>Node21&#45;&gt;Node22</title>
<path fill="none" stroke="midnightblue" d="M361.121,-280.324C375.449,-271.822 397.513,-258.729 414.249,-248.797"/>
<polygon fill="midnightblue" stroke="midnightblue" points="416.102,-251.768 422.916,-243.655 412.53,-245.748 416.102,-251.768"/>
</g>
<!-- Node23 -->
<g id="node23" class="node"><title>Node23</title>
<g id="a_node23"><a xlink:href="topology_8hpp.html" target="_top" xlink:title="This file contains functions for handling the system topology. ">
<polygon fill="none" stroke="black" points="303,-224.5 303,-243.5 382,-243.5 382,-224.5 303,-224.5"/>
<text text-anchor="middle" x="342.5" y="-231.5" font-family="Helvetica,sans-Serif" font-size="10.00">topology.hpp</text>
</a>
</g>
</g>
<!-- Node21&#45;&gt;Node23 -->
<g id="edge27" class="edge"><title>Node21&#45;&gt;Node23</title>
<path fill="none" stroke="midnightblue" d="M345.839,-280.083C345.315,-273.006 344.564,-262.861 343.906,-253.986"/>
<polygon fill="midnightblue" stroke="midnightblue" points="347.377,-253.465 343.148,-243.751 340.397,-253.982 347.377,-253.465"/>
</g>
<!-- Node24 -->
<g id="node24" class="node"><title>Node24</title>
<g id="a_node24"><a xlink:href="mpi_8h.html" target="_top" xlink:title="This is the MPIfake implementation. ">
<polygon fill="none" stroke="black" points="110.5,-224.5 110.5,-243.5 154.5,-243.5 154.5,-224.5 110.5,-224.5"/>
<text text-anchor="middle" x="132.5" y="-231.5" font-family="Helvetica,sans-Serif" font-size="10.00">mpi.h</text>
</a>
</g>
</g>
<!-- Node21&#45;&gt;Node24 -->
<g id="edge29" class="edge"><title>Node21&#45;&gt;Node24</title>
<path fill="none" stroke="midnightblue" d="M312.591,-280.444C271.934,-270.184 204.309,-253.12 164.513,-243.078"/>
<polygon fill="midnightblue" stroke="midnightblue" points="165.342,-239.677 154.789,-240.624 163.629,-246.465 165.342,-239.677"/>
</g>
<!-- Node28 -->
<g id="node28" class="node"><title>Node28</title>
<g id="a_node28"><a xlink:href="cuda__init_8hpp.html" target="_top" xlink:title="cuda_init.hpp">
<polygon fill="none" stroke="black" points="248.5,-168.5 248.5,-187.5 330.5,-187.5 330.5,-168.5 248.5,-168.5"/>
<text text-anchor="middle" x="289.5" y="-175.5" font-family="Helvetica,sans-Serif" font-size="10.00">cuda_init.hpp</text>
</a>
</g>
</g>
<!-- Node21&#45;&gt;Node28 -->
<g id="edge33" class="edge"><title>Node21&#45;&gt;Node28</title>
<path fill="none" stroke="midnightblue" d="M330.683,-280.416C318.185,-272.688 301.551,-260.082 293.5,-244 286.303,-229.625 285.867,-211.166 286.902,-197.595"/>
<polygon fill="midnightblue" stroke="midnightblue" points="290.393,-197.862 288,-187.541 283.435,-197.102 290.393,-197.862"/>
</g>
<!-- Node22&#45;&gt;Node4 -->
<g id="edge26" class="edge"><title>Node22&#45;&gt;Node4</title>
<path fill="none" stroke="midnightblue" d="M458.733,-224.444C480.884,-215.517 515.819,-201.439 540.936,-191.317"/>
<polygon fill="midnightblue" stroke="midnightblue" points="542.4,-194.501 550.367,-187.516 539.783,-188.008 542.4,-194.501"/>
</g>
<!-- Node23&#45;&gt;Node4 -->
<g id="edge28" class="edge"><title>Node23&#45;&gt;Node4</title>
<path fill="none" stroke="midnightblue" d="M378.786,-224.444C420.585,-214.587 489.021,-198.449 532.094,-188.292"/>
<polygon fill="midnightblue" stroke="midnightblue" points="533.008,-191.673 541.938,-185.971 531.402,-184.86 533.008,-191.673"/>
</g>
<!-- Node25 -->
<g id="node25" class="node"><title>Node25</title>
<polygon fill="none" stroke="#bfbfbf" points="71,-168.5 71,-187.5 124,-187.5 124,-168.5 71,-168.5"/>
<text text-anchor="middle" x="97.5" y="-175.5" font-family="Helvetica,sans-Serif" font-size="10.00">string.h</text>
</g>
<!-- Node24&#45;&gt;Node25 -->
<g id="edge30" class="edge"><title>Node24&#45;&gt;Node25</title>
<path fill="none" stroke="midnightblue" d="M126.72,-224.083C121.828,-216.534 114.673,-205.495 108.667,-196.23"/>
<polygon fill="midnightblue" stroke="midnightblue" points="111.548,-194.239 103.172,-187.751 105.674,-198.046 111.548,-194.239"/>
</g>
<!-- Node26 -->
<g id="node26" class="node"><title>Node26</title>
<polygon fill="none" stroke="#bfbfbf" points="142.5,-168.5 142.5,-187.5 192.5,-187.5 192.5,-168.5 142.5,-168.5"/>
<text text-anchor="middle" x="167.5" y="-175.5" font-family="Helvetica,sans-Serif" font-size="10.00">stdio.h</text>
</g>
<!-- Node24&#45;&gt;Node26 -->
<g id="edge31" class="edge"><title>Node24&#45;&gt;Node26</title>
<path fill="none" stroke="midnightblue" d="M138.28,-224.083C143.172,-216.534 150.327,-205.495 156.333,-196.23"/>
<polygon fill="midnightblue" stroke="midnightblue" points="159.326,-198.046 161.828,-187.751 153.452,-194.239 159.326,-198.046"/>
</g>
<!-- Node27 -->
<g id="node27" class="node"><title>Node27</title>
<polygon fill="none" stroke="#bfbfbf" points="0,-168.5 0,-187.5 53,-187.5 53,-168.5 0,-168.5"/>
<text text-anchor="middle" x="26.5" y="-175.5" font-family="Helvetica,sans-Serif" font-size="10.00">stdlib.h</text>
</g>
<!-- Node24&#45;&gt;Node27 -->
<g id="edge32" class="edge"><title>Node24&#45;&gt;Node27</title>
<path fill="none" stroke="midnightblue" d="M115.469,-224.324C98.4702,-215.664 72.1239,-202.242 52.5074,-192.249"/>
<polygon fill="midnightblue" stroke="midnightblue" points="53.9876,-189.075 43.4885,-187.655 50.8101,-195.312 53.9876,-189.075"/>
</g>
<!-- Node28&#45;&gt;Node9 -->
<g id="edge34" class="edge"><title>Node28&#45;&gt;Node9</title>
<path fill="none" stroke="midnightblue" d="M280.819,-168.399C268.727,-155.354 249.666,-130.163 262.5,-112 281.195,-85.5425 316.831,-74.5413 345.607,-70.0163"/>
<polygon fill="midnightblue" stroke="midnightblue" points="346.416,-73.4387 355.854,-68.6256 345.474,-66.5023 346.416,-73.4387"/>
</g>
<!-- Node28&#45;&gt;Node19 -->
<g id="edge35" class="edge"><title>Node28&#45;&gt;Node19</title>
<path fill="none" stroke="midnightblue" d="M290.491,-168.083C291.286,-160.927 292.429,-150.635 293.423,-141.691"/>
<polygon fill="midnightblue" stroke="midnightblue" points="296.902,-142.076 294.528,-131.751 289.945,-141.303 296.902,-142.076"/>
</g>
<!-- Node29&#45;&gt;Node3 -->
<g id="edge38" class="edge"><title>Node29&#45;&gt;Node3</title>
<path fill="none" stroke="midnightblue" d="M653.004,-280.324C639.9,-271.9 619.788,-258.971 604.393,-249.074"/>
<polygon fill="midnightblue" stroke="midnightblue" points="606.267,-246.118 595.963,-243.655 602.482,-252.006 606.267,-246.118"/>
</g>
<!-- Node29&#45;&gt;Node4 -->
<g id="edge37" class="edge"><title>Node29&#45;&gt;Node4</title>
<path fill="none" stroke="midnightblue" d="M664.924,-280.124C662.168,-266.718 655.393,-241.064 641.5,-224 630.605,-210.619 614.64,-199.928 600.706,-192.331"/>
<polygon fill="midnightblue" stroke="midnightblue" points="601.964,-189.041 591.472,-187.57 598.756,-195.263 601.964,-189.041"/>
</g>
<!-- Node30&#45;&gt;Node4 -->
<g id="edge40" class="edge"><title>Node30&#45;&gt;Node4</title>
<path fill="none" stroke="midnightblue" d="M724.662,-224.444C693.644,-215.241 644.171,-200.562 609.882,-190.388"/>
<polygon fill="midnightblue" stroke="midnightblue" points="610.786,-187.006 600.204,-187.516 608.795,-193.716 610.786,-187.006"/>
</g>
<!-- Node30&#45;&gt;Node8 -->
<g id="edge41" class="edge"><title>Node30&#45;&gt;Node8</title>
<path fill="none" stroke="midnightblue" d="M753.687,-224.244C754.444,-210.532 757.849,-183.917 772.5,-168 783.921,-155.592 824.394,-141.715 854.558,-132.695"/>
<polygon fill="midnightblue" stroke="midnightblue" points="855.722,-136.001 864.335,-129.831 853.754,-129.283 855.722,-136.001"/>
</g>
<!-- Node31 -->
<g id="node31" class="node"><title>Node31</title>
<polygon fill="none" stroke="#bfbfbf" points="781.5,-168.5 781.5,-187.5 819.5,-187.5 819.5,-168.5 781.5,-168.5"/>
<text text-anchor="middle" x="800.5" y="-175.5" font-family="Helvetica,sans-Serif" font-size="10.00">tcl.h</text>
</g>
<!-- Node30&#45;&gt;Node31 -->
<g id="edge42" class="edge"><title>Node30&#45;&gt;Node31</title>
<path fill="none" stroke="midnightblue" d="M761.261,-224.083C768.037,-216.298 778.043,-204.801 786.255,-195.367"/>
<polygon fill="midnightblue" stroke="midnightblue" points="788.958,-197.592 792.883,-187.751 783.678,-192.996 788.958,-197.592"/>
</g>
<!-- Node32&#45;&gt;Node4 -->
<g id="edge44" class="edge"><title>Node32&#45;&gt;Node4</title>
<path fill="none" stroke="midnightblue" d="M439.232,-336.484C450.975,-328.177 468.375,-314.677 480.5,-300 505.079,-270.247 498.644,-254.336 522.5,-224 531.115,-213.046 542.493,-202.421 552.117,-194.249"/>
<polygon fill="midnightblue" stroke="midnightblue" points="554.514,-196.81 560.009,-187.752 550.064,-191.405 554.514,-196.81"/>
</g>
<!-- Node32&#45;&gt;Node15 -->
<g id="edge47" class="edge"><title>Node32&#45;&gt;Node15</title>
<path fill="none" stroke="midnightblue" d="M398.467,-342.379C366.862,-338.16 315.35,-327.341 280.5,-300 226.708,-257.798 241.242,-223.634 201.5,-168 194.368,-158.015 185.572,-147.504 178.24,-139.153"/>
<polygon fill="midnightblue" stroke="midnightblue" points="180.784,-136.747 171.511,-131.622 175.564,-141.411 180.784,-136.747"/>
</g>
<!-- Node32&#45;&gt;Node21 -->
<g id="edge46" class="edge"><title>Node32&#45;&gt;Node21</title>
<path fill="none" stroke="midnightblue" d="M413.647,-336.324C401.284,-327.979 382.37,-315.212 367.763,-305.352"/>
<polygon fill="midnightblue" stroke="midnightblue" points="369.568,-302.348 359.321,-299.655 365.652,-308.15 369.568,-302.348"/>
</g>
<!-- Node33 -->
<g id="node33" class="node"><title>Node33</title>
<polygon fill="none" stroke="#bfbfbf" points="421.5,-280.5 421.5,-299.5 471.5,-299.5 471.5,-280.5 421.5,-280.5"/>
<text text-anchor="middle" x="446.5" y="-287.5" font-family="Helvetica,sans-Serif" font-size="10.00">climits</text>
</g>
<!-- Node32&#45;&gt;Node33 -->
<g id="edge45" class="edge"><title>Node32&#45;&gt;Node33</title>
<path fill="none" stroke="midnightblue" d="M429.803,-336.083C432.482,-328.849 436.349,-318.409 439.686,-309.397"/>
<polygon fill="midnightblue" stroke="midnightblue" points="443.068,-310.344 443.259,-299.751 436.504,-307.913 443.068,-310.344"/>
</g>
<!-- Node34&#45;&gt;Node3 -->
<g id="edge49" class="edge"><title>Node34&#45;&gt;Node3</title>
<path fill="none" stroke="midnightblue" d="M608.905,-336.402C606.205,-327.366 601.903,-312.727 598.5,-300 594.367,-284.543 590.052,-266.913 586.946,-253.917"/>
<polygon fill="midnightblue" stroke="midnightblue" points="590.274,-252.783 584.563,-243.86 583.463,-254.398 590.274,-252.783"/>
</g>
<!-- Node34&#45;&gt;Node29 -->
<g id="edge50" class="edge"><title>Node34&#45;&gt;Node29</title>
<path fill="none" stroke="midnightblue" d="M620.582,-336.083C628.671,-328.141 640.695,-316.335 650.41,-306.797"/>
<polygon fill="midnightblue" stroke="midnightblue" points="652.903,-309.254 657.587,-299.751 647.999,-304.26 652.903,-309.254"/>
</g>
</g>
</svg>
        <g id="navigator" transform="translate(0 0)" fill="#404254">
                <rect fill="#f2f5e9" fill-opacity="0.5" stroke="#606060" stroke-width=".5" x="0" y="0" width="60" height="60"/>
                <use id="zoomplus" xlink:href="#zoomPlus" x="17" y="9" onmousedown="handleZoom(evt,'in')"/>
                <use id="zoomminus" xlink:href="#zoomMin" x="42" y="9" onmousedown="handleZoom(evt,'out')"/>
                <use id="reset" xlink:href="#resetDef" x="30" y="36" onmousedown="handleReset()"/>
                <g id="arrowUp" xlink:href="#dirArrow" transform="translate(30 24)" onmousedown="handlePan(0,-1)">
                  <use xlink:href="#rim" fill="#404040">
                        <set attributeName="fill" to="#808080" begin="arrowUp.mouseover" end="arrowUp.mouseout"/>
                  </use>
                  <path fill="none" stroke="white" stroke-width="1.5" d="M0,-3.0v7 M-2.5,-0.5L0,-3.0L2.5,-0.5"/>
                </g>
                <g id="arrowRight" xlink:href="#dirArrow" transform="rotate(90) translate(36 -43)" onmousedown="handlePan(1,0)">
                  <use xlink:href="#rim" fill="#404040">
                        <set attributeName="fill" to="#808080" begin="arrowRight.mouseover" end="arrowRight.mouseout"/>
                  </use>
                  <path fill="none" stroke="white" stroke-width="1.5" d="M0,-3.0v7 M-2.5,-0.5L0,-3.0L2.5,-0.5"/>
                </g>
                <g id="arrowDown" xlink:href="#dirArrow" transform="rotate(180) translate(-30 -48)" onmousedown="handlePan(0,1)">
                  <use xlink:href="#rim" fill="#404040">
                        <set attributeName="fill" to="#808080" begin="arrowDown.mouseover" end="arrowDown.mouseout"/>
                  </use>
                  <path fill="none" stroke="white" stroke-width="1.5" d="M0,-3.0v7 M-2.5,-0.5L0,-3.0L2.5,-0.5"/>
                </g>
                <g id="arrowLeft" xlink:href="#dirArrow" transform="rotate(270) translate(-36 17)" onmousedown="handlePan(-1,0)">
                  <use xlink:href="#rim" fill="#404040">
                        <set attributeName="fill" to="#808080" begin="arrowLeft.mouseover" end="arrowLeft.mouseout"/>
                  </use>
                  <path fill="none" stroke="white" stroke-width="1.5" d="M0,-3.0v7 M-2.5,-0.5L0,-3.0L2.5,-0.5"/>
                </g>
        </g>
        <svg viewBox="0 0 15 15" width="100%" height="30px" preserveAspectRatio="xMaxYMin meet">
         <g id="arrow_out" transform="scale(0.3 0.3)">
          <a xlink:href="polymer__tcl_8cpp__incl_org.svg" target="_base">
           <rect id="button" ry="5" rx="5" y="6" x="6" height="38" width="38"
                fill="#f2f5e9" fill-opacity="0.5" stroke="#606060" stroke-width="1.0"/>
           <path id="arrow"
             d="M 11.500037,31.436501 C 11.940474,20.09759 22.043105,11.32322 32.158766,21.979434 L 37.068811,17.246167 C 37.068811,17.246167 37.088388,32 37.088388,32 L 22.160133,31.978069 C 22.160133,31.978069 26.997745,27.140456 26.997745,27.140456 C 18.528582,18.264221 13.291696,25.230495 11.500037,31.436501 z"
             style="fill:#404040;"/>
          </a>
         </g>
        </svg>
</svg>
