<?xml version="1.0" encoding="UTF-8" standalone="no"?>
<!DOCTYPE svg PUBLIC "-//W3C//DTD SVG 1.1//EN"
 "http://www.w3.org/Graphics/SVG/1.1/DTD/svg11.dtd">
<!-- Generated by graphviz version 2.38.0 (20140413.2041)
 -->
<!-- Title: polymer.cpp Pages: 1 -->
<svg width="1156pt" height="420pt"
 viewBox="0.00 0.00 1156.00 420.00" xmlns="http://www.w3.org/2000/svg" xmlns:xlink="http://www.w3.org/1999/xlink">
<g id="graph0" class="graph" transform="scale(1 1) rotate(0) translate(4 416)">
<title>polymer.cpp</title>
<!-- Node1 -->
<g id="node1" class="node"><title>Node1</title>
<polygon fill="#bfbfbf" stroke="black" points="689.5,-392.5 689.5,-411.5 766.5,-411.5 766.5,-392.5 689.5,-392.5"/>
<text text-anchor="middle" x="728" y="-399.5" font-family="Helvetica,sans-Serif" font-size="10.00">polymer.cpp</text>
</g>
<!-- Node2 -->
<g id="node2" class="node"><title>Node2</title>
<polygon fill="none" stroke="#bfbfbf" points="66,-112.5 66,-131.5 112,-131.5 112,-112.5 66,-112.5"/>
<text text-anchor="middle" x="89" y="-119.5" font-family="Helvetica,sans-Serif" font-size="10.00">cstdio</text>
</g>
<!-- Node1&#45;&gt;Node2 -->
<g id="edge1" class="edge"><title>Node1&#45;&gt;Node2</title>
<path fill="none" stroke="midnightblue" d="M689.374,-399.281C538.869,-392.08 0,-361.383 0,-291 0,-291 0,-291 0,-233 0,-202.902 0.979379,-192.107 19,-168 29.1909,-154.367 44.8272,-143.752 58.7386,-136.264"/>
<polygon fill="midnightblue" stroke="midnightblue" points="60.6593,-139.215 68.0059,-131.581 57.5021,-132.967 60.6593,-139.215"/>
</g>
<!-- Node3 -->
<g id="node3" class="node"><title>Node3</title>
<polygon fill="none" stroke="#bfbfbf" points="770.5,-112.5 770.5,-131.5 819.5,-131.5 819.5,-112.5 770.5,-112.5"/>
<text text-anchor="middle" x="795" y="-119.5" font-family="Helvetica,sans-Serif" font-size="10.00">cstdlib</text>
</g>
<!-- Node1&#45;&gt;Node3 -->
<g id="edge2" class="edge"><title>Node1&#45;&gt;Node3</title>
<path fill="none" stroke="midnightblue" d="M739.543,-392.433C760.804,-375.571 804,-335.799 804,-291 804,-291 804,-291 804,-233 804,-200.841 800.132,-163.569 797.467,-141.711"/>
<polygon fill="midnightblue" stroke="midnightblue" points="800.907,-141.018 796.177,-131.538 793.963,-141.899 800.907,-141.018"/>
</g>
<!-- Node4 -->
<g id="node4" class="node"><title>Node4</title>
<polygon fill="none" stroke="#bfbfbf" points="908.5,-336.5 908.5,-355.5 961.5,-355.5 961.5,-336.5 908.5,-336.5"/>
<text text-anchor="middle" x="935" y="-343.5" font-family="Helvetica,sans-Serif" font-size="10.00">cstddef</text>
</g>
<!-- Node1&#45;&gt;Node4 -->
<g id="edge3" class="edge"><title>Node1&#45;&gt;Node4</title>
<path fill="none" stroke="midnightblue" d="M760.8,-392.444C798.264,-382.67 859.403,-366.721 898.39,-356.551"/>
<polygon fill="midnightblue" stroke="midnightblue" points="899.485,-359.882 908.278,-353.971 897.718,-353.109 899.485,-359.882"/>
</g>
<!-- Node5 -->
<g id="node5" class="node"><title>Node5</title>
<polygon fill="none" stroke="#bfbfbf" points="838,-112.5 838,-131.5 888,-131.5 888,-112.5 838,-112.5"/>
<text text-anchor="middle" x="863" y="-119.5" font-family="Helvetica,sans-Serif" font-size="10.00">cstring</text>
</g>
<!-- Node1&#45;&gt;Node5 -->
<g id="edge4" class="edge"><title>Node1&#45;&gt;Node5</title>
<path fill="none" stroke="midnightblue" d="M748.645,-392.421C781.496,-377.231 842,-342.293 842,-291 842,-291 842,-291 842,-233 842,-200.384 851.018,-163.278 857.235,-141.573"/>
<polygon fill="midnightblue" stroke="midnightblue" points="860.666,-142.315 860.168,-131.732 853.957,-140.316 860.666,-142.315"/>
</g>
<!-- Node6 -->
<g id="node6" class="node"><title>Node6</title>
<polygon fill="none" stroke="#bfbfbf" points="906.5,-112.5 906.5,-131.5 953.5,-131.5 953.5,-112.5 906.5,-112.5"/>
<text text-anchor="middle" x="930" y="-119.5" font-family="Helvetica,sans-Serif" font-size="10.00">cmath</text>
</g>
<!-- Node1&#45;&gt;Node6 -->
<g id="edge5" class="edge"><title>Node1&#45;&gt;Node6</title>
<path fill="none" stroke="midnightblue" d="M762.872,-392.398C807.747,-378.997 880,-348.493 880,-291 880,-291 880,-291 880,-233 880,-197.184 902.24,-160.214 917.055,-139.56"/>
<polygon fill="midnightblue" stroke="midnightblue" points="919.878,-141.629 923.048,-131.519 914.265,-137.446 919.878,-141.629"/>
</g>
<!-- Node7 -->
<g id="node7" class="node"><title>Node7</title>
<g id="a_node7"><a xlink:href="utils_8hpp.html" target="_top" xlink:title="Small functions that are useful not only for one modul. ">
<polygon fill="none" stroke="black" points="505.5,-168.5 505.5,-187.5 564.5,-187.5 564.5,-168.5 505.5,-168.5"/>
<text text-anchor="middle" x="535" y="-175.5" font-family="Helvetica,sans-Serif" font-size="10.00">utils.hpp</text>
</a>
</g>
</g>
<!-- Node1&#45;&gt;Node7 -->
<g id="edge6" class="edge"><title>Node1&#45;&gt;Node7</title>
<path fill="none" stroke="midnightblue" d="M729.341,-392.357C730.982,-379.682 732.874,-355.447 727,-336 708.852,-275.922 692.016,-260.553 641,-224 620.657,-209.424 594.865,-198.344 573.816,-190.825"/>
<polygon fill="midnightblue" stroke="midnightblue" points="574.807,-187.465 564.213,-187.521 572.53,-194.084 574.807,-187.465"/>
</g>
<!-- Node20 -->
<g id="node20" class="node"><title>Node20</title>
<g id="a_node20"><a xlink:href="polymer_8hpp.html" target="_top" xlink:title="This file contains everything needed to create a start&#45;up configuration of (partially charged) polyme...">
<polygon fill="none" stroke="black" points="342.5,-280.5 342.5,-299.5 419.5,-299.5 419.5,-280.5 342.5,-280.5"/>
<text text-anchor="middle" x="381" y="-287.5" font-family="Helvetica,sans-Serif" font-size="10.00">polymer.hpp</text>
</a>
</g>
</g>
<!-- Node1&#45;&gt;Node20 -->
<g id="edge26" class="edge"><title>Node1&#45;&gt;Node20</title>
<path fill="none" stroke="midnightblue" d="M689.396,-398.507C640.038,-394.297 552.63,-383.369 483,-356 451.478,-343.61 419.186,-321.029 399.607,-306.018"/>
<polygon fill="midnightblue" stroke="midnightblue" points="401.587,-303.123 391.555,-299.717 397.274,-308.636 401.587,-303.123"/>
</g>
<!-- Node22 -->
<g id="node22" class="node"><title>Node22</title>
<g id="a_node22"><a xlink:href="grid_8hpp.html" target="_top" xlink:title="Domain decomposition for parallel computing. ">
<polygon fill="none" stroke="black" points="662,-336.5 662,-355.5 718,-355.5 718,-336.5 662,-336.5"/>
<text text-anchor="middle" x="690" y="-343.5" font-family="Helvetica,sans-Serif" font-size="10.00">grid.hpp</text>
</a>
</g>
</g>
<!-- Node1&#45;&gt;Node22 -->
<g id="edge29" class="edge"><title>Node1&#45;&gt;Node22</title>
<path fill="none" stroke="midnightblue" d="M721.725,-392.083C716.358,-384.455 708.482,-373.264 701.921,-363.941"/>
<polygon fill="midnightblue" stroke="midnightblue" points="704.775,-361.915 696.158,-355.751 699.051,-365.943 704.775,-361.915"/>
</g>
<!-- Node24 -->
<g id="node24" class="node"><title>Node24</title>
<g id="a_node24"><a xlink:href="communication_8hpp.html" target="_top" xlink:title="This file contains the asynchronous MPI communication. ">
<polygon fill="none" stroke="black" points="211.5,-280.5 211.5,-299.5 324.5,-299.5 324.5,-280.5 211.5,-280.5"/>
<text text-anchor="middle" x="268" y="-287.5" font-family="Helvetica,sans-Serif" font-size="10.00">communication.hpp</text>
</a>
</g>
</g>
<!-- Node1&#45;&gt;Node24 -->
<g id="edge46" class="edge"><title>Node1&#45;&gt;Node24</title>
<path fill="none" stroke="midnightblue" d="M689.42,-397.475C633.835,-391.829 528.303,-378.988 441,-356 388.474,-342.169 329.765,-318.206 296.02,-303.56"/>
<polygon fill="midnightblue" stroke="midnightblue" points="297.35,-300.322 286.786,-299.514 294.54,-306.733 297.35,-300.322"/>
</g>
<!-- Node25 -->
<g id="node25" class="node"><title>Node25</title>
<g id="a_node25"><a xlink:href="random_8hpp.html" target="_top" xlink:title="A random generator. ">
<polygon fill="none" stroke="black" points="172.5,-224.5 172.5,-243.5 247.5,-243.5 247.5,-224.5 172.5,-224.5"/>
<text text-anchor="middle" x="210" y="-231.5" font-family="Helvetica,sans-Serif" font-size="10.00">random.hpp</text>
</a>
</g>
</g>
<!-- Node1&#45;&gt;Node25 -->
<g id="edge50" class="edge"><title>Node1&#45;&gt;Node25</title>
<path fill="none" stroke="midnightblue" d="M689.463,-398.448C624.133,-393.598 487.747,-381.204 375,-356 296.13,-338.369 249.539,-365.356 202,-300 192.194,-286.518 196.245,-267.157 201.497,-253.074"/>
<polygon fill="midnightblue" stroke="midnightblue" points="204.866,-254.091 205.537,-243.518 198.419,-251.365 204.866,-254.091"/>
</g>
<!-- Node32 -->
<g id="node32" class="node"><title>Node32</title>
<g id="a_node32"><a xlink:href="interaction__data_8hpp.html" target="_top" xlink:title="Various procedures concerning interactions between particles. ">
<polygon fill="none" stroke="black" points="476.5,-280.5 476.5,-299.5 593.5,-299.5 593.5,-280.5 476.5,-280.5"/>
<text text-anchor="middle" x="535" y="-287.5" font-family="Helvetica,sans-Serif" font-size="10.00">interaction_data.hpp</text>
</a>
</g>
</g>
<!-- Node1&#45;&gt;Node32 -->
<g id="edge47" class="edge"><title>Node1&#45;&gt;Node32</title>
<path fill="none" stroke="midnightblue" d="M712.856,-392.368C679.455,-373.332 599.243,-327.615 558.95,-304.65"/>
<polygon fill="midnightblue" stroke="midnightblue" points="560.495,-301.502 550.074,-299.591 557.029,-307.584 560.495,-301.502"/>
</g>
<!-- Node33 -->
<g id="node33" class="node"><title>Node33</title>
<g id="a_node33"><a xlink:href="integrate_8hpp.html" target="_top" xlink:title="Molecular dynamics integrator. ">
<polygon fill="none" stroke="black" points="980,-336.5 980,-355.5 1062,-355.5 1062,-336.5 980,-336.5"/>
<text text-anchor="middle" x="1021" y="-343.5" font-family="Helvetica,sans-Serif" font-size="10.00">integrate.hpp</text>
</a>
</g>
</g>
<!-- Node1&#45;&gt;Node33 -->
<g id="edge51" class="edge"><title>Node1&#45;&gt;Node33</title>
<path fill="none" stroke="midnightblue" d="M766.606,-393.885C818.793,-384.267 911.969,-367.094 969.91,-356.416"/>
<polygon fill="midnightblue" stroke="midnightblue" points="970.749,-359.82 979.949,-354.566 969.48,-352.936 970.749,-359.82"/>
</g>
<!-- Node34 -->
<g id="node34" class="node"><title>Node34</title>
<g id="a_node34"><a xlink:href="constraint_8hpp.html" target="_top" xlink:title="Routines for handling of constraints. ">
<polygon fill="none" stroke="black" points="492,-336.5 492,-355.5 578,-355.5 578,-336.5 492,-336.5"/>
<text text-anchor="middle" x="535" y="-343.5" font-family="Helvetica,sans-Serif" font-size="10.00">constraint.hpp</text>
</a>
</g>
</g>
<!-- Node1&#45;&gt;Node34 -->
<g id="edge52" class="edge"><title>Node1&#45;&gt;Node34</title>
<path fill="none" stroke="midnightblue" d="M697.419,-392.444C664.385,-383.201 611.612,-368.436 575.234,-358.257"/>
<polygon fill="midnightblue" stroke="midnightblue" points="576.012,-354.84 565.438,-355.516 574.125,-361.582 576.012,-354.84"/>
</g>
<!-- Node35 -->
<g id="node35" class="node"><title>Node35</title>
<g id="a_node35"><a xlink:href="global_8hpp.html" target="_top" xlink:title="This file contains the code for access to globally defined variables using the script command setmd...">
<polygon fill="none" stroke="black" points="1080,-336.5 1080,-355.5 1148,-355.5 1148,-336.5 1080,-336.5"/>
<text text-anchor="middle" x="1114" y="-343.5" font-family="Helvetica,sans-Serif" font-size="10.00">global.hpp</text>
</a>
</g>
</g>
<!-- Node1&#45;&gt;Node35 -->
<g id="edge55" class="edge"><title>Node1&#45;&gt;Node35</title>
<path fill="none" stroke="midnightblue" d="M766.722,-396.889C828.607,-390.109 953.814,-375.528 1069.67,-356.117"/>
<polygon fill="midnightblue" stroke="midnightblue" points="1070.5,-359.526 1079.78,-354.407 1069.33,-352.624 1070.5,-359.526"/>
</g>
<!-- Node7&#45;&gt;Node2 -->
<g id="edge8" class="edge"><title>Node7&#45;&gt;Node2</title>
<path fill="none" stroke="midnightblue" d="M505.391,-173.415C425.537,-163.747 206.122,-137.181 122.222,-127.022"/>
<polygon fill="midnightblue" stroke="midnightblue" points="122.57,-123.539 112.222,-125.812 121.729,-130.488 122.57,-123.539"/>
</g>
<!-- Node7&#45;&gt;Node3 -->
<g id="edge9" class="edge"><title>Node7&#45;&gt;Node3</title>
<path fill="none" stroke="midnightblue" d="M564.741,-171.688C606.3,-164.134 684.303,-149.474 760.41,-132.02"/>
<polygon fill="midnightblue" stroke="midnightblue" points="761.207,-135.428 770.162,-129.766 759.631,-128.608 761.207,-135.428"/>
</g>
<!-- Node7&#45;&gt;Node5 -->
<g id="edge10" class="edge"><title>Node7&#45;&gt;Node5</title>
<path fill="none" stroke="midnightblue" d="M564.701,-173.43C617.815,-166.825 732.459,-151.57 828,-132 828.1,-131.98 828.2,-131.959 828.3,-131.938"/>
<polygon fill="midnightblue" stroke="midnightblue" points="828.849,-135.403 837.834,-129.79 827.31,-128.574 828.849,-135.403"/>
</g>
<!-- Node7&#45;&gt;Node6 -->
<g id="edge7" class="edge"><title>Node7&#45;&gt;Node6</title>
<path fill="none" stroke="midnightblue" d="M564.79,-174.744C625.388,-169.847 767.455,-156.795 896.264,-131.869"/>
<polygon fill="midnightblue" stroke="midnightblue" points="897.165,-135.259 906.303,-129.897 895.816,-128.391 897.165,-135.259"/>
</g>
<!-- Node8 -->
<g id="node8" class="node"><title>Node8</title>
<g id="a_node8"><a xlink:href="config_8hpp.html" target="_top" xlink:title="This file contains the defaults for Espresso. ">
<polygon fill="none" stroke="black" points="501.5,-56.5 501.5,-75.5 568.5,-75.5 568.5,-56.5 501.5,-56.5"/>
<text text-anchor="middle" x="535" y="-63.5" font-family="Helvetica,sans-Serif" font-size="10.00">config.hpp</text>
</a>
</g>
</g>
<!-- Node7&#45;&gt;Node8 -->
<g id="edge11" class="edge"><title>Node7&#45;&gt;Node8</title>
<path fill="none" stroke="midnightblue" d="M535,-168.368C535,-150.617 535,-109.666 535,-85.5974"/>
<polygon fill="midnightblue" stroke="midnightblue" points="538.5,-85.5914 535,-75.5914 531.5,-85.5915 538.5,-85.5914"/>
</g>
<!-- Node12 -->
<g id="node12" class="node"><title>Node12</title>
<g id="a_node12"><a xlink:href="debug_8hpp.html" target="_top" xlink:title="This file controls debug facilities. ">
<polygon fill="none" stroke="black" points="563,-112.5 563,-131.5 631,-131.5 631,-112.5 563,-112.5"/>
<text text-anchor="middle" x="597" y="-119.5" font-family="Helvetica,sans-Serif" font-size="10.00">debug.hpp</text>
</a>
</g>
</g>
<!-- Node7&#45;&gt;Node12 -->
<g id="edge15" class="edge"><title>Node7&#45;&gt;Node12</title>
<path fill="none" stroke="midnightblue" d="M544.961,-168.324C554.127,-160.341 567.937,-148.313 579.028,-138.653"/>
<polygon fill="midnightblue" stroke="midnightblue" points="581.615,-141.041 586.857,-131.834 577.018,-135.762 581.615,-141.041"/>
</g>
<!-- Node13 -->
<g id="node13" class="node"><title>Node13</title>
<g id="a_node13"><a xlink:href="lees__edwards_8hpp.html" target="_top" xlink:title="lees_edwards.hpp">
<polygon fill="none" stroke="black" points="403,-112.5 403,-131.5 507,-131.5 507,-112.5 403,-112.5"/>
<text text-anchor="middle" x="455" y="-119.5" font-family="Helvetica,sans-Serif" font-size="10.00">lees_edwards.hpp</text>
</a>
</g>
</g>
<!-- Node7&#45;&gt;Node13 -->
<g id="edge17" class="edge"><title>Node7&#45;&gt;Node13</title>
<path fill="none" stroke="midnightblue" d="M522.147,-168.324C509.784,-159.979 490.87,-147.212 476.263,-137.352"/>
<polygon fill="midnightblue" stroke="midnightblue" points="478.068,-134.348 467.821,-131.655 474.152,-140.15 478.068,-134.348"/>
</g>
<!-- Node14 -->
<g id="node14" class="node"><title>Node14</title>
<g id="a_node14"><a xlink:href="errorhandling_8hpp.html" target="_top" xlink:title="This file contains the errorhandling code for severe errors, like a broken bond or illegal parameter ...">
<polygon fill="none" stroke="black" points="649.5,-112.5 649.5,-131.5 752.5,-131.5 752.5,-112.5 649.5,-112.5"/>
<text text-anchor="middle" x="701" y="-119.5" font-family="Helvetica,sans-Serif" font-size="10.00">errorhandling.hpp</text>
</a>
</g>
</g>
<!-- Node7&#45;&gt;Node14 -->
<g id="edge19" class="edge"><title>Node7&#45;&gt;Node14</title>
<path fill="none" stroke="midnightblue" d="M561.303,-168.444C589.351,-159.32 633.944,-144.813 665.184,-134.651"/>
<polygon fill="midnightblue" stroke="midnightblue" points="666.393,-137.938 674.82,-131.516 664.228,-131.282 666.393,-137.938"/>
</g>
<!-- Node18 -->
<g id="node18" class="node"><title>Node18</title>
<polygon fill="none" stroke="#bfbfbf" points="254.5,-112.5 254.5,-131.5 301.5,-131.5 301.5,-112.5 254.5,-112.5"/>
<text text-anchor="middle" x="278" y="-119.5" font-family="Helvetica,sans-Serif" font-size="10.00">vector</text>
</g>
<!-- Node7&#45;&gt;Node18 -->
<g id="edge24" class="edge"><title>Node7&#45;&gt;Node18</title>
<path fill="none" stroke="midnightblue" d="M505.358,-171.821C464.029,-164.439 386.557,-150.013 311.767,-132.294"/>
<polygon fill="midnightblue" stroke="midnightblue" points="312.253,-128.812 301.713,-129.888 310.623,-135.619 312.253,-128.812"/>
</g>
<!-- Node19 -->
<g id="node19" class="node"><title>Node19</title>
<polygon fill="none" stroke="#bfbfbf" points="319.5,-112.5 319.5,-131.5 384.5,-131.5 384.5,-112.5 319.5,-112.5"/>
<text text-anchor="middle" x="352" y="-119.5" font-family="Helvetica,sans-Serif" font-size="10.00">exception</text>
</g>
<!-- Node7&#45;&gt;Node19 -->
<g id="edge25" class="edge"><title>Node7&#45;&gt;Node19</title>
<path fill="none" stroke="midnightblue" d="M506.003,-168.444C474.815,-159.241 425.07,-144.562 390.592,-134.388"/>
<polygon fill="midnightblue" stroke="midnightblue" points="391.443,-130.99 380.861,-131.516 389.462,-137.704 391.443,-130.99"/>
</g>
<!-- Node9 -->
<g id="node9" class="node"><title>Node9</title>
<g id="a_node9"><a xlink:href="acconfig_8hpp.html" target="_top" xlink:title="acconfig.hpp">
<polygon fill="none" stroke="black" points="385,-0.5 385,-19.5 463,-19.5 463,-0.5 385,-0.5"/>
<text text-anchor="middle" x="424" y="-7.5" font-family="Helvetica,sans-Serif" font-size="10.00">acconfig.hpp</text>
</a>
</g>
</g>
<!-- Node8&#45;&gt;Node9 -->
<g id="edge12" class="edge"><title>Node8&#45;&gt;Node9</title>
<path fill="none" stroke="midnightblue" d="M517.166,-56.324C499.284,-47.6247 471.525,-34.1202 450.954,-24.113"/>
<polygon fill="midnightblue" stroke="midnightblue" points="452.313,-20.8819 441.79,-19.6545 449.251,-27.1765 452.313,-20.8819"/>
</g>
<!-- Node10 -->
<g id="node10" class="node"><title>Node10</title>
<g id="a_node10"><a xlink:href="myconfig-final_8hpp.html" target="_top" xlink:title="myconfig&#45;final.hpp">
<polygon fill="none" stroke="black" points="481.5,-0.5 481.5,-19.5 588.5,-19.5 588.5,-0.5 481.5,-0.5"/>
<text text-anchor="middle" x="535" y="-7.5" font-family="Helvetica,sans-Serif" font-size="10.00">myconfig&#45;final.hpp</text>
</a>
</g>
</g>
<!-- Node8&#45;&gt;Node10 -->
<g id="edge13" class="edge"><title>Node8&#45;&gt;Node10</title>
<path fill="none" stroke="midnightblue" d="M535,-56.083C535,-49.0059 535,-38.8611 535,-29.9865"/>
<polygon fill="midnightblue" stroke="midnightblue" points="538.5,-29.751 535,-19.7511 531.5,-29.7511 538.5,-29.751"/>
</g>
<!-- Node11 -->
<g id="node11" class="node"><title>Node11</title>
<g id="a_node11"><a xlink:href="config-features_8hpp.html" target="_top" xlink:title="config&#45;features.hpp">
<polygon fill="none" stroke="black" points="606.5,-0.5 606.5,-19.5 717.5,-19.5 717.5,-0.5 606.5,-0.5"/>
<text text-anchor="middle" x="662" y="-7.5" font-family="Helvetica,sans-Serif" font-size="10.00">config&#45;features.hpp</text>
</a>
</g>
</g>
<!-- Node8&#45;&gt;Node11 -->
<g id="edge14" class="edge"><title>Node8&#45;&gt;Node11</title>
<path fill="none" stroke="midnightblue" d="M555.124,-56.4435C576.024,-47.5566 608.935,-33.5632 632.716,-23.4514"/>
<polygon fill="midnightblue" stroke="midnightblue" points="634.138,-26.6504 641.971,-19.5164 631.398,-20.2085 634.138,-26.6504"/>
</g>
<!-- Node12&#45;&gt;Node8 -->
<g id="edge16" class="edge"><title>Node12&#45;&gt;Node8</title>
<path fill="none" stroke="midnightblue" d="M587.039,-112.324C577.873,-104.341 564.063,-92.3128 552.972,-82.6529"/>
<polygon fill="midnightblue" stroke="midnightblue" points="554.982,-79.7624 545.143,-75.8339 550.385,-85.041 554.982,-79.7624"/>
</g>
<!-- Node13&#45;&gt;Node8 -->
<g id="edge18" class="edge"><title>Node13&#45;&gt;Node8</title>
<path fill="none" stroke="midnightblue" d="M467.853,-112.324C480.216,-103.979 499.13,-91.2122 513.737,-81.3524"/>
<polygon fill="midnightblue" stroke="midnightblue" points="515.848,-84.1503 522.179,-75.6545 511.932,-78.3483 515.848,-84.1503"/>
</g>
<!-- Node14&#45;&gt;Node8 -->
<g id="edge20" class="edge"><title>Node14&#45;&gt;Node8</title>
<path fill="none" stroke="midnightblue" d="M674.697,-112.444C646.649,-103.32 602.056,-88.8133 570.816,-78.6509"/>
<polygon fill="midnightblue" stroke="midnightblue" points="571.772,-75.2816 561.18,-75.5164 569.607,-81.9383 571.772,-75.2816"/>
</g>
<!-- Node15 -->
<g id="node15" class="node"><title>Node15</title>
<polygon fill="none" stroke="#bfbfbf" points="679,-56.5 679,-75.5 723,-75.5 723,-56.5 679,-56.5"/>
<text text-anchor="middle" x="701" y="-63.5" font-family="Helvetica,sans-Serif" font-size="10.00">string</text>
</g>
<!-- Node14&#45;&gt;Node15 -->
<g id="edge21" class="edge"><title>Node14&#45;&gt;Node15</title>
<path fill="none" stroke="midnightblue" d="M701,-112.083C701,-105.006 701,-94.8611 701,-85.9865"/>
<polygon fill="midnightblue" stroke="midnightblue" points="704.5,-85.751 701,-75.7511 697.5,-85.7511 704.5,-85.751"/>
</g>
<!-- Node16 -->
<g id="node16" class="node"><title>Node16</title>
<polygon fill="none" stroke="#bfbfbf" points="741,-56.5 741,-75.5 797,-75.5 797,-56.5 741,-56.5"/>
<text text-anchor="middle" x="769" y="-63.5" font-family="Helvetica,sans-Serif" font-size="10.00">sstream</text>
</g>
<!-- Node14&#45;&gt;Node16 -->
<g id="edge22" class="edge"><title>Node14&#45;&gt;Node16</title>
<path fill="none" stroke="midnightblue" d="M711.925,-112.324C722.175,-104.185 737.721,-91.8395 750.001,-82.0874"/>
<polygon fill="midnightblue" stroke="midnightblue" points="752.221,-84.7937 757.876,-75.8339 747.868,-79.3119 752.221,-84.7937"/>
</g>
<!-- Node17 -->
<g id="node17" class="node"><title>Node17</title>
<polygon fill="none" stroke="#bfbfbf" points="629,-56.5 629,-75.5 661,-75.5 661,-56.5 629,-56.5"/>
<text text-anchor="middle" x="645" y="-63.5" font-family="Helvetica,sans-Serif" font-size="10.00">list</text>
</g>
<!-- Node14&#45;&gt;Node17 -->
<g id="edge23" class="edge"><title>Node14&#45;&gt;Node17</title>
<path fill="none" stroke="midnightblue" d="M692.003,-112.324C683.806,-104.42 671.494,-92.5482 661.528,-82.9377"/>
<polygon fill="midnightblue" stroke="midnightblue" points="663.789,-80.2558 654.161,-75.8339 658.93,-85.2947 663.789,-80.2558"/>
</g>
<!-- Node21 -->
<g id="node21" class="node"><title>Node21</title>
<g id="a_node21"><a xlink:href="particle__data_8hpp.html" target="_top" xlink:title="For more information on particle_data, see particle_data.c. ">
<polygon fill="none" stroke="black" points="401.5,-224.5 401.5,-243.5 502.5,-243.5 502.5,-224.5 401.5,-224.5"/>
<text text-anchor="middle" x="452" y="-231.5" font-family="Helvetica,sans-Serif" font-size="10.00">particle_data.hpp</text>
</a>
</g>
</g>
<!-- Node20&#45;&gt;Node21 -->
<g id="edge27" class="edge"><title>Node20&#45;&gt;Node21</title>
<path fill="none" stroke="midnightblue" d="M392.407,-280.324C403.109,-272.185 419.341,-259.839 432.163,-250.087"/>
<polygon fill="midnightblue" stroke="midnightblue" points="434.544,-252.673 440.385,-243.834 430.307,-247.102 434.544,-252.673"/>
</g>
<!-- Node21&#45;&gt;Node7 -->
<g id="edge28" class="edge"><title>Node21&#45;&gt;Node7</title>
<path fill="none" stroke="midnightblue" d="M465.335,-224.324C478.162,-215.979 497.785,-203.212 512.94,-193.352"/>
<polygon fill="midnightblue" stroke="midnightblue" points="515.224,-196.042 521.698,-187.655 511.407,-190.174 515.224,-196.042"/>
</g>
<!-- Node22&#45;&gt;Node7 -->
<g id="edge30" class="edge"><title>Node22&#45;&gt;Node7</title>
<path fill="none" stroke="midnightblue" d="M689.22,-336.248C687.672,-323.005 683.226,-297.561 671,-280 642.826,-239.534 593.224,-208.752 562.344,-192.325"/>
<polygon fill="midnightblue" stroke="midnightblue" points="563.896,-189.187 553.407,-187.694 560.675,-195.402 563.896,-189.187"/>
</g>
<!-- Node22&#45;&gt;Node14 -->
<g id="edge45" class="edge"><title>Node22&#45;&gt;Node14</title>
<path fill="none" stroke="midnightblue" d="M690.431,-336.297C692.05,-303.633 697.786,-187.866 700.061,-141.957"/>
<polygon fill="midnightblue" stroke="midnightblue" points="703.561,-142.045 700.56,-131.884 696.569,-141.698 703.561,-142.045"/>
</g>
<!-- Node23 -->
<g id="node23" class="node"><title>Node23</title>
<polygon fill="none" stroke="#bfbfbf" points="612,-280.5 612,-299.5 662,-299.5 662,-280.5 612,-280.5"/>
<text text-anchor="middle" x="637" y="-287.5" font-family="Helvetica,sans-Serif" font-size="10.00">climits</text>
</g>
<!-- Node22&#45;&gt;Node23 -->
<g id="edge31" class="edge"><title>Node22&#45;&gt;Node23</title>
<path fill="none" stroke="midnightblue" d="M681.248,-336.083C673.53,-328.22 662.095,-316.569 652.783,-307.081"/>
<polygon fill="midnightblue" stroke="midnightblue" points="655.092,-304.436 645.589,-299.751 650.096,-309.34 655.092,-304.436"/>
</g>
<!-- Node22&#45;&gt;Node24 -->
<g id="edge32" class="edge"><title>Node22&#45;&gt;Node24</title>
<path fill="none" stroke="midnightblue" d="M661.754,-341.558C602.916,-334.364 462.675,-317.083 334.691,-300.212"/>
<polygon fill="midnightblue" stroke="midnightblue" points="335.087,-296.734 324.715,-298.894 334.17,-303.674 335.087,-296.734"/>
</g>
<!-- Node24&#45;&gt;Node21 -->
<g id="edge33" class="edge"><title>Node24&#45;&gt;Node21</title>
<path fill="none" stroke="midnightblue" d="M297.155,-280.444C328.513,-271.241 378.531,-256.562 413.197,-246.388"/>
<polygon fill="midnightblue" stroke="midnightblue" points="414.371,-249.691 422.981,-243.516 412.4,-242.974 414.371,-249.691"/>
</g>
<!-- Node24&#45;&gt;Node25 -->
<g id="edge34" class="edge"><title>Node24&#45;&gt;Node25</title>
<path fill="none" stroke="midnightblue" d="M258.681,-280.324C250.107,-272.341 237.188,-260.313 226.812,-250.653"/>
<polygon fill="midnightblue" stroke="midnightblue" points="229.192,-248.086 219.488,-243.834 224.422,-253.21 229.192,-248.086"/>
</g>
<!-- Node26 -->
<g id="node26" class="node"><title>Node26</title>
<g id="a_node26"><a xlink:href="topology_8hpp.html" target="_top" xlink:title="This file contains functions for handling the system topology. ">
<polygon fill="none" stroke="black" points="304.5,-224.5 304.5,-243.5 383.5,-243.5 383.5,-224.5 304.5,-224.5"/>
<text text-anchor="middle" x="344" y="-231.5" font-family="Helvetica,sans-Serif" font-size="10.00">topology.hpp</text>
</a>
</g>
</g>
<!-- Node24&#45;&gt;Node26 -->
<g id="edge36" class="edge"><title>Node24&#45;&gt;Node26</title>
<path fill="none" stroke="midnightblue" d="M280.211,-280.324C291.776,-272.107 309.375,-259.602 323.161,-249.807"/>
<polygon fill="midnightblue" stroke="midnightblue" points="325.443,-252.479 331.567,-243.834 321.388,-246.773 325.443,-252.479"/>
</g>
<!-- Node27 -->
<g id="node27" class="node"><title>Node27</title>
<g id="a_node27"><a xlink:href="mpi_8h.html" target="_top" xlink:title="This is the MPIfake implementation. ">
<polygon fill="none" stroke="black" points="106,-224.5 106,-243.5 150,-243.5 150,-224.5 106,-224.5"/>
<text text-anchor="middle" x="128" y="-231.5" font-family="Helvetica,sans-Serif" font-size="10.00">mpi.h</text>
</a>
</g>
</g>
<!-- Node24&#45;&gt;Node27 -->
<g id="edge38" class="edge"><title>Node24&#45;&gt;Node27</title>
<path fill="none" stroke="midnightblue" d="M245.817,-280.444C222.572,-271.478 185.851,-257.314 159.585,-247.183"/>
<polygon fill="midnightblue" stroke="midnightblue" points="160.669,-243.85 150.08,-243.516 158.15,-250.381 160.669,-243.85"/>
</g>
<!-- Node31 -->
<g id="node31" class="node"><title>Node31</title>
<g id="a_node31"><a xlink:href="cuda__init_8hpp.html" target="_top" xlink:title="cuda_init.hpp">
<polygon fill="none" stroke="black" points="239,-168.5 239,-187.5 321,-187.5 321,-168.5 239,-168.5"/>
<text text-anchor="middle" x="280" y="-175.5" font-family="Helvetica,sans-Serif" font-size="10.00">cuda_init.hpp</text>
</a>
</g>
</g>
<!-- Node24&#45;&gt;Node31 -->
<g id="edge42" class="edge"><title>Node24&#45;&gt;Node31</title>
<path fill="none" stroke="midnightblue" d="M268.942,-280.368C270.878,-262.617 275.345,-221.666 277.971,-197.597"/>
<polygon fill="midnightblue" stroke="midnightblue" points="281.458,-197.912 279.063,-187.591 274.499,-197.153 281.458,-197.912"/>
</g>
<!-- Node25&#45;&gt;Node7 -->
<g id="edge35" class="edge"><title>Node25&#45;&gt;Node7</title>
<path fill="none" stroke="midnightblue" d="M247.599,-226.753C309.486,-216.47 432.234,-196.075 495.403,-185.579"/>
<polygon fill="midnightblue" stroke="midnightblue" points="496.088,-189.014 505.379,-183.922 494.94,-182.108 496.088,-189.014"/>
</g>
<!-- Node26&#45;&gt;Node7 -->
<g id="edge37" class="edge"><title>Node26&#45;&gt;Node7</title>
<path fill="none" stroke="midnightblue" d="M374.265,-224.444C407.051,-215.174 459.489,-200.349 495.5,-190.168"/>
<polygon fill="midnightblue" stroke="midnightblue" points="496.521,-193.516 505.191,-187.428 494.616,-186.78 496.521,-193.516"/>
</g>
<!-- Node28 -->
<g id="node28" class="node"><title>Node28</title>
<polygon fill="none" stroke="#bfbfbf" points="99.5,-168.5 99.5,-187.5 152.5,-187.5 152.5,-168.5 99.5,-168.5"/>
<text text-anchor="middle" x="126" y="-175.5" font-family="Helvetica,sans-Serif" font-size="10.00">string.h</text>
</g>
<!-- Node27&#45;&gt;Node28 -->
<g id="edge39" class="edge"><title>Node27&#45;&gt;Node28</title>
<path fill="none" stroke="midnightblue" d="M127.67,-224.083C127.408,-217.006 127.032,-206.861 126.703,-197.986"/>
<polygon fill="midnightblue" stroke="midnightblue" points="130.192,-197.615 126.324,-187.751 123.197,-197.874 130.192,-197.615"/>
</g>
<!-- Node29 -->
<g id="node29" class="node"><title>Node29</title>
<polygon fill="none" stroke="#bfbfbf" points="171,-168.5 171,-187.5 221,-187.5 221,-168.5 171,-168.5"/>
<text text-anchor="middle" x="196" y="-175.5" font-family="Helvetica,sans-Serif" font-size="10.00">stdio.h</text>
</g>
<!-- Node27&#45;&gt;Node29 -->
<g id="edge40" class="edge"><title>Node27&#45;&gt;Node29</title>
<path fill="none" stroke="midnightblue" d="M138.925,-224.324C149.175,-216.185 164.721,-203.839 177.001,-194.087"/>
<polygon fill="midnightblue" stroke="midnightblue" points="179.221,-196.794 184.876,-187.834 174.868,-191.312 179.221,-196.794"/>
</g>
<!-- Node30 -->
<g id="node30" class="node"><title>Node30</title>
<polygon fill="none" stroke="#bfbfbf" points="28.5,-168.5 28.5,-187.5 81.5,-187.5 81.5,-168.5 28.5,-168.5"/>
<text text-anchor="middle" x="55" y="-175.5" font-family="Helvetica,sans-Serif" font-size="10.00">stdlib.h</text>
</g>
<!-- Node27&#45;&gt;Node30 -->
<g id="edge41" class="edge"><title>Node27&#45;&gt;Node30</title>
<path fill="none" stroke="midnightblue" d="M116.271,-224.324C105.163,-216.107 88.2578,-203.602 75.0167,-193.807"/>
<polygon fill="midnightblue" stroke="midnightblue" points="77.0631,-190.967 66.9421,-187.834 72.9001,-196.595 77.0631,-190.967"/>
</g>
<!-- Node31&#45;&gt;Node8 -->
<g id="edge43" class="edge"><title>Node31&#45;&gt;Node8</title>
<path fill="none" stroke="midnightblue" d="M269.113,-168.287C253.916,-155.094 229.823,-129.714 245,-112 276.162,-75.6301 417.959,-68.4098 491.086,-67.1401"/>
<polygon fill="midnightblue" stroke="midnightblue" points="491.407,-70.6359 501.356,-66.9931 491.307,-63.6366 491.407,-70.6359"/>
</g>
<!-- Node31&#45;&gt;Node18 -->
<g id="edge44" class="edge"><title>Node31&#45;&gt;Node18</title>
<path fill="none" stroke="midnightblue" d="M279.67,-168.083C279.408,-161.006 279.032,-150.861 278.703,-141.986"/>
<polygon fill="midnightblue" stroke="midnightblue" points="282.192,-141.615 278.324,-131.751 275.197,-141.874 282.192,-141.615"/>
</g>
<!-- Node32&#45;&gt;Node7 -->
<g id="edge48" class="edge"><title>Node32&#45;&gt;Node7</title>
<path fill="none" stroke="midnightblue" d="M535,-280.368C535,-262.617 535,-221.666 535,-197.597"/>
<polygon fill="midnightblue" stroke="midnightblue" points="538.5,-197.591 535,-187.591 531.5,-197.591 538.5,-197.591"/>
</g>
<!-- Node32&#45;&gt;Node21 -->
<g id="edge49" class="edge"><title>Node32&#45;&gt;Node21</title>
<path fill="none" stroke="midnightblue" d="M521.665,-280.324C508.838,-271.979 489.215,-259.212 474.06,-249.352"/>
<polygon fill="midnightblue" stroke="midnightblue" points="475.593,-246.174 465.302,-243.655 471.776,-252.042 475.593,-246.174"/>
</g>
<!-- Node34&#45;&gt;Node21 -->
<g id="edge53" class="edge"><title>Node34&#45;&gt;Node21</title>
<path fill="none" stroke="midnightblue" d="M514.333,-336.469C498.962,-329.063 478.7,-316.866 467,-300 457.614,-286.47 454.027,-267.918 452.693,-254.096"/>
<polygon fill="midnightblue" stroke="midnightblue" points="456.165,-253.564 452.024,-243.812 449.18,-254.018 456.165,-253.564"/>
</g>
<!-- Node34&#45;&gt;Node32 -->
<g id="edge54" class="edge"><title>Node34&#45;&gt;Node32</title>
<path fill="none" stroke="midnightblue" d="M535,-336.083C535,-329.006 535,-318.861 535,-309.986"/>
<polygon fill="midnightblue" stroke="midnightblue" points="538.5,-309.751 535,-299.751 531.5,-309.751 538.5,-309.751"/>
</g>
</g>
</svg>
