<?xml version="1.0" encoding="UTF-8" standalone="no"?>
<!DOCTYPE svg PUBLIC "-//W3C//DTD SVG 1.1//EN"
 "http://www.w3.org/Graphics/SVG/1.1/DTD/svg11.dtd">
<!-- Generated by graphviz version 2.38.0 (20140413.2041)
 -->
<!-- Title: pressure.hpp Pages: 1 -->
<svg width="1798pt" height="95pt"
 viewBox="0.00 0.00 1797.50 95.00" xmlns="http://www.w3.org/2000/svg" xmlns:xlink="http://www.w3.org/1999/xlink">
<g id="graph0" class="graph" transform="scale(1 1) rotate(0) translate(4 91)">
<title>pressure.hpp</title>
<!-- Node1 -->
<g id="node1" class="node"><title>Node1</title>
<polygon fill="#bfbfbf" stroke="black" points="858.5,-67.5 858.5,-86.5 938.5,-86.5 938.5,-67.5 858.5,-67.5"/>
<text text-anchor="middle" x="898.5" y="-74.5" font-family="Helvetica,sans-Serif" font-size="10.00">pressure.hpp</text>
</g>
<!-- Node2 -->
<g id="node2" class="node"><title>Node2</title>
<g id="a_node2"><a xlink:href="communication_8cpp.html" target="_top" xlink:title="communication.cpp">
<polygon fill="none" stroke="black" points="0,-6 0,-25 113,-25 113,-6 0,-6"/>
<text text-anchor="middle" x="56.5" y="-13" font-family="Helvetica,sans-Serif" font-size="10.00">communication.cpp</text>
</a>
</g>
</g>
<!-- Node1&#45;&gt;Node2 -->
<g id="edge1" class="edge"><title>Node1&#45;&gt;Node2</title>
<path fill="none" stroke="midnightblue" d="M847.907,-75.8917C723.615,-75.0141 393.598,-68.9747 121.5,-31 111.194,-29.5617 100.101,-27.3425 90.0473,-25.0693"/>
<polygon fill="midnightblue" stroke="midnightblue" points="848.222,-79.3937 858.243,-75.956 848.265,-72.3938 848.222,-79.3937"/>
</g>
<!-- Node3 -->
<g id="node3" class="node"><title>Node3</title>
<g id="a_node3"><a xlink:href="domain__decomposition_8cpp.html" target="_top" xlink:title="This file contains everything related to the cell system: domain decomposition. ">
<polygon fill="none" stroke="black" points="131,-6 131,-25 282,-25 282,-6 131,-6"/>
<text text-anchor="middle" x="206.5" y="-13" font-family="Helvetica,sans-Serif" font-size="10.00">domain_decomposition.cpp</text>
</a>
</g>
</g>
<!-- Node1&#45;&gt;Node3 -->
<g id="edge2" class="edge"><title>Node1&#45;&gt;Node3</title>
<path fill="none" stroke="midnightblue" d="M847.921,-73.9186C743.461,-69.2542 496.422,-56.3328 290.5,-31 277.721,-29.4279 263.927,-27.2497 251.282,-25.0589"/>
<polygon fill="midnightblue" stroke="midnightblue" points="848.027,-77.4265 858.171,-74.3701 848.335,-70.4333 848.027,-77.4265"/>
</g>
<!-- Node4 -->
<g id="node4" class="node"><title>Node4</title>
<g id="a_node4"><a xlink:href="elc_8cpp.html" target="_top" xlink:title="For more information about ELC, see elc.hpp. ">
<polygon fill="none" stroke="black" points="300,-6 300,-25 351,-25 351,-6 300,-6"/>
<text text-anchor="middle" x="325.5" y="-13" font-family="Helvetica,sans-Serif" font-size="10.00">elc.cpp</text>
</a>
</g>
</g>
<!-- Node1&#45;&gt;Node4 -->
<g id="edge3" class="edge"><title>Node1&#45;&gt;Node4</title>
<path fill="none" stroke="midnightblue" d="M848.032,-73.8445C732.419,-68.574 451.304,-53.7781 359.5,-31 353.895,-29.6092 348.028,-27.4041 342.777,-25.1293"/>
<polygon fill="midnightblue" stroke="midnightblue" points="848.218,-77.3563 858.365,-74.3102 848.533,-70.3634 848.218,-77.3563"/>
</g>
<!-- Node5 -->
<g id="node5" class="node"><title>Node5</title>
<g id="a_node5"><a xlink:href="initialize_8cpp.html" target="_top" xlink:title="Implementation of initialize.hpp. ">
<polygon fill="none" stroke="black" points="369,-6 369,-25 448,-25 448,-6 369,-6"/>
<text text-anchor="middle" x="408.5" y="-13" font-family="Helvetica,sans-Serif" font-size="10.00">initialize.cpp</text>
</a>
</g>
</g>
<!-- Node1&#45;&gt;Node5 -->
<g id="edge4" class="edge"><title>Node1&#45;&gt;Node5</title>
<path fill="none" stroke="midnightblue" d="M848.405,-74.0303C765.968,-70.0918 596.85,-59.0727 456.5,-31 448.988,-29.4975 440.969,-27.3146 433.679,-25.0966"/>
<polygon fill="midnightblue" stroke="midnightblue" points="848.347,-77.5312 858.498,-74.4975 848.671,-70.5387 848.347,-77.5312"/>
</g>
<!-- Node6 -->
<g id="node6" class="node"><title>Node6</title>
<g id="a_node6"><a xlink:href="core_2integrate_8cpp.html" target="_top" xlink:title="integrate.cpp">
<polygon fill="none" stroke="black" points="466,-6 466,-25 547,-25 547,-6 466,-6"/>
<text text-anchor="middle" x="506.5" y="-13" font-family="Helvetica,sans-Serif" font-size="10.00">integrate.cpp</text>
</a>
</g>
</g>
<!-- Node1&#45;&gt;Node6 -->
<g id="edge5" class="edge"><title>Node1&#45;&gt;Node6</title>
<path fill="none" stroke="midnightblue" d="M848.135,-71.7794C781.078,-65.6132 659.012,-52.4794 556.5,-31 548.804,-29.3874 540.564,-27.1962 533.039,-25.006"/>
<polygon fill="midnightblue" stroke="midnightblue" points="848.139,-75.2939 858.414,-72.7094 848.77,-68.3224 848.139,-75.2939"/>
</g>
<!-- Node7 -->
<g id="node7" class="node"><title>Node7</title>
<g id="a_node7"><a xlink:href="integrate__sd_8cpp.html" target="_top" xlink:title="Stokesian dynamics integrator. ">
<polygon fill="none" stroke="black" points="565.5,-6 565.5,-25 663.5,-25 663.5,-6 565.5,-6"/>
<text text-anchor="middle" x="614.5" y="-13" font-family="Helvetica,sans-Serif" font-size="10.00">integrate_sd.cpp</text>
</a>
</g>
</g>
<!-- Node1&#45;&gt;Node7 -->
<g id="edge6" class="edge"><title>Node1&#45;&gt;Node7</title>
<path fill="none" stroke="midnightblue" d="M848.379,-66.7415C802.485,-58.0927 732.743,-44.5196 672.5,-31 664.398,-29.1818 655.696,-27.0839 647.56,-25.0588"/>
<polygon fill="midnightblue" stroke="midnightblue" points="847.894,-70.2116 858.369,-68.6172 849.186,-63.3318 847.894,-70.2116"/>
</g>
<!-- Node8 -->
<g id="node8" class="node"><title>Node8</title>
<g id="a_node8"><a xlink:href="interaction__data_8cpp.html" target="_top" xlink:title="Implementation of interaction_data.hpp. ">
<polygon fill="none" stroke="black" points="681.5,-6 681.5,-25 797.5,-25 797.5,-6 681.5,-6"/>
<text text-anchor="middle" x="739.5" y="-13" font-family="Helvetica,sans-Serif" font-size="10.00">interaction_data.cpp</text>
</a>
</g>
</g>
<!-- Node1&#45;&gt;Node8 -->
<g id="edge7" class="edge"><title>Node1&#45;&gt;Node8</title>
<path fill="none" stroke="midnightblue" d="M866.253,-63.9329C835.35,-52.3683 789.493,-35.2083 762.239,-25.0091"/>
<polygon fill="midnightblue" stroke="midnightblue" points="865.127,-67.2483 875.719,-67.4751 867.58,-60.6923 865.127,-67.2483"/>
</g>
<!-- Node9 -->
<g id="node9" class="node"><title>Node9</title>
<g id="a_node9"><a xlink:href="layered_8cpp.html" target="_top" xlink:title="Implementation of layered.h. ">
<polygon fill="none" stroke="black" points="815.5,-6 815.5,-25 889.5,-25 889.5,-6 815.5,-6"/>
<text text-anchor="middle" x="852.5" y="-13" font-family="Helvetica,sans-Serif" font-size="10.00">layered.cpp</text>
</a>
</g>
</g>
<!-- Node1&#45;&gt;Node9 -->
<g id="edge8" class="edge"><title>Node1&#45;&gt;Node9</title>
<path fill="none" stroke="midnightblue" d="M885.618,-59.3377C876.984,-48.1694 865.974,-33.9278 859.078,-25.0091"/>
<polygon fill="midnightblue" stroke="midnightblue" points="883.024,-61.7044 891.909,-67.4751 888.562,-57.423 883.024,-61.7044"/>
</g>
<!-- Node10 -->
<g id="node10" class="node"><title>Node10</title>
<g id="a_node10"><a xlink:href="nsquare_8cpp.html" target="_top" xlink:title="Implementation of nsquare.h. ">
<polygon fill="none" stroke="black" points="907.5,-6 907.5,-25 983.5,-25 983.5,-6 907.5,-6"/>
<text text-anchor="middle" x="945.5" y="-13" font-family="Helvetica,sans-Serif" font-size="10.00">nsquare.cpp</text>
</a>
</g>
</g>
<!-- Node1&#45;&gt;Node10 -->
<g id="edge9" class="edge"><title>Node1&#45;&gt;Node10</title>
<path fill="none" stroke="midnightblue" d="M911.662,-59.3377C920.484,-48.1694 931.733,-33.9278 938.779,-25.0091"/>
<polygon fill="midnightblue" stroke="midnightblue" points="908.686,-57.4584 905.234,-67.4751 914.179,-61.7975 908.686,-57.4584"/>
</g>
<!-- Node11 -->
<g id="node11" class="node"><title>Node11</title>
<g id="a_node11"><a xlink:href="pressure_8cpp.html" target="_top" xlink:title="Implementation of pressure.h. ">
<polygon fill="none" stroke="black" points="1002,-6 1002,-25 1081,-25 1081,-6 1002,-6"/>
<text text-anchor="middle" x="1041.5" y="-13" font-family="Helvetica,sans-Serif" font-size="10.00">pressure.cpp</text>
</a>
</g>
</g>
<!-- Node1&#45;&gt;Node11 -->
<g id="edge10" class="edge"><title>Node1&#45;&gt;Node11</title>
<path fill="none" stroke="midnightblue" d="M928.227,-63.6313C956.008,-52.0717 996.75,-35.12 1021.05,-25.0091"/>
<polygon fill="midnightblue" stroke="midnightblue" points="926.877,-60.402 918.988,-67.4751 929.566,-66.8649 926.877,-60.402"/>
</g>
<!-- Node12 -->
<g id="node12" class="node"><title>Node12</title>
<g id="a_node12"><a xlink:href="statistics_8cpp.html" target="_top" xlink:title="This is the place for analysis (so far...). ">
<polygon fill="none" stroke="black" points="1099,-6 1099,-25 1180,-25 1180,-6 1099,-6"/>
<text text-anchor="middle" x="1139.5" y="-13" font-family="Helvetica,sans-Serif" font-size="10.00">statistics.cpp</text>
</a>
</g>
</g>
<!-- Node1&#45;&gt;Node12 -->
<g id="edge11" class="edge"><title>Node1&#45;&gt;Node12</title>
<path fill="none" stroke="midnightblue" d="M948.022,-65.2152C986.909,-56.5485 1042.35,-43.7562 1090.5,-31 1097.36,-29.1825 1104.72,-27.085 1111.59,-25.0599"/>
<polygon fill="midnightblue" stroke="midnightblue" points="947.015,-61.8536 938.01,-67.4369 948.531,-68.6873 947.015,-61.8536"/>
</g>
<!-- Node13 -->
<g id="node13" class="node"><title>Node13</title>
<g id="a_node13"><a xlink:href="statistics__observable_8cpp.html" target="_top" xlink:title="statistics_observable.cpp">
<polygon fill="none" stroke="black" points="1198.5,-6 1198.5,-25 1338.5,-25 1338.5,-6 1198.5,-6"/>
<text text-anchor="middle" x="1268.5" y="-13" font-family="Helvetica,sans-Serif" font-size="10.00">statistics_observable.cpp</text>
</a>
</g>
</g>
<!-- Node1&#45;&gt;Node13 -->
<g id="edge12" class="edge"><title>Node1&#45;&gt;Node13</title>
<path fill="none" stroke="midnightblue" d="M948.572,-68.6937C1006.61,-60.124 1105.1,-45.269 1189.5,-31 1200.5,-29.1405 1212.34,-27.0271 1223.42,-25.0002"/>
<polygon fill="midnightblue" stroke="midnightblue" points="947.951,-65.2474 938.568,-70.1679 948.971,-72.1727 947.951,-65.2474"/>
</g>
<!-- Node14 -->
<g id="node14" class="node"><title>Node14</title>
<g id="a_node14"><a xlink:href="verlet_8cpp.html" target="_top" xlink:title="Verlet list. ">
<polygon fill="none" stroke="black" points="1357,-6 1357,-25 1422,-25 1422,-6 1357,-6"/>
<text text-anchor="middle" x="1389.5" y="-13" font-family="Helvetica,sans-Serif" font-size="10.00">verlet.cpp</text>
</a>
</g>
</g>
<!-- Node1&#45;&gt;Node14 -->
<g id="edge13" class="edge"><title>Node1&#45;&gt;Node14</title>
<path fill="none" stroke="midnightblue" d="M948.871,-74.7585C1032.56,-71.8511 1205.14,-62.2601 1347.5,-31 1354.28,-29.511 1361.49,-27.2768 1367.98,-25.0054"/>
<polygon fill="midnightblue" stroke="midnightblue" points="948.509,-71.2684 938.63,-75.096 948.74,-78.2646 948.509,-71.2684"/>
</g>
<!-- Node15 -->
<g id="node15" class="node"><title>Node15</title>
<g id="a_node15"><a xlink:href="virtual__sites_8cpp.html" target="_top" xlink:title="virtual_sites.cpp">
<polygon fill="none" stroke="black" points="1440,-6 1440,-25 1537,-25 1537,-6 1440,-6"/>
<text text-anchor="middle" x="1488.5" y="-13" font-family="Helvetica,sans-Serif" font-size="10.00">virtual_sites.cpp</text>
</a>
</g>
</g>
<!-- Node1&#45;&gt;Node15 -->
<g id="edge14" class="edge"><title>Node1&#45;&gt;Node15</title>
<path fill="none" stroke="midnightblue" d="M948.739,-74.5175C1043.66,-71.1074 1255.63,-60.5866 1431.5,-31 1440.46,-29.4924 1450.08,-27.2805 1458.82,-25.0362"/>
<polygon fill="midnightblue" stroke="midnightblue" points="948.437,-71.0258 938.565,-74.8716 948.68,-78.0215 948.437,-71.0258"/>
</g>
<!-- Node16 -->
<g id="node16" class="node"><title>Node16</title>
<g id="a_node16"><a xlink:href="pressure__tcl_8cpp.html" target="_top" xlink:title="pressure_tcl.cpp">
<polygon fill="none" stroke="black" points="1555.5,-6 1555.5,-25 1651.5,-25 1651.5,-6 1555.5,-6"/>
<text text-anchor="middle" x="1603.5" y="-13" font-family="Helvetica,sans-Serif" font-size="10.00">pressure_tcl.cpp</text>
</a>
</g>
</g>
<!-- Node1&#45;&gt;Node16 -->
<g id="edge15" class="edge"><title>Node1&#45;&gt;Node16</title>
<path fill="none" stroke="midnightblue" d="M948.682,-75.577C1058.02,-73.9872 1325.65,-66.464 1546.5,-31 1555.57,-29.543 1565.31,-27.3183 1574.13,-25.0458"/>
<polygon fill="midnightblue" stroke="midnightblue" points="948.555,-72.0783 938.603,-75.7131 948.649,-79.0777 948.555,-72.0783"/>
</g>
<!-- Node17 -->
<g id="node17" class="node"><title>Node17</title>
<g id="a_node17"><a xlink:href="statistics__observable__tcl_8cpp.html" target="_top" xlink:title="statistics_observable\l_tcl.cpp">
<polygon fill="none" stroke="black" points="1669.5,-0.5 1669.5,-30.5 1789.5,-30.5 1789.5,-0.5 1669.5,-0.5"/>
<text text-anchor="start" x="1677.5" y="-18.5" font-family="Helvetica,sans-Serif" font-size="10.00">statistics_observable</text>
<text text-anchor="middle" x="1729.5" y="-7.5" font-family="Helvetica,sans-Serif" font-size="10.00">_tcl.cpp</text>
</a>
</g>
</g>
<!-- Node1&#45;&gt;Node17 -->
<g id="edge16" class="edge"><title>Node1&#45;&gt;Node17</title>
<path fill="none" stroke="midnightblue" d="M948.965,-75.5978C1071.46,-74.062 1394.07,-66.6615 1660.5,-31 1663.41,-30.6103 1666.38,-30.1661 1669.38,-29.6813"/>
<polygon fill="midnightblue" stroke="midnightblue" points="948.729,-72.1003 938.771,-75.7177 948.811,-79.0998 948.729,-72.1003"/>
</g>
</g>
</svg>
