<?xml version="1.0" encoding="UTF-8" standalone="no"?>
<!DOCTYPE svg PUBLIC "-//W3C//DTD SVG 1.1//EN"
 "http://www.w3.org/Graphics/SVG/1.1/DTD/svg11.dtd">
<!-- Generated by graphviz version 2.38.0 (20140413.2041)
 -->
<!-- Title: quartic.cpp Pages: 1 -->
<!--zoomable 420 -->
<svg id="main" version="1.1" xmlns="http://www.w3.org/2000/svg" xmlns:xlink="http://www.w3.org/1999/xlink" xml:space="preserve" onload="init(evt)">
<style type="text/css"><![CDATA[
.edge:hover path { stroke: red; }
.edge:hover polygon { stroke: red; fill: red; }
]]></style>
<script type="text/javascript"><![CDATA[
var edges = document.getElementsByTagName('g');
if (edges && edges.length) {
  for (var i=0;i<edges.length;i++) {
    if (edges[i].id.substr(0,4)=='edge') {
      edges[i].setAttribute('class','edge');
    }
  }
}
]]></script>
        <defs>
                <circle id="rim" cx="0" cy="0" r="7"/>
                <circle id="rim2" cx="0" cy="0" r="3.5"/>
                <g id="zoomPlus">
                        <use xlink:href="#rim" fill="#404040">
                                <set attributeName="fill" to="#808080" begin="zoomplus.mouseover" end="zoomplus.mouseout"/>
                        </use>
                        <path d="M-4,0h8M0,-4v8" fill="none" stroke="white" stroke-width="1.5" pointer-events="none"/>
                </g>
                <g id="zoomMin">
                        <use xlink:href="#rim" fill="#404040">
                                <set attributeName="fill" to="#808080" begin="zoomminus.mouseover" end="zoomminus.mouseout"/>
                        </use>
                        <path d="M-4,0h8" fill="none" stroke="white" stroke-width="1.5" pointer-events="none"/>
                </g>
                <g id="dirArrow">
                        <path fill="none" stroke="white" stroke-width="1.5" d="M0,-3.0v7 M-2.5,-0.5L0,-3.0L2.5,-0.5"/>
                </g>
               <g id="resetDef">
                       <use xlink:href="#rim2" fill="#404040">
                               <set attributeName="fill" to="#808080" begin="reset.mouseover" end="reset.mouseout"/>
                       </use>
               </g>
        </defs>

<script type="text/javascript">
var viewWidth = 907;
var viewHeight = 420;
var sectionId = 'dynsection-0';
</script>
<script xlink:href="svgpan.js"/>
<svg id="graph" class="graph">
<g id="viewport">
<title>quartic.cpp</title>
<!-- Node1 -->
<g id="node1" class="node"><title>Node1</title>
<polygon fill="#bfbfbf" stroke="black" points="471.5,-392.5 471.5,-411.5 542.5,-411.5 542.5,-392.5 471.5,-392.5"/>
<text text-anchor="middle" x="507" y="-399.5" font-family="Helvetica,sans-Serif" font-size="10.00">quartic.cpp</text>
</g>
<!-- Node2 -->
<g id="node2" class="node"><title>Node2</title>
<g id="a_node2"><a xlink:href="quartic_8hpp.html" target="_top" xlink:title="Routines to calculate the HARMONIC Energy or/and HARMONIC force for a particle pair. ">
<polygon fill="none" stroke="black" points="425.5,-336.5 425.5,-355.5 496.5,-355.5 496.5,-336.5 425.5,-336.5"/>
<text text-anchor="middle" x="461" y="-343.5" font-family="Helvetica,sans-Serif" font-size="10.00">quartic.hpp</text>
</a>
</g>
</g>
<!-- Node1&#45;&gt;Node2 -->
<g id="edge1" class="edge"><title>Node1&#45;&gt;Node2</title>
<path fill="none" stroke="midnightblue" d="M499.404,-392.083C492.773,-384.298 482.979,-372.801 474.942,-363.367"/>
<polygon fill="midnightblue" stroke="midnightblue" points="477.604,-361.094 468.455,-355.751 472.275,-365.633 477.604,-361.094"/>
</g>
<!-- Node23 -->
<g id="node23" class="node"><title>Node23</title>
<g id="a_node23"><a xlink:href="communication_8hpp.html" target="_top" xlink:title="This file contains the asynchronous MPI communication. ">
<polygon fill="none" stroke="black" points="536.5,-280.5 536.5,-299.5 649.5,-299.5 649.5,-280.5 536.5,-280.5"/>
<text text-anchor="middle" x="593" y="-287.5" font-family="Helvetica,sans-Serif" font-size="10.00">communication.hpp</text>
</a>
</g>
</g>
<!-- Node1&#45;&gt;Node23 -->
<g id="edge29" class="edge"><title>Node1&#45;&gt;Node23</title>
<path fill="none" stroke="midnightblue" d="M513.748,-392.368C528.004,-374.135 561.394,-331.426 579.963,-307.675"/>
<polygon fill="midnightblue" stroke="midnightblue" points="582.881,-309.625 586.283,-299.591 577.366,-305.314 582.881,-309.625"/>
</g>
<!-- Node3 -->
<g id="node3" class="node"><title>Node3</title>
<g id="a_node3"><a xlink:href="utils_8hpp.html" target="_top" xlink:title="Small functions that are useful not only for one modul. ">
<polygon fill="none" stroke="black" points="369.5,-168.5 369.5,-187.5 428.5,-187.5 428.5,-168.5 369.5,-168.5"/>
<text text-anchor="middle" x="399" y="-175.5" font-family="Helvetica,sans-Serif" font-size="10.00">utils.hpp</text>
</a>
</g>
</g>
<!-- Node2&#45;&gt;Node3 -->
<g id="edge2" class="edge"><title>Node2&#45;&gt;Node3</title>
<path fill="none" stroke="midnightblue" d="M425.48,-339.686C384.336,-332.72 320.345,-319.101 306,-300 276.592,-260.841 338.132,-215.15 374.618,-192.774"/>
<polygon fill="midnightblue" stroke="midnightblue" points="376.488,-195.734 383.284,-187.606 372.903,-189.722 376.488,-195.734"/>
</g>
<!-- Node20 -->
<g id="node20" class="node"><title>Node20</title>
<g id="a_node20"><a xlink:href="interaction__data_8hpp.html" target="_top" xlink:title="Various procedures concerning interactions between particles. ">
<polygon fill="none" stroke="black" points="315.5,-280.5 315.5,-299.5 432.5,-299.5 432.5,-280.5 315.5,-280.5"/>
<text text-anchor="middle" x="374" y="-287.5" font-family="Helvetica,sans-Serif" font-size="10.00">interaction_data.hpp</text>
</a>
</g>
</g>
<!-- Node2&#45;&gt;Node20 -->
<g id="edge22" class="edge"><title>Node2&#45;&gt;Node20</title>
<path fill="none" stroke="midnightblue" d="M447.022,-336.324C433.45,-327.9 412.62,-314.971 396.675,-305.074"/>
<polygon fill="midnightblue" stroke="midnightblue" points="398.286,-301.954 387.943,-299.655 394.594,-307.902 398.286,-301.954"/>
</g>
<!-- Node21 -->
<g id="node21" class="node"><title>Node21</title>
<g id="a_node21"><a xlink:href="particle__data_8hpp.html" target="_top" xlink:title="For more information on particle_data, see particle_data.c. ">
<polygon fill="none" stroke="black" points="348.5,-224.5 348.5,-243.5 449.5,-243.5 449.5,-224.5 348.5,-224.5"/>
<text text-anchor="middle" x="399" y="-231.5" font-family="Helvetica,sans-Serif" font-size="10.00">particle_data.hpp</text>
</a>
</g>
</g>
<!-- Node2&#45;&gt;Node21 -->
<g id="edge26" class="edge"><title>Node2&#45;&gt;Node21</title>
<path fill="none" stroke="midnightblue" d="M459.574,-336.078C457.209,-323.056 451.647,-298.393 441,-280 434.671,-269.066 425.231,-258.634 416.903,-250.572"/>
<polygon fill="midnightblue" stroke="midnightblue" points="419.114,-247.85 409.396,-243.63 414.361,-252.99 419.114,-247.85"/>
</g>
<!-- Node22 -->
<g id="node22" class="node"><title>Node22</title>
<g id="a_node22"><a xlink:href="random_8hpp.html" target="_top" xlink:title="A random generator. ">
<polygon fill="none" stroke="black" points="467.5,-224.5 467.5,-243.5 542.5,-243.5 542.5,-224.5 467.5,-224.5"/>
<text text-anchor="middle" x="505" y="-231.5" font-family="Helvetica,sans-Serif" font-size="10.00">random.hpp</text>
</a>
</g>
</g>
<!-- Node2&#45;&gt;Node22 -->
<g id="edge27" class="edge"><title>Node2&#45;&gt;Node22</title>
<path fill="none" stroke="midnightblue" d="M464.453,-336.368C471.617,-318.456 488.231,-276.923 497.821,-252.948"/>
<polygon fill="midnightblue" stroke="midnightblue" points="501.099,-254.176 501.563,-243.591 494.6,-251.576 501.099,-254.176"/>
</g>
<!-- Node4 -->
<g id="node4" class="node"><title>Node4</title>
<polygon fill="none" stroke="#bfbfbf" points="492.5,-112.5 492.5,-131.5 539.5,-131.5 539.5,-112.5 492.5,-112.5"/>
<text text-anchor="middle" x="516" y="-119.5" font-family="Helvetica,sans-Serif" font-size="10.00">cmath</text>
</g>
<!-- Node3&#45;&gt;Node4 -->
<g id="edge3" class="edge"><title>Node3&#45;&gt;Node4</title>
<path fill="none" stroke="midnightblue" d="M417.539,-168.444C436.623,-159.636 466.575,-145.812 488.436,-135.722"/>
<polygon fill="midnightblue" stroke="midnightblue" points="489.935,-138.885 497.548,-131.516 487.001,-132.529 489.935,-138.885"/>
</g>
<!-- Node5 -->
<g id="node5" class="node"><title>Node5</title>
<polygon fill="none" stroke="#bfbfbf" points="170,-112.5 170,-131.5 216,-131.5 216,-112.5 170,-112.5"/>
<text text-anchor="middle" x="193" y="-119.5" font-family="Helvetica,sans-Serif" font-size="10.00">cstdio</text>
</g>
<!-- Node3&#45;&gt;Node5 -->
<g id="edge4" class="edge"><title>Node3&#45;&gt;Node5</title>
<path fill="none" stroke="midnightblue" d="M369.394,-169.546C336.625,-161.251 282.002,-147.293 225.819,-132.181"/>
<polygon fill="midnightblue" stroke="midnightblue" points="226.622,-128.773 216.056,-129.547 224.799,-135.531 226.622,-128.773"/>
</g>
<!-- Node6 -->
<g id="node6" class="node"><title>Node6</title>
<polygon fill="none" stroke="#bfbfbf" points="234.5,-112.5 234.5,-131.5 283.5,-131.5 283.5,-112.5 234.5,-112.5"/>
<text text-anchor="middle" x="259" y="-119.5" font-family="Helvetica,sans-Serif" font-size="10.00">cstdlib</text>
</g>
<!-- Node3&#45;&gt;Node6 -->
<g id="edge5" class="edge"><title>Node3&#45;&gt;Node6</title>
<path fill="none" stroke="midnightblue" d="M376.817,-168.444C353.572,-159.478 316.851,-145.314 290.585,-135.183"/>
<polygon fill="midnightblue" stroke="midnightblue" points="291.669,-131.85 281.08,-131.516 289.15,-138.381 291.669,-131.85"/>
</g>
<!-- Node7 -->
<g id="node7" class="node"><title>Node7</title>
<polygon fill="none" stroke="#bfbfbf" points="302,-112.5 302,-131.5 352,-131.5 352,-112.5 302,-112.5"/>
<text text-anchor="middle" x="327" y="-119.5" font-family="Helvetica,sans-Serif" font-size="10.00">cstring</text>
</g>
<!-- Node3&#45;&gt;Node7 -->
<g id="edge6" class="edge"><title>Node3&#45;&gt;Node7</title>
<path fill="none" stroke="midnightblue" d="M387.432,-168.324C376.58,-160.185 360.119,-147.839 347.117,-138.087"/>
<polygon fill="midnightblue" stroke="midnightblue" points="348.879,-135.034 338.779,-131.834 344.679,-140.634 348.879,-135.034"/>
</g>
<!-- Node8 -->
<g id="node8" class="node"><title>Node8</title>
<g id="a_node8"><a xlink:href="config_8hpp.html" target="_top" xlink:title="This file contains the defaults for Espresso. ">
<polygon fill="none" stroke="black" points="534.5,-56.5 534.5,-75.5 601.5,-75.5 601.5,-56.5 534.5,-56.5"/>
<text text-anchor="middle" x="568" y="-63.5" font-family="Helvetica,sans-Serif" font-size="10.00">config.hpp</text>
</a>
</g>
</g>
<!-- Node3&#45;&gt;Node8 -->
<g id="edge7" class="edge"><title>Node3&#45;&gt;Node8</title>
<path fill="none" stroke="midnightblue" d="M428.605,-176.029C462.027,-173.336 515.912,-163.922 548,-132 560.153,-119.91 564.954,-100.627 566.833,-86.1976"/>
<polygon fill="midnightblue" stroke="midnightblue" points="570.35,-86.1798 567.799,-75.8968 563.381,-85.5265 570.35,-86.1798"/>
</g>
<!-- Node12 -->
<g id="node12" class="node"><title>Node12</title>
<g id="a_node12"><a xlink:href="debug_8hpp.html" target="_top" xlink:title="This file controls debug facilities. ">
<polygon fill="none" stroke="black" points="0,-112.5 0,-131.5 68,-131.5 68,-112.5 0,-112.5"/>
<text text-anchor="middle" x="34" y="-119.5" font-family="Helvetica,sans-Serif" font-size="10.00">debug.hpp</text>
</a>
</g>
</g>
<!-- Node3&#45;&gt;Node12 -->
<g id="edge11" class="edge"><title>Node3&#45;&gt;Node12</title>
<path fill="none" stroke="midnightblue" d="M369.152,-173.512C313.787,-166.895 191.245,-151.561 78.0951,-132.094"/>
<polygon fill="midnightblue" stroke="midnightblue" points="78.6787,-128.643 68.2275,-130.381 77.4816,-135.54 78.6787,-128.643"/>
</g>
<!-- Node13 -->
<g id="node13" class="node"><title>Node13</title>
<g id="a_node13"><a xlink:href="lees__edwards_8hpp.html" target="_top" xlink:title="lees_edwards.hpp">
<polygon fill="none" stroke="black" points="370,-112.5 370,-131.5 474,-131.5 474,-112.5 370,-112.5"/>
<text text-anchor="middle" x="422" y="-119.5" font-family="Helvetica,sans-Serif" font-size="10.00">lees_edwards.hpp</text>
</a>
</g>
</g>
<!-- Node3&#45;&gt;Node13 -->
<g id="edge13" class="edge"><title>Node3&#45;&gt;Node13</title>
<path fill="none" stroke="midnightblue" d="M402.798,-168.083C405.913,-160.77 410.423,-150.181 414.289,-141.103"/>
<polygon fill="midnightblue" stroke="midnightblue" points="417.574,-142.323 418.273,-131.751 411.134,-139.58 417.574,-142.323"/>
</g>
<!-- Node14 -->
<g id="node14" class="node"><title>Node14</title>
<g id="a_node14"><a xlink:href="errorhandling_8hpp.html" target="_top" xlink:title="This file contains the errorhandling code for severe errors, like a broken bond or illegal parameter ...">
<polygon fill="none" stroke="black" points="700.5,-112.5 700.5,-131.5 803.5,-131.5 803.5,-112.5 700.5,-112.5"/>
<text text-anchor="middle" x="752" y="-119.5" font-family="Helvetica,sans-Serif" font-size="10.00">errorhandling.hpp</text>
</a>
</g>
</g>
<!-- Node3&#45;&gt;Node14 -->
<g id="edge15" class="edge"><title>Node3&#45;&gt;Node14</title>
<path fill="none" stroke="midnightblue" d="M428.792,-172.443C486.298,-163.646 613.663,-144.162 690.22,-132.451"/>
<polygon fill="midnightblue" stroke="midnightblue" points="690.858,-135.894 700.214,-130.922 689.8,-128.974 690.858,-135.894"/>
</g>
<!-- Node18 -->
<g id="node18" class="node"><title>Node18</title>
<polygon fill="none" stroke="#bfbfbf" points="596.5,-112.5 596.5,-131.5 643.5,-131.5 643.5,-112.5 596.5,-112.5"/>
<text text-anchor="middle" x="620" y="-119.5" font-family="Helvetica,sans-Serif" font-size="10.00">vector</text>
</g>
<!-- Node3&#45;&gt;Node18 -->
<g id="edge20" class="edge"><title>Node3&#45;&gt;Node18</title>
<path fill="none" stroke="midnightblue" d="M428.805,-169.717C469.84,-159.691 543.519,-141.688 586.442,-131.2"/>
<polygon fill="midnightblue" stroke="midnightblue" points="587.513,-134.541 596.397,-128.767 585.852,-127.741 587.513,-134.541"/>
</g>
<!-- Node19 -->
<g id="node19" class="node"><title>Node19</title>
<polygon fill="none" stroke="#bfbfbf" points="86.5,-112.5 86.5,-131.5 151.5,-131.5 151.5,-112.5 86.5,-112.5"/>
<text text-anchor="middle" x="119" y="-119.5" font-family="Helvetica,sans-Serif" font-size="10.00">exception</text>
</g>
<!-- Node3&#45;&gt;Node19 -->
<g id="edge21" class="edge"><title>Node3&#45;&gt;Node19</title>
<path fill="none" stroke="midnightblue" d="M369.272,-171.618C325.94,-163.722 242.655,-148.349 161.435,-132.047"/>
<polygon fill="midnightblue" stroke="midnightblue" points="162.037,-128.598 151.543,-130.055 160.655,-135.46 162.037,-128.598"/>
</g>
<!-- Node9 -->
<g id="node9" class="node"><title>Node9</title>
<g id="a_node9"><a xlink:href="acconfig_8hpp.html" target="_top" xlink:title="acconfig.hpp">
<polygon fill="none" stroke="black" points="418,-0.5 418,-19.5 496,-19.5 496,-0.5 418,-0.5"/>
<text text-anchor="middle" x="457" y="-7.5" font-family="Helvetica,sans-Serif" font-size="10.00">acconfig.hpp</text>
</a>
</g>
</g>
<!-- Node8&#45;&gt;Node9 -->
<g id="edge8" class="edge"><title>Node8&#45;&gt;Node9</title>
<path fill="none" stroke="midnightblue" d="M550.166,-56.324C532.284,-47.6247 504.525,-34.1202 483.954,-24.113"/>
<polygon fill="midnightblue" stroke="midnightblue" points="485.313,-20.8819 474.79,-19.6545 482.251,-27.1765 485.313,-20.8819"/>
</g>
<!-- Node10 -->
<g id="node10" class="node"><title>Node10</title>
<g id="a_node10"><a xlink:href="myconfig-final_8hpp.html" target="_top" xlink:title="myconfig&#45;final.hpp">
<polygon fill="none" stroke="black" points="514.5,-0.5 514.5,-19.5 621.5,-19.5 621.5,-0.5 514.5,-0.5"/>
<text text-anchor="middle" x="568" y="-7.5" font-family="Helvetica,sans-Serif" font-size="10.00">myconfig&#45;final.hpp</text>
</a>
</g>
</g>
<!-- Node8&#45;&gt;Node10 -->
<g id="edge9" class="edge"><title>Node8&#45;&gt;Node10</title>
<path fill="none" stroke="midnightblue" d="M568,-56.083C568,-49.0059 568,-38.8611 568,-29.9865"/>
<polygon fill="midnightblue" stroke="midnightblue" points="571.5,-29.751 568,-19.7511 564.5,-29.7511 571.5,-29.751"/>
</g>
<!-- Node11 -->
<g id="node11" class="node"><title>Node11</title>
<g id="a_node11"><a xlink:href="config-features_8hpp.html" target="_top" xlink:title="config&#45;features.hpp">
<polygon fill="none" stroke="black" points="639.5,-0.5 639.5,-19.5 750.5,-19.5 750.5,-0.5 639.5,-0.5"/>
<text text-anchor="middle" x="695" y="-7.5" font-family="Helvetica,sans-Serif" font-size="10.00">config&#45;features.hpp</text>
</a>
</g>
</g>
<!-- Node8&#45;&gt;Node11 -->
<g id="edge10" class="edge"><title>Node8&#45;&gt;Node11</title>
<path fill="none" stroke="midnightblue" d="M588.124,-56.4435C609.024,-47.5566 641.935,-33.5632 665.716,-23.4514"/>
<polygon fill="midnightblue" stroke="midnightblue" points="667.138,-26.6504 674.971,-19.5164 664.398,-20.2085 667.138,-26.6504"/>
</g>
<!-- Node12&#45;&gt;Node8 -->
<g id="edge12" class="edge"><title>Node12&#45;&gt;Node8</title>
<path fill="none" stroke="midnightblue" d="M68.2035,-113.471C71.171,-112.93 74.1338,-112.43 77,-112 240.951,-87.4126 437.853,-74.2722 524.013,-69.3311"/>
<polygon fill="midnightblue" stroke="midnightblue" points="524.419,-72.8138 534.206,-68.7554 524.024,-65.825 524.419,-72.8138"/>
</g>
<!-- Node13&#45;&gt;Node8 -->
<g id="edge14" class="edge"><title>Node13&#45;&gt;Node8</title>
<path fill="none" stroke="midnightblue" d="M445.134,-112.444C469.482,-103.438 508.007,-89.1891 535.423,-79.049"/>
<polygon fill="midnightblue" stroke="midnightblue" points="536.809,-82.2681 544.974,-75.5164 534.381,-75.7028 536.809,-82.2681"/>
</g>
<!-- Node14&#45;&gt;Node8 -->
<g id="edge16" class="edge"><title>Node14&#45;&gt;Node8</title>
<path fill="none" stroke="midnightblue" d="M722.845,-112.444C691.487,-103.241 641.469,-88.5617 606.803,-78.3879"/>
<polygon fill="midnightblue" stroke="midnightblue" points="607.6,-74.9742 597.019,-75.5164 605.629,-81.6909 607.6,-74.9742"/>
</g>
<!-- Node15 -->
<g id="node15" class="node"><title>Node15</title>
<polygon fill="none" stroke="#bfbfbf" points="662,-56.5 662,-75.5 706,-75.5 706,-56.5 662,-56.5"/>
<text text-anchor="middle" x="684" y="-63.5" font-family="Helvetica,sans-Serif" font-size="10.00">string</text>
</g>
<!-- Node14&#45;&gt;Node15 -->
<g id="edge17" class="edge"><title>Node14&#45;&gt;Node15</title>
<path fill="none" stroke="midnightblue" d="M741.075,-112.324C730.825,-104.185 715.279,-91.8395 702.999,-82.0874"/>
<polygon fill="midnightblue" stroke="midnightblue" points="705.132,-79.3119 695.124,-75.8339 700.779,-84.7937 705.132,-79.3119"/>
</g>
<!-- Node16 -->
<g id="node16" class="node"><title>Node16</title>
<polygon fill="none" stroke="#bfbfbf" points="724,-56.5 724,-75.5 780,-75.5 780,-56.5 724,-56.5"/>
<text text-anchor="middle" x="752" y="-63.5" font-family="Helvetica,sans-Serif" font-size="10.00">sstream</text>
</g>
<!-- Node14&#45;&gt;Node16 -->
<g id="edge18" class="edge"><title>Node14&#45;&gt;Node16</title>
<path fill="none" stroke="midnightblue" d="M752,-112.083C752,-105.006 752,-94.8611 752,-85.9865"/>
<polygon fill="midnightblue" stroke="midnightblue" points="755.5,-85.751 752,-75.7511 748.5,-85.7511 755.5,-85.751"/>
</g>
<!-- Node17 -->
<g id="node17" class="node"><title>Node17</title>
<polygon fill="none" stroke="#bfbfbf" points="798,-56.5 798,-75.5 830,-75.5 830,-56.5 798,-56.5"/>
<text text-anchor="middle" x="814" y="-63.5" font-family="Helvetica,sans-Serif" font-size="10.00">list</text>
</g>
<!-- Node14&#45;&gt;Node17 -->
<g id="edge19" class="edge"><title>Node14&#45;&gt;Node17</title>
<path fill="none" stroke="midnightblue" d="M761.961,-112.324C771.127,-104.341 784.937,-92.3128 796.028,-82.6529"/>
<polygon fill="midnightblue" stroke="midnightblue" points="798.615,-85.041 803.857,-75.8339 794.018,-79.7624 798.615,-85.041"/>
</g>
<!-- Node20&#45;&gt;Node3 -->
<g id="edge23" class="edge"><title>Node20&#45;&gt;Node3</title>
<path fill="none" stroke="midnightblue" d="M363.391,-280.257C349.704,-267.859 328.797,-244.405 339,-224 345.728,-210.543 358.606,-200.067 370.712,-192.621"/>
<polygon fill="midnightblue" stroke="midnightblue" points="372.733,-195.498 379.704,-187.52 369.279,-189.41 372.733,-195.498"/>
</g>
<!-- Node20&#45;&gt;Node21 -->
<g id="edge24" class="edge"><title>Node20&#45;&gt;Node21</title>
<path fill="none" stroke="midnightblue" d="M378.128,-280.083C381.514,-272.77 386.416,-262.181 390.619,-253.103"/>
<polygon fill="midnightblue" stroke="midnightblue" points="393.923,-254.296 394.949,-243.751 387.571,-251.355 393.923,-254.296"/>
</g>
<!-- Node21&#45;&gt;Node3 -->
<g id="edge25" class="edge"><title>Node21&#45;&gt;Node3</title>
<path fill="none" stroke="midnightblue" d="M399,-224.083C399,-217.006 399,-206.861 399,-197.986"/>
<polygon fill="midnightblue" stroke="midnightblue" points="402.5,-197.751 399,-187.751 395.5,-197.751 402.5,-197.751"/>
</g>
<!-- Node22&#45;&gt;Node3 -->
<g id="edge28" class="edge"><title>Node22&#45;&gt;Node3</title>
<path fill="none" stroke="midnightblue" d="M487.969,-224.324C470.97,-215.664 444.624,-202.242 425.007,-192.249"/>
<polygon fill="midnightblue" stroke="midnightblue" points="426.488,-189.075 415.988,-187.655 423.31,-195.312 426.488,-189.075"/>
</g>
<!-- Node23&#45;&gt;Node21 -->
<g id="edge30" class="edge"><title>Node23&#45;&gt;Node21</title>
<path fill="none" stroke="midnightblue" d="M562.26,-280.444C529.056,-271.201 476.009,-256.436 439.443,-246.257"/>
<polygon fill="midnightblue" stroke="midnightblue" points="440.168,-242.826 429.596,-243.516 438.291,-249.57 440.168,-242.826"/>
</g>
<!-- Node23&#45;&gt;Node22 -->
<g id="edge31" class="edge"><title>Node23&#45;&gt;Node22</title>
<path fill="none" stroke="midnightblue" d="M578.861,-280.324C565.134,-271.9 544.064,-258.971 527.936,-249.074"/>
<polygon fill="midnightblue" stroke="midnightblue" points="529.457,-245.902 519.104,-243.655 525.796,-251.868 529.457,-245.902"/>
</g>
<!-- Node24 -->
<g id="node24" class="node"><title>Node24</title>
<g id="a_node24"><a xlink:href="topology_8hpp.html" target="_top" xlink:title="This file contains functions for handling the system topology. ">
<polygon fill="none" stroke="black" points="560.5,-224.5 560.5,-243.5 639.5,-243.5 639.5,-224.5 560.5,-224.5"/>
<text text-anchor="middle" x="600" y="-231.5" font-family="Helvetica,sans-Serif" font-size="10.00">topology.hpp</text>
</a>
</g>
</g>
<!-- Node23&#45;&gt;Node24 -->
<g id="edge32" class="edge"><title>Node23&#45;&gt;Node24</title>
<path fill="none" stroke="midnightblue" d="M594.156,-280.083C595.084,-272.927 596.418,-262.635 597.577,-253.691"/>
<polygon fill="midnightblue" stroke="midnightblue" points="601.051,-254.118 598.866,-243.751 594.109,-253.218 601.051,-254.118"/>
</g>
<!-- Node25 -->
<g id="node25" class="node"><title>Node25</title>
<g id="a_node25"><a xlink:href="mpi_8h.html" target="_top" xlink:title="This is the MPIfake implementation. ">
<polygon fill="none" stroke="black" points="745,-224.5 745,-243.5 789,-243.5 789,-224.5 745,-224.5"/>
<text text-anchor="middle" x="767" y="-231.5" font-family="Helvetica,sans-Serif" font-size="10.00">mpi.h</text>
</a>
</g>
</g>
<!-- Node23&#45;&gt;Node25 -->
<g id="edge34" class="edge"><title>Node23&#45;&gt;Node25</title>
<path fill="none" stroke="midnightblue" d="M620.571,-280.444C651.747,-270.768 702.428,-255.04 735.236,-244.858"/>
<polygon fill="midnightblue" stroke="midnightblue" points="736.29,-248.195 744.803,-241.889 734.215,-241.51 736.29,-248.195"/>
</g>
<!-- Node29 -->
<g id="node29" class="node"><title>Node29</title>
<g id="a_node29"><a xlink:href="cuda__init_8hpp.html" target="_top" xlink:title="cuda_init.hpp">
<polygon fill="none" stroke="black" points="605,-168.5 605,-187.5 687,-187.5 687,-168.5 605,-168.5"/>
<text text-anchor="middle" x="646" y="-175.5" font-family="Helvetica,sans-Serif" font-size="10.00">cuda_init.hpp</text>
</a>
</g>
</g>
<!-- Node23&#45;&gt;Node29 -->
<g id="edge38" class="edge"><title>Node23&#45;&gt;Node29</title>
<path fill="none" stroke="midnightblue" d="M610.198,-280.386C623.251,-272.794 640.234,-260.389 648,-244 654.799,-229.653 653.525,-211.454 650.995,-197.965"/>
<polygon fill="midnightblue" stroke="midnightblue" points="654.345,-196.91 648.725,-187.929 647.518,-198.455 654.345,-196.91"/>
</g>
<!-- Node24&#45;&gt;Node3 -->
<g id="edge33" class="edge"><title>Node24&#45;&gt;Node3</title>
<path fill="none" stroke="midnightblue" d="M568.151,-224.444C532.992,-214.998 476.36,-199.783 438.427,-189.592"/>
<polygon fill="midnightblue" stroke="midnightblue" points="439.3,-186.203 428.734,-186.988 437.484,-192.963 439.3,-186.203"/>
</g>
<!-- Node26 -->
<g id="node26" class="node"><title>Node26</title>
<polygon fill="none" stroke="#bfbfbf" points="705.5,-168.5 705.5,-187.5 758.5,-187.5 758.5,-168.5 705.5,-168.5"/>
<text text-anchor="middle" x="732" y="-175.5" font-family="Helvetica,sans-Serif" font-size="10.00">string.h</text>
</g>
<!-- Node25&#45;&gt;Node26 -->
<g id="edge35" class="edge"><title>Node25&#45;&gt;Node26</title>
<path fill="none" stroke="midnightblue" d="M761.22,-224.083C756.328,-216.534 749.173,-205.495 743.167,-196.23"/>
<polygon fill="midnightblue" stroke="midnightblue" points="746.048,-194.239 737.672,-187.751 740.174,-198.046 746.048,-194.239"/>
</g>
<!-- Node27 -->
<g id="node27" class="node"><title>Node27</title>
<polygon fill="none" stroke="#bfbfbf" points="777,-168.5 777,-187.5 827,-187.5 827,-168.5 777,-168.5"/>
<text text-anchor="middle" x="802" y="-175.5" font-family="Helvetica,sans-Serif" font-size="10.00">stdio.h</text>
</g>
<!-- Node25&#45;&gt;Node27 -->
<g id="edge36" class="edge"><title>Node25&#45;&gt;Node27</title>
<path fill="none" stroke="midnightblue" d="M772.78,-224.083C777.672,-216.534 784.827,-205.495 790.833,-196.23"/>
<polygon fill="midnightblue" stroke="midnightblue" points="793.826,-198.046 796.328,-187.751 787.952,-194.239 793.826,-198.046"/>
</g>
<!-- Node28 -->
<g id="node28" class="node"><title>Node28</title>
<polygon fill="none" stroke="#bfbfbf" points="845.5,-168.5 845.5,-187.5 898.5,-187.5 898.5,-168.5 845.5,-168.5"/>
<text text-anchor="middle" x="872" y="-175.5" font-family="Helvetica,sans-Serif" font-size="10.00">stdlib.h</text>
</g>
<!-- Node25&#45;&gt;Node28 -->
<g id="edge37" class="edge"><title>Node25&#45;&gt;Node28</title>
<path fill="none" stroke="midnightblue" d="M783.87,-224.324C800.709,-215.664 826.807,-202.242 846.238,-192.249"/>
<polygon fill="midnightblue" stroke="midnightblue" points="847.88,-195.341 855.172,-187.655 844.678,-189.116 847.88,-195.341"/>
</g>
<!-- Node29&#45;&gt;Node8 -->
<g id="edge39" class="edge"><title>Node29&#45;&gt;Node8</title>
<path fill="none" stroke="midnightblue" d="M649.87,-168.282C655.093,-155.084 662.595,-129.696 652,-112 642.851,-96.7189 626.541,-86.332 610.712,-79.4255"/>
<polygon fill="midnightblue" stroke="midnightblue" points="611.572,-76.0012 600.986,-75.5623 608.988,-82.5068 611.572,-76.0012"/>
</g>
<!-- Node29&#45;&gt;Node18 -->
<g id="edge40" class="edge"><title>Node29&#45;&gt;Node18</title>
<path fill="none" stroke="midnightblue" d="M641.707,-168.083C638.148,-160.691 632.978,-149.953 628.576,-140.811"/>
<polygon fill="midnightblue" stroke="midnightblue" points="631.705,-139.243 624.213,-131.751 625.398,-142.279 631.705,-139.243"/>
</g>
</g>
</svg>
        <g id="navigator" transform="translate(0 0)" fill="#404254">
                <rect fill="#f2f5e9" fill-opacity="0.5" stroke="#606060" stroke-width=".5" x="0" y="0" width="60" height="60"/>
                <use id="zoomplus" xlink:href="#zoomPlus" x="17" y="9" onmousedown="handleZoom(evt,'in')"/>
                <use id="zoomminus" xlink:href="#zoomMin" x="42" y="9" onmousedown="handleZoom(evt,'out')"/>
                <use id="reset" xlink:href="#resetDef" x="30" y="36" onmousedown="handleReset()"/>
                <g id="arrowUp" xlink:href="#dirArrow" transform="translate(30 24)" onmousedown="handlePan(0,-1)">
                  <use xlink:href="#rim" fill="#404040">
                        <set attributeName="fill" to="#808080" begin="arrowUp.mouseover" end="arrowUp.mouseout"/>
                  </use>
                  <path fill="none" stroke="white" stroke-width="1.5" d="M0,-3.0v7 M-2.5,-0.5L0,-3.0L2.5,-0.5"/>
                </g>
                <g id="arrowRight" xlink:href="#dirArrow" transform="rotate(90) translate(36 -43)" onmousedown="handlePan(1,0)">
                  <use xlink:href="#rim" fill="#404040">
                        <set attributeName="fill" to="#808080" begin="arrowRight.mouseover" end="arrowRight.mouseout"/>
                  </use>
                  <path fill="none" stroke="white" stroke-width="1.5" d="M0,-3.0v7 M-2.5,-0.5L0,-3.0L2.5,-0.5"/>
                </g>
                <g id="arrowDown" xlink:href="#dirArrow" transform="rotate(180) translate(-30 -48)" onmousedown="handlePan(0,1)">
                  <use xlink:href="#rim" fill="#404040">
                        <set attributeName="fill" to="#808080" begin="arrowDown.mouseover" end="arrowDown.mouseout"/>
                  </use>
                  <path fill="none" stroke="white" stroke-width="1.5" d="M0,-3.0v7 M-2.5,-0.5L0,-3.0L2.5,-0.5"/>
                </g>
                <g id="arrowLeft" xlink:href="#dirArrow" transform="rotate(270) translate(-36 17)" onmousedown="handlePan(-1,0)">
                  <use xlink:href="#rim" fill="#404040">
                        <set attributeName="fill" to="#808080" begin="arrowLeft.mouseover" end="arrowLeft.mouseout"/>
                  </use>
                  <path fill="none" stroke="white" stroke-width="1.5" d="M0,-3.0v7 M-2.5,-0.5L0,-3.0L2.5,-0.5"/>
                </g>
        </g>
        <svg viewBox="0 0 15 15" width="100%" height="30px" preserveAspectRatio="xMaxYMin meet">
         <g id="arrow_out" transform="scale(0.3 0.3)">
          <a xlink:href="quartic_8cpp__incl_org.svg" target="_base">
           <rect id="button" ry="5" rx="5" y="6" x="6" height="38" width="38"
                fill="#f2f5e9" fill-opacity="0.5" stroke="#606060" stroke-width="1.0"/>
           <path id="arrow"
             d="M 11.500037,31.436501 C 11.940474,20.09759 22.043105,11.32322 32.158766,21.979434 L 37.068811,17.246167 C 37.068811,17.246167 37.088388,32 37.088388,32 L 22.160133,31.978069 C 22.160133,31.978069 26.997745,27.140456 26.997745,27.140456 C 18.528582,18.264221 13.291696,25.230495 11.500037,31.436501 z"
             style="fill:#404040;"/>
          </a>
         </g>
        </svg>
</svg>
