<?xml version="1.0" encoding="UTF-8" standalone="no"?>
<!DOCTYPE svg PUBLIC "-//W3C//DTD SVG 1.1//EN"
 "http://www.w3.org/Graphics/SVG/1.1/DTD/svg11.dtd">
<!-- Generated by graphviz version 2.38.0 (20140413.2041)
 -->
<!-- Title: quartic.hpp Pages: 1 -->
<svg width="2285pt" height="207pt"
 viewBox="0.00 0.00 2284.50 207.00" xmlns="http://www.w3.org/2000/svg" xmlns:xlink="http://www.w3.org/1999/xlink">
<g id="graph0" class="graph" transform="scale(1 1) rotate(0) translate(4 203)">
<title>quartic.hpp</title>
<!-- Node1 -->
<g id="node1" class="node"><title>Node1</title>
<polygon fill="#bfbfbf" stroke="black" points="1033.5,-179.5 1033.5,-198.5 1104.5,-198.5 1104.5,-179.5 1033.5,-179.5"/>
<text text-anchor="middle" x="1069" y="-186.5" font-family="Helvetica,sans-Serif" font-size="10.00">quartic.hpp</text>
</g>
<!-- Node2 -->
<g id="node2" class="node"><title>Node2</title>
<g id="a_node2"><a xlink:href="forces__inline_8hpp.html" target="_top" xlink:title="forces_inline.hpp">
<polygon fill="none" stroke="black" points="967,-123.5 967,-142.5 1067,-142.5 1067,-123.5 967,-123.5"/>
<text text-anchor="middle" x="1017" y="-130.5" font-family="Helvetica,sans-Serif" font-size="10.00">forces_inline.hpp</text>
</a>
</g>
</g>
<!-- Node1&#45;&gt;Node2 -->
<g id="edge1" class="edge"><title>Node1&#45;&gt;Node2</title>
<path fill="none" stroke="midnightblue" d="M1053.32,-171.718C1044.16,-162.2 1032.95,-150.561 1025.43,-142.751"/>
<polygon fill="midnightblue" stroke="midnightblue" points="1050.96,-174.308 1060.41,-179.083 1056,-169.452 1050.96,-174.308"/>
</g>
<!-- Node26 -->
<g id="node26" class="node"><title>Node26</title>
<g id="a_node26"><a xlink:href="energy__inline_8hpp.html" target="_top" xlink:title="Implementation of the energy calculation. ">
<polygon fill="none" stroke="black" points="308,-67.5 308,-86.5 412,-86.5 412,-67.5 308,-67.5"/>
<text text-anchor="middle" x="360" y="-74.5" font-family="Helvetica,sans-Serif" font-size="10.00">energy_inline.hpp</text>
</a>
</g>
</g>
<!-- Node1&#45;&gt;Node26 -->
<g id="edge28" class="edge"><title>Node1&#45;&gt;Node26</title>
<path fill="none" stroke="midnightblue" d="M1023.28,-180.906C897.302,-161.361 545.734,-106.816 412.283,-86.1117"/>
<polygon fill="midnightblue" stroke="midnightblue" points="1022.94,-184.395 1033.35,-182.47 1024.01,-177.478 1022.94,-184.395"/>
</g>
<!-- Node28 -->
<g id="node28" class="node"><title>Node28</title>
<g id="a_node28"><a xlink:href="quartic_8cpp.html" target="_top" xlink:title="Implementation of quartic.hpp. ">
<polygon fill="none" stroke="black" points="1085.5,-123.5 1085.5,-142.5 1156.5,-142.5 1156.5,-123.5 1085.5,-123.5"/>
<text text-anchor="middle" x="1121" y="-130.5" font-family="Helvetica,sans-Serif" font-size="10.00">quartic.cpp</text>
</a>
</g>
</g>
<!-- Node1&#45;&gt;Node28 -->
<g id="edge35" class="edge"><title>Node1&#45;&gt;Node28</title>
<path fill="none" stroke="midnightblue" d="M1084.68,-171.718C1093.84,-162.2 1105.05,-150.561 1112.57,-142.751"/>
<polygon fill="midnightblue" stroke="midnightblue" points="1082,-169.452 1077.59,-179.083 1087.04,-174.308 1082,-169.452"/>
</g>
<!-- Node29 -->
<g id="node29" class="node"><title>Node29</title>
<g id="a_node29"><a xlink:href="quartic__tcl_8cpp.html" target="_top" xlink:title="Implementation of quartic_tcl.hpp. ">
<polygon fill="none" stroke="black" points="1175,-123.5 1175,-142.5 1263,-142.5 1263,-123.5 1175,-123.5"/>
<text text-anchor="middle" x="1219" y="-130.5" font-family="Helvetica,sans-Serif" font-size="10.00">quartic_tcl.cpp</text>
</a>
</g>
</g>
<!-- Node1&#45;&gt;Node29 -->
<g id="edge36" class="edge"><title>Node1&#45;&gt;Node29</title>
<path fill="none" stroke="midnightblue" d="M1102.22,-176.039C1130.45,-165.879 1170.26,-151.546 1195.34,-142.516"/>
<polygon fill="midnightblue" stroke="midnightblue" points="1100.99,-172.763 1092.77,-179.444 1103.36,-179.349 1100.99,-172.763"/>
</g>
<!-- Node3 -->
<g id="node3" class="node"><title>Node3</title>
<g id="a_node3"><a xlink:href="pressure_8hpp.html" target="_top" xlink:title="Pressure calculation. ">
<polygon fill="none" stroke="black" points="977,-67.5 977,-86.5 1057,-86.5 1057,-67.5 977,-67.5"/>
<text text-anchor="middle" x="1017" y="-74.5" font-family="Helvetica,sans-Serif" font-size="10.00">pressure.hpp</text>
</a>
</g>
</g>
<!-- Node2&#45;&gt;Node3 -->
<g id="edge2" class="edge"><title>Node2&#45;&gt;Node3</title>
<path fill="none" stroke="midnightblue" d="M1017,-112.805C1017,-103.91 1017,-93.7798 1017,-86.7511"/>
<polygon fill="midnightblue" stroke="midnightblue" points="1013.5,-113.083 1017,-123.083 1020.5,-113.083 1013.5,-113.083"/>
</g>
<!-- Node11 -->
<g id="node11" class="node"><title>Node11</title>
<g id="a_node11"><a xlink:href="layered_8cpp.html" target="_top" xlink:title="Implementation of layered.h. ">
<polygon fill="none" stroke="black" points="192,-6 192,-25 266,-25 266,-6 192,-6"/>
<text text-anchor="middle" x="229" y="-13" font-family="Helvetica,sans-Serif" font-size="10.00">layered.cpp</text>
</a>
</g>
</g>
<!-- Node2&#45;&gt;Node11 -->
<g id="edge27" class="edge"><title>Node2&#45;&gt;Node11</title>
<path fill="none" stroke="midnightblue" d="M956.683,-127.292C829.481,-116.599 524.876,-86.9619 275,-31 267.973,-29.4262 260.476,-27.2734 253.618,-25.1083"/>
<polygon fill="midnightblue" stroke="midnightblue" points="956.73,-130.808 966.986,-128.149 957.31,-123.832 956.73,-130.808"/>
</g>
<!-- Node20 -->
<g id="node20" class="node"><title>Node20</title>
<g id="a_node20"><a xlink:href="minimize__energy_8hpp.html" target="_top" xlink:title="minimize_energy.hpp">
<polygon fill="none" stroke="black" points="1863.5,-67.5 1863.5,-86.5 1984.5,-86.5 1984.5,-67.5 1863.5,-67.5"/>
<text text-anchor="middle" x="1924" y="-74.5" font-family="Helvetica,sans-Serif" font-size="10.00">minimize_energy.hpp</text>
</a>
</g>
</g>
<!-- Node2&#45;&gt;Node20 -->
<g id="edge19" class="edge"><title>Node2&#45;&gt;Node20</title>
<path fill="none" stroke="midnightblue" d="M1076.7,-123.031C1076.8,-123.021 1076.9,-123.01 1077,-123 1370.74,-93.2352 1723.92,-82.4908 1863.25,-79.2311"/>
<polygon fill="midnightblue" stroke="midnightblue" points="1076.59,-119.521 1067.05,-124.127 1077.38,-126.476 1076.59,-119.521"/>
</g>
<!-- Node23 -->
<g id="node23" class="node"><title>Node23</title>
<g id="a_node23"><a xlink:href="constraint_8cpp.html" target="_top" xlink:title="Implementation of constraint.hpp, here it&#39;s just the parsing stuff. ">
<polygon fill="none" stroke="black" points="0,-6 0,-25 86,-25 86,-6 0,-6"/>
<text text-anchor="middle" x="43" y="-13" font-family="Helvetica,sans-Serif" font-size="10.00">constraint.cpp</text>
</a>
</g>
</g>
<!-- Node2&#45;&gt;Node23 -->
<g id="edge24" class="edge"><title>Node2&#45;&gt;Node23</title>
<path fill="none" stroke="midnightblue" d="M956.939,-132.379C833.035,-132.254 540.452,-127.267 299,-87 212.15,-72.5159 112.393,-40.4006 67.3337,-25.0257"/>
<polygon fill="midnightblue" stroke="midnightblue" points="956.984,-135.879 966.984,-132.379 956.983,-128.879 956.984,-135.879"/>
</g>
<!-- Node24 -->
<g id="node24" class="node"><title>Node24</title>
<g id="a_node24"><a xlink:href="forces_8cpp.html" target="_top" xlink:title="Force calculation. ">
<polygon fill="none" stroke="black" points="1075.5,-67.5 1075.5,-86.5 1142.5,-86.5 1142.5,-67.5 1075.5,-67.5"/>
<text text-anchor="middle" x="1109" y="-74.5" font-family="Helvetica,sans-Serif" font-size="10.00">forces.cpp</text>
</a>
</g>
</g>
<!-- Node2&#45;&gt;Node24 -->
<g id="edge25" class="edge"><title>Node2&#45;&gt;Node24</title>
<path fill="none" stroke="midnightblue" d="M1040.55,-118.177C1057.48,-108.241 1079.78,-95.1492 1094.26,-86.6545"/>
<polygon fill="midnightblue" stroke="midnightblue" points="1038.63,-115.243 1031.78,-123.324 1042.18,-121.28 1038.63,-115.243"/>
</g>
<!-- Node25 -->
<g id="node25" class="node"><title>Node25</title>
<g id="a_node25"><a xlink:href="ghosts_8cpp.html" target="_top" xlink:title="Ghost particles and particle exchange. ">
<polygon fill="none" stroke="black" points="1160.5,-67.5 1160.5,-86.5 1229.5,-86.5 1229.5,-67.5 1160.5,-67.5"/>
<text text-anchor="middle" x="1195" y="-74.5" font-family="Helvetica,sans-Serif" font-size="10.00">ghosts.cpp</text>
</a>
</g>
</g>
<!-- Node2&#45;&gt;Node25 -->
<g id="edge26" class="edge"><title>Node2&#45;&gt;Node25</title>
<path fill="none" stroke="midnightblue" d="M1055.12,-120.436C1088.68,-110.255 1136.77,-95.664 1166.93,-86.5164"/>
<polygon fill="midnightblue" stroke="midnightblue" points="1053.76,-117.191 1045.2,-123.444 1055.79,-123.89 1053.76,-117.191"/>
</g>
<!-- Node4 -->
<g id="node4" class="node"><title>Node4</title>
<g id="a_node4"><a xlink:href="communication_8cpp.html" target="_top" xlink:title="communication.cpp">
<polygon fill="none" stroke="black" points="1867.5,-6 1867.5,-25 1980.5,-25 1980.5,-6 1867.5,-6"/>
<text text-anchor="middle" x="1924" y="-13" font-family="Helvetica,sans-Serif" font-size="10.00">communication.cpp</text>
</a>
</g>
</g>
<!-- Node3&#45;&gt;Node4 -->
<g id="edge3" class="edge"><title>Node3&#45;&gt;Node4</title>
<path fill="none" stroke="midnightblue" d="M1066.7,-67.0344C1066.8,-67.0228 1066.9,-67.0114 1067,-67 1417.17,-27.7025 1509.72,-77.5353 1859,-31 1869.43,-29.6105 1880.66,-27.3766 1890.8,-25.0743"/>
<polygon fill="midnightblue" stroke="midnightblue" points="1066.5,-63.5292 1057.05,-68.3087 1067.42,-70.4689 1066.5,-63.5292"/>
</g>
<!-- Node5 -->
<g id="node5" class="node"><title>Node5</title>
<g id="a_node5"><a xlink:href="domain__decomposition_8cpp.html" target="_top" xlink:title="This file contains everything related to the cell system: domain decomposition. ">
<polygon fill="none" stroke="black" points="284.5,-6 284.5,-25 435.5,-25 435.5,-6 284.5,-6"/>
<text text-anchor="middle" x="360" y="-13" font-family="Helvetica,sans-Serif" font-size="10.00">domain_decomposition.cpp</text>
</a>
</g>
</g>
<!-- Node3&#45;&gt;Node5 -->
<g id="edge4" class="edge"><title>Node3&#45;&gt;Node5</title>
<path fill="none" stroke="midnightblue" d="M966.917,-73.5865C867.256,-68.4471 637.138,-54.8964 445,-31 432.076,-29.3926 418.119,-27.203 405.324,-25.0127"/>
<polygon fill="midnightblue" stroke="midnightblue" points="966.835,-77.0868 977,-74.1006 967.191,-70.0959 966.835,-77.0868"/>
</g>
<!-- Node6 -->
<g id="node6" class="node"><title>Node6</title>
<g id="a_node6"><a xlink:href="elc_8cpp.html" target="_top" xlink:title="For more information about ELC, see elc.hpp. ">
<polygon fill="none" stroke="black" points="1157.5,-6 1157.5,-25 1208.5,-25 1208.5,-6 1157.5,-6"/>
<text text-anchor="middle" x="1183" y="-13" font-family="Helvetica,sans-Serif" font-size="10.00">elc.cpp</text>
</a>
</g>
</g>
<!-- Node3&#45;&gt;Node6 -->
<g id="edge5" class="edge"><title>Node3&#45;&gt;Node6</title>
<path fill="none" stroke="midnightblue" d="M1053.69,-64.307C1080.32,-55.6212 1117.12,-43.2113 1149,-31 1153.79,-29.1635 1158.91,-27.0588 1163.68,-25.0329"/>
<polygon fill="midnightblue" stroke="midnightblue" points="1052.44,-61.0315 1044.01,-67.4455 1054.6,-67.6901 1052.44,-61.0315"/>
</g>
<!-- Node7 -->
<g id="node7" class="node"><title>Node7</title>
<g id="a_node7"><a xlink:href="initialize_8cpp.html" target="_top" xlink:title="Implementation of initialize.hpp. ">
<polygon fill="none" stroke="black" points="1226.5,-6 1226.5,-25 1305.5,-25 1305.5,-6 1226.5,-6"/>
<text text-anchor="middle" x="1266" y="-13" font-family="Helvetica,sans-Serif" font-size="10.00">initialize.cpp</text>
</a>
</g>
</g>
<!-- Node3&#45;&gt;Node7 -->
<g id="edge6" class="edge"><title>Node3&#45;&gt;Node7</title>
<path fill="none" stroke="midnightblue" d="M1067.22,-65.8214C1108.03,-57.2949 1166.98,-44.3971 1218,-31 1224.82,-29.209 1232.13,-27.0998 1238.94,-25.0529"/>
<polygon fill="midnightblue" stroke="midnightblue" points="1066.33,-62.4314 1057.25,-67.8926 1067.75,-69.285 1066.33,-62.4314"/>
</g>
<!-- Node8 -->
<g id="node8" class="node"><title>Node8</title>
<g id="a_node8"><a xlink:href="core_2integrate_8cpp.html" target="_top" xlink:title="integrate.cpp">
<polygon fill="none" stroke="black" points="1768.5,-6 1768.5,-25 1849.5,-25 1849.5,-6 1768.5,-6"/>
<text text-anchor="middle" x="1809" y="-13" font-family="Helvetica,sans-Serif" font-size="10.00">integrate.cpp</text>
</a>
</g>
</g>
<!-- Node3&#45;&gt;Node8 -->
<g id="edge7" class="edge"><title>Node3&#45;&gt;Node8</title>
<path fill="none" stroke="midnightblue" d="M1066.7,-67.0353C1066.8,-67.0235 1066.9,-67.0117 1067,-67 1373.38,-31.6112 1456.02,-83.1191 1760,-31 1768.04,-29.6207 1776.64,-27.3601 1784.34,-25.0298"/>
<polygon fill="midnightblue" stroke="midnightblue" points="1066.5,-63.5307 1057.05,-68.3318 1067.43,-70.4683 1066.5,-63.5307"/>
</g>
<!-- Node9 -->
<g id="node9" class="node"><title>Node9</title>
<g id="a_node9"><a xlink:href="integrate__sd_8cpp.html" target="_top" xlink:title="Stokesian dynamics integrator. ">
<polygon fill="none" stroke="black" points="1323,-6 1323,-25 1421,-25 1421,-6 1323,-6"/>
<text text-anchor="middle" x="1372" y="-13" font-family="Helvetica,sans-Serif" font-size="10.00">integrate_sd.cpp</text>
</a>
</g>
</g>
<!-- Node3&#45;&gt;Node9 -->
<g id="edge8" class="edge"><title>Node3&#45;&gt;Node9</title>
<path fill="none" stroke="midnightblue" d="M1066.7,-67.0492C1066.8,-67.0328 1066.9,-67.0164 1067,-67 1176.93,-49.132 1205.77,-52.7591 1315,-31 1323.41,-29.3243 1332.44,-27.1871 1340.78,-25.0717"/>
<polygon fill="midnightblue" stroke="midnightblue" points="1066.38,-63.5535 1057.1,-68.6591 1067.54,-70.4571 1066.38,-63.5535"/>
</g>
<!-- Node10 -->
<g id="node10" class="node"><title>Node10</title>
<g id="a_node10"><a xlink:href="interaction__data_8cpp.html" target="_top" xlink:title="Implementation of interaction_data.hpp. ">
<polygon fill="none" stroke="black" points="1439,-6 1439,-25 1555,-25 1555,-6 1439,-6"/>
<text text-anchor="middle" x="1497" y="-13" font-family="Helvetica,sans-Serif" font-size="10.00">interaction_data.cpp</text>
</a>
</g>
</g>
<!-- Node3&#45;&gt;Node10 -->
<g id="edge9" class="edge"><title>Node3&#45;&gt;Node10</title>
<path fill="none" stroke="midnightblue" d="M1066.7,-67.0424C1066.8,-67.0282 1066.9,-67.0141 1067,-67 1227.57,-44.622 1269.84,-56.1875 1430,-31 1440.23,-29.3914 1451.24,-27.2015 1461.33,-25.0112"/>
<polygon fill="midnightblue" stroke="midnightblue" points="1066.44,-63.5419 1057.07,-68.4986 1067.48,-70.4631 1066.44,-63.5419"/>
</g>
<!-- Node3&#45;&gt;Node11 -->
<g id="edge10" class="edge"><title>Node3&#45;&gt;Node11</title>
<path fill="none" stroke="midnightblue" d="M966.634,-74.5512C822.167,-70.1409 408.244,-55.6548 275,-31 267.425,-29.5984 259.354,-27.3315 252.121,-25.0022"/>
<polygon fill="midnightblue" stroke="midnightblue" points="966.863,-78.0596 976.965,-74.8634 967.075,-71.0628 966.863,-78.0596"/>
</g>
<!-- Node12 -->
<g id="node12" class="node"><title>Node12</title>
<g id="a_node12"><a xlink:href="nsquare_8cpp.html" target="_top" xlink:title="Implementation of nsquare.h. ">
<polygon fill="none" stroke="black" points="454,-6 454,-25 530,-25 530,-6 454,-6"/>
<text text-anchor="middle" x="492" y="-13" font-family="Helvetica,sans-Serif" font-size="10.00">nsquare.cpp</text>
</a>
</g>
</g>
<!-- Node3&#45;&gt;Node12 -->
<g id="edge11" class="edge"><title>Node3&#45;&gt;Node12</title>
<path fill="none" stroke="midnightblue" d="M966.75,-74.6564C879.114,-71.5629 692.967,-61.6591 539,-31 531.63,-29.5325 523.773,-27.3605 516.635,-25.1418"/>
<polygon fill="midnightblue" stroke="midnightblue" points="966.828,-78.1609 976.941,-75.0008 967.065,-71.1649 966.828,-78.1609"/>
</g>
<!-- Node13 -->
<g id="node13" class="node"><title>Node13</title>
<g id="a_node13"><a xlink:href="pressure_8cpp.html" target="_top" xlink:title="Implementation of pressure.h. ">
<polygon fill="none" stroke="black" points="1572.5,-6 1572.5,-25 1651.5,-25 1651.5,-6 1572.5,-6"/>
<text text-anchor="middle" x="1612" y="-13" font-family="Helvetica,sans-Serif" font-size="10.00">pressure.cpp</text>
</a>
</g>
</g>
<!-- Node3&#45;&gt;Node13 -->
<g id="edge12" class="edge"><title>Node3&#45;&gt;Node13</title>
<path fill="none" stroke="midnightblue" d="M1066.7,-67.0384C1066.8,-67.0255 1066.9,-67.0127 1067,-67 1286.73,-39.3445 1346.22,-71.2674 1564,-31 1571.7,-29.5755 1579.92,-27.3604 1587.34,-25.0868"/>
<polygon fill="midnightblue" stroke="midnightblue" points="1066.47,-63.5354 1057.06,-68.4044 1067.45,-70.4662 1066.47,-63.5354"/>
</g>
<!-- Node14 -->
<g id="node14" class="node"><title>Node14</title>
<g id="a_node14"><a xlink:href="statistics_8cpp.html" target="_top" xlink:title="This is the place for analysis (so far...). ">
<polygon fill="none" stroke="black" points="1669.5,-6 1669.5,-25 1750.5,-25 1750.5,-6 1669.5,-6"/>
<text text-anchor="middle" x="1710" y="-13" font-family="Helvetica,sans-Serif" font-size="10.00">statistics.cpp</text>
</a>
</g>
</g>
<!-- Node3&#45;&gt;Node14 -->
<g id="edge13" class="edge"><title>Node3&#45;&gt;Node14</title>
<path fill="none" stroke="midnightblue" d="M1066.7,-67.0366C1066.8,-67.0244 1066.9,-67.0121 1067,-67 1329.6,-35.5185 1400.51,-76.8197 1661,-31 1668.95,-29.6014 1677.44,-27.3649 1685.08,-25.063"/>
<polygon fill="midnightblue" stroke="midnightblue" points="1066.48,-63.5327 1057.05,-68.3625 1067.44,-70.4674 1066.48,-63.5327"/>
</g>
<!-- Node15 -->
<g id="node15" class="node"><title>Node15</title>
<g id="a_node15"><a xlink:href="statistics__observable_8cpp.html" target="_top" xlink:title="statistics_observable.cpp">
<polygon fill="none" stroke="black" points="632,-6 632,-25 772,-25 772,-6 632,-6"/>
<text text-anchor="middle" x="702" y="-13" font-family="Helvetica,sans-Serif" font-size="10.00">statistics_observable.cpp</text>
</a>
</g>
</g>
<!-- Node3&#45;&gt;Node15 -->
<g id="edge14" class="edge"><title>Node3&#45;&gt;Node15</title>
<path fill="none" stroke="midnightblue" d="M966.688,-66.4967C906.09,-55.0503 805.209,-35.995 747.058,-25.0109"/>
<polygon fill="midnightblue" stroke="midnightblue" points="966.309,-69.9869 976.785,-68.4038 967.608,-63.1085 966.309,-69.9869"/>
</g>
<!-- Node16 -->
<g id="node16" class="node"><title>Node16</title>
<g id="a_node16"><a xlink:href="verlet_8cpp.html" target="_top" xlink:title="Verlet list. ">
<polygon fill="none" stroke="black" points="548.5,-6 548.5,-25 613.5,-25 613.5,-6 548.5,-6"/>
<text text-anchor="middle" x="581" y="-13" font-family="Helvetica,sans-Serif" font-size="10.00">verlet.cpp</text>
</a>
</g>
</g>
<!-- Node3&#45;&gt;Node16 -->
<g id="edge15" class="edge"><title>Node3&#45;&gt;Node16</title>
<path fill="none" stroke="midnightblue" d="M966.639,-73.7737C891.144,-69.6468 744.518,-58.5661 623,-31 616.38,-29.4982 609.348,-27.3156 602.97,-25.0975"/>
<polygon fill="midnightblue" stroke="midnightblue" points="966.639,-77.2784 976.81,-74.3108 967.008,-70.2882 966.639,-77.2784"/>
</g>
<!-- Node17 -->
<g id="node17" class="node"><title>Node17</title>
<g id="a_node17"><a xlink:href="virtual__sites_8cpp.html" target="_top" xlink:title="virtual_sites.cpp">
<polygon fill="none" stroke="black" points="790.5,-6 790.5,-25 887.5,-25 887.5,-6 790.5,-6"/>
<text text-anchor="middle" x="839" y="-13" font-family="Helvetica,sans-Serif" font-size="10.00">virtual_sites.cpp</text>
</a>
</g>
</g>
<!-- Node3&#45;&gt;Node17 -->
<g id="edge16" class="edge"><title>Node3&#45;&gt;Node17</title>
<path fill="none" stroke="midnightblue" d="M981.795,-64.232C947.194,-52.666 895.232,-35.2966 864.456,-25.0091"/>
<polygon fill="midnightblue" stroke="midnightblue" points="980.903,-67.6242 991.497,-67.4751 983.122,-60.9853 980.903,-67.6242"/>
</g>
<!-- Node18 -->
<g id="node18" class="node"><title>Node18</title>
<g id="a_node18"><a xlink:href="pressure__tcl_8cpp.html" target="_top" xlink:title="pressure_tcl.cpp">
<polygon fill="none" stroke="black" points="906,-6 906,-25 1002,-25 1002,-6 906,-6"/>
<text text-anchor="middle" x="954" y="-13" font-family="Helvetica,sans-Serif" font-size="10.00">pressure_tcl.cpp</text>
</a>
</g>
</g>
<!-- Node3&#45;&gt;Node18 -->
<g id="edge17" class="edge"><title>Node3&#45;&gt;Node18</title>
<path fill="none" stroke="midnightblue" d="M1000.4,-60.3245C988.433,-49.0202 972.734,-34.1928 963.01,-25.0091"/>
<polygon fill="midnightblue" stroke="midnightblue" points="998.3,-63.1534 1007.97,-67.4751 1003.11,-58.0643 998.3,-63.1534"/>
</g>
<!-- Node19 -->
<g id="node19" class="node"><title>Node19</title>
<g id="a_node19"><a xlink:href="statistics__observable__tcl_8cpp.html" target="_top" xlink:title="statistics_observable\l_tcl.cpp">
<polygon fill="none" stroke="black" points="1020,-0.5 1020,-30.5 1140,-30.5 1140,-0.5 1020,-0.5"/>
<text text-anchor="start" x="1028" y="-18.5" font-family="Helvetica,sans-Serif" font-size="10.00">statistics_observable</text>
<text text-anchor="middle" x="1080" y="-7.5" font-family="Helvetica,sans-Serif" font-size="10.00">_tcl.cpp</text>
</a>
</g>
</g>
<!-- Node3&#45;&gt;Node19 -->
<g id="edge18" class="edge"><title>Node3&#45;&gt;Node19</title>
<path fill="none" stroke="midnightblue" d="M1033.55,-60.369C1043.35,-51.1127 1055.67,-39.4824 1065.15,-30.523"/>
<polygon fill="midnightblue" stroke="midnightblue" points="1030.89,-58.0643 1026.03,-67.4751 1035.7,-63.1534 1030.89,-58.0643"/>
</g>
<!-- Node20&#45;&gt;Node4 -->
<g id="edge20" class="edge"><title>Node20&#45;&gt;Node4</title>
<path fill="none" stroke="midnightblue" d="M1924,-57.3165C1924,-46.4962 1924,-33.398 1924,-25.0091"/>
<polygon fill="midnightblue" stroke="midnightblue" points="1920.5,-57.4751 1924,-67.4751 1927.5,-57.4751 1920.5,-57.4751"/>
</g>
<!-- Node20&#45;&gt;Node8 -->
<g id="edge21" class="edge"><title>Node20&#45;&gt;Node8</title>
<path fill="none" stroke="midnightblue" d="M1898.62,-62.8665C1876.33,-51.3347 1844.56,-34.8992 1825.45,-25.0091"/>
<polygon fill="midnightblue" stroke="midnightblue" points="1897.03,-65.9883 1907.52,-67.4751 1900.25,-59.7712 1897.03,-65.9883"/>
</g>
<!-- Node21 -->
<g id="node21" class="node"><title>Node21</title>
<g id="a_node21"><a xlink:href="minimize__energy_8cpp.html" target="_top" xlink:title="minimize_energy.cpp">
<polygon fill="none" stroke="black" points="1999,-6 1999,-25 2119,-25 2119,-6 1999,-6"/>
<text text-anchor="middle" x="2059" y="-13" font-family="Helvetica,sans-Serif" font-size="10.00">minimize_energy.cpp</text>
</a>
</g>
</g>
<!-- Node20&#45;&gt;Node21 -->
<g id="edge22" class="edge"><title>Node20&#45;&gt;Node21</title>
<path fill="none" stroke="midnightblue" d="M1952.75,-63.3272C1978.96,-51.7761 2016.95,-35.0316 2039.69,-25.0091"/>
<polygon fill="midnightblue" stroke="midnightblue" points="1951.08,-60.2392 1943.34,-67.4751 1953.9,-66.6447 1951.08,-60.2392"/>
</g>
<!-- Node22 -->
<g id="node22" class="node"><title>Node22</title>
<g id="a_node22"><a xlink:href="minimize__energy__tcl_8cpp.html" target="_top" xlink:title="minimize_energy_tcl.cpp">
<polygon fill="none" stroke="black" points="2137.5,-6 2137.5,-25 2276.5,-25 2276.5,-6 2137.5,-6"/>
<text text-anchor="middle" x="2207" y="-13" font-family="Helvetica,sans-Serif" font-size="10.00">minimize_energy_tcl.cpp</text>
</a>
</g>
</g>
<!-- Node20&#45;&gt;Node22 -->
<g id="edge23" class="edge"><title>Node20&#45;&gt;Node22</title>
<path fill="none" stroke="midnightblue" d="M1974.41,-65.4023C2029.27,-53.8671 2115.92,-35.6498 2166.53,-25.0091"/>
<polygon fill="midnightblue" stroke="midnightblue" points="1973.61,-61.9924 1964.55,-67.4751 1975.05,-68.8426 1973.61,-61.9924"/>
</g>
<!-- Node26&#45;&gt;Node5 -->
<g id="edge30" class="edge"><title>Node26&#45;&gt;Node5</title>
<path fill="none" stroke="midnightblue" d="M360,-57.3165C360,-46.4962 360,-33.398 360,-25.0091"/>
<polygon fill="midnightblue" stroke="midnightblue" points="356.5,-57.4751 360,-67.4751 363.5,-57.4751 356.5,-57.4751"/>
</g>
<!-- Node26&#45;&gt;Node11 -->
<g id="edge32" class="edge"><title>Node26&#45;&gt;Node11</title>
<path fill="none" stroke="midnightblue" d="M332.098,-63.3272C306.667,-51.7761 269.801,-35.0316 247.734,-25.0091"/>
<polygon fill="midnightblue" stroke="midnightblue" points="330.679,-66.5263 341.231,-67.4751 333.573,-60.1529 330.679,-66.5263"/>
</g>
<!-- Node26&#45;&gt;Node12 -->
<g id="edge33" class="edge"><title>Node26&#45;&gt;Node12</title>
<path fill="none" stroke="midnightblue" d="M388.115,-63.3272C413.74,-51.7761 450.888,-35.0316 473.123,-25.0091"/>
<polygon fill="midnightblue" stroke="midnightblue" points="386.591,-60.1748 378.912,-67.4751 389.467,-66.5565 386.591,-60.1748"/>
</g>
<!-- Node26&#45;&gt;Node16 -->
<g id="edge34" class="edge"><title>Node26&#45;&gt;Node16</title>
<path fill="none" stroke="midnightblue" d="M407.784,-65.1698C444.016,-56.6726 494.927,-44.1212 539,-31 544.915,-29.2391 551.234,-27.1628 557.128,-25.1401"/>
<polygon fill="midnightblue" stroke="midnightblue" points="406.917,-61.778 397.972,-67.456 408.505,-68.5954 406.917,-61.778"/>
</g>
<!-- Node26&#45;&gt;Node23 -->
<g id="edge29" class="edge"><title>Node26&#45;&gt;Node23</title>
<path fill="none" stroke="midnightblue" d="M297.803,-67.3025C243.873,-59.3177 163.88,-46.4082 95,-31 87.3172,-29.2814 79.0777,-27.1295 71.4738,-25.0136"/>
<polygon fill="midnightblue" stroke="midnightblue" points="297.493,-70.7944 307.896,-68.7843 298.51,-63.8686 297.493,-70.7944"/>
</g>
<!-- Node27 -->
<g id="node27" class="node"><title>Node27</title>
<g id="a_node27"><a xlink:href="energy_8cpp.html" target="_top" xlink:title="Implementation of energy.hpp. ">
<polygon fill="none" stroke="black" points="104.5,-6 104.5,-25 173.5,-25 173.5,-6 104.5,-6"/>
<text text-anchor="middle" x="139" y="-13" font-family="Helvetica,sans-Serif" font-size="10.00">energy.cpp</text>
</a>
</g>
</g>
<!-- Node26&#45;&gt;Node27 -->
<g id="edge31" class="edge"><title>Node26&#45;&gt;Node27</title>
<path fill="none" stroke="midnightblue" d="M313.031,-64.999C277.221,-56.3846 226.774,-43.7605 183,-31 176.823,-29.1993 170.209,-27.108 164.036,-25.0836"/>
<polygon fill="midnightblue" stroke="midnightblue" points="312.648,-68.5059 323.188,-67.4291 314.277,-61.6981 312.648,-68.5059"/>
</g>
</g>
</svg>
