<?xml version="1.0" encoding="UTF-8" standalone="no"?>
<!DOCTYPE svg PUBLIC "-//W3C//DTD SVG 1.1//EN"
 "http://www.w3.org/Graphics/SVG/1.1/DTD/svg11.dtd">
<!-- Generated by graphviz version 2.38.0 (20140413.2041)
 -->
<!-- Title: random_tcl.cpp Pages: 1 -->
<svg width="988pt" height="364pt"
 viewBox="0.00 0.00 987.50 364.00" xmlns="http://www.w3.org/2000/svg" xmlns:xlink="http://www.w3.org/1999/xlink">
<g id="graph0" class="graph" transform="scale(1 1) rotate(0) translate(4 360)">
<title>random_tcl.cpp</title>
<!-- Node1 -->
<g id="node1" class="node"><title>Node1</title>
<polygon fill="#bfbfbf" stroke="black" points="176,-336.5 176,-355.5 268,-355.5 268,-336.5 176,-336.5"/>
<text text-anchor="middle" x="222" y="-343.5" font-family="Helvetica,sans-Serif" font-size="10.00">random_tcl.cpp</text>
</g>
<!-- Node2 -->
<g id="node2" class="node"><title>Node2</title>
<polygon fill="none" stroke="#bfbfbf" points="0,-112.5 0,-131.5 46,-131.5 46,-112.5 0,-112.5"/>
<text text-anchor="middle" x="23" y="-119.5" font-family="Helvetica,sans-Serif" font-size="10.00">cstdio</text>
</g>
<!-- Node1&#45;&gt;Node2 -->
<g id="edge1" class="edge"><title>Node1&#45;&gt;Node2</title>
<path fill="none" stroke="midnightblue" d="M208.334,-336.267C195.625,-327.806 176.522,-314.203 162,-300 108.102,-247.286 56.4865,-173.482 34.3323,-140.327"/>
<polygon fill="midnightblue" stroke="midnightblue" points="37.0972,-138.163 28.6589,-131.756 31.2601,-142.027 37.0972,-138.163"/>
</g>
<!-- Node3 -->
<g id="node3" class="node"><title>Node3</title>
<polygon fill="none" stroke="#bfbfbf" points="64.5,-112.5 64.5,-131.5 113.5,-131.5 113.5,-112.5 64.5,-112.5"/>
<text text-anchor="middle" x="89" y="-119.5" font-family="Helvetica,sans-Serif" font-size="10.00">cstdlib</text>
</g>
<!-- Node1&#45;&gt;Node3 -->
<g id="edge2" class="edge"><title>Node1&#45;&gt;Node3</title>
<path fill="none" stroke="midnightblue" d="M212.26,-336.389C202.938,-327.806 188.872,-313.93 179,-300 140.869,-246.195 109.47,-173.967 96.034,-140.894"/>
<polygon fill="midnightblue" stroke="midnightblue" points="99.2816,-139.589 92.3171,-131.604 92.7825,-142.189 99.2816,-139.589"/>
</g>
<!-- Node4 -->
<g id="node4" class="node"><title>Node4</title>
<polygon fill="none" stroke="#bfbfbf" points="132,-112.5 132,-131.5 182,-131.5 182,-112.5 132,-112.5"/>
<text text-anchor="middle" x="157" y="-119.5" font-family="Helvetica,sans-Serif" font-size="10.00">cstring</text>
</g>
<!-- Node1&#45;&gt;Node4 -->
<g id="edge3" class="edge"><title>Node1&#45;&gt;Node4</title>
<path fill="none" stroke="midnightblue" d="M215.798,-336.34C204.108,-319.501 179.004,-280.764 168,-244 157.552,-209.094 156.196,-166.205 156.418,-141.997"/>
<polygon fill="midnightblue" stroke="midnightblue" points="159.923,-141.798 156.622,-131.731 152.924,-141.66 159.923,-141.798"/>
</g>
<!-- Node5 -->
<g id="node5" class="node"><title>Node5</title>
<g id="a_node5"><a xlink:href="utils_8hpp.html" target="_top" xlink:title="Small functions that are useful not only for one modul. ">
<polygon fill="none" stroke="black" points="355.5,-168.5 355.5,-187.5 414.5,-187.5 414.5,-168.5 355.5,-168.5"/>
<text text-anchor="middle" x="385" y="-175.5" font-family="Helvetica,sans-Serif" font-size="10.00">utils.hpp</text>
</a>
</g>
</g>
<!-- Node1&#45;&gt;Node5 -->
<g id="edge4" class="edge"><title>Node1&#45;&gt;Node5</title>
<path fill="none" stroke="midnightblue" d="M241.848,-336.461C257.966,-328.759 280.49,-316.167 296,-300 322.717,-272.151 314.46,-254.582 338,-224 346.42,-213.06 357.512,-202.311 366.805,-194.063"/>
<polygon fill="midnightblue" stroke="midnightblue" points="369.109,-196.697 374.397,-187.516 364.538,-191.396 369.109,-196.697"/>
</g>
<!-- Node19 -->
<g id="node19" class="node"><title>Node19</title>
<g id="a_node19"><a xlink:href="random_8hpp.html" target="_top" xlink:title="A random generator. ">
<polygon fill="none" stroke="black" points="347.5,-224.5 347.5,-243.5 422.5,-243.5 422.5,-224.5 347.5,-224.5"/>
<text text-anchor="middle" x="385" y="-231.5" font-family="Helvetica,sans-Serif" font-size="10.00">random.hpp</text>
</a>
</g>
</g>
<!-- Node1&#45;&gt;Node19 -->
<g id="edge24" class="edge"><title>Node1&#45;&gt;Node19</title>
<path fill="none" stroke="midnightblue" d="M255.342,-336.372C278.651,-329.227 309.66,-317.4 333,-300 350.488,-286.963 365.431,-266.703 374.75,-252.27"/>
<polygon fill="midnightblue" stroke="midnightblue" points="377.732,-254.103 380.033,-243.761 371.785,-250.411 377.732,-254.103"/>
</g>
<!-- Node20 -->
<g id="node20" class="node"><title>Node20</title>
<g id="a_node20"><a xlink:href="parser_8hpp.html" target="_top" xlink:title="This file contains macros for parsing the parameters to the &#39;inter&#39; command. ">
<polygon fill="none" stroke="black" points="219,-280.5 219,-299.5 287,-299.5 287,-280.5 219,-280.5"/>
<text text-anchor="middle" x="253" y="-287.5" font-family="Helvetica,sans-Serif" font-size="10.00">parser.hpp</text>
</a>
</g>
</g>
<!-- Node1&#45;&gt;Node20 -->
<g id="edge26" class="edge"><title>Node1&#45;&gt;Node20</title>
<path fill="none" stroke="midnightblue" d="M227.119,-336.083C231.408,-328.613 237.658,-317.724 242.942,-308.52"/>
<polygon fill="midnightblue" stroke="midnightblue" points="246.033,-310.166 247.976,-299.751 239.962,-306.681 246.033,-310.166"/>
</g>
<!-- Node21 -->
<g id="node21" class="node"><title>Node21</title>
<polygon fill="none" stroke="#bfbfbf" points="177,-224.5 177,-243.5 215,-243.5 215,-224.5 177,-224.5"/>
<text text-anchor="middle" x="196" y="-231.5" font-family="Helvetica,sans-Serif" font-size="10.00">tcl.h</text>
</g>
<!-- Node1&#45;&gt;Node21 -->
<g id="edge30" class="edge"><title>Node1&#45;&gt;Node21</title>
<path fill="none" stroke="midnightblue" d="M219.575,-336.405C217.058,-327.372 213.067,-312.734 210,-300 206.278,-284.55 202.511,-266.919 199.823,-253.921"/>
<polygon fill="midnightblue" stroke="midnightblue" points="203.199,-252.959 197.767,-243.862 196.34,-254.361 203.199,-252.959"/>
</g>
<!-- Node22 -->
<g id="node22" class="node"><title>Node22</title>
<g id="a_node22"><a xlink:href="communication_8hpp.html" target="_top" xlink:title="This file contains the asynchronous MPI communication. ">
<polygon fill="none" stroke="black" points="477.5,-280.5 477.5,-299.5 590.5,-299.5 590.5,-280.5 477.5,-280.5"/>
<text text-anchor="middle" x="534" y="-287.5" font-family="Helvetica,sans-Serif" font-size="10.00">communication.hpp</text>
</a>
</g>
</g>
<!-- Node1&#45;&gt;Node22 -->
<g id="edge31" class="edge"><title>Node1&#45;&gt;Node22</title>
<path fill="none" stroke="midnightblue" d="M268.037,-337.032C322.838,-327.547 414.476,-311.687 474.58,-301.284"/>
<polygon fill="midnightblue" stroke="midnightblue" points="475.424,-304.69 484.681,-299.536 474.231,-297.793 475.424,-304.69"/>
</g>
<!-- Node5&#45;&gt;Node2 -->
<g id="edge6" class="edge"><title>Node5&#45;&gt;Node2</title>
<path fill="none" stroke="midnightblue" d="M355.184,-174.333C298.673,-168.979 171.99,-155.549 56.4029,-132.045"/>
<polygon fill="midnightblue" stroke="midnightblue" points="56.8278,-128.559 46.3266,-129.964 55.412,-135.414 56.8278,-128.559"/>
</g>
<!-- Node5&#45;&gt;Node3 -->
<g id="edge7" class="edge"><title>Node5&#45;&gt;Node3</title>
<path fill="none" stroke="midnightblue" d="M355.366,-172.786C308.352,-165.912 213.619,-151.293 123.635,-131.973"/>
<polygon fill="midnightblue" stroke="midnightblue" points="124.336,-128.543 113.821,-129.842 122.851,-135.384 124.336,-128.543"/>
</g>
<!-- Node5&#45;&gt;Node4 -->
<g id="edge8" class="edge"><title>Node5&#45;&gt;Node4</title>
<path fill="none" stroke="midnightblue" d="M355.352,-170.421C319.1,-162.313 255.639,-147.908 192.023,-132.2"/>
<polygon fill="midnightblue" stroke="midnightblue" points="192.777,-128.781 182.229,-129.771 191.092,-135.575 192.777,-128.781"/>
</g>
<!-- Node6 -->
<g id="node6" class="node"><title>Node6</title>
<polygon fill="none" stroke="#bfbfbf" points="613.5,-112.5 613.5,-131.5 660.5,-131.5 660.5,-112.5 613.5,-112.5"/>
<text text-anchor="middle" x="637" y="-119.5" font-family="Helvetica,sans-Serif" font-size="10.00">cmath</text>
</g>
<!-- Node5&#45;&gt;Node6 -->
<g id="edge5" class="edge"><title>Node5&#45;&gt;Node6</title>
<path fill="none" stroke="midnightblue" d="M414.686,-171.635C455.272,-164.146 530.543,-149.714 603.478,-132.247"/>
<polygon fill="midnightblue" stroke="midnightblue" points="604.387,-135.628 613.285,-129.876 602.742,-128.824 604.387,-135.628"/>
</g>
<!-- Node7 -->
<g id="node7" class="node"><title>Node7</title>
<g id="a_node7"><a xlink:href="config_8hpp.html" target="_top" xlink:title="This file contains the defaults for Espresso. ">
<polygon fill="none" stroke="black" points="426.5,-56.5 426.5,-75.5 493.5,-75.5 493.5,-56.5 426.5,-56.5"/>
<text text-anchor="middle" x="460" y="-63.5" font-family="Helvetica,sans-Serif" font-size="10.00">config.hpp</text>
</a>
</g>
</g>
<!-- Node5&#45;&gt;Node7 -->
<g id="edge9" class="edge"><title>Node5&#45;&gt;Node7</title>
<path fill="none" stroke="midnightblue" d="M414.778,-176.955C481.034,-176.157 637.377,-170.178 670,-132 717.181,-76.7849 578.176,-67.7412 503.719,-66.736"/>
<polygon fill="midnightblue" stroke="midnightblue" points="503.699,-63.2357 493.667,-66.6435 503.634,-70.2354 503.699,-63.2357"/>
</g>
<!-- Node11 -->
<g id="node11" class="node"><title>Node11</title>
<g id="a_node11"><a xlink:href="debug_8hpp.html" target="_top" xlink:title="This file controls debug facilities. ">
<polygon fill="none" stroke="black" points="322,-112.5 322,-131.5 390,-131.5 390,-112.5 322,-112.5"/>
<text text-anchor="middle" x="356" y="-119.5" font-family="Helvetica,sans-Serif" font-size="10.00">debug.hpp</text>
</a>
</g>
</g>
<!-- Node5&#45;&gt;Node11 -->
<g id="edge13" class="edge"><title>Node5&#45;&gt;Node11</title>
<path fill="none" stroke="midnightblue" d="M380.211,-168.083C376.242,-160.691 370.475,-149.953 365.565,-140.811"/>
<polygon fill="midnightblue" stroke="midnightblue" points="368.514,-138.905 360.7,-131.751 362.347,-142.217 368.514,-138.905"/>
</g>
<!-- Node12 -->
<g id="node12" class="node"><title>Node12</title>
<g id="a_node12"><a xlink:href="lees__edwards_8hpp.html" target="_top" xlink:title="lees_edwards.hpp">
<polygon fill="none" stroke="black" points="408,-112.5 408,-131.5 512,-131.5 512,-112.5 408,-112.5"/>
<text text-anchor="middle" x="460" y="-119.5" font-family="Helvetica,sans-Serif" font-size="10.00">lees_edwards.hpp</text>
</a>
</g>
</g>
<!-- Node5&#45;&gt;Node12 -->
<g id="edge15" class="edge"><title>Node5&#45;&gt;Node12</title>
<path fill="none" stroke="midnightblue" d="M397.05,-168.324C408.463,-160.107 425.831,-147.602 439.435,-137.807"/>
<polygon fill="midnightblue" stroke="midnightblue" points="441.66,-140.517 447.731,-131.834 437.57,-134.837 441.66,-140.517"/>
</g>
<!-- Node13 -->
<g id="node13" class="node"><title>Node13</title>
<g id="a_node13"><a xlink:href="errorhandling_8hpp.html" target="_top" xlink:title="This file contains the errorhandling code for severe errors, like a broken bond or illegal parameter ...">
<polygon fill="none" stroke="black" points="200.5,-112.5 200.5,-131.5 303.5,-131.5 303.5,-112.5 200.5,-112.5"/>
<text text-anchor="middle" x="252" y="-119.5" font-family="Helvetica,sans-Serif" font-size="10.00">errorhandling.hpp</text>
</a>
</g>
</g>
<!-- Node5&#45;&gt;Node13 -->
<g id="edge17" class="edge"><title>Node5&#45;&gt;Node13</title>
<path fill="none" stroke="midnightblue" d="M363.926,-168.444C341.94,-159.517 307.266,-145.439 282.336,-135.317"/>
<polygon fill="midnightblue" stroke="midnightblue" points="283.558,-132.035 272.976,-131.516 280.924,-138.521 283.558,-132.035"/>
</g>
<!-- Node17 -->
<g id="node17" class="node"><title>Node17</title>
<polygon fill="none" stroke="#bfbfbf" points="717.5,-112.5 717.5,-131.5 764.5,-131.5 764.5,-112.5 717.5,-112.5"/>
<text text-anchor="middle" x="741" y="-119.5" font-family="Helvetica,sans-Serif" font-size="10.00">vector</text>
</g>
<!-- Node5&#45;&gt;Node17 -->
<g id="edge22" class="edge"><title>Node5&#45;&gt;Node17</title>
<path fill="none" stroke="midnightblue" d="M414.522,-173.742C470.868,-167.321 597.528,-151.909 703,-132 704.457,-131.725 705.943,-131.431 707.442,-131.124"/>
<polygon fill="midnightblue" stroke="midnightblue" points="708.334,-134.511 717.355,-128.955 706.838,-127.673 708.334,-134.511"/>
</g>
<!-- Node18 -->
<g id="node18" class="node"><title>Node18</title>
<polygon fill="none" stroke="#bfbfbf" points="530.5,-112.5 530.5,-131.5 595.5,-131.5 595.5,-112.5 530.5,-112.5"/>
<text text-anchor="middle" x="563" y="-119.5" font-family="Helvetica,sans-Serif" font-size="10.00">exception</text>
</g>
<!-- Node5&#45;&gt;Node18 -->
<g id="edge23" class="edge"><title>Node5&#45;&gt;Node18</title>
<path fill="none" stroke="midnightblue" d="M413.205,-168.444C443.41,-159.28 491.511,-144.688 525.029,-134.519"/>
<polygon fill="midnightblue" stroke="midnightblue" points="526.374,-137.769 534.927,-131.516 524.342,-131.07 526.374,-137.769"/>
</g>
<!-- Node8 -->
<g id="node8" class="node"><title>Node8</title>
<g id="a_node8"><a xlink:href="acconfig_8hpp.html" target="_top" xlink:title="acconfig.hpp">
<polygon fill="none" stroke="black" points="310,-0.5 310,-19.5 388,-19.5 388,-0.5 310,-0.5"/>
<text text-anchor="middle" x="349" y="-7.5" font-family="Helvetica,sans-Serif" font-size="10.00">acconfig.hpp</text>
</a>
</g>
</g>
<!-- Node7&#45;&gt;Node8 -->
<g id="edge10" class="edge"><title>Node7&#45;&gt;Node8</title>
<path fill="none" stroke="midnightblue" d="M442.166,-56.324C424.284,-47.6247 396.525,-34.1202 375.954,-24.113"/>
<polygon fill="midnightblue" stroke="midnightblue" points="377.313,-20.8819 366.79,-19.6545 374.251,-27.1765 377.313,-20.8819"/>
</g>
<!-- Node9 -->
<g id="node9" class="node"><title>Node9</title>
<g id="a_node9"><a xlink:href="myconfig-final_8hpp.html" target="_top" xlink:title="myconfig&#45;final.hpp">
<polygon fill="none" stroke="black" points="406.5,-0.5 406.5,-19.5 513.5,-19.5 513.5,-0.5 406.5,-0.5"/>
<text text-anchor="middle" x="460" y="-7.5" font-family="Helvetica,sans-Serif" font-size="10.00">myconfig&#45;final.hpp</text>
</a>
</g>
</g>
<!-- Node7&#45;&gt;Node9 -->
<g id="edge11" class="edge"><title>Node7&#45;&gt;Node9</title>
<path fill="none" stroke="midnightblue" d="M460,-56.083C460,-49.0059 460,-38.8611 460,-29.9865"/>
<polygon fill="midnightblue" stroke="midnightblue" points="463.5,-29.751 460,-19.7511 456.5,-29.7511 463.5,-29.751"/>
</g>
<!-- Node10 -->
<g id="node10" class="node"><title>Node10</title>
<g id="a_node10"><a xlink:href="config-features_8hpp.html" target="_top" xlink:title="config&#45;features.hpp">
<polygon fill="none" stroke="black" points="531.5,-0.5 531.5,-19.5 642.5,-19.5 642.5,-0.5 531.5,-0.5"/>
<text text-anchor="middle" x="587" y="-7.5" font-family="Helvetica,sans-Serif" font-size="10.00">config&#45;features.hpp</text>
</a>
</g>
</g>
<!-- Node7&#45;&gt;Node10 -->
<g id="edge12" class="edge"><title>Node7&#45;&gt;Node10</title>
<path fill="none" stroke="midnightblue" d="M480.124,-56.4435C501.024,-47.5566 533.935,-33.5632 557.716,-23.4514"/>
<polygon fill="midnightblue" stroke="midnightblue" points="559.138,-26.6504 566.971,-19.5164 556.398,-20.2085 559.138,-26.6504"/>
</g>
<!-- Node11&#45;&gt;Node7 -->
<g id="edge14" class="edge"><title>Node11&#45;&gt;Node7</title>
<path fill="none" stroke="midnightblue" d="M372.709,-112.324C389.312,-103.703 415.002,-90.3643 434.22,-80.3855"/>
<polygon fill="midnightblue" stroke="midnightblue" points="436.07,-83.3689 443.332,-75.6545 432.844,-77.1565 436.07,-83.3689"/>
</g>
<!-- Node12&#45;&gt;Node7 -->
<g id="edge16" class="edge"><title>Node12&#45;&gt;Node7</title>
<path fill="none" stroke="midnightblue" d="M460,-112.083C460,-105.006 460,-94.8611 460,-85.9865"/>
<polygon fill="midnightblue" stroke="midnightblue" points="463.5,-85.751 460,-75.7511 456.5,-85.7511 463.5,-85.751"/>
</g>
<!-- Node13&#45;&gt;Node7 -->
<g id="edge18" class="edge"><title>Node13&#45;&gt;Node7</title>
<path fill="none" stroke="midnightblue" d="M284.958,-112.444C320.787,-103.142 378.163,-88.246 417.391,-78.062"/>
<polygon fill="midnightblue" stroke="midnightblue" points="418.396,-81.4171 427.196,-75.5164 416.637,-74.6417 418.396,-81.4171"/>
</g>
<!-- Node14 -->
<g id="node14" class="node"><title>Node14</title>
<polygon fill="none" stroke="#bfbfbf" points="230,-56.5 230,-75.5 274,-75.5 274,-56.5 230,-56.5"/>
<text text-anchor="middle" x="252" y="-63.5" font-family="Helvetica,sans-Serif" font-size="10.00">string</text>
</g>
<!-- Node13&#45;&gt;Node14 -->
<g id="edge19" class="edge"><title>Node13&#45;&gt;Node14</title>
<path fill="none" stroke="midnightblue" d="M252,-112.083C252,-105.006 252,-94.8611 252,-85.9865"/>
<polygon fill="midnightblue" stroke="midnightblue" points="255.5,-85.751 252,-75.7511 248.5,-85.7511 255.5,-85.751"/>
</g>
<!-- Node15 -->
<g id="node15" class="node"><title>Node15</title>
<polygon fill="none" stroke="#bfbfbf" points="292,-56.5 292,-75.5 348,-75.5 348,-56.5 292,-56.5"/>
<text text-anchor="middle" x="320" y="-63.5" font-family="Helvetica,sans-Serif" font-size="10.00">sstream</text>
</g>
<!-- Node13&#45;&gt;Node15 -->
<g id="edge20" class="edge"><title>Node13&#45;&gt;Node15</title>
<path fill="none" stroke="midnightblue" d="M262.925,-112.324C273.175,-104.185 288.721,-91.8395 301.001,-82.0874"/>
<polygon fill="midnightblue" stroke="midnightblue" points="303.221,-84.7937 308.876,-75.8339 298.868,-79.3119 303.221,-84.7937"/>
</g>
<!-- Node16 -->
<g id="node16" class="node"><title>Node16</title>
<polygon fill="none" stroke="#bfbfbf" points="180,-56.5 180,-75.5 212,-75.5 212,-56.5 180,-56.5"/>
<text text-anchor="middle" x="196" y="-63.5" font-family="Helvetica,sans-Serif" font-size="10.00">list</text>
</g>
<!-- Node13&#45;&gt;Node16 -->
<g id="edge21" class="edge"><title>Node13&#45;&gt;Node16</title>
<path fill="none" stroke="midnightblue" d="M243.003,-112.324C234.806,-104.42 222.494,-92.5482 212.528,-82.9377"/>
<polygon fill="midnightblue" stroke="midnightblue" points="214.789,-80.2558 205.161,-75.8339 209.93,-85.2947 214.789,-80.2558"/>
</g>
<!-- Node19&#45;&gt;Node5 -->
<g id="edge25" class="edge"><title>Node19&#45;&gt;Node5</title>
<path fill="none" stroke="midnightblue" d="M385,-224.083C385,-217.006 385,-206.861 385,-197.986"/>
<polygon fill="midnightblue" stroke="midnightblue" points="388.5,-197.751 385,-187.751 381.5,-197.751 388.5,-197.751"/>
</g>
<!-- Node20&#45;&gt;Node4 -->
<g id="edge28" class="edge"><title>Node20&#45;&gt;Node4</title>
<path fill="none" stroke="midnightblue" d="M249.683,-280.369C244.7,-267.708 234.716,-243.491 224,-224 207.022,-193.119 183.583,-159.417 169.403,-139.801"/>
<polygon fill="midnightblue" stroke="midnightblue" points="172.147,-137.623 163.425,-131.608 166.493,-141.75 172.147,-137.623"/>
</g>
<!-- Node20&#45;&gt;Node5 -->
<g id="edge27" class="edge"><title>Node20&#45;&gt;Node5</title>
<path fill="none" stroke="midnightblue" d="M258.498,-280.115C267.129,-266.698 284.955,-241.029 305,-224 320.186,-211.099 339.625,-200.064 355.537,-192.151"/>
<polygon fill="midnightblue" stroke="midnightblue" points="357.425,-195.127 364.92,-187.638 354.391,-188.818 357.425,-195.127"/>
</g>
<!-- Node20&#45;&gt;Node21 -->
<g id="edge29" class="edge"><title>Node20&#45;&gt;Node21</title>
<path fill="none" stroke="midnightblue" d="M243.842,-280.324C235.499,-272.42 222.968,-260.548 212.823,-250.938"/>
<polygon fill="midnightblue" stroke="midnightblue" points="214.991,-248.171 205.325,-243.834 210.177,-253.252 214.991,-248.171"/>
</g>
<!-- Node22&#45;&gt;Node19 -->
<g id="edge34" class="edge"><title>Node22&#45;&gt;Node19</title>
<path fill="none" stroke="midnightblue" d="M510.391,-280.444C485.542,-271.438 446.226,-257.189 418.246,-247.049"/>
<polygon fill="midnightblue" stroke="midnightblue" points="419.093,-243.633 408.499,-243.516 416.708,-250.214 419.093,-243.633"/>
</g>
<!-- Node23 -->
<g id="node23" class="node"><title>Node23</title>
<g id="a_node23"><a xlink:href="particle__data_8hpp.html" target="_top" xlink:title="For more information on particle_data, see particle_data.c. ">
<polygon fill="none" stroke="black" points="537.5,-224.5 537.5,-243.5 638.5,-243.5 638.5,-224.5 537.5,-224.5"/>
<text text-anchor="middle" x="588" y="-231.5" font-family="Helvetica,sans-Serif" font-size="10.00">particle_data.hpp</text>
</a>
</g>
</g>
<!-- Node22&#45;&gt;Node23 -->
<g id="edge32" class="edge"><title>Node22&#45;&gt;Node23</title>
<path fill="none" stroke="midnightblue" d="M542.917,-280.083C550.78,-272.22 562.431,-260.569 571.919,-251.081"/>
<polygon fill="midnightblue" stroke="midnightblue" points="574.653,-253.297 579.249,-243.751 569.703,-248.347 574.653,-253.297"/>
</g>
<!-- Node24 -->
<g id="node24" class="node"><title>Node24</title>
<g id="a_node24"><a xlink:href="topology_8hpp.html" target="_top" xlink:title="This file contains functions for handling the system topology. ">
<polygon fill="none" stroke="black" points="440.5,-224.5 440.5,-243.5 519.5,-243.5 519.5,-224.5 440.5,-224.5"/>
<text text-anchor="middle" x="480" y="-231.5" font-family="Helvetica,sans-Serif" font-size="10.00">topology.hpp</text>
</a>
</g>
</g>
<!-- Node22&#45;&gt;Node24 -->
<g id="edge35" class="edge"><title>Node22&#45;&gt;Node24</title>
<path fill="none" stroke="midnightblue" d="M525.083,-280.083C517.22,-272.22 505.569,-260.569 496.081,-251.081"/>
<polygon fill="midnightblue" stroke="midnightblue" points="498.297,-248.347 488.751,-243.751 493.347,-253.297 498.297,-248.347"/>
</g>
<!-- Node25 -->
<g id="node25" class="node"><title>Node25</title>
<g id="a_node25"><a xlink:href="mpi_8h.html" target="_top" xlink:title="This is the MPIfake implementation. ">
<polygon fill="none" stroke="black" points="826,-224.5 826,-243.5 870,-243.5 870,-224.5 826,-224.5"/>
<text text-anchor="middle" x="848" y="-231.5" font-family="Helvetica,sans-Serif" font-size="10.00">mpi.h</text>
</a>
</g>
</g>
<!-- Node22&#45;&gt;Node25 -->
<g id="edge37" class="edge"><title>Node22&#45;&gt;Node25</title>
<path fill="none" stroke="midnightblue" d="M583.754,-280.444C648.765,-269.263 760.769,-250.002 815.708,-240.553"/>
<polygon fill="midnightblue" stroke="midnightblue" points="816.641,-243.944 825.904,-238.8 815.455,-237.046 816.641,-243.944"/>
</g>
<!-- Node29 -->
<g id="node29" class="node"><title>Node29</title>
<g id="a_node29"><a xlink:href="cuda__init_8hpp.html" target="_top" xlink:title="cuda_init.hpp">
<polygon fill="none" stroke="black" points="686,-168.5 686,-187.5 768,-187.5 768,-168.5 686,-168.5"/>
<text text-anchor="middle" x="727" y="-175.5" font-family="Helvetica,sans-Serif" font-size="10.00">cuda_init.hpp</text>
</a>
</g>
</g>
<!-- Node22&#45;&gt;Node29 -->
<g id="edge41" class="edge"><title>Node22&#45;&gt;Node29</title>
<path fill="none" stroke="midnightblue" d="M562.781,-280.419C586.545,-272.693 620.681,-260.088 648,-244 671.76,-230.008 695.756,-209.081 710.963,-194.777"/>
<polygon fill="midnightblue" stroke="midnightblue" points="713.655,-197.045 718.451,-187.597 708.81,-191.992 713.655,-197.045"/>
</g>
<!-- Node23&#45;&gt;Node5 -->
<g id="edge33" class="edge"><title>Node23&#45;&gt;Node5</title>
<path fill="none" stroke="midnightblue" d="M555.834,-224.444C520.223,-214.971 462.799,-199.695 424.488,-189.504"/>
<polygon fill="midnightblue" stroke="midnightblue" points="425.268,-186.09 414.704,-186.902 423.468,-192.855 425.268,-186.09"/>
</g>
<!-- Node24&#45;&gt;Node5 -->
<g id="edge36" class="edge"><title>Node24&#45;&gt;Node5</title>
<path fill="none" stroke="midnightblue" d="M464.737,-224.324C449.779,-215.822 426.745,-202.729 409.273,-192.797"/>
<polygon fill="midnightblue" stroke="midnightblue" points="410.649,-189.553 400.226,-187.655 407.19,-195.639 410.649,-189.553"/>
</g>
<!-- Node26 -->
<g id="node26" class="node"><title>Node26</title>
<polygon fill="none" stroke="#bfbfbf" points="786.5,-168.5 786.5,-187.5 839.5,-187.5 839.5,-168.5 786.5,-168.5"/>
<text text-anchor="middle" x="813" y="-175.5" font-family="Helvetica,sans-Serif" font-size="10.00">string.h</text>
</g>
<!-- Node25&#45;&gt;Node26 -->
<g id="edge38" class="edge"><title>Node25&#45;&gt;Node26</title>
<path fill="none" stroke="midnightblue" d="M842.22,-224.083C837.328,-216.534 830.173,-205.495 824.167,-196.23"/>
<polygon fill="midnightblue" stroke="midnightblue" points="827.048,-194.239 818.672,-187.751 821.174,-198.046 827.048,-194.239"/>
</g>
<!-- Node27 -->
<g id="node27" class="node"><title>Node27</title>
<polygon fill="none" stroke="#bfbfbf" points="858,-168.5 858,-187.5 908,-187.5 908,-168.5 858,-168.5"/>
<text text-anchor="middle" x="883" y="-175.5" font-family="Helvetica,sans-Serif" font-size="10.00">stdio.h</text>
</g>
<!-- Node25&#45;&gt;Node27 -->
<g id="edge39" class="edge"><title>Node25&#45;&gt;Node27</title>
<path fill="none" stroke="midnightblue" d="M853.78,-224.083C858.672,-216.534 865.827,-205.495 871.833,-196.23"/>
<polygon fill="midnightblue" stroke="midnightblue" points="874.826,-198.046 877.328,-187.751 868.952,-194.239 874.826,-198.046"/>
</g>
<!-- Node28 -->
<g id="node28" class="node"><title>Node28</title>
<polygon fill="none" stroke="#bfbfbf" points="926.5,-168.5 926.5,-187.5 979.5,-187.5 979.5,-168.5 926.5,-168.5"/>
<text text-anchor="middle" x="953" y="-175.5" font-family="Helvetica,sans-Serif" font-size="10.00">stdlib.h</text>
</g>
<!-- Node25&#45;&gt;Node28 -->
<g id="edge40" class="edge"><title>Node25&#45;&gt;Node28</title>
<path fill="none" stroke="midnightblue" d="M864.87,-224.324C881.709,-215.664 907.807,-202.242 927.238,-192.249"/>
<polygon fill="midnightblue" stroke="midnightblue" points="928.88,-195.341 936.172,-187.655 925.678,-189.116 928.88,-195.341"/>
</g>
<!-- Node29&#45;&gt;Node7 -->
<g id="edge42" class="edge"><title>Node29&#45;&gt;Node7</title>
<path fill="none" stroke="midnightblue" d="M740.99,-168.436C760.179,-155.652 790.51,-131.045 774,-112 739.59,-72.3074 582.085,-66.7834 504.06,-66.5451"/>
<polygon fill="midnightblue" stroke="midnightblue" points="503.6,-63.0451 493.599,-66.5436 503.599,-70.0451 503.6,-63.0451"/>
</g>
<!-- Node29&#45;&gt;Node17 -->
<g id="edge43" class="edge"><title>Node29&#45;&gt;Node17</title>
<path fill="none" stroke="midnightblue" d="M729.312,-168.083C731.167,-160.927 733.835,-150.635 736.154,-141.691"/>
<polygon fill="midnightblue" stroke="midnightblue" points="739.609,-142.309 738.731,-131.751 732.834,-140.553 739.609,-142.309"/>
</g>
</g>
</svg>
