<?xml version="1.0" encoding="UTF-8" standalone="no"?>
<!DOCTYPE svg PUBLIC "-//W3C//DTD SVG 1.1//EN"
 "http://www.w3.org/Graphics/SVG/1.1/DTD/svg11.dtd">
<!-- Generated by graphviz version 2.38.0 (20140413.2041)
 -->
<!-- Title: rattle.hpp Pages: 1 -->
<svg width="702pt" height="84pt"
 viewBox="0.00 0.00 701.50 84.00" xmlns="http://www.w3.org/2000/svg" xmlns:xlink="http://www.w3.org/1999/xlink">
<g id="graph0" class="graph" transform="scale(1 1) rotate(0) translate(4 80)">
<title>rattle.hpp</title>
<!-- Node1 -->
<g id="node1" class="node"><title>Node1</title>
<polygon fill="#bfbfbf" stroke="black" points="298.5,-56.5 298.5,-75.5 362.5,-75.5 362.5,-56.5 298.5,-56.5"/>
<text text-anchor="middle" x="330.5" y="-63.5" font-family="Helvetica,sans-Serif" font-size="10.00">rattle.hpp</text>
</g>
<!-- Node2 -->
<g id="node2" class="node"><title>Node2</title>
<g id="a_node2"><a xlink:href="global_8cpp.html" target="_top" xlink:title="Implementation of global.h. ">
<polygon fill="none" stroke="black" points="0,-0.5 0,-19.5 67,-19.5 67,-0.5 0,-0.5"/>
<text text-anchor="middle" x="33.5" y="-7.5" font-family="Helvetica,sans-Serif" font-size="10.00">global.cpp</text>
</a>
</g>
</g>
<!-- Node1&#45;&gt;Node2 -->
<g id="edge1" class="edge"><title>Node1&#45;&gt;Node2</title>
<path fill="none" stroke="midnightblue" d="M288.3,-58.0369C237.656,-49.5689 150.212,-34.5921 75.5,-20 72.8652,-19.4854 70.1409,-18.9375 67.4043,-18.376"/>
<polygon fill="midnightblue" stroke="midnightblue" points="287.788,-61.4997 298.227,-59.6922 288.939,-54.595 287.788,-61.4997"/>
</g>
<!-- Node3 -->
<g id="node3" class="node"><title>Node3</title>
<g id="a_node3"><a xlink:href="initialize_8cpp.html" target="_top" xlink:title="Implementation of initialize.hpp. ">
<polygon fill="none" stroke="black" points="85,-0.5 85,-19.5 164,-19.5 164,-0.5 85,-0.5"/>
<text text-anchor="middle" x="124.5" y="-7.5" font-family="Helvetica,sans-Serif" font-size="10.00">initialize.cpp</text>
</a>
</g>
</g>
<!-- Node1&#45;&gt;Node3 -->
<g id="edge2" class="edge"><title>Node1&#45;&gt;Node3</title>
<path fill="none" stroke="midnightblue" d="M288.357,-53.9527C249.505,-43.7683 192.643,-28.8626 157.141,-19.5565"/>
<polygon fill="midnightblue" stroke="midnightblue" points="287.752,-57.4124 298.312,-56.5625 289.527,-50.6411 287.752,-57.4124"/>
</g>
<!-- Node4 -->
<g id="node4" class="node"><title>Node4</title>
<g id="a_node4"><a xlink:href="core_2integrate_8cpp.html" target="_top" xlink:title="integrate.cpp">
<polygon fill="none" stroke="black" points="182,-0.5 182,-19.5 263,-19.5 263,-0.5 182,-0.5"/>
<text text-anchor="middle" x="222.5" y="-7.5" font-family="Helvetica,sans-Serif" font-size="10.00">integrate.cpp</text>
</a>
</g>
</g>
<!-- Node1&#45;&gt;Node4 -->
<g id="edge3" class="edge"><title>Node1&#45;&gt;Node4</title>
<path fill="none" stroke="midnightblue" d="M303.952,-51.7261C283.954,-41.7271 257.113,-28.3065 239.809,-19.6545"/>
<polygon fill="midnightblue" stroke="midnightblue" points="302.638,-54.9823 313.148,-56.324 305.769,-48.7213 302.638,-54.9823"/>
</g>
<!-- Node5 -->
<g id="node5" class="node"><title>Node5</title>
<g id="a_node5"><a xlink:href="integrate__sd_8cpp.html" target="_top" xlink:title="Stokesian dynamics integrator. ">
<polygon fill="none" stroke="black" points="281.5,-0.5 281.5,-19.5 379.5,-19.5 379.5,-0.5 281.5,-0.5"/>
<text text-anchor="middle" x="330.5" y="-7.5" font-family="Helvetica,sans-Serif" font-size="10.00">integrate_sd.cpp</text>
</a>
</g>
</g>
<!-- Node1&#45;&gt;Node5 -->
<g id="edge4" class="edge"><title>Node1&#45;&gt;Node5</title>
<path fill="none" stroke="midnightblue" d="M330.5,-45.8045C330.5,-36.9102 330.5,-26.7798 330.5,-19.7511"/>
<polygon fill="midnightblue" stroke="midnightblue" points="327,-46.083 330.5,-56.083 334,-46.083 327,-46.083"/>
</g>
<!-- Node6 -->
<g id="node6" class="node"><title>Node6</title>
<g id="a_node6"><a xlink:href="interaction__data_8cpp.html" target="_top" xlink:title="Implementation of interaction_data.hpp. ">
<polygon fill="none" stroke="black" points="397.5,-0.5 397.5,-19.5 513.5,-19.5 513.5,-0.5 397.5,-0.5"/>
<text text-anchor="middle" x="455.5" y="-7.5" font-family="Helvetica,sans-Serif" font-size="10.00">interaction_data.cpp</text>
</a>
</g>
</g>
<!-- Node1&#45;&gt;Node6 -->
<g id="edge5" class="edge"><title>Node1&#45;&gt;Node6</title>
<path fill="none" stroke="midnightblue" d="M359.741,-52.3678C383.15,-42.2553 415.341,-28.3486 435.786,-19.5164"/>
<polygon fill="midnightblue" stroke="midnightblue" points="358.099,-49.2647 350.307,-56.4435 360.875,-55.6907 358.099,-49.2647"/>
</g>
<!-- Node7 -->
<g id="node7" class="node"><title>Node7</title>
<g id="a_node7"><a xlink:href="rattle_8cpp.html" target="_top" xlink:title="rattle.cpp">
<polygon fill="none" stroke="black" points="532,-0.5 532,-19.5 595,-19.5 595,-0.5 532,-0.5"/>
<text text-anchor="middle" x="563.5" y="-7.5" font-family="Helvetica,sans-Serif" font-size="10.00">rattle.cpp</text>
</a>
</g>
</g>
<!-- Node1&#45;&gt;Node7 -->
<g id="edge6" class="edge"><title>Node1&#45;&gt;Node7</title>
<path fill="none" stroke="midnightblue" d="M372.813,-55.1937C418.6,-44.5819 490.569,-27.9024 531.751,-18.3582"/>
<polygon fill="midnightblue" stroke="midnightblue" points="371.849,-51.8241 362.898,-57.4915 373.43,-58.6433 371.849,-51.8241"/>
</g>
<!-- Node8 -->
<g id="node8" class="node"><title>Node8</title>
<g id="a_node8"><a xlink:href="rattle__tcl_8cpp.html" target="_top" xlink:title="Implementation of rattle_tcl.hpp. ">
<polygon fill="none" stroke="black" points="613.5,-0.5 613.5,-19.5 693.5,-19.5 693.5,-0.5 613.5,-0.5"/>
<text text-anchor="middle" x="653.5" y="-7.5" font-family="Helvetica,sans-Serif" font-size="10.00">rattle_tcl.cpp</text>
</a>
</g>
</g>
<!-- Node1&#45;&gt;Node8 -->
<g id="edge7" class="edge"><title>Node1&#45;&gt;Node8</title>
<path fill="none" stroke="midnightblue" d="M372.787,-58.3088C426.648,-49.728 522.573,-34.2501 604.5,-20 607.397,-19.4961 610.389,-18.9672 613.4,-18.429"/>
<polygon fill="midnightblue" stroke="midnightblue" points="371.918,-54.9029 362.592,-59.9306 373.018,-61.816 371.918,-54.9029"/>
</g>
</g>
</svg>
