<?xml version="1.0" encoding="UTF-8" standalone="no"?>
<!DOCTYPE svg PUBLIC "-//W3C//DTD SVG 1.1//EN"
 "http://www.w3.org/Graphics/SVG/1.1/DTD/svg11.dtd">
<!-- Generated by graphviz version 2.38.0 (20140413.2041)
 -->
<!-- Title: reaction_field_tcl.cpp Pages: 1 -->
<!--zoomable 532 -->
<svg id="main" version="1.1" xmlns="http://www.w3.org/2000/svg" xmlns:xlink="http://www.w3.org/1999/xlink" xml:space="preserve" onload="init(evt)">
<style type="text/css"><![CDATA[
.edge:hover path { stroke: red; }
.edge:hover polygon { stroke: red; fill: red; }
]]></style>
<script type="text/javascript"><![CDATA[
var edges = document.getElementsByTagName('g');
if (edges && edges.length) {
  for (var i=0;i<edges.length;i++) {
    if (edges[i].id.substr(0,4)=='edge') {
      edges[i].setAttribute('class','edge');
    }
  }
}
]]></script>
        <defs>
                <circle id="rim" cx="0" cy="0" r="7"/>
                <circle id="rim2" cx="0" cy="0" r="3.5"/>
                <g id="zoomPlus">
                        <use xlink:href="#rim" fill="#404040">
                                <set attributeName="fill" to="#808080" begin="zoomplus.mouseover" end="zoomplus.mouseout"/>
                        </use>
                        <path d="M-4,0h8M0,-4v8" fill="none" stroke="white" stroke-width="1.5" pointer-events="none"/>
                </g>
                <g id="zoomMin">
                        <use xlink:href="#rim" fill="#404040">
                                <set attributeName="fill" to="#808080" begin="zoomminus.mouseover" end="zoomminus.mouseout"/>
                        </use>
                        <path d="M-4,0h8" fill="none" stroke="white" stroke-width="1.5" pointer-events="none"/>
                </g>
                <g id="dirArrow">
                        <path fill="none" stroke="white" stroke-width="1.5" d="M0,-3.0v7 M-2.5,-0.5L0,-3.0L2.5,-0.5"/>
                </g>
               <g id="resetDef">
                       <use xlink:href="#rim2" fill="#404040">
                               <set attributeName="fill" to="#808080" begin="reset.mouseover" end="reset.mouseout"/>
                       </use>
               </g>
        </defs>

<script type="text/javascript">
var viewWidth = 899;
var viewHeight = 532;
var sectionId = 'dynsection-0';
</script>
<script xlink:href="svgpan.js"/>
<svg id="graph" class="graph">
<g id="viewport">
<title>reaction_field_tcl.cpp</title>
<!-- Node1 -->
<g id="node1" class="node"><title>Node1</title>
<polygon fill="#bfbfbf" stroke="black" points="257,-504.5 257,-523.5 377,-523.5 377,-504.5 257,-504.5"/>
<text text-anchor="middle" x="317" y="-511.5" font-family="Helvetica,sans-Serif" font-size="10.00">reaction_field_tcl.cpp</text>
</g>
<!-- Node2 -->
<g id="node2" class="node"><title>Node2</title>
<g id="a_node2"><a xlink:href="reaction__field__tcl_8hpp.html" target="_top" xlink:title="Tcl interface for reaction_field.hpp. ">
<polygon fill="none" stroke="black" points="181.5,-392.5 181.5,-411.5 302.5,-411.5 302.5,-392.5 181.5,-392.5"/>
<text text-anchor="middle" x="242" y="-399.5" font-family="Helvetica,sans-Serif" font-size="10.00">reaction_field_tcl.hpp</text>
</a>
</g>
</g>
<!-- Node1&#45;&gt;Node2 -->
<g id="edge1" class="edge"><title>Node1&#45;&gt;Node2</title>
<path fill="none" stroke="midnightblue" d="M311.115,-504.368C298.738,-486.215 269.819,-443.802 253.584,-419.99"/>
<polygon fill="midnightblue" stroke="midnightblue" points="256.383,-417.882 247.858,-411.591 250.599,-421.825 256.383,-417.882"/>
</g>
<!-- Node24 -->
<g id="node24" class="node"><title>Node24</title>
<g id="a_node24"><a xlink:href="reaction__field_8hpp.html" target="_top" xlink:title="Routines to calculate the Reaction Field Energy or/and force for a particle pair. ...">
<polygon fill="none" stroke="black" points="317,-448.5 317,-467.5 421,-467.5 421,-448.5 317,-448.5"/>
<text text-anchor="middle" x="369" y="-455.5" font-family="Helvetica,sans-Serif" font-size="10.00">reaction_field.hpp</text>
</a>
</g>
</g>
<!-- Node1&#45;&gt;Node24 -->
<g id="edge29" class="edge"><title>Node1&#45;&gt;Node24</title>
<path fill="none" stroke="midnightblue" d="M325.587,-504.083C333.159,-496.22 344.378,-484.569 353.514,-475.081"/>
<polygon fill="midnightblue" stroke="midnightblue" points="356.158,-477.382 360.573,-467.751 351.115,-472.527 356.158,-477.382"/>
</g>
<!-- Node3 -->
<g id="node3" class="node"><title>Node3</title>
<g id="a_node3"><a xlink:href="parser_8hpp.html" target="_top" xlink:title="This file contains macros for parsing the parameters to the &#39;inter&#39; command. ">
<polygon fill="none" stroke="black" points="208,-224.5 208,-243.5 276,-243.5 276,-224.5 208,-224.5"/>
<text text-anchor="middle" x="242" y="-231.5" font-family="Helvetica,sans-Serif" font-size="10.00">parser.hpp</text>
</a>
</g>
</g>
<!-- Node2&#45;&gt;Node3 -->
<g id="edge2" class="edge"><title>Node2&#45;&gt;Node3</title>
<path fill="none" stroke="midnightblue" d="M242,-392.075C242,-365.945 242,-289.211 242,-253.577"/>
<polygon fill="midnightblue" stroke="midnightblue" points="245.5,-253.568 242,-243.568 238.5,-253.568 245.5,-253.568"/>
</g>
<!-- Node22 -->
<g id="node22" class="node"><title>Node22</title>
<g id="a_node22"><a xlink:href="interaction__data_8hpp.html" target="_top" xlink:title="Various procedures concerning interactions between particles. ">
<polygon fill="none" stroke="black" points="397.5,-336.5 397.5,-355.5 514.5,-355.5 514.5,-336.5 397.5,-336.5"/>
<text text-anchor="middle" x="456" y="-343.5" font-family="Helvetica,sans-Serif" font-size="10.00">interaction_data.hpp</text>
</a>
</g>
</g>
<!-- Node2&#45;&gt;Node22 -->
<g id="edge25" class="edge"><title>Node2&#45;&gt;Node22</title>
<path fill="none" stroke="midnightblue" d="M275.909,-392.444C312.849,-383.122 372.054,-368.183 412.418,-357.997"/>
<polygon fill="midnightblue" stroke="midnightblue" points="413.41,-361.357 422.25,-355.516 411.697,-354.57 413.41,-361.357"/>
</g>
<!-- Node4 -->
<g id="node4" class="node"><title>Node4</title>
<g id="a_node4"><a xlink:href="utils_8hpp.html" target="_top" xlink:title="Small functions that are useful not only for one modul. ">
<polygon fill="none" stroke="black" points="335.5,-168.5 335.5,-187.5 394.5,-187.5 394.5,-168.5 335.5,-168.5"/>
<text text-anchor="middle" x="365" y="-175.5" font-family="Helvetica,sans-Serif" font-size="10.00">utils.hpp</text>
</a>
</g>
</g>
<!-- Node3&#45;&gt;Node4 -->
<g id="edge3" class="edge"><title>Node3&#45;&gt;Node4</title>
<path fill="none" stroke="midnightblue" d="M261.49,-224.444C281.642,-215.596 313.323,-201.687 336.331,-191.586"/>
<polygon fill="midnightblue" stroke="midnightblue" points="337.852,-194.741 345.601,-187.516 335.038,-188.332 337.852,-194.741"/>
</g>
<!-- Node8 -->
<g id="node8" class="node"><title>Node8</title>
<polygon fill="none" stroke="#bfbfbf" points="0,-112.5 0,-131.5 50,-131.5 50,-112.5 0,-112.5"/>
<text text-anchor="middle" x="25" y="-119.5" font-family="Helvetica,sans-Serif" font-size="10.00">cstring</text>
</g>
<!-- Node3&#45;&gt;Node8 -->
<g id="edge23" class="edge"><title>Node3&#45;&gt;Node8</title>
<path fill="none" stroke="midnightblue" d="M224.972,-224.368C187.18,-205.211 96.0883,-159.036 51.0739,-136.217"/>
<polygon fill="midnightblue" stroke="midnightblue" points="52.4505,-132.991 41.9485,-131.591 49.2855,-139.235 52.4505,-132.991"/>
</g>
<!-- Node21 -->
<g id="node21" class="node"><title>Node21</title>
<polygon fill="none" stroke="#bfbfbf" points="223,-168.5 223,-187.5 261,-187.5 261,-168.5 223,-168.5"/>
<text text-anchor="middle" x="242" y="-175.5" font-family="Helvetica,sans-Serif" font-size="10.00">tcl.h</text>
</g>
<!-- Node3&#45;&gt;Node21 -->
<g id="edge24" class="edge"><title>Node3&#45;&gt;Node21</title>
<path fill="none" stroke="midnightblue" d="M242,-224.083C242,-217.006 242,-206.861 242,-197.986"/>
<polygon fill="midnightblue" stroke="midnightblue" points="245.5,-197.751 242,-187.751 238.5,-197.751 245.5,-197.751"/>
</g>
<!-- Node5 -->
<g id="node5" class="node"><title>Node5</title>
<polygon fill="none" stroke="#bfbfbf" points="337.5,-112.5 337.5,-131.5 384.5,-131.5 384.5,-112.5 337.5,-112.5"/>
<text text-anchor="middle" x="361" y="-119.5" font-family="Helvetica,sans-Serif" font-size="10.00">cmath</text>
</g>
<!-- Node4&#45;&gt;Node5 -->
<g id="edge4" class="edge"><title>Node4&#45;&gt;Node5</title>
<path fill="none" stroke="midnightblue" d="M364.339,-168.083C363.815,-161.006 363.064,-150.861 362.406,-141.986"/>
<polygon fill="midnightblue" stroke="midnightblue" points="365.877,-141.465 361.648,-131.751 358.897,-141.982 365.877,-141.465"/>
</g>
<!-- Node6 -->
<g id="node6" class="node"><title>Node6</title>
<polygon fill="none" stroke="#bfbfbf" points="403,-112.5 403,-131.5 449,-131.5 449,-112.5 403,-112.5"/>
<text text-anchor="middle" x="426" y="-119.5" font-family="Helvetica,sans-Serif" font-size="10.00">cstdio</text>
</g>
<!-- Node4&#45;&gt;Node6 -->
<g id="edge5" class="edge"><title>Node4&#45;&gt;Node6</title>
<path fill="none" stroke="midnightblue" d="M374.801,-168.324C383.818,-160.341 397.406,-148.313 408.318,-138.653"/>
<polygon fill="midnightblue" stroke="midnightblue" points="410.853,-141.083 416.021,-131.834 406.213,-135.842 410.853,-141.083"/>
</g>
<!-- Node7 -->
<g id="node7" class="node"><title>Node7</title>
<polygon fill="none" stroke="#bfbfbf" points="589.5,-112.5 589.5,-131.5 638.5,-131.5 638.5,-112.5 589.5,-112.5"/>
<text text-anchor="middle" x="614" y="-119.5" font-family="Helvetica,sans-Serif" font-size="10.00">cstdlib</text>
</g>
<!-- Node4&#45;&gt;Node7 -->
<g id="edge6" class="edge"><title>Node4&#45;&gt;Node7</title>
<path fill="none" stroke="midnightblue" d="M394.67,-171.302C434.376,-163.565 507.208,-148.986 579.031,-132.13"/>
<polygon fill="midnightblue" stroke="midnightblue" points="580.229,-135.444 589.155,-129.737 578.618,-128.632 580.229,-135.444"/>
</g>
<!-- Node4&#45;&gt;Node8 -->
<g id="edge7" class="edge"><title>Node4&#45;&gt;Node8</title>
<path fill="none" stroke="midnightblue" d="M335.267,-173.757C282.017,-167.707 166.726,-153.51 60.1317,-132.035"/>
<polygon fill="midnightblue" stroke="midnightblue" points="60.6742,-128.574 50.1762,-130.003 59.2739,-135.432 60.6742,-128.574"/>
</g>
<!-- Node9 -->
<g id="node9" class="node"><title>Node9</title>
<g id="a_node9"><a xlink:href="config_8hpp.html" target="_top" xlink:title="This file contains the defaults for Espresso. ">
<polygon fill="none" stroke="black" points="664.5,-56.5 664.5,-75.5 731.5,-75.5 731.5,-56.5 664.5,-56.5"/>
<text text-anchor="middle" x="698" y="-63.5" font-family="Helvetica,sans-Serif" font-size="10.00">config.hpp</text>
</a>
</g>
</g>
<!-- Node4&#45;&gt;Node9 -->
<g id="edge8" class="edge"><title>Node4&#45;&gt;Node9</title>
<path fill="none" stroke="midnightblue" d="M394.871,-174.986C458.402,-170.266 604.591,-156.955 647,-132 665.862,-120.901 680.357,-99.9424 688.99,-84.8198"/>
<polygon fill="midnightblue" stroke="midnightblue" points="692.141,-86.3506 693.803,-75.8871 685.978,-83.0299 692.141,-86.3506"/>
</g>
<!-- Node13 -->
<g id="node13" class="node"><title>Node13</title>
<g id="a_node13"><a xlink:href="debug_8hpp.html" target="_top" xlink:title="This file controls debug facilities. ">
<polygon fill="none" stroke="black" points="695,-112.5 695,-131.5 763,-131.5 763,-112.5 695,-112.5"/>
<text text-anchor="middle" x="729" y="-119.5" font-family="Helvetica,sans-Serif" font-size="10.00">debug.hpp</text>
</a>
</g>
</g>
<!-- Node4&#45;&gt;Node13 -->
<g id="edge12" class="edge"><title>Node4&#45;&gt;Node13</title>
<path fill="none" stroke="midnightblue" d="M394.691,-173.214C450.761,-165.966 576.021,-149.308 681,-132 682.271,-131.791 683.559,-131.574 684.86,-131.353"/>
<polygon fill="midnightblue" stroke="midnightblue" points="685.703,-134.758 694.944,-129.576 684.489,-127.864 685.703,-134.758"/>
</g>
<!-- Node14 -->
<g id="node14" class="node"><title>Node14</title>
<g id="a_node14"><a xlink:href="lees__edwards_8hpp.html" target="_top" xlink:title="lees_edwards.hpp">
<polygon fill="none" stroke="black" points="467,-112.5 467,-131.5 571,-131.5 571,-112.5 467,-112.5"/>
<text text-anchor="middle" x="519" y="-119.5" font-family="Helvetica,sans-Serif" font-size="10.00">lees_edwards.hpp</text>
</a>
</g>
</g>
<!-- Node4&#45;&gt;Node14 -->
<g id="edge14" class="edge"><title>Node4&#45;&gt;Node14</title>
<path fill="none" stroke="midnightblue" d="M389.402,-168.444C415.197,-159.399 456.077,-145.064 485.018,-134.916"/>
<polygon fill="midnightblue" stroke="midnightblue" points="486.434,-138.128 494.712,-131.516 484.118,-131.523 486.434,-138.128"/>
</g>
<!-- Node15 -->
<g id="node15" class="node"><title>Node15</title>
<g id="a_node15"><a xlink:href="errorhandling_8hpp.html" target="_top" xlink:title="This file contains the errorhandling code for severe errors, like a broken bond or illegal parameter ...">
<polygon fill="none" stroke="black" points="68.5,-112.5 68.5,-131.5 171.5,-131.5 171.5,-112.5 68.5,-112.5"/>
<text text-anchor="middle" x="120" y="-119.5" font-family="Helvetica,sans-Serif" font-size="10.00">errorhandling.hpp</text>
</a>
</g>
</g>
<!-- Node4&#45;&gt;Node15 -->
<g id="edge16" class="edge"><title>Node4&#45;&gt;Node15</title>
<path fill="none" stroke="midnightblue" d="M335.447,-170.486C294.131,-161.38 218.593,-144.731 168.841,-133.765"/>
<polygon fill="midnightblue" stroke="midnightblue" points="169.464,-130.318 158.945,-131.584 167.957,-137.154 169.464,-130.318"/>
</g>
<!-- Node19 -->
<g id="node19" class="node"><title>Node19</title>
<polygon fill="none" stroke="#bfbfbf" points="189.5,-112.5 189.5,-131.5 236.5,-131.5 236.5,-112.5 189.5,-112.5"/>
<text text-anchor="middle" x="213" y="-119.5" font-family="Helvetica,sans-Serif" font-size="10.00">vector</text>
</g>
<!-- Node4&#45;&gt;Node19 -->
<g id="edge21" class="edge"><title>Node4&#45;&gt;Node19</title>
<path fill="none" stroke="midnightblue" d="M340.915,-168.444C315.455,-159.399 275.106,-145.064 246.541,-134.916"/>
<polygon fill="midnightblue" stroke="midnightblue" points="247.567,-131.566 236.972,-131.516 245.223,-138.162 247.567,-131.566"/>
</g>
<!-- Node20 -->
<g id="node20" class="node"><title>Node20</title>
<polygon fill="none" stroke="#bfbfbf" points="254.5,-112.5 254.5,-131.5 319.5,-131.5 319.5,-112.5 254.5,-112.5"/>
<text text-anchor="middle" x="287" y="-119.5" font-family="Helvetica,sans-Serif" font-size="10.00">exception</text>
</g>
<!-- Node4&#45;&gt;Node20 -->
<g id="edge22" class="edge"><title>Node4&#45;&gt;Node20</title>
<path fill="none" stroke="midnightblue" d="M352.468,-168.324C340.414,-159.979 321.973,-147.212 307.731,-137.352"/>
<polygon fill="midnightblue" stroke="midnightblue" points="309.715,-134.469 299.501,-131.655 305.731,-140.224 309.715,-134.469"/>
</g>
<!-- Node10 -->
<g id="node10" class="node"><title>Node10</title>
<g id="a_node10"><a xlink:href="acconfig_8hpp.html" target="_top" xlink:title="acconfig.hpp">
<polygon fill="none" stroke="black" points="548,-0.5 548,-19.5 626,-19.5 626,-0.5 548,-0.5"/>
<text text-anchor="middle" x="587" y="-7.5" font-family="Helvetica,sans-Serif" font-size="10.00">acconfig.hpp</text>
</a>
</g>
</g>
<!-- Node9&#45;&gt;Node10 -->
<g id="edge9" class="edge"><title>Node9&#45;&gt;Node10</title>
<path fill="none" stroke="midnightblue" d="M680.166,-56.324C662.284,-47.6247 634.525,-34.1202 613.954,-24.113"/>
<polygon fill="midnightblue" stroke="midnightblue" points="615.313,-20.8819 604.79,-19.6545 612.251,-27.1765 615.313,-20.8819"/>
</g>
<!-- Node11 -->
<g id="node11" class="node"><title>Node11</title>
<g id="a_node11"><a xlink:href="myconfig-final_8hpp.html" target="_top" xlink:title="myconfig&#45;final.hpp">
<polygon fill="none" stroke="black" points="644.5,-0.5 644.5,-19.5 751.5,-19.5 751.5,-0.5 644.5,-0.5"/>
<text text-anchor="middle" x="698" y="-7.5" font-family="Helvetica,sans-Serif" font-size="10.00">myconfig&#45;final.hpp</text>
</a>
</g>
</g>
<!-- Node9&#45;&gt;Node11 -->
<g id="edge10" class="edge"><title>Node9&#45;&gt;Node11</title>
<path fill="none" stroke="midnightblue" d="M698,-56.083C698,-49.0059 698,-38.8611 698,-29.9865"/>
<polygon fill="midnightblue" stroke="midnightblue" points="701.5,-29.751 698,-19.7511 694.5,-29.7511 701.5,-29.751"/>
</g>
<!-- Node12 -->
<g id="node12" class="node"><title>Node12</title>
<g id="a_node12"><a xlink:href="config-features_8hpp.html" target="_top" xlink:title="config&#45;features.hpp">
<polygon fill="none" stroke="black" points="769.5,-0.5 769.5,-19.5 880.5,-19.5 880.5,-0.5 769.5,-0.5"/>
<text text-anchor="middle" x="825" y="-7.5" font-family="Helvetica,sans-Serif" font-size="10.00">config&#45;features.hpp</text>
</a>
</g>
</g>
<!-- Node9&#45;&gt;Node12 -->
<g id="edge11" class="edge"><title>Node9&#45;&gt;Node12</title>
<path fill="none" stroke="midnightblue" d="M718.124,-56.4435C739.024,-47.5566 771.935,-33.5632 795.716,-23.4514"/>
<polygon fill="midnightblue" stroke="midnightblue" points="797.138,-26.6504 804.971,-19.5164 794.398,-20.2085 797.138,-26.6504"/>
</g>
<!-- Node13&#45;&gt;Node9 -->
<g id="edge13" class="edge"><title>Node13&#45;&gt;Node9</title>
<path fill="none" stroke="midnightblue" d="M723.881,-112.083C719.592,-104.613 713.342,-93.7244 708.058,-84.5199"/>
<polygon fill="midnightblue" stroke="midnightblue" points="711.038,-82.6811 703.024,-75.7511 704.967,-86.1662 711.038,-82.6811"/>
</g>
<!-- Node14&#45;&gt;Node9 -->
<g id="edge15" class="edge"><title>Node14&#45;&gt;Node9</title>
<path fill="none" stroke="midnightblue" d="M547.363,-112.444C577.738,-103.28 626.11,-88.6876 659.816,-78.5192"/>
<polygon fill="midnightblue" stroke="midnightblue" points="661.207,-81.7555 669.77,-75.5164 659.185,-75.0538 661.207,-81.7555"/>
</g>
<!-- Node15&#45;&gt;Node9 -->
<g id="edge17" class="edge"><title>Node15&#45;&gt;Node9</title>
<path fill="none" stroke="midnightblue" d="M171.683,-113.039C174.494,-112.671 177.28,-112.322 180,-112 355.262,-91.263 564.949,-75.9538 654.259,-69.8767"/>
<polygon fill="midnightblue" stroke="midnightblue" points="654.55,-73.3651 664.291,-69.1985 654.078,-66.381 654.55,-73.3651"/>
</g>
<!-- Node16 -->
<g id="node16" class="node"><title>Node16</title>
<polygon fill="none" stroke="#bfbfbf" points="30,-56.5 30,-75.5 74,-75.5 74,-56.5 30,-56.5"/>
<text text-anchor="middle" x="52" y="-63.5" font-family="Helvetica,sans-Serif" font-size="10.00">string</text>
</g>
<!-- Node15&#45;&gt;Node16 -->
<g id="edge18" class="edge"><title>Node15&#45;&gt;Node16</title>
<path fill="none" stroke="midnightblue" d="M109.075,-112.324C98.8254,-104.185 83.2794,-91.8395 70.999,-82.0874"/>
<polygon fill="midnightblue" stroke="midnightblue" points="73.1319,-79.3119 63.1242,-75.8339 68.7787,-84.7937 73.1319,-79.3119"/>
</g>
<!-- Node17 -->
<g id="node17" class="node"><title>Node17</title>
<polygon fill="none" stroke="#bfbfbf" points="92,-56.5 92,-75.5 148,-75.5 148,-56.5 92,-56.5"/>
<text text-anchor="middle" x="120" y="-63.5" font-family="Helvetica,sans-Serif" font-size="10.00">sstream</text>
</g>
<!-- Node15&#45;&gt;Node17 -->
<g id="edge19" class="edge"><title>Node15&#45;&gt;Node17</title>
<path fill="none" stroke="midnightblue" d="M120,-112.083C120,-105.006 120,-94.8611 120,-85.9865"/>
<polygon fill="midnightblue" stroke="midnightblue" points="123.5,-85.751 120,-75.7511 116.5,-85.7511 123.5,-85.751"/>
</g>
<!-- Node18 -->
<g id="node18" class="node"><title>Node18</title>
<polygon fill="none" stroke="#bfbfbf" points="166,-56.5 166,-75.5 198,-75.5 198,-56.5 166,-56.5"/>
<text text-anchor="middle" x="182" y="-63.5" font-family="Helvetica,sans-Serif" font-size="10.00">list</text>
</g>
<!-- Node15&#45;&gt;Node18 -->
<g id="edge20" class="edge"><title>Node15&#45;&gt;Node18</title>
<path fill="none" stroke="midnightblue" d="M129.961,-112.324C139.127,-104.341 152.937,-92.3128 164.028,-82.6529"/>
<polygon fill="midnightblue" stroke="midnightblue" points="166.615,-85.041 171.857,-75.8339 162.018,-79.7624 166.615,-85.041"/>
</g>
<!-- Node22&#45;&gt;Node4 -->
<g id="edge26" class="edge"><title>Node22&#45;&gt;Node4</title>
<path fill="none" stroke="midnightblue" d="M451.107,-336.075C436.659,-309.719 393.987,-231.878 374.681,-196.661"/>
<polygon fill="midnightblue" stroke="midnightblue" points="377.573,-194.654 369.697,-187.568 371.435,-198.019 377.573,-194.654"/>
</g>
<!-- Node23 -->
<g id="node23" class="node"><title>Node23</title>
<g id="a_node23"><a xlink:href="particle__data_8hpp.html" target="_top" xlink:title="For more information on particle_data, see particle_data.c. ">
<polygon fill="none" stroke="black" points="492.5,-224.5 492.5,-243.5 593.5,-243.5 593.5,-224.5 492.5,-224.5"/>
<text text-anchor="middle" x="543" y="-231.5" font-family="Helvetica,sans-Serif" font-size="10.00">particle_data.hpp</text>
</a>
</g>
</g>
<!-- Node22&#45;&gt;Node23 -->
<g id="edge27" class="edge"><title>Node22&#45;&gt;Node23</title>
<path fill="none" stroke="midnightblue" d="M462.827,-336.368C477.248,-318.135 511.027,-275.426 529.811,-251.675"/>
<polygon fill="midnightblue" stroke="midnightblue" points="532.747,-253.606 536.205,-243.591 527.256,-249.264 532.747,-253.606"/>
</g>
<!-- Node23&#45;&gt;Node4 -->
<g id="edge28" class="edge"><title>Node23&#45;&gt;Node4</title>
<path fill="none" stroke="midnightblue" d="M514.795,-224.444C484.59,-215.28 436.489,-200.688 402.971,-190.519"/>
<polygon fill="midnightblue" stroke="midnightblue" points="403.658,-187.07 393.073,-187.516 401.626,-193.769 403.658,-187.07"/>
</g>
<!-- Node24&#45;&gt;Node4 -->
<g id="edge30" class="edge"><title>Node24&#45;&gt;Node4</title>
<path fill="none" stroke="midnightblue" d="M363.716,-448.231C353.275,-430.043 331,-386.601 331,-347 331,-347 331,-347 331,-289 331,-255.16 345.87,-217.97 355.942,-196.661"/>
<polygon fill="midnightblue" stroke="midnightblue" points="359.145,-198.079 360.415,-187.56 352.863,-194.991 359.145,-198.079"/>
</g>
<!-- Node24&#45;&gt;Node22 -->
<g id="edge31" class="edge"><title>Node24&#45;&gt;Node22</title>
<path fill="none" stroke="midnightblue" d="M375.827,-448.368C390.248,-430.135 424.027,-387.426 442.811,-363.675"/>
<polygon fill="midnightblue" stroke="midnightblue" points="445.747,-365.606 449.205,-355.591 440.256,-361.264 445.747,-365.606"/>
</g>
<!-- Node24&#45;&gt;Node23 -->
<g id="edge32" class="edge"><title>Node24&#45;&gt;Node23</title>
<path fill="none" stroke="midnightblue" d="M368.09,-448.248C366.34,-427.089 364.542,-372.236 388,-336 416.718,-291.639 472.546,-262.58 508.776,-247.478"/>
<polygon fill="midnightblue" stroke="midnightblue" points="510.467,-250.57 518.435,-243.588 507.852,-244.077 510.467,-250.57"/>
</g>
<!-- Node25 -->
<g id="node25" class="node"><title>Node25</title>
<g id="a_node25"><a xlink:href="mol__cut_8hpp.html" target="_top" xlink:title="mol_cut.hpp">
<polygon fill="none" stroke="black" points="481.5,-392.5 481.5,-411.5 558.5,-411.5 558.5,-392.5 481.5,-392.5"/>
<text text-anchor="middle" x="520" y="-399.5" font-family="Helvetica,sans-Serif" font-size="10.00">mol_cut.hpp</text>
</a>
</g>
</g>
<!-- Node24&#45;&gt;Node25 -->
<g id="edge33" class="edge"><title>Node24&#45;&gt;Node25</title>
<path fill="none" stroke="midnightblue" d="M392.926,-448.444C418.219,-439.399 458.302,-425.064 486.68,-414.916"/>
<polygon fill="midnightblue" stroke="midnightblue" points="487.948,-418.179 496.186,-411.516 485.591,-411.588 487.948,-418.179"/>
</g>
<!-- Node25&#45;&gt;Node22 -->
<g id="edge43" class="edge"><title>Node25&#45;&gt;Node22</title>
<path fill="none" stroke="midnightblue" d="M509.717,-392.324C500.164,-384.263 485.72,-372.077 474.216,-362.369"/>
<polygon fill="midnightblue" stroke="midnightblue" points="476.37,-359.608 466.47,-355.834 471.856,-364.958 476.37,-359.608"/>
</g>
<!-- Node25&#45;&gt;Node23 -->
<g id="edge42" class="edge"><title>Node25&#45;&gt;Node23</title>
<path fill="none" stroke="midnightblue" d="M521.237,-392.075C524.857,-365.945 535.489,-289.211 540.426,-253.577"/>
<polygon fill="midnightblue" stroke="midnightblue" points="543.907,-253.954 541.813,-243.568 536.973,-252.993 543.907,-253.954"/>
</g>
<!-- Node26 -->
<g id="node26" class="node"><title>Node26</title>
<g id="a_node26"><a xlink:href="virtual__sites_8hpp.html" target="_top" xlink:title="This file contains routine to handle virtual sites Virtual sites are like particles, but they will be not integrated. ">
<polygon fill="none" stroke="black" points="600,-336.5 600,-355.5 698,-355.5 698,-336.5 600,-336.5"/>
<text text-anchor="middle" x="649" y="-343.5" font-family="Helvetica,sans-Serif" font-size="10.00">virtual_sites.hpp</text>
</a>
</g>
</g>
<!-- Node25&#45;&gt;Node26 -->
<g id="edge34" class="edge"><title>Node25&#45;&gt;Node26</title>
<path fill="none" stroke="midnightblue" d="M540.44,-392.444C561.67,-383.557 595.099,-369.563 619.255,-359.451"/>
<polygon fill="midnightblue" stroke="midnightblue" points="620.782,-362.606 628.655,-355.516 618.079,-356.149 620.782,-362.606"/>
</g>
<!-- Node26&#45;&gt;Node23 -->
<g id="edge35" class="edge"><title>Node26&#45;&gt;Node23</title>
<path fill="none" stroke="midnightblue" d="M638.945,-336.337C628.828,-327.49 612.917,-313.216 600,-300 584.51,-284.15 567.926,-264.96 556.663,-251.556"/>
<polygon fill="midnightblue" stroke="midnightblue" points="559.187,-249.117 550.096,-243.676 553.81,-253.599 559.187,-249.117"/>
</g>
<!-- Node27 -->
<g id="node27" class="node"><title>Node27</title>
<g id="a_node27"><a xlink:href="virtual__sites__com_8hpp.html" target="_top" xlink:title="virtual_sites_com.hpp">
<polygon fill="none" stroke="black" points="767,-280.5 767,-299.5 891,-299.5 891,-280.5 767,-280.5"/>
<text text-anchor="middle" x="829" y="-287.5" font-family="Helvetica,sans-Serif" font-size="10.00">virtual_sites_com.hpp</text>
</a>
</g>
</g>
<!-- Node26&#45;&gt;Node27 -->
<g id="edge36" class="edge"><title>Node26&#45;&gt;Node27</title>
<path fill="none" stroke="midnightblue" d="M677.522,-336.444C708.066,-327.28 756.708,-312.688 790.603,-302.519"/>
<polygon fill="midnightblue" stroke="midnightblue" points="792.039,-305.742 800.612,-299.516 790.028,-299.038 792.039,-305.742"/>
</g>
<!-- Node28 -->
<g id="node28" class="node"><title>Node28</title>
<g id="a_node28"><a xlink:href="virtual__sites__relative_8hpp.html" target="_top" xlink:title="virtual_sites_relative.hpp">
<polygon fill="none" stroke="black" points="609,-280.5 609,-299.5 749,-299.5 749,-280.5 609,-280.5"/>
<text text-anchor="middle" x="679" y="-287.5" font-family="Helvetica,sans-Serif" font-size="10.00">virtual_sites_relative.hpp</text>
</a>
</g>
</g>
<!-- Node26&#45;&gt;Node28 -->
<g id="edge39" class="edge"><title>Node26&#45;&gt;Node28</title>
<path fill="none" stroke="midnightblue" d="M653.954,-336.083C658.104,-328.613 664.153,-317.724 669.267,-308.52"/>
<polygon fill="midnightblue" stroke="midnightblue" points="672.341,-310.192 674.138,-299.751 666.222,-306.793 672.341,-310.192"/>
</g>
<!-- Node27&#45;&gt;Node9 -->
<g id="edge37" class="edge"><title>Node27&#45;&gt;Node9</title>
<path fill="none" stroke="midnightblue" d="M829.438,-280.163C830.353,-252.261 829.584,-164.771 788,-112 775.867,-96.6023 757.077,-86.057 739.798,-79.0686"/>
<polygon fill="midnightblue" stroke="midnightblue" points="740.998,-75.7807 730.405,-75.5439 738.538,-82.3344 740.998,-75.7807"/>
</g>
<!-- Node27&#45;&gt;Node23 -->
<g id="edge38" class="edge"><title>Node27&#45;&gt;Node23</title>
<path fill="none" stroke="midnightblue" d="M783.682,-280.444C733.372,-270.944 652.162,-255.611 598.187,-245.42"/>
<polygon fill="midnightblue" stroke="midnightblue" points="598.581,-241.933 588.106,-243.516 597.283,-248.811 598.581,-241.933"/>
</g>
<!-- Node28&#45;&gt;Node9 -->
<g id="edge40" class="edge"><title>Node28&#45;&gt;Node9</title>
<path fill="none" stroke="midnightblue" d="M686.559,-280.247C705.527,-257.633 754.841,-194.636 772,-132 774.349,-123.427 776.357,-119.748 772,-112 763.779,-97.3782 748.669,-86.9543 734.237,-79.8465"/>
<polygon fill="midnightblue" stroke="midnightblue" points="735.484,-76.5693 724.929,-75.6437 732.603,-82.9491 735.484,-76.5693"/>
</g>
<!-- Node28&#45;&gt;Node23 -->
<g id="edge41" class="edge"><title>Node28&#45;&gt;Node23</title>
<path fill="none" stroke="midnightblue" d="M657.45,-280.444C634.969,-271.517 599.512,-257.439 574.02,-247.317"/>
<polygon fill="midnightblue" stroke="midnightblue" points="575.035,-243.954 564.449,-243.516 572.451,-250.46 575.035,-243.954"/>
</g>
</g>
</svg>
        <g id="navigator" transform="translate(0 0)" fill="#404254">
                <rect fill="#f2f5e9" fill-opacity="0.5" stroke="#606060" stroke-width=".5" x="0" y="0" width="60" height="60"/>
                <use id="zoomplus" xlink:href="#zoomPlus" x="17" y="9" onmousedown="handleZoom(evt,'in')"/>
                <use id="zoomminus" xlink:href="#zoomMin" x="42" y="9" onmousedown="handleZoom(evt,'out')"/>
                <use id="reset" xlink:href="#resetDef" x="30" y="36" onmousedown="handleReset()"/>
                <g id="arrowUp" xlink:href="#dirArrow" transform="translate(30 24)" onmousedown="handlePan(0,-1)">
                  <use xlink:href="#rim" fill="#404040">
                        <set attributeName="fill" to="#808080" begin="arrowUp.mouseover" end="arrowUp.mouseout"/>
                  </use>
                  <path fill="none" stroke="white" stroke-width="1.5" d="M0,-3.0v7 M-2.5,-0.5L0,-3.0L2.5,-0.5"/>
                </g>
                <g id="arrowRight" xlink:href="#dirArrow" transform="rotate(90) translate(36 -43)" onmousedown="handlePan(1,0)">
                  <use xlink:href="#rim" fill="#404040">
                        <set attributeName="fill" to="#808080" begin="arrowRight.mouseover" end="arrowRight.mouseout"/>
                  </use>
                  <path fill="none" stroke="white" stroke-width="1.5" d="M0,-3.0v7 M-2.5,-0.5L0,-3.0L2.5,-0.5"/>
                </g>
                <g id="arrowDown" xlink:href="#dirArrow" transform="rotate(180) translate(-30 -48)" onmousedown="handlePan(0,1)">
                  <use xlink:href="#rim" fill="#404040">
                        <set attributeName="fill" to="#808080" begin="arrowDown.mouseover" end="arrowDown.mouseout"/>
                  </use>
                  <path fill="none" stroke="white" stroke-width="1.5" d="M0,-3.0v7 M-2.5,-0.5L0,-3.0L2.5,-0.5"/>
                </g>
                <g id="arrowLeft" xlink:href="#dirArrow" transform="rotate(270) translate(-36 17)" onmousedown="handlePan(-1,0)">
                  <use xlink:href="#rim" fill="#404040">
                        <set attributeName="fill" to="#808080" begin="arrowLeft.mouseover" end="arrowLeft.mouseout"/>
                  </use>
                  <path fill="none" stroke="white" stroke-width="1.5" d="M0,-3.0v7 M-2.5,-0.5L0,-3.0L2.5,-0.5"/>
                </g>
        </g>
        <svg viewBox="0 0 15 15" width="100%" height="30px" preserveAspectRatio="xMaxYMin meet">
         <g id="arrow_out" transform="scale(0.3 0.3)">
          <a xlink:href="reaction__field__tcl_8cpp__incl_org.svg" target="_base">
           <rect id="button" ry="5" rx="5" y="6" x="6" height="38" width="38"
                fill="#f2f5e9" fill-opacity="0.5" stroke="#606060" stroke-width="1.0"/>
           <path id="arrow"
             d="M 11.500037,31.436501 C 11.940474,20.09759 22.043105,11.32322 32.158766,21.979434 L 37.068811,17.246167 C 37.068811,17.246167 37.088388,32 37.088388,32 L 22.160133,31.978069 C 22.160133,31.978069 26.997745,27.140456 26.997745,27.140456 C 18.528582,18.264221 13.291696,25.230495 11.500037,31.436501 z"
             style="fill:#404040;"/>
          </a>
         </g>
        </svg>
</svg>
