<?xml version="1.0" encoding="UTF-8" standalone="no"?>
<!DOCTYPE svg PUBLIC "-//W3C//DTD SVG 1.1//EN"
 "http://www.w3.org/Graphics/SVG/1.1/DTD/svg11.dtd">
<!-- Generated by graphviz version 2.38.0 (20140413.2041)
 -->
<!-- Title: reaction_field_tcl.hpp Pages: 1 -->
<svg width="280pt" height="84pt"
 viewBox="0.00 0.00 280.00 84.00" xmlns="http://www.w3.org/2000/svg" xmlns:xlink="http://www.w3.org/1999/xlink">
<g id="graph0" class="graph" transform="scale(1 1) rotate(0) translate(4 80)">
<title>reaction_field_tcl.hpp</title>
<!-- Node1 -->
<g id="node1" class="node"><title>Node1</title>
<polygon fill="#bfbfbf" stroke="black" points="78.5,-56.5 78.5,-75.5 199.5,-75.5 199.5,-56.5 78.5,-56.5"/>
<text text-anchor="middle" x="139" y="-63.5" font-family="Helvetica,sans-Serif" font-size="10.00">reaction_field_tcl.hpp</text>
</g>
<!-- Node2 -->
<g id="node2" class="node"><title>Node2</title>
<g id="a_node2"><a xlink:href="interaction__data__tcl_8cpp.html" target="_top" xlink:title="interaction_data_tcl.cpp">
<polygon fill="none" stroke="black" points="0,-0.5 0,-19.5 134,-19.5 134,-0.5 0,-0.5"/>
<text text-anchor="middle" x="67" y="-7.5" font-family="Helvetica,sans-Serif" font-size="10.00">interaction_data_tcl.cpp</text>
</a>
</g>
</g>
<!-- Node1&#45;&gt;Node2 -->
<g id="edge1" class="edge"><title>Node1&#45;&gt;Node2</title>
<path fill="none" stroke="midnightblue" d="M119.134,-50.1008C106.177,-40.3824 89.7026,-28.0269 78.7785,-19.8339"/>
<polygon fill="midnightblue" stroke="midnightblue" points="117.332,-53.1239 127.432,-56.324 121.532,-47.5239 117.332,-53.1239"/>
</g>
<!-- Node3 -->
<g id="node3" class="node"><title>Node3</title>
<g id="a_node3"><a xlink:href="reaction__field__tcl_8cpp.html" target="_top" xlink:title="Implementation of reaction_field_tcl.hpp. ">
<polygon fill="none" stroke="black" points="152,-0.5 152,-19.5 272,-19.5 272,-0.5 152,-0.5"/>
<text text-anchor="middle" x="212" y="-7.5" font-family="Helvetica,sans-Serif" font-size="10.00">reaction_field_tcl.cpp</text>
</a>
</g>
</g>
<!-- Node1&#45;&gt;Node3 -->
<g id="edge2" class="edge"><title>Node1&#45;&gt;Node3</title>
<path fill="none" stroke="midnightblue" d="M159.142,-50.1008C172.279,-40.3824 188.982,-28.0269 200.058,-19.8339"/>
<polygon fill="midnightblue" stroke="midnightblue" points="156.687,-47.5631 150.729,-56.324 160.85,-53.1907 156.687,-47.5631"/>
</g>
</g>
</svg>
