<?xml version="1.0" encoding="UTF-8" standalone="no"?>
<!DOCTYPE svg PUBLIC "-//W3C//DTD SVG 1.1//EN"
 "http://www.w3.org/Graphics/SVG/1.1/DTD/svg11.dtd">
<!-- Generated by graphviz version 2.38.0 (20140413.2041)
 -->
<!-- Title: rotation.hpp Pages: 1 -->
<svg width="1099pt" height="84pt"
 viewBox="0.00 0.00 1098.50 84.00" xmlns="http://www.w3.org/2000/svg" xmlns:xlink="http://www.w3.org/1999/xlink">
<g id="graph0" class="graph" transform="scale(1 1) rotate(0) translate(4 80)">
<title>rotation.hpp</title>
<!-- Node1 -->
<g id="node1" class="node"><title>Node1</title>
<polygon fill="#bfbfbf" stroke="black" points="456.5,-56.5 456.5,-75.5 532.5,-75.5 532.5,-56.5 456.5,-56.5"/>
<text text-anchor="middle" x="494.5" y="-63.5" font-family="Helvetica,sans-Serif" font-size="10.00">rotation.hpp</text>
</g>
<!-- Node2 -->
<g id="node2" class="node"><title>Node2</title>
<g id="a_node2"><a xlink:href="communication_8cpp.html" target="_top" xlink:title="communication.cpp">
<polygon fill="none" stroke="black" points="0,-0.5 0,-19.5 113,-19.5 113,-0.5 0,-0.5"/>
<text text-anchor="middle" x="56.5" y="-7.5" font-family="Helvetica,sans-Serif" font-size="10.00">communication.cpp</text>
</a>
</g>
</g>
<!-- Node1&#45;&gt;Node2 -->
<g id="edge1" class="edge"><title>Node1&#45;&gt;Node2</title>
<path fill="none" stroke="midnightblue" d="M446.349,-59.464C375.253,-51.2282 238.026,-35.095 121.5,-20 118.788,-19.6487 116.014,-19.2842 113.212,-18.9121"/>
<polygon fill="midnightblue" stroke="midnightblue" points="446.012,-62.9483 456.348,-60.6208 446.817,-55.9947 446.012,-62.9483"/>
</g>
<!-- Node3 -->
<g id="node3" class="node"><title>Node3</title>
<g id="a_node3"><a xlink:href="initialize_8cpp.html" target="_top" xlink:title="Implementation of initialize.hpp. ">
<polygon fill="none" stroke="black" points="131,-0.5 131,-19.5 210,-19.5 210,-0.5 131,-0.5"/>
<text text-anchor="middle" x="170.5" y="-7.5" font-family="Helvetica,sans-Serif" font-size="10.00">initialize.cpp</text>
</a>
</g>
</g>
<!-- Node1&#45;&gt;Node3 -->
<g id="edge2" class="edge"><title>Node1&#45;&gt;Node3</title>
<path fill="none" stroke="midnightblue" d="M445.864,-57.4278C390.681,-48.7532 298.018,-33.9352 218.5,-20 215.744,-19.517 212.901,-19.009 210.039,-18.4905"/>
<polygon fill="midnightblue" stroke="midnightblue" points="445.631,-60.934 456.053,-59.0265 446.716,-54.0186 445.631,-60.934"/>
</g>
<!-- Node4 -->
<g id="node4" class="node"><title>Node4</title>
<g id="a_node4"><a xlink:href="core_2integrate_8cpp.html" target="_top" xlink:title="integrate.cpp">
<polygon fill="none" stroke="black" points="228,-0.5 228,-19.5 309,-19.5 309,-0.5 228,-0.5"/>
<text text-anchor="middle" x="268.5" y="-7.5" font-family="Helvetica,sans-Serif" font-size="10.00">integrate.cpp</text>
</a>
</g>
</g>
<!-- Node1&#45;&gt;Node4 -->
<g id="edge3" class="edge"><title>Node1&#45;&gt;Node4</title>
<path fill="none" stroke="midnightblue" d="M448.833,-54.0884C406.136,-43.8865 343.252,-28.8612 304.143,-19.5164"/>
<polygon fill="midnightblue" stroke="midnightblue" points="448.15,-57.5237 458.69,-56.4435 449.777,-50.7153 448.15,-57.5237"/>
</g>
<!-- Node5 -->
<g id="node5" class="node"><title>Node5</title>
<g id="a_node5"><a xlink:href="integrate__sd_8cpp.html" target="_top" xlink:title="Stokesian dynamics integrator. ">
<polygon fill="none" stroke="black" points="327.5,-0.5 327.5,-19.5 425.5,-19.5 425.5,-0.5 327.5,-0.5"/>
<text text-anchor="middle" x="376.5" y="-7.5" font-family="Helvetica,sans-Serif" font-size="10.00">integrate_sd.cpp</text>
</a>
</g>
</g>
<!-- Node1&#45;&gt;Node5 -->
<g id="edge4" class="edge"><title>Node1&#45;&gt;Node5</title>
<path fill="none" stroke="midnightblue" d="M466.6,-52.2321C444.527,-42.1312 414.324,-28.3091 395.11,-19.5164"/>
<polygon fill="midnightblue" stroke="midnightblue" points="465.253,-55.4648 475.803,-56.4435 468.166,-49.0997 465.253,-55.4648"/>
</g>
<!-- Node6 -->
<g id="node6" class="node"><title>Node6</title>
<g id="a_node6"><a xlink:href="core_2particle__data_8cpp.html" target="_top" xlink:title="particle_data.cpp">
<polygon fill="none" stroke="black" points="444,-0.5 444,-19.5 545,-19.5 545,-0.5 444,-0.5"/>
<text text-anchor="middle" x="494.5" y="-7.5" font-family="Helvetica,sans-Serif" font-size="10.00">particle_data.cpp</text>
</a>
</g>
</g>
<!-- Node1&#45;&gt;Node6 -->
<g id="edge5" class="edge"><title>Node1&#45;&gt;Node6</title>
<path fill="none" stroke="midnightblue" d="M494.5,-45.8045C494.5,-36.9102 494.5,-26.7798 494.5,-19.7511"/>
<polygon fill="midnightblue" stroke="midnightblue" points="491,-46.083 494.5,-56.083 498,-46.083 491,-46.083"/>
</g>
<!-- Node7 -->
<g id="node7" class="node"><title>Node7</title>
<g id="a_node7"><a xlink:href="rotation_8cpp.html" target="_top" xlink:title="Molecular dynamics integrator for rotational motion. ">
<polygon fill="none" stroke="black" points="563,-0.5 563,-19.5 638,-19.5 638,-0.5 563,-0.5"/>
<text text-anchor="middle" x="600.5" y="-7.5" font-family="Helvetica,sans-Serif" font-size="10.00">rotation.cpp</text>
</a>
</g>
</g>
<!-- Node1&#45;&gt;Node7 -->
<g id="edge6" class="edge"><title>Node1&#45;&gt;Node7</title>
<path fill="none" stroke="midnightblue" d="M520.556,-51.7261C540.184,-41.7271 566.528,-28.3065 583.512,-19.6545"/>
<polygon fill="midnightblue" stroke="midnightblue" points="518.852,-48.666 511.531,-56.324 522.03,-54.9033 518.852,-48.666"/>
</g>
<!-- Node8 -->
<g id="node8" class="node"><title>Node8</title>
<g id="a_node8"><a xlink:href="statistics__observable_8cpp.html" target="_top" xlink:title="statistics_observable.cpp">
<polygon fill="none" stroke="black" points="656.5,-0.5 656.5,-19.5 796.5,-19.5 796.5,-0.5 656.5,-0.5"/>
<text text-anchor="middle" x="726.5" y="-7.5" font-family="Helvetica,sans-Serif" font-size="10.00">statistics_observable.cpp</text>
</a>
</g>
</g>
<!-- Node1&#45;&gt;Node8 -->
<g id="edge7" class="edge"><title>Node1&#45;&gt;Node8</title>
<path fill="none" stroke="midnightblue" d="M541.103,-54.1529C584.937,-43.95 649.678,-28.8809 689.911,-19.5164"/>
<polygon fill="midnightblue" stroke="midnightblue" points="540.207,-50.7676 531.261,-56.4435 541.794,-57.5854 540.207,-50.7676"/>
</g>
<!-- Node9 -->
<g id="node9" class="node"><title>Node9</title>
<g id="a_node9"><a xlink:href="virtual__sites__relative_8cpp.html" target="_top" xlink:title="virtual_sites_relative.cpp">
<polygon fill="none" stroke="black" points="814.5,-0.5 814.5,-19.5 954.5,-19.5 954.5,-0.5 814.5,-0.5"/>
<text text-anchor="middle" x="884.5" y="-7.5" font-family="Helvetica,sans-Serif" font-size="10.00">virtual_sites_relative.cpp</text>
</a>
</g>
</g>
<!-- Node1&#45;&gt;Node9 -->
<g id="edge8" class="edge"><title>Node1&#45;&gt;Node9</title>
<path fill="none" stroke="midnightblue" d="M542.578,-58.343C613.286,-48.5527 745.318,-30.2713 822.997,-19.5158"/>
<polygon fill="midnightblue" stroke="midnightblue" points="542.03,-54.8854 532.605,-59.7239 542.991,-61.8192 542.03,-54.8854"/>
</g>
<!-- Node10 -->
<g id="node10" class="node"><title>Node10</title>
<g id="a_node10"><a xlink:href="particle__data__tcl_8cpp.html" target="_top" xlink:title="particle_data_tcl.cpp">
<polygon fill="none" stroke="black" points="972.5,-0.5 972.5,-19.5 1090.5,-19.5 1090.5,-0.5 972.5,-0.5"/>
<text text-anchor="middle" x="1031.5" y="-7.5" font-family="Helvetica,sans-Serif" font-size="10.00">particle_data_tcl.cpp</text>
</a>
</g>
</g>
<!-- Node1&#45;&gt;Node10 -->
<g id="edge9" class="edge"><title>Node1&#45;&gt;Node10</title>
<path fill="none" stroke="midnightblue" d="M542.668,-60.9534C627.713,-53.6806 810.003,-37.5161 963.5,-20 966.34,-19.676 969.244,-19.3336 972.177,-18.9791"/>
<polygon fill="midnightblue" stroke="midnightblue" points="542.21,-57.4797 532.544,-61.8165 542.805,-64.4544 542.21,-57.4797"/>
</g>
</g>
</svg>
