<?xml version="1.0" encoding="UTF-8" standalone="no"?>
<!DOCTYPE svg PUBLIC "-//W3C//DTD SVG 1.1//EN"
 "http://www.w3.org/Graphics/SVG/1.1/DTD/svg11.dtd">
<!-- Generated by graphviz version 2.38.0 (20140413.2041)
 -->
<!-- Title: RuntimeErrorCollector.hpp Pages: 1 -->
<svg width="272pt" height="84pt"
 viewBox="0.00 0.00 271.50 84.00" xmlns="http://www.w3.org/2000/svg" xmlns:xlink="http://www.w3.org/1999/xlink">
<g id="graph0" class="graph" transform="scale(1 1) rotate(0) translate(4 80)">
<title>RuntimeErrorCollector.hpp</title>
<!-- Node1 -->
<g id="node1" class="node"><title>Node1</title>
<polygon fill="#bfbfbf" stroke="black" points="49,-56.5 49,-75.5 193,-75.5 193,-56.5 49,-56.5"/>
<text text-anchor="middle" x="121" y="-63.5" font-family="Helvetica,sans-Serif" font-size="10.00">RuntimeErrorCollector.hpp</text>
</g>
<!-- Node2 -->
<g id="node2" class="node"><title>Node2</title>
<g id="a_node2"><a xlink:href="errorhandling_8cpp.html" target="_top" xlink:title="Implementation of errorhandling.hpp. ">
<polygon fill="none" stroke="black" points="0,-0.5 0,-19.5 102,-19.5 102,-0.5 0,-0.5"/>
<text text-anchor="middle" x="51" y="-7.5" font-family="Helvetica,sans-Serif" font-size="10.00">errorhandling.cpp</text>
</a>
</g>
</g>
<!-- Node1&#45;&gt;Node2 -->
<g id="edge1" class="edge"><title>Node1&#45;&gt;Node2</title>
<path fill="none" stroke="midnightblue" d="M101.686,-50.1008C89.0883,-40.3824 73.0719,-28.0269 62.4513,-19.8339"/>
<polygon fill="midnightblue" stroke="midnightblue" points="99.6976,-52.9871 109.753,-56.324 103.973,-47.4446 99.6976,-52.9871"/>
</g>
<!-- Node3 -->
<g id="node3" class="node"><title>Node3</title>
<g id="a_node3"><a xlink:href="RuntimeErrorCollector_8cpp.html" target="_top" xlink:title="RuntimeErrorCollector.cpp">
<polygon fill="none" stroke="black" points="120.5,-0.5 120.5,-19.5 263.5,-19.5 263.5,-0.5 120.5,-0.5"/>
<text text-anchor="middle" x="192" y="-7.5" font-family="Helvetica,sans-Serif" font-size="10.00">RuntimeErrorCollector.cpp</text>
</a>
</g>
</g>
<!-- Node1&#45;&gt;Node3 -->
<g id="edge2" class="edge"><title>Node1&#45;&gt;Node3</title>
<path fill="none" stroke="midnightblue" d="M140.59,-50.1008C153.368,-40.3824 169.613,-28.0269 180.385,-19.8339"/>
<polygon fill="midnightblue" stroke="midnightblue" points="138.248,-47.4844 132.407,-56.324 142.486,-53.0561 138.248,-47.4844"/>
</g>
</g>
</svg>
