<?xml version="1.0" encoding="UTF-8" standalone="no"?>
<!DOCTYPE svg PUBLIC "-//W3C//DTD SVG 1.1//EN"
 "http://www.w3.org/Graphics/SVG/1.1/DTD/svg11.dtd">
<!-- Generated by graphviz version 2.38.0 (20140413.2041)
 -->
<!-- Title: RuntimeErrorCollector.cpp Pages: 1 -->
<!--zoomable 364 -->
<svg id="main" version="1.1" xmlns="http://www.w3.org/2000/svg" xmlns:xlink="http://www.w3.org/1999/xlink" xml:space="preserve" onload="init(evt)">
<style type="text/css"><![CDATA[
.edge:hover path { stroke: red; }
.edge:hover polygon { stroke: red; fill: red; }
]]></style>
<script type="text/javascript"><![CDATA[
var edges = document.getElementsByTagName('g');
if (edges && edges.length) {
  for (var i=0;i<edges.length;i++) {
    if (edges[i].id.substr(0,4)=='edge') {
      edges[i].setAttribute('class','edge');
    }
  }
}
]]></script>
        <defs>
                <circle id="rim" cx="0" cy="0" r="7"/>
                <circle id="rim2" cx="0" cy="0" r="3.5"/>
                <g id="zoomPlus">
                        <use xlink:href="#rim" fill="#404040">
                                <set attributeName="fill" to="#808080" begin="zoomplus.mouseover" end="zoomplus.mouseout"/>
                        </use>
                        <path d="M-4,0h8M0,-4v8" fill="none" stroke="white" stroke-width="1.5" pointer-events="none"/>
                </g>
                <g id="zoomMin">
                        <use xlink:href="#rim" fill="#404040">
                                <set attributeName="fill" to="#808080" begin="zoomminus.mouseover" end="zoomminus.mouseout"/>
                        </use>
                        <path d="M-4,0h8" fill="none" stroke="white" stroke-width="1.5" pointer-events="none"/>
                </g>
                <g id="dirArrow">
                        <path fill="none" stroke="white" stroke-width="1.5" d="M0,-3.0v7 M-2.5,-0.5L0,-3.0L2.5,-0.5"/>
                </g>
               <g id="resetDef">
                       <use xlink:href="#rim2" fill="#404040">
                               <set attributeName="fill" to="#808080" begin="reset.mouseover" end="reset.mouseout"/>
                       </use>
               </g>
        </defs>

<script type="text/javascript">
var viewWidth = 1093;
var viewHeight = 364;
var sectionId = 'dynsection-0';
</script>
<script xlink:href="svgpan.js"/>
<svg id="graph" class="graph">
<g id="viewport">
<title>RuntimeErrorCollector.cpp</title>
<!-- Node1 -->
<g id="node1" class="node"><title>Node1</title>
<polygon fill="#bfbfbf" stroke="black" points="203,-336.5 203,-355.5 346,-355.5 346,-336.5 203,-336.5"/>
<text text-anchor="middle" x="274.5" y="-343.5" font-family="Helvetica,sans-Serif" font-size="10.00">RuntimeErrorCollector.cpp</text>
</g>
<!-- Node2 -->
<g id="node2" class="node"><title>Node2</title>
<g id="a_node2"><a xlink:href="RuntimeErrorCollector_8hpp.html" target="_top" xlink:title="RuntimeErrorCollector.hpp">
<polygon fill="none" stroke="black" points="102.5,-112.5 102.5,-131.5 246.5,-131.5 246.5,-112.5 102.5,-112.5"/>
<text text-anchor="middle" x="174.5" y="-119.5" font-family="Helvetica,sans-Serif" font-size="10.00">RuntimeErrorCollector.hpp</text>
</a>
</g>
</g>
<!-- Node1&#45;&gt;Node2 -->
<g id="edge1" class="edge"><title>Node1&#45;&gt;Node2</title>
<path fill="none" stroke="midnightblue" d="M270.58,-336.297C255.772,-303.425 203.055,-186.391 182.649,-141.09"/>
<polygon fill="midnightblue" stroke="midnightblue" points="185.8,-139.564 178.502,-131.884 179.418,-142.439 185.8,-139.564"/>
</g>
<!-- Node13 -->
<g id="node13" class="node"><title>Node13</title>
<polygon fill="none" stroke="#bfbfbf" points="298.5,-56.5 298.5,-75.5 354.5,-75.5 354.5,-56.5 298.5,-56.5"/>
<text text-anchor="middle" x="326.5" y="-63.5" font-family="Helvetica,sans-Serif" font-size="10.00">sstream</text>
</g>
<!-- Node1&#45;&gt;Node13 -->
<g id="edge12" class="edge"><title>Node1&#45;&gt;Node13</title>
<path fill="none" stroke="midnightblue" d="M274.5,-336.442C274.5,-317.936 274.5,-272.812 274.5,-235 274.5,-235 274.5,-235 274.5,-177 274.5,-146.902 280.177,-138.988 293.5,-112 298.476,-101.92 305.721,-91.7332 312.155,-83.6069"/>
<polygon fill="midnightblue" stroke="midnightblue" points="315.013,-85.6427 318.674,-75.7004 309.612,-81.1898 315.013,-85.6427"/>
</g>
<!-- Node14 -->
<g id="node14" class="node"><title>Node14</title>
<g id="a_node14"><a xlink:href="communication_8hpp.html" target="_top" xlink:title="This file contains the asynchronous MPI communication. ">
<polygon fill="none" stroke="black" points="473,-280.5 473,-299.5 586,-299.5 586,-280.5 473,-280.5"/>
<text text-anchor="middle" x="529.5" y="-287.5" font-family="Helvetica,sans-Serif" font-size="10.00">communication.hpp</text>
</a>
</g>
</g>
<!-- Node1&#45;&gt;Node14 -->
<g id="edge13" class="edge"><title>Node1&#45;&gt;Node14</title>
<path fill="none" stroke="midnightblue" d="M314.906,-336.444C359.483,-327.004 431.268,-311.802 479.392,-301.611"/>
<polygon fill="midnightblue" stroke="midnightblue" points="480.226,-305.012 489.284,-299.516 478.775,-298.164 480.226,-305.012"/>
</g>
<!-- Node3 -->
<g id="node3" class="node"><title>Node3</title>
<g id="a_node3"><a xlink:href="config_8hpp.html" target="_top" xlink:title="This file contains the defaults for Espresso. ">
<polygon fill="none" stroke="black" points="629,-56.5 629,-75.5 696,-75.5 696,-56.5 629,-56.5"/>
<text text-anchor="middle" x="662.5" y="-63.5" font-family="Helvetica,sans-Serif" font-size="10.00">config.hpp</text>
</a>
</g>
</g>
<!-- Node2&#45;&gt;Node3 -->
<g id="edge2" class="edge"><title>Node2&#45;&gt;Node3</title>
<path fill="none" stroke="midnightblue" d="M246.506,-113.032C349.202,-101.668 534.602,-81.1526 618.793,-71.8364"/>
<polygon fill="midnightblue" stroke="midnightblue" points="619.232,-75.3093 628.786,-70.7306 618.462,-68.3518 619.232,-75.3093"/>
</g>
<!-- Node7 -->
<g id="node7" class="node"><title>Node7</title>
<polygon fill="none" stroke="#bfbfbf" points="165.5,-56.5 165.5,-75.5 197.5,-75.5 197.5,-56.5 165.5,-56.5"/>
<text text-anchor="middle" x="181.5" y="-63.5" font-family="Helvetica,sans-Serif" font-size="10.00">list</text>
</g>
<!-- Node2&#45;&gt;Node7 -->
<g id="edge6" class="edge"><title>Node2&#45;&gt;Node7</title>
<path fill="none" stroke="midnightblue" d="M175.656,-112.083C176.584,-104.927 177.918,-94.6353 179.077,-85.6911"/>
<polygon fill="midnightblue" stroke="midnightblue" points="182.551,-86.1181 180.366,-75.7511 175.609,-85.2181 182.551,-86.1181"/>
</g>
<!-- Node8 -->
<g id="node8" class="node"><title>Node8</title>
<polygon fill="none" stroke="#bfbfbf" points="222.5,-56.5 222.5,-75.5 266.5,-75.5 266.5,-56.5 222.5,-56.5"/>
<text text-anchor="middle" x="244.5" y="-63.5" font-family="Helvetica,sans-Serif" font-size="10.00">string</text>
</g>
<!-- Node2&#45;&gt;Node8 -->
<g id="edge7" class="edge"><title>Node2&#45;&gt;Node8</title>
<path fill="none" stroke="midnightblue" d="M185.747,-112.324C196.297,-104.185 212.301,-91.8395 224.942,-82.0874"/>
<polygon fill="midnightblue" stroke="midnightblue" points="227.269,-84.7132 233.049,-75.8339 222.993,-79.1707 227.269,-84.7132"/>
</g>
<!-- Node9 -->
<g id="node9" class="node"><title>Node9</title>
<g id="a_node9"><a xlink:href="mpi_8h.html" target="_top" xlink:title="This is the MPIfake implementation. ">
<polygon fill="none" stroke="black" points="74.5,-56.5 74.5,-75.5 118.5,-75.5 118.5,-56.5 74.5,-56.5"/>
<text text-anchor="middle" x="96.5" y="-63.5" font-family="Helvetica,sans-Serif" font-size="10.00">mpi.h</text>
</a>
</g>
</g>
<!-- Node2&#45;&gt;Node9 -->
<g id="edge8" class="edge"><title>Node2&#45;&gt;Node9</title>
<path fill="none" stroke="midnightblue" d="M161.968,-112.324C149.914,-103.979 131.473,-91.2122 117.231,-81.3524"/>
<polygon fill="midnightblue" stroke="midnightblue" points="119.215,-78.469 109.001,-75.6545 115.231,-84.2243 119.215,-78.469"/>
</g>
<!-- Node4 -->
<g id="node4" class="node"><title>Node4</title>
<g id="a_node4"><a xlink:href="acconfig_8hpp.html" target="_top" xlink:title="acconfig.hpp">
<polygon fill="none" stroke="black" points="512.5,-0.5 512.5,-19.5 590.5,-19.5 590.5,-0.5 512.5,-0.5"/>
<text text-anchor="middle" x="551.5" y="-7.5" font-family="Helvetica,sans-Serif" font-size="10.00">acconfig.hpp</text>
</a>
</g>
</g>
<!-- Node3&#45;&gt;Node4 -->
<g id="edge3" class="edge"><title>Node3&#45;&gt;Node4</title>
<path fill="none" stroke="midnightblue" d="M644.666,-56.324C626.784,-47.6247 599.025,-34.1202 578.454,-24.113"/>
<polygon fill="midnightblue" stroke="midnightblue" points="579.813,-20.8819 569.29,-19.6545 576.751,-27.1765 579.813,-20.8819"/>
</g>
<!-- Node5 -->
<g id="node5" class="node"><title>Node5</title>
<g id="a_node5"><a xlink:href="myconfig-final_8hpp.html" target="_top" xlink:title="myconfig&#45;final.hpp">
<polygon fill="none" stroke="black" points="609,-0.5 609,-19.5 716,-19.5 716,-0.5 609,-0.5"/>
<text text-anchor="middle" x="662.5" y="-7.5" font-family="Helvetica,sans-Serif" font-size="10.00">myconfig&#45;final.hpp</text>
</a>
</g>
</g>
<!-- Node3&#45;&gt;Node5 -->
<g id="edge4" class="edge"><title>Node3&#45;&gt;Node5</title>
<path fill="none" stroke="midnightblue" d="M662.5,-56.083C662.5,-49.0059 662.5,-38.8611 662.5,-29.9865"/>
<polygon fill="midnightblue" stroke="midnightblue" points="666,-29.751 662.5,-19.7511 659,-29.7511 666,-29.751"/>
</g>
<!-- Node6 -->
<g id="node6" class="node"><title>Node6</title>
<g id="a_node6"><a xlink:href="config-features_8hpp.html" target="_top" xlink:title="config&#45;features.hpp">
<polygon fill="none" stroke="black" points="734,-0.5 734,-19.5 845,-19.5 845,-0.5 734,-0.5"/>
<text text-anchor="middle" x="789.5" y="-7.5" font-family="Helvetica,sans-Serif" font-size="10.00">config&#45;features.hpp</text>
</a>
</g>
</g>
<!-- Node3&#45;&gt;Node6 -->
<g id="edge5" class="edge"><title>Node3&#45;&gt;Node6</title>
<path fill="none" stroke="midnightblue" d="M682.624,-56.4435C703.524,-47.5566 736.435,-33.5632 760.216,-23.4514"/>
<polygon fill="midnightblue" stroke="midnightblue" points="761.638,-26.6504 769.471,-19.5164 758.898,-20.2085 761.638,-26.6504"/>
</g>
<!-- Node10 -->
<g id="node10" class="node"><title>Node10</title>
<polygon fill="none" stroke="#bfbfbf" points="0,-0.5 0,-19.5 53,-19.5 53,-0.5 0,-0.5"/>
<text text-anchor="middle" x="26.5" y="-7.5" font-family="Helvetica,sans-Serif" font-size="10.00">string.h</text>
</g>
<!-- Node9&#45;&gt;Node10 -->
<g id="edge9" class="edge"><title>Node9&#45;&gt;Node10</title>
<path fill="none" stroke="midnightblue" d="M85.2533,-56.324C74.7026,-48.1849 58.6993,-35.8395 46.0578,-26.0874"/>
<polygon fill="midnightblue" stroke="midnightblue" points="48.007,-23.1707 37.9513,-19.8339 43.7314,-28.7132 48.007,-23.1707"/>
</g>
<!-- Node11 -->
<g id="node11" class="node"><title>Node11</title>
<polygon fill="none" stroke="#bfbfbf" points="71.5,-0.5 71.5,-19.5 121.5,-19.5 121.5,-0.5 71.5,-0.5"/>
<text text-anchor="middle" x="96.5" y="-7.5" font-family="Helvetica,sans-Serif" font-size="10.00">stdio.h</text>
</g>
<!-- Node9&#45;&gt;Node11 -->
<g id="edge10" class="edge"><title>Node9&#45;&gt;Node11</title>
<path fill="none" stroke="midnightblue" d="M96.5,-56.083C96.5,-49.0059 96.5,-38.8611 96.5,-29.9865"/>
<polygon fill="midnightblue" stroke="midnightblue" points="100,-29.751 96.5,-19.7511 93.0001,-29.7511 100,-29.751"/>
</g>
<!-- Node12 -->
<g id="node12" class="node"><title>Node12</title>
<polygon fill="none" stroke="#bfbfbf" points="140,-0.5 140,-19.5 193,-19.5 193,-0.5 140,-0.5"/>
<text text-anchor="middle" x="166.5" y="-7.5" font-family="Helvetica,sans-Serif" font-size="10.00">stdlib.h</text>
</g>
<!-- Node9&#45;&gt;Node12 -->
<g id="edge11" class="edge"><title>Node9&#45;&gt;Node12</title>
<path fill="none" stroke="midnightblue" d="M107.747,-56.324C118.297,-48.1849 134.301,-35.8395 146.942,-26.0874"/>
<polygon fill="midnightblue" stroke="midnightblue" points="149.269,-28.7132 155.049,-19.8339 144.993,-23.1707 149.269,-28.7132"/>
</g>
<!-- Node14&#45;&gt;Node9 -->
<g id="edge36" class="edge"><title>Node14&#45;&gt;Node9</title>
<path fill="none" stroke="midnightblue" d="M472.736,-287.889C375.873,-282.554 180.697,-256.077 93.5,-132 84.0796,-118.595 86.2959,-99.5169 89.9874,-85.4956"/>
<polygon fill="midnightblue" stroke="midnightblue" points="93.3328,-86.5242 92.9296,-75.937 86.6426,-84.4649 93.3328,-86.5242"/>
</g>
<!-- Node15 -->
<g id="node15" class="node"><title>Node15</title>
<g id="a_node15"><a xlink:href="particle__data_8hpp.html" target="_top" xlink:title="For more information on particle_data, see particle_data.c. ">
<polygon fill="none" stroke="black" points="635,-224.5 635,-243.5 736,-243.5 736,-224.5 635,-224.5"/>
<text text-anchor="middle" x="685.5" y="-231.5" font-family="Helvetica,sans-Serif" font-size="10.00">particle_data.hpp</text>
</a>
</g>
</g>
<!-- Node14&#45;&gt;Node15 -->
<g id="edge14" class="edge"><title>Node14&#45;&gt;Node15</title>
<path fill="none" stroke="midnightblue" d="M554.219,-280.444C580.348,-271.399 621.759,-257.064 651.076,-246.916"/>
<polygon fill="midnightblue" stroke="midnightblue" points="652.592,-250.095 660.897,-243.516 650.302,-243.48 652.592,-250.095"/>
</g>
<!-- Node26 -->
<g id="node26" class="node"><title>Node26</title>
<g id="a_node26"><a xlink:href="random_8hpp.html" target="_top" xlink:title="A random generator. ">
<polygon fill="none" stroke="black" points="445,-224.5 445,-243.5 520,-243.5 520,-224.5 445,-224.5"/>
<text text-anchor="middle" x="482.5" y="-231.5" font-family="Helvetica,sans-Serif" font-size="10.00">random.hpp</text>
</a>
</g>
</g>
<!-- Node14&#45;&gt;Node26 -->
<g id="edge32" class="edge"><title>Node14&#45;&gt;Node26</title>
<path fill="none" stroke="midnightblue" d="M521.739,-280.083C514.963,-272.298 504.957,-260.801 496.745,-251.367"/>
<polygon fill="midnightblue" stroke="midnightblue" points="499.322,-248.996 490.117,-243.751 494.042,-253.592 499.322,-248.996"/>
</g>
<!-- Node27 -->
<g id="node27" class="node"><title>Node27</title>
<g id="a_node27"><a xlink:href="topology_8hpp.html" target="_top" xlink:title="This file contains functions for handling the system topology. ">
<polygon fill="none" stroke="black" points="538,-224.5 538,-243.5 617,-243.5 617,-224.5 538,-224.5"/>
<text text-anchor="middle" x="577.5" y="-231.5" font-family="Helvetica,sans-Serif" font-size="10.00">topology.hpp</text>
</a>
</g>
</g>
<!-- Node14&#45;&gt;Node27 -->
<g id="edge34" class="edge"><title>Node14&#45;&gt;Node27</title>
<path fill="none" stroke="midnightblue" d="M537.426,-280.083C544.346,-272.298 554.565,-260.801 562.952,-251.367"/>
<polygon fill="midnightblue" stroke="midnightblue" points="565.694,-253.55 569.721,-243.751 560.462,-248.9 565.694,-253.55"/>
</g>
<!-- Node28 -->
<g id="node28" class="node"><title>Node28</title>
<g id="a_node28"><a xlink:href="cuda__init_8hpp.html" target="_top" xlink:title="cuda_init.hpp">
<polygon fill="none" stroke="black" points="1002.5,-168.5 1002.5,-187.5 1084.5,-187.5 1084.5,-168.5 1002.5,-168.5"/>
<text text-anchor="middle" x="1043.5" y="-175.5" font-family="Helvetica,sans-Serif" font-size="10.00">cuda_init.hpp</text>
</a>
</g>
</g>
<!-- Node14&#45;&gt;Node28 -->
<g id="edge37" class="edge"><title>Node14&#45;&gt;Node28</title>
<path fill="none" stroke="midnightblue" d="M570.933,-280.488C614.433,-271.523 684.81,-256.94 745.5,-244 833.621,-225.211 936.252,-202.682 995.174,-189.687"/>
<polygon fill="midnightblue" stroke="midnightblue" points="995.939,-193.102 1004.95,-187.529 994.43,-186.267 995.939,-193.102"/>
</g>
<!-- Node16 -->
<g id="node16" class="node"><title>Node16</title>
<g id="a_node16"><a xlink:href="utils_8hpp.html" target="_top" xlink:title="Small functions that are useful not only for one modul. ">
<polygon fill="none" stroke="black" points="602,-168.5 602,-187.5 661,-187.5 661,-168.5 602,-168.5"/>
<text text-anchor="middle" x="631.5" y="-175.5" font-family="Helvetica,sans-Serif" font-size="10.00">utils.hpp</text>
</a>
</g>
</g>
<!-- Node15&#45;&gt;Node16 -->
<g id="edge15" class="edge"><title>Node15&#45;&gt;Node16</title>
<path fill="none" stroke="midnightblue" d="M676.583,-224.083C668.72,-216.22 657.069,-204.569 647.581,-195.081"/>
<polygon fill="midnightblue" stroke="midnightblue" points="649.797,-192.347 640.251,-187.751 644.847,-197.297 649.797,-192.347"/>
</g>
<!-- Node16&#45;&gt;Node3 -->
<g id="edge20" class="edge"><title>Node16&#45;&gt;Node3</title>
<path fill="none" stroke="midnightblue" d="M633.933,-168.368C638.958,-150.537 650.58,-109.295 657.351,-85.2717"/>
<polygon fill="midnightblue" stroke="midnightblue" points="660.735,-86.1659 660.079,-75.5914 653.997,-84.2671 660.735,-86.1659"/>
</g>
<!-- Node17 -->
<g id="node17" class="node"><title>Node17</title>
<polygon fill="none" stroke="#bfbfbf" points="424,-112.5 424,-131.5 471,-131.5 471,-112.5 424,-112.5"/>
<text text-anchor="middle" x="447.5" y="-119.5" font-family="Helvetica,sans-Serif" font-size="10.00">cmath</text>
</g>
<!-- Node16&#45;&gt;Node17 -->
<g id="edge16" class="edge"><title>Node16&#45;&gt;Node17</title>
<path fill="none" stroke="midnightblue" d="M602.345,-168.444C569.326,-158.753 515.621,-142.992 480.932,-132.811"/>
<polygon fill="midnightblue" stroke="midnightblue" points="481.834,-129.429 471.253,-129.971 479.863,-136.145 481.834,-129.429"/>
</g>
<!-- Node18 -->
<g id="node18" class="node"><title>Node18</title>
<polygon fill="none" stroke="#bfbfbf" points="489.5,-112.5 489.5,-131.5 535.5,-131.5 535.5,-112.5 489.5,-112.5"/>
<text text-anchor="middle" x="512.5" y="-119.5" font-family="Helvetica,sans-Serif" font-size="10.00">cstdio</text>
</g>
<!-- Node16&#45;&gt;Node18 -->
<g id="edge17" class="edge"><title>Node16&#45;&gt;Node18</title>
<path fill="none" stroke="midnightblue" d="M612.644,-168.444C593.234,-159.636 562.77,-145.812 540.535,-135.722"/>
<polygon fill="midnightblue" stroke="midnightblue" points="541.82,-132.462 531.268,-131.516 538.928,-138.836 541.82,-132.462"/>
</g>
<!-- Node19 -->
<g id="node19" class="node"><title>Node19</title>
<polygon fill="none" stroke="#bfbfbf" points="554,-112.5 554,-131.5 603,-131.5 603,-112.5 554,-112.5"/>
<text text-anchor="middle" x="578.5" y="-119.5" font-family="Helvetica,sans-Serif" font-size="10.00">cstdlib</text>
</g>
<!-- Node16&#45;&gt;Node19 -->
<g id="edge18" class="edge"><title>Node16&#45;&gt;Node19</title>
<path fill="none" stroke="midnightblue" d="M622.748,-168.083C615.03,-160.22 603.595,-148.569 594.283,-139.081"/>
<polygon fill="midnightblue" stroke="midnightblue" points="596.592,-136.436 587.089,-131.751 591.596,-141.34 596.592,-136.436"/>
</g>
<!-- Node20 -->
<g id="node20" class="node"><title>Node20</title>
<polygon fill="none" stroke="#bfbfbf" points="745.5,-112.5 745.5,-131.5 795.5,-131.5 795.5,-112.5 745.5,-112.5"/>
<text text-anchor="middle" x="770.5" y="-119.5" font-family="Helvetica,sans-Serif" font-size="10.00">cstring</text>
</g>
<!-- Node16&#45;&gt;Node20 -->
<g id="edge19" class="edge"><title>Node16&#45;&gt;Node20</title>
<path fill="none" stroke="midnightblue" d="M653.525,-168.444C676.604,-159.478 713.062,-145.314 739.141,-135.183"/>
<polygon fill="midnightblue" stroke="midnightblue" points="740.524,-138.4 748.578,-131.516 737.989,-131.875 740.524,-138.4"/>
</g>
<!-- Node21 -->
<g id="node21" class="node"><title>Node21</title>
<g id="a_node21"><a xlink:href="debug_8hpp.html" target="_top" xlink:title="This file controls debug facilities. ">
<polygon fill="none" stroke="black" points="659.5,-112.5 659.5,-131.5 727.5,-131.5 727.5,-112.5 659.5,-112.5"/>
<text text-anchor="middle" x="693.5" y="-119.5" font-family="Helvetica,sans-Serif" font-size="10.00">debug.hpp</text>
</a>
</g>
</g>
<!-- Node16&#45;&gt;Node21 -->
<g id="edge21" class="edge"><title>Node16&#45;&gt;Node21</title>
<path fill="none" stroke="midnightblue" d="M641.461,-168.324C650.627,-160.341 664.437,-148.313 675.528,-138.653"/>
<polygon fill="midnightblue" stroke="midnightblue" points="678.115,-141.041 683.357,-131.834 673.518,-135.762 678.115,-141.041"/>
</g>
<!-- Node22 -->
<g id="node22" class="node"><title>Node22</title>
<g id="a_node22"><a xlink:href="lees__edwards_8hpp.html" target="_top" xlink:title="lees_edwards.hpp">
<polygon fill="none" stroke="black" points="897.5,-112.5 897.5,-131.5 1001.5,-131.5 1001.5,-112.5 897.5,-112.5"/>
<text text-anchor="middle" x="949.5" y="-119.5" font-family="Helvetica,sans-Serif" font-size="10.00">lees_edwards.hpp</text>
</a>
</g>
</g>
<!-- Node16&#45;&gt;Node22 -->
<g id="edge23" class="edge"><title>Node16&#45;&gt;Node22</title>
<path fill="none" stroke="midnightblue" d="M661.131,-171.968C712.975,-163.165 821.092,-144.805 889.212,-133.238"/>
<polygon fill="midnightblue" stroke="midnightblue" points="890.101,-136.637 899.374,-131.512 888.929,-129.736 890.101,-136.637"/>
</g>
<!-- Node23 -->
<g id="node23" class="node"><title>Node23</title>
<g id="a_node23"><a xlink:href="errorhandling_8hpp.html" target="_top" xlink:title="This file contains the errorhandling code for severe errors, like a broken bond or illegal parameter ...">
<polygon fill="none" stroke="black" points="303,-112.5 303,-131.5 406,-131.5 406,-112.5 303,-112.5"/>
<text text-anchor="middle" x="354.5" y="-119.5" font-family="Helvetica,sans-Serif" font-size="10.00">errorhandling.hpp</text>
</a>
</g>
</g>
<!-- Node16&#45;&gt;Node23 -->
<g id="edge25" class="edge"><title>Node16&#45;&gt;Node23</title>
<path fill="none" stroke="midnightblue" d="M601.856,-171.221C555.774,-162.238 466.26,-144.787 408.494,-133.526"/>
<polygon fill="midnightblue" stroke="midnightblue" points="408.934,-130.046 398.449,-131.568 407.594,-136.916 408.934,-130.046"/>
</g>
<!-- Node24 -->
<g id="node24" class="node"><title>Node24</title>
<polygon fill="none" stroke="#bfbfbf" points="1020,-112.5 1020,-131.5 1067,-131.5 1067,-112.5 1020,-112.5"/>
<text text-anchor="middle" x="1043.5" y="-119.5" font-family="Helvetica,sans-Serif" font-size="10.00">vector</text>
</g>
<!-- Node16&#45;&gt;Node24 -->
<g id="edge30" class="edge"><title>Node16&#45;&gt;Node24</title>
<path fill="none" stroke="midnightblue" d="M661.217,-174.977C723.859,-170.391 874.143,-157.703 1009.66,-131.877"/>
<polygon fill="midnightblue" stroke="midnightblue" points="1010.65,-135.25 1019.81,-129.913 1009.32,-128.377 1010.65,-135.25"/>
</g>
<!-- Node25 -->
<g id="node25" class="node"><title>Node25</title>
<polygon fill="none" stroke="#bfbfbf" points="814,-112.5 814,-131.5 879,-131.5 879,-112.5 814,-112.5"/>
<text text-anchor="middle" x="846.5" y="-119.5" font-family="Helvetica,sans-Serif" font-size="10.00">exception</text>
</g>
<!-- Node16&#45;&gt;Node25 -->
<g id="edge31" class="edge"><title>Node16&#45;&gt;Node25</title>
<path fill="none" stroke="midnightblue" d="M661.395,-169.492C698.383,-160.201 761.618,-144.319 803.732,-133.742"/>
<polygon fill="midnightblue" stroke="midnightblue" points="804.846,-137.071 813.693,-131.24 803.141,-130.281 804.846,-137.071"/>
</g>
<!-- Node21&#45;&gt;Node3 -->
<g id="edge22" class="edge"><title>Node21&#45;&gt;Node3</title>
<path fill="none" stroke="midnightblue" d="M688.381,-112.083C684.092,-104.613 677.842,-93.7244 672.558,-84.5199"/>
<polygon fill="midnightblue" stroke="midnightblue" points="675.538,-82.6811 667.524,-75.7511 669.467,-86.1662 675.538,-82.6811"/>
</g>
<!-- Node22&#45;&gt;Node3 -->
<g id="edge24" class="edge"><title>Node22&#45;&gt;Node3</title>
<path fill="none" stroke="midnightblue" d="M904.024,-112.444C849.677,-102.218 759.398,-85.2318 705.959,-75.177"/>
<polygon fill="midnightblue" stroke="midnightblue" points="706.58,-71.7325 696.105,-73.323 705.286,-78.6118 706.58,-71.7325"/>
</g>
<!-- Node23&#45;&gt;Node3 -->
<g id="edge26" class="edge"><title>Node23&#45;&gt;Node3</title>
<path fill="none" stroke="midnightblue" d="M403.304,-112.444C462.547,-102.057 561.576,-84.6944 618.544,-74.7066"/>
<polygon fill="midnightblue" stroke="midnightblue" points="619.427,-78.1052 628.673,-72.9308 618.218,-71.2104 619.427,-78.1052"/>
</g>
<!-- Node23&#45;&gt;Node7 -->
<g id="edge29" class="edge"><title>Node23&#45;&gt;Node7</title>
<path fill="none" stroke="midnightblue" d="M327.088,-112.444C294.246,-102.193 239.638,-85.1472 207.457,-75.1021"/>
<polygon fill="midnightblue" stroke="midnightblue" points="208.441,-71.7428 197.852,-72.1041 206.355,-78.4248 208.441,-71.7428"/>
</g>
<!-- Node23&#45;&gt;Node8 -->
<g id="edge27" class="edge"><title>Node23&#45;&gt;Node8</title>
<path fill="none" stroke="midnightblue" d="M336.827,-112.324C319.106,-103.625 291.597,-90.1202 271.212,-80.113"/>
<polygon fill="midnightblue" stroke="midnightblue" points="272.649,-76.9195 262.13,-75.6545 269.564,-83.2031 272.649,-76.9195"/>
</g>
<!-- Node23&#45;&gt;Node13 -->
<g id="edge28" class="edge"><title>Node23&#45;&gt;Node13</title>
<path fill="none" stroke="midnightblue" d="M349.876,-112.083C346.044,-104.691 340.476,-93.9533 335.735,-84.8111"/>
<polygon fill="midnightblue" stroke="midnightblue" points="338.748,-83.0175 331.038,-75.7511 332.534,-86.2398 338.748,-83.0175"/>
</g>
<!-- Node26&#45;&gt;Node16 -->
<g id="edge33" class="edge"><title>Node26&#45;&gt;Node16</title>
<path fill="none" stroke="midnightblue" d="M506.109,-224.444C530.958,-215.438 570.274,-201.189 598.254,-191.049"/>
<polygon fill="midnightblue" stroke="midnightblue" points="599.792,-194.214 608.001,-187.516 597.407,-187.633 599.792,-194.214"/>
</g>
<!-- Node27&#45;&gt;Node16 -->
<g id="edge35" class="edge"><title>Node27&#45;&gt;Node16</title>
<path fill="none" stroke="midnightblue" d="M586.417,-224.083C594.28,-216.22 605.931,-204.569 615.419,-195.081"/>
<polygon fill="midnightblue" stroke="midnightblue" points="618.153,-197.297 622.749,-187.751 613.203,-192.347 618.153,-197.297"/>
</g>
<!-- Node28&#45;&gt;Node3 -->
<g id="edge38" class="edge"><title>Node28&#45;&gt;Node3</title>
<path fill="none" stroke="midnightblue" d="M1054.03,-168.144C1068.71,-154.765 1091.88,-129.145 1076.5,-112 1052.08,-84.7783 807.63,-72.4759 706.225,-68.5145"/>
<polygon fill="midnightblue" stroke="midnightblue" points="706.139,-65.0088 696.013,-68.125 705.872,-72.0037 706.139,-65.0088"/>
</g>
<!-- Node28&#45;&gt;Node24 -->
<g id="edge39" class="edge"><title>Node28&#45;&gt;Node24</title>
<path fill="none" stroke="midnightblue" d="M1043.5,-168.083C1043.5,-161.006 1043.5,-150.861 1043.5,-141.986"/>
<polygon fill="midnightblue" stroke="midnightblue" points="1047,-141.751 1043.5,-131.751 1040,-141.751 1047,-141.751"/>
</g>
</g>
</svg>
        <g id="navigator" transform="translate(0 0)" fill="#404254">
                <rect fill="#f2f5e9" fill-opacity="0.5" stroke="#606060" stroke-width=".5" x="0" y="0" width="60" height="60"/>
                <use id="zoomplus" xlink:href="#zoomPlus" x="17" y="9" onmousedown="handleZoom(evt,'in')"/>
                <use id="zoomminus" xlink:href="#zoomMin" x="42" y="9" onmousedown="handleZoom(evt,'out')"/>
                <use id="reset" xlink:href="#resetDef" x="30" y="36" onmousedown="handleReset()"/>
                <g id="arrowUp" xlink:href="#dirArrow" transform="translate(30 24)" onmousedown="handlePan(0,-1)">
                  <use xlink:href="#rim" fill="#404040">
                        <set attributeName="fill" to="#808080" begin="arrowUp.mouseover" end="arrowUp.mouseout"/>
                  </use>
                  <path fill="none" stroke="white" stroke-width="1.5" d="M0,-3.0v7 M-2.5,-0.5L0,-3.0L2.5,-0.5"/>
                </g>
                <g id="arrowRight" xlink:href="#dirArrow" transform="rotate(90) translate(36 -43)" onmousedown="handlePan(1,0)">
                  <use xlink:href="#rim" fill="#404040">
                        <set attributeName="fill" to="#808080" begin="arrowRight.mouseover" end="arrowRight.mouseout"/>
                  </use>
                  <path fill="none" stroke="white" stroke-width="1.5" d="M0,-3.0v7 M-2.5,-0.5L0,-3.0L2.5,-0.5"/>
                </g>
                <g id="arrowDown" xlink:href="#dirArrow" transform="rotate(180) translate(-30 -48)" onmousedown="handlePan(0,1)">
                  <use xlink:href="#rim" fill="#404040">
                        <set attributeName="fill" to="#808080" begin="arrowDown.mouseover" end="arrowDown.mouseout"/>
                  </use>
                  <path fill="none" stroke="white" stroke-width="1.5" d="M0,-3.0v7 M-2.5,-0.5L0,-3.0L2.5,-0.5"/>
                </g>
                <g id="arrowLeft" xlink:href="#dirArrow" transform="rotate(270) translate(-36 17)" onmousedown="handlePan(-1,0)">
                  <use xlink:href="#rim" fill="#404040">
                        <set attributeName="fill" to="#808080" begin="arrowLeft.mouseover" end="arrowLeft.mouseout"/>
                  </use>
                  <path fill="none" stroke="white" stroke-width="1.5" d="M0,-3.0v7 M-2.5,-0.5L0,-3.0L2.5,-0.5"/>
                </g>
        </g>
        <svg viewBox="0 0 15 15" width="100%" height="30px" preserveAspectRatio="xMaxYMin meet">
         <g id="arrow_out" transform="scale(0.3 0.3)">
          <a xlink:href="RuntimeErrorCollector_8cpp__incl_org.svg" target="_base">
           <rect id="button" ry="5" rx="5" y="6" x="6" height="38" width="38"
                fill="#f2f5e9" fill-opacity="0.5" stroke="#606060" stroke-width="1.0"/>
           <path id="arrow"
             d="M 11.500037,31.436501 C 11.940474,20.09759 22.043105,11.32322 32.158766,21.979434 L 37.068811,17.246167 C 37.068811,17.246167 37.088388,32 37.088388,32 L 22.160133,31.978069 C 22.160133,31.978069 26.997745,27.140456 26.997745,27.140456 C 18.528582,18.264221 13.291696,25.230495 11.500037,31.436501 z"
             style="fill:#404040;"/>
          </a>
         </g>
        </svg>
</svg>
