<?xml version="1.0" encoding="UTF-8" standalone="no"?>
<!DOCTYPE svg PUBLIC "-//W3C//DTD SVG 1.1//EN"
 "http://www.w3.org/Graphics/SVG/1.1/DTD/svg11.dtd">
<!-- Generated by graphviz version 2.38.0 (20140413.2041)
 -->
<!-- Title: statistics_fluid.cpp Pages: 1 -->
<svg width="1107pt" height="588pt"
 viewBox="0.00 0.00 1106.96 588.00" xmlns="http://www.w3.org/2000/svg" xmlns:xlink="http://www.w3.org/1999/xlink">
<g id="graph0" class="graph" transform="scale(1 1) rotate(0) translate(4 584)">
<title>statistics_fluid.cpp</title>
<!-- Node1 -->
<g id="node1" class="node"><title>Node1</title>
<polygon fill="#bfbfbf" stroke="black" points="385.5,-560.5 385.5,-579.5 492.5,-579.5 492.5,-560.5 385.5,-560.5"/>
<text text-anchor="middle" x="439" y="-567.5" font-family="Helvetica,sans-Serif" font-size="10.00">statistics_fluid.cpp</text>
</g>
<!-- Node2 -->
<g id="node2" class="node"><title>Node2</title>
<g id="a_node2"><a xlink:href="mpi_8h.html" target="_top" xlink:title="This is the MPIfake implementation. ">
<polygon fill="none" stroke="black" points="144,-224.5 144,-243.5 188,-243.5 188,-224.5 144,-224.5"/>
<text text-anchor="middle" x="166" y="-231.5" font-family="Helvetica,sans-Serif" font-size="10.00">mpi.h</text>
</a>
</g>
</g>
<!-- Node1&#45;&gt;Node2 -->
<g id="edge1" class="edge"><title>Node1&#45;&gt;Node2</title>
<path fill="none" stroke="midnightblue" d="M385.257,-569.382C308.068,-566.793 175,-549.244 175,-459 175,-459 175,-459 175,-345 175,-312.841 171.132,-275.569 168.467,-253.711"/>
<polygon fill="midnightblue" stroke="midnightblue" points="171.907,-253.018 167.177,-243.538 164.963,-253.899 171.907,-253.018"/>
</g>
<!-- Node6 -->
<g id="node6" class="node"><title>Node6</title>
<g id="a_node6"><a xlink:href="utils_8hpp.html" target="_top" xlink:title="Small functions that are useful not only for one modul. ">
<polygon fill="none" stroke="black" points="616.5,-168.5 616.5,-187.5 675.5,-187.5 675.5,-168.5 616.5,-168.5"/>
<text text-anchor="middle" x="646" y="-175.5" font-family="Helvetica,sans-Serif" font-size="10.00">utils.hpp</text>
</a>
</g>
</g>
<!-- Node1&#45;&gt;Node6 -->
<g id="edge5" class="edge"><title>Node1&#45;&gt;Node6</title>
<path fill="none" stroke="midnightblue" d="M404.736,-560.44C360.184,-547.016 288,-516.408 288,-459 288,-459 288,-459 288,-345 288,-289.801 275.217,-261.198 316,-224 357.669,-185.994 527.451,-179.78 605.904,-178.975"/>
<polygon fill="midnightblue" stroke="midnightblue" points="606.372,-182.472 616.345,-178.895 606.318,-175.472 606.372,-182.472"/>
</g>
<!-- Node23 -->
<g id="node23" class="node"><title>Node23</title>
<g id="a_node23"><a xlink:href="communication_8hpp.html" target="_top" xlink:title="This file contains the asynchronous MPI communication. ">
<polygon fill="none" stroke="black" points="316.5,-280.5 316.5,-299.5 429.5,-299.5 429.5,-280.5 316.5,-280.5"/>
<text text-anchor="middle" x="373" y="-287.5" font-family="Helvetica,sans-Serif" font-size="10.00">communication.hpp</text>
</a>
</g>
</g>
<!-- Node1&#45;&gt;Node23 -->
<g id="edge25" class="edge"><title>Node1&#45;&gt;Node23</title>
<path fill="none" stroke="midnightblue" d="M433.16,-560.308C421.62,-542.261 397,-499.066 397,-459 397,-459 397,-459 397,-401 397,-368.059 386.599,-330.818 379.491,-309.214"/>
<polygon fill="midnightblue" stroke="midnightblue" points="382.785,-308.028 376.237,-299.699 376.162,-310.294 382.785,-308.028"/>
</g>
<!-- Node28 -->
<g id="node28" class="node"><title>Node28</title>
<g id="a_node28"><a xlink:href="lb_8hpp.html" target="_top" xlink:title="Header file for lb.cpp. ">
<polygon fill="none" stroke="black" points="481.5,-504.5 481.5,-523.5 528.5,-523.5 528.5,-504.5 481.5,-504.5"/>
<text text-anchor="middle" x="505" y="-511.5" font-family="Helvetica,sans-Serif" font-size="10.00">lb.hpp</text>
</a>
</g>
</g>
<!-- Node1&#45;&gt;Node28 -->
<g id="edge36" class="edge"><title>Node1&#45;&gt;Node28</title>
<path fill="none" stroke="midnightblue" d="M449.604,-560.324C459.456,-552.263 474.351,-540.077 486.215,-530.369"/>
<polygon fill="midnightblue" stroke="midnightblue" points="488.68,-532.875 494.203,-523.834 484.247,-527.457 488.68,-532.875"/>
</g>
<!-- Node35 -->
<g id="node35" class="node"><title>Node35</title>
<g id="a_node35"><a xlink:href="lb-boundaries_8hpp.html" target="_top" xlink:title="Boundary conditions for Lattice Boltzmann fluid dynamics. ">
<polygon fill="none" stroke="black" points="682,-392.5 682,-411.5 786,-411.5 786,-392.5 682,-392.5"/>
<text text-anchor="middle" x="734" y="-399.5" font-family="Helvetica,sans-Serif" font-size="10.00">lb&#45;boundaries.hpp</text>
</a>
</g>
</g>
<!-- Node1&#45;&gt;Node35 -->
<g id="edge55" class="edge"><title>Node1&#45;&gt;Node35</title>
<path fill="none" stroke="midnightblue" d="M459.618,-560.393C479.694,-551.813 510.909,-537.938 537,-524 602.647,-488.931 676.551,-441.181 712.309,-417.521"/>
<polygon fill="midnightblue" stroke="midnightblue" points="714.555,-420.23 720.947,-411.781 710.681,-414.4 714.555,-420.23"/>
</g>
<!-- Node38 -->
<g id="node38" class="node"><title>Node38</title>
<g id="a_node38"><a xlink:href="statistics__fluid_8hpp.html" target="_top" xlink:title="Fluid related analysis functions. ">
<polygon fill="none" stroke="black" points="798,-448.5 798,-467.5 906,-467.5 906,-448.5 798,-448.5"/>
<text text-anchor="middle" x="852" y="-455.5" font-family="Helvetica,sans-Serif" font-size="10.00">statistics_fluid.hpp</text>
</a>
</g>
</g>
<!-- Node1&#45;&gt;Node38 -->
<g id="edge62" class="edge"><title>Node1&#45;&gt;Node38</title>
<path fill="none" stroke="midnightblue" d="M492.601,-566.079C576.299,-560.842 733.667,-548.083 784,-524 807.152,-512.922 827.505,-490.95 839.771,-475.633"/>
<polygon fill="midnightblue" stroke="midnightblue" points="842.692,-477.576 846.018,-467.517 837.145,-473.307 842.692,-477.576"/>
</g>
<!-- Node3 -->
<g id="node3" class="node"><title>Node3</title>
<polygon fill="none" stroke="#bfbfbf" points="139.5,-168.5 139.5,-187.5 192.5,-187.5 192.5,-168.5 139.5,-168.5"/>
<text text-anchor="middle" x="166" y="-175.5" font-family="Helvetica,sans-Serif" font-size="10.00">string.h</text>
</g>
<!-- Node2&#45;&gt;Node3 -->
<g id="edge2" class="edge"><title>Node2&#45;&gt;Node3</title>
<path fill="none" stroke="midnightblue" d="M166,-224.083C166,-217.006 166,-206.861 166,-197.986"/>
<polygon fill="midnightblue" stroke="midnightblue" points="169.5,-197.751 166,-187.751 162.5,-197.751 169.5,-197.751"/>
</g>
<!-- Node4 -->
<g id="node4" class="node"><title>Node4</title>
<polygon fill="none" stroke="#bfbfbf" points="0,-168.5 0,-187.5 50,-187.5 50,-168.5 0,-168.5"/>
<text text-anchor="middle" x="25" y="-175.5" font-family="Helvetica,sans-Serif" font-size="10.00">stdio.h</text>
</g>
<!-- Node2&#45;&gt;Node4 -->
<g id="edge3" class="edge"><title>Node2&#45;&gt;Node4</title>
<path fill="none" stroke="midnightblue" d="M143.969,-224.562C120.618,-215.62 83.5167,-201.411 56.9552,-191.238"/>
<polygon fill="midnightblue" stroke="midnightblue" points="57.9322,-187.864 47.3419,-187.556 55.4287,-194.401 57.9322,-187.864"/>
</g>
<!-- Node5 -->
<g id="node5" class="node"><title>Node5</title>
<polygon fill="none" stroke="#bfbfbf" points="68.5,-168.5 68.5,-187.5 121.5,-187.5 121.5,-168.5 68.5,-168.5"/>
<text text-anchor="middle" x="95" y="-175.5" font-family="Helvetica,sans-Serif" font-size="10.00">stdlib.h</text>
</g>
<!-- Node2&#45;&gt;Node5 -->
<g id="edge4" class="edge"><title>Node2&#45;&gt;Node5</title>
<path fill="none" stroke="midnightblue" d="M154.593,-224.324C143.891,-216.185 127.659,-203.839 114.837,-194.087"/>
<polygon fill="midnightblue" stroke="midnightblue" points="116.693,-191.102 106.615,-187.834 112.456,-196.673 116.693,-191.102"/>
</g>
<!-- Node7 -->
<g id="node7" class="node"><title>Node7</title>
<polygon fill="none" stroke="#bfbfbf" points="825.5,-112.5 825.5,-131.5 872.5,-131.5 872.5,-112.5 825.5,-112.5"/>
<text text-anchor="middle" x="849" y="-119.5" font-family="Helvetica,sans-Serif" font-size="10.00">cmath</text>
</g>
<!-- Node6&#45;&gt;Node7 -->
<g id="edge6" class="edge"><title>Node6&#45;&gt;Node7</title>
<path fill="none" stroke="midnightblue" d="M675.501,-169.263C707.498,-160.854 760.34,-146.924 815.295,-132.175"/>
<polygon fill="midnightblue" stroke="midnightblue" points="816.463,-135.485 825.213,-129.51 814.647,-128.725 816.463,-135.485"/>
</g>
<!-- Node8 -->
<g id="node8" class="node"><title>Node8</title>
<polygon fill="none" stroke="#bfbfbf" points="891,-112.5 891,-131.5 937,-131.5 937,-112.5 891,-112.5"/>
<text text-anchor="middle" x="914" y="-119.5" font-family="Helvetica,sans-Serif" font-size="10.00">cstdio</text>
</g>
<!-- Node6&#45;&gt;Node8 -->
<g id="edge7" class="edge"><title>Node6&#45;&gt;Node8</title>
<path fill="none" stroke="midnightblue" d="M675.832,-172.047C720.608,-164.441 807.754,-148.974 881,-132 881.101,-131.977 881.203,-131.953 881.304,-131.929"/>
<polygon fill="midnightblue" stroke="midnightblue" points="882.12,-135.333 890.978,-129.522 880.429,-128.54 882.12,-135.333"/>
</g>
<!-- Node9 -->
<g id="node9" class="node"><title>Node9</title>
<polygon fill="none" stroke="#bfbfbf" points="955.5,-112.5 955.5,-131.5 1004.5,-131.5 1004.5,-112.5 955.5,-112.5"/>
<text text-anchor="middle" x="980" y="-119.5" font-family="Helvetica,sans-Serif" font-size="10.00">cstdlib</text>
</g>
<!-- Node6&#45;&gt;Node9 -->
<g id="edge8" class="edge"><title>Node6&#45;&gt;Node9</title>
<path fill="none" stroke="midnightblue" d="M675.572,-173.658C727.911,-167.509 840.427,-153.238 945.09,-131.982"/>
<polygon fill="midnightblue" stroke="midnightblue" points="946.103,-135.347 955.192,-129.904 944.692,-128.491 946.103,-135.347"/>
</g>
<!-- Node10 -->
<g id="node10" class="node"><title>Node10</title>
<polygon fill="none" stroke="#bfbfbf" points="674,-112.5 674,-131.5 724,-131.5 724,-112.5 674,-112.5"/>
<text text-anchor="middle" x="699" y="-119.5" font-family="Helvetica,sans-Serif" font-size="10.00">cstring</text>
</g>
<!-- Node6&#45;&gt;Node10 -->
<g id="edge9" class="edge"><title>Node6&#45;&gt;Node10</title>
<path fill="none" stroke="midnightblue" d="M654.752,-168.083C662.47,-160.22 673.905,-148.569 683.217,-139.081"/>
<polygon fill="midnightblue" stroke="midnightblue" points="685.904,-141.34 690.411,-131.751 680.908,-136.436 685.904,-141.34"/>
</g>
<!-- Node11 -->
<g id="node11" class="node"><title>Node11</title>
<g id="a_node11"><a xlink:href="config_8hpp.html" target="_top" xlink:title="This file contains the defaults for Espresso. ">
<polygon fill="none" stroke="black" points="532.5,-56.5 532.5,-75.5 599.5,-75.5 599.5,-56.5 532.5,-56.5"/>
<text text-anchor="middle" x="566" y="-63.5" font-family="Helvetica,sans-Serif" font-size="10.00">config.hpp</text>
</a>
</g>
</g>
<!-- Node6&#45;&gt;Node11 -->
<g id="edge10" class="edge"><title>Node6&#45;&gt;Node11</title>
<path fill="none" stroke="midnightblue" d="M645.227,-168.243C643.688,-154.994 639.254,-129.541 627,-112 618.051,-99.1907 604.281,-88.5832 592.088,-80.8906"/>
<polygon fill="midnightblue" stroke="midnightblue" points="593.559,-77.6938 583.176,-75.5881 589.98,-83.7094 593.559,-77.6938"/>
</g>
<!-- Node15 -->
<g id="node15" class="node"><title>Node15</title>
<g id="a_node15"><a xlink:href="debug_8hpp.html" target="_top" xlink:title="This file controls debug facilities. ">
<polygon fill="none" stroke="black" points="428,-112.5 428,-131.5 496,-131.5 496,-112.5 428,-112.5"/>
<text text-anchor="middle" x="462" y="-119.5" font-family="Helvetica,sans-Serif" font-size="10.00">debug.hpp</text>
</a>
</g>
</g>
<!-- Node6&#45;&gt;Node15 -->
<g id="edge14" class="edge"><title>Node6&#45;&gt;Node15</title>
<path fill="none" stroke="midnightblue" d="M616.845,-168.444C585.487,-159.241 535.469,-144.562 500.803,-134.388"/>
<polygon fill="midnightblue" stroke="midnightblue" points="501.6,-130.974 491.019,-131.516 499.629,-137.691 501.6,-130.974"/>
</g>
<!-- Node16 -->
<g id="node16" class="node"><title>Node16</title>
<g id="a_node16"><a xlink:href="lees__edwards_8hpp.html" target="_top" xlink:title="lees_edwards.hpp">
<polygon fill="none" stroke="black" points="514,-112.5 514,-131.5 618,-131.5 618,-112.5 514,-112.5"/>
<text text-anchor="middle" x="566" y="-119.5" font-family="Helvetica,sans-Serif" font-size="10.00">lees_edwards.hpp</text>
</a>
</g>
</g>
<!-- Node6&#45;&gt;Node16 -->
<g id="edge16" class="edge"><title>Node6&#45;&gt;Node16</title>
<path fill="none" stroke="midnightblue" d="M633.147,-168.324C620.784,-159.979 601.87,-147.212 587.263,-137.352"/>
<polygon fill="midnightblue" stroke="midnightblue" points="589.068,-134.348 578.821,-131.655 585.152,-140.15 589.068,-134.348"/>
</g>
<!-- Node17 -->
<g id="node17" class="node"><title>Node17</title>
<g id="a_node17"><a xlink:href="errorhandling_8hpp.html" target="_top" xlink:title="This file contains the errorhandling code for severe errors, like a broken bond or illegal parameter ...">
<polygon fill="none" stroke="black" points="202.5,-112.5 202.5,-131.5 305.5,-131.5 305.5,-112.5 202.5,-112.5"/>
<text text-anchor="middle" x="254" y="-119.5" font-family="Helvetica,sans-Serif" font-size="10.00">errorhandling.hpp</text>
</a>
</g>
</g>
<!-- Node6&#45;&gt;Node17 -->
<g id="edge18" class="edge"><title>Node6&#45;&gt;Node17</title>
<path fill="none" stroke="midnightblue" d="M616.215,-172.897C552.346,-164.099 401.097,-143.263 315.616,-131.488"/>
<polygon fill="midnightblue" stroke="midnightblue" points="315.911,-127.996 305.527,-130.098 314.956,-134.93 315.911,-127.996"/>
</g>
<!-- Node21 -->
<g id="node21" class="node"><title>Node21</title>
<polygon fill="none" stroke="#bfbfbf" points="362.5,-112.5 362.5,-131.5 409.5,-131.5 409.5,-112.5 362.5,-112.5"/>
<text text-anchor="middle" x="386" y="-119.5" font-family="Helvetica,sans-Serif" font-size="10.00">vector</text>
</g>
<!-- Node6&#45;&gt;Node21 -->
<g id="edge23" class="edge"><title>Node6&#45;&gt;Node21</title>
<path fill="none" stroke="midnightblue" d="M616.473,-171.834C574.806,-164.395 496.19,-149.816 419.56,-131.994"/>
<polygon fill="midnightblue" stroke="midnightblue" points="420.277,-128.567 409.742,-129.69 418.678,-135.382 420.277,-128.567"/>
</g>
<!-- Node22 -->
<g id="node22" class="node"><title>Node22</title>
<polygon fill="none" stroke="#bfbfbf" points="742.5,-112.5 742.5,-131.5 807.5,-131.5 807.5,-112.5 742.5,-112.5"/>
<text text-anchor="middle" x="775" y="-119.5" font-family="Helvetica,sans-Serif" font-size="10.00">exception</text>
</g>
<!-- Node6&#45;&gt;Node22 -->
<g id="edge24" class="edge"><title>Node6&#45;&gt;Node22</title>
<path fill="none" stroke="midnightblue" d="M666.44,-168.444C687.67,-159.557 721.099,-145.563 745.255,-135.451"/>
<polygon fill="midnightblue" stroke="midnightblue" points="746.782,-138.606 754.655,-131.516 744.079,-132.149 746.782,-138.606"/>
</g>
<!-- Node12 -->
<g id="node12" class="node"><title>Node12</title>
<g id="a_node12"><a xlink:href="acconfig_8hpp.html" target="_top" xlink:title="acconfig.hpp">
<polygon fill="none" stroke="black" points="416,-0.5 416,-19.5 494,-19.5 494,-0.5 416,-0.5"/>
<text text-anchor="middle" x="455" y="-7.5" font-family="Helvetica,sans-Serif" font-size="10.00">acconfig.hpp</text>
</a>
</g>
</g>
<!-- Node11&#45;&gt;Node12 -->
<g id="edge11" class="edge"><title>Node11&#45;&gt;Node12</title>
<path fill="none" stroke="midnightblue" d="M548.166,-56.324C530.284,-47.6247 502.525,-34.1202 481.954,-24.113"/>
<polygon fill="midnightblue" stroke="midnightblue" points="483.313,-20.8819 472.79,-19.6545 480.251,-27.1765 483.313,-20.8819"/>
</g>
<!-- Node13 -->
<g id="node13" class="node"><title>Node13</title>
<g id="a_node13"><a xlink:href="myconfig-final_8hpp.html" target="_top" xlink:title="myconfig&#45;final.hpp">
<polygon fill="none" stroke="black" points="512.5,-0.5 512.5,-19.5 619.5,-19.5 619.5,-0.5 512.5,-0.5"/>
<text text-anchor="middle" x="566" y="-7.5" font-family="Helvetica,sans-Serif" font-size="10.00">myconfig&#45;final.hpp</text>
</a>
</g>
</g>
<!-- Node11&#45;&gt;Node13 -->
<g id="edge12" class="edge"><title>Node11&#45;&gt;Node13</title>
<path fill="none" stroke="midnightblue" d="M566,-56.083C566,-49.0059 566,-38.8611 566,-29.9865"/>
<polygon fill="midnightblue" stroke="midnightblue" points="569.5,-29.751 566,-19.7511 562.5,-29.7511 569.5,-29.751"/>
</g>
<!-- Node14 -->
<g id="node14" class="node"><title>Node14</title>
<g id="a_node14"><a xlink:href="config-features_8hpp.html" target="_top" xlink:title="config&#45;features.hpp">
<polygon fill="none" stroke="black" points="637.5,-0.5 637.5,-19.5 748.5,-19.5 748.5,-0.5 637.5,-0.5"/>
<text text-anchor="middle" x="693" y="-7.5" font-family="Helvetica,sans-Serif" font-size="10.00">config&#45;features.hpp</text>
</a>
</g>
</g>
<!-- Node11&#45;&gt;Node14 -->
<g id="edge13" class="edge"><title>Node11&#45;&gt;Node14</title>
<path fill="none" stroke="midnightblue" d="M586.124,-56.4435C607.024,-47.5566 639.935,-33.5632 663.716,-23.4514"/>
<polygon fill="midnightblue" stroke="midnightblue" points="665.138,-26.6504 672.971,-19.5164 662.398,-20.2085 665.138,-26.6504"/>
</g>
<!-- Node15&#45;&gt;Node11 -->
<g id="edge15" class="edge"><title>Node15&#45;&gt;Node11</title>
<path fill="none" stroke="midnightblue" d="M478.709,-112.324C495.312,-103.703 521.002,-90.3643 540.22,-80.3855"/>
<polygon fill="midnightblue" stroke="midnightblue" points="542.07,-83.3689 549.332,-75.6545 538.844,-77.1565 542.07,-83.3689"/>
</g>
<!-- Node16&#45;&gt;Node11 -->
<g id="edge17" class="edge"><title>Node16&#45;&gt;Node11</title>
<path fill="none" stroke="midnightblue" d="M566,-112.083C566,-105.006 566,-94.8611 566,-85.9865"/>
<polygon fill="midnightblue" stroke="midnightblue" points="569.5,-85.751 566,-75.7511 562.5,-85.7511 569.5,-85.751"/>
</g>
<!-- Node17&#45;&gt;Node11 -->
<g id="edge19" class="edge"><title>Node17&#45;&gt;Node11</title>
<path fill="none" stroke="midnightblue" d="M303.437,-112.444C363.737,-102.007 464.725,-84.5284 522.297,-74.564"/>
<polygon fill="midnightblue" stroke="midnightblue" points="522.923,-78.0078 532.179,-72.8536 521.729,-71.1103 522.923,-78.0078"/>
</g>
<!-- Node18 -->
<g id="node18" class="node"><title>Node18</title>
<polygon fill="none" stroke="#bfbfbf" points="232,-56.5 232,-75.5 276,-75.5 276,-56.5 232,-56.5"/>
<text text-anchor="middle" x="254" y="-63.5" font-family="Helvetica,sans-Serif" font-size="10.00">string</text>
</g>
<!-- Node17&#45;&gt;Node18 -->
<g id="edge20" class="edge"><title>Node17&#45;&gt;Node18</title>
<path fill="none" stroke="midnightblue" d="M254,-112.083C254,-105.006 254,-94.8611 254,-85.9865"/>
<polygon fill="midnightblue" stroke="midnightblue" points="257.5,-85.751 254,-75.7511 250.5,-85.7511 257.5,-85.751"/>
</g>
<!-- Node19 -->
<g id="node19" class="node"><title>Node19</title>
<polygon fill="none" stroke="#bfbfbf" points="294,-56.5 294,-75.5 350,-75.5 350,-56.5 294,-56.5"/>
<text text-anchor="middle" x="322" y="-63.5" font-family="Helvetica,sans-Serif" font-size="10.00">sstream</text>
</g>
<!-- Node17&#45;&gt;Node19 -->
<g id="edge21" class="edge"><title>Node17&#45;&gt;Node19</title>
<path fill="none" stroke="midnightblue" d="M264.925,-112.324C275.175,-104.185 290.721,-91.8395 303.001,-82.0874"/>
<polygon fill="midnightblue" stroke="midnightblue" points="305.221,-84.7937 310.876,-75.8339 300.868,-79.3119 305.221,-84.7937"/>
</g>
<!-- Node20 -->
<g id="node20" class="node"><title>Node20</title>
<polygon fill="none" stroke="#bfbfbf" points="182,-56.5 182,-75.5 214,-75.5 214,-56.5 182,-56.5"/>
<text text-anchor="middle" x="198" y="-63.5" font-family="Helvetica,sans-Serif" font-size="10.00">list</text>
</g>
<!-- Node17&#45;&gt;Node20 -->
<g id="edge22" class="edge"><title>Node17&#45;&gt;Node20</title>
<path fill="none" stroke="midnightblue" d="M245.003,-112.324C236.806,-104.42 224.494,-92.5482 214.528,-82.9377"/>
<polygon fill="midnightblue" stroke="midnightblue" points="216.789,-80.2558 207.161,-75.8339 211.93,-85.2947 216.789,-80.2558"/>
</g>
<!-- Node23&#45;&gt;Node2 -->
<g id="edge32" class="edge"><title>Node23&#45;&gt;Node2</title>
<path fill="none" stroke="midnightblue" d="M340.2,-280.444C301.166,-270.261 236.432,-253.374 197.83,-243.303"/>
<polygon fill="midnightblue" stroke="midnightblue" points="198.704,-239.914 188.144,-240.777 196.937,-246.688 198.704,-239.914"/>
</g>
<!-- Node24 -->
<g id="node24" class="node"><title>Node24</title>
<g id="a_node24"><a xlink:href="particle__data_8hpp.html" target="_top" xlink:title="For more information on particle_data, see particle_data.c. ">
<polygon fill="none" stroke="black" points="592.5,-224.5 592.5,-243.5 693.5,-243.5 693.5,-224.5 592.5,-224.5"/>
<text text-anchor="middle" x="643" y="-231.5" font-family="Helvetica,sans-Serif" font-size="10.00">particle_data.hpp</text>
</a>
</g>
</g>
<!-- Node23&#45;&gt;Node24 -->
<g id="edge26" class="edge"><title>Node23&#45;&gt;Node24</title>
<path fill="none" stroke="midnightblue" d="M415.782,-280.444C463.179,-270.964 539.626,-255.675 590.583,-245.483"/>
<polygon fill="midnightblue" stroke="midnightblue" points="591.298,-248.91 600.418,-243.516 589.926,-242.046 591.298,-248.91"/>
</g>
<!-- Node25 -->
<g id="node25" class="node"><title>Node25</title>
<g id="a_node25"><a xlink:href="random_8hpp.html" target="_top" xlink:title="A random generator. ">
<polygon fill="none" stroke="black" points="422.5,-224.5 422.5,-243.5 497.5,-243.5 497.5,-224.5 422.5,-224.5"/>
<text text-anchor="middle" x="460" y="-231.5" font-family="Helvetica,sans-Serif" font-size="10.00">random.hpp</text>
</a>
</g>
</g>
<!-- Node23&#45;&gt;Node25 -->
<g id="edge28" class="edge"><title>Node23&#45;&gt;Node25</title>
<path fill="none" stroke="midnightblue" d="M386.978,-280.324C400.55,-271.9 421.38,-258.971 437.325,-249.074"/>
<polygon fill="midnightblue" stroke="midnightblue" points="439.406,-251.902 446.057,-243.655 435.714,-245.954 439.406,-251.902"/>
</g>
<!-- Node26 -->
<g id="node26" class="node"><title>Node26</title>
<g id="a_node26"><a xlink:href="topology_8hpp.html" target="_top" xlink:title="This file contains functions for handling the system topology. ">
<polygon fill="none" stroke="black" points="325.5,-224.5 325.5,-243.5 404.5,-243.5 404.5,-224.5 325.5,-224.5"/>
<text text-anchor="middle" x="365" y="-231.5" font-family="Helvetica,sans-Serif" font-size="10.00">topology.hpp</text>
</a>
</g>
</g>
<!-- Node23&#45;&gt;Node26 -->
<g id="edge30" class="edge"><title>Node23&#45;&gt;Node26</title>
<path fill="none" stroke="midnightblue" d="M371.679,-280.083C370.619,-272.927 369.094,-262.635 367.769,-253.691"/>
<polygon fill="midnightblue" stroke="midnightblue" points="371.224,-253.13 366.296,-243.751 364.3,-254.156 371.224,-253.13"/>
</g>
<!-- Node27 -->
<g id="node27" class="node"><title>Node27</title>
<g id="a_node27"><a xlink:href="cuda__init_8hpp.html" target="_top" xlink:title="cuda_init.hpp">
<polygon fill="none" stroke="black" points="293,-168.5 293,-187.5 375,-187.5 375,-168.5 293,-168.5"/>
<text text-anchor="middle" x="334" y="-175.5" font-family="Helvetica,sans-Serif" font-size="10.00">cuda_init.hpp</text>
</a>
</g>
</g>
<!-- Node23&#45;&gt;Node27 -->
<g id="edge33" class="edge"><title>Node23&#45;&gt;Node27</title>
<path fill="none" stroke="midnightblue" d="M354.918,-280.39C341.438,-272.872 324.028,-260.565 316,-244 308.604,-228.737 315.339,-209.938 322.583,-196.489"/>
<polygon fill="midnightblue" stroke="midnightblue" points="325.663,-198.157 327.752,-187.77 319.642,-194.587 325.663,-198.157"/>
</g>
<!-- Node24&#45;&gt;Node6 -->
<g id="edge27" class="edge"><title>Node24&#45;&gt;Node6</title>
<path fill="none" stroke="midnightblue" d="M643.495,-224.083C643.889,-217.006 644.452,-206.861 644.945,-197.986"/>
<polygon fill="midnightblue" stroke="midnightblue" points="648.454,-197.93 645.514,-187.751 641.464,-197.542 648.454,-197.93"/>
</g>
<!-- Node25&#45;&gt;Node6 -->
<g id="edge29" class="edge"><title>Node25&#45;&gt;Node6</title>
<path fill="none" stroke="midnightblue" d="M489.472,-224.444C521.171,-215.241 571.732,-200.562 606.775,-190.388"/>
<polygon fill="midnightblue" stroke="midnightblue" points="608.038,-193.666 616.666,-187.516 606.086,-186.943 608.038,-193.666"/>
</g>
<!-- Node26&#45;&gt;Node6 -->
<g id="edge31" class="edge"><title>Node26&#45;&gt;Node6</title>
<path fill="none" stroke="midnightblue" d="M404.664,-225.378C458.134,-215.102 552.785,-196.913 606.282,-186.633"/>
<polygon fill="midnightblue" stroke="midnightblue" points="607.249,-190.011 616.409,-184.687 605.928,-183.137 607.249,-190.011"/>
</g>
<!-- Node27&#45;&gt;Node11 -->
<g id="edge34" class="edge"><title>Node27&#45;&gt;Node11</title>
<path fill="none" stroke="midnightblue" d="M333.887,-168.412C334.198,-154.441 336.959,-126.863 353,-112 377.157,-89.6167 467.129,-76.8545 522.117,-70.9871"/>
<polygon fill="midnightblue" stroke="midnightblue" points="522.698,-74.4458 532.286,-69.9378 521.979,-67.4828 522.698,-74.4458"/>
</g>
<!-- Node27&#45;&gt;Node21 -->
<g id="edge35" class="edge"><title>Node27&#45;&gt;Node21</title>
<path fill="none" stroke="midnightblue" d="M342.587,-168.083C350.159,-160.22 361.378,-148.569 370.514,-139.081"/>
<polygon fill="midnightblue" stroke="midnightblue" points="373.158,-141.382 377.573,-131.751 368.115,-136.527 373.158,-141.382"/>
</g>
<!-- Node28&#45;&gt;Node6 -->
<g id="edge37" class="edge"><title>Node28&#45;&gt;Node6</title>
<path fill="none" stroke="midnightblue" d="M498.465,-504.413C485.551,-486.56 458,-443.704 458,-403 458,-403 458,-403 458,-345 458,-314.902 458.863,-304.019 477,-280 510.94,-235.054 571.204,-206.124 609.844,-191.213"/>
<polygon fill="midnightblue" stroke="midnightblue" points="611.507,-194.328 619.65,-187.55 609.058,-187.771 611.507,-194.328"/>
</g>
<!-- Node29 -->
<g id="node29" class="node"><title>Node29</title>
<g id="a_node29"><a xlink:href="lattice__inline_8hpp.html" target="_top" xlink:title="lattice_inline.hpp">
<polygon fill="none" stroke="black" points="486.5,-448.5 486.5,-467.5 587.5,-467.5 587.5,-448.5 486.5,-448.5"/>
<text text-anchor="middle" x="537" y="-455.5" font-family="Helvetica,sans-Serif" font-size="10.00">lattice_inline.hpp</text>
</a>
</g>
</g>
<!-- Node28&#45;&gt;Node29 -->
<g id="edge38" class="edge"><title>Node28&#45;&gt;Node29</title>
<path fill="none" stroke="midnightblue" d="M510.284,-504.083C514.711,-496.613 521.163,-485.724 526.618,-476.52"/>
<polygon fill="midnightblue" stroke="midnightblue" points="529.727,-478.138 531.814,-467.751 523.705,-474.57 529.727,-478.138"/>
</g>
<!-- Node33 -->
<g id="node33" class="node"><title>Node33</title>
<g id="a_node33"><a xlink:href="lbgpu_8hpp.html" target="_top" xlink:title="Header file for lbgpu.cpp. ">
<polygon fill="none" stroke="black" points="912.5,-280.5 912.5,-299.5 977.5,-299.5 977.5,-280.5 912.5,-280.5"/>
<text text-anchor="middle" x="945" y="-287.5" font-family="Helvetica,sans-Serif" font-size="10.00">lbgpu.hpp</text>
</a>
</g>
</g>
<!-- Node28&#45;&gt;Node33 -->
<g id="edge46" class="edge"><title>Node28&#45;&gt;Node33</title>
<path fill="none" stroke="midnightblue" d="M528.702,-507.688C579.705,-495.642 702.717,-463.252 795,-412 849.107,-381.95 903.339,-332.15 929.265,-306.832"/>
<polygon fill="midnightblue" stroke="midnightblue" points="932.002,-309.048 936.652,-299.528 927.08,-304.071 932.002,-309.048"/>
</g>
<!-- Node30 -->
<g id="node30" class="node"><title>Node30</title>
<g id="a_node30"><a xlink:href="lattice_8hpp.html" target="_top" xlink:title="Lattice class definition Contains the lattice layout and pointers to the data fields. ">
<polygon fill="none" stroke="black" points="503,-392.5 503,-411.5 571,-411.5 571,-392.5 503,-392.5"/>
<text text-anchor="middle" x="537" y="-399.5" font-family="Helvetica,sans-Serif" font-size="10.00">lattice.hpp</text>
</a>
</g>
</g>
<!-- Node29&#45;&gt;Node30 -->
<g id="edge39" class="edge"><title>Node29&#45;&gt;Node30</title>
<path fill="none" stroke="midnightblue" d="M537,-448.083C537,-441.006 537,-430.861 537,-421.986"/>
<polygon fill="midnightblue" stroke="midnightblue" points="540.5,-421.751 537,-411.751 533.5,-421.751 540.5,-421.751"/>
</g>
<!-- Node30&#45;&gt;Node24 -->
<g id="edge45" class="edge"><title>Node30&#45;&gt;Node24</title>
<path fill="none" stroke="midnightblue" d="M542.699,-392.075C559.601,-365.606 609.662,-287.209 632.011,-252.21"/>
<polygon fill="midnightblue" stroke="midnightblue" points="635.097,-253.88 637.529,-243.568 629.197,-250.113 635.097,-253.88"/>
</g>
<!-- Node31 -->
<g id="node31" class="node"><title>Node31</title>
<g id="a_node31"><a xlink:href="grid_8hpp.html" target="_top" xlink:title="Domain decomposition for parallel computing. ">
<polygon fill="none" stroke="black" points="486,-336.5 486,-355.5 542,-355.5 542,-336.5 486,-336.5"/>
<text text-anchor="middle" x="514" y="-343.5" font-family="Helvetica,sans-Serif" font-size="10.00">grid.hpp</text>
</a>
</g>
</g>
<!-- Node30&#45;&gt;Node31 -->
<g id="edge40" class="edge"><title>Node30&#45;&gt;Node31</title>
<path fill="none" stroke="midnightblue" d="M533.202,-392.083C530.087,-384.77 525.577,-374.181 521.711,-365.103"/>
<polygon fill="midnightblue" stroke="midnightblue" points="524.866,-363.58 517.727,-355.751 518.426,-366.323 524.866,-363.58"/>
</g>
<!-- Node31&#45;&gt;Node6 -->
<g id="edge41" class="edge"><title>Node31&#45;&gt;Node6</title>
<path fill="none" stroke="midnightblue" d="M520.552,-336.276C527.102,-327.381 537.282,-313.07 545,-300 564.203,-267.482 558.467,-252.711 583,-224 593.68,-211.501 608.536,-200.674 621.14,-192.773"/>
<polygon fill="midnightblue" stroke="midnightblue" points="623.056,-195.705 629.827,-187.556 619.452,-189.704 623.056,-195.705"/>
</g>
<!-- Node31&#45;&gt;Node17 -->
<g id="edge44" class="edge"><title>Node31&#45;&gt;Node17</title>
<path fill="none" stroke="midnightblue" d="M485.726,-342.385C435.315,-337.167 332.771,-323.862 307,-300 261.337,-257.72 254.446,-177.87 253.785,-141.675"/>
<polygon fill="midnightblue" stroke="midnightblue" points="257.285,-141.548 253.749,-131.56 250.285,-141.573 257.285,-141.548"/>
</g>
<!-- Node31&#45;&gt;Node23 -->
<g id="edge43" class="edge"><title>Node31&#45;&gt;Node23</title>
<path fill="none" stroke="midnightblue" d="M491.658,-336.444C468.247,-327.478 431.264,-313.314 404.81,-303.183"/>
<polygon fill="midnightblue" stroke="midnightblue" points="405.828,-299.824 395.237,-299.516 403.324,-306.361 405.828,-299.824"/>
</g>
<!-- Node32 -->
<g id="node32" class="node"><title>Node32</title>
<polygon fill="none" stroke="#bfbfbf" points="486,-280.5 486,-299.5 536,-299.5 536,-280.5 486,-280.5"/>
<text text-anchor="middle" x="511" y="-287.5" font-family="Helvetica,sans-Serif" font-size="10.00">climits</text>
</g>
<!-- Node31&#45;&gt;Node32 -->
<g id="edge42" class="edge"><title>Node31&#45;&gt;Node32</title>
<path fill="none" stroke="midnightblue" d="M513.505,-336.083C513.111,-329.006 512.548,-318.861 512.055,-309.986"/>
<polygon fill="midnightblue" stroke="midnightblue" points="515.536,-309.542 511.486,-299.751 508.546,-309.93 515.536,-309.542"/>
</g>
<!-- Node33&#45;&gt;Node6 -->
<g id="edge47" class="edge"><title>Node33&#45;&gt;Node6</title>
<path fill="none" stroke="midnightblue" d="M936.95,-280.281C923.354,-266.123 894.344,-238.282 864,-224 805.61,-196.518 730.635,-185.742 685.559,-181.57"/>
<polygon fill="midnightblue" stroke="midnightblue" points="685.855,-178.083 675.591,-180.711 685.253,-185.057 685.855,-178.083"/>
</g>
<!-- Node33&#45;&gt;Node11 -->
<g id="edge48" class="edge"><title>Node33&#45;&gt;Node11</title>
<path fill="none" stroke="midnightblue" d="M977.642,-286.919C1006.49,-283.148 1046.99,-272.707 1067,-244 1092.92,-206.805 1136.81,-196.991 1033,-112 1000.64,-85.5068 719.641,-72.5598 609.769,-68.4752"/>
<polygon fill="midnightblue" stroke="midnightblue" points="609.805,-64.9743 599.685,-68.1074 609.55,-71.9697 609.805,-64.9743"/>
</g>
<!-- Node34 -->
<g id="node34" class="node"><title>Node34</title>
<g id="a_node34"><a xlink:href="statistics__observable_8hpp.html" target="_top" xlink:title="statistics_observable.hpp">
<polygon fill="none" stroke="black" points="916.5,-224.5 916.5,-243.5 1057.5,-243.5 1057.5,-224.5 916.5,-224.5"/>
<text text-anchor="middle" x="987" y="-231.5" font-family="Helvetica,sans-Serif" font-size="10.00">statistics_observable.hpp</text>
</a>
</g>
</g>
<!-- Node33&#45;&gt;Node34 -->
<g id="edge49" class="edge"><title>Node33&#45;&gt;Node34</title>
<path fill="none" stroke="midnightblue" d="M951.935,-280.083C957.929,-272.377 966.752,-261.033 974.048,-251.653"/>
<polygon fill="midnightblue" stroke="midnightblue" points="976.817,-253.793 980.194,-243.751 971.291,-249.496 976.817,-253.793"/>
</g>
<!-- Node34&#45;&gt;Node6 -->
<g id="edge51" class="edge"><title>Node34&#45;&gt;Node6</title>
<path fill="none" stroke="midnightblue" d="M932.968,-224.444C864.087,-213.536 746.627,-194.935 685.537,-185.261"/>
<polygon fill="midnightblue" stroke="midnightblue" points="685.946,-181.782 675.521,-183.675 684.851,-188.696 685.946,-181.782"/>
</g>
<!-- Node34&#45;&gt;Node7 -->
<g id="edge54" class="edge"><title>Node34&#45;&gt;Node7</title>
<path fill="none" stroke="midnightblue" d="M976.171,-224.368C952.692,-205.653 896.862,-161.151 867.608,-137.832"/>
<polygon fill="midnightblue" stroke="midnightblue" points="869.78,-135.088 859.778,-131.591 865.416,-140.561 869.78,-135.088"/>
</g>
<!-- Node34&#45;&gt;Node8 -->
<g id="edge52" class="edge"><title>Node34&#45;&gt;Node8</title>
<path fill="none" stroke="midnightblue" d="M981.272,-224.368C969.225,-206.215 941.077,-163.802 925.275,-139.99"/>
<polygon fill="midnightblue" stroke="midnightblue" points="928.147,-137.988 919.702,-131.591 922.315,-141.859 928.147,-137.988"/>
</g>
<!-- Node34&#45;&gt;Node9 -->
<g id="edge53" class="edge"><title>Node34&#45;&gt;Node9</title>
<path fill="none" stroke="midnightblue" d="M986.451,-224.368C985.321,-206.617 982.715,-165.666 981.183,-141.597"/>
<polygon fill="midnightblue" stroke="midnightblue" points="984.675,-141.349 980.547,-131.591 977.689,-141.794 984.675,-141.349"/>
</g>
<!-- Node34&#45;&gt;Node11 -->
<g id="edge50" class="edge"><title>Node34&#45;&gt;Node11</title>
<path fill="none" stroke="midnightblue" d="M993.202,-224.396C1008.1,-202.608 1042.55,-144.669 1013,-112 986.261,-82.4336 717.148,-71.3913 609.836,-68.1428"/>
<polygon fill="midnightblue" stroke="midnightblue" points="609.767,-64.6394 599.668,-67.8438 609.561,-71.6363 609.767,-64.6394"/>
</g>
<!-- Node35&#45;&gt;Node6 -->
<g id="edge56" class="edge"><title>Node35&#45;&gt;Node6</title>
<path fill="none" stroke="midnightblue" d="M745.687,-392.279C755.937,-384.027 770.493,-370.736 779,-356 796.213,-326.183 809.127,-310.928 794,-280 771.763,-234.534 718.01,-206.063 681.783,-191.35"/>
<polygon fill="midnightblue" stroke="midnightblue" points="682.659,-187.935 672.071,-187.562 680.116,-194.456 682.659,-187.935"/>
</g>
<!-- Node36 -->
<g id="node36" class="node"><title>Node36</title>
<g id="a_node36"><a xlink:href="constraint_8hpp.html" target="_top" xlink:title="Routines for handling of constraints. ">
<polygon fill="none" stroke="black" points="684,-336.5 684,-355.5 770,-355.5 770,-336.5 684,-336.5"/>
<text text-anchor="middle" x="727" y="-343.5" font-family="Helvetica,sans-Serif" font-size="10.00">constraint.hpp</text>
</a>
</g>
</g>
<!-- Node35&#45;&gt;Node36 -->
<g id="edge57" class="edge"><title>Node35&#45;&gt;Node36</title>
<path fill="none" stroke="midnightblue" d="M732.844,-392.083C731.916,-384.927 730.582,-374.635 729.423,-365.691"/>
<polygon fill="midnightblue" stroke="midnightblue" points="732.891,-365.218 728.134,-355.751 725.949,-366.118 732.891,-365.218"/>
</g>
<!-- Node36&#45;&gt;Node24 -->
<g id="edge58" class="edge"><title>Node36&#45;&gt;Node24</title>
<path fill="none" stroke="midnightblue" d="M706.402,-336.42C691.068,-328.988 670.823,-316.78 659,-300 649.483,-286.492 645.602,-267.937 644.032,-254.109"/>
<polygon fill="midnightblue" stroke="midnightblue" points="647.494,-253.498 643.184,-243.819 640.517,-254.073 647.494,-253.498"/>
</g>
<!-- Node37 -->
<g id="node37" class="node"><title>Node37</title>
<g id="a_node37"><a xlink:href="interaction__data_8hpp.html" target="_top" xlink:title="Various procedures concerning interactions between particles. ">
<polygon fill="none" stroke="black" points="668.5,-280.5 668.5,-299.5 785.5,-299.5 785.5,-280.5 668.5,-280.5"/>
<text text-anchor="middle" x="727" y="-287.5" font-family="Helvetica,sans-Serif" font-size="10.00">interaction_data.hpp</text>
</a>
</g>
</g>
<!-- Node36&#45;&gt;Node37 -->
<g id="edge59" class="edge"><title>Node36&#45;&gt;Node37</title>
<path fill="none" stroke="midnightblue" d="M727,-336.083C727,-329.006 727,-318.861 727,-309.986"/>
<polygon fill="midnightblue" stroke="midnightblue" points="730.5,-309.751 727,-299.751 723.5,-309.751 730.5,-309.751"/>
</g>
<!-- Node37&#45;&gt;Node6 -->
<g id="edge60" class="edge"><title>Node37&#45;&gt;Node6</title>
<path fill="none" stroke="midnightblue" d="M725.193,-280.302C722.136,-267.129 714.973,-241.774 702,-224 693.181,-211.917 680.333,-201.279 669.168,-193.384"/>
<polygon fill="midnightblue" stroke="midnightblue" points="670.932,-190.352 660.683,-187.665 667.019,-196.156 670.932,-190.352"/>
</g>
<!-- Node37&#45;&gt;Node24 -->
<g id="edge61" class="edge"><title>Node37&#45;&gt;Node24</title>
<path fill="none" stroke="midnightblue" d="M713.504,-280.324C700.4,-271.9 680.288,-258.971 664.893,-249.074"/>
<polygon fill="midnightblue" stroke="midnightblue" points="666.767,-246.118 656.463,-243.655 662.982,-252.006 666.767,-246.118"/>
</g>
<!-- Node38&#45;&gt;Node6 -->
<g id="edge63" class="edge"><title>Node38&#45;&gt;Node6</title>
<path fill="none" stroke="midnightblue" d="M852.091,-448.289C851.932,-413.073 846.146,-280.423 770,-224 744.903,-205.403 711.349,-193.849 685.475,-187.112"/>
<polygon fill="midnightblue" stroke="midnightblue" points="686.162,-183.676 675.614,-184.678 684.484,-190.472 686.162,-183.676"/>
</g>
</g>
</svg>
