<?xml version="1.0" encoding="UTF-8" standalone="no"?>
<!DOCTYPE svg PUBLIC "-//W3C//DTD SVG 1.1//EN"
 "http://www.w3.org/Graphics/SVG/1.1/DTD/svg11.dtd">
<!-- Generated by graphviz version 2.38.0 (20140413.2041)
 -->
<!-- Title: statistics_wallstuff_tcl.hpp Pages: 1 -->
<svg width="341pt" height="151pt"
 viewBox="0.00 0.00 340.50 151.00" xmlns="http://www.w3.org/2000/svg" xmlns:xlink="http://www.w3.org/1999/xlink">
<g id="graph0" class="graph" transform="scale(1 1) rotate(0) translate(4 147)">
<title>statistics_wallstuff_tcl.hpp</title>
<!-- Node1 -->
<g id="node1" class="node"><title>Node1</title>
<polygon fill="#bfbfbf" stroke="black" points="131,-112.5 131,-142.5 239,-142.5 239,-112.5 131,-112.5"/>
<text text-anchor="start" x="139" y="-130.5" font-family="Helvetica,sans-Serif" font-size="10.00">statistics_wallstuff</text>
<text text-anchor="middle" x="185" y="-119.5" font-family="Helvetica,sans-Serif" font-size="10.00">_tcl.hpp</text>
</g>
<!-- Node2 -->
<g id="node2" class="node"><title>Node2</title>
<g id="a_node2"><a xlink:href="config_8hpp.html" target="_top" xlink:title="This file contains the defaults for Espresso. ">
<polygon fill="none" stroke="black" points="116.5,-56.5 116.5,-75.5 183.5,-75.5 183.5,-56.5 116.5,-56.5"/>
<text text-anchor="middle" x="150" y="-63.5" font-family="Helvetica,sans-Serif" font-size="10.00">config.hpp</text>
</a>
</g>
</g>
<!-- Node1&#45;&gt;Node2 -->
<g id="edge1" class="edge"><title>Node1&#45;&gt;Node2</title>
<path fill="none" stroke="midnightblue" d="M176.705,-112.399C171.777,-104.021 165.486,-93.3269 160.249,-84.4229"/>
<polygon fill="midnightblue" stroke="midnightblue" points="163.18,-82.5025 155.093,-75.6578 157.146,-86.0517 163.18,-82.5025"/>
</g>
<!-- Node6 -->
<g id="node6" class="node"><title>Node6</title>
<polygon fill="none" stroke="#bfbfbf" points="202,-56.5 202,-75.5 240,-75.5 240,-56.5 202,-56.5"/>
<text text-anchor="middle" x="221" y="-63.5" font-family="Helvetica,sans-Serif" font-size="10.00">tcl.h</text>
</g>
<!-- Node1&#45;&gt;Node6 -->
<g id="edge5" class="edge"><title>Node1&#45;&gt;Node6</title>
<path fill="none" stroke="midnightblue" d="M193.531,-112.399C198.601,-104.021 205.071,-93.3269 210.458,-84.4229"/>
<polygon fill="midnightblue" stroke="midnightblue" points="213.58,-86.0255 215.762,-75.6578 207.59,-82.4018 213.58,-86.0255"/>
</g>
<!-- Node3 -->
<g id="node3" class="node"><title>Node3</title>
<g id="a_node3"><a xlink:href="acconfig_8hpp.html" target="_top" xlink:title="acconfig.hpp">
<polygon fill="none" stroke="black" points="0,-0.5 0,-19.5 78,-19.5 78,-0.5 0,-0.5"/>
<text text-anchor="middle" x="39" y="-7.5" font-family="Helvetica,sans-Serif" font-size="10.00">acconfig.hpp</text>
</a>
</g>
</g>
<!-- Node2&#45;&gt;Node3 -->
<g id="edge2" class="edge"><title>Node2&#45;&gt;Node3</title>
<path fill="none" stroke="midnightblue" d="M132.166,-56.324C114.284,-47.6247 86.5249,-34.1202 65.9544,-24.113"/>
<polygon fill="midnightblue" stroke="midnightblue" points="67.3133,-20.8819 56.7898,-19.6545 64.251,-27.1765 67.3133,-20.8819"/>
</g>
<!-- Node4 -->
<g id="node4" class="node"><title>Node4</title>
<g id="a_node4"><a xlink:href="myconfig-final_8hpp.html" target="_top" xlink:title="myconfig&#45;final.hpp">
<polygon fill="none" stroke="black" points="96.5,-0.5 96.5,-19.5 203.5,-19.5 203.5,-0.5 96.5,-0.5"/>
<text text-anchor="middle" x="150" y="-7.5" font-family="Helvetica,sans-Serif" font-size="10.00">myconfig&#45;final.hpp</text>
</a>
</g>
</g>
<!-- Node2&#45;&gt;Node4 -->
<g id="edge3" class="edge"><title>Node2&#45;&gt;Node4</title>
<path fill="none" stroke="midnightblue" d="M150,-56.083C150,-49.0059 150,-38.8611 150,-29.9865"/>
<polygon fill="midnightblue" stroke="midnightblue" points="153.5,-29.751 150,-19.7511 146.5,-29.7511 153.5,-29.751"/>
</g>
<!-- Node5 -->
<g id="node5" class="node"><title>Node5</title>
<g id="a_node5"><a xlink:href="config-features_8hpp.html" target="_top" xlink:title="config&#45;features.hpp">
<polygon fill="none" stroke="black" points="221.5,-0.5 221.5,-19.5 332.5,-19.5 332.5,-0.5 221.5,-0.5"/>
<text text-anchor="middle" x="277" y="-7.5" font-family="Helvetica,sans-Serif" font-size="10.00">config&#45;features.hpp</text>
</a>
</g>
</g>
<!-- Node2&#45;&gt;Node5 -->
<g id="edge4" class="edge"><title>Node2&#45;&gt;Node5</title>
<path fill="none" stroke="midnightblue" d="M170.124,-56.4435C191.024,-47.5566 223.935,-33.5632 247.716,-23.4514"/>
<polygon fill="midnightblue" stroke="midnightblue" points="249.138,-26.6504 256.971,-19.5164 246.398,-20.2085 249.138,-26.6504"/>
</g>
</g>
</svg>
