<?xml version="1.0" encoding="UTF-8" standalone="no"?>
<!DOCTYPE svg PUBLIC "-//W3C//DTD SVG 1.1//EN"
 "http://www.w3.org/Graphics/SVG/1.1/DTD/svg11.dtd">
<!-- Generated by graphviz version 2.38.0 (20140413.2041)
 -->
<!-- Title: statistics_cluster_tcl.hpp Pages: 1 -->
<svg width="377pt" height="106pt"
 viewBox="0.00 0.00 376.50 106.00" xmlns="http://www.w3.org/2000/svg" xmlns:xlink="http://www.w3.org/1999/xlink">
<g id="graph0" class="graph" transform="scale(1 1) rotate(0) translate(4 102)">
<title>statistics_cluster_tcl.hpp</title>
<!-- Node1 -->
<g id="node1" class="node"><title>Node1</title>
<polygon fill="#bfbfbf" stroke="black" points="153,-67.5 153,-97.5 252,-97.5 252,-67.5 153,-67.5"/>
<text text-anchor="start" x="161" y="-85.5" font-family="Helvetica,sans-Serif" font-size="10.00">statistics_cluster</text>
<text text-anchor="middle" x="202.5" y="-74.5" font-family="Helvetica,sans-Serif" font-size="10.00">_tcl.hpp</text>
</g>
<!-- Node2 -->
<g id="node2" class="node"><title>Node2</title>
<g id="a_node2"><a xlink:href="initialize__interpreter_8cpp.html" target="_top" xlink:title="initialize_interpreter.cpp">
<polygon fill="none" stroke="black" points="0,-6 0,-25 135,-25 135,-6 0,-6"/>
<text text-anchor="middle" x="67.5" y="-13" font-family="Helvetica,sans-Serif" font-size="10.00">initialize_interpreter.cpp</text>
</a>
</g>
</g>
<!-- Node1&#45;&gt;Node2 -->
<g id="edge1" class="edge"><title>Node1&#45;&gt;Node2</title>
<path fill="none" stroke="midnightblue" d="M164.009,-62.9674C138.076,-50.481 105.088,-34.5978 85.1684,-25.007"/>
<polygon fill="midnightblue" stroke="midnightblue" points="162.679,-66.2113 173.207,-67.396 165.715,-59.9042 162.679,-66.2113"/>
</g>
<!-- Node3 -->
<g id="node3" class="node"><title>Node3</title>
<g id="a_node3"><a xlink:href="statistics__cluster__tcl_8cpp.html" target="_top" xlink:title="statistics_cluster\l_tcl.cpp">
<polygon fill="none" stroke="black" points="153,-0.5 153,-30.5 252,-30.5 252,-0.5 153,-0.5"/>
<text text-anchor="start" x="161" y="-18.5" font-family="Helvetica,sans-Serif" font-size="10.00">statistics_cluster</text>
<text text-anchor="middle" x="202.5" y="-7.5" font-family="Helvetica,sans-Serif" font-size="10.00">_tcl.cpp</text>
</a>
</g>
</g>
<!-- Node1&#45;&gt;Node3 -->
<g id="edge2" class="edge"><title>Node1&#45;&gt;Node3</title>
<path fill="none" stroke="midnightblue" d="M202.5,-57.1081C202.5,-48.1539 202.5,-38.3227 202.5,-30.5765"/>
<polygon fill="midnightblue" stroke="midnightblue" points="199,-57.3959 202.5,-67.396 206,-57.396 199,-57.3959"/>
</g>
<!-- Node4 -->
<g id="node4" class="node"><title>Node4</title>
<g id="a_node4"><a xlink:href="statistics__tcl_8cpp.html" target="_top" xlink:title="statistics_tcl.cpp">
<polygon fill="none" stroke="black" points="270.5,-6 270.5,-25 368.5,-25 368.5,-6 270.5,-6"/>
<text text-anchor="middle" x="319.5" y="-13" font-family="Helvetica,sans-Serif" font-size="10.00">statistics_tcl.cpp</text>
</a>
</g>
</g>
<!-- Node1&#45;&gt;Node4 -->
<g id="edge3" class="edge"><title>Node1&#45;&gt;Node4</title>
<path fill="none" stroke="midnightblue" d="M236.749,-62.4727C259.085,-50.0641 287.151,-34.4716 304.187,-25.007"/>
<polygon fill="midnightblue" stroke="midnightblue" points="234.929,-59.4799 227.887,-67.396 238.329,-65.599 234.929,-59.4799"/>
</g>
</g>
</svg>
