<?xml version="1.0" encoding="UTF-8" standalone="no"?>
<!DOCTYPE svg PUBLIC "-//W3C//DTD SVG 1.1//EN"
 "http://www.w3.org/Graphics/SVG/1.1/DTD/svg11.dtd">
<!-- Generated by graphviz version 2.38.0 (20140413.2041)
 -->
<!-- Title: statistics_correlation.hpp Pages: 1 -->
<!--zoomable 308 -->
<svg id="main" version="1.1" xmlns="http://www.w3.org/2000/svg" xmlns:xlink="http://www.w3.org/1999/xlink" xml:space="preserve" onload="init(evt)">
<style type="text/css"><![CDATA[
.edge:hover path { stroke: red; }
.edge:hover polygon { stroke: red; fill: red; }
]]></style>
<script type="text/javascript"><![CDATA[
var edges = document.getElementsByTagName('g');
if (edges && edges.length) {
  for (var i=0;i<edges.length;i++) {
    if (edges[i].id.substr(0,4)=='edge') {
      edges[i].setAttribute('class','edge');
    }
  }
}
]]></script>
        <defs>
                <circle id="rim" cx="0" cy="0" r="7"/>
                <circle id="rim2" cx="0" cy="0" r="3.5"/>
                <g id="zoomPlus">
                        <use xlink:href="#rim" fill="#404040">
                                <set attributeName="fill" to="#808080" begin="zoomplus.mouseover" end="zoomplus.mouseout"/>
                        </use>
                        <path d="M-4,0h8M0,-4v8" fill="none" stroke="white" stroke-width="1.5" pointer-events="none"/>
                </g>
                <g id="zoomMin">
                        <use xlink:href="#rim" fill="#404040">
                                <set attributeName="fill" to="#808080" begin="zoomminus.mouseover" end="zoomminus.mouseout"/>
                        </use>
                        <path d="M-4,0h8" fill="none" stroke="white" stroke-width="1.5" pointer-events="none"/>
                </g>
                <g id="dirArrow">
                        <path fill="none" stroke="white" stroke-width="1.5" d="M0,-3.0v7 M-2.5,-0.5L0,-3.0L2.5,-0.5"/>
                </g>
               <g id="resetDef">
                       <use xlink:href="#rim2" fill="#404040">
                               <set attributeName="fill" to="#808080" begin="reset.mouseover" end="reset.mouseout"/>
                       </use>
               </g>
        </defs>

<script type="text/javascript">
var viewWidth = 811;
var viewHeight = 308;
var sectionId = 'dynsection-0';
</script>
<script xlink:href="svgpan.js"/>
<svg id="graph" class="graph">
<g id="viewport">
<title>statistics_correlation.hpp</title>
<!-- Node1 -->
<g id="node1" class="node"><title>Node1</title>
<polygon fill="#bfbfbf" stroke="black" points="431.5,-280.5 431.5,-299.5 571.5,-299.5 571.5,-280.5 431.5,-280.5"/>
<text text-anchor="middle" x="501.5" y="-287.5" font-family="Helvetica,sans-Serif" font-size="10.00">statistics_correlation.hpp</text>
</g>
<!-- Node2 -->
<g id="node2" class="node"><title>Node2</title>
<polygon fill="none" stroke="#bfbfbf" points="756.5,-112.5 756.5,-131.5 802.5,-131.5 802.5,-112.5 756.5,-112.5"/>
<text text-anchor="middle" x="779.5" y="-119.5" font-family="Helvetica,sans-Serif" font-size="10.00">cstdio</text>
</g>
<!-- Node1&#45;&gt;Node2 -->
<g id="edge1" class="edge"><title>Node1&#45;&gt;Node2</title>
<path fill="none" stroke="midnightblue" d="M517.878,-280.483C534.734,-271.634 561.678,-257.252 584.5,-244 648.073,-207.085 721.304,-160.526 757.246,-137.401"/>
<polygon fill="midnightblue" stroke="midnightblue" points="759.447,-140.147 765.955,-131.787 755.654,-134.264 759.447,-140.147"/>
</g>
<!-- Node3 -->
<g id="node3" class="node"><title>Node3</title>
<polygon fill="none" stroke="#bfbfbf" points="0,-112.5 0,-131.5 49,-131.5 49,-112.5 0,-112.5"/>
<text text-anchor="middle" x="24.5" y="-119.5" font-family="Helvetica,sans-Serif" font-size="10.00">cstdlib</text>
</g>
<!-- Node1&#45;&gt;Node3 -->
<g id="edge2" class="edge"><title>Node1&#45;&gt;Node3</title>
<path fill="none" stroke="midnightblue" d="M431.274,-282.489C316.662,-270.449 96.6191,-240.975 41.5,-188 29.1572,-176.137 25.3792,-156.513 24.4024,-141.925"/>
<polygon fill="midnightblue" stroke="midnightblue" points="27.8904,-141.447 24.1094,-131.55 20.8932,-141.645 27.8904,-141.447"/>
</g>
<!-- Node4 -->
<g id="node4" class="node"><title>Node4</title>
<polygon fill="none" stroke="#bfbfbf" points="691,-112.5 691,-131.5 738,-131.5 738,-112.5 691,-112.5"/>
<text text-anchor="middle" x="714.5" y="-119.5" font-family="Helvetica,sans-Serif" font-size="10.00">cmath</text>
</g>
<!-- Node1&#45;&gt;Node4 -->
<g id="edge3" class="edge"><title>Node1&#45;&gt;Node4</title>
<path fill="none" stroke="midnightblue" d="M512.652,-280.309C547.087,-253.472 652.02,-171.694 695.41,-137.878"/>
<polygon fill="midnightblue" stroke="midnightblue" points="697.722,-140.513 703.458,-131.605 693.419,-134.992 697.722,-140.513"/>
</g>
<!-- Node5 -->
<g id="node5" class="node"><title>Node5</title>
<g id="a_node5"><a xlink:href="statistics__observable_8hpp.html" target="_top" xlink:title="statistics_observable.hpp">
<polygon fill="none" stroke="black" points="371,-224.5 371,-243.5 512,-243.5 512,-224.5 371,-224.5"/>
<text text-anchor="middle" x="441.5" y="-231.5" font-family="Helvetica,sans-Serif" font-size="10.00">statistics_observable.hpp</text>
</a>
</g>
</g>
<!-- Node1&#45;&gt;Node5 -->
<g id="edge4" class="edge"><title>Node1&#45;&gt;Node5</title>
<path fill="none" stroke="midnightblue" d="M491.86,-280.324C482.99,-272.341 469.625,-260.313 458.892,-250.653"/>
<polygon fill="midnightblue" stroke="midnightblue" points="461.09,-247.922 451.315,-243.834 456.407,-253.125 461.09,-247.922"/>
</g>
<!-- Node5&#45;&gt;Node2 -->
<g id="edge26" class="edge"><title>Node5&#45;&gt;Node2</title>
<path fill="none" stroke="midnightblue" d="M467.741,-224.46C528.672,-204.63 679.63,-155.502 746.599,-133.708"/>
<polygon fill="midnightblue" stroke="midnightblue" points="747.799,-136.998 756.225,-130.575 745.632,-130.341 747.799,-136.998"/>
</g>
<!-- Node5&#45;&gt;Node3 -->
<g id="edge27" class="edge"><title>Node5&#45;&gt;Node3</title>
<path fill="none" stroke="midnightblue" d="M370.961,-231.903C275.879,-229.205 112.809,-219.915 63.5,-188 46.9643,-177.297 36.433,-156.891 30.5372,-141.786"/>
<polygon fill="midnightblue" stroke="midnightblue" points="33.6859,-140.193 27.0439,-131.939 27.0887,-142.533 33.6859,-140.193"/>
</g>
<!-- Node5&#45;&gt;Node4 -->
<g id="edge28" class="edge"><title>Node5&#45;&gt;Node4</title>
<path fill="none" stroke="midnightblue" d="M453.098,-224.431C472.122,-210.736 511.544,-183.848 548.5,-168 601.923,-145.09 620.515,-147.704 680.683,-132.153"/>
<polygon fill="midnightblue" stroke="midnightblue" points="681.94,-135.441 690.708,-129.494 680.145,-128.675 681.94,-135.441"/>
</g>
<!-- Node6 -->
<g id="node6" class="node"><title>Node6</title>
<g id="a_node6"><a xlink:href="config_8hpp.html" target="_top" xlink:title="This file contains the defaults for Espresso. ">
<polygon fill="none" stroke="black" points="293,-56.5 293,-75.5 360,-75.5 360,-56.5 293,-56.5"/>
<text text-anchor="middle" x="326.5" y="-63.5" font-family="Helvetica,sans-Serif" font-size="10.00">config.hpp</text>
</a>
</g>
</g>
<!-- Node5&#45;&gt;Node6 -->
<g id="edge5" class="edge"><title>Node5&#45;&gt;Node6</title>
<path fill="none" stroke="midnightblue" d="M391.463,-224.494C310.013,-209.515 154.591,-175.822 122.5,-132 81.1066,-75.4756 211.247,-66.9493 282.775,-66.3836"/>
<polygon fill="midnightblue" stroke="midnightblue" points="282.886,-69.8834 292.875,-66.3532 282.865,-62.8835 282.886,-69.8834"/>
</g>
<!-- Node10 -->
<g id="node10" class="node"><title>Node10</title>
<g id="a_node10"><a xlink:href="utils_8hpp.html" target="_top" xlink:title="Small functions that are useful not only for one modul. ">
<polygon fill="none" stroke="black" points="401,-168.5 401,-187.5 460,-187.5 460,-168.5 401,-168.5"/>
<text text-anchor="middle" x="430.5" y="-175.5" font-family="Helvetica,sans-Serif" font-size="10.00">utils.hpp</text>
</a>
</g>
</g>
<!-- Node5&#45;&gt;Node10 -->
<g id="edge9" class="edge"><title>Node5&#45;&gt;Node10</title>
<path fill="none" stroke="midnightblue" d="M439.684,-224.083C438.226,-216.927 436.129,-206.635 434.307,-197.691"/>
<polygon fill="midnightblue" stroke="midnightblue" points="437.708,-196.851 432.283,-187.751 430.849,-198.248 437.708,-196.851"/>
</g>
<!-- Node7 -->
<g id="node7" class="node"><title>Node7</title>
<g id="a_node7"><a xlink:href="acconfig_8hpp.html" target="_top" xlink:title="acconfig.hpp">
<polygon fill="none" stroke="black" points="176.5,-0.5 176.5,-19.5 254.5,-19.5 254.5,-0.5 176.5,-0.5"/>
<text text-anchor="middle" x="215.5" y="-7.5" font-family="Helvetica,sans-Serif" font-size="10.00">acconfig.hpp</text>
</a>
</g>
</g>
<!-- Node6&#45;&gt;Node7 -->
<g id="edge6" class="edge"><title>Node6&#45;&gt;Node7</title>
<path fill="none" stroke="midnightblue" d="M308.666,-56.324C290.784,-47.6247 263.025,-34.1202 242.454,-24.113"/>
<polygon fill="midnightblue" stroke="midnightblue" points="243.813,-20.8819 233.29,-19.6545 240.751,-27.1765 243.813,-20.8819"/>
</g>
<!-- Node8 -->
<g id="node8" class="node"><title>Node8</title>
<g id="a_node8"><a xlink:href="myconfig-final_8hpp.html" target="_top" xlink:title="myconfig&#45;final.hpp">
<polygon fill="none" stroke="black" points="273,-0.5 273,-19.5 380,-19.5 380,-0.5 273,-0.5"/>
<text text-anchor="middle" x="326.5" y="-7.5" font-family="Helvetica,sans-Serif" font-size="10.00">myconfig&#45;final.hpp</text>
</a>
</g>
</g>
<!-- Node6&#45;&gt;Node8 -->
<g id="edge7" class="edge"><title>Node6&#45;&gt;Node8</title>
<path fill="none" stroke="midnightblue" d="M326.5,-56.083C326.5,-49.0059 326.5,-38.8611 326.5,-29.9865"/>
<polygon fill="midnightblue" stroke="midnightblue" points="330,-29.751 326.5,-19.7511 323,-29.7511 330,-29.751"/>
</g>
<!-- Node9 -->
<g id="node9" class="node"><title>Node9</title>
<g id="a_node9"><a xlink:href="config-features_8hpp.html" target="_top" xlink:title="config&#45;features.hpp">
<polygon fill="none" stroke="black" points="398,-0.5 398,-19.5 509,-19.5 509,-0.5 398,-0.5"/>
<text text-anchor="middle" x="453.5" y="-7.5" font-family="Helvetica,sans-Serif" font-size="10.00">config&#45;features.hpp</text>
</a>
</g>
</g>
<!-- Node6&#45;&gt;Node9 -->
<g id="edge8" class="edge"><title>Node6&#45;&gt;Node9</title>
<path fill="none" stroke="midnightblue" d="M346.624,-56.4435C367.524,-47.5566 400.435,-33.5632 424.216,-23.4514"/>
<polygon fill="midnightblue" stroke="midnightblue" points="425.638,-26.6504 433.471,-19.5164 422.898,-20.2085 425.638,-26.6504"/>
</g>
<!-- Node10&#45;&gt;Node2 -->
<g id="edge11" class="edge"><title>Node10&#45;&gt;Node2</title>
<path fill="none" stroke="midnightblue" d="M460.01,-174.138C514.664,-168.554 635.443,-154.886 746.174,-132.042"/>
<polygon fill="midnightblue" stroke="midnightblue" points="747.1,-135.424 756.17,-129.949 745.665,-128.573 747.1,-135.424"/>
</g>
<!-- Node10&#45;&gt;Node3 -->
<g id="edge12" class="edge"><title>Node10&#45;&gt;Node3</title>
<path fill="none" stroke="midnightblue" d="M400.974,-173.073C327.777,-163.337 138.19,-138.121 59.5159,-127.657"/>
<polygon fill="midnightblue" stroke="midnightblue" points="59.5486,-124.131 49.1745,-126.282 58.6257,-131.07 59.5486,-124.131"/>
</g>
<!-- Node10&#45;&gt;Node4 -->
<g id="edge10" class="edge"><title>Node10&#45;&gt;Node4</title>
<path fill="none" stroke="midnightblue" d="M460.038,-172.576C505.387,-165.597 595.059,-151.054 680.869,-131.969"/>
<polygon fill="midnightblue" stroke="midnightblue" points="681.782,-135.351 690.77,-129.743 680.246,-128.522 681.782,-135.351"/>
</g>
<!-- Node10&#45;&gt;Node6 -->
<g id="edge14" class="edge"><title>Node10&#45;&gt;Node6</title>
<path fill="none" stroke="midnightblue" d="M400.86,-177.151C332.825,-176.802 168.677,-171.765 134.5,-132 91.6274,-82.117 213.702,-70.4252 282.721,-67.7477"/>
<polygon fill="midnightblue" stroke="midnightblue" points="283.026,-71.2395 292.901,-67.4027 282.788,-64.2435 283.026,-71.2395"/>
</g>
<!-- Node11 -->
<g id="node11" class="node"><title>Node11</title>
<polygon fill="none" stroke="#bfbfbf" points="622.5,-112.5 622.5,-131.5 672.5,-131.5 672.5,-112.5 622.5,-112.5"/>
<text text-anchor="middle" x="647.5" y="-119.5" font-family="Helvetica,sans-Serif" font-size="10.00">cstring</text>
</g>
<!-- Node10&#45;&gt;Node11 -->
<g id="edge13" class="edge"><title>Node10&#45;&gt;Node11</title>
<path fill="none" stroke="midnightblue" d="M460.016,-169.912C494.313,-161.638 552.857,-147.402 612.325,-132.268"/>
<polygon fill="midnightblue" stroke="midnightblue" points="613.437,-135.597 622.262,-129.734 611.707,-128.814 613.437,-135.597"/>
</g>
<!-- Node12 -->
<g id="node12" class="node"><title>Node12</title>
<g id="a_node12"><a xlink:href="debug_8hpp.html" target="_top" xlink:title="This file controls debug facilities. ">
<polygon fill="none" stroke="black" points="292.5,-112.5 292.5,-131.5 360.5,-131.5 360.5,-112.5 292.5,-112.5"/>
<text text-anchor="middle" x="326.5" y="-119.5" font-family="Helvetica,sans-Serif" font-size="10.00">debug.hpp</text>
</a>
</g>
</g>
<!-- Node10&#45;&gt;Node12 -->
<g id="edge15" class="edge"><title>Node10&#45;&gt;Node12</title>
<path fill="none" stroke="midnightblue" d="M413.791,-168.324C397.188,-159.703 371.498,-146.364 352.28,-136.386"/>
<polygon fill="midnightblue" stroke="midnightblue" points="353.656,-133.156 343.168,-131.655 350.43,-139.369 353.656,-133.156"/>
</g>
<!-- Node13 -->
<g id="node13" class="node"><title>Node13</title>
<g id="a_node13"><a xlink:href="lees__edwards_8hpp.html" target="_top" xlink:title="lees_edwards.hpp">
<polygon fill="none" stroke="black" points="378.5,-112.5 378.5,-131.5 482.5,-131.5 482.5,-112.5 378.5,-112.5"/>
<text text-anchor="middle" x="430.5" y="-119.5" font-family="Helvetica,sans-Serif" font-size="10.00">lees_edwards.hpp</text>
</a>
</g>
</g>
<!-- Node10&#45;&gt;Node13 -->
<g id="edge17" class="edge"><title>Node10&#45;&gt;Node13</title>
<path fill="none" stroke="midnightblue" d="M430.5,-168.083C430.5,-161.006 430.5,-150.861 430.5,-141.986"/>
<polygon fill="midnightblue" stroke="midnightblue" points="434,-141.751 430.5,-131.751 427,-141.751 434,-141.751"/>
</g>
<!-- Node14 -->
<g id="node14" class="node"><title>Node14</title>
<g id="a_node14"><a xlink:href="errorhandling_8hpp.html" target="_top" xlink:title="This file contains the errorhandling code for severe errors, like a broken bond or illegal parameter ...">
<polygon fill="none" stroke="black" points="501,-112.5 501,-131.5 604,-131.5 604,-112.5 501,-112.5"/>
<text text-anchor="middle" x="552.5" y="-119.5" font-family="Helvetica,sans-Serif" font-size="10.00">errorhandling.hpp</text>
</a>
</g>
</g>
<!-- Node10&#45;&gt;Node14 -->
<g id="edge19" class="edge"><title>Node10&#45;&gt;Node14</title>
<path fill="none" stroke="midnightblue" d="M449.831,-168.444C469.82,-159.596 501.243,-145.687 524.064,-135.586"/>
<polygon fill="midnightblue" stroke="midnightblue" points="525.532,-138.764 533.259,-131.516 522.698,-132.363 525.532,-138.764"/>
</g>
<!-- Node18 -->
<g id="node18" class="node"><title>Node18</title>
<polygon fill="none" stroke="#bfbfbf" points="144,-112.5 144,-131.5 191,-131.5 191,-112.5 144,-112.5"/>
<text text-anchor="middle" x="167.5" y="-119.5" font-family="Helvetica,sans-Serif" font-size="10.00">vector</text>
</g>
<!-- Node10&#45;&gt;Node18 -->
<g id="edge24" class="edge"><title>Node10&#45;&gt;Node18</title>
<path fill="none" stroke="midnightblue" d="M400.797,-172.015C358.47,-164.738 278.188,-150.297 201.082,-132.238"/>
<polygon fill="midnightblue" stroke="midnightblue" points="201.747,-128.799 191.209,-129.901 200.134,-135.61 201.747,-128.799"/>
</g>
<!-- Node19 -->
<g id="node19" class="node"><title>Node19</title>
<polygon fill="none" stroke="#bfbfbf" points="209,-112.5 209,-131.5 274,-131.5 274,-112.5 209,-112.5"/>
<text text-anchor="middle" x="241.5" y="-119.5" font-family="Helvetica,sans-Serif" font-size="10.00">exception</text>
</g>
<!-- Node10&#45;&gt;Node19 -->
<g id="edge25" class="edge"><title>Node10&#45;&gt;Node19</title>
<path fill="none" stroke="midnightblue" d="M400.969,-168.562C368.703,-159.344 316.853,-144.529 281.081,-134.309"/>
<polygon fill="midnightblue" stroke="midnightblue" points="282.024,-130.938 271.448,-131.556 280.101,-137.669 282.024,-130.938"/>
</g>
<!-- Node12&#45;&gt;Node6 -->
<g id="edge16" class="edge"><title>Node12&#45;&gt;Node6</title>
<path fill="none" stroke="midnightblue" d="M326.5,-112.083C326.5,-105.006 326.5,-94.8611 326.5,-85.9865"/>
<polygon fill="midnightblue" stroke="midnightblue" points="330,-85.751 326.5,-75.7511 323,-85.7511 330,-85.751"/>
</g>
<!-- Node13&#45;&gt;Node6 -->
<g id="edge18" class="edge"><title>Node13&#45;&gt;Node6</title>
<path fill="none" stroke="midnightblue" d="M413.791,-112.324C397.188,-103.703 371.498,-90.3643 352.28,-80.3855"/>
<polygon fill="midnightblue" stroke="midnightblue" points="353.656,-77.1565 343.168,-75.6545 350.43,-83.3689 353.656,-77.1565"/>
</g>
<!-- Node14&#45;&gt;Node6 -->
<g id="edge20" class="edge"><title>Node14&#45;&gt;Node6</title>
<path fill="none" stroke="midnightblue" d="M516.69,-112.444C476.936,-102.945 412.769,-87.6129 370.117,-77.4217"/>
<polygon fill="midnightblue" stroke="midnightblue" points="370.837,-73.9953 360.297,-75.0755 369.21,-80.8037 370.837,-73.9953"/>
</g>
<!-- Node15 -->
<g id="node15" class="node"><title>Node15</title>
<polygon fill="none" stroke="#bfbfbf" points="462.5,-56.5 462.5,-75.5 506.5,-75.5 506.5,-56.5 462.5,-56.5"/>
<text text-anchor="middle" x="484.5" y="-63.5" font-family="Helvetica,sans-Serif" font-size="10.00">string</text>
</g>
<!-- Node14&#45;&gt;Node15 -->
<g id="edge21" class="edge"><title>Node14&#45;&gt;Node15</title>
<path fill="none" stroke="midnightblue" d="M541.575,-112.324C531.325,-104.185 515.779,-91.8395 503.499,-82.0874"/>
<polygon fill="midnightblue" stroke="midnightblue" points="505.632,-79.3119 495.624,-75.8339 501.279,-84.7937 505.632,-79.3119"/>
</g>
<!-- Node16 -->
<g id="node16" class="node"><title>Node16</title>
<polygon fill="none" stroke="#bfbfbf" points="524.5,-56.5 524.5,-75.5 580.5,-75.5 580.5,-56.5 524.5,-56.5"/>
<text text-anchor="middle" x="552.5" y="-63.5" font-family="Helvetica,sans-Serif" font-size="10.00">sstream</text>
</g>
<!-- Node14&#45;&gt;Node16 -->
<g id="edge22" class="edge"><title>Node14&#45;&gt;Node16</title>
<path fill="none" stroke="midnightblue" d="M552.5,-112.083C552.5,-105.006 552.5,-94.8611 552.5,-85.9865"/>
<polygon fill="midnightblue" stroke="midnightblue" points="556,-85.751 552.5,-75.7511 549,-85.7511 556,-85.751"/>
</g>
<!-- Node17 -->
<g id="node17" class="node"><title>Node17</title>
<polygon fill="none" stroke="#bfbfbf" points="598.5,-56.5 598.5,-75.5 630.5,-75.5 630.5,-56.5 598.5,-56.5"/>
<text text-anchor="middle" x="614.5" y="-63.5" font-family="Helvetica,sans-Serif" font-size="10.00">list</text>
</g>
<!-- Node14&#45;&gt;Node17 -->
<g id="edge23" class="edge"><title>Node14&#45;&gt;Node17</title>
<path fill="none" stroke="midnightblue" d="M562.461,-112.324C571.627,-104.341 585.437,-92.3128 596.528,-82.6529"/>
<polygon fill="midnightblue" stroke="midnightblue" points="599.115,-85.041 604.357,-75.8339 594.518,-79.7624 599.115,-85.041"/>
</g>
</g>
</svg>
        <g id="navigator" transform="translate(0 0)" fill="#404254">
                <rect fill="#f2f5e9" fill-opacity="0.5" stroke="#606060" stroke-width=".5" x="0" y="0" width="60" height="60"/>
                <use id="zoomplus" xlink:href="#zoomPlus" x="17" y="9" onmousedown="handleZoom(evt,'in')"/>
                <use id="zoomminus" xlink:href="#zoomMin" x="42" y="9" onmousedown="handleZoom(evt,'out')"/>
                <use id="reset" xlink:href="#resetDef" x="30" y="36" onmousedown="handleReset()"/>
                <g id="arrowUp" xlink:href="#dirArrow" transform="translate(30 24)" onmousedown="handlePan(0,-1)">
                  <use xlink:href="#rim" fill="#404040">
                        <set attributeName="fill" to="#808080" begin="arrowUp.mouseover" end="arrowUp.mouseout"/>
                  </use>
                  <path fill="none" stroke="white" stroke-width="1.5" d="M0,-3.0v7 M-2.5,-0.5L0,-3.0L2.5,-0.5"/>
                </g>
                <g id="arrowRight" xlink:href="#dirArrow" transform="rotate(90) translate(36 -43)" onmousedown="handlePan(1,0)">
                  <use xlink:href="#rim" fill="#404040">
                        <set attributeName="fill" to="#808080" begin="arrowRight.mouseover" end="arrowRight.mouseout"/>
                  </use>
                  <path fill="none" stroke="white" stroke-width="1.5" d="M0,-3.0v7 M-2.5,-0.5L0,-3.0L2.5,-0.5"/>
                </g>
                <g id="arrowDown" xlink:href="#dirArrow" transform="rotate(180) translate(-30 -48)" onmousedown="handlePan(0,1)">
                  <use xlink:href="#rim" fill="#404040">
                        <set attributeName="fill" to="#808080" begin="arrowDown.mouseover" end="arrowDown.mouseout"/>
                  </use>
                  <path fill="none" stroke="white" stroke-width="1.5" d="M0,-3.0v7 M-2.5,-0.5L0,-3.0L2.5,-0.5"/>
                </g>
                <g id="arrowLeft" xlink:href="#dirArrow" transform="rotate(270) translate(-36 17)" onmousedown="handlePan(-1,0)">
                  <use xlink:href="#rim" fill="#404040">
                        <set attributeName="fill" to="#808080" begin="arrowLeft.mouseover" end="arrowLeft.mouseout"/>
                  </use>
                  <path fill="none" stroke="white" stroke-width="1.5" d="M0,-3.0v7 M-2.5,-0.5L0,-3.0L2.5,-0.5"/>
                </g>
        </g>
        <svg viewBox="0 0 15 15" width="100%" height="30px" preserveAspectRatio="xMaxYMin meet">
         <g id="arrow_out" transform="scale(0.3 0.3)">
          <a xlink:href="statistics__correlation_8hpp__incl_org.svg" target="_base">
           <rect id="button" ry="5" rx="5" y="6" x="6" height="38" width="38"
                fill="#f2f5e9" fill-opacity="0.5" stroke="#606060" stroke-width="1.0"/>
           <path id="arrow"
             d="M 11.500037,31.436501 C 11.940474,20.09759 22.043105,11.32322 32.158766,21.979434 L 37.068811,17.246167 C 37.068811,17.246167 37.088388,32 37.088388,32 L 22.160133,31.978069 C 22.160133,31.978069 26.997745,27.140456 26.997745,27.140456 C 18.528582,18.264221 13.291696,25.230495 11.500037,31.436501 z"
             style="fill:#404040;"/>
          </a>
         </g>
        </svg>
</svg>
