<?xml version="1.0" encoding="UTF-8" standalone="no"?>
<!DOCTYPE svg PUBLIC "-//W3C//DTD SVG 1.1//EN"
 "http://www.w3.org/Graphics/SVG/1.1/DTD/svg11.dtd">
<!-- Generated by graphviz version 2.38.0 (20140413.2041)
 -->
<!-- Title: statistics_observable_tcl.hpp Pages: 1 -->
<svg width="816pt" height="319pt"
 viewBox="0.00 0.00 815.50 319.00" xmlns="http://www.w3.org/2000/svg" xmlns:xlink="http://www.w3.org/1999/xlink">
<g id="graph0" class="graph" transform="scale(1 1) rotate(0) translate(4 315)">
<title>statistics_observable_tcl.hpp</title>
<!-- Node1 -->
<g id="node1" class="node"><title>Node1</title>
<polygon fill="#bfbfbf" stroke="black" points="181,-280.5 181,-310.5 301,-310.5 301,-280.5 181,-280.5"/>
<text text-anchor="start" x="189" y="-298.5" font-family="Helvetica,sans-Serif" font-size="10.00">statistics_observable</text>
<text text-anchor="middle" x="241" y="-287.5" font-family="Helvetica,sans-Serif" font-size="10.00">_tcl.hpp</text>
</g>
<!-- Node2 -->
<g id="node2" class="node"><title>Node2</title>
<g id="a_node2"><a xlink:href="config_8hpp.html" target="_top" xlink:title="This file contains the defaults for Espresso. ">
<polygon fill="none" stroke="black" points="116.5,-56.5 116.5,-75.5 183.5,-75.5 183.5,-56.5 116.5,-56.5"/>
<text text-anchor="middle" x="150" y="-63.5" font-family="Helvetica,sans-Serif" font-size="10.00">config.hpp</text>
</a>
</g>
</g>
<!-- Node1&#45;&gt;Node2 -->
<g id="edge1" class="edge"><title>Node1&#45;&gt;Node2</title>
<path fill="none" stroke="midnightblue" d="M198.88,-280.327C143.183,-258.723 49.3374,-211.459 26,-132 23.4951,-123.471 20.8981,-119.279 26,-112 44.0287,-86.2782 78.3327,-75.2011 106.297,-70.4598"/>
<polygon fill="midnightblue" stroke="midnightblue" points="106.891,-73.9101 116.272,-68.9842 105.867,-66.9854 106.891,-73.9101"/>
</g>
<!-- Node6 -->
<g id="node6" class="node"><title>Node6</title>
<polygon fill="none" stroke="#bfbfbf" points="330,-224.5 330,-243.5 368,-243.5 368,-224.5 330,-224.5"/>
<text text-anchor="middle" x="349" y="-231.5" font-family="Helvetica,sans-Serif" font-size="10.00">tcl.h</text>
</g>
<!-- Node1&#45;&gt;Node6 -->
<g id="edge5" class="edge"><title>Node1&#45;&gt;Node6</title>
<path fill="none" stroke="midnightblue" d="M266.594,-280.399C284.068,-270.773 307.088,-258.09 324.356,-248.577"/>
<polygon fill="midnightblue" stroke="midnightblue" points="326.215,-251.549 333.285,-243.658 322.837,-245.418 326.215,-251.549"/>
</g>
<!-- Node7 -->
<g id="node7" class="node"><title>Node7</title>
<g id="a_node7"><a xlink:href="statistics__observable_8hpp.html" target="_top" xlink:title="statistics_observable.hpp">
<polygon fill="none" stroke="black" points="170.5,-224.5 170.5,-243.5 311.5,-243.5 311.5,-224.5 170.5,-224.5"/>
<text text-anchor="middle" x="241" y="-231.5" font-family="Helvetica,sans-Serif" font-size="10.00">statistics_observable.hpp</text>
</a>
</g>
</g>
<!-- Node1&#45;&gt;Node7 -->
<g id="edge6" class="edge"><title>Node1&#45;&gt;Node7</title>
<path fill="none" stroke="midnightblue" d="M241,-280.399C241,-272.466 241,-262.458 241,-253.858"/>
<polygon fill="midnightblue" stroke="midnightblue" points="244.5,-253.658 241,-243.658 237.5,-253.658 244.5,-253.658"/>
</g>
<!-- Node3 -->
<g id="node3" class="node"><title>Node3</title>
<g id="a_node3"><a xlink:href="acconfig_8hpp.html" target="_top" xlink:title="acconfig.hpp">
<polygon fill="none" stroke="black" points="0,-0.5 0,-19.5 78,-19.5 78,-0.5 0,-0.5"/>
<text text-anchor="middle" x="39" y="-7.5" font-family="Helvetica,sans-Serif" font-size="10.00">acconfig.hpp</text>
</a>
</g>
</g>
<!-- Node2&#45;&gt;Node3 -->
<g id="edge2" class="edge"><title>Node2&#45;&gt;Node3</title>
<path fill="none" stroke="midnightblue" d="M132.166,-56.324C114.284,-47.6247 86.5249,-34.1202 65.9544,-24.113"/>
<polygon fill="midnightblue" stroke="midnightblue" points="67.3133,-20.8819 56.7898,-19.6545 64.251,-27.1765 67.3133,-20.8819"/>
</g>
<!-- Node4 -->
<g id="node4" class="node"><title>Node4</title>
<g id="a_node4"><a xlink:href="myconfig-final_8hpp.html" target="_top" xlink:title="myconfig&#45;final.hpp">
<polygon fill="none" stroke="black" points="96.5,-0.5 96.5,-19.5 203.5,-19.5 203.5,-0.5 96.5,-0.5"/>
<text text-anchor="middle" x="150" y="-7.5" font-family="Helvetica,sans-Serif" font-size="10.00">myconfig&#45;final.hpp</text>
</a>
</g>
</g>
<!-- Node2&#45;&gt;Node4 -->
<g id="edge3" class="edge"><title>Node2&#45;&gt;Node4</title>
<path fill="none" stroke="midnightblue" d="M150,-56.083C150,-49.0059 150,-38.8611 150,-29.9865"/>
<polygon fill="midnightblue" stroke="midnightblue" points="153.5,-29.751 150,-19.7511 146.5,-29.7511 153.5,-29.751"/>
</g>
<!-- Node5 -->
<g id="node5" class="node"><title>Node5</title>
<g id="a_node5"><a xlink:href="config-features_8hpp.html" target="_top" xlink:title="config&#45;features.hpp">
<polygon fill="none" stroke="black" points="221.5,-0.5 221.5,-19.5 332.5,-19.5 332.5,-0.5 221.5,-0.5"/>
<text text-anchor="middle" x="277" y="-7.5" font-family="Helvetica,sans-Serif" font-size="10.00">config&#45;features.hpp</text>
</a>
</g>
</g>
<!-- Node2&#45;&gt;Node5 -->
<g id="edge4" class="edge"><title>Node2&#45;&gt;Node5</title>
<path fill="none" stroke="midnightblue" d="M170.124,-56.4435C191.024,-47.5566 223.935,-33.5632 247.716,-23.4514"/>
<polygon fill="midnightblue" stroke="midnightblue" points="249.138,-26.6504 256.971,-19.5164 246.398,-20.2085 249.138,-26.6504"/>
</g>
<!-- Node7&#45;&gt;Node2 -->
<g id="edge7" class="edge"><title>Node7&#45;&gt;Node2</title>
<path fill="none" stroke="midnightblue" d="M189.67,-224.408C139.666,-212.96 66.5704,-187.301 34,-132 15.0997,-99.9096 66.0888,-82.4512 106.386,-73.9274"/>
<polygon fill="midnightblue" stroke="midnightblue" points="107.225,-77.3293 116.352,-71.9493 105.862,-70.4632 107.225,-77.3293"/>
</g>
<!-- Node8 -->
<g id="node8" class="node"><title>Node8</title>
<g id="a_node8"><a xlink:href="utils_8hpp.html" target="_top" xlink:title="Small functions that are useful not only for one modul. ">
<polygon fill="none" stroke="black" points="377.5,-168.5 377.5,-187.5 436.5,-187.5 436.5,-168.5 377.5,-168.5"/>
<text text-anchor="middle" x="407" y="-175.5" font-family="Helvetica,sans-Serif" font-size="10.00">utils.hpp</text>
</a>
</g>
</g>
<!-- Node7&#45;&gt;Node8 -->
<g id="edge8" class="edge"><title>Node7&#45;&gt;Node8</title>
<path fill="none" stroke="midnightblue" d="M267.303,-224.444C295.351,-215.32 339.944,-200.813 371.184,-190.651"/>
<polygon fill="midnightblue" stroke="midnightblue" points="372.393,-193.938 380.82,-187.516 370.228,-187.282 372.393,-193.938"/>
</g>
<!-- Node9 -->
<g id="node9" class="node"><title>Node9</title>
<polygon fill="none" stroke="#bfbfbf" points="43.5,-112.5 43.5,-131.5 90.5,-131.5 90.5,-112.5 43.5,-112.5"/>
<text text-anchor="middle" x="67" y="-119.5" font-family="Helvetica,sans-Serif" font-size="10.00">cmath</text>
</g>
<!-- Node7&#45;&gt;Node9 -->
<g id="edge27" class="edge"><title>Node7&#45;&gt;Node9</title>
<path fill="none" stroke="midnightblue" d="M227.347,-224.368C197.361,-205.412 125.528,-160.001 89.0543,-136.942"/>
<polygon fill="midnightblue" stroke="midnightblue" points="90.9129,-133.977 80.5901,-131.591 87.1724,-139.893 90.9129,-133.977"/>
</g>
<!-- Node10 -->
<g id="node10" class="node"><title>Node10</title>
<polygon fill="none" stroke="#bfbfbf" points="694,-112.5 694,-131.5 740,-131.5 740,-112.5 694,-112.5"/>
<text text-anchor="middle" x="717" y="-119.5" font-family="Helvetica,sans-Serif" font-size="10.00">cstdio</text>
</g>
<!-- Node7&#45;&gt;Node10 -->
<g id="edge25" class="edge"><title>Node7&#45;&gt;Node10</title>
<path fill="none" stroke="midnightblue" d="M282.201,-224.448C359.152,-208.299 530.085,-171.59 683.858,-132.208"/>
<polygon fill="midnightblue" stroke="midnightblue" points="685.147,-135.491 693.961,-129.61 683.404,-128.711 685.147,-135.491"/>
</g>
<!-- Node11 -->
<g id="node11" class="node"><title>Node11</title>
<polygon fill="none" stroke="#bfbfbf" points="758.5,-112.5 758.5,-131.5 807.5,-131.5 807.5,-112.5 758.5,-112.5"/>
<text text-anchor="middle" x="783" y="-119.5" font-family="Helvetica,sans-Serif" font-size="10.00">cstdlib</text>
</g>
<!-- Node7&#45;&gt;Node11 -->
<g id="edge26" class="edge"><title>Node7&#45;&gt;Node11</title>
<path fill="none" stroke="midnightblue" d="M296.537,-224.473C350.078,-216.031 433.305,-202.326 505,-188 611.017,-166.816 639.395,-159.121 748.401,-132.095"/>
<polygon fill="midnightblue" stroke="midnightblue" points="749.277,-135.484 758.142,-129.682 747.594,-128.689 749.277,-135.484"/>
</g>
<!-- Node8&#45;&gt;Node2 -->
<g id="edge13" class="edge"><title>Node8&#45;&gt;Node2</title>
<path fill="none" stroke="midnightblue" d="M377.459,-176.649C314.103,-175.204 168.442,-167.958 138,-132 126.915,-118.906 132.869,-98.9383 139.742,-84.5903"/>
<polygon fill="midnightblue" stroke="midnightblue" points="142.859,-86.1834 144.449,-75.7085 136.674,-82.9057 142.859,-86.1834"/>
</g>
<!-- Node8&#45;&gt;Node9 -->
<g id="edge9" class="edge"><title>Node8&#45;&gt;Node9</title>
<path fill="none" stroke="midnightblue" d="M377.281,-173.42C322.974,-166.69 204.161,-151.095 105,-132 103.544,-131.72 102.059,-131.421 100.561,-131.11"/>
<polygon fill="midnightblue" stroke="midnightblue" points="101.169,-127.66 90.65,-128.928 99.6633,-134.497 101.169,-127.66"/>
</g>
<!-- Node8&#45;&gt;Node10 -->
<g id="edge10" class="edge"><title>Node8&#45;&gt;Node10</title>
<path fill="none" stroke="midnightblue" d="M436.833,-173.304C486.266,-166.937 588.406,-152.75 683.851,-132.051"/>
<polygon fill="midnightblue" stroke="midnightblue" points="684.643,-135.461 693.659,-129.896 683.141,-128.624 684.643,-135.461"/>
</g>
<!-- Node8&#45;&gt;Node11 -->
<g id="edge11" class="edge"><title>Node8&#45;&gt;Node11</title>
<path fill="none" stroke="midnightblue" d="M436.944,-174.36C495.043,-168.961 627.232,-155.32 748.043,-131.95"/>
<polygon fill="midnightblue" stroke="midnightblue" points="749.064,-135.317 758.203,-129.956 747.716,-128.448 749.064,-135.317"/>
</g>
<!-- Node12 -->
<g id="node12" class="node"><title>Node12</title>
<polygon fill="none" stroke="#bfbfbf" points="477,-112.5 477,-131.5 527,-131.5 527,-112.5 477,-112.5"/>
<text text-anchor="middle" x="502" y="-119.5" font-family="Helvetica,sans-Serif" font-size="10.00">cstring</text>
</g>
<!-- Node8&#45;&gt;Node12 -->
<g id="edge12" class="edge"><title>Node8&#45;&gt;Node12</title>
<path fill="none" stroke="midnightblue" d="M422.263,-168.324C437.221,-159.822 460.255,-146.729 477.727,-136.797"/>
<polygon fill="midnightblue" stroke="midnightblue" points="479.81,-139.639 486.774,-131.655 476.351,-133.553 479.81,-139.639"/>
</g>
<!-- Node13 -->
<g id="node13" class="node"><title>Node13</title>
<g id="a_node13"><a xlink:href="debug_8hpp.html" target="_top" xlink:title="This file controls debug facilities. ">
<polygon fill="none" stroke="black" points="147,-112.5 147,-131.5 215,-131.5 215,-112.5 147,-112.5"/>
<text text-anchor="middle" x="181" y="-119.5" font-family="Helvetica,sans-Serif" font-size="10.00">debug.hpp</text>
</a>
</g>
</g>
<!-- Node8&#45;&gt;Node13 -->
<g id="edge14" class="edge"><title>Node8&#45;&gt;Node13</title>
<path fill="none" stroke="midnightblue" d="M377.454,-169.94C338.633,-160.665 270.12,-144.294 225.138,-133.546"/>
<polygon fill="midnightblue" stroke="midnightblue" points="225.899,-130.13 215.359,-131.21 224.272,-136.938 225.899,-130.13"/>
</g>
<!-- Node14 -->
<g id="node14" class="node"><title>Node14</title>
<g id="a_node14"><a xlink:href="lees__edwards_8hpp.html" target="_top" xlink:title="lees_edwards.hpp">
<polygon fill="none" stroke="black" points="233,-112.5 233,-131.5 337,-131.5 337,-112.5 233,-112.5"/>
<text text-anchor="middle" x="285" y="-119.5" font-family="Helvetica,sans-Serif" font-size="10.00">lees_edwards.hpp</text>
</a>
</g>
</g>
<!-- Node8&#45;&gt;Node14 -->
<g id="edge16" class="edge"><title>Node8&#45;&gt;Node14</title>
<path fill="none" stroke="midnightblue" d="M387.669,-168.444C367.68,-159.596 336.257,-145.687 313.436,-135.586"/>
<polygon fill="midnightblue" stroke="midnightblue" points="314.802,-132.363 304.241,-131.516 311.968,-138.764 314.802,-132.363"/>
</g>
<!-- Node15 -->
<g id="node15" class="node"><title>Node15</title>
<g id="a_node15"><a xlink:href="errorhandling_8hpp.html" target="_top" xlink:title="This file contains the errorhandling code for severe errors, like a broken bond or illegal parameter ...">
<polygon fill="none" stroke="black" points="355.5,-112.5 355.5,-131.5 458.5,-131.5 458.5,-112.5 355.5,-112.5"/>
<text text-anchor="middle" x="407" y="-119.5" font-family="Helvetica,sans-Serif" font-size="10.00">errorhandling.hpp</text>
</a>
</g>
</g>
<!-- Node8&#45;&gt;Node15 -->
<g id="edge18" class="edge"><title>Node8&#45;&gt;Node15</title>
<path fill="none" stroke="midnightblue" d="M407,-168.083C407,-161.006 407,-150.861 407,-141.986"/>
<polygon fill="midnightblue" stroke="midnightblue" points="410.5,-141.751 407,-131.751 403.5,-141.751 410.5,-141.751"/>
</g>
<!-- Node19 -->
<g id="node19" class="node"><title>Node19</title>
<polygon fill="none" stroke="#bfbfbf" points="545.5,-112.5 545.5,-131.5 592.5,-131.5 592.5,-112.5 545.5,-112.5"/>
<text text-anchor="middle" x="569" y="-119.5" font-family="Helvetica,sans-Serif" font-size="10.00">vector</text>
</g>
<!-- Node8&#45;&gt;Node19 -->
<g id="edge23" class="edge"><title>Node8&#45;&gt;Node19</title>
<path fill="none" stroke="midnightblue" d="M432.669,-168.444C460.484,-159.172 504.972,-144.343 535.516,-134.161"/>
<polygon fill="midnightblue" stroke="midnightblue" points="536.915,-137.384 545.295,-130.902 534.702,-130.743 536.915,-137.384"/>
</g>
<!-- Node20 -->
<g id="node20" class="node"><title>Node20</title>
<polygon fill="none" stroke="#bfbfbf" points="610.5,-112.5 610.5,-131.5 675.5,-131.5 675.5,-112.5 610.5,-112.5"/>
<text text-anchor="middle" x="643" y="-119.5" font-family="Helvetica,sans-Serif" font-size="10.00">exception</text>
</g>
<!-- Node8&#45;&gt;Node20 -->
<g id="edge24" class="edge"><title>Node8&#45;&gt;Node20</title>
<path fill="none" stroke="midnightblue" d="M436.89,-170.161C478.258,-160.695 553.192,-143.549 600.407,-132.746"/>
<polygon fill="midnightblue" stroke="midnightblue" points="601.361,-136.118 610.329,-130.476 599.8,-129.294 601.361,-136.118"/>
</g>
<!-- Node13&#45;&gt;Node2 -->
<g id="edge15" class="edge"><title>Node13&#45;&gt;Node2</title>
<path fill="none" stroke="midnightblue" d="M175.881,-112.083C171.592,-104.613 165.342,-93.7244 160.058,-84.5199"/>
<polygon fill="midnightblue" stroke="midnightblue" points="163.038,-82.6811 155.024,-75.7511 156.967,-86.1662 163.038,-82.6811"/>
</g>
<!-- Node14&#45;&gt;Node2 -->
<g id="edge17" class="edge"><title>Node14&#45;&gt;Node2</title>
<path fill="none" stroke="midnightblue" d="M263.609,-112.444C241.293,-103.517 206.097,-89.4387 180.792,-79.3168"/>
<polygon fill="midnightblue" stroke="midnightblue" points="181.876,-75.9807 171.291,-75.5164 179.276,-82.4801 181.876,-75.9807"/>
</g>
<!-- Node15&#45;&gt;Node2 -->
<g id="edge19" class="edge"><title>Node15&#45;&gt;Node2</title>
<path fill="none" stroke="midnightblue" d="M366.278,-112.444C319.104,-102.532 241.699,-86.2675 193.411,-76.1214"/>
<polygon fill="midnightblue" stroke="midnightblue" points="194.076,-72.6848 183.57,-74.0537 192.637,-79.5353 194.076,-72.6848"/>
</g>
<!-- Node16 -->
<g id="node16" class="node"><title>Node16</title>
<polygon fill="none" stroke="#bfbfbf" points="317,-56.5 317,-75.5 361,-75.5 361,-56.5 317,-56.5"/>
<text text-anchor="middle" x="339" y="-63.5" font-family="Helvetica,sans-Serif" font-size="10.00">string</text>
</g>
<!-- Node15&#45;&gt;Node16 -->
<g id="edge20" class="edge"><title>Node15&#45;&gt;Node16</title>
<path fill="none" stroke="midnightblue" d="M396.075,-112.324C385.825,-104.185 370.279,-91.8395 357.999,-82.0874"/>
<polygon fill="midnightblue" stroke="midnightblue" points="360.132,-79.3119 350.124,-75.8339 355.779,-84.7937 360.132,-79.3119"/>
</g>
<!-- Node17 -->
<g id="node17" class="node"><title>Node17</title>
<polygon fill="none" stroke="#bfbfbf" points="379,-56.5 379,-75.5 435,-75.5 435,-56.5 379,-56.5"/>
<text text-anchor="middle" x="407" y="-63.5" font-family="Helvetica,sans-Serif" font-size="10.00">sstream</text>
</g>
<!-- Node15&#45;&gt;Node17 -->
<g id="edge21" class="edge"><title>Node15&#45;&gt;Node17</title>
<path fill="none" stroke="midnightblue" d="M407,-112.083C407,-105.006 407,-94.8611 407,-85.9865"/>
<polygon fill="midnightblue" stroke="midnightblue" points="410.5,-85.751 407,-75.7511 403.5,-85.7511 410.5,-85.751"/>
</g>
<!-- Node18 -->
<g id="node18" class="node"><title>Node18</title>
<polygon fill="none" stroke="#bfbfbf" points="453,-56.5 453,-75.5 485,-75.5 485,-56.5 453,-56.5"/>
<text text-anchor="middle" x="469" y="-63.5" font-family="Helvetica,sans-Serif" font-size="10.00">list</text>
</g>
<!-- Node15&#45;&gt;Node18 -->
<g id="edge22" class="edge"><title>Node15&#45;&gt;Node18</title>
<path fill="none" stroke="midnightblue" d="M416.961,-112.324C426.127,-104.341 439.937,-92.3128 451.028,-82.6529"/>
<polygon fill="midnightblue" stroke="midnightblue" points="453.615,-85.041 458.857,-75.8339 449.018,-79.7624 453.615,-85.041"/>
</g>
</g>
</svg>
