<?xml version="1.0" encoding="UTF-8" standalone="no"?>
<!DOCTYPE svg PUBLIC "-//W3C//DTD SVG 1.1//EN"
 "http://www.w3.org/Graphics/SVG/1.1/DTD/svg11.dtd">
<!-- Generated by graphviz version 2.38.0 (20140413.2041)
 -->
<!-- Title: statistics_chain.cpp Pages: 1 -->
<svg width="1120pt" height="476pt"
 viewBox="0.00 0.00 1120.00 476.00" xmlns="http://www.w3.org/2000/svg" xmlns:xlink="http://www.w3.org/1999/xlink">
<g id="graph0" class="graph" transform="scale(1 1) rotate(0) translate(4 472)">
<title>statistics_chain.cpp</title>
<!-- Node1 -->
<g id="node1" class="node"><title>Node1</title>
<polygon fill="#bfbfbf" stroke="black" points="342.5,-448.5 342.5,-467.5 455.5,-467.5 455.5,-448.5 342.5,-448.5"/>
<text text-anchor="middle" x="399" y="-455.5" font-family="Helvetica,sans-Serif" font-size="10.00">statistics_chain.cpp</text>
</g>
<!-- Node2 -->
<g id="node2" class="node"><title>Node2</title>
<g id="a_node2"><a xlink:href="statistics_8hpp.html" target="_top" xlink:title="This file contains the code for statistics on the data. ">
<polygon fill="none" stroke="black" points="405,-392.5 405,-411.5 487,-411.5 487,-392.5 405,-392.5"/>
<text text-anchor="middle" x="446" y="-399.5" font-family="Helvetica,sans-Serif" font-size="10.00">statistics.hpp</text>
</a>
</g>
</g>
<!-- Node1&#45;&gt;Node2 -->
<g id="edge1" class="edge"><title>Node1&#45;&gt;Node2</title>
<path fill="none" stroke="midnightblue" d="M406.761,-448.083C413.537,-440.298 423.543,-428.801 431.755,-419.367"/>
<polygon fill="midnightblue" stroke="midnightblue" points="434.458,-421.592 438.383,-411.751 429.178,-416.996 434.458,-421.592"/>
</g>
<!-- Node4 -->
<g id="node4" class="node"><title>Node4</title>
<g id="a_node4"><a xlink:href="grid_8hpp.html" target="_top" xlink:title="Domain decomposition for parallel computing. ">
<polygon fill="none" stroke="black" points="101,-336.5 101,-355.5 157,-355.5 157,-336.5 101,-336.5"/>
<text text-anchor="middle" x="129" y="-343.5" font-family="Helvetica,sans-Serif" font-size="10.00">grid.hpp</text>
</a>
</g>
</g>
<!-- Node1&#45;&gt;Node4 -->
<g id="edge58" class="edge"><title>Node1&#45;&gt;Node4</title>
<path fill="none" stroke="midnightblue" d="M374.529,-448.465C349.778,-439.717 310.496,-425.519 277,-412 234.681,-394.92 186.407,-373.311 156.819,-359.819"/>
<polygon fill="midnightblue" stroke="midnightblue" points="158.087,-356.55 147.537,-355.573 155.175,-362.916 158.087,-356.55"/>
</g>
<!-- Node5 -->
<g id="node5" class="node"><title>Node5</title>
<g id="a_node5"><a xlink:href="utils_8hpp.html" target="_top" xlink:title="Small functions that are useful not only for one modul. ">
<polygon fill="none" stroke="black" points="460.5,-168.5 460.5,-187.5 519.5,-187.5 519.5,-168.5 460.5,-168.5"/>
<text text-anchor="middle" x="490" y="-175.5" font-family="Helvetica,sans-Serif" font-size="10.00">utils.hpp</text>
</a>
</g>
</g>
<!-- Node1&#45;&gt;Node5 -->
<g id="edge48" class="edge"><title>Node1&#45;&gt;Node5</title>
<path fill="none" stroke="midnightblue" d="M455.581,-455.112C577.284,-449.512 853,-427.897 853,-347 853,-347 853,-347 853,-289 853,-222.038 623.9,-192.046 529.711,-182.545"/>
<polygon fill="midnightblue" stroke="midnightblue" points="530,-179.057 519.706,-181.562 529.316,-186.023 530,-179.057"/>
</g>
<!-- Node22 -->
<g id="node22" class="node"><title>Node22</title>
<g id="a_node22"><a xlink:href="communication_8hpp.html" target="_top" xlink:title="This file contains the asynchronous MPI communication. ">
<polygon fill="none" stroke="black" points="213.5,-280.5 213.5,-299.5 326.5,-299.5 326.5,-280.5 213.5,-280.5"/>
<text text-anchor="middle" x="270" y="-287.5" font-family="Helvetica,sans-Serif" font-size="10.00">communication.hpp</text>
</a>
</g>
</g>
<!-- Node1&#45;&gt;Node22 -->
<g id="edge50" class="edge"><title>Node1&#45;&gt;Node22</title>
<path fill="none" stroke="midnightblue" d="M384.056,-448.495C370.767,-440.388 351.418,-427.188 338,-412 309.661,-379.923 287.911,-334.107 277.25,-309.06"/>
<polygon fill="midnightblue" stroke="midnightblue" points="280.432,-307.597 273.372,-299.698 273.965,-310.276 280.432,-307.597"/>
</g>
<!-- Node25 -->
<g id="node25" class="node"><title>Node25</title>
<g id="a_node25"><a xlink:href="topology_8hpp.html" target="_top" xlink:title="This file contains functions for handling the system topology. ">
<polygon fill="none" stroke="black" points="382.5,-224.5 382.5,-243.5 461.5,-243.5 461.5,-224.5 382.5,-224.5"/>
<text text-anchor="middle" x="422" y="-231.5" font-family="Helvetica,sans-Serif" font-size="10.00">topology.hpp</text>
</a>
</g>
</g>
<!-- Node1&#45;&gt;Node25 -->
<g id="edge49" class="edge"><title>Node1&#45;&gt;Node25</title>
<path fill="none" stroke="midnightblue" d="M394.288,-448.483C383.947,-428.709 360.959,-378.161 371,-336 378.548,-304.306 397.723,-271.285 410.291,-251.96"/>
<polygon fill="midnightblue" stroke="midnightblue" points="413.205,-253.898 415.85,-243.639 407.384,-250.01 413.205,-253.898"/>
</g>
<!-- Node33 -->
<g id="node33" class="node"><title>Node33</title>
<g id="a_node33"><a xlink:href="cells_8hpp.html" target="_top" xlink:title="This file contains everything related to the cell structure / cell system. ">
<polygon fill="none" stroke="black" points="667,-336.5 667,-355.5 727,-355.5 727,-336.5 667,-336.5"/>
<text text-anchor="middle" x="697" y="-343.5" font-family="Helvetica,sans-Serif" font-size="10.00">cells.hpp</text>
</a>
</g>
</g>
<!-- Node1&#45;&gt;Node33 -->
<g id="edge51" class="edge"><title>Node1&#45;&gt;Node33</title>
<path fill="none" stroke="midnightblue" d="M422.384,-448.368C475.153,-428.89 603.593,-381.479 664.25,-359.089"/>
<polygon fill="midnightblue" stroke="midnightblue" points="665.556,-362.338 673.725,-355.591 663.132,-355.771 665.556,-362.338"/>
</g>
<!-- Node3 -->
<g id="node3" class="node"><title>Node3</title>
<polygon fill="none" stroke="#bfbfbf" points="186.5,-112.5 186.5,-131.5 233.5,-131.5 233.5,-112.5 186.5,-112.5"/>
<text text-anchor="middle" x="210" y="-119.5" font-family="Helvetica,sans-Serif" font-size="10.00">vector</text>
</g>
<!-- Node2&#45;&gt;Node3 -->
<g id="edge2" class="edge"><title>Node2&#45;&gt;Node3</title>
<path fill="none" stroke="midnightblue" d="M404.806,-397.367C348.377,-389.925 248.931,-367.44 204,-300 187.051,-274.561 200.051,-181.857 206.701,-141.727"/>
<polygon fill="midnightblue" stroke="midnightblue" points="210.181,-142.145 208.414,-131.698 203.28,-140.966 210.181,-142.145"/>
</g>
<!-- Node2&#45;&gt;Node4 -->
<g id="edge3" class="edge"><title>Node2&#45;&gt;Node4</title>
<path fill="none" stroke="midnightblue" d="M404.89,-394.915C351.033,-386.796 253.716,-371.62 171,-356 169.763,-355.766 168.507,-355.525 167.24,-355.277"/>
<polygon fill="midnightblue" stroke="midnightblue" points="167.924,-351.844 157.428,-353.289 166.534,-358.705 167.924,-351.844"/>
</g>
<!-- Node2&#45;&gt;Node5 -->
<g id="edge44" class="edge"><title>Node2&#45;&gt;Node5</title>
<path fill="none" stroke="midnightblue" d="M460.189,-392.28C483.542,-376.987 529.254,-342.842 547,-300 562.898,-261.618 528.737,-217.787 506.72,-194.869"/>
<polygon fill="midnightblue" stroke="midnightblue" points="509.083,-192.282 499.541,-187.677 504.129,-197.227 509.083,-192.282"/>
</g>
<!-- Node17 -->
<g id="node17" class="node"><title>Node17</title>
<polygon fill="none" stroke="#bfbfbf" points="591,-56.5 591,-75.5 635,-75.5 635,-56.5 591,-56.5"/>
<text text-anchor="middle" x="613" y="-63.5" font-family="Helvetica,sans-Serif" font-size="10.00">string</text>
</g>
<!-- Node2&#45;&gt;Node17 -->
<g id="edge46" class="edge"><title>Node2&#45;&gt;Node17</title>
<path fill="none" stroke="midnightblue" d="M487.002,-399.325C544.232,-395.949 650.638,-385.864 736,-356 818.491,-327.14 891,-322.394 891,-235 891,-235 891,-235 891,-177 891,-139.725 869.931,-131.231 838,-112 777.026,-75.2788 691.56,-67.8957 645.493,-66.7858"/>
<polygon fill="midnightblue" stroke="midnightblue" points="645.259,-63.2819 635.206,-66.6279 645.152,-70.2811 645.259,-63.2819"/>
</g>
<!-- Node23 -->
<g id="node23" class="node"><title>Node23</title>
<g id="a_node23"><a xlink:href="particle__data_8hpp.html" target="_top" xlink:title="For more information on particle_data, see particle_data.c. ">
<polygon fill="none" stroke="black" points="595.5,-224.5 595.5,-243.5 696.5,-243.5 696.5,-224.5 595.5,-224.5"/>
<text text-anchor="middle" x="646" y="-231.5" font-family="Helvetica,sans-Serif" font-size="10.00">particle_data.hpp</text>
</a>
</g>
</g>
<!-- Node2&#45;&gt;Node23 -->
<g id="edge40" class="edge"><title>Node2&#45;&gt;Node23</title>
<path fill="none" stroke="midnightblue" d="M487.12,-395.498C516.105,-389.808 554.353,-378.436 581,-356 589.724,-348.655 621.705,-284.722 637.314,-252.874"/>
<polygon fill="midnightblue" stroke="midnightblue" points="640.515,-254.295 641.756,-243.773 634.224,-251.224 640.515,-254.295"/>
</g>
<!-- Node2&#45;&gt;Node25 -->
<g id="edge45" class="edge"><title>Node2&#45;&gt;Node25</title>
<path fill="none" stroke="midnightblue" d="M443.834,-392.491C440.579,-379.983 434.049,-355.954 427,-336 421.226,-319.657 415.399,-316.997 412,-300 410.257,-291.284 411.03,-288.836 412,-280 412.973,-271.14 414.992,-261.472 416.963,-253.375"/>
<polygon fill="midnightblue" stroke="midnightblue" points="420.393,-254.092 419.518,-243.533 413.617,-252.333 420.393,-254.092"/>
</g>
<!-- Node31 -->
<g id="node31" class="node"><title>Node31</title>
<g id="a_node31"><a xlink:href="interaction__data_8hpp.html" target="_top" xlink:title="Various procedures concerning interactions between particles. ">
<polygon fill="none" stroke="black" points="421.5,-280.5 421.5,-299.5 538.5,-299.5 538.5,-280.5 421.5,-280.5"/>
<text text-anchor="middle" x="480" y="-287.5" font-family="Helvetica,sans-Serif" font-size="10.00">interaction_data.hpp</text>
</a>
</g>
</g>
<!-- Node2&#45;&gt;Node31 -->
<g id="edge41" class="edge"><title>Node2&#45;&gt;Node31</title>
<path fill="none" stroke="midnightblue" d="M448.692,-392.376C451.517,-383.319 456.082,-368.662 460,-356 464.853,-340.315 470.335,-322.49 474.331,-309.479"/>
<polygon fill="midnightblue" stroke="midnightblue" points="477.703,-310.421 477.291,-299.834 471.011,-308.367 477.703,-310.421"/>
</g>
<!-- Node32 -->
<g id="node32" class="node"><title>Node32</title>
<polygon fill="none" stroke="#bfbfbf" points="380,-336.5 380,-355.5 418,-355.5 418,-336.5 380,-336.5"/>
<text text-anchor="middle" x="399" y="-343.5" font-family="Helvetica,sans-Serif" font-size="10.00">map</text>
</g>
<!-- Node2&#45;&gt;Node32 -->
<g id="edge47" class="edge"><title>Node2&#45;&gt;Node32</title>
<path fill="none" stroke="midnightblue" d="M438.239,-392.083C431.463,-384.298 421.457,-372.801 413.245,-363.367"/>
<polygon fill="midnightblue" stroke="midnightblue" points="415.822,-360.996 406.617,-355.751 410.542,-365.592 415.822,-360.996"/>
</g>
<!-- Node4&#45;&gt;Node5 -->
<g id="edge4" class="edge"><title>Node4&#45;&gt;Node5</title>
<path fill="none" stroke="midnightblue" d="M136.809,-336.207C157.575,-313.448 216.898,-252.411 280,-224 335.908,-198.828 406.64,-187.427 450.083,-182.491"/>
<polygon fill="midnightblue" stroke="midnightblue" points="450.68,-185.947 460.249,-181.398 449.932,-178.987 450.68,-185.947"/>
</g>
<!-- Node16 -->
<g id="node16" class="node"><title>Node16</title>
<g id="a_node16"><a xlink:href="errorhandling_8hpp.html" target="_top" xlink:title="This file contains the errorhandling code for severe errors, like a broken bond or illegal parameter ...">
<polygon fill="none" stroke="black" points="26.5,-112.5 26.5,-131.5 129.5,-131.5 129.5,-112.5 26.5,-112.5"/>
<text text-anchor="middle" x="78" y="-119.5" font-family="Helvetica,sans-Serif" font-size="10.00">errorhandling.hpp</text>
</a>
</g>
</g>
<!-- Node4&#45;&gt;Node16 -->
<g id="edge39" class="edge"><title>Node4&#45;&gt;Node16</title>
<path fill="none" stroke="midnightblue" d="M127.001,-336.297C119.481,-303.563 92.7889,-187.375 82.2882,-141.666"/>
<polygon fill="midnightblue" stroke="midnightblue" points="85.6911,-140.846 80.0409,-131.884 78.8688,-142.414 85.6911,-140.846"/>
</g>
<!-- Node21 -->
<g id="node21" class="node"><title>Node21</title>
<polygon fill="none" stroke="#bfbfbf" points="0,-280.5 0,-299.5 50,-299.5 50,-280.5 0,-280.5"/>
<text text-anchor="middle" x="25" y="-287.5" font-family="Helvetica,sans-Serif" font-size="10.00">climits</text>
</g>
<!-- Node4&#45;&gt;Node21 -->
<g id="edge24" class="edge"><title>Node4&#45;&gt;Node21</title>
<path fill="none" stroke="midnightblue" d="M112.291,-336.324C95.6881,-327.703 69.9979,-314.364 50.7795,-304.386"/>
<polygon fill="midnightblue" stroke="midnightblue" points="52.1558,-301.156 41.6679,-299.655 48.93,-307.369 52.1558,-301.156"/>
</g>
<!-- Node4&#45;&gt;Node22 -->
<g id="edge25" class="edge"><title>Node4&#45;&gt;Node22</title>
<path fill="none" stroke="midnightblue" d="M151.342,-336.444C174.753,-327.478 211.736,-313.314 238.19,-303.183"/>
<polygon fill="midnightblue" stroke="midnightblue" points="239.676,-306.361 247.763,-299.516 237.172,-299.824 239.676,-306.361"/>
</g>
<!-- Node5&#45;&gt;Node3 -->
<g id="edge22" class="edge"><title>Node5&#45;&gt;Node3</title>
<path fill="none" stroke="midnightblue" d="M460.479,-171.988C414.804,-164.126 324.305,-148.121 248,-132 246.549,-131.693 245.068,-131.374 243.574,-131.045"/>
<polygon fill="midnightblue" stroke="midnightblue" points="244.204,-127.599 233.677,-128.796 242.652,-134.425 244.204,-127.599"/>
</g>
<!-- Node6 -->
<g id="node6" class="node"><title>Node6</title>
<polygon fill="none" stroke="#bfbfbf" points="581.5,-112.5 581.5,-131.5 628.5,-131.5 628.5,-112.5 581.5,-112.5"/>
<text text-anchor="middle" x="605" y="-119.5" font-family="Helvetica,sans-Serif" font-size="10.00">cmath</text>
</g>
<!-- Node5&#45;&gt;Node6 -->
<g id="edge5" class="edge"><title>Node5&#45;&gt;Node6</title>
<path fill="none" stroke="midnightblue" d="M508.222,-168.444C526.896,-159.675 556.156,-145.935 577.617,-135.858"/>
<polygon fill="midnightblue" stroke="midnightblue" points="579.299,-138.935 586.863,-131.516 576.324,-132.599 579.299,-138.935"/>
</g>
<!-- Node7 -->
<g id="node7" class="node"><title>Node7</title>
<polygon fill="none" stroke="#bfbfbf" points="647,-112.5 647,-131.5 693,-131.5 693,-112.5 647,-112.5"/>
<text text-anchor="middle" x="670" y="-119.5" font-family="Helvetica,sans-Serif" font-size="10.00">cstdio</text>
</g>
<!-- Node5&#45;&gt;Node7 -->
<g id="edge6" class="edge"><title>Node5&#45;&gt;Node7</title>
<path fill="none" stroke="midnightblue" d="M518.522,-168.444C550.683,-158.795 602.909,-143.127 636.857,-132.943"/>
<polygon fill="midnightblue" stroke="midnightblue" points="638.191,-136.197 646.763,-129.971 636.179,-129.492 638.191,-136.197"/>
</g>
<!-- Node8 -->
<g id="node8" class="node"><title>Node8</title>
<polygon fill="none" stroke="#bfbfbf" points="711.5,-112.5 711.5,-131.5 760.5,-131.5 760.5,-112.5 711.5,-112.5"/>
<text text-anchor="middle" x="736" y="-119.5" font-family="Helvetica,sans-Serif" font-size="10.00">cstdlib</text>
</g>
<!-- Node5&#45;&gt;Node8 -->
<g id="edge7" class="edge"><title>Node5&#45;&gt;Node8</title>
<path fill="none" stroke="midnightblue" d="M519.598,-171.2C558.827,-163.408 630.412,-148.826 701.177,-132.103"/>
<polygon fill="midnightblue" stroke="midnightblue" points="702.235,-135.449 711.153,-129.729 700.615,-128.639 702.235,-135.449"/>
</g>
<!-- Node9 -->
<g id="node9" class="node"><title>Node9</title>
<polygon fill="none" stroke="#bfbfbf" points="779,-112.5 779,-131.5 829,-131.5 829,-112.5 779,-112.5"/>
<text text-anchor="middle" x="804" y="-119.5" font-family="Helvetica,sans-Serif" font-size="10.00">cstring</text>
</g>
<!-- Node5&#45;&gt;Node9 -->
<g id="edge8" class="edge"><title>Node5&#45;&gt;Node9</title>
<path fill="none" stroke="midnightblue" d="M519.895,-173.096C571.14,-166.2 678.947,-150.799 769,-132 769.1,-131.979 769.2,-131.958 769.3,-131.937"/>
<polygon fill="midnightblue" stroke="midnightblue" points="769.857,-135.4 778.83,-129.767 768.302,-128.575 769.857,-135.4"/>
</g>
<!-- Node10 -->
<g id="node10" class="node"><title>Node10</title>
<g id="a_node10"><a xlink:href="config_8hpp.html" target="_top" xlink:title="This file contains the defaults for Espresso. ">
<polygon fill="none" stroke="black" points="228.5,-56.5 228.5,-75.5 295.5,-75.5 295.5,-56.5 228.5,-56.5"/>
<text text-anchor="middle" x="262" y="-63.5" font-family="Helvetica,sans-Serif" font-size="10.00">config.hpp</text>
</a>
</g>
</g>
<!-- Node5&#45;&gt;Node10 -->
<g id="edge9" class="edge"><title>Node5&#45;&gt;Node10</title>
<path fill="none" stroke="midnightblue" d="M460.231,-174.317C408.899,-169.101 306.75,-155.952 281,-132 268.366,-120.248 263.973,-100.607 262.525,-85.985"/>
<polygon fill="midnightblue" stroke="midnightblue" points="265.993,-85.3508 261.893,-75.5812 259.006,-85.7749 265.993,-85.3508"/>
</g>
<!-- Node14 -->
<g id="node14" class="node"><title>Node14</title>
<g id="a_node14"><a xlink:href="debug_8hpp.html" target="_top" xlink:title="This file controls debug facilities. ">
<polygon fill="none" stroke="black" points="290,-112.5 290,-131.5 358,-131.5 358,-112.5 290,-112.5"/>
<text text-anchor="middle" x="324" y="-119.5" font-family="Helvetica,sans-Serif" font-size="10.00">debug.hpp</text>
</a>
</g>
</g>
<!-- Node5&#45;&gt;Node14 -->
<g id="edge13" class="edge"><title>Node5&#45;&gt;Node14</title>
<path fill="none" stroke="midnightblue" d="M463.697,-168.444C435.649,-159.32 391.056,-144.813 359.816,-134.651"/>
<polygon fill="midnightblue" stroke="midnightblue" points="360.772,-131.282 350.18,-131.516 358.607,-137.938 360.772,-131.282"/>
</g>
<!-- Node15 -->
<g id="node15" class="node"><title>Node15</title>
<g id="a_node15"><a xlink:href="lees__edwards_8hpp.html" target="_top" xlink:title="lees_edwards.hpp">
<polygon fill="none" stroke="black" points="376,-112.5 376,-131.5 480,-131.5 480,-112.5 376,-112.5"/>
<text text-anchor="middle" x="428" y="-119.5" font-family="Helvetica,sans-Serif" font-size="10.00">lees_edwards.hpp</text>
</a>
</g>
</g>
<!-- Node5&#45;&gt;Node15 -->
<g id="edge15" class="edge"><title>Node5&#45;&gt;Node15</title>
<path fill="none" stroke="midnightblue" d="M480.039,-168.324C470.873,-160.341 457.063,-148.313 445.972,-138.653"/>
<polygon fill="midnightblue" stroke="midnightblue" points="447.982,-135.762 438.143,-131.834 443.385,-141.041 447.982,-135.762"/>
</g>
<!-- Node5&#45;&gt;Node16 -->
<g id="edge17" class="edge"><title>Node5&#45;&gt;Node16</title>
<path fill="none" stroke="midnightblue" d="M460.37,-173.116C393.481,-164.349 229.613,-142.872 139.635,-131.078"/>
<polygon fill="midnightblue" stroke="midnightblue" points="139.941,-127.589 129.571,-129.759 139.031,-134.529 139.941,-127.589"/>
</g>
<!-- Node20 -->
<g id="node20" class="node"><title>Node20</title>
<polygon fill="none" stroke="#bfbfbf" points="498.5,-112.5 498.5,-131.5 563.5,-131.5 563.5,-112.5 498.5,-112.5"/>
<text text-anchor="middle" x="531" y="-119.5" font-family="Helvetica,sans-Serif" font-size="10.00">exception</text>
</g>
<!-- Node5&#45;&gt;Node20 -->
<g id="edge23" class="edge"><title>Node5&#45;&gt;Node20</title>
<path fill="none" stroke="midnightblue" d="M496.77,-168.083C502.562,-160.455 511.058,-149.264 518.138,-139.941"/>
<polygon fill="midnightblue" stroke="midnightblue" points="521.096,-141.832 524.356,-131.751 515.521,-137.599 521.096,-141.832"/>
</g>
<!-- Node11 -->
<g id="node11" class="node"><title>Node11</title>
<g id="a_node11"><a xlink:href="acconfig_8hpp.html" target="_top" xlink:title="acconfig.hpp">
<polygon fill="none" stroke="black" points="112,-0.5 112,-19.5 190,-19.5 190,-0.5 112,-0.5"/>
<text text-anchor="middle" x="151" y="-7.5" font-family="Helvetica,sans-Serif" font-size="10.00">acconfig.hpp</text>
</a>
</g>
</g>
<!-- Node10&#45;&gt;Node11 -->
<g id="edge10" class="edge"><title>Node10&#45;&gt;Node11</title>
<path fill="none" stroke="midnightblue" d="M244.166,-56.324C226.284,-47.6247 198.525,-34.1202 177.954,-24.113"/>
<polygon fill="midnightblue" stroke="midnightblue" points="179.313,-20.8819 168.79,-19.6545 176.251,-27.1765 179.313,-20.8819"/>
</g>
<!-- Node12 -->
<g id="node12" class="node"><title>Node12</title>
<g id="a_node12"><a xlink:href="myconfig-final_8hpp.html" target="_top" xlink:title="myconfig&#45;final.hpp">
<polygon fill="none" stroke="black" points="208.5,-0.5 208.5,-19.5 315.5,-19.5 315.5,-0.5 208.5,-0.5"/>
<text text-anchor="middle" x="262" y="-7.5" font-family="Helvetica,sans-Serif" font-size="10.00">myconfig&#45;final.hpp</text>
</a>
</g>
</g>
<!-- Node10&#45;&gt;Node12 -->
<g id="edge11" class="edge"><title>Node10&#45;&gt;Node12</title>
<path fill="none" stroke="midnightblue" d="M262,-56.083C262,-49.0059 262,-38.8611 262,-29.9865"/>
<polygon fill="midnightblue" stroke="midnightblue" points="265.5,-29.751 262,-19.7511 258.5,-29.7511 265.5,-29.751"/>
</g>
<!-- Node13 -->
<g id="node13" class="node"><title>Node13</title>
<g id="a_node13"><a xlink:href="config-features_8hpp.html" target="_top" xlink:title="config&#45;features.hpp">
<polygon fill="none" stroke="black" points="333.5,-0.5 333.5,-19.5 444.5,-19.5 444.5,-0.5 333.5,-0.5"/>
<text text-anchor="middle" x="389" y="-7.5" font-family="Helvetica,sans-Serif" font-size="10.00">config&#45;features.hpp</text>
</a>
</g>
</g>
<!-- Node10&#45;&gt;Node13 -->
<g id="edge12" class="edge"><title>Node10&#45;&gt;Node13</title>
<path fill="none" stroke="midnightblue" d="M282.124,-56.4435C303.024,-47.5566 335.935,-33.5632 359.716,-23.4514"/>
<polygon fill="midnightblue" stroke="midnightblue" points="361.138,-26.6504 368.971,-19.5164 358.398,-20.2085 361.138,-26.6504"/>
</g>
<!-- Node14&#45;&gt;Node10 -->
<g id="edge14" class="edge"><title>Node14&#45;&gt;Node10</title>
<path fill="none" stroke="midnightblue" d="M314.039,-112.324C304.873,-104.341 291.063,-92.3128 279.972,-82.6529"/>
<polygon fill="midnightblue" stroke="midnightblue" points="281.982,-79.7624 272.143,-75.8339 277.385,-85.041 281.982,-79.7624"/>
</g>
<!-- Node15&#45;&gt;Node10 -->
<g id="edge16" class="edge"><title>Node15&#45;&gt;Node10</title>
<path fill="none" stroke="midnightblue" d="M401.697,-112.444C373.649,-103.32 329.056,-88.8133 297.816,-78.6509"/>
<polygon fill="midnightblue" stroke="midnightblue" points="298.772,-75.2816 288.18,-75.5164 296.607,-81.9383 298.772,-75.2816"/>
</g>
<!-- Node16&#45;&gt;Node10 -->
<g id="edge18" class="edge"><title>Node16&#45;&gt;Node10</title>
<path fill="none" stroke="midnightblue" d="M107.155,-112.444C138.513,-103.241 188.531,-88.5617 223.197,-78.3879"/>
<polygon fill="midnightblue" stroke="midnightblue" points="224.371,-81.6909 232.981,-75.5164 222.4,-74.9742 224.371,-81.6909"/>
</g>
<!-- Node16&#45;&gt;Node17 -->
<g id="edge19" class="edge"><title>Node16&#45;&gt;Node17</title>
<path fill="none" stroke="midnightblue" d="M129.784,-115.773C239.275,-104.722 491.534,-79.2601 580.899,-70.2401"/>
<polygon fill="midnightblue" stroke="midnightblue" points="581.371,-73.7103 590.969,-69.2237 580.668,-66.7457 581.371,-73.7103"/>
</g>
<!-- Node18 -->
<g id="node18" class="node"><title>Node18</title>
<polygon fill="none" stroke="#bfbfbf" points="81,-56.5 81,-75.5 137,-75.5 137,-56.5 81,-56.5"/>
<text text-anchor="middle" x="109" y="-63.5" font-family="Helvetica,sans-Serif" font-size="10.00">sstream</text>
</g>
<!-- Node16&#45;&gt;Node18 -->
<g id="edge20" class="edge"><title>Node16&#45;&gt;Node18</title>
<path fill="none" stroke="midnightblue" d="M83.119,-112.083C87.4075,-104.613 93.6582,-93.7244 98.9423,-84.5199"/>
<polygon fill="midnightblue" stroke="midnightblue" points="102.033,-86.1662 103.976,-75.7511 95.9621,-82.6811 102.033,-86.1662"/>
</g>
<!-- Node19 -->
<g id="node19" class="node"><title>Node19</title>
<polygon fill="none" stroke="#bfbfbf" points="31,-56.5 31,-75.5 63,-75.5 63,-56.5 31,-56.5"/>
<text text-anchor="middle" x="47" y="-63.5" font-family="Helvetica,sans-Serif" font-size="10.00">list</text>
</g>
<!-- Node16&#45;&gt;Node19 -->
<g id="edge21" class="edge"><title>Node16&#45;&gt;Node19</title>
<path fill="none" stroke="midnightblue" d="M72.881,-112.083C68.5925,-104.613 62.3418,-93.7244 57.0577,-84.5199"/>
<polygon fill="midnightblue" stroke="midnightblue" points="60.0379,-82.6811 52.0238,-75.7511 53.9671,-86.1662 60.0379,-82.6811"/>
</g>
<!-- Node22&#45;&gt;Node23 -->
<g id="edge26" class="edge"><title>Node22&#45;&gt;Node23</title>
<path fill="none" stroke="midnightblue" d="M326.698,-280.857C396.31,-270.86 513.892,-253.973 585.289,-243.719"/>
<polygon fill="midnightblue" stroke="midnightblue" points="586.076,-247.142 595.477,-242.256 585.081,-240.213 586.076,-247.142"/>
</g>
<!-- Node24 -->
<g id="node24" class="node"><title>Node24</title>
<g id="a_node24"><a xlink:href="random_8hpp.html" target="_top" xlink:title="A random generator. ">
<polygon fill="none" stroke="black" points="289.5,-224.5 289.5,-243.5 364.5,-243.5 364.5,-224.5 289.5,-224.5"/>
<text text-anchor="middle" x="327" y="-231.5" font-family="Helvetica,sans-Serif" font-size="10.00">random.hpp</text>
</a>
</g>
</g>
<!-- Node22&#45;&gt;Node24 -->
<g id="edge28" class="edge"><title>Node22&#45;&gt;Node24</title>
<path fill="none" stroke="midnightblue" d="M279.158,-280.324C287.501,-272.42 300.032,-260.548 310.177,-250.938"/>
<polygon fill="midnightblue" stroke="midnightblue" points="312.823,-253.252 317.675,-243.834 308.009,-248.171 312.823,-253.252"/>
</g>
<!-- Node22&#45;&gt;Node25 -->
<g id="edge30" class="edge"><title>Node22&#45;&gt;Node25</title>
<path fill="none" stroke="midnightblue" d="M294.085,-280.444C319.545,-271.399 359.894,-257.064 388.459,-246.916"/>
<polygon fill="midnightblue" stroke="midnightblue" points="389.777,-250.162 398.028,-243.516 387.433,-243.566 389.777,-250.162"/>
</g>
<!-- Node26 -->
<g id="node26" class="node"><title>Node26</title>
<g id="a_node26"><a xlink:href="mpi_8h.html" target="_top" xlink:title="This is the MPIfake implementation. ">
<polygon fill="none" stroke="black" points="924,-224.5 924,-243.5 968,-243.5 968,-224.5 924,-224.5"/>
<text text-anchor="middle" x="946" y="-231.5" font-family="Helvetica,sans-Serif" font-size="10.00">mpi.h</text>
</a>
</g>
</g>
<!-- Node22&#45;&gt;Node26 -->
<g id="edge32" class="edge"><title>Node22&#45;&gt;Node26</title>
<path fill="none" stroke="midnightblue" d="M326.762,-284.466C463.342,-273.556 806.894,-246.112 913.761,-237.575"/>
<polygon fill="midnightblue" stroke="midnightblue" points="914.226,-241.049 923.916,-236.764 913.669,-234.072 914.226,-241.049"/>
</g>
<!-- Node30 -->
<g id="node30" class="node"><title>Node30</title>
<g id="a_node30"><a xlink:href="cuda__init_8hpp.html" target="_top" xlink:title="cuda_init.hpp">
<polygon fill="none" stroke="black" points="106,-168.5 106,-187.5 188,-187.5 188,-168.5 106,-168.5"/>
<text text-anchor="middle" x="147" y="-175.5" font-family="Helvetica,sans-Serif" font-size="10.00">cuda_init.hpp</text>
</a>
</g>
</g>
<!-- Node22&#45;&gt;Node30 -->
<g id="edge36" class="edge"><title>Node22&#45;&gt;Node30</title>
<path fill="none" stroke="midnightblue" d="M260.348,-280.368C239.601,-261.814 190.512,-217.913 164.262,-194.438"/>
<polygon fill="midnightblue" stroke="midnightblue" points="166.394,-191.649 156.607,-187.591 161.728,-196.867 166.394,-191.649"/>
</g>
<!-- Node23&#45;&gt;Node5 -->
<g id="edge27" class="edge"><title>Node23&#45;&gt;Node5</title>
<path fill="none" stroke="midnightblue" d="M621.281,-224.444C595.152,-215.399 553.741,-201.064 524.424,-190.916"/>
<polygon fill="midnightblue" stroke="midnightblue" points="525.198,-187.48 514.603,-187.516 522.908,-194.095 525.198,-187.48"/>
</g>
<!-- Node24&#45;&gt;Node5 -->
<g id="edge29" class="edge"><title>Node24&#45;&gt;Node5</title>
<path fill="none" stroke="midnightblue" d="M352.828,-224.444C380.249,-215.359 423.777,-200.939 454.432,-190.783"/>
<polygon fill="midnightblue" stroke="midnightblue" points="455.901,-193.984 464.293,-187.516 453.7,-187.339 455.901,-193.984"/>
</g>
<!-- Node25&#45;&gt;Node5 -->
<g id="edge31" class="edge"><title>Node25&#45;&gt;Node5</title>
<path fill="none" stroke="midnightblue" d="M432.925,-224.324C443.175,-216.185 458.721,-203.839 471.001,-194.087"/>
<polygon fill="midnightblue" stroke="midnightblue" points="473.221,-196.794 478.876,-187.834 468.868,-191.312 473.221,-196.794"/>
</g>
<!-- Node27 -->
<g id="node27" class="node"><title>Node27</title>
<polygon fill="none" stroke="#bfbfbf" points="990.5,-168.5 990.5,-187.5 1043.5,-187.5 1043.5,-168.5 990.5,-168.5"/>
<text text-anchor="middle" x="1017" y="-175.5" font-family="Helvetica,sans-Serif" font-size="10.00">string.h</text>
</g>
<!-- Node26&#45;&gt;Node27 -->
<g id="edge33" class="edge"><title>Node26&#45;&gt;Node27</title>
<path fill="none" stroke="midnightblue" d="M957.407,-224.324C968.109,-216.185 984.341,-203.839 997.163,-194.087"/>
<polygon fill="midnightblue" stroke="midnightblue" points="999.544,-196.673 1005.39,-187.834 995.307,-191.102 999.544,-196.673"/>
</g>
<!-- Node28 -->
<g id="node28" class="node"><title>Node28</title>
<polygon fill="none" stroke="#bfbfbf" points="1062,-168.5 1062,-187.5 1112,-187.5 1112,-168.5 1062,-168.5"/>
<text text-anchor="middle" x="1087" y="-175.5" font-family="Helvetica,sans-Serif" font-size="10.00">stdio.h</text>
</g>
<!-- Node26&#45;&gt;Node28 -->
<g id="edge34" class="edge"><title>Node26&#45;&gt;Node28</title>
<path fill="none" stroke="midnightblue" d="M968.031,-224.562C991.382,-215.62 1028.48,-201.411 1055.04,-191.238"/>
<polygon fill="midnightblue" stroke="midnightblue" points="1056.57,-194.401 1064.66,-187.556 1054.07,-187.864 1056.57,-194.401"/>
</g>
<!-- Node29 -->
<g id="node29" class="node"><title>Node29</title>
<polygon fill="none" stroke="#bfbfbf" points="919.5,-168.5 919.5,-187.5 972.5,-187.5 972.5,-168.5 919.5,-168.5"/>
<text text-anchor="middle" x="946" y="-175.5" font-family="Helvetica,sans-Serif" font-size="10.00">stdlib.h</text>
</g>
<!-- Node26&#45;&gt;Node29 -->
<g id="edge35" class="edge"><title>Node26&#45;&gt;Node29</title>
<path fill="none" stroke="midnightblue" d="M946,-224.083C946,-217.006 946,-206.861 946,-197.986"/>
<polygon fill="midnightblue" stroke="midnightblue" points="949.5,-197.751 946,-187.751 942.5,-197.751 949.5,-197.751"/>
</g>
<!-- Node30&#45;&gt;Node3 -->
<g id="edge38" class="edge"><title>Node30&#45;&gt;Node3</title>
<path fill="none" stroke="midnightblue" d="M157.122,-168.324C166.526,-160.263 180.744,-148.077 192.069,-138.369"/>
<polygon fill="midnightblue" stroke="midnightblue" points="194.379,-140.999 199.694,-131.834 189.823,-135.684 194.379,-140.999"/>
</g>
<!-- Node30&#45;&gt;Node10 -->
<g id="edge37" class="edge"><title>Node30&#45;&gt;Node10</title>
<path fill="none" stroke="midnightblue" d="M149.053,-168.408C152.657,-154.92 161.276,-128.605 177,-112 190.628,-97.6083 209.893,-86.8879 226.638,-79.5284"/>
<polygon fill="midnightblue" stroke="midnightblue" points="228.25,-82.6485 236.144,-75.5812 225.566,-76.1837 228.25,-82.6485"/>
</g>
<!-- Node31&#45;&gt;Node5 -->
<g id="edge42" class="edge"><title>Node31&#45;&gt;Node5</title>
<path fill="none" stroke="midnightblue" d="M480.785,-280.368C482.398,-262.617 486.121,-221.666 488.309,-197.597"/>
<polygon fill="midnightblue" stroke="midnightblue" points="491.799,-197.867 489.219,-187.591 484.828,-197.233 491.799,-197.867"/>
</g>
<!-- Node31&#45;&gt;Node23 -->
<g id="edge43" class="edge"><title>Node31&#45;&gt;Node23</title>
<path fill="none" stroke="midnightblue" d="M506.303,-280.444C534.351,-271.32 578.944,-256.813 610.184,-246.651"/>
<polygon fill="midnightblue" stroke="midnightblue" points="611.393,-249.938 619.82,-243.516 609.228,-243.282 611.393,-249.938"/>
</g>
<!-- Node33&#45;&gt;Node23 -->
<g id="edge52" class="edge"><title>Node33&#45;&gt;Node23</title>
<path fill="none" stroke="midnightblue" d="M701.598,-336.498C707.91,-323.582 717.461,-298.558 708,-280 701,-266.27 687.634,-255.75 675.1,-248.346"/>
<polygon fill="midnightblue" stroke="midnightblue" points="676.678,-245.22 666.223,-243.505 673.326,-251.366 676.678,-245.22"/>
</g>
<!-- Node34 -->
<g id="node34" class="node"><title>Node34</title>
<g id="a_node34"><a xlink:href="ghosts_8hpp.html" target="_top" xlink:title="Ghost particles and particle exchange. ">
<polygon fill="none" stroke="black" points="755,-280.5 755,-299.5 825,-299.5 825,-280.5 755,-280.5"/>
<text text-anchor="middle" x="790" y="-287.5" font-family="Helvetica,sans-Serif" font-size="10.00">ghosts.hpp</text>
</a>
</g>
</g>
<!-- Node33&#45;&gt;Node34 -->
<g id="edge53" class="edge"><title>Node33&#45;&gt;Node34</title>
<path fill="none" stroke="midnightblue" d="M711.942,-336.324C726.585,-327.822 749.134,-314.729 766.238,-304.797"/>
<polygon fill="midnightblue" stroke="midnightblue" points="768.205,-307.703 775.095,-299.655 764.69,-301.649 768.205,-307.703"/>
</g>
<!-- Node35 -->
<g id="node35" class="node"><title>Node35</title>
<g id="a_node35"><a xlink:href="verlet_8hpp.html" target="_top" xlink:title="This file contains routines to setup and handle interaction pair lists (verlet pair lists) for the no...">
<polygon fill="none" stroke="black" points="633,-280.5 633,-299.5 699,-299.5 699,-280.5 633,-280.5"/>
<text text-anchor="middle" x="666" y="-287.5" font-family="Helvetica,sans-Serif" font-size="10.00">verlet.hpp</text>
</a>
</g>
</g>
<!-- Node33&#45;&gt;Node35 -->
<g id="edge56" class="edge"><title>Node33&#45;&gt;Node35</title>
<path fill="none" stroke="midnightblue" d="M691.881,-336.083C687.592,-328.613 681.342,-317.724 676.058,-308.52"/>
<polygon fill="midnightblue" stroke="midnightblue" points="679.038,-306.681 671.024,-299.751 672.967,-310.166 679.038,-306.681"/>
</g>
<!-- Node34&#45;&gt;Node23 -->
<g id="edge55" class="edge"><title>Node34&#45;&gt;Node23</title>
<path fill="none" stroke="midnightblue" d="M767.183,-280.444C743.168,-271.438 705.171,-257.189 678.131,-247.049"/>
<polygon fill="midnightblue" stroke="midnightblue" points="679.303,-243.751 668.71,-243.516 676.845,-250.305 679.303,-243.751"/>
</g>
<!-- Node34&#45;&gt;Node26 -->
<g id="edge54" class="edge"><title>Node34&#45;&gt;Node26</title>
<path fill="none" stroke="midnightblue" d="M814.719,-280.444C841.617,-271.133 884.709,-256.216 914.131,-246.032"/>
<polygon fill="midnightblue" stroke="midnightblue" points="915.614,-249.222 923.919,-242.643 913.324,-242.607 915.614,-249.222"/>
</g>
<!-- Node35&#45;&gt;Node23 -->
<g id="edge57" class="edge"><title>Node35&#45;&gt;Node23</title>
<path fill="none" stroke="midnightblue" d="M662.697,-280.083C660.018,-272.849 656.151,-262.409 652.814,-253.397"/>
<polygon fill="midnightblue" stroke="midnightblue" points="655.996,-251.913 649.241,-243.751 649.432,-254.344 655.996,-251.913"/>
</g>
</g>
</svg>
