<?xml version="1.0" encoding="UTF-8" standalone="no"?>
<!DOCTYPE svg PUBLIC "-//W3C//DTD SVG 1.1//EN"
 "http://www.w3.org/Graphics/SVG/1.1/DTD/svg11.dtd">
<!-- Generated by graphviz version 2.38.0 (20140413.2041)
 -->
<!-- Title: statistics_correlation.hpp Pages: 1 -->
<svg width="1175pt" height="162pt"
 viewBox="0.00 0.00 1174.50 162.00" xmlns="http://www.w3.org/2000/svg" xmlns:xlink="http://www.w3.org/1999/xlink">
<g id="graph0" class="graph" transform="scale(1 1) rotate(0) translate(4 158)">
<title>statistics_correlation.hpp</title>
<!-- Node1 -->
<g id="node1" class="node"><title>Node1</title>
<polygon fill="#bfbfbf" stroke="black" points="522.5,-134.5 522.5,-153.5 662.5,-153.5 662.5,-134.5 522.5,-134.5"/>
<text text-anchor="middle" x="592.5" y="-141.5" font-family="Helvetica,sans-Serif" font-size="10.00">statistics_correlation.hpp</text>
</g>
<!-- Node2 -->
<g id="node2" class="node"><title>Node2</title>
<g id="a_node2"><a xlink:href="communication_8cpp.html" target="_top" xlink:title="communication.cpp">
<polygon fill="none" stroke="black" points="0,-73 0,-92 113,-92 113,-73 0,-73"/>
<text text-anchor="middle" x="56.5" y="-80" font-family="Helvetica,sans-Serif" font-size="10.00">communication.cpp</text>
</a>
</g>
</g>
<!-- Node1&#45;&gt;Node2 -->
<g id="edge1" class="edge"><title>Node1&#45;&gt;Node2</title>
<path fill="none" stroke="midnightblue" d="M512.504,-138.295C418.676,-132.095 258.641,-119.392 122.5,-98 112.417,-96.4157 101.565,-94.2335 91.6308,-92.0429"/>
<polygon fill="midnightblue" stroke="midnightblue" points="512.285,-141.788 522.492,-138.947 512.741,-134.803 512.285,-141.788"/>
</g>
<!-- Node3 -->
<g id="node3" class="node"><title>Node3</title>
<g id="a_node3"><a xlink:href="initialize_8cpp.html" target="_top" xlink:title="Implementation of initialize.hpp. ">
<polygon fill="none" stroke="black" points="131,-73 131,-92 210,-92 210,-73 131,-73"/>
<text text-anchor="middle" x="170.5" y="-80" font-family="Helvetica,sans-Serif" font-size="10.00">initialize.cpp</text>
</a>
</g>
</g>
<!-- Node1&#45;&gt;Node3 -->
<g id="edge2" class="edge"><title>Node1&#45;&gt;Node3</title>
<path fill="none" stroke="midnightblue" d="M512.177,-137.225C436.209,-130.843 319.296,-118.634 219.5,-98 211.942,-96.4372 203.861,-94.262 196.487,-92.0711"/>
<polygon fill="midnightblue" stroke="midnightblue" points="511.902,-140.714 522.156,-138.05 512.479,-133.738 511.902,-140.714"/>
</g>
<!-- Node4 -->
<g id="node4" class="node"><title>Node4</title>
<g id="a_node4"><a xlink:href="core_2integrate_8cpp.html" target="_top" xlink:title="integrate.cpp">
<polygon fill="none" stroke="black" points="228,-73 228,-92 309,-92 309,-73 228,-73"/>
<text text-anchor="middle" x="268.5" y="-80" font-family="Helvetica,sans-Serif" font-size="10.00">integrate.cpp</text>
</a>
</g>
</g>
<!-- Node1&#45;&gt;Node4 -->
<g id="edge3" class="edge"><title>Node1&#45;&gt;Node4</title>
<path fill="none" stroke="midnightblue" d="M516.958,-133.072C461.667,-125.205 385.005,-113.048 318.5,-98 311.095,-96.3245 303.166,-94.1874 295.855,-92.072"/>
<polygon fill="midnightblue" stroke="midnightblue" points="516.636,-136.561 527.026,-134.49 517.613,-129.629 516.636,-136.561"/>
</g>
<!-- Node5 -->
<g id="node5" class="node"><title>Node5</title>
<g id="a_node5"><a xlink:href="integrate__sd_8cpp.html" target="_top" xlink:title="Stokesian dynamics integrator. ">
<polygon fill="none" stroke="black" points="327.5,-73 327.5,-92 425.5,-92 425.5,-73 327.5,-73"/>
<text text-anchor="middle" x="376.5" y="-80" font-family="Helvetica,sans-Serif" font-size="10.00">integrate_sd.cpp</text>
</a>
</g>
</g>
<!-- Node1&#45;&gt;Node5 -->
<g id="edge4" class="edge"><title>Node1&#45;&gt;Node5</title>
<path fill="none" stroke="midnightblue" d="M551.657,-131.749C509.692,-120.189 445.297,-102.451 407.39,-92.0091"/>
<polygon fill="midnightblue" stroke="midnightblue" points="550.982,-135.194 561.552,-134.475 552.841,-128.445 550.982,-135.194"/>
</g>
<!-- Node6 -->
<g id="node6" class="node"><title>Node6</title>
<g id="a_node6"><a xlink:href="statistics__correlation_8cpp.html" target="_top" xlink:title="statistics_correlation.cpp">
<polygon fill="none" stroke="black" points="444,-73 444,-92 583,-92 583,-73 444,-73"/>
<text text-anchor="middle" x="513.5" y="-80" font-family="Helvetica,sans-Serif" font-size="10.00">statistics_correlation.cpp</text>
</a>
</g>
</g>
<!-- Node1&#45;&gt;Node6 -->
<g id="edge5" class="edge"><title>Node1&#45;&gt;Node6</title>
<path fill="none" stroke="midnightblue" d="M572.974,-128.294C557.82,-116.88 537.343,-101.458 524.798,-92.0091"/>
<polygon fill="midnightblue" stroke="midnightblue" points="571.088,-131.255 581.181,-134.475 575.299,-125.663 571.088,-131.255"/>
</g>
<!-- Node7 -->
<g id="node7" class="node"><title>Node7</title>
<g id="a_node7"><a xlink:href="statistics__observable_8cpp.html" target="_top" xlink:title="statistics_observable.cpp">
<polygon fill="none" stroke="black" points="601.5,-73 601.5,-92 741.5,-92 741.5,-73 601.5,-73"/>
<text text-anchor="middle" x="671.5" y="-80" font-family="Helvetica,sans-Serif" font-size="10.00">statistics_observable.cpp</text>
</a>
</g>
</g>
<!-- Node1&#45;&gt;Node7 -->
<g id="edge6" class="edge"><title>Node1&#45;&gt;Node7</title>
<path fill="none" stroke="midnightblue" d="M612.026,-128.294C627.18,-116.88 647.657,-101.458 660.202,-92.0091"/>
<polygon fill="midnightblue" stroke="midnightblue" points="609.701,-125.663 603.819,-134.475 613.912,-131.255 609.701,-125.663"/>
</g>
<!-- Node8 -->
<g id="node8" class="node"><title>Node8</title>
<g id="a_node8"><a xlink:href="statistics__correlation__tcl_8hpp.html" target="_top" xlink:title="statistics_correlation\l_tcl.hpp">
<polygon fill="none" stroke="black" points="760,-67.5 760,-97.5 879,-97.5 879,-67.5 760,-67.5"/>
<text text-anchor="start" x="768" y="-85.5" font-family="Helvetica,sans-Serif" font-size="10.00">statistics_correlation</text>
<text text-anchor="middle" x="819.5" y="-74.5" font-family="Helvetica,sans-Serif" font-size="10.00">_tcl.hpp</text>
</a>
</g>
</g>
<!-- Node1&#45;&gt;Node8 -->
<g id="edge7" class="edge"><title>Node1&#45;&gt;Node8</title>
<path fill="none" stroke="midnightblue" d="M635.004,-131.859C672.067,-122.144 726.008,-108.006 766.001,-97.523"/>
<polygon fill="midnightblue" stroke="midnightblue" points="633.809,-128.554 625.024,-134.475 635.584,-135.325 633.809,-128.554"/>
</g>
<!-- Node10 -->
<g id="node10" class="node"><title>Node10</title>
<g id="a_node10"><a xlink:href="statistics__correlation__tcl_8cpp.html" target="_top" xlink:title="statistics_correlation\l_tcl.cpp">
<polygon fill="none" stroke="black" points="848,-0.5 848,-30.5 967,-30.5 967,-0.5 848,-0.5"/>
<text text-anchor="start" x="856" y="-18.5" font-family="Helvetica,sans-Serif" font-size="10.00">statistics_correlation</text>
<text text-anchor="middle" x="907.5" y="-7.5" font-family="Helvetica,sans-Serif" font-size="10.00">_tcl.cpp</text>
</a>
</g>
</g>
<!-- Node1&#45;&gt;Node10 -->
<g id="edge12" class="edge"><title>Node1&#45;&gt;Node10</title>
<path fill="none" stroke="midnightblue" d="M672.841,-140.695C749.568,-136.792 857.912,-126.286 888.5,-98 907.167,-80.7378 909.191,-48.9913 908.604,-30.6299"/>
<polygon fill="midnightblue" stroke="midnightblue" points="672.528,-137.205 662.708,-141.181 672.864,-144.197 672.528,-137.205"/>
</g>
<!-- Node11 -->
<g id="node11" class="node"><title>Node11</title>
<g id="a_node11"><a xlink:href="integrate__sd__tcl_8cpp.html" target="_top" xlink:title="integrate_sd_tcl.cpp">
<polygon fill="none" stroke="black" points="936,-73 936,-92 1051,-92 1051,-73 936,-73"/>
<text text-anchor="middle" x="993.5" y="-80" font-family="Helvetica,sans-Serif" font-size="10.00">integrate_sd_tcl.cpp</text>
</a>
</g>
</g>
<!-- Node1&#45;&gt;Node11 -->
<g id="edge10" class="edge"><title>Node1&#45;&gt;Node11</title>
<path fill="none" stroke="midnightblue" d="M672.681,-133.462C739.431,-125.179 836.882,-112.293 921.5,-98 931.935,-96.2373 943.173,-94.0934 953.595,-92.0008"/>
<polygon fill="midnightblue" stroke="midnightblue" points="672.146,-130.001 662.65,-134.701 673.004,-136.948 672.146,-130.001"/>
</g>
<!-- Node12 -->
<g id="node12" class="node"><title>Node12</title>
<g id="a_node12"><a xlink:href="integrate__tcl_8cpp.html" target="_top" xlink:title="integrate_tcl.cpp">
<polygon fill="none" stroke="black" points="1068.5,-73 1068.5,-92 1166.5,-92 1166.5,-73 1068.5,-73"/>
<text text-anchor="middle" x="1117.5" y="-80" font-family="Helvetica,sans-Serif" font-size="10.00">integrate_tcl.cpp</text>
</a>
</g>
</g>
<!-- Node1&#45;&gt;Node12 -->
<g id="edge11" class="edge"><title>Node1&#45;&gt;Node12</title>
<path fill="none" stroke="midnightblue" d="M672.973,-139.018C766.616,-133.519 925.636,-121.495 1060.5,-98 1069.35,-96.4578 1078.85,-94.2625 1087.51,-92.0453"/>
<polygon fill="midnightblue" stroke="midnightblue" points="672.504,-135.54 662.722,-139.61 672.907,-142.528 672.504,-135.54"/>
</g>
<!-- Node9 -->
<g id="node9" class="node"><title>Node9</title>
<g id="a_node9"><a xlink:href="initialize__interpreter_8cpp.html" target="_top" xlink:title="initialize_interpreter.cpp">
<polygon fill="none" stroke="black" points="695,-6 695,-25 830,-25 830,-6 695,-6"/>
<text text-anchor="middle" x="762.5" y="-13" font-family="Helvetica,sans-Serif" font-size="10.00">initialize_interpreter.cpp</text>
</a>
</g>
</g>
<!-- Node8&#45;&gt;Node9 -->
<g id="edge8" class="edge"><title>Node8&#45;&gt;Node9</title>
<path fill="none" stroke="midnightblue" d="M800.345,-59.6571C790.004,-47.8646 777.817,-33.9672 770.124,-25.1945"/>
<polygon fill="midnightblue" stroke="midnightblue" points="797.907,-62.185 807.132,-67.396 803.17,-57.5697 797.907,-62.185"/>
</g>
<!-- Node8&#45;&gt;Node10 -->
<g id="edge9" class="edge"><title>Node8&#45;&gt;Node10</title>
<path fill="none" stroke="midnightblue" d="M846.643,-61.4511C860.181,-51.4517 876.227,-39.5995 888.443,-30.5765"/>
<polygon fill="midnightblue" stroke="midnightblue" points="844.559,-58.6393 838.595,-67.396 848.718,-64.2699 844.559,-58.6393"/>
</g>
</g>
</svg>
