<?xml version="1.0" encoding="UTF-8" standalone="no"?>
<!DOCTYPE svg PUBLIC "-//W3C//DTD SVG 1.1//EN"
 "http://www.w3.org/Graphics/SVG/1.1/DTD/svg11.dtd">
<!-- Generated by graphviz version 2.38.0 (20140413.2041)
 -->
<!-- Title: statistics_wallstuff.hpp Pages: 1 -->
<svg width="904pt" height="476pt"
 viewBox="0.00 0.00 903.50 476.00" xmlns="http://www.w3.org/2000/svg" xmlns:xlink="http://www.w3.org/1999/xlink">
<g id="graph0" class="graph" transform="scale(1 1) rotate(0) translate(4 472)">
<title>statistics_wallstuff.hpp</title>
<!-- Node1 -->
<g id="node1" class="node"><title>Node1</title>
<polygon fill="#bfbfbf" stroke="black" points="633,-448.5 633,-467.5 762,-467.5 762,-448.5 633,-448.5"/>
<text text-anchor="middle" x="697.5" y="-455.5" font-family="Helvetica,sans-Serif" font-size="10.00">statistics_wallstuff.hpp</text>
</g>
<!-- Node2 -->
<g id="node2" class="node"><title>Node2</title>
<g id="a_node2"><a xlink:href="statistics_8hpp.html" target="_top" xlink:title="This file contains the code for statistics on the data. ">
<polygon fill="none" stroke="black" points="656.5,-392.5 656.5,-411.5 738.5,-411.5 738.5,-392.5 656.5,-392.5"/>
<text text-anchor="middle" x="697.5" y="-399.5" font-family="Helvetica,sans-Serif" font-size="10.00">statistics.hpp</text>
</a>
</g>
</g>
<!-- Node1&#45;&gt;Node2 -->
<g id="edge1" class="edge"><title>Node1&#45;&gt;Node2</title>
<path fill="none" stroke="midnightblue" d="M697.5,-448.083C697.5,-441.006 697.5,-430.861 697.5,-421.986"/>
<polygon fill="midnightblue" stroke="midnightblue" points="701,-421.751 697.5,-411.751 694,-421.751 701,-421.751"/>
</g>
<!-- Node3 -->
<g id="node3" class="node"><title>Node3</title>
<polygon fill="none" stroke="#bfbfbf" points="754,-112.5 754,-131.5 801,-131.5 801,-112.5 754,-112.5"/>
<text text-anchor="middle" x="777.5" y="-119.5" font-family="Helvetica,sans-Serif" font-size="10.00">vector</text>
</g>
<!-- Node2&#45;&gt;Node3 -->
<g id="edge2" class="edge"><title>Node2&#45;&gt;Node3</title>
<path fill="none" stroke="midnightblue" d="M710.625,-392.463C734.25,-375.943 781.5,-337.135 781.5,-291 781.5,-291 781.5,-291 781.5,-233 781.5,-200.927 779.781,-163.628 778.596,-141.741"/>
<polygon fill="midnightblue" stroke="midnightblue" points="782.08,-141.341 778.023,-131.554 775.091,-141.735 782.08,-141.341"/>
</g>
<!-- Node4 -->
<g id="node4" class="node"><title>Node4</title>
<g id="a_node4"><a xlink:href="grid_8hpp.html" target="_top" xlink:title="Domain decomposition for parallel computing. ">
<polygon fill="none" stroke="black" points="624.5,-336.5 624.5,-355.5 680.5,-355.5 680.5,-336.5 624.5,-336.5"/>
<text text-anchor="middle" x="652.5" y="-343.5" font-family="Helvetica,sans-Serif" font-size="10.00">grid.hpp</text>
</a>
</g>
</g>
<!-- Node2&#45;&gt;Node4 -->
<g id="edge3" class="edge"><title>Node2&#45;&gt;Node4</title>
<path fill="none" stroke="midnightblue" d="M690.069,-392.083C683.647,-384.377 674.194,-373.033 666.378,-363.653"/>
<polygon fill="midnightblue" stroke="midnightblue" points="668.883,-361.193 659.793,-355.751 663.506,-365.674 668.883,-361.193"/>
</g>
<!-- Node5 -->
<g id="node5" class="node"><title>Node5</title>
<g id="a_node5"><a xlink:href="utils_8hpp.html" target="_top" xlink:title="Small functions that are useful not only for one modul. ">
<polygon fill="none" stroke="black" points="287,-168.5 287,-187.5 346,-187.5 346,-168.5 287,-168.5"/>
<text text-anchor="middle" x="316.5" y="-175.5" font-family="Helvetica,sans-Serif" font-size="10.00">utils.hpp</text>
</a>
</g>
</g>
<!-- Node2&#45;&gt;Node5 -->
<g id="edge44" class="edge"><title>Node2&#45;&gt;Node5</title>
<path fill="none" stroke="midnightblue" d="M656.358,-399.806C546.852,-395.59 253.403,-377.153 206.5,-300 179.478,-255.551 247.487,-212.744 288.336,-191.999"/>
<polygon fill="midnightblue" stroke="midnightblue" points="289.91,-195.125 297.33,-187.562 286.813,-188.847 289.91,-195.125"/>
</g>
<!-- Node17 -->
<g id="node17" class="node"><title>Node17</title>
<polygon fill="none" stroke="#bfbfbf" points="784.5,-56.5 784.5,-75.5 828.5,-75.5 828.5,-56.5 784.5,-56.5"/>
<text text-anchor="middle" x="806.5" y="-63.5" font-family="Helvetica,sans-Serif" font-size="10.00">string</text>
</g>
<!-- Node2&#45;&gt;Node17 -->
<g id="edge46" class="edge"><title>Node2&#45;&gt;Node17</title>
<path fill="none" stroke="midnightblue" d="M723.895,-392.467C762.416,-378.165 829.5,-345.441 829.5,-291 829.5,-291 829.5,-291 829.5,-177 829.5,-144.12 819.532,-106.86 812.721,-85.2353"/>
<polygon fill="midnightblue" stroke="midnightblue" points="816.04,-84.1248 809.602,-75.7105 809.388,-86.3032 816.04,-84.1248"/>
</g>
<!-- Node23 -->
<g id="node23" class="node"><title>Node23</title>
<g id="a_node23"><a xlink:href="particle__data_8hpp.html" target="_top" xlink:title="For more information on particle_data, see particle_data.c. ">
<polygon fill="none" stroke="black" points="262,-224.5 262,-243.5 363,-243.5 363,-224.5 262,-224.5"/>
<text text-anchor="middle" x="312.5" y="-231.5" font-family="Helvetica,sans-Serif" font-size="10.00">particle_data.hpp</text>
</a>
</g>
</g>
<!-- Node2&#45;&gt;Node23 -->
<g id="edge40" class="edge"><title>Node2&#45;&gt;Node23</title>
<path fill="none" stroke="midnightblue" d="M675.735,-392.398C632.799,-375.348 534.255,-335.81 452.5,-300 412.977,-282.688 367.787,-261.44 339.695,-248.055"/>
<polygon fill="midnightblue" stroke="midnightblue" points="341.04,-244.819 330.508,-243.668 338.024,-251.136 341.04,-244.819"/>
</g>
<!-- Node25 -->
<g id="node25" class="node"><title>Node25</title>
<g id="a_node25"><a xlink:href="topology_8hpp.html" target="_top" xlink:title="This file contains functions for handling the system topology. ">
<polygon fill="none" stroke="black" points="513,-224.5 513,-243.5 592,-243.5 592,-224.5 513,-224.5"/>
<text text-anchor="middle" x="552.5" y="-231.5" font-family="Helvetica,sans-Serif" font-size="10.00">topology.hpp</text>
</a>
</g>
</g>
<!-- Node2&#45;&gt;Node25 -->
<g id="edge45" class="edge"><title>Node2&#45;&gt;Node25</title>
<path fill="none" stroke="midnightblue" d="M699.625,-392.23C704.323,-370.552 713.179,-313.762 686.5,-280 675.71,-266.346 635.747,-254.009 602.247,-245.72"/>
<polygon fill="midnightblue" stroke="midnightblue" points="602.638,-242.215 592.097,-243.281 601.002,-249.021 602.638,-242.215"/>
</g>
<!-- Node31 -->
<g id="node31" class="node"><title>Node31</title>
<g id="a_node31"><a xlink:href="interaction__data_8hpp.html" target="_top" xlink:title="Various procedures concerning interactions between particles. ">
<polygon fill="none" stroke="black" points="216,-280.5 216,-299.5 333,-299.5 333,-280.5 216,-280.5"/>
<text text-anchor="middle" x="274.5" y="-287.5" font-family="Helvetica,sans-Serif" font-size="10.00">interaction_data.hpp</text>
</a>
</g>
</g>
<!-- Node2&#45;&gt;Node31 -->
<g id="edge41" class="edge"><title>Node2&#45;&gt;Node31</title>
<path fill="none" stroke="midnightblue" d="M656.303,-398.754C576.03,-393.883 401.783,-380.743 347.5,-356 323.007,-344.835 300.839,-322.551 287.519,-307.213"/>
<polygon fill="midnightblue" stroke="midnightblue" points="290.178,-304.936 281.071,-299.521 284.813,-309.433 290.178,-304.936"/>
</g>
<!-- Node32 -->
<g id="node32" class="node"><title>Node32</title>
<polygon fill="none" stroke="#bfbfbf" points="857.5,-336.5 857.5,-355.5 895.5,-355.5 895.5,-336.5 857.5,-336.5"/>
<text text-anchor="middle" x="876.5" y="-343.5" font-family="Helvetica,sans-Serif" font-size="10.00">map</text>
</g>
<!-- Node2&#45;&gt;Node32 -->
<g id="edge47" class="edge"><title>Node2&#45;&gt;Node32</title>
<path fill="none" stroke="midnightblue" d="M725.863,-392.444C759.186,-382.391 814.169,-365.804 847.686,-355.692"/>
<polygon fill="midnightblue" stroke="midnightblue" points="848.788,-359.016 857.351,-352.777 846.766,-352.314 848.788,-359.016"/>
</g>
<!-- Node4&#45;&gt;Node5 -->
<g id="edge4" class="edge"><title>Node4&#45;&gt;Node5</title>
<path fill="none" stroke="midnightblue" d="M624.422,-340.523C590.535,-334.422 532.391,-321.697 486.5,-300 454.664,-284.948 373.138,-222.973 335.755,-194.026"/>
<polygon fill="midnightblue" stroke="midnightblue" points="337.708,-191.111 327.663,-187.742 333.414,-196.64 337.708,-191.111"/>
</g>
<!-- Node16 -->
<g id="node16" class="node"><title>Node16</title>
<g id="a_node16"><a xlink:href="errorhandling_8hpp.html" target="_top" xlink:title="This file contains the errorhandling code for severe errors, like a broken bond or illegal parameter ...">
<polygon fill="none" stroke="black" points="633,-112.5 633,-131.5 736,-131.5 736,-112.5 633,-112.5"/>
<text text-anchor="middle" x="684.5" y="-119.5" font-family="Helvetica,sans-Serif" font-size="10.00">errorhandling.hpp</text>
</a>
</g>
</g>
<!-- Node4&#45;&gt;Node16 -->
<g id="edge39" class="edge"><title>Node4&#45;&gt;Node16</title>
<path fill="none" stroke="midnightblue" d="M661.38,-336.244C669.385,-327.767 680.753,-314.153 686.5,-300 708.695,-245.338 710.528,-226.137 700.5,-168 698.932,-158.91 695.705,-149.222 692.557,-141.173"/>
<polygon fill="midnightblue" stroke="midnightblue" points="695.694,-139.602 688.611,-131.723 689.235,-142.299 695.694,-139.602"/>
</g>
<!-- Node21 -->
<g id="node21" class="node"><title>Node21</title>
<polygon fill="none" stroke="#bfbfbf" points="627.5,-280.5 627.5,-299.5 677.5,-299.5 677.5,-280.5 627.5,-280.5"/>
<text text-anchor="middle" x="652.5" y="-287.5" font-family="Helvetica,sans-Serif" font-size="10.00">climits</text>
</g>
<!-- Node4&#45;&gt;Node21 -->
<g id="edge24" class="edge"><title>Node4&#45;&gt;Node21</title>
<path fill="none" stroke="midnightblue" d="M652.5,-336.083C652.5,-329.006 652.5,-318.861 652.5,-309.986"/>
<polygon fill="midnightblue" stroke="midnightblue" points="656,-309.751 652.5,-299.751 649,-309.751 656,-309.751"/>
</g>
<!-- Node22 -->
<g id="node22" class="node"><title>Node22</title>
<g id="a_node22"><a xlink:href="communication_8hpp.html" target="_top" xlink:title="This file contains the asynchronous MPI communication. ">
<polygon fill="none" stroke="black" points="496,-280.5 496,-299.5 609,-299.5 609,-280.5 496,-280.5"/>
<text text-anchor="middle" x="552.5" y="-287.5" font-family="Helvetica,sans-Serif" font-size="10.00">communication.hpp</text>
</a>
</g>
</g>
<!-- Node4&#45;&gt;Node22 -->
<g id="edge25" class="edge"><title>Node4&#45;&gt;Node22</title>
<path fill="none" stroke="midnightblue" d="M636.433,-336.324C620.542,-327.743 595.993,-314.486 577.542,-304.522"/>
<polygon fill="midnightblue" stroke="midnightblue" points="578.989,-301.326 568.527,-299.655 575.663,-307.486 578.989,-301.326"/>
</g>
<!-- Node5&#45;&gt;Node3 -->
<g id="edge22" class="edge"><title>Node5&#45;&gt;Node3</title>
<path fill="none" stroke="midnightblue" d="M346.317,-173.176C359.538,-171.519 375.287,-169.597 389.5,-168 543.864,-150.66 586.83,-160.537 743.804,-131.818"/>
<polygon fill="midnightblue" stroke="midnightblue" points="744.62,-135.226 753.815,-129.963 743.345,-128.343 744.62,-135.226"/>
</g>
<!-- Node6 -->
<g id="node6" class="node"><title>Node6</title>
<polygon fill="none" stroke="#bfbfbf" points="465,-112.5 465,-131.5 512,-131.5 512,-112.5 465,-112.5"/>
<text text-anchor="middle" x="488.5" y="-119.5" font-family="Helvetica,sans-Serif" font-size="10.00">cmath</text>
</g>
<!-- Node5&#45;&gt;Node6 -->
<g id="edge5" class="edge"><title>Node5&#45;&gt;Node6</title>
<path fill="none" stroke="midnightblue" d="M343.754,-168.444C373.927,-158.971 422.579,-143.696 455.04,-133.505"/>
<polygon fill="midnightblue" stroke="midnightblue" points="456.474,-136.723 464.967,-130.388 454.377,-130.045 456.474,-136.723"/>
</g>
<!-- Node7 -->
<g id="node7" class="node"><title>Node7</title>
<polygon fill="none" stroke="#bfbfbf" points="530.5,-112.5 530.5,-131.5 576.5,-131.5 576.5,-112.5 530.5,-112.5"/>
<text text-anchor="middle" x="553.5" y="-119.5" font-family="Helvetica,sans-Serif" font-size="10.00">cstdio</text>
</g>
<!-- Node5&#45;&gt;Node7 -->
<g id="edge6" class="edge"><title>Node5&#45;&gt;Node7</title>
<path fill="none" stroke="midnightblue" d="M346.337,-170.898C386.174,-162.641 458.875,-147.19 520.5,-132 520.601,-131.975 520.702,-131.95 520.803,-131.925"/>
<polygon fill="midnightblue" stroke="midnightblue" points="521.647,-135.322 530.459,-129.439 519.902,-128.543 521.647,-135.322"/>
</g>
<!-- Node8 -->
<g id="node8" class="node"><title>Node8</title>
<polygon fill="none" stroke="#bfbfbf" points="0,-112.5 0,-131.5 49,-131.5 49,-112.5 0,-112.5"/>
<text text-anchor="middle" x="24.5" y="-119.5" font-family="Helvetica,sans-Serif" font-size="10.00">cstdlib</text>
</g>
<!-- Node5&#45;&gt;Node8 -->
<g id="edge7" class="edge"><title>Node5&#45;&gt;Node8</title>
<path fill="none" stroke="midnightblue" d="M286.933,-172.691C240.551,-165.748 147.693,-151.114 59.2478,-132.003"/>
<polygon fill="midnightblue" stroke="midnightblue" points="59.839,-128.549 49.3224,-129.835 58.3451,-135.388 59.839,-128.549"/>
</g>
<!-- Node9 -->
<g id="node9" class="node"><title>Node9</title>
<polygon fill="none" stroke="#bfbfbf" points="67.5,-112.5 67.5,-131.5 117.5,-131.5 117.5,-112.5 67.5,-112.5"/>
<text text-anchor="middle" x="92.5" y="-119.5" font-family="Helvetica,sans-Serif" font-size="10.00">cstring</text>
</g>
<!-- Node5&#45;&gt;Node9 -->
<g id="edge8" class="edge"><title>Node5&#45;&gt;Node9</title>
<path fill="none" stroke="midnightblue" d="M286.755,-169.829C245.549,-159.896 171.238,-141.981 127.441,-131.423"/>
<polygon fill="midnightblue" stroke="midnightblue" points="128.07,-127.975 117.528,-129.034 126.43,-134.78 128.07,-127.975"/>
</g>
<!-- Node10 -->
<g id="node10" class="node"><title>Node10</title>
<g id="a_node10"><a xlink:href="config_8hpp.html" target="_top" xlink:title="This file contains the defaults for Espresso. ">
<polygon fill="none" stroke="black" points="278,-56.5 278,-75.5 345,-75.5 345,-56.5 278,-56.5"/>
<text text-anchor="middle" x="311.5" y="-63.5" font-family="Helvetica,sans-Serif" font-size="10.00">config.hpp</text>
</a>
</g>
</g>
<!-- Node5&#45;&gt;Node10 -->
<g id="edge9" class="edge"><title>Node5&#45;&gt;Node10</title>
<path fill="none" stroke="midnightblue" d="M286.982,-177.888C251.362,-177.16 192.743,-169.816 164.5,-132 135.305,-92.9096 214.56,-76.8951 267.744,-70.6699"/>
<polygon fill="midnightblue" stroke="midnightblue" points="268.433,-74.1157 277.994,-69.5515 267.673,-67.157 268.433,-74.1157"/>
</g>
<!-- Node14 -->
<g id="node14" class="node"><title>Node14</title>
<g id="a_node14"><a xlink:href="debug_8hpp.html" target="_top" xlink:title="This file controls debug facilities. ">
<polygon fill="none" stroke="black" points="173.5,-112.5 173.5,-131.5 241.5,-131.5 241.5,-112.5 173.5,-112.5"/>
<text text-anchor="middle" x="207.5" y="-119.5" font-family="Helvetica,sans-Serif" font-size="10.00">debug.hpp</text>
</a>
</g>
</g>
<!-- Node5&#45;&gt;Node14 -->
<g id="edge13" class="edge"><title>Node5&#45;&gt;Node14</title>
<path fill="none" stroke="midnightblue" d="M298.987,-168.324C281.428,-159.625 254.169,-146.12 233.969,-136.113"/>
<polygon fill="midnightblue" stroke="midnightblue" points="235.484,-132.958 224.969,-131.655 232.376,-139.23 235.484,-132.958"/>
</g>
<!-- Node15 -->
<g id="node15" class="node"><title>Node15</title>
<g id="a_node15"><a xlink:href="lees__edwards_8hpp.html" target="_top" xlink:title="lees_edwards.hpp">
<polygon fill="none" stroke="black" points="259.5,-112.5 259.5,-131.5 363.5,-131.5 363.5,-112.5 259.5,-112.5"/>
<text text-anchor="middle" x="311.5" y="-119.5" font-family="Helvetica,sans-Serif" font-size="10.00">lees_edwards.hpp</text>
</a>
</g>
</g>
<!-- Node5&#45;&gt;Node15 -->
<g id="edge15" class="edge"><title>Node5&#45;&gt;Node15</title>
<path fill="none" stroke="midnightblue" d="M315.674,-168.083C315.019,-161.006 314.08,-150.861 313.258,-141.986"/>
<polygon fill="midnightblue" stroke="midnightblue" points="316.717,-141.386 312.31,-131.751 309.747,-142.031 316.717,-141.386"/>
</g>
<!-- Node5&#45;&gt;Node16 -->
<g id="edge17" class="edge"><title>Node5&#45;&gt;Node16</title>
<path fill="none" stroke="midnightblue" d="M346.303,-172.627C406.361,-163.814 543.01,-143.762 623.016,-132.022"/>
<polygon fill="midnightblue" stroke="midnightblue" points="623.574,-135.478 632.96,-130.563 622.558,-128.552 623.574,-135.478"/>
</g>
<!-- Node20 -->
<g id="node20" class="node"><title>Node20</title>
<polygon fill="none" stroke="#bfbfbf" points="382,-112.5 382,-131.5 447,-131.5 447,-112.5 382,-112.5"/>
<text text-anchor="middle" x="414.5" y="-119.5" font-family="Helvetica,sans-Serif" font-size="10.00">exception</text>
</g>
<!-- Node5&#45;&gt;Node20 -->
<g id="edge23" class="edge"><title>Node5&#45;&gt;Node20</title>
<path fill="none" stroke="midnightblue" d="M332.245,-168.324C347.819,-159.743 371.877,-146.486 389.959,-136.522"/>
<polygon fill="midnightblue" stroke="midnightblue" points="391.724,-139.546 398.794,-131.655 388.346,-133.415 391.724,-139.546"/>
</g>
<!-- Node11 -->
<g id="node11" class="node"><title>Node11</title>
<g id="a_node11"><a xlink:href="acconfig_8hpp.html" target="_top" xlink:title="acconfig.hpp">
<polygon fill="none" stroke="black" points="161.5,-0.5 161.5,-19.5 239.5,-19.5 239.5,-0.5 161.5,-0.5"/>
<text text-anchor="middle" x="200.5" y="-7.5" font-family="Helvetica,sans-Serif" font-size="10.00">acconfig.hpp</text>
</a>
</g>
</g>
<!-- Node10&#45;&gt;Node11 -->
<g id="edge10" class="edge"><title>Node10&#45;&gt;Node11</title>
<path fill="none" stroke="midnightblue" d="M293.666,-56.324C275.784,-47.6247 248.025,-34.1202 227.454,-24.113"/>
<polygon fill="midnightblue" stroke="midnightblue" points="228.813,-20.8819 218.29,-19.6545 225.751,-27.1765 228.813,-20.8819"/>
</g>
<!-- Node12 -->
<g id="node12" class="node"><title>Node12</title>
<g id="a_node12"><a xlink:href="myconfig-final_8hpp.html" target="_top" xlink:title="myconfig&#45;final.hpp">
<polygon fill="none" stroke="black" points="258,-0.5 258,-19.5 365,-19.5 365,-0.5 258,-0.5"/>
<text text-anchor="middle" x="311.5" y="-7.5" font-family="Helvetica,sans-Serif" font-size="10.00">myconfig&#45;final.hpp</text>
</a>
</g>
</g>
<!-- Node10&#45;&gt;Node12 -->
<g id="edge11" class="edge"><title>Node10&#45;&gt;Node12</title>
<path fill="none" stroke="midnightblue" d="M311.5,-56.083C311.5,-49.0059 311.5,-38.8611 311.5,-29.9865"/>
<polygon fill="midnightblue" stroke="midnightblue" points="315,-29.751 311.5,-19.7511 308,-29.7511 315,-29.751"/>
</g>
<!-- Node13 -->
<g id="node13" class="node"><title>Node13</title>
<g id="a_node13"><a xlink:href="config-features_8hpp.html" target="_top" xlink:title="config&#45;features.hpp">
<polygon fill="none" stroke="black" points="383,-0.5 383,-19.5 494,-19.5 494,-0.5 383,-0.5"/>
<text text-anchor="middle" x="438.5" y="-7.5" font-family="Helvetica,sans-Serif" font-size="10.00">config&#45;features.hpp</text>
</a>
</g>
</g>
<!-- Node10&#45;&gt;Node13 -->
<g id="edge12" class="edge"><title>Node10&#45;&gt;Node13</title>
<path fill="none" stroke="midnightblue" d="M331.624,-56.4435C352.524,-47.5566 385.435,-33.5632 409.216,-23.4514"/>
<polygon fill="midnightblue" stroke="midnightblue" points="410.638,-26.6504 418.471,-19.5164 407.898,-20.2085 410.638,-26.6504"/>
</g>
<!-- Node14&#45;&gt;Node10 -->
<g id="edge14" class="edge"><title>Node14&#45;&gt;Node10</title>
<path fill="none" stroke="midnightblue" d="M224.209,-112.324C240.812,-103.703 266.502,-90.3643 285.72,-80.3855"/>
<polygon fill="midnightblue" stroke="midnightblue" points="287.57,-83.3689 294.832,-75.6545 284.344,-77.1565 287.57,-83.3689"/>
</g>
<!-- Node15&#45;&gt;Node10 -->
<g id="edge16" class="edge"><title>Node15&#45;&gt;Node10</title>
<path fill="none" stroke="midnightblue" d="M311.5,-112.083C311.5,-105.006 311.5,-94.8611 311.5,-85.9865"/>
<polygon fill="midnightblue" stroke="midnightblue" points="315,-85.751 311.5,-75.7511 308,-85.7511 315,-85.751"/>
</g>
<!-- Node16&#45;&gt;Node10 -->
<g id="edge18" class="edge"><title>Node16&#45;&gt;Node10</title>
<path fill="none" stroke="midnightblue" d="M632.636,-113.492C558.76,-102.796 424.533,-83.3641 355.342,-73.3472"/>
<polygon fill="midnightblue" stroke="midnightblue" points="355.616,-69.8504 345.218,-71.8814 354.613,-76.7782 355.616,-69.8504"/>
</g>
<!-- Node16&#45;&gt;Node17 -->
<g id="edge19" class="edge"><title>Node16&#45;&gt;Node17</title>
<path fill="none" stroke="midnightblue" d="M703.831,-112.444C723.82,-103.596 755.243,-89.6875 778.064,-79.5865"/>
<polygon fill="midnightblue" stroke="midnightblue" points="779.532,-82.7645 787.259,-75.5164 776.698,-76.3635 779.532,-82.7645"/>
</g>
<!-- Node18 -->
<g id="node18" class="node"><title>Node18</title>
<polygon fill="none" stroke="#bfbfbf" points="616.5,-56.5 616.5,-75.5 672.5,-75.5 672.5,-56.5 616.5,-56.5"/>
<text text-anchor="middle" x="644.5" y="-63.5" font-family="Helvetica,sans-Serif" font-size="10.00">sstream</text>
</g>
<!-- Node16&#45;&gt;Node18 -->
<g id="edge20" class="edge"><title>Node16&#45;&gt;Node18</title>
<path fill="none" stroke="midnightblue" d="M677.895,-112.083C672.245,-104.455 663.955,-93.2645 657.049,-83.9408"/>
<polygon fill="midnightblue" stroke="midnightblue" points="659.747,-81.7034 650.982,-75.7511 654.122,-85.87 659.747,-81.7034"/>
</g>
<!-- Node19 -->
<g id="node19" class="node"><title>Node19</title>
<polygon fill="none" stroke="#bfbfbf" points="690.5,-56.5 690.5,-75.5 722.5,-75.5 722.5,-56.5 690.5,-56.5"/>
<text text-anchor="middle" x="706.5" y="-63.5" font-family="Helvetica,sans-Serif" font-size="10.00">list</text>
</g>
<!-- Node16&#45;&gt;Node19 -->
<g id="edge21" class="edge"><title>Node16&#45;&gt;Node19</title>
<path fill="none" stroke="midnightblue" d="M688.133,-112.083C691.112,-104.77 695.426,-94.1814 699.125,-85.1034"/>
<polygon fill="midnightblue" stroke="midnightblue" points="702.403,-86.3326 702.935,-75.7511 695.92,-83.6914 702.403,-86.3326"/>
</g>
<!-- Node22&#45;&gt;Node23 -->
<g id="edge26" class="edge"><title>Node22&#45;&gt;Node23</title>
<path fill="none" stroke="midnightblue" d="M514.471,-280.444C472.692,-271.043 405.518,-255.929 360.23,-245.739"/>
<polygon fill="midnightblue" stroke="midnightblue" points="360.875,-242.297 350.351,-243.516 359.339,-249.126 360.875,-242.297"/>
</g>
<!-- Node24 -->
<g id="node24" class="node"><title>Node24</title>
<g id="a_node24"><a xlink:href="random_8hpp.html" target="_top" xlink:title="A random generator. ">
<polygon fill="none" stroke="black" points="420,-224.5 420,-243.5 495,-243.5 495,-224.5 420,-224.5"/>
<text text-anchor="middle" x="457.5" y="-231.5" font-family="Helvetica,sans-Serif" font-size="10.00">random.hpp</text>
</a>
</g>
</g>
<!-- Node22&#45;&gt;Node24 -->
<g id="edge28" class="edge"><title>Node22&#45;&gt;Node24</title>
<path fill="none" stroke="midnightblue" d="M537.237,-280.324C522.279,-271.822 499.245,-258.729 481.773,-248.797"/>
<polygon fill="midnightblue" stroke="midnightblue" points="483.149,-245.553 472.726,-243.655 479.69,-251.639 483.149,-245.553"/>
</g>
<!-- Node22&#45;&gt;Node25 -->
<g id="edge30" class="edge"><title>Node22&#45;&gt;Node25</title>
<path fill="none" stroke="midnightblue" d="M552.5,-280.083C552.5,-273.006 552.5,-262.861 552.5,-253.986"/>
<polygon fill="midnightblue" stroke="midnightblue" points="556,-253.751 552.5,-243.751 549,-253.751 556,-253.751"/>
</g>
<!-- Node26 -->
<g id="node26" class="node"><title>Node26</title>
<g id="a_node26"><a xlink:href="mpi_8h.html" target="_top" xlink:title="This is the MPIfake implementation. ">
<polygon fill="none" stroke="black" points="609.5,-224.5 609.5,-243.5 653.5,-243.5 653.5,-224.5 609.5,-224.5"/>
<text text-anchor="middle" x="631.5" y="-231.5" font-family="Helvetica,sans-Serif" font-size="10.00">mpi.h</text>
</a>
</g>
</g>
<!-- Node22&#45;&gt;Node26 -->
<g id="edge32" class="edge"><title>Node22&#45;&gt;Node26</title>
<path fill="none" stroke="midnightblue" d="M565.193,-280.324C577.401,-271.979 596.078,-259.212 610.503,-249.352"/>
<polygon fill="midnightblue" stroke="midnightblue" points="612.558,-252.187 618.839,-243.655 608.608,-246.408 612.558,-252.187"/>
</g>
<!-- Node30 -->
<g id="node30" class="node"><title>Node30</title>
<g id="a_node30"><a xlink:href="cuda__init_8hpp.html" target="_top" xlink:title="cuda_init.hpp">
<polygon fill="none" stroke="black" points="609.5,-168.5 609.5,-187.5 691.5,-187.5 691.5,-168.5 609.5,-168.5"/>
<text text-anchor="middle" x="650.5" y="-175.5" font-family="Helvetica,sans-Serif" font-size="10.00">cuda_init.hpp</text>
</a>
</g>
</g>
<!-- Node22&#45;&gt;Node30 -->
<g id="edge36" class="edge"><title>Node22&#45;&gt;Node30</title>
<path fill="none" stroke="midnightblue" d="M605.819,-280.431C627.156,-274.1 649.677,-263.101 662.5,-244 671.868,-230.047 666.59,-210.785 660.357,-196.856"/>
<polygon fill="midnightblue" stroke="midnightblue" points="663.441,-195.195 655.847,-187.807 657.176,-198.318 663.441,-195.195"/>
</g>
<!-- Node23&#45;&gt;Node5 -->
<g id="edge27" class="edge"><title>Node23&#45;&gt;Node5</title>
<path fill="none" stroke="midnightblue" d="M313.161,-224.083C313.685,-217.006 314.436,-206.861 315.094,-197.986"/>
<polygon fill="midnightblue" stroke="midnightblue" points="318.603,-197.982 315.852,-187.751 311.623,-197.465 318.603,-197.982"/>
</g>
<!-- Node24&#45;&gt;Node5 -->
<g id="edge29" class="edge"><title>Node24&#45;&gt;Node5</title>
<path fill="none" stroke="midnightblue" d="M435.158,-224.444C411.747,-215.478 374.764,-201.314 348.31,-191.183"/>
<polygon fill="midnightblue" stroke="midnightblue" points="349.328,-187.824 338.737,-187.516 346.824,-194.361 349.328,-187.824"/>
</g>
<!-- Node25&#45;&gt;Node5 -->
<g id="edge31" class="edge"><title>Node25&#45;&gt;Node5</title>
<path fill="none" stroke="midnightblue" d="M515.105,-224.444C471.697,-214.511 400.411,-198.2 356.088,-188.058"/>
<polygon fill="midnightblue" stroke="midnightblue" points="356.776,-184.625 346.248,-185.807 355.215,-191.449 356.776,-184.625"/>
</g>
<!-- Node27 -->
<g id="node27" class="node"><title>Node27</title>
<polygon fill="none" stroke="#bfbfbf" points="470,-168.5 470,-187.5 523,-187.5 523,-168.5 470,-168.5"/>
<text text-anchor="middle" x="496.5" y="-175.5" font-family="Helvetica,sans-Serif" font-size="10.00">string.h</text>
</g>
<!-- Node26&#45;&gt;Node27 -->
<g id="edge33" class="edge"><title>Node26&#45;&gt;Node27</title>
<path fill="none" stroke="midnightblue" d="M610.109,-224.444C587.793,-215.517 552.597,-201.439 527.292,-191.317"/>
<polygon fill="midnightblue" stroke="midnightblue" points="528.376,-187.981 517.791,-187.516 525.776,-194.48 528.376,-187.981"/>
</g>
<!-- Node28 -->
<g id="node28" class="node"><title>Node28</title>
<polygon fill="none" stroke="#bfbfbf" points="541.5,-168.5 541.5,-187.5 591.5,-187.5 591.5,-168.5 541.5,-168.5"/>
<text text-anchor="middle" x="566.5" y="-175.5" font-family="Helvetica,sans-Serif" font-size="10.00">stdio.h</text>
</g>
<!-- Node26&#45;&gt;Node28 -->
<g id="edge34" class="edge"><title>Node26&#45;&gt;Node28</title>
<path fill="none" stroke="midnightblue" d="M621.057,-224.324C611.354,-216.263 596.685,-204.077 585,-194.369"/>
<polygon fill="midnightblue" stroke="midnightblue" points="587.062,-191.532 577.133,-187.834 582.589,-196.916 587.062,-191.532"/>
</g>
<!-- Node29 -->
<g id="node29" class="node"><title>Node29</title>
<polygon fill="none" stroke="#bfbfbf" points="399,-168.5 399,-187.5 452,-187.5 452,-168.5 399,-168.5"/>
<text text-anchor="middle" x="425.5" y="-175.5" font-family="Helvetica,sans-Serif" font-size="10.00">stdlib.h</text>
</g>
<!-- Node26&#45;&gt;Node29 -->
<g id="edge35" class="edge"><title>Node26&#45;&gt;Node29</title>
<path fill="none" stroke="midnightblue" d="M609.172,-226.429C606.259,-225.597 603.311,-224.769 600.5,-224 598.797,-223.534 512.884,-201.453 462.084,-188.4"/>
<polygon fill="midnightblue" stroke="midnightblue" points="462.681,-184.94 452.124,-185.841 460.939,-191.719 462.681,-184.94"/>
</g>
<!-- Node30&#45;&gt;Node3 -->
<g id="edge38" class="edge"><title>Node30&#45;&gt;Node3</title>
<path fill="none" stroke="midnightblue" d="M670.624,-168.444C691.524,-159.557 724.435,-145.563 748.216,-135.451"/>
<polygon fill="midnightblue" stroke="midnightblue" points="749.638,-138.65 757.471,-131.516 746.898,-132.208 749.638,-138.65"/>
</g>
<!-- Node30&#45;&gt;Node10 -->
<g id="edge37" class="edge"><title>Node30&#45;&gt;Node10</title>
<path fill="none" stroke="midnightblue" d="M644.502,-168.118C634.256,-153.724 611.91,-125.551 585.5,-112 511.159,-73.8542 411.879,-66.734 355.51,-66.1134"/>
<polygon fill="midnightblue" stroke="midnightblue" points="355.179,-62.612 345.164,-66.0679 355.148,-69.612 355.179,-62.612"/>
</g>
<!-- Node31&#45;&gt;Node5 -->
<g id="edge42" class="edge"><title>Node31&#45;&gt;Node5</title>
<path fill="none" stroke="midnightblue" d="M267.221,-280.247C257.508,-267.435 242.617,-243.031 252.5,-224 259.653,-210.226 273.171,-199.783 285.947,-192.441"/>
<polygon fill="midnightblue" stroke="midnightblue" points="287.817,-195.412 295.017,-187.64 284.542,-189.225 287.817,-195.412"/>
</g>
<!-- Node31&#45;&gt;Node23 -->
<g id="edge43" class="edge"><title>Node31&#45;&gt;Node23</title>
<path fill="none" stroke="midnightblue" d="M280.775,-280.083C286.142,-272.455 294.018,-261.264 300.579,-251.941"/>
<polygon fill="midnightblue" stroke="midnightblue" points="303.449,-253.943 306.342,-243.751 297.725,-249.915 303.449,-253.943"/>
</g>
</g>
</svg>
