<?xml version="1.0" encoding="UTF-8" standalone="no"?>
<!DOCTYPE svg PUBLIC "-//W3C//DTD SVG 1.1//EN"
 "http://www.w3.org/Graphics/SVG/1.1/DTD/svg11.dtd">
<!-- Generated by graphviz version 2.38.0 (20140413.2041)
 -->
<!-- Title: statistics_cluster_tcl.cpp Pages: 1 -->
<!--zoomable 442 -->
<svg id="main" version="1.1" xmlns="http://www.w3.org/2000/svg" xmlns:xlink="http://www.w3.org/1999/xlink" xml:space="preserve" onload="init(evt)">
<style type="text/css"><![CDATA[
.edge:hover path { stroke: red; }
.edge:hover polygon { stroke: red; fill: red; }
]]></style>
<script type="text/javascript"><![CDATA[
var edges = document.getElementsByTagName('g');
if (edges && edges.length) {
  for (var i=0;i<edges.length;i++) {
    if (edges[i].id.substr(0,4)=='edge') {
      edges[i].setAttribute('class','edge');
    }
  }
}
]]></script>
        <defs>
                <circle id="rim" cx="0" cy="0" r="7"/>
                <circle id="rim2" cx="0" cy="0" r="3.5"/>
                <g id="zoomPlus">
                        <use xlink:href="#rim" fill="#404040">
                                <set attributeName="fill" to="#808080" begin="zoomplus.mouseover" end="zoomplus.mouseout"/>
                        </use>
                        <path d="M-4,0h8M0,-4v8" fill="none" stroke="white" stroke-width="1.5" pointer-events="none"/>
                </g>
                <g id="zoomMin">
                        <use xlink:href="#rim" fill="#404040">
                                <set attributeName="fill" to="#808080" begin="zoomminus.mouseover" end="zoomminus.mouseout"/>
                        </use>
                        <path d="M-4,0h8" fill="none" stroke="white" stroke-width="1.5" pointer-events="none"/>
                </g>
                <g id="dirArrow">
                        <path fill="none" stroke="white" stroke-width="1.5" d="M0,-3.0v7 M-2.5,-0.5L0,-3.0L2.5,-0.5"/>
                </g>
               <g id="resetDef">
                       <use xlink:href="#rim2" fill="#404040">
                               <set attributeName="fill" to="#808080" begin="reset.mouseover" end="reset.mouseout"/>
                       </use>
               </g>
        </defs>

<script type="text/javascript">
var viewWidth = 772;
var viewHeight = 442;
var sectionId = 'dynsection-0';
</script>
<script xlink:href="svgpan.js"/>
<svg id="graph" class="graph">
<g id="viewport">
<title>statistics_cluster_tcl.cpp</title>
<!-- Node1 -->
<g id="node1" class="node"><title>Node1</title>
<polygon fill="#bfbfbf" stroke="black" points="448,-403.5 448,-433.5 547,-433.5 547,-403.5 448,-403.5"/>
<text text-anchor="start" x="456" y="-421.5" font-family="Helvetica,sans-Serif" font-size="10.00">statistics_cluster</text>
<text text-anchor="middle" x="497.5" y="-410.5" font-family="Helvetica,sans-Serif" font-size="10.00">_tcl.cpp</text>
</g>
<!-- Node2 -->
<g id="node2" class="node"><title>Node2</title>
<g id="a_node2"><a xlink:href="statistics__cluster_8hpp.html" target="_top" xlink:title="1: This file contains the necklace cluster algorithm. ">
<polygon fill="none" stroke="black" points="311,-342 311,-361 430,-361 430,-342 311,-342"/>
<text text-anchor="middle" x="370.5" y="-349" font-family="Helvetica,sans-Serif" font-size="10.00">statistics_cluster.hpp</text>
</a>
</g>
</g>
<!-- Node1&#45;&gt;Node2 -->
<g id="edge1" class="edge"><title>Node1&#45;&gt;Node2</title>
<path fill="none" stroke="midnightblue" d="M469.943,-403.396C448.054,-392.193 417.668,-376.641 396.262,-365.685"/>
<polygon fill="midnightblue" stroke="midnightblue" points="397.618,-362.447 387.121,-361.007 394.429,-368.679 397.618,-362.447"/>
</g>
<!-- Node22 -->
<g id="node22" class="node"><title>Node22</title>
<g id="a_node22"><a xlink:href="statistics__cluster__tcl_8hpp.html" target="_top" xlink:title="statistics_cluster\l_tcl.hpp">
<polygon fill="none" stroke="black" points="448,-336.5 448,-366.5 547,-366.5 547,-336.5 448,-336.5"/>
<text text-anchor="start" x="456" y="-354.5" font-family="Helvetica,sans-Serif" font-size="10.00">statistics_cluster</text>
<text text-anchor="middle" x="497.5" y="-343.5" font-family="Helvetica,sans-Serif" font-size="10.00">_tcl.hpp</text>
</a>
</g>
</g>
<!-- Node1&#45;&gt;Node22 -->
<g id="edge26" class="edge"><title>Node1&#45;&gt;Node22</title>
<path fill="none" stroke="midnightblue" d="M497.5,-403.396C497.5,-395.645 497.5,-385.812 497.5,-376.86"/>
<polygon fill="midnightblue" stroke="midnightblue" points="501,-376.576 497.5,-366.577 494,-376.577 501,-376.576"/>
</g>
<!-- Node23 -->
<g id="node23" class="node"><title>Node23</title>
<g id="a_node23"><a xlink:href="parser_8hpp.html" target="_top" xlink:title="This file contains macros for parsing the parameters to the &#39;inter&#39; command. ">
<polygon fill="none" stroke="black" points="501.5,-280.5 501.5,-299.5 569.5,-299.5 569.5,-280.5 501.5,-280.5"/>
<text text-anchor="middle" x="535.5" y="-287.5" font-family="Helvetica,sans-Serif" font-size="10.00">parser.hpp</text>
</a>
</g>
</g>
<!-- Node1&#45;&gt;Node23 -->
<g id="edge31" class="edge"><title>Node1&#45;&gt;Node23</title>
<path fill="none" stroke="midnightblue" d="M522.087,-403.295C534.595,-394.585 548.585,-382.189 555.5,-367 564.207,-347.873 555.196,-324.249 546.636,-308.464"/>
<polygon fill="midnightblue" stroke="midnightblue" points="549.607,-306.612 541.527,-299.759 543.57,-310.155 549.607,-306.612"/>
</g>
<!-- Node3 -->
<g id="node3" class="node"><title>Node3</title>
<g id="a_node3"><a xlink:href="interaction__data_8hpp.html" target="_top" xlink:title="Various procedures concerning interactions between particles. ">
<polygon fill="none" stroke="black" points="275,-280.5 275,-299.5 392,-299.5 392,-280.5 275,-280.5"/>
<text text-anchor="middle" x="333.5" y="-287.5" font-family="Helvetica,sans-Serif" font-size="10.00">interaction_data.hpp</text>
</a>
</g>
</g>
<!-- Node2&#45;&gt;Node3 -->
<g id="edge2" class="edge"><title>Node2&#45;&gt;Node3</title>
<path fill="none" stroke="midnightblue" d="M365.199,-341.975C359.759,-333.227 351.141,-319.369 344.264,-308.309"/>
<polygon fill="midnightblue" stroke="midnightblue" points="347.044,-306.153 338.791,-299.509 341.1,-309.849 347.044,-306.153"/>
</g>
<!-- Node21 -->
<g id="node21" class="node"><title>Node21</title>
<g id="a_node21"><a xlink:href="particle__data_8hpp.html" target="_top" xlink:title="For more information on particle_data, see particle_data.c. ">
<polygon fill="none" stroke="black" points="362,-224.5 362,-243.5 463,-243.5 463,-224.5 362,-224.5"/>
<text text-anchor="middle" x="412.5" y="-231.5" font-family="Helvetica,sans-Serif" font-size="10.00">particle_data.hpp</text>
</a>
</g>
</g>
<!-- Node2&#45;&gt;Node21 -->
<g id="edge25" class="edge"><title>Node2&#45;&gt;Node21</title>
<path fill="none" stroke="midnightblue" d="M377.06,-341.688C383.961,-331.978 394.619,-315.656 400.5,-300 406.117,-285.044 409.174,-267.132 410.794,-253.901"/>
<polygon fill="midnightblue" stroke="midnightblue" points="414.304,-253.985 411.875,-243.672 407.343,-253.249 414.304,-253.985"/>
</g>
<!-- Node4 -->
<g id="node4" class="node"><title>Node4</title>
<g id="a_node4"><a xlink:href="utils_8hpp.html" target="_top" xlink:title="Small functions that are useful not only for one modul. ">
<polygon fill="none" stroke="black" points="344,-168.5 344,-187.5 403,-187.5 403,-168.5 344,-168.5"/>
<text text-anchor="middle" x="373.5" y="-175.5" font-family="Helvetica,sans-Serif" font-size="10.00">utils.hpp</text>
</a>
</g>
</g>
<!-- Node3&#45;&gt;Node4 -->
<g id="edge3" class="edge"><title>Node3&#45;&gt;Node4</title>
<path fill="none" stroke="midnightblue" d="M335.556,-280.451C338.674,-267.893 345.035,-243.802 352.5,-224 355.921,-214.924 360.391,-205.135 364.327,-197.012"/>
<polygon fill="midnightblue" stroke="midnightblue" points="367.593,-198.306 368.908,-187.793 361.324,-195.191 367.593,-198.306"/>
</g>
<!-- Node3&#45;&gt;Node21 -->
<g id="edge23" class="edge"><title>Node3&#45;&gt;Node21</title>
<path fill="none" stroke="midnightblue" d="M346.193,-280.324C358.401,-271.979 377.078,-259.212 391.503,-249.352"/>
<polygon fill="midnightblue" stroke="midnightblue" points="393.558,-252.187 399.839,-243.655 389.608,-246.408 393.558,-252.187"/>
</g>
<!-- Node5 -->
<g id="node5" class="node"><title>Node5</title>
<polygon fill="none" stroke="#bfbfbf" points="0,-112.5 0,-131.5 47,-131.5 47,-112.5 0,-112.5"/>
<text text-anchor="middle" x="23.5" y="-119.5" font-family="Helvetica,sans-Serif" font-size="10.00">cmath</text>
</g>
<!-- Node4&#45;&gt;Node5 -->
<g id="edge4" class="edge"><title>Node4&#45;&gt;Node5</title>
<path fill="none" stroke="midnightblue" d="M343.566,-174.016C288.728,-168.277 168.347,-154.426 57.2399,-131.91"/>
<polygon fill="midnightblue" stroke="midnightblue" points="57.7073,-128.433 47.2073,-129.847 56.2977,-135.289 57.7073,-128.433"/>
</g>
<!-- Node6 -->
<g id="node6" class="node"><title>Node6</title>
<polygon fill="none" stroke="#bfbfbf" points="65.5,-112.5 65.5,-131.5 111.5,-131.5 111.5,-112.5 65.5,-112.5"/>
<text text-anchor="middle" x="88.5" y="-119.5" font-family="Helvetica,sans-Serif" font-size="10.00">cstdio</text>
</g>
<!-- Node4&#45;&gt;Node6 -->
<g id="edge5" class="edge"><title>Node4&#45;&gt;Node6</title>
<path fill="none" stroke="midnightblue" d="M343.707,-172.671C297.972,-165.817 207.553,-151.441 121.437,-132.028"/>
<polygon fill="midnightblue" stroke="midnightblue" points="122.031,-128.573 111.503,-129.761 120.473,-135.398 122.031,-128.573"/>
</g>
<!-- Node7 -->
<g id="node7" class="node"><title>Node7</title>
<polygon fill="none" stroke="#bfbfbf" points="130,-112.5 130,-131.5 179,-131.5 179,-112.5 130,-112.5"/>
<text text-anchor="middle" x="154.5" y="-119.5" font-family="Helvetica,sans-Serif" font-size="10.00">cstdlib</text>
</g>
<!-- Node4&#45;&gt;Node7 -->
<g id="edge6" class="edge"><title>Node4&#45;&gt;Node7</title>
<path fill="none" stroke="midnightblue" d="M343.965,-169.717C303.733,-159.797 231.835,-142.069 189.118,-131.536"/>
<polygon fill="midnightblue" stroke="midnightblue" points="189.729,-128.082 179.181,-129.086 188.053,-134.878 189.729,-128.082"/>
</g>
<!-- Node8 -->
<g id="node8" class="node"><title>Node8</title>
<polygon fill="none" stroke="#bfbfbf" points="713.5,-112.5 713.5,-131.5 763.5,-131.5 763.5,-112.5 713.5,-112.5"/>
<text text-anchor="middle" x="738.5" y="-119.5" font-family="Helvetica,sans-Serif" font-size="10.00">cstring</text>
</g>
<!-- Node4&#45;&gt;Node8 -->
<g id="edge7" class="edge"><title>Node4&#45;&gt;Node8</title>
<path fill="none" stroke="midnightblue" d="M403.271,-174.112C461.352,-168.221 593.705,-153.527 703.5,-132 703.6,-131.98 703.7,-131.961 703.801,-131.941"/>
<polygon fill="midnightblue" stroke="midnightblue" points="704.33,-135.408 713.345,-129.841 702.826,-128.572 704.33,-135.408"/>
</g>
<!-- Node9 -->
<g id="node9" class="node"><title>Node9</title>
<g id="a_node9"><a xlink:href="config_8hpp.html" target="_top" xlink:title="This file contains the defaults for Espresso. ">
<polygon fill="none" stroke="black" points="278,-56.5 278,-75.5 345,-75.5 345,-56.5 278,-56.5"/>
<text text-anchor="middle" x="311.5" y="-63.5" font-family="Helvetica,sans-Serif" font-size="10.00">config.hpp</text>
</a>
</g>
</g>
<!-- Node4&#45;&gt;Node9 -->
<g id="edge8" class="edge"><title>Node4&#45;&gt;Node9</title>
<path fill="none" stroke="midnightblue" d="M343.707,-177.516C309.124,-176.306 253.403,-168.371 226.5,-132 209.603,-109.157 243.237,-90.4074 273.053,-79.0139"/>
<polygon fill="midnightblue" stroke="midnightblue" points="274.323,-82.2766 282.531,-75.5773 271.937,-75.6958 274.323,-82.2766"/>
</g>
<!-- Node13 -->
<g id="node13" class="node"><title>Node13</title>
<g id="a_node13"><a xlink:href="debug_8hpp.html" target="_top" xlink:title="This file controls debug facilities. ">
<polygon fill="none" stroke="black" points="235.5,-112.5 235.5,-131.5 303.5,-131.5 303.5,-112.5 235.5,-112.5"/>
<text text-anchor="middle" x="269.5" y="-119.5" font-family="Helvetica,sans-Serif" font-size="10.00">debug.hpp</text>
</a>
</g>
</g>
<!-- Node4&#45;&gt;Node13 -->
<g id="edge12" class="edge"><title>Node4&#45;&gt;Node13</title>
<path fill="none" stroke="midnightblue" d="M356.791,-168.324C340.188,-159.703 314.498,-146.364 295.28,-136.386"/>
<polygon fill="midnightblue" stroke="midnightblue" points="296.656,-133.156 286.168,-131.655 293.43,-139.369 296.656,-133.156"/>
</g>
<!-- Node14 -->
<g id="node14" class="node"><title>Node14</title>
<g id="a_node14"><a xlink:href="lees__edwards_8hpp.html" target="_top" xlink:title="lees_edwards.hpp">
<polygon fill="none" stroke="black" points="321.5,-112.5 321.5,-131.5 425.5,-131.5 425.5,-112.5 321.5,-112.5"/>
<text text-anchor="middle" x="373.5" y="-119.5" font-family="Helvetica,sans-Serif" font-size="10.00">lees_edwards.hpp</text>
</a>
</g>
</g>
<!-- Node4&#45;&gt;Node14 -->
<g id="edge14" class="edge"><title>Node4&#45;&gt;Node14</title>
<path fill="none" stroke="midnightblue" d="M373.5,-168.083C373.5,-161.006 373.5,-150.861 373.5,-141.986"/>
<polygon fill="midnightblue" stroke="midnightblue" points="377,-141.751 373.5,-131.751 370,-141.751 377,-141.751"/>
</g>
<!-- Node15 -->
<g id="node15" class="node"><title>Node15</title>
<g id="a_node15"><a xlink:href="errorhandling_8hpp.html" target="_top" xlink:title="This file contains the errorhandling code for severe errors, like a broken bond or illegal parameter ...">
<polygon fill="none" stroke="black" points="444,-112.5 444,-131.5 547,-131.5 547,-112.5 444,-112.5"/>
<text text-anchor="middle" x="495.5" y="-119.5" font-family="Helvetica,sans-Serif" font-size="10.00">errorhandling.hpp</text>
</a>
</g>
</g>
<!-- Node4&#45;&gt;Node15 -->
<g id="edge16" class="edge"><title>Node4&#45;&gt;Node15</title>
<path fill="none" stroke="midnightblue" d="M392.831,-168.444C412.82,-159.596 444.243,-145.687 467.064,-135.586"/>
<polygon fill="midnightblue" stroke="midnightblue" points="468.532,-138.764 476.259,-131.516 465.698,-132.363 468.532,-138.764"/>
</g>
<!-- Node19 -->
<g id="node19" class="node"><title>Node19</title>
<polygon fill="none" stroke="#bfbfbf" points="565,-112.5 565,-131.5 612,-131.5 612,-112.5 565,-112.5"/>
<text text-anchor="middle" x="588.5" y="-119.5" font-family="Helvetica,sans-Serif" font-size="10.00">vector</text>
</g>
<!-- Node4&#45;&gt;Node19 -->
<g id="edge21" class="edge"><title>Node4&#45;&gt;Node19</title>
<path fill="none" stroke="midnightblue" d="M403.187,-169.89C437.359,-161.656 495.41,-147.514 554.798,-132.136"/>
<polygon fill="midnightblue" stroke="midnightblue" points="555.926,-135.459 564.725,-129.557 554.166,-128.684 555.926,-135.459"/>
</g>
<!-- Node20 -->
<g id="node20" class="node"><title>Node20</title>
<polygon fill="none" stroke="#bfbfbf" points="630,-112.5 630,-131.5 695,-131.5 695,-112.5 630,-112.5"/>
<text text-anchor="middle" x="662.5" y="-119.5" font-family="Helvetica,sans-Serif" font-size="10.00">exception</text>
</g>
<!-- Node4&#45;&gt;Node20 -->
<g id="edge22" class="edge"><title>Node4&#45;&gt;Node20</title>
<path fill="none" stroke="midnightblue" d="M403.212,-171.892C447.89,-164.146 535.27,-148.739 619.922,-132.063"/>
<polygon fill="midnightblue" stroke="midnightblue" points="620.831,-135.451 629.961,-130.076 619.472,-128.584 620.831,-135.451"/>
</g>
<!-- Node10 -->
<g id="node10" class="node"><title>Node10</title>
<g id="a_node10"><a xlink:href="acconfig_8hpp.html" target="_top" xlink:title="acconfig.hpp">
<polygon fill="none" stroke="black" points="161.5,-0.5 161.5,-19.5 239.5,-19.5 239.5,-0.5 161.5,-0.5"/>
<text text-anchor="middle" x="200.5" y="-7.5" font-family="Helvetica,sans-Serif" font-size="10.00">acconfig.hpp</text>
</a>
</g>
</g>
<!-- Node9&#45;&gt;Node10 -->
<g id="edge9" class="edge"><title>Node9&#45;&gt;Node10</title>
<path fill="none" stroke="midnightblue" d="M293.666,-56.324C275.784,-47.6247 248.025,-34.1202 227.454,-24.113"/>
<polygon fill="midnightblue" stroke="midnightblue" points="228.813,-20.8819 218.29,-19.6545 225.751,-27.1765 228.813,-20.8819"/>
</g>
<!-- Node11 -->
<g id="node11" class="node"><title>Node11</title>
<g id="a_node11"><a xlink:href="myconfig-final_8hpp.html" target="_top" xlink:title="myconfig&#45;final.hpp">
<polygon fill="none" stroke="black" points="258,-0.5 258,-19.5 365,-19.5 365,-0.5 258,-0.5"/>
<text text-anchor="middle" x="311.5" y="-7.5" font-family="Helvetica,sans-Serif" font-size="10.00">myconfig&#45;final.hpp</text>
</a>
</g>
</g>
<!-- Node9&#45;&gt;Node11 -->
<g id="edge10" class="edge"><title>Node9&#45;&gt;Node11</title>
<path fill="none" stroke="midnightblue" d="M311.5,-56.083C311.5,-49.0059 311.5,-38.8611 311.5,-29.9865"/>
<polygon fill="midnightblue" stroke="midnightblue" points="315,-29.751 311.5,-19.7511 308,-29.7511 315,-29.751"/>
</g>
<!-- Node12 -->
<g id="node12" class="node"><title>Node12</title>
<g id="a_node12"><a xlink:href="config-features_8hpp.html" target="_top" xlink:title="config&#45;features.hpp">
<polygon fill="none" stroke="black" points="383,-0.5 383,-19.5 494,-19.5 494,-0.5 383,-0.5"/>
<text text-anchor="middle" x="438.5" y="-7.5" font-family="Helvetica,sans-Serif" font-size="10.00">config&#45;features.hpp</text>
</a>
</g>
</g>
<!-- Node9&#45;&gt;Node12 -->
<g id="edge11" class="edge"><title>Node9&#45;&gt;Node12</title>
<path fill="none" stroke="midnightblue" d="M331.624,-56.4435C352.524,-47.5566 385.435,-33.5632 409.216,-23.4514"/>
<polygon fill="midnightblue" stroke="midnightblue" points="410.638,-26.6504 418.471,-19.5164 407.898,-20.2085 410.638,-26.6504"/>
</g>
<!-- Node13&#45;&gt;Node9 -->
<g id="edge13" class="edge"><title>Node13&#45;&gt;Node9</title>
<path fill="none" stroke="midnightblue" d="M276.435,-112.083C282.429,-104.377 291.252,-93.0333 298.548,-83.6531"/>
<polygon fill="midnightblue" stroke="midnightblue" points="301.317,-85.7934 304.694,-75.7511 295.791,-81.4958 301.317,-85.7934"/>
</g>
<!-- Node14&#45;&gt;Node9 -->
<g id="edge15" class="edge"><title>Node14&#45;&gt;Node9</title>
<path fill="none" stroke="midnightblue" d="M363.539,-112.324C354.373,-104.341 340.563,-92.3128 329.472,-82.6529"/>
<polygon fill="midnightblue" stroke="midnightblue" points="331.482,-79.7624 321.643,-75.8339 326.885,-85.041 331.482,-79.7624"/>
</g>
<!-- Node15&#45;&gt;Node9 -->
<g id="edge17" class="edge"><title>Node15&#45;&gt;Node9</title>
<path fill="none" stroke="midnightblue" d="M466.345,-112.444C434.987,-103.241 384.969,-88.5617 350.303,-78.3879"/>
<polygon fill="midnightblue" stroke="midnightblue" points="351.1,-74.9742 340.519,-75.5164 349.129,-81.6909 351.1,-74.9742"/>
</g>
<!-- Node16 -->
<g id="node16" class="node"><title>Node16</title>
<polygon fill="none" stroke="#bfbfbf" points="405.5,-56.5 405.5,-75.5 449.5,-75.5 449.5,-56.5 405.5,-56.5"/>
<text text-anchor="middle" x="427.5" y="-63.5" font-family="Helvetica,sans-Serif" font-size="10.00">string</text>
</g>
<!-- Node15&#45;&gt;Node16 -->
<g id="edge18" class="edge"><title>Node15&#45;&gt;Node16</title>
<path fill="none" stroke="midnightblue" d="M484.575,-112.324C474.325,-104.185 458.779,-91.8395 446.499,-82.0874"/>
<polygon fill="midnightblue" stroke="midnightblue" points="448.632,-79.3119 438.624,-75.8339 444.279,-84.7937 448.632,-79.3119"/>
</g>
<!-- Node17 -->
<g id="node17" class="node"><title>Node17</title>
<polygon fill="none" stroke="#bfbfbf" points="467.5,-56.5 467.5,-75.5 523.5,-75.5 523.5,-56.5 467.5,-56.5"/>
<text text-anchor="middle" x="495.5" y="-63.5" font-family="Helvetica,sans-Serif" font-size="10.00">sstream</text>
</g>
<!-- Node15&#45;&gt;Node17 -->
<g id="edge19" class="edge"><title>Node15&#45;&gt;Node17</title>
<path fill="none" stroke="midnightblue" d="M495.5,-112.083C495.5,-105.006 495.5,-94.8611 495.5,-85.9865"/>
<polygon fill="midnightblue" stroke="midnightblue" points="499,-85.751 495.5,-75.7511 492,-85.7511 499,-85.751"/>
</g>
<!-- Node18 -->
<g id="node18" class="node"><title>Node18</title>
<polygon fill="none" stroke="#bfbfbf" points="541.5,-56.5 541.5,-75.5 573.5,-75.5 573.5,-56.5 541.5,-56.5"/>
<text text-anchor="middle" x="557.5" y="-63.5" font-family="Helvetica,sans-Serif" font-size="10.00">list</text>
</g>
<!-- Node15&#45;&gt;Node18 -->
<g id="edge20" class="edge"><title>Node15&#45;&gt;Node18</title>
<path fill="none" stroke="midnightblue" d="M505.461,-112.324C514.627,-104.341 528.437,-92.3128 539.528,-82.6529"/>
<polygon fill="midnightblue" stroke="midnightblue" points="542.115,-85.041 547.357,-75.8339 537.518,-79.7624 542.115,-85.041"/>
</g>
<!-- Node21&#45;&gt;Node4 -->
<g id="edge24" class="edge"><title>Node21&#45;&gt;Node4</title>
<path fill="none" stroke="midnightblue" d="M406.06,-224.083C400.551,-216.455 392.469,-205.264 385.735,-195.941"/>
<polygon fill="midnightblue" stroke="midnightblue" points="388.513,-193.809 379.82,-187.751 382.838,-197.907 388.513,-193.809"/>
</g>
<!-- Node22&#45;&gt;Node23 -->
<g id="edge27" class="edge"><title>Node22&#45;&gt;Node23</title>
<path fill="none" stroke="midnightblue" d="M506.505,-336.399C511.913,-327.932 518.832,-317.099 524.554,-308.139"/>
<polygon fill="midnightblue" stroke="midnightblue" points="527.538,-309.97 529.971,-299.658 521.638,-306.202 527.538,-309.97"/>
</g>
<!-- Node23&#45;&gt;Node4 -->
<g id="edge28" class="edge"><title>Node23&#45;&gt;Node4</title>
<path fill="none" stroke="midnightblue" d="M528.821,-280.439C517.98,-266.993 495.354,-240.736 471.5,-224 451.965,-210.294 427.588,-199.08 408.033,-191.275"/>
<polygon fill="midnightblue" stroke="midnightblue" points="409.171,-187.963 398.582,-187.616 406.643,-194.49 409.171,-187.963"/>
</g>
<!-- Node23&#45;&gt;Node8 -->
<g id="edge29" class="edge"><title>Node23&#45;&gt;Node8</title>
<path fill="none" stroke="midnightblue" d="M535.949,-280.47C537.065,-267.067 540.955,-240.867 554.5,-224 593.39,-175.571 662.06,-146.857 703.615,-133.075"/>
<polygon fill="midnightblue" stroke="midnightblue" points="704.855,-136.353 713.309,-129.967 702.718,-129.687 704.855,-136.353"/>
</g>
<!-- Node24 -->
<g id="node24" class="node"><title>Node24</title>
<polygon fill="none" stroke="#bfbfbf" points="563.5,-224.5 563.5,-243.5 601.5,-243.5 601.5,-224.5 563.5,-224.5"/>
<text text-anchor="middle" x="582.5" y="-231.5" font-family="Helvetica,sans-Serif" font-size="10.00">tcl.h</text>
</g>
<!-- Node23&#45;&gt;Node24 -->
<g id="edge30" class="edge"><title>Node23&#45;&gt;Node24</title>
<path fill="none" stroke="midnightblue" d="M543.261,-280.083C550.037,-272.298 560.043,-260.801 568.255,-251.367"/>
<polygon fill="midnightblue" stroke="midnightblue" points="570.958,-253.592 574.883,-243.751 565.678,-248.996 570.958,-253.592"/>
</g>
</g>
</svg>
        <g id="navigator" transform="translate(0 0)" fill="#404254">
                <rect fill="#f2f5e9" fill-opacity="0.5" stroke="#606060" stroke-width=".5" x="0" y="0" width="60" height="60"/>
                <use id="zoomplus" xlink:href="#zoomPlus" x="17" y="9" onmousedown="handleZoom(evt,'in')"/>
                <use id="zoomminus" xlink:href="#zoomMin" x="42" y="9" onmousedown="handleZoom(evt,'out')"/>
                <use id="reset" xlink:href="#resetDef" x="30" y="36" onmousedown="handleReset()"/>
                <g id="arrowUp" xlink:href="#dirArrow" transform="translate(30 24)" onmousedown="handlePan(0,-1)">
                  <use xlink:href="#rim" fill="#404040">
                        <set attributeName="fill" to="#808080" begin="arrowUp.mouseover" end="arrowUp.mouseout"/>
                  </use>
                  <path fill="none" stroke="white" stroke-width="1.5" d="M0,-3.0v7 M-2.5,-0.5L0,-3.0L2.5,-0.5"/>
                </g>
                <g id="arrowRight" xlink:href="#dirArrow" transform="rotate(90) translate(36 -43)" onmousedown="handlePan(1,0)">
                  <use xlink:href="#rim" fill="#404040">
                        <set attributeName="fill" to="#808080" begin="arrowRight.mouseover" end="arrowRight.mouseout"/>
                  </use>
                  <path fill="none" stroke="white" stroke-width="1.5" d="M0,-3.0v7 M-2.5,-0.5L0,-3.0L2.5,-0.5"/>
                </g>
                <g id="arrowDown" xlink:href="#dirArrow" transform="rotate(180) translate(-30 -48)" onmousedown="handlePan(0,1)">
                  <use xlink:href="#rim" fill="#404040">
                        <set attributeName="fill" to="#808080" begin="arrowDown.mouseover" end="arrowDown.mouseout"/>
                  </use>
                  <path fill="none" stroke="white" stroke-width="1.5" d="M0,-3.0v7 M-2.5,-0.5L0,-3.0L2.5,-0.5"/>
                </g>
                <g id="arrowLeft" xlink:href="#dirArrow" transform="rotate(270) translate(-36 17)" onmousedown="handlePan(-1,0)">
                  <use xlink:href="#rim" fill="#404040">
                        <set attributeName="fill" to="#808080" begin="arrowLeft.mouseover" end="arrowLeft.mouseout"/>
                  </use>
                  <path fill="none" stroke="white" stroke-width="1.5" d="M0,-3.0v7 M-2.5,-0.5L0,-3.0L2.5,-0.5"/>
                </g>
        </g>
        <svg viewBox="0 0 15 15" width="100%" height="30px" preserveAspectRatio="xMaxYMin meet">
         <g id="arrow_out" transform="scale(0.3 0.3)">
          <a xlink:href="statistics__cluster__tcl_8cpp__incl_org.svg" target="_base">
           <rect id="button" ry="5" rx="5" y="6" x="6" height="38" width="38"
                fill="#f2f5e9" fill-opacity="0.5" stroke="#606060" stroke-width="1.0"/>
           <path id="arrow"
             d="M 11.500037,31.436501 C 11.940474,20.09759 22.043105,11.32322 32.158766,21.979434 L 37.068811,17.246167 C 37.068811,17.246167 37.088388,32 37.088388,32 L 22.160133,31.978069 C 22.160133,31.978069 26.997745,27.140456 26.997745,27.140456 C 18.528582,18.264221 13.291696,25.230495 11.500037,31.436501 z"
             style="fill:#404040;"/>
          </a>
         </g>
        </svg>
</svg>
