<?xml version="1.0" encoding="UTF-8" standalone="no"?>
<!DOCTYPE svg PUBLIC "-//W3C//DTD SVG 1.1//EN"
 "http://www.w3.org/Graphics/SVG/1.1/DTD/svg11.dtd">
<!-- Generated by graphviz version 2.38.0 (20140413.2041)
 -->
<!-- Title: statistics_cluster.cpp Pages: 1 -->
<!--zoomable 420 -->
<svg id="main" version="1.1" xmlns="http://www.w3.org/2000/svg" xmlns:xlink="http://www.w3.org/1999/xlink" xml:space="preserve" onload="init(evt)">
<style type="text/css"><![CDATA[
.edge:hover path { stroke: red; }
.edge:hover polygon { stroke: red; fill: red; }
]]></style>
<script type="text/javascript"><![CDATA[
var edges = document.getElementsByTagName('g');
if (edges && edges.length) {
  for (var i=0;i<edges.length;i++) {
    if (edges[i].id.substr(0,4)=='edge') {
      edges[i].setAttribute('class','edge');
    }
  }
}
]]></script>
        <defs>
                <circle id="rim" cx="0" cy="0" r="7"/>
                <circle id="rim2" cx="0" cy="0" r="3.5"/>
                <g id="zoomPlus">
                        <use xlink:href="#rim" fill="#404040">
                                <set attributeName="fill" to="#808080" begin="zoomplus.mouseover" end="zoomplus.mouseout"/>
                        </use>
                        <path d="M-4,0h8M0,-4v8" fill="none" stroke="white" stroke-width="1.5" pointer-events="none"/>
                </g>
                <g id="zoomMin">
                        <use xlink:href="#rim" fill="#404040">
                                <set attributeName="fill" to="#808080" begin="zoomminus.mouseover" end="zoomminus.mouseout"/>
                        </use>
                        <path d="M-4,0h8" fill="none" stroke="white" stroke-width="1.5" pointer-events="none"/>
                </g>
                <g id="dirArrow">
                        <path fill="none" stroke="white" stroke-width="1.5" d="M0,-3.0v7 M-2.5,-0.5L0,-3.0L2.5,-0.5"/>
                </g>
               <g id="resetDef">
                       <use xlink:href="#rim2" fill="#404040">
                               <set attributeName="fill" to="#808080" begin="reset.mouseover" end="reset.mouseout"/>
                       </use>
               </g>
        </defs>

<script type="text/javascript">
var viewWidth = 1043;
var viewHeight = 420;
var sectionId = 'dynsection-0';
</script>
<script xlink:href="svgpan.js"/>
<svg id="graph" class="graph">
<g id="viewport">
<title>statistics_cluster.cpp</title>
<!-- Node1 -->
<g id="node1" class="node"><title>Node1</title>
<polygon fill="#bfbfbf" stroke="black" points="561,-392.5 561,-411.5 680,-411.5 680,-392.5 561,-392.5"/>
<text text-anchor="middle" x="620.5" y="-399.5" font-family="Helvetica,sans-Serif" font-size="10.00">statistics_cluster.cpp</text>
</g>
<!-- Node2 -->
<g id="node2" class="node"><title>Node2</title>
<g id="a_node2"><a xlink:href="statistics__cluster_8hpp.html" target="_top" xlink:title="1: This file contains the necklace cluster algorithm. ">
<polygon fill="none" stroke="black" points="508,-336.5 508,-355.5 627,-355.5 627,-336.5 508,-336.5"/>
<text text-anchor="middle" x="567.5" y="-343.5" font-family="Helvetica,sans-Serif" font-size="10.00">statistics_cluster.hpp</text>
</a>
</g>
</g>
<!-- Node1&#45;&gt;Node2 -->
<g id="edge1" class="edge"><title>Node1&#45;&gt;Node2</title>
<path fill="none" stroke="midnightblue" d="M611.748,-392.083C604.03,-384.22 592.595,-372.569 583.283,-363.081"/>
<polygon fill="midnightblue" stroke="midnightblue" points="585.592,-360.436 576.089,-355.751 580.596,-365.34 585.592,-360.436"/>
</g>
<!-- Node22 -->
<g id="node22" class="node"><title>Node22</title>
<g id="a_node22"><a xlink:href="grid_8hpp.html" target="_top" xlink:title="Domain decomposition for parallel computing. ">
<polygon fill="none" stroke="black" points="645.5,-336.5 645.5,-355.5 701.5,-355.5 701.5,-336.5 645.5,-336.5"/>
<text text-anchor="middle" x="673.5" y="-343.5" font-family="Helvetica,sans-Serif" font-size="10.00">grid.hpp</text>
</a>
</g>
</g>
<!-- Node1&#45;&gt;Node22 -->
<g id="edge26" class="edge"><title>Node1&#45;&gt;Node22</title>
<path fill="none" stroke="midnightblue" d="M629.252,-392.083C636.97,-384.22 648.405,-372.569 657.717,-363.081"/>
<polygon fill="midnightblue" stroke="midnightblue" points="660.404,-365.34 664.911,-355.751 655.408,-360.436 660.404,-365.34"/>
</g>
<!-- Node3 -->
<g id="node3" class="node"><title>Node3</title>
<g id="a_node3"><a xlink:href="interaction__data_8hpp.html" target="_top" xlink:title="Various procedures concerning interactions between particles. ">
<polygon fill="none" stroke="black" points="511,-280.5 511,-299.5 628,-299.5 628,-280.5 511,-280.5"/>
<text text-anchor="middle" x="569.5" y="-287.5" font-family="Helvetica,sans-Serif" font-size="10.00">interaction_data.hpp</text>
</a>
</g>
</g>
<!-- Node2&#45;&gt;Node3 -->
<g id="edge2" class="edge"><title>Node2&#45;&gt;Node3</title>
<path fill="none" stroke="midnightblue" d="M567.83,-336.083C568.092,-329.006 568.468,-318.861 568.797,-309.986"/>
<polygon fill="midnightblue" stroke="midnightblue" points="572.303,-309.874 569.176,-299.751 565.308,-309.615 572.303,-309.874"/>
</g>
<!-- Node21 -->
<g id="node21" class="node"><title>Node21</title>
<g id="a_node21"><a xlink:href="particle__data_8hpp.html" target="_top" xlink:title="For more information on particle_data, see particle_data.c. ">
<polygon fill="none" stroke="black" points="480,-224.5 480,-243.5 581,-243.5 581,-224.5 480,-224.5"/>
<text text-anchor="middle" x="530.5" y="-231.5" font-family="Helvetica,sans-Serif" font-size="10.00">particle_data.hpp</text>
</a>
</g>
</g>
<!-- Node2&#45;&gt;Node21 -->
<g id="edge25" class="edge"><title>Node2&#45;&gt;Node21</title>
<path fill="none" stroke="midnightblue" d="M545.041,-336.382C529.731,-329.184 510.637,-317.288 501.5,-300 492.974,-283.869 503.931,-264.722 514.733,-251.405"/>
<polygon fill="midnightblue" stroke="midnightblue" points="517.631,-253.408 521.602,-243.585 512.372,-248.788 517.631,-253.408"/>
</g>
<!-- Node4 -->
<g id="node4" class="node"><title>Node4</title>
<g id="a_node4"><a xlink:href="utils_8hpp.html" target="_top" xlink:title="Small functions that are useful not only for one modul. ">
<polygon fill="none" stroke="black" points="503,-168.5 503,-187.5 562,-187.5 562,-168.5 503,-168.5"/>
<text text-anchor="middle" x="532.5" y="-175.5" font-family="Helvetica,sans-Serif" font-size="10.00">utils.hpp</text>
</a>
</g>
</g>
<!-- Node3&#45;&gt;Node4 -->
<g id="edge3" class="edge"><title>Node3&#45;&gt;Node4</title>
<path fill="none" stroke="midnightblue" d="M576.192,-280.272C585.115,-267.49 598.768,-243.125 589.5,-224 583.103,-210.8 570.748,-200.303 559.171,-192.779"/>
<polygon fill="midnightblue" stroke="midnightblue" points="560.954,-189.768 550.582,-187.61 557.345,-195.765 560.954,-189.768"/>
</g>
<!-- Node3&#45;&gt;Node21 -->
<g id="edge23" class="edge"><title>Node3&#45;&gt;Node21</title>
<path fill="none" stroke="midnightblue" d="M563.06,-280.083C557.551,-272.455 549.469,-261.264 542.735,-251.941"/>
<polygon fill="midnightblue" stroke="midnightblue" points="545.513,-249.809 536.82,-243.751 539.838,-253.907 545.513,-249.809"/>
</g>
<!-- Node5 -->
<g id="node5" class="node"><title>Node5</title>
<polygon fill="none" stroke="#bfbfbf" points="378,-112.5 378,-131.5 425,-131.5 425,-112.5 378,-112.5"/>
<text text-anchor="middle" x="401.5" y="-119.5" font-family="Helvetica,sans-Serif" font-size="10.00">cmath</text>
</g>
<!-- Node4&#45;&gt;Node5 -->
<g id="edge4" class="edge"><title>Node4&#45;&gt;Node5</title>
<path fill="none" stroke="midnightblue" d="M511.743,-168.444C490.184,-159.557 456.237,-145.563 431.706,-135.451"/>
<polygon fill="midnightblue" stroke="midnightblue" points="432.739,-132.092 422.16,-131.516 430.072,-138.563 432.739,-132.092"/>
</g>
<!-- Node6 -->
<g id="node6" class="node"><title>Node6</title>
<polygon fill="none" stroke="#bfbfbf" points="443.5,-112.5 443.5,-131.5 489.5,-131.5 489.5,-112.5 443.5,-112.5"/>
<text text-anchor="middle" x="466.5" y="-119.5" font-family="Helvetica,sans-Serif" font-size="10.00">cstdio</text>
</g>
<!-- Node4&#45;&gt;Node6 -->
<g id="edge5" class="edge"><title>Node4&#45;&gt;Node6</title>
<path fill="none" stroke="midnightblue" d="M521.896,-168.324C512.044,-160.263 497.149,-148.077 485.285,-138.369"/>
<polygon fill="midnightblue" stroke="midnightblue" points="487.253,-135.457 477.297,-131.834 482.82,-140.875 487.253,-135.457"/>
</g>
<!-- Node7 -->
<g id="node7" class="node"><title>Node7</title>
<polygon fill="none" stroke="#bfbfbf" points="508,-112.5 508,-131.5 557,-131.5 557,-112.5 508,-112.5"/>
<text text-anchor="middle" x="532.5" y="-119.5" font-family="Helvetica,sans-Serif" font-size="10.00">cstdlib</text>
</g>
<!-- Node4&#45;&gt;Node7 -->
<g id="edge6" class="edge"><title>Node4&#45;&gt;Node7</title>
<path fill="none" stroke="midnightblue" d="M532.5,-168.083C532.5,-161.006 532.5,-150.861 532.5,-141.986"/>
<polygon fill="midnightblue" stroke="midnightblue" points="536,-141.751 532.5,-131.751 529,-141.751 536,-141.751"/>
</g>
<!-- Node8 -->
<g id="node8" class="node"><title>Node8</title>
<polygon fill="none" stroke="#bfbfbf" points="575.5,-112.5 575.5,-131.5 625.5,-131.5 625.5,-112.5 575.5,-112.5"/>
<text text-anchor="middle" x="600.5" y="-119.5" font-family="Helvetica,sans-Serif" font-size="10.00">cstring</text>
</g>
<!-- Node4&#45;&gt;Node8 -->
<g id="edge7" class="edge"><title>Node4&#45;&gt;Node8</title>
<path fill="none" stroke="midnightblue" d="M543.425,-168.324C553.675,-160.185 569.221,-147.839 581.501,-138.087"/>
<polygon fill="midnightblue" stroke="midnightblue" points="583.721,-140.794 589.376,-131.834 579.368,-135.312 583.721,-140.794"/>
</g>
<!-- Node9 -->
<g id="node9" class="node"><title>Node9</title>
<g id="a_node9"><a xlink:href="config_8hpp.html" target="_top" xlink:title="This file contains the defaults for Espresso. ">
<polygon fill="none" stroke="black" points="662,-56.5 662,-75.5 729,-75.5 729,-56.5 662,-56.5"/>
<text text-anchor="middle" x="695.5" y="-63.5" font-family="Helvetica,sans-Serif" font-size="10.00">config.hpp</text>
</a>
</g>
</g>
<!-- Node4&#45;&gt;Node9 -->
<g id="edge8" class="edge"><title>Node4&#45;&gt;Node9</title>
<path fill="none" stroke="midnightblue" d="M562.114,-175.546C617.246,-172.152 732.245,-161.612 756.5,-132 771.755,-113.375 745.944,-93.3833 723.344,-80.5635"/>
<polygon fill="midnightblue" stroke="midnightblue" points="724.765,-77.3538 714.301,-75.6955 721.447,-83.5174 724.765,-77.3538"/>
</g>
<!-- Node13 -->
<g id="node13" class="node"><title>Node13</title>
<g id="a_node13"><a xlink:href="debug_8hpp.html" target="_top" xlink:title="This file controls debug facilities. ">
<polygon fill="none" stroke="black" points="291.5,-112.5 291.5,-131.5 359.5,-131.5 359.5,-112.5 291.5,-112.5"/>
<text text-anchor="middle" x="325.5" y="-119.5" font-family="Helvetica,sans-Serif" font-size="10.00">debug.hpp</text>
</a>
</g>
</g>
<!-- Node4&#45;&gt;Node13 -->
<g id="edge12" class="edge"><title>Node4&#45;&gt;Node13</title>
<path fill="none" stroke="midnightblue" d="M502.842,-169.263C467.493,-160.042 408.166,-144.565 367.96,-134.077"/>
<polygon fill="midnightblue" stroke="midnightblue" points="368.736,-130.662 358.177,-131.524 366.969,-137.435 368.736,-130.662"/>
</g>
<!-- Node14 -->
<g id="node14" class="node"><title>Node14</title>
<g id="a_node14"><a xlink:href="lees__edwards_8hpp.html" target="_top" xlink:title="lees_edwards.hpp">
<polygon fill="none" stroke="black" points="643.5,-112.5 643.5,-131.5 747.5,-131.5 747.5,-112.5 643.5,-112.5"/>
<text text-anchor="middle" x="695.5" y="-119.5" font-family="Helvetica,sans-Serif" font-size="10.00">lees_edwards.hpp</text>
</a>
</g>
</g>
<!-- Node4&#45;&gt;Node14 -->
<g id="edge14" class="edge"><title>Node4&#45;&gt;Node14</title>
<path fill="none" stroke="midnightblue" d="M558.328,-168.444C585.749,-159.359 629.277,-144.939 659.932,-134.783"/>
<polygon fill="midnightblue" stroke="midnightblue" points="661.401,-137.984 669.793,-131.516 659.2,-131.339 661.401,-137.984"/>
</g>
<!-- Node15 -->
<g id="node15" class="node"><title>Node15</title>
<g id="a_node15"><a xlink:href="errorhandling_8hpp.html" target="_top" xlink:title="This file contains the errorhandling code for severe errors, like a broken bond or illegal parameter ...">
<polygon fill="none" stroke="black" points="887,-112.5 887,-131.5 990,-131.5 990,-112.5 887,-112.5"/>
<text text-anchor="middle" x="938.5" y="-119.5" font-family="Helvetica,sans-Serif" font-size="10.00">errorhandling.hpp</text>
</a>
</g>
</g>
<!-- Node4&#45;&gt;Node15 -->
<g id="edge16" class="edge"><title>Node4&#45;&gt;Node15</title>
<path fill="none" stroke="midnightblue" d="M562.058,-173.314C620.154,-166.034 753.555,-149.136 876.925,-132.059"/>
<polygon fill="midnightblue" stroke="midnightblue" points="877.5,-135.513 886.924,-130.672 876.538,-128.579 877.5,-135.513"/>
</g>
<!-- Node19 -->
<g id="node19" class="node"><title>Node19</title>
<polygon fill="none" stroke="#bfbfbf" points="226,-112.5 226,-131.5 273,-131.5 273,-112.5 226,-112.5"/>
<text text-anchor="middle" x="249.5" y="-119.5" font-family="Helvetica,sans-Serif" font-size="10.00">vector</text>
</g>
<!-- Node4&#45;&gt;Node19 -->
<g id="edge21" class="edge"><title>Node4&#45;&gt;Node19</title>
<path fill="none" stroke="midnightblue" d="M502.697,-172.507C457.404,-165.491 368.363,-150.963 283.072,-131.958"/>
<polygon fill="midnightblue" stroke="midnightblue" points="283.755,-128.524 273.23,-129.741 282.217,-135.353 283.755,-128.524"/>
</g>
<!-- Node20 -->
<g id="node20" class="node"><title>Node20</title>
<polygon fill="none" stroke="#bfbfbf" points="804,-112.5 804,-131.5 869,-131.5 869,-112.5 804,-112.5"/>
<text text-anchor="middle" x="836.5" y="-119.5" font-family="Helvetica,sans-Serif" font-size="10.00">exception</text>
</g>
<!-- Node4&#45;&gt;Node20 -->
<g id="edge22" class="edge"><title>Node4&#45;&gt;Node20</title>
<path fill="none" stroke="midnightblue" d="M562.207,-171.956C610.093,-163.79 707.297,-147.066 789.5,-132 790.956,-131.733 792.436,-131.46 793.931,-131.182"/>
<polygon fill="midnightblue" stroke="midnightblue" points="794.714,-134.597 803.896,-129.313 793.422,-127.717 794.714,-134.597"/>
</g>
<!-- Node10 -->
<g id="node10" class="node"><title>Node10</title>
<g id="a_node10"><a xlink:href="acconfig_8hpp.html" target="_top" xlink:title="acconfig.hpp">
<polygon fill="none" stroke="black" points="545.5,-0.5 545.5,-19.5 623.5,-19.5 623.5,-0.5 545.5,-0.5"/>
<text text-anchor="middle" x="584.5" y="-7.5" font-family="Helvetica,sans-Serif" font-size="10.00">acconfig.hpp</text>
</a>
</g>
</g>
<!-- Node9&#45;&gt;Node10 -->
<g id="edge9" class="edge"><title>Node9&#45;&gt;Node10</title>
<path fill="none" stroke="midnightblue" d="M677.666,-56.324C659.784,-47.6247 632.025,-34.1202 611.454,-24.113"/>
<polygon fill="midnightblue" stroke="midnightblue" points="612.813,-20.8819 602.29,-19.6545 609.751,-27.1765 612.813,-20.8819"/>
</g>
<!-- Node11 -->
<g id="node11" class="node"><title>Node11</title>
<g id="a_node11"><a xlink:href="myconfig-final_8hpp.html" target="_top" xlink:title="myconfig&#45;final.hpp">
<polygon fill="none" stroke="black" points="642,-0.5 642,-19.5 749,-19.5 749,-0.5 642,-0.5"/>
<text text-anchor="middle" x="695.5" y="-7.5" font-family="Helvetica,sans-Serif" font-size="10.00">myconfig&#45;final.hpp</text>
</a>
</g>
</g>
<!-- Node9&#45;&gt;Node11 -->
<g id="edge10" class="edge"><title>Node9&#45;&gt;Node11</title>
<path fill="none" stroke="midnightblue" d="M695.5,-56.083C695.5,-49.0059 695.5,-38.8611 695.5,-29.9865"/>
<polygon fill="midnightblue" stroke="midnightblue" points="699,-29.751 695.5,-19.7511 692,-29.7511 699,-29.751"/>
</g>
<!-- Node12 -->
<g id="node12" class="node"><title>Node12</title>
<g id="a_node12"><a xlink:href="config-features_8hpp.html" target="_top" xlink:title="config&#45;features.hpp">
<polygon fill="none" stroke="black" points="767,-0.5 767,-19.5 878,-19.5 878,-0.5 767,-0.5"/>
<text text-anchor="middle" x="822.5" y="-7.5" font-family="Helvetica,sans-Serif" font-size="10.00">config&#45;features.hpp</text>
</a>
</g>
</g>
<!-- Node9&#45;&gt;Node12 -->
<g id="edge11" class="edge"><title>Node9&#45;&gt;Node12</title>
<path fill="none" stroke="midnightblue" d="M715.624,-56.4435C736.524,-47.5566 769.435,-33.5632 793.216,-23.4514"/>
<polygon fill="midnightblue" stroke="midnightblue" points="794.638,-26.6504 802.471,-19.5164 791.898,-20.2085 794.638,-26.6504"/>
</g>
<!-- Node13&#45;&gt;Node9 -->
<g id="edge13" class="edge"><title>Node13&#45;&gt;Node9</title>
<path fill="none" stroke="midnightblue" d="M359.726,-113.612C362.689,-113.041 365.644,-112.495 368.5,-112 469.591,-94.4868 589.218,-79.4603 652.013,-72.0078"/>
<polygon fill="midnightblue" stroke="midnightblue" points="652.437,-75.4821 661.958,-70.8345 651.617,-68.5303 652.437,-75.4821"/>
</g>
<!-- Node14&#45;&gt;Node9 -->
<g id="edge15" class="edge"><title>Node14&#45;&gt;Node9</title>
<path fill="none" stroke="midnightblue" d="M695.5,-112.083C695.5,-105.006 695.5,-94.8611 695.5,-85.9865"/>
<polygon fill="midnightblue" stroke="midnightblue" points="699,-85.751 695.5,-75.7511 692,-85.7511 699,-85.751"/>
</g>
<!-- Node15&#45;&gt;Node9 -->
<g id="edge17" class="edge"><title>Node15&#45;&gt;Node9</title>
<path fill="none" stroke="midnightblue" d="M899.996,-112.444C856.201,-102.711 784.848,-86.8552 739.057,-76.6793"/>
<polygon fill="midnightblue" stroke="midnightblue" points="739.65,-73.2257 729.129,-74.473 738.131,-80.0591 739.65,-73.2257"/>
</g>
<!-- Node16 -->
<g id="node16" class="node"><title>Node16</title>
<polygon fill="none" stroke="#bfbfbf" points="916.5,-56.5 916.5,-75.5 960.5,-75.5 960.5,-56.5 916.5,-56.5"/>
<text text-anchor="middle" x="938.5" y="-63.5" font-family="Helvetica,sans-Serif" font-size="10.00">string</text>
</g>
<!-- Node15&#45;&gt;Node16 -->
<g id="edge18" class="edge"><title>Node15&#45;&gt;Node16</title>
<path fill="none" stroke="midnightblue" d="M938.5,-112.083C938.5,-105.006 938.5,-94.8611 938.5,-85.9865"/>
<polygon fill="midnightblue" stroke="midnightblue" points="942,-85.751 938.5,-75.7511 935,-85.7511 942,-85.751"/>
</g>
<!-- Node17 -->
<g id="node17" class="node"><title>Node17</title>
<polygon fill="none" stroke="#bfbfbf" points="978.5,-56.5 978.5,-75.5 1034.5,-75.5 1034.5,-56.5 978.5,-56.5"/>
<text text-anchor="middle" x="1006.5" y="-63.5" font-family="Helvetica,sans-Serif" font-size="10.00">sstream</text>
</g>
<!-- Node15&#45;&gt;Node17 -->
<g id="edge19" class="edge"><title>Node15&#45;&gt;Node17</title>
<path fill="none" stroke="midnightblue" d="M949.425,-112.324C959.675,-104.185 975.221,-91.8395 987.501,-82.0874"/>
<polygon fill="midnightblue" stroke="midnightblue" points="989.721,-84.7937 995.376,-75.8339 985.368,-79.3119 989.721,-84.7937"/>
</g>
<!-- Node18 -->
<g id="node18" class="node"><title>Node18</title>
<polygon fill="none" stroke="#bfbfbf" points="866.5,-56.5 866.5,-75.5 898.5,-75.5 898.5,-56.5 866.5,-56.5"/>
<text text-anchor="middle" x="882.5" y="-63.5" font-family="Helvetica,sans-Serif" font-size="10.00">list</text>
</g>
<!-- Node15&#45;&gt;Node18 -->
<g id="edge20" class="edge"><title>Node15&#45;&gt;Node18</title>
<path fill="none" stroke="midnightblue" d="M929.503,-112.324C921.306,-104.42 908.994,-92.5482 899.028,-82.9377"/>
<polygon fill="midnightblue" stroke="midnightblue" points="901.289,-80.2558 891.661,-75.8339 896.43,-85.2947 901.289,-80.2558"/>
</g>
<!-- Node21&#45;&gt;Node4 -->
<g id="edge24" class="edge"><title>Node21&#45;&gt;Node4</title>
<path fill="none" stroke="midnightblue" d="M530.83,-224.083C531.092,-217.006 531.468,-206.861 531.797,-197.986"/>
<polygon fill="midnightblue" stroke="midnightblue" points="535.303,-197.874 532.176,-187.751 528.308,-197.615 535.303,-197.874"/>
</g>
<!-- Node22&#45;&gt;Node4 -->
<g id="edge27" class="edge"><title>Node22&#45;&gt;Node4</title>
<path fill="none" stroke="midnightblue" d="M683.267,-336.407C696.373,-323.793 716.773,-299.635 705.5,-280 677.025,-230.403 613.75,-202.849 572.131,-189.484"/>
<polygon fill="midnightblue" stroke="midnightblue" points="572.897,-186.058 562.31,-186.463 570.839,-192.749 572.897,-186.058"/>
</g>
<!-- Node22&#45;&gt;Node15 -->
<g id="edge42" class="edge"><title>Node22&#45;&gt;Node15</title>
<path fill="none" stroke="midnightblue" d="M683.888,-336.297C723.962,-302.726 868.814,-181.379 920.236,-138.301"/>
<polygon fill="midnightblue" stroke="midnightblue" points="922.766,-140.747 928.184,-131.643 918.27,-135.381 922.766,-140.747"/>
</g>
<!-- Node23 -->
<g id="node23" class="node"><title>Node23</title>
<polygon fill="none" stroke="#bfbfbf" points="646.5,-280.5 646.5,-299.5 696.5,-299.5 696.5,-280.5 646.5,-280.5"/>
<text text-anchor="middle" x="671.5" y="-287.5" font-family="Helvetica,sans-Serif" font-size="10.00">climits</text>
</g>
<!-- Node22&#45;&gt;Node23 -->
<g id="edge28" class="edge"><title>Node22&#45;&gt;Node23</title>
<path fill="none" stroke="midnightblue" d="M673.17,-336.083C672.908,-329.006 672.532,-318.861 672.203,-309.986"/>
<polygon fill="midnightblue" stroke="midnightblue" points="675.692,-309.615 671.824,-299.751 668.697,-309.874 675.692,-309.615"/>
</g>
<!-- Node24 -->
<g id="node24" class="node"><title>Node24</title>
<g id="a_node24"><a xlink:href="communication_8hpp.html" target="_top" xlink:title="This file contains the asynchronous MPI communication. ">
<polygon fill="none" stroke="black" points="307,-280.5 307,-299.5 420,-299.5 420,-280.5 307,-280.5"/>
<text text-anchor="middle" x="363.5" y="-287.5" font-family="Helvetica,sans-Serif" font-size="10.00">communication.hpp</text>
</a>
</g>
</g>
<!-- Node22&#45;&gt;Node24 -->
<g id="edge29" class="edge"><title>Node22&#45;&gt;Node24</title>
<path fill="none" stroke="midnightblue" d="M645.326,-338.1C642.021,-337.358 638.691,-336.641 635.5,-336 565.811,-322 485.442,-309.099 430.236,-300.734"/>
<polygon fill="midnightblue" stroke="midnightblue" points="430.639,-297.255 420.229,-299.226 429.595,-304.177 430.639,-297.255"/>
</g>
<!-- Node24&#45;&gt;Node21 -->
<g id="edge30" class="edge"><title>Node24&#45;&gt;Node21</title>
<path fill="none" stroke="midnightblue" d="M389.962,-280.444C418.178,-271.32 463.04,-256.813 494.468,-246.651"/>
<polygon fill="midnightblue" stroke="midnightblue" points="495.724,-249.923 504.162,-243.516 493.57,-243.263 495.724,-249.923"/>
</g>
<!-- Node25 -->
<g id="node25" class="node"><title>Node25</title>
<g id="a_node25"><a xlink:href="random_8hpp.html" target="_top" xlink:title="A random generator. ">
<polygon fill="none" stroke="black" points="387,-224.5 387,-243.5 462,-243.5 462,-224.5 387,-224.5"/>
<text text-anchor="middle" x="424.5" y="-231.5" font-family="Helvetica,sans-Serif" font-size="10.00">random.hpp</text>
</a>
</g>
</g>
<!-- Node24&#45;&gt;Node25 -->
<g id="edge31" class="edge"><title>Node24&#45;&gt;Node25</title>
<path fill="none" stroke="midnightblue" d="M373.301,-280.324C382.318,-272.341 395.906,-260.313 406.818,-250.653"/>
<polygon fill="midnightblue" stroke="midnightblue" points="409.353,-253.083 414.521,-243.834 404.713,-247.842 409.353,-253.083"/>
</g>
<!-- Node26 -->
<g id="node26" class="node"><title>Node26</title>
<g id="a_node26"><a xlink:href="topology_8hpp.html" target="_top" xlink:title="This file contains functions for handling the system topology. ">
<polygon fill="none" stroke="black" points="290,-224.5 290,-243.5 369,-243.5 369,-224.5 290,-224.5"/>
<text text-anchor="middle" x="329.5" y="-231.5" font-family="Helvetica,sans-Serif" font-size="10.00">topology.hpp</text>
</a>
</g>
</g>
<!-- Node24&#45;&gt;Node26 -->
<g id="edge33" class="edge"><title>Node24&#45;&gt;Node26</title>
<path fill="none" stroke="midnightblue" d="M357.886,-280.083C353.133,-272.534 346.182,-261.495 340.348,-252.23"/>
<polygon fill="midnightblue" stroke="midnightblue" points="343.3,-250.349 335.01,-243.751 337.376,-254.078 343.3,-250.349"/>
</g>
<!-- Node27 -->
<g id="node27" class="node"><title>Node27</title>
<g id="a_node27"><a xlink:href="mpi_8h.html" target="_top" xlink:title="This is the MPIfake implementation. ">
<polygon fill="none" stroke="black" points="110.5,-224.5 110.5,-243.5 154.5,-243.5 154.5,-224.5 110.5,-224.5"/>
<text text-anchor="middle" x="132.5" y="-231.5" font-family="Helvetica,sans-Serif" font-size="10.00">mpi.h</text>
</a>
</g>
</g>
<!-- Node24&#45;&gt;Node27 -->
<g id="edge35" class="edge"><title>Node24&#45;&gt;Node27</title>
<path fill="none" stroke="midnightblue" d="M326.897,-280.444C282.119,-269.976 207.035,-252.424 164.476,-242.475"/>
<polygon fill="midnightblue" stroke="midnightblue" points="165.181,-239.045 154.647,-240.177 163.588,-245.862 165.181,-239.045"/>
</g>
<!-- Node31 -->
<g id="node31" class="node"><title>Node31</title>
<g id="a_node31"><a xlink:href="cuda__init_8hpp.html" target="_top" xlink:title="cuda_init.hpp">
<polygon fill="none" stroke="black" points="210.5,-168.5 210.5,-187.5 292.5,-187.5 292.5,-168.5 210.5,-168.5"/>
<text text-anchor="middle" x="251.5" y="-175.5" font-family="Helvetica,sans-Serif" font-size="10.00">cuda_init.hpp</text>
</a>
</g>
</g>
<!-- Node24&#45;&gt;Node31 -->
<g id="edge39" class="edge"><title>Node24&#45;&gt;Node31</title>
<path fill="none" stroke="midnightblue" d="M338.569,-280.491C320.455,-273.227 296.423,-261.201 280.5,-244 268.313,-230.834 260.621,-211.695 256.246,-197.593"/>
<polygon fill="midnightblue" stroke="midnightblue" points="259.505,-196.251 253.426,-187.573 252.767,-198.147 259.505,-196.251"/>
</g>
<!-- Node25&#45;&gt;Node4 -->
<g id="edge32" class="edge"><title>Node25&#45;&gt;Node4</title>
<path fill="none" stroke="midnightblue" d="M441.852,-224.324C459.172,-215.664 486.015,-202.242 506.002,-192.249"/>
<polygon fill="midnightblue" stroke="midnightblue" points="507.812,-195.257 515.191,-187.655 504.681,-188.996 507.812,-195.257"/>
</g>
<!-- Node26&#45;&gt;Node4 -->
<g id="edge34" class="edge"><title>Node26&#45;&gt;Node4</title>
<path fill="none" stroke="midnightblue" d="M361.666,-224.444C397.277,-214.971 454.701,-199.695 493.012,-189.504"/>
<polygon fill="midnightblue" stroke="midnightblue" points="494.032,-192.855 502.796,-186.902 492.232,-186.09 494.032,-192.855"/>
</g>
<!-- Node28 -->
<g id="node28" class="node"><title>Node28</title>
<polygon fill="none" stroke="#bfbfbf" points="71,-168.5 71,-187.5 124,-187.5 124,-168.5 71,-168.5"/>
<text text-anchor="middle" x="97.5" y="-175.5" font-family="Helvetica,sans-Serif" font-size="10.00">string.h</text>
</g>
<!-- Node27&#45;&gt;Node28 -->
<g id="edge36" class="edge"><title>Node27&#45;&gt;Node28</title>
<path fill="none" stroke="midnightblue" d="M126.72,-224.083C121.828,-216.534 114.673,-205.495 108.667,-196.23"/>
<polygon fill="midnightblue" stroke="midnightblue" points="111.548,-194.239 103.172,-187.751 105.674,-198.046 111.548,-194.239"/>
</g>
<!-- Node29 -->
<g id="node29" class="node"><title>Node29</title>
<polygon fill="none" stroke="#bfbfbf" points="142.5,-168.5 142.5,-187.5 192.5,-187.5 192.5,-168.5 142.5,-168.5"/>
<text text-anchor="middle" x="167.5" y="-175.5" font-family="Helvetica,sans-Serif" font-size="10.00">stdio.h</text>
</g>
<!-- Node27&#45;&gt;Node29 -->
<g id="edge37" class="edge"><title>Node27&#45;&gt;Node29</title>
<path fill="none" stroke="midnightblue" d="M138.28,-224.083C143.172,-216.534 150.327,-205.495 156.333,-196.23"/>
<polygon fill="midnightblue" stroke="midnightblue" points="159.326,-198.046 161.828,-187.751 153.452,-194.239 159.326,-198.046"/>
</g>
<!-- Node30 -->
<g id="node30" class="node"><title>Node30</title>
<polygon fill="none" stroke="#bfbfbf" points="0,-168.5 0,-187.5 53,-187.5 53,-168.5 0,-168.5"/>
<text text-anchor="middle" x="26.5" y="-175.5" font-family="Helvetica,sans-Serif" font-size="10.00">stdlib.h</text>
</g>
<!-- Node27&#45;&gt;Node30 -->
<g id="edge38" class="edge"><title>Node27&#45;&gt;Node30</title>
<path fill="none" stroke="midnightblue" d="M115.469,-224.324C98.4702,-215.664 72.1239,-202.242 52.5074,-192.249"/>
<polygon fill="midnightblue" stroke="midnightblue" points="53.9876,-189.075 43.4885,-187.655 50.8101,-195.312 53.9876,-189.075"/>
</g>
<!-- Node31&#45;&gt;Node9 -->
<g id="edge40" class="edge"><title>Node31&#45;&gt;Node9</title>
<path fill="none" stroke="midnightblue" d="M240.733,-168.389C225.38,-155.106 200.71,-129.343 216.5,-112 245.503,-80.1447 538.854,-70.4075 651.643,-67.8276"/>
<polygon fill="midnightblue" stroke="midnightblue" points="651.745,-71.3263 661.665,-67.6064 651.59,-64.328 651.745,-71.3263"/>
</g>
<!-- Node31&#45;&gt;Node19 -->
<g id="edge41" class="edge"><title>Node31&#45;&gt;Node19</title>
<path fill="none" stroke="midnightblue" d="M251.17,-168.083C250.908,-161.006 250.532,-150.861 250.203,-141.986"/>
<polygon fill="midnightblue" stroke="midnightblue" points="253.692,-141.615 249.824,-131.751 246.697,-141.874 253.692,-141.615"/>
</g>
</g>
</svg>
        <g id="navigator" transform="translate(0 0)" fill="#404254">
                <rect fill="#f2f5e9" fill-opacity="0.5" stroke="#606060" stroke-width=".5" x="0" y="0" width="60" height="60"/>
                <use id="zoomplus" xlink:href="#zoomPlus" x="17" y="9" onmousedown="handleZoom(evt,'in')"/>
                <use id="zoomminus" xlink:href="#zoomMin" x="42" y="9" onmousedown="handleZoom(evt,'out')"/>
                <use id="reset" xlink:href="#resetDef" x="30" y="36" onmousedown="handleReset()"/>
                <g id="arrowUp" xlink:href="#dirArrow" transform="translate(30 24)" onmousedown="handlePan(0,-1)">
                  <use xlink:href="#rim" fill="#404040">
                        <set attributeName="fill" to="#808080" begin="arrowUp.mouseover" end="arrowUp.mouseout"/>
                  </use>
                  <path fill="none" stroke="white" stroke-width="1.5" d="M0,-3.0v7 M-2.5,-0.5L0,-3.0L2.5,-0.5"/>
                </g>
                <g id="arrowRight" xlink:href="#dirArrow" transform="rotate(90) translate(36 -43)" onmousedown="handlePan(1,0)">
                  <use xlink:href="#rim" fill="#404040">
                        <set attributeName="fill" to="#808080" begin="arrowRight.mouseover" end="arrowRight.mouseout"/>
                  </use>
                  <path fill="none" stroke="white" stroke-width="1.5" d="M0,-3.0v7 M-2.5,-0.5L0,-3.0L2.5,-0.5"/>
                </g>
                <g id="arrowDown" xlink:href="#dirArrow" transform="rotate(180) translate(-30 -48)" onmousedown="handlePan(0,1)">
                  <use xlink:href="#rim" fill="#404040">
                        <set attributeName="fill" to="#808080" begin="arrowDown.mouseover" end="arrowDown.mouseout"/>
                  </use>
                  <path fill="none" stroke="white" stroke-width="1.5" d="M0,-3.0v7 M-2.5,-0.5L0,-3.0L2.5,-0.5"/>
                </g>
                <g id="arrowLeft" xlink:href="#dirArrow" transform="rotate(270) translate(-36 17)" onmousedown="handlePan(-1,0)">
                  <use xlink:href="#rim" fill="#404040">
                        <set attributeName="fill" to="#808080" begin="arrowLeft.mouseover" end="arrowLeft.mouseout"/>
                  </use>
                  <path fill="none" stroke="white" stroke-width="1.5" d="M0,-3.0v7 M-2.5,-0.5L0,-3.0L2.5,-0.5"/>
                </g>
        </g>
        <svg viewBox="0 0 15 15" width="100%" height="30px" preserveAspectRatio="xMaxYMin meet">
         <g id="arrow_out" transform="scale(0.3 0.3)">
          <a xlink:href="statistics__cluster_8cpp__incl_org.svg" target="_base">
           <rect id="button" ry="5" rx="5" y="6" x="6" height="38" width="38"
                fill="#f2f5e9" fill-opacity="0.5" stroke="#606060" stroke-width="1.0"/>
           <path id="arrow"
             d="M 11.500037,31.436501 C 11.940474,20.09759 22.043105,11.32322 32.158766,21.979434 L 37.068811,17.246167 C 37.068811,17.246167 37.088388,32 37.088388,32 L 22.160133,31.978069 C 22.160133,31.978069 26.997745,27.140456 26.997745,27.140456 C 18.528582,18.264221 13.291696,25.230495 11.500037,31.436501 z"
             style="fill:#404040;"/>
          </a>
         </g>
        </svg>
</svg>
