<?xml version="1.0" encoding="UTF-8" standalone="no"?>
<!DOCTYPE svg PUBLIC "-//W3C//DTD SVG 1.1//EN"
 "http://www.w3.org/Graphics/SVG/1.1/DTD/svg11.dtd">
<!-- Generated by graphviz version 2.38.0 (20140413.2041)
 -->
<!-- Title: statistics_chain.hpp Pages: 1 -->
<svg width="540pt" height="84pt"
 viewBox="0.00 0.00 539.50 84.00" xmlns="http://www.w3.org/2000/svg" xmlns:xlink="http://www.w3.org/1999/xlink">
<g id="graph0" class="graph" transform="scale(1 1) rotate(0) translate(4 80)">
<title>statistics_chain.hpp</title>
<!-- Node1 -->
<g id="node1" class="node"><title>Node1</title>
<polygon fill="#bfbfbf" stroke="black" points="190,-56.5 190,-75.5 303,-75.5 303,-56.5 190,-56.5"/>
<text text-anchor="middle" x="246.5" y="-63.5" font-family="Helvetica,sans-Serif" font-size="10.00">statistics_chain.hpp</text>
</g>
<!-- Node2 -->
<g id="node2" class="node"><title>Node2</title>
<g id="a_node2"><a xlink:href="communication_8cpp.html" target="_top" xlink:title="communication.cpp">
<polygon fill="none" stroke="black" points="0,-0.5 0,-19.5 113,-19.5 113,-0.5 0,-0.5"/>
<text text-anchor="middle" x="56.5" y="-7.5" font-family="Helvetica,sans-Serif" font-size="10.00">communication.cpp</text>
</a>
</g>
</g>
<!-- Node1&#45;&gt;Node2 -->
<g id="edge1" class="edge"><title>Node1&#45;&gt;Node2</title>
<path fill="none" stroke="midnightblue" d="M206.736,-53.6986C170.877,-43.507 118.929,-28.7429 86.4652,-19.5164"/>
<polygon fill="midnightblue" stroke="midnightblue" points="205.818,-57.0763 216.394,-56.4435 207.732,-50.343 205.818,-57.0763"/>
</g>
<!-- Node3 -->
<g id="node3" class="node"><title>Node3</title>
<g id="a_node3"><a xlink:href="imd_8cpp.html" target="_top" xlink:title="Implementation of imd.h. ">
<polygon fill="none" stroke="black" points="131.5,-0.5 131.5,-19.5 187.5,-19.5 187.5,-0.5 131.5,-0.5"/>
<text text-anchor="middle" x="159.5" y="-7.5" font-family="Helvetica,sans-Serif" font-size="10.00">imd.cpp</text>
</a>
</g>
</g>
<!-- Node1&#45;&gt;Node3 -->
<g id="edge2" class="edge"><title>Node1&#45;&gt;Node3</title>
<path fill="none" stroke="midnightblue" d="M223.784,-50.9005C207.831,-40.9986 187.003,-28.0705 173.443,-19.6545"/>
<polygon fill="midnightblue" stroke="midnightblue" points="222.18,-54.024 232.522,-56.324 225.871,-48.0765 222.18,-54.024"/>
</g>
<!-- Node4 -->
<g id="node4" class="node"><title>Node4</title>
<g id="a_node4"><a xlink:href="statistics_8cpp.html" target="_top" xlink:title="This is the place for analysis (so far...). ">
<polygon fill="none" stroke="black" points="206,-0.5 206,-19.5 287,-19.5 287,-0.5 206,-0.5"/>
<text text-anchor="middle" x="246.5" y="-7.5" font-family="Helvetica,sans-Serif" font-size="10.00">statistics.cpp</text>
</a>
</g>
</g>
<!-- Node1&#45;&gt;Node4 -->
<g id="edge3" class="edge"><title>Node1&#45;&gt;Node4</title>
<path fill="none" stroke="midnightblue" d="M246.5,-45.8045C246.5,-36.9102 246.5,-26.7798 246.5,-19.7511"/>
<polygon fill="midnightblue" stroke="midnightblue" points="243,-46.083 246.5,-56.083 250,-46.083 243,-46.083"/>
</g>
<!-- Node5 -->
<g id="node5" class="node"><title>Node5</title>
<g id="a_node5"><a xlink:href="topology_8cpp.html" target="_top" xlink:title="This file contains functions for handling the system topology. ">
<polygon fill="none" stroke="black" points="305.5,-0.5 305.5,-19.5 383.5,-19.5 383.5,-0.5 305.5,-0.5"/>
<text text-anchor="middle" x="344.5" y="-7.5" font-family="Helvetica,sans-Serif" font-size="10.00">topology.cpp</text>
</a>
</g>
</g>
<!-- Node1&#45;&gt;Node5 -->
<g id="edge4" class="edge"><title>Node1&#45;&gt;Node5</title>
<path fill="none" stroke="midnightblue" d="M271.086,-51.4526C289.178,-41.4835 313.235,-28.2279 328.794,-19.6545"/>
<polygon fill="midnightblue" stroke="midnightblue" points="269.315,-48.4324 262.245,-56.324 272.693,-54.5633 269.315,-48.4324"/>
</g>
<!-- Node6 -->
<g id="node6" class="node"><title>Node6</title>
<g id="a_node6"><a xlink:href="statistics__chain__tcl_8cpp.html" target="_top" xlink:title="statistics_chain_tcl.cpp">
<polygon fill="none" stroke="black" points="401.5,-0.5 401.5,-19.5 531.5,-19.5 531.5,-0.5 401.5,-0.5"/>
<text text-anchor="middle" x="466.5" y="-7.5" font-family="Helvetica,sans-Serif" font-size="10.00">statistics_chain_tcl.cpp</text>
</a>
</g>
</g>
<!-- Node1&#45;&gt;Node6 -->
<g id="edge5" class="edge"><title>Node1&#45;&gt;Node6</title>
<path fill="none" stroke="midnightblue" d="M291.218,-54.0237C332.776,-43.8232 393.813,-28.8414 431.803,-19.5164"/>
<polygon fill="midnightblue" stroke="midnightblue" points="290.237,-50.6606 281.36,-56.4435 291.906,-57.4588 290.237,-50.6606"/>
</g>
</g>
</svg>
