<?xml version="1.0" encoding="UTF-8" standalone="no"?>
<!DOCTYPE svg PUBLIC "-//W3C//DTD SVG 1.1//EN"
 "http://www.w3.org/Graphics/SVG/1.1/DTD/svg11.dtd">
<!-- Generated by graphviz version 2.38.0 (20140413.2041)
 -->
<!-- Title: statistics_fluid_tcl.cpp Pages: 1 -->
<!--zoomable 588 -->
<svg id="main" version="1.1" xmlns="http://www.w3.org/2000/svg" xmlns:xlink="http://www.w3.org/1999/xlink" xml:space="preserve" onload="init(evt)">
<style type="text/css"><![CDATA[
.edge:hover path { stroke: red; }
.edge:hover polygon { stroke: red; fill: red; }
]]></style>
<script type="text/javascript"><![CDATA[
var edges = document.getElementsByTagName('g');
if (edges && edges.length) {
  for (var i=0;i<edges.length;i++) {
    if (edges[i].id.substr(0,4)=='edge') {
      edges[i].setAttribute('class','edge');
    }
  }
}
]]></script>
        <defs>
                <circle id="rim" cx="0" cy="0" r="7"/>
                <circle id="rim2" cx="0" cy="0" r="3.5"/>
                <g id="zoomPlus">
                        <use xlink:href="#rim" fill="#404040">
                                <set attributeName="fill" to="#808080" begin="zoomplus.mouseover" end="zoomplus.mouseout"/>
                        </use>
                        <path d="M-4,0h8M0,-4v8" fill="none" stroke="white" stroke-width="1.5" pointer-events="none"/>
                </g>
                <g id="zoomMin">
                        <use xlink:href="#rim" fill="#404040">
                                <set attributeName="fill" to="#808080" begin="zoomminus.mouseover" end="zoomminus.mouseout"/>
                        </use>
                        <path d="M-4,0h8" fill="none" stroke="white" stroke-width="1.5" pointer-events="none"/>
                </g>
                <g id="dirArrow">
                        <path fill="none" stroke="white" stroke-width="1.5" d="M0,-3.0v7 M-2.5,-0.5L0,-3.0L2.5,-0.5"/>
                </g>
               <g id="resetDef">
                       <use xlink:href="#rim2" fill="#404040">
                               <set attributeName="fill" to="#808080" begin="reset.mouseover" end="reset.mouseout"/>
                       </use>
               </g>
        </defs>

<script type="text/javascript">
var viewWidth = 1151;
var viewHeight = 588;
var sectionId = 'dynsection-0';
</script>
<script xlink:href="svgpan.js"/>
<svg id="graph" class="graph">
<g id="viewport">
<title>statistics_fluid_tcl.cpp</title>
<!-- Node1 -->
<g id="node1" class="node"><title>Node1</title>
<polygon fill="#bfbfbf" stroke="black" points="638,-560.5 638,-579.5 763,-579.5 763,-560.5 638,-560.5"/>
<text text-anchor="middle" x="700.5" y="-567.5" font-family="Helvetica,sans-Serif" font-size="10.00">statistics_fluid_tcl.cpp</text>
</g>
<!-- Node2 -->
<g id="node2" class="node"><title>Node2</title>
<g id="a_node2"><a xlink:href="mpi_8h.html" target="_top" xlink:title="This is the MPIfake implementation. ">
<polygon fill="none" stroke="black" points="140.5,-224.5 140.5,-243.5 184.5,-243.5 184.5,-224.5 140.5,-224.5"/>
<text text-anchor="middle" x="162.5" y="-231.5" font-family="Helvetica,sans-Serif" font-size="10.00">mpi.h</text>
</a>
</g>
</g>
<!-- Node1&#45;&gt;Node2 -->
<g id="edge1" class="edge"><title>Node1&#45;&gt;Node2</title>
<path fill="none" stroke="midnightblue" d="M637.996,-569.228C496.227,-568.062 162.5,-555.11 162.5,-459 162.5,-459 162.5,-459 162.5,-345 162.5,-312.948 162.5,-275.643 162.5,-253.749"/>
<polygon fill="midnightblue" stroke="midnightblue" points="166,-253.558 162.5,-243.558 159,-253.558 166,-253.558"/>
</g>
<!-- Node6 -->
<g id="node6" class="node"><title>Node6</title>
<polygon fill="none" stroke="#bfbfbf" points="1104.5,-448.5 1104.5,-467.5 1142.5,-467.5 1142.5,-448.5 1104.5,-448.5"/>
<text text-anchor="middle" x="1123.5" y="-455.5" font-family="Helvetica,sans-Serif" font-size="10.00">tcl.h</text>
</g>
<!-- Node1&#45;&gt;Node6 -->
<g id="edge5" class="edge"><title>Node1&#45;&gt;Node6</title>
<path fill="none" stroke="midnightblue" d="M758.51,-560.456C806.828,-552.751 877.226,-540.158 937.5,-524 994.277,-508.779 1058.64,-484.704 1094.82,-470.52"/>
<polygon fill="midnightblue" stroke="midnightblue" points="1096.23,-473.726 1104.25,-466.797 1093.66,-467.215 1096.23,-473.726"/>
</g>
<!-- Node7 -->
<g id="node7" class="node"><title>Node7</title>
<g id="a_node7"><a xlink:href="parser_8hpp.html" target="_top" xlink:title="This file contains macros for parsing the parameters to the &#39;inter&#39; command. ">
<polygon fill="none" stroke="black" points="860.5,-504.5 860.5,-523.5 928.5,-523.5 928.5,-504.5 860.5,-504.5"/>
<text text-anchor="middle" x="894.5" y="-511.5" font-family="Helvetica,sans-Serif" font-size="10.00">parser.hpp</text>
</a>
</g>
</g>
<!-- Node1&#45;&gt;Node7 -->
<g id="edge6" class="edge"><title>Node1&#45;&gt;Node7</title>
<path fill="none" stroke="midnightblue" d="M731.24,-560.444C764.444,-551.201 817.491,-536.436 854.057,-526.257"/>
<polygon fill="midnightblue" stroke="midnightblue" points="855.209,-529.57 863.904,-523.516 853.332,-522.826 855.209,-529.57"/>
</g>
<!-- Node25 -->
<g id="node25" class="node"><title>Node25</title>
<g id="a_node25"><a xlink:href="communication_8hpp.html" target="_top" xlink:title="This file contains the asynchronous MPI communication. ">
<polygon fill="none" stroke="black" points="267,-280.5 267,-299.5 380,-299.5 380,-280.5 267,-280.5"/>
<text text-anchor="middle" x="323.5" y="-287.5" font-family="Helvetica,sans-Serif" font-size="10.00">communication.hpp</text>
</a>
</g>
</g>
<!-- Node1&#45;&gt;Node25 -->
<g id="edge29" class="edge"><title>Node1&#45;&gt;Node25</title>
<path fill="none" stroke="midnightblue" d="M637.712,-567.085C511.392,-561.52 238.5,-540.111 238.5,-459 238.5,-459 238.5,-459 238.5,-401 238.5,-359.765 276.361,-324.574 301.547,-305.726"/>
<polygon fill="midnightblue" stroke="midnightblue" points="303.769,-308.439 309.843,-299.758 299.682,-302.756 303.769,-308.439"/>
</g>
<!-- Node30 -->
<g id="node30" class="node"><title>Node30</title>
<g id="a_node30"><a xlink:href="lb_8hpp.html" target="_top" xlink:title="Header file for lb.cpp. ">
<polygon fill="none" stroke="black" points="551,-504.5 551,-523.5 598,-523.5 598,-504.5 551,-504.5"/>
<text text-anchor="middle" x="574.5" y="-511.5" font-family="Helvetica,sans-Serif" font-size="10.00">lb.hpp</text>
</a>
</g>
</g>
<!-- Node1&#45;&gt;Node30 -->
<g id="edge40" class="edge"><title>Node1&#45;&gt;Node30</title>
<path fill="none" stroke="midnightblue" d="M680.535,-560.444C659.891,-551.596 627.437,-537.687 603.868,-527.586"/>
<polygon fill="midnightblue" stroke="midnightblue" points="604.942,-524.239 594.372,-523.516 602.184,-530.673 604.942,-524.239"/>
</g>
<!-- Node37 -->
<g id="node37" class="node"><title>Node37</title>
<g id="a_node37"><a xlink:href="lb-boundaries_8hpp.html" target="_top" xlink:title="Boundary conditions for Lattice Boltzmann fluid dynamics. ">
<polygon fill="none" stroke="black" points="708.5,-392.5 708.5,-411.5 812.5,-411.5 812.5,-392.5 708.5,-392.5"/>
<text text-anchor="middle" x="760.5" y="-399.5" font-family="Helvetica,sans-Serif" font-size="10.00">lb&#45;boundaries.hpp</text>
</a>
</g>
</g>
<!-- Node1&#45;&gt;Node37 -->
<g id="edge59" class="edge"><title>Node1&#45;&gt;Node37</title>
<path fill="none" stroke="midnightblue" d="M708.296,-560.371C722.602,-543.886 752.578,-506.147 763.5,-468 767.829,-452.88 766.562,-434.982 764.506,-421.799"/>
<polygon fill="midnightblue" stroke="midnightblue" points="767.882,-420.81 762.616,-411.616 761,-422.087 767.882,-420.81"/>
</g>
<!-- Node40 -->
<g id="node40" class="node"><title>Node40</title>
<g id="a_node40"><a xlink:href="statistics__fluid_8hpp.html" target="_top" xlink:title="Fluid related analysis functions. ">
<polygon fill="none" stroke="black" points="646.5,-448.5 646.5,-467.5 754.5,-467.5 754.5,-448.5 646.5,-448.5"/>
<text text-anchor="middle" x="700.5" y="-455.5" font-family="Helvetica,sans-Serif" font-size="10.00">statistics_fluid.hpp</text>
</a>
</g>
</g>
<!-- Node1&#45;&gt;Node40 -->
<g id="edge66" class="edge"><title>Node1&#45;&gt;Node40</title>
<path fill="none" stroke="midnightblue" d="M700.5,-560.368C700.5,-542.617 700.5,-501.666 700.5,-477.597"/>
<polygon fill="midnightblue" stroke="midnightblue" points="704,-477.591 700.5,-467.591 697,-477.591 704,-477.591"/>
</g>
<!-- Node3 -->
<g id="node3" class="node"><title>Node3</title>
<polygon fill="none" stroke="#bfbfbf" points="0,-168.5 0,-187.5 53,-187.5 53,-168.5 0,-168.5"/>
<text text-anchor="middle" x="26.5" y="-175.5" font-family="Helvetica,sans-Serif" font-size="10.00">string.h</text>
</g>
<!-- Node2&#45;&gt;Node3 -->
<g id="edge2" class="edge"><title>Node2&#45;&gt;Node3</title>
<path fill="none" stroke="midnightblue" d="M140.95,-224.444C118.469,-215.517 83.0123,-201.439 57.5201,-191.317"/>
<polygon fill="midnightblue" stroke="midnightblue" points="58.5346,-187.954 47.9488,-187.516 55.9513,-194.46 58.5346,-187.954"/>
</g>
<!-- Node4 -->
<g id="node4" class="node"><title>Node4</title>
<polygon fill="none" stroke="#bfbfbf" points="71.5,-168.5 71.5,-187.5 121.5,-187.5 121.5,-168.5 71.5,-168.5"/>
<text text-anchor="middle" x="96.5" y="-175.5" font-family="Helvetica,sans-Serif" font-size="10.00">stdio.h</text>
</g>
<!-- Node2&#45;&gt;Node4 -->
<g id="edge3" class="edge"><title>Node2&#45;&gt;Node4</title>
<path fill="none" stroke="midnightblue" d="M151.896,-224.324C142.044,-216.263 127.149,-204.077 115.285,-194.369"/>
<polygon fill="midnightblue" stroke="midnightblue" points="117.253,-191.457 107.297,-187.834 112.82,-196.875 117.253,-191.457"/>
</g>
<!-- Node5 -->
<g id="node5" class="node"><title>Node5</title>
<polygon fill="none" stroke="#bfbfbf" points="140,-168.5 140,-187.5 193,-187.5 193,-168.5 140,-168.5"/>
<text text-anchor="middle" x="166.5" y="-175.5" font-family="Helvetica,sans-Serif" font-size="10.00">stdlib.h</text>
</g>
<!-- Node2&#45;&gt;Node5 -->
<g id="edge4" class="edge"><title>Node2&#45;&gt;Node5</title>
<path fill="none" stroke="midnightblue" d="M163.161,-224.083C163.685,-217.006 164.436,-206.861 165.094,-197.986"/>
<polygon fill="midnightblue" stroke="midnightblue" points="168.603,-197.982 165.852,-187.751 161.623,-197.465 168.603,-197.982"/>
</g>
<!-- Node7&#45;&gt;Node6 -->
<g id="edge28" class="edge"><title>Node7&#45;&gt;Node6</title>
<path fill="none" stroke="midnightblue" d="M928.592,-505.613C967.772,-497.021 1033.95,-482.197 1090.5,-468 1091.76,-467.683 1093.05,-467.354 1094.35,-467.018"/>
<polygon fill="midnightblue" stroke="midnightblue" points="1095.57,-470.315 1104.34,-464.367 1093.78,-463.55 1095.57,-470.315"/>
</g>
<!-- Node8 -->
<g id="node8" class="node"><title>Node8</title>
<g id="a_node8"><a xlink:href="utils_8hpp.html" target="_top" xlink:title="Small functions that are useful not only for one modul. ">
<polygon fill="none" stroke="black" points="655,-168.5 655,-187.5 714,-187.5 714,-168.5 655,-168.5"/>
<text text-anchor="middle" x="684.5" y="-175.5" font-family="Helvetica,sans-Serif" font-size="10.00">utils.hpp</text>
</a>
</g>
</g>
<!-- Node7&#45;&gt;Node8 -->
<g id="edge7" class="edge"><title>Node7&#45;&gt;Node8</title>
<path fill="none" stroke="midnightblue" d="M892.471,-504.404C883.258,-466.941 842.193,-315.719 759.5,-224 747.239,-210.401 729.888,-199.628 714.962,-192.037"/>
<polygon fill="midnightblue" stroke="midnightblue" points="716.11,-188.705 705.583,-187.511 713.067,-195.009 716.11,-188.705"/>
</g>
<!-- Node12 -->
<g id="node12" class="node"><title>Node12</title>
<polygon fill="none" stroke="#bfbfbf" points="939.5,-112.5 939.5,-131.5 989.5,-131.5 989.5,-112.5 939.5,-112.5"/>
<text text-anchor="middle" x="964.5" y="-119.5" font-family="Helvetica,sans-Serif" font-size="10.00">cstring</text>
</g>
<!-- Node7&#45;&gt;Node12 -->
<g id="edge27" class="edge"><title>Node7&#45;&gt;Node12</title>
<path fill="none" stroke="midnightblue" d="M917.921,-504.39C967.076,-485.596 1076.5,-439.643 1076.5,-403 1076.5,-403 1076.5,-403 1076.5,-289 1076.5,-223.577 1015.98,-164.638 983.915,-138.002"/>
<polygon fill="midnightblue" stroke="midnightblue" points="986.041,-135.22 976.064,-131.654 981.639,-140.663 986.041,-135.22"/>
</g>
<!-- Node9 -->
<g id="node9" class="node"><title>Node9</title>
<polygon fill="none" stroke="#bfbfbf" points="742,-112.5 742,-131.5 789,-131.5 789,-112.5 742,-112.5"/>
<text text-anchor="middle" x="765.5" y="-119.5" font-family="Helvetica,sans-Serif" font-size="10.00">cmath</text>
</g>
<!-- Node8&#45;&gt;Node9 -->
<g id="edge8" class="edge"><title>Node8&#45;&gt;Node9</title>
<path fill="none" stroke="midnightblue" d="M697.514,-168.324C710.032,-159.979 729.182,-147.212 743.971,-137.352"/>
<polygon fill="midnightblue" stroke="midnightblue" points="746.139,-140.114 752.518,-131.655 742.256,-134.289 746.139,-140.114"/>
</g>
<!-- Node10 -->
<g id="node10" class="node"><title>Node10</title>
<polygon fill="none" stroke="#bfbfbf" points="807.5,-112.5 807.5,-131.5 853.5,-131.5 853.5,-112.5 807.5,-112.5"/>
<text text-anchor="middle" x="830.5" y="-119.5" font-family="Helvetica,sans-Serif" font-size="10.00">cstdio</text>
</g>
<!-- Node8&#45;&gt;Node10 -->
<g id="edge9" class="edge"><title>Node8&#45;&gt;Node10</title>
<path fill="none" stroke="midnightblue" d="M707.634,-168.444C731.982,-159.438 770.507,-145.189 797.923,-135.049"/>
<polygon fill="midnightblue" stroke="midnightblue" points="799.309,-138.268 807.474,-131.516 796.881,-131.703 799.309,-138.268"/>
</g>
<!-- Node11 -->
<g id="node11" class="node"><title>Node11</title>
<polygon fill="none" stroke="#bfbfbf" points="872,-112.5 872,-131.5 921,-131.5 921,-112.5 872,-112.5"/>
<text text-anchor="middle" x="896.5" y="-119.5" font-family="Helvetica,sans-Serif" font-size="10.00">cstdlib</text>
</g>
<!-- Node8&#45;&gt;Node11 -->
<g id="edge10" class="edge"><title>Node8&#45;&gt;Node11</title>
<path fill="none" stroke="midnightblue" d="M714.131,-169.616C747.616,-161.249 804,-147.089 862.252,-132.042"/>
<polygon fill="midnightblue" stroke="midnightblue" points="863.19,-135.415 871.995,-129.522 861.437,-128.638 863.19,-135.415"/>
</g>
<!-- Node8&#45;&gt;Node12 -->
<g id="edge11" class="edge"><title>Node8&#45;&gt;Node12</title>
<path fill="none" stroke="midnightblue" d="M714.05,-172.26C760.225,-164.698 852.21,-149.014 929.5,-132 929.6,-131.978 929.699,-131.956 929.799,-131.934"/>
<polygon fill="midnightblue" stroke="midnightblue" points="930.38,-135.393 939.315,-129.701 928.78,-128.578 930.38,-135.393"/>
</g>
<!-- Node13 -->
<g id="node13" class="node"><title>Node13</title>
<g id="a_node13"><a xlink:href="config_8hpp.html" target="_top" xlink:title="This file contains the defaults for Espresso. ">
<polygon fill="none" stroke="black" points="517,-56.5 517,-75.5 584,-75.5 584,-56.5 517,-56.5"/>
<text text-anchor="middle" x="550.5" y="-63.5" font-family="Helvetica,sans-Serif" font-size="10.00">config.hpp</text>
</a>
</g>
</g>
<!-- Node8&#45;&gt;Node13 -->
<g id="edge12" class="edge"><title>Node8&#45;&gt;Node13</title>
<path fill="none" stroke="midnightblue" d="M675.291,-168.303C661.675,-155.561 635.222,-131.243 611.5,-112 598.469,-101.429 583.287,-90.2257 571.329,-81.6418"/>
<polygon fill="midnightblue" stroke="midnightblue" points="573.078,-78.5907 562.902,-75.642 569.018,-84.2931 573.078,-78.5907"/>
</g>
<!-- Node17 -->
<g id="node17" class="node"><title>Node17</title>
<g id="a_node17"><a xlink:href="debug_8hpp.html" target="_top" xlink:title="This file controls debug facilities. ">
<polygon fill="none" stroke="black" points="412.5,-112.5 412.5,-131.5 480.5,-131.5 480.5,-112.5 412.5,-112.5"/>
<text text-anchor="middle" x="446.5" y="-119.5" font-family="Helvetica,sans-Serif" font-size="10.00">debug.hpp</text>
</a>
</g>
</g>
<!-- Node8&#45;&gt;Node17 -->
<g id="edge16" class="edge"><title>Node8&#45;&gt;Node17</title>
<path fill="none" stroke="midnightblue" d="M654.838,-170.27C613.54,-160.9 538.41,-143.854 490.553,-132.995"/>
<polygon fill="midnightblue" stroke="midnightblue" points="491.303,-129.577 480.777,-130.777 489.754,-136.403 491.303,-129.577"/>
</g>
<!-- Node18 -->
<g id="node18" class="node"><title>Node18</title>
<g id="a_node18"><a xlink:href="lees__edwards_8hpp.html" target="_top" xlink:title="lees_edwards.hpp">
<polygon fill="none" stroke="black" points="498.5,-112.5 498.5,-131.5 602.5,-131.5 602.5,-112.5 498.5,-112.5"/>
<text text-anchor="middle" x="550.5" y="-119.5" font-family="Helvetica,sans-Serif" font-size="10.00">lees_edwards.hpp</text>
</a>
</g>
</g>
<!-- Node8&#45;&gt;Node18 -->
<g id="edge18" class="edge"><title>Node8&#45;&gt;Node18</title>
<path fill="none" stroke="midnightblue" d="M663.267,-168.444C641.116,-159.517 606.181,-145.439 581.064,-135.317"/>
<polygon fill="midnightblue" stroke="midnightblue" points="582.217,-132.008 571.633,-131.516 579.6,-138.501 582.217,-132.008"/>
</g>
<!-- Node19 -->
<g id="node19" class="node"><title>Node19</title>
<g id="a_node19"><a xlink:href="errorhandling_8hpp.html" target="_top" xlink:title="This file contains the errorhandling code for severe errors, like a broken bond or illegal parameter ...">
<polygon fill="none" stroke="black" points="187,-112.5 187,-131.5 290,-131.5 290,-112.5 187,-112.5"/>
<text text-anchor="middle" x="238.5" y="-119.5" font-family="Helvetica,sans-Serif" font-size="10.00">errorhandling.hpp</text>
</a>
</g>
</g>
<!-- Node8&#45;&gt;Node19 -->
<g id="edge20" class="edge"><title>Node8&#45;&gt;Node19</title>
<path fill="none" stroke="midnightblue" d="M654.891,-173.415C582.924,-164.702 397.6,-142.263 300.28,-130.48"/>
<polygon fill="midnightblue" stroke="midnightblue" points="300.636,-126.998 290.288,-129.27 299.795,-133.947 300.636,-126.998"/>
</g>
<!-- Node23 -->
<g id="node23" class="node"><title>Node23</title>
<polygon fill="none" stroke="#bfbfbf" points="347,-112.5 347,-131.5 394,-131.5 394,-112.5 347,-112.5"/>
<text text-anchor="middle" x="370.5" y="-119.5" font-family="Helvetica,sans-Serif" font-size="10.00">vector</text>
</g>
<!-- Node8&#45;&gt;Node23 -->
<g id="edge25" class="edge"><title>Node8&#45;&gt;Node23</title>
<path fill="none" stroke="midnightblue" d="M654.772,-173.309C604.989,-166.897 501.468,-152.584 404.214,-131.945"/>
<polygon fill="midnightblue" stroke="midnightblue" points="404.73,-128.476 394.218,-129.796 403.259,-135.32 404.73,-128.476"/>
</g>
<!-- Node24 -->
<g id="node24" class="node"><title>Node24</title>
<polygon fill="none" stroke="#bfbfbf" points="659,-112.5 659,-131.5 724,-131.5 724,-112.5 659,-112.5"/>
<text text-anchor="middle" x="691.5" y="-119.5" font-family="Helvetica,sans-Serif" font-size="10.00">exception</text>
</g>
<!-- Node8&#45;&gt;Node24 -->
<g id="edge26" class="edge"><title>Node8&#45;&gt;Node24</title>
<path fill="none" stroke="midnightblue" d="M685.656,-168.083C686.584,-160.927 687.918,-150.635 689.077,-141.691"/>
<polygon fill="midnightblue" stroke="midnightblue" points="692.551,-142.118 690.366,-131.751 685.609,-141.218 692.551,-142.118"/>
</g>
<!-- Node14 -->
<g id="node14" class="node"><title>Node14</title>
<g id="a_node14"><a xlink:href="acconfig_8hpp.html" target="_top" xlink:title="acconfig.hpp">
<polygon fill="none" stroke="black" points="400.5,-0.5 400.5,-19.5 478.5,-19.5 478.5,-0.5 400.5,-0.5"/>
<text text-anchor="middle" x="439.5" y="-7.5" font-family="Helvetica,sans-Serif" font-size="10.00">acconfig.hpp</text>
</a>
</g>
</g>
<!-- Node13&#45;&gt;Node14 -->
<g id="edge13" class="edge"><title>Node13&#45;&gt;Node14</title>
<path fill="none" stroke="midnightblue" d="M532.666,-56.324C514.784,-47.6247 487.025,-34.1202 466.454,-24.113"/>
<polygon fill="midnightblue" stroke="midnightblue" points="467.813,-20.8819 457.29,-19.6545 464.751,-27.1765 467.813,-20.8819"/>
</g>
<!-- Node15 -->
<g id="node15" class="node"><title>Node15</title>
<g id="a_node15"><a xlink:href="myconfig-final_8hpp.html" target="_top" xlink:title="myconfig&#45;final.hpp">
<polygon fill="none" stroke="black" points="497,-0.5 497,-19.5 604,-19.5 604,-0.5 497,-0.5"/>
<text text-anchor="middle" x="550.5" y="-7.5" font-family="Helvetica,sans-Serif" font-size="10.00">myconfig&#45;final.hpp</text>
</a>
</g>
</g>
<!-- Node13&#45;&gt;Node15 -->
<g id="edge14" class="edge"><title>Node13&#45;&gt;Node15</title>
<path fill="none" stroke="midnightblue" d="M550.5,-56.083C550.5,-49.0059 550.5,-38.8611 550.5,-29.9865"/>
<polygon fill="midnightblue" stroke="midnightblue" points="554,-29.751 550.5,-19.7511 547,-29.7511 554,-29.751"/>
</g>
<!-- Node16 -->
<g id="node16" class="node"><title>Node16</title>
<g id="a_node16"><a xlink:href="config-features_8hpp.html" target="_top" xlink:title="config&#45;features.hpp">
<polygon fill="none" stroke="black" points="622,-0.5 622,-19.5 733,-19.5 733,-0.5 622,-0.5"/>
<text text-anchor="middle" x="677.5" y="-7.5" font-family="Helvetica,sans-Serif" font-size="10.00">config&#45;features.hpp</text>
</a>
</g>
</g>
<!-- Node13&#45;&gt;Node16 -->
<g id="edge15" class="edge"><title>Node13&#45;&gt;Node16</title>
<path fill="none" stroke="midnightblue" d="M570.624,-56.4435C591.524,-47.5566 624.435,-33.5632 648.216,-23.4514"/>
<polygon fill="midnightblue" stroke="midnightblue" points="649.638,-26.6504 657.471,-19.5164 646.898,-20.2085 649.638,-26.6504"/>
</g>
<!-- Node17&#45;&gt;Node13 -->
<g id="edge17" class="edge"><title>Node17&#45;&gt;Node13</title>
<path fill="none" stroke="midnightblue" d="M463.209,-112.324C479.812,-103.703 505.502,-90.3643 524.72,-80.3855"/>
<polygon fill="midnightblue" stroke="midnightblue" points="526.57,-83.3689 533.832,-75.6545 523.344,-77.1565 526.57,-83.3689"/>
</g>
<!-- Node18&#45;&gt;Node13 -->
<g id="edge19" class="edge"><title>Node18&#45;&gt;Node13</title>
<path fill="none" stroke="midnightblue" d="M550.5,-112.083C550.5,-105.006 550.5,-94.8611 550.5,-85.9865"/>
<polygon fill="midnightblue" stroke="midnightblue" points="554,-85.751 550.5,-75.7511 547,-85.7511 554,-85.751"/>
</g>
<!-- Node19&#45;&gt;Node13 -->
<g id="edge21" class="edge"><title>Node19&#45;&gt;Node13</title>
<path fill="none" stroke="midnightblue" d="M287.937,-112.444C348.237,-102.007 449.225,-84.5284 506.797,-74.564"/>
<polygon fill="midnightblue" stroke="midnightblue" points="507.423,-78.0078 516.679,-72.8536 506.229,-71.1103 507.423,-78.0078"/>
</g>
<!-- Node20 -->
<g id="node20" class="node"><title>Node20</title>
<polygon fill="none" stroke="#bfbfbf" points="272.5,-56.5 272.5,-75.5 316.5,-75.5 316.5,-56.5 272.5,-56.5"/>
<text text-anchor="middle" x="294.5" y="-63.5" font-family="Helvetica,sans-Serif" font-size="10.00">string</text>
</g>
<!-- Node19&#45;&gt;Node20 -->
<g id="edge22" class="edge"><title>Node19&#45;&gt;Node20</title>
<path fill="none" stroke="midnightblue" d="M247.497,-112.324C255.694,-104.42 268.006,-92.5482 277.972,-82.9377"/>
<polygon fill="midnightblue" stroke="midnightblue" points="280.57,-85.2947 285.339,-75.8339 275.711,-80.2558 280.57,-85.2947"/>
</g>
<!-- Node21 -->
<g id="node21" class="node"><title>Node21</title>
<polygon fill="none" stroke="#bfbfbf" points="148.5,-56.5 148.5,-75.5 204.5,-75.5 204.5,-56.5 148.5,-56.5"/>
<text text-anchor="middle" x="176.5" y="-63.5" font-family="Helvetica,sans-Serif" font-size="10.00">sstream</text>
</g>
<!-- Node19&#45;&gt;Node21 -->
<g id="edge23" class="edge"><title>Node19&#45;&gt;Node21</title>
<path fill="none" stroke="midnightblue" d="M228.539,-112.324C219.373,-104.341 205.563,-92.3128 194.472,-82.6529"/>
<polygon fill="midnightblue" stroke="midnightblue" points="196.482,-79.7624 186.643,-75.8339 191.885,-85.041 196.482,-79.7624"/>
</g>
<!-- Node22 -->
<g id="node22" class="node"><title>Node22</title>
<polygon fill="none" stroke="#bfbfbf" points="222.5,-56.5 222.5,-75.5 254.5,-75.5 254.5,-56.5 222.5,-56.5"/>
<text text-anchor="middle" x="238.5" y="-63.5" font-family="Helvetica,sans-Serif" font-size="10.00">list</text>
</g>
<!-- Node19&#45;&gt;Node22 -->
<g id="edge24" class="edge"><title>Node19&#45;&gt;Node22</title>
<path fill="none" stroke="midnightblue" d="M238.5,-112.083C238.5,-105.006 238.5,-94.8611 238.5,-85.9865"/>
<polygon fill="midnightblue" stroke="midnightblue" points="242,-85.751 238.5,-75.7511 235,-85.7511 242,-85.751"/>
</g>
<!-- Node25&#45;&gt;Node2 -->
<g id="edge36" class="edge"><title>Node25&#45;&gt;Node2</title>
<path fill="none" stroke="midnightblue" d="M297.989,-280.444C269.948,-271.038 224.855,-255.914 194.474,-245.724"/>
<polygon fill="midnightblue" stroke="midnightblue" points="195.375,-242.335 184.781,-242.473 193.149,-248.971 195.375,-242.335"/>
</g>
<!-- Node26 -->
<g id="node26" class="node"><title>Node26</title>
<g id="a_node26"><a xlink:href="particle__data_8hpp.html" target="_top" xlink:title="For more information on particle_data, see particle_data.c. ">
<polygon fill="none" stroke="black" points="555,-224.5 555,-243.5 656,-243.5 656,-224.5 555,-224.5"/>
<text text-anchor="middle" x="605.5" y="-231.5" font-family="Helvetica,sans-Serif" font-size="10.00">particle_data.hpp</text>
</a>
</g>
</g>
<!-- Node25&#45;&gt;Node26 -->
<g id="edge30" class="edge"><title>Node25&#45;&gt;Node26</title>
<path fill="none" stroke="midnightblue" d="M368.184,-280.444C417.79,-270.944 497.865,-255.611 551.085,-245.42"/>
<polygon fill="midnightblue" stroke="midnightblue" points="551.862,-248.835 561.025,-243.516 550.545,-241.96 551.862,-248.835"/>
</g>
<!-- Node27 -->
<g id="node27" class="node"><title>Node27</title>
<g id="a_node27"><a xlink:href="random_8hpp.html" target="_top" xlink:title="A random generator. ">
<polygon fill="none" stroke="black" points="423,-224.5 423,-243.5 498,-243.5 498,-224.5 423,-224.5"/>
<text text-anchor="middle" x="460.5" y="-231.5" font-family="Helvetica,sans-Serif" font-size="10.00">random.hpp</text>
</a>
</g>
</g>
<!-- Node25&#45;&gt;Node27 -->
<g id="edge32" class="edge"><title>Node25&#45;&gt;Node27</title>
<path fill="none" stroke="midnightblue" d="M345.208,-280.444C367.855,-271.517 403.572,-257.439 429.252,-247.317"/>
<polygon fill="midnightblue" stroke="midnightblue" points="430.874,-250.44 438.894,-243.516 428.307,-243.927 430.874,-250.44"/>
</g>
<!-- Node28 -->
<g id="node28" class="node"><title>Node28</title>
<g id="a_node28"><a xlink:href="topology_8hpp.html" target="_top" xlink:title="This file contains functions for handling the system topology. ">
<polygon fill="none" stroke="black" points="326,-224.5 326,-243.5 405,-243.5 405,-224.5 326,-224.5"/>
<text text-anchor="middle" x="365.5" y="-231.5" font-family="Helvetica,sans-Serif" font-size="10.00">topology.hpp</text>
</a>
</g>
</g>
<!-- Node25&#45;&gt;Node28 -->
<g id="edge34" class="edge"><title>Node25&#45;&gt;Node28</title>
<path fill="none" stroke="midnightblue" d="M330.435,-280.083C336.429,-272.377 345.252,-261.033 352.548,-251.653"/>
<polygon fill="midnightblue" stroke="midnightblue" points="355.317,-253.793 358.694,-243.751 349.791,-249.496 355.317,-253.793"/>
</g>
<!-- Node29 -->
<g id="node29" class="node"><title>Node29</title>
<g id="a_node29"><a xlink:href="cuda__init_8hpp.html" target="_top" xlink:title="cuda_init.hpp">
<polygon fill="none" stroke="black" points="277.5,-168.5 277.5,-187.5 359.5,-187.5 359.5,-168.5 277.5,-168.5"/>
<text text-anchor="middle" x="318.5" y="-175.5" font-family="Helvetica,sans-Serif" font-size="10.00">cuda_init.hpp</text>
</a>
</g>
</g>
<!-- Node25&#45;&gt;Node29 -->
<g id="edge37" class="edge"><title>Node25&#45;&gt;Node29</title>
<path fill="none" stroke="midnightblue" d="M321.761,-280.419C320.028,-271.399 317.487,-256.77 316.5,-244 315.302,-228.503 315.971,-210.875 316.845,-197.891"/>
<polygon fill="midnightblue" stroke="midnightblue" points="320.34,-198.086 317.625,-187.845 313.361,-197.545 320.34,-198.086"/>
</g>
<!-- Node26&#45;&gt;Node8 -->
<g id="edge31" class="edge"><title>Node26&#45;&gt;Node8</title>
<path fill="none" stroke="midnightblue" d="M618.193,-224.324C630.401,-215.979 649.078,-203.212 663.503,-193.352"/>
<polygon fill="midnightblue" stroke="midnightblue" points="665.558,-196.187 671.839,-187.655 661.608,-190.408 665.558,-196.187"/>
</g>
<!-- Node27&#45;&gt;Node8 -->
<g id="edge33" class="edge"><title>Node27&#45;&gt;Node8</title>
<path fill="none" stroke="midnightblue" d="M495.993,-224.444C536.565,-214.663 602.795,-198.697 644.979,-188.527"/>
<polygon fill="midnightblue" stroke="midnightblue" points="645.994,-191.883 654.895,-186.137 644.354,-185.078 645.994,-191.883"/>
</g>
<!-- Node28&#45;&gt;Node8 -->
<g id="edge35" class="edge"><title>Node28&#45;&gt;Node8</title>
<path fill="none" stroke="midnightblue" d="M405.041,-225.519C407.902,-224.998 410.745,-224.487 413.5,-224 495.615,-209.486 591.976,-193.806 644.82,-185.324"/>
<polygon fill="midnightblue" stroke="midnightblue" points="645.471,-188.764 654.791,-183.726 644.363,-181.853 645.471,-188.764"/>
</g>
<!-- Node29&#45;&gt;Node13 -->
<g id="edge38" class="edge"><title>Node29&#45;&gt;Node13</title>
<path fill="none" stroke="midnightblue" d="M318.387,-168.412C318.698,-154.441 321.459,-126.863 337.5,-112 361.657,-89.6167 451.629,-76.8545 506.617,-70.9871"/>
<polygon fill="midnightblue" stroke="midnightblue" points="507.198,-74.4458 516.786,-69.9378 506.479,-67.4828 507.198,-74.4458"/>
</g>
<!-- Node29&#45;&gt;Node23 -->
<g id="edge39" class="edge"><title>Node29&#45;&gt;Node23</title>
<path fill="none" stroke="midnightblue" d="M327.087,-168.083C334.659,-160.22 345.878,-148.569 355.014,-139.081"/>
<polygon fill="midnightblue" stroke="midnightblue" points="357.658,-141.382 362.073,-131.751 352.615,-136.527 357.658,-141.382"/>
</g>
<!-- Node30&#45;&gt;Node8 -->
<g id="edge41" class="edge"><title>Node30&#45;&gt;Node8</title>
<path fill="none" stroke="midnightblue" d="M550.884,-507.972C468.066,-489.076 198.932,-416.338 257.5,-280 271.77,-246.782 283.798,-239.415 316.5,-224 374.008,-196.892 561.902,-184.824 644.703,-180.727"/>
<polygon fill="midnightblue" stroke="midnightblue" points="644.912,-184.221 654.732,-180.244 644.575,-177.229 644.912,-184.221"/>
</g>
<!-- Node31 -->
<g id="node31" class="node"><title>Node31</title>
<g id="a_node31"><a xlink:href="lattice__inline_8hpp.html" target="_top" xlink:title="lattice_inline.hpp">
<polygon fill="none" stroke="black" points="466,-448.5 466,-467.5 567,-467.5 567,-448.5 466,-448.5"/>
<text text-anchor="middle" x="516.5" y="-455.5" font-family="Helvetica,sans-Serif" font-size="10.00">lattice_inline.hpp</text>
</a>
</g>
</g>
<!-- Node30&#45;&gt;Node31 -->
<g id="edge42" class="edge"><title>Node30&#45;&gt;Node31</title>
<path fill="none" stroke="midnightblue" d="M565.181,-504.324C556.607,-496.341 543.688,-484.313 533.312,-474.653"/>
<polygon fill="midnightblue" stroke="midnightblue" points="535.692,-472.086 525.988,-467.834 530.922,-477.21 535.692,-472.086"/>
</g>
<!-- Node35 -->
<g id="node35" class="node"><title>Node35</title>
<g id="a_node35"><a xlink:href="lbgpu_8hpp.html" target="_top" xlink:title="Header file for lbgpu.cpp. ">
<polygon fill="none" stroke="black" points="877,-280.5 877,-299.5 942,-299.5 942,-280.5 877,-280.5"/>
<text text-anchor="middle" x="909.5" y="-287.5" font-family="Helvetica,sans-Serif" font-size="10.00">lbgpu.hpp</text>
</a>
</g>
</g>
<!-- Node30&#45;&gt;Node35 -->
<g id="edge50" class="edge"><title>Node30&#45;&gt;Node35</title>
<path fill="none" stroke="midnightblue" d="M580.292,-504.205C590.192,-489.936 611.807,-461.94 637.5,-448 710.742,-408.261 751.238,-456.799 821.5,-412 861.331,-386.604 888.98,-336.227 901.655,-309.178"/>
<polygon fill="midnightblue" stroke="midnightblue" points="904.985,-310.307 905.904,-299.752 898.603,-307.43 904.985,-310.307"/>
</g>
<!-- Node32 -->
<g id="node32" class="node"><title>Node32</title>
<g id="a_node32"><a xlink:href="lattice_8hpp.html" target="_top" xlink:title="Lattice class definition Contains the lattice layout and pointers to the data fields. ">
<polygon fill="none" stroke="black" points="480.5,-392.5 480.5,-411.5 548.5,-411.5 548.5,-392.5 480.5,-392.5"/>
<text text-anchor="middle" x="514.5" y="-399.5" font-family="Helvetica,sans-Serif" font-size="10.00">lattice.hpp</text>
</a>
</g>
</g>
<!-- Node31&#45;&gt;Node32 -->
<g id="edge43" class="edge"><title>Node31&#45;&gt;Node32</title>
<path fill="none" stroke="midnightblue" d="M516.17,-448.083C515.908,-441.006 515.532,-430.861 515.203,-421.986"/>
<polygon fill="midnightblue" stroke="midnightblue" points="518.692,-421.615 514.824,-411.751 511.697,-421.874 518.692,-421.615"/>
</g>
<!-- Node32&#45;&gt;Node26 -->
<g id="edge49" class="edge"><title>Node32&#45;&gt;Node26</title>
<path fill="none" stroke="midnightblue" d="M517.071,-392.319C523.382,-371.768 540.931,-318.948 565.5,-280 572.109,-269.524 581.17,-259.104 588.997,-250.933"/>
<polygon fill="midnightblue" stroke="midnightblue" points="591.72,-253.159 596.276,-243.594 586.749,-248.229 591.72,-253.159"/>
</g>
<!-- Node33 -->
<g id="node33" class="node"><title>Node33</title>
<g id="a_node33"><a xlink:href="grid_8hpp.html" target="_top" xlink:title="Domain decomposition for parallel computing. ">
<polygon fill="none" stroke="black" points="395.5,-336.5 395.5,-355.5 451.5,-355.5 451.5,-336.5 395.5,-336.5"/>
<text text-anchor="middle" x="423.5" y="-343.5" font-family="Helvetica,sans-Serif" font-size="10.00">grid.hpp</text>
</a>
</g>
</g>
<!-- Node32&#45;&gt;Node33 -->
<g id="edge44" class="edge"><title>Node32&#45;&gt;Node33</title>
<path fill="none" stroke="midnightblue" d="M499.879,-392.324C485.551,-383.822 463.487,-370.729 446.751,-360.797"/>
<polygon fill="midnightblue" stroke="midnightblue" points="448.47,-357.748 438.084,-355.655 444.898,-363.768 448.47,-357.748"/>
</g>
<!-- Node33&#45;&gt;Node8 -->
<g id="edge45" class="edge"><title>Node33&#45;&gt;Node8</title>
<path fill="none" stroke="midnightblue" d="M429.878,-336.295C446.459,-314.269 493.275,-255.818 545.5,-224 576.406,-205.171 616.039,-193.352 645.07,-186.578"/>
<polygon fill="midnightblue" stroke="midnightblue" points="645.869,-189.986 654.865,-184.389 644.343,-183.154 645.869,-189.986"/>
</g>
<!-- Node33&#45;&gt;Node19 -->
<g id="edge48" class="edge"><title>Node33&#45;&gt;Node19</title>
<path fill="none" stroke="midnightblue" d="M395.379,-341.231C352.864,-334.924 275.285,-320.839 257.5,-300 218.757,-254.606 227.652,-176.985 234.361,-141.583"/>
<polygon fill="midnightblue" stroke="midnightblue" points="237.814,-142.167 236.399,-131.667 230.957,-140.758 237.814,-142.167"/>
</g>
<!-- Node33&#45;&gt;Node25 -->
<g id="edge47" class="edge"><title>Node33&#45;&gt;Node25</title>
<path fill="none" stroke="midnightblue" d="M407.433,-336.324C391.542,-327.743 366.993,-314.486 348.542,-304.522"/>
<polygon fill="midnightblue" stroke="midnightblue" points="349.989,-301.326 339.527,-299.655 346.663,-307.486 349.989,-301.326"/>
</g>
<!-- Node34 -->
<g id="node34" class="node"><title>Node34</title>
<polygon fill="none" stroke="#bfbfbf" points="398.5,-280.5 398.5,-299.5 448.5,-299.5 448.5,-280.5 398.5,-280.5"/>
<text text-anchor="middle" x="423.5" y="-287.5" font-family="Helvetica,sans-Serif" font-size="10.00">climits</text>
</g>
<!-- Node33&#45;&gt;Node34 -->
<g id="edge46" class="edge"><title>Node33&#45;&gt;Node34</title>
<path fill="none" stroke="midnightblue" d="M423.5,-336.083C423.5,-329.006 423.5,-318.861 423.5,-309.986"/>
<polygon fill="midnightblue" stroke="midnightblue" points="427,-309.751 423.5,-299.751 420,-309.751 427,-309.751"/>
</g>
<!-- Node35&#45;&gt;Node8 -->
<g id="edge51" class="edge"><title>Node35&#45;&gt;Node8</title>
<path fill="none" stroke="midnightblue" d="M899.24,-280.357C882.728,-266.799 848.827,-240.392 816.5,-224 786.725,-208.902 750.73,-197.013 723.854,-189.257"/>
<polygon fill="midnightblue" stroke="midnightblue" points="724.607,-185.833 714.032,-186.488 722.708,-192.57 724.607,-185.833"/>
</g>
<!-- Node35&#45;&gt;Node13 -->
<g id="edge52" class="edge"><title>Node35&#45;&gt;Node13</title>
<path fill="none" stroke="midnightblue" d="M942.105,-285.365C967.911,-280.582 1002.36,-269.525 1019.5,-244 1038.64,-215.489 1119.49,-222.406 1016.5,-112 988,-81.448 704.657,-70.9439 594.233,-67.9928"/>
<polygon fill="midnightblue" stroke="midnightblue" points="594.188,-64.4905 584.101,-67.7303 594.007,-71.4882 594.188,-64.4905"/>
</g>
<!-- Node36 -->
<g id="node36" class="node"><title>Node36</title>
<g id="a_node36"><a xlink:href="statistics__observable_8hpp.html" target="_top" xlink:title="statistics_observable.hpp">
<polygon fill="none" stroke="black" points="869,-224.5 869,-243.5 1010,-243.5 1010,-224.5 869,-224.5"/>
<text text-anchor="middle" x="939.5" y="-231.5" font-family="Helvetica,sans-Serif" font-size="10.00">statistics_observable.hpp</text>
</a>
</g>
</g>
<!-- Node35&#45;&gt;Node36 -->
<g id="edge53" class="edge"><title>Node35&#45;&gt;Node36</title>
<path fill="none" stroke="midnightblue" d="M914.454,-280.083C918.604,-272.613 924.653,-261.724 929.767,-252.52"/>
<polygon fill="midnightblue" stroke="midnightblue" points="932.841,-254.192 934.638,-243.751 926.722,-250.793 932.841,-254.192"/>
</g>
<!-- Node36&#45;&gt;Node8 -->
<g id="edge55" class="edge"><title>Node36&#45;&gt;Node8</title>
<path fill="none" stroke="midnightblue" d="M899.094,-224.444C851.209,-214.303 771.926,-197.514 724.305,-187.429"/>
<polygon fill="midnightblue" stroke="midnightblue" points="724.867,-183.971 714.358,-185.323 723.416,-190.819 724.867,-183.971"/>
</g>
<!-- Node36&#45;&gt;Node9 -->
<g id="edge58" class="edge"><title>Node36&#45;&gt;Node9</title>
<path fill="none" stroke="midnightblue" d="M925.847,-224.368C895.861,-205.412 824.028,-160.001 787.554,-136.942"/>
<polygon fill="midnightblue" stroke="midnightblue" points="789.413,-133.977 779.09,-131.591 785.672,-139.893 789.413,-133.977"/>
</g>
<!-- Node36&#45;&gt;Node10 -->
<g id="edge56" class="edge"><title>Node36&#45;&gt;Node10</title>
<path fill="none" stroke="midnightblue" d="M930.947,-224.368C912.64,-205.894 869.435,-162.293 846.1,-138.744"/>
<polygon fill="midnightblue" stroke="midnightblue" points="848.538,-136.231 839.013,-131.591 843.566,-141.158 848.538,-136.231"/>
</g>
<!-- Node36&#45;&gt;Node11 -->
<g id="edge57" class="edge"><title>Node36&#45;&gt;Node11</title>
<path fill="none" stroke="midnightblue" d="M936.126,-224.368C929.124,-206.456 912.888,-164.923 903.516,-140.948"/>
<polygon fill="midnightblue" stroke="midnightblue" points="906.759,-139.631 899.858,-131.591 900.24,-142.179 906.759,-139.631"/>
</g>
<!-- Node36&#45;&gt;Node13 -->
<g id="edge54" class="edge"><title>Node36&#45;&gt;Node13</title>
<path fill="none" stroke="midnightblue" d="M949.773,-224.427C974.028,-203.2 1030.48,-147.357 998.5,-112 971.698,-82.3711 701.985,-71.3661 594.433,-68.1352"/>
<polygon fill="midnightblue" stroke="midnightblue" points="594.341,-64.6311 584.243,-67.8379 594.137,-71.6281 594.341,-64.6311"/>
</g>
<!-- Node37&#45;&gt;Node8 -->
<g id="edge60" class="edge"><title>Node37&#45;&gt;Node8</title>
<path fill="none" stroke="midnightblue" d="M761.732,-392.201C765.084,-365.128 772.115,-281.434 740.5,-224 733.476,-211.24 721.207,-200.757 709.94,-193.13"/>
<polygon fill="midnightblue" stroke="midnightblue" points="711.562,-190.015 701.238,-187.635 707.825,-195.934 711.562,-190.015"/>
</g>
<!-- Node38 -->
<g id="node38" class="node"><title>Node38</title>
<g id="a_node38"><a xlink:href="constraint_8hpp.html" target="_top" xlink:title="Routines for handling of constraints. ">
<polygon fill="none" stroke="black" points="596.5,-336.5 596.5,-355.5 682.5,-355.5 682.5,-336.5 596.5,-336.5"/>
<text text-anchor="middle" x="639.5" y="-343.5" font-family="Helvetica,sans-Serif" font-size="10.00">constraint.hpp</text>
</a>
</g>
</g>
<!-- Node37&#45;&gt;Node38 -->
<g id="edge61" class="edge"><title>Node37&#45;&gt;Node38</title>
<path fill="none" stroke="midnightblue" d="M741.327,-392.444C721.591,-383.636 690.615,-369.812 668.007,-359.722"/>
<polygon fill="midnightblue" stroke="midnightblue" points="669.141,-356.396 658.583,-355.516 666.289,-362.788 669.141,-356.396"/>
</g>
<!-- Node38&#45;&gt;Node26 -->
<g id="edge62" class="edge"><title>Node38&#45;&gt;Node26</title>
<path fill="none" stroke="midnightblue" d="M616.046,-336.408C600.339,-329.28 580.881,-317.458 571.5,-300 562.614,-283.464 575.234,-264.42 587.54,-251.239"/>
<polygon fill="midnightblue" stroke="midnightblue" points="590.336,-253.394 594.966,-243.864 585.404,-248.427 590.336,-253.394"/>
</g>
<!-- Node39 -->
<g id="node39" class="node"><title>Node39</title>
<g id="a_node39"><a xlink:href="interaction__data_8hpp.html" target="_top" xlink:title="Various procedures concerning interactions between particles. ">
<polygon fill="none" stroke="black" points="581,-280.5 581,-299.5 698,-299.5 698,-280.5 581,-280.5"/>
<text text-anchor="middle" x="639.5" y="-287.5" font-family="Helvetica,sans-Serif" font-size="10.00">interaction_data.hpp</text>
</a>
</g>
</g>
<!-- Node38&#45;&gt;Node39 -->
<g id="edge63" class="edge"><title>Node38&#45;&gt;Node39</title>
<path fill="none" stroke="midnightblue" d="M639.5,-336.083C639.5,-329.006 639.5,-318.861 639.5,-309.986"/>
<polygon fill="midnightblue" stroke="midnightblue" points="643,-309.751 639.5,-299.751 636,-309.751 643,-309.751"/>
</g>
<!-- Node39&#45;&gt;Node8 -->
<g id="edge64" class="edge"><title>Node39&#45;&gt;Node8</title>
<path fill="none" stroke="midnightblue" d="M645.045,-280.312C650.53,-271.444 658.895,-257.155 664.5,-244 671.008,-228.725 676.401,-210.618 679.941,-197.4"/>
<polygon fill="midnightblue" stroke="midnightblue" points="683.356,-198.172 682.461,-187.615 676.577,-196.426 683.356,-198.172"/>
</g>
<!-- Node39&#45;&gt;Node26 -->
<g id="edge65" class="edge"><title>Node39&#45;&gt;Node26</title>
<path fill="none" stroke="midnightblue" d="M633.886,-280.083C629.133,-272.534 622.182,-261.495 616.348,-252.23"/>
<polygon fill="midnightblue" stroke="midnightblue" points="619.3,-250.349 611.01,-243.751 613.376,-254.078 619.3,-250.349"/>
</g>
<!-- Node40&#45;&gt;Node8 -->
<g id="edge67" class="edge"><title>Node40&#45;&gt;Node8</title>
<path fill="none" stroke="midnightblue" d="M700.066,-448.165C699.519,-435.658 698.737,-412.075 699.5,-392 701.393,-342.161 711.838,-329.588 706.5,-280 703.34,-250.643 695.154,-217.302 689.708,-197.224"/>
<polygon fill="midnightblue" stroke="midnightblue" points="693.067,-196.24 687.014,-187.544 686.324,-198.117 693.067,-196.24"/>
</g>
</g>
</svg>
        <g id="navigator" transform="translate(0 0)" fill="#404254">
                <rect fill="#f2f5e9" fill-opacity="0.5" stroke="#606060" stroke-width=".5" x="0" y="0" width="60" height="60"/>
                <use id="zoomplus" xlink:href="#zoomPlus" x="17" y="9" onmousedown="handleZoom(evt,'in')"/>
                <use id="zoomminus" xlink:href="#zoomMin" x="42" y="9" onmousedown="handleZoom(evt,'out')"/>
                <use id="reset" xlink:href="#resetDef" x="30" y="36" onmousedown="handleReset()"/>
                <g id="arrowUp" xlink:href="#dirArrow" transform="translate(30 24)" onmousedown="handlePan(0,-1)">
                  <use xlink:href="#rim" fill="#404040">
                        <set attributeName="fill" to="#808080" begin="arrowUp.mouseover" end="arrowUp.mouseout"/>
                  </use>
                  <path fill="none" stroke="white" stroke-width="1.5" d="M0,-3.0v7 M-2.5,-0.5L0,-3.0L2.5,-0.5"/>
                </g>
                <g id="arrowRight" xlink:href="#dirArrow" transform="rotate(90) translate(36 -43)" onmousedown="handlePan(1,0)">
                  <use xlink:href="#rim" fill="#404040">
                        <set attributeName="fill" to="#808080" begin="arrowRight.mouseover" end="arrowRight.mouseout"/>
                  </use>
                  <path fill="none" stroke="white" stroke-width="1.5" d="M0,-3.0v7 M-2.5,-0.5L0,-3.0L2.5,-0.5"/>
                </g>
                <g id="arrowDown" xlink:href="#dirArrow" transform="rotate(180) translate(-30 -48)" onmousedown="handlePan(0,1)">
                  <use xlink:href="#rim" fill="#404040">
                        <set attributeName="fill" to="#808080" begin="arrowDown.mouseover" end="arrowDown.mouseout"/>
                  </use>
                  <path fill="none" stroke="white" stroke-width="1.5" d="M0,-3.0v7 M-2.5,-0.5L0,-3.0L2.5,-0.5"/>
                </g>
                <g id="arrowLeft" xlink:href="#dirArrow" transform="rotate(270) translate(-36 17)" onmousedown="handlePan(-1,0)">
                  <use xlink:href="#rim" fill="#404040">
                        <set attributeName="fill" to="#808080" begin="arrowLeft.mouseover" end="arrowLeft.mouseout"/>
                  </use>
                  <path fill="none" stroke="white" stroke-width="1.5" d="M0,-3.0v7 M-2.5,-0.5L0,-3.0L2.5,-0.5"/>
                </g>
        </g>
        <svg viewBox="0 0 15 15" width="100%" height="30px" preserveAspectRatio="xMaxYMin meet">
         <g id="arrow_out" transform="scale(0.3 0.3)">
          <a xlink:href="statistics__fluid__tcl_8cpp__incl_org.svg" target="_base">
           <rect id="button" ry="5" rx="5" y="6" x="6" height="38" width="38"
                fill="#f2f5e9" fill-opacity="0.5" stroke="#606060" stroke-width="1.0"/>
           <path id="arrow"
             d="M 11.500037,31.436501 C 11.940474,20.09759 22.043105,11.32322 32.158766,21.979434 L 37.068811,17.246167 C 37.068811,17.246167 37.088388,32 37.088388,32 L 22.160133,31.978069 C 22.160133,31.978069 26.997745,27.140456 26.997745,27.140456 C 18.528582,18.264221 13.291696,25.230495 11.500037,31.436501 z"
             style="fill:#404040;"/>
          </a>
         </g>
        </svg>
</svg>
