<?xml version="1.0" encoding="UTF-8" standalone="no"?>
<!DOCTYPE svg PUBLIC "-//W3C//DTD SVG 1.1//EN"
 "http://www.w3.org/Graphics/SVG/1.1/DTD/svg11.dtd">
<!-- Generated by graphviz version 2.38.0 (20140413.2041)
 -->
<!-- Title: statistics_fluid_tcl.hpp Pages: 1 -->
<svg width="260pt" height="84pt"
 viewBox="0.00 0.00 259.50 84.00" xmlns="http://www.w3.org/2000/svg" xmlns:xlink="http://www.w3.org/1999/xlink">
<g id="graph0" class="graph" transform="scale(1 1) rotate(0) translate(4 80)">
<title>statistics_fluid_tcl.hpp</title>
<!-- Node1 -->
<g id="node1" class="node"><title>Node1</title>
<polygon fill="#bfbfbf" stroke="black" points="72,-56.5 72,-75.5 197,-75.5 197,-56.5 72,-56.5"/>
<text text-anchor="middle" x="134.5" y="-63.5" font-family="Helvetica,sans-Serif" font-size="10.00">statistics_fluid_tcl.hpp</text>
</g>
<!-- Node2 -->
<g id="node2" class="node"><title>Node2</title>
<g id="a_node2"><a xlink:href="initialize__interpreter_8cpp.html" target="_top" xlink:title="initialize_interpreter.cpp">
<polygon fill="none" stroke="black" points="0,-0.5 0,-19.5 135,-19.5 135,-0.5 0,-0.5"/>
<text text-anchor="middle" x="67.5" y="-7.5" font-family="Helvetica,sans-Serif" font-size="10.00">initialize_interpreter.cpp</text>
</a>
</g>
</g>
<!-- Node1&#45;&gt;Node2 -->
<g id="edge1" class="edge"><title>Node1&#45;&gt;Node2</title>
<path fill="none" stroke="midnightblue" d="M115.665,-49.8197C103.662,-40.1452 88.5283,-27.9481 78.4606,-19.8339"/>
<polygon fill="midnightblue" stroke="midnightblue" points="113.753,-52.7738 123.735,-56.324 118.146,-47.3236 113.753,-52.7738"/>
</g>
<!-- Node3 -->
<g id="node3" class="node"><title>Node3</title>
<g id="a_node3"><a xlink:href="statistics__tcl_8cpp.html" target="_top" xlink:title="statistics_tcl.cpp">
<polygon fill="none" stroke="black" points="153.5,-0.5 153.5,-19.5 251.5,-19.5 251.5,-0.5 153.5,-0.5"/>
<text text-anchor="middle" x="202.5" y="-7.5" font-family="Helvetica,sans-Serif" font-size="10.00">statistics_tcl.cpp</text>
</a>
</g>
</g>
<!-- Node1&#45;&gt;Node3 -->
<g id="edge2" class="edge"><title>Node1&#45;&gt;Node3</title>
<path fill="none" stroke="midnightblue" d="M153.262,-50.1008C165.5,-40.3824 181.059,-28.0269 191.376,-19.8339"/>
<polygon fill="midnightblue" stroke="midnightblue" points="151.08,-47.3642 145.425,-56.324 155.433,-52.846 151.08,-47.3642"/>
</g>
</g>
</svg>
