<?xml version="1.0" encoding="UTF-8" standalone="no"?>
<!DOCTYPE svg PUBLIC "-//W3C//DTD SVG 1.1//EN"
 "http://www.w3.org/Graphics/SVG/1.1/DTD/svg11.dtd">
<!-- Generated by graphviz version 2.38.0 (20140413.2041)
 -->
<!-- Title: statistics_chain_tcl.hpp Pages: 1 -->
<svg width="374pt" height="84pt"
 viewBox="0.00 0.00 374.00 84.00" xmlns="http://www.w3.org/2000/svg" xmlns:xlink="http://www.w3.org/1999/xlink">
<g id="graph0" class="graph" transform="scale(1 1) rotate(0) translate(4 80)">
<title>statistics_chain_tcl.hpp</title>
<!-- Node1 -->
<g id="node1" class="node"><title>Node1</title>
<polygon fill="#bfbfbf" stroke="black" points="137,-56.5 137,-75.5 268,-75.5 268,-56.5 137,-56.5"/>
<text text-anchor="middle" x="202.5" y="-63.5" font-family="Helvetica,sans-Serif" font-size="10.00">statistics_chain_tcl.hpp</text>
</g>
<!-- Node2 -->
<g id="node2" class="node"><title>Node2</title>
<g id="a_node2"><a xlink:href="initialize__interpreter_8cpp.html" target="_top" xlink:title="initialize_interpreter.cpp">
<polygon fill="none" stroke="black" points="0,-0.5 0,-19.5 135,-19.5 135,-0.5 0,-0.5"/>
<text text-anchor="middle" x="67.5" y="-7.5" font-family="Helvetica,sans-Serif" font-size="10.00">initialize_interpreter.cpp</text>
</a>
</g>
</g>
<!-- Node1&#45;&gt;Node2 -->
<g id="edge1" class="edge"><title>Node1&#45;&gt;Node2</title>
<path fill="none" stroke="midnightblue" d="M171.594,-52.6377C146.26,-42.504 111.069,-28.4274 88.7911,-19.5164"/>
<polygon fill="midnightblue" stroke="midnightblue" points="170.524,-55.9792 181.109,-56.4435 173.124,-49.4799 170.524,-55.9792"/>
</g>
<!-- Node3 -->
<g id="node3" class="node"><title>Node3</title>
<g id="a_node3"><a xlink:href="statistics__tcl_8cpp.html" target="_top" xlink:title="statistics_tcl.cpp">
<polygon fill="none" stroke="black" points="153.5,-0.5 153.5,-19.5 251.5,-19.5 251.5,-0.5 153.5,-0.5"/>
<text text-anchor="middle" x="202.5" y="-7.5" font-family="Helvetica,sans-Serif" font-size="10.00">statistics_tcl.cpp</text>
</a>
</g>
</g>
<!-- Node1&#45;&gt;Node3 -->
<g id="edge2" class="edge"><title>Node1&#45;&gt;Node3</title>
<path fill="none" stroke="midnightblue" d="M202.5,-45.8045C202.5,-36.9102 202.5,-26.7798 202.5,-19.7511"/>
<polygon fill="midnightblue" stroke="midnightblue" points="199,-46.083 202.5,-56.083 206,-46.083 199,-46.083"/>
</g>
<!-- Node4 -->
<g id="node4" class="node"><title>Node4</title>
<g id="a_node4"><a xlink:href="topology__tcl_8cpp.html" target="_top" xlink:title="topology_tcl.cpp">
<polygon fill="none" stroke="black" points="269,-0.5 269,-19.5 366,-19.5 366,-0.5 269,-0.5"/>
<text text-anchor="middle" x="317.5" y="-7.5" font-family="Helvetica,sans-Serif" font-size="10.00">topology_tcl.cpp</text>
</a>
</g>
</g>
<!-- Node1&#45;&gt;Node4 -->
<g id="edge3" class="edge"><title>Node1&#45;&gt;Node4</title>
<path fill="none" stroke="midnightblue" d="M229.981,-52.096C251.466,-42.0073 280.722,-28.2697 299.363,-19.5164"/>
<polygon fill="midnightblue" stroke="midnightblue" points="228.286,-49.025 220.722,-56.4435 231.262,-55.3612 228.286,-49.025"/>
</g>
</g>
</svg>
