<?xml version="1.0" encoding="UTF-8" standalone="no"?>
<!DOCTYPE svg PUBLIC "-//W3C//DTD SVG 1.1//EN"
 "http://www.w3.org/Graphics/SVG/1.1/DTD/svg11.dtd">
<!-- Generated by graphviz version 2.38.0 (20140413.2041)
 -->
<!-- Title: stretching_force_tcl.cpp Pages: 1 -->
<svg width="771pt" height="431pt"
 viewBox="0.00 0.00 770.50 431.00" xmlns="http://www.w3.org/2000/svg" xmlns:xlink="http://www.w3.org/1999/xlink">
<g id="graph0" class="graph" transform="scale(1 1) rotate(0) translate(4 427)">
<title>stretching_force_tcl.cpp</title>
<!-- Node1 -->
<g id="node1" class="node"><title>Node1</title>
<polygon fill="#bfbfbf" stroke="black" points="196.5,-403.5 196.5,-422.5 329.5,-422.5 329.5,-403.5 196.5,-403.5"/>
<text text-anchor="middle" x="263" y="-410.5" font-family="Helvetica,sans-Serif" font-size="10.00">stretching_force_tcl.cpp</text>
</g>
<!-- Node2 -->
<g id="node2" class="node"><title>Node2</title>
<g id="a_node2"><a xlink:href="utils_8hpp.html" target="_top" xlink:title="Small functions that are useful not only for one modul. ">
<polygon fill="none" stroke="black" points="308.5,-168.5 308.5,-187.5 367.5,-187.5 367.5,-168.5 308.5,-168.5"/>
<text text-anchor="middle" x="338" y="-175.5" font-family="Helvetica,sans-Serif" font-size="10.00">utils.hpp</text>
</a>
</g>
</g>
<!-- Node1&#45;&gt;Node2 -->
<g id="edge1" class="edge"><title>Node1&#45;&gt;Node2</title>
<path fill="none" stroke="midnightblue" d="M315.901,-403.46C355.432,-395.872 404.679,-383.437 417,-367 437.884,-339.14 439.906,-297.535 395,-224 387.274,-211.349 374.623,-200.827 363.199,-193.147"/>
<polygon fill="midnightblue" stroke="midnightblue" points="364.744,-189.983 354.418,-187.61 361.01,-195.904 364.744,-189.983"/>
</g>
<!-- Node19 -->
<g id="node19" class="node"><title>Node19</title>
<g id="a_node19"><a xlink:href="parser_8hpp.html" target="_top" xlink:title="This file contains macros for parsing the parameters to the &#39;inter&#39; command. ">
<polygon fill="none" stroke="black" points="66.5,-280.5 66.5,-299.5 149.5,-299.5 149.5,-280.5 66.5,-280.5"/>
<text text-anchor="middle" x="108" y="-287.5" font-family="Helvetica,sans-Serif" font-size="10.00">tcl/parser.hpp</text>
</a>
</g>
</g>
<!-- Node1&#45;&gt;Node19 -->
<g id="edge21" class="edge"><title>Node1&#45;&gt;Node19</title>
<path fill="none" stroke="midnightblue" d="M196.276,-409.339C165.369,-404.389 131.111,-392.848 111,-367 98.4823,-350.911 99.9707,-326.59 103.125,-309.815"/>
<polygon fill="midnightblue" stroke="midnightblue" points="106.643,-310.126 105.423,-299.601 99.8133,-308.589 106.643,-310.126"/>
</g>
<!-- Node21 -->
<g id="node21" class="node"><title>Node21</title>
<g id="a_node21"><a xlink:href="stretching__force__tcl_8hpp.html" target="_top" xlink:title="stretching_force_tcl.hpp">
<polygon fill="none" stroke="black" points="120,-342 120,-361 254,-361 254,-342 120,-342"/>
<text text-anchor="middle" x="187" y="-349" font-family="Helvetica,sans-Serif" font-size="10.00">stretching_force_tcl.hpp</text>
</a>
</g>
</g>
<!-- Node1&#45;&gt;Node21 -->
<g id="edge25" class="edge"><title>Node1&#45;&gt;Node21</title>
<path fill="none" stroke="midnightblue" d="M252.111,-403.475C240.034,-394.02 220.333,-378.596 205.76,-367.187"/>
<polygon fill="midnightblue" stroke="midnightblue" points="207.9,-364.418 197.869,-361.009 203.585,-369.929 207.9,-364.418"/>
</g>
<!-- Node24 -->
<g id="node24" class="node"><title>Node24</title>
<g id="a_node24"><a xlink:href="stretching__force_8hpp.html" target="_top" xlink:title="Routines to calculate the STRETCHING_FORCE Energy or/and STRETCHING_FORCE force for a particle pair...">
<polygon fill="none" stroke="black" points="272,-336.5 272,-366.5 408,-366.5 408,-336.5 272,-336.5"/>
<text text-anchor="start" x="280" y="-354.5" font-family="Helvetica,sans-Serif" font-size="10.00">object&#45;in&#45;fluid/stretching</text>
<text text-anchor="middle" x="340" y="-343.5" font-family="Helvetica,sans-Serif" font-size="10.00">_force.hpp</text>
</a>
</g>
</g>
<!-- Node1&#45;&gt;Node24 -->
<g id="edge31" class="edge"><title>Node1&#45;&gt;Node24</title>
<path fill="none" stroke="midnightblue" d="M274.032,-403.475C284.363,-395.492 300.2,-383.254 313.768,-372.77"/>
<polygon fill="midnightblue" stroke="midnightblue" points="316.08,-375.407 321.853,-366.523 311.8,-369.868 316.08,-375.407"/>
</g>
<!-- Node3 -->
<g id="node3" class="node"><title>Node3</title>
<polygon fill="none" stroke="#bfbfbf" points="715.5,-112.5 715.5,-131.5 762.5,-131.5 762.5,-112.5 715.5,-112.5"/>
<text text-anchor="middle" x="739" y="-119.5" font-family="Helvetica,sans-Serif" font-size="10.00">cmath</text>
</g>
<!-- Node2&#45;&gt;Node3 -->
<g id="edge2" class="edge"><title>Node2&#45;&gt;Node3</title>
<path fill="none" stroke="midnightblue" d="M367.901,-174.911C429.423,-170.282 574.713,-157.643 705.168,-132.113"/>
<polygon fill="midnightblue" stroke="midnightblue" points="706.207,-135.475 715.332,-130.092 704.842,-128.61 706.207,-135.475"/>
</g>
<!-- Node4 -->
<g id="node4" class="node"><title>Node4</title>
<polygon fill="none" stroke="#bfbfbf" points="68,-112.5 68,-131.5 114,-131.5 114,-112.5 68,-112.5"/>
<text text-anchor="middle" x="91" y="-119.5" font-family="Helvetica,sans-Serif" font-size="10.00">cstdio</text>
</g>
<!-- Node2&#45;&gt;Node4 -->
<g id="edge3" class="edge"><title>Node2&#45;&gt;Node4</title>
<path fill="none" stroke="midnightblue" d="M308.296,-171.444C268.551,-163.868 195.675,-149.475 124.109,-132.142"/>
<polygon fill="midnightblue" stroke="midnightblue" points="124.568,-128.651 114.023,-129.677 122.906,-135.451 124.568,-128.651"/>
</g>
<!-- Node5 -->
<g id="node5" class="node"><title>Node5</title>
<polygon fill="none" stroke="#bfbfbf" points="132.5,-112.5 132.5,-131.5 181.5,-131.5 181.5,-112.5 132.5,-112.5"/>
<text text-anchor="middle" x="157" y="-119.5" font-family="Helvetica,sans-Serif" font-size="10.00">cstdlib</text>
</g>
<!-- Node2&#45;&gt;Node5 -->
<g id="edge4" class="edge"><title>Node2&#45;&gt;Node5</title>
<path fill="none" stroke="midnightblue" d="M309.32,-168.444C277.431,-158.93 225.927,-143.564 191.768,-133.373"/>
<polygon fill="midnightblue" stroke="midnightblue" points="192.348,-129.893 181.765,-130.388 190.347,-136.601 192.348,-129.893"/>
</g>
<!-- Node6 -->
<g id="node6" class="node"><title>Node6</title>
<polygon fill="none" stroke="#bfbfbf" points="0,-112.5 0,-131.5 50,-131.5 50,-112.5 0,-112.5"/>
<text text-anchor="middle" x="25" y="-119.5" font-family="Helvetica,sans-Serif" font-size="10.00">cstring</text>
</g>
<!-- Node2&#45;&gt;Node6 -->
<g id="edge5" class="edge"><title>Node2&#45;&gt;Node6</title>
<path fill="none" stroke="midnightblue" d="M308.5,-173.219C259.096,-166.677 156.346,-152.174 60.0776,-132.056"/>
<polygon fill="midnightblue" stroke="midnightblue" points="60.6923,-128.608 50.1844,-129.963 59.2437,-135.457 60.6923,-128.608"/>
</g>
<!-- Node7 -->
<g id="node7" class="node"><title>Node7</title>
<g id="a_node7"><a xlink:href="config_8hpp.html" target="_top" xlink:title="This file contains the defaults for Espresso. ">
<polygon fill="none" stroke="black" points="313.5,-56.5 313.5,-75.5 380.5,-75.5 380.5,-56.5 313.5,-56.5"/>
<text text-anchor="middle" x="347" y="-63.5" font-family="Helvetica,sans-Serif" font-size="10.00">config.hpp</text>
</a>
</g>
</g>
<!-- Node2&#45;&gt;Node7 -->
<g id="edge6" class="edge"><title>Node2&#45;&gt;Node7</title>
<path fill="none" stroke="midnightblue" d="M357.906,-168.41C372.225,-161.04 390.458,-148.916 399,-132 408.796,-112.599 389.137,-93.5607 371.249,-81.1541"/>
<polygon fill="midnightblue" stroke="midnightblue" points="373.038,-78.1426 362.747,-75.6239 369.221,-84.0104 373.038,-78.1426"/>
</g>
<!-- Node11 -->
<g id="node11" class="node"><title>Node11</title>
<g id="a_node11"><a xlink:href="debug_8hpp.html" target="_top" xlink:title="This file controls debug facilities. ">
<polygon fill="none" stroke="black" points="200,-112.5 200,-131.5 268,-131.5 268,-112.5 200,-112.5"/>
<text text-anchor="middle" x="234" y="-119.5" font-family="Helvetica,sans-Serif" font-size="10.00">debug.hpp</text>
</a>
</g>
</g>
<!-- Node2&#45;&gt;Node11 -->
<g id="edge10" class="edge"><title>Node2&#45;&gt;Node11</title>
<path fill="none" stroke="midnightblue" d="M321.291,-168.324C304.688,-159.703 278.998,-146.364 259.78,-136.386"/>
<polygon fill="midnightblue" stroke="midnightblue" points="261.156,-133.156 250.668,-131.655 257.93,-139.369 261.156,-133.156"/>
</g>
<!-- Node12 -->
<g id="node12" class="node"><title>Node12</title>
<g id="a_node12"><a xlink:href="lees__edwards_8hpp.html" target="_top" xlink:title="lees_edwards.hpp">
<polygon fill="none" stroke="black" points="286,-112.5 286,-131.5 390,-131.5 390,-112.5 286,-112.5"/>
<text text-anchor="middle" x="338" y="-119.5" font-family="Helvetica,sans-Serif" font-size="10.00">lees_edwards.hpp</text>
</a>
</g>
</g>
<!-- Node2&#45;&gt;Node12 -->
<g id="edge12" class="edge"><title>Node2&#45;&gt;Node12</title>
<path fill="none" stroke="midnightblue" d="M338,-168.083C338,-161.006 338,-150.861 338,-141.986"/>
<polygon fill="midnightblue" stroke="midnightblue" points="341.5,-141.751 338,-131.751 334.5,-141.751 341.5,-141.751"/>
</g>
<!-- Node13 -->
<g id="node13" class="node"><title>Node13</title>
<g id="a_node13"><a xlink:href="errorhandling_8hpp.html" target="_top" xlink:title="This file contains the errorhandling code for severe errors, like a broken bond or illegal parameter ...">
<polygon fill="none" stroke="black" points="446.5,-112.5 446.5,-131.5 549.5,-131.5 549.5,-112.5 446.5,-112.5"/>
<text text-anchor="middle" x="498" y="-119.5" font-family="Helvetica,sans-Serif" font-size="10.00">errorhandling.hpp</text>
</a>
</g>
</g>
<!-- Node2&#45;&gt;Node13 -->
<g id="edge14" class="edge"><title>Node2&#45;&gt;Node13</title>
<path fill="none" stroke="midnightblue" d="M363.352,-168.444C390.269,-159.359 432.996,-144.939 463.087,-134.783"/>
<polygon fill="midnightblue" stroke="midnightblue" points="464.41,-138.031 472.766,-131.516 462.172,-131.398 464.41,-138.031"/>
</g>
<!-- Node17 -->
<g id="node17" class="node"><title>Node17</title>
<polygon fill="none" stroke="#bfbfbf" points="567.5,-112.5 567.5,-131.5 614.5,-131.5 614.5,-112.5 567.5,-112.5"/>
<text text-anchor="middle" x="591" y="-119.5" font-family="Helvetica,sans-Serif" font-size="10.00">vector</text>
</g>
<!-- Node2&#45;&gt;Node17 -->
<g id="edge19" class="edge"><title>Node2&#45;&gt;Node17</title>
<path fill="none" stroke="midnightblue" d="M367.822,-171.646C408.594,-164.171 484.21,-149.754 557.439,-132.254"/>
<polygon fill="midnightblue" stroke="midnightblue" points="558.385,-135.626 567.285,-129.879 556.743,-128.822 558.385,-135.626"/>
</g>
<!-- Node18 -->
<g id="node18" class="node"><title>Node18</title>
<polygon fill="none" stroke="#bfbfbf" points="632.5,-112.5 632.5,-131.5 697.5,-131.5 697.5,-112.5 632.5,-112.5"/>
<text text-anchor="middle" x="665" y="-119.5" font-family="Helvetica,sans-Serif" font-size="10.00">exception</text>
</g>
<!-- Node2&#45;&gt;Node18 -->
<g id="edge20" class="edge"><title>Node2&#45;&gt;Node18</title>
<path fill="none" stroke="midnightblue" d="M367.745,-172.92C418.156,-165.876 523.792,-150.558 622.524,-132.194"/>
<polygon fill="midnightblue" stroke="midnightblue" points="623.179,-135.632 632.362,-130.349 621.889,-128.752 623.179,-135.632"/>
</g>
<!-- Node8 -->
<g id="node8" class="node"><title>Node8</title>
<g id="a_node8"><a xlink:href="acconfig_8hpp.html" target="_top" xlink:title="acconfig.hpp">
<polygon fill="none" stroke="black" points="197,-0.5 197,-19.5 275,-19.5 275,-0.5 197,-0.5"/>
<text text-anchor="middle" x="236" y="-7.5" font-family="Helvetica,sans-Serif" font-size="10.00">acconfig.hpp</text>
</a>
</g>
</g>
<!-- Node7&#45;&gt;Node8 -->
<g id="edge7" class="edge"><title>Node7&#45;&gt;Node8</title>
<path fill="none" stroke="midnightblue" d="M329.166,-56.324C311.284,-47.6247 283.525,-34.1202 262.954,-24.113"/>
<polygon fill="midnightblue" stroke="midnightblue" points="264.313,-20.8819 253.79,-19.6545 261.251,-27.1765 264.313,-20.8819"/>
</g>
<!-- Node9 -->
<g id="node9" class="node"><title>Node9</title>
<g id="a_node9"><a xlink:href="myconfig-final_8hpp.html" target="_top" xlink:title="myconfig&#45;final.hpp">
<polygon fill="none" stroke="black" points="293.5,-0.5 293.5,-19.5 400.5,-19.5 400.5,-0.5 293.5,-0.5"/>
<text text-anchor="middle" x="347" y="-7.5" font-family="Helvetica,sans-Serif" font-size="10.00">myconfig&#45;final.hpp</text>
</a>
</g>
</g>
<!-- Node7&#45;&gt;Node9 -->
<g id="edge8" class="edge"><title>Node7&#45;&gt;Node9</title>
<path fill="none" stroke="midnightblue" d="M347,-56.083C347,-49.0059 347,-38.8611 347,-29.9865"/>
<polygon fill="midnightblue" stroke="midnightblue" points="350.5,-29.751 347,-19.7511 343.5,-29.7511 350.5,-29.751"/>
</g>
<!-- Node10 -->
<g id="node10" class="node"><title>Node10</title>
<g id="a_node10"><a xlink:href="config-features_8hpp.html" target="_top" xlink:title="config&#45;features.hpp">
<polygon fill="none" stroke="black" points="418.5,-0.5 418.5,-19.5 529.5,-19.5 529.5,-0.5 418.5,-0.5"/>
<text text-anchor="middle" x="474" y="-7.5" font-family="Helvetica,sans-Serif" font-size="10.00">config&#45;features.hpp</text>
</a>
</g>
</g>
<!-- Node7&#45;&gt;Node10 -->
<g id="edge9" class="edge"><title>Node7&#45;&gt;Node10</title>
<path fill="none" stroke="midnightblue" d="M367.124,-56.4435C388.024,-47.5566 420.935,-33.5632 444.716,-23.4514"/>
<polygon fill="midnightblue" stroke="midnightblue" points="446.138,-26.6504 453.971,-19.5164 443.398,-20.2085 446.138,-26.6504"/>
</g>
<!-- Node11&#45;&gt;Node7 -->
<g id="edge11" class="edge"><title>Node11&#45;&gt;Node7</title>
<path fill="none" stroke="midnightblue" d="M251.905,-112.444C270.254,-103.675 299.005,-89.9355 320.094,-79.8579"/>
<polygon fill="midnightblue" stroke="midnightblue" points="321.665,-82.9862 329.179,-75.5164 318.647,-76.6703 321.665,-82.9862"/>
</g>
<!-- Node12&#45;&gt;Node7 -->
<g id="edge13" class="edge"><title>Node12&#45;&gt;Node7</title>
<path fill="none" stroke="midnightblue" d="M339.486,-112.083C340.679,-104.927 342.394,-94.6353 343.885,-85.6911"/>
<polygon fill="midnightblue" stroke="midnightblue" points="347.35,-86.1904 345.541,-75.7511 340.445,-85.0396 347.35,-86.1904"/>
</g>
<!-- Node13&#45;&gt;Node7 -->
<g id="edge15" class="edge"><title>Node13&#45;&gt;Node7</title>
<path fill="none" stroke="midnightblue" d="M474.074,-112.444C448.781,-103.399 408.698,-89.064 380.32,-78.9158"/>
<polygon fill="midnightblue" stroke="midnightblue" points="381.409,-75.5882 370.814,-75.5164 379.052,-82.1794 381.409,-75.5882"/>
</g>
<!-- Node14 -->
<g id="node14" class="node"><title>Node14</title>
<polygon fill="none" stroke="#bfbfbf" points="532,-56.5 532,-75.5 576,-75.5 576,-56.5 532,-56.5"/>
<text text-anchor="middle" x="554" y="-63.5" font-family="Helvetica,sans-Serif" font-size="10.00">string</text>
</g>
<!-- Node13&#45;&gt;Node14 -->
<g id="edge16" class="edge"><title>Node13&#45;&gt;Node14</title>
<path fill="none" stroke="midnightblue" d="M506.997,-112.324C515.194,-104.42 527.506,-92.5482 537.472,-82.9377"/>
<polygon fill="midnightblue" stroke="midnightblue" points="540.07,-85.2947 544.839,-75.8339 535.211,-80.2558 540.07,-85.2947"/>
</g>
<!-- Node15 -->
<g id="node15" class="node"><title>Node15</title>
<polygon fill="none" stroke="#bfbfbf" points="408,-56.5 408,-75.5 464,-75.5 464,-56.5 408,-56.5"/>
<text text-anchor="middle" x="436" y="-63.5" font-family="Helvetica,sans-Serif" font-size="10.00">sstream</text>
</g>
<!-- Node13&#45;&gt;Node15 -->
<g id="edge17" class="edge"><title>Node13&#45;&gt;Node15</title>
<path fill="none" stroke="midnightblue" d="M488.039,-112.324C478.873,-104.341 465.063,-92.3128 453.972,-82.6529"/>
<polygon fill="midnightblue" stroke="midnightblue" points="455.982,-79.7624 446.143,-75.8339 451.385,-85.041 455.982,-79.7624"/>
</g>
<!-- Node16 -->
<g id="node16" class="node"><title>Node16</title>
<polygon fill="none" stroke="#bfbfbf" points="482,-56.5 482,-75.5 514,-75.5 514,-56.5 482,-56.5"/>
<text text-anchor="middle" x="498" y="-63.5" font-family="Helvetica,sans-Serif" font-size="10.00">list</text>
</g>
<!-- Node13&#45;&gt;Node16 -->
<g id="edge18" class="edge"><title>Node13&#45;&gt;Node16</title>
<path fill="none" stroke="midnightblue" d="M498,-112.083C498,-105.006 498,-94.8611 498,-85.9865"/>
<polygon fill="midnightblue" stroke="midnightblue" points="501.5,-85.751 498,-75.7511 494.5,-85.7511 501.5,-85.751"/>
</g>
<!-- Node19&#45;&gt;Node2 -->
<g id="edge22" class="edge"><title>Node19&#45;&gt;Node2</title>
<path fill="none" stroke="midnightblue" d="M126.048,-280.368C166.272,-261.131 263.464,-214.648 310.962,-191.931"/>
<polygon fill="midnightblue" stroke="midnightblue" points="312.525,-195.064 320.036,-187.591 309.505,-188.749 312.525,-195.064"/>
</g>
<!-- Node19&#45;&gt;Node6 -->
<g id="edge23" class="edge"><title>Node19&#45;&gt;Node6</title>
<path fill="none" stroke="midnightblue" d="M102.072,-280.237C96.1497,-271.312 86.9496,-256.979 80,-244 60.9281,-208.382 42.2165,-164.884 32.2939,-140.947"/>
<polygon fill="midnightblue" stroke="midnightblue" points="35.5303,-139.614 28.4934,-131.693 29.0552,-142.273 35.5303,-139.614"/>
</g>
<!-- Node20 -->
<g id="node20" class="node"><title>Node20</title>
<polygon fill="none" stroke="#bfbfbf" points="89,-224.5 89,-243.5 127,-243.5 127,-224.5 89,-224.5"/>
<text text-anchor="middle" x="108" y="-231.5" font-family="Helvetica,sans-Serif" font-size="10.00">tcl.h</text>
</g>
<!-- Node19&#45;&gt;Node20 -->
<g id="edge24" class="edge"><title>Node19&#45;&gt;Node20</title>
<path fill="none" stroke="midnightblue" d="M108,-280.083C108,-273.006 108,-262.861 108,-253.986"/>
<polygon fill="midnightblue" stroke="midnightblue" points="111.5,-253.751 108,-243.751 104.5,-253.751 111.5,-253.751"/>
</g>
<!-- Node21&#45;&gt;Node19 -->
<g id="edge26" class="edge"><title>Node21&#45;&gt;Node19</title>
<path fill="none" stroke="midnightblue" d="M175.681,-341.975C163.127,-332.52 142.649,-317.096 127.501,-305.687"/>
<polygon fill="midnightblue" stroke="midnightblue" points="129.391,-302.73 119.298,-299.509 125.18,-308.321 129.391,-302.73"/>
</g>
<!-- Node22 -->
<g id="node22" class="node"><title>Node22</title>
<g id="a_node22"><a xlink:href="interaction__data_8hpp.html" target="_top" xlink:title="Various procedures concerning interactions between particles. ">
<polygon fill="none" stroke="black" points="184.5,-280.5 184.5,-299.5 301.5,-299.5 301.5,-280.5 184.5,-280.5"/>
<text text-anchor="middle" x="243" y="-287.5" font-family="Helvetica,sans-Serif" font-size="10.00">interaction_data.hpp</text>
</a>
</g>
</g>
<!-- Node21&#45;&gt;Node22 -->
<g id="edge27" class="edge"><title>Node21&#45;&gt;Node22</title>
<path fill="none" stroke="midnightblue" d="M195.023,-341.975C203.59,-332.873 217.361,-318.241 227.957,-306.983"/>
<polygon fill="midnightblue" stroke="midnightblue" points="230.686,-309.19 234.991,-299.509 225.589,-304.392 230.686,-309.19"/>
</g>
<!-- Node22&#45;&gt;Node2 -->
<g id="edge28" class="edge"><title>Node22&#45;&gt;Node2</title>
<path fill="none" stroke="midnightblue" d="M243.041,-280.076C243.54,-266.608 246.247,-240.874 259,-224 269.955,-209.505 287.031,-198.947 302.508,-191.716"/>
<polygon fill="midnightblue" stroke="midnightblue" points="304.099,-194.841 311.869,-187.638 301.303,-188.423 304.099,-194.841"/>
</g>
<!-- Node23 -->
<g id="node23" class="node"><title>Node23</title>
<g id="a_node23"><a xlink:href="particle__data_8hpp.html" target="_top" xlink:title="For more information on particle_data, see particle_data.c. ">
<polygon fill="none" stroke="black" points="268.5,-224.5 268.5,-243.5 369.5,-243.5 369.5,-224.5 268.5,-224.5"/>
<text text-anchor="middle" x="319" y="-231.5" font-family="Helvetica,sans-Serif" font-size="10.00">particle_data.hpp</text>
</a>
</g>
</g>
<!-- Node22&#45;&gt;Node23 -->
<g id="edge29" class="edge"><title>Node22&#45;&gt;Node23</title>
<path fill="none" stroke="midnightblue" d="M255.211,-280.324C266.776,-272.107 284.375,-259.602 298.161,-249.807"/>
<polygon fill="midnightblue" stroke="midnightblue" points="300.443,-252.479 306.567,-243.834 296.388,-246.773 300.443,-252.479"/>
</g>
<!-- Node23&#45;&gt;Node2 -->
<g id="edge30" class="edge"><title>Node23&#45;&gt;Node2</title>
<path fill="none" stroke="midnightblue" d="M322.137,-224.083C324.683,-216.849 328.356,-206.409 331.527,-197.397"/>
<polygon fill="midnightblue" stroke="midnightblue" points="334.903,-198.346 334.921,-187.751 328.3,-196.023 334.903,-198.346"/>
</g>
<!-- Node24&#45;&gt;Node2 -->
<g id="edge32" class="edge"><title>Node24&#45;&gt;Node2</title>
<path fill="none" stroke="midnightblue" d="M350.37,-336.24C366.229,-312.581 393.158,-263.868 378,-224 373.665,-212.598 364.969,-202.239 356.79,-194.343"/>
<polygon fill="midnightblue" stroke="midnightblue" points="359.041,-191.66 349.266,-187.573 354.358,-196.863 359.041,-191.66"/>
</g>
<!-- Node24&#45;&gt;Node22 -->
<g id="edge33" class="edge"><title>Node24&#45;&gt;Node22</title>
<path fill="none" stroke="midnightblue" d="M317.012,-336.399C301.609,-326.951 281.407,-314.559 266.001,-305.109"/>
<polygon fill="midnightblue" stroke="midnightblue" points="267.469,-301.903 257.114,-299.658 263.808,-307.87 267.469,-301.903"/>
</g>
<!-- Node24&#45;&gt;Node23 -->
<g id="edge34" class="edge"><title>Node24&#45;&gt;Node23</title>
<path fill="none" stroke="midnightblue" d="M337.425,-336.337C333.641,-315.527 326.575,-276.663 322.379,-253.583"/>
<polygon fill="midnightblue" stroke="midnightblue" points="325.809,-252.882 320.576,-243.669 318.922,-254.134 325.809,-252.882"/>
</g>
</g>
</svg>
