<?xml version="1.0" encoding="UTF-8" standalone="no"?>
<!DOCTYPE svg PUBLIC "-//W3C//DTD SVG 1.1//EN"
 "http://www.w3.org/Graphics/SVG/1.1/DTD/svg11.dtd">
<!-- Generated by graphviz version 2.38.0 (20140413.2041)
 -->
<!-- Title: stretchlin_force.hpp Pages: 1 -->
<svg width="2094pt" height="207pt"
 viewBox="0.00 0.00 2093.50 207.00" xmlns="http://www.w3.org/2000/svg" xmlns:xlink="http://www.w3.org/1999/xlink">
<g id="graph0" class="graph" transform="scale(1 1) rotate(0) translate(4 203)">
<title>stretchlin_force.hpp</title>
<!-- Node1 -->
<g id="node1" class="node"><title>Node1</title>
<polygon fill="#bfbfbf" stroke="black" points="1820.5,-179.5 1820.5,-198.5 1933.5,-198.5 1933.5,-179.5 1820.5,-179.5"/>
<text text-anchor="middle" x="1877" y="-186.5" font-family="Helvetica,sans-Serif" font-size="10.00">stretchlin_force.hpp</text>
</g>
<!-- Node2 -->
<g id="node2" class="node"><title>Node2</title>
<g id="a_node2"><a xlink:href="forces__inline_8hpp.html" target="_top" xlink:title="forces_inline.hpp">
<polygon fill="none" stroke="black" points="1702,-123.5 1702,-142.5 1802,-142.5 1802,-123.5 1702,-123.5"/>
<text text-anchor="middle" x="1752" y="-130.5" font-family="Helvetica,sans-Serif" font-size="10.00">forces_inline.hpp</text>
</a>
</g>
</g>
<!-- Node1&#45;&gt;Node2 -->
<g id="edge1" class="edge"><title>Node1&#45;&gt;Node2</title>
<path fill="none" stroke="midnightblue" d="M1847.76,-175.368C1824.35,-165.255 1792.16,-151.349 1771.71,-142.516"/>
<polygon fill="midnightblue" stroke="midnightblue" points="1846.63,-178.691 1857.19,-179.444 1849.4,-172.265 1846.63,-178.691"/>
</g>
<!-- Node26 -->
<g id="node26" class="node"><title>Node26</title>
<g id="a_node26"><a xlink:href="stretchlin__force_8cpp.html" target="_top" xlink:title="Implementation of stretchlin_force.hpp. ">
<polygon fill="none" stroke="black" points="1820.5,-123.5 1820.5,-142.5 1933.5,-142.5 1933.5,-123.5 1820.5,-123.5"/>
<text text-anchor="middle" x="1877" y="-130.5" font-family="Helvetica,sans-Serif" font-size="10.00">stretchlin_force.cpp</text>
</a>
</g>
</g>
<!-- Node1&#45;&gt;Node26 -->
<g id="edge28" class="edge"><title>Node1&#45;&gt;Node26</title>
<path fill="none" stroke="midnightblue" d="M1877,-168.805C1877,-159.91 1877,-149.78 1877,-142.751"/>
<polygon fill="midnightblue" stroke="midnightblue" points="1873.5,-169.083 1877,-179.083 1880.5,-169.083 1873.5,-169.083"/>
</g>
<!-- Node27 -->
<g id="node27" class="node"><title>Node27</title>
<g id="a_node27"><a xlink:href="stretchlin__force__tcl_8cpp.html" target="_top" xlink:title="stretchlin_force_tcl.cpp">
<polygon fill="none" stroke="black" points="1952,-123.5 1952,-142.5 2082,-142.5 2082,-123.5 1952,-123.5"/>
<text text-anchor="middle" x="2017" y="-130.5" font-family="Helvetica,sans-Serif" font-size="10.00">stretchlin_force_tcl.cpp</text>
</a>
</g>
</g>
<!-- Node1&#45;&gt;Node27 -->
<g id="edge29" class="edge"><title>Node1&#45;&gt;Node27</title>
<path fill="none" stroke="midnightblue" d="M1908.7,-175.772C1935,-165.629 1971.72,-151.467 1994.92,-142.516"/>
<polygon fill="midnightblue" stroke="midnightblue" points="1907.25,-172.579 1899.18,-179.444 1909.77,-179.11 1907.25,-172.579"/>
</g>
<!-- Node3 -->
<g id="node3" class="node"><title>Node3</title>
<g id="a_node3"><a xlink:href="pressure_8hpp.html" target="_top" xlink:title="Pressure calculation. ">
<polygon fill="none" stroke="black" points="881,-67.5 881,-86.5 961,-86.5 961,-67.5 881,-67.5"/>
<text text-anchor="middle" x="921" y="-74.5" font-family="Helvetica,sans-Serif" font-size="10.00">pressure.hpp</text>
</a>
</g>
</g>
<!-- Node2&#45;&gt;Node3 -->
<g id="edge2" class="edge"><title>Node2&#45;&gt;Node3</title>
<path fill="none" stroke="midnightblue" d="M1691.71,-128.082C1531.03,-117.641 1095.64,-89.3483 961.133,-80.6079"/>
<polygon fill="midnightblue" stroke="midnightblue" points="1691.68,-131.588 1701.89,-128.744 1692.14,-124.602 1691.68,-131.588"/>
</g>
<!-- Node11 -->
<g id="node11" class="node"><title>Node11</title>
<g id="a_node11"><a xlink:href="layered_8cpp.html" target="_top" xlink:title="Implementation of layered.h. ">
<polygon fill="none" stroke="black" points="0,-6 0,-25 74,-25 74,-6 0,-6"/>
<text text-anchor="middle" x="37" y="-13" font-family="Helvetica,sans-Serif" font-size="10.00">layered.cpp</text>
</a>
</g>
</g>
<!-- Node2&#45;&gt;Node11 -->
<g id="edge27" class="edge"><title>Node2&#45;&gt;Node11</title>
<path fill="none" stroke="midnightblue" d="M1691.87,-130.417C1431.61,-123.25 400.99,-91.532 83,-31 75.5968,-29.5907 67.7136,-27.3802 60.6028,-25.106"/>
<polygon fill="midnightblue" stroke="midnightblue" points="1691.79,-133.916 1701.89,-130.691 1691.99,-126.919 1691.79,-133.916"/>
</g>
<!-- Node20 -->
<g id="node20" class="node"><title>Node20</title>
<g id="a_node20"><a xlink:href="minimize__energy_8hpp.html" target="_top" xlink:title="minimize_energy.hpp">
<polygon fill="none" stroke="black" points="1630.5,-67.5 1630.5,-86.5 1751.5,-86.5 1751.5,-67.5 1630.5,-67.5"/>
<text text-anchor="middle" x="1691" y="-74.5" font-family="Helvetica,sans-Serif" font-size="10.00">minimize_energy.hpp</text>
</a>
</g>
</g>
<!-- Node2&#45;&gt;Node20 -->
<g id="edge19" class="edge"><title>Node2&#45;&gt;Node20</title>
<path fill="none" stroke="midnightblue" d="M1734.53,-116.537C1723.66,-106.909 1710.06,-94.8694 1700.98,-86.8339"/>
<polygon fill="midnightblue" stroke="midnightblue" points="1732.39,-119.316 1742.2,-123.324 1737.03,-114.075 1732.39,-119.316"/>
</g>
<!-- Node23 -->
<g id="node23" class="node"><title>Node23</title>
<g id="a_node23"><a xlink:href="constraint_8cpp.html" target="_top" xlink:title="Implementation of constraint.hpp, here it&#39;s just the parsing stuff. ">
<polygon fill="none" stroke="black" points="1770,-67.5 1770,-86.5 1856,-86.5 1856,-67.5 1770,-67.5"/>
<text text-anchor="middle" x="1813" y="-74.5" font-family="Helvetica,sans-Serif" font-size="10.00">constraint.cpp</text>
</a>
</g>
</g>
<!-- Node2&#45;&gt;Node23 -->
<g id="edge24" class="edge"><title>Node2&#45;&gt;Node23</title>
<path fill="none" stroke="midnightblue" d="M1769.47,-116.537C1780.34,-106.909 1793.94,-94.8694 1803.02,-86.8339"/>
<polygon fill="midnightblue" stroke="midnightblue" points="1766.97,-114.075 1761.8,-123.324 1771.61,-119.316 1766.97,-114.075"/>
</g>
<!-- Node24 -->
<g id="node24" class="node"><title>Node24</title>
<g id="a_node24"><a xlink:href="forces_8cpp.html" target="_top" xlink:title="Force calculation. ">
<polygon fill="none" stroke="black" points="1874.5,-67.5 1874.5,-86.5 1941.5,-86.5 1941.5,-67.5 1874.5,-67.5"/>
<text text-anchor="middle" x="1908" y="-74.5" font-family="Helvetica,sans-Serif" font-size="10.00">forces.cpp</text>
</a>
</g>
</g>
<!-- Node2&#45;&gt;Node24 -->
<g id="edge25" class="edge"><title>Node2&#45;&gt;Node24</title>
<path fill="none" stroke="midnightblue" d="M1786.17,-120.172C1815.54,-110.004 1857.2,-95.5852 1883.4,-86.5164"/>
<polygon fill="midnightblue" stroke="midnightblue" points="1785.02,-116.865 1776.72,-123.444 1787.31,-123.48 1785.02,-116.865"/>
</g>
<!-- Node25 -->
<g id="node25" class="node"><title>Node25</title>
<g id="a_node25"><a xlink:href="ghosts_8cpp.html" target="_top" xlink:title="Ghost particles and particle exchange. ">
<polygon fill="none" stroke="black" points="1959.5,-67.5 1959.5,-86.5 2028.5,-86.5 2028.5,-67.5 1959.5,-67.5"/>
<text text-anchor="middle" x="1994" y="-74.5" font-family="Helvetica,sans-Serif" font-size="10.00">ghosts.cpp</text>
</a>
</g>
</g>
<!-- Node2&#45;&gt;Node25 -->
<g id="edge26" class="edge"><title>Node2&#45;&gt;Node25</title>
<path fill="none" stroke="midnightblue" d="M1800.3,-121.222C1847.33,-110.728 1917.65,-95.0374 1959.36,-85.729"/>
<polygon fill="midnightblue" stroke="midnightblue" points="1799.34,-117.85 1790.35,-123.444 1800.87,-124.682 1799.34,-117.85"/>
</g>
<!-- Node4 -->
<g id="node4" class="node"><title>Node4</title>
<g id="a_node4"><a xlink:href="communication_8cpp.html" target="_top" xlink:title="communication.cpp">
<polygon fill="none" stroke="black" points="1577.5,-6 1577.5,-25 1690.5,-25 1690.5,-6 1577.5,-6"/>
<text text-anchor="middle" x="1634" y="-13" font-family="Helvetica,sans-Serif" font-size="10.00">communication.cpp</text>
</a>
</g>
</g>
<!-- Node3&#45;&gt;Node4 -->
<g id="edge3" class="edge"><title>Node3&#45;&gt;Node4</title>
<path fill="none" stroke="midnightblue" d="M971.106,-75.0789C1080.29,-72.5124 1347.65,-63.1895 1569,-31 1579.18,-29.5192 1590.14,-27.3154 1600.11,-25.0704"/>
<polygon fill="midnightblue" stroke="midnightblue" points="970.959,-71.5812 961.041,-75.3067 971.117,-78.5794 970.959,-71.5812"/>
</g>
<!-- Node5 -->
<g id="node5" class="node"><title>Node5</title>
<g id="a_node5"><a xlink:href="domain__decomposition_8cpp.html" target="_top" xlink:title="This file contains everything related to the cell system: domain decomposition. ">
<polygon fill="none" stroke="black" points="1339.5,-6 1339.5,-25 1490.5,-25 1490.5,-6 1339.5,-6"/>
<text text-anchor="middle" x="1415" y="-13" font-family="Helvetica,sans-Serif" font-size="10.00">domain_decomposition.cpp</text>
</a>
</g>
</g>
<!-- Node3&#45;&gt;Node5 -->
<g id="edge4" class="edge"><title>Node3&#45;&gt;Node5</title>
<path fill="none" stroke="midnightblue" d="M971.566,-71.411C1048.94,-64.1693 1201.29,-49.043 1330,-31 1342.3,-29.2751 1355.57,-27.1445 1367.87,-25.0525"/>
<polygon fill="midnightblue" stroke="midnightblue" points="970.789,-67.9681 961.156,-72.38 971.437,-74.938 970.789,-67.9681"/>
</g>
<!-- Node6 -->
<g id="node6" class="node"><title>Node6</title>
<g id="a_node6"><a xlink:href="elc_8cpp.html" target="_top" xlink:title="For more information about ELC, see elc.hpp. ">
<polygon fill="none" stroke="black" points="1508.5,-6 1508.5,-25 1559.5,-25 1559.5,-6 1508.5,-6"/>
<text text-anchor="middle" x="1534" y="-13" font-family="Helvetica,sans-Serif" font-size="10.00">elc.cpp</text>
</a>
</g>
</g>
<!-- Node3&#45;&gt;Node6 -->
<g id="edge5" class="edge"><title>Node3&#45;&gt;Node6</title>
<path fill="none" stroke="midnightblue" d="M971.374,-74.1842C1093.06,-69.4605 1400.33,-55.4274 1500,-31 1505.61,-29.6253 1511.48,-27.425 1516.73,-25.1495"/>
<polygon fill="midnightblue" stroke="midnightblue" points="971.075,-70.693 961.216,-74.5736 971.343,-77.6879 971.075,-70.693"/>
</g>
<!-- Node7 -->
<g id="node7" class="node"><title>Node7</title>
<g id="a_node7"><a xlink:href="initialize_8cpp.html" target="_top" xlink:title="Implementation of initialize.hpp. ">
<polygon fill="none" stroke="black" points="92.5,-6 92.5,-25 171.5,-25 171.5,-6 92.5,-6"/>
<text text-anchor="middle" x="132" y="-13" font-family="Helvetica,sans-Serif" font-size="10.00">initialize.cpp</text>
</a>
</g>
</g>
<!-- Node3&#45;&gt;Node7 -->
<g id="edge6" class="edge"><title>Node3&#45;&gt;Node7</title>
<path fill="none" stroke="midnightblue" d="M870.212,-74.455C725.522,-69.8091 313.054,-54.8012 180,-31 172.288,-29.6204 164.065,-27.4187 156.645,-25.1434"/>
<polygon fill="midnightblue" stroke="midnightblue" points="870.457,-77.9645 880.563,-74.7843 870.679,-70.968 870.457,-77.9645"/>
</g>
<!-- Node8 -->
<g id="node8" class="node"><title>Node8</title>
<g id="a_node8"><a xlink:href="core_2integrate_8cpp.html" target="_top" xlink:title="integrate.cpp">
<polygon fill="none" stroke="black" points="1708.5,-6 1708.5,-25 1789.5,-25 1789.5,-6 1708.5,-6"/>
<text text-anchor="middle" x="1749" y="-13" font-family="Helvetica,sans-Serif" font-size="10.00">integrate.cpp</text>
</a>
</g>
</g>
<!-- Node3&#45;&gt;Node8 -->
<g id="edge7" class="edge"><title>Node3&#45;&gt;Node8</title>
<path fill="none" stroke="midnightblue" d="M971.312,-74.6055C1120.55,-70.2299 1559.09,-55.5815 1700,-31 1708.04,-29.5974 1716.63,-27.3302 1724.34,-25.0011"/>
<polygon fill="midnightblue" stroke="midnightblue" points="970.969,-71.1138 961.075,-74.9027 971.173,-78.1109 970.969,-71.1138"/>
</g>
<!-- Node9 -->
<g id="node9" class="node"><title>Node9</title>
<g id="a_node9"><a xlink:href="integrate__sd_8cpp.html" target="_top" xlink:title="Stokesian dynamics integrator. ">
<polygon fill="none" stroke="black" points="189,-6 189,-25 287,-25 287,-6 189,-6"/>
<text text-anchor="middle" x="238" y="-13" font-family="Helvetica,sans-Serif" font-size="10.00">integrate_sd.cpp</text>
</a>
</g>
</g>
<!-- Node3&#45;&gt;Node9 -->
<g id="edge8" class="edge"><title>Node3&#45;&gt;Node9</title>
<path fill="none" stroke="midnightblue" d="M870.731,-75.3246C764.137,-73.2485 507.826,-64.8426 296,-31 286.776,-29.5262 276.868,-27.2966 267.899,-25.0247"/>
<polygon fill="midnightblue" stroke="midnightblue" points="870.811,-78.8266 880.874,-75.5117 870.94,-71.8278 870.811,-78.8266"/>
</g>
<!-- Node10 -->
<g id="node10" class="node"><title>Node10</title>
<g id="a_node10"><a xlink:href="interaction__data_8cpp.html" target="_top" xlink:title="Implementation of interaction_data.hpp. ">
<polygon fill="none" stroke="black" points="305,-6 305,-25 421,-25 421,-6 305,-6"/>
<text text-anchor="middle" x="363" y="-13" font-family="Helvetica,sans-Serif" font-size="10.00">interaction_data.cpp</text>
</a>
</g>
</g>
<!-- Node3&#45;&gt;Node10 -->
<g id="edge9" class="edge"><title>Node3&#45;&gt;Node10</title>
<path fill="none" stroke="midnightblue" d="M870.592,-73.4101C781.361,-68.3743 589.926,-55.5408 430,-31 419.766,-29.4295 408.749,-27.2519 398.665,-25.061"/>
<polygon fill="midnightblue" stroke="midnightblue" points="870.523,-76.9116 880.702,-73.9718 870.911,-69.9224 870.523,-76.9116"/>
</g>
<!-- Node3&#45;&gt;Node11 -->
<g id="edge10" class="edge"><title>Node3&#45;&gt;Node11</title>
<path fill="none" stroke="midnightblue" d="M870.625,-74.9556C713.783,-71.4422 235.572,-58.6851 83,-31 75.4202,-29.6246 67.3474,-27.3651 60.115,-25.0345"/>
<polygon fill="midnightblue" stroke="midnightblue" points="870.845,-78.4612 880.92,-75.1832 870.999,-71.4629 870.845,-78.4612"/>
</g>
<!-- Node12 -->
<g id="node12" class="node"><title>Node12</title>
<g id="a_node12"><a xlink:href="nsquare_8cpp.html" target="_top" xlink:title="Implementation of nsquare.h. ">
<polygon fill="none" stroke="black" points="439,-6 439,-25 515,-25 515,-6 439,-6"/>
<text text-anchor="middle" x="477" y="-13" font-family="Helvetica,sans-Serif" font-size="10.00">nsquare.cpp</text>
</a>
</g>
</g>
<!-- Node3&#45;&gt;Node12 -->
<g id="edge11" class="edge"><title>Node3&#45;&gt;Node12</title>
<path fill="none" stroke="midnightblue" d="M870.816,-73.2038C795.197,-68.3382 647.813,-56.3125 525,-31 517.497,-29.4536 509.481,-27.257 502.19,-25.0399"/>
<polygon fill="midnightblue" stroke="midnightblue" points="870.8,-76.7097 881,-73.8435 871.239,-69.7234 870.8,-76.7097"/>
</g>
<!-- Node13 -->
<g id="node13" class="node"><title>Node13</title>
<g id="a_node13"><a xlink:href="pressure_8cpp.html" target="_top" xlink:title="Implementation of pressure.h. ">
<polygon fill="none" stroke="black" points="533.5,-6 533.5,-25 612.5,-25 612.5,-6 533.5,-6"/>
<text text-anchor="middle" x="573" y="-13" font-family="Helvetica,sans-Serif" font-size="10.00">pressure.cpp</text>
</a>
</g>
</g>
<!-- Node3&#45;&gt;Node13 -->
<g id="edge12" class="edge"><title>Node3&#45;&gt;Node13</title>
<path fill="none" stroke="midnightblue" d="M870.232,-70.5299C810.43,-63.5874 708.292,-50.1648 622,-31 614.552,-29.3458 606.578,-27.1667 599.272,-25.0019"/>
<polygon fill="midnightblue" stroke="midnightblue" points="870.2,-74.049 880.533,-71.7102 870.997,-67.0945 870.2,-74.049"/>
</g>
<!-- Node14 -->
<g id="node14" class="node"><title>Node14</title>
<g id="a_node14"><a xlink:href="statistics_8cpp.html" target="_top" xlink:title="This is the place for analysis (so far...). ">
<polygon fill="none" stroke="black" points="630.5,-6 630.5,-25 711.5,-25 711.5,-6 630.5,-6"/>
<text text-anchor="middle" x="671" y="-13" font-family="Helvetica,sans-Serif" font-size="10.00">statistics.cpp</text>
</a>
</g>
</g>
<!-- Node3&#45;&gt;Node14 -->
<g id="edge13" class="edge"><title>Node3&#45;&gt;Node14</title>
<path fill="none" stroke="midnightblue" d="M871.072,-65.6497C830.49,-57.0249 771.84,-44.0785 721,-31 713.91,-29.1761 706.301,-27.0548 699.211,-25.0068"/>
<polygon fill="midnightblue" stroke="midnightblue" points="870.477,-69.1011 880.985,-67.7468 871.926,-62.2527 870.477,-69.1011"/>
</g>
<!-- Node15 -->
<g id="node15" class="node"><title>Node15</title>
<g id="a_node15"><a xlink:href="statistics__observable_8cpp.html" target="_top" xlink:title="statistics_observable.cpp">
<polygon fill="none" stroke="black" points="730,-6 730,-25 870,-25 870,-6 730,-6"/>
<text text-anchor="middle" x="800" y="-13" font-family="Helvetica,sans-Serif" font-size="10.00">statistics_observable.cpp</text>
</a>
</g>
</g>
<!-- Node3&#45;&gt;Node15 -->
<g id="edge14" class="edge"><title>Node3&#45;&gt;Node15</title>
<path fill="none" stroke="midnightblue" d="M894.605,-63.0207C871.139,-51.4816 837.507,-34.9433 817.304,-25.0091"/>
<polygon fill="midnightblue" stroke="midnightblue" points="893.145,-66.2032 903.664,-67.4751 896.234,-59.9215 893.145,-66.2032"/>
</g>
<!-- Node16 -->
<g id="node16" class="node"><title>Node16</title>
<g id="a_node16"><a xlink:href="verlet_8cpp.html" target="_top" xlink:title="Verlet list. ">
<polygon fill="none" stroke="black" points="888.5,-6 888.5,-25 953.5,-25 953.5,-6 888.5,-6"/>
<text text-anchor="middle" x="921" y="-13" font-family="Helvetica,sans-Serif" font-size="10.00">verlet.cpp</text>
</a>
</g>
</g>
<!-- Node3&#45;&gt;Node16 -->
<g id="edge15" class="edge"><title>Node3&#45;&gt;Node16</title>
<path fill="none" stroke="midnightblue" d="M921,-57.3165C921,-46.4962 921,-33.398 921,-25.0091"/>
<polygon fill="midnightblue" stroke="midnightblue" points="917.5,-57.4751 921,-67.4751 924.5,-57.4751 917.5,-57.4751"/>
</g>
<!-- Node17 -->
<g id="node17" class="node"><title>Node17</title>
<g id="a_node17"><a xlink:href="virtual__sites_8cpp.html" target="_top" xlink:title="virtual_sites.cpp">
<polygon fill="none" stroke="black" points="971.5,-6 971.5,-25 1068.5,-25 1068.5,-6 971.5,-6"/>
<text text-anchor="middle" x="1020" y="-13" font-family="Helvetica,sans-Serif" font-size="10.00">virtual_sites.cpp</text>
</a>
</g>
</g>
<!-- Node3&#45;&gt;Node17 -->
<g id="edge16" class="edge"><title>Node3&#45;&gt;Node17</title>
<path fill="none" stroke="midnightblue" d="M943.888,-62.2441C963.013,-50.7498 989.68,-34.7226 1005.84,-25.0091"/>
<polygon fill="midnightblue" stroke="midnightblue" points="941.952,-59.3238 935.184,-67.4751 945.558,-65.3236 941.952,-59.3238"/>
</g>
<!-- Node18 -->
<g id="node18" class="node"><title>Node18</title>
<g id="a_node18"><a xlink:href="pressure__tcl_8cpp.html" target="_top" xlink:title="pressure_tcl.cpp">
<polygon fill="none" stroke="black" points="1087,-6 1087,-25 1183,-25 1183,-6 1087,-6"/>
<text text-anchor="middle" x="1135" y="-13" font-family="Helvetica,sans-Serif" font-size="10.00">pressure_tcl.cpp</text>
</a>
</g>
</g>
<!-- Node3&#45;&gt;Node18 -->
<g id="edge17" class="edge"><title>Node3&#45;&gt;Node18</title>
<path fill="none" stroke="midnightblue" d="M961.465,-64.7493C1003.04,-53.1894 1066.84,-35.4511 1104.4,-25.0091"/>
<polygon fill="midnightblue" stroke="midnightblue" points="960.358,-61.4242 951.661,-67.4751 962.233,-68.1684 960.358,-61.4242"/>
</g>
<!-- Node19 -->
<g id="node19" class="node"><title>Node19</title>
<g id="a_node19"><a xlink:href="statistics__observable__tcl_8cpp.html" target="_top" xlink:title="statistics_observable\l_tcl.cpp">
<polygon fill="none" stroke="black" points="1201,-0.5 1201,-30.5 1321,-30.5 1321,-0.5 1201,-0.5"/>
<text text-anchor="start" x="1209" y="-18.5" font-family="Helvetica,sans-Serif" font-size="10.00">statistics_observable</text>
<text text-anchor="middle" x="1261" y="-7.5" font-family="Helvetica,sans-Serif" font-size="10.00">_tcl.cpp</text>
</a>
</g>
</g>
<!-- Node3&#45;&gt;Node19 -->
<g id="edge18" class="edge"><title>Node3&#45;&gt;Node19</title>
<path fill="none" stroke="midnightblue" d="M971.125,-68.3313C1025.6,-59.8441 1115.16,-45.4465 1192,-31 1194.89,-30.4572 1197.84,-29.8887 1200.82,-29.3041"/>
<polygon fill="midnightblue" stroke="midnightblue" points="970.387,-64.904 961.042,-69.897 971.461,-71.8211 970.387,-64.904"/>
</g>
<!-- Node20&#45;&gt;Node4 -->
<g id="edge20" class="edge"><title>Node20&#45;&gt;Node4</title>
<path fill="none" stroke="midnightblue" d="M1675.67,-59.9975C1664.88,-48.7356 1650.86,-34.1044 1642.15,-25.0091"/>
<polygon fill="midnightblue" stroke="midnightblue" points="1673.39,-62.6751 1682.83,-67.4751 1678.44,-57.8327 1673.39,-62.6751"/>
</g>
<!-- Node20&#45;&gt;Node8 -->
<g id="edge21" class="edge"><title>Node20&#45;&gt;Node8</title>
<path fill="none" stroke="midnightblue" d="M1706.6,-59.9975C1717.58,-48.7356 1731.84,-34.1044 1740.71,-25.0091"/>
<polygon fill="midnightblue" stroke="midnightblue" points="1703.78,-57.8712 1699.31,-67.4751 1708.8,-62.7574 1703.78,-57.8712"/>
</g>
<!-- Node21 -->
<g id="node21" class="node"><title>Node21</title>
<g id="a_node21"><a xlink:href="minimize__energy_8cpp.html" target="_top" xlink:title="minimize_energy.cpp">
<polygon fill="none" stroke="black" points="1808,-6 1808,-25 1928,-25 1928,-6 1808,-6"/>
<text text-anchor="middle" x="1868" y="-13" font-family="Helvetica,sans-Serif" font-size="10.00">minimize_energy.cpp</text>
</a>
</g>
</g>
<!-- Node20&#45;&gt;Node21 -->
<g id="edge22" class="edge"><title>Node20&#45;&gt;Node21</title>
<path fill="none" stroke="midnightblue" d="M1726.01,-64.232C1760.41,-52.666 1812.08,-35.2966 1842.69,-25.0091"/>
<polygon fill="midnightblue" stroke="midnightblue" points="1724.72,-60.9711 1716.36,-67.4751 1726.95,-67.6062 1724.72,-60.9711"/>
</g>
<!-- Node22 -->
<g id="node22" class="node"><title>Node22</title>
<g id="a_node22"><a xlink:href="minimize__energy__tcl_8cpp.html" target="_top" xlink:title="minimize_energy_tcl.cpp">
<polygon fill="none" stroke="black" points="1946.5,-6 1946.5,-25 2085.5,-25 2085.5,-6 1946.5,-6"/>
<text text-anchor="middle" x="2016" y="-13" font-family="Helvetica,sans-Serif" font-size="10.00">minimize_energy_tcl.cpp</text>
</a>
</g>
</g>
<!-- Node20&#45;&gt;Node22 -->
<g id="edge23" class="edge"><title>Node20&#45;&gt;Node22</title>
<path fill="none" stroke="midnightblue" d="M1747.65,-65.6478C1797.51,-56.5332 1872.08,-42.8965 1937,-31 1947.56,-29.0648 1958.92,-26.9819 1969.63,-25.0153"/>
<polygon fill="midnightblue" stroke="midnightblue" points="1746.91,-62.2241 1737.7,-67.4652 1748.17,-69.11 1746.91,-62.2241"/>
</g>
</g>
</svg>
