<?xml version="1.0" encoding="UTF-8" standalone="no"?>
<!DOCTYPE svg PUBLIC "-//W3C//DTD SVG 1.1//EN"
 "http://www.w3.org/Graphics/SVG/1.1/DTD/svg11.dtd">
<!-- Generated by graphviz version 2.38.0 (20140413.2041)
 -->
<!-- Title: Constraint Pages: 1 -->
<!--zoomable 577 -->
<svg id="main" version="1.1" xmlns="http://www.w3.org/2000/svg" xmlns:xlink="http://www.w3.org/1999/xlink" xml:space="preserve" onload="init(evt)">
<style type="text/css"><![CDATA[
.edge:hover path { stroke: red; }
.edge:hover polygon { stroke: red; fill: red; }
]]></style>
<script type="text/javascript"><![CDATA[
var edges = document.getElementsByTagName('g');
if (edges && edges.length) {
  for (var i=0;i<edges.length;i++) {
    if (edges[i].id.substr(0,4)=='edge') {
      edges[i].setAttribute('class','edge');
    }
  }
}
]]></script>
        <defs>
                <circle id="rim" cx="0" cy="0" r="7"/>
                <circle id="rim2" cx="0" cy="0" r="3.5"/>
                <g id="zoomPlus">
                        <use xlink:href="#rim" fill="#404040">
                                <set attributeName="fill" to="#808080" begin="zoomplus.mouseover" end="zoomplus.mouseout"/>
                        </use>
                        <path d="M-4,0h8M0,-4v8" fill="none" stroke="white" stroke-width="1.5" pointer-events="none"/>
                </g>
                <g id="zoomMin">
                        <use xlink:href="#rim" fill="#404040">
                                <set attributeName="fill" to="#808080" begin="zoomminus.mouseover" end="zoomminus.mouseout"/>
                        </use>
                        <path d="M-4,0h8" fill="none" stroke="white" stroke-width="1.5" pointer-events="none"/>
                </g>
                <g id="dirArrow">
                        <path fill="none" stroke="white" stroke-width="1.5" d="M0,-3.0v7 M-2.5,-0.5L0,-3.0L2.5,-0.5"/>
                </g>
               <g id="resetDef">
                       <use xlink:href="#rim2" fill="#404040">
                               <set attributeName="fill" to="#808080" begin="reset.mouseover" end="reset.mouseout"/>
                       </use>
               </g>
        </defs>

<script type="text/javascript">
var viewWidth = 717;
var viewHeight = 577;
var sectionId = 'dynsection-0';
</script>
<script xlink:href="svgpan.js"/>
<svg id="graph" class="graph">
<g id="viewport">
<title>Constraint</title>
<!-- Node1 -->
<g id="node1" class="node"><title>Node1</title>
<polygon fill="#bfbfbf" stroke="black" points="642,-278.5 642,-297.5 709,-297.5 709,-278.5 642,-278.5"/>
<text text-anchor="middle" x="675.5" y="-285.5" font-family="Helvetica,sans-Serif" font-size="10.00">Constraint</text>
</g>
<!-- Node2 -->
<g id="node2" class="node"><title>Node2</title>
<g id="a_node2"><a xlink:href="structConstraint__plate.html" target="_top" xlink:title="Parameters for a PLATE constraint. ">
<polygon fill="none" stroke="black" points="420.5,-544.5 420.5,-563.5 517.5,-563.5 517.5,-544.5 420.5,-544.5"/>
<text text-anchor="middle" x="469" y="-551.5" font-family="Helvetica,sans-Serif" font-size="10.00">Constraint_plate</text>
</a>
</g>
</g>
<!-- Node2&#45;&gt;Node1 -->
<g id="edge1" class="edge"><title>Node2&#45;&gt;Node1</title>
<path fill="none" stroke="#9a32cd" stroke-dasharray="5,2" d="M528.005,-560.753C560.228,-561.184 598.781,-555.697 624,-532 659.071,-499.045 671.327,-339.056 673.934,-297.748"/>
<polygon fill="#9a32cd" stroke="#9a32cd" points="527.9,-557.248 517.791,-560.421 527.672,-564.244 527.9,-557.248"/>
<text text-anchor="middle" x="591.5" y="-561" font-family="Helvetica,sans-Serif" font-size="10.00"> plate</text>
</g>
<!-- Node3 -->
<g id="node3" class="node"><title>Node3</title>
<g id="a_node3"><a xlink:href="structConstraint__plane.html" target="_top" xlink:title="Parameters for a plane constraint which is needed for tunable&#45;slip boundary conditions. ">
<polygon fill="none" stroke="black" points="419.5,-506.5 419.5,-525.5 518.5,-525.5 518.5,-506.5 419.5,-506.5"/>
<text text-anchor="middle" x="469" y="-513.5" font-family="Helvetica,sans-Serif" font-size="10.00">Constraint_plane</text>
</a>
</g>
</g>
<!-- Node3&#45;&gt;Node1 -->
<g id="edge2" class="edge"><title>Node3&#45;&gt;Node1</title>
<path fill="none" stroke="#9a32cd" stroke-dasharray="5,2" d="M528.706,-522.416C560.615,-522.605 598.626,-516.99 624,-494 653.949,-466.865 669.666,-334.817 673.539,-297.714"/>
<polygon fill="#9a32cd" stroke="#9a32cd" points="528.668,-518.914 518.585,-522.165 528.495,-525.911 528.668,-518.914"/>
<text text-anchor="middle" x="591.5" y="-524" font-family="Helvetica,sans-Serif" font-size="10.00"> plane</text>
</g>
<!-- Node4 -->
<g id="node4" class="node"><title>Node4</title>
<g id="a_node4"><a xlink:href="structConstraint__rod.html" target="_top" xlink:title="Parameters for a ROD constraint. ">
<polygon fill="none" stroke="black" points="425,-468.5 425,-487.5 513,-487.5 513,-468.5 425,-468.5"/>
<text text-anchor="middle" x="469" y="-475.5" font-family="Helvetica,sans-Serif" font-size="10.00">Constraint_rod</text>
</a>
</g>
</g>
<!-- Node4&#45;&gt;Node1 -->
<g id="edge3" class="edge"><title>Node4&#45;&gt;Node1</title>
<path fill="none" stroke="#9a32cd" stroke-dasharray="5,2" d="M523.324,-481.82C556.064,-481.266 596.794,-474.956 624,-451 670.915,-409.69 674.8,-325.745 674.716,-297.51"/>
<polygon fill="#9a32cd" stroke="#9a32cd" points="523.004,-478.32 513.002,-481.814 522.999,-485.32 523.004,-478.32"/>
<text text-anchor="middle" x="591.5" y="-482" font-family="Helvetica,sans-Serif" font-size="10.00"> rod</text>
</g>
<!-- Node5 -->
<g id="node5" class="node"><title>Node5</title>
<g id="a_node5"><a xlink:href="structConstraint__sphere.html" target="_top" xlink:title="Parameters for a SPHERE constraint. ">
<polygon fill="none" stroke="black" points="416.5,-430.5 416.5,-449.5 521.5,-449.5 521.5,-430.5 416.5,-430.5"/>
<text text-anchor="middle" x="469" y="-437.5" font-family="Helvetica,sans-Serif" font-size="10.00">Constraint_sphere</text>
</a>
</g>
</g>
<!-- Node5&#45;&gt;Node1 -->
<g id="edge4" class="edge"><title>Node5&#45;&gt;Node1</title>
<path fill="none" stroke="#9a32cd" stroke-dasharray="5,2" d="M531.807,-440.228C562.518,-437.335 598.428,-429.049 624,-408 659.427,-378.84 670.423,-320.47 673.458,-297.551"/>
<polygon fill="#9a32cd" stroke="#9a32cd" points="531.315,-436.755 521.614,-441.013 531.853,-443.735 531.315,-436.755"/>
<text text-anchor="middle" x="591.5" y="-439" font-family="Helvetica,sans-Serif" font-size="10.00"> sph</text>
</g>
<!-- Node6 -->
<g id="node6" class="node"><title>Node6</title>
<g id="a_node6"><a xlink:href="structConstraint__wall.html" target="_top" xlink:title="Parameters for a WALL constraint (or a plane if you like that more). ">
<polygon fill="none" stroke="black" points="423,-392.5 423,-411.5 515,-411.5 515,-392.5 423,-392.5"/>
<text text-anchor="middle" x="469" y="-399.5" font-family="Helvetica,sans-Serif" font-size="10.00">Constraint_wall</text>
</a>
</g>
</g>
<!-- Node6&#45;&gt;Node1 -->
<g id="edge5" class="edge"><title>Node6&#45;&gt;Node1</title>
<path fill="none" stroke="#9a32cd" stroke-dasharray="5,2" d="M525.42,-399.166C556.736,-395.222 595.247,-386.222 624,-366 648.939,-348.46 664.58,-314.304 671.058,-297.627"/>
<polygon fill="#9a32cd" stroke="#9a32cd" points="524.649,-395.73 515.099,-400.319 525.426,-402.687 524.649,-395.73"/>
<text text-anchor="middle" x="591.5" y="-396" font-family="Helvetica,sans-Serif" font-size="10.00"> wal</text>
</g>
<!-- Node7 -->
<g id="node7" class="node"><title>Node7</title>
<g id="a_node7"><a xlink:href="structConstraint__cylinder.html" target="_top" xlink:title="Parameters for a CYLINDER constraint. ">
<polygon fill="none" stroke="black" points="413.5,-354.5 413.5,-373.5 524.5,-373.5 524.5,-354.5 413.5,-354.5"/>
<text text-anchor="middle" x="469" y="-361.5" font-family="Helvetica,sans-Serif" font-size="10.00">Constraint_cylinder</text>
</a>
</g>
</g>
<!-- Node7&#45;&gt;Node1 -->
<g id="edge6" class="edge"><title>Node7&#45;&gt;Node1</title>
<path fill="none" stroke="#9a32cd" stroke-dasharray="5,2" d="M534.984,-356.016C563.328,-350.843 596.331,-342.458 624,-329 640.249,-321.097 655.913,-307.057 665.376,-297.638"/>
<polygon fill="#9a32cd" stroke="#9a32cd" points="534.029,-352.629 524.771,-357.78 535.221,-359.527 534.029,-352.629"/>
<text text-anchor="middle" x="591.5" y="-354" font-family="Helvetica,sans-Serif" font-size="10.00"> cyl</text>
</g>
<!-- Node8 -->
<g id="node8" class="node"><title>Node8</title>
<g id="a_node8"><a xlink:href="structParticle.html" target="_top" xlink:title="Struct holding all information for one particle. ">
<polygon fill="none" stroke="black" points="442.5,-316.5 442.5,-335.5 495.5,-335.5 495.5,-316.5 442.5,-316.5"/>
<text text-anchor="middle" x="469" y="-323.5" font-family="Helvetica,sans-Serif" font-size="10.00">Particle</text>
</a>
</g>
</g>
<!-- Node8&#45;&gt;Node1 -->
<g id="edge7" class="edge"><title>Node8&#45;&gt;Node1</title>
<path fill="none" stroke="#9a32cd" stroke-dasharray="5,2" d="M505.515,-321.654C536.868,-317.535 583.72,-310.691 624,-302 629.959,-300.714 636.257,-299.143 642.31,-297.523"/>
<polygon fill="#9a32cd" stroke="#9a32cd" points="504.979,-318.194 495.509,-322.945 505.875,-325.136 504.979,-318.194"/>
<text text-anchor="middle" x="591.5" y="-317" font-family="Helvetica,sans-Serif" font-size="10.00"> part_rep</text>
</g>
<!-- Node9 -->
<g id="node9" class="node"><title>Node9</title>
<g id="a_node9"><a xlink:href="structParticleProperties.html" target="_top" xlink:title="Properties of a particle which are not supposed to change during the integration, but have to be know...">
<polygon fill="none" stroke="black" points="200,-453.5 200,-472.5 302,-472.5 302,-453.5 200,-453.5"/>
<text text-anchor="middle" x="251" y="-460.5" font-family="Helvetica,sans-Serif" font-size="10.00">ParticleProperties</text>
</a>
</g>
</g>
<!-- Node9&#45;&gt;Node8 -->
<g id="edge8" class="edge"><title>Node9&#45;&gt;Node8</title>
<path fill="none" stroke="#9a32cd" stroke-dasharray="5,2" d="M309.643,-450.879C316.915,-448.843 324.188,-446.549 331,-444 353.528,-435.569 364.165,-437.934 379,-419 399.876,-392.357 373.341,-369.206 397,-345 408.773,-332.955 427.282,-328.279 442.45,-326.577"/>
<polygon fill="#9a32cd" stroke="#9a32cd" points="308.54,-447.551 299.771,-453.498 310.334,-454.317 308.54,-447.551"/>
<text text-anchor="middle" x="364" y="-442" font-family="Helvetica,sans-Serif" font-size="10.00"> p</text>
</g>
<!-- Node10 -->
<g id="node10" class="node"><title>Node10</title>
<g id="a_node10"><a xlink:href="structParticleParametersSwimming.html" target="_top" xlink:title="ParticleParametersSwimming">
<polygon fill="none" stroke="black" points="171,-415.5 171,-434.5 331,-434.5 331,-415.5 171,-415.5"/>
<text text-anchor="middle" x="251" y="-422.5" font-family="Helvetica,sans-Serif" font-size="10.00">ParticleParametersSwimming</text>
</a>
</g>
</g>
<!-- Node10&#45;&gt;Node8 -->
<g id="edge9" class="edge"><title>Node10&#45;&gt;Node8</title>
<path fill="none" stroke="#9a32cd" stroke-dasharray="5,2" d="M303.357,-413.025C312.58,-410.767 322.09,-408.369 331,-406 352.476,-400.289 362.656,-407.057 379,-392 395.452,-376.844 380.38,-359.971 397,-345 409.325,-333.898 427.441,-329.171 442.289,-327.209"/>
<polygon fill="#9a32cd" stroke="#9a32cd" points="302.399,-409.656 293.504,-415.412 304.047,-416.459 302.399,-409.656"/>
<text text-anchor="middle" x="364" y="-407" font-family="Helvetica,sans-Serif" font-size="10.00"> swim</text>
</g>
<!-- Node11 -->
<g id="node11" class="node"><title>Node11</title>
<g id="a_node11"><a xlink:href="structParticleForce.html" target="_top" xlink:title="Force information on a particle. ">
<polygon fill="none" stroke="black" points="211.5,-377.5 211.5,-396.5 290.5,-396.5 290.5,-377.5 211.5,-377.5"/>
<text text-anchor="middle" x="251" y="-384.5" font-family="Helvetica,sans-Serif" font-size="10.00">ParticleForce</text>
</a>
</g>
</g>
<!-- Node11&#45;&gt;Node8 -->
<g id="edge10" class="edge"><title>Node11&#45;&gt;Node8</title>
<path fill="none" stroke="#9a32cd" stroke-dasharray="5,2" d="M300.817,-386.033C325.54,-383.742 355.264,-378.114 379,-365 389.467,-359.217 386.803,-351.248 397,-345 410.709,-336.6 428.123,-331.866 442.274,-329.224"/>
<polygon fill="#9a32cd" stroke="#9a32cd" points="300.262,-382.565 290.56,-386.823 300.799,-389.545 300.262,-382.565"/>
<text text-anchor="middle" x="364" y="-380" font-family="Helvetica,sans-Serif" font-size="10.00"> f</text>
</g>
<!-- Node12 -->
<g id="node12" class="node"><title>Node12</title>
<g id="a_node12"><a xlink:href="structIntList.html" target="_top" xlink:title="Integer list. ">
<polygon fill="none" stroke="black" points="227.5,-339.5 227.5,-358.5 274.5,-358.5 274.5,-339.5 227.5,-339.5"/>
<text text-anchor="middle" x="251" y="-346.5" font-family="Helvetica,sans-Serif" font-size="10.00">IntList</text>
</a>
</g>
</g>
<!-- Node12&#45;&gt;Node8 -->
<g id="edge11" class="edge"><title>Node12&#45;&gt;Node8</title>
<path fill="none" stroke="#9a32cd" stroke-dasharray="5,2" d="M284.692,-345.519C327.842,-340.924 402.927,-332.929 442.272,-328.74"/>
<polygon fill="#9a32cd" stroke="#9a32cd" points="284.281,-342.043 274.708,-346.582 285.022,-349.003 284.281,-342.043"/>
<text text-anchor="middle" x="364" y="-353" font-family="Helvetica,sans-Serif" font-size="10.00"> el</text>
<text text-anchor="middle" x="364" y="-342" font-family="Helvetica,sans-Serif" font-size="10.00">bl</text>
</g>
<!-- Node13 -->
<g id="node13" class="node"><title>Node13</title>
<g id="a_node13"><a xlink:href="structParticleLocal.html" target="_top" xlink:title="Information on a particle that is needed only on the node the particle belongs to. ">
<polygon fill="none" stroke="black" points="212,-254.5 212,-273.5 290,-273.5 290,-254.5 212,-254.5"/>
<text text-anchor="middle" x="251" y="-261.5" font-family="Helvetica,sans-Serif" font-size="10.00">ParticleLocal</text>
</a>
</g>
</g>
<!-- Node13&#45;&gt;Node8 -->
<g id="edge12" class="edge"><title>Node13&#45;&gt;Node8</title>
<path fill="none" stroke="#9a32cd" stroke-dasharray="5,2" d="M300.192,-263.987C325.152,-265.884 355.283,-271.279 379,-285 389.935,-291.326 386.386,-300.148 397,-307 410.615,-315.79 428.195,-320.534 442.455,-323.084"/>
<polygon fill="#9a32cd" stroke="#9a32cd" points="300.391,-260.493 290.2,-263.39 299.973,-267.48 300.391,-260.493"/>
<text text-anchor="middle" x="364" y="-288" font-family="Helvetica,sans-Serif" font-size="10.00"> l</text>
</g>
<!-- Node14 -->
<g id="node14" class="node"><title>Node14</title>
<g id="a_node14"><a xlink:href="structParticleMomentum.html" target="_top" xlink:title="Momentum information on a particle. ">
<polygon fill="none" stroke="black" points="0,-283.5 0,-302.5 108,-302.5 108,-283.5 0,-283.5"/>
<text text-anchor="middle" x="54" y="-290.5" font-family="Helvetica,sans-Serif" font-size="10.00">ParticleMomentum</text>
</a>
</g>
</g>
<!-- Node14&#45;&gt;Node8 -->
<g id="edge16" class="edge"><title>Node14&#45;&gt;Node8</title>
<path fill="none" stroke="#9a32cd" stroke-dasharray="5,2" d="M118.214,-298.051C210.645,-305.437 378.615,-318.858 442.452,-323.959"/>
<polygon fill="#9a32cd" stroke="#9a32cd" points="118.394,-294.554 108.147,-297.247 117.836,-301.532 118.394,-294.554"/>
<text text-anchor="middle" x="251" y="-318" font-family="Helvetica,sans-Serif" font-size="10.00"> m</text>
</g>
<!-- Node14&#45;&gt;Node13 -->
<g id="edge13" class="edge"><title>Node14&#45;&gt;Node13</title>
<path fill="none" stroke="#9a32cd" stroke-dasharray="5,2" d="M118.27,-283.591C149.129,-279.001 185.228,-273.633 211.824,-269.677"/>
<polygon fill="#9a32cd" stroke="#9a32cd" points="117.403,-280.181 108.027,-285.114 118.433,-287.105 117.403,-280.181"/>
<text text-anchor="middle" x="139.5" y="-285" font-family="Helvetica,sans-Serif" font-size="10.00"> m_ls</text>
</g>
<!-- Node15 -->
<g id="node15" class="node"><title>Node15</title>
<g id="a_node15"><a xlink:href="structParticlePosition.html" target="_top" xlink:title="Positional information on a particle. ">
<polygon fill="none" stroke="black" points="8,-231.5 8,-250.5 100,-250.5 100,-231.5 8,-231.5"/>
<text text-anchor="middle" x="54" y="-238.5" font-family="Helvetica,sans-Serif" font-size="10.00">ParticlePosition</text>
</a>
</g>
</g>
<!-- Node15&#45;&gt;Node8 -->
<g id="edge17" class="edge"><title>Node15&#45;&gt;Node8</title>
<path fill="none" stroke="#9a32cd" stroke-dasharray="5,2" d="M107.073,-229.552C163.7,-219.4 256.134,-209.604 331,-234 356.103,-242.18 362.162,-248.664 379,-269 390.918,-283.394 382.646,-295.033 397,-307 409.643,-317.54 427.573,-322.283 442.251,-324.394"/>
<polygon fill="#9a32cd" stroke="#9a32cd" points="106.117,-226.17 96.9285,-231.444 107.401,-233.051 106.117,-226.17"/>
<text text-anchor="middle" x="251" y="-237" font-family="Helvetica,sans-Serif" font-size="10.00"> r</text>
</g>
<!-- Node15&#45;&gt;Node13 -->
<g id="edge14" class="edge"><title>Node15&#45;&gt;Node13</title>
<path fill="none" stroke="#9a32cd" stroke-dasharray="5,2" d="M110.754,-246.382C124.569,-247.8 139.33,-249.387 153,-251 172.405,-253.29 193.95,-256.146 211.797,-258.597"/>
<polygon fill="#9a32cd" stroke="#9a32cd" points="110.71,-242.859 100.408,-245.332 110.004,-249.824 110.71,-242.859"/>
<text text-anchor="middle" x="139.5" y="-254" font-family="Helvetica,sans-Serif" font-size="10.00"> r_ls</text>
</g>
<!-- Node16 -->
<g id="node16" class="node"><title>Node16</title>
<g id="a_node16"><a xlink:href="structParticleLatticeCoupling.html" target="_top" xlink:title="Data related to the Lattice Boltzmann hydrodynamic coupling. ">
<polygon fill="none" stroke="black" points="187,-161.5 187,-180.5 315,-180.5 315,-161.5 187,-161.5"/>
<text text-anchor="middle" x="251" y="-168.5" font-family="Helvetica,sans-Serif" font-size="10.00">ParticleLatticeCoupling</text>
</a>
</g>
</g>
<!-- Node16&#45;&gt;Node8 -->
<g id="edge15" class="edge"><title>Node16&#45;&gt;Node8</title>
<path fill="none" stroke="#9a32cd" stroke-dasharray="5,2" d="M325.2,-168.038C345.016,-170.908 364.867,-177.745 379,-192 415.423,-228.738 362.412,-268.529 397,-307 408.346,-319.62 427.067,-324.256 442.437,-325.797"/>
<polygon fill="#9a32cd" stroke="#9a32cd" points="325.517,-164.552 315.187,-166.907 324.731,-171.507 325.517,-164.552"/>
<text text-anchor="middle" x="364" y="-195" font-family="Helvetica,sans-Serif" font-size="10.00"> lc</text>
</g>
<!-- Node17 -->
<g id="node17" class="node"><title>Node17</title>
<g id="a_node17"><a xlink:href="structConstraint__pore.html" target="_top" xlink:title="Parameters for a PORE constraint. ">
<polygon fill="none" stroke="black" points="422,-278.5 422,-297.5 516,-297.5 516,-278.5 422,-278.5"/>
<text text-anchor="middle" x="469" y="-285.5" font-family="Helvetica,sans-Serif" font-size="10.00">Constraint_pore</text>
</a>
</g>
</g>
<!-- Node17&#45;&gt;Node1 -->
<g id="edge18" class="edge"><title>Node17&#45;&gt;Node1</title>
<path fill="none" stroke="#9a32cd" stroke-dasharray="5,2" d="M526.334,-288C563.483,-288 610.838,-288 641.881,-288"/>
<polygon fill="#9a32cd" stroke="#9a32cd" points="526.149,-284.5 516.149,-288 526.149,-291.5 526.149,-284.5"/>
<text text-anchor="middle" x="591.5" y="-291" font-family="Helvetica,sans-Serif" font-size="10.00"> pore</text>
</g>
<!-- Node18 -->
<g id="node18" class="node"><title>Node18</title>
<g id="a_node18"><a xlink:href="structConstraint__rhomboid.html" target="_top" xlink:title="Parameters for a RHOMBOID constraint. ">
<polygon fill="none" stroke="black" points="409.5,-240.5 409.5,-259.5 528.5,-259.5 528.5,-240.5 409.5,-240.5"/>
<text text-anchor="middle" x="469" y="-247.5" font-family="Helvetica,sans-Serif" font-size="10.00">Constraint_rhomboid</text>
</a>
</g>
</g>
<!-- Node18&#45;&gt;Node1 -->
<g id="edge19" class="edge"><title>Node18&#45;&gt;Node1</title>
<path fill="none" stroke="#9a32cd" stroke-dasharray="5,2" d="M538.89,-258.184C565.62,-261.908 596.387,-266.869 624,-273 630.875,-274.526 638.183,-276.492 645.041,-278.494"/>
<polygon fill="#9a32cd" stroke="#9a32cd" points="539.239,-254.699 528.858,-256.817 538.294,-261.635 539.239,-254.699"/>
<text text-anchor="middle" x="591.5" y="-276" font-family="Helvetica,sans-Serif" font-size="10.00"> rhomboid</text>
</g>
<!-- Node19 -->
<g id="node19" class="node"><title>Node19</title>
<g id="a_node19"><a xlink:href="structConstraint__maze.html" target="_top" xlink:title="Parameters for a MAZE constraint. ">
<polygon fill="none" stroke="black" points="419.5,-202.5 419.5,-221.5 518.5,-221.5 518.5,-202.5 419.5,-202.5"/>
<text text-anchor="middle" x="469" y="-209.5" font-family="Helvetica,sans-Serif" font-size="10.00">Constraint_maze</text>
</a>
</g>
</g>
<!-- Node19&#45;&gt;Node1 -->
<g id="edge20" class="edge"><title>Node19&#45;&gt;Node1</title>
<path fill="none" stroke="#9a32cd" stroke-dasharray="5,2" d="M528.926,-218.914C558.539,-223.974 594.335,-232.571 624,-247 640.249,-254.903 655.913,-268.943 665.376,-278.362"/>
<polygon fill="#9a32cd" stroke="#9a32cd" points="529.16,-215.406 518.73,-217.268 528.044,-222.317 529.16,-215.406"/>
<text text-anchor="middle" x="591.5" y="-250" font-family="Helvetica,sans-Serif" font-size="10.00"> maze</text>
</g>
<!-- Node20 -->
<g id="node20" class="node"><title>Node20</title>
<g id="a_node20"><a xlink:href="structConstraint__ext__magn__field.html" target="_top" xlink:title="Parameters for a EXTERNAL MAGNETIC FIELD constraint. ">
<polygon fill="none" stroke="black" points="408.5,-153 408.5,-183 529.5,-183 529.5,-153 408.5,-153"/>
<text text-anchor="start" x="416.5" y="-171" font-family="Helvetica,sans-Serif" font-size="10.00">Constraint_ext_magn</text>
<text text-anchor="middle" x="469" y="-160" font-family="Helvetica,sans-Serif" font-size="10.00">_field</text>
</a>
</g>
</g>
<!-- Node20&#45;&gt;Node1 -->
<g id="edge21" class="edge"><title>Node20&#45;&gt;Node1</title>
<path fill="none" stroke="#9a32cd" stroke-dasharray="5,2" d="M539.408,-176.49C567.695,-182.585 599.445,-193.047 624,-211 648.262,-228.738 664.124,-261.95 670.839,-278.342"/>
<polygon fill="#9a32cd" stroke="#9a32cd" points="540.058,-173.051 529.565,-174.512 538.679,-179.914 540.058,-173.051"/>
<text text-anchor="middle" x="591.5" y="-214" font-family="Helvetica,sans-Serif" font-size="10.00"> emfield</text>
</g>
<!-- Node21 -->
<g id="node21" class="node"><title>Node21</title>
<g id="a_node21"><a xlink:href="structConstraint__hollow__cone.html" target="_top" xlink:title="Parameters for a HOLLOW_CONE constraint. ">
<polygon fill="none" stroke="black" points="402.5,-114.5 402.5,-133.5 535.5,-133.5 535.5,-114.5 402.5,-114.5"/>
<text text-anchor="middle" x="469" y="-121.5" font-family="Helvetica,sans-Serif" font-size="10.00">Constraint_hollow_cone</text>
</a>
</g>
</g>
<!-- Node21&#45;&gt;Node1 -->
<g id="edge22" class="edge"><title>Node21&#45;&gt;Node1</title>
<path fill="none" stroke="#9a32cd" stroke-dasharray="5,2" d="M545.81,-131.192C573.14,-137.131 602.508,-147.826 624,-167 658.312,-197.61 669.918,-255.251 673.287,-278.206"/>
<polygon fill="#9a32cd" stroke="#9a32cd" points="546.343,-127.729 535.852,-129.212 544.978,-134.595 546.343,-127.729"/>
<text text-anchor="middle" x="591.5" y="-170" font-family="Helvetica,sans-Serif" font-size="10.00"> hollow_cone</text>
</g>
<!-- Node22 -->
<g id="node22" class="node"><title>Node22</title>
<g id="a_node22"><a xlink:href="structConstraint__spherocylinder.html" target="_top" xlink:title="Parameters for a SPHEROCYLINDER constraint. ">
<polygon fill="none" stroke="black" points="397,-76.5 397,-95.5 541,-95.5 541,-76.5 397,-76.5"/>
<text text-anchor="middle" x="469" y="-83.5" font-family="Helvetica,sans-Serif" font-size="10.00">Constraint_spherocylinder</text>
</a>
</g>
</g>
<!-- Node22&#45;&gt;Node1 -->
<g id="edge23" class="edge"><title>Node22&#45;&gt;Node1</title>
<path fill="none" stroke="#9a32cd" stroke-dasharray="5,2" d="M551.112,-88.0124C577.163,-92.4915 604.335,-101.752 624,-120 671.105,-163.711 674.867,-249.496 674.734,-278.304"/>
<polygon fill="#9a32cd" stroke="#9a32cd" points="551.61,-84.548 541.201,-86.521 550.568,-91.4701 551.61,-84.548"/>
<text text-anchor="middle" x="591.5" y="-123" font-family="Helvetica,sans-Serif" font-size="10.00"> spherocyl</text>
</g>
<!-- Node23 -->
<g id="node23" class="node"><title>Node23</title>
<g id="a_node23"><a xlink:href="structConstraint__stomatocyte.html" target="_top" xlink:title="Parameters for a STOMATOCYTE constraint. ">
<polygon fill="none" stroke="black" points="402,-38.5 402,-57.5 536,-57.5 536,-38.5 402,-38.5"/>
<text text-anchor="middle" x="469" y="-45.5" font-family="Helvetica,sans-Serif" font-size="10.00">Constraint_stomatocyte</text>
</a>
</g>
</g>
<!-- Node23&#45;&gt;Node1 -->
<g id="edge24" class="edge"><title>Node23&#45;&gt;Node1</title>
<path fill="none" stroke="#9a32cd" stroke-dasharray="5,2" d="M546.161,-44.7239C573.823,-47.4517 603.328,-55.5177 624,-75 654.423,-103.672 669.852,-240.37 673.59,-278.249"/>
<polygon fill="#9a32cd" stroke="#9a32cd" points="546.311,-41.2253 536.072,-43.9492 545.775,-48.2047 546.311,-41.2253"/>
<text text-anchor="middle" x="591.5" y="-78" font-family="Helvetica,sans-Serif" font-size="10.00"> stomatocyte</text>
</g>
<!-- Node24 -->
<g id="node24" class="node"><title>Node24</title>
<g id="a_node24"><a xlink:href="structConstraint__slitpore.html" target="_top" xlink:title="Parameters for a SLITPORE constraint. ">
<polygon fill="none" stroke="black" points="414.5,-0.5 414.5,-19.5 523.5,-19.5 523.5,-0.5 414.5,-0.5"/>
<text text-anchor="middle" x="469" y="-7.5" font-family="Helvetica,sans-Serif" font-size="10.00">Constraint_slitpore</text>
</a>
</g>
</g>
<!-- Node24&#45;&gt;Node1 -->
<g id="edge25" class="edge"><title>Node24&#45;&gt;Node1</title>
<path fill="none" stroke="#9a32cd" stroke-dasharray="5,2" d="M533.999,-3.14349C564.948,-3.42875 600.409,-9.62445 624,-32 660.73,-66.8378 671.818,-235.972 674.041,-278.354"/>
<polygon fill="#9a32cd" stroke="#9a32cd" points="533.66,0.353043 523.7,-3.25849 533.738,-6.64652 533.66,0.353043"/>
<text text-anchor="middle" x="591.5" y="-35" font-family="Helvetica,sans-Serif" font-size="10.00"> slitpore</text>
</g>
</g>
</svg>
        <g id="navigator" transform="translate(0 0)" fill="#404254">
                <rect fill="#f2f5e9" fill-opacity="0.5" stroke="#606060" stroke-width=".5" x="0" y="0" width="60" height="60"/>
                <use id="zoomplus" xlink:href="#zoomPlus" x="17" y="9" onmousedown="handleZoom(evt,'in')"/>
                <use id="zoomminus" xlink:href="#zoomMin" x="42" y="9" onmousedown="handleZoom(evt,'out')"/>
                <use id="reset" xlink:href="#resetDef" x="30" y="36" onmousedown="handleReset()"/>
                <g id="arrowUp" xlink:href="#dirArrow" transform="translate(30 24)" onmousedown="handlePan(0,-1)">
                  <use xlink:href="#rim" fill="#404040">
                        <set attributeName="fill" to="#808080" begin="arrowUp.mouseover" end="arrowUp.mouseout"/>
                  </use>
                  <path fill="none" stroke="white" stroke-width="1.5" d="M0,-3.0v7 M-2.5,-0.5L0,-3.0L2.5,-0.5"/>
                </g>
                <g id="arrowRight" xlink:href="#dirArrow" transform="rotate(90) translate(36 -43)" onmousedown="handlePan(1,0)">
                  <use xlink:href="#rim" fill="#404040">
                        <set attributeName="fill" to="#808080" begin="arrowRight.mouseover" end="arrowRight.mouseout"/>
                  </use>
                  <path fill="none" stroke="white" stroke-width="1.5" d="M0,-3.0v7 M-2.5,-0.5L0,-3.0L2.5,-0.5"/>
                </g>
                <g id="arrowDown" xlink:href="#dirArrow" transform="rotate(180) translate(-30 -48)" onmousedown="handlePan(0,1)">
                  <use xlink:href="#rim" fill="#404040">
                        <set attributeName="fill" to="#808080" begin="arrowDown.mouseover" end="arrowDown.mouseout"/>
                  </use>
                  <path fill="none" stroke="white" stroke-width="1.5" d="M0,-3.0v7 M-2.5,-0.5L0,-3.0L2.5,-0.5"/>
                </g>
                <g id="arrowLeft" xlink:href="#dirArrow" transform="rotate(270) translate(-36 17)" onmousedown="handlePan(-1,0)">
                  <use xlink:href="#rim" fill="#404040">
                        <set attributeName="fill" to="#808080" begin="arrowLeft.mouseover" end="arrowLeft.mouseout"/>
                  </use>
                  <path fill="none" stroke="white" stroke-width="1.5" d="M0,-3.0v7 M-2.5,-0.5L0,-3.0L2.5,-0.5"/>
                </g>
        </g>
        <svg viewBox="0 0 15 15" width="100%" height="30px" preserveAspectRatio="xMaxYMin meet">
         <g id="arrow_out" transform="scale(0.3 0.3)">
          <a xlink:href="structConstraint__coll__graph_org.svg" target="_base">
           <rect id="button" ry="5" rx="5" y="6" x="6" height="38" width="38"
                fill="#f2f5e9" fill-opacity="0.5" stroke="#606060" stroke-width="1.0"/>
           <path id="arrow"
             d="M 11.500037,31.436501 C 11.940474,20.09759 22.043105,11.32322 32.158766,21.979434 L 37.068811,17.246167 C 37.068811,17.246167 37.088388,32 37.088388,32 L 22.160133,31.978069 C 22.160133,31.978069 26.997745,27.140456 26.997745,27.140456 C 18.528582,18.264221 13.291696,25.230495 11.500037,31.436501 z"
             style="fill:#404040;"/>
          </a>
         </g>
        </svg>
</svg>
