<?xml version="1.0" encoding="UTF-8" standalone="no"?>
<!DOCTYPE svg PUBLIC "-//W3C//DTD SVG 1.1//EN"
 "http://www.w3.org/Graphics/SVG/1.1/DTD/svg11.dtd">
<!-- Generated by graphviz version 2.38.0 (20140413.2041)
 -->
<!-- Title: HaloCommunicator Pages: 1 -->
<svg width="298pt" height="164pt"
 viewBox="0.00 0.00 298.00 164.00" xmlns="http://www.w3.org/2000/svg" xmlns:xlink="http://www.w3.org/1999/xlink">
<g id="graph0" class="graph" transform="scale(1 1) rotate(0) translate(4 160)">
<title>HaloCommunicator</title>
<!-- Node1 -->
<g id="node1" class="node"><title>Node1</title>
<polygon fill="#bfbfbf" stroke="black" points="64.5,-0.5 64.5,-19.5 175.5,-19.5 175.5,-0.5 64.5,-0.5"/>
<text text-anchor="middle" x="120" y="-7.5" font-family="Helvetica,sans-Serif" font-size="10.00">HaloCommunicator</text>
</g>
<!-- Node2 -->
<g id="node2" class="node"><title>Node2</title>
<g id="a_node2"><a xlink:href="structHaloInfo.html" target="_top" xlink:title="Structure describing a Halo region. ">
<polygon fill="none" stroke="black" points="91,-67.5 91,-86.5 149,-86.5 149,-67.5 91,-67.5"/>
<text text-anchor="middle" x="120" y="-74.5" font-family="Helvetica,sans-Serif" font-size="10.00">HaloInfo</text>
</a>
</g>
</g>
<!-- Node2&#45;&gt;Node1 -->
<g id="edge1" class="edge"><title>Node2&#45;&gt;Node1</title>
<path fill="none" stroke="#9a32cd" stroke-dasharray="5,2" d="M120,-57.037C120,-44.6703 120,-29.1198 120,-19.6273"/>
<polygon fill="#9a32cd" stroke="#9a32cd" points="116.5,-57.2338 120,-67.2338 123.5,-57.2338 116.5,-57.2338"/>
<text text-anchor="middle" x="144.5" y="-41" font-family="Helvetica,sans-Serif" font-size="10.00"> halo_info</text>
</g>
<!-- Node3 -->
<g id="node3" class="node"><title>Node3</title>
<g id="a_node3"><a xlink:href="structmpifake__dtype.html" target="_top" xlink:title="mpifake_dtype">
<polygon fill="none" stroke="black" points="0,-135.5 0,-154.5 90,-154.5 90,-135.5 0,-135.5"/>
<text text-anchor="middle" x="45" y="-142.5" font-family="Helvetica,sans-Serif" font-size="10.00">mpifake_dtype</text>
</a>
</g>
</g>
<!-- Node3&#45;&gt;Node2 -->
<g id="edge2" class="edge"><title>Node3&#45;&gt;Node2</title>
<path fill="none" stroke="#9a32cd" stroke-dasharray="5,2" d="M62.7134,-128.412C77.4469,-115.447 97.891,-97.4559 109.953,-86.8411"/>
<polygon fill="#9a32cd" stroke="#9a32cd" points="59.9999,-126.138 54.8049,-135.372 64.6243,-131.393 59.9999,-126.138"/>
<text text-anchor="middle" x="113.5" y="-108" font-family="Helvetica,sans-Serif" font-size="10.00"> datatype</text>
</g>
<!-- Node3&#45;&gt;Node3 -->
<g id="edge3" class="edge"><title>Node3&#45;&gt;Node3</title>
<path fill="none" stroke="#9a32cd" stroke-dasharray="5,2" d="M100.264,-149.98C105.026,-148.922 108,-147.262 108,-145 108,-141.381 100.386,-139.303 90.0205,-138.765"/>
<polygon fill="#9a32cd" stroke="#9a32cd" points="99.5208,-146.545 90.0205,-151.235 100.372,-153.493 99.5208,-146.545"/>
<text text-anchor="middle" x="126.5" y="-148" font-family="Helvetica,sans-Serif" font-size="10.00"> dtypes</text>
<text text-anchor="middle" x="126.5" y="-137" font-family="Helvetica,sans-Serif" font-size="10.00">dtype</text>
</g>
<!-- Node4 -->
<g id="node4" class="node"><title>Node4</title>
<g id="a_node4"><a xlink:href="struct__Fieldtype.html" target="_top" xlink:title="_Fieldtype">
<polygon fill="none" stroke="black" points="163,-135.5 163,-154.5 229,-154.5 229,-135.5 163,-135.5"/>
<text text-anchor="middle" x="196" y="-142.5" font-family="Helvetica,sans-Serif" font-size="10.00">_Fieldtype</text>
</a>
</g>
</g>
<!-- Node4&#45;&gt;Node2 -->
<g id="edge4" class="edge"><title>Node4&#45;&gt;Node2</title>
<path fill="none" stroke="#9a32cd" stroke-dasharray="5,2" d="M178.468,-128.774C163.508,-115.784 142.518,-97.5551 130.181,-86.8411"/>
<polygon fill="#9a32cd" stroke="#9a32cd" points="176.219,-131.457 186.064,-135.372 180.809,-126.172 176.219,-131.457"/>
<text text-anchor="middle" x="185" y="-108" font-family="Helvetica,sans-Serif" font-size="10.00"> fieldtype</text>
</g>
<!-- Node4&#45;&gt;Node4 -->
<g id="edge5" class="edge"><title>Node4&#45;&gt;Node4</title>
<path fill="none" stroke="#9a32cd" stroke-dasharray="5,2" d="M239.647,-150.255C244.133,-149.22 247,-147.468 247,-145 247,-140.949 239.278,-138.829 229.354,-138.639"/>
<polygon fill="#9a32cd" stroke="#9a32cd" points="238.923,-146.812 229.354,-151.361 239.671,-153.772 238.923,-146.812"/>
<text text-anchor="middle" x="268.5" y="-142.5" font-family="Helvetica,sans-Serif" font-size="10.00"> subtype</text>
</g>
</g>
</svg>
