<?xml version="1.0" encoding="UTF-8" standalone="no"?>
<!DOCTYPE svg PUBLIC "-//W3C//DTD SVG 1.1//EN"
 "http://www.w3.org/Graphics/SVG/1.1/DTD/svg11.dtd">
<!-- Generated by graphviz version 2.38.0 (20140413.2041)
 -->
<!-- Title: IA_Neighbor Pages: 1 -->
<svg width="726pt" height="320pt"
 viewBox="0.00 0.00 726.00 320.00" xmlns="http://www.w3.org/2000/svg" xmlns:xlink="http://www.w3.org/1999/xlink">
<g id="graph0" class="graph" transform="scale(1 1) rotate(0) translate(4 316)">
<title>IA_Neighbor</title>
<!-- Node1 -->
<g id="node1" class="node"><title>Node1</title>
<polygon fill="#bfbfbf" stroke="black" points="642,-156.5 642,-175.5 718,-175.5 718,-156.5 642,-156.5"/>
<text text-anchor="middle" x="680" y="-163.5" font-family="Helvetica,sans-Serif" font-size="10.00">IA_Neighbor</text>
</g>
<!-- Node2 -->
<g id="node2" class="node"><title>Node2</title>
<g id="a_node2"><a xlink:href="structParticleList.html" target="_top" xlink:title="List of particles. ">
<polygon fill="none" stroke="black" points="509,-175.5 509,-194.5 579,-194.5 579,-175.5 509,-175.5"/>
<text text-anchor="middle" x="544" y="-182.5" font-family="Helvetica,sans-Serif" font-size="10.00">ParticleList</text>
</a>
</g>
</g>
<!-- Node2&#45;&gt;Node1 -->
<g id="edge1" class="edge"><title>Node2&#45;&gt;Node1</title>
<path fill="none" stroke="#9a32cd" stroke-dasharray="5,2" d="M589.369,-178.709C606.29,-176.31 625.393,-173.601 641.603,-171.303"/>
<polygon fill="#9a32cd" stroke="#9a32cd" points="588.57,-175.287 579.161,-180.156 589.553,-182.218 588.57,-175.287"/>
<text text-anchor="middle" x="610.5" y="-180" font-family="Helvetica,sans-Serif" font-size="10.00"> pList</text>
</g>
<!-- Node3 -->
<g id="node3" class="node"><title>Node3</title>
<g id="a_node3"><a xlink:href="structParticle.html" target="_top" xlink:title="Struct holding all information for one particle. ">
<polygon fill="none" stroke="black" points="397,-155.5 397,-174.5 450,-174.5 450,-155.5 397,-155.5"/>
<text text-anchor="middle" x="423.5" y="-162.5" font-family="Helvetica,sans-Serif" font-size="10.00">Particle</text>
</a>
</g>
</g>
<!-- Node3&#45;&gt;Node2 -->
<g id="edge2" class="edge"><title>Node3&#45;&gt;Node2</title>
<path fill="none" stroke="#9a32cd" stroke-dasharray="5,2" d="M460.388,-171.057C475.753,-173.65 493.614,-176.665 508.79,-179.226"/>
<polygon fill="#9a32cd" stroke="#9a32cd" points="460.656,-167.553 450.213,-169.34 459.491,-174.455 460.656,-167.553"/>
<text text-anchor="middle" x="479.5" y="-179" font-family="Helvetica,sans-Serif" font-size="10.00"> part</text>
</g>
<!-- Node12 -->
<g id="node12" class="node"><title>Node12</title>
<g id="a_node12"><a xlink:href="structPairList.html" target="_top" xlink:title="Verlet pair list. ">
<polygon fill="none" stroke="black" points="518,-137.5 518,-156.5 570,-156.5 570,-137.5 518,-137.5"/>
<text text-anchor="middle" x="544" y="-144.5" font-family="Helvetica,sans-Serif" font-size="10.00">PairList</text>
</a>
</g>
</g>
<!-- Node3&#45;&gt;Node12 -->
<g id="edge14" class="edge"><title>Node3&#45;&gt;Node12</title>
<path fill="none" stroke="#9a32cd" stroke-dasharray="5,2" d="M460.307,-152.681C462.891,-152.038 465.474,-151.466 468,-151 484.414,-147.974 503.164,-146.974 517.81,-146.73"/>
<polygon fill="#9a32cd" stroke="#9a32cd" points="459.126,-149.377 450.443,-155.447 461.016,-156.117 459.126,-149.377"/>
<text text-anchor="middle" x="479.5" y="-154" font-family="Helvetica,sans-Serif" font-size="10.00"> pair</text>
</g>
<!-- Node4 -->
<g id="node4" class="node"><title>Node4</title>
<g id="a_node4"><a xlink:href="structParticleProperties.html" target="_top" xlink:title="Properties of a particle which are not supposed to change during the integration, but have to be know...">
<polygon fill="none" stroke="black" points="200,-292.5 200,-311.5 302,-311.5 302,-292.5 200,-292.5"/>
<text text-anchor="middle" x="251" y="-299.5" font-family="Helvetica,sans-Serif" font-size="10.00">ParticleProperties</text>
</a>
</g>
</g>
<!-- Node4&#45;&gt;Node3 -->
<g id="edge3" class="edge"><title>Node4&#45;&gt;Node3</title>
<path fill="none" stroke="#9a32cd" stroke-dasharray="5,2" d="M312.236,-292.832C335.875,-286.41 361.481,-275.505 379,-257 402.321,-232.366 415.129,-192.933 420.076,-174.756"/>
<polygon fill="#9a32cd" stroke="#9a32cd" points="311.112,-289.504 302.255,-295.318 312.805,-296.297 311.112,-289.504"/>
<text text-anchor="middle" x="364" y="-281" font-family="Helvetica,sans-Serif" font-size="10.00"> p</text>
</g>
<!-- Node5 -->
<g id="node5" class="node"><title>Node5</title>
<g id="a_node5"><a xlink:href="structParticleParametersSwimming.html" target="_top" xlink:title="ParticleParametersSwimming">
<polygon fill="none" stroke="black" points="171,-254.5 171,-273.5 331,-273.5 331,-254.5 171,-254.5"/>
<text text-anchor="middle" x="251" y="-261.5" font-family="Helvetica,sans-Serif" font-size="10.00">ParticleParametersSwimming</text>
</a>
</g>
</g>
<!-- Node5&#45;&gt;Node3 -->
<g id="edge4" class="edge"><title>Node5&#45;&gt;Node3</title>
<path fill="none" stroke="#9a32cd" stroke-dasharray="5,2" d="M326.135,-251.787C344.733,-246.162 363.721,-237.959 379,-226 397.232,-211.729 411.141,-187.813 417.924,-174.563"/>
<polygon fill="#9a32cd" stroke="#9a32cd" points="325.149,-248.428 316.466,-254.499 327.04,-255.168 325.149,-248.428"/>
<text text-anchor="middle" x="364" y="-245" font-family="Helvetica,sans-Serif" font-size="10.00"> swim</text>
</g>
<!-- Node6 -->
<g id="node6" class="node"><title>Node6</title>
<g id="a_node6"><a xlink:href="structParticleForce.html" target="_top" xlink:title="Force information on a particle. ">
<polygon fill="none" stroke="black" points="211.5,-216.5 211.5,-235.5 290.5,-235.5 290.5,-216.5 211.5,-216.5"/>
<text text-anchor="middle" x="251" y="-223.5" font-family="Helvetica,sans-Serif" font-size="10.00">ParticleForce</text>
</a>
</g>
</g>
<!-- Node6&#45;&gt;Node3 -->
<g id="edge5" class="edge"><title>Node6&#45;&gt;Node3</title>
<path fill="none" stroke="#9a32cd" stroke-dasharray="5,2" d="M300.831,-221.506C325.191,-217.915 354.588,-211.485 379,-200 392.332,-193.728 405.168,-182.565 413.396,-174.53"/>
<polygon fill="#9a32cd" stroke="#9a32cd" points="300.166,-218.064 290.728,-222.877 301.108,-225 300.166,-218.064"/>
<text text-anchor="middle" x="364" y="-214" font-family="Helvetica,sans-Serif" font-size="10.00"> f</text>
</g>
<!-- Node7 -->
<g id="node7" class="node"><title>Node7</title>
<g id="a_node7"><a xlink:href="structIntList.html" target="_top" xlink:title="Integer list. ">
<polygon fill="none" stroke="black" points="227.5,-178.5 227.5,-197.5 274.5,-197.5 274.5,-178.5 227.5,-178.5"/>
<text text-anchor="middle" x="251" y="-185.5" font-family="Helvetica,sans-Serif" font-size="10.00">IntList</text>
</a>
</g>
</g>
<!-- Node7&#45;&gt;Node3 -->
<g id="edge6" class="edge"><title>Node7&#45;&gt;Node3</title>
<path fill="none" stroke="#9a32cd" stroke-dasharray="5,2" d="M284.62,-183.6C317.336,-179.186 367.039,-172.482 396.982,-168.442"/>
<polygon fill="#9a32cd" stroke="#9a32cd" points="284.083,-180.14 274.641,-184.946 285.019,-187.077 284.083,-180.14"/>
<text text-anchor="middle" x="364" y="-188" font-family="Helvetica,sans-Serif" font-size="10.00"> el</text>
<text text-anchor="middle" x="364" y="-177" font-family="Helvetica,sans-Serif" font-size="10.00">bl</text>
</g>
<!-- Node8 -->
<g id="node8" class="node"><title>Node8</title>
<g id="a_node8"><a xlink:href="structParticleLocal.html" target="_top" xlink:title="Information on a particle that is needed only on the node the particle belongs to. ">
<polygon fill="none" stroke="black" points="212,-93.5 212,-112.5 290,-112.5 290,-93.5 212,-93.5"/>
<text text-anchor="middle" x="251" y="-100.5" font-family="Helvetica,sans-Serif" font-size="10.00">ParticleLocal</text>
</a>
</g>
</g>
<!-- Node8&#45;&gt;Node3 -->
<g id="edge7" class="edge"><title>Node8&#45;&gt;Node3</title>
<path fill="none" stroke="#9a32cd" stroke-dasharray="5,2" d="M300.373,-104.338C324.978,-106.635 354.73,-111.98 379,-124 394.066,-131.461 407.484,-145.898 415.306,-155.494"/>
<polygon fill="#9a32cd" stroke="#9a32cd" points="300.42,-100.83 290.174,-103.529 299.867,-107.808 300.42,-100.83"/>
<text text-anchor="middle" x="364" y="-127" font-family="Helvetica,sans-Serif" font-size="10.00"> l</text>
</g>
<!-- Node9 -->
<g id="node9" class="node"><title>Node9</title>
<g id="a_node9"><a xlink:href="structParticleMomentum.html" target="_top" xlink:title="Momentum information on a particle. ">
<polygon fill="none" stroke="black" points="0,-122.5 0,-141.5 108,-141.5 108,-122.5 0,-122.5"/>
<text text-anchor="middle" x="54" y="-129.5" font-family="Helvetica,sans-Serif" font-size="10.00">ParticleMomentum</text>
</a>
</g>
</g>
<!-- Node9&#45;&gt;Node3 -->
<g id="edge11" class="edge"><title>Node9&#45;&gt;Node3</title>
<path fill="none" stroke="#9a32cd" stroke-dasharray="5,2" d="M118.238,-137.678C200.209,-145.039 339.42,-157.54 396.704,-162.684"/>
<polygon fill="#9a32cd" stroke="#9a32cd" points="118.318,-134.172 108.045,-136.763 117.692,-141.144 118.318,-134.172"/>
<text text-anchor="middle" x="251" y="-159" font-family="Helvetica,sans-Serif" font-size="10.00"> m</text>
</g>
<!-- Node9&#45;&gt;Node8 -->
<g id="edge8" class="edge"><title>Node9&#45;&gt;Node8</title>
<path fill="none" stroke="#9a32cd" stroke-dasharray="5,2" d="M118.27,-122.591C149.129,-118.001 185.228,-112.633 211.824,-108.677"/>
<polygon fill="#9a32cd" stroke="#9a32cd" points="117.403,-119.181 108.027,-124.114 118.433,-126.105 117.403,-119.181"/>
<text text-anchor="middle" x="139.5" y="-123" font-family="Helvetica,sans-Serif" font-size="10.00"> m_ls</text>
</g>
<!-- Node10 -->
<g id="node10" class="node"><title>Node10</title>
<g id="a_node10"><a xlink:href="structParticlePosition.html" target="_top" xlink:title="Positional information on a particle. ">
<polygon fill="none" stroke="black" points="8,-70.5 8,-89.5 100,-89.5 100,-70.5 8,-70.5"/>
<text text-anchor="middle" x="54" y="-77.5" font-family="Helvetica,sans-Serif" font-size="10.00">ParticlePosition</text>
</a>
</g>
</g>
<!-- Node10&#45;&gt;Node3 -->
<g id="edge12" class="edge"><title>Node10&#45;&gt;Node3</title>
<path fill="none" stroke="#9a32cd" stroke-dasharray="5,2" d="M107.073,-68.5521C163.7,-58.4 256.134,-48.6036 331,-73 373.622,-86.8893 405.27,-134.777 417.251,-155.414"/>
<polygon fill="#9a32cd" stroke="#9a32cd" points="106.117,-65.1699 96.9285,-70.4437 107.401,-72.0513 106.117,-65.1699"/>
<text text-anchor="middle" x="251" y="-76" font-family="Helvetica,sans-Serif" font-size="10.00"> r</text>
</g>
<!-- Node10&#45;&gt;Node8 -->
<g id="edge9" class="edge"><title>Node10&#45;&gt;Node8</title>
<path fill="none" stroke="#9a32cd" stroke-dasharray="5,2" d="M110.754,-85.3816C124.569,-86.7997 139.33,-88.387 153,-90 172.405,-92.2898 193.95,-95.1457 211.797,-97.5971"/>
<polygon fill="#9a32cd" stroke="#9a32cd" points="110.71,-81.8592 100.408,-84.3324 110.004,-88.8235 110.71,-81.8592"/>
<text text-anchor="middle" x="139.5" y="-93" font-family="Helvetica,sans-Serif" font-size="10.00"> r_ls</text>
</g>
<!-- Node11 -->
<g id="node11" class="node"><title>Node11</title>
<g id="a_node11"><a xlink:href="structParticleLatticeCoupling.html" target="_top" xlink:title="Data related to the Lattice Boltzmann hydrodynamic coupling. ">
<polygon fill="none" stroke="black" points="187,-0.5 187,-19.5 315,-19.5 315,-0.5 187,-0.5"/>
<text text-anchor="middle" x="251" y="-7.5" font-family="Helvetica,sans-Serif" font-size="10.00">ParticleLatticeCoupling</text>
</a>
</g>
</g>
<!-- Node11&#45;&gt;Node3 -->
<g id="edge10" class="edge"><title>Node11&#45;&gt;Node3</title>
<path fill="none" stroke="#9a32cd" stroke-dasharray="5,2" d="M325.225,-8.72162C344.554,-11.7286 364.14,-18.2172 379,-31 417.198,-63.8578 422.088,-130.603 422.541,-155.422"/>
<polygon fill="#9a32cd" stroke="#9a32cd" points="325.527,-5.23202 315.167,-7.45164 324.65,-12.1769 325.527,-5.23202"/>
<text text-anchor="middle" x="364" y="-34" font-family="Helvetica,sans-Serif" font-size="10.00"> lc</text>
</g>
<!-- Node12&#45;&gt;Node1 -->
<g id="edge13" class="edge"><title>Node12&#45;&gt;Node1</title>
<path fill="none" stroke="#9a32cd" stroke-dasharray="5,2" d="M580.219,-151.994C599.16,-154.679 622.512,-157.99 641.754,-160.719"/>
<polygon fill="#9a32cd" stroke="#9a32cd" points="580.597,-148.512 570.204,-150.574 579.614,-155.443 580.597,-148.512"/>
<text text-anchor="middle" x="610.5" y="-160" font-family="Helvetica,sans-Serif" font-size="10.00"> vList</text>
</g>
</g>
</svg>
