<?xml version="1.0" encoding="UTF-8" standalone="no"?>
<!DOCTYPE svg PUBLIC "-//W3C//DTD SVG 1.1//EN"
 "http://www.w3.org/Graphics/SVG/1.1/DTD/svg11.dtd">
<!-- Generated by graphviz version 2.38.0 (20140413.2041)
 -->
<!-- Title: tab_tcl.hpp Pages: 1 -->
<svg width="230pt" height="84pt"
 viewBox="0.00 0.00 230.00 84.00" xmlns="http://www.w3.org/2000/svg" xmlns:xlink="http://www.w3.org/1999/xlink">
<g id="graph0" class="graph" transform="scale(1 1) rotate(0) translate(4 80)">
<title>tab_tcl.hpp</title>
<!-- Node1 -->
<g id="node1" class="node"><title>Node1</title>
<polygon fill="#bfbfbf" stroke="black" points="91.5,-56.5 91.5,-75.5 162.5,-75.5 162.5,-56.5 91.5,-56.5"/>
<text text-anchor="middle" x="127" y="-63.5" font-family="Helvetica,sans-Serif" font-size="10.00">tab_tcl.hpp</text>
</g>
<!-- Node2 -->
<g id="node2" class="node"><title>Node2</title>
<g id="a_node2"><a xlink:href="interaction__data__tcl_8cpp.html" target="_top" xlink:title="interaction_data_tcl.cpp">
<polygon fill="none" stroke="black" points="0,-0.5 0,-19.5 134,-19.5 134,-0.5 0,-0.5"/>
<text text-anchor="middle" x="67" y="-7.5" font-family="Helvetica,sans-Serif" font-size="10.00">interaction_data_tcl.cpp</text>
</a>
</g>
</g>
<!-- Node1&#45;&gt;Node2 -->
<g id="edge1" class="edge"><title>Node1&#45;&gt;Node2</title>
<path fill="none" stroke="midnightblue" d="M109.819,-49.5372C99.1208,-39.9087 85.7437,-27.8694 76.8154,-19.8339"/>
<polygon fill="midnightblue" stroke="midnightblue" points="107.586,-52.2358 117.36,-56.324 112.268,-47.0327 107.586,-52.2358"/>
</g>
<!-- Node3 -->
<g id="node3" class="node"><title>Node3</title>
<g id="a_node3"><a xlink:href="tab__tcl_8cpp.html" target="_top" xlink:title="tab_tcl.cpp">
<polygon fill="none" stroke="black" points="152,-0.5 152,-19.5 222,-19.5 222,-0.5 152,-0.5"/>
<text text-anchor="middle" x="187" y="-7.5" font-family="Helvetica,sans-Serif" font-size="10.00">tab_tcl.cpp</text>
</a>
</g>
</g>
<!-- Node1&#45;&gt;Node3 -->
<g id="edge2" class="edge"><title>Node1&#45;&gt;Node3</title>
<path fill="none" stroke="midnightblue" d="M144.181,-49.5372C154.879,-39.9087 168.256,-27.8694 177.185,-19.8339"/>
<polygon fill="midnightblue" stroke="midnightblue" points="141.732,-47.0327 136.64,-56.324 146.414,-52.2358 141.732,-47.0327"/>
</g>
</g>
</svg>
