<?xml version="1.0" encoding="UTF-8" standalone="no"?>
<!DOCTYPE svg PUBLIC "-//W3C//DTD SVG 1.1//EN"
 "http://www.w3.org/Graphics/SVG/1.1/DTD/svg11.dtd">
<!-- Generated by graphviz version 2.38.0 (20140413.2041)
 -->
<!-- Title: topology_tcl.hpp Pages: 1 -->
<svg width="254pt" height="84pt"
 viewBox="0.00 0.00 253.50 84.00" xmlns="http://www.w3.org/2000/svg" xmlns:xlink="http://www.w3.org/1999/xlink">
<g id="graph0" class="graph" transform="scale(1 1) rotate(0) translate(4 80)">
<title>topology_tcl.hpp</title>
<!-- Node1 -->
<g id="node1" class="node"><title>Node1</title>
<polygon fill="#bfbfbf" stroke="black" points="82,-56.5 82,-75.5 180,-75.5 180,-56.5 82,-56.5"/>
<text text-anchor="middle" x="131" y="-63.5" font-family="Helvetica,sans-Serif" font-size="10.00">topology_tcl.hpp</text>
</g>
<!-- Node2 -->
<g id="node2" class="node"><title>Node2</title>
<g id="a_node2"><a xlink:href="statistics__chain__tcl_8cpp.html" target="_top" xlink:title="statistics_chain_tcl.cpp">
<polygon fill="none" stroke="black" points="0,-0.5 0,-19.5 130,-19.5 130,-0.5 0,-0.5"/>
<text text-anchor="middle" x="65" y="-7.5" font-family="Helvetica,sans-Serif" font-size="10.00">statistics_chain_tcl.cpp</text>
</a>
</g>
</g>
<!-- Node1&#45;&gt;Node2 -->
<g id="edge1" class="edge"><title>Node1&#45;&gt;Node2</title>
<path fill="none" stroke="midnightblue" d="M112.446,-49.8197C100.622,-40.1452 85.7144,-27.9481 75.797,-19.8339"/>
<polygon fill="midnightblue" stroke="midnightblue" points="110.44,-52.7004 120.396,-56.324 114.873,-47.2827 110.44,-52.7004"/>
</g>
<!-- Node3 -->
<g id="node3" class="node"><title>Node3</title>
<g id="a_node3"><a xlink:href="topology__tcl_8cpp.html" target="_top" xlink:title="topology_tcl.cpp">
<polygon fill="none" stroke="black" points="148.5,-0.5 148.5,-19.5 245.5,-19.5 245.5,-0.5 148.5,-0.5"/>
<text text-anchor="middle" x="197" y="-7.5" font-family="Helvetica,sans-Serif" font-size="10.00">topology_tcl.cpp</text>
</a>
</g>
</g>
<!-- Node1&#45;&gt;Node3 -->
<g id="edge2" class="edge"><title>Node1&#45;&gt;Node3</title>
<path fill="none" stroke="midnightblue" d="M149.554,-49.8197C161.378,-40.1452 176.286,-27.9481 186.203,-19.8339"/>
<polygon fill="midnightblue" stroke="midnightblue" points="147.127,-47.2827 141.604,-56.324 151.56,-52.7004 147.127,-47.2827"/>
</g>
</g>
</svg>
