<?xml version="1.0" encoding="UTF-8" standalone="no"?>
<!DOCTYPE svg PUBLIC "-//W3C//DTD SVG 1.1//EN"
 "http://www.w3.org/Graphics/SVG/1.1/DTD/svg11.dtd">
<!-- Generated by graphviz version 2.38.0 (20140413.2041)
 -->
<!-- Title: tunable_slip.hpp Pages: 1 -->
<svg width="474pt" height="84pt"
 viewBox="0.00 0.00 473.50 84.00" xmlns="http://www.w3.org/2000/svg" xmlns:xlink="http://www.w3.org/1999/xlink">
<g id="graph0" class="graph" transform="scale(1 1) rotate(0) translate(4 80)">
<title>tunable_slip.hpp</title>
<!-- Node1 -->
<g id="node1" class="node"><title>Node1</title>
<polygon fill="#bfbfbf" stroke="black" points="175.5,-56.5 175.5,-75.5 272.5,-75.5 272.5,-56.5 175.5,-56.5"/>
<text text-anchor="middle" x="224" y="-63.5" font-family="Helvetica,sans-Serif" font-size="10.00">tunable_slip.hpp</text>
</g>
<!-- Node2 -->
<g id="node2" class="node"><title>Node2</title>
<g id="a_node2"><a xlink:href="constraint_8cpp.html" target="_top" xlink:title="Implementation of constraint.hpp, here it&#39;s just the parsing stuff. ">
<polygon fill="none" stroke="black" points="0,-0.5 0,-19.5 86,-19.5 86,-0.5 0,-0.5"/>
<text text-anchor="middle" x="43" y="-7.5" font-family="Helvetica,sans-Serif" font-size="10.00">constraint.cpp</text>
</a>
</g>
</g>
<!-- Node1&#45;&gt;Node2 -->
<g id="edge1" class="edge"><title>Node1&#45;&gt;Node2</title>
<path fill="none" stroke="midnightblue" d="M185.681,-53.5677C151.536,-43.381 102.339,-28.7034 71.5458,-19.5164"/>
<polygon fill="midnightblue" stroke="midnightblue" points="184.737,-56.9385 195.32,-56.4435 186.738,-50.2306 184.737,-56.9385"/>
</g>
<!-- Node3 -->
<g id="node3" class="node"><title>Node3</title>
<g id="a_node3"><a xlink:href="interaction__data_8cpp.html" target="_top" xlink:title="Implementation of interaction_data.hpp. ">
<polygon fill="none" stroke="black" points="104,-0.5 104,-19.5 220,-19.5 220,-0.5 104,-0.5"/>
<text text-anchor="middle" x="162" y="-7.5" font-family="Helvetica,sans-Serif" font-size="10.00">interaction_data.cpp</text>
</a>
</g>
</g>
<!-- Node1&#45;&gt;Node3 -->
<g id="edge2" class="edge"><title>Node1&#45;&gt;Node3</title>
<path fill="none" stroke="midnightblue" d="M206.246,-49.5372C195.192,-39.9087 181.369,-27.8694 172.143,-19.8339"/>
<polygon fill="midnightblue" stroke="midnightblue" points="204.199,-52.3954 214.039,-56.324 208.797,-47.1168 204.199,-52.3954"/>
</g>
<!-- Node4 -->
<g id="node4" class="node"><title>Node4</title>
<g id="a_node4"><a xlink:href="tunable__slip_8cpp.html" target="_top" xlink:title="tunable_slip.cpp">
<polygon fill="none" stroke="black" points="238,-0.5 238,-19.5 334,-19.5 334,-0.5 238,-0.5"/>
<text text-anchor="middle" x="286" y="-7.5" font-family="Helvetica,sans-Serif" font-size="10.00">tunable_slip.cpp</text>
</a>
</g>
</g>
<!-- Node1&#45;&gt;Node4 -->
<g id="edge3" class="edge"><title>Node1&#45;&gt;Node4</title>
<path fill="none" stroke="midnightblue" d="M241.754,-49.5372C252.808,-39.9087 266.631,-27.8694 275.857,-19.8339"/>
<polygon fill="midnightblue" stroke="midnightblue" points="239.203,-47.1168 233.961,-56.324 243.801,-52.3954 239.203,-47.1168"/>
</g>
<!-- Node5 -->
<g id="node5" class="node"><title>Node5</title>
<g id="a_node5"><a xlink:href="tunable__slip__tcl_8cpp.html" target="_top" xlink:title="Implementation of tunable_slip_tcl.hpp. ">
<polygon fill="none" stroke="black" points="352.5,-0.5 352.5,-19.5 465.5,-19.5 465.5,-0.5 352.5,-0.5"/>
<text text-anchor="middle" x="409" y="-7.5" font-family="Helvetica,sans-Serif" font-size="10.00">tunable_slip_tcl.cpp</text>
</a>
</g>
</g>
<!-- Node1&#45;&gt;Node5 -->
<g id="edge4" class="edge"><title>Node1&#45;&gt;Node5</title>
<path fill="none" stroke="midnightblue" d="M263.166,-53.5677C298.065,-43.381 348.349,-28.7034 379.823,-19.5164"/>
<polygon fill="midnightblue" stroke="midnightblue" points="261.933,-50.2817 253.314,-56.4435 263.894,-57.0013 261.933,-50.2817"/>
</g>
</g>
</svg>
