<?xml version="1.0" encoding="UTF-8" standalone="no"?>
<!DOCTYPE svg PUBLIC "-//W3C//DTD SVG 1.1//EN"
 "http://www.w3.org/Graphics/SVG/1.1/DTD/svg11.dtd">
<!-- Generated by graphviz version 2.38.0 (20140413.2041)
 -->
<!-- Title: tuning.hpp Pages: 1 -->
<svg width="860pt" height="84pt"
 viewBox="0.00 0.00 859.50 84.00" xmlns="http://www.w3.org/2000/svg" xmlns:xlink="http://www.w3.org/1999/xlink">
<g id="graph0" class="graph" transform="scale(1 1) rotate(0) translate(4 80)">
<title>tuning.hpp</title>
<!-- Node1 -->
<g id="node1" class="node"><title>Node1</title>
<polygon fill="#bfbfbf" stroke="black" points="371,-56.5 371,-75.5 439,-75.5 439,-56.5 371,-56.5"/>
<text text-anchor="middle" x="405" y="-63.5" font-family="Helvetica,sans-Serif" font-size="10.00">tuning.hpp</text>
</g>
<!-- Node2 -->
<g id="node2" class="node"><title>Node2</title>
<g id="a_node2"><a xlink:href="EwaldgpuForce_8cpp.html" target="_top" xlink:title="EwaldgpuForce.cpp">
<polygon fill="none" stroke="black" points="0,-0.5 0,-19.5 110,-19.5 110,-0.5 0,-0.5"/>
<text text-anchor="middle" x="55" y="-7.5" font-family="Helvetica,sans-Serif" font-size="10.00">EwaldgpuForce.cpp</text>
</a>
</g>
</g>
<!-- Node1&#45;&gt;Node2 -->
<g id="edge1" class="edge"><title>Node1&#45;&gt;Node2</title>
<path fill="none" stroke="midnightblue" d="M360.676,-58.1615C296.942,-48.3282 179.478,-30.2052 110.195,-19.5158"/>
<polygon fill="midnightblue" stroke="midnightblue" points="360.386,-61.6581 370.803,-59.7239 361.454,-54.74 360.386,-61.6581"/>
</g>
<!-- Node3 -->
<g id="node3" class="node"><title>Node3</title>
<g id="a_node3"><a xlink:href="global_8cpp.html" target="_top" xlink:title="Implementation of global.h. ">
<polygon fill="none" stroke="black" points="128.5,-0.5 128.5,-19.5 195.5,-19.5 195.5,-0.5 128.5,-0.5"/>
<text text-anchor="middle" x="162" y="-7.5" font-family="Helvetica,sans-Serif" font-size="10.00">global.cpp</text>
</a>
</g>
</g>
<!-- Node1&#45;&gt;Node3 -->
<g id="edge2" class="edge"><title>Node1&#45;&gt;Node3</title>
<path fill="none" stroke="midnightblue" d="M360.963,-55.214C313.473,-44.6607 238.902,-28.0893 195.814,-18.5141"/>
<polygon fill="midnightblue" stroke="midnightblue" points="360.435,-58.6819 370.956,-57.4347 361.953,-51.8486 360.435,-58.6819"/>
</g>
<!-- Node4 -->
<g id="node4" class="node"><title>Node4</title>
<g id="a_node4"><a xlink:href="mmm1d_8cpp.html" target="_top" xlink:title="MMM1D algorithm for long range coulomb interaction. ">
<polygon fill="none" stroke="black" points="214,-0.5 214,-19.5 292,-19.5 292,-0.5 214,-0.5"/>
<text text-anchor="middle" x="253" y="-7.5" font-family="Helvetica,sans-Serif" font-size="10.00">mmm1d.cpp</text>
</a>
</g>
</g>
<!-- Node1&#45;&gt;Node4 -->
<g id="edge3" class="edge"><title>Node1&#45;&gt;Node4</title>
<path fill="none" stroke="midnightblue" d="M371.332,-53.0392C342.732,-42.8786 302.388,-28.5457 276.972,-19.5164"/>
<polygon fill="midnightblue" stroke="midnightblue" points="370.32,-56.3939 380.915,-56.4435 372.664,-49.7978 370.32,-56.3939"/>
</g>
<!-- Node5 -->
<g id="node5" class="node"><title>Node5</title>
<g id="a_node5"><a xlink:href="p3m-dipolar_8cpp.html" target="_top" xlink:title="P3M algorithm for long range magnetic dipole&#45;dipole interaction. ">
<polygon fill="none" stroke="black" points="310.5,-0.5 310.5,-19.5 405.5,-19.5 405.5,-0.5 310.5,-0.5"/>
<text text-anchor="middle" x="358" y="-7.5" font-family="Helvetica,sans-Serif" font-size="10.00">p3m&#45;dipolar.cpp</text>
</a>
</g>
</g>
<!-- Node1&#45;&gt;Node5 -->
<g id="edge4" class="edge"><title>Node1&#45;&gt;Node5</title>
<path fill="none" stroke="midnightblue" d="M390.579,-48.4314C382.342,-38.9673 372.346,-27.4827 365.617,-19.7511"/>
<polygon fill="midnightblue" stroke="midnightblue" points="388.034,-50.8378 397.239,-56.083 393.314,-46.2421 388.034,-50.8378"/>
</g>
<!-- Node6 -->
<g id="node6" class="node"><title>Node6</title>
<g id="a_node6"><a xlink:href="p3m_8cpp.html" target="_top" xlink:title="p3m.cpp">
<polygon fill="none" stroke="black" points="423.5,-0.5 423.5,-19.5 482.5,-19.5 482.5,-0.5 423.5,-0.5"/>
<text text-anchor="middle" x="453" y="-7.5" font-family="Helvetica,sans-Serif" font-size="10.00">p3m.cpp</text>
</a>
</g>
</g>
<!-- Node1&#45;&gt;Node6 -->
<g id="edge5" class="edge"><title>Node1&#45;&gt;Node6</title>
<path fill="none" stroke="midnightblue" d="M419.728,-48.4314C428.14,-38.9673 438.349,-27.4827 445.221,-19.7511"/>
<polygon fill="midnightblue" stroke="midnightblue" points="416.954,-46.2836 412.926,-56.083 422.186,-50.9342 416.954,-46.2836"/>
</g>
<!-- Node7 -->
<g id="node7" class="node"><title>Node7</title>
<g id="a_node7"><a xlink:href="initialize__interpreter_8cpp.html" target="_top" xlink:title="initialize_interpreter.cpp">
<polygon fill="none" stroke="black" points="500.5,-0.5 500.5,-19.5 635.5,-19.5 635.5,-0.5 500.5,-0.5"/>
<text text-anchor="middle" x="568" y="-7.5" font-family="Helvetica,sans-Serif" font-size="10.00">initialize_interpreter.cpp</text>
</a>
</g>
</g>
<!-- Node1&#45;&gt;Node7 -->
<g id="edge6" class="edge"><title>Node1&#45;&gt;Node7</title>
<path fill="none" stroke="midnightblue" d="M440.703,-53.172C471.396,-43.0039 514.919,-28.5852 542.293,-19.5164"/>
<polygon fill="midnightblue" stroke="midnightblue" points="439.22,-49.9762 430.828,-56.4435 441.421,-56.6211 439.22,-49.9762"/>
</g>
<!-- Node8 -->
<g id="node8" class="node"><title>Node8</title>
<g id="a_node8"><a xlink:href="mmm1d__tcl_8cpp.html" target="_top" xlink:title="mmm1d_tcl.cpp">
<polygon fill="none" stroke="black" points="653.5,-0.5 653.5,-19.5 748.5,-19.5 748.5,-0.5 653.5,-0.5"/>
<text text-anchor="middle" x="701" y="-7.5" font-family="Helvetica,sans-Serif" font-size="10.00">mmm1d_tcl.cpp</text>
</a>
</g>
</g>
<!-- Node1&#45;&gt;Node8 -->
<g id="edge7" class="edge"><title>Node1&#45;&gt;Node8</title>
<path fill="none" stroke="midnightblue" d="M449.397,-56.9006C504.489,-46.85 598.01,-29.7888 654.195,-19.5388"/>
<polygon fill="midnightblue" stroke="midnightblue" points="448.454,-53.5148 439.244,-58.7528 449.71,-60.4012 448.454,-53.5148"/>
</g>
<!-- Node9 -->
<g id="node9" class="node"><title>Node9</title>
<g id="a_node9"><a xlink:href="tuning__tcl_8cpp.html" target="_top" xlink:title="Implements the callback for the timings global variable used during tuning of e.g. ">
<polygon fill="none" stroke="black" points="766.5,-0.5 766.5,-19.5 851.5,-19.5 851.5,-0.5 766.5,-0.5"/>
<text text-anchor="middle" x="809" y="-7.5" font-family="Helvetica,sans-Serif" font-size="10.00">tuning_tcl.cpp</text>
</a>
</g>
</g>
<!-- Node1&#45;&gt;Node9 -->
<g id="edge8" class="edge"><title>Node1&#45;&gt;Node9</title>
<path fill="none" stroke="midnightblue" d="M449.341,-60.0379C516.325,-52.3857 647.261,-36.8196 758,-20 760.756,-19.5815 763.592,-19.1323 766.448,-18.6661"/>
<polygon fill="midnightblue" stroke="midnightblue" points="448.693,-56.5889 439.152,-61.197 449.484,-63.5441 448.693,-56.5889"/>
</g>
</g>
</svg>
