<?xml version="1.0" encoding="UTF-8" standalone="no"?>
<!DOCTYPE svg PUBLIC "-//W3C//DTD SVG 1.1//EN"
 "http://www.w3.org/Graphics/SVG/1.1/DTD/svg11.dtd">
<!-- Generated by graphviz version 2.38.0 (20140413.2041)
 -->
<!-- Title: twist_stack_tcl.cpp Pages: 1 -->
<!--zoomable 532 -->
<svg id="main" version="1.1" xmlns="http://www.w3.org/2000/svg" xmlns:xlink="http://www.w3.org/1999/xlink" xml:space="preserve" onload="init(evt)">
<style type="text/css"><![CDATA[
.edge:hover path { stroke: red; }
.edge:hover polygon { stroke: red; fill: red; }
]]></style>
<script type="text/javascript"><![CDATA[
var edges = document.getElementsByTagName('g');
if (edges && edges.length) {
  for (var i=0;i<edges.length;i++) {
    if (edges[i].id.substr(0,4)=='edge') {
      edges[i].setAttribute('class','edge');
    }
  }
}
]]></script>
        <defs>
                <circle id="rim" cx="0" cy="0" r="7"/>
                <circle id="rim2" cx="0" cy="0" r="3.5"/>
                <g id="zoomPlus">
                        <use xlink:href="#rim" fill="#404040">
                                <set attributeName="fill" to="#808080" begin="zoomplus.mouseover" end="zoomplus.mouseout"/>
                        </use>
                        <path d="M-4,0h8M0,-4v8" fill="none" stroke="white" stroke-width="1.5" pointer-events="none"/>
                </g>
                <g id="zoomMin">
                        <use xlink:href="#rim" fill="#404040">
                                <set attributeName="fill" to="#808080" begin="zoomminus.mouseover" end="zoomminus.mouseout"/>
                        </use>
                        <path d="M-4,0h8" fill="none" stroke="white" stroke-width="1.5" pointer-events="none"/>
                </g>
                <g id="dirArrow">
                        <path fill="none" stroke="white" stroke-width="1.5" d="M0,-3.0v7 M-2.5,-0.5L0,-3.0L2.5,-0.5"/>
                </g>
               <g id="resetDef">
                       <use xlink:href="#rim2" fill="#404040">
                               <set attributeName="fill" to="#808080" begin="reset.mouseover" end="reset.mouseout"/>
                       </use>
               </g>
        </defs>

<script type="text/javascript">
var viewWidth = 878;
var viewHeight = 532;
var sectionId = 'dynsection-0';
</script>
<script xlink:href="svgpan.js"/>
<svg id="graph" class="graph">
<g id="viewport">
<title>twist_stack_tcl.cpp</title>
<!-- Node1 -->
<g id="node1" class="node"><title>Node1</title>
<polygon fill="#bfbfbf" stroke="black" points="181,-504.5 181,-523.5 291,-523.5 291,-504.5 181,-504.5"/>
<text text-anchor="middle" x="236" y="-511.5" font-family="Helvetica,sans-Serif" font-size="10.00">twist_stack_tcl.cpp</text>
</g>
<!-- Node2 -->
<g id="node2" class="node"><title>Node2</title>
<g id="a_node2"><a xlink:href="twist__stack__tcl_8hpp.html" target="_top" xlink:title="twist_stack_tcl.hpp">
<polygon fill="none" stroke="black" points="140,-448.5 140,-467.5 250,-467.5 250,-448.5 140,-448.5"/>
<text text-anchor="middle" x="195" y="-455.5" font-family="Helvetica,sans-Serif" font-size="10.00">twist_stack_tcl.hpp</text>
</a>
</g>
</g>
<!-- Node1&#45;&gt;Node2 -->
<g id="edge1" class="edge"><title>Node1&#45;&gt;Node2</title>
<path fill="none" stroke="midnightblue" d="M229.23,-504.083C223.438,-496.455 214.942,-485.264 207.862,-475.941"/>
<polygon fill="midnightblue" stroke="midnightblue" points="210.479,-473.599 201.644,-467.751 204.904,-477.832 210.479,-473.599"/>
</g>
<!-- Node24 -->
<g id="node24" class="node"><title>Node24</title>
<g id="a_node24"><a xlink:href="twist__stack_8hpp.html" target="_top" xlink:title="twist_stack.hpp">
<polygon fill="none" stroke="black" points="232.5,-392.5 232.5,-411.5 325.5,-411.5 325.5,-392.5 232.5,-392.5"/>
<text text-anchor="middle" x="279" y="-399.5" font-family="Helvetica,sans-Serif" font-size="10.00">twist_stack.hpp</text>
</a>
</g>
</g>
<!-- Node1&#45;&gt;Node24 -->
<g id="edge50" class="edge"><title>Node1&#45;&gt;Node24</title>
<path fill="none" stroke="midnightblue" d="M241.05,-504.249C246.057,-495.334 253.721,-481.008 259,-468 265.243,-452.615 270.662,-434.519 274.279,-421.333"/>
<polygon fill="midnightblue" stroke="midnightblue" points="277.685,-422.142 276.871,-411.578 270.92,-420.343 277.685,-422.142"/>
</g>
<!-- Node3 -->
<g id="node3" class="node"><title>Node3</title>
<g id="a_node3"><a xlink:href="parser_8hpp.html" target="_top" xlink:title="This file contains macros for parsing the parameters to the &#39;inter&#39; command. ">
<polygon fill="none" stroke="black" points="72,-224.5 72,-243.5 140,-243.5 140,-224.5 72,-224.5"/>
<text text-anchor="middle" x="106" y="-231.5" font-family="Helvetica,sans-Serif" font-size="10.00">parser.hpp</text>
</a>
</g>
</g>
<!-- Node2&#45;&gt;Node3 -->
<g id="edge2" class="edge"><title>Node2&#45;&gt;Node3</title>
<path fill="none" stroke="midnightblue" d="M186.918,-448.349C171.989,-431.826 140.228,-394.026 125,-356 111.215,-321.576 107.394,-277.905 106.359,-253.558"/>
<polygon fill="midnightblue" stroke="midnightblue" points="109.857,-253.444 106.048,-243.558 102.86,-253.661 109.857,-253.444"/>
</g>
<!-- Node22 -->
<g id="node22" class="node"><title>Node22</title>
<g id="a_node22"><a xlink:href="interaction__data_8hpp.html" target="_top" xlink:title="Various procedures concerning interactions between particles. ">
<polygon fill="none" stroke="black" points="134.5,-336.5 134.5,-355.5 251.5,-355.5 251.5,-336.5 134.5,-336.5"/>
<text text-anchor="middle" x="193" y="-343.5" font-family="Helvetica,sans-Serif" font-size="10.00">interaction_data.hpp</text>
</a>
</g>
</g>
<!-- Node2&#45;&gt;Node22 -->
<g id="edge25" class="edge"><title>Node2&#45;&gt;Node22</title>
<path fill="none" stroke="midnightblue" d="M194.843,-448.368C194.52,-430.617 193.776,-389.666 193.338,-365.597"/>
<polygon fill="midnightblue" stroke="midnightblue" points="196.838,-365.526 193.156,-355.591 189.839,-365.653 196.838,-365.526"/>
</g>
<!-- Node2&#45;&gt;Node24 -->
<g id="edge29" class="edge"><title>Node2&#45;&gt;Node24</title>
<path fill="none" stroke="midnightblue" d="M208.496,-448.324C221.6,-439.9 241.712,-426.971 257.107,-417.074"/>
<polygon fill="midnightblue" stroke="midnightblue" points="259.018,-420.006 265.537,-411.655 255.233,-414.118 259.018,-420.006"/>
</g>
<!-- Node4 -->
<g id="node4" class="node"><title>Node4</title>
<g id="a_node4"><a xlink:href="utils_8hpp.html" target="_top" xlink:title="Small functions that are useful not only for one modul. ">
<polygon fill="none" stroke="black" points="315.5,-168.5 315.5,-187.5 374.5,-187.5 374.5,-168.5 315.5,-168.5"/>
<text text-anchor="middle" x="345" y="-175.5" font-family="Helvetica,sans-Serif" font-size="10.00">utils.hpp</text>
</a>
</g>
</g>
<!-- Node3&#45;&gt;Node4 -->
<g id="edge3" class="edge"><title>Node3&#45;&gt;Node4</title>
<path fill="none" stroke="midnightblue" d="M140.243,-225.263C183.922,-215.394 259.311,-198.361 305.411,-187.945"/>
<polygon fill="midnightblue" stroke="midnightblue" points="306.359,-191.319 315.342,-185.701 304.816,-184.491 306.359,-191.319"/>
</g>
<!-- Node8 -->
<g id="node8" class="node"><title>Node8</title>
<polygon fill="none" stroke="#bfbfbf" points="0,-112.5 0,-131.5 50,-131.5 50,-112.5 0,-112.5"/>
<text text-anchor="middle" x="25" y="-119.5" font-family="Helvetica,sans-Serif" font-size="10.00">cstring</text>
</g>
<!-- Node3&#45;&gt;Node8 -->
<g id="edge23" class="edge"><title>Node3&#45;&gt;Node8</title>
<path fill="none" stroke="midnightblue" d="M99.6441,-224.368C86.2176,-206.135 54.768,-163.426 37.279,-139.675"/>
<polygon fill="midnightblue" stroke="midnightblue" points="40.0743,-137.568 31.3264,-131.591 34.4376,-141.719 40.0743,-137.568"/>
</g>
<!-- Node21 -->
<g id="node21" class="node"><title>Node21</title>
<polygon fill="none" stroke="#bfbfbf" points="87,-168.5 87,-187.5 125,-187.5 125,-168.5 87,-168.5"/>
<text text-anchor="middle" x="106" y="-175.5" font-family="Helvetica,sans-Serif" font-size="10.00">tcl.h</text>
</g>
<!-- Node3&#45;&gt;Node21 -->
<g id="edge24" class="edge"><title>Node3&#45;&gt;Node21</title>
<path fill="none" stroke="midnightblue" d="M106,-224.083C106,-217.006 106,-206.861 106,-197.986"/>
<polygon fill="midnightblue" stroke="midnightblue" points="109.5,-197.751 106,-187.751 102.5,-197.751 109.5,-197.751"/>
</g>
<!-- Node5 -->
<g id="node5" class="node"><title>Node5</title>
<polygon fill="none" stroke="#bfbfbf" points="151.5,-112.5 151.5,-131.5 198.5,-131.5 198.5,-112.5 151.5,-112.5"/>
<text text-anchor="middle" x="175" y="-119.5" font-family="Helvetica,sans-Serif" font-size="10.00">cmath</text>
</g>
<!-- Node4&#45;&gt;Node5 -->
<g id="edge4" class="edge"><title>Node4&#45;&gt;Node5</title>
<path fill="none" stroke="midnightblue" d="M318.063,-168.444C288.326,-158.998 240.427,-143.783 208.344,-133.592"/>
<polygon fill="midnightblue" stroke="midnightblue" points="209.117,-130.165 198.526,-130.473 206.997,-136.836 209.117,-130.165"/>
</g>
<!-- Node6 -->
<g id="node6" class="node"><title>Node6</title>
<polygon fill="none" stroke="#bfbfbf" points="217,-112.5 217,-131.5 263,-131.5 263,-112.5 217,-112.5"/>
<text text-anchor="middle" x="240" y="-119.5" font-family="Helvetica,sans-Serif" font-size="10.00">cstdio</text>
</g>
<!-- Node4&#45;&gt;Node6 -->
<g id="edge5" class="edge"><title>Node4&#45;&gt;Node6</title>
<path fill="none" stroke="midnightblue" d="M328.13,-168.324C311.291,-159.664 285.193,-146.242 265.762,-136.249"/>
<polygon fill="midnightblue" stroke="midnightblue" points="267.322,-133.116 256.828,-131.655 264.12,-139.341 267.322,-133.116"/>
</g>
<!-- Node7 -->
<g id="node7" class="node"><title>Node7</title>
<polygon fill="none" stroke="#bfbfbf" points="281.5,-112.5 281.5,-131.5 330.5,-131.5 330.5,-112.5 281.5,-112.5"/>
<text text-anchor="middle" x="306" y="-119.5" font-family="Helvetica,sans-Serif" font-size="10.00">cstdlib</text>
</g>
<!-- Node4&#45;&gt;Node7 -->
<g id="edge6" class="edge"><title>Node4&#45;&gt;Node7</title>
<path fill="none" stroke="midnightblue" d="M338.56,-168.083C333.051,-160.455 324.969,-149.264 318.235,-139.941"/>
<polygon fill="midnightblue" stroke="midnightblue" points="321.013,-137.809 312.32,-131.751 315.338,-141.907 321.013,-137.809"/>
</g>
<!-- Node4&#45;&gt;Node8 -->
<g id="edge7" class="edge"><title>Node4&#45;&gt;Node8</title>
<path fill="none" stroke="midnightblue" d="M315.173,-173.334C264.639,-166.902 158.825,-152.481 60.0263,-132.036"/>
<polygon fill="midnightblue" stroke="midnightblue" points="60.6873,-128.599 50.1821,-129.974 59.252,-135.45 60.6873,-128.599"/>
</g>
<!-- Node9 -->
<g id="node9" class="node"><title>Node9</title>
<g id="a_node9"><a xlink:href="config_8hpp.html" target="_top" xlink:title="This file contains the defaults for Espresso. ">
<polygon fill="none" stroke="black" points="509.5,-56.5 509.5,-75.5 576.5,-75.5 576.5,-56.5 509.5,-56.5"/>
<text text-anchor="middle" x="543" y="-63.5" font-family="Helvetica,sans-Serif" font-size="10.00">config.hpp</text>
</a>
</g>
</g>
<!-- Node4&#45;&gt;Node9 -->
<g id="edge8" class="edge"><title>Node4&#45;&gt;Node9</title>
<path fill="none" stroke="midnightblue" d="M374.499,-168.457C398.864,-160.753 433.887,-148.16 462,-132 486.268,-118.05 510.892,-97.1141 526.514,-82.7963"/>
<polygon fill="midnightblue" stroke="midnightblue" points="529.29,-84.9932 534.208,-75.6091 524.511,-79.8779 529.29,-84.9932"/>
</g>
<!-- Node13 -->
<g id="node13" class="node"><title>Node13</title>
<g id="a_node13"><a xlink:href="debug_8hpp.html" target="_top" xlink:title="This file controls debug facilities. ">
<polygon fill="none" stroke="black" points="509,-112.5 509,-131.5 577,-131.5 577,-112.5 509,-112.5"/>
<text text-anchor="middle" x="543" y="-119.5" font-family="Helvetica,sans-Serif" font-size="10.00">debug.hpp</text>
</a>
</g>
</g>
<!-- Node4&#45;&gt;Node13 -->
<g id="edge12" class="edge"><title>Node4&#45;&gt;Node13</title>
<path fill="none" stroke="midnightblue" d="M374.643,-168.916C408.412,-159.706 463.82,-144.595 501.784,-134.241"/>
<polygon fill="midnightblue" stroke="midnightblue" points="502.789,-137.594 511.516,-131.587 500.947,-130.841 502.789,-137.594"/>
</g>
<!-- Node14 -->
<g id="node14" class="node"><title>Node14</title>
<g id="a_node14"><a xlink:href="lees__edwards_8hpp.html" target="_top" xlink:title="lees_edwards.hpp">
<polygon fill="none" stroke="black" points="349,-112.5 349,-131.5 453,-131.5 453,-112.5 349,-112.5"/>
<text text-anchor="middle" x="401" y="-119.5" font-family="Helvetica,sans-Serif" font-size="10.00">lees_edwards.hpp</text>
</a>
</g>
</g>
<!-- Node4&#45;&gt;Node14 -->
<g id="edge14" class="edge"><title>Node4&#45;&gt;Node14</title>
<path fill="none" stroke="midnightblue" d="M353.997,-168.324C362.194,-160.42 374.506,-148.548 384.472,-138.938"/>
<polygon fill="midnightblue" stroke="midnightblue" points="387.07,-141.295 391.839,-131.834 382.211,-136.256 387.07,-141.295"/>
</g>
<!-- Node15 -->
<g id="node15" class="node"><title>Node15</title>
<g id="a_node15"><a xlink:href="errorhandling_8hpp.html" target="_top" xlink:title="This file contains the errorhandling code for severe errors, like a broken bond or illegal parameter ...">
<polygon fill="none" stroke="black" points="699.5,-112.5 699.5,-131.5 802.5,-131.5 802.5,-112.5 699.5,-112.5"/>
<text text-anchor="middle" x="751" y="-119.5" font-family="Helvetica,sans-Serif" font-size="10.00">errorhandling.hpp</text>
</a>
</g>
</g>
<!-- Node4&#45;&gt;Node15 -->
<g id="edge16" class="edge"><title>Node4&#45;&gt;Node15</title>
<path fill="none" stroke="midnightblue" d="M374.526,-173.073C440.415,-164.309 600.614,-143.002 689.329,-131.202"/>
<polygon fill="midnightblue" stroke="midnightblue" points="689.807,-134.67 699.259,-129.882 688.884,-127.731 689.807,-134.67"/>
</g>
<!-- Node19 -->
<g id="node19" class="node"><title>Node19</title>
<polygon fill="none" stroke="#bfbfbf" points="595.5,-112.5 595.5,-131.5 642.5,-131.5 642.5,-112.5 595.5,-112.5"/>
<text text-anchor="middle" x="619" y="-119.5" font-family="Helvetica,sans-Serif" font-size="10.00">vector</text>
</g>
<!-- Node4&#45;&gt;Node19 -->
<g id="edge21" class="edge"><title>Node4&#45;&gt;Node19</title>
<path fill="none" stroke="midnightblue" d="M374.843,-172.234C418.754,-165.047 503.534,-150.509 585.311,-131.999"/>
<polygon fill="midnightblue" stroke="midnightblue" points="586.298,-135.363 595.265,-129.722 584.737,-128.54 586.298,-135.363"/>
</g>
<!-- Node20 -->
<g id="node20" class="node"><title>Node20</title>
<polygon fill="none" stroke="#bfbfbf" points="68.5,-112.5 68.5,-131.5 133.5,-131.5 133.5,-112.5 68.5,-112.5"/>
<text text-anchor="middle" x="101" y="-119.5" font-family="Helvetica,sans-Serif" font-size="10.00">exception</text>
</g>
<!-- Node4&#45;&gt;Node20 -->
<g id="edge22" class="edge"><title>Node4&#45;&gt;Node20</title>
<path fill="none" stroke="midnightblue" d="M315.081,-170.379C272.192,-160.887 193.005,-143.362 143.891,-132.492"/>
<polygon fill="midnightblue" stroke="midnightblue" points="144.411,-129.023 133.891,-130.279 142.899,-135.857 144.411,-129.023"/>
</g>
<!-- Node10 -->
<g id="node10" class="node"><title>Node10</title>
<g id="a_node10"><a xlink:href="acconfig_8hpp.html" target="_top" xlink:title="acconfig.hpp">
<polygon fill="none" stroke="black" points="393,-0.5 393,-19.5 471,-19.5 471,-0.5 393,-0.5"/>
<text text-anchor="middle" x="432" y="-7.5" font-family="Helvetica,sans-Serif" font-size="10.00">acconfig.hpp</text>
</a>
</g>
</g>
<!-- Node9&#45;&gt;Node10 -->
<g id="edge9" class="edge"><title>Node9&#45;&gt;Node10</title>
<path fill="none" stroke="midnightblue" d="M525.166,-56.324C507.284,-47.6247 479.525,-34.1202 458.954,-24.113"/>
<polygon fill="midnightblue" stroke="midnightblue" points="460.313,-20.8819 449.79,-19.6545 457.251,-27.1765 460.313,-20.8819"/>
</g>
<!-- Node11 -->
<g id="node11" class="node"><title>Node11</title>
<g id="a_node11"><a xlink:href="myconfig-final_8hpp.html" target="_top" xlink:title="myconfig&#45;final.hpp">
<polygon fill="none" stroke="black" points="489.5,-0.5 489.5,-19.5 596.5,-19.5 596.5,-0.5 489.5,-0.5"/>
<text text-anchor="middle" x="543" y="-7.5" font-family="Helvetica,sans-Serif" font-size="10.00">myconfig&#45;final.hpp</text>
</a>
</g>
</g>
<!-- Node9&#45;&gt;Node11 -->
<g id="edge10" class="edge"><title>Node9&#45;&gt;Node11</title>
<path fill="none" stroke="midnightblue" d="M543,-56.083C543,-49.0059 543,-38.8611 543,-29.9865"/>
<polygon fill="midnightblue" stroke="midnightblue" points="546.5,-29.751 543,-19.7511 539.5,-29.7511 546.5,-29.751"/>
</g>
<!-- Node12 -->
<g id="node12" class="node"><title>Node12</title>
<g id="a_node12"><a xlink:href="config-features_8hpp.html" target="_top" xlink:title="config&#45;features.hpp">
<polygon fill="none" stroke="black" points="614.5,-0.5 614.5,-19.5 725.5,-19.5 725.5,-0.5 614.5,-0.5"/>
<text text-anchor="middle" x="670" y="-7.5" font-family="Helvetica,sans-Serif" font-size="10.00">config&#45;features.hpp</text>
</a>
</g>
</g>
<!-- Node9&#45;&gt;Node12 -->
<g id="edge11" class="edge"><title>Node9&#45;&gt;Node12</title>
<path fill="none" stroke="midnightblue" d="M563.124,-56.4435C584.024,-47.5566 616.935,-33.5632 640.716,-23.4514"/>
<polygon fill="midnightblue" stroke="midnightblue" points="642.138,-26.6504 649.971,-19.5164 639.398,-20.2085 642.138,-26.6504"/>
</g>
<!-- Node13&#45;&gt;Node9 -->
<g id="edge13" class="edge"><title>Node13&#45;&gt;Node9</title>
<path fill="none" stroke="midnightblue" d="M543,-112.083C543,-105.006 543,-94.8611 543,-85.9865"/>
<polygon fill="midnightblue" stroke="midnightblue" points="546.5,-85.751 543,-75.7511 539.5,-85.7511 546.5,-85.751"/>
</g>
<!-- Node14&#45;&gt;Node9 -->
<g id="edge15" class="edge"><title>Node14&#45;&gt;Node9</title>
<path fill="none" stroke="midnightblue" d="M423.5,-112.444C447.077,-103.478 484.322,-89.314 510.964,-79.1827"/>
<polygon fill="midnightblue" stroke="midnightblue" points="512.502,-82.3424 520.605,-75.5164 510.014,-75.7995 512.502,-82.3424"/>
</g>
<!-- Node15&#45;&gt;Node9 -->
<g id="edge17" class="edge"><title>Node15&#45;&gt;Node9</title>
<path fill="none" stroke="midnightblue" d="M718.042,-112.444C682.213,-103.142 624.837,-88.246 585.609,-78.062"/>
<polygon fill="midnightblue" stroke="midnightblue" points="586.363,-74.6417 575.804,-75.5164 584.604,-81.4171 586.363,-74.6417"/>
</g>
<!-- Node16 -->
<g id="node16" class="node"><title>Node16</title>
<polygon fill="none" stroke="#bfbfbf" points="729,-56.5 729,-75.5 773,-75.5 773,-56.5 729,-56.5"/>
<text text-anchor="middle" x="751" y="-63.5" font-family="Helvetica,sans-Serif" font-size="10.00">string</text>
</g>
<!-- Node15&#45;&gt;Node16 -->
<g id="edge18" class="edge"><title>Node15&#45;&gt;Node16</title>
<path fill="none" stroke="midnightblue" d="M751,-112.083C751,-105.006 751,-94.8611 751,-85.9865"/>
<polygon fill="midnightblue" stroke="midnightblue" points="754.5,-85.751 751,-75.7511 747.5,-85.7511 754.5,-85.751"/>
</g>
<!-- Node17 -->
<g id="node17" class="node"><title>Node17</title>
<polygon fill="none" stroke="#bfbfbf" points="791,-56.5 791,-75.5 847,-75.5 847,-56.5 791,-56.5"/>
<text text-anchor="middle" x="819" y="-63.5" font-family="Helvetica,sans-Serif" font-size="10.00">sstream</text>
</g>
<!-- Node15&#45;&gt;Node17 -->
<g id="edge19" class="edge"><title>Node15&#45;&gt;Node17</title>
<path fill="none" stroke="midnightblue" d="M761.925,-112.324C772.175,-104.185 787.721,-91.8395 800.001,-82.0874"/>
<polygon fill="midnightblue" stroke="midnightblue" points="802.221,-84.7937 807.876,-75.8339 797.868,-79.3119 802.221,-84.7937"/>
</g>
<!-- Node18 -->
<g id="node18" class="node"><title>Node18</title>
<polygon fill="none" stroke="#bfbfbf" points="679,-56.5 679,-75.5 711,-75.5 711,-56.5 679,-56.5"/>
<text text-anchor="middle" x="695" y="-63.5" font-family="Helvetica,sans-Serif" font-size="10.00">list</text>
</g>
<!-- Node15&#45;&gt;Node18 -->
<g id="edge20" class="edge"><title>Node15&#45;&gt;Node18</title>
<path fill="none" stroke="midnightblue" d="M742.003,-112.324C733.806,-104.42 721.494,-92.5482 711.528,-82.9377"/>
<polygon fill="midnightblue" stroke="midnightblue" points="713.789,-80.2558 704.161,-75.8339 708.93,-85.2947 713.789,-80.2558"/>
</g>
<!-- Node22&#45;&gt;Node4 -->
<g id="edge26" class="edge"><title>Node22&#45;&gt;Node4</title>
<path fill="none" stroke="midnightblue" d="M195.135,-336.218C200.818,-314.511 218.236,-257.662 252,-224 266.966,-209.079 287.856,-198.36 306.047,-191.136"/>
<polygon fill="midnightblue" stroke="midnightblue" points="307.408,-194.364 315.543,-187.576 304.951,-187.81 307.408,-194.364"/>
</g>
<!-- Node23 -->
<g id="node23" class="node"><title>Node23</title>
<g id="a_node23"><a xlink:href="particle__data_8hpp.html" target="_top" xlink:title="For more information on particle_data, see particle_data.c. ">
<polygon fill="none" stroke="black" points="294.5,-224.5 294.5,-243.5 395.5,-243.5 395.5,-224.5 294.5,-224.5"/>
<text text-anchor="middle" x="345" y="-231.5" font-family="Helvetica,sans-Serif" font-size="10.00">particle_data.hpp</text>
</a>
</g>
</g>
<!-- Node22&#45;&gt;Node23 -->
<g id="edge27" class="edge"><title>Node22&#45;&gt;Node23</title>
<path fill="none" stroke="midnightblue" d="M204.927,-336.368C230.899,-317.573 292.811,-272.768 324.918,-249.533"/>
<polygon fill="midnightblue" stroke="midnightblue" points="327.079,-252.29 333.128,-243.591 322.975,-246.619 327.079,-252.29"/>
</g>
<!-- Node23&#45;&gt;Node4 -->
<g id="edge28" class="edge"><title>Node23&#45;&gt;Node4</title>
<path fill="none" stroke="midnightblue" d="M345,-224.083C345,-217.006 345,-206.861 345,-197.986"/>
<polygon fill="midnightblue" stroke="midnightblue" points="348.5,-197.751 345,-187.751 341.5,-197.751 348.5,-197.751"/>
</g>
<!-- Node24&#45;&gt;Node4 -->
<g id="edge30" class="edge"><title>Node24&#45;&gt;Node4</title>
<path fill="none" stroke="midnightblue" d="M276.8,-392.233C270.527,-365.254 254.866,-281.799 285,-224 291.955,-210.659 304.855,-200.194 316.917,-192.726"/>
<polygon fill="midnightblue" stroke="midnightblue" points="318.926,-195.609 325.864,-187.602 315.447,-189.534 318.926,-195.609"/>
</g>
<!-- Node24&#45;&gt;Node22 -->
<g id="edge31" class="edge"><title>Node24&#45;&gt;Node22</title>
<path fill="none" stroke="midnightblue" d="M265.183,-392.324C251.767,-383.9 231.176,-370.971 215.414,-361.074"/>
<polygon fill="midnightblue" stroke="midnightblue" points="217.113,-358.008 206.783,-355.655 213.391,-363.936 217.113,-358.008"/>
</g>
<!-- Node24&#45;&gt;Node23 -->
<g id="edge32" class="edge"><title>Node24&#45;&gt;Node23</title>
<path fill="none" stroke="midnightblue" d="M282.548,-392.075C292.982,-365.832 323.711,-288.545 337.797,-253.117"/>
<polygon fill="midnightblue" stroke="midnightblue" points="341.151,-254.154 341.593,-243.568 334.646,-251.567 341.151,-254.154"/>
</g>
<!-- Node25 -->
<g id="node25" class="node"><title>Node25</title>
<g id="a_node25"><a xlink:href="grid_8hpp.html" target="_top" xlink:title="Domain decomposition for parallel computing. ">
<polygon fill="none" stroke="black" points="588,-336.5 588,-355.5 644,-355.5 644,-336.5 588,-336.5"/>
<text text-anchor="middle" x="616" y="-343.5" font-family="Helvetica,sans-Serif" font-size="10.00">grid.hpp</text>
</a>
</g>
</g>
<!-- Node24&#45;&gt;Node25 -->
<g id="edge33" class="edge"><title>Node24&#45;&gt;Node25</title>
<path fill="none" stroke="midnightblue" d="M325.505,-393.548C392.585,-382.799 515.263,-363.142 577.538,-353.163"/>
<polygon fill="midnightblue" stroke="midnightblue" points="578.397,-356.57 587.717,-351.532 577.289,-349.658 578.397,-356.57"/>
</g>
<!-- Node25&#45;&gt;Node4 -->
<g id="edge34" class="edge"><title>Node25&#45;&gt;Node4</title>
<path fill="none" stroke="midnightblue" d="M625.962,-336.407C638.849,-324.187 658.675,-300.943 650,-280 636.53,-247.481 625.186,-240.319 594,-224 526.452,-188.654 436.057,-180.55 384.833,-178.997"/>
<polygon fill="midnightblue" stroke="midnightblue" points="384.903,-175.498 374.824,-178.763 384.739,-182.496 384.903,-175.498"/>
</g>
<!-- Node25&#45;&gt;Node15 -->
<g id="edge49" class="edge"><title>Node25&#45;&gt;Node15</title>
<path fill="none" stroke="midnightblue" d="M644.002,-337.275C698.516,-320.544 817.77,-275.24 866,-188 881.315,-160.298 846.687,-143.572 811.517,-134.04"/>
<polygon fill="midnightblue" stroke="midnightblue" points="812.178,-130.597 801.625,-131.539 810.462,-137.383 812.178,-130.597"/>
</g>
<!-- Node26 -->
<g id="node26" class="node"><title>Node26</title>
<polygon fill="none" stroke="#bfbfbf" points="591,-280.5 591,-299.5 641,-299.5 641,-280.5 591,-280.5"/>
<text text-anchor="middle" x="616" y="-287.5" font-family="Helvetica,sans-Serif" font-size="10.00">climits</text>
</g>
<!-- Node25&#45;&gt;Node26 -->
<g id="edge35" class="edge"><title>Node25&#45;&gt;Node26</title>
<path fill="none" stroke="midnightblue" d="M616,-336.083C616,-329.006 616,-318.861 616,-309.986"/>
<polygon fill="midnightblue" stroke="midnightblue" points="619.5,-309.751 616,-299.751 612.5,-309.751 619.5,-309.751"/>
</g>
<!-- Node27 -->
<g id="node27" class="node"><title>Node27</title>
<g id="a_node27"><a xlink:href="communication_8hpp.html" target="_top" xlink:title="This file contains the asynchronous MPI communication. ">
<polygon fill="none" stroke="black" points="459.5,-280.5 459.5,-299.5 572.5,-299.5 572.5,-280.5 459.5,-280.5"/>
<text text-anchor="middle" x="516" y="-287.5" font-family="Helvetica,sans-Serif" font-size="10.00">communication.hpp</text>
</a>
</g>
</g>
<!-- Node25&#45;&gt;Node27 -->
<g id="edge36" class="edge"><title>Node25&#45;&gt;Node27</title>
<path fill="none" stroke="midnightblue" d="M599.933,-336.324C584.042,-327.743 559.493,-314.486 541.042,-304.522"/>
<polygon fill="midnightblue" stroke="midnightblue" points="542.489,-301.326 532.027,-299.655 539.163,-307.486 542.489,-301.326"/>
</g>
<!-- Node27&#45;&gt;Node23 -->
<g id="edge37" class="edge"><title>Node27&#45;&gt;Node23</title>
<path fill="none" stroke="midnightblue" d="M488.905,-280.444C460.012,-271.32 414.075,-256.813 381.895,-246.651"/>
<polygon fill="midnightblue" stroke="midnightblue" points="382.559,-243.19 371.969,-243.516 380.451,-249.865 382.559,-243.19"/>
</g>
<!-- Node28 -->
<g id="node28" class="node"><title>Node28</title>
<g id="a_node28"><a xlink:href="random_8hpp.html" target="_top" xlink:title="A random generator. ">
<polygon fill="none" stroke="black" points="413.5,-224.5 413.5,-243.5 488.5,-243.5 488.5,-224.5 413.5,-224.5"/>
<text text-anchor="middle" x="451" y="-231.5" font-family="Helvetica,sans-Serif" font-size="10.00">random.hpp</text>
</a>
</g>
</g>
<!-- Node27&#45;&gt;Node28 -->
<g id="edge38" class="edge"><title>Node27&#45;&gt;Node28</title>
<path fill="none" stroke="midnightblue" d="M505.557,-280.324C495.854,-272.263 481.185,-260.077 469.5,-250.369"/>
<polygon fill="midnightblue" stroke="midnightblue" points="471.562,-247.532 461.633,-243.834 467.089,-252.916 471.562,-247.532"/>
</g>
<!-- Node29 -->
<g id="node29" class="node"><title>Node29</title>
<g id="a_node29"><a xlink:href="topology_8hpp.html" target="_top" xlink:title="This file contains functions for handling the system topology. ">
<polygon fill="none" stroke="black" points="506.5,-224.5 506.5,-243.5 585.5,-243.5 585.5,-224.5 506.5,-224.5"/>
<text text-anchor="middle" x="546" y="-231.5" font-family="Helvetica,sans-Serif" font-size="10.00">topology.hpp</text>
</a>
</g>
</g>
<!-- Node27&#45;&gt;Node29 -->
<g id="edge40" class="edge"><title>Node27&#45;&gt;Node29</title>
<path fill="none" stroke="midnightblue" d="M520.954,-280.083C525.104,-272.613 531.153,-261.724 536.267,-252.52"/>
<polygon fill="midnightblue" stroke="midnightblue" points="539.341,-254.192 541.138,-243.751 533.222,-250.793 539.341,-254.192"/>
</g>
<!-- Node30 -->
<g id="node30" class="node"><title>Node30</title>
<g id="a_node30"><a xlink:href="mpi_8h.html" target="_top" xlink:title="This is the MPIfake implementation. ">
<polygon fill="none" stroke="black" points="706,-224.5 706,-243.5 750,-243.5 750,-224.5 706,-224.5"/>
<text text-anchor="middle" x="728" y="-231.5" font-family="Helvetica,sans-Serif" font-size="10.00">mpi.h</text>
</a>
</g>
</g>
<!-- Node27&#45;&gt;Node30 -->
<g id="edge42" class="edge"><title>Node27&#45;&gt;Node30</title>
<path fill="none" stroke="midnightblue" d="M549.592,-280.444C589.783,-270.206 656.578,-253.192 696.035,-243.142"/>
<polygon fill="midnightblue" stroke="midnightblue" points="697.093,-246.484 705.919,-240.624 695.365,-239.701 697.093,-246.484"/>
</g>
<!-- Node34 -->
<g id="node34" class="node"><title>Node34</title>
<g id="a_node34"><a xlink:href="cuda__init_8hpp.html" target="_top" xlink:title="cuda_init.hpp">
<polygon fill="none" stroke="black" points="564,-168.5 564,-187.5 646,-187.5 646,-168.5 564,-168.5"/>
<text text-anchor="middle" x="605" y="-175.5" font-family="Helvetica,sans-Serif" font-size="10.00">cuda_init.hpp</text>
</a>
</g>
</g>
<!-- Node27&#45;&gt;Node34 -->
<g id="edge46" class="edge"><title>Node27&#45;&gt;Node34</title>
<path fill="none" stroke="midnightblue" d="M542.589,-280.422C559.98,-273.406 581.684,-261.713 594,-244 603.29,-230.639 605.654,-212.068 605.919,-198.196"/>
<polygon fill="midnightblue" stroke="midnightblue" points="609.414,-197.81 605.755,-187.867 602.415,-197.921 609.414,-197.81"/>
</g>
<!-- Node28&#45;&gt;Node4 -->
<g id="edge39" class="edge"><title>Node28&#45;&gt;Node4</title>
<path fill="none" stroke="midnightblue" d="M433.969,-224.324C416.97,-215.664 390.624,-202.242 371.007,-192.249"/>
<polygon fill="midnightblue" stroke="midnightblue" points="372.488,-189.075 361.988,-187.655 369.31,-195.312 372.488,-189.075"/>
</g>
<!-- Node29&#45;&gt;Node4 -->
<g id="edge41" class="edge"><title>Node29&#45;&gt;Node4</title>
<path fill="none" stroke="midnightblue" d="M514.151,-224.444C478.992,-214.998 422.36,-199.783 384.427,-189.592"/>
<polygon fill="midnightblue" stroke="midnightblue" points="385.3,-186.203 374.734,-186.988 383.484,-192.963 385.3,-186.203"/>
</g>
<!-- Node31 -->
<g id="node31" class="node"><title>Node31</title>
<polygon fill="none" stroke="#bfbfbf" points="735.5,-168.5 735.5,-187.5 788.5,-187.5 788.5,-168.5 735.5,-168.5"/>
<text text-anchor="middle" x="762" y="-175.5" font-family="Helvetica,sans-Serif" font-size="10.00">string.h</text>
</g>
<!-- Node30&#45;&gt;Node31 -->
<g id="edge43" class="edge"><title>Node30&#45;&gt;Node31</title>
<path fill="none" stroke="midnightblue" d="M733.614,-224.083C738.367,-216.534 745.318,-205.495 751.152,-196.23"/>
<polygon fill="midnightblue" stroke="midnightblue" points="754.124,-198.078 756.49,-187.751 748.2,-194.349 754.124,-198.078"/>
</g>
<!-- Node32 -->
<g id="node32" class="node"><title>Node32</title>
<polygon fill="none" stroke="#bfbfbf" points="807,-168.5 807,-187.5 857,-187.5 857,-168.5 807,-168.5"/>
<text text-anchor="middle" x="832" y="-175.5" font-family="Helvetica,sans-Serif" font-size="10.00">stdio.h</text>
</g>
<!-- Node30&#45;&gt;Node32 -->
<g id="edge44" class="edge"><title>Node30&#45;&gt;Node32</title>
<path fill="none" stroke="midnightblue" d="M744.709,-224.324C761.312,-215.703 787.002,-202.364 806.22,-192.386"/>
<polygon fill="midnightblue" stroke="midnightblue" points="808.07,-195.369 815.332,-187.655 804.844,-189.156 808.07,-195.369"/>
</g>
<!-- Node33 -->
<g id="node33" class="node"><title>Node33</title>
<polygon fill="none" stroke="#bfbfbf" points="664.5,-168.5 664.5,-187.5 717.5,-187.5 717.5,-168.5 664.5,-168.5"/>
<text text-anchor="middle" x="691" y="-175.5" font-family="Helvetica,sans-Serif" font-size="10.00">stdlib.h</text>
</g>
<!-- Node30&#45;&gt;Node33 -->
<g id="edge45" class="edge"><title>Node30&#45;&gt;Node33</title>
<path fill="none" stroke="midnightblue" d="M721.89,-224.083C716.718,-216.534 709.154,-205.495 702.806,-196.23"/>
<polygon fill="midnightblue" stroke="midnightblue" points="705.536,-194.022 696.996,-187.751 699.761,-197.979 705.536,-194.022"/>
</g>
<!-- Node34&#45;&gt;Node9 -->
<g id="edge47" class="edge"><title>Node34&#45;&gt;Node9</title>
<path fill="none" stroke="midnightblue" d="M619.27,-168.312C637.677,-155.979 665.783,-132.602 652,-112 637.407,-90.1877 610.099,-78.9367 586.468,-73.1393"/>
<polygon fill="midnightblue" stroke="midnightblue" points="587.131,-69.7016 576.613,-70.9736 585.629,-76.5385 587.131,-69.7016"/>
</g>
<!-- Node34&#45;&gt;Node19 -->
<g id="edge48" class="edge"><title>Node34&#45;&gt;Node19</title>
<path fill="none" stroke="midnightblue" d="M607.312,-168.083C609.167,-160.927 611.835,-150.635 614.154,-141.691"/>
<polygon fill="midnightblue" stroke="midnightblue" points="617.609,-142.309 616.731,-131.751 610.834,-140.553 617.609,-142.309"/>
</g>
</g>
</svg>
        <g id="navigator" transform="translate(0 0)" fill="#404254">
                <rect fill="#f2f5e9" fill-opacity="0.5" stroke="#606060" stroke-width=".5" x="0" y="0" width="60" height="60"/>
                <use id="zoomplus" xlink:href="#zoomPlus" x="17" y="9" onmousedown="handleZoom(evt,'in')"/>
                <use id="zoomminus" xlink:href="#zoomMin" x="42" y="9" onmousedown="handleZoom(evt,'out')"/>
                <use id="reset" xlink:href="#resetDef" x="30" y="36" onmousedown="handleReset()"/>
                <g id="arrowUp" xlink:href="#dirArrow" transform="translate(30 24)" onmousedown="handlePan(0,-1)">
                  <use xlink:href="#rim" fill="#404040">
                        <set attributeName="fill" to="#808080" begin="arrowUp.mouseover" end="arrowUp.mouseout"/>
                  </use>
                  <path fill="none" stroke="white" stroke-width="1.5" d="M0,-3.0v7 M-2.5,-0.5L0,-3.0L2.5,-0.5"/>
                </g>
                <g id="arrowRight" xlink:href="#dirArrow" transform="rotate(90) translate(36 -43)" onmousedown="handlePan(1,0)">
                  <use xlink:href="#rim" fill="#404040">
                        <set attributeName="fill" to="#808080" begin="arrowRight.mouseover" end="arrowRight.mouseout"/>
                  </use>
                  <path fill="none" stroke="white" stroke-width="1.5" d="M0,-3.0v7 M-2.5,-0.5L0,-3.0L2.5,-0.5"/>
                </g>
                <g id="arrowDown" xlink:href="#dirArrow" transform="rotate(180) translate(-30 -48)" onmousedown="handlePan(0,1)">
                  <use xlink:href="#rim" fill="#404040">
                        <set attributeName="fill" to="#808080" begin="arrowDown.mouseover" end="arrowDown.mouseout"/>
                  </use>
                  <path fill="none" stroke="white" stroke-width="1.5" d="M0,-3.0v7 M-2.5,-0.5L0,-3.0L2.5,-0.5"/>
                </g>
                <g id="arrowLeft" xlink:href="#dirArrow" transform="rotate(270) translate(-36 17)" onmousedown="handlePan(-1,0)">
                  <use xlink:href="#rim" fill="#404040">
                        <set attributeName="fill" to="#808080" begin="arrowLeft.mouseover" end="arrowLeft.mouseout"/>
                  </use>
                  <path fill="none" stroke="white" stroke-width="1.5" d="M0,-3.0v7 M-2.5,-0.5L0,-3.0L2.5,-0.5"/>
                </g>
        </g>
        <svg viewBox="0 0 15 15" width="100%" height="30px" preserveAspectRatio="xMaxYMin meet">
         <g id="arrow_out" transform="scale(0.3 0.3)">
          <a xlink:href="twist__stack__tcl_8cpp__incl_org.svg" target="_base">
           <rect id="button" ry="5" rx="5" y="6" x="6" height="38" width="38"
                fill="#f2f5e9" fill-opacity="0.5" stroke="#606060" stroke-width="1.0"/>
           <path id="arrow"
             d="M 11.500037,31.436501 C 11.940474,20.09759 22.043105,11.32322 32.158766,21.979434 L 37.068811,17.246167 C 37.068811,17.246167 37.088388,32 37.088388,32 L 22.160133,31.978069 C 22.160133,31.978069 26.997745,27.140456 26.997745,27.140456 C 18.528582,18.264221 13.291696,25.230495 11.500037,31.436501 z"
             style="fill:#404040;"/>
          </a>
         </g>
        </svg>
</svg>
