<?xml version="1.0" encoding="UTF-8" standalone="no"?>
<!DOCTYPE svg PUBLIC "-//W3C//DTD SVG 1.1//EN"
 "http://www.w3.org/Graphics/SVG/1.1/DTD/svg11.dtd">
<!-- Generated by graphviz version 2.38.0 (20140413.2041)
 -->
<!-- Title: umbrella.cpp Pages: 1 -->
<!--zoomable 420 -->
<svg id="main" version="1.1" xmlns="http://www.w3.org/2000/svg" xmlns:xlink="http://www.w3.org/1999/xlink" xml:space="preserve" onload="init(evt)">
<style type="text/css"><![CDATA[
.edge:hover path { stroke: red; }
.edge:hover polygon { stroke: red; fill: red; }
]]></style>
<script type="text/javascript"><![CDATA[
var edges = document.getElementsByTagName('g');
if (edges && edges.length) {
  for (var i=0;i<edges.length;i++) {
    if (edges[i].id.substr(0,4)=='edge') {
      edges[i].setAttribute('class','edge');
    }
  }
}
]]></script>
        <defs>
                <circle id="rim" cx="0" cy="0" r="7"/>
                <circle id="rim2" cx="0" cy="0" r="3.5"/>
                <g id="zoomPlus">
                        <use xlink:href="#rim" fill="#404040">
                                <set attributeName="fill" to="#808080" begin="zoomplus.mouseover" end="zoomplus.mouseout"/>
                        </use>
                        <path d="M-4,0h8M0,-4v8" fill="none" stroke="white" stroke-width="1.5" pointer-events="none"/>
                </g>
                <g id="zoomMin">
                        <use xlink:href="#rim" fill="#404040">
                                <set attributeName="fill" to="#808080" begin="zoomminus.mouseover" end="zoomminus.mouseout"/>
                        </use>
                        <path d="M-4,0h8" fill="none" stroke="white" stroke-width="1.5" pointer-events="none"/>
                </g>
                <g id="dirArrow">
                        <path fill="none" stroke="white" stroke-width="1.5" d="M0,-3.0v7 M-2.5,-0.5L0,-3.0L2.5,-0.5"/>
                </g>
               <g id="resetDef">
                       <use xlink:href="#rim2" fill="#404040">
                               <set attributeName="fill" to="#808080" begin="reset.mouseover" end="reset.mouseout"/>
                       </use>
               </g>
        </defs>

<script type="text/javascript">
var viewWidth = 828;
var viewHeight = 420;
var sectionId = 'dynsection-0';
</script>
<script xlink:href="svgpan.js"/>
<svg id="graph" class="graph">
<g id="viewport">
<title>umbrella.cpp</title>
<!-- Node1 -->
<g id="node1" class="node"><title>Node1</title>
<polygon fill="#bfbfbf" stroke="black" points="341,-392.5 341,-411.5 421,-411.5 421,-392.5 341,-392.5"/>
<text text-anchor="middle" x="381" y="-399.5" font-family="Helvetica,sans-Serif" font-size="10.00">umbrella.cpp</text>
</g>
<!-- Node2 -->
<g id="node2" class="node"><title>Node2</title>
<g id="a_node2"><a xlink:href="umbrella_8hpp.html" target="_top" xlink:title="Routines to calculate the umbrella energy and/or force for a particle pair: harmonic interaction in o...">
<polygon fill="none" stroke="black" points="379.5,-336.5 379.5,-355.5 460.5,-355.5 460.5,-336.5 379.5,-336.5"/>
<text text-anchor="middle" x="420" y="-343.5" font-family="Helvetica,sans-Serif" font-size="10.00">umbrella.hpp</text>
</a>
</g>
</g>
<!-- Node1&#45;&gt;Node2 -->
<g id="edge1" class="edge"><title>Node1&#45;&gt;Node2</title>
<path fill="none" stroke="midnightblue" d="M387.44,-392.083C392.949,-384.455 401.031,-373.264 407.765,-363.941"/>
<polygon fill="midnightblue" stroke="midnightblue" points="410.662,-365.907 413.68,-355.751 404.987,-361.809 410.662,-365.907"/>
</g>
<!-- Node22 -->
<g id="node22" class="node"><title>Node22</title>
<g id="a_node22"><a xlink:href="communication_8hpp.html" target="_top" xlink:title="This file contains the asynchronous MPI communication. ">
<polygon fill="none" stroke="black" points="206.5,-280.5 206.5,-299.5 319.5,-299.5 319.5,-280.5 206.5,-280.5"/>
<text text-anchor="middle" x="263" y="-287.5" font-family="Helvetica,sans-Serif" font-size="10.00">communication.hpp</text>
</a>
</g>
</g>
<!-- Node1&#45;&gt;Node22 -->
<g id="edge27" class="edge"><title>Node1&#45;&gt;Node22</title>
<path fill="none" stroke="midnightblue" d="M371.741,-392.368C351.837,-373.814 304.743,-329.913 279.56,-306.438"/>
<polygon fill="midnightblue" stroke="midnightblue" points="281.918,-303.85 272.216,-299.591 277.144,-308.97 281.918,-303.85"/>
</g>
<!-- Node3 -->
<g id="node3" class="node"><title>Node3</title>
<g id="a_node3"><a xlink:href="utils_8hpp.html" target="_top" xlink:title="Small functions that are useful not only for one modul. ">
<polygon fill="none" stroke="black" points="404.5,-168.5 404.5,-187.5 463.5,-187.5 463.5,-168.5 404.5,-168.5"/>
<text text-anchor="middle" x="434" y="-175.5" font-family="Helvetica,sans-Serif" font-size="10.00">utils.hpp</text>
</a>
</g>
</g>
<!-- Node2&#45;&gt;Node3 -->
<g id="edge2" class="edge"><title>Node2&#45;&gt;Node3</title>
<path fill="none" stroke="midnightblue" d="M460.717,-339.887C485.528,-334.44 515.374,-323.196 531,-300 545.492,-278.488 520.012,-237.011 509,-224 497.332,-210.213 480.315,-199.523 465.44,-192.029"/>
<polygon fill="midnightblue" stroke="midnightblue" points="466.585,-188.698 456.051,-187.565 463.579,-195.02 466.585,-188.698"/>
</g>
<!-- Node20 -->
<g id="node20" class="node"><title>Node20</title>
<g id="a_node20"><a xlink:href="interaction__data_8hpp.html" target="_top" xlink:title="Various procedures concerning interactions between particles. ">
<polygon fill="none" stroke="black" points="405.5,-280.5 405.5,-299.5 522.5,-299.5 522.5,-280.5 405.5,-280.5"/>
<text text-anchor="middle" x="464" y="-287.5" font-family="Helvetica,sans-Serif" font-size="10.00">interaction_data.hpp</text>
</a>
</g>
</g>
<!-- Node2&#45;&gt;Node20 -->
<g id="edge22" class="edge"><title>Node2&#45;&gt;Node20</title>
<path fill="none" stroke="midnightblue" d="M427.266,-336.083C433.545,-328.377 442.788,-317.033 450.431,-307.653"/>
<polygon fill="midnightblue" stroke="midnightblue" points="453.266,-309.714 456.869,-299.751 447.839,-305.293 453.266,-309.714"/>
</g>
<!-- Node21 -->
<g id="node21" class="node"><title>Node21</title>
<g id="a_node21"><a xlink:href="particle__data_8hpp.html" target="_top" xlink:title="For more information on particle_data, see particle_data.c. ">
<polygon fill="none" stroke="black" points="383.5,-224.5 383.5,-243.5 484.5,-243.5 484.5,-224.5 383.5,-224.5"/>
<text text-anchor="middle" x="434" y="-231.5" font-family="Helvetica,sans-Serif" font-size="10.00">particle_data.hpp</text>
</a>
</g>
</g>
<!-- Node2&#45;&gt;Node21 -->
<g id="edge26" class="edge"><title>Node2&#45;&gt;Node21</title>
<path fill="none" stroke="midnightblue" d="M412.625,-336.175C403.121,-323.679 388.645,-300.11 396,-280 400.057,-268.908 408.188,-258.665 415.891,-250.763"/>
<polygon fill="midnightblue" stroke="midnightblue" points="418.475,-253.135 423.286,-243.695 413.638,-248.075 418.475,-253.135"/>
</g>
<!-- Node4 -->
<g id="node4" class="node"><title>Node4</title>
<polygon fill="none" stroke="#bfbfbf" points="772.5,-112.5 772.5,-131.5 819.5,-131.5 819.5,-112.5 772.5,-112.5"/>
<text text-anchor="middle" x="796" y="-119.5" font-family="Helvetica,sans-Serif" font-size="10.00">cmath</text>
</g>
<!-- Node3&#45;&gt;Node4 -->
<g id="edge3" class="edge"><title>Node3&#45;&gt;Node4</title>
<path fill="none" stroke="midnightblue" d="M463.816,-174.333C520.327,-168.979 647.01,-155.549 762.277,-132.127"/>
<polygon fill="midnightblue" stroke="midnightblue" points="763.238,-135.502 772.325,-130.053 761.824,-128.647 763.238,-135.502"/>
</g>
<!-- Node5 -->
<g id="node5" class="node"><title>Node5</title>
<polygon fill="none" stroke="#bfbfbf" points="291,-112.5 291,-131.5 337,-131.5 337,-112.5 291,-112.5"/>
<text text-anchor="middle" x="314" y="-119.5" font-family="Helvetica,sans-Serif" font-size="10.00">cstdio</text>
</g>
<!-- Node3&#45;&gt;Node5 -->
<g id="edge4" class="edge"><title>Node3&#45;&gt;Node5</title>
<path fill="none" stroke="midnightblue" d="M414.986,-168.444C395.412,-159.636 364.692,-145.812 342.271,-135.722"/>
<polygon fill="midnightblue" stroke="midnightblue" points="343.481,-132.428 332.925,-131.516 340.608,-138.812 343.481,-132.428"/>
</g>
<!-- Node6 -->
<g id="node6" class="node"><title>Node6</title>
<polygon fill="none" stroke="#bfbfbf" points="355.5,-112.5 355.5,-131.5 404.5,-131.5 404.5,-112.5 355.5,-112.5"/>
<text text-anchor="middle" x="380" y="-119.5" font-family="Helvetica,sans-Serif" font-size="10.00">cstdlib</text>
</g>
<!-- Node3&#45;&gt;Node6 -->
<g id="edge5" class="edge"><title>Node3&#45;&gt;Node6</title>
<path fill="none" stroke="midnightblue" d="M425.083,-168.083C417.22,-160.22 405.569,-148.569 396.081,-139.081"/>
<polygon fill="midnightblue" stroke="midnightblue" points="398.297,-136.347 388.751,-131.751 393.347,-141.297 398.297,-136.347"/>
</g>
<!-- Node7 -->
<g id="node7" class="node"><title>Node7</title>
<polygon fill="none" stroke="#bfbfbf" points="423,-112.5 423,-131.5 473,-131.5 473,-112.5 423,-112.5"/>
<text text-anchor="middle" x="448" y="-119.5" font-family="Helvetica,sans-Serif" font-size="10.00">cstring</text>
</g>
<!-- Node3&#45;&gt;Node7 -->
<g id="edge6" class="edge"><title>Node3&#45;&gt;Node7</title>
<path fill="none" stroke="midnightblue" d="M436.312,-168.083C438.167,-160.927 440.835,-150.635 443.154,-141.691"/>
<polygon fill="midnightblue" stroke="midnightblue" points="446.609,-142.309 445.731,-131.751 439.834,-140.553 446.609,-142.309"/>
</g>
<!-- Node8 -->
<g id="node8" class="node"><title>Node8</title>
<g id="a_node8"><a xlink:href="config_8hpp.html" target="_top" xlink:title="This file contains the defaults for Espresso. ">
<polygon fill="none" stroke="black" points="509.5,-56.5 509.5,-75.5 576.5,-75.5 576.5,-56.5 509.5,-56.5"/>
<text text-anchor="middle" x="543" y="-63.5" font-family="Helvetica,sans-Serif" font-size="10.00">config.hpp</text>
</a>
</g>
</g>
<!-- Node3&#45;&gt;Node8 -->
<g id="edge7" class="edge"><title>Node3&#45;&gt;Node8</title>
<path fill="none" stroke="midnightblue" d="M463.791,-173.461C507.846,-167.546 587.007,-154.076 604,-132 618.685,-112.922 592.996,-93.0278 570.58,-80.3544"/>
<polygon fill="midnightblue" stroke="midnightblue" points="572.082,-77.1885 561.615,-75.5482 568.775,-83.3578 572.082,-77.1885"/>
</g>
<!-- Node12 -->
<g id="node12" class="node"><title>Node12</title>
<g id="a_node12"><a xlink:href="debug_8hpp.html" target="_top" xlink:title="This file controls debug facilities. ">
<polygon fill="none" stroke="black" points="121,-112.5 121,-131.5 189,-131.5 189,-112.5 121,-112.5"/>
<text text-anchor="middle" x="155" y="-119.5" font-family="Helvetica,sans-Serif" font-size="10.00">debug.hpp</text>
</a>
</g>
</g>
<!-- Node3&#45;&gt;Node12 -->
<g id="edge11" class="edge"><title>Node3&#45;&gt;Node12</title>
<path fill="none" stroke="midnightblue" d="M404.163,-171.488C361.19,-163.511 279.122,-148.133 199.461,-132.266"/>
<polygon fill="midnightblue" stroke="midnightblue" points="199.748,-128.754 189.256,-130.228 198.377,-135.618 199.748,-128.754"/>
</g>
<!-- Node13 -->
<g id="node13" class="node"><title>Node13</title>
<g id="a_node13"><a xlink:href="lees__edwards_8hpp.html" target="_top" xlink:title="lees_edwards.hpp">
<polygon fill="none" stroke="black" points="491,-112.5 491,-131.5 595,-131.5 595,-112.5 491,-112.5"/>
<text text-anchor="middle" x="543" y="-119.5" font-family="Helvetica,sans-Serif" font-size="10.00">lees_edwards.hpp</text>
</a>
</g>
</g>
<!-- Node3&#45;&gt;Node13 -->
<g id="edge13" class="edge"><title>Node3&#45;&gt;Node13</title>
<path fill="none" stroke="midnightblue" d="M451.513,-168.324C469.072,-159.625 496.331,-146.12 516.531,-136.113"/>
<polygon fill="midnightblue" stroke="midnightblue" points="518.124,-139.23 525.531,-131.655 515.016,-132.958 518.124,-139.23"/>
</g>
<!-- Node14 -->
<g id="node14" class="node"><title>Node14</title>
<g id="a_node14"><a xlink:href="errorhandling_8hpp.html" target="_top" xlink:title="This file contains the errorhandling code for severe errors, like a broken bond or illegal parameter ...">
<polygon fill="none" stroke="black" points="651.5,-112.5 651.5,-131.5 754.5,-131.5 754.5,-112.5 651.5,-112.5"/>
<text text-anchor="middle" x="703" y="-119.5" font-family="Helvetica,sans-Serif" font-size="10.00">errorhandling.hpp</text>
</a>
</g>
</g>
<!-- Node3&#45;&gt;Node14 -->
<g id="edge15" class="edge"><title>Node3&#45;&gt;Node14</title>
<path fill="none" stroke="midnightblue" d="M463.557,-171.067C508.527,-162.039 594.781,-144.724 650.559,-133.527"/>
<polygon fill="midnightblue" stroke="midnightblue" points="651.487,-136.911 660.602,-131.511 650.109,-130.048 651.487,-136.911"/>
</g>
<!-- Node18 -->
<g id="node18" class="node"><title>Node18</title>
<polygon fill="none" stroke="#bfbfbf" points="55.5,-112.5 55.5,-131.5 102.5,-131.5 102.5,-112.5 55.5,-112.5"/>
<text text-anchor="middle" x="79" y="-119.5" font-family="Helvetica,sans-Serif" font-size="10.00">vector</text>
</g>
<!-- Node3&#45;&gt;Node18 -->
<g id="edge20" class="edge"><title>Node3&#45;&gt;Node18</title>
<path fill="none" stroke="midnightblue" d="M404.484,-174.147C349.152,-168.527 225.953,-154.727 112.591,-131.875"/>
<polygon fill="midnightblue" stroke="midnightblue" points="113.204,-128.428 102.706,-129.853 111.802,-135.286 113.204,-128.428"/>
</g>
<!-- Node19 -->
<g id="node19" class="node"><title>Node19</title>
<polygon fill="none" stroke="#bfbfbf" points="207.5,-112.5 207.5,-131.5 272.5,-131.5 272.5,-112.5 207.5,-112.5"/>
<text text-anchor="middle" x="240" y="-119.5" font-family="Helvetica,sans-Serif" font-size="10.00">exception</text>
</g>
<!-- Node3&#45;&gt;Node19 -->
<g id="edge21" class="edge"><title>Node3&#45;&gt;Node19</title>
<path fill="none" stroke="midnightblue" d="M404.113,-168.681C370.984,-159.459 317.369,-144.536 280.489,-134.27"/>
<polygon fill="midnightblue" stroke="midnightblue" points="281.134,-130.817 270.562,-131.507 279.257,-137.56 281.134,-130.817"/>
</g>
<!-- Node9 -->
<g id="node9" class="node"><title>Node9</title>
<g id="a_node9"><a xlink:href="acconfig_8hpp.html" target="_top" xlink:title="acconfig.hpp">
<polygon fill="none" stroke="black" points="393,-0.5 393,-19.5 471,-19.5 471,-0.5 393,-0.5"/>
<text text-anchor="middle" x="432" y="-7.5" font-family="Helvetica,sans-Serif" font-size="10.00">acconfig.hpp</text>
</a>
</g>
</g>
<!-- Node8&#45;&gt;Node9 -->
<g id="edge8" class="edge"><title>Node8&#45;&gt;Node9</title>
<path fill="none" stroke="midnightblue" d="M525.166,-56.324C507.284,-47.6247 479.525,-34.1202 458.954,-24.113"/>
<polygon fill="midnightblue" stroke="midnightblue" points="460.313,-20.8819 449.79,-19.6545 457.251,-27.1765 460.313,-20.8819"/>
</g>
<!-- Node10 -->
<g id="node10" class="node"><title>Node10</title>
<g id="a_node10"><a xlink:href="myconfig-final_8hpp.html" target="_top" xlink:title="myconfig&#45;final.hpp">
<polygon fill="none" stroke="black" points="489.5,-0.5 489.5,-19.5 596.5,-19.5 596.5,-0.5 489.5,-0.5"/>
<text text-anchor="middle" x="543" y="-7.5" font-family="Helvetica,sans-Serif" font-size="10.00">myconfig&#45;final.hpp</text>
</a>
</g>
</g>
<!-- Node8&#45;&gt;Node10 -->
<g id="edge9" class="edge"><title>Node8&#45;&gt;Node10</title>
<path fill="none" stroke="midnightblue" d="M543,-56.083C543,-49.0059 543,-38.8611 543,-29.9865"/>
<polygon fill="midnightblue" stroke="midnightblue" points="546.5,-29.751 543,-19.7511 539.5,-29.7511 546.5,-29.751"/>
</g>
<!-- Node11 -->
<g id="node11" class="node"><title>Node11</title>
<g id="a_node11"><a xlink:href="config-features_8hpp.html" target="_top" xlink:title="config&#45;features.hpp">
<polygon fill="none" stroke="black" points="614.5,-0.5 614.5,-19.5 725.5,-19.5 725.5,-0.5 614.5,-0.5"/>
<text text-anchor="middle" x="670" y="-7.5" font-family="Helvetica,sans-Serif" font-size="10.00">config&#45;features.hpp</text>
</a>
</g>
</g>
<!-- Node8&#45;&gt;Node11 -->
<g id="edge10" class="edge"><title>Node8&#45;&gt;Node11</title>
<path fill="none" stroke="midnightblue" d="M563.124,-56.4435C584.024,-47.5566 616.935,-33.5632 640.716,-23.4514"/>
<polygon fill="midnightblue" stroke="midnightblue" points="642.138,-26.6504 649.971,-19.5164 639.398,-20.2085 642.138,-26.6504"/>
</g>
<!-- Node12&#45;&gt;Node8 -->
<g id="edge12" class="edge"><title>Node12&#45;&gt;Node8</title>
<path fill="none" stroke="midnightblue" d="M189.223,-113.59C192.186,-113.024 195.143,-112.485 198,-112 305.687,-93.735 433.376,-78.821 499.082,-71.6371"/>
<polygon fill="midnightblue" stroke="midnightblue" points="499.519,-75.1103 509.082,-70.5512 498.763,-68.1512 499.519,-75.1103"/>
</g>
<!-- Node13&#45;&gt;Node8 -->
<g id="edge14" class="edge"><title>Node13&#45;&gt;Node8</title>
<path fill="none" stroke="midnightblue" d="M543,-112.083C543,-105.006 543,-94.8611 543,-85.9865"/>
<polygon fill="midnightblue" stroke="midnightblue" points="546.5,-85.751 543,-75.7511 539.5,-85.7511 546.5,-85.751"/>
</g>
<!-- Node14&#45;&gt;Node8 -->
<g id="edge16" class="edge"><title>Node14&#45;&gt;Node8</title>
<path fill="none" stroke="midnightblue" d="M677.648,-112.444C650.731,-103.359 608.004,-88.9388 577.913,-78.7831"/>
<polygon fill="midnightblue" stroke="midnightblue" points="578.828,-75.3981 568.234,-75.5164 576.59,-82.0305 578.828,-75.3981"/>
</g>
<!-- Node15 -->
<g id="node15" class="node"><title>Node15</title>
<polygon fill="none" stroke="#bfbfbf" points="613,-56.5 613,-75.5 657,-75.5 657,-56.5 613,-56.5"/>
<text text-anchor="middle" x="635" y="-63.5" font-family="Helvetica,sans-Serif" font-size="10.00">string</text>
</g>
<!-- Node14&#45;&gt;Node15 -->
<g id="edge17" class="edge"><title>Node14&#45;&gt;Node15</title>
<path fill="none" stroke="midnightblue" d="M692.075,-112.324C681.825,-104.185 666.279,-91.8395 653.999,-82.0874"/>
<polygon fill="midnightblue" stroke="midnightblue" points="656.132,-79.3119 646.124,-75.8339 651.779,-84.7937 656.132,-79.3119"/>
</g>
<!-- Node16 -->
<g id="node16" class="node"><title>Node16</title>
<polygon fill="none" stroke="#bfbfbf" points="675,-56.5 675,-75.5 731,-75.5 731,-56.5 675,-56.5"/>
<text text-anchor="middle" x="703" y="-63.5" font-family="Helvetica,sans-Serif" font-size="10.00">sstream</text>
</g>
<!-- Node14&#45;&gt;Node16 -->
<g id="edge18" class="edge"><title>Node14&#45;&gt;Node16</title>
<path fill="none" stroke="midnightblue" d="M703,-112.083C703,-105.006 703,-94.8611 703,-85.9865"/>
<polygon fill="midnightblue" stroke="midnightblue" points="706.5,-85.751 703,-75.7511 699.5,-85.7511 706.5,-85.751"/>
</g>
<!-- Node17 -->
<g id="node17" class="node"><title>Node17</title>
<polygon fill="none" stroke="#bfbfbf" points="749,-56.5 749,-75.5 781,-75.5 781,-56.5 749,-56.5"/>
<text text-anchor="middle" x="765" y="-63.5" font-family="Helvetica,sans-Serif" font-size="10.00">list</text>
</g>
<!-- Node14&#45;&gt;Node17 -->
<g id="edge19" class="edge"><title>Node14&#45;&gt;Node17</title>
<path fill="none" stroke="midnightblue" d="M712.961,-112.324C722.127,-104.341 735.937,-92.3128 747.028,-82.6529"/>
<polygon fill="midnightblue" stroke="midnightblue" points="749.615,-85.041 754.857,-75.8339 745.018,-79.7624 749.615,-85.041"/>
</g>
<!-- Node20&#45;&gt;Node3 -->
<g id="edge23" class="edge"><title>Node20&#45;&gt;Node3</title>
<path fill="none" stroke="midnightblue" d="M472.759,-280.486C484.521,-267.971 502.867,-243.934 493,-224 486.397,-210.659 473.735,-200.194 461.829,-192.726"/>
<polygon fill="midnightblue" stroke="midnightblue" points="463.391,-189.587 452.984,-187.602 459.882,-195.643 463.391,-189.587"/>
</g>
<!-- Node20&#45;&gt;Node21 -->
<g id="edge24" class="edge"><title>Node20&#45;&gt;Node21</title>
<path fill="none" stroke="midnightblue" d="M459.046,-280.083C454.896,-272.613 448.847,-261.724 443.733,-252.52"/>
<polygon fill="midnightblue" stroke="midnightblue" points="446.778,-250.793 438.862,-243.751 440.659,-254.192 446.778,-250.793"/>
</g>
<!-- Node21&#45;&gt;Node3 -->
<g id="edge25" class="edge"><title>Node21&#45;&gt;Node3</title>
<path fill="none" stroke="midnightblue" d="M434,-224.083C434,-217.006 434,-206.861 434,-197.986"/>
<polygon fill="midnightblue" stroke="midnightblue" points="437.5,-197.751 434,-187.751 430.5,-197.751 437.5,-197.751"/>
</g>
<!-- Node22&#45;&gt;Node21 -->
<g id="edge28" class="edge"><title>Node22&#45;&gt;Node21</title>
<path fill="none" stroke="midnightblue" d="M290.095,-280.444C318.988,-271.32 364.925,-256.813 397.105,-246.651"/>
<polygon fill="midnightblue" stroke="midnightblue" points="398.549,-249.865 407.031,-243.516 396.441,-243.19 398.549,-249.865"/>
</g>
<!-- Node23 -->
<g id="node23" class="node"><title>Node23</title>
<g id="a_node23"><a xlink:href="random_8hpp.html" target="_top" xlink:title="A random generator. ">
<polygon fill="none" stroke="black" points="290.5,-224.5 290.5,-243.5 365.5,-243.5 365.5,-224.5 290.5,-224.5"/>
<text text-anchor="middle" x="328" y="-231.5" font-family="Helvetica,sans-Serif" font-size="10.00">random.hpp</text>
</a>
</g>
</g>
<!-- Node22&#45;&gt;Node23 -->
<g id="edge29" class="edge"><title>Node22&#45;&gt;Node23</title>
<path fill="none" stroke="midnightblue" d="M273.443,-280.324C283.146,-272.263 297.815,-260.077 309.5,-250.369"/>
<polygon fill="midnightblue" stroke="midnightblue" points="311.911,-252.916 317.367,-243.834 307.438,-247.532 311.911,-252.916"/>
</g>
<!-- Node24 -->
<g id="node24" class="node"><title>Node24</title>
<g id="a_node24"><a xlink:href="topology_8hpp.html" target="_top" xlink:title="This file contains functions for handling the system topology. ">
<polygon fill="none" stroke="black" points="193.5,-224.5 193.5,-243.5 272.5,-243.5 272.5,-224.5 193.5,-224.5"/>
<text text-anchor="middle" x="233" y="-231.5" font-family="Helvetica,sans-Serif" font-size="10.00">topology.hpp</text>
</a>
</g>
</g>
<!-- Node22&#45;&gt;Node24 -->
<g id="edge31" class="edge"><title>Node22&#45;&gt;Node24</title>
<path fill="none" stroke="midnightblue" d="M258.046,-280.083C253.896,-272.613 247.847,-261.724 242.733,-252.52"/>
<polygon fill="midnightblue" stroke="midnightblue" points="245.778,-250.793 237.862,-243.751 239.659,-254.192 245.778,-250.793"/>
</g>
<!-- Node25 -->
<g id="node25" class="node"><title>Node25</title>
<g id="a_node25"><a xlink:href="mpi_8h.html" target="_top" xlink:title="This is the MPIfake implementation. ">
<polygon fill="none" stroke="black" points="132,-224.5 132,-243.5 176,-243.5 176,-224.5 132,-224.5"/>
<text text-anchor="middle" x="154" y="-231.5" font-family="Helvetica,sans-Serif" font-size="10.00">mpi.h</text>
</a>
</g>
</g>
<!-- Node22&#45;&gt;Node25 -->
<g id="edge33" class="edge"><title>Node22&#45;&gt;Node25</title>
<path fill="none" stroke="midnightblue" d="M245.487,-280.324C227.928,-271.625 200.669,-258.12 180.469,-248.113"/>
<polygon fill="midnightblue" stroke="midnightblue" points="181.984,-244.958 171.469,-243.655 178.876,-251.23 181.984,-244.958"/>
</g>
<!-- Node29 -->
<g id="node29" class="node"><title>Node29</title>
<g id="a_node29"><a xlink:href="cuda__init_8hpp.html" target="_top" xlink:title="cuda_init.hpp">
<polygon fill="none" stroke="black" points="0,-168.5 0,-187.5 82,-187.5 82,-168.5 0,-168.5"/>
<text text-anchor="middle" x="41" y="-175.5" font-family="Helvetica,sans-Serif" font-size="10.00">cuda_init.hpp</text>
</a>
</g>
</g>
<!-- Node22&#45;&gt;Node29 -->
<g id="edge37" class="edge"><title>Node22&#45;&gt;Node29</title>
<path fill="none" stroke="midnightblue" d="M224.071,-280.492C195.112,-273.227 155.202,-261.202 123,-244 97.8935,-230.588 72.8017,-209.244 57.112,-194.702"/>
<polygon fill="midnightblue" stroke="midnightblue" points="59.483,-192.127 49.814,-187.795 54.6715,-197.211 59.483,-192.127"/>
</g>
<!-- Node23&#45;&gt;Node3 -->
<g id="edge30" class="edge"><title>Node23&#45;&gt;Node3</title>
<path fill="none" stroke="midnightblue" d="M345.031,-224.324C362.03,-215.664 388.376,-202.242 407.993,-192.249"/>
<polygon fill="midnightblue" stroke="midnightblue" points="409.69,-195.312 417.012,-187.655 406.512,-189.075 409.69,-195.312"/>
</g>
<!-- Node24&#45;&gt;Node3 -->
<g id="edge32" class="edge"><title>Node24&#45;&gt;Node3</title>
<path fill="none" stroke="midnightblue" d="M264.849,-224.444C300.008,-214.998 356.64,-199.783 394.573,-189.592"/>
<polygon fill="midnightblue" stroke="midnightblue" points="395.516,-192.963 404.266,-186.988 393.7,-186.203 395.516,-192.963"/>
</g>
<!-- Node26 -->
<g id="node26" class="node"><title>Node26</title>
<polygon fill="none" stroke="#bfbfbf" points="171.5,-168.5 171.5,-187.5 224.5,-187.5 224.5,-168.5 171.5,-168.5"/>
<text text-anchor="middle" x="198" y="-175.5" font-family="Helvetica,sans-Serif" font-size="10.00">string.h</text>
</g>
<!-- Node25&#45;&gt;Node26 -->
<g id="edge34" class="edge"><title>Node25&#45;&gt;Node26</title>
<path fill="none" stroke="midnightblue" d="M161.266,-224.083C167.545,-216.377 176.788,-205.033 184.431,-195.653"/>
<polygon fill="midnightblue" stroke="midnightblue" points="187.266,-197.714 190.869,-187.751 181.839,-193.293 187.266,-197.714"/>
</g>
<!-- Node27 -->
<g id="node27" class="node"><title>Node27</title>
<polygon fill="none" stroke="#bfbfbf" points="243,-168.5 243,-187.5 293,-187.5 293,-168.5 243,-168.5"/>
<text text-anchor="middle" x="268" y="-175.5" font-family="Helvetica,sans-Serif" font-size="10.00">stdio.h</text>
</g>
<!-- Node25&#45;&gt;Node27 -->
<g id="edge35" class="edge"><title>Node25&#45;&gt;Node27</title>
<path fill="none" stroke="midnightblue" d="M172.064,-224.444C190.575,-215.675 219.581,-201.935 240.855,-191.858"/>
<polygon fill="midnightblue" stroke="midnightblue" points="242.482,-194.96 250.021,-187.516 239.485,-188.634 242.482,-194.96"/>
</g>
<!-- Node28 -->
<g id="node28" class="node"><title>Node28</title>
<polygon fill="none" stroke="#bfbfbf" points="100.5,-168.5 100.5,-187.5 153.5,-187.5 153.5,-168.5 100.5,-168.5"/>
<text text-anchor="middle" x="127" y="-175.5" font-family="Helvetica,sans-Serif" font-size="10.00">stdlib.h</text>
</g>
<!-- Node25&#45;&gt;Node28 -->
<g id="edge36" class="edge"><title>Node25&#45;&gt;Node28</title>
<path fill="none" stroke="midnightblue" d="M149.541,-224.083C145.846,-216.691 140.477,-205.953 135.906,-196.811"/>
<polygon fill="midnightblue" stroke="midnightblue" points="138.978,-195.13 131.376,-187.751 132.717,-198.261 138.978,-195.13"/>
</g>
<!-- Node29&#45;&gt;Node8 -->
<g id="edge38" class="edge"><title>Node29&#45;&gt;Node8</title>
<path fill="none" stroke="midnightblue" d="M38.6008,-168.439C35.2751,-154.509 31.2153,-126.986 46,-112 77.4936,-80.0776 383.113,-70.3563 498.868,-67.8055"/>
<polygon fill="midnightblue" stroke="midnightblue" points="499.216,-71.299 509.14,-67.5871 499.068,-64.3005 499.216,-71.299"/>
</g>
<!-- Node29&#45;&gt;Node18 -->
<g id="edge39" class="edge"><title>Node29&#45;&gt;Node18</title>
<path fill="none" stroke="midnightblue" d="M47.2749,-168.083C52.6425,-160.455 60.5176,-149.264 67.0787,-139.941"/>
<polygon fill="midnightblue" stroke="midnightblue" points="69.9492,-141.943 72.8418,-131.751 64.2245,-137.915 69.9492,-141.943"/>
</g>
</g>
</svg>
        <g id="navigator" transform="translate(0 0)" fill="#404254">
                <rect fill="#f2f5e9" fill-opacity="0.5" stroke="#606060" stroke-width=".5" x="0" y="0" width="60" height="60"/>
                <use id="zoomplus" xlink:href="#zoomPlus" x="17" y="9" onmousedown="handleZoom(evt,'in')"/>
                <use id="zoomminus" xlink:href="#zoomMin" x="42" y="9" onmousedown="handleZoom(evt,'out')"/>
                <use id="reset" xlink:href="#resetDef" x="30" y="36" onmousedown="handleReset()"/>
                <g id="arrowUp" xlink:href="#dirArrow" transform="translate(30 24)" onmousedown="handlePan(0,-1)">
                  <use xlink:href="#rim" fill="#404040">
                        <set attributeName="fill" to="#808080" begin="arrowUp.mouseover" end="arrowUp.mouseout"/>
                  </use>
                  <path fill="none" stroke="white" stroke-width="1.5" d="M0,-3.0v7 M-2.5,-0.5L0,-3.0L2.5,-0.5"/>
                </g>
                <g id="arrowRight" xlink:href="#dirArrow" transform="rotate(90) translate(36 -43)" onmousedown="handlePan(1,0)">
                  <use xlink:href="#rim" fill="#404040">
                        <set attributeName="fill" to="#808080" begin="arrowRight.mouseover" end="arrowRight.mouseout"/>
                  </use>
                  <path fill="none" stroke="white" stroke-width="1.5" d="M0,-3.0v7 M-2.5,-0.5L0,-3.0L2.5,-0.5"/>
                </g>
                <g id="arrowDown" xlink:href="#dirArrow" transform="rotate(180) translate(-30 -48)" onmousedown="handlePan(0,1)">
                  <use xlink:href="#rim" fill="#404040">
                        <set attributeName="fill" to="#808080" begin="arrowDown.mouseover" end="arrowDown.mouseout"/>
                  </use>
                  <path fill="none" stroke="white" stroke-width="1.5" d="M0,-3.0v7 M-2.5,-0.5L0,-3.0L2.5,-0.5"/>
                </g>
                <g id="arrowLeft" xlink:href="#dirArrow" transform="rotate(270) translate(-36 17)" onmousedown="handlePan(-1,0)">
                  <use xlink:href="#rim" fill="#404040">
                        <set attributeName="fill" to="#808080" begin="arrowLeft.mouseover" end="arrowLeft.mouseout"/>
                  </use>
                  <path fill="none" stroke="white" stroke-width="1.5" d="M0,-3.0v7 M-2.5,-0.5L0,-3.0L2.5,-0.5"/>
                </g>
        </g>
        <svg viewBox="0 0 15 15" width="100%" height="30px" preserveAspectRatio="xMaxYMin meet">
         <g id="arrow_out" transform="scale(0.3 0.3)">
          <a xlink:href="umbrella_8cpp__incl_org.svg" target="_base">
           <rect id="button" ry="5" rx="5" y="6" x="6" height="38" width="38"
                fill="#f2f5e9" fill-opacity="0.5" stroke="#606060" stroke-width="1.0"/>
           <path id="arrow"
             d="M 11.500037,31.436501 C 11.940474,20.09759 22.043105,11.32322 32.158766,21.979434 L 37.068811,17.246167 C 37.068811,17.246167 37.088388,32 37.088388,32 L 22.160133,31.978069 C 22.160133,31.978069 26.997745,27.140456 26.997745,27.140456 C 18.528582,18.264221 13.291696,25.230495 11.500037,31.436501 z"
             style="fill:#404040;"/>
          </a>
         </g>
        </svg>
</svg>
