<?xml version="1.0" encoding="UTF-8" standalone="no"?>
<!DOCTYPE svg PUBLIC "-//W3C//DTD SVG 1.1//EN"
 "http://www.w3.org/Graphics/SVG/1.1/DTD/svg11.dtd">
<!-- Generated by graphviz version 2.38.0 (20140413.2041)
 -->
<!-- Title: Bond_parameters Pages: 1 -->
<!--zoomable 1177 -->
<svg id="main" version="1.1" xmlns="http://www.w3.org/2000/svg" xmlns:xlink="http://www.w3.org/1999/xlink" xml:space="preserve" onload="init(evt)">
<style type="text/css"><![CDATA[
.edge:hover path { stroke: red; }
.edge:hover polygon { stroke: red; fill: red; }
]]></style>
<script type="text/javascript"><![CDATA[
var edges = document.getElementsByTagName('g');
if (edges && edges.length) {
  for (var i=0;i<edges.length;i++) {
    if (edges[i].id.substr(0,4)=='edge') {
      edges[i].setAttribute('class','edge');
    }
  }
}
]]></script>
        <defs>
                <circle id="rim" cx="0" cy="0" r="7"/>
                <circle id="rim2" cx="0" cy="0" r="3.5"/>
                <g id="zoomPlus">
                        <use xlink:href="#rim" fill="#404040">
                                <set attributeName="fill" to="#808080" begin="zoomplus.mouseover" end="zoomplus.mouseout"/>
                        </use>
                        <path d="M-4,0h8M0,-4v8" fill="none" stroke="white" stroke-width="1.5" pointer-events="none"/>
                </g>
                <g id="zoomMin">
                        <use xlink:href="#rim" fill="#404040">
                                <set attributeName="fill" to="#808080" begin="zoomminus.mouseover" end="zoomminus.mouseout"/>
                        </use>
                        <path d="M-4,0h8" fill="none" stroke="white" stroke-width="1.5" pointer-events="none"/>
                </g>
                <g id="dirArrow">
                        <path fill="none" stroke="white" stroke-width="1.5" d="M0,-3.0v7 M-2.5,-0.5L0,-3.0L2.5,-0.5"/>
                </g>
               <g id="resetDef">
                       <use xlink:href="#rim2" fill="#404040">
                               <set attributeName="fill" to="#808080" begin="reset.mouseover" end="reset.mouseout"/>
                       </use>
               </g>
        </defs>

<script type="text/javascript">
var viewWidth = 438;
var viewHeight = 1177;
var sectionId = 'dynsection-0';
</script>
<script xlink:href="svgpan.js"/>
<svg id="graph" class="graph">
<g id="viewport">
<title>Bond_parameters</title>
<!-- Node1 -->
<g id="node1" class="node"><title>Node1</title>
<polygon fill="#bfbfbf" stroke="black" points="327,-571.298 327,-590.298 430,-590.298 430,-571.298 327,-571.298"/>
<text text-anchor="middle" x="378.5" y="-578.298" font-family="Helvetica,sans-Serif" font-size="10.00">Bond_parameters</text>
</g>
<!-- Node2 -->
<g id="node2" class="node"><title>Node2</title>
<g id="a_node2"><a xlink:href="structStretchlin__force__bond__parameters.html" target="_top" xlink:title="Parameters for linear stretching_force. ">
<polygon fill="none" stroke="black" points="26,-1127.8 26,-1157.8 148,-1157.8 148,-1127.8 26,-1127.8"/>
<text text-anchor="start" x="34" y="-1145.8" font-family="Helvetica,sans-Serif" font-size="10.00">Stretchlin_force_bond</text>
<text text-anchor="middle" x="87" y="-1134.8" font-family="Helvetica,sans-Serif" font-size="10.00">_parameters</text>
</a>
</g>
</g>
<!-- Node2&#45;&gt;Node1 -->
<g id="edge1" class="edge"><title>Node2&#45;&gt;Node1</title>
<path fill="none" stroke="#9a32cd" stroke-dasharray="5,2" d="M158.206,-1156.06C207.038,-1160.93 270.113,-1157.81 309,-1119.8 348.629,-1081.06 373.224,-659.245 376.993,-590.302"/>
<polygon fill="#9a32cd" stroke="#9a32cd" points="158.345,-1152.56 148.016,-1154.91 157.56,-1159.51 158.345,-1152.56"/>
<text text-anchor="middle" x="250.5" y="-1160.8" font-family="Helvetica,sans-Serif" font-size="10.00"> stretchlin_force</text>
</g>
<!-- Node3 -->
<g id="node3" class="node"><title>Node3</title>
<g id="a_node3"><a xlink:href="structAngle__cossquare__bond__parameters.html" target="_top" xlink:title="Parameters for three body angular potential (bond_angle_cossquare). ">
<polygon fill="none" stroke="black" points="23,-1078.8 23,-1108.8 151,-1108.8 151,-1078.8 23,-1078.8"/>
<text text-anchor="start" x="31" y="-1096.8" font-family="Helvetica,sans-Serif" font-size="10.00">Angle_cossquare_bond</text>
<text text-anchor="middle" x="87" y="-1085.8" font-family="Helvetica,sans-Serif" font-size="10.00">_parameters</text>
</a>
</g>
</g>
<!-- Node3&#45;&gt;Node1 -->
<g id="edge2" class="edge"><title>Node3&#45;&gt;Node1</title>
<path fill="none" stroke="#9a32cd" stroke-dasharray="5,2" d="M161.206,-1104.93C209.641,-1107.87 271.001,-1102.41 309,-1064.8 379.112,-995.391 378.373,-652.836 377.647,-590.53"/>
<polygon fill="#9a32cd" stroke="#9a32cd" points="161.311,-1101.43 151.08,-1104.18 160.796,-1108.41 161.311,-1101.43"/>
<text text-anchor="middle" x="250.5" y="-1107.8" font-family="Helvetica,sans-Serif" font-size="10.00"> angle_cossquare</text>
</g>
<!-- Node4 -->
<g id="node4" class="node"><title>Node4</title>
<g id="a_node4"><a xlink:href="structIBM__VolCons__Parameters.html" target="_top" xlink:title="Parameters for IBM volume conservation bond. ">
<polygon fill="none" stroke="black" points="17,-1040.3 17,-1059.3 157,-1059.3 157,-1040.3 17,-1040.3"/>
<text text-anchor="middle" x="87" y="-1047.3" font-family="Helvetica,sans-Serif" font-size="10.00">IBM_VolCons_Parameters</text>
</a>
</g>
</g>
<!-- Node4&#45;&gt;Node1 -->
<g id="edge3" class="edge"><title>Node4&#45;&gt;Node1</title>
<path fill="none" stroke="#9a32cd" stroke-dasharray="5,2" d="M167.383,-1051.43C222.323,-1050.77 289.015,-1045.83 309,-1026.8 374.66,-964.26 377.584,-650.11 377.542,-590.552"/>
<polygon fill="#9a32cd" stroke="#9a32cd" points="167.249,-1047.93 157.275,-1051.51 167.301,-1054.93 167.249,-1047.93"/>
<text text-anchor="middle" x="250.5" y="-1052.8" font-family="Helvetica,sans-Serif" font-size="10.00"> ibmVolConsParameters</text>
</g>
<!-- Node5 -->
<g id="node5" class="node"><title>Node5</title>
<g id="a_node5"><a xlink:href="structEndangledist__bond__parameters.html" target="_top" xlink:title="Parameters for chainend angular potential with wall. ">
<polygon fill="none" stroke="black" points="2,-1002.3 2,-1021.3 172,-1021.3 172,-1002.3 2,-1002.3"/>
<text text-anchor="middle" x="87" y="-1009.3" font-family="Helvetica,sans-Serif" font-size="10.00">Endangledist_bond_parameters</text>
</a>
</g>
</g>
<!-- Node5&#45;&gt;Node1 -->
<g id="edge4" class="edge"><title>Node5&#45;&gt;Node1</title>
<path fill="none" stroke="#9a32cd" stroke-dasharray="5,2" d="M182.258,-1013.05C233.746,-1011.65 290.68,-1006.01 309,-988.798 369.337,-932.127 376.553,-646.741 377.392,-590.449"/>
<polygon fill="#9a32cd" stroke="#9a32cd" points="181.966,-1009.56 172.045,-1013.28 182.12,-1016.56 181.966,-1009.56"/>
<text text-anchor="middle" x="250.5" y="-1014.8" font-family="Helvetica,sans-Serif" font-size="10.00"> endangledist</text>
</g>
<!-- Node6 -->
<g id="node6" class="node"><title>Node6</title>
<g id="a_node6"><a xlink:href="structAngledist__bond__parameters.html" target="_top" xlink:title="Parameters for three body angular potential (bond&#45;angle potentials) that depends on distance to wall ...">
<polygon fill="none" stroke="black" points="10.5,-964.298 10.5,-983.298 163.5,-983.298 163.5,-964.298 10.5,-964.298"/>
<text text-anchor="middle" x="87" y="-971.298" font-family="Helvetica,sans-Serif" font-size="10.00">Angledist_bond_parameters</text>
</a>
</g>
</g>
<!-- Node6&#45;&gt;Node1 -->
<g id="edge5" class="edge"><title>Node6&#45;&gt;Node1</title>
<path fill="none" stroke="#9a32cd" stroke-dasharray="5,2" d="M173.82,-975.14C227.304,-974.083 289.533,-968.778 309,-950.798 363.948,-900.046 375.403,-644.023 377.208,-590.583"/>
<polygon fill="#9a32cd" stroke="#9a32cd" points="173.548,-971.644 163.602,-975.294 173.654,-978.643 173.548,-971.644"/>
<text text-anchor="middle" x="250.5" y="-976.798" font-family="Helvetica,sans-Serif" font-size="10.00"> angledist</text>
</g>
<!-- Node7 -->
<g id="node7" class="node"><title>Node7</title>
<g id="a_node7"><a xlink:href="structIBM__Tribend__Parameters.html" target="_top" xlink:title="Parameters for IBM tribend. ">
<polygon fill="none" stroke="black" points="19,-926.298 19,-945.298 155,-945.298 155,-926.298 19,-926.298"/>
<text text-anchor="middle" x="87" y="-933.298" font-family="Helvetica,sans-Serif" font-size="10.00">IBM_Tribend_Parameters</text>
</a>
</g>
</g>
<!-- Node7&#45;&gt;Node1 -->
<g id="edge6" class="edge"><title>Node7&#45;&gt;Node1</title>
<path fill="none" stroke="#9a32cd" stroke-dasharray="5,2" d="M165.245,-936.406C220.405,-935.157 288.352,-929.628 309,-910.798 358.179,-865.948 374.047,-640.198 376.971,-590.49"/>
<polygon fill="#9a32cd" stroke="#9a32cd" points="165.043,-932.909 155.109,-936.592 165.171,-939.908 165.043,-932.909"/>
<text text-anchor="middle" x="250.5" y="-938.798" font-family="Helvetica,sans-Serif" font-size="10.00"> ibm_tribend</text>
</g>
<!-- Node8 -->
<g id="node8" class="node"><title>Node8</title>
<g id="a_node8"><a xlink:href="structAngle__cosine__bond__parameters.html" target="_top" xlink:title="Parameters for three body angular potential (bond_angle_cosine). ">
<polygon fill="none" stroke="black" points="1,-888.298 1,-907.298 173,-907.298 173,-888.298 1,-888.298"/>
<text text-anchor="middle" x="87" y="-895.298" font-family="Helvetica,sans-Serif" font-size="10.00">Angle_cosine_bond_parameters</text>
</a>
</g>
</g>
<!-- Node8&#45;&gt;Node1 -->
<g id="edge7" class="edge"><title>Node8&#45;&gt;Node1</title>
<path fill="none" stroke="#9a32cd" stroke-dasharray="5,2" d="M183.339,-896.281C234.352,-893.466 290.425,-886.489 309,-869.798 352.244,-830.939 372.454,-636.299 376.656,-590.472"/>
<polygon fill="#9a32cd" stroke="#9a32cd" points="183.028,-892.792 173.217,-896.791 183.38,-899.784 183.028,-892.792"/>
<text text-anchor="middle" x="250.5" y="-898.798" font-family="Helvetica,sans-Serif" font-size="10.00"> angle_cosine</text>
</g>
<!-- Node9 -->
<g id="node9" class="node"><title>Node9</title>
<g id="a_node9"><a xlink:href="structArea__force__global__bond__parameters.html" target="_top" xlink:title="Parameters for area_force_global. ">
<polygon fill="none" stroke="black" points="20,-838.798 20,-868.798 154,-868.798 154,-838.798 20,-838.798"/>
<text text-anchor="start" x="28" y="-856.798" font-family="Helvetica,sans-Serif" font-size="10.00">Area_force_global_bond</text>
<text text-anchor="middle" x="87" y="-845.798" font-family="Helvetica,sans-Serif" font-size="10.00">_parameters</text>
</a>
</g>
</g>
<!-- Node9&#45;&gt;Node1 -->
<g id="edge8" class="edge"><title>Node9&#45;&gt;Node1</title>
<path fill="none" stroke="#9a32cd" stroke-dasharray="5,2" d="M164.334,-855.158C219.388,-854.52 287.621,-849.871 309,-831.798 347.549,-799.21 370.999,-632.209 376.332,-590.331"/>
<polygon fill="#9a32cd" stroke="#9a32cd" points="164.196,-851.659 154.222,-855.233 164.248,-858.659 164.196,-851.659"/>
<text text-anchor="middle" x="250.5" y="-857.798" font-family="Helvetica,sans-Serif" font-size="10.00"> area_force_global</text>
</g>
<!-- Node10 -->
<g id="node10" class="node"><title>Node10</title>
<g id="a_node10"><a xlink:href="structHarmonic__dumbbell__bond__parameters.html" target="_top" xlink:title="Parameters for harmonic dumbbell bond Potential. ">
<polygon fill="none" stroke="black" points="15,-789.798 15,-819.798 159,-819.798 159,-789.798 15,-789.798"/>
<text text-anchor="start" x="23" y="-807.798" font-family="Helvetica,sans-Serif" font-size="10.00">Harmonic_dumbbell_bond</text>
<text text-anchor="middle" x="87" y="-796.798" font-family="Helvetica,sans-Serif" font-size="10.00">_parameters</text>
</a>
</g>
</g>
<!-- Node10&#45;&gt;Node1 -->
<g id="edge9" class="edge"><title>Node10&#45;&gt;Node1</title>
<path fill="none" stroke="#9a32cd" stroke-dasharray="5,2" d="M169.205,-816.813C214.856,-819.031 270.273,-813.577 309,-782.798 371.619,-733.031 377.335,-623.439 377.592,-590.406"/>
<polygon fill="#9a32cd" stroke="#9a32cd" points="169.222,-813.308 159.026,-816.186 168.792,-820.294 169.222,-813.308"/>
<text text-anchor="middle" x="250.5" y="-820.798" font-family="Helvetica,sans-Serif" font-size="10.00"> harmonic_dumbbell</text>
</g>
<!-- Node11 -->
<g id="node11" class="node"><title>Node11</title>
<g id="a_node11"><a xlink:href="structVolume__force__bond__parameters.html" target="_top" xlink:title="Parameters for volume_force. ">
<polygon fill="none" stroke="black" points="0,-751.298 0,-770.298 174,-770.298 174,-751.298 0,-751.298"/>
<text text-anchor="middle" x="87" y="-758.298" font-family="Helvetica,sans-Serif" font-size="10.00">Volume_force_bond_parameters</text>
</a>
</g>
</g>
<!-- Node11&#45;&gt;Node1 -->
<g id="edge10" class="edge"><title>Node11&#45;&gt;Node1</title>
<path fill="none" stroke="#9a32cd" stroke-dasharray="5,2" d="M184.486,-769.763C226.333,-768.838 273.722,-760.774 309,-734.798 358.483,-698.363 372.877,-618.075 376.453,-590.399"/>
<polygon fill="#9a32cd" stroke="#9a32cd" points="184.226,-766.265 174.257,-769.852 184.287,-773.265 184.226,-766.265"/>
<text text-anchor="middle" x="250.5" y="-772.798" font-family="Helvetica,sans-Serif" font-size="10.00"> volume_force</text>
</g>
<!-- Node12 -->
<g id="node12" class="node"><title>Node12</title>
<g id="a_node12"><a xlink:href="structDihedral__bond__parameters.html" target="_top" xlink:title="Parameters for four body angular potential (dihedral&#45;angle potentials). ">
<polygon fill="none" stroke="black" points="12.5,-713.298 12.5,-732.298 161.5,-732.298 161.5,-713.298 12.5,-713.298"/>
<text text-anchor="middle" x="87" y="-720.298" font-family="Helvetica,sans-Serif" font-size="10.00">Dihedral_bond_parameters</text>
</a>
</g>
</g>
<!-- Node12&#45;&gt;Node1 -->
<g id="edge11" class="edge"><title>Node12&#45;&gt;Node1</title>
<path fill="none" stroke="#9a32cd" stroke-dasharray="5,2" d="M171.765,-720.567C224.523,-717.729 286.723,-711.306 309,-696.798 348.785,-670.888 368.546,-613.129 375.023,-590.323"/>
<polygon fill="#9a32cd" stroke="#9a32cd" points="171.507,-717.076 161.695,-721.073 171.858,-724.067 171.507,-717.076"/>
<text text-anchor="middle" x="250.5" y="-722.798" font-family="Helvetica,sans-Serif" font-size="10.00"> dihedral</text>
</g>
<!-- Node13 -->
<g id="node13" class="node"><title>Node13</title>
<g id="a_node13"><a xlink:href="structIBM__Triel__Parameters.html" target="_top" xlink:title="Parameters for IBM elastic triangle (triel) ">
<polygon fill="none" stroke="black" points="26.5,-675.298 26.5,-694.298 147.5,-694.298 147.5,-675.298 26.5,-675.298"/>
<text text-anchor="middle" x="87" y="-682.298" font-family="Helvetica,sans-Serif" font-size="10.00">IBM_Triel_Parameters</text>
</a>
</g>
</g>
<!-- Node13&#45;&gt;Node1 -->
<g id="edge12" class="edge"><title>Node13&#45;&gt;Node1</title>
<path fill="none" stroke="#9a32cd" stroke-dasharray="5,2" d="M157.886,-684.761C203.176,-682.151 262.223,-673.738 309,-649.798 336.648,-635.647 359.939,-606.193 370.854,-590.744"/>
<polygon fill="#9a32cd" stroke="#9a32cd" points="157.672,-681.267 147.857,-685.258 158.018,-688.259 157.672,-681.267"/>
<text text-anchor="middle" x="250.5" y="-684.798" font-family="Helvetica,sans-Serif" font-size="10.00"> ibm_triel</text>
</g>
<!-- Node14 -->
<g id="node14" class="node"><title>Node14</title>
<g id="a_node14"><a xlink:href="structCg__dna__basepair__parameters.html" target="_top" xlink:title="Parameters for the cg_dna potential Insert documentation here. ">
<polygon fill="none" stroke="black" points="6.5,-637.298 6.5,-656.298 167.5,-656.298 167.5,-637.298 6.5,-637.298"/>
<text text-anchor="middle" x="87" y="-644.298" font-family="Helvetica,sans-Serif" font-size="10.00">Cg_dna_basepair_parameters</text>
</a>
</g>
</g>
<!-- Node14&#45;&gt;Node1 -->
<g id="edge13" class="edge"><title>Node14&#45;&gt;Node1</title>
<path fill="none" stroke="#9a32cd" stroke-dasharray="5,2" d="M177.658,-636.654C218.258,-630.824 266.56,-622.148 309,-609.798 326.112,-604.818 344.68,-596.78 358.162,-590.428"/>
<polygon fill="#9a32cd" stroke="#9a32cd" points="176.928,-633.222 167.51,-638.076 177.899,-640.155 176.928,-633.222"/>
<text text-anchor="middle" x="250.5" y="-637.798" font-family="Helvetica,sans-Serif" font-size="10.00"> hydrogen_bond</text>
</g>
<!-- Node15 -->
<g id="node15" class="node"><title>Node15</title>
<g id="a_node15"><a xlink:href="structBonded__coulomb__bond__parameters.html" target="_top" xlink:title="Parameters for coulomb bond Potential. ">
<polygon fill="none" stroke="black" points="22,-587.798 22,-617.798 152,-617.798 152,-587.798 22,-587.798"/>
<text text-anchor="start" x="30" y="-605.798" font-family="Helvetica,sans-Serif" font-size="10.00">Bonded_coulomb_bond</text>
<text text-anchor="middle" x="87" y="-594.798" font-family="Helvetica,sans-Serif" font-size="10.00">_parameters</text>
</a>
</g>
</g>
<!-- Node15&#45;&gt;Node1 -->
<g id="edge14" class="edge"><title>Node15&#45;&gt;Node1</title>
<path fill="none" stroke="#9a32cd" stroke-dasharray="5,2" d="M162.352,-597.148C213.975,-593.225 281.387,-588.102 326.887,-584.644"/>
<polygon fill="#9a32cd" stroke="#9a32cd" points="161.955,-593.667 152.249,-597.915 162.486,-600.647 161.955,-593.667"/>
<text text-anchor="middle" x="250.5" y="-597.798" font-family="Helvetica,sans-Serif" font-size="10.00"> bonded_coulomb</text>
</g>
<!-- Node16 -->
<g id="node16" class="node"><title>Node16</title>
<g id="a_node16"><a xlink:href="structQuartic__bond__parameters.html" target="_top" xlink:title="Parameters for quartic bond Potential. ">
<polygon fill="none" stroke="black" points="15.5,-549.298 15.5,-568.298 158.5,-568.298 158.5,-549.298 15.5,-549.298"/>
<text text-anchor="middle" x="87" y="-556.298" font-family="Helvetica,sans-Serif" font-size="10.00">Quartic_bond_parameters</text>
</a>
</g>
</g>
<!-- Node16&#45;&gt;Node1 -->
<g id="edge15" class="edge"><title>Node16&#45;&gt;Node1</title>
<path fill="none" stroke="#9a32cd" stroke-dasharray="5,2" d="M168.909,-562.161C210.78,-564.255 262.695,-567.4 309,-571.798 314.732,-572.342 320.722,-572.999 326.673,-573.706"/>
<polygon fill="#9a32cd" stroke="#9a32cd" points="168.924,-558.657 158.765,-561.664 168.582,-565.649 168.924,-558.657"/>
<text text-anchor="middle" x="250.5" y="-574.798" font-family="Helvetica,sans-Serif" font-size="10.00"> quartic</text>
</g>
<!-- Node17 -->
<g id="node17" class="node"><title>Node17</title>
<g id="a_node17"><a xlink:href="structArea__force__local__bond__parameters.html" target="_top" xlink:title="Parameters for area_force_local. ">
<polygon fill="none" stroke="black" points="23.5,-499.798 23.5,-529.798 150.5,-529.798 150.5,-499.798 23.5,-499.798"/>
<text text-anchor="start" x="31.5" y="-517.798" font-family="Helvetica,sans-Serif" font-size="10.00">Area_force_local_bond</text>
<text text-anchor="middle" x="87" y="-506.798" font-family="Helvetica,sans-Serif" font-size="10.00">_parameters</text>
</a>
</g>
</g>
<!-- Node17&#45;&gt;Node1 -->
<g id="edge16" class="edge"><title>Node17&#45;&gt;Node1</title>
<path fill="none" stroke="#9a32cd" stroke-dasharray="5,2" d="M160.936,-520.755C204.578,-525.61 260.756,-534.147 309,-548.798 327.337,-554.367 347.038,-563.992 360.584,-571.235"/>
<polygon fill="#9a32cd" stroke="#9a32cd" points="161.291,-517.273 150.975,-519.687 160.544,-524.233 161.291,-517.273"/>
<text text-anchor="middle" x="250.5" y="-551.798" font-family="Helvetica,sans-Serif" font-size="10.00"> area_force_local</text>
</g>
<!-- Node18 -->
<g id="node18" class="node"><title>Node18</title>
<g id="a_node18"><a xlink:href="structAngle__bond__parameters.html" target="_top" xlink:title="Parameters for three body angular potential (bond&#45;angle potentials). ">
<polygon fill="none" stroke="black" points="19.5,-461.298 19.5,-480.298 154.5,-480.298 154.5,-461.298 19.5,-461.298"/>
<text text-anchor="middle" x="87" y="-468.298" font-family="Helvetica,sans-Serif" font-size="10.00">Angle_bond_parameters</text>
</a>
</g>
</g>
<!-- Node18&#45;&gt;Node1 -->
<g id="edge17" class="edge"><title>Node18&#45;&gt;Node1</title>
<path fill="none" stroke="#9a32cd" stroke-dasharray="5,2" d="M164.923,-473.212C209.234,-477.337 264.739,-487.323 309,-510.798 336.94,-525.616 360.44,-555.854 371.203,-571.283"/>
<polygon fill="#9a32cd" stroke="#9a32cd" points="165.042,-469.709 154.782,-472.351 164.45,-476.684 165.042,-469.709"/>
<text text-anchor="middle" x="250.5" y="-513.798" font-family="Helvetica,sans-Serif" font-size="10.00"> angle</text>
</g>
<!-- Node19 -->
<g id="node19" class="node"><title>Node19</title>
<g id="a_node19"><a xlink:href="structStretching__force__bond__parameters.html" target="_top" xlink:title="Parameters for hyperelastic stretching_force. ">
<polygon fill="none" stroke="black" points="24.5,-411.798 24.5,-441.798 149.5,-441.798 149.5,-411.798 24.5,-411.798"/>
<text text-anchor="start" x="32.5" y="-429.798" font-family="Helvetica,sans-Serif" font-size="10.00">Stretching_force_bond</text>
<text text-anchor="middle" x="87" y="-418.798" font-family="Helvetica,sans-Serif" font-size="10.00">_parameters</text>
</a>
</g>
</g>
<!-- Node19&#45;&gt;Node1 -->
<g id="edge18" class="edge"><title>Node19&#45;&gt;Node1</title>
<path fill="none" stroke="#9a32cd" stroke-dasharray="5,2" d="M160.215,-422.931C206.468,-423.927 265.714,-432.007 309,-461.798 348.863,-489.232 368.579,-547.985 375.033,-571.136"/>
<polygon fill="#9a32cd" stroke="#9a32cd" points="159.993,-419.429 149.956,-422.821 159.917,-426.428 159.993,-419.429"/>
<text text-anchor="middle" x="250.5" y="-464.798" font-family="Helvetica,sans-Serif" font-size="10.00"> stretching_force</text>
</g>
<!-- Node20 -->
<g id="node20" class="node"><title>Node20</title>
<g id="a_node20"><a xlink:href="structUmbrella__bond__parameters.html" target="_top" xlink:title="Parameters for umbrella potential. ">
<polygon fill="none" stroke="black" points="11,-373.298 11,-392.298 163,-392.298 163,-373.298 11,-373.298"/>
<text text-anchor="middle" x="87" y="-380.298" font-family="Helvetica,sans-Serif" font-size="10.00">Umbrella_bond_parameters</text>
</a>
</g>
</g>
<!-- Node20&#45;&gt;Node1 -->
<g id="edge19" class="edge"><title>Node20&#45;&gt;Node1</title>
<path fill="none" stroke="#9a32cd" stroke-dasharray="5,2" d="M173.296,-374.096C217.913,-374.018 270.997,-381.493 309,-410.798 362.42,-451.991 374.34,-541.543 376.859,-571.109"/>
<polygon fill="#9a32cd" stroke="#9a32cd" points="172.983,-370.6 163.035,-374.245 173.085,-377.599 172.983,-370.6"/>
<text text-anchor="middle" x="250.5" y="-413.798" font-family="Helvetica,sans-Serif" font-size="10.00"> umbrella</text>
</g>
<!-- Node21 -->
<g id="node21" class="node"><title>Node21</title>
<g id="a_node21"><a xlink:href="structCg__dna__stacking__parameters.html" target="_top" xlink:title="Cg_dna_stacking_parameters">
<polygon fill="none" stroke="black" points="6.5,-335.298 6.5,-354.298 167.5,-354.298 167.5,-335.298 6.5,-335.298"/>
<text text-anchor="middle" x="87" y="-342.298" font-family="Helvetica,sans-Serif" font-size="10.00">Cg_dna_stacking_parameters</text>
</a>
</g>
</g>
<!-- Node21&#45;&gt;Node1 -->
<g id="edge20" class="edge"><title>Node21&#45;&gt;Node1</title>
<path fill="none" stroke="#9a32cd" stroke-dasharray="5,2" d="M138.77,-333.534C187.702,-325.809 261.168,-322.855 309,-360.798 377.321,-414.994 378.956,-536.422 377.936,-571.277"/>
<polygon fill="#9a32cd" stroke="#9a32cd" points="137.991,-330.116 128.719,-335.242 139.164,-337.017 137.991,-330.116"/>
<text text-anchor="middle" x="250.5" y="-363.798" font-family="Helvetica,sans-Serif" font-size="10.00"> twist_stack</text>
</g>
<!-- Node22 -->
<g id="node22" class="node"><title>Node22</title>
<g id="a_node22"><a xlink:href="structHarmonic__bond__parameters.html" target="_top" xlink:title="Parameters for harmonic bond Potential. ">
<polygon fill="none" stroke="black" points="9.5,-297.298 9.5,-316.298 164.5,-316.298 164.5,-297.298 9.5,-297.298"/>
<text text-anchor="middle" x="87" y="-304.298" font-family="Helvetica,sans-Serif" font-size="10.00">Harmonic_bond_parameters</text>
</a>
</g>
</g>
<!-- Node22&#45;&gt;Node1 -->
<g id="edge21" class="edge"><title>Node22&#45;&gt;Node1</title>
<path fill="none" stroke="#9a32cd" stroke-dasharray="5,2" d="M174.744,-299.208C227.545,-296.517 288.634,-297.474 309,-313.798 350.916,-347.394 371.995,-527.401 376.548,-571.191"/>
<polygon fill="#9a32cd" stroke="#9a32cd" points="174.441,-295.719 164.652,-299.77 174.831,-302.708 174.441,-295.719"/>
<text text-anchor="middle" x="250.5" y="-316.798" font-family="Helvetica,sans-Serif" font-size="10.00"> harmonic</text>
</g>
<!-- Node23 -->
<g id="node23" class="node"><title>Node23</title>
<g id="a_node23"><a xlink:href="structSubt__lj__bond__parameters.html" target="_top" xlink:title="Dummy parameters for &#45;LJ Potential. ">
<polygon fill="none" stroke="black" points="17,-259.298 17,-278.298 157,-278.298 157,-259.298 17,-259.298"/>
<text text-anchor="middle" x="87" y="-266.298" font-family="Helvetica,sans-Serif" font-size="10.00">Subt_lj_bond_parameters</text>
</a>
</g>
</g>
<!-- Node23&#45;&gt;Node1 -->
<g id="edge22" class="edge"><title>Node23&#45;&gt;Node1</title>
<path fill="none" stroke="#9a32cd" stroke-dasharray="5,2" d="M135.077,-257.261C184.389,-248.194 261.187,-243.037 309,-283.798 354.504,-322.59 373.051,-524.359 376.773,-571.116"/>
<polygon fill="#9a32cd" stroke="#9a32cd" points="134.131,-253.88 124.992,-259.24 135.479,-260.749 134.131,-253.88"/>
<text text-anchor="middle" x="250.5" y="-286.798" font-family="Helvetica,sans-Serif" font-size="10.00"> subt_lj</text>
</g>
<!-- Node24 -->
<g id="node24" class="node"><title>Node24</title>
<g id="a_node24"><a xlink:href="structRigid__bond__parameters.html" target="_top" xlink:title="Parameters for the rigid_bond/SHAKE/RATTLE ALGORITHM. ">
<polygon fill="none" stroke="black" points="21,-221.298 21,-240.298 153,-240.298 153,-221.298 21,-221.298"/>
<text text-anchor="middle" x="87" y="-228.298" font-family="Helvetica,sans-Serif" font-size="10.00">Rigid_bond_parameters</text>
</a>
</g>
</g>
<!-- Node24&#45;&gt;Node1 -->
<g id="edge23" class="edge"><title>Node24&#45;&gt;Node1</title>
<path fill="none" stroke="#9a32cd" stroke-dasharray="5,2" d="M163.308,-223.175C218.568,-219.323 287.56,-218.714 309,-236.798 362.181,-281.654 374.999,-520.498 377.139,-571.295"/>
<polygon fill="#9a32cd" stroke="#9a32cd" points="162.877,-219.697 153.164,-223.928 163.396,-226.678 162.877,-219.697"/>
<text text-anchor="middle" x="250.5" y="-239.798" font-family="Helvetica,sans-Serif" font-size="10.00"> rigid_bond</text>
</g>
<!-- Node25 -->
<g id="node25" class="node"><title>Node25</title>
<g id="a_node25"><a xlink:href="structOverlap__bond__parameters.html" target="_top" xlink:title="Parameters for n&#45;body overlapped potential (n=2,3,4). ">
<polygon fill="none" stroke="black" points="14,-183.298 14,-202.298 160,-202.298 160,-183.298 14,-183.298"/>
<text text-anchor="middle" x="87" y="-190.298" font-family="Helvetica,sans-Serif" font-size="10.00">Overlap_bond_parameters</text>
</a>
</g>
</g>
<!-- Node25&#45;&gt;Node1 -->
<g id="edge24" class="edge"><title>Node25&#45;&gt;Node1</title>
<path fill="none" stroke="#9a32cd" stroke-dasharray="5,2" d="M132.579,-181.149C182.031,-171.149 261.142,-164.273 309,-206.798 365.624,-257.111 375.775,-517.792 377.27,-571.222"/>
<polygon fill="#9a32cd" stroke="#9a32cd" points="131.844,-177.727 122.8,-183.246 133.312,-184.572 131.844,-177.727"/>
<text text-anchor="middle" x="250.5" y="-209.798" font-family="Helvetica,sans-Serif" font-size="10.00"> overlap</text>
</g>
<!-- Node26 -->
<g id="node26" class="node"><title>Node26</title>
<g id="a_node26"><a xlink:href="structAngle__harmonic__bond__parameters.html" target="_top" xlink:title="Parameters for three body angular potential (bond_angle_harmonic). ">
<polygon fill="none" stroke="black" points="24.5,-133.798 24.5,-163.798 149.5,-163.798 149.5,-133.798 24.5,-133.798"/>
<text text-anchor="start" x="32.5" y="-151.798" font-family="Helvetica,sans-Serif" font-size="10.00">Angle_harmonic_bond</text>
<text text-anchor="middle" x="87" y="-140.798" font-family="Helvetica,sans-Serif" font-size="10.00">_parameters</text>
</a>
</g>
</g>
<!-- Node26&#45;&gt;Node1 -->
<g id="edge25" class="edge"><title>Node26&#45;&gt;Node1</title>
<path fill="none" stroke="#9a32cd" stroke-dasharray="5,2" d="M153.149,-131.92C202.024,-123.472 267.407,-121.759 309,-158.798 373.022,-215.81 377.279,-513.536 377.499,-571.141"/>
<polygon fill="#9a32cd" stroke="#9a32cd" points="152.487,-128.483 143.295,-133.752 153.766,-135.365 152.487,-128.483"/>
<text text-anchor="middle" x="250.5" y="-161.798" font-family="Helvetica,sans-Serif" font-size="10.00"> angle_harmonic</text>
</g>
<!-- Node27 -->
<g id="node27" class="node"><title>Node27</title>
<g id="a_node27"><a xlink:href="structTabulated__bond__parameters.html" target="_top" xlink:title="Parameters for n&#45;body tabulated potential (n=2,3,4). ">
<polygon fill="none" stroke="black" points="9.5,-95.2978 9.5,-114.298 164.5,-114.298 164.5,-95.2978 9.5,-95.2978"/>
<text text-anchor="middle" x="87" y="-102.298" font-family="Helvetica,sans-Serif" font-size="10.00">Tabulated_bond_parameters</text>
</a>
</g>
</g>
<!-- Node27&#45;&gt;Node1 -->
<g id="edge26" class="edge"><title>Node27&#45;&gt;Node1</title>
<path fill="none" stroke="#9a32cd" stroke-dasharray="5,2" d="M174.807,-96.9639C227.993,-94.1953 289.495,-95.3132 309,-112.798 379.929,-176.378 378.557,-509.082 377.677,-570.906"/>
<polygon fill="#9a32cd" stroke="#9a32cd" points="174.424,-93.4799 164.64,-97.5443 174.824,-100.469 174.424,-93.4799"/>
<text text-anchor="middle" x="250.5" y="-115.798" font-family="Helvetica,sans-Serif" font-size="10.00"> tab</text>
</g>
<!-- Node28 -->
<g id="node28" class="node"><title>Node28</title>
<g id="a_node28"><a xlink:href="structFene__bond__parameters.html" target="_top" xlink:title="Parameters for FENE bond Potential. ">
<polygon fill="none" stroke="black" points="22,-57.2978 22,-76.2978 152,-76.2978 152,-57.2978 22,-57.2978"/>
<text text-anchor="middle" x="87" y="-64.2978" font-family="Helvetica,sans-Serif" font-size="10.00">Fene_bond_parameters</text>
</a>
</g>
</g>
<!-- Node28&#45;&gt;Node1 -->
<g id="edge27" class="edge"><title>Node28&#45;&gt;Node1</title>
<path fill="none" stroke="#9a32cd" stroke-dasharray="5,2" d="M132.544,-55.0839C182.317,-44.9409 262.058,-37.9725 309,-81.7978 383.465,-151.318 379.125,-507.654 377.744,-571.121"/>
<polygon fill="#9a32cd" stroke="#9a32cd" points="131.739,-51.6769 122.704,-57.2099 133.217,-58.5191 131.739,-51.6769"/>
<text text-anchor="middle" x="250.5" y="-84.7978" font-family="Helvetica,sans-Serif" font-size="10.00"> fene</text>
</g>
<!-- Node29 -->
<g id="node29" class="node"><title>Node29</title>
<g id="a_node29"><a xlink:href="structBending__force__bond__parameters.html" target="_top" xlink:title="Parameters for bending_force. ">
<polygon fill="none" stroke="black" points="29,-7.79777 29,-37.7978 145,-37.7978 145,-7.79777 29,-7.79777"/>
<text text-anchor="start" x="37" y="-25.7978" font-family="Helvetica,sans-Serif" font-size="10.00">Bending_force_bond</text>
<text text-anchor="middle" x="87" y="-14.7978" font-family="Helvetica,sans-Serif" font-size="10.00">_parameters</text>
</a>
</g>
</g>
<!-- Node29&#45;&gt;Node1 -->
<g id="edge28" class="edge"><title>Node29&#45;&gt;Node1</title>
<path fill="none" stroke="#9a32cd" stroke-dasharray="5,2" d="M151.643,-5.83421C200.924,3.12829 267.563,5.48304 309,-32.7978 350.375,-71.0216 373.511,-500.85 377.028,-571.112"/>
<polygon fill="#9a32cd" stroke="#9a32cd" points="150.863,-2.42015 141.718,-7.76955 152.203,-9.29073 150.863,-2.42015"/>
<text text-anchor="middle" x="250.5" y="-35.7978" font-family="Helvetica,sans-Serif" font-size="10.00"> bending_force</text>
</g>
</g>
</svg>
        <g id="navigator" transform="translate(0 0)" fill="#404254">
                <rect fill="#f2f5e9" fill-opacity="0.5" stroke="#606060" stroke-width=".5" x="0" y="0" width="60" height="60"/>
                <use id="zoomplus" xlink:href="#zoomPlus" x="17" y="9" onmousedown="handleZoom(evt,'in')"/>
                <use id="zoomminus" xlink:href="#zoomMin" x="42" y="9" onmousedown="handleZoom(evt,'out')"/>
                <use id="reset" xlink:href="#resetDef" x="30" y="36" onmousedown="handleReset()"/>
                <g id="arrowUp" xlink:href="#dirArrow" transform="translate(30 24)" onmousedown="handlePan(0,-1)">
                  <use xlink:href="#rim" fill="#404040">
                        <set attributeName="fill" to="#808080" begin="arrowUp.mouseover" end="arrowUp.mouseout"/>
                  </use>
                  <path fill="none" stroke="white" stroke-width="1.5" d="M0,-3.0v7 M-2.5,-0.5L0,-3.0L2.5,-0.5"/>
                </g>
                <g id="arrowRight" xlink:href="#dirArrow" transform="rotate(90) translate(36 -43)" onmousedown="handlePan(1,0)">
                  <use xlink:href="#rim" fill="#404040">
                        <set attributeName="fill" to="#808080" begin="arrowRight.mouseover" end="arrowRight.mouseout"/>
                  </use>
                  <path fill="none" stroke="white" stroke-width="1.5" d="M0,-3.0v7 M-2.5,-0.5L0,-3.0L2.5,-0.5"/>
                </g>
                <g id="arrowDown" xlink:href="#dirArrow" transform="rotate(180) translate(-30 -48)" onmousedown="handlePan(0,1)">
                  <use xlink:href="#rim" fill="#404040">
                        <set attributeName="fill" to="#808080" begin="arrowDown.mouseover" end="arrowDown.mouseout"/>
                  </use>
                  <path fill="none" stroke="white" stroke-width="1.5" d="M0,-3.0v7 M-2.5,-0.5L0,-3.0L2.5,-0.5"/>
                </g>
                <g id="arrowLeft" xlink:href="#dirArrow" transform="rotate(270) translate(-36 17)" onmousedown="handlePan(-1,0)">
                  <use xlink:href="#rim" fill="#404040">
                        <set attributeName="fill" to="#808080" begin="arrowLeft.mouseover" end="arrowLeft.mouseout"/>
                  </use>
                  <path fill="none" stroke="white" stroke-width="1.5" d="M0,-3.0v7 M-2.5,-0.5L0,-3.0L2.5,-0.5"/>
                </g>
        </g>
        <svg viewBox="0 0 15 15" width="100%" height="30px" preserveAspectRatio="xMaxYMin meet">
         <g id="arrow_out" transform="scale(0.3 0.3)">
          <a xlink:href="unionBond__parameters__coll__graph_org.svg" target="_base">
           <rect id="button" ry="5" rx="5" y="6" x="6" height="38" width="38"
                fill="#f2f5e9" fill-opacity="0.5" stroke="#606060" stroke-width="1.0"/>
           <path id="arrow"
             d="M 11.500037,31.436501 C 11.940474,20.09759 22.043105,11.32322 32.158766,21.979434 L 37.068811,17.246167 C 37.068811,17.246167 37.088388,32 37.088388,32 L 22.160133,31.978069 C 22.160133,31.978069 26.997745,27.140456 26.997745,27.140456 C 18.528582,18.264221 13.291696,25.230495 11.500037,31.436501 z"
             style="fill:#404040;"/>
          </a>
         </g>
        </svg>
</svg>
