<?xml version="1.0" encoding="UTF-8" standalone="no"?>
<!DOCTYPE svg PUBLIC "-//W3C//DTD SVG 1.1//EN"
 "http://www.w3.org/Graphics/SVG/1.1/DTD/svg11.dtd">
<!-- Generated by graphviz version 2.38.0 (20140413.2041)
 -->
<!-- Title: uwerr_tcl.cpp Pages: 1 -->
<!--zoomable 140 -->
<svg id="main" version="1.1" xmlns="http://www.w3.org/2000/svg" xmlns:xlink="http://www.w3.org/1999/xlink" xml:space="preserve" onload="init(evt)">
<style type="text/css"><![CDATA[
.edge:hover path { stroke: red; }
.edge:hover polygon { stroke: red; fill: red; }
]]></style>
<script type="text/javascript"><![CDATA[
var edges = document.getElementsByTagName('g');
if (edges && edges.length) {
  for (var i=0;i<edges.length;i++) {
    if (edges[i].id.substr(0,4)=='edge') {
      edges[i].setAttribute('class','edge');
    }
  }
}
]]></script>
        <defs>
                <circle id="rim" cx="0" cy="0" r="7"/>
                <circle id="rim2" cx="0" cy="0" r="3.5"/>
                <g id="zoomPlus">
                        <use xlink:href="#rim" fill="#404040">
                                <set attributeName="fill" to="#808080" begin="zoomplus.mouseover" end="zoomplus.mouseout"/>
                        </use>
                        <path d="M-4,0h8M0,-4v8" fill="none" stroke="white" stroke-width="1.5" pointer-events="none"/>
                </g>
                <g id="zoomMin">
                        <use xlink:href="#rim" fill="#404040">
                                <set attributeName="fill" to="#808080" begin="zoomminus.mouseover" end="zoomminus.mouseout"/>
                        </use>
                        <path d="M-4,0h8" fill="none" stroke="white" stroke-width="1.5" pointer-events="none"/>
                </g>
                <g id="dirArrow">
                        <path fill="none" stroke="white" stroke-width="1.5" d="M0,-3.0v7 M-2.5,-0.5L0,-3.0L2.5,-0.5"/>
                </g>
               <g id="resetDef">
                       <use xlink:href="#rim2" fill="#404040">
                               <set attributeName="fill" to="#808080" begin="reset.mouseover" end="reset.mouseout"/>
                       </use>
               </g>
        </defs>

<script type="text/javascript">
var viewWidth = 508;
var viewHeight = 140;
var sectionId = 'dynsection-0';
</script>
<script xlink:href="svgpan.js"/>
<svg id="graph" class="graph">
<g id="viewport">
<title>uwerr_tcl.cpp</title>
<!-- Node1 -->
<g id="node1" class="node"><title>Node1</title>
<polygon fill="#bfbfbf" stroke="black" points="155.5,-112.5 155.5,-131.5 237.5,-131.5 237.5,-112.5 155.5,-112.5"/>
<text text-anchor="middle" x="196.5" y="-119.5" font-family="Helvetica,sans-Serif" font-size="10.00">uwerr_tcl.cpp</text>
</g>
<!-- Node2 -->
<g id="node2" class="node"><title>Node2</title>
<polygon fill="none" stroke="#bfbfbf" points="-3.55271e-15,-56.5 -3.55271e-15,-75.5 49,-75.5 49,-56.5 -3.55271e-15,-56.5"/>
<text text-anchor="middle" x="24.5" y="-63.5" font-family="Helvetica,sans-Serif" font-size="10.00">cstdlib</text>
</g>
<!-- Node1&#45;&gt;Node2 -->
<g id="edge1" class="edge"><title>Node1&#45;&gt;Node2</title>
<path fill="none" stroke="midnightblue" d="M169.246,-112.444C139.415,-103.078 91.5211,-88.0415 59.0695,-77.8532"/>
<polygon fill="midnightblue" stroke="midnightblue" points="59.7077,-74.3852 49.1184,-74.729 57.6108,-81.0638 59.7077,-74.3852"/>
</g>
<!-- Node3 -->
<g id="node3" class="node"><title>Node3</title>
<polygon fill="none" stroke="#bfbfbf" points="67.5,-56.5 67.5,-75.5 117.5,-75.5 117.5,-56.5 67.5,-56.5"/>
<text text-anchor="middle" x="92.5" y="-63.5" font-family="Helvetica,sans-Serif" font-size="10.00">cstring</text>
</g>
<!-- Node1&#45;&gt;Node3 -->
<g id="edge2" class="edge"><title>Node1&#45;&gt;Node3</title>
<path fill="none" stroke="midnightblue" d="M179.791,-112.324C163.188,-103.703 137.498,-90.3643 118.28,-80.3855"/>
<polygon fill="midnightblue" stroke="midnightblue" points="119.656,-77.1565 109.168,-75.6545 116.43,-83.3689 119.656,-77.1565"/>
</g>
<!-- Node4 -->
<g id="node4" class="node"><title>Node4</title>
<polygon fill="none" stroke="#bfbfbf" points="136,-56.5 136,-75.5 183,-75.5 183,-56.5 136,-56.5"/>
<text text-anchor="middle" x="159.5" y="-63.5" font-family="Helvetica,sans-Serif" font-size="10.00">cmath</text>
</g>
<!-- Node1&#45;&gt;Node4 -->
<g id="edge3" class="edge"><title>Node1&#45;&gt;Node4</title>
<path fill="none" stroke="midnightblue" d="M190.39,-112.083C185.218,-104.534 177.654,-93.4948 171.306,-84.2298"/>
<polygon fill="midnightblue" stroke="midnightblue" points="174.036,-82.0221 165.496,-75.7511 168.261,-85.9787 174.036,-82.0221"/>
</g>
<!-- Node5 -->
<g id="node5" class="node"><title>Node5</title>
<g id="a_node5"><a xlink:href="uwerr_8hpp.html" target="_top" xlink:title="uwerr.hpp">
<polygon fill="none" stroke="black" points="201,-56.5 201,-75.5 266,-75.5 266,-56.5 201,-56.5"/>
<text text-anchor="middle" x="233.5" y="-63.5" font-family="Helvetica,sans-Serif" font-size="10.00">uwerr.hpp</text>
</a>
</g>
</g>
<!-- Node1&#45;&gt;Node5 -->
<g id="edge4" class="edge"><title>Node1&#45;&gt;Node5</title>
<path fill="none" stroke="midnightblue" d="M202.61,-112.083C207.782,-104.534 215.346,-93.4948 221.694,-84.2298"/>
<polygon fill="midnightblue" stroke="midnightblue" points="224.739,-85.9787 227.504,-75.7511 218.964,-82.0221 224.739,-85.9787"/>
</g>
<!-- Node6 -->
<g id="node6" class="node"><title>Node6</title>
<g id="a_node6"><a xlink:href="config_8hpp.html" target="_top" xlink:title="This file contains the defaults for Espresso. ">
<polygon fill="none" stroke="black" points="284,-56.5 284,-75.5 351,-75.5 351,-56.5 284,-56.5"/>
<text text-anchor="middle" x="317.5" y="-63.5" font-family="Helvetica,sans-Serif" font-size="10.00">config.hpp</text>
</a>
</g>
</g>
<!-- Node1&#45;&gt;Node6 -->
<g id="edge5" class="edge"><title>Node1&#45;&gt;Node6</title>
<path fill="none" stroke="midnightblue" d="M215.673,-112.444C235.409,-103.636 266.385,-89.8116 288.993,-79.722"/>
<polygon fill="midnightblue" stroke="midnightblue" points="290.711,-82.788 298.417,-75.5164 287.859,-76.3957 290.711,-82.788"/>
</g>
<!-- Node10 -->
<g id="node10" class="node"><title>Node10</title>
<polygon fill="none" stroke="#bfbfbf" points="369.5,-56.5 369.5,-75.5 407.5,-75.5 407.5,-56.5 369.5,-56.5"/>
<text text-anchor="middle" x="388.5" y="-63.5" font-family="Helvetica,sans-Serif" font-size="10.00">tcl.h</text>
</g>
<!-- Node1&#45;&gt;Node10 -->
<g id="edge9" class="edge"><title>Node1&#45;&gt;Node10</title>
<path fill="none" stroke="midnightblue" d="M229.29,-112.449C260.472,-104.219 308.91,-91.1815 359.459,-76.2222"/>
<polygon fill="midnightblue" stroke="midnightblue" points="360.668,-79.514 369.254,-73.3067 358.671,-72.8048 360.668,-79.514"/>
</g>
<!-- Node7 -->
<g id="node7" class="node"><title>Node7</title>
<g id="a_node7"><a xlink:href="acconfig_8hpp.html" target="_top" xlink:title="acconfig.hpp">
<polygon fill="none" stroke="black" points="167.5,-0.5 167.5,-19.5 245.5,-19.5 245.5,-0.5 167.5,-0.5"/>
<text text-anchor="middle" x="206.5" y="-7.5" font-family="Helvetica,sans-Serif" font-size="10.00">acconfig.hpp</text>
</a>
</g>
</g>
<!-- Node6&#45;&gt;Node7 -->
<g id="edge6" class="edge"><title>Node6&#45;&gt;Node7</title>
<path fill="none" stroke="midnightblue" d="M299.666,-56.324C281.784,-47.6247 254.025,-34.1202 233.454,-24.113"/>
<polygon fill="midnightblue" stroke="midnightblue" points="234.813,-20.8819 224.29,-19.6545 231.751,-27.1765 234.813,-20.8819"/>
</g>
<!-- Node8 -->
<g id="node8" class="node"><title>Node8</title>
<g id="a_node8"><a xlink:href="myconfig-final_8hpp.html" target="_top" xlink:title="myconfig&#45;final.hpp">
<polygon fill="none" stroke="black" points="264,-0.5 264,-19.5 371,-19.5 371,-0.5 264,-0.5"/>
<text text-anchor="middle" x="317.5" y="-7.5" font-family="Helvetica,sans-Serif" font-size="10.00">myconfig&#45;final.hpp</text>
</a>
</g>
</g>
<!-- Node6&#45;&gt;Node8 -->
<g id="edge7" class="edge"><title>Node6&#45;&gt;Node8</title>
<path fill="none" stroke="midnightblue" d="M317.5,-56.083C317.5,-49.0059 317.5,-38.8611 317.5,-29.9865"/>
<polygon fill="midnightblue" stroke="midnightblue" points="321,-29.751 317.5,-19.7511 314,-29.7511 321,-29.751"/>
</g>
<!-- Node9 -->
<g id="node9" class="node"><title>Node9</title>
<g id="a_node9"><a xlink:href="config-features_8hpp.html" target="_top" xlink:title="config&#45;features.hpp">
<polygon fill="none" stroke="black" points="389,-0.5 389,-19.5 500,-19.5 500,-0.5 389,-0.5"/>
<text text-anchor="middle" x="444.5" y="-7.5" font-family="Helvetica,sans-Serif" font-size="10.00">config&#45;features.hpp</text>
</a>
</g>
</g>
<!-- Node6&#45;&gt;Node9 -->
<g id="edge8" class="edge"><title>Node6&#45;&gt;Node9</title>
<path fill="none" stroke="midnightblue" d="M337.624,-56.4435C358.524,-47.5566 391.435,-33.5632 415.216,-23.4514"/>
<polygon fill="midnightblue" stroke="midnightblue" points="416.638,-26.6504 424.471,-19.5164 413.898,-20.2085 416.638,-26.6504"/>
</g>
</g>
</svg>
        <g id="navigator" transform="translate(0 0)" fill="#404254">
                <rect fill="#f2f5e9" fill-opacity="0.5" stroke="#606060" stroke-width=".5" x="0" y="0" width="60" height="60"/>
                <use id="zoomplus" xlink:href="#zoomPlus" x="17" y="9" onmousedown="handleZoom(evt,'in')"/>
                <use id="zoomminus" xlink:href="#zoomMin" x="42" y="9" onmousedown="handleZoom(evt,'out')"/>
                <use id="reset" xlink:href="#resetDef" x="30" y="36" onmousedown="handleReset()"/>
                <g id="arrowUp" xlink:href="#dirArrow" transform="translate(30 24)" onmousedown="handlePan(0,-1)">
                  <use xlink:href="#rim" fill="#404040">
                        <set attributeName="fill" to="#808080" begin="arrowUp.mouseover" end="arrowUp.mouseout"/>
                  </use>
                  <path fill="none" stroke="white" stroke-width="1.5" d="M0,-3.0v7 M-2.5,-0.5L0,-3.0L2.5,-0.5"/>
                </g>
                <g id="arrowRight" xlink:href="#dirArrow" transform="rotate(90) translate(36 -43)" onmousedown="handlePan(1,0)">
                  <use xlink:href="#rim" fill="#404040">
                        <set attributeName="fill" to="#808080" begin="arrowRight.mouseover" end="arrowRight.mouseout"/>
                  </use>
                  <path fill="none" stroke="white" stroke-width="1.5" d="M0,-3.0v7 M-2.5,-0.5L0,-3.0L2.5,-0.5"/>
                </g>
                <g id="arrowDown" xlink:href="#dirArrow" transform="rotate(180) translate(-30 -48)" onmousedown="handlePan(0,1)">
                  <use xlink:href="#rim" fill="#404040">
                        <set attributeName="fill" to="#808080" begin="arrowDown.mouseover" end="arrowDown.mouseout"/>
                  </use>
                  <path fill="none" stroke="white" stroke-width="1.5" d="M0,-3.0v7 M-2.5,-0.5L0,-3.0L2.5,-0.5"/>
                </g>
                <g id="arrowLeft" xlink:href="#dirArrow" transform="rotate(270) translate(-36 17)" onmousedown="handlePan(-1,0)">
                  <use xlink:href="#rim" fill="#404040">
                        <set attributeName="fill" to="#808080" begin="arrowLeft.mouseover" end="arrowLeft.mouseout"/>
                  </use>
                  <path fill="none" stroke="white" stroke-width="1.5" d="M0,-3.0v7 M-2.5,-0.5L0,-3.0L2.5,-0.5"/>
                </g>
        </g>
        <svg viewBox="0 0 15 15" width="100%" height="30px" preserveAspectRatio="xMaxYMin meet">
         <g id="arrow_out" transform="scale(0.3 0.3)">
          <a xlink:href="uwerr__tcl_8cpp__incl_org.svg" target="_base">
           <rect id="button" ry="5" rx="5" y="6" x="6" height="38" width="38"
                fill="#f2f5e9" fill-opacity="0.5" stroke="#606060" stroke-width="1.0"/>
           <path id="arrow"
             d="M 11.500037,31.436501 C 11.940474,20.09759 22.043105,11.32322 32.158766,21.979434 L 37.068811,17.246167 C 37.068811,17.246167 37.088388,32 37.088388,32 L 22.160133,31.978069 C 22.160133,31.978069 26.997745,27.140456 26.997745,27.140456 C 18.528582,18.264221 13.291696,25.230495 11.500037,31.436501 z"
             style="fill:#404040;"/>
          </a>
         </g>
        </svg>
</svg>
