<?xml version="1.0" encoding="UTF-8" standalone="no"?>
<!DOCTYPE svg PUBLIC "-//W3C//DTD SVG 1.1//EN"
 "http://www.w3.org/Graphics/SVG/1.1/DTD/svg11.dtd">
<!-- Generated by graphviz version 2.38.0 (20140413.2041)
 -->
<!-- Title: virtual_sites_com_tcl.cpp Pages: 1 -->
<!--zoomable 420 -->
<svg id="main" version="1.1" xmlns="http://www.w3.org/2000/svg" xmlns:xlink="http://www.w3.org/1999/xlink" xml:space="preserve" onload="init(evt)">
<style type="text/css"><![CDATA[
.edge:hover path { stroke: red; }
.edge:hover polygon { stroke: red; fill: red; }
]]></style>
<script type="text/javascript"><![CDATA[
var edges = document.getElementsByTagName('g');
if (edges && edges.length) {
  for (var i=0;i<edges.length;i++) {
    if (edges[i].id.substr(0,4)=='edge') {
      edges[i].setAttribute('class','edge');
    }
  }
}
]]></script>
        <defs>
                <circle id="rim" cx="0" cy="0" r="7"/>
                <circle id="rim2" cx="0" cy="0" r="3.5"/>
                <g id="zoomPlus">
                        <use xlink:href="#rim" fill="#404040">
                                <set attributeName="fill" to="#808080" begin="zoomplus.mouseover" end="zoomplus.mouseout"/>
                        </use>
                        <path d="M-4,0h8M0,-4v8" fill="none" stroke="white" stroke-width="1.5" pointer-events="none"/>
                </g>
                <g id="zoomMin">
                        <use xlink:href="#rim" fill="#404040">
                                <set attributeName="fill" to="#808080" begin="zoomminus.mouseover" end="zoomminus.mouseout"/>
                        </use>
                        <path d="M-4,0h8" fill="none" stroke="white" stroke-width="1.5" pointer-events="none"/>
                </g>
                <g id="dirArrow">
                        <path fill="none" stroke="white" stroke-width="1.5" d="M0,-3.0v7 M-2.5,-0.5L0,-3.0L2.5,-0.5"/>
                </g>
               <g id="resetDef">
                       <use xlink:href="#rim2" fill="#404040">
                               <set attributeName="fill" to="#808080" begin="reset.mouseover" end="reset.mouseout"/>
                       </use>
               </g>
        </defs>

<script type="text/javascript">
var viewWidth = 965;
var viewHeight = 420;
var sectionId = 'dynsection-0';
</script>
<script xlink:href="svgpan.js"/>
<svg id="graph" class="graph">
<g id="viewport">
<title>virtual_sites_com_tcl.cpp</title>
<!-- Node1 -->
<g id="node1" class="node"><title>Node1</title>
<polygon fill="#bfbfbf" stroke="black" points="310,-392.5 310,-411.5 450,-411.5 450,-392.5 310,-392.5"/>
<text text-anchor="middle" x="380" y="-399.5" font-family="Helvetica,sans-Serif" font-size="10.00">virtual_sites_com_tcl.cpp</text>
</g>
<!-- Node2 -->
<g id="node2" class="node"><title>Node2</title>
<g id="a_node2"><a xlink:href="virtual__sites__com_8hpp.html" target="_top" xlink:title="virtual_sites_com.hpp">
<polygon fill="none" stroke="black" points="0,-280.5 0,-299.5 124,-299.5 124,-280.5 0,-280.5"/>
<text text-anchor="middle" x="62" y="-287.5" font-family="Helvetica,sans-Serif" font-size="10.00">virtual_sites_com.hpp</text>
</a>
</g>
</g>
<!-- Node1&#45;&gt;Node2 -->
<g id="edge1" class="edge"><title>Node1&#45;&gt;Node2</title>
<path fill="none" stroke="midnightblue" d="M309.845,-396.111C261.961,-390.742 198.028,-379.502 146,-356 119.383,-343.977 93.5468,-321.949 77.7145,-306.899"/>
<polygon fill="midnightblue" stroke="midnightblue" points="79.9966,-304.236 70.3959,-299.755 75.1069,-309.245 79.9966,-304.236"/>
</g>
<!-- Node15 -->
<g id="node15" class="node"><title>Node15</title>
<g id="a_node15"><a xlink:href="errorhandling_8hpp.html" target="_top" xlink:title="This file contains the errorhandling code for severe errors, like a broken bond or illegal parameter ...">
<polygon fill="none" stroke="black" points="827.5,-112.5 827.5,-131.5 930.5,-131.5 930.5,-112.5 827.5,-112.5"/>
<text text-anchor="middle" x="879" y="-119.5" font-family="Helvetica,sans-Serif" font-size="10.00">errorhandling.hpp</text>
</a>
</g>
</g>
<!-- Node1&#45;&gt;Node15 -->
<g id="edge54" class="edge"><title>Node1&#45;&gt;Node15</title>
<path fill="none" stroke="midnightblue" d="M450.086,-401.046C594.961,-399.246 914,-384.649 914,-291 914,-291 914,-291 914,-233 914,-199.072 898.693,-161.911 888.325,-140.631"/>
<polygon fill="midnightblue" stroke="midnightblue" points="891.362,-138.882 883.72,-131.544 885.118,-142.046 891.362,-138.882"/>
</g>
<!-- Node21 -->
<g id="node21" class="node"><title>Node21</title>
<g id="a_node21"><a xlink:href="virtual__sites__com__tcl_8hpp.html" target="_top" xlink:title="virtual_sites_com_tcl.hpp">
<polygon fill="none" stroke="black" points="309.5,-336.5 309.5,-355.5 450.5,-355.5 450.5,-336.5 309.5,-336.5"/>
<text text-anchor="middle" x="380" y="-343.5" font-family="Helvetica,sans-Serif" font-size="10.00">virtual_sites_com_tcl.hpp</text>
</a>
</g>
</g>
<!-- Node1&#45;&gt;Node21 -->
<g id="edge24" class="edge"><title>Node1&#45;&gt;Node21</title>
<path fill="none" stroke="midnightblue" d="M380,-392.083C380,-385.006 380,-374.861 380,-365.986"/>
<polygon fill="midnightblue" stroke="midnightblue" points="383.5,-365.751 380,-355.751 376.5,-365.751 383.5,-365.751"/>
</g>
<!-- Node22 -->
<g id="node22" class="node"><title>Node22</title>
<g id="a_node22"><a xlink:href="parser_8hpp.html" target="_top" xlink:title="This file contains macros for parsing the parameters to the &#39;inter&#39; command. ">
<polygon fill="none" stroke="black" points="340,-280.5 340,-299.5 408,-299.5 408,-280.5 340,-280.5"/>
<text text-anchor="middle" x="374" y="-287.5" font-family="Helvetica,sans-Serif" font-size="10.00">parser.hpp</text>
</a>
</g>
</g>
<!-- Node1&#45;&gt;Node22 -->
<g id="edge29" class="edge"><title>Node1&#45;&gt;Node22</title>
<path fill="none" stroke="midnightblue" d="M349.753,-392.488C331.875,-385.726 310.7,-374.295 300,-356 286.987,-333.75 314.957,-315.166 340.157,-303.645"/>
<polygon fill="midnightblue" stroke="midnightblue" points="341.789,-306.753 349.589,-299.582 339.02,-300.324 341.789,-306.753"/>
</g>
<!-- Node24 -->
<g id="node24" class="node"><title>Node24</title>
<g id="a_node24"><a xlink:href="virtual__sites_8hpp.html" target="_top" xlink:title="This file contains routine to handle virtual sites Virtual sites are like particles, but they will be not integrated. ">
<polygon fill="none" stroke="black" points="155,-336.5 155,-355.5 253,-355.5 253,-336.5 155,-336.5"/>
<text text-anchor="middle" x="204" y="-343.5" font-family="Helvetica,sans-Serif" font-size="10.00">virtual_sites.hpp</text>
</a>
</g>
</g>
<!-- Node1&#45;&gt;Node24 -->
<g id="edge30" class="edge"><title>Node1&#45;&gt;Node24</title>
<path fill="none" stroke="midnightblue" d="M352.112,-392.444C322.246,-383.28 274.685,-368.688 241.544,-358.519"/>
<polygon fill="midnightblue" stroke="midnightblue" points="242.344,-355.104 231.757,-355.516 240.291,-361.796 242.344,-355.104"/>
</g>
<!-- Node26 -->
<g id="node26" class="node"><title>Node26</title>
<g id="a_node26"><a xlink:href="topology_8hpp.html" target="_top" xlink:title="This file contains functions for handling the system topology. ">
<polygon fill="none" stroke="black" points="487.5,-224.5 487.5,-243.5 566.5,-243.5 566.5,-224.5 487.5,-224.5"/>
<text text-anchor="middle" x="527" y="-231.5" font-family="Helvetica,sans-Serif" font-size="10.00">topology.hpp</text>
</a>
</g>
</g>
<!-- Node1&#45;&gt;Node26 -->
<g id="edge36" class="edge"><title>Node1&#45;&gt;Node26</title>
<path fill="none" stroke="midnightblue" d="M401.872,-392.422C419.02,-384.85 442.641,-372.454 459,-356 489.327,-325.497 510.422,-278.704 520.415,-253.167"/>
<polygon fill="midnightblue" stroke="midnightblue" points="523.757,-254.226 524.013,-243.634 517.208,-251.754 523.757,-254.226"/>
</g>
<!-- Node27 -->
<g id="node27" class="node"><title>Node27</title>
<g id="a_node27"><a xlink:href="grid_8hpp.html" target="_top" xlink:title="Domain decomposition for parallel computing. ">
<polygon fill="none" stroke="black" points="585,-336.5 585,-355.5 641,-355.5 641,-336.5 585,-336.5"/>
<text text-anchor="middle" x="613" y="-343.5" font-family="Helvetica,sans-Serif" font-size="10.00">grid.hpp</text>
</a>
</g>
</g>
<!-- Node1&#45;&gt;Node27 -->
<g id="edge38" class="edge"><title>Node1&#45;&gt;Node27</title>
<path fill="none" stroke="midnightblue" d="M416.92,-392.444C460.042,-382.449 531.031,-365.997 574.727,-355.87"/>
<polygon fill="midnightblue" stroke="midnightblue" points="575.73,-359.231 584.682,-353.563 574.15,-352.411 575.73,-359.231"/>
</g>
<!-- Node3 -->
<g id="node3" class="node"><title>Node3</title>
<g id="a_node3"><a xlink:href="config_8hpp.html" target="_top" xlink:title="This file contains the defaults for Espresso. ">
<polygon fill="none" stroke="black" points="318.5,-56.5 318.5,-75.5 385.5,-75.5 385.5,-56.5 318.5,-56.5"/>
<text text-anchor="middle" x="352" y="-63.5" font-family="Helvetica,sans-Serif" font-size="10.00">config.hpp</text>
</a>
</g>
</g>
<!-- Node2&#45;&gt;Node3 -->
<g id="edge2" class="edge"><title>Node2&#45;&gt;Node3</title>
<path fill="none" stroke="midnightblue" d="M61.1502,-280.424C58.8304,-251.79 55.5479,-158.659 105,-112 133.68,-84.9397 245.196,-73.6518 308.134,-69.3586"/>
<polygon fill="midnightblue" stroke="midnightblue" points="308.419,-72.8475 318.171,-68.7051 307.965,-65.8623 308.419,-72.8475"/>
</g>
<!-- Node7 -->
<g id="node7" class="node"><title>Node7</title>
<g id="a_node7"><a xlink:href="particle__data_8hpp.html" target="_top" xlink:title="For more information on particle_data, see particle_data.c. ">
<polygon fill="none" stroke="black" points="197.5,-224.5 197.5,-243.5 298.5,-243.5 298.5,-224.5 197.5,-224.5"/>
<text text-anchor="middle" x="248" y="-231.5" font-family="Helvetica,sans-Serif" font-size="10.00">particle_data.hpp</text>
</a>
</g>
</g>
<!-- Node2&#45;&gt;Node7 -->
<g id="edge6" class="edge"><title>Node2&#45;&gt;Node7</title>
<path fill="none" stroke="midnightblue" d="M91.4723,-280.444C123.171,-271.241 173.732,-256.562 208.775,-246.388"/>
<polygon fill="midnightblue" stroke="midnightblue" points="210.038,-249.666 218.666,-243.516 208.086,-242.943 210.038,-249.666"/>
</g>
<!-- Node4 -->
<g id="node4" class="node"><title>Node4</title>
<g id="a_node4"><a xlink:href="acconfig_8hpp.html" target="_top" xlink:title="acconfig.hpp">
<polygon fill="none" stroke="black" points="202,-0.5 202,-19.5 280,-19.5 280,-0.5 202,-0.5"/>
<text text-anchor="middle" x="241" y="-7.5" font-family="Helvetica,sans-Serif" font-size="10.00">acconfig.hpp</text>
</a>
</g>
</g>
<!-- Node3&#45;&gt;Node4 -->
<g id="edge3" class="edge"><title>Node3&#45;&gt;Node4</title>
<path fill="none" stroke="midnightblue" d="M334.166,-56.324C316.284,-47.6247 288.525,-34.1202 267.954,-24.113"/>
<polygon fill="midnightblue" stroke="midnightblue" points="269.313,-20.8819 258.79,-19.6545 266.251,-27.1765 269.313,-20.8819"/>
</g>
<!-- Node5 -->
<g id="node5" class="node"><title>Node5</title>
<g id="a_node5"><a xlink:href="myconfig-final_8hpp.html" target="_top" xlink:title="myconfig&#45;final.hpp">
<polygon fill="none" stroke="black" points="298.5,-0.5 298.5,-19.5 405.5,-19.5 405.5,-0.5 298.5,-0.5"/>
<text text-anchor="middle" x="352" y="-7.5" font-family="Helvetica,sans-Serif" font-size="10.00">myconfig&#45;final.hpp</text>
</a>
</g>
</g>
<!-- Node3&#45;&gt;Node5 -->
<g id="edge4" class="edge"><title>Node3&#45;&gt;Node5</title>
<path fill="none" stroke="midnightblue" d="M352,-56.083C352,-49.0059 352,-38.8611 352,-29.9865"/>
<polygon fill="midnightblue" stroke="midnightblue" points="355.5,-29.751 352,-19.7511 348.5,-29.7511 355.5,-29.751"/>
</g>
<!-- Node6 -->
<g id="node6" class="node"><title>Node6</title>
<g id="a_node6"><a xlink:href="config-features_8hpp.html" target="_top" xlink:title="config&#45;features.hpp">
<polygon fill="none" stroke="black" points="423.5,-0.5 423.5,-19.5 534.5,-19.5 534.5,-0.5 423.5,-0.5"/>
<text text-anchor="middle" x="479" y="-7.5" font-family="Helvetica,sans-Serif" font-size="10.00">config&#45;features.hpp</text>
</a>
</g>
</g>
<!-- Node3&#45;&gt;Node6 -->
<g id="edge5" class="edge"><title>Node3&#45;&gt;Node6</title>
<path fill="none" stroke="midnightblue" d="M372.124,-56.4435C393.024,-47.5566 425.935,-33.5632 449.716,-23.4514"/>
<polygon fill="midnightblue" stroke="midnightblue" points="451.138,-26.6504 458.971,-19.5164 448.398,-20.2085 451.138,-26.6504"/>
</g>
<!-- Node8 -->
<g id="node8" class="node"><title>Node8</title>
<g id="a_node8"><a xlink:href="utils_8hpp.html" target="_top" xlink:title="Small functions that are useful not only for one modul. ">
<polygon fill="none" stroke="black" points="429.5,-168.5 429.5,-187.5 488.5,-187.5 488.5,-168.5 429.5,-168.5"/>
<text text-anchor="middle" x="459" y="-175.5" font-family="Helvetica,sans-Serif" font-size="10.00">utils.hpp</text>
</a>
</g>
</g>
<!-- Node7&#45;&gt;Node8 -->
<g id="edge7" class="edge"><title>Node7&#45;&gt;Node8</title>
<path fill="none" stroke="midnightblue" d="M281.434,-224.444C318.955,-214.841 379.772,-199.276 419.579,-189.089"/>
<polygon fill="midnightblue" stroke="midnightblue" points="420.648,-192.428 429.468,-186.558 418.912,-185.647 420.648,-192.428"/>
</g>
<!-- Node8&#45;&gt;Node3 -->
<g id="edge12" class="edge"><title>Node8&#45;&gt;Node3</title>
<path fill="none" stroke="midnightblue" d="M429.051,-173.377C368.883,-165.796 237.942,-147.669 225,-132 198.401,-99.7984 261.947,-81.8166 308.422,-73.2933"/>
<polygon fill="midnightblue" stroke="midnightblue" points="309.082,-76.731 318.334,-71.568 307.882,-69.8347 309.082,-76.731"/>
</g>
<!-- Node9 -->
<g id="node9" class="node"><title>Node9</title>
<polygon fill="none" stroke="#bfbfbf" points="526.5,-112.5 526.5,-131.5 573.5,-131.5 573.5,-112.5 526.5,-112.5"/>
<text text-anchor="middle" x="550" y="-119.5" font-family="Helvetica,sans-Serif" font-size="10.00">cmath</text>
</g>
<!-- Node8&#45;&gt;Node9 -->
<g id="edge8" class="edge"><title>Node8&#45;&gt;Node9</title>
<path fill="none" stroke="midnightblue" d="M473.621,-168.324C487.949,-159.822 510.013,-146.729 526.749,-136.797"/>
<polygon fill="midnightblue" stroke="midnightblue" points="528.602,-139.768 535.416,-131.655 525.03,-133.748 528.602,-139.768"/>
</g>
<!-- Node10 -->
<g id="node10" class="node"><title>Node10</title>
<polygon fill="none" stroke="#bfbfbf" points="592,-112.5 592,-131.5 638,-131.5 638,-112.5 592,-112.5"/>
<text text-anchor="middle" x="615" y="-119.5" font-family="Helvetica,sans-Serif" font-size="10.00">cstdio</text>
</g>
<!-- Node8&#45;&gt;Node10 -->
<g id="edge9" class="edge"><title>Node8&#45;&gt;Node10</title>
<path fill="none" stroke="midnightblue" d="M483.719,-168.444C510.31,-159.239 552.726,-144.556 582.117,-134.383"/>
<polygon fill="midnightblue" stroke="midnightblue" points="583.618,-137.567 591.923,-130.988 581.328,-130.952 583.618,-137.567"/>
</g>
<!-- Node11 -->
<g id="node11" class="node"><title>Node11</title>
<polygon fill="none" stroke="#bfbfbf" points="656.5,-112.5 656.5,-131.5 705.5,-131.5 705.5,-112.5 656.5,-112.5"/>
<text text-anchor="middle" x="681" y="-119.5" font-family="Helvetica,sans-Serif" font-size="10.00">cstdlib</text>
</g>
<!-- Node8&#45;&gt;Node11 -->
<g id="edge10" class="edge"><title>Node8&#45;&gt;Node11</title>
<path fill="none" stroke="midnightblue" d="M488.684,-170.125C523.898,-161.919 584.618,-147.613 646.241,-132.146"/>
<polygon fill="midnightblue" stroke="midnightblue" points="647.293,-135.491 656.135,-129.655 645.583,-128.703 647.293,-135.491"/>
</g>
<!-- Node12 -->
<g id="node12" class="node"><title>Node12</title>
<polygon fill="none" stroke="#bfbfbf" points="128,-112.5 128,-131.5 178,-131.5 178,-112.5 128,-112.5"/>
<text text-anchor="middle" x="153" y="-119.5" font-family="Helvetica,sans-Serif" font-size="10.00">cstring</text>
</g>
<!-- Node8&#45;&gt;Node12 -->
<g id="edge11" class="edge"><title>Node8&#45;&gt;Node12</title>
<path fill="none" stroke="midnightblue" d="M429.261,-172.583C379.84,-165.109 277.746,-149.104 192,-132 190.735,-131.748 189.448,-131.485 188.15,-131.214"/>
<polygon fill="midnightblue" stroke="midnightblue" points="188.643,-127.739 178.128,-129.031 187.154,-134.579 188.643,-127.739"/>
</g>
<!-- Node13 -->
<g id="node13" class="node"><title>Node13</title>
<g id="a_node13"><a xlink:href="debug_8hpp.html" target="_top" xlink:title="This file controls debug facilities. ">
<polygon fill="none" stroke="black" points="318,-112.5 318,-131.5 386,-131.5 386,-112.5 318,-112.5"/>
<text text-anchor="middle" x="352" y="-119.5" font-family="Helvetica,sans-Serif" font-size="10.00">debug.hpp</text>
</a>
</g>
</g>
<!-- Node8&#45;&gt;Node13 -->
<g id="edge13" class="edge"><title>Node8&#45;&gt;Node13</title>
<path fill="none" stroke="midnightblue" d="M441.809,-168.324C424.649,-159.664 398.054,-146.242 378.253,-136.249"/>
<polygon fill="midnightblue" stroke="midnightblue" points="379.653,-133.035 369.149,-131.655 376.499,-139.285 379.653,-133.035"/>
</g>
<!-- Node14 -->
<g id="node14" class="node"><title>Node14</title>
<g id="a_node14"><a xlink:href="lees__edwards_8hpp.html" target="_top" xlink:title="lees_edwards.hpp">
<polygon fill="none" stroke="black" points="404,-112.5 404,-131.5 508,-131.5 508,-112.5 404,-112.5"/>
<text text-anchor="middle" x="456" y="-119.5" font-family="Helvetica,sans-Serif" font-size="10.00">lees_edwards.hpp</text>
</a>
</g>
</g>
<!-- Node8&#45;&gt;Node14 -->
<g id="edge15" class="edge"><title>Node8&#45;&gt;Node14</title>
<path fill="none" stroke="midnightblue" d="M458.505,-168.083C458.111,-161.006 457.548,-150.861 457.055,-141.986"/>
<polygon fill="midnightblue" stroke="midnightblue" points="460.536,-141.542 456.486,-131.751 453.546,-141.93 460.536,-141.542"/>
</g>
<!-- Node8&#45;&gt;Node15 -->
<g id="edge17" class="edge"><title>Node8&#45;&gt;Node15</title>
<path fill="none" stroke="midnightblue" d="M488.534,-173.203C556.564,-164.456 725.498,-142.736 817.279,-130.936"/>
<polygon fill="midnightblue" stroke="midnightblue" points="817.794,-134.398 827.266,-129.651 816.902,-127.455 817.794,-134.398"/>
</g>
<!-- Node19 -->
<g id="node19" class="node"><title>Node19</title>
<polygon fill="none" stroke="#bfbfbf" points="723.5,-112.5 723.5,-131.5 770.5,-131.5 770.5,-112.5 723.5,-112.5"/>
<text text-anchor="middle" x="747" y="-119.5" font-family="Helvetica,sans-Serif" font-size="10.00">vector</text>
</g>
<!-- Node8&#45;&gt;Node19 -->
<g id="edge22" class="edge"><title>Node8&#45;&gt;Node19</title>
<path fill="none" stroke="midnightblue" d="M488.624,-172.675C534.616,-165.764 626.14,-151.238 713.471,-131.941"/>
<polygon fill="midnightblue" stroke="midnightblue" points="714.276,-135.347 723.272,-129.75 712.749,-128.516 714.276,-135.347"/>
</g>
<!-- Node20 -->
<g id="node20" class="node"><title>Node20</title>
<polygon fill="none" stroke="#bfbfbf" points="234.5,-112.5 234.5,-131.5 299.5,-131.5 299.5,-112.5 234.5,-112.5"/>
<text text-anchor="middle" x="267" y="-119.5" font-family="Helvetica,sans-Serif" font-size="10.00">exception</text>
</g>
<!-- Node8&#45;&gt;Node20 -->
<g id="edge23" class="edge"><title>Node8&#45;&gt;Node20</title>
<path fill="none" stroke="midnightblue" d="M429.421,-168.681C396.633,-159.459 343.571,-144.536 307.072,-134.27"/>
<polygon fill="midnightblue" stroke="midnightblue" points="307.821,-130.845 297.247,-131.507 305.926,-137.584 307.821,-130.845"/>
</g>
<!-- Node13&#45;&gt;Node3 -->
<g id="edge14" class="edge"><title>Node13&#45;&gt;Node3</title>
<path fill="none" stroke="midnightblue" d="M352,-112.083C352,-105.006 352,-94.8611 352,-85.9865"/>
<polygon fill="midnightblue" stroke="midnightblue" points="355.5,-85.751 352,-75.7511 348.5,-85.7511 355.5,-85.751"/>
</g>
<!-- Node14&#45;&gt;Node3 -->
<g id="edge16" class="edge"><title>Node14&#45;&gt;Node3</title>
<path fill="none" stroke="midnightblue" d="M439.291,-112.324C422.688,-103.703 396.998,-90.3643 377.78,-80.3855"/>
<polygon fill="midnightblue" stroke="midnightblue" points="379.156,-77.1565 368.668,-75.6545 375.93,-83.3689 379.156,-77.1565"/>
</g>
<!-- Node15&#45;&gt;Node3 -->
<g id="edge18" class="edge"><title>Node15&#45;&gt;Node3</title>
<path fill="none" stroke="midnightblue" d="M827.143,-113.738C822.364,-113.126 817.594,-112.537 813,-112 659.966,-94.1034 477.769,-77.7884 395.788,-70.7127"/>
<polygon fill="midnightblue" stroke="midnightblue" points="395.859,-67.206 385.596,-69.8361 395.259,-74.1802 395.859,-67.206"/>
</g>
<!-- Node16 -->
<g id="node16" class="node"><title>Node16</title>
<polygon fill="none" stroke="#bfbfbf" points="913,-56.5 913,-75.5 957,-75.5 957,-56.5 913,-56.5"/>
<text text-anchor="middle" x="935" y="-63.5" font-family="Helvetica,sans-Serif" font-size="10.00">string</text>
</g>
<!-- Node15&#45;&gt;Node16 -->
<g id="edge19" class="edge"><title>Node15&#45;&gt;Node16</title>
<path fill="none" stroke="midnightblue" d="M887.997,-112.324C896.194,-104.42 908.506,-92.5482 918.472,-82.9377"/>
<polygon fill="midnightblue" stroke="midnightblue" points="921.07,-85.2947 925.839,-75.8339 916.211,-80.2558 921.07,-85.2947"/>
</g>
<!-- Node17 -->
<g id="node17" class="node"><title>Node17</title>
<polygon fill="none" stroke="#bfbfbf" points="789,-56.5 789,-75.5 845,-75.5 845,-56.5 789,-56.5"/>
<text text-anchor="middle" x="817" y="-63.5" font-family="Helvetica,sans-Serif" font-size="10.00">sstream</text>
</g>
<!-- Node15&#45;&gt;Node17 -->
<g id="edge20" class="edge"><title>Node15&#45;&gt;Node17</title>
<path fill="none" stroke="midnightblue" d="M869.039,-112.324C859.873,-104.341 846.063,-92.3128 834.972,-82.6529"/>
<polygon fill="midnightblue" stroke="midnightblue" points="836.982,-79.7624 827.143,-75.8339 832.385,-85.041 836.982,-79.7624"/>
</g>
<!-- Node18 -->
<g id="node18" class="node"><title>Node18</title>
<polygon fill="none" stroke="#bfbfbf" points="863,-56.5 863,-75.5 895,-75.5 895,-56.5 863,-56.5"/>
<text text-anchor="middle" x="879" y="-63.5" font-family="Helvetica,sans-Serif" font-size="10.00">list</text>
</g>
<!-- Node15&#45;&gt;Node18 -->
<g id="edge21" class="edge"><title>Node15&#45;&gt;Node18</title>
<path fill="none" stroke="midnightblue" d="M879,-112.083C879,-105.006 879,-94.8611 879,-85.9865"/>
<polygon fill="midnightblue" stroke="midnightblue" points="882.5,-85.751 879,-75.7511 875.5,-85.7511 882.5,-85.751"/>
</g>
<!-- Node21&#45;&gt;Node22 -->
<g id="edge25" class="edge"><title>Node21&#45;&gt;Node22</title>
<path fill="none" stroke="midnightblue" d="M379.009,-336.083C378.214,-328.927 377.071,-318.635 376.077,-309.691"/>
<polygon fill="midnightblue" stroke="midnightblue" points="379.555,-309.303 374.972,-299.751 372.598,-310.076 379.555,-309.303"/>
</g>
<!-- Node22&#45;&gt;Node8 -->
<g id="edge26" class="edge"><title>Node22&#45;&gt;Node8</title>
<path fill="none" stroke="midnightblue" d="M380.67,-280.368C394.759,-262.135 427.762,-219.426 446.115,-195.675"/>
<polygon fill="midnightblue" stroke="midnightblue" points="449.016,-197.644 452.361,-187.591 443.477,-193.364 449.016,-197.644"/>
</g>
<!-- Node22&#45;&gt;Node12 -->
<g id="edge27" class="edge"><title>Node22&#45;&gt;Node12</title>
<path fill="none" stroke="midnightblue" d="M366.212,-280.469C354.173,-267.514 330.021,-242.44 307,-224 263.579,-189.219 208.039,-155.059 176.914,-136.744"/>
<polygon fill="midnightblue" stroke="midnightblue" points="178.479,-133.605 168.079,-131.585 174.95,-139.65 178.479,-133.605"/>
</g>
<!-- Node23 -->
<g id="node23" class="node"><title>Node23</title>
<polygon fill="none" stroke="#bfbfbf" points="355,-224.5 355,-243.5 393,-243.5 393,-224.5 355,-224.5"/>
<text text-anchor="middle" x="374" y="-231.5" font-family="Helvetica,sans-Serif" font-size="10.00">tcl.h</text>
</g>
<!-- Node22&#45;&gt;Node23 -->
<g id="edge28" class="edge"><title>Node22&#45;&gt;Node23</title>
<path fill="none" stroke="midnightblue" d="M374,-280.083C374,-273.006 374,-262.861 374,-253.986"/>
<polygon fill="midnightblue" stroke="midnightblue" points="377.5,-253.751 374,-243.751 370.5,-253.751 377.5,-253.751"/>
</g>
<!-- Node24&#45;&gt;Node2 -->
<g id="edge32" class="edge"><title>Node24&#45;&gt;Node2</title>
<path fill="none" stroke="midnightblue" d="M181.5,-336.444C157.923,-327.478 120.678,-313.314 94.036,-303.183"/>
<polygon fill="midnightblue" stroke="midnightblue" points="94.9861,-299.8 84.3951,-299.516 92.4979,-306.342 94.9861,-299.8"/>
</g>
<!-- Node24&#45;&gt;Node7 -->
<g id="edge31" class="edge"><title>Node24&#45;&gt;Node7</title>
<path fill="none" stroke="midnightblue" d="M239.013,-336.445C257.934,-329.844 279.684,-318.594 291,-300 301.663,-282.48 284.623,-262.919 268.949,-249.877"/>
<polygon fill="midnightblue" stroke="midnightblue" points="271.067,-247.09 261.03,-243.696 266.76,-252.608 271.067,-247.09"/>
</g>
<!-- Node25 -->
<g id="node25" class="node"><title>Node25</title>
<g id="a_node25"><a xlink:href="virtual__sites__relative_8hpp.html" target="_top" xlink:title="virtual_sites_relative.hpp">
<polygon fill="none" stroke="black" points="142,-280.5 142,-299.5 282,-299.5 282,-280.5 142,-280.5"/>
<text text-anchor="middle" x="212" y="-287.5" font-family="Helvetica,sans-Serif" font-size="10.00">virtual_sites_relative.hpp</text>
</a>
</g>
</g>
<!-- Node24&#45;&gt;Node25 -->
<g id="edge33" class="edge"><title>Node24&#45;&gt;Node25</title>
<path fill="none" stroke="midnightblue" d="M205.321,-336.083C206.381,-328.927 207.906,-318.635 209.231,-309.691"/>
<polygon fill="midnightblue" stroke="midnightblue" points="212.7,-310.156 210.704,-299.751 205.776,-309.13 212.7,-310.156"/>
</g>
<!-- Node25&#45;&gt;Node3 -->
<g id="edge34" class="edge"><title>Node25&#45;&gt;Node3</title>
<path fill="none" stroke="midnightblue" d="M200.551,-280.141C166.676,-252.895 72.1563,-168.756 119,-112 142.551,-83.4652 247.748,-72.8195 308.432,-69.007"/>
<polygon fill="midnightblue" stroke="midnightblue" points="308.717,-72.4963 318.493,-68.4118 308.303,-65.5086 308.717,-72.4963"/>
</g>
<!-- Node25&#45;&gt;Node7 -->
<g id="edge35" class="edge"><title>Node25&#45;&gt;Node7</title>
<path fill="none" stroke="midnightblue" d="M217.945,-280.083C222.977,-272.534 230.337,-261.495 236.513,-252.23"/>
<polygon fill="midnightblue" stroke="midnightblue" points="239.531,-254.013 242.166,-243.751 233.707,-250.13 239.531,-254.013"/>
</g>
<!-- Node26&#45;&gt;Node8 -->
<g id="edge37" class="edge"><title>Node26&#45;&gt;Node8</title>
<path fill="none" stroke="midnightblue" d="M516.075,-224.324C505.825,-216.185 490.279,-203.839 477.999,-194.087"/>
<polygon fill="midnightblue" stroke="midnightblue" points="480.132,-191.312 470.124,-187.834 475.779,-196.794 480.132,-191.312"/>
</g>
<!-- Node27&#45;&gt;Node8 -->
<g id="edge39" class="edge"><title>Node27&#45;&gt;Node8</title>
<path fill="none" stroke="midnightblue" d="M594.525,-336.409C565.13,-321.759 507.979,-289.095 478,-244 468.745,-230.079 463.91,-211.57 461.439,-197.864"/>
<polygon fill="midnightblue" stroke="midnightblue" points="464.854,-197.039 459.875,-187.687 457.935,-198.103 464.854,-197.039"/>
</g>
<!-- Node27&#45;&gt;Node15 -->
<g id="edge53" class="edge"><title>Node27&#45;&gt;Node15</title>
<path fill="none" stroke="midnightblue" d="M641.091,-339.609C669.418,-333.278 713.612,-320.895 747,-300 806.143,-262.986 820.45,-247.431 857,-188 865.874,-173.571 871.677,-155.118 875.083,-141.563"/>
<polygon fill="midnightblue" stroke="midnightblue" points="878.562,-142.054 877.395,-131.524 871.74,-140.483 878.562,-142.054"/>
</g>
<!-- Node28 -->
<g id="node28" class="node"><title>Node28</title>
<polygon fill="none" stroke="#bfbfbf" points="688,-280.5 688,-299.5 738,-299.5 738,-280.5 688,-280.5"/>
<text text-anchor="middle" x="713" y="-287.5" font-family="Helvetica,sans-Serif" font-size="10.00">climits</text>
</g>
<!-- Node27&#45;&gt;Node28 -->
<g id="edge40" class="edge"><title>Node27&#45;&gt;Node28</title>
<path fill="none" stroke="midnightblue" d="M629.067,-336.324C644.958,-327.743 669.507,-314.486 687.958,-304.522"/>
<polygon fill="midnightblue" stroke="midnightblue" points="689.837,-307.486 696.973,-299.655 686.511,-301.326 689.837,-307.486"/>
</g>
<!-- Node29 -->
<g id="node29" class="node"><title>Node29</title>
<g id="a_node29"><a xlink:href="communication_8hpp.html" target="_top" xlink:title="This file contains the asynchronous MPI communication. ">
<polygon fill="none" stroke="black" points="556.5,-280.5 556.5,-299.5 669.5,-299.5 669.5,-280.5 556.5,-280.5"/>
<text text-anchor="middle" x="613" y="-287.5" font-family="Helvetica,sans-Serif" font-size="10.00">communication.hpp</text>
</a>
</g>
</g>
<!-- Node27&#45;&gt;Node29 -->
<g id="edge41" class="edge"><title>Node27&#45;&gt;Node29</title>
<path fill="none" stroke="midnightblue" d="M613,-336.083C613,-329.006 613,-318.861 613,-309.986"/>
<polygon fill="midnightblue" stroke="midnightblue" points="616.5,-309.751 613,-299.751 609.5,-309.751 616.5,-309.751"/>
</g>
<!-- Node29&#45;&gt;Node7 -->
<g id="edge42" class="edge"><title>Node29&#45;&gt;Node7</title>
<path fill="none" stroke="midnightblue" d="M556.369,-280.622C489.232,-270.689 377.784,-254.201 308.852,-244.003"/>
<polygon fill="midnightblue" stroke="midnightblue" points="308.988,-240.485 298.584,-242.484 307.964,-247.41 308.988,-240.485"/>
</g>
<!-- Node29&#45;&gt;Node26 -->
<g id="edge45" class="edge"><title>Node29&#45;&gt;Node26</title>
<path fill="none" stroke="midnightblue" d="M599.183,-280.324C585.767,-271.9 565.176,-258.971 549.414,-249.074"/>
<polygon fill="midnightblue" stroke="midnightblue" points="551.113,-246.008 540.783,-243.655 547.391,-251.936 551.113,-246.008"/>
</g>
<!-- Node30 -->
<g id="node30" class="node"><title>Node30</title>
<g id="a_node30"><a xlink:href="random_8hpp.html" target="_top" xlink:title="A random generator. ">
<polygon fill="none" stroke="black" points="584.5,-224.5 584.5,-243.5 659.5,-243.5 659.5,-224.5 584.5,-224.5"/>
<text text-anchor="middle" x="622" y="-231.5" font-family="Helvetica,sans-Serif" font-size="10.00">random.hpp</text>
</a>
</g>
</g>
<!-- Node29&#45;&gt;Node30 -->
<g id="edge43" class="edge"><title>Node29&#45;&gt;Node30</title>
<path fill="none" stroke="midnightblue" d="M614.486,-280.083C615.679,-272.927 617.394,-262.635 618.885,-253.691"/>
<polygon fill="midnightblue" stroke="midnightblue" points="622.35,-254.19 620.541,-243.751 615.445,-253.04 622.35,-254.19"/>
</g>
<!-- Node31 -->
<g id="node31" class="node"><title>Node31</title>
<g id="a_node31"><a xlink:href="mpi_8h.html" target="_top" xlink:title="This is the MPIfake implementation. ">
<polygon fill="none" stroke="black" points="721,-224.5 721,-243.5 765,-243.5 765,-224.5 721,-224.5"/>
<text text-anchor="middle" x="743" y="-231.5" font-family="Helvetica,sans-Serif" font-size="10.00">mpi.h</text>
</a>
</g>
</g>
<!-- Node29&#45;&gt;Node31 -->
<g id="edge46" class="edge"><title>Node29&#45;&gt;Node31</title>
<path fill="none" stroke="midnightblue" d="M633.599,-280.444C654.993,-271.557 688.681,-257.563 713.024,-247.451"/>
<polygon fill="midnightblue" stroke="midnightblue" points="714.605,-250.585 722.497,-243.516 711.92,-244.12 714.605,-250.585"/>
</g>
<!-- Node35 -->
<g id="node35" class="node"><title>Node35</title>
<g id="a_node35"><a xlink:href="cuda__init_8hpp.html" target="_top" xlink:title="cuda_init.hpp">
<polygon fill="none" stroke="black" points="555,-168.5 555,-187.5 637,-187.5 637,-168.5 555,-168.5"/>
<text text-anchor="middle" x="596" y="-175.5" font-family="Helvetica,sans-Serif" font-size="10.00">cuda_init.hpp</text>
</a>
</g>
</g>
<!-- Node29&#45;&gt;Node35 -->
<g id="edge50" class="edge"><title>Node29&#45;&gt;Node35</title>
<path fill="none" stroke="midnightblue" d="M629.801,-280.391C650.234,-268.693 680.541,-246.626 668,-224 659.911,-209.405 644.897,-198.918 630.664,-191.761"/>
<polygon fill="midnightblue" stroke="midnightblue" points="632.05,-188.546 621.504,-187.528 629.114,-194.9 632.05,-188.546"/>
</g>
<!-- Node30&#45;&gt;Node8 -->
<g id="edge44" class="edge"><title>Node30&#45;&gt;Node8</title>
<path fill="none" stroke="midnightblue" d="M596.172,-224.444C568.751,-215.359 525.223,-200.939 494.568,-190.783"/>
<polygon fill="midnightblue" stroke="midnightblue" points="495.3,-187.339 484.707,-187.516 493.099,-193.984 495.3,-187.339"/>
</g>
<!-- Node32 -->
<g id="node32" class="node"><title>Node32</title>
<polygon fill="none" stroke="#bfbfbf" points="726.5,-168.5 726.5,-187.5 779.5,-187.5 779.5,-168.5 726.5,-168.5"/>
<text text-anchor="middle" x="753" y="-175.5" font-family="Helvetica,sans-Serif" font-size="10.00">string.h</text>
</g>
<!-- Node31&#45;&gt;Node32 -->
<g id="edge47" class="edge"><title>Node31&#45;&gt;Node32</title>
<path fill="none" stroke="midnightblue" d="M744.651,-224.083C745.976,-216.927 747.882,-206.635 749.539,-197.691"/>
<polygon fill="midnightblue" stroke="midnightblue" points="753,-198.221 751.379,-187.751 746.117,-196.947 753,-198.221"/>
</g>
<!-- Node33 -->
<g id="node33" class="node"><title>Node33</title>
<polygon fill="none" stroke="#bfbfbf" points="798,-168.5 798,-187.5 848,-187.5 848,-168.5 798,-168.5"/>
<text text-anchor="middle" x="823" y="-175.5" font-family="Helvetica,sans-Serif" font-size="10.00">stdio.h</text>
</g>
<!-- Node31&#45;&gt;Node33 -->
<g id="edge48" class="edge"><title>Node31&#45;&gt;Node33</title>
<path fill="none" stroke="midnightblue" d="M755.853,-224.324C768.216,-215.979 787.13,-203.212 801.737,-193.352"/>
<polygon fill="midnightblue" stroke="midnightblue" points="803.848,-196.15 810.179,-187.655 799.932,-190.348 803.848,-196.15"/>
</g>
<!-- Node34 -->
<g id="node34" class="node"><title>Node34</title>
<polygon fill="none" stroke="#bfbfbf" points="655.5,-168.5 655.5,-187.5 708.5,-187.5 708.5,-168.5 655.5,-168.5"/>
<text text-anchor="middle" x="682" y="-175.5" font-family="Helvetica,sans-Serif" font-size="10.00">stdlib.h</text>
</g>
<!-- Node31&#45;&gt;Node34 -->
<g id="edge49" class="edge"><title>Node31&#45;&gt;Node34</title>
<path fill="none" stroke="midnightblue" d="M733.199,-224.324C724.182,-216.341 710.594,-204.313 699.682,-194.653"/>
<polygon fill="midnightblue" stroke="midnightblue" points="701.787,-191.842 691.979,-187.834 697.147,-197.083 701.787,-191.842"/>
</g>
<!-- Node35&#45;&gt;Node3 -->
<g id="edge51" class="edge"><title>Node35&#45;&gt;Node3</title>
<path fill="none" stroke="midnightblue" d="M637.156,-169.637C688.365,-160.061 770.195,-143.233 779,-132 784.484,-125.004 784.947,-118.607 779,-112 753.657,-83.8458 499.35,-72.0306 395.661,-68.3577"/>
<polygon fill="midnightblue" stroke="midnightblue" points="395.641,-64.855 385.526,-68.0077 395.399,-71.8508 395.641,-64.855"/>
</g>
<!-- Node35&#45;&gt;Node19 -->
<g id="edge52" class="edge"><title>Node35&#45;&gt;Node19</title>
<path fill="none" stroke="midnightblue" d="M619.926,-168.444C645.219,-159.399 685.302,-145.064 713.68,-134.916"/>
<polygon fill="midnightblue" stroke="midnightblue" points="714.948,-138.179 723.186,-131.516 712.591,-131.588 714.948,-138.179"/>
</g>
</g>
</svg>
        <g id="navigator" transform="translate(0 0)" fill="#404254">
                <rect fill="#f2f5e9" fill-opacity="0.5" stroke="#606060" stroke-width=".5" x="0" y="0" width="60" height="60"/>
                <use id="zoomplus" xlink:href="#zoomPlus" x="17" y="9" onmousedown="handleZoom(evt,'in')"/>
                <use id="zoomminus" xlink:href="#zoomMin" x="42" y="9" onmousedown="handleZoom(evt,'out')"/>
                <use id="reset" xlink:href="#resetDef" x="30" y="36" onmousedown="handleReset()"/>
                <g id="arrowUp" xlink:href="#dirArrow" transform="translate(30 24)" onmousedown="handlePan(0,-1)">
                  <use xlink:href="#rim" fill="#404040">
                        <set attributeName="fill" to="#808080" begin="arrowUp.mouseover" end="arrowUp.mouseout"/>
                  </use>
                  <path fill="none" stroke="white" stroke-width="1.5" d="M0,-3.0v7 M-2.5,-0.5L0,-3.0L2.5,-0.5"/>
                </g>
                <g id="arrowRight" xlink:href="#dirArrow" transform="rotate(90) translate(36 -43)" onmousedown="handlePan(1,0)">
                  <use xlink:href="#rim" fill="#404040">
                        <set attributeName="fill" to="#808080" begin="arrowRight.mouseover" end="arrowRight.mouseout"/>
                  </use>
                  <path fill="none" stroke="white" stroke-width="1.5" d="M0,-3.0v7 M-2.5,-0.5L0,-3.0L2.5,-0.5"/>
                </g>
                <g id="arrowDown" xlink:href="#dirArrow" transform="rotate(180) translate(-30 -48)" onmousedown="handlePan(0,1)">
                  <use xlink:href="#rim" fill="#404040">
                        <set attributeName="fill" to="#808080" begin="arrowDown.mouseover" end="arrowDown.mouseout"/>
                  </use>
                  <path fill="none" stroke="white" stroke-width="1.5" d="M0,-3.0v7 M-2.5,-0.5L0,-3.0L2.5,-0.5"/>
                </g>
                <g id="arrowLeft" xlink:href="#dirArrow" transform="rotate(270) translate(-36 17)" onmousedown="handlePan(-1,0)">
                  <use xlink:href="#rim" fill="#404040">
                        <set attributeName="fill" to="#808080" begin="arrowLeft.mouseover" end="arrowLeft.mouseout"/>
                  </use>
                  <path fill="none" stroke="white" stroke-width="1.5" d="M0,-3.0v7 M-2.5,-0.5L0,-3.0L2.5,-0.5"/>
                </g>
        </g>
        <svg viewBox="0 0 15 15" width="100%" height="30px" preserveAspectRatio="xMaxYMin meet">
         <g id="arrow_out" transform="scale(0.3 0.3)">
          <a xlink:href="virtual__sites__com__tcl_8cpp__incl_org.svg" target="_base">
           <rect id="button" ry="5" rx="5" y="6" x="6" height="38" width="38"
                fill="#f2f5e9" fill-opacity="0.5" stroke="#606060" stroke-width="1.0"/>
           <path id="arrow"
             d="M 11.500037,31.436501 C 11.940474,20.09759 22.043105,11.32322 32.158766,21.979434 L 37.068811,17.246167 C 37.068811,17.246167 37.088388,32 37.088388,32 L 22.160133,31.978069 C 22.160133,31.978069 26.997745,27.140456 26.997745,27.140456 C 18.528582,18.264221 13.291696,25.230495 11.500037,31.436501 z"
             style="fill:#404040;"/>
          </a>
         </g>
        </svg>
</svg>
