<?xml version="1.0" encoding="UTF-8" standalone="no"?>
<!DOCTYPE svg PUBLIC "-//W3C//DTD SVG 1.1//EN"
 "http://www.w3.org/Graphics/SVG/1.1/DTD/svg11.dtd">
<!-- Generated by graphviz version 2.38.0 (20140413.2041)
 -->
<!-- Title: virtual_sites_relative.hpp Pages: 1 -->
<svg width="778pt" height="308pt"
 viewBox="0.00 0.00 777.50 308.00" xmlns="http://www.w3.org/2000/svg" xmlns:xlink="http://www.w3.org/1999/xlink">
<g id="graph0" class="graph" transform="scale(1 1) rotate(0) translate(4 304)">
<title>virtual_sites_relative.hpp</title>
<!-- Node1 -->
<g id="node1" class="node"><title>Node1</title>
<polygon fill="#bfbfbf" stroke="black" points="0,-280.5 0,-299.5 140,-299.5 140,-280.5 0,-280.5"/>
<text text-anchor="middle" x="70" y="-287.5" font-family="Helvetica,sans-Serif" font-size="10.00">virtual_sites_relative.hpp</text>
</g>
<!-- Node2 -->
<g id="node2" class="node"><title>Node2</title>
<g id="a_node2"><a xlink:href="config_8hpp.html" target="_top" xlink:title="This file contains the defaults for Espresso. ">
<polygon fill="none" stroke="black" points="310.5,-56.5 310.5,-75.5 377.5,-75.5 377.5,-56.5 310.5,-56.5"/>
<text text-anchor="middle" x="344" y="-63.5" font-family="Helvetica,sans-Serif" font-size="10.00">config.hpp</text>
</a>
</g>
</g>
<!-- Node1&#45;&gt;Node2 -->
<g id="edge1" class="edge"><title>Node1&#45;&gt;Node2</title>
<path fill="none" stroke="midnightblue" d="M63.3253,-280.397C42.4917,-252.455 -17.3621,-163.104 27,-112 61.8732,-71.8268 221.81,-66.5708 300.3,-66.4761"/>
<polygon fill="midnightblue" stroke="midnightblue" points="300.355,-69.9761 310.361,-66.4919 300.366,-62.9761 300.355,-69.9761"/>
</g>
<!-- Node6 -->
<g id="node6" class="node"><title>Node6</title>
<g id="a_node6"><a xlink:href="particle__data_8hpp.html" target="_top" xlink:title="For more information on particle_data, see particle_data.c. ">
<polygon fill="none" stroke="black" points="111.5,-224.5 111.5,-243.5 212.5,-243.5 212.5,-224.5 111.5,-224.5"/>
<text text-anchor="middle" x="162" y="-231.5" font-family="Helvetica,sans-Serif" font-size="10.00">particle_data.hpp</text>
</a>
</g>
</g>
<!-- Node1&#45;&gt;Node6 -->
<g id="edge5" class="edge"><title>Node1&#45;&gt;Node6</title>
<path fill="none" stroke="midnightblue" d="M84.7814,-280.324C99.2671,-271.822 121.573,-258.729 138.493,-248.797"/>
<polygon fill="midnightblue" stroke="midnightblue" points="140.403,-251.735 147.255,-243.655 136.859,-245.698 140.403,-251.735"/>
</g>
<!-- Node3 -->
<g id="node3" class="node"><title>Node3</title>
<g id="a_node3"><a xlink:href="acconfig_8hpp.html" target="_top" xlink:title="acconfig.hpp">
<polygon fill="none" stroke="black" points="194,-0.5 194,-19.5 272,-19.5 272,-0.5 194,-0.5"/>
<text text-anchor="middle" x="233" y="-7.5" font-family="Helvetica,sans-Serif" font-size="10.00">acconfig.hpp</text>
</a>
</g>
</g>
<!-- Node2&#45;&gt;Node3 -->
<g id="edge2" class="edge"><title>Node2&#45;&gt;Node3</title>
<path fill="none" stroke="midnightblue" d="M326.166,-56.324C308.284,-47.6247 280.525,-34.1202 259.954,-24.113"/>
<polygon fill="midnightblue" stroke="midnightblue" points="261.313,-20.8819 250.79,-19.6545 258.251,-27.1765 261.313,-20.8819"/>
</g>
<!-- Node4 -->
<g id="node4" class="node"><title>Node4</title>
<g id="a_node4"><a xlink:href="myconfig-final_8hpp.html" target="_top" xlink:title="myconfig&#45;final.hpp">
<polygon fill="none" stroke="black" points="290.5,-0.5 290.5,-19.5 397.5,-19.5 397.5,-0.5 290.5,-0.5"/>
<text text-anchor="middle" x="344" y="-7.5" font-family="Helvetica,sans-Serif" font-size="10.00">myconfig&#45;final.hpp</text>
</a>
</g>
</g>
<!-- Node2&#45;&gt;Node4 -->
<g id="edge3" class="edge"><title>Node2&#45;&gt;Node4</title>
<path fill="none" stroke="midnightblue" d="M344,-56.083C344,-49.0059 344,-38.8611 344,-29.9865"/>
<polygon fill="midnightblue" stroke="midnightblue" points="347.5,-29.751 344,-19.7511 340.5,-29.7511 347.5,-29.751"/>
</g>
<!-- Node5 -->
<g id="node5" class="node"><title>Node5</title>
<g id="a_node5"><a xlink:href="config-features_8hpp.html" target="_top" xlink:title="config&#45;features.hpp">
<polygon fill="none" stroke="black" points="415.5,-0.5 415.5,-19.5 526.5,-19.5 526.5,-0.5 415.5,-0.5"/>
<text text-anchor="middle" x="471" y="-7.5" font-family="Helvetica,sans-Serif" font-size="10.00">config&#45;features.hpp</text>
</a>
</g>
</g>
<!-- Node2&#45;&gt;Node5 -->
<g id="edge4" class="edge"><title>Node2&#45;&gt;Node5</title>
<path fill="none" stroke="midnightblue" d="M364.124,-56.4435C385.024,-47.5566 417.935,-33.5632 441.716,-23.4514"/>
<polygon fill="midnightblue" stroke="midnightblue" points="443.138,-26.6504 450.971,-19.5164 440.398,-20.2085 443.138,-26.6504"/>
</g>
<!-- Node7 -->
<g id="node7" class="node"><title>Node7</title>
<g id="a_node7"><a xlink:href="utils_8hpp.html" target="_top" xlink:title="Small functions that are useful not only for one modul. ">
<polygon fill="none" stroke="black" points="237.5,-168.5 237.5,-187.5 296.5,-187.5 296.5,-168.5 237.5,-168.5"/>
<text text-anchor="middle" x="267" y="-175.5" font-family="Helvetica,sans-Serif" font-size="10.00">utils.hpp</text>
</a>
</g>
</g>
<!-- Node6&#45;&gt;Node7 -->
<g id="edge6" class="edge"><title>Node6&#45;&gt;Node7</title>
<path fill="none" stroke="midnightblue" d="M178.87,-224.324C195.709,-215.664 221.807,-202.242 241.238,-192.249"/>
<polygon fill="midnightblue" stroke="midnightblue" points="242.88,-195.341 250.172,-187.655 239.678,-189.116 242.88,-195.341"/>
</g>
<!-- Node7&#45;&gt;Node2 -->
<g id="edge11" class="edge"><title>Node7&#45;&gt;Node2</title>
<path fill="none" stroke="midnightblue" d="M237.223,-175.763C180.498,-172.715 60.3205,-162.704 35,-132 29.3446,-125.142 29.1851,-118.723 35,-112 68.7438,-72.9861 223.067,-67.1086 300.057,-66.6615"/>
<polygon fill="midnightblue" stroke="midnightblue" points="300.397,-70.1606 310.387,-66.6315 300.376,-63.1606 300.397,-70.1606"/>
</g>
<!-- Node8 -->
<g id="node8" class="node"><title>Node8</title>
<polygon fill="none" stroke="#bfbfbf" points="44.5,-112.5 44.5,-131.5 91.5,-131.5 91.5,-112.5 44.5,-112.5"/>
<text text-anchor="middle" x="68" y="-119.5" font-family="Helvetica,sans-Serif" font-size="10.00">cmath</text>
</g>
<!-- Node7&#45;&gt;Node8 -->
<g id="edge7" class="edge"><title>Node7&#45;&gt;Node8</title>
<path fill="none" stroke="midnightblue" d="M237.31,-168.966C206.04,-160.502 155.103,-146.704 101.773,-132.207"/>
<polygon fill="midnightblue" stroke="midnightblue" points="102.36,-128.74 91.7918,-129.493 100.523,-135.495 102.36,-128.74"/>
</g>
<!-- Node9 -->
<g id="node9" class="node"><title>Node9</title>
<polygon fill="none" stroke="#bfbfbf" points="110,-112.5 110,-131.5 156,-131.5 156,-112.5 110,-112.5"/>
<text text-anchor="middle" x="133" y="-119.5" font-family="Helvetica,sans-Serif" font-size="10.00">cstdio</text>
</g>
<!-- Node7&#45;&gt;Node9 -->
<g id="edge8" class="edge"><title>Node7&#45;&gt;Node9</title>
<path fill="none" stroke="midnightblue" d="M245.767,-168.444C223.616,-159.517 188.681,-145.439 163.564,-135.317"/>
<polygon fill="midnightblue" stroke="midnightblue" points="164.717,-132.008 154.133,-131.516 162.1,-138.501 164.717,-132.008"/>
</g>
<!-- Node10 -->
<g id="node10" class="node"><title>Node10</title>
<polygon fill="none" stroke="#bfbfbf" points="174.5,-112.5 174.5,-131.5 223.5,-131.5 223.5,-112.5 174.5,-112.5"/>
<text text-anchor="middle" x="199" y="-119.5" font-family="Helvetica,sans-Serif" font-size="10.00">cstdlib</text>
</g>
<!-- Node7&#45;&gt;Node10 -->
<g id="edge9" class="edge"><title>Node7&#45;&gt;Node10</title>
<path fill="none" stroke="midnightblue" d="M256.075,-168.324C245.825,-160.185 230.279,-147.839 217.999,-138.087"/>
<polygon fill="midnightblue" stroke="midnightblue" points="220.132,-135.312 210.124,-131.834 215.779,-140.794 220.132,-135.312"/>
</g>
<!-- Node11 -->
<g id="node11" class="node"><title>Node11</title>
<polygon fill="none" stroke="#bfbfbf" points="242,-112.5 242,-131.5 292,-131.5 292,-112.5 242,-112.5"/>
<text text-anchor="middle" x="267" y="-119.5" font-family="Helvetica,sans-Serif" font-size="10.00">cstring</text>
</g>
<!-- Node7&#45;&gt;Node11 -->
<g id="edge10" class="edge"><title>Node7&#45;&gt;Node11</title>
<path fill="none" stroke="midnightblue" d="M267,-168.083C267,-161.006 267,-150.861 267,-141.986"/>
<polygon fill="midnightblue" stroke="midnightblue" points="270.5,-141.751 267,-131.751 263.5,-141.751 270.5,-141.751"/>
</g>
<!-- Node12 -->
<g id="node12" class="node"><title>Node12</title>
<g id="a_node12"><a xlink:href="debug_8hpp.html" target="_top" xlink:title="This file controls debug facilities. ">
<polygon fill="none" stroke="black" points="310,-112.5 310,-131.5 378,-131.5 378,-112.5 310,-112.5"/>
<text text-anchor="middle" x="344" y="-119.5" font-family="Helvetica,sans-Serif" font-size="10.00">debug.hpp</text>
</a>
</g>
</g>
<!-- Node7&#45;&gt;Node12 -->
<g id="edge12" class="edge"><title>Node7&#45;&gt;Node12</title>
<path fill="none" stroke="midnightblue" d="M279.371,-168.324C291.158,-160.058 309.132,-147.453 323.136,-137.632"/>
<polygon fill="midnightblue" stroke="midnightblue" points="325.482,-140.262 331.659,-131.655 321.462,-134.531 325.482,-140.262"/>
</g>
<!-- Node13 -->
<g id="node13" class="node"><title>Node13</title>
<g id="a_node13"><a xlink:href="lees__edwards_8hpp.html" target="_top" xlink:title="lees_edwards.hpp">
<polygon fill="none" stroke="black" points="396,-112.5 396,-131.5 500,-131.5 500,-112.5 396,-112.5"/>
<text text-anchor="middle" x="448" y="-119.5" font-family="Helvetica,sans-Serif" font-size="10.00">lees_edwards.hpp</text>
</a>
</g>
</g>
<!-- Node7&#45;&gt;Node13 -->
<g id="edge14" class="edge"><title>Node7&#45;&gt;Node13</title>
<path fill="none" stroke="midnightblue" d="M295.68,-168.444C326.527,-159.241 375.728,-144.562 409.829,-134.388"/>
<polygon fill="midnightblue" stroke="midnightblue" points="410.872,-137.729 419.454,-131.516 408.871,-131.021 410.872,-137.729"/>
</g>
<!-- Node14 -->
<g id="node14" class="node"><title>Node14</title>
<g id="a_node14"><a xlink:href="errorhandling_8hpp.html" target="_top" xlink:title="This file contains the errorhandling code for severe errors, like a broken bond or illegal parameter ...">
<polygon fill="none" stroke="black" points="518.5,-112.5 518.5,-131.5 621.5,-131.5 621.5,-112.5 518.5,-112.5"/>
<text text-anchor="middle" x="570" y="-119.5" font-family="Helvetica,sans-Serif" font-size="10.00">errorhandling.hpp</text>
</a>
</g>
</g>
<!-- Node7&#45;&gt;Node14 -->
<g id="edge16" class="edge"><title>Node7&#45;&gt;Node14</title>
<path fill="none" stroke="midnightblue" d="M296.605,-171.724C346.43,-162.844 447.895,-144.761 512.224,-133.297"/>
<polygon fill="midnightblue" stroke="midnightblue" points="512.986,-136.716 522.217,-131.516 511.758,-129.825 512.986,-136.716"/>
</g>
<!-- Node18 -->
<g id="node18" class="node"><title>Node18</title>
<polygon fill="none" stroke="#bfbfbf" points="639.5,-112.5 639.5,-131.5 686.5,-131.5 686.5,-112.5 639.5,-112.5"/>
<text text-anchor="middle" x="663" y="-119.5" font-family="Helvetica,sans-Serif" font-size="10.00">vector</text>
</g>
<!-- Node7&#45;&gt;Node18 -->
<g id="edge21" class="edge"><title>Node7&#45;&gt;Node18</title>
<path fill="none" stroke="midnightblue" d="M296.971,-174.838C357.932,-170.11 500.835,-157.355 629.321,-132.087"/>
<polygon fill="midnightblue" stroke="midnightblue" points="630.211,-135.479 639.331,-130.087 628.839,-128.614 630.211,-135.479"/>
</g>
<!-- Node19 -->
<g id="node19" class="node"><title>Node19</title>
<polygon fill="none" stroke="#bfbfbf" points="704.5,-112.5 704.5,-131.5 769.5,-131.5 769.5,-112.5 704.5,-112.5"/>
<text text-anchor="middle" x="737" y="-119.5" font-family="Helvetica,sans-Serif" font-size="10.00">exception</text>
</g>
<!-- Node7&#45;&gt;Node19 -->
<g id="edge22" class="edge"><title>Node7&#45;&gt;Node19</title>
<path fill="none" stroke="midnightblue" d="M296.537,-175.043C364.844,-170.274 539.146,-156.715 694.205,-132.137"/>
<polygon fill="midnightblue" stroke="midnightblue" points="695.07,-135.543 704.389,-130.502 693.961,-128.632 695.07,-135.543"/>
</g>
<!-- Node12&#45;&gt;Node2 -->
<g id="edge13" class="edge"><title>Node12&#45;&gt;Node2</title>
<path fill="none" stroke="midnightblue" d="M344,-112.083C344,-105.006 344,-94.8611 344,-85.9865"/>
<polygon fill="midnightblue" stroke="midnightblue" points="347.5,-85.751 344,-75.7511 340.5,-85.7511 347.5,-85.751"/>
</g>
<!-- Node13&#45;&gt;Node2 -->
<g id="edge15" class="edge"><title>Node13&#45;&gt;Node2</title>
<path fill="none" stroke="midnightblue" d="M431.291,-112.324C414.688,-103.703 388.998,-90.3643 369.78,-80.3855"/>
<polygon fill="midnightblue" stroke="midnightblue" points="371.156,-77.1565 360.668,-75.6545 367.93,-83.3689 371.156,-77.1565"/>
</g>
<!-- Node14&#45;&gt;Node2 -->
<g id="edge17" class="edge"><title>Node14&#45;&gt;Node2</title>
<path fill="none" stroke="midnightblue" d="M534.19,-112.444C494.436,-102.945 430.269,-87.6129 387.617,-77.4217"/>
<polygon fill="midnightblue" stroke="midnightblue" points="388.337,-73.9953 377.797,-75.0755 386.71,-80.8037 388.337,-73.9953"/>
</g>
<!-- Node15 -->
<g id="node15" class="node"><title>Node15</title>
<polygon fill="none" stroke="#bfbfbf" points="480,-56.5 480,-75.5 524,-75.5 524,-56.5 480,-56.5"/>
<text text-anchor="middle" x="502" y="-63.5" font-family="Helvetica,sans-Serif" font-size="10.00">string</text>
</g>
<!-- Node14&#45;&gt;Node15 -->
<g id="edge18" class="edge"><title>Node14&#45;&gt;Node15</title>
<path fill="none" stroke="midnightblue" d="M559.075,-112.324C548.825,-104.185 533.279,-91.8395 520.999,-82.0874"/>
<polygon fill="midnightblue" stroke="midnightblue" points="523.132,-79.3119 513.124,-75.8339 518.779,-84.7937 523.132,-79.3119"/>
</g>
<!-- Node16 -->
<g id="node16" class="node"><title>Node16</title>
<polygon fill="none" stroke="#bfbfbf" points="542,-56.5 542,-75.5 598,-75.5 598,-56.5 542,-56.5"/>
<text text-anchor="middle" x="570" y="-63.5" font-family="Helvetica,sans-Serif" font-size="10.00">sstream</text>
</g>
<!-- Node14&#45;&gt;Node16 -->
<g id="edge19" class="edge"><title>Node14&#45;&gt;Node16</title>
<path fill="none" stroke="midnightblue" d="M570,-112.083C570,-105.006 570,-94.8611 570,-85.9865"/>
<polygon fill="midnightblue" stroke="midnightblue" points="573.5,-85.751 570,-75.7511 566.5,-85.7511 573.5,-85.751"/>
</g>
<!-- Node17 -->
<g id="node17" class="node"><title>Node17</title>
<polygon fill="none" stroke="#bfbfbf" points="616,-56.5 616,-75.5 648,-75.5 648,-56.5 616,-56.5"/>
<text text-anchor="middle" x="632" y="-63.5" font-family="Helvetica,sans-Serif" font-size="10.00">list</text>
</g>
<!-- Node14&#45;&gt;Node17 -->
<g id="edge20" class="edge"><title>Node14&#45;&gt;Node17</title>
<path fill="none" stroke="midnightblue" d="M579.961,-112.324C589.127,-104.341 602.937,-92.3128 614.028,-82.6529"/>
<polygon fill="midnightblue" stroke="midnightblue" points="616.615,-85.041 621.857,-75.8339 612.018,-79.7624 616.615,-85.041"/>
</g>
</g>
</svg>
