<?xml version="1.0" encoding="UTF-8" standalone="no"?>
<!DOCTYPE svg PUBLIC "-//W3C//DTD SVG 1.1//EN"
 "http://www.w3.org/Graphics/SVG/1.1/DTD/svg11.dtd">
<!-- Generated by graphviz version 2.38.0 (20140413.2041)
 -->
<!-- Title: vmdsock.cpp Pages: 1 -->
<svg width="916pt" height="84pt"
 viewBox="0.00 0.00 916.00 84.00" xmlns="http://www.w3.org/2000/svg" xmlns:xlink="http://www.w3.org/1999/xlink">
<g id="graph0" class="graph" transform="scale(1 1) rotate(0) translate(4 80)">
<title>vmdsock.cpp</title>
<!-- Node1 -->
<g id="node1" class="node"><title>Node1</title>
<polygon fill="#bfbfbf" stroke="black" points="399.5,-56.5 399.5,-75.5 480.5,-75.5 480.5,-56.5 399.5,-56.5"/>
<text text-anchor="middle" x="440" y="-63.5" font-family="Helvetica,sans-Serif" font-size="10.00">vmdsock.cpp</text>
</g>
<!-- Node2 -->
<g id="node2" class="node"><title>Node2</title>
<polygon fill="none" stroke="#bfbfbf" points="0,-0.5 0,-19.5 72,-19.5 72,-0.5 0,-0.5"/>
<text text-anchor="middle" x="36" y="-7.5" font-family="Helvetica,sans-Serif" font-size="10.00">sys/types.h</text>
</g>
<!-- Node1&#45;&gt;Node2 -->
<g id="edge1" class="edge"><title>Node1&#45;&gt;Node2</title>
<path fill="none" stroke="midnightblue" d="M399.484,-60.8923C334.665,-54.1092 203.443,-39.5111 82.4835,-20.1419"/>
<polygon fill="midnightblue" stroke="midnightblue" points="82.7385,-16.6378 72.3081,-18.4971 81.6214,-23.5481 82.7385,-16.6378"/>
</g>
<!-- Node3 -->
<g id="node3" class="node"><title>Node3</title>
<polygon fill="none" stroke="#bfbfbf" points="90,-0.5 90,-19.5 136,-19.5 136,-0.5 90,-0.5"/>
<text text-anchor="middle" x="113" y="-7.5" font-family="Helvetica,sans-Serif" font-size="10.00">cstdio</text>
</g>
<!-- Node1&#45;&gt;Node3 -->
<g id="edge2" class="edge"><title>Node1&#45;&gt;Node3</title>
<path fill="none" stroke="midnightblue" d="M399.151,-60.3789C343.845,-53.7698 241.939,-40.3488 146.178,-20.0375"/>
<polygon fill="midnightblue" stroke="midnightblue" points="146.848,-16.6016 136.336,-17.9205 145.376,-23.4451 146.848,-16.6016"/>
</g>
<!-- Node4 -->
<g id="node4" class="node"><title>Node4</title>
<polygon fill="none" stroke="#bfbfbf" points="154.5,-0.5 154.5,-19.5 203.5,-19.5 203.5,-0.5 154.5,-0.5"/>
<text text-anchor="middle" x="179" y="-7.5" font-family="Helvetica,sans-Serif" font-size="10.00">cstdlib</text>
</g>
<!-- Node1&#45;&gt;Node4 -->
<g id="edge3" class="edge"><title>Node1&#45;&gt;Node4</title>
<path fill="none" stroke="midnightblue" d="M399.239,-57.721C355.723,-49.7724 284.54,-36.2629 213.812,-20.0704"/>
<polygon fill="midnightblue" stroke="midnightblue" points="214.368,-16.6069 203.837,-17.768 212.794,-23.4276 214.368,-16.6069"/>
</g>
<!-- Node5 -->
<g id="node5" class="node"><title>Node5</title>
<polygon fill="none" stroke="#bfbfbf" points="222,-0.5 222,-19.5 272,-19.5 272,-0.5 222,-0.5"/>
<text text-anchor="middle" x="247" y="-7.5" font-family="Helvetica,sans-Serif" font-size="10.00">cstring</text>
</g>
<!-- Node1&#45;&gt;Node5 -->
<g id="edge4" class="edge"><title>Node1&#45;&gt;Node5</title>
<path fill="none" stroke="midnightblue" d="M409.419,-56.4435C374.734,-46.739 318.286,-30.9452 281.905,-20.7661"/>
<polygon fill="midnightblue" stroke="midnightblue" points="282.784,-17.3777 272.21,-18.0537 280.898,-24.1188 282.784,-17.3777"/>
</g>
<!-- Node6 -->
<g id="node6" class="node"><title>Node6</title>
<polygon fill="none" stroke="#bfbfbf" points="290.5,-0.5 290.5,-19.5 349.5,-19.5 349.5,-0.5 290.5,-0.5"/>
<text text-anchor="middle" x="320" y="-7.5" font-family="Helvetica,sans-Serif" font-size="10.00">strings.h</text>
</g>
<!-- Node1&#45;&gt;Node6 -->
<g id="edge5" class="edge"><title>Node1&#45;&gt;Node6</title>
<path fill="none" stroke="midnightblue" d="M420.986,-56.4435C401.412,-47.6356 370.692,-33.8116 348.271,-23.722"/>
<polygon fill="midnightblue" stroke="midnightblue" points="349.481,-20.4284 338.925,-19.5164 346.608,-26.8119 349.481,-20.4284"/>
</g>
<!-- Node7 -->
<g id="node7" class="node"><title>Node7</title>
<polygon fill="none" stroke="#bfbfbf" points="367.5,-0.5 367.5,-19.5 436.5,-19.5 436.5,-0.5 367.5,-0.5"/>
<text text-anchor="middle" x="402" y="-7.5" font-family="Helvetica,sans-Serif" font-size="10.00">arpa/inet.h</text>
</g>
<!-- Node1&#45;&gt;Node7 -->
<g id="edge6" class="edge"><title>Node1&#45;&gt;Node7</title>
<path fill="none" stroke="midnightblue" d="M433.725,-56.083C428.358,-48.4554 420.482,-37.2645 413.921,-27.9408"/>
<polygon fill="midnightblue" stroke="midnightblue" points="416.775,-25.9149 408.158,-19.7511 411.051,-29.9434 416.775,-25.9149"/>
</g>
<!-- Node8 -->
<g id="node8" class="node"><title>Node8</title>
<polygon fill="none" stroke="#bfbfbf" points="454.5,-0.5 454.5,-19.5 501.5,-19.5 501.5,-0.5 454.5,-0.5"/>
<text text-anchor="middle" x="478" y="-7.5" font-family="Helvetica,sans-Serif" font-size="10.00">fcntl.h</text>
</g>
<!-- Node1&#45;&gt;Node8 -->
<g id="edge7" class="edge"><title>Node1&#45;&gt;Node8</title>
<path fill="none" stroke="midnightblue" d="M446.275,-56.083C451.642,-48.4554 459.518,-37.2645 466.079,-27.9408"/>
<polygon fill="midnightblue" stroke="midnightblue" points="468.949,-29.9434 471.842,-19.7511 463.225,-25.9149 468.949,-29.9434"/>
</g>
<!-- Node9 -->
<g id="node9" class="node"><title>Node9</title>
<polygon fill="none" stroke="#bfbfbf" points="520,-0.5 520,-19.5 576,-19.5 576,-0.5 520,-0.5"/>
<text text-anchor="middle" x="548" y="-7.5" font-family="Helvetica,sans-Serif" font-size="10.00">unistd.h</text>
</g>
<!-- Node1&#45;&gt;Node9 -->
<g id="edge8" class="edge"><title>Node1&#45;&gt;Node9</title>
<path fill="none" stroke="midnightblue" d="M457.352,-56.324C474.672,-47.6641 501.515,-34.2424 521.502,-24.249"/>
<polygon fill="midnightblue" stroke="midnightblue" points="523.312,-27.2572 530.691,-19.6545 520.181,-20.9962 523.312,-27.2572"/>
</g>
<!-- Node10 -->
<g id="node10" class="node"><title>Node10</title>
<polygon fill="none" stroke="#bfbfbf" points="594.5,-0.5 594.5,-19.5 671.5,-19.5 671.5,-0.5 594.5,-0.5"/>
<text text-anchor="middle" x="633" y="-7.5" font-family="Helvetica,sans-Serif" font-size="10.00">sys/socket.h</text>
</g>
<!-- Node1&#45;&gt;Node10 -->
<g id="edge9" class="edge"><title>Node1&#45;&gt;Node10</title>
<path fill="none" stroke="midnightblue" d="M470.581,-56.4435C503.615,-47.2011 556.388,-32.4356 592.766,-22.2572"/>
<polygon fill="midnightblue" stroke="midnightblue" points="593.875,-25.5815 602.562,-19.5164 591.988,-18.8404 593.875,-25.5815"/>
</g>
<!-- Node11 -->
<g id="node11" class="node"><title>Node11</title>
<polygon fill="none" stroke="#bfbfbf" points="689.5,-0.5 689.5,-19.5 742.5,-19.5 742.5,-0.5 689.5,-0.5"/>
<text text-anchor="middle" x="716" y="-7.5" font-family="Helvetica,sans-Serif" font-size="10.00">netdb.h</text>
</g>
<!-- Node1&#45;&gt;Node11 -->
<g id="edge10" class="edge"><title>Node1&#45;&gt;Node11</title>
<path fill="none" stroke="midnightblue" d="M480.678,-58.2622C526.662,-50.4561 603.975,-36.7628 679.178,-20.2987"/>
<polygon fill="midnightblue" stroke="midnightblue" points="680.282,-23.6393 689.291,-18.0646 678.772,-16.8041 680.282,-23.6393"/>
</g>
<!-- Node12 -->
<g id="node12" class="node"><title>Node12</title>
<polygon fill="none" stroke="#bfbfbf" points="760.5,-0.5 760.5,-19.5 807.5,-19.5 807.5,-0.5 760.5,-0.5"/>
<text text-anchor="middle" x="784" y="-7.5" font-family="Helvetica,sans-Serif" font-size="10.00">cerrno</text>
</g>
<!-- Node1&#45;&gt;Node12 -->
<g id="edge11" class="edge"><title>Node1&#45;&gt;Node12</title>
<path fill="none" stroke="midnightblue" d="M480.686,-60.8533C538.661,-54.5687 648.489,-41.2753 750.477,-20.106"/>
<polygon fill="midnightblue" stroke="midnightblue" points="751.256,-23.5187 760.32,-18.0327 749.814,-16.669 751.256,-23.5187"/>
</g>
<!-- Node13 -->
<g id="node13" class="node"><title>Node13</title>
<g id="a_node13"><a xlink:href="vmdsock_8hpp.html" target="_top" xlink:title="DO NOT CHANGE !!! ">
<polygon fill="none" stroke="black" points="826,-0.5 826,-19.5 908,-19.5 908,-0.5 826,-0.5"/>
<text text-anchor="middle" x="867" y="-7.5" font-family="Helvetica,sans-Serif" font-size="10.00">vmdsock.hpp</text>
</a>
</g>
</g>
<!-- Node1&#45;&gt;Node13 -->
<g id="edge12" class="edge"><title>Node1&#45;&gt;Node13</title>
<path fill="none" stroke="midnightblue" d="M480.554,-60.9566C547.979,-54.0603 687.606,-39.0432 815.834,-20.0985"/>
<polygon fill="midnightblue" stroke="midnightblue" points="816.456,-23.5446 825.831,-18.6099 815.425,-16.6209 816.456,-23.5446"/>
</g>
</g>
</svg>
