<?xml version="1.0" encoding="UTF-8" standalone="no"?>
<!DOCTYPE svg PUBLIC "-//W3C//DTD SVG 1.1//EN"
 "http://www.w3.org/Graphics/SVG/1.1/DTD/svg11.dtd">
<!-- Generated by graphviz version 2.38.0 (20140413.2041)
 -->
<!-- Title: volume_force.cpp Pages: 1 -->
<svg width="928pt" height="644pt"
 viewBox="0.00 0.00 927.50 644.00" xmlns="http://www.w3.org/2000/svg" xmlns:xlink="http://www.w3.org/1999/xlink">
<g id="graph0" class="graph" transform="scale(1 1) rotate(0) translate(4 640)">
<title>volume_force.cpp</title>
<!-- Node1 -->
<g id="node1" class="node"><title>Node1</title>
<polygon fill="#bfbfbf" stroke="black" points="660.5,-616.5 660.5,-635.5 764.5,-635.5 764.5,-616.5 660.5,-616.5"/>
<text text-anchor="middle" x="712.5" y="-623.5" font-family="Helvetica,sans-Serif" font-size="10.00">volume_force.cpp</text>
</g>
<!-- Node2 -->
<g id="node2" class="node"><title>Node2</title>
<g id="a_node2"><a xlink:href="volume__force_8hpp.html" target="_top" xlink:title="Routines to calculate the VOLUME_FORCE energy or/and and force for a particle triple (triangle from m...">
<polygon fill="none" stroke="black" points="479.5,-560.5 479.5,-579.5 583.5,-579.5 583.5,-560.5 479.5,-560.5"/>
<text text-anchor="middle" x="531.5" y="-567.5" font-family="Helvetica,sans-Serif" font-size="10.00">volume_force.hpp</text>
</a>
</g>
</g>
<!-- Node1&#45;&gt;Node2 -->
<g id="edge1" class="edge"><title>Node1&#45;&gt;Node2</title>
<path fill="none" stroke="midnightblue" d="M683.82,-616.444C652.973,-607.241 603.772,-592.562 569.671,-582.388"/>
<polygon fill="midnightblue" stroke="midnightblue" points="570.629,-579.021 560.046,-579.516 568.628,-585.729 570.629,-579.021"/>
</g>
<!-- Node34 -->
<g id="node34" class="node"><title>Node34</title>
<g id="a_node34"><a xlink:href="communication_8hpp.html" target="_top" xlink:title="This file contains the asynchronous MPI communication. ">
<polygon fill="none" stroke="black" points="688,-280.5 688,-299.5 801,-299.5 801,-280.5 688,-280.5"/>
<text text-anchor="middle" x="744.5" y="-287.5" font-family="Helvetica,sans-Serif" font-size="10.00">communication.hpp</text>
</a>
</g>
</g>
<!-- Node1&#45;&gt;Node34 -->
<g id="edge67" class="edge"><title>Node1&#45;&gt;Node34</title>
<path fill="none" stroke="midnightblue" d="M734.418,-616.388C768.543,-601.371 830.5,-566.953 830.5,-515 830.5,-515 830.5,-515 830.5,-401 830.5,-359.583 792.193,-324.453 766.712,-305.666"/>
<polygon fill="midnightblue" stroke="midnightblue" points="768.5,-302.644 758.317,-299.719 764.454,-308.356 768.5,-302.644"/>
</g>
<!-- Node3 -->
<g id="node3" class="node"><title>Node3</title>
<g id="a_node3"><a xlink:href="utils_8hpp.html" target="_top" xlink:title="Small functions that are useful not only for one modul. ">
<polygon fill="none" stroke="black" points="397,-168.5 397,-187.5 456,-187.5 456,-168.5 397,-168.5"/>
<text text-anchor="middle" x="426.5" y="-175.5" font-family="Helvetica,sans-Serif" font-size="10.00">utils.hpp</text>
</a>
</g>
</g>
<!-- Node2&#45;&gt;Node3 -->
<g id="edge2" class="edge"><title>Node2&#45;&gt;Node3</title>
<path fill="none" stroke="midnightblue" d="M534.467,-560.279C540.472,-541.824 553.5,-497.367 553.5,-459 553.5,-459 553.5,-459 553.5,-345 553.5,-314.775 551.009,-304.638 533.5,-280 517.846,-257.972 504.494,-262.181 484.5,-244 467.794,-228.809 450.847,-209.229 439.622,-195.546"/>
<polygon fill="midnightblue" stroke="midnightblue" points="442.139,-193.092 433.132,-187.512 436.693,-197.49 442.139,-193.092"/>
</g>
<!-- Node14 -->
<g id="node14" class="node"><title>Node14</title>
<g id="a_node14"><a xlink:href="errorhandling_8hpp.html" target="_top" xlink:title="This file contains the errorhandling code for severe errors, like a broken bond or illegal parameter ...">
<polygon fill="none" stroke="black" points="790,-112.5 790,-131.5 893,-131.5 893,-112.5 790,-112.5"/>
<text text-anchor="middle" x="841.5" y="-119.5" font-family="Helvetica,sans-Serif" font-size="10.00">errorhandling.hpp</text>
</a>
</g>
</g>
<!-- Node2&#45;&gt;Node14 -->
<g id="edge66" class="edge"><title>Node2&#45;&gt;Node14</title>
<path fill="none" stroke="midnightblue" d="M583.786,-566.571C678.444,-559.066 868.5,-528.385 868.5,-403 868.5,-403 868.5,-403 868.5,-233 868.5,-199.861 856.799,-162.682 848.803,-141.144"/>
<polygon fill="midnightblue" stroke="midnightblue" points="852.009,-139.73 845.141,-131.662 845.478,-142.252 852.009,-139.73"/>
</g>
<!-- Node20 -->
<g id="node20" class="node"><title>Node20</title>
<g id="a_node20"><a xlink:href="interaction__data_8hpp.html" target="_top" xlink:title="Various procedures concerning interactions between particles. ">
<polygon fill="none" stroke="black" points="408,-280.5 408,-299.5 525,-299.5 525,-280.5 408,-280.5"/>
<text text-anchor="middle" x="466.5" y="-287.5" font-family="Helvetica,sans-Serif" font-size="10.00">interaction_data.hpp</text>
</a>
</g>
</g>
<!-- Node2&#45;&gt;Node20 -->
<g id="edge22" class="edge"><title>Node2&#45;&gt;Node20</title>
<path fill="none" stroke="midnightblue" d="M525.521,-560.328C513.706,-542.318 488.5,-499.189 488.5,-459 488.5,-459 488.5,-459 488.5,-401 488.5,-368.328 479.053,-331.24 472.54,-309.553"/>
<polygon fill="midnightblue" stroke="midnightblue" points="475.791,-308.222 469.467,-299.721 469.109,-310.31 475.791,-308.222"/>
</g>
<!-- Node21 -->
<g id="node21" class="node"><title>Node21</title>
<g id="a_node21"><a xlink:href="particle__data_8hpp.html" target="_top" xlink:title="For more information on particle_data, see particle_data.c. ">
<polygon fill="none" stroke="black" points="289,-224.5 289,-243.5 390,-243.5 390,-224.5 289,-224.5"/>
<text text-anchor="middle" x="339.5" y="-231.5" font-family="Helvetica,sans-Serif" font-size="10.00">particle_data.hpp</text>
</a>
</g>
</g>
<!-- Node2&#45;&gt;Node21 -->
<g id="edge26" class="edge"><title>Node2&#45;&gt;Node21</title>
<path fill="none" stroke="midnightblue" d="M479.207,-565.599C370.782,-557.111 131.5,-530.302 131.5,-459 131.5,-459 131.5,-459 131.5,-345 131.5,-277.766 217.476,-251.516 278.876,-241.342"/>
<polygon fill="midnightblue" stroke="midnightblue" points="279.539,-244.781 288.883,-239.788 278.465,-237.864 279.539,-244.781"/>
</g>
<!-- Node22 -->
<g id="node22" class="node"><title>Node22</title>
<g id="a_node22"><a xlink:href="cells_8hpp.html" target="_top" xlink:title="This file contains everything related to the cell structure / cell system. ">
<polygon fill="none" stroke="black" points="199.5,-336.5 199.5,-355.5 259.5,-355.5 259.5,-336.5 199.5,-336.5"/>
<text text-anchor="middle" x="229.5" y="-343.5" font-family="Helvetica,sans-Serif" font-size="10.00">cells.hpp</text>
</a>
</g>
</g>
<!-- Node2&#45;&gt;Node22 -->
<g id="edge27" class="edge"><title>Node2&#45;&gt;Node22</title>
<path fill="none" stroke="midnightblue" d="M479.287,-566.94C410.892,-563.131 296.166,-552.564 266.5,-524 222.627,-481.757 224.001,-401.888 227.24,-365.682"/>
<polygon fill="midnightblue" stroke="midnightblue" points="230.739,-365.874 228.302,-355.564 223.777,-365.143 230.739,-365.874"/>
</g>
<!-- Node29 -->
<g id="node29" class="node"><title>Node29</title>
<g id="a_node29"><a xlink:href="lb_8hpp.html" target="_top" xlink:title="Header file for lb.cpp. ">
<polygon fill="none" stroke="black" points="276,-504.5 276,-523.5 323,-523.5 323,-504.5 276,-504.5"/>
<text text-anchor="middle" x="299.5" y="-511.5" font-family="Helvetica,sans-Serif" font-size="10.00">lb.hpp</text>
</a>
</g>
</g>
<!-- Node2&#45;&gt;Node29 -->
<g id="edge37" class="edge"><title>Node2&#45;&gt;Node29</title>
<path fill="none" stroke="midnightblue" d="M494.739,-560.444C450.239,-550.086 375.938,-532.792 332.971,-522.791"/>
<polygon fill="midnightblue" stroke="midnightblue" points="333.549,-519.332 323.016,-520.474 331.962,-526.15 333.549,-519.332"/>
</g>
<!-- Node32 -->
<g id="node32" class="node"><title>Node32</title>
<g id="a_node32"><a xlink:href="grid_8hpp.html" target="_top" xlink:title="Domain decomposition for parallel computing. ">
<polygon fill="none" stroke="black" points="606.5,-336.5 606.5,-355.5 662.5,-355.5 662.5,-336.5 606.5,-336.5"/>
<text text-anchor="middle" x="634.5" y="-343.5" font-family="Helvetica,sans-Serif" font-size="10.00">grid.hpp</text>
</a>
</g>
</g>
<!-- Node2&#45;&gt;Node32 -->
<g id="edge65" class="edge"><title>Node2&#45;&gt;Node32</title>
<path fill="none" stroke="midnightblue" d="M539.845,-560.302C547.791,-551.655 559.669,-537.732 567.5,-524 598.369,-469.873 620.27,-398.808 629.551,-365.603"/>
<polygon fill="midnightblue" stroke="midnightblue" points="633.044,-366.095 632.301,-355.526 626.291,-364.252 633.044,-366.095"/>
</g>
<!-- Node4 -->
<g id="node4" class="node"><title>Node4</title>
<polygon fill="none" stroke="#bfbfbf" points="158,-112.5 158,-131.5 205,-131.5 205,-112.5 158,-112.5"/>
<text text-anchor="middle" x="181.5" y="-119.5" font-family="Helvetica,sans-Serif" font-size="10.00">cmath</text>
</g>
<!-- Node3&#45;&gt;Node4 -->
<g id="edge3" class="edge"><title>Node3&#45;&gt;Node4</title>
<path fill="none" stroke="midnightblue" d="M396.885,-171.269C357.638,-163.553 286.032,-149.06 215.232,-132.066"/>
<polygon fill="midnightblue" stroke="midnightblue" points="215.794,-128.601 205.251,-129.652 214.148,-135.404 215.794,-128.601"/>
</g>
<!-- Node5 -->
<g id="node5" class="node"><title>Node5</title>
<polygon fill="none" stroke="#bfbfbf" points="223.5,-112.5 223.5,-131.5 269.5,-131.5 269.5,-112.5 223.5,-112.5"/>
<text text-anchor="middle" x="246.5" y="-119.5" font-family="Helvetica,sans-Serif" font-size="10.00">cstdio</text>
</g>
<!-- Node3&#45;&gt;Node5 -->
<g id="edge4" class="edge"><title>Node3&#45;&gt;Node5</title>
<path fill="none" stroke="midnightblue" d="M397.978,-168.444C365.817,-158.795 313.591,-143.127 279.643,-132.943"/>
<polygon fill="midnightblue" stroke="midnightblue" points="280.321,-129.492 269.737,-129.971 278.309,-136.197 280.321,-129.492"/>
</g>
<!-- Node6 -->
<g id="node6" class="node"><title>Node6</title>
<polygon fill="none" stroke="#bfbfbf" points="91,-112.5 91,-131.5 140,-131.5 140,-112.5 91,-112.5"/>
<text text-anchor="middle" x="115.5" y="-119.5" font-family="Helvetica,sans-Serif" font-size="10.00">cstdlib</text>
</g>
<!-- Node3&#45;&gt;Node6 -->
<g id="edge5" class="edge"><title>Node3&#45;&gt;Node6</title>
<path fill="none" stroke="midnightblue" d="M396.683,-173.228C347.324,-166.757 245.376,-152.435 150.356,-132.232"/>
<polygon fill="midnightblue" stroke="midnightblue" points="150.81,-128.749 140.297,-130.065 149.336,-135.592 150.81,-128.749"/>
</g>
<!-- Node7 -->
<g id="node7" class="node"><title>Node7</title>
<polygon fill="none" stroke="#bfbfbf" points="325.5,-112.5 325.5,-131.5 375.5,-131.5 375.5,-112.5 325.5,-112.5"/>
<text text-anchor="middle" x="350.5" y="-119.5" font-family="Helvetica,sans-Serif" font-size="10.00">cstring</text>
</g>
<!-- Node3&#45;&gt;Node7 -->
<g id="edge6" class="edge"><title>Node3&#45;&gt;Node7</title>
<path fill="none" stroke="midnightblue" d="M414.289,-168.324C402.724,-160.107 385.125,-147.602 371.339,-137.807"/>
<polygon fill="midnightblue" stroke="midnightblue" points="373.112,-134.773 362.933,-131.834 369.057,-140.479 373.112,-134.773"/>
</g>
<!-- Node8 -->
<g id="node8" class="node"><title>Node8</title>
<g id="a_node8"><a xlink:href="config_8hpp.html" target="_top" xlink:title="This file contains the defaults for Espresso. ">
<polygon fill="none" stroke="black" points="478,-56.5 478,-75.5 545,-75.5 545,-56.5 478,-56.5"/>
<text text-anchor="middle" x="511.5" y="-63.5" font-family="Helvetica,sans-Serif" font-size="10.00">config.hpp</text>
</a>
</g>
</g>
<!-- Node3&#45;&gt;Node8 -->
<g id="edge7" class="edge"><title>Node3&#45;&gt;Node8</title>
<path fill="none" stroke="midnightblue" d="M396.936,-171.55C356.482,-162.796 291.574,-143.334 316.5,-112 335.016,-88.7248 415.98,-76.4547 467.585,-70.8799"/>
<polygon fill="midnightblue" stroke="midnightblue" points="468.216,-74.3333 477.802,-69.8216 467.495,-67.3705 468.216,-74.3333"/>
</g>
<!-- Node12 -->
<g id="node12" class="node"><title>Node12</title>
<g id="a_node12"><a xlink:href="debug_8hpp.html" target="_top" xlink:title="This file controls debug facilities. ">
<polygon fill="none" stroke="black" points="477.5,-112.5 477.5,-131.5 545.5,-131.5 545.5,-112.5 477.5,-112.5"/>
<text text-anchor="middle" x="511.5" y="-119.5" font-family="Helvetica,sans-Serif" font-size="10.00">debug.hpp</text>
</a>
</g>
</g>
<!-- Node3&#45;&gt;Node12 -->
<g id="edge11" class="edge"><title>Node3&#45;&gt;Node12</title>
<path fill="none" stroke="midnightblue" d="M440.157,-168.324C453.416,-159.9 473.768,-146.971 489.346,-137.074"/>
<polygon fill="midnightblue" stroke="midnightblue" points="491.313,-139.971 497.877,-131.655 487.56,-134.063 491.313,-139.971"/>
</g>
<!-- Node13 -->
<g id="node13" class="node"><title>Node13</title>
<g id="a_node13"><a xlink:href="lees__edwards_8hpp.html" target="_top" xlink:title="lees_edwards.hpp">
<polygon fill="none" stroke="black" points="563.5,-112.5 563.5,-131.5 667.5,-131.5 667.5,-112.5 563.5,-112.5"/>
<text text-anchor="middle" x="615.5" y="-119.5" font-family="Helvetica,sans-Serif" font-size="10.00">lees_edwards.hpp</text>
</a>
</g>
</g>
<!-- Node3&#45;&gt;Node13 -->
<g id="edge13" class="edge"><title>Node3&#45;&gt;Node13</title>
<path fill="none" stroke="midnightblue" d="M456.031,-168.562C488.297,-159.344 540.147,-144.529 575.919,-134.309"/>
<polygon fill="midnightblue" stroke="midnightblue" points="576.899,-137.669 585.552,-131.556 574.976,-130.938 576.899,-137.669"/>
</g>
<!-- Node3&#45;&gt;Node14 -->
<g id="edge15" class="edge"><title>Node3&#45;&gt;Node14</title>
<path fill="none" stroke="midnightblue" d="M456.013,-173.16C523.234,-164.413 688.914,-142.855 779.646,-131.048"/>
<polygon fill="midnightblue" stroke="midnightblue" points="780.328,-134.489 789.793,-129.728 779.425,-127.548 780.328,-134.489"/>
</g>
<!-- Node18 -->
<g id="node18" class="node"><title>Node18</title>
<polygon fill="none" stroke="#bfbfbf" points="686,-112.5 686,-131.5 733,-131.5 733,-112.5 686,-112.5"/>
<text text-anchor="middle" x="709.5" y="-119.5" font-family="Helvetica,sans-Serif" font-size="10.00">vector</text>
</g>
<!-- Node3&#45;&gt;Node18 -->
<g id="edge20" class="edge"><title>Node3&#45;&gt;Node18</title>
<path fill="none" stroke="midnightblue" d="M456.303,-172.507C501.596,-165.491 590.637,-150.963 675.928,-131.958"/>
<polygon fill="midnightblue" stroke="midnightblue" points="676.783,-135.353 685.77,-129.741 675.245,-128.524 676.783,-135.353"/>
</g>
<!-- Node19 -->
<g id="node19" class="node"><title>Node19</title>
<polygon fill="none" stroke="#bfbfbf" points="394,-112.5 394,-131.5 459,-131.5 459,-112.5 394,-112.5"/>
<text text-anchor="middle" x="426.5" y="-119.5" font-family="Helvetica,sans-Serif" font-size="10.00">exception</text>
</g>
<!-- Node3&#45;&gt;Node19 -->
<g id="edge21" class="edge"><title>Node3&#45;&gt;Node19</title>
<path fill="none" stroke="midnightblue" d="M426.5,-168.083C426.5,-161.006 426.5,-150.861 426.5,-141.986"/>
<polygon fill="midnightblue" stroke="midnightblue" points="430,-141.751 426.5,-131.751 423,-141.751 430,-141.751"/>
</g>
<!-- Node9 -->
<g id="node9" class="node"><title>Node9</title>
<g id="a_node9"><a xlink:href="acconfig_8hpp.html" target="_top" xlink:title="acconfig.hpp">
<polygon fill="none" stroke="black" points="361.5,-0.5 361.5,-19.5 439.5,-19.5 439.5,-0.5 361.5,-0.5"/>
<text text-anchor="middle" x="400.5" y="-7.5" font-family="Helvetica,sans-Serif" font-size="10.00">acconfig.hpp</text>
</a>
</g>
</g>
<!-- Node8&#45;&gt;Node9 -->
<g id="edge8" class="edge"><title>Node8&#45;&gt;Node9</title>
<path fill="none" stroke="midnightblue" d="M493.666,-56.324C475.784,-47.6247 448.025,-34.1202 427.454,-24.113"/>
<polygon fill="midnightblue" stroke="midnightblue" points="428.813,-20.8819 418.29,-19.6545 425.751,-27.1765 428.813,-20.8819"/>
</g>
<!-- Node10 -->
<g id="node10" class="node"><title>Node10</title>
<g id="a_node10"><a xlink:href="myconfig-final_8hpp.html" target="_top" xlink:title="myconfig&#45;final.hpp">
<polygon fill="none" stroke="black" points="458,-0.5 458,-19.5 565,-19.5 565,-0.5 458,-0.5"/>
<text text-anchor="middle" x="511.5" y="-7.5" font-family="Helvetica,sans-Serif" font-size="10.00">myconfig&#45;final.hpp</text>
</a>
</g>
</g>
<!-- Node8&#45;&gt;Node10 -->
<g id="edge9" class="edge"><title>Node8&#45;&gt;Node10</title>
<path fill="none" stroke="midnightblue" d="M511.5,-56.083C511.5,-49.0059 511.5,-38.8611 511.5,-29.9865"/>
<polygon fill="midnightblue" stroke="midnightblue" points="515,-29.751 511.5,-19.7511 508,-29.7511 515,-29.751"/>
</g>
<!-- Node11 -->
<g id="node11" class="node"><title>Node11</title>
<g id="a_node11"><a xlink:href="config-features_8hpp.html" target="_top" xlink:title="config&#45;features.hpp">
<polygon fill="none" stroke="black" points="583,-0.5 583,-19.5 694,-19.5 694,-0.5 583,-0.5"/>
<text text-anchor="middle" x="638.5" y="-7.5" font-family="Helvetica,sans-Serif" font-size="10.00">config&#45;features.hpp</text>
</a>
</g>
</g>
<!-- Node8&#45;&gt;Node11 -->
<g id="edge10" class="edge"><title>Node8&#45;&gt;Node11</title>
<path fill="none" stroke="midnightblue" d="M531.624,-56.4435C552.524,-47.5566 585.435,-33.5632 609.216,-23.4514"/>
<polygon fill="midnightblue" stroke="midnightblue" points="610.638,-26.6504 618.471,-19.5164 607.898,-20.2085 610.638,-26.6504"/>
</g>
<!-- Node12&#45;&gt;Node8 -->
<g id="edge12" class="edge"><title>Node12&#45;&gt;Node8</title>
<path fill="none" stroke="midnightblue" d="M511.5,-112.083C511.5,-105.006 511.5,-94.8611 511.5,-85.9865"/>
<polygon fill="midnightblue" stroke="midnightblue" points="515,-85.751 511.5,-75.7511 508,-85.7511 515,-85.751"/>
</g>
<!-- Node13&#45;&gt;Node8 -->
<g id="edge14" class="edge"><title>Node13&#45;&gt;Node8</title>
<path fill="none" stroke="midnightblue" d="M598.791,-112.324C582.188,-103.703 556.498,-90.3643 537.28,-80.3855"/>
<polygon fill="midnightblue" stroke="midnightblue" points="538.656,-77.1565 528.168,-75.6545 535.43,-83.3689 538.656,-77.1565"/>
</g>
<!-- Node14&#45;&gt;Node8 -->
<g id="edge16" class="edge"><title>Node14&#45;&gt;Node8</title>
<path fill="none" stroke="midnightblue" d="M789.938,-112.562C725.334,-101.991 615.764,-84.0613 555.126,-74.1388"/>
<polygon fill="midnightblue" stroke="midnightblue" points="555.545,-70.661 545.111,-72.5001 554.415,-77.5691 555.545,-70.661"/>
</g>
<!-- Node15 -->
<g id="node15" class="node"><title>Node15</title>
<polygon fill="none" stroke="#bfbfbf" points="875.5,-56.5 875.5,-75.5 919.5,-75.5 919.5,-56.5 875.5,-56.5"/>
<text text-anchor="middle" x="897.5" y="-63.5" font-family="Helvetica,sans-Serif" font-size="10.00">string</text>
</g>
<!-- Node14&#45;&gt;Node15 -->
<g id="edge17" class="edge"><title>Node14&#45;&gt;Node15</title>
<path fill="none" stroke="midnightblue" d="M850.497,-112.324C858.694,-104.42 871.006,-92.5482 880.972,-82.9377"/>
<polygon fill="midnightblue" stroke="midnightblue" points="883.57,-85.2947 888.339,-75.8339 878.711,-80.2558 883.57,-85.2947"/>
</g>
<!-- Node16 -->
<g id="node16" class="node"><title>Node16</title>
<polygon fill="none" stroke="#bfbfbf" points="751.5,-56.5 751.5,-75.5 807.5,-75.5 807.5,-56.5 751.5,-56.5"/>
<text text-anchor="middle" x="779.5" y="-63.5" font-family="Helvetica,sans-Serif" font-size="10.00">sstream</text>
</g>
<!-- Node14&#45;&gt;Node16 -->
<g id="edge18" class="edge"><title>Node14&#45;&gt;Node16</title>
<path fill="none" stroke="midnightblue" d="M831.539,-112.324C822.373,-104.341 808.563,-92.3128 797.472,-82.6529"/>
<polygon fill="midnightblue" stroke="midnightblue" points="799.482,-79.7624 789.643,-75.8339 794.885,-85.041 799.482,-79.7624"/>
</g>
<!-- Node17 -->
<g id="node17" class="node"><title>Node17</title>
<polygon fill="none" stroke="#bfbfbf" points="825.5,-56.5 825.5,-75.5 857.5,-75.5 857.5,-56.5 825.5,-56.5"/>
<text text-anchor="middle" x="841.5" y="-63.5" font-family="Helvetica,sans-Serif" font-size="10.00">list</text>
</g>
<!-- Node14&#45;&gt;Node17 -->
<g id="edge19" class="edge"><title>Node14&#45;&gt;Node17</title>
<path fill="none" stroke="midnightblue" d="M841.5,-112.083C841.5,-105.006 841.5,-94.8611 841.5,-85.9865"/>
<polygon fill="midnightblue" stroke="midnightblue" points="845,-85.751 841.5,-75.7511 838,-85.7511 845,-85.751"/>
</g>
<!-- Node20&#45;&gt;Node3 -->
<g id="edge23" class="edge"><title>Node20&#45;&gt;Node3</title>
<path fill="none" stroke="midnightblue" d="M463.361,-280.368C456.877,-262.537 441.88,-221.295 433.144,-197.272"/>
<polygon fill="midnightblue" stroke="midnightblue" points="436.331,-195.793 429.624,-187.591 429.752,-198.185 436.331,-195.793"/>
</g>
<!-- Node20&#45;&gt;Node21 -->
<g id="edge24" class="edge"><title>Node20&#45;&gt;Node21</title>
<path fill="none" stroke="midnightblue" d="M446.376,-280.444C425.476,-271.557 392.565,-257.563 368.784,-247.451"/>
<polygon fill="midnightblue" stroke="midnightblue" points="370.102,-244.208 359.529,-243.516 367.362,-250.65 370.102,-244.208"/>
</g>
<!-- Node21&#45;&gt;Node3 -->
<g id="edge25" class="edge"><title>Node21&#45;&gt;Node3</title>
<path fill="none" stroke="midnightblue" d="M353.478,-224.324C367.05,-215.9 387.88,-202.971 403.825,-193.074"/>
<polygon fill="midnightblue" stroke="midnightblue" points="405.906,-195.902 412.557,-187.655 402.214,-189.954 405.906,-195.902"/>
</g>
<!-- Node22&#45;&gt;Node21 -->
<g id="edge28" class="edge"><title>Node22&#45;&gt;Node21</title>
<path fill="none" stroke="midnightblue" d="M217.01,-336.306C200.247,-323.567 174.147,-299.255 188.5,-280 199.633,-265.065 241.659,-253.285 278.556,-245.529"/>
<polygon fill="midnightblue" stroke="midnightblue" points="279.694,-248.87 288.797,-243.449 278.3,-242.01 279.694,-248.87"/>
</g>
<!-- Node23 -->
<g id="node23" class="node"><title>Node23</title>
<g id="a_node23"><a xlink:href="ghosts_8hpp.html" target="_top" xlink:title="Ghost particles and particle exchange. ">
<polygon fill="none" stroke="black" points="281.5,-280.5 281.5,-299.5 351.5,-299.5 351.5,-280.5 281.5,-280.5"/>
<text text-anchor="middle" x="316.5" y="-287.5" font-family="Helvetica,sans-Serif" font-size="10.00">ghosts.hpp</text>
</a>
</g>
</g>
<!-- Node22&#45;&gt;Node23 -->
<g id="edge29" class="edge"><title>Node22&#45;&gt;Node23</title>
<path fill="none" stroke="midnightblue" d="M243.478,-336.324C257.05,-327.9 277.88,-314.971 293.825,-305.074"/>
<polygon fill="midnightblue" stroke="midnightblue" points="295.906,-307.902 302.557,-299.655 292.214,-301.954 295.906,-307.902"/>
</g>
<!-- Node28 -->
<g id="node28" class="node"><title>Node28</title>
<g id="a_node28"><a xlink:href="verlet_8hpp.html" target="_top" xlink:title="This file contains routines to setup and handle interaction pair lists (verlet pair lists) for the no...">
<polygon fill="none" stroke="black" points="197.5,-280.5 197.5,-299.5 263.5,-299.5 263.5,-280.5 197.5,-280.5"/>
<text text-anchor="middle" x="230.5" y="-287.5" font-family="Helvetica,sans-Serif" font-size="10.00">verlet.hpp</text>
</a>
</g>
</g>
<!-- Node22&#45;&gt;Node28 -->
<g id="edge35" class="edge"><title>Node22&#45;&gt;Node28</title>
<path fill="none" stroke="midnightblue" d="M229.665,-336.083C229.796,-329.006 229.984,-318.861 230.148,-309.986"/>
<polygon fill="midnightblue" stroke="midnightblue" points="233.652,-309.814 230.338,-299.751 226.653,-309.685 233.652,-309.814"/>
</g>
<!-- Node23&#45;&gt;Node21 -->
<g id="edge34" class="edge"><title>Node23&#45;&gt;Node21</title>
<path fill="none" stroke="midnightblue" d="M320.298,-280.083C323.413,-272.77 327.923,-262.181 331.789,-253.103"/>
<polygon fill="midnightblue" stroke="midnightblue" points="335.074,-254.323 335.773,-243.751 328.634,-251.58 335.074,-254.323"/>
</g>
<!-- Node24 -->
<g id="node24" class="node"><title>Node24</title>
<g id="a_node24"><a xlink:href="mpi_8h.html" target="_top" xlink:title="This is the MPIfake implementation. ">
<polygon fill="none" stroke="black" points="720.5,-224.5 720.5,-243.5 764.5,-243.5 764.5,-224.5 720.5,-224.5"/>
<text text-anchor="middle" x="742.5" y="-231.5" font-family="Helvetica,sans-Serif" font-size="10.00">mpi.h</text>
</a>
</g>
</g>
<!-- Node23&#45;&gt;Node24 -->
<g id="edge30" class="edge"><title>Node23&#45;&gt;Node24</title>
<path fill="none" stroke="midnightblue" d="M351.681,-285.072C438.463,-275.372 658.957,-250.667 710.377,-243.499"/>
<polygon fill="midnightblue" stroke="midnightblue" points="710.926,-246.956 720.261,-241.945 709.838,-240.041 710.926,-246.956"/>
</g>
<!-- Node25 -->
<g id="node25" class="node"><title>Node25</title>
<polygon fill="none" stroke="#bfbfbf" points="509,-168.5 509,-187.5 562,-187.5 562,-168.5 509,-168.5"/>
<text text-anchor="middle" x="535.5" y="-175.5" font-family="Helvetica,sans-Serif" font-size="10.00">string.h</text>
</g>
<!-- Node24&#45;&gt;Node25 -->
<g id="edge31" class="edge"><title>Node24&#45;&gt;Node25</title>
<path fill="none" stroke="midnightblue" d="M720.173,-226.425C717.26,-225.594 714.311,-224.767 711.5,-224 685.445,-216.889 615.477,-199.151 572.015,-188.189"/>
<polygon fill="midnightblue" stroke="midnightblue" points="572.662,-184.742 562.11,-185.692 570.951,-191.53 572.662,-184.742"/>
</g>
<!-- Node26 -->
<g id="node26" class="node"><title>Node26</title>
<polygon fill="none" stroke="#bfbfbf" points="580.5,-168.5 580.5,-187.5 630.5,-187.5 630.5,-168.5 580.5,-168.5"/>
<text text-anchor="middle" x="605.5" y="-175.5" font-family="Helvetica,sans-Serif" font-size="10.00">stdio.h</text>
</g>
<!-- Node24&#45;&gt;Node26 -->
<g id="edge32" class="edge"><title>Node24&#45;&gt;Node26</title>
<path fill="none" stroke="midnightblue" d="M720.792,-224.444C698.145,-215.517 662.428,-201.439 636.748,-191.317"/>
<polygon fill="midnightblue" stroke="midnightblue" points="637.693,-187.927 627.106,-187.516 635.126,-194.44 637.693,-187.927"/>
</g>
<!-- Node27 -->
<g id="node27" class="node"><title>Node27</title>
<polygon fill="none" stroke="#bfbfbf" points="649,-168.5 649,-187.5 702,-187.5 702,-168.5 649,-168.5"/>
<text text-anchor="middle" x="675.5" y="-175.5" font-family="Helvetica,sans-Serif" font-size="10.00">stdlib.h</text>
</g>
<!-- Node24&#45;&gt;Node27 -->
<g id="edge33" class="edge"><title>Node24&#45;&gt;Node27</title>
<path fill="none" stroke="midnightblue" d="M731.735,-224.324C721.734,-216.263 706.613,-204.077 694.57,-194.369"/>
<polygon fill="midnightblue" stroke="midnightblue" points="696.443,-191.384 686.461,-187.834 692.05,-196.834 696.443,-191.384"/>
</g>
<!-- Node28&#45;&gt;Node21 -->
<g id="edge36" class="edge"><title>Node28&#45;&gt;Node21</title>
<path fill="none" stroke="midnightblue" d="M248.013,-280.324C265.572,-271.625 292.831,-258.12 313.031,-248.113"/>
<polygon fill="midnightblue" stroke="midnightblue" points="314.624,-251.23 322.031,-243.655 311.516,-244.958 314.624,-251.23"/>
</g>
<!-- Node29&#45;&gt;Node3 -->
<g id="edge38" class="edge"><title>Node29&#45;&gt;Node3</title>
<path fill="none" stroke="midnightblue" d="M291.338,-504.275C270.745,-481.726 216.474,-418.869 190.5,-356 177.491,-324.513 163.336,-309.429 180.5,-280 193.234,-258.166 256.278,-233.981 279.5,-224 314.859,-208.803 357.025,-196.448 387.11,-188.556"/>
<polygon fill="midnightblue" stroke="midnightblue" points="388.012,-191.938 396.822,-186.053 386.265,-185.159 388.012,-191.938"/>
</g>
<!-- Node30 -->
<g id="node30" class="node"><title>Node30</title>
<g id="a_node30"><a xlink:href="lattice__inline_8hpp.html" target="_top" xlink:title="lattice_inline.hpp">
<polygon fill="none" stroke="black" points="302,-448.5 302,-467.5 403,-467.5 403,-448.5 302,-448.5"/>
<text text-anchor="middle" x="352.5" y="-455.5" font-family="Helvetica,sans-Serif" font-size="10.00">lattice_inline.hpp</text>
</a>
</g>
</g>
<!-- Node29&#45;&gt;Node30 -->
<g id="edge39" class="edge"><title>Node29&#45;&gt;Node30</title>
<path fill="none" stroke="midnightblue" d="M308.252,-504.083C315.97,-496.22 327.405,-484.569 336.717,-475.081"/>
<polygon fill="midnightblue" stroke="midnightblue" points="339.404,-477.34 343.911,-467.751 334.408,-472.436 339.404,-477.34"/>
</g>
<!-- Node38 -->
<g id="node38" class="node"><title>Node38</title>
<g id="a_node38"><a xlink:href="lbgpu_8hpp.html" target="_top" xlink:title="Header file for lbgpu.cpp. ">
<polygon fill="none" stroke="black" points="0,-280.5 0,-299.5 65,-299.5 65,-280.5 0,-280.5"/>
<text text-anchor="middle" x="32.5" y="-287.5" font-family="Helvetica,sans-Serif" font-size="10.00">lbgpu.hpp</text>
</a>
</g>
</g>
<!-- Node29&#45;&gt;Node38 -->
<g id="edge56" class="edge"><title>Node29&#45;&gt;Node38</title>
<path fill="none" stroke="midnightblue" d="M286.076,-504.401C272.262,-495.487 250.184,-481.053 231.5,-468 197.106,-443.971 187.425,-439.225 155.5,-412 114.315,-376.878 69.9903,-331.053 47.4768,-307.133"/>
<polygon fill="midnightblue" stroke="midnightblue" points="49.8524,-304.549 40.464,-299.639 44.7412,-309.332 49.8524,-304.549"/>
</g>
<!-- Node31 -->
<g id="node31" class="node"><title>Node31</title>
<g id="a_node31"><a xlink:href="lattice_8hpp.html" target="_top" xlink:title="Lattice class definition Contains the lattice layout and pointers to the data fields. ">
<polygon fill="none" stroke="black" points="345.5,-392.5 345.5,-411.5 413.5,-411.5 413.5,-392.5 345.5,-392.5"/>
<text text-anchor="middle" x="379.5" y="-399.5" font-family="Helvetica,sans-Serif" font-size="10.00">lattice.hpp</text>
</a>
</g>
</g>
<!-- Node30&#45;&gt;Node31 -->
<g id="edge40" class="edge"><title>Node30&#45;&gt;Node31</title>
<path fill="none" stroke="midnightblue" d="M356.959,-448.083C360.654,-440.691 366.023,-429.953 370.594,-420.811"/>
<polygon fill="midnightblue" stroke="midnightblue" points="373.783,-422.261 375.124,-411.751 367.522,-419.13 373.783,-422.261"/>
</g>
<!-- Node31&#45;&gt;Node21 -->
<g id="edge55" class="edge"><title>Node31&#45;&gt;Node21</title>
<path fill="none" stroke="midnightblue" d="M378.973,-392.305C377.573,-372.159 372.975,-320.88 360.5,-280 357.638,-270.62 353.173,-260.691 349.095,-252.553"/>
<polygon fill="midnightblue" stroke="midnightblue" points="352.184,-250.909 344.446,-243.672 345.983,-254.155 352.184,-250.909"/>
</g>
<!-- Node31&#45;&gt;Node32 -->
<g id="edge41" class="edge"><title>Node31&#45;&gt;Node32</title>
<path fill="none" stroke="midnightblue" d="M413.626,-393.773C461.139,-383.712 546.947,-365.541 596.463,-355.055"/>
<polygon fill="midnightblue" stroke="midnightblue" points="597.394,-358.435 606.452,-352.94 595.944,-351.587 597.394,-358.435"/>
</g>
<!-- Node32&#45;&gt;Node3 -->
<g id="edge42" class="edge"><title>Node32&#45;&gt;Node3</title>
<path fill="none" stroke="midnightblue" d="M638.606,-336.441C644.391,-322.998 652.928,-296.744 640.5,-280 607.567,-235.63 571.329,-267.881 521.5,-244 492.849,-230.269 463.144,-208.523 444.745,-194.014"/>
<polygon fill="midnightblue" stroke="midnightblue" points="446.666,-191.067 436.675,-187.539 442.285,-196.527 446.666,-191.067"/>
</g>
<!-- Node32&#45;&gt;Node14 -->
<g id="edge54" class="edge"><title>Node32&#45;&gt;Node14</title>
<path fill="none" stroke="midnightblue" d="M662.857,-341.44C707.15,-335.289 789.742,-321.252 809.5,-300 850.558,-255.837 847.883,-177.59 844.09,-141.806"/>
<polygon fill="midnightblue" stroke="midnightblue" points="847.552,-141.283 842.873,-131.777 840.603,-142.126 847.552,-141.283"/>
</g>
<!-- Node33 -->
<g id="node33" class="node"><title>Node33</title>
<polygon fill="none" stroke="#bfbfbf" points="581.5,-280.5 581.5,-299.5 631.5,-299.5 631.5,-280.5 581.5,-280.5"/>
<text text-anchor="middle" x="606.5" y="-287.5" font-family="Helvetica,sans-Serif" font-size="10.00">climits</text>
</g>
<!-- Node32&#45;&gt;Node33 -->
<g id="edge43" class="edge"><title>Node32&#45;&gt;Node33</title>
<path fill="none" stroke="midnightblue" d="M629.876,-336.083C626.044,-328.691 620.476,-317.953 615.735,-308.811"/>
<polygon fill="midnightblue" stroke="midnightblue" points="618.748,-307.018 611.038,-299.751 612.534,-310.24 618.748,-307.018"/>
</g>
<!-- Node32&#45;&gt;Node34 -->
<g id="edge44" class="edge"><title>Node32&#45;&gt;Node34</title>
<path fill="none" stroke="midnightblue" d="M652.173,-336.324C669.894,-327.625 697.403,-314.12 717.788,-304.113"/>
<polygon fill="midnightblue" stroke="midnightblue" points="719.436,-307.203 726.87,-299.655 716.351,-300.919 719.436,-307.203"/>
</g>
<!-- Node34&#45;&gt;Node21 -->
<g id="edge45" class="edge"><title>Node34&#45;&gt;Node21</title>
<path fill="none" stroke="midnightblue" d="M687.76,-281.435C611.923,-271.323 478.063,-253.475 400.244,-243.099"/>
<polygon fill="midnightblue" stroke="midnightblue" points="400.487,-239.601 390.112,-241.748 399.562,-246.539 400.487,-239.601"/>
</g>
<!-- Node34&#45;&gt;Node24 -->
<g id="edge50" class="edge"><title>Node34&#45;&gt;Node24</title>
<path fill="none" stroke="midnightblue" d="M744.17,-280.083C743.908,-273.006 743.532,-262.861 743.203,-253.986"/>
<polygon fill="midnightblue" stroke="midnightblue" points="746.692,-253.615 742.824,-243.751 739.697,-253.874 746.692,-253.615"/>
</g>
<!-- Node35 -->
<g id="node35" class="node"><title>Node35</title>
<g id="a_node35"><a xlink:href="random_8hpp.html" target="_top" xlink:title="A random generator. ">
<polygon fill="none" stroke="black" points="531,-224.5 531,-243.5 606,-243.5 606,-224.5 531,-224.5"/>
<text text-anchor="middle" x="568.5" y="-231.5" font-family="Helvetica,sans-Serif" font-size="10.00">random.hpp</text>
</a>
</g>
</g>
<!-- Node34&#45;&gt;Node35 -->
<g id="edge46" class="edge"><title>Node34&#45;&gt;Node35</title>
<path fill="none" stroke="midnightblue" d="M716.612,-280.444C686.746,-271.28 639.185,-256.688 606.044,-246.519"/>
<polygon fill="midnightblue" stroke="midnightblue" points="606.844,-243.104 596.257,-243.516 604.791,-249.796 606.844,-243.104"/>
</g>
<!-- Node36 -->
<g id="node36" class="node"><title>Node36</title>
<g id="a_node36"><a xlink:href="topology_8hpp.html" target="_top" xlink:title="This file contains functions for handling the system topology. ">
<polygon fill="none" stroke="black" points="624,-224.5 624,-243.5 703,-243.5 703,-224.5 624,-224.5"/>
<text text-anchor="middle" x="663.5" y="-231.5" font-family="Helvetica,sans-Serif" font-size="10.00">topology.hpp</text>
</a>
</g>
</g>
<!-- Node34&#45;&gt;Node36 -->
<g id="edge48" class="edge"><title>Node34&#45;&gt;Node36</title>
<path fill="none" stroke="midnightblue" d="M731.486,-280.324C718.968,-271.979 699.818,-259.212 685.029,-249.352"/>
<polygon fill="midnightblue" stroke="midnightblue" points="686.744,-246.289 676.482,-243.655 682.861,-252.114 686.744,-246.289"/>
</g>
<!-- Node37 -->
<g id="node37" class="node"><title>Node37</title>
<g id="a_node37"><a xlink:href="cuda__init_8hpp.html" target="_top" xlink:title="cuda_init.hpp">
<polygon fill="none" stroke="black" points="720.5,-168.5 720.5,-187.5 802.5,-187.5 802.5,-168.5 720.5,-168.5"/>
<text text-anchor="middle" x="761.5" y="-175.5" font-family="Helvetica,sans-Serif" font-size="10.00">cuda_init.hpp</text>
</a>
</g>
</g>
<!-- Node34&#45;&gt;Node37 -->
<g id="edge51" class="edge"><title>Node34&#45;&gt;Node37</title>
<path fill="none" stroke="midnightblue" d="M752.173,-280.459C759.279,-271.927 769.354,-258.088 773.5,-244 778.102,-228.364 773.904,-210.07 769.253,-196.881"/>
<polygon fill="midnightblue" stroke="midnightblue" points="772.5,-195.574 765.587,-187.546 765.985,-198.133 772.5,-195.574"/>
</g>
<!-- Node35&#45;&gt;Node3 -->
<g id="edge47" class="edge"><title>Node35&#45;&gt;Node3</title>
<path fill="none" stroke="midnightblue" d="M546,-224.444C522.423,-215.478 485.178,-201.314 458.536,-191.183"/>
<polygon fill="midnightblue" stroke="midnightblue" points="459.486,-187.8 448.895,-187.516 456.998,-194.342 459.486,-187.8"/>
</g>
<!-- Node36&#45;&gt;Node3 -->
<g id="edge49" class="edge"><title>Node36&#45;&gt;Node3</title>
<path fill="none" stroke="midnightblue" d="M625.947,-224.444C582.233,-214.483 510.369,-198.109 465.886,-187.974"/>
<polygon fill="midnightblue" stroke="midnightblue" points="466.543,-184.534 456.016,-185.725 464.988,-191.359 466.543,-184.534"/>
</g>
<!-- Node37&#45;&gt;Node8 -->
<g id="edge52" class="edge"><title>Node37&#45;&gt;Node8</title>
<path fill="none" stroke="midnightblue" d="M761.493,-168.373C760.985,-154.347 757.824,-126.69 741.5,-112 714.609,-87.8011 614.101,-75.5079 555.223,-70.2564"/>
<polygon fill="midnightblue" stroke="midnightblue" points="555.356,-66.755 545.093,-69.3856 554.757,-73.7293 555.356,-66.755"/>
</g>
<!-- Node37&#45;&gt;Node18 -->
<g id="edge53" class="edge"><title>Node37&#45;&gt;Node18</title>
<path fill="none" stroke="midnightblue" d="M752.913,-168.083C745.341,-160.22 734.122,-148.569 724.986,-139.081"/>
<polygon fill="midnightblue" stroke="midnightblue" points="727.385,-136.527 717.927,-131.751 722.342,-141.382 727.385,-136.527"/>
</g>
<!-- Node38&#45;&gt;Node3 -->
<g id="edge57" class="edge"><title>Node38&#45;&gt;Node3</title>
<path fill="none" stroke="midnightblue" d="M65.241,-281.495C98.3,-273.549 150.608,-259.961 194.5,-244 214.688,-236.659 218.184,-230.977 238.5,-224 288.404,-206.863 347.919,-193.803 386.418,-186.275"/>
<polygon fill="midnightblue" stroke="midnightblue" points="387.534,-189.625 396.694,-184.3 386.213,-182.75 387.534,-189.625"/>
</g>
<!-- Node38&#45;&gt;Node8 -->
<g id="edge58" class="edge"><title>Node38&#45;&gt;Node8</title>
<path fill="none" stroke="midnightblue" d="M30.9823,-280.147C26.4902,-250.637 16.6204,-155.058 68.5,-112 98.8317,-86.8257 362.026,-73.201 467.782,-68.7019"/>
<polygon fill="midnightblue" stroke="midnightblue" points="467.963,-72.1974 477.808,-68.2827 467.671,-65.2035 467.963,-72.1974"/>
</g>
<!-- Node39 -->
<g id="node39" class="node"><title>Node39</title>
<g id="a_node39"><a xlink:href="statistics__observable_8hpp.html" target="_top" xlink:title="statistics_observable.hpp">
<polygon fill="none" stroke="black" points="45,-224.5 45,-243.5 186,-243.5 186,-224.5 45,-224.5"/>
<text text-anchor="middle" x="115.5" y="-231.5" font-family="Helvetica,sans-Serif" font-size="10.00">statistics_observable.hpp</text>
</a>
</g>
</g>
<!-- Node38&#45;&gt;Node39 -->
<g id="edge59" class="edge"><title>Node38&#45;&gt;Node39</title>
<path fill="none" stroke="midnightblue" d="M45.8354,-280.324C58.662,-271.979 78.285,-259.212 93.4398,-249.352"/>
<polygon fill="midnightblue" stroke="midnightblue" points="95.7243,-252.042 102.198,-243.655 91.9068,-246.174 95.7243,-252.042"/>
</g>
<!-- Node39&#45;&gt;Node3 -->
<g id="edge61" class="edge"><title>Node39&#45;&gt;Node3</title>
<path fill="none" stroke="midnightblue" d="M164.779,-224.444C226.212,-213.777 330.013,-195.753 386.673,-185.915"/>
<polygon fill="midnightblue" stroke="midnightblue" points="387.43,-189.336 396.683,-184.177 386.232,-182.44 387.43,-189.336"/>
</g>
<!-- Node39&#45;&gt;Node4 -->
<g id="edge64" class="edge"><title>Node39&#45;&gt;Node4</title>
<path fill="none" stroke="midnightblue" d="M120.679,-224.368C131.523,-206.296 156.794,-164.176 171.116,-140.307"/>
<polygon fill="midnightblue" stroke="midnightblue" points="174.201,-141.967 176.345,-131.591 168.199,-138.366 174.201,-141.967"/>
</g>
<!-- Node39&#45;&gt;Node5 -->
<g id="edge62" class="edge"><title>Node39&#45;&gt;Node5</title>
<path fill="none" stroke="midnightblue" d="M125.779,-224.368C147.972,-205.733 200.611,-161.532 228.477,-138.134"/>
<polygon fill="midnightblue" stroke="midnightblue" points="230.861,-140.702 236.268,-131.591 226.359,-135.342 230.861,-140.702"/>
</g>
<!-- Node39&#45;&gt;Node6 -->
<g id="edge63" class="edge"><title>Node39&#45;&gt;Node6</title>
<path fill="none" stroke="midnightblue" d="M115.5,-224.368C115.5,-206.617 115.5,-165.666 115.5,-141.597"/>
<polygon fill="midnightblue" stroke="midnightblue" points="119,-141.591 115.5,-131.591 112,-141.591 119,-141.591"/>
</g>
<!-- Node39&#45;&gt;Node8 -->
<g id="edge60" class="edge"><title>Node39&#45;&gt;Node8</title>
<path fill="none" stroke="midnightblue" d="M108.425,-224.464C91.3737,-202.834 51.561,-145.236 81.5,-112 107.029,-83.6594 363.118,-71.9538 467.533,-68.3339"/>
<polygon fill="midnightblue" stroke="midnightblue" points="467.863,-71.8249 477.739,-67.9892 467.627,-64.8289 467.863,-71.8249"/>
</g>
</g>
</svg>
